<?xml version="1.0" standalone="no"?>
<!DOCTYPE svg PUBLIC "-//W3C//DTD SVG 20010904//EN"
 "http://www.w3.org/TR/2001/REC-SVG-20010904/DTD/svg10.dtd">
<svg version="1.0" xmlns="http://www.w3.org/2000/svg"
 width="880.000000pt" height="852.000000pt" viewBox="0 0 880.000000 852.000000"
 preserveAspectRatio="xMidYMid meet">

<g transform="translate(0.000000,852.000000) scale(0.100000,-0.100000)"
fill="#000000" stroke="none">
<path d="M4105 8425 c-5 -1 -62 -8 -125 -14 -170 -18 -378 -53 -515 -88 -202
-51 -332 -90 -445 -133 -30 -12 -66 -25 -80 -30 -14 -4 -86 -34 -160 -66 -633
-274 -1188 -698 -1622 -1243 -103 -128 -268 -365 -294 -421 -4 -8 -16 -28 -27
-43 -51 -75 -178 -330 -262 -527 -350 -830 -412 -1816 -169 -2705 275 -1006
925 -1874 1824 -2436 200 -125 536 -296 670 -339 14 -5 50 -18 80 -30 145 -55
404 -131 570 -165 41 -9 95 -20 120 -25 25 -6 79 -15 120 -20 41 -5 104 -14
140 -19 36 -5 163 -15 284 -22 192 -11 249 -11 475 5 141 9 283 21 316 27 224
36 330 57 430 84 28 7 79 21 115 31 98 26 364 115 375 125 5 5 15 9 23 9 7 0
38 11 68 25 30 14 80 36 112 49 465 198 988 575 1367 988 555 603 903 1314
1045 2133 44 256 64 766 41 1035 -34 397 -109 731 -255 1135 -113 313 -332
710 -558 1011 -145 194 -213 271 -417 474 -479 476 -1117 854 -1746 1035 -33
9 -80 23 -105 30 -164 47 -430 96 -656 120 -123 13 -704 21 -739 10z"/>
</g>
</svg>
