<svg version="1.1" id="Layer_1" xmlns="http://www.w3.org/2000/svg" xmlns:xlink="http://www.w3.org/1999/xlink" x="0px" y="0px"
	 width="100%" viewBox="0 0 1920 696" enable-background="new 0 0 1920 696" xml:space="preserve">
<path fill="#000000" opacity="1.000000" stroke="none" 
	d="
M673.000000,0.999992 
	C1088.890991,1.000000 1504.782104,1.000000 1921.000000,1.000000 
	C1921.000000,114.361160 1921.000000,227.722626 1920.665771,341.440247 
	C1919.743286,341.485931 1919.127563,341.218018 1918.570679,340.858887 
	C1906.154541,332.853363 1894.909058,336.577301 1891.345581,350.678986 
	C1882.520752,385.600739 1869.549438,418.845764 1852.257690,450.403625 
	C1838.774048,475.011261 1822.876465,497.999847 1804.953003,519.582581 
	C1789.612793,538.054871 1772.793823,555.066345 1754.706299,570.870422 
	C1733.311768,589.564331 1710.179321,605.827820 1685.657227,620.042419 
	C1662.401123,633.523193 1637.953369,644.647095 1612.307617,652.760803 
	C1579.622925,663.101440 1546.567505,671.145386 1511.733765,666.041504 
	C1488.184204,662.591064 1467.358154,653.872192 1449.789673,637.415833 
	C1433.768433,622.408875 1422.912720,603.920959 1413.598511,584.535950 
	C1403.508545,563.536926 1394.384033,542.066650 1385.122803,520.678894 
	C1373.633911,494.146881 1358.255371,470.075073 1338.963379,448.663757 
	C1309.717163,416.204742 1274.631104,391.382965 1235.465210,372.331116 
	C1204.335327,357.188385 1171.637817,346.312195 1137.937866,338.557007 
	C1093.469604,328.323700 1048.268433,323.592285 1002.736511,323.195129 
	C966.624512,322.880157 930.491943,324.104706 894.378540,325.033600 
	C870.599121,325.645233 846.845520,327.374115 823.065613,327.825378 
	C795.619507,328.346222 768.144775,328.537079 740.705872,327.884857 
	C718.441406,327.355560 696.172058,325.825104 673.976685,323.907867 
	C648.151733,321.677124 623.004639,315.926208 598.736023,306.655945 
	C596.809204,305.919891 595.074219,304.681427 592.663635,303.353394 
	C594.312500,301.492371 595.410461,300.076874 596.684875,298.843689 
	C604.446777,291.332733 612.664124,284.244995 619.959351,276.308105 
	C641.575012,252.791321 663.113708,229.191223 684.140686,205.149811 
	C701.051575,185.814575 716.126343,165.132492 727.217896,141.714676 
	C737.450989,120.109314 742.813843,97.522606 739.444885,73.838898 
	C734.960022,42.310612 716.936523,20.504547 687.844116,7.746971 
	C682.866943,5.564382 677.946594,3.252265 673.000000,0.999992 
z"/>
<path fill="#000000" opacity="1.000000" stroke="none" 
	d="
M1494.000000,697.000000 
	C996.333313,697.000000 498.666656,697.000000 1.000000,697.000000 
	C1.000000,664.565613 1.000000,632.240784 1.328236,599.571350 
	C8.323669,604.869995 15.950437,604.766418 23.860256,602.919861 
	C26.778805,602.238525 29.693153,601.537537 32.600025,600.808044 
	C57.477139,594.565186 82.544769,588.985413 107.185402,581.917358 
	C151.086960,569.324524 194.213669,554.323669 236.026703,535.874817 
	C262.982330,523.981445 289.963989,512.002319 316.128876,498.501312 
	C343.187012,484.539337 369.672729,469.347656 395.665527,453.476593 
	C419.949554,438.648956 443.560822,422.658752 466.924072,406.398468 
	C500.019684,383.364685 531.190247,357.810211 561.603027,331.355408 
	C564.955994,328.438751 567.588013,328.604736 571.454407,330.091339 
	C585.890015,335.641693 600.218018,341.778137 615.097351,345.808533 
	C654.743774,356.547607 695.581604,358.685944 736.364868,359.805359 
	C762.316528,360.517700 788.326416,359.609985 814.297974,358.949585 
	C839.414124,358.310944 864.511353,356.957672 889.623169,356.104614 
	C913.911926,355.279572 938.205200,354.380280 962.503174,354.104370 
	C980.143921,353.904053 997.801758,354.479523 1015.440247,355.063171 
	C1028.075073,355.481262 1040.743530,355.988464 1053.304077,357.326996 
	C1083.295044,360.522858 1113.175415,364.782684 1142.186523,373.259460 
	C1161.660034,378.949493 1181.042725,385.176422 1199.970581,392.452332 
	C1225.069336,402.100220 1248.434204,415.237732 1270.289673,431.019592 
	C1288.609497,444.248260 1305.184814,459.312469 1319.720093,476.611511 
	C1338.455688,498.909576 1351.676392,524.417664 1363.206299,550.952820 
	C1374.747437,577.514221 1385.464478,604.437744 1400.909668,629.180176 
	C1421.731934,662.536682 1450.398193,684.892456 1488.751953,694.475342 
	C1490.596436,694.936218 1492.254883,696.141418 1494.000000,697.000000 
z"/>
<path fill="#000000" opacity="1.000000" stroke="none" 
	d="
M1.000000,578.000000 
	C1.000000,385.734955 1.000000,193.469894 1.000000,1.000000 
	C205.359131,1.000000 409.718323,1.000000 614.336060,1.279177 
	C612.491638,2.495174 610.414856,3.496988 608.280762,4.356662 
	C601.798462,6.967919 595.066040,9.067003 588.835083,12.175564 
	C545.736938,33.676865 516.402649,67.855362 498.218811,111.956070 
	C487.001617,139.160690 482.882111,167.594635 483.872528,197.003372 
	C484.602325,218.673706 489.510956,239.171570 498.435516,258.759399 
	C506.698639,276.895416 518.755920,292.261688 533.737671,305.369812 
	C534.913940,306.398956 535.851074,307.701416 537.279114,309.302826 
	C524.672913,319.825287 512.686157,330.102600 500.412567,340.025024 
	C461.780334,371.256775 421.426208,400.099548 379.006134,425.961731 
	C361.102173,436.877167 342.750549,447.068787 324.469025,457.352295 
	C289.883911,476.806702 253.977798,493.602844 217.385315,508.836548 
	C194.189987,518.492920 170.610718,527.321228 146.861755,535.532043 
	C109.387047,548.488220 71.210968,559.100403 32.587219,568.179199 
	C21.911480,570.688599 10.230386,570.616882 1.000000,578.000000 
z"/>
<path fill="#1A1A1A" opacity="1.000000" stroke="none" 
	d="
M1.000000,578.468506 
	C10.230386,570.616882 21.911480,570.688599 32.587219,568.179199 
	C71.210968,559.100403 109.387047,548.488220 146.861755,535.532043 
	C170.610718,527.321228 194.189987,518.492920 217.385315,508.836548 
	C253.977798,493.602844 289.883911,476.806702 324.469025,457.352295 
	C342.750549,447.068787 361.102173,436.877167 379.006134,425.961731 
	C421.426208,400.099548 461.780334,371.256775 500.412567,340.025024 
	C512.686157,330.102600 524.672913,319.825287 537.279114,309.302826 
	C535.851074,307.701416 534.913940,306.398956 533.737671,305.369812 
	C518.755920,292.261688 506.698639,276.895416 498.435516,258.759399 
	C489.510956,239.171570 484.602325,218.673706 483.872528,197.003372 
	C482.882111,167.594635 487.001617,139.160690 498.218811,111.956070 
	C516.402649,67.855362 545.736938,33.676865 588.835083,12.175564 
	C595.066040,9.067003 601.798462,6.967919 608.280762,4.356662 
	C610.414856,3.496988 612.491638,2.495174 614.797363,1.279177 
	C634.020874,1.000000 653.041809,1.000000 672.531372,0.999992 
	C677.946594,3.252265 682.866943,5.564382 687.844116,7.746971 
	C716.936523,20.504547 734.960022,42.310612 739.444885,73.838898 
	C742.813843,97.522606 737.450989,120.109314 727.217896,141.714676 
	C716.126343,165.132492 701.051575,185.814575 684.140686,205.149811 
	C663.113708,229.191223 641.575012,252.791321 619.959351,276.308105 
	C612.664124,284.244995 604.446777,291.332733 596.684875,298.843689 
	C595.410461,300.076874 594.312500,301.492371 592.663635,303.353394 
	C595.074219,304.681427 596.809204,305.919891 598.736023,306.655945 
	C623.004639,315.926208 648.151733,321.677124 673.976685,323.907867 
	C696.172058,325.825104 718.441406,327.355560 740.705872,327.884857 
	C768.144775,328.537079 795.619507,328.346222 823.065613,327.825378 
	C846.845520,327.374115 870.599121,325.645233 894.378540,325.033600 
	C930.491943,324.104706 966.624512,322.880157 1002.736511,323.195129 
	C1048.268433,323.592285 1093.469604,328.323700 1137.937866,338.557007 
	C1171.637817,346.312195 1204.335327,357.188385 1235.465210,372.331116 
	C1274.631104,391.382965 1309.717163,416.204742 1338.963379,448.663757 
	C1358.255371,470.075073 1373.633911,494.146881 1385.122803,520.678894 
	C1394.384033,542.066650 1403.508545,563.536926 1413.598511,584.535950 
	C1422.912720,603.920959 1433.768433,622.408875 1449.789673,637.415833 
	C1467.358154,653.872192 1488.184204,662.591064 1511.733765,666.041504 
	C1546.567505,671.145386 1579.622925,663.101440 1612.307617,652.760803 
	C1637.953369,644.647095 1662.401123,633.523193 1685.657227,620.042419 
	C1710.179321,605.827820 1733.311768,589.564331 1754.706299,570.870422 
	C1772.793823,555.066345 1789.612793,538.054871 1804.953003,519.582581 
	C1822.876465,497.999847 1838.774048,475.011261 1852.257690,450.403625 
	C1869.549438,418.845764 1882.520752,385.600739 1891.345581,350.678986 
	C1894.909058,336.577301 1906.154541,332.853363 1918.570679,340.858887 
	C1919.127563,341.218018 1919.743286,341.485931 1920.665771,341.898193 
	C1921.000000,351.020905 1921.000000,360.041779 1920.719971,369.733429 
	C1919.650635,372.029572 1918.697754,373.596954 1918.096924,375.289276 
	C1912.085205,392.223389 1906.641235,409.378967 1900.057983,426.086243 
	C1885.113647,464.012909 1864.010254,498.468536 1838.932251,530.476624 
	C1818.668823,556.339539 1795.948853,579.856995 1770.694458,600.981384 
	C1743.986450,623.321411 1715.234253,642.516663 1684.197266,658.158630 
	C1650.741577,675.019531 1615.720215,687.655396 1578.833618,694.812378 
	C1577.144531,695.140137 1575.607788,696.252869 1574.000000,697.000000 
	C1547.645752,697.000000 1521.291504,697.000000 1494.468628,697.000000 
	C1492.254883,696.141418 1490.596436,694.936218 1488.751953,694.475342 
	C1450.398193,684.892456 1421.731934,662.536682 1400.909668,629.180176 
	C1385.464478,604.437744 1374.747437,577.514221 1363.206299,550.952820 
	C1351.676392,524.417664 1338.455688,498.909576 1319.720093,476.611511 
	C1305.184814,459.312469 1288.609497,444.248260 1270.289673,431.019592 
	C1248.434204,415.237732 1225.069336,402.100220 1199.970581,392.452332 
	C1181.042725,385.176422 1161.660034,378.949493 1142.186523,373.259460 
	C1113.175415,364.782684 1083.295044,360.522858 1053.304077,357.326996 
	C1040.743530,355.988464 1028.075073,355.481262 1015.440247,355.063171 
	C997.801758,354.479523 980.143921,353.904053 962.503174,354.104370 
	C938.205200,354.380280 913.911926,355.279572 889.623169,356.104614 
	C864.511353,356.957672 839.414124,358.310944 814.297974,358.949585 
	C788.326416,359.609985 762.316528,360.517700 736.364868,359.805359 
	C695.581604,358.685944 654.743774,356.547607 615.097351,345.808533 
	C600.218018,341.778137 585.890015,335.641693 571.454407,330.091339 
	C567.588013,328.604736 564.955994,328.438751 561.603027,331.355408 
	C531.190247,357.810211 500.019684,383.364685 466.924072,406.398468 
	C443.560822,422.658752 419.949554,438.648956 395.665527,453.476593 
	C369.672729,469.347656 343.187012,484.539337 316.128876,498.501312 
	C289.963989,512.002319 262.982330,523.981445 236.026703,535.874817 
	C194.213669,554.323669 151.086960,569.324524 107.185402,581.917358 
	C82.544769,588.985413 57.477139,594.565186 32.600025,600.808044 
	C29.693153,601.537537 26.778805,602.238525 23.860256,602.919861 
	C15.950437,604.766418 8.323669,604.869995 1.328236,599.113403 
	C1.000000,592.312378 1.000000,585.624695 1.000000,578.468506 
M670.018066,170.523102 
	C685.373169,151.266006 698.788879,130.863312 705.780396,106.959618 
	C712.724854,83.217049 708.015503,62.368748 688.523132,46.184353 
	C675.212341,35.132446 659.234375,29.658504 642.213440,30.455896 
	C621.109558,31.444563 602.238586,39.967121 585.166870,52.362041 
	C567.041687,65.521881 551.934265,81.367836 540.357117,100.696259 
	C524.982727,126.364250 516.218872,153.951370 515.059448,183.824081 
	C514.265747,204.274307 518.452087,223.807816 526.937073,242.481079 
	C534.392944,258.889557 545.184082,272.598694 559.375122,283.595093 
	C560.518005,284.480713 563.601929,284.327850 564.811218,283.395721 
	C569.012634,280.157074 572.985413,276.556488 576.686707,272.745392 
	C593.729675,255.196793 611.001709,237.851059 627.511230,219.809952 
	C641.991089,203.986786 655.566711,187.336212 670.018066,170.523102 
z"/>
<path fill="#000000" opacity="1.000000" stroke="none" 
	d="
M1574.468628,697.000000 
	C1575.607788,696.252869 1577.144531,695.140137 1578.833618,694.812378 
	C1615.720215,687.655396 1650.741577,675.019531 1684.197266,658.158630 
	C1715.234253,642.516663 1743.986450,623.321411 1770.694458,600.981384 
	C1795.948853,579.856995 1818.668823,556.339539 1838.932251,530.476624 
	C1864.010254,498.468536 1885.113647,464.012909 1900.057983,426.086243 
	C1906.641235,409.378967 1912.085205,392.223389 1918.096924,375.289276 
	C1918.697754,373.596954 1919.650635,372.029572 1920.719971,370.202087 
	C1921.000000,478.929230 1921.000000,587.858459 1921.000000,697.000000 
	C1805.645874,697.000000 1690.291504,697.000000 1574.468628,697.000000 
z"/>
<path fill="#000000" opacity="1.000000" stroke="none" 
	d="
M669.779907,170.787109 
	C655.566711,187.336212 641.991089,203.986786 627.511230,219.809952 
	C611.001709,237.851059 593.729675,255.196793 576.686707,272.745392 
	C572.985413,276.556488 569.012634,280.157074 564.811218,283.395721 
	C563.601929,284.327850 560.518005,284.480713 559.375122,283.595093 
	C545.184082,272.598694 534.392944,258.889557 526.937073,242.481079 
	C518.452087,223.807816 514.265747,204.274307 515.059448,183.824081 
	C516.218872,153.951370 524.982727,126.364250 540.357117,100.696259 
	C551.934265,81.367836 567.041687,65.521881 585.166870,52.362041 
	C602.238586,39.967121 621.109558,31.444563 642.213440,30.455896 
	C659.234375,29.658504 675.212341,35.132446 688.523132,46.184353 
	C708.015503,62.368748 712.724854,83.217049 705.780396,106.959618 
	C698.788879,130.863312 685.373169,151.266006 669.779907,170.787109 
z"/>
</svg>