<svg version="1.1" id="Layer_1" xmlns="http://www.w3.org/2000/svg" xmlns:xlink="http://www.w3.org/1999/xlink" x="0px" y="0px"
	 width="100%" viewBox="0 0 692 692" enable-background="new 0 0 692 692" xml:space="preserve">
<path fill="#E6E6E6" opacity="1.000000" stroke="none" 
	d="
M1.000000,179.000000 
	C1.000000,120.311905 1.000000,61.623806 1.219536,2.360387 
	C1.709926,1.583313 1.896902,1.321624 2.000000,1.000000 
	C231.688110,1.000000 461.376221,1.000000 691.640930,1.218789 
	C692.414734,1.713550 692.675537,1.901024 693.000000,2.000000 
	C693.000000,232.261719 693.000000,462.523438 693.000000,692.892578 
	C462.333374,692.892578 231.666687,692.892578 1.000000,692.892578 
	C1.000000,686.598816 1.000000,680.267578 1.386651,673.358643 
	C2.182042,671.439392 2.930087,670.102661 2.949487,668.755432 
	C3.349463,640.978699 3.781452,613.201477 3.937940,585.422729 
	C3.993073,575.635986 3.065197,565.844971 3.073467,556.056335 
	C3.082301,545.600891 3.941188,535.146179 3.955226,524.690552 
	C4.043559,458.898560 4.023481,393.106323 3.955501,327.314301 
	C3.950033,322.022430 3.396264,316.723419 2.891724,311.447418 
	C2.808702,310.579254 1.657521,309.813232 0.999998,309.000000 
	C1.000000,296.645233 1.000000,284.290466 1.384866,271.359406 
	C2.844727,264.397461 4.595619,258.038666 4.850579,251.620453 
	C5.344227,239.193665 5.208601,226.726654 4.815126,214.292740 
	C4.737004,211.824066 2.331992,209.429001 0.999999,207.000000 
	C1.000000,202.642868 1.000000,198.285721 1.384989,193.355713 
	C3.880948,188.340454 3.498707,181.498230 1.000000,179.000000 
M19.381092,674.494141 
	C20.258471,674.681641 21.135851,674.869141 22.001598,675.856995 
	C21.753237,677.632324 21.504877,679.407715 21.025635,682.833435 
	C25.415823,681.290527 28.892506,680.068665 32.611164,678.761719 
	C33.015396,680.381348 33.478203,682.235657 33.932514,684.055969 
	C31.353205,685.088684 29.151964,685.970032 25.986876,687.237305 
	C28.600956,689.395020 29.482384,691.750427 32.857193,689.793518 
	C35.390636,688.324463 38.525455,687.113037 41.393360,687.111267 
	C243.390381,686.988953 445.387482,687.000061 647.384583,686.999084 
	C649.051147,686.999084 650.757629,687.203308 652.370850,686.906555 
	C653.543579,686.690735 655.474243,685.903625 655.553223,685.200989 
	C656.037903,680.891541 658.940063,681.115906 662.094971,680.931152 
	C669.683289,680.486755 676.635925,677.365356 679.380554,670.365662 
	C682.469788,662.487000 678.218567,655.320190 672.899353,648.155457 
	C673.018799,645.101013 673.138306,642.046570 673.953918,638.850891 
	C675.301453,635.656555 677.712585,632.500488 677.828918,629.261902 
	C678.792847,602.436523 679.595825,575.598877 679.902954,548.758728 
	C680.093079,532.142151 679.239563,515.515930 679.021973,498.891846 
	C678.616760,467.941956 678.254517,436.991028 678.028076,406.039398 
	C677.879333,385.714355 677.981750,365.387299 678.026978,345.061249 
	C678.031738,342.919891 678.352905,340.772186 678.624268,338.639740 
	C679.728760,329.959076 681.972168,321.262207 681.807190,312.609222 
	C681.122681,276.701752 684.091980,240.754562 680.172791,204.864868 
	C678.806458,192.353394 679.015930,179.633560 679.067993,167.011200 
	C679.170227,142.223923 679.748291,117.438988 679.971436,92.651657 
	C680.121460,75.992233 680.085938,59.329559 679.928284,42.670273 
	C679.896301,39.295757 678.811523,35.942513 678.490540,32.553089 
	C678.382874,31.415228 679.103210,30.182539 679.510437,29.015987 
	C680.228821,26.958210 680.997314,24.917917 681.744873,22.870331 
	C679.832336,22.246340 677.919861,21.622351 676.002563,20.249361 
	C676.000916,19.500345 675.999207,18.751329 675.916992,17.316246 
	C674.921265,15.844491 675.419678,12.608586 671.066040,13.998548 
	C458.044159,13.997995 245.022293,13.997442 31.782232,13.227121 
	C26.909348,13.132839 22.003559,12.704343 17.186644,13.178562 
	C15.977894,13.297564 15.054449,16.314554 13.998765,18.499660 
	C13.998765,18.499660 13.997393,18.999624 13.229095,19.216597 
	C11.671392,23.586752 10.312196,27.944990 13.997967,32.934387 
	C13.997473,49.289433 13.996979,65.644478 13.224117,82.219482 
	C12.816087,84.062019 12.057700,85.903580 12.052598,87.747231 
	C11.976518,115.240128 12.005197,142.733307 11.987464,170.226395 
	C11.986363,171.932541 11.805116,173.638535 11.707683,175.344604 
	C11.142210,175.379837 10.576738,175.415054 10.011267,175.450272 
	C9.674210,173.195816 9.049644,170.942108 9.043924,168.686813 
	C8.975902,141.860367 9.005576,115.033699 8.988132,88.207092 
	C8.986915,86.333206 8.815616,84.459435 8.723408,82.585602 
	C8.090035,82.528847 7.456663,82.472092 6.823290,82.415329 
	C6.548880,84.444717 5.973500,86.484795 6.045150,88.501892 
	C7.141679,119.371559 5.841608,150.228348 7.372944,181.168610 
	C8.967991,213.396103 9.943182,245.909210 6.310477,278.304810 
	C5.058151,289.472778 7.899197,301.035797 7.912980,312.419495 
	C8.054806,429.556671 8.000001,546.694031 8.000001,663.831360 
	C8.000001,665.960144 8.000001,668.088989 8.000001,668.792786 
	C10.175719,670.721130 11.239473,671.902954 12.530102,672.731445 
	C13.541164,673.380493 14.833270,673.591797 16.723183,674.000000 
	C17.445820,674.006714 18.168455,674.013489 19.381092,674.494141 
M688.000000,626.500000 
	C687.999939,617.510315 688.071350,608.519653 687.946533,599.531677 
	C687.917480,597.444458 687.219910,595.366516 686.829956,593.284241 
	C686.150269,593.246521 685.470581,593.208801 684.790894,593.171082 
	C684.194519,595.010925 683.214539,596.823608 683.082092,598.696289 
	C682.812561,602.506226 683.000061,606.348511 683.000061,610.177429 
	C683.000061,623.828430 682.885742,637.481567 683.137634,651.127930 
	C683.171326,652.951172 685.059448,654.740173 686.088867,656.545044 
	C686.725830,654.854187 687.871399,653.175781 687.913086,651.470337 
	C688.108521,643.484314 687.999939,635.490845 688.000000,626.500000 
M6.005879,21.954367 
	C5.991662,29.690380 5.991662,29.690380 8.427815,31.305231 
	C8.427815,27.019793 8.427815,22.804550 8.427815,18.589308 
	C8.087874,18.519644 7.747934,18.449980 7.407994,18.380316 
	C6.949389,19.291010 6.490784,20.201704 6.005879,21.954367 
M22.863831,9.993292 
	C25.711037,9.624705 28.558243,9.256119 31.405451,8.887532 
	C31.325689,8.460562 31.245928,8.033592 31.166166,7.606622 
	C26.993429,7.606622 22.820694,7.606622 18.647957,7.606622 
	C18.605970,7.947528 18.563984,8.288434 18.521997,8.629340 
	C19.691072,9.074752 20.860146,9.520164 22.863831,9.993292 
z"/>
<path fill="#E6E6E4" opacity="1.000000" stroke="none" 
	d="
M0.999998,309.468658 
	C1.657521,309.813232 2.808702,310.579254 2.891724,311.447418 
	C3.396264,316.723419 3.950033,322.022430 3.955501,327.314301 
	C4.023481,393.106323 4.043559,458.898560 3.955226,524.690552 
	C3.941188,535.146179 3.082301,545.600891 3.073467,556.056335 
	C3.065197,565.844971 3.993073,575.635986 3.937940,585.422729 
	C3.781452,613.201477 3.349463,640.978699 2.949487,668.755432 
	C2.930087,670.102661 2.182042,671.439392 1.386651,672.890503 
	C1.000000,551.979126 1.000000,430.958221 0.999998,309.468658 
z"/>
<path fill="#E6E6E4" opacity="1.000000" stroke="none" 
	d="
M0.999999,207.468658 
	C2.331992,209.429001 4.737004,211.824066 4.815126,214.292740 
	C5.208601,226.726654 5.344227,239.193665 4.850579,251.620453 
	C4.595619,258.038666 2.844727,264.397461 1.384866,270.891541 
	C1.000000,249.979111 1.000000,228.958206 0.999999,207.468658 
z"/>
<path fill="#E6E6E4" opacity="1.000000" stroke="none" 
	d="
M1.000000,179.464645 
	C3.498707,181.498230 3.880948,188.340454 1.384989,192.891418 
	C1.000000,188.643097 1.000000,184.286194 1.000000,179.464645 
z"/>
<path fill="#D0D0D0" opacity="1.000000" stroke="none" 
	d="
M693.000000,1.500000 
	C692.675537,1.901024 692.414734,1.713550 692.108765,1.218789 
	C692.333313,1.000000 692.666687,1.000000 693.000000,1.500000 
z"/>
<path fill="#D0D0D0" opacity="1.000000" stroke="none" 
	d="
M1.500000,1.000000 
	C1.896902,1.321624 1.709926,1.583313 1.219536,1.892534 
	C1.000000,1.666667 1.000000,1.333333 1.500000,1.000000 
z"/>
<path fill="#FFC101" opacity="1.000000" stroke="none" 
	d="
M673.257812,638.992126 
	C673.138306,642.046570 673.018799,645.101013 672.887329,649.021484 
	C672.807678,656.781982 672.740051,663.676514 672.355469,670.582031 
	C671.308716,671.240051 670.578857,671.887207 669.396484,672.606812 
	C667.445862,672.718262 665.947632,672.791504 664.449463,672.791504 
	C456.331085,672.796509 248.212708,672.795593 40.094330,672.798340 
	C34.096687,672.798462 28.099043,672.834045 22.242447,672.814209 
	C22.383492,672.775269 22.342409,672.484497 22.355846,672.247559 
	C22.504644,671.364136 22.640003,670.717773 23.180445,670.061279 
	C24.853785,669.874329 26.122040,669.697449 27.913588,669.447632 
	C24.587160,667.678711 22.060810,666.335327 19.472958,664.703369 
	C19.347250,664.228882 19.283045,664.042847 19.292061,663.568359 
	C19.301334,662.891968 19.237387,662.504089 19.158127,661.807373 
	C19.034103,661.323486 18.925396,661.148376 18.894852,660.512329 
	C18.899374,654.012390 18.825731,647.973328 19.080158,641.795654 
	C19.199774,640.458130 18.991323,639.259094 18.879375,637.599731 
	C18.915176,632.741455 18.854479,628.343445 19.134708,623.748962 
	C19.805895,619.364624 20.136148,615.176880 20.772842,610.882324 
	C22.667725,609.376465 25.253908,607.835754 25.544954,610.900024 
	C26.197546,617.770813 30.687479,617.013489 35.232792,617.013123 
	C240.495041,616.997986 445.757294,617.000000 651.019531,617.000061 
	C658.674133,617.000061 658.674133,617.000183 662.662720,623.073853 
	C663.174988,622.109009 663.921631,621.349731 663.933105,620.579529 
	C664.031006,613.995667 664.053345,607.409180 663.976257,600.824890 
	C663.936523,597.432434 663.736694,594.112061 668.616577,595.320862 
	C669.699402,586.958130 670.713684,579.124573 672.029053,571.632080 
	C672.462219,573.780640 672.706360,575.587891 672.709290,577.395569 
	C672.739380,595.633789 672.711548,613.872070 672.754944,632.110168 
	C672.760376,634.404541 673.082397,636.698181 673.257812,638.992126 
z"/>
<path fill="#E6E6E4" opacity="1.000000" stroke="none" 
	d="
M672.672485,670.571045 
	C672.740051,663.676514 672.807678,656.781982 673.061401,649.450073 
	C678.218567,655.320190 682.469788,662.487000 679.380554,670.365662 
	C676.635925,677.365356 669.683289,680.486755 662.094971,680.931152 
	C658.940063,681.115906 656.037903,680.891541 655.553223,685.200989 
	C655.474243,685.903625 653.543579,686.690735 652.370850,686.906555 
	C650.757629,687.203308 649.051147,686.999084 647.384583,686.999084 
	C445.387482,687.000061 243.390381,686.988953 41.393360,687.111267 
	C38.525455,687.113037 35.390636,688.324463 32.857193,689.793518 
	C29.482384,691.750427 28.600956,689.395020 25.986876,687.237305 
	C29.151964,685.970032 31.353205,685.088684 33.932514,684.055969 
	C33.478203,682.235657 33.015396,680.381348 32.611164,678.761719 
	C28.892506,680.068665 25.415823,681.290527 21.025635,682.833435 
	C21.504877,679.407715 21.753237,677.632324 22.028183,675.089355 
	C22.070312,673.832214 22.085855,673.342651 22.101398,672.853088 
	C28.099043,672.834045 34.096687,672.798462 40.094330,672.798340 
	C248.212708,672.795593 456.331085,672.796509 664.449463,672.791504 
	C665.947632,672.791504 667.445862,672.718262 669.574402,672.952637 
	C673.377014,674.524963 672.971191,672.498230 672.672485,670.571045 
z"/>
<path fill="#E7E8DB" opacity="1.000000" stroke="none" 
	d="
M13.997393,18.999624 
	C13.997393,18.999624 13.998765,18.499660 14.309743,18.084824 
	C17.126568,14.706198 20.235891,13.508500 24.155409,13.945269 
	C26.740236,14.233306 29.383392,13.997914 32.000431,13.996890 
	C245.022293,13.997442 458.044159,13.997995 671.590698,14.322571 
	C672.743591,15.764020 673.371826,16.881445 673.960022,18.039022 
	C673.920044,18.079174 673.840027,18.159451 673.408569,18.110374 
	C669.676025,18.296274 666.374939,18.531250 662.609253,18.861988 
	C660.146484,18.989346 658.148315,19.048555 656.150208,19.048605 
	C450.907166,19.053776 245.664124,19.051762 40.421089,19.088030 
	C37.974857,19.088463 35.528717,19.579058 32.701523,19.571001 
	C30.211224,19.169197 28.101942,19.037241 25.926159,18.542274 
	C22.951004,16.584318 20.114630,15.265246 18.862686,20.294125 
	C19.079578,21.073324 19.301041,21.569626 19.572283,22.403570 
	C19.773087,23.165922 19.924110,23.590628 19.861759,24.374720 
	C19.791895,38.154156 19.935406,51.574203 19.819426,65.331642 
	C19.380152,71.438103 19.031689,77.208344 19.071266,82.975906 
	C19.106087,88.050446 19.575022,93.122002 19.614651,98.588440 
	C19.281404,99.971344 19.102236,100.960678 19.102150,101.950027 
	C19.098963,139.380249 19.090509,176.810532 19.169994,214.240616 
	C19.175560,216.862137 19.848261,219.482254 19.874714,222.347992 
	C19.398510,224.561691 19.118618,226.532089 19.142029,228.498856 
	C19.250439,237.606628 19.418943,246.713898 19.613508,255.820328 
	C19.757721,262.570099 19.975012,269.318268 19.832657,276.326416 
	C19.676435,284.395233 19.847309,292.204773 19.750500,300.405151 
	C19.652872,308.845978 19.822933,316.895996 19.707367,325.346619 
	C19.690048,330.483093 19.958353,335.219055 20.057077,340.374573 
	C19.540304,344.877594 19.193111,348.960999 18.567417,353.317932 
	C18.479864,356.381409 18.670813,359.171326 18.949488,362.416687 
	C19.429167,374.618042 19.821121,386.363983 19.876343,398.353943 
	C19.394020,400.728058 19.136532,402.857391 19.120546,404.988525 
	C18.992851,422.010468 18.910885,439.032715 18.534531,456.353699 
	C18.443399,462.417419 18.632645,468.182343 18.899910,474.296326 
	C18.925671,475.116455 18.873413,475.587524 18.544453,476.337830 
	C18.443586,479.724548 18.619425,482.832031 18.888218,486.351257 
	C19.502445,490.172455 20.023718,493.581970 20.437035,497.404846 
	C20.304028,501.924896 20.278973,506.031494 19.915863,510.368683 
	C19.211470,516.401184 18.845133,522.203186 18.081594,528.012207 
	C12.367268,528.307312 14.057418,524.273499 14.056303,521.715027 
	C13.992429,375.143188 13.997857,228.571365 13.996484,81.999527 
	C13.996979,65.644478 13.997473,49.289433 13.998447,32.004211 
	C13.998417,27.049232 13.997905,23.024427 13.997393,18.999624 
z"/>
<path fill="#E6E6E4" opacity="1.000000" stroke="none" 
	d="
M13.610300,82.109505 
	C13.997857,228.571365 13.992429,375.143188 14.056303,521.715027 
	C14.057418,524.273499 12.367268,528.307312 18.272799,528.444946 
	C19.124588,539.913086 19.434153,550.954956 19.598162,561.999023 
	C19.620975,563.535278 18.926571,565.082214 18.423035,566.452271 
	C17.243486,564.640808 16.205086,563.001404 14.657636,560.558289 
	C14.657636,572.079346 14.657636,582.278503 14.657636,593.405151 
	C16.461634,591.414185 17.494747,590.274048 18.841778,589.476624 
	C19.098413,594.161072 19.041130,598.502808 18.749355,602.999146 
	C18.589617,604.413269 18.664373,605.672852 18.834347,607.321777 
	C18.870916,608.504761 18.812271,609.298279 18.474857,610.382812 
	C18.395319,615.097778 18.594551,619.521606 18.793781,623.945496 
	C18.854479,628.343445 18.915176,632.741455 18.626799,637.796265 
	C18.435844,639.613464 18.593966,640.773804 18.752090,641.934204 
	C18.825731,647.973328 18.899374,654.012390 18.680309,660.598267 
	C18.137194,661.355103 17.987278,661.621765 17.910872,662.297241 
	C17.888027,663.120483 17.892164,663.591431 17.882919,664.268311 
	C17.869541,664.474243 17.914633,664.884521 17.904308,665.137024 
	C17.880253,665.556580 17.866520,665.723572 17.610085,666.179321 
	C17.221272,667.976624 17.075161,669.485168 16.638935,671.044067 
	C16.232723,672.062195 16.116627,673.029846 16.000523,673.997559 
	C14.833270,673.591797 13.541164,673.380493 12.530102,672.731445 
	C11.239473,671.902954 10.175719,670.721130 8.000001,668.792786 
	C8.000001,668.088989 8.000001,665.960144 8.000001,663.831360 
	C8.000001,546.694031 8.054806,429.556671 7.912980,312.419495 
	C7.899197,301.035797 5.058151,289.472778 6.310477,278.304810 
	C9.943182,245.909210 8.967991,213.396103 7.372944,181.168610 
	C5.841608,150.228348 7.141679,119.371559 6.045150,88.501892 
	C5.973500,86.484795 6.548880,84.444717 6.823290,82.415329 
	C7.456663,82.472092 8.090035,82.528847 8.723408,82.585602 
	C8.815616,84.459435 8.986915,86.333206 8.988132,88.207092 
	C9.005576,115.033699 8.975902,141.860367 9.043924,168.686813 
	C9.049644,170.942108 9.674210,173.195816 10.011267,175.450272 
	C10.576738,175.415054 11.142210,175.379837 11.707683,175.344604 
	C11.805116,173.638535 11.986363,171.932541 11.987464,170.226395 
	C12.005197,142.733307 11.976518,115.240128 12.052598,87.747231 
	C12.057700,85.903580 12.816087,84.062019 13.610300,82.109505 
z"/>
<path fill="#E6E6E4" opacity="1.000000" stroke="none" 
	d="
M673.605835,638.921509 
	C673.082397,636.698181 672.760376,634.404541 672.754944,632.110168 
	C672.711548,613.872070 672.739380,595.633789 672.709290,577.395569 
	C672.706360,575.587891 672.462219,573.780640 672.336060,571.203369 
	C672.473877,565.972351 672.786804,561.507263 672.689453,557.051086 
	C672.578735,551.980225 672.101807,546.917419 672.102051,541.496582 
	C672.514526,540.655273 672.691467,540.168579 672.691711,539.681702 
	C672.704651,514.451660 672.717346,489.221649 672.657471,463.991760 
	C672.654541,462.764435 672.000916,461.538666 671.963867,459.889832 
	C672.415894,457.662415 672.648682,455.858795 672.677917,454.051910 
	C672.888489,441.042847 673.057861,428.033081 673.703369,414.986267 
	C674.772766,411.305573 675.379028,407.662231 675.990601,403.549103 
	C675.945007,396.465179 675.883423,389.851044 675.846436,383.236786 
	C675.814392,377.514465 675.890991,371.790375 675.774170,366.070007 
	C675.616943,358.378265 675.319824,350.689331 675.061768,342.578552 
	C674.448547,340.729858 673.856506,339.301788 673.219849,337.467651 
	C673.018738,333.262543 672.861816,329.463562 672.705872,325.664520 
	C672.217957,313.775238 671.730347,301.885986 671.368896,289.565826 
	C671.428650,283.728546 671.362183,278.322144 671.418335,272.464539 
	C671.937317,259.863281 672.396118,247.714661 672.672913,235.561905 
	C672.723022,233.362885 672.026611,231.146896 671.980713,228.579483 
	C672.434143,227.075943 672.709778,225.931747 672.710510,224.787369 
	C672.733459,188.900696 672.742798,153.013992 672.678406,117.127419 
	C672.675964,115.797249 671.914551,114.468445 671.731628,112.749077 
	C671.900513,90.212250 671.844543,68.065346 672.139465,45.684788 
	C672.690735,37.976326 672.891113,30.501524 673.366516,23.051590 
	C673.825256,23.064375 674.008972,23.052294 674.487671,22.968872 
	C675.190857,22.264473 675.599121,21.631411 676.007324,20.998356 
	C677.919861,21.622351 679.832336,22.246340 681.744873,22.870323 
	C680.997314,24.917917 680.228821,26.958210 679.510437,29.015987 
	C679.103210,30.182539 678.382874,31.415228 678.490540,32.553089 
	C678.811523,35.942513 679.896301,39.295757 679.928284,42.670273 
	C680.085938,59.329559 680.121460,75.992233 679.971436,92.651657 
	C679.748291,117.438988 679.170227,142.223923 679.067993,167.011200 
	C679.015930,179.633560 678.806458,192.353394 680.172791,204.864868 
	C684.091980,240.754562 681.122681,276.701752 681.807190,312.609222 
	C681.972168,321.262207 679.728760,329.959076 678.624268,338.639740 
	C678.352905,340.772186 678.031738,342.919891 678.026978,345.061249 
	C677.981750,365.387299 677.879333,385.714355 678.028076,406.039398 
	C678.254517,436.991028 678.616760,467.941956 679.021973,498.891846 
	C679.239563,515.515930 680.093079,532.142151 679.902954,548.758728 
	C679.595825,575.598877 678.792847,602.436523 677.828918,629.261902 
	C677.712585,632.500488 675.301453,635.656555 673.605835,638.921509 
z"/>
<path fill="#E6E6E4" opacity="1.000000" stroke="none" 
	d="
M688.000000,627.000000 
	C687.999939,635.490845 688.108521,643.484314 687.913086,651.470337 
	C687.871399,653.175781 686.725830,654.854187 686.088867,656.545044 
	C685.059448,654.740173 683.171326,652.951172 683.137634,651.127930 
	C682.885742,637.481567 683.000061,623.828430 683.000061,610.177429 
	C683.000061,606.348511 682.812561,602.506226 683.082092,598.696289 
	C683.214539,596.823608 684.194519,595.010925 684.790894,593.171082 
	C685.470581,593.208801 686.150269,593.246521 686.829956,593.284241 
	C687.219910,595.366516 687.917480,597.444458 687.946533,599.531677 
	C688.071350,608.519653 687.999939,617.510315 688.000000,627.000000 
z"/>
<path fill="#E6E6E4" opacity="1.000000" stroke="none" 
	d="
M6.019030,21.533382 
	C6.490784,20.201704 6.949389,19.291010 7.407994,18.380316 
	C7.747934,18.449980 8.087874,18.519644 8.427815,18.589308 
	C8.427815,22.804550 8.427815,27.019793 8.427815,31.305231 
	C5.991662,29.690380 5.991662,29.690380 6.019030,21.533382 
z"/>
<path fill="#E6E6E4" opacity="1.000000" stroke="none" 
	d="
M31.891331,13.612005 
	C29.383392,13.997914 26.740236,14.233306 24.155409,13.945269 
	C20.235891,13.508500 17.126568,14.706198 14.310303,17.834843 
	C15.054449,16.314554 15.977894,13.297564 17.186644,13.178562 
	C22.003559,12.704343 26.909348,13.132839 31.891331,13.612005 
z"/>
<path fill="#E6E6E4" opacity="1.000000" stroke="none" 
	d="
M22.446526,9.979433 
	C20.860146,9.520164 19.691072,9.074752 18.521997,8.629340 
	C18.563984,8.288434 18.605970,7.947528 18.647957,7.606622 
	C22.820694,7.606622 26.993429,7.606622 31.166166,7.606622 
	C31.245928,8.033592 31.325689,8.460562 31.405451,8.887532 
	C28.558243,9.256119 25.711037,9.624705 22.446526,9.979433 
z"/>
<path fill="#E6E6E4" opacity="1.000000" stroke="none" 
	d="
M13.613244,19.108110 
	C13.997905,23.024427 13.998417,27.049232 13.997706,31.537258 
	C10.312196,27.944990 11.671392,23.586752 13.613244,19.108110 
z"/>
<path fill="#E6E6E4" opacity="1.000000" stroke="none" 
	d="
M674.000000,17.998871 
	C673.371826,16.881445 672.743591,15.764020 672.057739,14.322660 
	C675.419678,12.608586 674.921265,15.844491 675.624390,17.658386 
	C674.887878,17.999975 674.443909,17.999424 674.000000,17.998871 
z"/>
<path fill="#E7E8DB" opacity="1.000000" stroke="none" 
	d="
M673.960022,18.039022 
	C674.443909,17.999424 674.887878,17.999975 675.664673,18.001421 
	C675.999207,18.751329 676.000916,19.500345 676.004944,20.623856 
	C675.599121,21.631411 675.190857,22.264473 674.422913,22.560339 
	C673.988770,20.868580 673.914368,19.514015 673.840027,18.159451 
	C673.840027,18.159451 673.920044,18.079174 673.960022,18.039022 
z"/>
<path fill="#E7E8DB" opacity="1.000000" stroke="none" 
	d="
M16.361858,673.998779 
	C16.116627,673.029846 16.232723,672.062195 16.826893,671.270752 
	C17.844675,671.632507 18.384380,671.818054 18.922878,672.257324 
	C18.946985,672.678345 18.972300,672.845581 18.972988,673.264954 
	C18.929272,673.684814 18.910183,673.852539 18.891092,674.020264 
	C18.168455,674.013489 17.445820,674.006714 16.361858,673.998779 
z"/>
<path fill="#F0E6A4" opacity="1.000000" stroke="none" 
	d="
M19.136093,674.257202 
	C18.910183,673.852539 18.929272,673.684814 19.394863,673.239990 
	C20.675047,672.803528 21.508730,672.644043 22.342411,672.484497 
	C22.342409,672.484497 22.383492,672.775269 22.242443,672.814209 
	C22.085855,673.342651 22.070312,673.832214 22.034000,674.689209 
	C21.135851,674.869141 20.258471,674.681641 19.136093,674.257202 
z"/>
<path fill="#FFC801" opacity="1.000000" stroke="none" 
	d="
M671.784058,541.851074 
	C672.101807,546.917419 672.578735,551.980225 672.689453,557.051086 
	C672.786804,561.507263 672.473877,565.972351 672.035095,570.862305 
	C670.713684,579.124573 669.699402,586.958130 668.616577,595.320862 
	C663.736694,594.112061 663.936523,597.432434 663.976257,600.824890 
	C664.053345,607.409180 664.031006,613.995667 663.933105,620.579529 
	C663.921631,621.349731 663.174988,622.109009 662.662720,623.073853 
	C658.674133,617.000183 658.674133,617.000061 651.019531,617.000061 
	C445.757294,617.000000 240.495041,616.997986 35.232792,617.013123 
	C30.687479,617.013489 26.197546,617.770813 25.544954,610.900024 
	C25.253908,607.835754 22.667725,609.376465 20.511774,610.673401 
	C19.547380,610.411438 19.150497,610.251648 18.753620,610.091797 
	C18.812271,609.298279 18.870916,608.504761 19.188246,607.133789 
	C19.292568,605.319031 19.138206,604.081726 18.983847,602.844482 
	C19.041130,598.502808 19.098413,594.161072 19.205023,589.101440 
	C19.024294,581.130371 18.794241,573.877319 18.564186,566.624207 
	C18.926571,565.082214 19.620975,563.535278 19.598162,561.999023 
	C19.434153,550.954956 19.124588,539.913086 18.670002,528.437805 
	C18.845133,522.203186 19.211470,516.401184 20.206745,510.556824 
	C21.556944,516.020935 22.739439,521.516785 22.867077,527.036987 
	C22.989660,532.338562 23.139776,537.334045 27.964485,542.083130 
	C28.589081,538.114563 29.114973,534.773071 29.640865,531.431641 
	C30.173267,531.425720 30.705667,531.419861 31.238070,531.413940 
	C31.693829,534.808044 32.149586,538.202148 32.787312,542.951416 
	C34.050636,540.907349 34.684052,540.286987 34.833588,539.566284 
	C35.324745,537.198914 34.842937,533.633911 36.218410,532.689392 
	C38.078987,531.411743 41.313564,532.017090 43.958683,532.016846 
	C244.701523,531.998474 445.444366,532.002563 646.187195,531.969727 
	C648.651794,531.969360 651.386719,532.113892 653.526184,531.149719 
	C658.404907,528.951050 661.939087,528.629883 662.962097,535.113098 
	C662.992859,535.308228 663.812805,535.378845 664.644592,535.615601 
	C665.628418,531.795959 666.582825,528.090210 667.537292,524.384521 
	C668.023499,524.383179 668.509705,524.381897 668.995911,524.380615 
	C669.330566,525.982849 669.740601,527.573608 669.985291,529.189453 
	C670.623474,533.404114 671.189392,537.629822 671.784058,541.851074 
z"/>
<path fill="#F0E6A4" opacity="1.000000" stroke="none" 
	d="
M18.474850,610.382812 
	C19.150497,610.251648 19.547380,610.411438 20.205334,610.780151 
	C20.136148,615.176880 19.805895,619.364624 19.134712,623.748962 
	C18.594551,619.521606 18.395319,615.097778 18.474850,610.382812 
z"/>
<path fill="#F8C012" opacity="1.000000" stroke="none" 
	d="
M19.534458,664.991882 
	C22.060810,666.335327 24.587160,667.678711 27.913588,669.447632 
	C26.122040,669.697449 24.853785,669.874329 22.835621,670.071655 
	C21.385950,670.062927 20.686184,670.033752 19.859226,669.752441 
	C19.415136,669.320862 19.098238,669.141235 18.860998,668.628967 
	C18.976055,667.839844 19.011454,667.383484 19.134804,666.663940 
	C19.225506,666.035828 19.228252,665.670776 19.315746,665.235840 
	C19.400492,665.165955 19.534458,664.991882 19.534458,664.991882 
z"/>
<path fill="#F0E6A4" opacity="1.000000" stroke="none" 
	d="
M672.355530,670.582031 
	C672.971191,672.498230 673.377014,674.524963 670.026855,672.880188 
	C670.578857,671.887207 671.308716,671.240051 672.355530,670.582031 
z"/>
<path fill="#F0E6A4" opacity="1.000000" stroke="none" 
	d="
M19.080156,641.795654 
	C18.593966,640.773804 18.435844,639.613464 18.530300,638.256592 
	C18.991323,639.259094 19.199774,640.458130 19.080156,641.795654 
z"/>
<path fill="#F1CF6B" opacity="1.000000" stroke="none" 
	d="
M19.986418,670.004517 
	C20.686184,670.033752 21.385950,670.062927 22.430538,670.081787 
	C22.640003,670.717773 22.504644,671.364136 22.355848,672.247559 
	C21.508730,672.644043 20.675047,672.803528 19.419491,672.987915 
	C18.972300,672.845581 18.946985,672.678345 19.177586,672.099243 
	C19.617807,671.126526 19.802113,670.565491 19.986418,670.004517 
z"/>
<path fill="#EFF186" opacity="1.000000" stroke="none" 
	d="
M17.896299,664.062378 
	C17.892164,663.591431 17.888027,663.120483 18.220982,662.333984 
	C18.763195,662.051025 18.968319,662.083618 19.173443,662.116211 
	C19.237387,662.504089 19.301334,662.891968 18.961679,663.627319 
	C18.337486,664.003967 18.116894,664.033142 17.896299,664.062378 
z"/>
<path fill="#F0E6A4" opacity="1.000000" stroke="none" 
	d="
M19.158127,661.807373 
	C18.968319,662.083618 18.763195,662.051025 18.247963,661.981689 
	C17.987278,661.621765 18.137194,661.355103 18.602144,661.059082 
	C18.925396,661.148376 19.034103,661.323486 19.158127,661.807373 
z"/>
<path fill="#F0E6A4" opacity="1.000000" stroke="none" 
	d="
M17.882919,664.268311 
	C18.116894,664.033142 18.337486,664.003967 18.888458,663.915771 
	C19.283045,664.042847 19.347250,664.228882 19.472958,664.703369 
	C19.534458,664.991882 19.400492,665.165955 18.989246,665.117065 
	C18.356878,665.007019 18.135756,664.945801 17.914633,664.884521 
	C17.914633,664.884521 17.869541,664.474243 17.882919,664.268311 
z"/>
<path fill="#FFEF00" opacity="1.000000" stroke="none" 
	d="
M671.506775,113.139008 
	C671.914551,114.468445 672.675964,115.797249 672.678406,117.127419 
	C672.742798,153.013992 672.733459,188.900696 672.710510,224.787369 
	C672.709778,225.931747 672.434143,227.075943 671.685486,228.584747 
	C670.389832,227.517609 669.348694,226.147766 669.079773,224.640167 
	C668.646851,222.213303 668.723450,219.695526 668.584839,217.216156 
	C667.951721,217.134537 667.318604,217.052917 666.685486,216.971298 
	C665.733398,219.842072 664.781250,222.712845 663.977173,225.137222 
	C661.843811,224.637741 660.102478,223.863159 658.384338,223.911377 
	C655.613525,223.989136 652.857971,224.950363 650.095825,224.951248 
	C480.482971,225.005569 310.870117,225.000000 141.257263,225.000015 
	C107.101433,225.000015 72.945587,224.986816 38.789814,225.031723 
	C36.658134,225.034515 34.203297,226.251480 32.489014,225.520126 
	C30.856102,224.823486 29.996298,222.314697 28.473400,220.141373 
	C27.555002,224.358368 26.762741,227.996185 25.976385,231.606873 
	C23.807465,228.031723 22.009102,225.067368 20.210735,222.103027 
	C19.848261,219.482254 19.175560,216.862137 19.169994,214.240616 
	C19.090509,176.810532 19.098963,139.380249 19.102150,101.950027 
	C19.102236,100.960678 19.281404,99.971344 19.867119,98.742172 
	C20.912165,103.016312 21.467154,107.530281 22.018318,112.457932 
	C22.379549,115.327766 22.385418,117.921623 23.253143,120.185074 
	C23.724503,121.414604 25.712254,122.931145 26.929272,122.858795 
	C32.743469,122.513176 38.527664,121.086967 44.323048,121.084068 
	C245.976913,120.983345 447.630859,120.993996 649.284790,121.035309 
	C654.250305,121.036324 659.323914,121.748299 660.260315,114.603889 
	C660.966187,117.331551 661.672119,120.059204 662.556458,123.476227 
	C666.954041,120.027122 664.505554,112.520340 671.506775,113.139008 
z"/>
<path fill="#FFFA01" opacity="1.000000" stroke="none" 
	d="
M671.731628,112.749084 
	C664.505554,112.520340 666.954041,120.027122 662.556458,123.476227 
	C661.672119,120.059204 660.966187,117.331551 660.260315,114.603889 
	C659.323914,121.748299 654.250305,121.036324 649.284790,121.035309 
	C447.630859,120.993996 245.976913,120.983345 44.323048,121.084068 
	C38.527664,121.086967 32.743469,122.513176 26.929272,122.858795 
	C25.712254,122.931145 23.724503,121.414604 23.253143,120.185074 
	C22.385418,117.921623 22.379549,115.327766 22.399994,112.332352 
	C23.189554,110.290298 23.916357,108.793129 23.942661,107.283760 
	C24.066675,100.167648 23.998976,93.048187 23.999250,85.929924 
	C23.999523,78.860985 23.999310,71.792046 23.999310,64.307533 
	C22.266275,64.611099 21.172598,64.802681 20.078918,64.994255 
	C19.935406,51.574203 19.791895,38.154156 20.177483,24.362617 
	C21.495399,23.338583 22.284220,22.686035 23.487398,22.029625 
	C27.039268,22.657015 30.176781,23.288267 33.690323,23.995176 
	C33.408051,22.065800 33.245293,20.953325 33.082535,19.840851 
	C35.528717,19.579058 37.974857,19.088463 40.421089,19.088030 
	C245.664124,19.051762 450.907166,19.053776 656.150208,19.048605 
	C658.148315,19.048555 660.146484,18.989346 662.803223,19.213326 
	C665.613770,19.731058 667.765686,19.993217 669.874023,20.548168 
	C669.783508,21.236614 669.736511,21.632267 669.359009,22.129864 
	C667.323608,24.631248 667.145386,26.502632 670.757080,27.540596 
	C671.135132,33.973087 671.461853,39.945766 671.788574,45.918446 
	C671.844543,68.065346 671.900513,90.212250 671.731628,112.749084 
M23.997204,45.035900 
	C23.997204,41.252823 23.997204,37.469742 23.997204,33.686665 
	C19.276548,38.544365 21.810896,43.393761 23.317476,48.394955 
	C23.542492,47.559082 23.767509,46.723213 23.997204,45.035900 
M667.667175,100.097977 
	C667.964539,100.662323 668.261902,101.226662 668.559265,101.791008 
	C668.975098,101.375618 669.390991,100.960236 669.806824,100.544853 
	C669.241455,100.247749 668.676025,99.950638 667.667175,100.097977 
M23.264544,29.491488 
	C23.006685,29.735899 22.748827,29.980310 22.490971,30.224724 
	C22.592207,30.331453 22.693443,30.438185 22.794680,30.544914 
	C23.052631,30.300102 23.310583,30.055290 23.264544,29.491488 
z"/>
<path fill="#FFDC00" opacity="1.000000" stroke="none" 
	d="
M18.845921,353.044403 
	C19.193111,348.960999 19.540304,344.877594 20.386232,340.375244 
	C21.922766,338.969635 22.960564,337.983002 24.317520,337.143372 
	C27.001703,337.486481 29.395178,338.010315 31.725643,337.808075 
	C36.131413,337.425751 40.500732,336.080383 44.885620,336.078430 
	C247.703995,335.988220 450.522400,336.000000 653.340820,336.000214 
	C654.840698,336.000244 656.345459,335.925049 657.839722,336.017487 
	C668.031250,336.648041 670.363586,338.252686 672.518433,346.425842 
	C672.221619,350.299225 671.531494,353.753021 671.602600,357.191010 
	C671.925537,372.801270 672.463074,388.407104 672.793274,404.414246 
	C672.609863,406.209412 672.556580,407.604889 672.117676,408.999756 
	C666.216797,410.101105 667.666992,404.762146 665.700134,401.833435 
	C664.578003,403.785797 663.756042,405.215942 662.845215,406.800629 
	C661.737854,405.879944 660.884277,405.170288 660.030701,404.460632 
	C660.060547,404.945862 660.090393,405.431061 660.120178,405.916290 
	C657.219482,406.610870 654.319153,407.912140 651.418091,407.913483 
	C446.557129,408.008606 241.696136,407.992676 36.835152,408.066040 
	C33.593639,408.067200 30.115738,408.492462 27.168037,409.724426 
	C23.006886,411.463593 22.224926,409.922302 21.928164,406.234528 
	C21.707954,403.498047 20.809448,400.816162 20.213078,398.109955 
	C19.821121,386.363983 19.429167,374.618042 19.285130,362.190002 
	C19.304007,358.686768 19.074963,355.865601 18.845921,353.044403 
z"/>
<path fill="#FFD000" opacity="1.000000" stroke="none" 
	d="
M672.102051,541.496582 
	C671.189392,537.629822 670.623474,533.404114 669.985291,529.189453 
	C669.740601,527.573608 669.330566,525.982849 668.995911,524.380615 
	C668.509705,524.381897 668.023499,524.383179 667.537292,524.384521 
	C666.582825,528.090210 665.628418,531.795959 664.644592,535.615601 
	C663.812805,535.378845 662.992859,535.308228 662.962097,535.113098 
	C661.939087,528.629883 658.404907,528.951050 653.526184,531.149719 
	C651.386719,532.113892 648.651794,531.969360 646.187195,531.969727 
	C445.444366,532.002563 244.701523,531.998474 43.958683,532.016846 
	C41.313564,532.017090 38.078987,531.411743 36.218410,532.689392 
	C34.842937,533.633911 35.324745,537.198914 34.833588,539.566284 
	C34.684052,540.286987 34.050636,540.907349 32.787312,542.951416 
	C32.149586,538.202148 31.693829,534.808044 31.238070,531.413940 
	C30.705667,531.419861 30.173267,531.425720 29.640865,531.431641 
	C29.114973,534.773071 28.589081,538.114563 27.964485,542.083130 
	C23.139776,537.334045 22.989660,532.338562 22.867077,527.036987 
	C22.739439,521.516785 21.556944,516.020935 20.544800,510.326294 
	C20.278973,506.031494 20.304028,501.924896 20.892113,497.394043 
	C22.165344,496.648102 23.479233,496.352905 23.494717,496.000671 
	C23.708851,491.128357 23.841652,486.244934 23.676060,481.375061 
	C23.659260,480.880981 21.582584,480.456940 20.312893,479.648560 
	C19.716368,478.217346 19.268764,477.138000 18.821159,476.058624 
	C18.873413,475.587524 18.925671,475.116455 19.236927,474.097137 
	C19.960323,470.697845 20.424717,467.846802 21.313663,464.997192 
	C27.779387,465.390411 27.637228,465.398529 28.120165,473.869080 
	C28.217564,475.577484 29.843781,477.198700 30.765146,478.860107 
	C31.509977,477.306519 32.842396,475.775360 32.902802,474.195618 
	C33.254223,465.005280 33.153217,465.000183 42.197887,465.000153 
	C243.975815,464.999939 445.753754,464.999969 647.531677,465.000214 
	C648.864624,465.000214 650.201477,465.070068 651.529724,464.991943 
	C654.700806,464.805389 656.142639,466.209717 656.018311,469.420990 
	C655.905701,472.328247 655.994446,475.243347 655.994446,477.899811 
	C659.438599,478.200745 661.845825,478.411072 664.492432,478.642334 
	C664.964478,475.547516 664.791504,471.802368 669.218262,473.231079 
	C670.075928,468.675171 670.863159,464.493683 671.650330,460.312164 
	C672.000916,461.538666 672.654541,462.764435 672.657471,463.991760 
	C672.717346,489.221649 672.704651,514.451660 672.691711,539.681702 
	C672.691467,540.168579 672.514526,540.655273 672.102051,541.496582 
z"/>
<path fill="#FFD501" opacity="1.000000" stroke="none" 
	d="
M671.963867,459.889832 
	C670.863159,464.493683 670.075928,468.675171 669.218262,473.231079 
	C664.791504,471.802368 664.964478,475.547516 664.492432,478.642334 
	C661.845825,478.411072 659.438599,478.200745 655.994446,477.899811 
	C655.994446,475.243347 655.905701,472.328247 656.018311,469.420990 
	C656.142639,466.209717 654.700806,464.805389 651.529724,464.991943 
	C650.201477,465.070068 648.864624,465.000214 647.531677,465.000214 
	C445.753754,464.999969 243.975815,464.999939 42.197887,465.000153 
	C33.153217,465.000183 33.254223,465.005280 32.902802,474.195618 
	C32.842396,475.775360 31.509977,477.306519 30.765146,478.860107 
	C29.843781,477.198700 28.217564,475.577484 28.120165,473.869080 
	C27.637228,465.398529 27.779387,465.390411 21.201632,464.619019 
	C20.048332,461.511200 19.431620,458.783020 18.814907,456.054871 
	C18.910885,439.032715 18.992851,422.010468 19.120546,404.988525 
	C19.136532,402.857391 19.394020,400.728058 19.876345,398.353943 
	C20.809448,400.816162 21.707954,403.498047 21.928164,406.234528 
	C22.224926,409.922302 23.006886,411.463593 27.168037,409.724426 
	C30.115738,408.492462 33.593639,408.067200 36.835152,408.066040 
	C241.696136,407.992676 446.557129,408.008606 651.418091,407.913483 
	C654.319153,407.912140 657.219482,406.610870 660.120178,405.916290 
	C660.090393,405.431061 660.060547,404.945862 660.030701,404.460632 
	C660.884277,405.170288 661.737854,405.879944 662.845215,406.800629 
	C663.756042,405.215942 664.578003,403.785797 665.700134,401.833435 
	C667.666992,404.762146 666.216797,410.101105 672.019592,409.400970 
	C672.051270,410.282898 671.795349,410.763031 671.483948,411.342285 
	C671.363586,411.586121 671.224792,411.744812 671.248901,411.872803 
	C671.306030,412.176270 671.440491,412.465179 671.787598,413.023071 
	C672.434448,413.865326 672.837341,414.444427 673.240234,415.023560 
	C673.057861,428.033081 672.888489,441.042847 672.677917,454.051910 
	C672.648682,455.858795 672.415894,457.662415 671.963867,459.889832 
z"/>
<path fill="#FFE700" opacity="1.000000" stroke="none" 
	d="
M19.874718,222.347992 
	C22.009102,225.067368 23.807465,228.031723 25.976385,231.606873 
	C26.762741,227.996185 27.555002,224.358368 28.473400,220.141373 
	C29.996298,222.314697 30.856102,224.823486 32.489014,225.520126 
	C34.203297,226.251480 36.658134,225.034515 38.789814,225.031723 
	C72.945587,224.986816 107.101433,225.000015 141.257263,225.000015 
	C310.870117,225.000000 480.482971,225.005569 650.095825,224.951248 
	C652.857971,224.950363 655.613525,223.989136 658.384338,223.911377 
	C660.102478,223.863159 661.843811,224.637741 663.977173,225.137222 
	C664.781250,222.712845 665.733398,219.842072 666.685486,216.971298 
	C667.318604,217.052917 667.951721,217.134537 668.584839,217.216156 
	C668.723450,219.695526 668.646851,222.213303 669.079773,224.640167 
	C669.348694,226.147766 670.389832,227.517609 671.379639,228.944000 
	C672.026611,231.146896 672.723022,233.362885 672.672913,235.561905 
	C672.396118,247.714661 671.937317,259.863281 671.017212,272.563904 
	C669.994385,274.566986 669.541565,276.037384 668.987244,277.468475 
	C667.634949,280.959900 666.235779,284.433105 664.855408,287.913666 
	C664.205994,287.806091 663.556519,287.698517 662.907104,287.590942 
	C662.239075,281.608826 661.571106,275.626709 661.041626,270.884674 
	C658.051147,271.429626 656.009766,271.978485 653.939331,272.130066 
	C651.792725,272.287201 649.617981,272.007477 647.455505,272.007416 
	C445.842987,271.999451 244.230438,272.000000 42.617908,271.999969 
	C41.284935,271.999969 39.946327,271.921173 38.620190,272.016296 
	C36.062874,272.199677 34.071846,271.901794 33.598194,268.684143 
	C33.464508,267.775970 31.910954,267.076782 31.008621,266.281738 
	C30.346867,267.308868 29.530653,268.268951 29.050852,269.375031 
	C27.249525,273.527496 25.557980,277.727631 23.601330,282.450500 
	C22.207651,279.865540 21.183699,277.966370 20.159748,276.067169 
	C19.975012,269.318268 19.757721,262.570099 19.613508,255.820328 
	C19.418943,246.713898 19.250439,237.606628 19.142029,228.498856 
	C19.118618,226.532089 19.398510,224.561691 19.874718,222.347992 
z"/>
<path fill="#FEE200" opacity="1.000000" stroke="none" 
	d="
M672.475647,345.998962 
	C670.363586,338.252686 668.031250,336.648041 657.839722,336.017487 
	C656.345459,335.925049 654.840698,336.000244 653.340820,336.000214 
	C450.522400,336.000000 247.703995,335.988220 44.885620,336.078430 
	C40.500732,336.080383 36.131413,337.425751 31.725643,337.808075 
	C29.395178,338.010315 27.001703,337.486481 24.317646,336.677490 
	C23.998615,331.603638 23.998615,327.142700 23.998615,322.179688 
	C22.155558,323.452545 21.074276,324.199280 19.992992,324.946045 
	C19.822933,316.895996 19.652872,308.845978 20.048931,300.332123 
	C21.089699,297.910492 21.115858,295.662811 22.148302,294.065521 
	C23.557299,291.885651 25.532303,289.887543 27.704237,288.499207 
	C28.340504,288.092499 31.455986,289.770599 31.750473,290.923492 
	C33.286316,296.936035 37.462204,297.074677 42.504730,297.072571 
	C244.962692,296.987457 447.420685,297.000916 649.878662,296.987518 
	C652.034668,296.987396 654.197876,296.877686 656.344666,296.678131 
	C658.766174,296.453064 661.172791,296.068207 664.339172,295.654388 
	C665.232483,293.116028 665.808838,288.703003 671.242676,289.996704 
	C671.730347,301.885986 672.217957,313.775238 672.705872,325.664520 
	C672.861816,329.463562 673.018738,333.262543 673.003174,337.767731 
	C672.866577,339.978912 672.902039,341.483917 672.833862,343.356659 
	C672.645325,344.482574 672.560486,345.240784 672.475647,345.998962 
z"/>
<path fill="#FFE500" opacity="1.000000" stroke="none" 
	d="
M671.368896,289.565826 
	C665.808838,288.703003 665.232483,293.116028 664.339172,295.654388 
	C661.172791,296.068207 658.766174,296.453064 656.344666,296.678131 
	C654.197876,296.877686 652.034668,296.987396 649.878662,296.987518 
	C447.420685,297.000916 244.962692,296.987457 42.504730,297.072571 
	C37.462204,297.074677 33.286316,296.936035 31.750473,290.923492 
	C31.455986,289.770599 28.340504,288.092499 27.704237,288.499207 
	C25.532303,289.887543 23.557299,291.885651 22.148302,294.065521 
	C21.115858,295.662811 21.089699,297.910492 20.316616,299.941345 
	C19.847309,292.204773 19.676435,284.395233 19.832653,276.326416 
	C21.183699,277.966370 22.207651,279.865540 23.601330,282.450500 
	C25.557980,277.727631 27.249525,273.527496 29.050852,269.375031 
	C29.530653,268.268951 30.346867,267.308868 31.008621,266.281738 
	C31.910954,267.076782 33.464508,267.775970 33.598194,268.684143 
	C34.071846,271.901794 36.062874,272.199677 38.620190,272.016296 
	C39.946327,271.921173 41.284935,271.999969 42.617908,271.999969 
	C244.230438,272.000000 445.842987,271.999451 647.455505,272.007416 
	C649.617981,272.007477 651.792725,272.287201 653.939331,272.130066 
	C656.009766,271.978485 658.051147,271.429626 661.041626,270.884674 
	C661.571106,275.626709 662.239075,281.608826 662.907104,287.590942 
	C663.556519,287.698517 664.205994,287.806091 664.855408,287.913666 
	C666.235779,284.433105 667.634949,280.959900 668.987244,277.468475 
	C669.541565,276.037384 669.994385,274.566986 670.894531,273.015106 
	C671.362183,278.322144 671.428650,283.728546 671.368896,289.565826 
z"/>
<path fill="#FDFA0D" opacity="1.000000" stroke="none" 
	d="
M19.819427,65.331642 
	C21.172598,64.802681 22.266275,64.611099 23.999310,64.307533 
	C23.999310,71.792046 23.999523,78.860985 23.999250,85.929924 
	C23.998976,93.048187 24.066675,100.167648 23.942661,107.283760 
	C23.916357,108.793129 23.189554,110.290298 22.403818,111.918671 
	C21.467154,107.530281 20.912165,103.016312 20.104708,98.348610 
	C19.575022,93.122002 19.106087,88.050446 19.071266,82.975906 
	C19.031689,77.208344 19.380152,71.438103 19.819427,65.331642 
z"/>
<path fill="#FFE700" opacity="1.000000" stroke="none" 
	d="
M19.707369,325.346619 
	C21.074276,324.199280 22.155558,323.452545 23.998615,322.179688 
	C23.998615,327.142700 23.998615,331.603638 23.998489,336.530457 
	C22.960564,337.983002 21.922766,338.969635 20.555813,339.955627 
	C19.958353,335.219055 19.690048,330.483093 19.707369,325.346619 
z"/>
<path fill="#FFD501" opacity="1.000000" stroke="none" 
	d="
M20.461823,480.000366 
	C21.582584,480.456940 23.659260,480.880981 23.676060,481.375061 
	C23.841652,486.244934 23.708851,491.128357 23.494717,496.000671 
	C23.479233,496.352905 22.165344,496.648102 21.000069,496.980652 
	C20.023718,493.581970 19.502445,490.172455 19.226696,486.146667 
	C19.802090,483.687012 20.131960,481.843689 20.461823,480.000366 
z"/>
<path fill="#F0E6A4" opacity="1.000000" stroke="none" 
	d="
M18.534531,456.353699 
	C19.431620,458.783020 20.048332,461.511200 20.777081,464.617554 
	C20.424717,467.846802 19.960323,470.697845 19.158909,473.748108 
	C18.632645,468.182343 18.443399,462.417419 18.534531,456.353699 
z"/>
<path fill="#FDFA0D" opacity="1.000000" stroke="none" 
	d="
M32.701523,19.571001 
	C33.245293,20.953325 33.408051,22.065800 33.690323,23.995176 
	C30.176781,23.288267 27.039268,22.657015 23.470661,21.787165 
	C23.039562,21.548567 23.026518,21.063498 23.240005,20.928837 
	C23.617941,20.508984 23.782391,20.223787 24.255276,19.918839 
	C25.040026,19.567820 25.516342,19.236553 25.992659,18.905287 
	C28.101942,19.037241 30.211224,19.169197 32.701523,19.571001 
z"/>
<path fill="#F0E6A4" opacity="1.000000" stroke="none" 
	d="
M669.917603,20.255371 
	C667.765686,19.993217 665.613770,19.731058 663.267883,19.117561 
	C666.374939,18.531250 669.676025,18.296274 673.408569,18.110374 
	C673.914368,19.514015 673.988770,20.868580 674.127930,22.631676 
	C674.008972,23.052294 673.825256,23.064375 673.180664,22.882786 
	C672.510986,22.425011 672.264221,22.203022 671.981750,21.727734 
	C671.295166,21.040003 670.606384,20.647684 669.917603,20.255371 
z"/>
<path fill="#F0E6A4" opacity="1.000000" stroke="none" 
	d="
M25.926159,18.542274 
	C25.516342,19.236553 25.040026,19.567820 23.935303,19.845465 
	C21.827015,19.864971 20.347136,19.938099 18.867256,20.011225 
	C20.114630,15.265246 22.951004,16.584318 25.926159,18.542274 
z"/>
<path fill="#F0E6A4" opacity="1.000000" stroke="none" 
	d="
M20.312901,479.648560 
	C20.131960,481.843689 19.802090,483.687012 19.133741,485.734924 
	C18.619425,482.832031 18.443586,479.724548 18.544456,476.337830 
	C19.268764,477.138000 19.716368,478.217346 20.312901,479.648560 
z"/>
<path fill="#F0E6A4" opacity="1.000000" stroke="none" 
	d="
M18.567417,353.317932 
	C19.074963,355.865601 19.304007,358.686768 19.197407,361.734619 
	C18.670813,359.171326 18.479864,356.381409 18.567417,353.317932 
z"/>
<path fill="#F2F560" opacity="1.000000" stroke="none" 
	d="
M18.862686,20.294125 
	C20.347136,19.938099 21.827015,19.864971 23.626867,19.865219 
	C23.782391,20.223787 23.617941,20.508984 22.875019,20.939007 
	C21.371864,21.411200 20.447182,21.738564 19.522501,22.065926 
	C19.301041,21.569626 19.079578,21.073324 18.862686,20.294125 
z"/>
<path fill="#FAFB23" opacity="1.000000" stroke="none" 
	d="
M19.572283,22.403570 
	C20.447182,21.738564 21.371864,21.411200 22.661531,21.073666 
	C23.026518,21.063498 23.039562,21.548567 23.056301,21.791027 
	C22.284220,22.686035 21.495399,23.338583 20.390858,24.003231 
	C19.924110,23.590628 19.773087,23.165922 19.572283,22.403570 
z"/>
<path fill="#E7E8DB" opacity="1.000000" stroke="none" 
	d="
M18.423038,566.452271 
	C18.794241,573.877319 19.024294,581.130371 18.891104,588.758667 
	C17.494747,590.274048 16.461634,591.414185 14.657636,593.405151 
	C14.657636,582.278503 14.657636,572.079346 14.657636,560.558289 
	C16.205086,563.001404 17.243486,564.640808 18.423038,566.452271 
z"/>
<path fill="#F0E6A4" opacity="1.000000" stroke="none" 
	d="
M19.859226,669.752441 
	C19.802113,670.565491 19.617807,671.126526 19.178795,671.845520 
	C18.384380,671.818054 17.844675,671.632507 17.117010,671.220337 
	C17.075161,669.485168 17.221272,667.976624 17.680685,666.516541 
	C18.005877,666.793640 18.017767,667.022278 18.098495,667.473877 
	C18.372002,668.118469 18.576664,668.540039 18.781332,668.961670 
	C19.098238,669.141235 19.415136,669.320862 19.859226,669.752441 
z"/>
<path fill="#F0E6A4" opacity="1.000000" stroke="none" 
	d="
M18.749355,602.999146 
	C19.138206,604.081726 19.292568,605.319031 19.093029,606.744324 
	C18.664373,605.672852 18.589617,604.413269 18.749355,602.999146 
z"/>
<path fill="#F1CF6B" opacity="1.000000" stroke="none" 
	d="
M18.029655,667.250916 
	C18.017767,667.022278 18.005877,666.793640 17.923389,666.227783 
	C17.866520,665.723572 17.880253,665.556580 17.904308,665.137024 
	C18.135756,664.945801 18.356878,665.007019 18.904499,665.186951 
	C19.228252,665.670776 19.225506,666.035828 18.887493,666.767944 
	C18.378038,667.173584 18.203848,667.212219 18.029655,667.250916 
z"/>
<path fill="#E7E8DB" opacity="1.000000" stroke="none" 
	d="
M672.518433,346.425842 
	C672.560486,345.240784 672.645325,344.482574 673.190918,343.377686 
	C674.128784,343.020386 674.605774,343.009796 675.082886,342.999207 
	C675.319824,350.689331 675.616943,358.378265 675.774170,366.070007 
	C675.890991,371.790375 675.814392,377.514465 675.846436,383.236786 
	C675.883423,389.851044 675.945007,396.465179 675.608704,403.538269 
	C674.455444,404.002960 673.689392,404.008759 672.923340,404.014526 
	C672.463074,388.407104 671.925537,372.801270 671.602600,357.191010 
	C671.531494,353.753021 672.221619,350.299225 672.518433,346.425842 
z"/>
<path fill="#FAFB23" opacity="1.000000" stroke="none" 
	d="
M671.979553,22.023148 
	C672.264221,22.203022 672.510986,22.425011 672.905640,22.857918 
	C672.891113,30.501524 672.690735,37.976326 672.139404,45.684788 
	C671.461853,39.945766 671.135132,33.973087 670.835510,27.146082 
	C670.887024,24.964525 670.911438,23.637297 671.192749,22.223721 
	C671.626343,22.099297 671.802979,22.061222 671.979553,22.023148 
z"/>
<path fill="#EDE4C1" opacity="1.000000" stroke="none" 
	d="
M672.793274,404.414246 
	C673.689392,404.008759 674.455444,404.002960 675.603394,404.008026 
	C675.379028,407.662231 674.772766,411.305573 673.703369,414.986237 
	C672.837341,414.444427 672.434448,413.865326 672.068237,412.815552 
	C671.916443,411.977661 671.727905,411.610413 671.539429,411.243195 
	C671.795349,410.763031 672.051270,410.282898 672.405212,409.401550 
	C672.556580,407.604889 672.609863,406.209412 672.793274,404.414246 
z"/>
<path fill="#EDE4C1" opacity="1.000000" stroke="none" 
	d="
M675.061707,342.578552 
	C674.605774,343.009796 674.128784,343.020386 673.294617,343.009949 
	C672.902039,341.483917 672.866577,339.978912 673.047852,338.173828 
	C673.856506,339.301788 674.448547,340.729858 675.061707,342.578552 
z"/>
<path fill="#E7E8DB" opacity="1.000000" stroke="none" 
	d="
M18.098495,667.473877 
	C18.203848,667.212219 18.378038,667.173584 18.799540,667.031006 
	C19.011454,667.383484 18.976055,667.839844 18.860992,668.628967 
	C18.576664,668.540039 18.372002,668.118469 18.098495,667.473877 
z"/>
<path fill="#FDFA0D" opacity="1.000000" stroke="none" 
	d="
M23.994865,45.461620 
	C23.767509,46.723213 23.542492,47.559082 23.317476,48.394955 
	C21.810896,43.393761 19.276548,38.544365 23.997204,33.686665 
	C23.997204,37.469742 23.997204,41.252823 23.994865,45.461620 
z"/>
<path fill="#FDFA0D" opacity="1.000000" stroke="none" 
	d="
M670.935913,22.310068 
	C670.911438,23.637297 670.887024,24.964525 670.784180,26.686268 
	C667.145386,26.502632 667.323608,24.631248 669.677185,22.177835 
	C670.529236,22.185932 670.732605,22.248001 670.935913,22.310068 
z"/>
<path fill="#FDFA0D" opacity="1.000000" stroke="none" 
	d="
M667.888916,99.875748 
	C668.676025,99.950638 669.241455,100.247749 669.806824,100.544853 
	C669.390991,100.960236 668.975098,101.375618 668.559265,101.791000 
	C668.261902,101.226662 667.964539,100.662323 667.888916,99.875748 
z"/>
<path fill="#F2F560" opacity="1.000000" stroke="none" 
	d="
M671.192810,22.223721 
	C670.732605,22.248001 670.529236,22.185932 670.007690,22.075893 
	C669.736511,21.632267 669.783508,21.236614 669.874023,20.548164 
	C670.606384,20.647684 671.295166,21.040003 671.981750,21.727734 
	C671.802979,22.061222 671.626343,22.099297 671.192810,22.223721 
z"/>
<path fill="#FDFA0D" opacity="1.000000" stroke="none" 
	d="
M23.416538,29.650982 
	C23.310583,30.055290 23.052631,30.300102 22.794680,30.544914 
	C22.693443,30.438185 22.592207,30.331453 22.490971,30.224724 
	C22.748827,29.980310 23.006685,29.735899 23.416538,29.650982 
z"/>
<path fill="#FFDC00" opacity="1.000000" stroke="none" 
	d="
M671.483887,411.342285 
	C671.727905,411.610413 671.916443,411.977661 671.824341,412.552429 
	C671.440491,412.465179 671.306030,412.176270 671.248901,411.872803 
	C671.224792,411.744812 671.363586,411.586121 671.483887,411.342285 
z"/>
</svg>