<?xml version="1.0" encoding="utf-8"?>
<!-- Uploaded to: SVG Repo, www.svgrepo.com, Generator: SVG Repo Mixer Tools -->
<svg width="800px" height="800px" viewBox="0 0 1024 1024" class="icon"  version="1.1" xmlns="http://www.w3.org/2000/svg"><path d="M680.7 528.9c-3.4 3.4-7.3 7.1-11.5 11.1l-36.7-36.7c-6.9-6.9-18.2-6.9-25.1 0-6.9 6.9-6.9 18.2 0 25.1l35.3 35.3c-25 21.8-57.1 48.1-93 76.4l-47.3-47.3c-6.9-6.9-18.2-6.9-25.1 0-6.9 6.9-6.9 18.2 0 25.1l44.2 44.2c-31 23.8-64 48.3-97.3 72.1l-51.9-51.9c-6.9-6.9-18.2-6.9-25.1 0-6.9 6.9-6.9 18.2 0 25.1l47.6 47.6c-35 24.4-69.8 47.4-102.1 67.2l-50.5-50.5c-6.9-6.9-18.2-6.9-25.1 0-6.9 6.9-6.9 18.2 0 25.1l44 44c-51 29.2-93.5 48.1-117.8 48.1-5.3 0-7.8-1.1-8.5-1.7-7.8-7.8-0.3-68.5 127-252.7 19.3-27.9 39.1-55.4 58.7-81.9 0.6 0.9 1.3 1.7 2 2.5l55.9 55.9c3.5 3.5 8 5.2 12.6 5.2 4.5 0 9.1-1.7 12.6-5.2 6.9-6.9 6.9-18.2 0-25.1L347.7 530c-2-2-4.5-3.4-7.1-4.3 26.7-35.4 52.6-68.1 75.7-96.5l51.6 51.6c3.5 3.5 8 5.2 12.6 5.2s9.1-1.7 12.6-5.2c6.9-6.9 6.9-18.2 0-25.1l-54-54c22.8-27.1 41.7-48.2 54.1-60.7 33.6-33.6 66.4-50.7 97.3-50.7 30.2 0 60.6 15.7 93 48.1 64.7 65.1 63.9 123.8-2.8 190.5z" fill="#FC5C30" /><path d="M279.5 780.1L229 729.6c-2.5-2.5-5.5-3.7-8.6-4.4-6.2 10-12 19.5-17.3 28.4 0.3 0.4 0.4 0.8 0.8 1.1l25.7 25.7c0.1-0.2 0.2-0.4 0.3-0.5 6.9-6.9 18.2-6.9 25.1 0l50.5 50.5c32.4-19.8 67.1-42.9 102.1-67.2l-40.4-40.4c-30.1 20.6-59.8 40.1-87.7 57.3zM158 841.5c-14.1 34.6-14 50.3-10.3 54 0.6 0.6 3.2 1.7 8.5 1.7 24.3 0 66.9-18.9 117.8-48.1l-41.6-41.6c-28.8 15.8-54.1 27.6-74.4 34zM479.9 413.7l-16.8-16.8c-3.6 4.2-7.3 8.6-11.2 13.1l28.3 28.3c6.5-7 6.5-17.9-0.3-24.6zM360.5 538.2l30.2 30.2c6.5-7 6.5-17.8-0.3-24.6l-25.2-25.2c-3.9 5.1-7.8 10.1-11.7 15.4 2.5 0.8 5 2.2 7 4.2zM715.8 368.7c9.2 38.5-6.8 76.7-48.1 118-3.4 3.4-7.3 7.1-11.5 11.1l-36.7-36.7c-6.9-6.9-18.2-6.9-25.1 0-6.9 6.9-6.9 18.2 0 25.1l25.7 25.7c0.1-0.2 0.2-0.4 0.3-0.5 6.9-6.9 18.2-6.9 25.1 0l36.7 36.7c4.2-4 8.2-7.7 11.5-11.1 59.2-59.1 66.4-111.9 22.1-168.3zM411.1 692l-51.9-51.9c-6.9-6.9-18.2-6.9-25.1 0-6.9 6.9-6.9 18.2 0 25.1l25.7 25.7c0.1-0.2 0.2-0.4 0.3-0.5 6.9-6.9 18.2-6.9 25.1 0l51.9 51.9c33.3-23.8 66.3-48.3 97.3-72.1l-39.8-39.8c-26.9 20.5-55.1 41.3-83.5 61.6zM617.4 532.1c-23 19.6-50.3 41.9-80.7 65.9l-47.3-47.3c-6.9-6.9-18.2-6.9-25.1 0-6.9 6.9-6.9 18.2 0 25.1l25.7 25.7c0.1-0.2 0.2-0.4 0.3-0.5 6.9-6.9 18.2-6.9 25.1 0l47.3 47.3c35.9-28.2 68-54.6 93-76.4l-35.3-35.3c-1.3-1.3-2.2-2.9-3-4.5z" fill="#E53820" /><path d="M886.7 405.6c-22.3 18.7-86.1 17.2-126.9 8.9-9.3-28.4-29-70.4-57-98.4-35.4-35.4-70.2-55.4-105.9-61.1 3.9-42.7 16.7-101.4 41-119.3 7.3-5.4 20.9-14 30.8-11.2 28.7 7.9 41 65.1 38.6 83.4-1.1 8.5-7.5 14.7 0.4 18.1 7.9 3.4 14.6-13 19.9-19.7 20.9-26.1 69.7-79.7 117.2-82.3 11.9-0.6 32.4 8.6 40.9 17 4 4 14.2 18.2 14 24.6-1 32.7-41.4 85.2-72 112.3-5 4.4-12.1 2.4-11 8.9 1.1 6.5 30.5 15 36.7 17.5 18.9 7.6 44.2 34.8 46.3 68.7 0.8 12.3-9 29.2-13 32.6z" fill="#95C751" /><path d="M662 198.4c-1.1 8.5-7.5 14.7 0.4 18.1 7.9 3.4 14.6-13 19.9-19.7 7.2-9 17.9-21.4 30.6-33.7-6.4-15.5-16-29-28.9-32.6-9.9-2.8-23.5 5.9-30.8 11.2-0.9 0.7-1.7 1.5-2.6 2.2 9 19.7 12.7 43.8 11.4 54.5zM868.7 310.2c-6.2-2.5-35.6-11-36.7-17.5-1.1-6.5 6-4.6 11-8.9 30.6-27.1 71-79.6 72-112.3 0.2-6.4-10-20.6-14-24.6-8.4-8.4-29-17.6-40.9-17-6.1 0.3-12.2 1.5-18.2 3.4 4.6 5.4 12.6 17.1 12.4 22.8-1 32.7-41.4 85.2-72 112.3-5 4.4-12.1 2.4-11 8.9 1.1 6.5 30.5 15 36.7 17.5 18.9 7.6 44.2 34.8 46.3 68.7 0.7 12.3-9 29.1-13 32.5-13.2 11-40.8 15-69.7 14.7 1.2 3.3 2.4 6.6 3.4 9.7 40.8 8.3 104.6 9.8 126.9-8.9 4-3.4 13.8-20.2 13-32.5-1.9-33.9-27.2-61.1-46.2-68.8z" fill="#83B238" /><path d="M919.6 365.1c-2.5-41.1-41.6-70-68.4-85 25.5-25.8 66.7-73.6 67.9-114.2 0.5-15.7-4.9-29.6-15.5-40.2-14.9-14.9-33.8-22.2-54.8-20.9-43.4 2.4-89.2 39.9-118.6 69.3-4.7-28.9-18.3-57.3-49.4-65.9-19.6-5.4-38.2-2.3-53.7 9.2-39.1 28.6-49.8 104.4-52.7 138.7-35.5 4.6-70.6 30.5-105.9 65.7-45.9 45.9-146 174-230 295.6-48.5 70.2-83.4 127.1-106 173.5-31.2 64.2-36.4 99.5-16 119.9 8.1 8.1 18.9 8.7 33.1 8.7 60.2-5.4 262.3-131.3 403.7-241.6 0.3-0.2 130.3-101.5 152.7-123.9 41.5-41.5 61.7-83.1 61-124.5 15.2 2.5 35.4 5 56.1 5 28.5 0 58-4.7 76.7-20.3 14.1-12 21-29 19.8-49.1zM680.7 528.9c-3.4 3.4-7.3 7.1-11.5 11.1l-36.7-36.7c-6.9-6.9-18.2-6.9-25.1 0-6.9 6.9-6.9 18.2 0 25.1l35.3 35.3c-25 21.8-57.1 48.1-93 76.4l-47.3-47.3c-6.9-6.9-18.2-6.9-25.1 0-6.9 6.9-6.9 18.2 0 25.1l44.2 44.2c-31 23.8-64 48.3-97.3 72.1l-51.9-51.9c-6.9-6.9-18.2-6.9-25.1 0-6.9 6.9-6.9 18.2 0 25.1l47.6 47.6c-35 24.4-69.8 47.4-102.1 67.2l-50.5-50.5c-6.9-6.9-18.2-6.9-25.1 0-6.9 6.9-6.9 18.2 0 25.1l44 44c-51 29.2-93.5 48.1-117.8 48.1-5.3 0-7.8-1.1-8.5-1.7-7.8-7.8-0.3-68.5 127-252.7 19.3-27.9 39.1-55.4 58.7-81.9 0.6 0.9 1.3 1.7 2 2.5l55.9 55.9c3.5 3.5 8 5.2 12.6 5.2 4.5 0 9.1-1.7 12.6-5.2 6.9-6.9 6.9-18.2 0-25.1L347.7 530c-2-2-4.5-3.4-7.1-4.3 26.7-35.4 52.6-68.1 75.7-96.5l51.6 51.6c3.5 3.5 8 5.2 12.6 5.2s9.1-1.7 12.6-5.2c6.9-6.9 6.9-18.2 0-25.1l-54-54c22.8-27.1 41.7-48.2 54.1-60.7 33.6-33.6 66.4-50.7 97.3-50.7 30.2 0 60.6 15.7 93 48.1 64.7 65.1 63.9 123.8-2.8 190.5z m199.1-135.5c-20.7 17.4-78.4 13.2-116.3 5.6-8.7-26.4-28.9-59.4-55-85.5-32.9-32.9-69.3-51.9-102.4-57.2 3.6-39.7 12-99.6 34.6-116.2 6.8-5 19.2-10.7 32.9-6.8 26.6 7.7 28.6 57.1 26.4 74.1-1 7.9 0 20.9 7.3 24 7.3 3.1 14.4-0.2 17.9-7.3 13.6-27.8 75.5-88.3 119.6-90.7 11-0.6 29.6 1.9 37.4 9.8 3.7 3.7 7.6 12.8 7.4 18.7-0.9 30.3-42.4 82.4-70.8 107.6-4.6 4.1-11.2 12.8-10.2 18.9 1 6.1 11 9.9 16.7 12.2 17.6 7.1 62.3 34.8 64.3 66.3 0.6 11.4-6.1 23.3-9.8 26.5z" fill="#004364" /><path d="M541.5 343m-15.8 0a15.8 15.8 0 1 0 31.6 0 15.8 15.8 0 1 0-31.6 0Z" fill="#004364" /><path d="M583.5 327.1m-15.8 0a15.8 15.8 0 1 0 31.6 0 15.8 15.8 0 1 0-31.6 0Z" fill="#004364" /><path d="M694.8 340.2c-3.4 0-6.7-1.3-9.3-3.9-5-5.1-5-13.4 0.2-18.4l150.1-147c5.2-5 13.4-4.9 18.4 0.2 5 5.1 5 13.4-0.2 18.4l-150.1 147c-2.5 2.4-5.8 3.7-9.1 3.7z" fill="#004364" /><path d="M853.4 381.7c-2 0-4-0.5-5.9-1.4l-122-62.5c-6.4-3.3-8.9-11.1-5.6-17.5 3.3-6.4 11.1-8.9 17.5-5.6l122 62.5c6.4 3.3 8.9 11.1 5.6 17.5-2.3 4.4-6.9 7-11.6 7z" fill="#004364" /><path d="M655.7 293.9h-1c-7.2-0.5-12.5-6.8-12-13.9l8.1-109.8c0.5-7.2 6.5-12.6 13.9-12 7.2 0.5 12.5 6.8 12 13.9l-8.1 109.8c-0.4 6.8-6.1 12-12.9 12z" fill="#004364" /></svg>