<?xml version="1.0" standalone="no"?>
<!DOCTYPE svg PUBLIC "-//W3C//DTD SVG 20010904//EN"
 "http://www.w3.org/TR/2001/REC-SVG-20010904/DTD/svg10.dtd">
<svg version="1.0" xmlns="http://www.w3.org/2000/svg"
 width="148.000000pt" height="148.000000pt" viewBox="0 0 148.000000 148.000000"
 preserveAspectRatio="xMidYMid meet">

<g transform="translate(0.000000,148.000000) scale(0.100000,-0.100000)"
fill="#000000" stroke="none">
<path d="M640 1390 c0 -49 15 -74 63 -105 9 -6 17 -32 20 -69 l6 -58 -28 5
c-16 3 -68 2 -117 -3 -111 -12 -195 -50 -254 -118 -53 -59 -115 -189 -130
-267 -6 -33 -22 -123 -36 -200 -14 -77 -39 -191 -55 -253 -17 -63 -31 -140
-32 -172 -2 -52 1 -62 27 -89 16 -17 45 -36 65 -43 56 -19 194 -14 291 10 47
12 153 29 235 38 164 16 202 24 285 56 162 63 257 170 295 330 23 96 22 100
-21 92 -27 -5 -35 -4 -30 5 4 6 11 9 15 7 4 -3 13 0 21 6 12 8 12 9 -2 4 -10
-3 -18 -3 -18 0 0 11 34 64 41 64 3 0 15 26 25 58 28 84 25 198 -7 248 -13 22
-23 45 -21 51 5 21 -26 70 -58 93 -22 15 -47 22 -91 24 -57 2 -62 4 -74 31
-23 54 -107 118 -191 145 -134 44 -204 93 -204 144 0 9 -4 16 -10 16 -5 0 -10
-22 -10 -50z m183 -277 c-7 -2 -21 -2 -30 0 -10 3 -4 5 12 5 17 0 24 -2 18 -5z
m-213 -11 c0 -15 -36 -42 -69 -52 -38 -11 -40 2 -6 35 23 24 75 35 75 17z
m-227 -97 c-6 -30 -49 -78 -63 -70 -6 4 -4 20 5 43 25 60 68 81 58 27z m438 7
c-15 -27 -49 -52 -71 -52 -11 0 -20 3 -20 8 1 15 36 52 60 60 31 12 43 6 31
-16z m159 18 c0 -5 -5 -10 -11 -10 -5 0 -8 -4 -4 -9 6 -10 -13 -26 -21 -18 -8
7 15 47 26 47 6 0 10 -4 10 -10z m-337 -27 c-3 -12 15 -12 36 1 9 6 12 5 8 -1
-3 -5 -2 -26 3 -46 4 -21 4 -39 -1 -43 -5 -3 -9 5 -9 18 0 13 -4 30 -9 37 -6
10 -8 -1 -4 -30 3 -24 10 -45 14 -47 18 -7 7 -48 -16 -65 -31 -22 -32 -11 -3
20 12 13 17 23 12 23 -14 -1 -46 -49 -40 -59 4 -5 16 -7 29 -4 22 5 22 5 2
-10 -12 -10 -24 -12 -29 -6 -23 22 -68 9 -107 -30 -22 -21 -42 -35 -45 -30 -3
5 -10 9 -16 9 -6 0 -3 -10 8 -22 10 -12 13 -18 5 -13 -8 5 -32 12 -53 15 -31
6 -38 5 -34 -6 3 -8 0 -11 -10 -7 -13 5 -13 8 2 24 9 11 13 19 9 19 -4 0 0 9
10 20 19 21 33 104 18 113 -15 10 -72 -30 -93 -65 -28 -46 -24 -22 4 27 13 22
29 39 36 37 6 -1 9 2 5 7 -7 12 26 31 54 31 11 0 35 16 53 35 35 38 97 66 138
62 14 -1 24 -7 23 -14z m-388 -187 c-8 -40 -20 -48 -22 -14 -2 23 15 63 23 55
3 -3 2 -21 -1 -41z m135 -6 c-7 -17 -17 -27 -23 -23 -6 4 -8 0 -5 -9 4 -9 0
-15 -8 -15 -23 0 -16 33 13 66 31 35 41 26 23 -19z m605 30 c3 -5 2 -10 -4
-10 -5 0 -13 5 -16 10 -3 6 -2 10 4 10 5 0 13 -4 16 -10z m-21 -25 c3 -8 2
-14 -2 -14 -19 3 -25 -2 -12 -11 13 -8 12 -10 -2 -10 -21 0 -22 4 -8 31 13 23
16 24 24 4z m-174 -24 c0 -37 -51 -91 -86 -91 -45 0 -26 47 40 98 38 29 46 28
46 -7z m201 -4 c-10 -9 -11 -8 -5 6 3 10 9 15 12 12 3 -3 0 -11 -7 -18z m-387
-33 c7 -19 -35 -76 -69 -94 -22 -12 -28 -12 -35 0 -10 16 7 53 43 92 27 29 51
29 61 2z m46 -5 c0 -6 -4 -7 -10 -4 -5 3 -10 11 -10 16 0 6 5 7 10 4 6 -3 10
-11 10 -16z m-182 -85 c-3 -14 -5 -12 -10 9 -3 19 -2 25 4 19 6 -6 8 -18 6
-28z m-206 -12 c-7 -2 -12 -8 -12 -13 0 -6 5 -7 10 -4 6 3 10 1 10 -5 0 -6 -6
-13 -14 -16 -8 -3 -12 -12 -9 -20 3 -8 1 -14 -5 -14 -12 0 -5 56 11 85 8 15
11 17 15 5 3 -7 0 -16 -6 -18z m168 -10 c0 -10 -6 -24 -12 -30 -7 -7 -13 -18
-13 -25 -1 -7 -7 -11 -14 -9 -7 1 -10 -2 -6 -7 3 -6 -3 -15 -14 -20 -14 -8
-20 -7 -24 4 -4 9 -1 12 9 8 7 -3 14 0 14 6 0 6 -5 11 -12 11 -6 0 -3 7 8 15
19 15 19 15 -1 8 -18 -6 -19 -5 -5 13 33 45 70 59 70 26z m330 -82 c0 -5 -9
-6 -20 -3 -12 3 -20 0 -20 -6 0 -7 5 -9 10 -6 6 3 10 2 10 -4 0 -14 -49 -46
-57 -37 -3 3 0 6 8 6 10 0 11 2 2 8 -17 11 32 63 52 56 8 -4 15 -10 15 -14z
m-190 -27 c-1 -5 -6 -18 -13 -29 -17 -30 -38 -7 -28 31 2 8 41 6 41 -2z m-290
-37 c0 -2 -8 -10 -17 -17 -16 -13 -17 -12 -4 4 13 16 21 21 21 13z m241 -13
c12 -15 12 -16 -3 -10 -11 4 -18 2 -18 -5 0 -6 -3 -9 -6 -5 -6 6 2 37 9 37 3
0 11 -8 18 -17z m-111 -39 c0 -8 -4 -14 -10 -14 -5 0 -7 8 -4 18 5 14 3 14
-10 -2 -9 -11 -16 -15 -16 -10 0 15 22 34 32 28 4 -3 8 -12 8 -20z"/>
<path d="M520 974 c-51 -44 -74 -107 -51 -143 24 -37 132 34 156 104 12 36 12
41 -3 53 -26 20 -68 14 -102 -14z m65 -26 c-11 -37 -40 -72 -68 -82 -32 -12
-41 -5 -32 23 18 57 116 115 100 59z"/>
<path d="M408 765 c-9 -16 17 -34 33 -24 11 7 11 9 -3 9 -9 0 -18 5 -20 12 -3
7 -7 8 -10 3z"/>
<path d="M485 750 c3 -5 8 -10 11 -10 2 0 4 5 4 10 0 6 -5 10 -11 10 -5 0 -7
-4 -4 -10z"/>
<path d="M715 530 c-3 -5 -1 -10 4 -10 6 0 11 5 11 10 0 6 -2 10 -4 10 -3 0
-8 -4 -11 -10z"/>
<path d="M1306 948 c15 -20 30 -35 33 -32 3 2 -10 19 -28 37 l-34 32 29 -37z"/>
<path d="M1352 880 c7 -10 14 -18 15 -16 6 6 -9 36 -18 36 -5 0 -4 -9 3 -20z"/>
<path d="M1369 843 c-1 -5 -1 -10 -1 -13 2 -16 11 -90 16 -125 7 -44 -21 -112
-43 -107 -7 1 -10 -2 -7 -7 4 -5 1 -13 -6 -18 -10 -6 -12 -39 -9 -128 3 -117
4 -119 16 -75 7 25 25 76 39 113 29 76 33 155 15 267 -6 36 -11 73 -12 83 -1
17 -6 23 -8 10z"/>
<path d="M1341 724 c0 -11 3 -14 6 -6 3 7 2 16 -1 19 -3 4 -6 -2 -5 -13z"/>
<path d="M1361 664 c0 -11 3 -14 6 -6 3 7 2 16 -1 19 -3 4 -6 -2 -5 -13z"/>
<path d="M1305 590 c3 -5 8 -10 11 -10 2 0 4 5 4 10 0 6 -5 10 -11 10 -5 0 -7
-4 -4 -10z"/>
</g>
</svg>
