<?xml version="1.0" encoding="UTF-8" standalone="no"?>
<!-- Created with Inkscape (http://www.inkscape.org/) -->

<svg
   xmlns:dc="http://purl.org/dc/elements/1.1/"
   xmlns:cc="http://creativecommons.org/ns#"
   xmlns:rdf="http://www.w3.org/1999/02/22-rdf-syntax-ns#"
   xmlns:svg="http://www.w3.org/2000/svg"
   xmlns="http://www.w3.org/2000/svg"
   xmlns:sodipodi="http://sodipodi.sourceforge.net/DTD/sodipodi-0.dtd"
   xmlns:inkscape="http://www.inkscape.org/namespaces/inkscape"
   width="58.090988mm"
   height="59.161068mm"
   viewBox="0 0 58.090988 59.161068"
   version="1.1"
   id="svg4291"
   inkscape:version="0.91+devel r"
   sodipodi:docname="aubagine.svg">
  <title
     id="title5049">Aubergine (Vegetable)</title>
  <defs
     id="defs4285" />
  <sodipodi:namedview
     id="base"
     pagecolor="#ffffff"
     bordercolor="#666666"
     borderopacity="1.0"
     inkscape:pageopacity="0.0"
     inkscape:pageshadow="2"
     inkscape:zoom="1"
     inkscape:cx="117.5"
     inkscape:cy="98.5"
     inkscape:document-units="mm"
     inkscape:current-layer="layer1"
     showgrid="false"
     inkscape:snap-global="false"
     fit-margin-top="0"
     fit-margin-left="0"
     fit-margin-right="0"
     fit-margin-bottom="0"
     inkscape:window-width="1855"
     inkscape:window-height="1056"
     inkscape:window-x="65"
     inkscape:window-y="24"
     inkscape:window-maximized="1" />
  <metadata
     id="metadata4288">
    <rdf:RDF>
      <cc:Work
         rdf:about="">
        <dc:format>image/svg+xml</dc:format>
        <dc:type
           rdf:resource="http://purl.org/dc/dcmitype/StillImage" />
        <dc:title>Aubergine (Vegetable)</dc:title>
        <cc:license
           rdf:resource="http://creativecommons.org/publicdomain/zero/1.0/" />
        <dc:date>2015-10-12</dc:date>
        <dc:creator>
          <cc:Agent>
            <dc:title>Devonique Scolley &amp; Martin Owens</dc:title>
          </cc:Agent>
        </dc:creator>
        <dc:rights>
          <cc:Agent>
            <dc:title>None Retained</dc:title>
          </cc:Agent>
        </dc:rights>
        <dc:publisher>
          <cc:Agent>
            <dc:title>OpenClipart.org</dc:title>
          </cc:Agent>
        </dc:publisher>
        <dc:source>https://openclipart.org/detail/229772/vector-vegetables</dc:source>
        <dc:subject>
          <rdf:Bag>
            <rdf:li>aubergine</rdf:li>
            <rdf:li>vegetable</rdf:li>
            <rdf:li>greens</rdf:li>
            <rdf:li>hearty</rdf:li>
            <rdf:li>soup</rdf:li>
            <rdf:li>ingrediant</rdf:li>
            <rdf:li>egg plant</rdf:li>
            <rdf:li>brinjal</rdf:li>
            <rdf:li>solanum melongena</rdf:li>
          </rdf:Bag>
        </dc:subject>
        <dc:description>A modified egg plant from Devonique</dc:description>
      </cc:Work>
      <cc:License
         rdf:about="http://creativecommons.org/publicdomain/zero/1.0/">
        <cc:permits
           rdf:resource="http://creativecommons.org/ns#Reproduction" />
        <cc:permits
           rdf:resource="http://creativecommons.org/ns#Distribution" />
        <cc:permits
           rdf:resource="http://creativecommons.org/ns#DerivativeWorks" />
      </cc:License>
    </rdf:RDF>
  </metadata>
  <g
     inkscape:label="Layer 1"
     inkscape:groupmode="layer"
     id="layer1"
     transform="translate(-1.3949876,-109.25827)">
    <path
       sodipodi:nodetypes="ccsscccc"
       inkscape:connector-curvature="0"
       id="path4453"
       d="m 55.089605,119.21449 c -1.579472,17.07764 -9.242777,27.84506 -21.070414,39.00653 -6.877306,6.02097 -15.69208,12.80448 -24.2130547,9.18469 -9.78685497,-4.15755 -9.75433997,-12.39475 -6.324213,-18.51809 5.593045,-9.98451 11.1095837,-12.5971 20.2027227,-18.24658 6.366875,-3.84711 9.407966,-10.01846 15.90789,-14.85132 1.728325,-1.2136 6.501284,-3.00922 7.391416,-3.25478 5.701549,0.14997 6.607807,2.68429 8.105653,6.67955 z"
       style="fill:#21112e;fill-opacity:1;fill-rule:evenodd;stroke:none;stroke-width:0.26458332px;stroke-linecap:butt;stroke-linejoin:miter;stroke-opacity:1" />
    <path
       sodipodi:nodetypes="cccccc"
       inkscape:connector-curvature="0"
       id="path4455"
       d="m 44.837824,123.38177 c -6.715876,11.98178 -18.407188,32.91001 -34.189821,37.16627 -7.5953404,0.75828 -2.4108988,-8.19173 -0.630057,-12.1589 6.324269,-8.88594 16.915272,-11.55208 23.245814,-19.24254 2.250126,-2.79437 3.32108,-5.22618 4.68673,-6.15996 1.547813,1.29104 3.966251,1.7812 6.887334,0.39513 z"
       style="fill:#7e4e79;fill-opacity:0.41111115;fill-rule:evenodd;stroke:none;stroke-width:0.26458332px;stroke-linecap:butt;stroke-linejoin:miter;stroke-opacity:1" />
    <path
       sodipodi:nodetypes="ccccc"
       inkscape:connector-curvature="0"
       id="path4457-3"
       d="m 43.320853,124.10246 c -5.974303,13.71073 -20.422568,27.20464 -31.349457,33.66338 -3.6161883,-0.33239 -4.5488553,-3.69407 -1.306875,-8.07613 12.282178,-8.37094 21.48203,-14.71527 28.781231,-25.7825 0.944959,0.66085 2.448173,0.65896 3.875101,0.19525 z"
       style="fill:#bcb2c9;fill-opacity:0.65979381;fill-rule:evenodd;stroke:none;stroke-width:0.26458332px;stroke-linecap:butt;stroke-linejoin:miter;stroke-opacity:1" />
    <path
       sodipodi:nodetypes="ccccc"
       inkscape:connector-curvature="0"
       id="path4459-0"
       d="m 35.759444,136.35657 -0.843209,-6.36198 c 1.495168,-1.98889 3.234044,-3.97703 4.303904,-5.98052 0.902569,0.28336 2.854684,0.57763 4.198107,0.13359 -0.974717,1.99607 -5.728476,10.05296 -7.658802,12.20891 z"
       style="fill:#ebe9ee;fill-opacity:0.41237117;fill-rule:evenodd;stroke:none;stroke-width:0.26458332px;stroke-linecap:butt;stroke-linejoin:miter;stroke-opacity:1" />
    <path
       sodipodi:nodetypes="cccccssccsccccscsccccc"
       inkscape:connector-curvature="0"
       id="path4461"
       d="m 52.441801,112.49141 -0.317738,-2.95861 c -0.448308,0.45289 -0.559507,-0.51016 -2.012836,-0.2184 l -1.406036,0.64576 -1.034391,0.82096 c 0,0 -0.984348,0.14119 -1.693855,0.37376 -0.709512,0.23257 -2.762382,0.0478 -4.669898,1.71168 -2.068372,1.80414 -2.245458,3.55097 -6.716742,2.14135 l 1.563693,4.38378 c 0,0 2.550769,1.72703 3.427918,1.30085 0.877147,-0.42618 2.283182,-1.07194 2.283182,-1.07194 l -2.804985,2.6527 c 0.165901,3.09548 7.371574,-0.43844 6.379617,0.12264 -0.322289,0.56785 3.175413,4.24347 3.175413,4.24347 0,0 -0.907802,-2.47329 -0.455176,-3.94729 0.452884,-1.47485 1.804294,-3.19178 1.804294,-3.19178 0,0 0.03045,4.85554 0.600655,5.74427 1.98474,3.09343 3.984836,3.84054 7.169094,2.83118 l -2.087962,-1.46152 3.839927,-0.54434 c -1.596742,0.22067 -5.055309,-2.51028 -3.921834,-5.44728 0.469852,-3.9023 1.095139,-5.83218 -3.12234,-8.13124 z"
       style="fill:#92b147;fill-opacity:1;fill-rule:evenodd;stroke:none;stroke-width:0.26458332px;stroke-linecap:butt;stroke-linejoin:miter;stroke-opacity:1" />
    <path
       style="opacity:0.12000002;fill:#000000;fill-rule:evenodd;stroke:none;stroke-width:0.26458332px;stroke-linecap:butt;stroke-linejoin:miter;stroke-opacity:1"
       d="m 35.269126,116.81224 c 4.391478,3.41469 6.115383,-2.78418 10.980208,-2.57968 -2.831896,1.85208 -3.448096,3.70417 -4.630208,5.55625 -1.627054,1.46236 -3.40241,1.89409 -5.55625,-0.33073 z"
       id="path6812"
       inkscape:connector-curvature="0"
       sodipodi:nodetypes="ccccc" />
    <path
       style="opacity:0.12000002;fill:#000000;fill-opacity:1;fill-rule:evenodd;stroke:none;stroke-width:0.26458332px;stroke-linecap:butt;stroke-linejoin:miter;stroke-miterlimit:4;stroke-dasharray:none;stroke-dashoffset:0;stroke-opacity:1"
       d="m 39.105584,122.36849 c 2.932926,0.74635 4.930429,-0.75232 7.011459,-2.05052 l -0.396875,0.99219 c 0.393587,1.86944 1.655274,3.52186 2.711979,5.22552 -1.237428,-1.31356 -2.52828,-2.61643 -2.910417,-4.10104 -2.670258,0.73097 -5.762591,2.05988 -6.416146,-0.0662 z"
       id="path6814"
       inkscape:connector-curvature="0"
       sodipodi:nodetypes="cccccc" />
    <path
       style="opacity:0.12000002;fill:#000000;fill-opacity:1;fill-rule:evenodd;stroke:none;stroke-width:0.26458332px;stroke-linecap:butt;stroke-linejoin:miter;stroke-miterlimit:4;stroke-dasharray:none;stroke-dashoffset:0;stroke-opacity:1"
       d="m 49.953501,119.45808 c 1.099246,-0.6329 0.731694,-2.29969 0.661458,-3.77032 3.064791,4.71837 -1.206431,5.13109 3.439584,12.76615 -3.48368,-1.05833 -4.850696,-4.05694 -4.101042,-8.99583 z"
       id="path6830"
       inkscape:connector-curvature="0"
       sodipodi:nodetypes="cccc" />
    <path
       style="opacity:0.12000002;fill:#000000;fill-opacity:1;fill-rule:evenodd;stroke:none;stroke-width:0.26458332px;stroke-linecap:butt;stroke-linejoin:miter;stroke-miterlimit:4;stroke-dasharray:none;stroke-dashoffset:0;stroke-opacity:1"
       d="m 52.133722,109.55067 c -0.358742,1.73019 -1.598635,2.57923 -2.907825,3.35897 0.897107,0.35122 2.116667,0.59086 3.175,-0.52917 z"
       id="path6837"
       inkscape:connector-curvature="0"
       sodipodi:nodetypes="cccc" />
    <path
       style="opacity:0.12000002;fill:#000000;fill-opacity:1;fill-rule:evenodd;stroke:none;stroke-width:0.26458332px;stroke-linecap:butt;stroke-linejoin:miter;stroke-miterlimit:4;stroke-dasharray:none;stroke-dashoffset:0;stroke-opacity:1"
       d="m 55.414144,126.56609 c -2.136039,-2.39318 -2.071976,-4.64886 -2.291834,-6.92228 0.630049,2.92463 1.958422,5.15094 3.835316,6.82873 z"
       id="path6853"
       inkscape:connector-curvature="0"
       sodipodi:nodetypes="cccc" />
  </g>
</svg>
