<?xml version="1.0" encoding="UTF-8"?>
<svg version="1.1" xmlns="http://www.w3.org/2000/svg" width="160" height="160">
<path d="M0 0 C1.03125 0.309375 2.0625 0.61875 3.125 0.9375 C5.0121875 1.370625 5.0121875 1.370625 6.9375 1.8125 C7.989375 2.18375 9.04125 2.555 10.125 2.9375 C10.455 3.9275 10.785 4.9175 11.125 5.9375 C12.93796615 6.55842718 12.93796615 6.55842718 15.125 6.9375 C15.888125 7.2675 16.65125 7.5975 17.4375 7.9375 C25.97189568 11.11308909 34.47030011 8.48443195 42.76342773 5.86816406 C62.41857069 -0.29867278 82.57532465 0.52232778 101.125 9.9375 C118.29196325 19.49027275 129.5807776 32.95114978 135.4375 51.75 C140.28166617 71.32438574 137.24658226 90.61881805 127.41796875 108.046875 C126.02428873 111.16265511 126.10369331 111.85273695 127.125 114.9375 C126.465 115.5975 125.805 116.2575 125.125 116.9375 C125.46320153 118.95704441 125.46320153 118.95704441 126.125 120.9375 C126.125 121.5975 126.125 122.2575 126.125 122.9375 C125.465 122.9375 124.805 122.9375 124.125 122.9375 C124.125 123.9275 124.125 124.9175 124.125 125.9375 C123.135 126.5975 122.145 127.2575 121.125 127.9375 C126.16956605 126.7145749 128.46245503 123.49481768 131.57421875 119.6171875 C132.08597656 119.06289062 132.59773437 118.50859375 133.125 117.9375 C133.785 117.9375 134.445 117.9375 135.125 117.9375 C133.63582643 122.85177279 130.68313338 126.34069126 127.125 129.9375 C126.465 130.2675 125.805 130.5975 125.125 130.9375 C128.755 130.6075 132.385 130.2775 136.125 129.9375 C136.125 130.5975 136.125 131.2575 136.125 131.9375 C129.0155189 135.11137549 124.62444023 135.53105175 117.125 132.875 C116.465 132.565625 115.805 132.25625 115.125 131.9375 C113.71122659 134.57654371 112.75259865 137.00870629 112.125 139.9375 C110.145 140.2675 108.165 140.5975 106.125 140.9375 C105.795 142.2575 105.465 143.5775 105.125 144.9375 C104.37992187 145.03417969 103.63484375 145.13085938 102.8671875 145.23046875 C99.75905392 146.03185362 98.53211482 147.03890535 96.25 149.25 C91.6117299 153.50320617 87.66933797 156.9375 81.125 156.9375 C81.125 156.2775 81.125 155.6175 81.125 154.9375 C81.81207031 154.62296875 82.49914062 154.3084375 83.20703125 153.984375 C84.10808594 153.55640625 85.00914063 153.1284375 85.9375 152.6875 C87.27748047 152.06101563 87.27748047 152.06101563 88.64453125 151.421875 C91.23428331 149.87210211 92.50680834 148.45349234 94.125 145.9375 C91.41702127 143.6739546 91.41702127 143.6739546 88.9296875 144.15625 C84.63924779 145.35135855 80.41092719 146.72263751 76.18359375 148.12109375 C58.1900219 153.91331021 38.61092155 151.69132599 21.6875 143.6875 C8.4982659 136.58676687 -2.16691595 126.41035613 -8.875 112.9375 C-9.36355469 111.98746094 -9.85210938 111.03742188 -10.35546875 110.05859375 C-16.53042495 95.40820748 -16.5625082 73.4304663 -11.8125 58.3125 C-9.45696938 52.60928117 -6.35135856 47.31473432 -3.33984375 41.9375 C-0.82884242 36.79496928 -0.00799011 32.21535673 -1.48046875 26.6484375 C-3.10458793 22.74771457 -4.71647178 20.64549506 -8.625 18.9375 C-9.6975 18.6075 -10.77 18.2775 -11.875 17.9375 C-11.875 15.27083333 -11.875 12.60416667 -11.875 9.9375 C-7.915 10.9275 -7.915 10.9275 -3.875 11.9375 C-4.535 11.6075 -5.195 11.2775 -5.875 10.9375 C-5.875 10.2775 -5.875 9.6175 -5.875 8.9375 C-6.535 8.6075 -7.195 8.2775 -7.875 7.9375 C-7.875 4.9375 -7.875 4.9375 -5.75 2.1875 C-2.875 -0.0625 -2.875 -0.0625 0 0 Z M97.125 140.9375 C96.135 141.5975 95.145 142.2575 94.125 142.9375 C95.445 142.9375 96.765 142.9375 98.125 142.9375 C97.795 142.2775 97.465 141.6175 97.125 140.9375 Z " fill="#CE9368" transform="translate(18.875,3.0625)"/>
<path d="M0 0 C0.66 0 1.32 0 2 0 C2.625 2.875 2.625 2.875 3 6 C2.34 6.66 1.68 7.32 1 8 C1.33820153 10.01954441 1.33820153 10.01954441 2 12 C2 12.66 2 13.32 2 14 C1.34 14 0.68 14 0 14 C0 14.99 0 15.98 0 17 C-0.99 17.66 -1.98 18.32 -3 19 C2.04456605 17.7770749 4.33745503 14.55731768 7.44921875 10.6796875 C8.21685547 9.84824219 8.21685547 9.84824219 9 9 C9.66 9 10.32 9 11 9 C9.51082643 13.91427279 6.55813338 17.40319126 3 21 C2.01 21.495 2.01 21.495 1 22 C4.63 21.67 8.26 21.34 12 21 C12 21.66 12 22.32 12 23 C4.8905189 26.17387549 0.49944023 26.59355175 -7 23.9375 C-7.66 23.628125 -8.32 23.31875 -9 23 C-10.41377341 25.63904371 -11.37240135 28.07120629 -12 31 C-14.97 31.495 -14.97 31.495 -18 32 C-18.33 33.32 -18.66 34.64 -19 36 C-19.74507812 36.09667969 -20.49015625 36.19335938 -21.2578125 36.29296875 C-24.36594608 37.09435362 -25.59288518 38.10140535 -27.875 40.3125 C-32.5132701 44.56570617 -36.45566203 48 -43 48 C-43 47.34 -43 46.68 -43 46 C-42.31292969 45.68546875 -41.62585938 45.3709375 -40.91796875 45.046875 C-40.01691406 44.61890625 -39.11585937 44.1909375 -38.1875 43.75 C-37.29417969 43.33234375 -36.40085937 42.9146875 -35.48046875 42.484375 C-32.89071669 40.93460211 -31.61819166 39.51599234 -30 37 C-32.72372797 34.72295609 -32.72372797 34.72295609 -35.3046875 35.2421875 C-39.36193772 36.38292162 -43.29604777 37.82525418 -47.2578125 39.2578125 C-50 40 -50 40 -53 39 C-49.39607197 37.6868441 -45.79181695 36.374588 -42.1875 35.0625 C-41.16333984 34.68931641 -40.13917969 34.31613281 -39.08398438 33.93164062 C-38.10107422 33.57392578 -37.11816406 33.21621094 -36.10546875 32.84765625 C-34.74651489 32.3527771 -34.74651489 32.3527771 -33.36010742 31.84790039 C-31.58150749 31.2089144 -29.79291627 30.59763876 -28 30 C-28 29.01 -28 28.02 -28 27 C-27.01 27 -26.02 27 -25 27 C-25 26.34 -25 25.68 -25 25 C-24.01 24.67 -23.02 24.34 -22 24 C-21.34 23.01 -20.68 22.02 -20 21 C-19.01 21 -18.02 21 -17 21 C-16.9175 20.4225 -16.835 19.845 -16.75 19.25 C-15.774018 16.32205399 -14.36488777 14.94755463 -12 13 C-11.01 13 -10.02 13 -9 13 C-8.7525 12.443125 -8.505 11.88625 -8.25 11.3125 C-6.77075182 8.57589087 -5.06532561 6.32349131 -3 4 C-2.34 4 -1.68 4 -1 4 C-0.67 2.68 -0.34 1.36 0 0 Z M-27 32 C-27.99 32.66 -28.98 33.32 -30 34 C-28.68 34 -27.36 34 -26 34 C-26.33 33.34 -26.66 32.68 -27 32 Z " fill="#643C25" transform="translate(143,112)"/>
<path d="M0 0 C0.49371094 0.433125 0.98742188 0.86625 1.49609375 1.3125 C2.13675781 1.869375 2.77742188 2.42625 3.4375 3 C4.39462891 3.8353125 4.39462891 3.8353125 5.37109375 4.6875 C6.78113179 6.10457065 6.78113179 6.10457065 8 6 C8.33 5.34 8.66 4.68 9 4 C13.68746227 5.2783988 16.10370088 7.94198643 19.25390625 11.44140625 C21.21328065 13.19037803 22.47397431 13.46555145 25 14 C26.7074998 15.28062485 28.38263741 16.6072711 30 18 C30.61875 17.505 31.2375 17.01 31.875 16.5 C34 15 34 15 36 15 C35.67 16.093125 35.34 17.18625 35 18.3125 C33.86913351 21.84578884 33.86913351 21.84578884 34 25 C33.67 25.66 33.34 26.32 33 27 C31.68 27 30.36 27 29 27 C28.01 27.33 27.02 27.66 26 28 C24.35 26.02 22.7 24.04 21 22 C19.02 22.99 19.02 22.99 17 24 C15.853511 22.853511 14.70864174 21.70537234 13.5703125 20.55078125 C12.46532335 19.45953575 11.33205595 18.39655699 10.1796875 17.35546875 C5.95043281 13.43588752 4.04688948 10.69973164 3 5 C2.34 5 1.68 5 1 5 C0.34 3.68 -0.32 2.36 -1 1 C-0.67 0.67 -0.34 0.34 0 0 Z " fill="#F6E3AB" transform="translate(58,44)"/>
<path d="M0 0 C1.03125 0.309375 2.0625 0.61875 3.125 0.9375 C5.0121875 1.370625 5.0121875 1.370625 6.9375 1.8125 C7.989375 2.18375 9.04125 2.555 10.125 2.9375 C10.455 3.9275 10.785 4.9175 11.125 5.9375 C13.14008358 6.67073796 13.14008358 6.67073796 15.125 6.9375 C14.465 7.5975 13.805 8.2575 13.125 8.9375 C13.4435177 11.04570797 13.4435177 11.04570797 14.125 12.9375 C13.135 12.6075 12.145 12.2775 11.125 11.9375 C11.125 12.5975 11.125 13.2575 11.125 13.9375 C8.6875 13.5625 8.6875 13.5625 6.125 12.9375 C5.795 12.2775 5.465 11.6175 5.125 10.9375 C3.10036745 10.28536708 3.10036745 10.28536708 1.125 9.9375 C0.82189932 15.09021161 1.37489889 17.63299391 4.125 21.9375 C3.795 22.9275 3.465 23.9175 3.125 24.9375 C1.949375 24.339375 0.77375 23.74125 -0.4375 23.125 C-4.19526874 21.24276646 -7.99610647 19.55370564 -11.875 17.9375 C-11.875 15.27083333 -11.875 12.60416667 -11.875 9.9375 C-9.235 10.5975 -6.595 11.2575 -3.875 11.9375 C-4.535 11.6075 -5.195 11.2775 -5.875 10.9375 C-5.875 10.2775 -5.875 9.6175 -5.875 8.9375 C-6.535 8.6075 -7.195 8.2775 -7.875 7.9375 C-7.875 4.9375 -7.875 4.9375 -5.75 2.1875 C-2.875 -0.0625 -2.875 -0.0625 0 0 Z " fill="#C4925C" transform="translate(18.875,3.0625)"/>
<path d="M0 0 C2 1 2 1 2 1 Z M0 2 C-1.0725 2.4125 -2.145 2.825 -3.25 3.25 C-6.52265074 4.63739149 -8.65517162 6.27999908 -11 9 C-9.68 9.33 -8.36 9.66 -7 10 C-7.99 10.33 -8.98 10.66 -10 11 C-10 11.99 -10 12.98 -10 14 C-10.28627045 16.67356157 -10.65031551 19.33365575 -11 22 C-13.97 21.34 -16.94 20.68 -20 20 C-19.67 19.01 -19.34 18.02 -19 17 C-20.58367747 17.14204741 -22.16693318 17.28880153 -23.75 17.4375 C-24.63171875 17.51871094 -25.5134375 17.59992187 -26.421875 17.68359375 C-28.69350452 17.96238465 -30.79851823 18.38790577 -33 19 C-33.33 17.02 -33.66 15.04 -34 13 C-34.66 13 -35.32 13 -36 13 C-36 12.01 -36 11.02 -36 10 C-35.34 10 -34.68 10 -34 10 C-34 9.01 -34 8.02 -34 7 C-30.85262818 7.69941596 -27.97411124 8.76078698 -25 10 C-25 9.01 -25 8.02 -25 7 C-19.06 6.505 -19.06 6.505 -13 6 C-13 5.34 -13 4.68 -13 4 C-11.5882217 3.46605821 -10.17029756 2.94834896 -8.75 2.4375 C-7.96109375 2.14746094 -7.1721875 1.85742188 -6.359375 1.55859375 C-3.80896548 0.95477163 -2.44677771 1.1526068 0 2 Z " fill="#EBCA92" transform="translate(68,7)"/>
<path d="M0 0 C0 1.65 0 3.3 0 5 C-0.66 5 -1.32 5 -2 5 C-2 5.99 -2 6.98 -2 8 C-2.99 8.66 -3.98 9.32 -5 10 C0.04456605 8.7770749 2.33745503 5.55731768 5.44921875 1.6796875 C6.21685547 0.84824219 6.21685547 0.84824219 7 0 C7.66 0 8.32 0 9 0 C7.51082643 4.91427279 4.55813338 8.40319126 1 12 C0.01 12.495 0.01 12.495 -1 13 C2.63 12.67 6.26 12.34 10 12 C10 12.66 10 13.32 10 14 C2.8905189 17.17387549 -1.50055977 17.59355175 -9 14.9375 C-9.66 14.628125 -10.32 14.31875 -11 14 C-12.41377341 16.63904371 -13.37240135 19.07120629 -14 22 C-15.98 22.33 -17.96 22.66 -20 23 C-20.33 24.32 -20.66 25.64 -21 27 C-21.66 27 -22.32 27 -23 27 C-22.52060632 22.28596212 -22.03165952 18.33420699 -20 14 C-19.67 14.66 -19.34 15.32 -19 16 C-18.236875 15.175 -17.47375 14.35 -16.6875 13.5 C-14 11 -14 11 -11 11 C-11 10.34 -11 9.68 -11 9 C-11.66 9 -12.32 9 -13 9 C-13 8.34 -13 7.68 -13 7 C-11.35 7 -9.7 7 -8 7 C-8.33 5.68 -8.66 4.36 -9 3 C-8.401875 2.87625 -7.80375 2.7525 -7.1875 2.625 C-4.44929001 1.84265429 -2.87919823 0 0 0 Z " fill="#7E5D3C" transform="translate(145,121)"/>
<path d="M0 0 C2.625 0.375 2.625 0.375 5 1 C4.96519531 1.59167969 4.93039063 2.18335938 4.89453125 2.79296875 C4.71928307 7.90854658 5.06511302 10.66147142 8 15 C7.67 15.99 7.34 16.98 7 18 C5.824375 17.401875 4.64875 16.80375 3.4375 16.1875 C-0.32026874 14.30526646 -4.12110647 12.61620564 -8 11 C-8 8.33333333 -8 5.66666667 -8 3 C-5.36 3.66 -2.72 4.32 0 5 C-0.66 4.67 -1.32 4.34 -2 4 C-2 2 -2 2 0 0 Z " fill="#AC642E" transform="translate(15,10)"/>
<path d="M0 0 C1.32 0.33 2.64 0.66 4 1 C3.8125 3.8125 3.8125 3.8125 3 7 C0.75 8.5625 0.75 8.5625 -2 10 C-2.763125 10.78375 -3.52625 11.5675 -4.3125 12.375 C-8.69597712 16.65653579 -12.75102839 20 -19 20 C-19 19.34 -19 18.68 -19 18 C-18.31292969 17.68546875 -17.62585938 17.3709375 -16.91796875 17.046875 C-16.01691406 16.61890625 -15.11585937 16.1909375 -14.1875 15.75 C-13.29417969 15.33234375 -12.40085937 14.9146875 -11.48046875 14.484375 C-8.89071669 12.93460211 -7.61819166 11.51599234 -6 9 C-8.72372797 6.72295609 -8.72372797 6.72295609 -11.3046875 7.2421875 C-15.36193772 8.38292162 -19.29604777 9.82525418 -23.2578125 11.2578125 C-26 12 -26 12 -29 11 C-25.39870379 9.65882147 -21.79352141 8.3284161 -18.1875 7 C-17.16333984 6.6184375 -16.13917969 6.236875 -15.08398438 5.84375 C-14.10107422 5.4828125 -13.11816406 5.121875 -12.10546875 4.75 C-11.19949951 4.41484375 -10.29353027 4.0796875 -9.36010742 3.734375 C-7 3 -7 3 -4 3 C-4 3.66 -4 4.32 -4 5 C-3.34 5.33 -2.68 5.66 -2 6 C-1.34 4.02 -0.68 2.04 0 0 Z " fill="#764B2B" transform="translate(119,140)"/>
<path d="M0 0 C2 1 2 1 2 1 Z M0 2 C-1.546875 2.5878125 -1.546875 2.5878125 -3.125 3.1875 C-5.87433457 4.3436588 -7.86571933 5.61468347 -10.0625 7.625 C-13.24661801 10.19939328 -15.02664571 10.53798206 -19 11 C-19.33 11.66 -19.66 12.32 -20 13 C-22.31 12.67 -24.62 12.34 -27 12 C-27.33 12.99 -27.66 13.98 -28 15 C-28.5775 14.67 -29.155 14.34 -29.75 14 C-32.19883862 12.72924102 -32.19883862 12.72924102 -36 13 C-36 12.01 -36 11.02 -36 10 C-35.34 10 -34.68 10 -34 10 C-34 9.01 -34 8.02 -34 7 C-30.85262818 7.69941596 -27.97411124 8.76078698 -25 10 C-25 9.01 -25 8.02 -25 7 C-19.06 6.505 -19.06 6.505 -13 6 C-13 5.34 -13 4.68 -13 4 C-11.5882217 3.46605821 -10.17029756 2.94834896 -8.75 2.4375 C-7.96109375 2.14746094 -7.1721875 1.85742188 -6.359375 1.55859375 C-3.80896548 0.95477163 -2.44677771 1.1526068 0 2 Z " fill="#E5BB82" transform="translate(68,7)"/>
<path d="M0 0 C0.66 0 1.32 0 2 0 C1.67 1.093125 1.34 2.18625 1 3.3125 C-0.13086649 6.84578884 -0.13086649 6.84578884 0 10 C-0.33 10.66 -0.66 11.32 -1 12 C-2.32 12 -3.64 12 -5 12 C-5.99 12.33 -6.98 12.66 -8 13 C-9.65 11.02 -11.3 9.04 -13 7 C-10.57816624 4.8576086 -9.17879003 4.02919021 -5.9375 3.5 C-2.74205595 2.95609463 -2.0498424 2.35731876 0 0 Z " fill="#F1CE94" transform="translate(92,59)"/>
<path d="M0 0 C1.98 0 3.96 0 6 0 C5.319375 0.556875 4.63875 1.11375 3.9375 1.6875 C3.298125 2.450625 2.65875 3.21375 2 4 C2.25475806 6.52391899 2.25475806 6.52391899 3 9 C2.67 10.32 2.34 11.64 2 13 C-2.455 12.01 -2.455 12.01 -7 11 C-6.01 8.69 -5.02 6.38 -4 4 C-3.01 4 -2.02 4 -1 4 C-0.67 2.68 -0.34 1.36 0 0 Z " fill="#F5E6B5" transform="translate(55,16)"/>
<path d="M0 0 C3.80722924 1.37635445 6.92994338 3.12638274 10.25 5.4375 C11.12140625 6.03433594 11.9928125 6.63117187 12.890625 7.24609375 C15 9 15 9 16 12 C13.66785852 13.20628008 11.50357861 14.1654738 9 15 C9 13 9 13 10 12 C9.01 12 8.02 12 7 12 C6.67 9.69 6.34 7.38 6 5 C5.38125 5.185625 4.7625 5.37125 4.125 5.5625 C2 6 2 6 0 5 C0 3.35 0 1.7 0 0 Z " fill="#F7E0AB" transform="translate(88,39)"/>
<path d="M0 0 C2.40101171 7.20303513 0.7538857 15.61395769 0 23 C-0.09539063 23.96550781 -0.19078125 24.93101563 -0.2890625 25.92578125 C-0.52257158 28.28422299 -0.75962204 30.64225017 -1 33 C-1.33 33 -1.66 33 -2 33 C-2.33 29.7 -2.66 26.4 -3 23 C-3.33 23 -3.66 23 -4 23 C-4.67620721 14.67889465 -2.74493505 7.81816322 0 0 Z " fill="#AA643C" transform="translate(9,57)"/>
<path d="M0 0 C2 1 2 1 2 1 Z M0 2 C-1.546875 2.5878125 -1.546875 2.5878125 -3.125 3.1875 C-6.04700034 4.41380135 -7.51480073 5.45045064 -10 7.625 C-13.44452888 10.3519187 -15.67505031 10.74050302 -20 11 C-19.67 9.68 -19.34 8.36 -19 7 C-17.02 6.67 -15.04 6.34 -13 6 C-13 5.34 -13 4.68 -13 4 C-11.5882217 3.46605821 -10.17029756 2.94834896 -8.75 2.4375 C-7.96109375 2.14746094 -7.1721875 1.85742188 -6.359375 1.55859375 C-3.80896548 0.95477163 -2.44677771 1.1526068 0 2 Z M-22 11 C-21.34 11 -20.68 11 -20 11 C-20 11.66 -20 12.32 -20 13 C-20.66 13 -21.32 13 -22 13 C-22 12.34 -22 11.68 -22 11 Z " fill="#E3C18C" transform="translate(68,7)"/>
<path d="M0 0 C0.99 0.33 1.98 0.66 3 1 C9.81574013 2.75332445 17.02040004 2.15246699 24 2 C20.79619983 4.13586678 19.98060033 4.23132175 16.3125 4.125 C15.50425781 4.10695313 14.69601563 4.08890625 13.86328125 4.0703125 C12.94095703 4.03550781 12.94095703 4.03550781 12 4 C12 4.99 12 5.98 12 7 C9.03 6.01 6.06 5.02 3 4 C3 4.99 3 5.98 3 7 C2.34 7 1.68 7 1 7 C0.67 7.66 0.34 8.32 0 9 C-0.66 7.35 -1.32 5.7 -2 4 C-1.01 4.33 -0.02 4.66 1 5 C0.67 3.35 0.34 1.7 0 0 Z " fill="#D6AA72" transform="translate(31,10)"/>
<path d="M0 0 C1.125 3.75 1.125 3.75 0 6 C-0.38630039 8.03583123 -0.73596784 10.0787318 -1.0625 12.125 C-1.23910156 13.22070312 -1.41570313 14.31640625 -1.59765625 15.4453125 C-1.73042969 16.28835937 -1.86320313 17.13140625 -2 18 C-2.99 18.33 -3.98 18.66 -5 19 C-6.54475764 13.98787269 -5.24657298 9.51684506 -2.97265625 4.92578125 C-2.02300439 3.25966607 -1.01640732 1.62625171 0 0 Z " fill="#C6895D" transform="translate(15,46)"/>
<path d="M0 0 C0.99 0 1.98 0 3 0 C3.25 2.3125 3.25 2.3125 3 5 C1 6.8125 1 6.8125 -1 8 C-1.33 7.67 -1.66 7.34 -2 7 C-3.32 8.32 -4.64 9.64 -6 11 C-6.33 10.34 -6.66 9.68 -7 9 C-7.66 8.67 -8.32 8.34 -9 8 C-8.34 8 -7.68 8 -7 8 C-7 7.01 -7 6.02 -7 5 C-6.01 5 -5.02 5 -4 5 C-4 4.34 -4 3.68 -4 3 C-3.01 2.67 -2.02 2.34 -1 2 C-0.67 1.34 -0.34 0.68 0 0 Z " fill="#5E3C24" transform="translate(122,134)"/>
<path d="M0 0 C2.9375 0.8125 2.9375 0.8125 6 2 C7 5 7 5 6 8 C4.125 8.8125 4.125 8.8125 2 9 C1.01 8.34 0.02 7.68 -1 7 C-0.67 4.69 -0.34 2.38 0 0 Z " fill="#DBA579" transform="translate(7,13)"/>
<path d="M0 0 C1.98 0 3.96 0 6 0 C5.360625 0.61875 4.72125 1.2375 4.0625 1.875 C1.96116416 3.82597612 1.96116416 3.82597612 1 6 C-0.32 6 -1.64 6 -3 6 C-2.67 6.99 -2.34 7.98 -2 9 C-3.32 9.33 -4.64 9.66 -6 10 C-5.34 8.02 -4.68 6.04 -4 4 C-3.01 4 -2.02 4 -1 4 C-0.67 2.68 -0.34 1.36 0 0 Z " fill="#EFD9A4" transform="translate(55,16)"/>
<path d="M0 0 C1.8125 0.1875 1.8125 0.1875 4 1 C5.8125 3.375 5.8125 3.375 7 6 C6.67 6.99 6.34 7.98 6 9 C3.69 8.01 1.38 7.02 -1 6 C-0.67 4.02 -0.34 2.04 0 0 Z " fill="#A3602E" transform="translate(16,19)"/>
<path d="M0 0 C1.98 0.495 1.98 0.495 4 1 C4 1.66 4 2.32 4 3 C4.99 3.33 5.98 3.66 7 4 C5.68 5.32 4.36 6.64 3 8 C0.9375 6.25 0.9375 6.25 -1 4 C-0.75 1.75 -0.75 1.75 0 0 Z " fill="#F4D495" transform="translate(72,60)"/>
<path d="M0 0 C1.93753594 5.81260782 1.17814715 12.10926427 0 18 C-0.33 18 -0.66 18 -1 18 C-2.55747511 11.57541517 -2.41109022 6.17841869 0 0 Z " fill="#B37148" transform="translate(9,57)"/>
<path d="M0 0 C1.17539996 0.92652701 2.34010577 1.86663387 3.5 2.8125 C4.1496875 3.33457031 4.799375 3.85664062 5.46875 4.39453125 C7.71638954 6.7511125 7 8.83899823 7 12 C6.34 12 5.68 12 5 12 C4.34 9.69 3.68 7.38 3 5 C2.34 5 1.68 5 1 5 C0.34 3.68 -0.32 2.36 -1 1 C-0.67 0.67 -0.34 0.34 0 0 Z " fill="#F7E9B0" transform="translate(58,44)"/>
<path d="M0 0 C0 3 0 3 -1 5 C-2.32 5 -3.64 5 -5 5 C-5.99 5.33 -6.98 5.66 -8 6 C-8.33 5.01 -8.66 4.02 -9 3 C-6.38997624 -0.48003168 -4.1689578 -0.27793052 0 0 Z " fill="#ECC185" transform="translate(92,66)"/>
<path d="M0 0 C1.32 0.66 2.64 1.32 4 2 C3.67 3.32 3.34 4.64 3 6 C3.66 6 4.32 6 5 6 C5 6.66 5 7.32 5 8 C5.99 8.33 6.98 8.66 8 9 C7.67 9.99 7.34 10.98 7 12 C2.48709197 8.66437233 0.31793186 6.66710699 -1 1 C-0.67 0.67 -0.34 0.34 0 0 Z " fill="#FAF2BE" transform="translate(67,48)"/>
<path d="M0 0 C2.88437779 1.29299694 4.87219421 2.65941363 7 5 C4.61426621 6.89213369 2.92824652 8.02391783 0 9 C0 8.34 0 7.68 0 7 C0.66 7 1.32 7 2 7 C1.34 6.01 0.68 5.02 0 4 C0 2.68 0 1.36 0 0 Z " fill="#F3D49E" transform="translate(97,45)"/>
<path d="M0 0 C0.99 0.33 1.98 0.66 3 1 C2.67 3.31 2.34 5.62 2 8 C-0.97 7.505 -0.97 7.505 -4 7 C-3.67 6.34 -3.34 5.68 -3 5 C-2.34 5 -1.68 5 -1 5 C-0.67 3.35 -0.34 1.7 0 0 Z " fill="#BE7D4D" transform="translate(14,16)"/>
<path d="M0 0 C1.32 0.33 2.64 0.66 4 1 C4 5.95 4 10.9 4 16 C3.67 16 3.34 16 3 16 C2.86722656 15.18015625 2.73445313 14.3603125 2.59765625 13.515625 C2.42105469 12.43796875 2.24445312 11.3603125 2.0625 10.25 C1.88847656 9.18265625 1.71445312 8.1153125 1.53515625 7.015625 C1.11295829 4.63652407 0.62797116 2.33084789 0 0 Z " fill="#C09366" transform="translate(16,25)"/>
<path d="M0 0 C2.99324263 1.0975223 3.84610901 1.67682892 5.25 4.625 C5.4975 5.40875 5.745 6.1925 6 7 C4.68 7.33 3.36 7.66 2 8 C2.04125 7.236875 2.0825 6.47375 2.125 5.6875 C2.22080824 2.77281584 2.22080824 2.77281584 0 0 Z M0 8 C0.99 8.495 0.99 8.495 2 9 C1.67 9.99 1.34 10.98 1 12 C0.67 10.68 0.34 9.36 0 8 Z " fill="#EDCC95" transform="translate(32,28)"/>
<path d="M0 0 C2.475 0.99 2.475 0.99 5 2 C4.67 3.32 4.34 4.64 4 6 C2.68 5.67 1.36 5.34 0 5 C0 3.35 0 1.7 0 0 Z " fill="#F8E9B6" transform="translate(88,39)"/>
<path d="M0 0 C4.2742558 1.5830577 6.26531794 4.50568404 9 8 C7.68 7.67 6.36 7.34 5 7 C5 6.34 5 5.68 5 5 C4.01 4.67 3.02 4.34 2 4 C2 3.34 2 2.68 2 2 C1.34 2 0.68 2 0 2 C0 1.34 0 0.68 0 0 Z " fill="#E3AB75" transform="translate(117,41)"/>
<path d="M0 0 C0.66 0 1.32 0 2 0 C1.42655063 2.86724686 1.1385485 3.8614515 -1 6 C-1.99 6 -2.98 6 -4 6 C-2.84826645 3.53199953 -1.95216435 1.95216435 0 0 Z " fill="#7B5B3B" transform="translate(144,115)"/>
<path d="M0 0 C3.14958831 3.42346555 3.56179109 6.44262737 4 11 C1.29727467 8.12835434 0.05208163 6.69008159 -0.25 2.6875 C-0.1675 1.800625 -0.085 0.91375 0 0 Z " fill="#D9915F" transform="translate(39,86)"/>
<path d="M0 0 C1.04702186 3.7264085 1.07442057 7.13013042 1 11 C0.01 11.495 0.01 11.495 -1 12 C-2.45606519 7.47907032 -1.27032841 4.48351204 0 0 Z " fill="#BD7D53" transform="translate(11,53)"/>
<path d="M0 0 C2.1387261 3.20808915 2.47730962 4.27698497 2 8 C1.01 8.66 0.02 9.32 -1 10 C-0.67 6.7 -0.34 3.4 0 0 Z " fill="#DAA975" transform="translate(21,36)"/>
<path d="M0 0 C-1.75 4.875 -1.75 4.875 -4 6 C-4.66 5.34 -5.32 4.68 -6 4 C-2.25 0 -2.25 0 0 0 Z " fill="#F4D6A5" transform="translate(94,59)"/>
</svg>
