<?xml version="1.0" encoding="UTF-8"?>
<svg version="1.1" xmlns="http://www.w3.org/2000/svg" width="348" height="220">
<path d="M0 0 C0 0.66 0 1.32 0 2 C0.680625 2.226875 1.36125 2.45375 2.0625 2.6875 C5.2539174 4.11345246 7.40441712 5.92080686 9.9609375 8.26953125 C12.14331969 9.30062042 12.14331969 9.30062042 14.86328125 7.91015625 C15.47429687 7.6155249 16.0853125 7.32089355 16.71484375 7.01733398 C21.88423804 4.71595941 27.40177546 3.25681255 32.8125 1.625 C33.79236374 1.32819336 33.79236374 1.32819336 34.79202271 1.02539062 C48.01777711 -2.95156619 61.36677417 -5.78060656 75 -8 C76.17046875 -8.20109375 77.3409375 -8.4021875 78.546875 -8.609375 C83.30798535 -9.14796214 88.02432618 -9.22388862 92.8125 -9.25 C94.21338867 -9.2809375 94.21338867 -9.2809375 95.64257812 -9.3125 C104.65671057 -9.36254376 112.8556182 -7.71550544 120 -2 C122.77710974 2.1656646 123.41318512 6.13524985 122.70703125 11.03125 C119.59319017 22.23271859 111.48859866 32.35463962 103 40 C102.154375 40.845625 101.30875 41.69125 100.4375 42.5625 C99.633125 43.366875 98.82875 44.17125 98 45 C97.4328125 45.57878906 96.865625 46.15757813 96.28125 46.75390625 C90.04465013 53.08299806 90.04465013 53.08299806 87 55 C86.34 55 85.68 55 85 55 C85 55.66 85 56.32 85 57 C83.13970039 58.61063584 81.28066869 60.09340166 79.3125 61.5625 C78.72670166 62.00577637 78.14090332 62.44905273 77.53735352 62.90576172 C37.46348442 93 37.46348442 93 30 93 C29.9071875 93.69738281 29.814375 94.39476562 29.71875 95.11328125 C25.99201746 110.08097335 10.9638065 123.90471454 -1.6875 131.625 C-18.5452415 141.03741526 -37.49938395 144.83554262 -56.5625 140.625 C-63.05482326 139.53903979 -66.79332129 141.17413834 -72.60546875 144.01171875 C-78.35237377 146.74257679 -84.40385655 148.63503702 -90.4375 150.625 C-91.61610596 151.01478027 -92.79471191 151.40456055 -94.0090332 151.80615234 C-101.3135676 154.19257548 -108.62266129 156.40130333 -116.08203125 158.24609375 C-119.01101362 158.95797468 -119.01101362 158.95797468 -121.83203125 160 C-125.8057706 161.25434929 -129.76547382 161.91416908 -133.875 162.5625 C-134.63941406 162.68818359 -135.40382812 162.81386719 -136.19140625 162.94335938 C-144.57665285 164.30293671 -152.89418671 165.22658623 -161.375 165.6875 C-162.25671875 165.74744141 -163.1384375 165.80738281 -164.046875 165.86914062 C-173.24715541 166.361531 -182.17979439 165.18336954 -190 160 C-193.53798546 156.73416726 -194.53682809 153.95641766 -195.05151367 149.18457031 C-194.96006339 145.30638496 -193.28020673 142.34005796 -191.4375 139 C-191.07124512 138.30519531 -190.70499023 137.61039063 -190.32763672 136.89453125 C-187.63456182 131.89092717 -184.75258923 127.28867341 -181 123 C-180.34 123 -179.68 123 -179 123 C-178.77570313 122.44957031 -178.55140625 121.89914063 -178.3203125 121.33203125 C-176.58906024 118.27416852 -174.37762275 116.15178174 -171.875 113.6875 C-170.96492188 112.78386719 -170.05484375 111.88023437 -169.1171875 110.94921875 C-163.03327528 105.11157436 -156.59134142 99.77758961 -149.875 94.6875 C-149.14434326 94.1313501 -148.41368652 93.5752002 -147.66088867 93.00219727 C-123.82337699 74.94112566 -123.82337699 74.94112566 -118 73 C-117.97421875 71.80246094 -117.9484375 70.60492188 -117.921875 69.37109375 C-117.17384414 44.98327266 -109.55444849 24.85061641 -91.75 7.8125 C-65.68965362 -14.96802167 -29.85484344 -16.12161546 0 0 Z M21 20 C22.1821713 23.156072 23.46064376 25.85710913 25.375 28.625 C28.46162447 33.45980116 30.29240809 38.54519251 32 44 C32.2165625 44.68320313 32.433125 45.36640625 32.65625 46.0703125 C34.8029424 54.12040901 34.66061218 62.72072337 35 71 C39.97745823 68.31983018 44.19081396 65.40431838 48.4375 61.6875 C49.00243164 61.19967041 49.56736328 60.71184082 50.14941406 60.20922852 C51.26745738 59.24270023 52.38358073 58.27394552 53.49755859 57.30273438 C54.7533189 56.21389184 56.02517903 55.14365351 57.30078125 54.078125 C66.26815122 46.53043885 75.20561836 38.01763491 77 26 C77.18511083 22.77135894 77.18511083 22.77135894 76 20 C62.92094608 7.27443402 36.49178053 16.81823849 21 20 Z M-121.5625 92.5625 C-122.85149528 93.68106705 -124.14055729 94.79955721 -125.4296875 95.91796875 C-126.05069336 96.45728027 -126.67169922 96.9965918 -127.31152344 97.55224609 C-128.6272182 98.68036494 -129.96897302 99.7781147 -131.3203125 100.86328125 C-135.78555779 104.47844846 -139.31433378 108.64401898 -142.875 113.125 C-143.35219482 113.7236084 -143.82938965 114.3222168 -144.32104492 114.93896484 C-148.22434567 119.98484905 -150.82545378 124.39636973 -150 131 C-148.10262886 134.54725908 -145.95763457 136.30075814 -142.3125 137.8125 C-126.1099356 142.34084191 -105.19440369 138.25742712 -90 132 C-87.67251306 131.31320058 -85.34013344 130.64238957 -83 130 C-85.99485947 126.90853216 -89.08264649 124.08708167 -92.375 121.3125 C-96.59663705 117.62649637 -99.5878266 113.61863627 -102.58984375 108.90625 C-103.05519531 108.2771875 -103.52054688 107.648125 -104 107 C-104.66 107 -105.32 107 -106 107 C-106.39832031 105.74316406 -106.39832031 105.74316406 -106.8046875 104.4609375 C-108.07941764 100.7700522 -109.56467826 97.20104838 -111.125 93.625 C-111.40214844 92.98433594 -111.67929688 92.34367187 -111.96484375 91.68359375 C-112.64100385 90.12143075 -113.32018707 88.56057685 -114 87 C-116.50675865 87 -119.63362468 90.88769098 -121.5625 92.5625 Z " fill="#94C3D8" transform="translate(210,34)"/>
<path d="M0 0 C0 0.66 0 1.32 0 2 C1.2065625 2.433125 1.2065625 2.433125 2.4375 2.875 C5 4 5 4 6 6 C2.45028204 5.39147692 -0.76693609 4.61653196 -4 3 C-4.33 2.01 -4.66 1.02 -5 0 C-7.01508358 -0.73323796 -7.01508358 -0.73323796 -9 -1 C-8.01 -0.01 -8.01 -0.01 -7 1 C-7 1.66 -7 2.32 -7 3 C-6.01 3.66 -5.02 4.32 -4 5 C-4 5.66 -4 6.32 -4 7 C-4.66 7 -5.32 7 -6 7 C-6.33 7.66 -6.66 8.32 -7 9 C-7.99 9.66 -8.98 10.32 -10 11 C-11.05104383 12.63495707 -12.05988318 14.29883624 -13 16 C-12.34 16 -11.68 16 -11 16 C-11.54723683 19.37462715 -12.0549 21.08235 -14 24 C-14.66 24 -15.32 24 -16 24 C-16.33 24.66 -16.66 25.32 -17 26 C-17.99 23.03 -17.99 23.03 -19 20 C-18.773125 21.216875 -18.54625 22.43375 -18.3125 23.6875 C-17.77241769 27.75612006 -18.61270202 29.61799453 -21 33 C-20.67 33.66 -20.34 34.32 -20 35 C-21.093125 35.0825 -22.18625 35.165 -23.3125 35.25 C-27.03276664 35.63689209 -27.03276664 35.63689209 -28.9375 38.0625 C-29.288125 38.701875 -29.63875 39.34125 -30 40 C-30.99 37.03 -30.99 37.03 -32 34 C-34.33936818 36.12669835 -35.80653848 38.06224856 -37 41 C-37 41.99 -37 42.98 -37 44 C-39.07553648 44.5534764 -40.84365964 45 -43 45 C-46.70375558 46.20372056 -47.76865454 46.65298181 -50 50 C-50.66 49.67 -51.32 49.34 -52 49 C-51.67 48.01 -51.34 47.02 -51 46 C-52.11375 47.2065625 -52.11375 47.2065625 -53.25 48.4375 C-55.75304829 50.76988591 -56.7180955 51.63534394 -60 52 C-59.67 51.01 -59.34 50.02 -59 49 C-59.99 48.67 -60.98 48.34 -62 48 C-62.33 49.65 -62.66 51.3 -63 53 C-63.99 53 -64.98 53 -66 53 C-65.67 53.99 -65.34 54.98 -65 56 C-63.35 56 -61.7 56 -60 56 C-60.66 57.65 -61.32 59.3 -62 61 C-60.68 61.66 -59.36 62.32 -58 63 C-61.06117568 65.62386487 -61.73173127 66 -66 66 C-64.16715557 67.12516085 -64.16715557 67.12516085 -62 68 C-61.01 67.67 -60.02 67.34 -59 67 C-58.01 68.485 -58.01 68.485 -57 70 C-57.94875 70.309375 -58.8975 70.61875 -59.875 70.9375 C-62.86080408 71.87394742 -62.86080408 71.87394742 -65 73 C-65.66 72.34 -66.32 71.68 -67 71 C-68.01111093 74.04913228 -68.01111093 74.04913228 -67 77 C-69.91517292 75.92598892 -71.77810176 75.22189824 -74 73 C-74.66 73 -75.32 73 -76 73 C-76.33 71.35 -76.66 69.7 -77 68 C-77.433125 68.804375 -77.86625 69.60875 -78.3125 70.4375 C-80 73 -80 73 -83 74 C-83.66 72.68 -84.32 71.36 -85 70 C-85.66 70.99 -86.32 71.98 -87 73 C-88.485 72.505 -88.485 72.505 -90 72 C-93.11785113 72.64644661 -93.11785113 72.64644661 -94 75 C-97.16115776 73.63016497 -97.9927092 73.0109362 -100 70 C-100.99 71.98 -100.99 71.98 -102 74 C-102.99 74 -103.98 74 -105 74 C-105 73.01 -105 72.02 -105 71 C-105.66 71 -106.32 71 -107 71 C-107 72.65 -107 74.3 -107 76 C-108.70840281 74.36587557 -109.93453047 73.13093906 -111 71 C-112.32 71 -113.64 71 -115 71 C-115.02763357 72.35404497 -115.04667422 73.70826555 -115.0625 75.0625 C-115.07410156 75.81660156 -115.08570312 76.57070312 -115.09765625 77.34765625 C-115.09646567 80.16103549 -115.09646567 80.16103549 -114.05859375 83.3984375 C-114 87 -114 87 -115.21118164 88.68041992 C-117.06208616 90.43447326 -118.98147538 92.00443956 -121 93.5625 C-121.66128906 94.10068359 -122.32257813 94.63886719 -123.00390625 95.19335938 C-124.99169336 96.80965203 -126.99532878 98.40472824 -129 100 C-133.91809515 103.94235954 -137.97251708 108.06348134 -141.8125 113.0625 C-142.28880859 113.66126953 -142.76511719 114.26003906 -143.25585938 114.87695312 C-146.50662174 119.05127948 -148.66066867 122.67315661 -149.4375 128 C-148.82327914 132.2118002 -147.37757723 133.46681708 -144 136 C-128.32242468 142.21186947 -104.96156352 137.33932176 -90 131 C-86.95616182 129.78020585 -84.30098041 128.98420584 -81 129 C-78.32704225 130.22204692 -76.06138436 131.73121074 -73.640625 133.39453125 C-69.40157096 135.97182594 -64.81072703 136.95737095 -60 138 C-75.95180021 148.63453347 -97.66246984 153.69071835 -116.08203125 158.24609375 C-119.01101362 158.95797468 -119.01101362 158.95797468 -121.83203125 160 C-125.8057706 161.25434929 -129.76547382 161.91416908 -133.875 162.5625 C-134.63941406 162.68818359 -135.40382812 162.81386719 -136.19140625 162.94335938 C-144.57665285 164.30293671 -152.89418671 165.22658623 -161.375 165.6875 C-162.25671875 165.74744141 -163.1384375 165.80738281 -164.046875 165.86914062 C-173.24715541 166.361531 -182.17979439 165.18336954 -190 160 C-193.53798546 156.73416726 -194.53682809 153.95641766 -195.05151367 149.18457031 C-194.96006339 145.30638496 -193.28020673 142.34005796 -191.4375 139 C-191.07124512 138.30519531 -190.70499023 137.61039063 -190.32763672 136.89453125 C-187.63456182 131.89092717 -184.75258923 127.28867341 -181 123 C-180.34 123 -179.68 123 -179 123 C-178.77570313 122.44957031 -178.55140625 121.89914063 -178.3203125 121.33203125 C-176.58906024 118.27416852 -174.37762275 116.15178174 -171.875 113.6875 C-170.96492188 112.78386719 -170.05484375 111.88023437 -169.1171875 110.94921875 C-163.03327528 105.11157436 -156.59134142 99.77758961 -149.875 94.6875 C-149.14434326 94.1313501 -148.41368652 93.5752002 -147.66088867 93.00219727 C-123.82337699 74.94112566 -123.82337699 74.94112566 -118 73 C-117.97421875 71.80246094 -117.9484375 70.60492188 -117.921875 69.37109375 C-117.17384414 44.98327266 -109.55444849 24.85061641 -91.75 7.8125 C-65.68965362 -14.96802167 -29.85484344 -16.12161546 0 0 Z " fill="#A5CDDE" transform="translate(210,34)"/>
<path d="M0 0 C0.5878125 0.7115625 0.5878125 0.7115625 1.1875 1.4375 C3.40808374 3.35179633 5.13375709 3.61266988 8 4 C7.90460938 4.67546875 7.80921875 5.3509375 7.7109375 6.046875 C7.60007813 6.93890625 7.48921875 7.8309375 7.375 8.75 C7.25898438 9.63171875 7.14296875 10.5134375 7.0234375 11.421875 C6.99792183 14.22859878 7.55156156 15.63384866 9 18 C9.33 17.34 9.66 16.68 10 16 C10.66 16.33 11.32 16.66 12 17 C12.99 17 13.98 17 15 17 C15.33 14.03 15.66 11.06 16 8 C16.33 8 16.66 8 17 8 C17.08078641 10.12438339 17.13909141 12.2496323 17.1875 14.375 C17.22230469 15.55835937 17.25710937 16.74171875 17.29296875 17.9609375 C17.19628906 18.96382812 17.09960938 19.96671875 17 21 C16.01 21.66 15.02 22.32 14 23 C13.67 23.99 13.34 24.98 13 26 C13 25.34 13 24.68 13 24 C11.68 24.66 10.36 25.32 9 26 C9.99 27.485 9.99 27.485 11 29 C10.05125 29.433125 9.1025 29.86625 8.125 30.3125 C4.79958063 31.79302201 4.79958063 31.79302201 3 35 C3.69867188 34.566875 4.39734375 34.13375 5.1171875 33.6875 C6.02726563 33.130625 6.93734375 32.57375 7.875 32 C8.77992188 31.443125 9.68484375 30.88625 10.6171875 30.3125 C13 29 13 29 15 29 C15.85068627 42.32741823 8.01452837 53.69672121 -0.5 63.375 C-15.70877263 79.41287097 -33.66081871 88.129352 -55.8671875 89.18359375 C-63.15606524 89.30825262 -69.94037828 88.86041796 -77 87 C-77 86.34 -77 85.68 -77 85 C-77.67804688 84.92523438 -78.35609375 84.85046875 -79.0546875 84.7734375 C-86.61024635 83.70603168 -91.69411527 81.16405836 -98 77 C-99.155 76.401875 -100.31 75.80375 -101.5 75.1875 C-110.22863644 70.21444708 -117.64492232 62.25264477 -122.375 53.4375 C-123.19340226 50.24573117 -123.12857872 47.27875733 -123 44 C-122.05125 43.7525 -121.1025 43.505 -120.125 43.25 C-116.91306809 42.3142923 -116.91306809 42.3142923 -115.625 39.875 C-115.41875 39.25625 -115.2125 38.6375 -115 38 C-114.01 38.33 -113.02 38.66 -112 39 C-109.32323453 37.62750037 -109.32323453 37.62750037 -107 36 C-106.34 37.32 -105.68 38.64 -105 40 C-103.515 39.505 -103.515 39.505 -102 39 C-101.67 38.34 -101.34 37.68 -101 37 C-99.68671343 35.64691687 -98.35500919 34.31129922 -97 33 C-98.11179163 29.66462511 -99.47411298 28.36292656 -102 26 C-100.88625 26.309375 -100.88625 26.309375 -99.75 26.625 C-96.67669159 27.04408751 -95.57213134 26.61949011 -93 25 C-93 25.66 -93 26.32 -93 27 C-91.0745356 28.1490712 -91.0745356 28.1490712 -89 28 C-88.195625 28.185625 -87.39125 28.37125 -86.5625 28.5625 C-83.89150086 29.22570988 -83.89150086 29.22570988 -81 28 C-79.79117904 25.99983534 -79.79117904 25.99983534 -79 24 C-78.01 24 -77.02 24 -76 24 C-74.25232033 23.38349568 -72.52383076 22.71120239 -70.8125 22 C-69.91144531 21.62875 -69.01039063 21.2575 -68.08203125 20.875 C-67.39496094 20.58625 -66.70789063 20.2975 -66 20 C-66 20.66 -66 21.32 -66 22 C-60.73290253 22.53221297 -60.73290253 22.53221297 -56.125 20.625 C-55.75375 20.08875 -55.3825 19.5525 -55 19 C-53 17 -53 17 -50 16 C-49.54625 16.495 -49.0925 16.99 -48.625 17.5 C-47.12364481 19.22609337 -47.12364481 19.22609337 -45 19 C-45.495 17.8553125 -45.495 17.8553125 -46 16.6875 C-47 14 -47 14 -47 11 C-45.625 8.8125 -45.625 8.8125 -44 7 C-43.34 7 -42.68 7 -42 7 C-41.87625 7.639375 -41.7525 8.27875 -41.625 8.9375 C-41.315625 9.9584375 -41.315625 9.9584375 -41 11 C-40.01 11.495 -40.01 11.495 -39 12 C-38.505 13.485 -38.505 13.485 -38 15 C-36.35 15 -34.7 15 -33 15 C-34.32 13.02 -35.64 11.04 -37 9 C-34.625 7.9375 -34.625 7.9375 -32 7 C-31.01 7.495 -31.01 7.495 -30 8 C-30 8.99 -30 9.98 -30 11 C-30.66 11 -31.32 11 -32 11 C-31.01 12.98 -31.01 12.98 -30 15 C-30 14.34 -30 13.68 -30 13 C-29.34 12.67 -28.68 12.34 -28 12 C-28.495 10.02 -28.495 10.02 -29 8 C-28.01 8.66 -27.02 9.32 -26 10 C-26 10.99 -26 11.98 -26 13 C-25.34 11.02 -24.68 9.04 -24 7 C-23.01 7.99 -23.01 7.99 -22 9 C-21.01 8.67 -20.02 8.34 -19 8 C-18.34 8 -17.68 8 -17 8 C-16.34 7.01 -15.68 6.02 -15 5 C-15 5.99 -15 6.98 -15 8 C-14.34 6.35 -13.68 4.7 -13 3 C-12.01 3 -11.02 3 -10 3 C-10 2.34 -10 1.68 -10 1 C-9.01 1.495 -9.01 1.495 -8 2 C-8.33 2.66 -8.66 3.32 -9 4 C-8.34 4 -7.68 4 -7 4 C-6.67 3.34 -6.34 2.68 -6 2 C-4.02111039 1.27306096 -2.02045442 0.60183749 0 0 Z M-41 15 C-41.33 15.99 -41.66 16.98 -42 18 C-41.01 17.67 -40.02 17.34 -39 17 C-39 16.34 -39 15.68 -39 15 C-39.66 15 -40.32 15 -41 15 Z M-49 15 C-48.34 15 -47.68 15 -47 15 C-47.33 15.66 -47.66 16.32 -48 17 C-48.33 16.34 -48.66 15.68 -49 15 Z M-106 34 C-105.34 34 -104.68 34 -104 34 C-104.66 35.32 -105.32 36.64 -106 38 C-106 36.68 -106 35.36 -106 34 Z " fill="#81B4CB" transform="translate(227,87)"/>
<path d="M0 0 C0.33 0 0.66 0 1 0 C1.02505615 0.75095947 1.0501123 1.50191895 1.07592773 2.27563477 C1.19254942 5.70473533 1.31497417 9.13360553 1.4375 12.5625 C1.47681641 13.74392578 1.51613281 14.92535156 1.55664062 16.14257812 C1.59853516 17.29306641 1.64042969 18.44355469 1.68359375 19.62890625 C1.72081543 20.74483154 1.75803711 21.86075684 1.79638672 23.01049805 C1.96513382 25.48808594 2.33912248 27.55046762 2.97265625 29.9296875 C3 33 3 33 1.78686523 34.6472168 C-0.05451292 36.42967502 -1.97150259 37.99674176 -4 39.5625 C-4.99193359 40.36977539 -4.99193359 40.36977539 -6.00390625 41.19335938 C-7.99169336 42.80965203 -9.99532878 44.40472824 -12 46 C-16.91809515 49.94235954 -20.97251708 54.06348134 -24.8125 59.0625 C-25.28880859 59.66126953 -25.76511719 60.26003906 -26.25585938 60.87695312 C-29.50662174 65.05127948 -31.66066867 68.67315661 -32.4375 74 C-31.82327914 78.2118002 -30.37757723 79.46681708 -27 82 C-11.32242468 88.21186947 12.03843648 83.33932176 27 77 C30.04383818 75.78020585 32.69901959 74.98420584 36 75 C38.67295775 76.22204692 40.93861564 77.73121074 43.359375 79.39453125 C47.59842904 81.97182594 52.18927297 82.95737095 57 84 C41.04819979 94.63453347 19.33753016 99.69071835 0.91796875 104.24609375 C-2.01101362 104.95797468 -2.01101362 104.95797468 -4.83203125 106 C-8.8057706 107.25434929 -12.76547382 107.91416908 -16.875 108.5625 C-17.63941406 108.68818359 -18.40382812 108.81386719 -19.19140625 108.94335938 C-27.57665285 110.30293671 -35.89418671 111.22658623 -44.375 111.6875 C-45.25671875 111.74744141 -46.1384375 111.80738281 -47.046875 111.86914062 C-56.24715541 112.361531 -65.17979439 111.18336954 -73 106 C-76.53798546 102.73416726 -77.53682809 99.95641766 -78.05151367 95.18457031 C-77.96006339 91.30638496 -76.28020673 88.34005796 -74.4375 85 C-74.07124512 84.30519531 -73.70499023 83.61039062 -73.32763672 82.89453125 C-70.63456182 77.89092717 -67.75258923 73.28867341 -64 69 C-63.34 69 -62.68 69 -62 69 C-61.66355469 68.17435547 -61.66355469 68.17435547 -61.3203125 67.33203125 C-59.58906024 64.27416852 -57.37762275 62.15178174 -54.875 59.6875 C-53.96492188 58.78386719 -53.05484375 57.88023437 -52.1171875 56.94921875 C-46.03327528 51.11157436 -39.59134142 45.77758961 -32.875 40.6875 C-31.77901489 39.85327515 -31.77901489 39.85327515 -30.66088867 39.00219727 C-6.82337699 20.94112566 -6.82337699 20.94112566 -1 19 C-0.67 12.73 -0.34 6.46 0 0 Z " fill="#C1DDE8" transform="translate(93,88)"/>
<path d="M0 0 C1.33792603 -0.02090698 1.33792603 -0.02090698 2.70288086 -0.04223633 C11.4341109 0.02056654 19.5353532 1.85328256 26.4375 7.375 C29.21460974 11.5406646 29.85068512 15.51024985 29.14453125 20.40625 C26.03069017 31.60771859 17.92609866 41.72963962 9.4375 49.375 C8.591875 50.220625 7.74625 51.06625 6.875 51.9375 C6.070625 52.741875 5.26625 53.54625 4.4375 54.375 C3.58671875 55.24318359 3.58671875 55.24318359 2.71875 56.12890625 C-3.51784987 62.45799806 -3.51784987 62.45799806 -6.5625 64.375 C-7.2225 64.375 -7.8825 64.375 -8.5625 64.375 C-8.5625 65.035 -8.5625 65.695 -8.5625 66.375 C-10.42279961 67.98563584 -12.28183131 69.46840166 -14.25 70.9375 C-14.83579834 71.38077637 -15.42159668 71.82405273 -16.02514648 72.28076172 C-28.41069079 81.58192305 -41.31861744 90.34322606 -54.5625 98.375 C-55.21347656 98.77976562 -55.86445313 99.18453125 -56.53515625 99.6015625 C-58.17360986 100.59069055 -59.86448096 101.4920301 -61.5625 102.375 C-62.2225 102.045 -62.8825 101.715 -63.5625 101.375 C-62.64204848 92.31827562 -61.65076979 82.67684842 -54.64453125 76.25 C-50.8497078 73.23165077 -46.83625008 70.54298019 -42.78173828 67.88769531 C-32.21456577 60.68481293 -21.09199287 50.33963999 -17.94921875 37.6484375 C-17.47369239 34.85291893 -17.33930715 32.20210939 -17.5625 29.375 C-29.3127629 22.93765501 -42.16612445 23.68152574 -54.69140625 26.91796875 C-71.52479324 31.13591582 -71.52479324 31.13591582 -75.56835938 29.62597656 C-78.90927094 27.23118186 -80.86640776 24.05290612 -82.5625 20.375 C-79.60776136 17.01867183 -77.28238968 15.64735486 -73.00390625 14.41015625 C-71.90626953 14.08748779 -70.80863281 13.76481934 -69.67773438 13.43237305 C-68.50533203 13.10406494 -67.33292969 12.77575684 -66.125 12.4375 C-64.91521484 12.09050049 -63.70542969 11.74350098 -62.45898438 11.38598633 C-51.89926882 8.39327833 -41.31083666 5.60460471 -30.5625 3.375 C-29.77504395 3.21128906 -28.98758789 3.04757813 -28.17626953 2.87890625 C-18.79349993 0.99963437 -9.57127341 0.09452511 0 0 Z " fill="#C1DDE9" transform="translate(303.5625,24.625)"/>
<path d="M0 0 C2.125 0.375 2.125 0.375 4 1 C3.979375 2.093125 3.95875 3.18625 3.9375 4.3125 C3.81455548 7.94384191 3.81455548 7.94384191 5 11 C3.85562438 15.4630649 1.69528813 17.37440054 -2 20 C-1.505 20.99 -1.505 20.99 -1 22 C-1.66 22.66 -2.32 23.32 -3 24 C-3.66 24 -4.32 24 -5 24 C-5 23.34 -5 22.68 -5 22 C-5.495 22.495 -5.495 22.495 -6 23 C-5.505 24.485 -5.505 24.485 -5 26 C-6.32 26 -7.64 26 -9 26 C-9 26.99 -9 27.98 -9 29 C-6.36 27.68 -3.72 26.36 -1 25 C-1 25.99 -1 26.98 -1 28 C-1.66 28 -2.32 28 -3 28 C-3 28.66 -3 29.32 -3 30 C-3.66 30 -4.32 30 -5 30 C-5.33 30.66 -5.66 31.32 -6 32 C-7.65614657 32.38218767 -9.32457024 32.71395102 -11 33 C-11.99 33.495 -11.99 33.495 -13 34 C-13 34.66 -13 35.32 -13 36 C-13.804375 36.12375 -14.60875 36.2475 -15.4375 36.375 C-16.283125 36.58125 -17.12875 36.7875 -18 37 C-18.495 37.99 -18.495 37.99 -19 39 C-21.3140622 39.73075648 -23.64828869 40.40138258 -26 41 C-24.58226538 37.45566346 -23.32387762 36.66193881 -20 35 C-18.73195434 32.9664052 -18.73195434 32.9664052 -18 31 C-18.99 31 -19.98 31 -21 31 C-21.66 31.99 -22.32 32.98 -23 34 C-23.99 34.495 -23.99 34.495 -25 35 C-25.66 35.680625 -26.32 36.36125 -27 37.0625 C-29.62337189 39.60389152 -30.38394142 39 -34 39 C-34.495 39.99 -34.495 39.99 -35 41 C-36.485 41.495 -36.485 41.495 -38 42 C-38.495 42.99 -38.495 42.99 -39 44 C-41.32206525 44.70491267 -43.65593068 45.37212429 -46 46 C-46.33 46.33 -46.66 46.66 -47 47 C-47.66 46.67 -48.32 46.34 -49 46 C-49.66 47.32 -50.32 48.64 -51 50 C-46.25475996 49.16541004 -42.15843414 46.59345162 -37.95703125 44.3515625 C-36.33315449 43.51031849 -34.66862104 42.74857936 -33 42 C-32.34 42.33 -31.68 42.66 -31 43 C-32.2065625 43.4021875 -32.2065625 43.4021875 -33.4375 43.8125 C-34.7059375 44.4003125 -34.7059375 44.4003125 -36 45 C-36.33 45.99 -36.66 46.98 -37 48 C-38.62646484 49.07495117 -38.62646484 49.07495117 -40.7109375 50.04296875 C-41.46117187 50.39423828 -42.21140625 50.74550781 -42.984375 51.10742188 C-43.77328125 51.46384766 -44.5621875 51.82027344 -45.375 52.1875 C-46.15617187 52.55552734 -46.93734375 52.92355469 -47.7421875 53.30273438 C-53.58709705 56 -53.58709705 56 -57 56 C-57 56.66 -57 57.32 -57 58 C-57.84691406 58.268125 -58.69382813 58.53625 -59.56640625 58.8125 C-64.32280305 60.4574882 -68.86568443 62.52522013 -73.46484375 64.5625 C-75.99741874 65.59232055 -78.26441062 66.37935544 -80.87890625 67.0625 C-81.90886719 67.371875 -82.93882812 67.68125 -84 68 C-84.33 68.66 -84.66 69.32 -85 70 C-89.63862094 69.39457539 -93.38067902 67.45030968 -97.4375 65.25 C-98.08009766 64.91484375 -98.72269531 64.5796875 -99.38476562 64.234375 C-103.72019691 61.91040777 -107.31445128 59.25832128 -111 56 C-110.773125 55.401875 -110.54625 54.80375 -110.3125 54.1875 C-110.1578125 53.1046875 -110.1578125 53.1046875 -110 52 C-110.495 51.505 -110.99 51.01 -111.5 50.5 C-111.995 50.005 -112.49 49.51 -113 49 C-112.6875 47 -112.6875 47 -112 45 C-112 44.01 -112 43.02 -112 42 C-112.66 41.67 -113.32 41.34 -114 41 C-112.515 40.505 -112.515 40.505 -111 40 C-111 40.66 -111 41.32 -111 42 C-110.34 42 -109.68 42 -109 42 C-109 43.65 -109 45.3 -109 47 C-107.84188612 45.94729537 -107.84188612 45.94729537 -107 44 C-106.01 44 -105.02 44 -104 44 C-104.66 43.34 -105.32 42.68 -106 42 C-106.99 42.495 -106.99 42.495 -108 43 C-108 42.34 -108 41.68 -108 41 C-108.66 41 -109.32 41 -110 41 C-110 40.01 -110 39.02 -110 38 C-108.68 38 -107.36 38 -106 38 C-105.67 37.34 -105.34 36.68 -105 36 C-105 36.66 -105 37.32 -105 38 C-103.515 37.505 -103.515 37.505 -102 37 C-101.67 37.33 -101.34 37.66 -101 38 C-98.94603274 37.59070014 -98.94603274 37.59070014 -97 37 C-97 37.99 -97 38.98 -97 40 C-96.63648438 39.43410156 -96.27296875 38.86820313 -95.8984375 38.28515625 C-91.75691758 32.24278489 -91.75691758 32.24278489 -87.6875 30.9375 C-85 31 -85 31 -84 32 C-83.95919217 33.99958364 -83.95745644 36.00045254 -84 38 C-83.34 36.68 -82.68 35.36 -82 34 C-81.67 34.66 -81.34 35.32 -81 36 C-79.33388095 36.042721 -77.66617115 36.04063832 -76 36 C-75.67 35.67 -75.34 35.34 -75 35 C-76.98 35 -78.96 35 -81 35 C-80.835 34.38125 -80.67 33.7625 -80.5 33.125 C-79.92365356 31.03936614 -79.92365356 31.03936614 -80 29 C-80.66 28.34 -81.32 27.68 -82 27 C-81.34 27 -80.68 27 -80 27 C-79.67 26.34 -79.34 25.68 -79 25 C-76 24 -76 24 -73 24 C-72.54625 23.030625 -72.0925 22.06125 -71.625 21.0625 C-70 18 -70 18 -68 17 C-67 18 -66 19 -65 20 C-62.66055264 19.71269945 -60.3260857 19.38063221 -58 19 C-57.505 19.99 -57.505 19.99 -57 21 C-55.35 19.68 -53.7 18.36 -52 17 C-51.34 17.99 -50.68 18.98 -50 20 C-49.01 19.34 -48.02 18.68 -47 18 C-46.34 18 -45.68 18 -45 18 C-44.67 16.35 -44.34 14.7 -44 13 C-42.68 13.33 -41.36 13.66 -40 14 C-40 14.66 -40 15.32 -40 16 C-39.360625 16.12375 -38.72125 16.2475 -38.0625 16.375 C-37.381875 16.58125 -36.70125 16.7875 -36 17 C-35.505 17.99 -35.505 17.99 -35 19 C-34.67 17.68 -34.34 16.36 -34 15 C-33.505 16.485 -33.505 16.485 -33 18 C-29.94729537 18.15811388 -29.94729537 18.15811388 -27 17 C-27 15.68 -27 14.36 -27 13 C-26.01 12.67 -25.02 12.34 -24 12 C-23.34 11.34 -22.68 10.68 -22 10 C-21.01 10.99 -20.02 11.98 -19 13 C-18.34 12.34 -17.68 11.68 -17 11 C-16.34 11 -15.68 11 -15 11 C-15 11.66 -15 12.32 -15 13 C-14.34 13 -13.68 13 -13 13 C-13 12.01 -13 11.02 -13 10 C-13 9.01 -13 8.02 -13 7 C-10.69 6.01 -8.38 5.02 -6 4 C-5.505 5.485 -5.505 5.485 -5 7 C-4.54625 6.21625 -4.0925 5.4325 -3.625 4.625 C-2 2 -2 2 0 0 Z " fill="#76ABC2" transform="translate(228,100)"/>
<path d="M0 0 C1.85431641 0.01353516 1.85431641 0.01353516 3.74609375 0.02734375 C5.14021484 0.04474609 5.14021484 0.04474609 6.5625 0.0625 C6.5625 0.3925 6.5625 0.7225 6.5625 1.0625 C5.69367188 1.09988281 4.82484375 1.13726563 3.9296875 1.17578125 C-4.74626192 1.52663892 -4.74626192 1.52663892 -12.4375 5.0625 C-12.7675 5.7225 -13.0975 6.3825 -13.4375 7.0625 C-12.7775 7.7225 -12.1175 8.3825 -11.4375 9.0625 C-13.80127871 11.79950693 -16.05952381 12.84989316 -19.4375 14.0625 C-20.0975 14.3925 -20.7575 14.7225 -21.4375 15.0625 C-20.756875 16.114375 -20.07625 17.16625 -19.375 18.25 C-18.00101962 20.68126316 -17.42910891 21.7268565 -17.5 24.5625 C-18.70853369 27.7852565 -20.02215391 30.92412389 -21.4375 34.0625 C-22.0975 33.4025 -22.7575 32.7425 -23.4375 32.0625 C-23.0625 28.4375 -23.0625 28.4375 -22.4375 25.0625 C-23.4275 25.3925 -24.4175 25.7225 -25.4375 26.0625 C-24.95171457 29.18540635 -24.4388988 32.05830359 -23.4375 35.0625 C-24.4275 35.7225 -25.4175 36.3825 -26.4375 37.0625 C-27.62982613 39.11253955 -27.62982613 39.11253955 -28.4375 41.0625 C-28.7675 40.4025 -29.0975 39.7425 -29.4375 39.0625 C-29.52 39.784375 -29.6025 40.50625 -29.6875 41.25 C-30.92632782 45.89560434 -33.50138807 48.43842538 -37.4375 51.0625 C-36.4475 52.3825 -35.4575 53.7025 -34.4375 55.0625 C-35.4275 55.0625 -36.4175 55.0625 -37.4375 55.0625 C-37.9325 56.0525 -37.9325 56.0525 -38.4375 57.0625 C-40.4375 57.0625 -42.4375 57.0625 -44.4375 57.0625 C-44.4375 57.7225 -44.4375 58.3825 -44.4375 59.0625 C-45.3346875 58.7840625 -45.3346875 58.7840625 -46.25 58.5 C-48.60158762 57.84156313 -48.60158762 57.84156313 -51.4375 59.0625 C-52.9225 58.5675 -52.9225 58.5675 -54.4375 58.0625 C-54.7675 59.196875 -55.0975 60.33125 -55.4375 61.5 C-56.23828125 63.4375 -56.23828125 63.4375 -57.4375 65.0625 C-60.22950866 66.031718 -62.43147579 66.01322091 -65.4375 66.0625 C-65.63666016 65.01449219 -65.63666016 65.01449219 -65.83984375 63.9453125 C-66.01644531 63.03523438 -66.19304687 62.12515625 -66.375 61.1875 C-66.54902344 60.28257813 -66.72304687 59.37765625 -66.90234375 58.4453125 C-67.33713701 56.06293683 -67.33713701 56.06293683 -68.4375 54.0625 C-70.4620738 55.99504772 -71.85855792 57.69408688 -73.4375 60.0625 C-72.94479781 53.96531038 -71.59224664 49.24329801 -68.9375 43.75 C-68.58147705 43.0087085 -68.2254541 42.26741699 -67.85864258 41.50366211 C-58.65972931 23.06373988 -42.42249056 10.19010759 -23.125 3.6875 C-15.37564645 1.1035529 -8.21757132 -0.07826258 0 0 Z " fill="#BAD9E6" transform="translate(168.4375,22.9375)"/>
<path d="M0 0 C0.99 0.99 0.99 0.99 2 2 C3.32 1.34 4.64 0.68 6 0 C6.3151587 9.08050993 2.78961063 14.27180061 -3 21 C-3.67289062 21.78503906 -4.34578125 22.57007813 -5.0390625 23.37890625 C-19.17495457 38.60013834 -38.39254117 46.22677823 -58.859375 47.1796875 C-66.15115798 47.31146671 -72.93779905 46.86109766 -80 45 C-80 44.34 -80 43.68 -80 43 C-81.98 42.67 -83.96 42.34 -86 42 C-82.53570974 39.69047316 -78.90815599 38.27921281 -75.0625 36.75 C-68.9995124 34.29785552 -63.14225764 31.65081747 -57.328125 28.6484375 C-53.08797613 26.54826987 -48.76615202 24.65923884 -44.4375 22.75 C-33.01266541 17.6827779 -21.79639471 12.09194161 -11.08203125 5.64453125 C-10.06496094 5.10183594 -9.04789062 4.55914062 -8 4 C-7.01 4.495 -7.01 4.495 -6 5 C-6.33 5.66 -6.66 6.32 -7 7 C-7.66 7 -8.32 7 -9 7 C-9 7.66 -9 8.32 -9 9 C-7.02 7.68 -5.04 6.36 -3 5 C-3.99 4.01 -4.98 3.02 -6 2 C-5.195625 1.855625 -4.39125 1.71125 -3.5625 1.5625 C-1.07896294 1.25864751 -1.07896294 1.25864751 0 0 Z " fill="#76AAC1" transform="translate(230,129)"/>
<path d="M0 0 C0.66 0.99 1.32 1.98 2 3 C2.99 3 3.98 3 5 3 C6.66666667 3 8.33333333 3 10 3 C10.99 5.475 10.99 5.475 12 8 C12.66 8 13.32 8 14 8 C14.33 6.68 14.66 5.36 15 4 C17 6 17 6 17 8 C17.99 8.66 18.98 9.32 20 10 C20 10.66 20 11.32 20 12 C19.34 12 18.68 12 18 12 C17.67 12.66 17.34 13.32 17 14 C16.01 14.66 15.02 15.32 14 16 C12.94895617 17.63495707 11.94011682 19.29883624 11 21 C11.66 21 12.32 21 13 21 C12.45276317 24.37462715 11.9451 26.08235 10 29 C9.34 29 8.68 29 8 29 C7.67 29.66 7.34 30.32 7 31 C6.34 29.02 5.68 27.04 5 25 C5.226875 26.216875 5.45375 27.43375 5.6875 28.6875 C6.22758231 32.75612006 5.38729798 34.61799453 3 38 C3.33 38.66 3.66 39.32 4 40 C2.906875 40.0825 1.81375 40.165 0.6875 40.25 C-3.03276664 40.63689209 -3.03276664 40.63689209 -4.9375 43.0625 C-5.288125 43.701875 -5.63875 44.34125 -6 45 C-6.66 43.02 -7.32 41.04 -8 39 C-10.33936818 41.12669835 -11.80653848 43.06224856 -13 46 C-13 46.99 -13 47.98 -13 49 C-15.07553648 49.5534764 -16.84365964 50 -19 50 C-22.70375558 51.20372056 -23.76865454 51.65298181 -26 55 C-26.66 54.67 -27.32 54.34 -28 54 C-27.67 53.01 -27.34 52.02 -27 51 C-27.7425 51.804375 -28.485 52.60875 -29.25 53.4375 C-31.75304829 55.76988591 -32.7180955 56.63534394 -36 57 C-35.67 56.01 -35.34 55.02 -35 54 C-36.485 53.505 -36.485 53.505 -38 53 C-38.33 54.65 -38.66 56.3 -39 58 C-39.99 58 -40.98 58 -42 58 C-41.67 58.99 -41.34 59.98 -41 61 C-39.35 61 -37.7 61 -36 61 C-36.99 63.475 -36.99 63.475 -38 66 C-36.68 66.66 -35.36 67.32 -34 68 C-37.06117568 70.62386487 -37.73173127 71 -42 71 C-40.16715557 72.12516085 -40.16715557 72.12516085 -38 73 C-36.515 72.505 -36.515 72.505 -35 72 C-34.34 72.99 -33.68 73.98 -33 75 C-33.94875 75.309375 -34.8975 75.61875 -35.875 75.9375 C-38.86080408 76.87394742 -38.86080408 76.87394742 -41 78 C-41.66 77.34 -42.32 76.68 -43 76 C-44.01111093 79.04913228 -44.01111093 79.04913228 -43 82 C-45.91517292 80.92598892 -47.77810176 80.22189824 -50 78 C-51.066855 74.99340864 -51.04940314 74.14820941 -50 71 C-48.515 70.505 -48.515 70.505 -47 70 C-47.79117904 68.00016466 -47.79117904 68.00016466 -49 66 C-49.99 65.67 -50.98 65.34 -52 65 C-52 64.01 -52 63.02 -52 62 C-51.01 62 -50.02 62 -49 62 C-49.33 61.34 -49.66 60.68 -50 60 C-51.98 60.495 -51.98 60.495 -54 61 C-54.33 59.68 -54.66 58.36 -55 57 C-53.88625 56.773125 -52.7725 56.54625 -51.625 56.3125 C-47.85619103 55.40870037 -47.85619103 55.40870037 -46.6875 52.5 C-46.460625 51.675 -46.23375 50.85 -46 50 C-45.34 49.34 -44.68 48.68 -44 48 C-43.01 48 -42.02 48 -41 48 C-41 47.34 -41 46.68 -41 46 C-40.34 46.33 -39.68 46.66 -39 47 C-38.67 46.01 -38.34 45.02 -38 44 C-36.515 43.505 -36.515 43.505 -35 43 C-34.4375 44.9375 -34.4375 44.9375 -34 47 C-34.33 47.33 -34.66 47.66 -35 48 C-34.01 48.66 -33.02 49.32 -32 50 C-31.34 48.68 -30.68 47.36 -30 46 C-30.66 45.34 -31.32 44.68 -32 44 C-26.85714286 39.57142857 -26.85714286 39.57142857 -23 39 C-23 39.66 -23 40.32 -23 41 C-22.731875 39.88625 -22.46375 38.7725 -22.1875 37.625 C-21 34 -21 34 -18 32 C-17.34 32.99 -16.68 33.98 -16 35 C-16 34.34 -16 33.68 -16 33 C-15.34 32.34 -14.68 31.68 -14 31 C-13.66666667 28 -13.66666667 28 -14 25 C-14.66 24.34 -15.32 23.68 -16 23 C-16.33 23 -16.66 23 -17 23 C-17 21.35 -17 19.7 -17 18 C-14 19 -14 19 -13 21 C-13.020625 19.906875 -13.04125 18.81375 -13.0625 17.6875 C-13 14 -13 14 -12 11 C-11.01 11.33 -10.02 11.66 -9 12 C-8.34 12 -7.68 12 -7 12 C-4 12 -4 12 -2 13 C-2.95865509 10.66924071 -2.95865509 10.66924071 -6 9 C-5.34 8.34 -4.68 7.68 -4 7 C-4.66 6.34 -5.32 5.68 -6 5 C-5.01 5 -4.02 5 -3 5 C-2.690625 4.360625 -2.38125 3.72125 -2.0625 3.0625 C-1 1 -1 1 0 0 Z M-2 9 C-1 11 -1 11 -1 11 Z " fill="#9AC7DB" transform="translate(186,29)"/>
<path d="M0 0 C0.99 0.33 1.98 0.66 3 1 C3 1.66 3 2.32 3 3 C3.7425 2.773125 4.485 2.54625 5.25 2.3125 C8 2 8 2 10 3.5625 C10.99 4.2740625 10.99 4.2740625 12 5 C14.73398135 4.29042763 14.73398135 4.29042763 17 3 C16.67 4.32 16.34 5.64 16 7 C15.01 7 14.02 7 13 7 C13.495 7.61875 13.99 8.2375 14.5 8.875 C16 11 16 11 16 13 C16.495 14.7015625 16.495 14.7015625 17 16.4375 C17.87592887 19.55799659 18 21.82103854 18 25 C18.66 25 19.32 25 20 25 C20.33 24.34 20.66 23.68 21 23 C21 23.99 21 24.98 21 26 C23.64 25.34 26.28 24.68 29 24 C29.08403571 27.94967848 29.0242865 31.87042896 28.75 35.8125 C28.70359375 36.56144531 28.6571875 37.31039062 28.609375 38.08203125 C28 40 28 40 25.953125 41.26171875 C25.30859375 41.50535156 24.6640625 41.74898437 24 42 C23.34 41.01 22.68 40.02 22 39 C21.67 39.99 21.34 40.98 21 42 C18.3810979 39.3810979 17.77617952 37.47468355 17.75 33.875 C18 30 18 30 19 28 C18.030625 27.71125 17.06125 27.4225 16.0625 27.125 C13 26 13 26 12 24 C9.13275314 24.57344937 8.1385485 24.8614515 6 27 C5.01 27 4.02 27 3 27 C2.67 26.67 2.34 26.34 2 26 C1.67 26.66 1.34 27.32 1 28 C0.01 28 -0.98 28 -2 28 C-1.505 29.485 -1.505 29.485 -1 31 C-1.99 31 -2.98 31 -4 31 C-4.66 31.99 -5.32 32.98 -6 34 C-6.66 33.34 -7.32 32.68 -8 32 C-10.10820797 32.3185177 -10.10820797 32.3185177 -12 33 C-12 33.99 -12 34.98 -12 36 C-12.66 36 -13.32 36 -14 36 C-14.66 34.68 -15.32 33.36 -16 32 C-15.505 33.98 -15.505 33.98 -15 36 C-15.99 36 -16.98 36 -18 36 C-18 36.66 -18 37.32 -18 38 C-18.99 37.505 -18.99 37.505 -20 37 C-19.67 35.02 -19.34 33.04 -19 31 C-20.65 31.33 -22.3 31.66 -24 32 C-23.34 32.66 -22.68 33.32 -22 34 C-21.375 36.125 -21.375 36.125 -21 38 C-23.475 38.495 -23.475 38.495 -26 39 C-27.485 36.525 -27.485 36.525 -29 34 C-29.33 34.99 -29.66 35.98 -30 37 C-30 35.35 -30 33.7 -30 32 C-30.99 32 -31.98 32 -33 32 C-33.66 33.32 -34.32 34.64 -35 36 C-33.68 36.99 -32.36 37.98 -31 39 C-31.99 39.495 -31.99 39.495 -33 40 C-33 40.66 -33 41.32 -33 42 C-33.66 42 -34.32 42 -35 42 C-35.33 42.66 -35.66 43.32 -36 44 C-36.66 43.01 -37.32 42.02 -38 41 C-38.99 41 -39.98 41 -41 41 C-42.02028865 42.31787285 -43.01971384 43.65210653 -44 45 C-47.69418201 46.231394 -50.2056261 45.64432764 -54 45 C-53.67 43.35 -53.34 41.7 -53 40 C-52.01 40.66 -51.02 41.32 -50 42 C-49.34 41.34 -48.68 40.68 -48 40 C-47.34 40 -46.68 40 -46 40 C-45.67 38.68 -45.34 37.36 -45 36 C-45.66 36 -46.32 36 -47 36 C-47.474375 36.495 -47.94875 36.99 -48.4375 37.5 C-50 39 -50 39 -53 39 C-53 38.34 -53 37.68 -53 37 C-52.34 37 -51.68 37 -51 37 C-51 36.34 -51 35.68 -51 35 C-50.34 35 -49.68 35 -49 35 C-48.67 34.01 -48.34 33.02 -48 32 C-47.67 31.67 -47.34 31.34 -47 31 C-47.33 29.68 -47.66 28.36 -48 27 C-45.03 27 -42.06 27 -39 27 C-39 28.98 -39 30.96 -39 33 C-39.66 32.67 -40.32 32.34 -41 32 C-40.67 33.32 -40.34 34.64 -40 36 C-39.690625 35.071875 -39.38125 34.14375 -39.0625 33.1875 C-38.375 31.125 -37.6875 29.0625 -37 27 C-32.83128106 24.97197457 -29.45716293 23.51427902 -25 25 C-24.34 25.99 -23.68 26.98 -23 28 C-23.33 27.01 -23.66 26.02 -24 25 C-22.5625 22.8125 -22.5625 22.8125 -21 21 C-20.505 22.485 -20.505 22.485 -20 24 C-17.99983534 25.20882096 -17.99983534 25.20882096 -16 26 C-15.34 24.68 -14.68 23.36 -14 22 C-13.01 22 -12.02 22 -11 22 C-11 21.34 -11 20.68 -11 20 C-8.92446352 19.4465236 -7.15634036 19 -5 19 C-5.391875 18.46375 -5.78375 17.9275 -6.1875 17.375 C-7 15 -7 15 -5.625 11.75 C-5.08875 10.8425 -4.5525 9.935 -4 9 C-3.01 9.99 -2.02 10.98 -1 12 C-0.34 10.35 0.32 8.7 1 7 C0.505 6.505 0.505 6.505 0 6 C-0.04080783 4.00041636 -0.04254356 1.99954746 0 0 Z M-37 38 C-36.34 38.66 -35.68 39.32 -35 40 C-35 39.34 -35 38.68 -35 38 C-35.66 38 -36.32 38 -37 38 Z M-29 38 C-28.34 38.33 -27.68 38.66 -27 39 C-27 39.66 -27 40.32 -27 41 C-27.99 40.67 -28.98 40.34 -30 40 C-29.67 39.34 -29.34 38.68 -29 38 Z " fill="#8BBBD2" transform="translate(215,64)"/>
<path d="M0 0 C0.33 0 0.66 0 1 0 C1.268125 0.94875 1.53625 1.8975 1.8125 2.875 C2.74986588 6.25267273 2.74986588 6.25267273 6 8 C6.6875 10.125 6.6875 10.125 7 12 C6.38125 12.20625 5.7625 12.4125 5.125 12.625 C2.15346355 14.54775888 1.86975341 16.66594527 1 20 C0.01 20 -0.98 20 -2 20 C-2 19.34 -2 18.68 -2 18 C-4.11785113 16.88214887 -4.11785113 16.88214887 -7 16 C-7.99 16.99 -8.98 17.98 -10 19 C-10 18.34 -10 17.68 -10 17 C-12.16435281 17.86780317 -12.16435281 17.86780317 -13.3125 20.0625 C-13.869375 20.701875 -14.42625 21.34125 -15 22 C-16.65 22 -18.3 22 -20 22 C-19.34 25.3 -18.68 28.6 -18 32 C-18.66 32 -19.32 32 -20 32 C-23.89292983 25.38201928 -25.71591164 18.7140916 -26 11 C-25.34 10.34 -24.68 9.68 -24 9 C-24.33 9 -24.66 9 -25 9 C-25 7.35 -25 5.7 -25 4 C-23.68 3.67 -22.36 3.34 -21 3 C-21 3.66 -21 4.32 -21 5 C-20.34 5.33 -19.68 5.66 -19 6 C-19 6.66 -19 7.32 -19 8 C-18.01 8 -17.02 8 -16 8 C-16.33 8.99 -16.66 9.98 -17 11 C-16.34 10.67 -15.68 10.34 -15 10 C-15 9.34 -15 8.68 -15 8 C-8.01886792 6.49056604 -8.01886792 6.49056604 -5 8 C-5.33 7.01 -5.66 6.02 -6 5 C-5.01 4.67 -4.02 4.34 -3 4 C-1.96854629 2.69084721 -0.96457834 1.35917857 0 0 Z M-3 12 C-2.67 13.32 -2.34 14.64 -2 16 C-1.67 14.68 -1.34 13.36 -1 12 C-1.66 12 -2.32 12 -3 12 Z " fill="#8CBCD2" transform="translate(124,109)"/>
<path d="M0 0 C0.99 0.33 1.98 0.66 3 1 C2.01 1.495 2.01 1.495 1 2 C1.33 3.98 1.66 5.96 2 8 C2.66 8 3.32 8 4 8 C3.67 9.65 3.34 11.3 3 13 C6.26023158 11.2734029 6.26023158 11.2734029 7 7.9375 C7.33 6.968125 7.66 5.99875 8 5 C8.99 4.67 9.98 4.34 11 4 C11.66 4.33 12.32 4.66 13 5 C13 6.65 13 8.3 13 10 C14.65 10 16.3 10 18 10 C15 12 15 12 13 12 C13 12.66 13 13.32 13 14 C13.66 14.66 14.32 15.32 15 16 C12.73139163 16.5304408 10.46001511 17.04905434 8.1875 17.5625 C6.29064453 17.99755859 6.29064453 17.99755859 4.35546875 18.44140625 C1 19 1 19 -2 18 C-0.35 17.34 1.3 16.68 3 16 C-0.96 16.495 -0.96 16.495 -5 17 C-5 16.01 -5 15.02 -5 14 C-4.01 13.67 -3.02 13.34 -2 13 C-2 9.04 -2 5.08 -2 1 C-1.34 0.67 -0.68 0.34 0 0 Z " fill="#C5E1EC" transform="translate(62,180)"/>
<path d="M0 0 C1.04005702 3.38018531 1.08004482 6.4780279 1 10 C2.32 7.69 3.64 5.38 5 3 C6.28614943 6.85844829 6.37171328 10.55841538 6.62109375 14.6015625 C6.74613281 15.39304688 6.87117188 16.18453125 7 17 C7.66 17.33 8.32 17.66 9 18 C10.33333333 18.66666667 11.66666667 19.33333333 13 20 C12.01 18.68 11.02 17.36 10 16 C10.99 16 11.98 16 13 16 C13.33 15.34 13.66 14.68 14 14 C14.99 14 15.98 14 17 14 C17.33 13.34 17.66 12.68 18 12 C21 10 21 10 24 10 C24.33 9.34 24.66 8.68 25 8 C25 8.99 25 9.98 25 11 C24.34 11.66 23.68 12.32 23 13 C21.72677271 15.32176742 20.84137584 17.47587248 20 20 C18.35 19.67 16.7 19.34 15 19 C14.34 19.99 13.68 20.98 13 22 C6.47659096 20.37980691 2.54402221 18.86978679 -1 13 C-2.3889053 8.30899534 -2.32746571 4.38111193 0 0 Z " fill="#C1DEEB" transform="translate(17,176)"/>
<path d="M0 0 C1.36365283 0.95824253 2.70794169 1.94721175 4 3 C3.8671875 4.828125 3.8671875 4.828125 3 7 C0.3828125 8.484375 0.3828125 8.484375 -2.875 9.75 C-4.47988281 10.39195312 -4.47988281 10.39195312 -6.1171875 11.046875 C-9 12 -9 12 -12 12 C-11.67 9.69 -11.34 7.38 -11 5 C-11.66 4.67 -12.32 4.34 -13 4 C-8.60079554 -0.71343335 -6.14868579 -3.22806004 0 0 Z " fill="#BADAE7" transform="translate(132,165)"/>
<path d="M0 0 C1.03125 0.268125 2.0625 0.53625 3.125 0.8125 C2.795 1.8025 2.465 2.7925 2.125 3.8125 C-0.61328125 5.0234375 -0.61328125 5.0234375 -4.1875 6.1875 C-9.0694083 7.79285456 -13.65706468 9.60853442 -18.3125 11.8125 C-23.1845803 13.91916926 -23.1845803 13.91916926 -26.17578125 13.45703125 C-28.125 12.625 -28.125 12.625 -30.875 10.8125 C-29.875 8.8125 -29.875 8.8125 -27.9140625 7.9609375 C-27.11742187 7.70570313 -26.32078125 7.45046875 -25.5 7.1875 C-24.70851562 6.92710937 -23.91703125 6.66671875 -23.1015625 6.3984375 C-20.875 5.8125 -20.875 5.8125 -17.875 5.8125 C-17.215 5.1525 -16.555 4.4925 -15.875 3.8125 C-14.9675 4.039375 -14.06 4.26625 -13.125 4.5 C-12.0525 4.603125 -10.98 4.70625 -9.875 4.8125 C-8.905625 3.9875 -7.93625 3.1625 -6.9375 2.3125 C-3.875 -0.1875 -3.875 -0.1875 0 0 Z " fill="#7EB1C8" transform="translate(160.875,154.1875)"/>
<path d="M0 0 C0 0.33 0 0.66 0 1 C-1.30324219 1.05607422 -1.30324219 1.05607422 -2.6328125 1.11328125 C-11.22057687 1.56802644 -11.22057687 1.56802644 -19 5 C-24.69332469 7.45848111 -29.85451557 7 -36 7 C-27.67766504 -1.32233496 -10.80100202 -0.13482527 0 0 Z " fill="#C3DBE5" transform="translate(175,23)"/>
<path d="M0 0 C2.0625 1.6875 2.0625 1.6875 4 4 C3.72531334 8.1752372 2.24259417 10.30339899 -0.5625 13.3125 C-1.20316406 14.00988281 -1.84382812 14.70726562 -2.50390625 15.42578125 C-3.24447266 16.20501953 -3.24447266 16.20501953 -4 17 C-4.33 16.01 -4.66 15.02 -5 14 C-4.67 13.67 -4.34 13.34 -4 13 C-3.60545777 11.15400312 -3.25823134 9.29774178 -2.9375 7.4375 C-2.76089844 6.42558594 -2.58429688 5.41367188 -2.40234375 4.37109375 C-2.20318359 3.19740234 -2.20318359 3.19740234 -2 2 C-1.34 2 -0.68 2 0 2 C0 1.34 0 0.68 0 0 Z " fill="#86B1C4" transform="translate(229,135)"/>
<path d="M0 0 C0.19412181 1.47831221 0.38012131 2.95769316 0.5625 4.4375 C0.66691406 5.26121094 0.77132813 6.08492188 0.87890625 6.93359375 C0.91886719 7.61550781 0.95882813 8.29742187 1 9 C0 10 0 10 -2.50390625 10.09765625 C-4.01791016 10.08025391 -4.01791016 10.08025391 -5.5625 10.0625 C-6.57441406 10.05347656 -7.58632813 10.04445313 -8.62890625 10.03515625 C-9.41136719 10.02355469 -10.19382812 10.01195313 -11 10 C-2.78082192 0 -2.78082192 0 0 0 Z M1 5 C1.66 5.66 2.32 6.32 3 7 C2.01 7.495 2.01 7.495 1 8 C1 7.01 1 6.02 1 5 Z " fill="#B9D8E5" transform="translate(285,80)"/>
<path d="M0 0 C0.99 0.66 1.98 1.32 3 2 C3.66 1.67 4.32 1.34 5 1 C5.99 1.99 6.98 2.98 8 4 C7.67 4.66 7.34 5.32 7 6 C6.01 6 5.02 6 4 6 C4 6.99 4 7.98 4 9 C5.32 9 6.64 9 8 9 C8 9.99 8 10.98 8 12 C4.56049636 11.38801624 2.48435515 10.07941153 -0.25 7.9375 C-0.95640625 7.38964844 -1.6628125 6.84179688 -2.390625 6.27734375 C-2.92171875 5.85582031 -3.4528125 5.43429688 -4 5 C-3.34 4.67 -2.68 4.34 -2 4 C-1.34 4.33 -0.68 4.66 0 5 C-0.2784375 4.0409375 -0.2784375 4.0409375 -0.5625 3.0625 C-0.706875 2.381875 -0.85125 1.70125 -1 1 C-0.67 0.67 -0.34 0.34 0 0 Z " fill="#80B0C1" transform="translate(121,151)"/>
<path d="M0 0 C1.32 0 2.64 0 4 0 C3.67 2.97 3.34 5.94 3 9 C2.67 8.34 2.34 7.68 2 7 C1.30132812 7.433125 0.60265625 7.86625 -0.1171875 8.3125 C-1.48230469 9.1478125 -1.48230469 9.1478125 -2.875 10 C-4.23238281 10.8353125 -4.23238281 10.8353125 -5.6171875 11.6875 C-8 13 -8 13 -10 13 C-8.54744301 9.17053157 -6.57104439 7.87949705 -3 6 C-3.66 5.34 -4.32 4.68 -5 4 C-3.35 3.34 -1.7 2.68 0 2 C0 1.34 0 0.68 0 0 Z " fill="#90C1D6" transform="translate(240,109)"/>
<path d="M0 0 C0.66 0 1.32 0 2 0 C2.48280024 7.36270368 2.48280024 7.36270368 0.4375 10.0625 C-2.96015441 11.36929016 -5.49547526 10.74134177 -9 10 C-7.88378181 6.65134543 -7.32525771 6.28433855 -4.5 4.4375 C-1.74463406 2.68380605 -1.74463406 2.68380605 0 0 Z " fill="#B8D8E5" transform="translate(268,94)"/>
<path d="M0 0 C1.53333984 0.00676758 1.53333984 0.00676758 3.09765625 0.01367188 C5.60683194 0.025397 8.1158849 0.04180824 10.625 0.0625 C10.625 0.3925 10.625 0.7225 10.625 1.0625 C9.57699219 1.11857422 9.57699219 1.11857422 8.5078125 1.17578125 C7.14269531 1.27439453 7.14269531 1.27439453 5.75 1.375 C4.39261719 1.46201172 4.39261719 1.46201172 3.0078125 1.55078125 C0.26278399 1.8507039 0.26278399 1.8507039 -1.375 5.0625 C-2.035 4.4025 -2.695 3.7425 -3.375 3.0625 C-3.045 2.7325 -2.715 2.4025 -2.375 2.0625 C-4.685 1.7325 -6.995 1.4025 -9.375 1.0625 C-9.16875 1.68125 -8.9625 2.3 -8.75 2.9375 C-8.62625 3.63875 -8.5025 4.34 -8.375 5.0625 C-9.035 5.7225 -9.695 6.3825 -10.375 7.0625 C-11.695 6.4025 -13.015 5.7425 -14.375 5.0625 C-14.375 4.4025 -14.375 3.7425 -14.375 3.0625 C-15.365 2.4025 -16.355 1.7425 -17.375 1.0625 C-11.58854356 -0.19156138 -5.88631884 -0.04936913 0 0 Z " fill="#CFE4ED" transform="translate(303.375,24.9375)"/>
<path d="M0 0 C0.99 0.33 1.98 0.66 3 1 C2.09827532 2.17825358 1.17798498 3.34231577 0.25 4.5 C-0.51570313 5.47453125 -0.51570313 5.47453125 -1.296875 6.46875 C-3 8 -3 8 -7 8 C-7.33 8.66 -7.66 9.32 -8 10 C-7.70179167 6.42150008 -7.25754642 5.23773516 -4.5625 2.75 C-2 1 -2 1 0 0 Z " fill="#BED8E2" transform="translate(307,75)"/>
<path d="M0 0 C3.96 0 7.92 0 12 0 C11.67 1.32 11.34 2.64 11 4 C7.04 4 3.08 4 -1 4 C-0.67 2.68 -0.34 1.36 0 0 Z " fill="#B9D6E0" transform="translate(304,26)"/>
<path d="M0 0 C2.475 0.495 2.475 0.495 5 1 C5 2.32 5 3.64 5 5 C6.65 5.33 8.3 5.66 10 6 C10.33 6.99 10.66 7.98 11 9 C10.34 9 9.68 9 9 9 C8.67 9.66 8.34 10.32 8 11 C6.66072279 9.54712339 5.32873153 8.08752741 4 6.625 C3.2575 5.81289062 2.515 5.00078125 1.75 4.1640625 C0 2 0 2 0 0 Z " fill="#92BBCB" transform="translate(108,144)"/>
<path d="M0 0 C3.3 0.33 6.6 0.66 10 1 C9.67 1.99 9.34 2.98 9 4 C5.7 4 2.4 4 -1 4 C-1.33 3.34 -1.66 2.68 -2 2 C-1.34 2 -0.68 2 0 2 C0 1.34 0 0.68 0 0 Z " fill="#BED7E1" transform="translate(271,45)"/>
<path d="M0 0 C0.66 0.33 1.32 0.66 2 1 C1.91253716 2.43861294 1.80434652 3.87597508 1.6875 5.3125 C1.62949219 6.11300781 1.57148438 6.91351563 1.51171875 7.73828125 C0.91793306 10.36272334 0.04219706 11.30820672 -2 13 C-1.67 10.36 -1.34 7.72 -1 5 C-1.66 5 -2.32 5 -3 5 C-1.125 1.125 -1.125 1.125 0 0 Z " fill="#8AB4C6" transform="translate(237,124)"/>
<path d="M0 0 C0 0.99 0 1.98 0 3 C-0.99 3.66 -1.98 4.32 -3 5 C-4.20450304 7.55183404 -4.20450304 7.55183404 -5 10 C-6.32 9.67 -7.64 9.34 -9 9 C-7.48328036 4.44984107 -3.83108947 2.49942736 0 0 Z " fill="#BBD9E2" transform="translate(89,121)"/>
<path d="M0 0 C0.99 0.33 1.98 0.66 3 1 C2.071875 1.763125 1.14375 2.52625 0.1875 3.3125 C-1.55961642 4.75952348 -3.17206992 6.17821528 -4.75 7.8125 C-6 9 -6 9 -8 9 C-8 7.68 -8 6.36 -8 5 C-5 3 -5 3 -2 3 C-2 2.34 -2 1.68 -2 1 C-1.34 0.67 -0.68 0.34 0 0 Z " fill="#B9D6E5" transform="translate(83,120)"/>
<path d="M0 0 C5.75 1.875 5.75 1.875 8 3 C8 3.66 8 4.32 8 5 C8.804375 5.28875 9.60875 5.5775 10.4375 5.875 C13 7 13 7 14 9 C10.45028204 8.39147692 7.23306391 7.61653196 4 6 C3.67 5.01 3.34 4.02 3 3 C1.50014391 1.33289654 1.50014391 1.33289654 0 0 Z " fill="#B4D3E0" transform="translate(202,31)"/>
<path d="M0 0 C1.98 0 3.96 0 6 0 C6.66 1.65 7.32 3.3 8 5 C5.29120665 6.35439668 2.99066732 6.06501451 0 6 C0 5.01 0 4.02 0 3 C0.99 2.67 1.98 2.34 3 2 C2.01 1.34 1.02 0.68 0 0 Z " fill="#B9D6E2" transform="translate(240,45)"/>
<path d="M0 0 C2.1875 1.4375 2.1875 1.4375 4 3 C-0.1795645 5.78637633 -2.14668677 4.79562512 -7 4 C-4.61426621 2.10786631 -2.92824652 0.97608217 0 0 Z " fill="#BED8E2" transform="translate(128,176)"/>
<path d="M0 0 C0.33 0.99 0.66 1.98 1 3 C0.34 3 -0.32 3 -1 3 C-1 3.66 -1 4.32 -1 5 C-1.66 5 -2.32 5 -3 5 C-3.33 5.66 -3.66 6.32 -4 7 C-5.9375 7.75 -5.9375 7.75 -8 8 C-8.66 7.34 -9.32 6.68 -10 6 C-6.7 4.02 -3.4 2.04 0 0 Z " fill="#75A9C1" transform="translate(226,125)"/>
<path d="M0 0 C0.66 0.33 1.32 0.66 2 1 C2.625 4.0625 2.625 4.0625 3 7 C1.02 7 -0.96 7 -3 7 C-3.1875 4.625 -3.1875 4.625 -3 2 C-2.01 1.34 -1.02 0.68 0 0 Z " fill="#B9DBE8" transform="translate(93,113)"/>
<path d="M0 0 C0.99 0.66 1.98 1.32 3 2 C2.6875 4.375 2.6875 4.375 2 7 C1.01 7.66 0.02 8.32 -1 9 C-1.268125 8.38125 -1.53625 7.7625 -1.8125 7.125 C-2.95556848 4.7004767 -2.95556848 4.7004767 -6 3 C-5.01 3 -4.02 3 -3 3 C-3 2.34 -3 1.68 -3 1 C-2.01 0.67 -1.02 0.34 0 0 Z " fill="#89B9CF" transform="translate(207,83)"/>
<path d="M0 0 C0.33 0 0.66 0 1 0 C1 1.65 1 3.3 1 5 C0.01 5.33 -0.98 5.66 -2 6 C-3.70586575 7.62652316 -5.3777546 9.29006566 -7 11 C-7.66 10.67 -8.32 10.34 -9 10 C-7.52417192 8.33037631 -6.04425109 6.6643694 -4.5625 5 C-3.73878906 4.071875 -2.91507812 3.14375 -2.06640625 2.1875 C-1.04353516 1.1046875 -1.04353516 1.1046875 0 0 Z " fill="#D3E3E8" transform="translate(116,44)"/>
<path d="M0 0 C0.99 0 1.98 0 3 0 C1.68775452 3.93673644 0.08089673 6.22719294 -3 9 C-3 8.01 -3 7.02 -3 6 C-3.99 6 -4.98 6 -6 6 C-5.67 5.34 -5.34 4.68 -5 4 C-2.4375 3.375 -2.4375 3.375 0 3 C0 2.01 0 1.02 0 0 Z " fill="#CDE2EA" transform="translate(325,54)"/>
<path d="M0 0 C3.11208699 2.69379573 3.56231356 4.88037153 3.94921875 8.9921875 C4.01134739 11.44865831 3.66438931 13.6377269 3 16 C0.96780512 12.59648662 0.63108961 9.6767073 0.375 5.75 C0.30023438 4.67234375 0.22546875 3.5946875 0.1484375 2.484375 C0.09945313 1.66453125 0.05046875 0.8446875 0 0 Z " fill="#D0E2EA" transform="translate(329,32)"/>
<path d="M0 0 C0.66 0.66 1.32 1.32 2 2 C0.73308493 2.67408308 -0.53870749 3.33900497 -1.8125 4 C-2.52019531 4.37125 -3.22789062 4.7425 -3.95703125 5.125 C-6 6 -6 6 -9 6 C-9 4 -9 4 -7.875 2.4375 C-5.30589597 0.46785358 -3.19674245 0.20404739 0 0 Z " fill="#80B5CD" transform="translate(175,149)"/>
<path d="M0 0 C-0.66 1.65 -1.32 3.3 -2 5 C-2.33 4.34 -2.66 3.68 -3 3 C-4.32 3.33 -5.64 3.66 -7 4 C-7 3.34 -7 2.68 -7 2 C-8.32 1.67 -9.64 1.34 -11 1 C-7.26562152 0.12132271 -3.83225427 -0.08912219 0 0 Z " fill="#CEE1E8" transform="translate(106,170)"/>
<path d="M0 0 C0.99 0.33 1.98 0.66 3 1 C2.53980469 1.40863281 2.07960937 1.81726562 1.60546875 2.23828125 C-0.15914771 4.17463654 -0.83971622 5.72488998 -1.6875 8.1875 C-1.93886719 8.90292969 -2.19023437 9.61835937 -2.44921875 10.35546875 C-2.72185547 11.16951172 -2.72185547 11.16951172 -3 12 C-3.66 11.67 -4.32 11.34 -5 11 C-4.50769231 4.6 -4.50769231 4.6 -1.9375 1.5625 C-0.9784375 0.7890625 -0.9784375 0.7890625 0 0 Z " fill="#ACD3E3" transform="translate(146,60)"/>
<path d="M0 0 C0.66 0.66 1.32 1.32 2 2 C1.625 5.625 1.625 5.625 1 9 C0.01 9 -0.98 9 -2 9 C-2 8.34 -2 7.68 -2 7 C-2.66 6.67 -3.32 6.34 -4 6 C-2.68 4.02 -1.36 2.04 0 0 Z " fill="#8BBDD4" transform="translate(124,120)"/>
<path d="M0 0 C0.33 1.32 0.66 2.64 1 4 C-2.625 7 -2.625 7 -6 7 C-6.33 6.01 -6.66 5.02 -7 4 C-5.35 3.67 -3.7 3.34 -2 3 C-2 2.34 -2 1.68 -2 1 C-1.34 0.67 -0.68 0.34 0 0 Z " fill="#B1D2DC" transform="translate(135,32)"/>
<path d="M0 0 C1.00109515 3.31070838 1.10356134 6.30084769 1.0625 9.75 C1.05347656 10.73484375 1.04445313 11.7196875 1.03515625 12.734375 C1.02355469 13.48203125 1.01195312 14.2296875 1 15 C-1.86912988 12.13087012 -1.96268558 8.90308825 -2 5 C-1.0625 2 -1.0625 2 0 0 Z " fill="#DBECF1" transform="translate(17,176)"/>
<path d="M0 0 C0.33 1.32 0.66 2.64 1 4 C-0.875 5.0625 -0.875 5.0625 -3 6 C-3.66 5.67 -4.32 5.34 -5 5 C-5.33 5.66 -5.66 6.32 -6 7 C-5.8125 5.1875 -5.8125 5.1875 -5 3 C-2.4375 1.25 -2.4375 1.25 0 0 Z " fill="#C2D7E1" transform="translate(43,145)"/>
<path d="M0 0 C0.66 0 1.32 0 2 0 C2 1.65 2 3.3 2 5 C1.01 4.67 0.02 4.34 -1 4 C-0.67 2.68 -0.34 1.36 0 0 Z M-2 5 C-1.34 5 -0.68 5 0 5 C-0.33 6.65 -0.66 8.3 -1 10 C-1.66 10 -2.32 10 -3 10 C-2.67 8.35 -2.34 6.7 -2 5 Z " fill="#BBD8E5" transform="translate(254,110)"/>
<path d="M0 0 C-4.33042554 3.55713526 -7.46052208 4.15387439 -13 4 C-10.81006393 1.81006393 -9.4012702 1.27802011 -6.5 0.3125 C-5.7059375 0.04050781 -4.911875 -0.23148438 -4.09375 -0.51171875 C-2 -1 -2 -1 0 0 Z " fill="#CCE1E9" transform="translate(152,26)"/>
<path d="M0 0 C0.763125 0.0825 1.52625 0.165 2.3125 0.25 C2.3125 0.91 2.3125 1.57 2.3125 2.25 C1.6525 2.25 0.9925 2.25 0.3125 2.25 C0.3125 2.91 0.3125 3.57 0.3125 4.25 C-1.6675 4.25 -3.6475 4.25 -5.6875 4.25 C-3.34903846 0.31153846 -3.34903846 0.31153846 0 0 Z " fill="#B8D6DF" transform="translate(125.6875,164.75)"/>
<path d="M0 0 C1.65 0 3.3 0 5 0 C4.67 1.32 4.34 2.64 4 4 C2.68 4.33 1.36 4.66 0 5 C-0.33 4.01 -0.66 3.02 -1 2 C-0.67 1.34 -0.34 0.68 0 0 Z " fill="#BAD7E1" transform="translate(255,98)"/>
<path d="M0 0 C0.86625 0.3403125 0.86625 0.3403125 1.75 0.6875 C-1.22 3.1625 -1.22 3.1625 -4.25 5.6875 C-4.25 5.0275 -4.25 4.3675 -4.25 3.6875 C-4.91 3.3575 -5.57 3.0275 -6.25 2.6875 C-2.80384615 -0.38942308 -2.80384615 -0.38942308 0 0 Z " fill="#B9D5DF" transform="translate(265.25,93.3125)"/>
<path d="M0 0 C0.99 0.33 1.98 0.66 3 1 C-2.75 6 -2.75 6 -5 6 C-5.33 6.66 -5.66 7.32 -6 8 C-6.33 7.01 -6.66 6.02 -7 5 C-6.01 5 -5.02 5 -4 5 C-3.71125 4.360625 -3.4225 3.72125 -3.125 3.0625 C-2 1 -2 1 0 0 Z " fill="#D2E3EA" transform="translate(300,83)"/>
<path d="M0 0 C2.97 0.495 2.97 0.495 6 1 C6.93065133 3.60582371 7.14917407 4.64198224 6.0625 7.25 C5.711875 7.8275 5.36125 8.405 5 9 C4.9175 8.05125 4.835 7.1025 4.75 6.125 C4.34925077 2.89538209 4.34925077 2.89538209 1.9375 1.625 C1.298125 1.41875 0.65875 1.2125 0 1 C0 0.67 0 0.34 0 0 Z " fill="#D3E3EA" transform="translate(282,51)"/>
<path d="M0 0 C4.95 0.99 4.95 0.99 10 2 C10 2.99 10 3.98 10 5 C8.51800098 4.55090939 7.03944764 4.09043436 5.5625 3.625 C4.73878906 3.36976563 3.91507813 3.11453125 3.06640625 2.8515625 C1 2 1 2 0 0 Z " fill="#D0E1E8" transform="translate(20,193)"/>
<path d="M0 0 C1.32 1.32 2.64 2.64 4 4 C2.68 4.99 1.36 5.98 0 7 C-1.32 6.34 -2.64 5.68 -4 5 C-3.34 4.67 -2.68 4.34 -2 4 C-1.34 4.33 -0.68 4.66 0 5 C-0.2784375 4.0409375 -0.2784375 4.0409375 -0.5625 3.0625 C-0.706875 2.381875 -0.85125 1.70125 -1 1 C-0.67 0.67 -0.34 0.34 0 0 Z " fill="#8DBBCF" transform="translate(121,151)"/>
<path d="M0 0 C0.66 0 1.32 0 2 0 C1.71905418 1.8141927 1.42493567 3.62635001 1.125 5.4375 C0.88136719 6.95150391 0.88136719 6.95150391 0.6328125 8.49609375 C0.42398438 9.32238281 0.21515625 10.14867187 0 11 C-0.99 11.495 -0.99 11.495 -2 12 C-2.28571429 3.42857143 -2.28571429 3.42857143 0 0 Z " fill="#A7C8DA" transform="translate(240,120)"/>
<path d="M0 0 C0 0.99 0 1.98 0 3 C-5.2734375 6.22265625 -5.2734375 6.22265625 -7 7 C-7.66 6.67 -8.32 6.34 -9 6 C-8.01 5.67 -7.02 5.34 -6 5 C-6 4.34 -6 3.68 -6 3 C-4.02 2.01 -2.04 1.02 0 0 Z " fill="#8FC0D6" transform="translate(239,121)"/>
<path d="M0 0 C1.65 0 3.3 0 5 0 C5 0.99 5 1.98 5 3 C2.03 3 -0.94 3 -4 3 C-2.68 2.67 -1.36 2.34 0 2 C0 1.34 0 0.68 0 0 Z " fill="#94B9C6" transform="translate(180,172)"/>
<path d="M0 0 C2.95409701 1.37154504 5.44008376 2.98863724 8 5 C5.69 4.67 3.38 4.34 1 4 C0.67 2.68 0.34 1.36 0 0 Z M3 5 C5 6 5 6 5 6 Z " fill="#CADFE5" transform="translate(60,167)"/>
<path d="M0 0 C0.33 1.32 0.66 2.64 1 4 C-0.65 4.66 -2.3 5.32 -4 6 C-3.67 4.35 -3.34 2.7 -3 1 C-2.01 0.67 -1.02 0.34 0 0 Z " fill="#BBD6E3" transform="translate(93,107)"/>
<path d="M0 0 C0.33 0.66 0.66 1.32 1 2 C-0.32 3.65 -1.64 5.3 -3 7 C-3.99 6.67 -4.98 6.34 -6 6 C-4 4 -2 2 0 0 Z " fill="#D8E7EE" transform="translate(254,98)"/>
<path d="M0 0 C2.97 0.495 2.97 0.495 6 1 C5.67 2.32 5.34 3.64 5 5 C3.02 4.01 1.04 3.02 -1 2 C-0.67 1.34 -0.34 0.68 0 0 Z " fill="#C4E1EE" transform="translate(130,52)"/>
<path d="M0 0 C2.475 0.99 2.475 0.99 5 2 C3.6875 4.5 3.6875 4.5 2 7 C1.01 7 0.02 7 -1 7 C-0.67 4.69 -0.34 2.38 0 0 Z " fill="#C4E1ED" transform="translate(307,35)"/>
<path d="M0 0 C1.98 0.495 1.98 0.495 4 1 C4 1.99 4 2.98 4 4 C2.35 4.33 0.7 4.66 -1 5 C-0.67 3.35 -0.34 1.7 0 0 Z " fill="#C0D6E2" transform="translate(26,161)"/>
<path d="M0 0 C0.33 0.66 0.66 1.32 1 2 C1.66 2.33 2.32 2.66 3 3 C1.515 5.475 1.515 5.475 0 8 C-0.66 7.01 -1.32 6.02 -2 5 C-1.125 2.3125 -1.125 2.3125 0 0 Z " fill="#BBD5E2" transform="translate(286,66)"/>
<path d="M0 0 C0.99 0.66 1.98 1.32 3 2 C3.1875 4.625 3.1875 4.625 3 7 C2.01 7.33 1.02 7.66 0 8 C-1 6 -1 6 -1 3 C-0.67 2.01 -0.34 1.02 0 0 Z " fill="#CCE4EF" transform="translate(104,58)"/>
<path d="M0 0 C1.98 0 3.96 0 6 0 C6.66 1.32 7.32 2.64 8 4 C7.01 4.33 6.02 4.66 5 5 C3.35 3.35 1.7 1.7 0 0 Z " fill="#9DC5D4" transform="translate(178,25)"/>
<path d="M0 0 C0 0.66 0 1.32 0 2 C-2.90600261 3.25664978 -4.79604584 4 -8 4 C-8 3.34 -8 2.68 -8 2 C-2.25 0 -2.25 0 0 0 Z " fill="#9ABDD0" transform="translate(197,169)"/>
<path d="M0 0 C0.66 0.33 1.32 0.66 2 1 C0.29374499 3.78388975 -0.47626739 4.85384206 -3.6875 5.75 C-4.8321875 5.87375 -4.8321875 5.87375 -6 6 C-4 4 -2 2 0 0 Z " fill="#D8E8ED" transform="translate(66,124)"/>
<path d="M0 0 C-0.99843096 2.99529289 -1.51384442 4.15840327 -4 6 C-6.1875 5.6875 -6.1875 5.6875 -8 5 C-2.25 0 -2.25 0 0 0 Z " fill="#D7E5EB" transform="translate(76,118)"/>
<path d="M0 0 C0 0.99 0 1.98 0 3 C-0.66 3.66 -1.32 4.32 -2 5 C-2.99 5 -3.98 5 -5 5 C-4.67 3.68 -4.34 2.36 -4 1 C-2.68 0.67 -1.36 0.34 0 0 Z " fill="#C3D8DF" transform="translate(293,89)"/>
</svg>
