<?xml version="1.0" encoding="UTF-8"?>
<!DOCTYPE svg PUBLIC "-//W3C//DTD SVG 1.1//EN" "http://www.w3.org/Graphics/SVG/1.1/DTD/svg11.dtd">
<svg xmlns="http://www.w3.org/2000/svg" version="1.1" width="512px" height="512px" style="shape-rendering:geometricPrecision; text-rendering:geometricPrecision; image-rendering:optimizeQuality; fill-rule:evenodd; clip-rule:evenodd" xmlns:xlink="http://www.w3.org/1999/xlink">
<g><path style="opacity:0.983" fill="#5f266d" d="M 112.5,22.5 C 141.473,27.0754 170.14,33.2421 198.5,41C 219.332,51.8101 226.832,68.6434 221,91.5C 211.333,108.833 201.667,126.167 192,143.5C 184.835,153.992 175.002,160.492 162.5,163C 150.6,166.058 138.6,166.725 126.5,165C 122.099,164.089 117.932,162.589 114,160.5C 112.482,181.621 114.815,202.288 121,222.5C 128.273,236.72 137.273,249.72 148,261.5C 157.421,273.998 165.588,287.332 172.5,301.5C 173.365,302.583 174.365,302.749 175.5,302C 203.393,286.74 233.06,281.74 264.5,287C 289.201,291.955 312.201,301.121 333.5,314.5C 352.064,299.888 373.064,290.721 396.5,287C 446.995,283.482 481.828,304.982 501,351.5C 514.398,401.172 499.898,440.338 457.5,469C 430.384,483.212 402.384,485.212 373.5,475C 359.532,469.6 346.365,462.767 334,454.5C 281.496,490.809 225.329,497.642 165.5,475C 152.387,469.279 140.053,462.279 128.5,454C 105.142,456.324 84.475,449.991 66.5,435C 42.1996,411.589 25.6996,383.422 17,350.5C -10.7514,235.86 11.582,132.194 84,39.5C 91.2429,29.8046 100.743,24.138 112.5,22.5 Z"/></g>
<g><path style="opacity:1" fill="#fdc8a5" d="M 129.5,41.5 C 103.11,74.5872 82.6103,111.254 68,151.5C 46.1684,215.428 43.835,280.095 61,345.5C 69.4293,376.877 84.9293,404.043 107.5,427C 112.403,430.752 117.403,434.252 122.5,437.5C 107.254,438.44 93.5874,434.273 81.5,425C 60.5834,407.028 45.75,384.861 37,358.5C 7.58437,261.41 19.5844,169.743 73,83.5C 81.9811,69.708 91.8144,56.5414 102.5,44C 111.036,38.9705 120.036,38.1371 129.5,41.5 Z"/></g>
<g><path style="opacity:1" fill="#feba97" d="M 129.5,41.5 C 150.947,46.1312 172.28,51.2978 193.5,57C 205.367,63.5897 209.201,73.423 205,86.5C 195.586,103.663 185.92,120.663 176,137.5C 174.127,139.709 171.96,141.542 169.5,143C 156.715,148.528 143.382,150.528 129.5,149C 121.45,147.151 115.45,142.651 111.5,135.5C 106.272,131.045 101.772,131.711 98,137.5C 97.3333,154.5 97.3333,171.5 98,188.5C 98.7453,210.163 104.745,230.163 116,248.5C 133.221,267.928 147.721,289.262 159.5,312.5C 148.21,321.956 137.71,332.289 128,343.5C 126.09,346.156 124.59,348.989 123.5,352C 125.579,359.542 130.245,361.542 137.5,358C 169.669,312.43 213.335,294.763 268.5,305C 278.773,307.536 288.773,310.869 298.5,315C 310.567,320.697 322.234,326.864 333.5,333.5C 335.299,333.423 336.966,332.923 338.5,332C 358.844,314.272 382.51,304.438 409.5,302.5C 442.293,319.521 459.626,346.688 461.5,384C 459.756,420.184 443.09,446.85 411.5,464C 413.134,464.494 414.801,464.66 416.5,464.5C 404.283,466.193 392.283,464.693 380.5,460C 365.783,454.477 352.116,447.144 339.5,438C 335.833,436 332.167,436 328.5,438C 293.64,464.117 254.64,474.951 211.5,470.5C 196.561,463.601 181.895,455.101 167.5,445C 160.666,444.892 153.999,445.392 147.5,446.5C 142.528,443.344 137.528,440.177 132.5,437C 129.132,436.457 125.799,436.624 122.5,437.5C 117.403,434.252 112.403,430.752 107.5,427C 84.9293,404.043 69.4293,376.877 61,345.5C 43.835,280.095 46.1684,215.428 68,151.5C 82.6103,111.254 103.11,74.5872 129.5,41.5 Z"/></g>
<g><path style="opacity:0.938" fill="#5f266d" d="M 244.5,184.5 C 249.635,183.426 253.468,185.093 256,189.5C 256.667,207.5 256.667,225.5 256,243.5C 252.911,248.305 248.744,249.472 243.5,247C 241.951,245.786 240.785,244.286 240,242.5C 239.333,225.167 239.333,207.833 240,190.5C 240.804,187.854 242.304,185.854 244.5,184.5 Z"/></g>
<g><path style="opacity:0.966" fill="#5e256c" d="M 182.5,207.5 C 186.115,207.206 189.282,208.206 192,210.5C 200.77,225.709 209.27,241.043 217.5,256.5C 215.052,265.643 209.886,267.643 202,262.5C 195,250.5 188,238.5 181,226.5C 179.08,223.162 177.58,219.662 176.5,216C 177.174,212.17 179.174,209.336 182.5,207.5 Z"/></g>
<g><path style="opacity:0.957" fill="#5e256c" d="M 308.5,207.5 C 317.153,206.987 320.653,210.987 319,219.5C 311,233.5 303,247.5 295,261.5C 289.558,266.94 284.558,266.607 280,260.5C 279.333,258.167 279.333,255.833 280,253.5C 287.08,240.338 294.413,227.338 302,214.5C 303.694,211.642 305.861,209.309 308.5,207.5 Z"/></g>
<g><path style="opacity:1" fill="#fda97f" d="M 409.5,302.5 C 451.979,305.808 478.479,328.142 489,369.5C 493.207,413.618 475.041,444.118 434.5,461C 428.595,462.706 422.595,463.873 416.5,464.5C 414.801,464.66 413.134,464.494 411.5,464C 443.09,446.85 459.756,420.184 461.5,384C 459.626,346.688 442.293,319.521 409.5,302.5 Z"/></g>
<g><path style="opacity:1" fill="#61286d" d="M 299.5,391.5 C 309.055,390.542 312.555,394.542 310,403.5C 301.242,412.38 290.909,418.714 279,422.5C 271.892,420.614 269.892,416.281 273,409.5C 279.582,405.793 286.082,401.959 292.5,398C 295.288,396.281 297.621,394.115 299.5,391.5 Z"/></g>
<g><path style="opacity:1" fill="#61286d" d="M 164.5,407.5 C 179.269,411.441 194.269,414.274 209.5,416C 223.062,416.931 236.562,416.431 250,414.5C 256.232,415.715 258.899,419.381 258,425.5C 257.167,427.667 255.667,429.167 253.5,430C 225.466,434.521 197.799,432.854 170.5,425C 167.215,424.241 164.215,422.908 161.5,421C 158.24,415.456 159.24,410.956 164.5,407.5 Z"/></g>
<g><path style="opacity:1" fill="#fbc6a4" d="M 211.5,470.5 C 188.108,467.816 166.775,459.816 147.5,446.5C 153.999,445.392 160.666,444.892 167.5,445C 181.895,455.101 196.561,463.601 211.5,470.5 Z"/></g>
</svg>
