<?xml version="1.0" encoding="UTF-8"?>
<!DOCTYPE svg PUBLIC "-//W3C//DTD SVG 1.1//EN" "http://www.w3.org/Graphics/SVG/1.1/DTD/svg11.dtd">
<svg xmlns="http://www.w3.org/2000/svg" version="1.1" width="128px" height="128px" style="shape-rendering:geometricPrecision; text-rendering:geometricPrecision; image-rendering:optimizeQuality; fill-rule:evenodd; clip-rule:evenodd" xmlns:xlink="http://www.w3.org/1999/xlink">
<g><path style="opacity:0.831" fill="#511d16" d="M 52.5,15.5 C 52.4937,20.5018 50.4937,24.6685 46.5,28C 38.6724,33.583 30.0057,36.9164 20.5,38C 13.1272,40.7036 8.62721,45.8703 7,53.5C 6.02693,70.1914 4.86026,86.8581 3.5,103.5C 2.5,103.5 1.5,103.5 0.5,103.5C 2.12378,86.8749 3.29045,70.2082 4,53.5C 4.77002,46.7807 7.93669,41.6141 13.5,38C 18.8714,35.3808 24.538,33.7141 30.5,33C 35.6587,30.5879 40.6587,27.9212 45.5,25C 47.9405,21.9886 49.1072,18.4886 49,14.5C 50.5788,13.2004 51.7455,13.5337 52.5,15.5 Z"/></g>
<g><path style="opacity:0.826" fill="#511d16" d="M 123.5,103.5 C 122.015,86.5349 120.848,69.5349 120,52.5C 118.325,46.1587 114.492,41.6587 108.5,39C 98.2928,37.5633 88.9595,33.8966 80.5,28C 76.2051,24.9069 74.5384,20.7403 75.5,15.5C 75.8212,13.9519 76.8212,13.2852 78.5,13.5C 78.0708,17.2568 78.7375,20.7568 80.5,24C 85.1667,26.6667 89.8333,29.3333 94.5,32C 101.824,33.3861 108.824,35.7194 115.5,39C 119.428,42.6876 121.928,47.1876 123,52.5C 123.84,69.5299 125.007,86.5299 126.5,103.5C 125.5,103.5 124.5,103.5 123.5,103.5 Z"/></g>
<g><path style="opacity:0.999" fill="#edbdb4" d="M 52.5,15.5 C 58.1667,15.5 63.8333,15.5 69.5,15.5C 68.9589,20.449 69.7922,25.1156 72,29.5C 75,31.8333 78,34.1667 81,36.5C 81.7484,38.8401 81.2484,40.8401 79.5,42.5C 78.5,42.5 77.5,42.5 76.5,42.5C 76.5,43.5 76.5,44.5 76.5,45.5C 80.6983,44.7328 84.6983,43.3995 88.5,41.5C 97.626,45.4501 104.793,51.7834 110,60.5C 110.703,62.9291 110.537,65.2625 109.5,67.5C 108.504,67.4142 107.671,67.7476 107,68.5C 106.073,75.9523 103.573,82.7856 99.5,89C 89.4513,92.4141 79.4513,92.2474 69.5,88.5C 67.0698,89.3467 67.0698,90.3467 69.5,91.5C 70.6005,92.6049 71.2671,93.9382 71.5,95.5C 70.0222,95.238 68.6888,95.5713 67.5,96.5C 71.9705,98.2357 76.3039,100.236 80.5,102.5C 82.5934,103.058 84.0934,104.391 85,106.5C 85.4994,111.823 85.666,117.156 85.5,122.5C 66.5,122.5 47.5,122.5 28.5,122.5C 27.0864,112.004 26.253,101.337 26,90.5C 35.1833,95.3327 44.6833,95.8327 54.5,92C 56.4211,91.6397 58.0878,90.8064 59.5,89.5C 56.0724,88.6805 52.7391,89.1805 49.5,91C 41.9546,92.1263 34.6212,91.4596 27.5,89C 23.8127,82.0352 20.8127,74.8686 18.5,67.5C 18.1667,68 17.8333,68.5 17.5,69C 22.0553,84.4723 24.3887,100.306 24.5,116.5C 17.6676,111.916 10.6676,107.583 3.5,103.5C 4.86026,86.8581 6.02693,70.1914 7,53.5C 8.62721,45.8703 13.1272,40.7036 20.5,38C 30.0057,36.9164 38.6724,33.583 46.5,28C 50.4937,24.6685 52.4937,20.5018 52.5,15.5 Z"/></g>
<g><path style="opacity:1" fill="#d58e86" d="M 69.5,15.5 C 71.5,15.5 73.5,15.5 75.5,15.5C 74.5384,20.7403 76.2051,24.9069 80.5,28C 88.9595,33.8966 98.2928,37.5633 108.5,39C 114.492,41.6587 118.325,46.1587 120,52.5C 120.848,69.5349 122.015,86.5349 123.5,103.5C 121.167,104.833 118.833,106.167 116.5,107.5C 114.691,99.2245 113.858,90.5579 114,81.5C 113.282,80.5494 112.449,80.3828 111.5,81C 109.667,82.8333 107.833,84.6667 106,86.5C 105.809,88.7078 105.309,90.7078 104.5,92.5C 104.336,89.8127 104.503,87.146 105,84.5C 107.283,79.0357 108.783,73.369 109.5,67.5C 110.537,65.2625 110.703,62.9291 110,60.5C 104.793,51.7834 97.626,45.4501 88.5,41.5C 89.0906,40.8485 89.7573,40.1818 90.5,39.5C 90,39.1667 89.5,38.8333 89,38.5C 85.8695,39.9837 82.7029,41.3171 79.5,42.5C 81.2484,40.8401 81.7484,38.8401 81,36.5C 78,34.1667 75,31.8333 72,29.5C 69.7922,25.1156 68.9589,20.449 69.5,15.5 Z"/></g>
<g><path style="opacity:1" fill="#57231c" d="M 36.5,38.5 C 41.3969,39.9481 46.0636,41.9481 50.5,44.5C 49.277,45.6139 47.9437,45.7805 46.5,45C 42.5233,43.5315 39.1899,41.3648 36.5,38.5 Z"/></g>
<g><path style="opacity:1" fill="#59241d" d="M 88.5,41.5 C 84.6983,43.3995 80.6983,44.7328 76.5,45.5C 76.5,44.5 76.5,43.5 76.5,42.5C 77.5,42.5 78.5,42.5 79.5,42.5C 82.7029,41.3171 85.8695,39.9837 89,38.5C 89.5,38.8333 90,39.1667 90.5,39.5C 89.7573,40.1818 89.0906,40.8485 88.5,41.5 Z"/></g>
<g><path style="opacity:0.977" fill="#5d2921" d="M 28.5,122.5 C 27.4324,123.434 26.099,123.768 24.5,123.5C 24.5,121.167 24.5,118.833 24.5,116.5C 24.3887,100.306 22.0553,84.4723 17.5,69C 17.8333,68.5 18.1667,68 18.5,67.5C 20.8127,74.8686 23.8127,82.0352 27.5,89C 34.6212,91.4596 41.9546,92.1263 49.5,91C 52.7391,89.1805 56.0724,88.6805 59.5,89.5C 58.0878,90.8064 56.4211,91.6397 54.5,92C 44.6833,95.8327 35.1833,95.3327 26,90.5C 26.253,101.337 27.0864,112.004 28.5,122.5 Z"/></g>
<g><path style="opacity:0.979" fill="#5b261f" d="M 109.5,67.5 C 108.783,73.369 107.283,79.0357 105,84.5C 104.503,87.146 104.336,89.8127 104.5,92.5C 103.613,100.48 102.947,108.48 102.5,116.5C 102.5,118.833 102.5,121.167 102.5,123.5C 100.901,123.768 99.5676,123.434 98.5,122.5C 99.9478,111.595 101.114,100.595 102,89.5C 97.4503,93.0221 92.2836,94.6888 86.5,94.5C 80.6808,94.2943 75.0142,93.2943 69.5,91.5C 67.0698,90.3467 67.0698,89.3467 69.5,88.5C 79.4513,92.2474 89.4513,92.4141 99.5,89C 103.573,82.7856 106.073,75.9523 107,68.5C 107.671,67.7476 108.504,67.4142 109.5,67.5 Z"/></g>
<g><path style="opacity:0.991" fill="#ecbbb2" d="M 116.5,107.5 C 111.87,110.486 107.203,113.486 102.5,116.5C 102.947,108.48 103.613,100.48 104.5,92.5C 105.309,90.7078 105.809,88.7078 106,86.5C 107.833,84.6667 109.667,82.8333 111.5,81C 112.449,80.3828 113.282,80.5494 114,81.5C 113.858,90.5579 114.691,99.2245 116.5,107.5 Z"/></g>
<g><path style="opacity:1" fill="#643028" d="M 30.5,83.5 C 38.5,84.5 38.5,85.5 30.5,86.5C 30.5,85.5 30.5,84.5 30.5,83.5 Z"/></g>
<g><path style="opacity:1" fill="#633028" d="M 91.5,83.5 C 93.1667,83.5 94.8333,83.5 96.5,83.5C 96.5,84.5 96.5,85.5 96.5,86.5C 94.8008,86.6602 93.1341,86.4935 91.5,86C 90.4019,85.2303 90.4019,84.397 91.5,83.5 Z"/></g>
<g><path style="opacity:1" fill="#d58e86" d="M 98.5,122.5 C 94.1667,122.5 89.8333,122.5 85.5,122.5C 85.666,117.156 85.4994,111.823 85,106.5C 84.0934,104.391 82.5934,103.058 80.5,102.5C 82.337,102.361 82.6704,101.694 81.5,100.5C 78.0748,98.7874 74.7415,97.1207 71.5,95.5C 71.2671,93.9382 70.6005,92.6049 69.5,91.5C 75.0142,93.2943 80.6808,94.2943 86.5,94.5C 92.2836,94.6888 97.4503,93.0221 102,89.5C 101.114,100.595 99.9478,111.595 98.5,122.5 Z"/></g>
<g><path style="opacity:1" fill="#5d2922" d="M 54.5,95.5 C 56.288,95.2148 57.9547,95.5481 59.5,96.5C 55.7644,98.2421 52.0977,100.075 48.5,102C 47.0563,102.781 45.723,102.614 44.5,101.5C 47.8968,99.4741 51.2301,97.4741 54.5,95.5 Z"/></g>
<g><path style="opacity:1" fill="#59241d" d="M 71.5,95.5 C 74.7415,97.1207 78.0748,98.7874 81.5,100.5C 82.6704,101.694 82.337,102.361 80.5,102.5C 76.3039,100.236 71.9705,98.2357 67.5,96.5C 68.6888,95.5713 70.0222,95.238 71.5,95.5 Z"/></g>
</svg>
