<?xml version="1.0" encoding="UTF-8"?>
<!DOCTYPE svg PUBLIC "-//W3C//DTD SVG 1.1//EN" "http://www.w3.org/Graphics/SVG/1.1/DTD/svg11.dtd">
<svg xmlns="http://www.w3.org/2000/svg" version="1.1" width="512px" height="512px" style="shape-rendering:geometricPrecision; text-rendering:geometricPrecision; image-rendering:optimizeQuality; fill-rule:evenodd; clip-rule:evenodd" xmlns:xlink="http://www.w3.org/1999/xlink">
<g><path style="opacity:0.974" fill="#020101" d="M 250.5,-0.5 C 256.5,-0.5 262.5,-0.5 268.5,-0.5C 284.679,4.84861 294.845,15.8486 299,32.5C 299.333,67.8333 299.667,103.167 300,138.5C 304.333,111.833 308.667,85.1667 313,58.5C 321.154,34.1636 337.987,24.3302 363.5,29C 377.764,33.5966 386.93,43.0966 391,57.5C 392.384,63.1087 392.717,68.7753 392,74.5C 387.116,103.468 382.782,132.468 379,161.5C 384.744,144.599 391.078,127.933 398,111.5C 410.479,95.1192 426.645,89.9525 446.5,96C 466.675,105.513 474.841,121.347 471,143.5C 459.269,176.028 447.935,208.694 437,241.5C 428.543,273.945 424.543,306.945 425,340.5C 423.728,343.222 421.561,344.556 418.5,344.5C 414.91,344.456 412.41,342.789 411,339.5C 409.215,302.095 413.549,265.429 424,229.5C 433.606,201.348 443.606,173.348 454,145.5C 460.08,127.496 454.247,115.33 436.5,109C 433.304,108.195 430.304,108.362 427.5,109.5C 418.929,110.895 412.762,115.561 409,123.5C 394.864,163.576 380.53,203.576 366,243.5C 363.775,249.002 362.275,254.669 361.5,260.5C 370.56,260.046 373.727,264.046 371,272.5C 369.829,273.893 368.329,274.727 366.5,275C 357.833,275.667 349.167,275.667 340.5,275C 334.791,271.455 334.125,267.121 338.5,262C 341.014,260.748 343.68,260.248 346.5,260.5C 356.608,196.187 366.608,131.854 376.5,67.5C 375.377,52.0445 367.044,44.0445 351.5,43.5C 339.817,44.3368 331.984,50.3368 328,61.5C 318.559,119.148 309.225,176.815 300,234.5C 299.5,243.16 299.334,251.827 299.5,260.5C 308.017,260.545 310.851,264.545 308,272.5C 307.097,273.701 305.931,274.535 304.5,275C 296.167,275.667 287.833,275.667 279.5,275C 274.167,270.333 274.167,265.667 279.5,261C 281.134,260.506 282.801,260.34 284.5,260.5C 284.667,185.166 284.5,109.833 284,34.5C 275.79,14.7638 262.29,9.93047 243.5,20C 239.341,23.6494 236.674,28.1494 235.5,33.5C 234.833,71.1652 234.5,108.999 234.5,147C 234.5,185.173 235.167,223.006 236.5,260.5C 242.749,261.655 244.915,265.322 243,271.5C 241.786,273.049 240.286,274.215 238.5,275C 230.5,275.667 222.5,275.667 214.5,275C 207.833,270.333 207.833,265.667 214.5,261C 216.134,260.506 217.801,260.34 219.5,260.5C 219.667,248.495 219.5,236.495 219,224.5C 205.708,173.58 192.708,122.58 180,71.5C 173.701,56.599 162.534,50.4323 146.5,53C 131.682,58.797 125.182,69.6303 127,85.5C 134.209,112.169 140.709,139.002 146.5,166C 146.193,169.811 144.193,172.311 140.5,173.5C 136.645,174.155 133.812,172.821 132,169.5C 125.176,142.537 118.509,115.537 112,88.5C 109.393,57.7017 123.393,40.3683 154,36.5C 176.177,38.3425 190.177,50.0092 196,71.5C 203.511,101.876 211.177,132.209 219,162.5C 219.333,118.5 219.667,74.5 220,30.5C 224.349,14.3186 234.516,3.98523 250.5,-0.5 Z"/></g>
<g><path style="opacity:1" fill="#fdcdbf" d="M 427.5,109.5 C 433.434,108.587 437.6,110.921 440,116.5C 444.264,124.313 445.597,132.646 444,141.5C 433.47,170.09 423.136,198.757 413,227.5C 405.377,251.947 400.711,276.947 399,302.5C 398.667,341.5 398.333,380.5 398,419.5C 393.778,449.969 378.945,473.635 353.5,490.5C 346.958,493.568 339.958,495.402 332.5,496C 321.5,496.333 310.5,496.667 299.5,497C 296.211,498.41 294.544,500.91 294.5,504.5C 288.5,504.5 282.5,504.5 276.5,504.5C 275.892,501.042 273.892,498.542 270.5,497C 241.007,500.96 214.34,494.293 190.5,477C 183.593,470.764 177.427,463.931 172,456.5C 165.341,441.868 158.674,427.201 152,412.5C 143.232,397.293 133.232,382.96 122,369.5C 101,348.5 80,327.5 59,306.5C 50.2625,289.384 54.0958,275.884 70.5,266C 88.5523,257.335 105.552,259.001 121.5,271C 134.833,284.333 148.167,297.667 161.5,311C 169.244,316.918 177.91,320.918 187.5,323C 211.324,321.686 233.991,326.019 255.5,336C 277.858,349.846 292.024,369.68 298,395.5C 301.202,409.989 302.869,424.656 303,439.5C 308.146,446.406 312.813,446.073 317,438.5C 318.571,406.665 310.904,377.331 294,350.5C 276.054,327.602 252.554,314.102 223.5,310C 212.189,308.986 200.855,308.32 189.5,308C 182.259,306.296 175.759,303.129 170,298.5C 169.664,262.981 164.164,228.315 153.5,194.5C 151.08,191.923 148.08,190.923 144.5,191.5C 143.482,185.427 142.148,179.427 140.5,173.5C 144.193,172.311 146.193,169.811 146.5,166C 140.709,139.002 134.209,112.169 127,85.5C 125.182,69.6303 131.682,58.797 146.5,53C 162.534,50.4323 173.701,56.599 180,71.5C 192.708,122.58 205.708,173.58 219,224.5C 219.5,236.495 219.667,248.495 219.5,260.5C 217.801,260.34 216.134,260.506 214.5,261C 207.833,265.667 207.833,270.333 214.5,275C 222.5,275.667 230.5,275.667 238.5,275C 240.286,274.215 241.786,273.049 243,271.5C 244.915,265.322 242.749,261.655 236.5,260.5C 235.503,184.904 235.17,109.238 235.5,33.5C 236.674,28.1494 239.341,23.6494 243.5,20C 262.29,9.93047 275.79,14.7638 284,34.5C 284.5,109.833 284.667,185.166 284.5,260.5C 282.801,260.34 281.134,260.506 279.5,261C 274.167,265.667 274.167,270.333 279.5,275C 287.833,275.667 296.167,275.667 304.5,275C 305.931,274.535 307.097,273.701 308,272.5C 310.851,264.545 308.017,260.545 299.5,260.5C 299.334,251.827 299.5,243.16 300,234.5C 309.225,176.815 318.559,119.148 328,61.5C 331.984,50.3368 339.817,44.3368 351.5,43.5C 367.044,44.0445 375.377,52.0445 376.5,67.5C 366.608,131.854 356.608,196.187 346.5,260.5C 343.68,260.248 341.014,260.748 338.5,262C 334.125,267.121 334.791,271.455 340.5,275C 349.167,275.667 357.833,275.667 366.5,275C 368.329,274.727 369.829,273.893 371,272.5C 373.727,264.046 370.56,260.046 361.5,260.5C 362.275,254.669 363.775,249.002 366,243.5C 380.53,203.576 394.864,163.576 409,123.5C 412.762,115.561 418.929,110.895 427.5,109.5 Z"/></g>
<g><path style="opacity:1" fill="#fcb9ab" d="M 427.5,109.5 C 430.304,108.362 433.304,108.195 436.5,109C 454.247,115.33 460.08,127.496 454,145.5C 443.606,173.348 433.606,201.348 424,229.5C 413.549,265.429 409.215,302.095 411,339.5C 412.41,342.789 414.91,344.456 418.5,344.5C 418.5,350.5 418.5,356.5 418.5,362.5C 415.413,363.053 412.913,364.72 411,367.5C 410.667,384.5 410.333,401.5 410,418.5C 406.131,446.756 392.298,468.589 368.5,484C 363.701,486.735 358.701,488.902 353.5,490.5C 378.945,473.635 393.778,449.969 398,419.5C 398.333,380.5 398.667,341.5 399,302.5C 400.711,276.947 405.377,251.947 413,227.5C 423.136,198.757 433.47,170.09 444,141.5C 445.597,132.646 444.264,124.313 440,116.5C 437.6,110.921 433.434,108.587 427.5,109.5 Z"/></g>
<g><path style="opacity:1" fill="#e7baae" d="M 235.5,33.5 C 235.17,109.238 235.503,184.904 236.5,260.5C 235.167,223.006 234.5,185.173 234.5,147C 234.5,108.999 234.833,71.1652 235.5,33.5 Z"/></g>
<g><path style="opacity:0.971" fill="#030202" d="M 144.5,191.5 C 148.08,190.923 151.08,191.923 153.5,194.5C 164.164,228.315 169.664,262.981 170,298.5C 175.759,303.129 182.259,306.296 189.5,308C 200.855,308.32 212.189,308.986 223.5,310C 252.554,314.102 276.054,327.602 294,350.5C 310.904,377.331 318.571,406.665 317,438.5C 312.813,446.073 308.146,446.406 303,439.5C 302.869,424.656 301.202,409.989 298,395.5C 292.024,369.68 277.858,349.846 255.5,336C 233.991,326.019 211.324,321.686 187.5,323C 177.91,320.918 169.244,316.918 161.5,311C 148.167,297.667 134.833,284.333 121.5,271C 105.552,259.001 88.5523,257.335 70.5,266C 54.0958,275.884 50.2625,289.384 59,306.5C 80,327.5 101,348.5 122,369.5C 133.232,382.96 143.232,397.293 152,412.5C 158.674,427.201 165.341,441.868 172,456.5C 177.427,463.931 183.593,470.764 190.5,477C 214.34,494.293 241.007,500.96 270.5,497C 273.892,498.542 275.892,501.042 276.5,504.5C 275.911,507.276 274.578,509.61 272.5,511.5C 258.833,511.5 245.167,511.5 231.5,511.5C 197.259,505.12 171.425,486.787 154,456.5C 144.121,427.392 129.121,401.392 109,378.5C 88.3333,357.833 67.6667,337.167 47,316.5C 32.2332,289.802 37.7332,268.302 63.5,252C 87.6744,240.249 110.341,242.582 131.5,259C 138.667,266.167 145.833,273.333 153,280.5C 153.145,271.462 152.478,262.462 151,253.5C 147.806,235.196 143.973,217.029 139.5,199C 139.318,195.18 140.985,192.68 144.5,191.5 Z"/></g>
<g><path style="opacity:0.968" fill="#010101" d="M 418.5,362.5 C 421.155,363.001 423.322,364.334 425,366.5C 425.667,385.167 425.667,403.833 425,422.5C 418.917,460.579 398.417,487.745 363.5,504C 354.883,507.149 346.217,509.649 337.5,511.5C 324.5,511.5 311.5,511.5 298.5,511.5C 295.905,509.986 294.571,507.652 294.5,504.5C 294.544,500.91 296.211,498.41 299.5,497C 310.5,496.667 321.5,496.333 332.5,496C 339.958,495.402 346.958,493.568 353.5,490.5C 358.701,488.902 363.701,486.735 368.5,484C 392.298,468.589 406.131,446.756 410,418.5C 410.333,401.5 410.667,384.5 411,367.5C 412.913,364.72 415.413,363.053 418.5,362.5 Z"/></g>
</svg>
