<?xml version="1.0" encoding="UTF-8"?>
<!DOCTYPE svg PUBLIC "-//W3C//DTD SVG 1.1//EN" "http://www.w3.org/Graphics/SVG/1.1/DTD/svg11.dtd">
<svg xmlns="http://www.w3.org/2000/svg" version="1.1" width="128px" height="128px" style="shape-rendering:geometricPrecision; text-rendering:geometricPrecision; image-rendering:optimizeQuality; fill-rule:evenodd; clip-rule:evenodd" xmlns:xlink="http://www.w3.org/1999/xlink">
<g><path style="opacity:0.827" fill="#070505" d="M 8.5,6.5 C 9.73369,17.3343 11.067,28.1676 12.5,39C 12.6134,40.6991 11.9468,41.8658 10.5,42.5C 9.88258,42.3893 9.38258,42.056 9,41.5C 6.9839,29.2217 5.4839,16.8884 4.5,4.5C 6.48324,4.15684 7.81658,4.82351 8.5,6.5 Z"/></g>
<g><path style="opacity:0.831" fill="#090706" d="M 88.5,94.5 C 87.5178,95.1408 86.5178,95.8075 85.5,96.5C 79.4455,92.8061 73.1122,89.6394 66.5,87C 58.597,82.3683 53.7637,75.5349 52,66.5C 51.5811,46.4967 51.7478,26.4967 52.5,6.5C 53.1834,4.82351 54.5168,4.15684 56.5,4.5C 56.4403,19.3384 56.107,34.1717 55.5,49C 53.0348,62.1734 56.7015,73.1734 66.5,82C 73.1667,85.3333 79.8333,88.6667 86.5,92C 87.3805,92.7083 88.0472,93.5416 88.5,94.5 Z"/></g>
<g><path style="opacity:0.999" fill="#fabda9" d="M 8.5,6.5 C 23.1667,6.5 37.8333,6.5 52.5,6.5C 51.7478,26.4967 51.5811,46.4967 52,66.5C 53.7637,75.5349 58.597,82.3683 66.5,87C 73.1122,89.6394 79.4455,92.8061 85.5,96.5C 86.5178,95.8075 87.5178,95.1408 88.5,94.5C 89.795,95.4884 91.1283,96.4884 92.5,97.5C 94.5124,100.887 97.5124,103.387 101.5,105C 107.076,106.485 112.743,107.318 118.5,107.5C 118.702,109.95 118.369,112.283 117.5,114.5C 103.919,112.913 90.2521,112.08 76.5,112C 71.3573,109.175 65.8573,108.009 60,108.5C 48.885,110.155 37.7183,110.655 26.5,110C 16.7377,107.081 11.7377,100.581 11.5,90.5C 14.9403,81.4616 16.1069,72.1282 15,62.5C 14.6174,61.944 14.1174,61.6107 13.5,61.5C 12.962,59.8828 12.6287,58.2161 12.5,56.5C 15.3178,53.0863 14.9845,50.0863 11.5,47.5C 11.3713,45.7839 11.038,44.1172 10.5,42.5C 11.9468,41.8658 12.6134,40.6991 12.5,39C 11.067,28.1676 9.73369,17.3343 8.5,6.5 Z"/></g>
<g><path style="opacity:0.779" fill="#0e0a09" d="M 11.5,47.5 C 14.9845,50.0863 15.3178,53.0863 12.5,56.5C 10.8875,54.5717 9.88745,52.2383 9.5,49.5C 9.85549,48.4777 10.5222,47.811 11.5,47.5 Z"/></g>
<g><path style="opacity:0.839" fill="#0a0604" d="M 13.5,61.5 C 14.1174,61.6107 14.6174,61.944 15,62.5C 16.1069,72.1282 14.9403,81.4616 11.5,90.5C 3.76127,112.943 11.7613,122.109 35.5,118C 41.022,116.129 46.6886,114.962 52.5,114.5C 58.4863,115.662 64.4863,116.829 70.5,118C 83.0158,117.915 95.5158,118.082 108,118.5C 112.119,119.185 115.286,117.852 117.5,114.5C 118.369,112.283 118.702,109.95 118.5,107.5C 112.743,107.318 107.076,106.485 101.5,105C 97.5124,103.387 94.5124,100.887 92.5,97.5C 92.7352,96.9033 93.2352,96.5699 94,96.5C 102.853,101.232 112.353,103.899 122.5,104.5C 122.888,121.461 115.055,126.794 99,120.5C 90.3018,122.444 81.4684,122.944 72.5,122C 65.6446,120.962 58.8113,119.796 52,118.5C 46.7833,119.429 41.6166,120.596 36.5,122C 29.8333,122.667 23.1667,122.667 16.5,122C 8.26228,118.865 4.26228,112.865 4.5,104C 8.33597,89.7498 11.336,75.5831 13.5,61.5 Z"/></g>
<g><path style="opacity:1" fill="#16110f" d="M 26.5,71.5 C 28.9725,72.7487 29.1391,74.4153 27,76.5C 26.3333,79.1667 26.3333,81.8333 27,84.5C 28.6851,86.0175 30.1851,87.6841 31.5,89.5C 28.7719,90.9402 26.6052,90.2735 25,87.5C 21.4535,81.781 21.9535,76.4477 26.5,71.5 Z"/></g>
<g><path style="opacity:1" fill="#f69d78" d="M 11.5,90.5 C 11.7377,100.581 16.7377,107.081 26.5,110C 37.7183,110.655 48.885,110.155 60,108.5C 65.8573,108.009 71.3573,109.175 76.5,112C 90.2521,112.08 103.919,112.913 117.5,114.5C 115.286,117.852 112.119,119.185 108,118.5C 95.5158,118.082 83.0158,117.915 70.5,118C 64.4863,116.829 58.4863,115.662 52.5,114.5C 46.6886,114.962 41.022,116.129 35.5,118C 11.7613,122.109 3.76127,112.943 11.5,90.5 Z"/></g>
</svg>
