<?xml version="1.0" encoding="UTF-8"?>
<!DOCTYPE svg PUBLIC "-//W3C//DTD SVG 1.1//EN" "http://www.w3.org/Graphics/SVG/1.1/DTD/svg11.dtd">
<svg xmlns="http://www.w3.org/2000/svg" version="1.1" width="512px" height="512px" style="shape-rendering:geometricPrecision; text-rendering:geometricPrecision; image-rendering:optimizeQuality; fill-rule:evenodd; clip-rule:evenodd" xmlns:xlink="http://www.w3.org/1999/xlink">
<g><path style="opacity:0.984" fill="#000000" d="M 224.5,86.5 C 227.85,86.335 231.183,86.5017 234.5,87C 231.035,89.4626 227.869,92.2959 225,95.5C 224.333,97.5 224.333,99.5 225,101.5C 225.414,101.957 225.914,102.291 226.5,102.5C 249.484,90.7801 273.818,86.6135 299.5,90C 321.278,92.3728 341.945,98.3728 361.5,108C 346.993,106.644 332.993,108.644 319.5,114C 375.481,124.987 414.314,156.82 436,209.5C 448.75,240.582 455.083,272.915 455,306.5C 451.723,298.945 448.723,291.278 446,283.5C 448.238,327.325 438.405,368.159 416.5,406C 416.167,406.167 415.833,406.333 415.5,406.5C 414.684,372.647 410.184,339.314 402,306.5C 397.636,291.105 390.636,277.105 381,264.5C 365.775,248.655 347.942,244.821 327.5,253C 265.85,285.269 205.85,282.435 147.5,244.5C 124.354,254.152 109.521,271.152 103,295.5C 96.0807,325.721 95.7473,356.054 102,386.5C 104.688,399.242 107.355,411.909 110,424.5C 102.491,415.495 96.4909,405.495 92,394.5C 76.7516,354.258 68.4183,312.591 67,269.5C 64,273.167 61,276.833 58,280.5C 57.6667,280.167 57.3333,279.833 57,279.5C 55.5009,264.53 55.1675,249.53 56,234.5C 62.497,187.668 88.8303,159.001 135,148.5C 139.235,124.859 152.402,108.359 174.5,99C 190.669,92.3387 207.335,88.1721 224.5,86.5 Z"/></g>
</svg>
