<?xml version="1.0" encoding="UTF-8"?>
<!DOCTYPE svg PUBLIC "-//W3C//DTD SVG 1.1//EN" "http://www.w3.org/Graphics/SVG/1.1/DTD/svg11.dtd">
<svg xmlns="http://www.w3.org/2000/svg" version="1.1" width="128px" height="128px" style="shape-rendering:geometricPrecision; text-rendering:geometricPrecision; image-rendering:optimizeQuality; fill-rule:evenodd; clip-rule:evenodd" xmlns:xlink="http://www.w3.org/1999/xlink">
<g><path style="opacity:0.74" fill="#000000" d="M 30.5,1.5 C 52.5025,1.33337 74.5025,1.50004 96.5,2C 97,2.5 97.5,3 98,3.5C 97.5963,8.77921 97.9296,14.1125 99,19.5C 101.821,29.4773 105.488,39.144 110,48.5C 115.298,72.0712 114.298,95.4046 107,118.5C 106.484,121.034 105.317,123.2 103.5,125C 91.8333,125.667 80.1667,125.667 68.5,125C 65.8364,122.842 64.3364,120.009 64,116.5C 62.6189,118.635 61.6189,120.968 61,123.5C 60.2496,124.126 59.4162,124.626 58.5,125C 46.8333,125.667 35.1667,125.667 23.5,125C 23,124.5 22.5,124 22,123.5C 12.8396,98.9844 11.1729,73.9844 17,48.5C 20,41.5 23,34.5 26,27.5C 28.3332,19.5019 29.3332,11.5019 29,3.5C 29.7172,2.9558 30.2172,2.28913 30.5,1.5 Z M 32.5,5.5 C 53.1667,5.5 73.8333,5.5 94.5,5.5C 93.8037,10.7864 93.9704,16.1198 95,21.5C 97.379,29.9701 100.546,38.1367 104.5,46C 109.187,59.7984 110.687,73.965 109,88.5C 107.561,99.3632 105.227,110.03 102,120.5C 91.228,121.819 80.3947,121.819 69.5,120.5C 66.0741,106.639 65.5741,92.6391 68,78.5C 76.5899,86.0118 86.0899,87.3451 96.5,82.5C 97.4287,81.3112 97.762,79.9778 97.5,78.5C 93.2377,79.6482 88.9044,80.6482 84.5,81.5C 74.8093,80.2384 68.6426,74.9051 66,65.5C 65.5003,57.8406 65.3336,50.1739 65.5,42.5C 64.1667,42.5 62.8333,42.5 61.5,42.5C 61.6664,51.1731 61.4998,59.8397 61,68.5C 54.9161,81.5302 45.2494,84.8635 32,78.5C 30.7202,78.6135 29.8869,79.2801 29.5,80.5C 39.4313,87.0787 49.4313,87.0787 59.5,80.5C 61.1299,93.6051 60.6299,106.605 58,119.5C 52.7459,120.807 47.2459,121.474 41.5,121.5C 35.9212,121.489 30.4212,121.156 25,120.5C 18.7345,101.975 16.4011,82.9755 18,63.5C 18.8843,56.963 20.5509,50.6297 23,44.5C 30.4186,32.4352 33.5853,19.4352 32.5,5.5 Z"/></g>
</svg>
