<?xml version="1.0" encoding="UTF-8"?>
<!DOCTYPE svg PUBLIC "-//W3C//DTD SVG 1.1//EN" "http://www.w3.org/Graphics/SVG/1.1/DTD/svg11.dtd">
<svg xmlns="http://www.w3.org/2000/svg" version="1.1" width="512px" height="512px" style="shape-rendering:geometricPrecision; text-rendering:geometricPrecision; image-rendering:optimizeQuality; fill-rule:evenodd; clip-rule:evenodd" xmlns:xlink="http://www.w3.org/1999/xlink">
<g><path style="opacity:1" fill="#efbb95" d="M 264.5,15.5 C 222.702,48.0586 197.535,90.7253 189,143.5C 184.355,150.075 182.189,157.408 182.5,165.5C 182.692,172.987 183.859,180.32 186,187.5C 190.525,198.427 194.692,208.76 198.5,218.5C 199.602,225.091 200.936,231.758 202.5,238.5C 203.045,270.074 209.712,300.407 222.5,329.5C 222.317,347.634 217.984,364.634 209.5,380.5C 187.262,345.976 172.762,308.309 166,267.5C 163.945,251.833 161.945,236.167 160,220.5C 158.043,211.631 154.71,203.298 150,195.5C 144.636,182.923 142.97,169.923 145,156.5C 145.91,151.349 147.91,146.682 151,142.5C 159.425,90.7934 183.925,48.6267 224.5,16C 237.829,15.5001 251.163,15.3334 264.5,15.5 Z"/></g>
<g><path style="opacity:0.995" fill="#fed7b6" d="M 264.5,15.5 C 307.168,15.3333 349.835,15.5 392.5,16C 395.516,17.5286 396.849,20.0286 396.5,23.5C 395.433,30.2008 393.266,36.5342 390,42.5C 370.452,77.384 343.952,105.884 310.5,128C 294.67,136.747 279.004,145.747 263.5,155C 256.459,160.374 250.459,166.707 245.5,174C 265.037,203.622 274.703,236.289 274.5,272C 274.184,282.619 273.184,293.119 271.5,303.5C 236.24,287.041 216.073,259.375 211,220.5C 210.667,214.5 210.333,208.5 210,202.5C 206.728,197.597 203.061,197.263 199,201.5C 198.501,207.157 198.334,212.824 198.5,218.5C 194.692,208.76 190.525,198.427 186,187.5C 183.859,180.32 182.692,172.987 182.5,165.5C 182.189,157.408 184.355,150.075 189,143.5C 197.535,90.7253 222.702,48.0586 264.5,15.5 Z"/></g>
<g><path style="opacity:1" fill="#e0ac89" d="M 281.5,33.5 C 288.56,32.7253 291.06,35.7253 289,42.5C 273.709,52.7909 260.709,65.4575 250,80.5C 238.412,99.6093 234.079,120.276 237,142.5C 234.833,145.287 231.999,146.12 228.5,145C 226.996,143.509 226.163,141.676 226,139.5C 222.095,109.547 230.095,83.2139 250,60.5C 259.809,50.5119 270.309,41.5119 281.5,33.5 Z"/></g>
<g><path style="opacity:1" fill="#e0ac89" d="M 271.5,303.5 C 271.26,307.606 270.593,311.606 269.5,315.5C 234.694,300.693 212.36,275.027 202.5,238.5C 200.936,231.758 199.602,225.091 198.5,218.5C 198.334,212.824 198.501,207.157 199,201.5C 203.061,197.263 206.728,197.597 210,202.5C 210.333,208.5 210.667,214.5 211,220.5C 216.073,259.375 236.24,287.041 271.5,303.5 Z"/></g>
<g><path style="opacity:0.988" fill="#fed7b6" d="M 202.5,238.5 C 212.36,275.027 234.694,300.693 269.5,315.5C 261.234,344.612 261.734,373.612 271,402.5C 277.022,420.233 284.022,437.567 292,454.5C 295.638,483.082 283.138,496.249 254.5,494C 247.266,491.691 239.932,489.691 232.5,488C 228.667,487.833 224.833,487.667 221,487.5C 200.563,490.566 180.063,493.233 159.5,495.5C 151.51,490.078 150.51,483.578 156.5,476C 178.982,469.728 200.982,462.061 222.5,453C 231.937,448.87 240.437,443.37 248,436.5C 250.23,432.038 251.897,427.372 253,422.5C 254.377,409.936 253.377,397.603 250,385.5C 243.607,374.048 237.774,362.381 232.5,350.5C 233.598,341.854 234.098,333.188 234,324.5C 227.104,319.371 223.271,321.037 222.5,329.5C 209.712,300.407 203.045,270.074 202.5,238.5 Z"/></g>
<g><path style="opacity:1" fill="#e0ac89" d="M 232.5,350.5 C 230.157,364.018 225.323,376.684 218,388.5C 216.629,390.041 215.129,391.375 213.5,392.5C 211.971,388.579 210.637,384.579 209.5,380.5C 217.984,364.634 222.317,347.634 222.5,329.5C 223.271,321.037 227.104,319.371 234,324.5C 234.098,333.188 233.598,341.854 232.5,350.5 Z"/></g>
<g><path style="opacity:1" fill="#efbb95" d="M 232.5,350.5 C 237.774,362.381 243.607,374.048 250,385.5C 253.377,397.603 254.377,409.936 253,422.5C 251.897,427.372 250.23,432.038 248,436.5C 240.437,443.37 231.937,448.87 222.5,453C 200.982,462.061 178.982,469.728 156.5,476C 150.51,483.578 151.51,490.078 159.5,495.5C 153.254,495.592 147.088,494.925 141,493.5C 134.244,495.188 127.411,495.688 120.5,495C 118,493.833 116.167,492 115,489.5C 112.701,482.264 114.868,477.097 121.5,474C 150.385,467.221 177.718,456.554 203.5,442C 212.353,433.619 216.353,423.286 215.5,411C 215.322,404.771 214.656,398.604 213.5,392.5C 215.129,391.375 216.629,390.041 218,388.5C 225.323,376.684 230.157,364.018 232.5,350.5 Z"/></g>
</svg>
