<?xml version="1.0" encoding="UTF-8"?>
<!DOCTYPE svg PUBLIC "-//W3C//DTD SVG 1.1//EN" "http://www.w3.org/Graphics/SVG/1.1/DTD/svg11.dtd">
<svg xmlns="http://www.w3.org/2000/svg" version="1.1" width="128px" height="128px" style="shape-rendering:geometricPrecision; text-rendering:geometricPrecision; image-rendering:optimizeQuality; fill-rule:evenodd; clip-rule:evenodd" xmlns:xlink="http://www.w3.org/1999/xlink">
<g><path style="opacity:0.941" fill="#0b0a09" d="M 53.5,-0.5 C 60.1667,-0.5 66.8333,-0.5 73.5,-0.5C 82.0929,1.91717 89.2595,6.58384 95,13.5C 98.4829,18.9547 100.15,24.9547 100,31.5C 104.303,36.4378 107.303,42.1044 109,48.5C 110.464,74.7821 110.964,101.115 110.5,127.5C 109.167,127.5 107.833,127.5 106.5,127.5C 106.5,127.167 106.5,126.833 106.5,126.5C 106.667,102.164 106.5,77.8311 106,53.5C 104.988,48.482 103.155,43.8153 100.5,39.5C 100.217,38.7109 99.7172,38.0442 99,37.5C 98.5001,52.1629 98.3334,66.8295 98.5,81.5C 98.1417,84.2666 97.475,86.9333 96.5,89.5C 88.4618,106.859 74.7951,114.359 55.5,112C 39.7879,107.13 30.7879,96.6298 28.5,80.5C 28.8326,66.1512 28.4993,51.8179 27.5,37.5C 26.8933,37.6236 26.56,37.9569 26.5,38.5C 23.585,43.0759 21.7517,48.0759 21,53.5C 20.5,77.8311 20.3334,102.164 20.5,126.5C 20.5,126.833 20.5,127.167 20.5,127.5C 19.1667,127.5 17.8333,127.5 16.5,127.5C 16.0356,100.782 16.5356,74.1156 18,47.5C 20.1272,41.3724 23.1272,35.7057 27,30.5C 28.1211,13.5473 36.9544,3.21399 53.5,-0.5 Z"/></g>
<g><path style="opacity:1" fill="#f8f8f8" d="M 81.5,7.5 C 84.1475,10.7814 86.3142,14.4481 88,18.5C 88.7401,19.7494 88.5735,20.7494 87.5,21.5C 71.9223,12.6183 56.2556,12.4516 40.5,21C 37,23.1667 34.1667,26 32,29.5C 31.0492,23.3521 32.7159,18.0188 37,13.5C 50.5254,2.5134 65.3587,0.513405 81.5,7.5 Z"/></g>
<g><path style="opacity:1" fill="#e9c8ce" d="M 81.5,7.5 C 86.8366,10.6706 91.0033,15.004 94,20.5C 95.3185,23.406 95.6518,26.406 95,29.5C 92.9718,26.3078 90.4718,23.6411 87.5,21.5C 88.5735,20.7494 88.7401,19.7494 88,18.5C 86.3142,14.4481 84.1475,10.7814 81.5,7.5 Z"/></g>
<g><path style="opacity:1" fill="#f7a2bd" d="M 89.5,29.5 C 89.6666,47.5031 89.4999,65.5031 89,83.5C 88.2608,88.1374 86.7608,92.4707 84.5,96.5C 75.233,90.9567 65.233,89.1233 54.5,91C 53.244,91.4169 52.5774,92.2502 52.5,93.5C 51.609,94.1098 50.609,94.4431 49.5,94.5C 45.8177,94.5907 42.651,95.924 40,98.5C 36.0313,94.231 33.3646,89.231 32,83.5C 31.045,67.0996 31.3783,50.7663 33,34.5C 43.1899,19.8131 57.0232,14.9798 74.5,20C 80.7029,21.3884 85.7029,24.555 89.5,29.5 Z"/></g>
<g><path style="opacity:1" fill="#ef6d9c" d="M 89.5,29.5 C 92.3239,31.7996 94.1572,34.7996 95,38.5C 95.9038,54.5399 95.5704,70.5399 94,86.5C 92.2366,91.0412 89.7366,95.0412 86.5,98.5C 85.4777,98.1445 84.811,97.4778 84.5,96.5C 86.7608,92.4707 88.2608,88.1374 89,83.5C 89.4999,65.5031 89.6666,47.5031 89.5,29.5 Z"/></g>
<g><path style="opacity:1" fill="#423c2d" d="M 26.5,38.5 C 26.56,37.9569 26.8933,37.6236 27.5,37.5C 28.4993,51.8179 28.8326,66.1512 28.5,80.5C 27.8333,66.5 27.1667,52.5 26.5,38.5 Z"/></g>
<g><path style="opacity:1" fill="#826349" d="M 100.5,39.5 C 99.8333,53.5 99.1667,67.5 98.5,81.5C 98.3334,66.8295 98.5001,52.1629 99,37.5C 99.7172,38.0442 100.217,38.7109 100.5,39.5 Z"/></g>
<g><path style="opacity:1" fill="#fce7ae" d="M 26.5,38.5 C 27.1667,52.5 27.8333,66.5 28.5,80.5C 30.7879,96.6298 39.7879,107.13 55.5,112C 74.7951,114.359 88.4618,106.859 96.5,89.5C 97.4952,101.655 97.8286,113.989 97.5,126.5C 71.8333,126.5 46.1667,126.5 20.5,126.5C 20.3334,102.164 20.5,77.8311 21,53.5C 21.7517,48.0759 23.585,43.0759 26.5,38.5 Z"/></g>
<g><path style="opacity:0.988" fill="#fdc18e" d="M 100.5,39.5 C 103.155,43.8153 104.988,48.482 106,53.5C 106.5,77.8311 106.667,102.164 106.5,126.5C 103.5,126.5 100.5,126.5 97.5,126.5C 97.8286,113.989 97.4952,101.655 96.5,89.5C 97.475,86.9333 98.1417,84.2666 98.5,81.5C 99.1667,67.5 99.8333,53.5 100.5,39.5 Z"/></g>
<g><path style="opacity:1" fill="#f7f6f6" d="M 52.5,93.5 C 57.3087,93.7111 62.3087,93.8778 67.5,94C 73.5771,94.7068 78.9104,97.0401 83.5,101C 74.322,108.489 63.9887,110.489 52.5,107C 49.1662,105.669 46.1662,103.835 43.5,101.5C 46.0615,99.5758 48.0615,97.2425 49.5,94.5C 50.609,94.4431 51.609,94.1098 52.5,93.5 Z"/></g>
</svg>
