<?xml version="1.0" encoding="UTF-8"?>
<!DOCTYPE svg PUBLIC "-//W3C//DTD SVG 1.1//EN" "http://www.w3.org/Graphics/SVG/1.1/DTD/svg11.dtd">
<svg xmlns="http://www.w3.org/2000/svg" version="1.1" width="512px" height="512px" style="shape-rendering:geometricPrecision; text-rendering:geometricPrecision; image-rendering:optimizeQuality; fill-rule:evenodd; clip-rule:evenodd" xmlns:xlink="http://www.w3.org/1999/xlink">
<g><path style="opacity:0.996" fill="#323944" d="M 327.5,201.5 C 313.135,188.77 305.135,172.77 303.5,153.5C 315.322,149.848 323.489,142.181 328,130.5C 335.27,115.016 336.937,99.0157 333,82.5C 325.693,65.3025 313.526,60.4692 296.5,68C 286.455,76.5888 280.455,87.4221 278.5,100.5C 273.085,99.3128 267.752,97.8128 262.5,96C 259.898,95.1166 257.731,93.6166 256,91.5C 253.207,85.3248 250.874,78.9914 249,72.5C 230.596,57.0244 220.096,37.3577 217.5,13.5C 280.209,8.00608 336.876,23.6728 387.5,60.5C 387.733,89.9673 379.233,116.634 362,140.5C 342.201,156.093 330.701,176.426 327.5,201.5 Z"/></g>
<g><path style="opacity:0.996" fill="#fec9bf" d="M 217.5,13.5 C 220.096,37.3577 230.596,57.0244 249,72.5C 250.874,78.9914 253.207,85.3248 256,91.5C 257.731,93.6166 259.898,95.1166 262.5,96C 267.752,97.8128 273.085,99.3128 278.5,100.5C 280.455,87.4221 286.455,76.5888 296.5,68C 313.526,60.4692 325.693,65.3025 333,82.5C 336.937,99.0157 335.27,115.016 328,130.5C 323.489,142.181 315.322,149.848 303.5,153.5C 297.463,153.171 291.463,153.504 285.5,154.5C 281.061,163.045 276.894,171.711 273,180.5C 267.081,188.421 259.914,194.921 251.5,200C 228.688,208.271 206.021,216.938 183.5,226C 180.965,226.928 179.965,228.762 180.5,231.5C 179.732,230.737 179.232,229.737 179,228.5C 170.454,232.523 161.954,236.689 153.5,241C 147.63,243.818 141.63,244.151 135.5,242C 126.793,238.949 120.293,233.449 116,225.5C 115.661,222.964 115.161,220.464 114.5,218C 115.138,211.702 115.471,205.368 115.5,199C 115.675,187.4 114.841,175.9 113,164.5C 111.6,161.098 109.433,158.264 106.5,156C 99.2384,152.121 92.4051,147.621 86,142.5C 83.1234,138.211 82.1234,133.544 83,128.5C 85.8593,120.448 89.526,112.781 94,105.5C 101.091,95.6538 108.424,85.9871 116,76.5C 117.023,73.217 117.857,69.8836 118.5,66.5C 117.855,60.3252 117.189,54.1586 116.5,48C 147.374,28.6524 181.04,17.1524 217.5,13.5 Z"/></g>
<g><path style="opacity:1" fill="#e5847d" d="M 306.5,81.5 C 314.353,81.0816 319.353,84.5816 321.5,92C 321.291,93.8715 320.291,95.0381 318.5,95.5C 316.35,93.8509 314.35,92.0176 312.5,90C 308.316,88.8345 305.483,90.3345 304,94.5C 303.501,99.4889 303.334,104.489 303.5,109.5C 307.007,108.994 310.174,109.66 313,111.5C 313.896,114.025 313.396,116.192 311.5,118C 305.179,117.569 301.345,120.402 300,126.5C 297.011,130.491 293.178,133.324 288.5,135C 282.219,135.635 279.719,132.801 281,126.5C 282.731,124.383 284.898,122.883 287.5,122C 292.739,115.119 294.906,107.286 294,98.5C 295.358,90.6585 299.525,84.9918 306.5,81.5 Z"/></g>
<g><path style="opacity:1" fill="#e5837c" d="M 303.5,153.5 C 305.135,172.77 313.135,188.77 327.5,201.5C 327.5,209.833 327.5,218.167 327.5,226.5C 324.185,224.192 320.851,221.859 317.5,219.5C 309.845,237.961 302.679,256.628 296,275.5C 294.492,279.674 292.159,280.341 289,277.5C 289.134,271.481 289.8,265.481 291,259.5C 294.603,243.257 298.436,227.09 302.5,211C 302.435,208.409 301.935,205.909 301,203.5C 297.081,197.33 293.414,190.997 290,184.5C 281.2,204.966 266.7,219.799 246.5,229C 223.636,233.677 201.636,240.844 180.5,250.5C 180.5,244.167 180.5,237.833 180.5,231.5C 179.965,228.762 180.965,226.928 183.5,226C 206.021,216.938 228.688,208.271 251.5,200C 259.914,194.921 267.081,188.421 273,180.5C 276.894,171.711 281.061,163.045 285.5,154.5C 291.463,153.504 297.463,153.171 303.5,153.5 Z"/></g>
<g><path style="opacity:0.995" fill="#fec9bf" d="M 327.5,226.5 C 325.876,257.451 334.376,285.118 353,309.5C 361.667,319.5 371,328.833 381,337.5C 400.587,359.653 416.42,384.32 428.5,411.5C 421.18,420.487 413.18,428.82 404.5,436.5C 398.099,412.612 385.433,392.779 366.5,377C 346.671,363.209 324.671,357.542 300.5,360C 299.643,360.689 298.977,361.522 298.5,362.5C 341.292,366.151 369.126,388.484 382,429.5C 383.716,436.468 385.216,443.468 386.5,450.5C 343.869,482.321 295.703,498.321 242,498.5C 225.839,498.593 210.005,496.927 194.5,493.5C 195.5,493.5 196.5,493.5 197.5,493.5C 195.653,472.095 198.653,451.428 206.5,431.5C 203.974,430.49 201.808,431.157 200,433.5C 189.02,450.94 182.52,469.94 180.5,490.5C 159.352,485.457 139.686,477.124 121.5,465.5C 130,447.833 138.5,430.167 147,412.5C 149.234,403.225 152.234,394.225 156,385.5C 165.293,378.216 172.293,369.216 177,358.5C 181.477,338.339 182.811,318.006 181,297.5C 179.227,291.287 176.894,285.287 174,279.5C 173.833,277.833 173.667,276.167 173.5,274.5C 175.03,266.245 177.364,258.245 180.5,250.5C 201.636,240.844 223.636,233.677 246.5,229C 266.7,219.799 281.2,204.966 290,184.5C 293.414,190.997 297.081,197.33 301,203.5C 301.935,205.909 302.435,208.409 302.5,211C 298.436,227.09 294.603,243.257 291,259.5C 289.8,265.481 289.134,271.481 289,277.5C 292.159,280.341 294.492,279.674 296,275.5C 302.679,256.628 309.845,237.961 317.5,219.5C 320.851,221.859 324.185,224.192 327.5,226.5 Z"/></g>
<g><path style="opacity:1" fill="#e6857e" d="M 284.5,294.5 C 288.741,293.909 290.407,295.742 289.5,300C 289.287,303.642 288.453,307.142 287,310.5C 286.084,313.959 284.084,314.959 281,313.5C 280.178,306.799 281.345,300.465 284.5,294.5 Z"/></g>
<g><path style="opacity:1" fill="#e5847d" d="M 404.5,436.5 C 398.871,441.647 392.871,446.314 386.5,450.5C 385.216,443.468 383.716,436.468 382,429.5C 369.126,388.484 341.292,366.151 298.5,362.5C 298.977,361.522 299.643,360.689 300.5,360C 324.671,357.542 346.671,363.209 366.5,377C 385.433,392.779 398.099,412.612 404.5,436.5 Z"/></g>
<g><path style="opacity:1" fill="#e5847d" d="M 194.5,493.5 C 189.675,493.126 185.008,492.126 180.5,490.5C 182.52,469.94 189.02,450.94 200,433.5C 201.808,431.157 203.974,430.49 206.5,431.5C 198.653,451.428 195.653,472.095 197.5,493.5C 196.5,493.5 195.5,493.5 194.5,493.5 Z"/></g>
</svg>
