<?xml version="1.0" encoding="UTF-8"?>
<!DOCTYPE svg PUBLIC "-//W3C//DTD SVG 1.1//EN" "http://www.w3.org/Graphics/SVG/1.1/DTD/svg11.dtd">
<svg xmlns="http://www.w3.org/2000/svg" version="1.1" width="128px" height="128px" style="shape-rendering:geometricPrecision; text-rendering:geometricPrecision; image-rendering:optimizeQuality; fill-rule:evenodd; clip-rule:evenodd" xmlns:xlink="http://www.w3.org/1999/xlink">
<g><path style="opacity:0.98" fill="#fec9bf" d="M 39.5,110.5 C 39.5,108.5 39.5,106.5 39.5,104.5C 43.8691,105.077 47.8691,104.243 51.5,102C 47.5787,101.797 43.7454,101.297 40,100.5C 39.8265,96.4592 39.3265,92.4592 38.5,88.5C 37.8076,89.0253 37.3076,89.6919 37,90.5C 36.5006,95.8229 36.334,101.156 36.5,106.5C 29.9607,101.96 25.294,95.9602 22.5,88.5C 29.9052,89.1319 35.2385,86.1319 38.5,79.5C 37.635,78.4173 36.635,78.2506 35.5,79C 31.6533,83.6742 26.6533,85.5075 20.5,84.5C 13.5284,67.2104 14.1951,50.2104 22.5,33.5C 26.4791,33.9902 30.1457,35.3235 33.5,37.5C 34.1667,37.1667 34.8333,36.8333 35.5,36.5C 32.3705,33.3479 29.0371,30.6813 25.5,28.5C 32.3649,17.7177 41.6982,9.71773 53.5,4.5C 54.3184,7.10707 54.8184,9.77374 55,12.5C 56.8734,14.7089 59.04,16.5422 61.5,18C 69.8377,21.9187 78.5044,24.9187 87.5,27C 96.3636,30.5601 101.53,37.0601 103,46.5C 103.188,54.2875 104.188,61.9542 106,69.5C 105.285,83.7075 107.118,97.5409 111.5,111C 104.631,117.067 96.6308,120.4 87.5,121C 85.9509,115.995 85.1176,110.829 85,105.5C 83.6667,103.5 82.3333,101.5 81,99.5C 80.0966,106.684 78.4299,113.684 76,120.5C 75.1612,121.624 73.9945,122.291 72.5,122.5C 60.4164,121.252 49.4164,117.252 39.5,110.5 Z"/></g>
<g><path style="opacity:0.924" fill="#e78881" d="M 25.5,28.5 C 29.0371,30.6813 32.3705,33.3479 35.5,36.5C 34.8333,36.8333 34.1667,37.1667 33.5,37.5C 30.1457,35.3235 26.4791,33.9902 22.5,33.5C 21.146,30.7896 22.146,29.1229 25.5,28.5 Z"/></g>
<g><path style="opacity:1" fill="#e78a82" d="M 50.5,29.5 C 52.5273,29.3379 54.5273,29.5045 56.5,30C 57.3366,31.0113 57.67,32.1779 57.5,33.5C 51.7796,33.4091 46.4463,34.7425 41.5,37.5C 40.8333,37.1667 40.1667,36.8333 39.5,36.5C 42.7205,33.3941 46.3871,31.0607 50.5,29.5 Z"/></g>
<g><path style="opacity:1" fill="#e98e86" d="M 37.5,55.5 C 38.4959,55.4142 39.3292,55.7476 40,56.5C 40.6667,61.5 40.6667,66.5 40,71.5C 39.586,71.9574 39.086,72.2907 38.5,72.5C 36.1825,66.9935 35.8492,61.3269 37.5,55.5 Z"/></g>
<g><path style="opacity:1" fill="#e78880" d="M 84.5,63.5 C 87.6242,70.8962 86.2909,77.7296 80.5,84C 71.2272,88.639 61.5606,89.639 51.5,87C 45.9234,83.2636 46.2568,82.2636 52.5,84C 61.6808,85.6221 70.3474,84.2887 78.5,80C 82.1865,75.1067 84.1865,69.6067 84.5,63.5 Z"/></g>
<g><path style="opacity:1" fill="#e88c84" d="M 62.5,76.5 C 64.288,76.2148 65.9547,76.5481 67.5,77.5C 65.2029,80.2896 63.5362,79.9563 62.5,76.5 Z"/></g>
<g><path style="opacity:1" fill="#e68880" d="M 22.5,88.5 C 19.6643,88.1627 18.9976,86.8293 20.5,84.5C 26.6533,85.5075 31.6533,83.6742 35.5,79C 36.635,78.2506 37.635,78.4173 38.5,79.5C 35.2385,86.1319 29.9052,89.1319 22.5,88.5 Z"/></g>
<g><path style="opacity:0.994" fill="#e6877f" d="M 39.5,110.5 C 37.0882,110.306 36.0882,108.973 36.5,106.5C 36.334,101.156 36.5006,95.8229 37,90.5C 37.3076,89.6919 37.8076,89.0253 38.5,88.5C 39.3265,92.4592 39.8265,96.4592 40,100.5C 43.7454,101.297 47.5787,101.797 51.5,102C 47.8691,104.243 43.8691,105.077 39.5,104.5C 39.5,106.5 39.5,108.5 39.5,110.5 Z"/></g>
</svg>
