<?xml version="1.0" encoding="UTF-8"?>
<!DOCTYPE svg PUBLIC "-//W3C//DTD SVG 1.1//EN" "http://www.w3.org/Graphics/SVG/1.1/DTD/svg11.dtd">
<svg xmlns="http://www.w3.org/2000/svg" version="1.1" width="128px" height="128px" style="shape-rendering:geometricPrecision; text-rendering:geometricPrecision; image-rendering:optimizeQuality; fill-rule:evenodd; clip-rule:evenodd" xmlns:xlink="http://www.w3.org/1999/xlink">
<g><path style="opacity:0.993" fill="#fcd6ac" d="M 21.5,-0.5 C 49.5,-0.5 77.5,-0.5 105.5,-0.5C 104.228,6.08772 102.561,12.5877 100.5,19C 102.197,23.0905 103.697,27.2571 105,31.5C 105.333,39.1667 105.667,46.8333 106,54.5C 106.906,57.3098 108.073,59.9764 109.5,62.5C 107.469,64.5224 105.135,66.1891 102.5,67.5C 102.824,64.3198 101.49,63.1531 98.5,64C 90.7606,77.2103 79.0939,83.7103 63.5,83.5C 47.9224,83.7177 36.2557,77.2177 28.5,64C 27.2068,63.51 25.8734,63.3433 24.5,63.5C 24.5,64.8333 24.5,66.1667 24.5,67.5C 21.5999,66.5568 19.2666,64.8901 17.5,62.5C 18.9269,59.9764 20.0936,57.3098 21,54.5C 21.3333,46.8333 21.6667,39.1667 22,31.5C 23.3031,27.2571 24.8031,23.0905 26.5,19C 24.4387,12.5877 22.772,6.08772 21.5,-0.5 Z"/></g>
<g><path style="opacity:0.848" fill="#e64b3b" d="M 8.5,9.5 C 10.9484,9.01011 12.615,9.84344 13.5,12C 7.60139,24.2253 5.43472,37.0586 7,50.5C 5.64387,51.3802 4.14387,51.7135 2.5,51.5C -0.20253,36.7947 1.79747,22.7947 8.5,9.5 Z"/></g>
<g><path style="opacity:0.851" fill="#e64c3b" d="M 114.5,9.5 C 115.978,9.23798 117.311,9.57131 118.5,10.5C 125.236,23.4506 127.236,37.1173 124.5,51.5C 122.856,51.7135 121.356,51.3802 120,50.5C 121.565,37.0586 119.399,24.2253 113.5,12C 113.743,11.0979 114.077,10.2646 114.5,9.5 Z"/></g>
<g><path style="opacity:0.857" fill="#e64c3b" d="M 15.5,15.5 C 17.9124,15.244 19.5791,16.244 20.5,18.5C 16.1523,27.6809 14.4856,37.3476 15.5,47.5C 13.8333,47.5 12.1667,47.5 10.5,47.5C 9.37332,36.3272 11.04,25.6606 15.5,15.5 Z"/></g>
<g><path style="opacity:0.84" fill="#e64c3b" d="M 108.5,15.5 C 109.822,15.33 110.989,15.6634 112,16.5C 115.999,26.4335 117.499,36.7669 116.5,47.5C 114.833,47.5 113.167,47.5 111.5,47.5C 112.514,37.3476 110.848,27.6809 106.5,18.5C 107.193,17.4822 107.859,16.4822 108.5,15.5 Z"/></g>
<g><path style="opacity:1" fill="#f09775" d="M 61.5,61.5 C 62.8333,61.5 64.1667,61.5 65.5,61.5C 65.6641,64.1873 65.4974,66.854 65,69.5C 64,70.8333 63,70.8333 62,69.5C 61.5026,66.854 61.3359,64.1873 61.5,61.5 Z"/></g>
<g><path style="opacity:0.992" fill="#eceff0" d="M 17.5,62.5 C 19.2666,64.8901 21.5999,66.5568 24.5,67.5C 36.4312,84.4334 52.7646,90.9334 73.5,87C 85.9619,84.451 95.6285,77.951 102.5,67.5C 105.135,66.1891 107.469,64.5224 109.5,62.5C 113.224,62.0502 115.391,63.7168 116,67.5C 116.495,70.5314 116.329,73.5314 115.5,76.5C 113.399,79.248 111.566,82.248 110,85.5C 107.5,88 105,90.5 102.5,93C 93.1667,98.6667 83.8333,104.333 74.5,110C 72.6266,111.704 70.9599,113.537 69.5,115.5C 65.5,116.833 61.5,116.833 57.5,115.5C 56.0401,113.537 54.3734,111.704 52.5,110C 42.6656,104.251 32.9989,98.2505 23.5,92C 21,89.5 18.5,87 16,84.5C 15.1404,81.3672 13.6404,78.7005 11.5,76.5C 9.72869,71.6288 10.3954,67.1288 13.5,63C 14.7932,62.51 16.1266,62.3433 17.5,62.5 Z"/></g>
<g><path style="opacity:1" fill="#f8c898" d="M 102.5,67.5 C 95.6285,77.951 85.9619,84.451 73.5,87C 52.7646,90.9334 36.4312,84.4334 24.5,67.5C 24.5,66.1667 24.5,64.8333 24.5,63.5C 25.8734,63.3433 27.2068,63.51 28.5,64C 36.2557,77.2177 47.9224,83.7177 63.5,83.5C 79.0939,83.7103 90.7606,77.2103 98.5,64C 101.49,63.1531 102.824,64.3198 102.5,67.5 Z"/></g>
<g><path style="opacity:0.981" fill="#fcd7ad" d="M 11.5,76.5 C 13.6404,78.7005 15.1404,81.3672 16,84.5C 18.5,87 21,89.5 23.5,92C 32.9989,98.2505 42.6656,104.251 52.5,110C 54.3734,111.704 56.0401,113.537 57.5,115.5C 58.9997,119.326 59.6664,123.326 59.5,127.5C 43.1667,127.5 26.8333,127.5 10.5,127.5C 8.99183,110.475 9.32516,93.4746 11.5,76.5 Z"/></g>
<g><path style="opacity:0.982" fill="#fcd7ad" d="M 115.5,76.5 C 117.675,93.4746 118.008,110.475 116.5,127.5C 100.167,127.5 83.8333,127.5 67.5,127.5C 67.3336,123.326 68.0003,119.326 69.5,115.5C 70.9599,113.537 72.6266,111.704 74.5,110C 83.8333,104.333 93.1667,98.6667 102.5,93C 105,90.5 107.5,88 110,85.5C 111.566,82.248 113.399,79.248 115.5,76.5 Z"/></g>
</svg>
