<?xml version="1.0" encoding="iso-8859-1"?>
<!-- Uploaded to: SVG Repo, www.svgrepo.com, Generator: SVG Repo Mixer Tools -->
<!DOCTYPE svg PUBLIC "-//W3C//DTD SVG 1.1//EN" "http://www.w3.org/Graphics/SVG/1.1/DTD/svg11.dtd">
<svg height="800px" width="800px" version="1.1" id="Capa_1" xmlns="http://www.w3.org/2000/svg" xmlns:xlink="http://www.w3.org/1999/xlink" 
	 viewBox="0 0 58 58" xml:space="preserve">
<g>
	<path style="fill:#E7ECED;" d="M15.009,16c7.986,0,9.985,0.314,12.078,6.912c1.525,4.808,1.868,10.832,1.913,15.901
		c0.021,2.434-2.113,7.276-4.976,9.181c-4.744,3.156-11.224,2.083-16.619,0.209c-3.459-1.201-6.68-4.6-6.386-9.391
		c0.325-5.301,1.6-11.951,3.078-17.064C5.546,16.736,10.435,16,15.009,16z"/>
	<path style="fill:#F0F6F7;" d="M16.679,48c-2.165,0-4.733-0.511-7.633-1.519c-0.332-0.115-3.229-1.215-3.037-4.363
		c0.283-4.612,1.418-10.885,2.892-15.979C9.131,25.339,9.518,24,15.009,24c1.918,0,5.128,0,5.966,0.43
		c0.005,0.003,0.483,0.275,1.347,2.994C23.395,30.81,23.945,35.53,24,41.857c-0.051,1.118-1.483,4.135-2.746,4.975
		C20.074,47.618,18.577,48,16.679,48z"/>
	<g>
		<path style="fill:#E7ECED;" d="M42.991,16c-7.986,0-9.985,0.314-12.078,6.912C29.388,27.721,29.044,33.745,29,38.814
			c-0.021,2.434,2.113,7.276,4.976,9.181c4.744,3.156,11.224,2.083,16.619,0.209c3.459-1.201,6.68-4.6,6.386-9.391
			c-0.325-5.301-1.6-11.951-3.078-17.064C52.454,16.736,47.565,16,42.991,16z"/>
	</g>
	<path style="fill:#ED9893;" d="M48.939,8H9.061C4.057,8,0,12.057,0,17.061v9.745C0,28.018,0.982,29,2.194,29h0.168
		c0.502-2.547,1.096-5.043,1.734-7.25C5.546,16.736,10.435,16,15.009,16c7.986,0,9.985,0.314,12.078,6.912
		c0.598,1.885,1.01,3.959,1.298,6.088h1.23c0.288-2.128,0.7-4.202,1.298-6.088C33.006,16.314,35.005,16,42.991,16
		c4.574,0,9.464,0.736,10.913,5.75c0.638,2.207,1.232,4.703,1.734,7.25h0.168C57.018,29,58,28.018,58,26.806v-9.745
		C58,12.057,53.943,8,48.939,8z"/>
	<path style="fill:#FFFFFF;" d="M7.661,44.208c-2.476-2.728-3.259-6.362-2.206-9.88c0.371-1.239-1.56-1.764-1.929-0.532
		c-1.26,4.21-0.225,8.581,2.72,11.826C7.116,46.579,8.526,45.161,7.661,44.208L7.661,44.208z"/>
	<path style="fill:#FFFFFF;" d="M25.538,39.126c-0.004-0.01-0.007-0.021-0.011-0.032c-1.766,2.378-4.383,3.96-7.343,4.206
		c-0.607,1.229-1.079,2.406-1.237,3.44c-0.116,0.758,0.429,1.408,1.23,1.23c3.946-0.878,9.564-3.063,8.024-8.196
		C26.09,39.401,25.83,39.205,25.538,39.126z"/>
	<path style="fill:#F0F6F7;" d="M44.679,48c-2.165,0-4.733-0.511-7.633-1.519c-0.332-0.115-3.229-1.215-3.037-4.363
		c0.283-4.612,1.418-10.885,2.892-15.979c0.23-0.8,0.617-2.139,6.108-2.139c1.918,0,5.128,0,5.966,0.43
		c0.005,0.003,0.483,0.275,1.347,2.994C51.395,30.81,51.944,35.53,52,41.857c-0.051,1.118-1.483,4.135-2.746,4.975
		C48.073,47.618,46.576,48,44.679,48z"/>
	<path style="fill:#FFFFFF;" d="M36.199,44.208c-2.476-2.728-3.259-6.362-2.206-9.88c0.371-1.239-1.56-1.764-1.929-0.532
		c-1.26,4.21-0.225,8.581,2.72,11.826C35.653,46.579,37.064,45.161,36.199,44.208L36.199,44.208z"/>
	<path style="fill:#FFFFFF;" d="M54.076,39.126c-0.004-0.01-0.007-0.021-0.011-0.032c-1.766,2.378-4.383,3.96-7.343,4.206
		c-0.607,1.229-1.079,2.406-1.237,3.44c-0.116,0.758,0.429,1.408,1.23,1.23c3.946-0.878,9.564-3.063,8.024-8.196
		C54.627,39.401,54.367,39.205,54.076,39.126z"/>
</g>
</svg>