<?xml version="1.0" encoding="UTF-8"?>
<!DOCTYPE svg PUBLIC "-//W3C//DTD SVG 1.1//EN" "http://www.w3.org/Graphics/SVG/1.1/DTD/svg11.dtd">
<svg xmlns="http://www.w3.org/2000/svg" version="1.1" width="128px" height="128px" style="shape-rendering:geometricPrecision; text-rendering:geometricPrecision; image-rendering:optimizeQuality; fill-rule:evenodd; clip-rule:evenodd" xmlns:xlink="http://www.w3.org/1999/xlink">
<g><path style="opacity:0.885" fill="#2e57ff" d="M 62.5,1.5 C 65.5468,0.85544 67.7135,1.85544 69,4.5C 69.7611,7.05287 70.5944,9.55287 71.5,12C 69.3581,16.9536 66.3581,17.6203 62.5,14C 60.0654,9.68707 60.0654,5.5204 62.5,1.5 Z"/></g>
<g><path style="opacity:0.895" fill="#2d57ff" d="M 88.5,0.5 C 91.7446,0.672813 93.4113,2.33948 93.5,5.5C 93.1698,8.32395 92.3365,10.9906 91,13.5C 86.611,15.5969 84.111,14.2635 83.5,9.5C 83.509,5.38593 85.1757,2.38593 88.5,0.5 Z"/></g>
<g><path style="opacity:0.896" fill="#2d58ff" d="M 41.5,14.5 C 48.1643,14.0002 51.331,17.0002 51,23.5C 49.1917,25.3959 47.025,25.8959 44.5,25C 39.4887,22.4429 38.4887,18.9429 41.5,14.5 Z"/></g>
<g><path style="opacity:0.958" fill="#3159ff" d="M 106.5,26.5 C 98.371,26.6977 90.371,27.8643 82.5,30C 64.8417,35.9956 47.3417,42.1622 30,48.5C 26.6531,54.0405 24.8198,60.0405 24.5,66.5C 27.2658,84.9981 30.2658,103.331 33.5,121.5C 33.4894,123.017 32.8228,124.184 31.5,125C 29.2305,125.758 27.0639,125.591 25,124.5C 20.6914,102.993 18.0247,81.3259 17,59.5C 18.2205,53.834 20.2205,48.5007 23,43.5C 24.9384,40.8941 27.4384,39.0608 30.5,38C 49.8286,32.0017 69.1619,26.0017 88.5,20C 95.1219,18.5765 101.789,17.9099 108.5,18C 110.396,19.8083 110.896,21.975 110,24.5C 109.184,25.8228 108.017,26.4894 106.5,26.5 Z"/></g>
<g><path style="opacity:0.996" fill="#d1e6ff" d="M 106.5,26.5 C 106.5,40.5 106.5,54.5 106.5,68.5C 101.587,69.9696 96.5866,71.1363 91.5,72C 80.9064,72.3176 70.4064,72.4842 60,72.5C 59.3333,74.1667 59.3333,75.8333 60,77.5C 62.4343,79.0233 65.101,80.0233 68,80.5C 71.994,94.1729 72.494,107.84 69.5,121.5C 57.5,121.5 45.5,121.5 33.5,121.5C 30.2658,103.331 27.2658,84.9981 24.5,66.5C 24.8198,60.0405 26.6531,54.0405 30,48.5C 47.3417,42.1622 64.8417,35.9956 82.5,30C 90.371,27.8643 98.371,26.6977 106.5,26.5 Z"/></g>
<g><path style="opacity:1" fill="#375dff" d="M 33.5,58.5 C 35.7925,58.2436 37.9592,58.5769 40,59.5C 40.2116,63.209 39.3783,66.709 37.5,70C 35.5594,70.7429 33.7261,70.5762 32,69.5C 31.2423,65.6382 31.7423,61.9716 33.5,58.5 Z"/></g>
<g><path style="opacity:0.956" fill="#335aff" d="M 106.5,68.5 C 109.488,68.1547 110.821,69.488 110.5,72.5C 110.852,74.9241 109.852,76.4241 107.5,77C 97.7314,80.0384 87.7314,81.5384 77.5,81.5C 81.4312,95.8468 81.4312,110.18 77.5,124.5C 75.2351,125.647 72.9018,125.814 70.5,125C 69.6634,123.989 69.33,122.822 69.5,121.5C 72.494,107.84 71.994,94.1729 68,80.5C 65.101,80.0233 62.4343,79.0233 60,77.5C 59.3333,75.8333 59.3333,74.1667 60,72.5C 70.4064,72.4842 80.9064,72.3176 91.5,72C 96.5866,71.1363 101.587,69.9696 106.5,68.5 Z"/></g>
</svg>
