<?xml version="1.0" encoding="UTF-8"?>
<!DOCTYPE svg PUBLIC "-//W3C//DTD SVG 1.1//EN" "http://www.w3.org/Graphics/SVG/1.1/DTD/svg11.dtd">
<svg xmlns="http://www.w3.org/2000/svg" version="1.1" width="128px" height="128px" style="shape-rendering:geometricPrecision; text-rendering:geometricPrecision; image-rendering:optimizeQuality; fill-rule:evenodd; clip-rule:evenodd" xmlns:xlink="http://www.w3.org/1999/xlink">
<g><path style="opacity:0.753" fill="#000000" d="M 28.5,2.5 C 38.2905,1.43178 44.4571,5.76511 47,15.5C 48.4484,20.8215 48.7817,26.1549 48,31.5C 53.1654,24.33 59.9988,21.83 68.5,24C 71.1779,25.8412 72.8445,28.3412 73.5,31.5C 82.9356,30.8621 87.6023,35.1954 87.5,44.5C 94.5489,44.381 98.2156,47.881 98.5,55C 97.8333,57 97.1667,59 96.5,61C 104.819,61.9848 108.819,66.6515 108.5,75C 107.912,81.6855 105.745,87.8522 102,93.5C 96.2967,102.414 89.1301,109.914 80.5,116C 81.7596,117.814 81.7596,119.647 80.5,121.5C 74.4275,123.916 68.0942,124.916 61.5,124.5C 52.5984,125.153 44.2651,123.32 36.5,119C 34.253,117.005 33.253,114.505 33.5,111.5C 56.8198,122.38 76.6532,117.714 93,97.5C 96.4291,93.2282 99.2624,88.5615 101.5,83.5C 100.277,82.3861 98.9437,82.2195 97.5,83C 93.8333,85.3333 90.1667,87.6667 86.5,90C 79.4481,90.7647 72.7814,89.4314 66.5,86C 63.3799,83.5923 62.0466,80.4257 62.5,76.5C 56.8142,75.134 54.1476,71.4673 54.5,65.5C 51.9009,65.4506 49.7342,64.4506 48,62.5C 44.9937,55.8165 43.1603,48.8165 42.5,41.5C 43.8591,34.547 44.3591,27.547 44,20.5C 43.4559,14.4067 40.6226,9.74002 35.5,6.5C 34.5923,7.79001 34.759,9.12334 36,10.5C 36.6667,13.8333 36.6667,17.1667 36,20.5C 34.9153,22.373 33.582,24.0397 32,25.5C 29.1973,34.2416 26.1973,42.9083 23,51.5C 23.4079,63.5289 24.0745,75.5289 25,87.5C 24.3759,91.5748 22.5426,94.9082 19.5,97.5C 18.914,97.2907 18.414,96.9574 18,96.5C 19.9927,91.6821 21.1593,86.5154 21.5,81C 20.9086,75.7994 20.0753,70.6328 19,65.5C 18.3333,60.5 18.3333,55.5 19,50.5C 22.2008,41.8973 25.2008,33.2306 28,24.5C 28.6021,18.9162 28.1021,13.4162 26.5,8C 26.7579,5.99066 27.4245,4.15733 28.5,2.5 Z M 61.5,26.5 C 66.9147,26.0816 69.5814,28.5816 69.5,34C 67.7723,42.6222 64.2723,50.4556 59,57.5C 53.617,61.0106 50.9503,59.6772 51,53.5C 53.2284,49.5399 55.0618,45.3732 56.5,41C 56.2076,37.8794 54.5409,36.3794 51.5,36.5C 52.7617,41.3587 51.595,45.692 48,49.5C 45.8028,44.4741 46.4694,39.8074 50,35.5C 53.1607,31.4905 56.994,28.4905 61.5,26.5 Z M 73.5,36.5 C 81.257,34.7647 84.757,37.7647 84,45.5C 80.5312,55.3045 75.0312,63.8045 67.5,71C 65.8333,71.6667 64.1667,71.6667 62.5,71C 60.9508,68.9017 59.9508,66.5684 59.5,64C 65.8605,55.7802 70.5272,46.6136 73.5,36.5 Z M 87.5,48.5 C 94.3846,49.9429 96.2179,53.9429 93,60.5C 87.9239,68.2468 82.0906,75.4135 75.5,82C 70.0081,82.4859 68.1747,79.9859 70,74.5C 77.652,67.0224 83.4854,58.3557 87.5,48.5 Z M 95.5,65.5 C 99.0627,65.6252 101.563,67.2919 103,70.5C 103.738,74.2613 103.405,77.9279 102,81.5C 101.521,79.354 100.188,78.354 98,78.5C 92.7528,79.7482 87.9195,81.9148 83.5,85C 81.8333,85.6667 80.1667,85.6667 78.5,85C 83.8403,78.1068 89.507,71.6068 95.5,65.5 Z"/></g>
<g><path style="opacity:0.675" fill="#000000" d="M 94.5,16.5 C 95.8333,16.5 97.1667,16.5 98.5,16.5C 96.9634,21.2467 95.1301,25.9133 93,30.5C 91.9887,31.3366 90.8221,31.67 89.5,31.5C 90.3105,26.2128 91.9772,21.2128 94.5,16.5 Z"/></g>
<g><path style="opacity:0.675" fill="#000000" d="M 80.5,17.5 C 81.8333,17.5 83.1667,17.5 84.5,17.5C 85.1995,21.7978 85.5328,26.1311 85.5,30.5C 83.8762,30.6399 82.7096,29.9733 82,28.5C 81.4518,24.8296 80.9518,21.1629 80.5,17.5 Z"/></g>
<g><path style="opacity:0.684" fill="#000000" d="M 105.5,27.5 C 106.5,27.5 107.5,27.5 108.5,27.5C 108.762,28.9778 108.429,30.3112 107.5,31.5C 103.697,33.7376 99.6972,35.4043 95.5,36.5C 95.238,35.0222 95.5713,33.6888 96.5,32.5C 99.7235,31.0591 102.724,29.3924 105.5,27.5 Z"/></g>
</svg>
