<?xml version="1.0" encoding="UTF-8"?>
<!DOCTYPE svg PUBLIC "-//W3C//DTD SVG 1.1//EN" "http://www.w3.org/Graphics/SVG/1.1/DTD/svg11.dtd">
<svg xmlns="http://www.w3.org/2000/svg" version="1.1" width="128px" height="128px" style="shape-rendering:geometricPrecision; text-rendering:geometricPrecision; image-rendering:optimizeQuality; fill-rule:evenodd; clip-rule:evenodd" xmlns:xlink="http://www.w3.org/1999/xlink">
<g><path style="opacity:0.748" fill="#13100e" d="M 117.5,122.5 C 117.077,121.735 116.743,120.902 116.5,120C 118.949,112.194 120.282,104.194 120.5,96C 119.849,84.1597 119.182,72.3264 118.5,60.5C 115.728,60.78 113.228,60.1134 111,58.5C 109.958,55.1961 111.125,53.0295 114.5,52C 111.568,49.8546 109.068,50.3546 107,53.5C 105.48,61.5788 103.647,69.5788 101.5,77.5C 101.167,76.1667 100.833,74.8333 100.5,73.5C 104.386,61.7995 105.886,49.7995 105,37.5C 101.619,41.4851 98.286,41.4851 95,37.5C 93.456,33.1884 94.956,31.0217 99.5,31C 96.6626,29.0044 93.9959,29.1711 91.5,31.5C 90.5416,31.9528 89.7083,32.6195 89,33.5C 88.8983,42.5455 88.7316,51.5455 88.5,60.5C 87.3303,62.2785 85.6636,63.2785 83.5,63.5C 84.0763,56.7706 85.0763,50.104 86.5,43.5C 85.4692,35.4985 85.3025,27.4985 86,19.5C 86.1995,23.4645 84.3661,25.4645 80.5,25.5C 77.922,25.5581 75.5887,24.8914 73.5,23.5C 73.838,20.9885 73.838,18.6552 73.5,16.5C 71.7423,18.7925 70.5756,21.4591 70,24.5C 70.0927,34.6669 70.2594,44.8335 70.5,55C 70.3158,56.3756 69.6491,57.2089 68.5,57.5C 68.099,47.8389 67.7657,38.1723 67.5,28.5C 69.1368,23.2697 69.6368,17.9364 69,12.5C 68.6667,11.8333 68.3333,11.1667 68,10.5C 68.6306,15.8641 66.2972,18.8641 61,19.5C 56.054,18.8994 53.7206,16.2327 54,11.5C 54.5,10.3333 55.3333,9.5 56.5,9C 59.562,8.2585 62.562,8.42517 65.5,9.5C 66.6956,9.15431 66.6956,8.65431 65.5,8C 59.2226,5.27791 53.8892,6.44458 49.5,11.5C 46.6386,17.2837 47.1386,22.9503 51,28.5C 51.6667,35.1667 51.6667,41.8333 51,48.5C 50.8949,52.37 50.0615,56.0366 48.5,59.5C 47.8589,58.0065 46.8589,57.0065 45.5,56.5C 43.8333,56.5 42.1667,56.5 40.5,56.5C 40.7678,58.099 40.4345,59.4324 39.5,60.5C 39.5,58.1667 39.5,55.8333 39.5,53.5C 41.5325,46.8366 42.8659,40.0032 43.5,33C 43.5671,22.4582 39.2338,14.4582 30.5,9C 22.7189,6.096 16.3856,7.92933 11.5,14.5C 8.0667,19.7188 6.40003,25.5522 6.5,32C 6.65818,39.4496 8.15818,46.6162 11,53.5C 11,64.8333 11,76.1667 11,87.5C 13.582,98.4141 16.4153,109.247 19.5,120C 19.2568,120.902 18.9234,121.735 18.5,122.5C 9.78203,103.175 6.78203,82.8416 9.5,61.5C 8.11108,54.8274 6.61108,48.1607 5,41.5C 4.15193,34.1008 4.48526,26.7675 6,19.5C 11.5384,6.15411 21.0384,2.32078 34.5,8C 38.9523,11.7667 42.2856,16.2667 44.5,21.5C 43.8507,10.8011 48.8507,4.80106 59.5,3.5C 66.4335,4.04656 70.6002,7.71322 72,14.5C 79.5718,11.1349 85.2384,13.1349 89,20.5C 89.2518,23.6669 89.4185,26.6669 89.5,29.5C 97.3615,25.6839 103.195,27.6839 107,35.5C 108.075,39.77 108.575,44.1033 108.5,48.5C 113.28,47.6409 116.78,49.3075 119,53.5C 120.275,60.4679 121.442,67.4679 122.5,74.5C 122.283,85.473 122.116,96.473 122,107.5C 121.317,112.234 120.317,116.9 119,121.5C 118.617,122.056 118.117,122.389 117.5,122.5 Z M 44.5,21.5 C 49.9852,31.2384 50.9852,41.5718 47.5,52.5C 45.8087,54.2562 43.8087,54.7562 41.5,54C 45.4609,43.4749 46.4609,32.6416 44.5,21.5 Z"/></g>
<g><path style="opacity:1" fill="#fad7b5" d="M 68.5,57.5 C 68.6396,60.779 68.9729,64.1124 69.5,67.5C 72.2884,68.96 74.4551,68.2933 76,65.5C 76.6667,57.5 76.6667,49.5 76,41.5C 74.0503,35.6787 73.217,29.6787 73.5,23.5C 75.5887,24.8914 77.922,25.5581 80.5,25.5C 84.3661,25.4645 86.1995,23.4645 86,19.5C 85.3025,27.4985 85.4692,35.4985 86.5,43.5C 85.0763,50.104 84.0763,56.7706 83.5,63.5C 85.6636,63.2785 87.3303,62.2785 88.5,60.5C 89.5808,63.6267 90.2474,66.9601 90.5,70.5C 91.5,70.5 92.5,70.5 93.5,70.5C 96.4988,60.9836 95.9988,51.6503 92,42.5C 91.5014,38.8484 91.3347,35.1817 91.5,31.5C 93.9959,29.1711 96.6626,29.0044 99.5,31C 94.956,31.0217 93.456,33.1884 95,37.5C 98.286,41.4851 101.619,41.4851 105,37.5C 105.886,49.7995 104.386,61.7995 100.5,73.5C 100.833,74.8333 101.167,76.1667 101.5,77.5C 103.647,69.5788 105.48,61.5788 107,53.5C 109.068,50.3546 111.568,49.8546 114.5,52C 111.125,53.0295 109.958,55.1961 111,58.5C 113.228,60.1134 115.728,60.78 118.5,60.5C 119.182,72.3264 119.849,84.1597 120.5,96C 120.282,104.194 118.949,112.194 116.5,120C 116.743,120.902 117.077,121.735 117.5,122.5C 88.5,122.5 59.5,122.5 30.5,122.5C 25.4807,116.792 22.314,110.125 21,102.5C 20.9232,86.1651 20.9232,69.8318 21,53.5C 17.8615,44.9 15.0281,36.2333 12.5,27.5C 18.8112,36.0158 25.9779,36.6825 34,29.5C 36.2984,25.7824 36.9651,21.7824 36,17.5C 34.4207,15.9588 32.5873,14.7922 30.5,14C 26.5,13.3333 22.5,13.3333 18.5,14C 15.9746,14.4238 13.9746,15.5905 12.5,17.5C 11.596,16.791 11.2627,15.791 11.5,14.5C 16.3856,7.92933 22.7189,6.096 30.5,9C 39.2338,14.4582 43.5671,22.4582 43.5,33C 42.8659,40.0032 41.5325,46.8366 39.5,53.5C 37.3219,59.6771 37.1552,66.0104 39,72.5C 42.5576,77.5291 47.391,79.6958 53.5,79C 54.6667,78.5 55.5,77.6667 56,76.5C 56.6667,62.1667 56.6667,47.8333 56,33.5C 54.5621,27.9573 52.5621,22.624 50,17.5C 49.5045,15.5273 49.3379,13.5273 49.5,11.5C 53.8892,6.44458 59.2226,5.27791 65.5,8C 66.6956,8.65431 66.6956,9.15431 65.5,9.5C 62.562,8.42517 59.562,8.2585 56.5,9C 55.3333,9.5 54.5,10.3333 54,11.5C 53.7206,16.2327 56.054,18.8994 61,19.5C 66.2972,18.8641 68.6306,15.8641 68,10.5C 68.3333,11.1667 68.6667,11.8333 69,12.5C 69.6368,17.9364 69.1368,23.2697 67.5,28.5C 67.7657,38.1723 68.099,47.8389 68.5,57.5 Z M 44.5,21.5 C 46.4609,32.6416 45.4609,43.4749 41.5,54C 43.8087,54.7562 45.8087,54.2562 47.5,52.5C 50.9852,41.5718 49.9852,31.2384 44.5,21.5 Z"/></g>
<g><path style="opacity:1" fill="#f0e3d9" d="M 56.5,10.5 C 59.1873,10.3359 61.854,10.5026 64.5,11C 65.9798,16.1884 63.9798,18.1884 58.5,17C 55.6793,15.3787 55.0126,13.212 56.5,10.5 Z"/></g>
<g><path style="opacity:1" fill="#1a1816" d="M 12.5,27.5 C 11.7878,24.0749 11.7878,20.7415 12.5,17.5C 13.9746,15.5905 15.9746,14.4238 18.5,14C 22.5,13.3333 26.5,13.3333 30.5,14C 32.5873,14.7922 34.4207,15.9588 36,17.5C 36.9651,21.7824 36.2984,25.7824 34,29.5C 25.9779,36.6825 18.8112,36.0158 12.5,27.5 Z"/></g>
<g><path style="opacity:1" fill="#f6e8de" d="M 18.5,15.5 C 23.6989,15.0144 28.6989,15.6811 33.5,17.5C 35.1553,28.3457 30.4886,33.179 19.5,32C 14.7514,28.767 12.9181,24.267 14,18.5C 15.4087,17.2189 16.9087,16.2189 18.5,15.5 Z"/></g>
<g><path style="opacity:1" fill="#f7c59c" d="M 49.5,11.5 C 49.3379,13.5273 49.5045,15.5273 50,17.5C 52.5621,22.624 54.5621,27.9573 56,33.5C 56.6667,47.8333 56.6667,62.1667 56,76.5C 55.5,77.6667 54.6667,78.5 53.5,79C 47.391,79.6958 42.5576,77.5291 39,72.5C 37.1552,66.0104 37.3219,59.6771 39.5,53.5C 39.5,55.8333 39.5,58.1667 39.5,60.5C 39.56,61.0431 39.8933,61.3764 40.5,61.5C 41.4287,60.3112 41.762,58.9778 41.5,57.5C 43.099,57.7678 44.4324,57.4345 45.5,56.5C 46.8589,57.0065 47.8589,58.0065 48.5,59.5C 50.0615,56.0366 50.8949,52.37 51,48.5C 51.6667,41.8333 51.6667,35.1667 51,28.5C 47.1386,22.9503 46.6386,17.2837 49.5,11.5 Z"/></g>
<g><path style="opacity:1" fill="#f2c198" d="M 73.5,23.5 C 73.217,29.6787 74.0503,35.6787 76,41.5C 76.6667,49.5 76.6667,57.5 76,65.5C 74.4551,68.2933 72.2884,68.96 69.5,67.5C 68.9729,64.1124 68.6396,60.779 68.5,57.5C 69.6491,57.2089 70.3158,56.3756 70.5,55C 70.2594,44.8335 70.0927,34.6669 70,24.5C 70.5756,21.4591 71.7423,18.7925 73.5,16.5C 73.838,18.6552 73.838,20.9885 73.5,23.5 Z"/></g>
<g><path style="opacity:0.99" fill="#f6c39b" d="M 11.5,14.5 C 11.2627,15.791 11.596,16.791 12.5,17.5C 11.7878,20.7415 11.7878,24.0749 12.5,27.5C 15.0281,36.2333 17.8615,44.9 21,53.5C 20.9232,69.8318 20.9232,86.1651 21,102.5C 22.314,110.125 25.4807,116.792 30.5,122.5C 26.5,122.5 22.5,122.5 18.5,122.5C 18.9234,121.735 19.2568,120.902 19.5,120C 16.4153,109.247 13.582,98.4141 11,87.5C 11,76.1667 11,64.8333 11,53.5C 8.15818,46.6162 6.65818,39.4496 6.5,32C 6.40003,25.5522 8.0667,19.7188 11.5,14.5 Z"/></g>
<g><path style="opacity:1" fill="#ede0d6" d="M 76.5,17.5 C 81.186,16.984 83.5193,18.984 83.5,23.5C 81.1432,23.6633 78.8098,23.4966 76.5,23C 75.2475,21.1722 75.2475,19.3388 76.5,17.5 Z"/></g>
<g><path style="opacity:1" fill="#fbc89f" d="M 91.5,31.5 C 91.3347,35.1817 91.5014,38.8484 92,42.5C 95.9988,51.6503 96.4988,60.9836 93.5,70.5C 92.5,70.5 91.5,70.5 90.5,70.5C 90.2474,66.9601 89.5808,63.6267 88.5,60.5C 88.7316,51.5455 88.8983,42.5455 89,33.5C 89.7083,32.6195 90.5416,31.9528 91.5,31.5 Z"/></g>
<g><path style="opacity:1" fill="#efe2d7" d="M 96.5,33.5 C 98.5,33.5 100.5,33.5 102.5,33.5C 102.5,35.1667 102.5,36.8333 102.5,38.5C 98.062,39.5749 96.062,37.9083 96.5,33.5 Z"/></g>
<g><path style="opacity:1" fill="#e3d6cd" d="M 113.5,54.5 C 116.5,54.1667 117.833,55.5 117.5,58.5C 113.56,59.234 112.227,57.9007 113.5,54.5 Z"/></g>
<g><path style="opacity:1" fill="#6f5845" d="M 45.5,56.5 C 44.4324,57.4345 43.099,57.7678 41.5,57.5C 41.762,58.9778 41.4287,60.3112 40.5,61.5C 39.8933,61.3764 39.56,61.0431 39.5,60.5C 40.4345,59.4324 40.7678,58.099 40.5,56.5C 42.1667,56.5 43.8333,56.5 45.5,56.5 Z"/></g>
<g><path style="opacity:1" fill="#848484" d="M 86.5,53.5 C 87.874,55.5167 87.7074,57.5167 86,59.5C 85.5099,57.4546 85.6765,55.4546 86.5,53.5 Z"/></g>
</svg>
