<?xml version="1.0" encoding="UTF-8"?>
<!DOCTYPE svg PUBLIC "-//W3C//DTD SVG 1.1//EN" "http://www.w3.org/Graphics/SVG/1.1/DTD/svg11.dtd">
<svg xmlns="http://www.w3.org/2000/svg" version="1.1" width="128px" height="128px" style="shape-rendering:geometricPrecision; text-rendering:geometricPrecision; image-rendering:optimizeQuality; fill-rule:evenodd; clip-rule:evenodd" xmlns:xlink="http://www.w3.org/1999/xlink">
<g><path style="opacity:0.916" fill="#0b0807" d="M 30.5,-0.5 C 52.1667,-0.5 73.8333,-0.5 95.5,-0.5C 97.7431,2.7261 98.0764,6.2261 96.5,10C 96.1639,11.0299 95.4972,11.5299 94.5,11.5C 93.3054,11.1344 92.6387,10.301 92.5,9C 93.2335,7.23411 93.5668,5.40078 93.5,3.5C 91.5,3.5 89.5,3.5 87.5,3.5C 69.5,3.5 51.5,3.5 33.5,3.5C 36.0029,16.529 36.0029,29.529 33.5,42.5C 48.3428,42.1707 63.0095,42.504 77.5,43.5C 62.5327,45.3209 47.1994,46.1542 31.5,46C 27.7826,55.8283 25.2826,65.995 24,76.5C 23.3292,77.2524 22.4959,77.5858 21.5,77.5C 20.4163,72.6323 20.5829,67.6323 22,62.5C 24.003,52.8251 27.003,43.4917 31,34.5C 31.4634,24.9616 30.9634,15.4616 29.5,6C 29.6527,3.78413 29.9861,1.61746 30.5,-0.5 Z"/></g>
<g><path style="opacity:1" fill="#facfa1" d="M 87.5,3.5 C 85.1618,16.2058 85.1618,28.8725 87.5,41.5C 85.901,41.2322 84.5676,41.5655 83.5,42.5C 82.8333,42.5 82.5,42.8333 82.5,43.5C 80.8333,43.5 79.1667,43.5 77.5,43.5C 63.0095,42.504 48.3428,42.1707 33.5,42.5C 36.0029,29.529 36.0029,16.529 33.5,3.5C 51.5,3.5 69.5,3.5 87.5,3.5 Z"/></g>
<g><path style="opacity:0.986" fill="#efb27e" d="M 87.5,3.5 C 89.5,3.5 91.5,3.5 93.5,3.5C 93.5668,5.40078 93.2335,7.23411 92.5,9C 92.6387,10.301 93.3054,11.1344 94.5,11.5C 94.5,12.8333 94.5,14.1667 94.5,15.5C 93.5041,15.4142 92.6708,15.7476 92,16.5C 91.0844,25.2725 91.5844,33.9391 93.5,42.5C 90.1667,42.5 86.8333,42.5 83.5,42.5C 84.5676,41.5655 85.901,41.2322 87.5,41.5C 85.1618,28.8725 85.1618,16.2058 87.5,3.5 Z"/></g>
<g><path style="opacity:0.84" fill="#040301" d="M -0.5,32.5 C -0.5,28.1667 -0.5,23.8333 -0.5,19.5C 3.76846,18.6274 8.10179,18.2941 12.5,18.5C 12.5,17.5 12.5,16.5 12.5,15.5C 18.752,15.877 23.9187,18.5437 28,23.5C 28.6667,25.1667 28.6667,26.8333 28,28.5C 24.504,32.0091 20.504,34.6758 16,36.5C 10.899,34.0799 5.39901,32.7466 -0.5,32.5 Z"/></g>
<g><path style="opacity:0.906" fill="#070404" d="M 94.5,15.5 C 93.9409,27.7008 96.4409,39.3675 102,50.5C 109.113,76.1983 109.279,101.865 102.5,127.5C 90.8333,127.5 79.1667,127.5 67.5,127.5C 67.2172,126.711 66.7172,126.044 66,125.5C 65.6667,114.833 65.3333,104.167 65,93.5C 64,92.1667 63,92.1667 62,93.5C 61.6667,104.167 61.3333,114.833 61,125.5C 60.2828,126.044 59.7828,126.711 59.5,127.5C 47.8333,127.5 36.1667,127.5 24.5,127.5C 21.7528,119.117 20.2528,110.45 20,101.5C 19.3333,95.1667 19.3333,88.8333 20,82.5C 20.3826,81.944 20.8826,81.6107 21.5,81.5C 22.1174,81.6107 22.6174,81.944 23,82.5C 23.4605,92.8708 24.2939,103.204 25.5,113.5C 36.1667,113.5 46.8333,113.5 57.5,113.5C 57.3337,106.159 57.5003,98.8258 58,91.5C 61.6667,87.5 65.3333,87.5 69,91.5C 69.4997,98.8258 69.6663,106.159 69.5,113.5C 80.3464,113.828 91.0131,113.494 101.5,112.5C 105.589,89.8111 103.589,67.8111 95.5,46.5C 90.9063,46.1349 86.573,45.1349 82.5,43.5C 82.5,42.8333 82.8333,42.5 83.5,42.5C 86.8333,42.5 90.1667,42.5 93.5,42.5C 91.5844,33.9391 91.0844,25.2725 92,16.5C 92.6708,15.7476 93.5041,15.4142 94.5,15.5 Z"/></g>
<g><path style="opacity:0.843" fill="#040301" d="M 127.5,19.5 C 127.5,23.8333 127.5,28.1667 127.5,32.5C 120.855,33.2075 114.522,34.3741 108.5,36C 105.833,34 103.167,32 100.5,30C 98.6041,28.1917 98.1041,26.025 99,23.5C 102.167,21 105.333,18.5 108.5,16C 114.522,17.6259 120.855,18.7925 127.5,19.5 Z"/></g>
<g><path style="opacity:1" fill="#eaca67" d="M 109.5,20.5 C 113.866,22.3713 118.533,23.038 123.5,22.5C 123.5,24.8333 123.5,27.1667 123.5,29.5C 118.678,28.9347 114.178,29.6013 110,31.5C 107.357,30.0237 105.19,28.0237 103.5,25.5C 105.544,23.7806 107.544,22.1139 109.5,20.5 Z"/></g>
<g><path style="opacity:1" fill="#eacb67" d="M 16.5,20.5 C 19.0934,21.7536 21.4268,23.4202 23.5,25.5C 21.8099,28.0237 19.6432,30.0237 17,31.5C 12.8222,29.6013 8.3222,28.9347 3.5,29.5C 3.5,27.1667 3.5,24.8333 3.5,22.5C 7.51383,22.6655 11.5138,22.4988 15.5,22C 16.056,21.6174 16.3893,21.1174 16.5,20.5 Z"/></g>
<g><path style="opacity:1" fill="#1a1612" d="M 61.5,25.5 C 62.8333,25.5 64.1667,25.5 65.5,25.5C 65.6641,28.1873 65.4974,30.854 65,33.5C 64,34.8333 63,34.8333 62,33.5C 61.5026,30.854 61.3359,28.1873 61.5,25.5 Z"/></g>
<g><path style="opacity:1" fill="#faa0c2" d="M 77.5,43.5 C 79.1667,43.5 80.8333,43.5 82.5,43.5C 86.573,45.1349 90.9063,46.1349 95.5,46.5C 93.712,46.2148 92.0453,46.5481 90.5,47.5C 93.9178,55.838 96.0845,64.5047 97,73.5C 97.6608,86.5143 97.4941,99.5143 96.5,112.5C 98.1667,112.5 99.8333,112.5 101.5,112.5C 91.0131,113.494 80.3464,113.828 69.5,113.5C 69.6663,106.159 69.4997,98.8258 69,91.5C 65.3333,87.5 61.6667,87.5 58,91.5C 57.5003,98.8258 57.3337,106.159 57.5,113.5C 46.8333,113.5 36.1667,113.5 25.5,113.5C 24.2939,103.204 23.4605,92.8708 23,82.5C 22.6174,81.944 22.1174,81.6107 21.5,81.5C 21.5,80.1667 21.5,78.8333 21.5,77.5C 22.4959,77.5858 23.3292,77.2524 24,76.5C 25.2826,65.995 27.7826,55.8283 31.5,46C 47.1994,46.1542 62.5327,45.3209 77.5,43.5 Z"/></g>
<g><path style="opacity:1" fill="#f1709f" d="M 95.5,46.5 C 103.589,67.8111 105.589,89.8111 101.5,112.5C 99.8333,112.5 98.1667,112.5 96.5,112.5C 97.4941,99.5143 97.6608,86.5143 97,73.5C 96.0845,64.5047 93.9178,55.838 90.5,47.5C 92.0453,46.5481 93.712,46.2148 95.5,46.5 Z"/></g>
<g><path style="opacity:1" fill="#a28668" d="M 57.5,117.5 C 46.7792,116.858 36.4459,117.525 26.5,119.5C 25.596,118.791 25.2627,117.791 25.5,116.5C 36.3464,116.172 47.0131,116.506 57.5,117.5 Z"/></g>
<g><path style="opacity:1" fill="#a48566" d="M 69.5,117.5 C 79.9869,116.506 90.6536,116.172 101.5,116.5C 101.737,117.791 101.404,118.791 100.5,119.5C 90.5541,117.525 80.2208,116.858 69.5,117.5 Z"/></g>
<g><path style="opacity:1" fill="#fcd0a2" d="M 57.5,117.5 C 57.5,119.5 57.5,121.5 57.5,123.5C 47.1667,123.5 36.8333,123.5 26.5,123.5C 26.5,122.167 26.5,120.833 26.5,119.5C 36.4459,117.525 46.7792,116.858 57.5,117.5 Z"/></g>
<g><path style="opacity:1" fill="#fccd9e" d="M 69.5,117.5 C 80.2208,116.858 90.5541,117.525 100.5,119.5C 100.5,120.833 100.5,122.167 100.5,123.5C 90.1667,123.5 79.8333,123.5 69.5,123.5C 69.5,121.5 69.5,119.5 69.5,117.5 Z"/></g>
</svg>
