<?xml version="1.0" encoding="UTF-8"?>
<!DOCTYPE svg PUBLIC "-//W3C//DTD SVG 1.1//EN" "http://www.w3.org/Graphics/SVG/1.1/DTD/svg11.dtd">
<svg xmlns="http://www.w3.org/2000/svg" version="1.1" width="128px" height="128px" style="shape-rendering:geometricPrecision; text-rendering:geometricPrecision; image-rendering:optimizeQuality; fill-rule:evenodd; clip-rule:evenodd" xmlns:xlink="http://www.w3.org/1999/xlink">
<g><path style="opacity:1" fill="#fcd4e3" d="M 85.5,98.5 C 85.8333,99.1667 86.1667,99.8333 86.5,100.5C 84.1571,103.424 83.8237,106.757 85.5,110.5C 85.8333,111.167 86.1667,111.833 86.5,112.5C 84.88,113.841 83.88,115.674 83.5,118C 72.1667,118.667 60.8333,118.667 49.5,118C 48.5112,105.58 48.1779,93.08 48.5,80.5C 49.8734,80.6567 51.2068,80.49 52.5,80C 44.0376,78.5182 37.2043,74.3515 32,67.5C 26.011,58.55 23.6777,48.8834 25,38.5C 27.3128,35.9277 30.1461,34.261 33.5,33.5C 34.1667,38.1667 34.8333,42.8333 35.5,47.5C 36.3307,35.6737 36.8307,23.6737 37,11.5C 41.2451,4.94064 45.5784,4.94064 50,11.5C 50.3333,19.1667 50.6667,26.8333 51,34.5C 52.3043,25.996 52.971,17.3294 53,8.5C 57,4.5 61,4.5 65,8.5C 66,43.1667 67,43.1667 68,8.5C 72,4.5 76,4.5 80,8.5C 80.029,17.3294 80.6957,25.996 82,34.5C 82.3333,28.5 82.6667,22.5 83,16.5C 87.3333,11.1667 91.6667,11.1667 96,16.5C 96.6667,29.8333 96.6667,43.1667 96,56.5C 94.746,64.2809 91.5794,71.1142 86.5,77C 84.7795,77.7393 83.1128,78.5726 81.5,79.5C 82.325,80.3857 83.325,80.719 84.5,80.5C 84.1771,86.69 84.5104,92.69 85.5,98.5 Z"/></g>
<g><path style="opacity:0.978" fill="#d6d6db" d="M 82.5,7.5 C 83.8333,8.16667 84.8333,9.16667 85.5,10.5C 85.189,11.4778 84.5223,12.1445 83.5,12.5C 82.5481,10.9547 82.2148,9.28801 82.5,7.5 Z"/></g>
<g><path style="opacity:0.907" fill="#453668" d="M 82.5,7.5 C 82.2148,9.28801 82.5481,10.9547 83.5,12.5C 84.5223,12.1445 85.189,11.4778 85.5,10.5C 90.6263,8.4651 94.6263,9.79844 97.5,14.5C 98.6318,28.4551 98.7984,42.4551 98,56.5C 96.7334,65.3648 93.0668,73.0315 87,79.5C 86.8279,86.0133 86.3279,92.3466 85.5,98.5C 84.5104,92.69 84.1771,86.69 84.5,80.5C 83.325,80.719 82.325,80.3857 81.5,79.5C 83.1128,78.5726 84.7795,77.7393 86.5,77C 91.5794,71.1142 94.746,64.2809 96,56.5C 96.6667,43.1667 96.6667,29.8333 96,16.5C 91.6667,11.1667 87.3333,11.1667 83,16.5C 82.6667,22.5 82.3333,28.5 82,34.5C 80.6957,25.996 80.029,17.3294 80,8.5C 76,4.5 72,4.5 68,8.5C 67,43.1667 66,43.1667 65,8.5C 61,4.5 57,4.5 53,8.5C 52.971,17.3294 52.3043,25.996 51,34.5C 50.6667,26.8333 50.3333,19.1667 50,11.5C 45.5784,4.94064 41.2451,4.94064 37,11.5C 36.8307,23.6737 36.3307,35.6737 35.5,47.5C 35.8275,42.456 35.4941,37.456 34.5,32.5C 33.8933,32.6236 33.56,32.9569 33.5,33.5C 30.1461,34.261 27.3128,35.9277 25,38.5C 23.6777,48.8834 26.011,58.55 32,67.5C 37.2043,74.3515 44.0376,78.5182 52.5,80C 51.2068,80.49 49.8734,80.6567 48.5,80.5C 48.1779,93.08 48.5112,105.58 49.5,118C 60.8333,118.667 72.1667,118.667 83.5,118C 83.88,115.674 84.88,113.841 86.5,112.5C 86.8957,115.044 86.229,117.211 84.5,119C 72.7577,119.188 61.091,119.688 49.5,120.5C 48.2058,119.71 47.0391,118.71 46,117.5C 45.5005,111.509 45.3338,105.509 45.5,99.5C 45.5,98.5 45.5,97.5 45.5,96.5C 45.5,95.5 45.5,94.5 45.5,93.5C 45.5,92.8333 45.5,92.1667 45.5,91.5C 45.5,90.5 45.5,89.5 45.5,88.5C 45.5,87.5 45.5,86.5 45.5,85.5C 45.5,84.5 45.5,83.5 45.5,82.5C 46.7736,81.8106 46.7736,80.9772 45.5,80C 42.4469,78.4734 39.4469,76.9734 36.5,75.5C 27.1236,67.415 22.1236,57.0817 21.5,44.5C 21.4526,41.7052 21.9526,39.0385 23,36.5C 26.3281,33.6673 29.9948,31.334 34,29.5C 34.0699,22.0615 34.7365,14.7282 36,7.5C 40.5504,3.91294 45.3838,3.57961 50.5,6.5C 55.5596,1.63377 60.893,1.30044 66.5,5.5C 72.6002,0.9641 77.9336,1.63077 82.5,7.5 Z"/></g>
<g><path style="opacity:0.962" fill="#dfdfe2" d="M 97.5,14.5 C 99.5041,15.6728 101.004,17.3395 102,19.5C 102.667,34.5 102.667,49.5 102,64.5C 100.289,70.2522 97.7893,75.5855 94.5,80.5C 93.8333,80.5 93.5,80.8333 93.5,81.5C 92.0937,81.9731 91.427,82.9731 91.5,84.5C 91.5,85.5 91.5,86.5 91.5,87.5C 91.5,88.1667 91.5,88.8333 91.5,89.5C 91.5,90.5 91.5,91.5 91.5,92.5C 91.5,93.1667 91.5,93.8333 91.5,94.5C 91.6664,103.506 91.4998,112.506 91,121.5C 90.6924,122.308 90.1924,122.975 89.5,123.5C 77.2125,124.646 64.8792,124.813 52.5,124C 51.2899,122.961 50.2899,121.794 49.5,120.5C 61.091,119.688 72.7577,119.188 84.5,119C 86.229,117.211 86.8957,115.044 86.5,112.5C 86.1667,111.833 85.8333,111.167 85.5,110.5C 86.4794,107.375 86.8128,104.042 86.5,100.5C 86.1667,99.8333 85.8333,99.1667 85.5,98.5C 86.3279,92.3466 86.8279,86.0133 87,79.5C 93.0668,73.0315 96.7334,65.3648 98,56.5C 98.7984,42.4551 98.6318,28.4551 97.5,14.5 Z"/></g>
<g><path style="opacity:1" fill="#8c7396" d="M 33.5,33.5 C 33.56,32.9569 33.8933,32.6236 34.5,32.5C 35.4941,37.456 35.8275,42.456 35.5,47.5C 34.8333,42.8333 34.1667,38.1667 33.5,33.5 Z"/></g>
<g><path style="opacity:0.729" fill="#d0cfd7" d="M 36.5,75.5 C 39.4469,76.9734 42.4469,78.4734 45.5,80C 46.7736,80.9772 46.7736,81.8106 45.5,82.5C 44.1667,82.1667 42.8333,81.8333 41.5,81.5C 39.8333,79.5 38.1667,77.5 36.5,75.5 Z"/></g>
<g><path style="opacity:0.782" fill="#3b2e61" d="M 41.5,81.5 C 41.5,82.5 41.5,83.5 41.5,84.5C 39.5,84.1667 37.5,83.8333 35.5,83.5C 34.2794,82.9717 33.1127,82.305 32,81.5C 31.5683,80.3999 32.0683,79.7332 33.5,79.5C 36.1298,80.3779 38.7965,81.0445 41.5,81.5 Z"/></g>
<g><path style="opacity:0.813" fill="#382b5c" d="M 91.5,84.5 C 91.427,82.9731 92.0937,81.9731 93.5,81.5C 94.1667,81.5 94.5,81.1667 94.5,80.5C 96.8056,80.0074 99.139,79.6741 101.5,79.5C 101.5,80.5 101.5,81.5 101.5,82.5C 98.2107,83.3739 94.8774,84.0405 91.5,84.5 Z"/></g>
<g><path style="opacity:0.857" fill="#e5e6e7" d="M 35.5,83.5 C 37.5,83.8333 39.5,84.1667 41.5,84.5C 42.7079,85.2341 44.0413,85.5674 45.5,85.5C 45.5,86.5 45.5,87.5 45.5,88.5C 44.1667,88.5 42.8333,88.5 41.5,88.5C 40.791,87.596 39.791,87.2627 38.5,87.5C 36.7706,86.7638 35.7706,85.4305 35.5,83.5 Z"/></g>
<g><path style="opacity:0.874" fill="#e7e8e8" d="M 101.5,87.5 C 99.5,87.5 97.5,87.5 95.5,87.5C 98.113,84.8404 101.446,83.5071 105.5,83.5C 105.5,84.5 105.5,85.5 105.5,86.5C 104.041,86.4326 102.708,86.7659 101.5,87.5 Z"/></g>
<g><path style="opacity:0.953" fill="#3a2c60" d="M 38.5,87.5 C 39.791,87.2627 40.791,87.596 41.5,88.5C 38.3132,89.8056 34.9798,89.8056 31.5,88.5C 33.7427,87.5258 36.076,87.1924 38.5,87.5 Z"/></g>
<g><path style="opacity:0.953" fill="#3a2c60" d="M 91.5,87.5 C 92.8333,87.5 94.1667,87.5 95.5,87.5C 97.5,87.5 99.5,87.5 101.5,87.5C 98.6627,89.4023 95.3293,90.069 91.5,89.5C 91.5,88.8333 91.5,88.1667 91.5,87.5 Z"/></g>
<g><path style="opacity:0.941" fill="#e4e5e6" d="M 45.5,91.5 C 45.5,92.1667 45.5,92.8333 45.5,93.5C 44.1667,93.5 42.8333,93.5 41.5,93.5C 39.6907,92.7093 37.6907,92.7093 35.5,93.5C 38.3373,91.5977 41.6707,90.931 45.5,91.5 Z"/></g>
<g><path style="opacity:0.953" fill="#e5e6e8" d="M 98.5,93.5 C 97.209,93.7373 96.209,93.404 95.5,92.5C 98.6868,91.1944 102.02,91.1944 105.5,92.5C 103.257,93.4742 100.924,93.8076 98.5,93.5 Z"/></g>
<g><path style="opacity:0.756" fill="#3b2e61" d="M 91.5,92.5 C 92.8333,92.5 94.1667,92.5 95.5,92.5C 96.209,93.404 97.209,93.7373 98.5,93.5C 99.209,94.404 100.209,94.7373 101.5,94.5C 101.5,95.5 101.5,96.5 101.5,97.5C 99.5,97.1667 97.5,96.8333 95.5,96.5C 94.1667,95.8333 92.8333,95.1667 91.5,94.5C 91.5,93.8333 91.5,93.1667 91.5,92.5 Z"/></g>
<g><path style="opacity:0.81" fill="#3b2e5f" d="M 41.5,93.5 C 38.887,96.1596 35.5537,97.4929 31.5,97.5C 31.5,96.5 31.5,95.5 31.5,94.5C 32.9587,94.5674 34.2921,94.2341 35.5,93.5C 37.6907,92.7093 39.6907,92.7093 41.5,93.5 Z"/></g>
<g><path style="opacity:0.872" fill="#e6e7e8" d="M 45.5,96.5 C 45.5,97.5 45.5,98.5 45.5,99.5C 42.2107,100.374 38.8774,101.041 35.5,101.5C 35.5,100.5 35.5,99.5 35.5,98.5C 38.7893,97.6261 42.1226,96.9595 45.5,96.5 Z"/></g>
<g><path style="opacity:0.855" fill="#e5e6e7" d="M 95.5,96.5 C 97.5,96.8333 99.5,97.1667 101.5,97.5C 102.708,98.2341 104.041,98.5674 105.5,98.5C 105.5,99.5 105.5,100.5 105.5,101.5C 103.073,101.477 100.74,100.977 98.5,100C 96.5743,99.5776 95.5743,98.4109 95.5,96.5 Z"/></g>
<g><path style="opacity:1" fill="#5d4b78" d="M 86.5,100.5 C 86.8128,104.042 86.4794,107.375 85.5,110.5C 83.8237,106.757 84.1571,103.424 86.5,100.5 Z"/></g>
</svg>
