<?xml version="1.0" encoding="UTF-8"?>
<!DOCTYPE svg PUBLIC "-//W3C//DTD SVG 1.1//EN" "http://www.w3.org/Graphics/SVG/1.1/DTD/svg11.dtd">
<svg xmlns="http://www.w3.org/2000/svg" version="1.1" width="128px" height="128px" style="shape-rendering:geometricPrecision; text-rendering:geometricPrecision; image-rendering:optimizeQuality; fill-rule:evenodd; clip-rule:evenodd" xmlns:xlink="http://www.w3.org/1999/xlink">
<g><path style="opacity:0.993" fill="#f9b890" d="M 99.5,19.5 C 99.6665,31.1714 99.4999,42.8381 99,54.5C 96.7742,58.8608 93.2742,60.3608 88.5,59C 86.3333,58.1667 84.8333,56.6667 84,54.5C 82.2289,65.0679 86.3956,68.9012 96.5,66C 97.8932,64.8289 98.7265,63.3289 99,61.5C 99.6667,73.5 99.6667,85.5 99,97.5C 98.7265,99.3289 97.8932,100.829 96.5,102C 66.8947,103.643 37.2281,103.976 7.5,103C 5.64977,102.31 4.31643,101.144 3.5,99.5C 2.62756,91.8831 5.96089,87.8831 13.5,87.5C 14.763,92.185 17.5964,93.5184 22,91.5C 22.49,90.2068 22.6567,88.8734 22.5,87.5C 38.4734,79.5133 54.4734,71.5133 70.5,63.5C 71.4993,48.8485 71.8326,34.1818 71.5,19.5C 80.8333,19.5 90.1667,19.5 99.5,19.5 Z"/></g>
<g><path style="opacity:1" fill="#f0915a" d="M 99.5,19.5 C 103.5,19.5 107.5,19.5 111.5,19.5C 111.333,38.1696 111.5,56.8363 112,75.5C 119.042,80.8732 121.375,87.8732 119,96.5C 116.833,101.333 113.333,104.833 108.5,107C 75.1667,107.667 41.8333,107.667 8.5,107C 5.69229,105.207 4.02562,102.707 3.5,99.5C 4.31643,101.144 5.64977,102.31 7.5,103C 37.2281,103.976 66.8947,103.643 96.5,102C 97.8932,100.829 98.7265,99.3289 99,97.5C 99.6667,85.5 99.6667,73.5 99,61.5C 98.7265,63.3289 97.8932,64.8289 96.5,66C 86.3956,68.9012 82.2289,65.0679 84,54.5C 84.8333,56.6667 86.3333,58.1667 88.5,59C 93.2742,60.3608 96.7742,58.8608 99,54.5C 99.4999,42.8381 99.6665,31.1714 99.5,19.5 Z"/></g>
<g><path style="opacity:0.952" fill="#54596e" d="M 52.5,39.5 C 54.5273,39.3379 56.5273,39.5045 58.5,40C 62.5301,43.1769 65.5301,47.0102 67.5,51.5C 65.5301,55.9898 62.5301,59.8231 58.5,63C 53.0866,64.9 50.7532,63.0666 51.5,57.5C 46.1667,57.5 40.8333,57.5 35.5,57.5C 35.5,53.5 35.5,49.5 35.5,45.5C 40.8333,45.5 46.1667,45.5 51.5,45.5C 51.3253,43.3792 51.6586,41.3792 52.5,39.5 Z"/></g>
<g><path style="opacity:0.787" fill="#54596b" d="M 119.5,44.5 C 120.833,44.5 122.167,44.5 123.5,44.5C 123.944,49.0669 121.944,52.0669 117.5,53.5C 116.119,53.0004 115.453,52.0004 115.5,50.5C 116.432,48.2345 117.765,46.2345 119.5,44.5 Z"/></g>
<g><path style="opacity:0.78" fill="#55596d" d="M 115.5,56.5 C 118.167,56.5 120.833,56.5 123.5,56.5C 124.245,59.9304 122.911,61.597 119.5,61.5C 116.089,61.597 114.755,59.9304 115.5,56.5 Z"/></g>
<g><path style="opacity:0.787" fill="#54596b" d="M 115.5,64.5 C 121.11,64.9222 123.443,67.7555 122.5,73C 117.511,72.5012 115.178,69.6679 115.5,64.5 Z"/></g>
<g><path style="opacity:1" fill="#f0935c" d="M 13.5,87.5 C 16.5,87.5 19.5,87.5 22.5,87.5C 22.6567,88.8734 22.49,90.2068 22,91.5C 17.5964,93.5184 14.763,92.185 13.5,87.5 Z"/></g>
</svg>
