<?xml version="1.0" encoding="UTF-8"?>
<!DOCTYPE svg PUBLIC "-//W3C//DTD SVG 1.1//EN" "http://www.w3.org/Graphics/SVG/1.1/DTD/svg11.dtd">
<svg xmlns="http://www.w3.org/2000/svg" version="1.1" width="128px" height="128px" style="shape-rendering:geometricPrecision; text-rendering:geometricPrecision; image-rendering:optimizeQuality; fill-rule:evenodd; clip-rule:evenodd" xmlns:xlink="http://www.w3.org/1999/xlink">
<g><path style="opacity:0.872" fill="#0c0706" d="M 51.5,-0.5 C 59.5,-0.5 67.5,-0.5 75.5,-0.5C 75.3459,3.02539 76.6792,5.85872 79.5,8C 87.7903,9.74657 96.1236,11.4132 104.5,13C 110.925,14.4269 115.092,18.2602 117,24.5C 117.279,30.3574 117.779,36.1908 118.5,42C 118.613,43.6991 117.947,44.8658 116.5,45.5C 115.828,44.7326 114.995,44.0659 114,43.5C 113.667,37.5 113.333,31.5 113,25.5C 112.011,22.0132 109.845,19.6799 106.5,18.5C 98.8348,15.4193 90.8348,13.9193 82.5,14C 79.3515,13.2616 76.6848,11.7616 74.5,9.5C 73.2228,7.85162 72.2228,6.01829 71.5,4C 69.8659,3.50649 68.1992,3.33982 66.5,3.5C 62.8183,3.3347 59.1516,3.50137 55.5,4C 52.7438,11.8536 47.4105,14.687 39.5,12.5C 39.4142,11.5041 39.7476,10.6708 40.5,10C 47.3082,9.69036 50.9748,6.19036 51.5,-0.5 Z"/></g>
<g><path style="opacity:1" fill="#fab88f" d="M 66.5,3.5 C 67.1268,8.11893 69.7935,10.1189 74.5,9.5C 76.6848,11.7616 79.3515,13.2616 82.5,14C 90.8348,13.9193 98.8348,15.4193 106.5,18.5C 106.892,20.1789 107.392,21.8455 108,23.5C 107.625,41.7058 109.292,59.7058 113,77.5C 113.671,92.846 113.504,108.179 112.5,123.5C 111.167,123.5 109.833,123.5 108.5,123.5C 106.358,112.107 105.025,100.607 104.5,89C 105.598,74.4183 103.598,60.2516 98.5,46.5C 96.1671,45.0585 94.8338,45.7252 94.5,48.5C 88.4192,57.3337 83.9192,67.0004 81,77.5C 80.3333,83.8333 80.3333,90.1667 81,96.5C 82.2503,105.503 83.417,114.503 84.5,123.5C 78.1667,123.5 71.8333,123.5 65.5,123.5C 65.6666,104.164 65.5,84.8305 65,65.5C 64,64.1667 63,64.1667 62,65.5C 61.5,84.8305 61.3334,104.164 61.5,123.5C 53.5,123.5 45.5,123.5 37.5,123.5C 37.5,121.833 37.5,120.167 37.5,118.5C 37.7359,115.391 37.4025,112.391 36.5,109.5C 36.5,108.167 36.5,106.833 36.5,105.5C 37.4959,105.586 38.3292,105.252 39,104.5C 40.7056,96.9026 41.3722,89.2359 41,81.5C 38.643,72.4405 35.9763,63.4405 33,54.5C 32.6667,51.8333 32.3333,49.1667 32,46.5C 29.7545,45.2054 28.2545,45.872 27.5,48.5C 25.629,48.8588 24.129,49.8588 23,51.5C 20.7696,55.9617 19.1029,60.6284 18,65.5C 17.4386,84.9647 15.6053,104.298 12.5,123.5C 11.1667,123.5 9.83333,123.5 8.5,123.5C 7.69066,109.173 7.52399,94.8394 8,80.5C 11.1022,62.3224 13.1022,43.989 14,25.5C 14.8834,22.8976 16.3834,20.7309 18.5,19C 23.6282,16.907 28.9616,15.5736 34.5,15C 35.0659,14.0053 35.7326,13.172 36.5,12.5C 37.5,12.5 38.5,12.5 39.5,12.5C 47.4105,14.687 52.7438,11.8536 55.5,4C 59.1516,3.50137 62.8183,3.3347 66.5,3.5 Z"/></g>
<g><path style="opacity:1" fill="#f4957a" d="M 66.5,3.5 C 68.1992,3.33982 69.8659,3.50649 71.5,4C 72.2228,6.01829 73.2228,7.85162 74.5,9.5C 69.7935,10.1189 67.1268,8.11893 66.5,3.5 Z"/></g>
<g><path style="opacity:0.871" fill="#080504" d="M 36.5,12.5 C 35.7326,13.172 35.0659,14.0053 34.5,15C 28.9616,15.5736 23.6282,16.907 18.5,19C 16.3834,20.7309 14.8834,22.8976 14,25.5C 13.1022,43.989 11.1022,62.3224 8,80.5C 7.52399,94.8394 7.69066,109.173 8.5,123.5C 9.83333,123.5 11.1667,123.5 12.5,123.5C 14.5,123.5 16.5,123.5 18.5,123.5C 21.5922,105.985 23.0922,88.3184 23,70.5C 23.6755,62.9551 25.1755,55.6217 27.5,48.5C 28.2545,45.872 29.7545,45.2054 32,46.5C 32.3333,49.1667 32.6667,51.8333 33,54.5C 35.9763,63.4405 38.643,72.4405 41,81.5C 41.3722,89.2359 40.7056,96.9026 39,104.5C 38.3292,105.252 37.4959,105.586 36.5,105.5C 35.8476,104.551 35.5143,103.385 35.5,102C 38.6014,86.7693 36.4347,72.2693 29,58.5C 26.968,72.4144 25.968,86.4144 26,100.5C 24.9292,109.591 23.4292,118.591 21.5,127.5C 15.8333,127.5 10.1667,127.5 4.5,127.5C 3.58121,111.509 3.41454,95.5085 4,79.5C 7.26533,61.321 9.26533,42.9876 10,24.5C 11.4056,19.4268 14.5723,15.9268 19.5,14C 24.0871,12.5199 28.7538,11.3532 33.5,10.5C 35.0377,10.4534 36.0377,11.1201 36.5,12.5 Z"/></g>
<g><path style="opacity:1" fill="#f39479" d="M 106.5,18.5 C 109.845,19.6799 112.011,22.0132 113,25.5C 113.333,31.5 113.667,37.5 114,43.5C 114.995,44.0659 115.828,44.7326 116.5,45.5C 116.5,46.5 116.5,47.5 116.5,48.5C 115.878,51.4153 115.544,54.4153 115.5,57.5C 116.499,65.1716 117.666,72.8383 119,80.5C 119.604,94.8436 119.437,109.177 118.5,123.5C 116.5,123.5 114.5,123.5 112.5,123.5C 113.504,108.179 113.671,92.846 113,77.5C 109.292,59.7058 107.625,41.7058 108,23.5C 107.392,21.8455 106.892,20.1789 106.5,18.5 Z"/></g>
<g><path style="opacity:1" fill="#18130f" d="M 54.5,28.5 C 55.5,28.5 56.5,28.5 57.5,28.5C 56.0379,37.924 52.0379,46.0907 45.5,53C 44.2068,53.49 42.8734,53.6567 41.5,53.5C 41.3505,52.448 41.5172,51.448 42,50.5C 48.4929,44.5027 52.6596,37.1693 54.5,28.5 Z"/></g>
<g><path style="opacity:1" fill="#120e0a" d="M 71.5,28.5 C 72.675,28.281 73.675,28.6143 74.5,29.5C 77.4933,38.1534 81.4933,46.1534 86.5,53.5C 85.448,53.6495 84.448,53.4828 83.5,53C 76.9525,46.0719 72.9525,37.9052 71.5,28.5 Z"/></g>
<g><path style="opacity:0.897" fill="#0b0705" d="M 112.5,123.5 C 114.5,123.5 116.5,123.5 118.5,123.5C 119.437,109.177 119.604,94.8436 119,80.5C 117.666,72.8383 116.499,65.1716 115.5,57.5C 115.544,54.4153 115.878,51.4153 116.5,48.5C 117.79,49.0577 118.623,50.0577 119,51.5C 119.688,60.9209 121.021,70.2543 123,79.5C 123.585,95.5085 123.419,111.509 122.5,127.5C 116.833,127.5 111.167,127.5 105.5,127.5C 101.251,109.099 99.4182,90.4318 100,71.5C 99.4265,67.1523 98.7599,62.819 98,58.5C 93.5453,67.8642 90.712,77.6975 89.5,88C 91.8764,101.089 93.5431,114.256 94.5,127.5C 73.8333,127.5 53.1667,127.5 32.5,127.5C 32.471,121.79 32.971,116.123 34,110.5C 34.6708,109.748 35.5041,109.414 36.5,109.5C 37.4025,112.391 37.7359,115.391 37.5,118.5C 36.5386,120.265 36.2053,122.265 36.5,124.5C 45.0168,124.826 53.3501,124.493 61.5,123.5C 61.3334,104.164 61.5,84.8305 62,65.5C 63,64.1667 64,64.1667 65,65.5C 65.5,84.8305 65.6666,104.164 65.5,123.5C 71.8333,123.5 78.1667,123.5 84.5,123.5C 86.5,123.5 88.5,123.5 90.5,123.5C 88.928,111.162 87.2613,98.829 85.5,86.5C 87.0775,75.5249 89.9108,64.8583 94,54.5C 94.4955,52.5273 94.6621,50.5273 94.5,48.5C 94.8338,45.7252 96.1671,45.0585 98.5,46.5C 103.598,60.2516 105.598,74.4183 104.5,89C 105.025,100.607 106.358,112.107 108.5,123.5C 109.833,123.5 111.167,123.5 112.5,123.5 Z"/></g>
<g><path style="opacity:1" fill="#f29479" d="M 27.5,48.5 C 25.1755,55.6217 23.6755,62.9551 23,70.5C 23.0922,88.3184 21.5922,105.985 18.5,123.5C 16.5,123.5 14.5,123.5 12.5,123.5C 15.6053,104.298 17.4386,84.9647 18,65.5C 19.1029,60.6284 20.7696,55.9617 23,51.5C 24.129,49.8588 25.629,48.8588 27.5,48.5 Z"/></g>
<g><path style="opacity:1" fill="#f39479" d="M 94.5,48.5 C 94.6621,50.5273 94.4955,52.5273 94,54.5C 89.9108,64.8583 87.0775,75.5249 85.5,86.5C 87.2613,98.829 88.928,111.162 90.5,123.5C 88.5,123.5 86.5,123.5 84.5,123.5C 83.417,114.503 82.2503,105.503 81,96.5C 80.3333,90.1667 80.3333,83.8333 81,77.5C 83.9192,67.0004 88.4192,57.3337 94.5,48.5 Z"/></g>
<g><path style="opacity:1" fill="#4d392c" d="M 37.5,118.5 C 37.5,120.167 37.5,121.833 37.5,123.5C 45.5,123.5 53.5,123.5 61.5,123.5C 53.3501,124.493 45.0168,124.826 36.5,124.5C 36.2053,122.265 36.5386,120.265 37.5,118.5 Z"/></g>
</svg>
