<?xml version="1.0" encoding="UTF-8"?>
<!DOCTYPE svg PUBLIC "-//W3C//DTD SVG 1.1//EN" "http://www.w3.org/Graphics/SVG/1.1/DTD/svg11.dtd">
<svg xmlns="http://www.w3.org/2000/svg" version="1.1" width="128px" height="128px" style="shape-rendering:geometricPrecision; text-rendering:geometricPrecision; image-rendering:optimizeQuality; fill-rule:evenodd; clip-rule:evenodd" xmlns:xlink="http://www.w3.org/1999/xlink">
<g><path style="opacity:0.864" fill="#070504" d="M 19.5,-0.5 C 20.8333,-0.5 22.1667,-0.5 23.5,-0.5C 23.5,-0.166667 23.5,0.166667 23.5,0.5C 23.7867,8.88612 23.2867,17.2195 22,25.5C 21.3292,26.2524 20.4959,26.5858 19.5,26.5C 19.0192,17.6796 19.0192,8.67961 19.5,-0.5 Z"/></g>
<g><path style="opacity:0.904" fill="#090908" d="M 103.5,-0.5 C 104.833,-0.5 106.167,-0.5 107.5,-0.5C 107.307,9.22648 107.974,18.8932 109.5,28.5C 112.195,41.6142 115.362,54.6142 119,67.5C 123.422,87.5142 123.589,107.514 119.5,127.5C 118.167,127.5 116.833,127.5 115.5,127.5C 115.5,127.167 115.5,126.833 115.5,126.5C 115.5,126.167 115.5,125.833 115.5,125.5C 118.866,109.75 119.366,93.7503 117,77.5C 116.781,76.062 116.281,74.7287 115.5,73.5C 112.231,74.4685 109.231,75.8019 106.5,77.5C 93.5418,82.9052 82.3751,90.9052 73,101.5C 71.9587,110.071 72.792,118.404 75.5,126.5C 75.5,126.833 75.5,127.167 75.5,127.5C 74.1667,127.5 72.8333,127.5 71.5,127.5C 69.1426,120.409 67.976,113.076 68,105.5C 65,106.833 62,106.833 59,105.5C 59.024,113.076 57.8574,120.409 55.5,127.5C 54.1667,127.5 52.8333,127.5 51.5,127.5C 51.5,127.167 51.5,126.833 51.5,126.5C 51.5,126.167 51.5,125.833 51.5,125.5C 52.963,122.797 53.7963,119.797 54,116.5C 57.0301,106.453 54.1968,98.7861 45.5,93.5C 35.4823,84.8161 24.149,78.1495 11.5,73.5C 7.54998,91.1749 7.54998,108.842 11.5,126.5C 11.5,126.833 11.5,127.167 11.5,127.5C 10.1667,127.5 8.83333,127.5 7.5,127.5C 4.19267,110.971 3.69267,94.3039 6,77.5C 9.4609,62.1173 13.1276,46.784 17,31.5C 17.6708,30.7476 18.5041,30.4142 19.5,30.5C 20.0614,31.9085 20.3948,33.4085 20.5,35C 19.1688,40.6585 17.8355,46.3252 16.5,52C 16.8333,52.8333 17.1667,53.6667 17.5,54.5C 31.8532,57.3417 46.1866,59.3417 60.5,60.5C 57.4018,61.821 53.9018,62.4877 50,62.5C 38.9001,62.0096 27.9001,60.6762 17,58.5C 16.1667,58.8333 15.3333,59.1667 14.5,59.5C 12.732,63.0866 12.3987,66.7532 13.5,70.5C 23.5559,74.0273 32.8892,78.8606 41.5,85C 47.8729,91.0417 54.5396,96.7084 61.5,102C 63.6354,102.635 65.6354,102.301 67.5,101C 78.3677,89.2918 91.0343,80.1252 105.5,73.5C 108.285,71.9049 111.285,70.9049 114.5,70.5C 114.588,66.6945 113.921,63.0278 112.5,59.5C 107.631,58.3634 102.965,58.6967 98.5,60.5C 90.8553,61.3537 83.1887,62.0203 75.5,62.5C 72.0866,62.483 69.0866,61.8164 66.5,60.5C 66.6107,59.8826 66.944,59.3826 67.5,59C 78.7993,59.1625 89.7993,57.9959 100.5,55.5C 103.881,55.5405 107.214,55.2071 110.5,54.5C 108.021,43.2453 105.854,31.912 104,20.5C 103.5,13.8417 103.334,7.17499 103.5,0.5C 103.5,0.166667 103.5,-0.166667 103.5,-0.5 Z"/></g>
<g><path style="opacity:0.984" fill="#fbd0a2" d="M 23.5,0.5 C 46.8333,0.5 70.1667,0.5 93.5,0.5C 93.5006,19.1667 95.8339,37.5 100.5,55.5C 89.7993,57.9959 78.7993,59.1625 67.5,59C 66.944,59.3826 66.6107,59.8826 66.5,60.5C 64.5,61.8333 62.5,61.8333 60.5,60.5C 46.1866,59.3417 31.8532,57.3417 17.5,54.5C 17.1667,53.6667 16.8333,52.8333 16.5,52C 17.8355,46.3252 19.1688,40.6585 20.5,35C 20.3948,33.4085 20.0614,31.9085 19.5,30.5C 19.5,29.1667 19.5,27.8333 19.5,26.5C 20.4959,26.5858 21.3292,26.2524 22,25.5C 23.2867,17.2195 23.7867,8.88612 23.5,0.5 Z"/></g>
<g><path style="opacity:1" fill="#fab983" d="M 93.5,0.5 C 96.8333,0.5 100.167,0.5 103.5,0.5C 103.334,7.17499 103.5,13.8417 104,20.5C 105.854,31.912 108.021,43.2453 110.5,54.5C 107.214,55.2071 103.881,55.5405 100.5,55.5C 95.8339,37.5 93.5006,19.1667 93.5,0.5 Z"/></g>
<g><path style="opacity:1" fill="#100d0a" d="M 57.5,26.5 C 61.1817,26.3347 64.8484,26.5014 68.5,27C 71.0758,27.7822 73.0758,29.2822 74.5,31.5C 74.1667,32.5 73.5,33.1667 72.5,33.5C 66.5,28.1667 60.5,28.1667 54.5,33.5C 53.5,33.1667 52.8333,32.5 52.5,31.5C 54.0063,29.5986 55.6729,27.9319 57.5,26.5 Z"/></g>
<g><path style="opacity:1" fill="#120e0a" d="M 61.5,33.5 C 68.7259,34.2517 71.2259,38.2517 69,45.5C 67.3088,49.2127 64.4755,50.3794 60.5,49C 57.6819,45.6621 56.8485,41.8288 58,37.5C 58.6897,35.6498 59.8564,34.3164 61.5,33.5 Z"/></g>
<g><path style="opacity:1" fill="#d8945f" d="M 62.5,37.5 C 64.8184,37.8184 66.1517,39.1517 66.5,41.5C 64.5,46.8333 62.5,46.8333 60.5,41.5C 60.7517,39.9271 61.4183,38.5938 62.5,37.5 Z"/></g>
<g><path style="opacity:1" fill="#73caf4" d="M 60.5,60.5 C 62.5,61.8333 64.5,61.8333 66.5,60.5C 69.0866,61.8164 72.0866,62.483 75.5,62.5C 83.1887,62.0203 90.8553,61.3537 98.5,60.5C 99.8333,60.5 101.167,60.5 102.5,60.5C 103.608,64.814 104.608,69.1473 105.5,73.5C 91.0343,80.1252 78.3677,89.2918 67.5,101C 65.6354,102.301 63.6354,102.635 61.5,102C 54.5396,96.7084 47.8729,91.0417 41.5,85C 32.8892,78.8606 23.5559,74.0273 13.5,70.5C 12.3987,66.7532 12.732,63.0866 14.5,59.5C 15.3333,59.1667 16.1667,58.8333 17,58.5C 27.9001,60.6762 38.9001,62.0096 50,62.5C 53.9018,62.4877 57.4018,61.821 60.5,60.5 Z"/></g>
<g><path style="opacity:1" fill="#5caff3" d="M 105.5,73.5 C 104.608,69.1473 103.608,64.814 102.5,60.5C 101.167,60.5 99.8333,60.5 98.5,60.5C 102.965,58.6967 107.631,58.3634 112.5,59.5C 113.921,63.0278 114.588,66.6945 114.5,70.5C 111.285,70.9049 108.285,71.9049 105.5,73.5 Z"/></g>
<g><path style="opacity:0.983" fill="#facea1" d="M 45.5,93.5 C 45.7072,104.231 45.0406,114.898 43.5,125.5C 46.1667,125.5 48.8333,125.5 51.5,125.5C 51.5,125.833 51.5,126.167 51.5,126.5C 38.1667,126.5 24.8333,126.5 11.5,126.5C 7.54998,108.842 7.54998,91.1749 11.5,73.5C 24.149,78.1495 35.4823,84.8161 45.5,93.5 Z"/></g>
<g><path style="opacity:1" fill="#f5b681" d="M 115.5,125.5 C 112.833,125.5 110.167,125.5 107.5,125.5C 109.031,109.439 108.698,93.4395 106.5,77.5C 109.231,75.8019 112.231,74.4685 115.5,73.5C 116.281,74.7287 116.781,76.062 117,77.5C 119.366,93.7503 118.866,109.75 115.5,125.5 Z"/></g>
<g><path style="opacity:0.98" fill="#fcd0a2" d="M 106.5,77.5 C 108.698,93.4395 109.031,109.439 107.5,125.5C 110.167,125.5 112.833,125.5 115.5,125.5C 115.5,125.833 115.5,126.167 115.5,126.5C 102.167,126.5 88.8333,126.5 75.5,126.5C 72.792,118.404 71.9587,110.071 73,101.5C 82.3751,90.9052 93.5418,82.9052 106.5,77.5 Z"/></g>
<g><path style="opacity:1" fill="#fbba84" d="M 45.5,93.5 C 54.1968,98.7861 57.0301,106.453 54,116.5C 53.7963,119.797 52.963,122.797 51.5,125.5C 48.8333,125.5 46.1667,125.5 43.5,125.5C 45.0406,114.898 45.7072,104.231 45.5,93.5 Z"/></g>
</svg>
