<?xml version="1.0" encoding="UTF-8"?>
<!DOCTYPE svg PUBLIC "-//W3C//DTD SVG 1.1//EN" "http://www.w3.org/Graphics/SVG/1.1/DTD/svg11.dtd">
<svg xmlns="http://www.w3.org/2000/svg" version="1.1" width="128px" height="128px" style="shape-rendering:geometricPrecision; text-rendering:geometricPrecision; image-rendering:optimizeQuality; fill-rule:evenodd; clip-rule:evenodd" xmlns:xlink="http://www.w3.org/1999/xlink">
<g><path style="opacity:1" fill="#f6cdbc" d="M 98.5,21.5 C 96.6964,22.3807 95.1964,23.714 94,25.5C 87.3041,36.2484 80.1374,46.5817 72.5,56.5C 68.85,55.3252 65.1834,55.3252 61.5,56.5C 61.5,55.1667 61.5,53.8333 61.5,52.5C 61.5,51.1667 61.5,49.8333 61.5,48.5C 63.7224,48.822 65.5557,48.1554 67,46.5C 67.4966,44.1902 67.6633,41.8568 67.5,39.5C 64.4299,39.6323 61.4299,39.299 58.5,38.5C 50.3527,27.0988 40.0194,24.5988 27.5,31C 23.886,34.1033 20.886,37.6033 18.5,41.5C 17.7784,41.0825 17.2784,40.4158 17,39.5C 16.3333,34.1667 16.3333,28.8333 17,23.5C 18.0674,22.8095 19.2341,22.3095 20.5,22C 46.4979,21.5 72.4979,21.3334 98.5,21.5 Z"/></g>
<g><path style="opacity:1" fill="#f4c4b2" d="M 98.5,21.5 C 99.1667,21.5 99.8333,21.5 100.5,21.5C 102.222,30.0489 101.388,38.3822 98,46.5C 91.7519,55.328 85.7519,64.328 80,73.5C 77.5311,75.6515 74.6978,77.1515 71.5,78C 70.9781,78.5613 70.6448,79.228 70.5,80C 74.297,86.2878 78.6303,92.1211 83.5,97.5C 84.0084,99.8654 84.6751,102.199 85.5,104.5C 80.8804,105.493 76.2137,105.827 71.5,105.5C 72.7387,104.788 73.2387,103.788 73,102.5C 67.1667,94.6667 61.3333,86.8333 55.5,79C 56.938,78.7811 58.2713,78.2811 59.5,77.5C 62.4396,73.278 65.1063,68.9447 67.5,64.5C 70.3283,62.5299 73.3283,60.6966 76.5,59C 75.4366,57.8118 74.1033,57.3118 72.5,57.5C 72.5,57.1667 72.5,56.8333 72.5,56.5C 80.1374,46.5817 87.3041,36.2484 94,25.5C 95.1964,23.714 96.6964,22.3807 98.5,21.5 Z"/></g>
<g><path style="opacity:0.991" fill="#f1afa0" d="M 100.5,21.5 C 102.167,21.5 103.833,21.5 105.5,21.5C 104.534,29.0804 104.201,36.747 104.5,44.5C 102.856,44.2865 101.356,44.6198 100,45.5C 96.5184,56.4658 90.5184,65.7991 82,73.5C 82.0137,81.5149 82.5137,89.5149 83.5,97.5C 78.6303,92.1211 74.297,86.2878 70.5,80C 70.6448,79.228 70.9781,78.5613 71.5,78C 74.6978,77.1515 77.5311,75.6515 80,73.5C 85.7519,64.328 91.7519,55.328 98,46.5C 101.388,38.3822 102.222,30.0489 100.5,21.5 Z"/></g>
<g><path style="opacity:0.93" fill="#f5c3b2" d="M 105.5,21.5 C 107.03,22.0668 108.53,22.7334 110,23.5C 110.667,28.8333 110.667,34.1667 110,39.5C 108.945,42.0559 107.112,43.7225 104.5,44.5C 104.201,36.747 104.534,29.0804 105.5,21.5 Z"/></g>
<g><path style="opacity:1" fill="#f1afa0" d="M 58.5,38.5 C 61.4299,39.299 64.4299,39.6323 67.5,39.5C 67.6633,41.8568 67.4966,44.1902 67,46.5C 65.5557,48.1554 63.7224,48.822 61.5,48.5C 61.1152,44.956 60.1152,41.6227 58.5,38.5 Z"/></g>
<g><path style="opacity:1" fill="#f49b8d" d="M 61.5,52.5 C 61.5,53.8333 61.5,55.1667 61.5,56.5C 65.1834,55.3252 68.85,55.3252 72.5,56.5C 72.5,56.8333 72.5,57.1667 72.5,57.5C 68.3642,59.1834 64.0309,59.8501 59.5,59.5C 59.9267,56.9902 60.5933,54.6568 61.5,52.5 Z"/></g>
<g><path style="opacity:1" fill="#f27f7d" d="M 72.5,57.5 C 74.1033,57.3118 75.4366,57.8118 76.5,59C 73.3283,60.6966 70.3283,62.5299 67.5,64.5C 63.7852,64.577 60.1185,64.2436 56.5,63.5C 57.5116,62.1283 58.5116,60.795 59.5,59.5C 64.0309,59.8501 68.3642,59.1834 72.5,57.5 Z"/></g>
<g><path style="opacity:0.994" fill="#f6cebc" d="M 56.5,63.5 C 60.1185,64.2436 63.7852,64.577 67.5,64.5C 65.1063,68.9447 62.4396,73.278 59.5,77.5C 58.2713,78.2811 56.938,78.7811 55.5,79C 61.3333,86.8333 67.1667,94.6667 73,102.5C 73.2387,103.788 72.7387,104.788 71.5,105.5C 61.5,105.5 51.5,105.5 41.5,105.5C 44.2413,94.2317 44.9079,82.8984 43.5,71.5C 48.6788,70.0834 53.0121,67.4168 56.5,63.5 Z"/></g>
<g><path style="opacity:0.972" fill="#e05f79" d="M 58.5,38.5 C 60.1152,41.6227 61.1152,44.956 61.5,48.5C 61.5,49.8333 61.5,51.1667 61.5,52.5C 60.5933,54.6568 59.9267,56.9902 59.5,59.5C 58.5116,60.795 57.5116,62.1283 56.5,63.5C 53.0121,67.4168 48.6788,70.0834 43.5,71.5C 40.8234,72.6436 38.1567,72.8103 35.5,72C 33.9958,74.5138 32.6624,77.0138 31.5,79.5C 30.1667,78.5 28.8333,77.5 27.5,76.5C 28.0138,74.6336 28.6805,72.8003 29.5,71C 27.6469,68.815 25.4803,66.9817 23,65.5C 17.5985,58.2798 16.0985,50.2798 18.5,41.5C 20.886,37.6033 23.886,34.1033 27.5,31C 40.0194,24.5988 50.3527,27.0988 58.5,38.5 Z"/></g>
<g><path style="opacity:1" fill="#f3b8a9" d="M 46.5,54.5 C 49.1667,54.5 51.8333,54.5 54.5,54.5C 54.448,56.9029 54.7814,59.2362 55.5,61.5C 46.9045,70.6946 37.2378,71.8612 26.5,65C 24.1923,62.8723 22.5256,60.3723 21.5,57.5C 22.1499,57.1961 22.8165,56.8627 23.5,56.5C 27.1709,63.5001 32.8376,66.5001 40.5,65.5C 38.3759,64.8506 36.3759,64.0173 34.5,63C 38.6194,61.4405 42.6194,59.6072 46.5,57.5C 47.5624,56.5754 47.5624,55.5754 46.5,54.5 Z"/></g>
<g><path style="opacity:1" fill="#ef7176" d="M 59.5,47.5 C 59.9593,52.7772 58.626,57.4439 55.5,61.5C 54.7814,59.2362 54.448,56.9029 54.5,54.5C 51.8333,54.5 49.1667,54.5 46.5,54.5C 45.0267,53.928 43.6934,53.0946 42.5,52C 43.0944,51.5357 43.7611,51.369 44.5,51.5C 48.1185,52.2436 51.7852,52.577 55.5,52.5C 55.5,50.8333 55.5,49.1667 55.5,47.5C 56.8333,47.5 58.1667,47.5 59.5,47.5 Z"/></g>
<g><path style="opacity:1" fill="#f49c8e" d="M 58.5,44.5 C 59.404,45.209 59.7373,46.209 59.5,47.5C 58.1667,47.5 56.8333,47.5 55.5,47.5C 55.5,49.1667 55.5,50.8333 55.5,52.5C 51.7852,52.577 48.1185,52.2436 44.5,51.5C 49.4518,49.5299 54.1185,47.1965 58.5,44.5 Z"/></g>
<g><path style="opacity:1" fill="#f6cebd" d="M 58.5,44.5 C 54.1185,47.1965 49.4518,49.5299 44.5,51.5C 43.7611,51.369 43.0944,51.5357 42.5,52C 43.6934,53.0946 45.0267,53.928 46.5,54.5C 47.5624,55.5754 47.5624,56.5754 46.5,57.5C 42.6194,59.6072 38.6194,61.4405 34.5,63C 36.3759,64.0173 38.3759,64.8506 40.5,65.5C 32.8376,66.5001 27.1709,63.5001 23.5,56.5C 22.8165,56.8627 22.1499,57.1961 21.5,57.5C 17.3006,44.4784 21.6339,35.3117 34.5,30C 46.5073,28.4932 54.5073,33.3265 58.5,44.5 Z"/></g>
<g><path style="opacity:0.908" fill="#fa9d99" d="M 27.5,76.5 C 28.8333,77.5 30.1667,78.5 31.5,79.5C 30.5655,83.3728 29.0655,87.0395 27,90.5C 23.5297,91.6286 22.1963,90.2953 23,86.5C 24.2755,82.9579 25.7755,79.6245 27.5,76.5 Z"/></g>
</svg>
