<?xml version="1.0" encoding="UTF-8"?>
<!DOCTYPE svg PUBLIC "-//W3C//DTD SVG 1.1//EN" "http://www.w3.org/Graphics/SVG/1.1/DTD/svg11.dtd">
<svg xmlns="http://www.w3.org/2000/svg" version="1.1" width="128px" height="128px" style="shape-rendering:geometricPrecision; text-rendering:geometricPrecision; image-rendering:optimizeQuality; fill-rule:evenodd; clip-rule:evenodd" xmlns:xlink="http://www.w3.org/1999/xlink">
<g><path style="opacity:0.874" fill="#0b0805" d="M 43.5,-0.5 C 48.8333,-0.5 54.1667,-0.5 59.5,-0.5C 67.3162,3.72128 75.6496,6.88794 84.5,9C 91.4921,9.49962 98.4921,9.66629 105.5,9.5C 105.681,16.638 103.014,22.4713 97.5,27C 98.7143,29.3506 99.5477,31.8506 100,34.5C 100.165,41.508 100.165,48.508 100,55.5C 102.468,60.0982 104.635,64.7649 106.5,69.5C 105.077,72.2746 104.411,75.2746 104.5,78.5C 105.822,78.33 106.989,78.6634 108,79.5C 109.908,82.2065 110.741,85.2065 110.5,88.5C 108.833,88.5 107.167,88.5 105.5,88.5C 104.539,85.5739 103.873,82.5739 103.5,79.5C 101.61,79.7035 100.11,79.0368 99,77.5C 98.6667,77.8333 98.3333,78.1667 98,78.5C 97.6667,83.8333 97.3333,89.1667 97,94.5C 95.808,99.3593 92.6414,101.693 87.5,101.5C 82.4962,100.582 77.4962,100.082 72.5,100C 75.8566,101.512 77.8566,104.012 78.5,107.5C 81.5682,107.547 84.5682,108.047 87.5,109C 88.9901,111.2 88.6568,113.034 86.5,114.5C 83.8332,113.877 81.3332,112.877 79,111.5C 78.6667,110.5 78.3333,109.5 78,108.5C 76.9505,109.517 75.7839,109.684 74.5,109C 71.8941,107.062 70.0608,104.562 69,101.5C 67.7264,110.606 65.2264,119.273 61.5,127.5C 59.8333,127.5 58.1667,127.5 56.5,127.5C 45.2034,122.917 33.5367,119.084 21.5,116C 19.8198,115.653 18.8198,114.653 18.5,113C 25.7375,105.751 30.4042,97.0844 32.5,87C 26.9278,75.3544 21.7611,63.5211 17,51.5C 13.3904,36.549 16.0571,22.8824 25,10.5C 30.3978,5.39045 36.5645,1.72379 43.5,-0.5 Z"/></g>
<g><path style="opacity:1" fill="#f3d58a" d="M 99.5,16.5 C 94.4889,16.6659 89.4889,16.4993 84.5,16C 75.8575,13.8448 67.5242,10.8448 59.5,7C 55.5867,6.11349 51.9201,6.61349 48.5,8.5C 41.4272,7.0253 35.4272,9.0253 30.5,14.5C 26.6201,18.6909 23.6201,23.3575 21.5,28.5C 24.5689,15.5969 32.5689,7.43024 45.5,4C 49.5,3.33333 53.5,3.33333 57.5,4C 63.9485,6.39086 70.2819,9.05753 76.5,12C 84.3611,13.9922 92.3611,14.9922 100.5,15C 99.944,15.3826 99.6107,15.8826 99.5,16.5 Z"/></g>
<g><path style="opacity:1" fill="#fbc148" d="M 99.5,16.5 C 97.775,21.0609 94.775,24.5609 90.5,27C 83.9449,29.4273 77.4449,31.9273 71,34.5C 70.3333,35.8333 69.6667,37.1667 69,38.5C 68.8311,45.5236 68.3311,52.5236 67.5,59.5C 63.3168,52.4769 57.4835,47.4769 50,44.5C 47.849,44.6431 46.1824,45.6431 45,47.5C 43.54,53.3166 41.54,58.9833 39,64.5C 37.2738,70.0322 36.2738,75.6989 36,81.5C 29.9398,71.3771 24.9398,60.7105 21,49.5C 20.1787,42.3209 20.3454,35.3209 21.5,28.5C 23.6201,23.3575 26.6201,18.6909 30.5,14.5C 35.4272,9.0253 41.4272,7.0253 48.5,8.5C 51.9201,6.61349 55.5867,6.11349 59.5,7C 67.5242,10.8448 75.8575,13.8448 84.5,16C 89.4889,16.4993 94.4889,16.6659 99.5,16.5 Z"/></g>
<g><path style="opacity:1" fill="#221a0d" d="M 28.5,22.5 C 29.5,22.5 30.5,22.5 31.5,22.5C 31.4261,26.5412 30.0928,27.2079 27.5,24.5C 27.8627,23.8165 28.1961,23.1499 28.5,22.5 Z"/></g>
<g><path style="opacity:1" fill="#110d04" d="M 26.5,29.5 C 27.5,29.5 28.5,29.5 29.5,29.5C 29.0361,36.9615 29.7028,44.2948 31.5,51.5C 31.2917,54.1848 30.125,54.8515 28,53.5C 25.4826,45.575 24.9826,37.575 26.5,29.5 Z"/></g>
<g><path style="opacity:1" fill="#fab095" d="M 98.5,63.5 C 99.467,67.8514 97.8004,70.1847 93.5,70.5C 90.5,70.5 87.5,70.5 84.5,70.5C 84.7593,74.0681 86.7593,75.4015 90.5,74.5C 90.8608,80.5933 90.3608,86.5933 89,92.5C 88.5,93 88,93.5 87.5,94C 82.1771,94.4994 76.8437,94.666 71.5,94.5C 71.7135,92.8561 71.3802,91.3561 70.5,90C 69.0024,89.4153 68.0024,89.9153 67.5,91.5C 66.1783,93.2635 64.6783,94.9301 63,96.5C 61.6421,104.355 59.6421,112.022 57,119.5C 56.586,119.957 56.086,120.291 55.5,120.5C 52.058,118.609 48.3913,117.609 44.5,117.5C 43.8333,117.5 43.1667,117.5 42.5,117.5C 42.5299,116.503 42.0299,115.836 41,115.5C 36.8587,114.064 32.692,112.731 28.5,111.5C 27.7025,111.043 27.3691,110.376 27.5,109.5C 32.1355,102.561 35.9688,95.2281 39,87.5C 39.4004,78.0765 41.4004,69.0765 45,60.5C 46.7251,66.0164 50.2251,69.6831 55.5,71.5C 57.9116,71.5938 59.745,70.5938 61,68.5C 61.3333,65.5 61.6667,62.5 62,59.5C 64.2513,63.1265 67.4179,64.2931 71.5,63C 72.3166,55.2457 72.8166,47.4124 73,39.5C 73.3742,38.5838 73.8742,37.7504 74.5,37C 80.7311,35.034 86.8977,32.8673 93,30.5C 93.5,30.8333 94,31.1667 94.5,31.5C 95.7773,38.3095 95.7773,45.1428 94.5,52C 95.4209,56.0017 96.7542,59.835 98.5,63.5 Z"/></g>
<g><path style="opacity:1" fill="#f0868d" d="M 56.5,54.5 C 54.8585,54.4064 53.0251,54.7397 51,55.5C 50.5045,57.4727 50.3379,59.4727 50.5,61.5C 47.7825,58.3631 46.9492,54.6964 48,50.5C 49.1332,48.7888 50.6332,48.2888 52.5,49C 54.4641,50.451 55.7974,52.2843 56.5,54.5 Z"/></g>
<g><path style="opacity:1" fill="#d76b8b" d="M 56.5,54.5 C 57.4849,58.6344 57.8182,62.9677 57.5,67.5C 53.9452,66.9464 51.6118,64.9464 50.5,61.5C 50.3379,59.4727 50.5045,57.4727 51,55.5C 53.0251,54.7397 54.8585,54.4064 56.5,54.5 Z"/></g>
<g><path style="opacity:1" fill="#150f0d" d="M 93.5,70.5 C 93.5,71.8333 93.5,73.1667 93.5,74.5C 92.5,74.5 91.5,74.5 90.5,74.5C 86.7593,75.4015 84.7593,74.0681 84.5,70.5C 87.5,70.5 90.5,70.5 93.5,70.5 Z"/></g>
<g><path style="opacity:1" fill="#17110f" d="M 79.5,71.5 C 80.5,71.5 81.5,71.5 82.5,71.5C 82.0053,76.1089 79.3386,78.4422 74.5,78.5C 75.0025,75.3315 76.6691,72.9981 79.5,71.5 Z"/></g>
<g><path style="opacity:1" fill="#e19286" d="M 98.5,63.5 C 103.157,67.8286 102.49,70.6619 96.5,72C 95.3333,73.8333 94.1667,75.6667 93,77.5C 92.6667,83.5 92.3333,89.5 92,95.5C 85.0181,96.7352 78.1847,96.4019 71.5,94.5C 76.8437,94.666 82.1771,94.4994 87.5,94C 88,93.5 88.5,93 89,92.5C 90.3608,86.5933 90.8608,80.5933 90.5,74.5C 91.5,74.5 92.5,74.5 93.5,74.5C 93.5,73.1667 93.5,71.8333 93.5,70.5C 97.8004,70.1847 99.467,67.8514 98.5,63.5 Z"/></g>
<g><path style="opacity:1" fill="#15100d" d="M 70.5,79.5 C 71.8333,79.5 73.1667,79.5 74.5,79.5C 74.1858,83.8393 72.1858,86.8393 68.5,88.5C 68.2104,85.2153 68.877,82.2153 70.5,79.5 Z"/></g>
<g><path style="opacity:0.71" fill="#000000" d="M 106.5,89.5 C 108.167,89.5 109.833,89.5 111.5,89.5C 111.54,92.8806 111.207,96.2139 110.5,99.5C 109.127,99.3433 107.793,99.51 106.5,100C 108.283,101.067 108.783,102.567 108,104.5C 106.5,106 105,107.5 103.5,109C 102.216,109.684 101.049,109.517 100,108.5C 99.51,109.793 99.3433,111.127 99.5,112.5C 96.8822,112.779 94.3822,113.446 92,114.5C 89.9348,113.372 89.2681,111.706 90,109.5C 93.124,108.439 96.2907,107.439 99.5,106.5C 100.761,103.736 102.595,101.403 105,99.5C 105.826,96.2072 106.326,92.8738 106.5,89.5 Z"/></g>
<g><path style="opacity:1" fill="#df9185" d="M 67.5,91.5 C 64.1018,101.548 61.4351,111.882 59.5,122.5C 54.2159,121.405 49.2159,119.739 44.5,117.5C 48.3913,117.609 52.058,118.609 55.5,120.5C 56.086,120.291 56.586,119.957 57,119.5C 59.6421,112.022 61.6421,104.355 63,96.5C 64.6783,94.9301 66.1783,93.2635 67.5,91.5 Z"/></g>
<g><path style="opacity:1" fill="#cb8479" d="M 27.5,109.5 C 27.3691,110.376 27.7025,111.043 28.5,111.5C 32.692,112.731 36.8587,114.064 41,115.5C 42.0299,115.836 42.5299,116.503 42.5,117.5C 36.5408,116.262 30.8742,114.262 25.5,111.5C 25.8555,110.478 26.5222,109.811 27.5,109.5 Z"/></g>
</svg>
