<?xml version="1.0" encoding="UTF-8"?>
<!DOCTYPE svg PUBLIC "-//W3C//DTD SVG 1.1//EN" "http://www.w3.org/Graphics/SVG/1.1/DTD/svg11.dtd">
<svg xmlns="http://www.w3.org/2000/svg" version="1.1" width="512px" height="512px" style="shape-rendering:geometricPrecision; text-rendering:geometricPrecision; image-rendering:optimizeQuality; fill-rule:evenodd; clip-rule:evenodd" xmlns:xlink="http://www.w3.org/1999/xlink">
<g><path style="opacity:0.959" fill="#020101" d="M 300.5,-0.5 C 313.167,-0.5 325.833,-0.5 338.5,-0.5C 363.315,2.53952 387.315,9.03952 410.5,19C 459.117,46.005 487.95,87.1717 497,142.5C 500.799,167.463 498.466,191.796 490,215.5C 478.852,239.96 464.519,262.294 447,282.5C 422.631,308.534 398.631,334.867 375,361.5C 368.504,370.667 362.837,380.334 358,390.5C 353.98,405.246 349.646,419.913 345,434.5C 342.695,439.072 339.195,440.405 334.5,438.5C 333.312,437.636 332.145,436.636 331,435.5C 330.039,428.709 331.372,422.376 335,416.5C 337.576,397.771 343.909,380.437 354,364.5C 359.667,356.833 365.333,349.167 371,341.5C 395.702,315.133 420.036,288.466 444,261.5C 459.602,242.306 471.602,220.972 480,197.5C 487.854,160.293 482.354,125.293 463.5,92.5C 443.997,55.8801 413.997,32.3801 373.5,22C 337.231,11.39 301.231,12.0566 265.5,24C 223.489,41.215 196.655,71.715 185,115.5C 183.534,122.093 182.534,128.759 182,135.5C 180.359,139.323 177.526,141.323 173.5,141.5C 169.092,140.753 166.759,138.087 166.5,133.5C 173.767,74.7539 204.434,33.5872 258.5,10C 272.271,5.01912 286.271,1.51912 300.5,-0.5 Z"/></g>
<g><path style="opacity:1" fill="#fdc79e" d="M 463.5,92.5 C 477.363,135.338 472.196,175.672 448,213.5C 441.824,223.185 435.157,232.519 428,241.5C 406.07,266.767 383.403,291.433 360,315.5C 347.608,329.234 337.608,344.568 330,361.5C 326.09,376.299 321.757,390.966 317,405.5C 299.045,444.8 268.878,468.3 226.5,476C 214.158,477.509 202.158,476.176 190.5,472C 186.598,469.881 182.598,468.048 178.5,466.5C 164.201,447.933 159.035,426.933 163,403.5C 167.491,381.361 175.158,360.361 186,340.5C 190.069,329.626 193.736,318.626 197,307.5C 201.829,286.267 202.496,264.933 199,243.5C 188.655,216.088 182.655,187.755 181,158.5C 179.249,155.708 176.749,154.041 173.5,153.5C 173.5,149.5 173.5,145.5 173.5,141.5C 177.526,141.323 180.359,139.323 182,135.5C 182.534,128.759 183.534,122.093 185,115.5C 196.655,71.715 223.489,41.215 265.5,24C 301.231,12.0566 337.231,11.39 373.5,22C 413.997,32.3801 443.997,55.8801 463.5,92.5 Z"/></g>
<g><path style="opacity:1" fill="#050302" d="M 422.5,151.5 C 421.189,128.378 411.522,109.544 393.5,95C 357.06,69.4441 319.06,66.9441 279.5,87.5C 276.687,86.9293 274.354,85.5959 272.5,83.5C 272.107,80.0703 272.773,76.9036 274.5,74C 313.228,53.0487 351.895,53.3821 390.5,75C 422.615,94.393 438.115,122.893 437,160.5C 436.89,162.848 435.723,164.348 433.5,165C 429.058,166.378 425.558,165.212 423,161.5C 422.502,158.183 422.335,154.85 422.5,151.5 Z"/></g>
<g><path style="opacity:1" fill="#f4ae7f" d="M 422.5,151.5 C 422.209,147.421 420.709,143.754 418,140.5C 389.029,110.127 353.862,98.9603 312.5,107C 287.371,114.298 267.037,128.465 251.5,149.5C 251.957,150.298 252.624,150.631 253.5,150.5C 252.063,151.725 250.396,152.725 248.5,153.5C 247.808,132.878 253.975,114.545 267,98.5C 267.667,96.8333 267.667,95.1667 267,93.5C 265.624,92.2949 264.458,90.9616 263.5,89.5C 267.565,89.1027 270.565,87.1027 272.5,83.5C 274.354,85.5959 276.687,86.9293 279.5,87.5C 319.06,66.9441 357.06,69.4441 393.5,95C 411.522,109.544 421.189,128.378 422.5,151.5 Z"/></g>
<g><path style="opacity:1" fill="#050403" d="M 263.5,89.5 C 264.458,90.9616 265.624,92.2949 267,93.5C 267.667,95.1667 267.667,96.8333 267,98.5C 253.975,114.545 247.808,132.878 248.5,153.5C 250.396,152.725 252.063,151.725 253.5,150.5C 280.423,135.641 308.423,133.141 337.5,143C 364.704,155.904 381.538,177.071 388,206.5C 392.218,229.96 386.885,250.96 372,269.5C 367.2,275.302 362.033,280.802 356.5,286C 353.177,286.932 350.177,286.432 347.5,284.5C 345.782,282.074 345.282,279.407 346,276.5C 351,270.833 356,265.167 361,259.5C 371.892,245.596 376.059,229.929 373.5,212.5C 364.845,171.342 339.512,151.175 297.5,152C 279.991,154.335 263.991,160.502 249.5,170.5C 248.613,176.201 248.946,181.867 250.5,187.5C 251.824,193.778 252.824,200.112 253.5,206.5C 281.148,208.309 294.648,222.976 294,250.5C 288.948,267.212 277.782,277.379 260.5,281C 254.839,282.777 249.172,283.277 243.5,282.5C 238.283,278.082 238.283,273.582 243.5,269C 253.018,268.038 262.018,265.371 270.5,261C 282.133,249.98 282.466,238.647 271.5,227C 263.098,222.431 254.098,220.098 244.5,220C 243.069,219.535 241.903,218.701 241,217.5C 231.38,186.523 230.047,155.189 237,123.5C 241.062,111.122 247.228,99.955 255.5,90C 258.146,89.5026 260.813,89.3359 263.5,89.5 Z"/></g>
<g><path style="opacity:1" fill="#f5ae80" d="M 463.5,92.5 C 482.354,125.293 487.854,160.293 480,197.5C 471.602,220.972 459.602,242.306 444,261.5C 420.036,288.466 395.702,315.133 371,341.5C 365.333,349.167 359.667,356.833 354,364.5C 343.909,380.437 337.576,397.771 335,416.5C 331.372,422.376 330.039,428.709 331,435.5C 332.145,436.636 333.312,437.636 334.5,438.5C 332.895,441.378 331.561,444.378 330.5,447.5C 327.07,446.11 323.736,446.276 320.5,448C 302.449,474.036 277.783,490.036 246.5,496C 218.967,497.4 196.3,487.567 178.5,466.5C 182.598,468.048 186.598,469.881 190.5,472C 202.158,476.176 214.158,477.509 226.5,476C 268.878,468.3 299.045,444.8 317,405.5C 321.757,390.966 326.09,376.299 330,361.5C 337.608,344.568 347.608,329.234 360,315.5C 383.403,291.433 406.07,266.767 428,241.5C 435.157,232.519 441.824,223.185 448,213.5C 472.196,175.672 477.363,135.338 463.5,92.5 Z"/></g>
<g><path style="opacity:0.923" fill="#000000" d="M 91.5,143.5 C 97.7981,142.732 102.631,145.065 106,150.5C 132.221,182.656 145.054,219.656 144.5,261.5C 145.047,300.354 133.88,335.354 111,366.5C 106.502,372.011 101.169,376.345 95,379.5C 88.575,377.992 86.2417,373.992 88,367.5C 115.739,337.806 129.239,302.473 128.5,261.5C 129.053,220.304 115.553,184.637 88,154.5C 86.6624,149.96 87.8291,146.293 91.5,143.5 Z"/></g>
<g><path style="opacity:1" fill="#dd9a75" d="M 373.5,212.5 C 353.842,179.346 324.842,166.179 286.5,173C 273.673,175.918 261.673,180.752 250.5,187.5C 248.946,181.867 248.613,176.201 249.5,170.5C 263.991,160.502 279.991,154.335 297.5,152C 339.512,151.175 364.845,171.342 373.5,212.5 Z"/></g>
<g><path style="opacity:0.961" fill="#020101" d="M 173.5,153.5 C 176.749,154.041 179.249,155.708 181,158.5C 182.655,187.755 188.655,216.088 199,243.5C 202.496,264.933 201.829,286.267 197,307.5C 193.736,318.626 190.069,329.626 186,340.5C 175.158,360.361 167.491,381.361 163,403.5C 159.035,426.933 164.201,447.933 178.5,466.5C 196.3,487.567 218.967,497.4 246.5,496C 277.783,490.036 302.449,474.036 320.5,448C 323.736,446.276 327.07,446.11 330.5,447.5C 332.887,451.387 333.054,455.387 331,459.5C 310.86,487.313 284.026,504.646 250.5,511.5C 241.833,511.5 233.167,511.5 224.5,511.5C 176.044,499.375 150.044,468.375 146.5,418.5C 147.009,399.779 150.842,381.779 158,364.5C 168.899,343.468 177.233,321.468 183,298.5C 186.572,281.857 186.905,265.191 184,248.5C 173.805,220.481 167.638,191.648 165.5,162C 165.813,156.834 168.479,154 173.5,153.5 Z"/></g>
<g><path style="opacity:1" fill="#f6af80" d="M 373.5,212.5 C 376.059,229.929 371.892,245.596 361,259.5C 356,265.167 351,270.833 346,276.5C 345.282,279.407 345.782,282.074 347.5,284.5C 344.785,286.548 342.452,288.882 340.5,291.5C 336.371,287.715 332.037,287.548 327.5,291C 314.88,299.896 302.714,309.396 291,319.5C 288.412,323.674 286.079,328.007 284,332.5C 280.066,345.637 275.732,358.637 271,371.5C 268.249,376.59 264.083,379.757 258.5,381C 246.466,384.561 237.966,380.727 233,369.5C 230.033,352.088 231.533,335.088 237.5,318.5C 236.99,315.666 235.656,313.332 233.5,311.5C 238.023,302.265 241.356,292.598 243.5,282.5C 249.172,283.277 254.839,282.777 260.5,281C 277.782,277.379 288.948,267.212 294,250.5C 294.648,222.976 281.148,208.309 253.5,206.5C 252.824,200.112 251.824,193.778 250.5,187.5C 261.673,180.752 273.673,175.918 286.5,173C 324.842,166.179 353.842,179.346 373.5,212.5 Z"/></g>
<g><path style="opacity:0.923" fill="#000000" d="M 52.5,173.5 C 55.1873,173.336 57.854,173.503 60.5,174C 84.1732,197.994 95.5065,226.994 94.5,261C 95.2933,294.639 84.2933,323.639 61.5,348C 51.3333,350.5 47.5,346.667 50,336.5C 69.7252,315.34 79.2252,290.174 78.5,261C 79.0804,231.058 69.2471,205.225 49,183.5C 48.1822,179.469 49.3489,176.136 52.5,173.5 Z"/></g>
<g><path style="opacity:0.922" fill="#000000" d="M 16.5,206.5 C 19.6492,206.211 22.6492,206.711 25.5,208C 39.5501,222.974 46.2168,240.807 45.5,261.5C 45.8711,281.396 39.5377,298.729 26.5,313.5C 21.6721,317.702 17.1721,317.368 13,312.5C 12.3333,309.833 12.3333,307.167 13,304.5C 30.3894,283.997 34.3894,260.997 25,235.5C 21.7845,228.956 17.7845,222.956 13,217.5C 11.6631,212.872 12.8298,209.205 16.5,206.5 Z"/></g>
<g><path style="opacity:1" fill="#050403" d="M 340.5,291.5 C 341.896,295.036 341.396,298.37 339,301.5C 328.764,309.368 318.264,316.868 307.5,324C 304.96,326.205 302.793,328.705 301,331.5C 295.749,343.828 291.416,356.495 288,369.5C 280.102,391.372 264.602,400.206 241.5,396C 230.401,392.568 222.901,385.401 219,374.5C 214.544,353.661 216.21,333.328 224,313.5C 226.739,310.586 229.906,309.919 233.5,311.5C 235.656,313.332 236.99,315.666 237.5,318.5C 231.533,335.088 230.033,352.088 233,369.5C 237.966,380.727 246.466,384.561 258.5,381C 264.083,379.757 268.249,376.59 271,371.5C 275.732,358.637 280.066,345.637 284,332.5C 286.079,328.007 288.412,323.674 291,319.5C 302.714,309.396 314.88,299.896 327.5,291C 332.037,287.548 336.371,287.715 340.5,291.5 Z"/></g>
</svg>
