<?xml version="1.0" encoding="UTF-8"?>
<!DOCTYPE svg PUBLIC "-//W3C//DTD SVG 1.1//EN" "http://www.w3.org/Graphics/SVG/1.1/DTD/svg11.dtd">
<svg xmlns="http://www.w3.org/2000/svg" version="1.1" width="128px" height="128px" style="shape-rendering:geometricPrecision; text-rendering:geometricPrecision; image-rendering:optimizeQuality; fill-rule:evenodd; clip-rule:evenodd" xmlns:xlink="http://www.w3.org/1999/xlink">
<g><path style="opacity:0.932" fill="#040301" d="M 37.5,-0.5 C 39.1667,-0.5 40.8333,-0.5 42.5,-0.5C 43.5817,0.593804 44.2483,1.92714 44.5,3.5C 37.3377,32.4467 34.3377,61.7801 35.5,91.5C 36.6651,92.5836 37.9984,93.4169 39.5,94C 43.5,94.3333 47.5,94.6667 51.5,95C 74.4698,103.283 97.9698,105.45 122,101.5C 124.178,101.395 126.012,102.061 127.5,103.5C 127.5,105.167 127.5,106.833 127.5,108.5C 101.104,113.775 75.1042,111.942 49.5,103C 45.5,102.667 41.5,102.333 37.5,102C 29.5607,99.9808 25.5607,94.8142 25.5,86.5C 27.0809,75.5691 27.9142,64.5691 28,53.5C 28.9267,35.0408 32.0933,17.0408 37.5,-0.5 Z"/></g>
<g><path style="opacity:1" fill="#fbc97e" d="M 42.5,-0.5 C 48.1667,-0.5 53.8333,-0.5 59.5,-0.5C 58.4183,0.593804 57.7517,1.92714 57.5,3.5C 62.5473,17.0705 65.5473,31.0705 66.5,45.5C 66.4748,54.0728 65.1415,62.4061 62.5,70.5C 62.6799,71.5539 63.0133,72.5539 63.5,73.5C 65.5,74.8333 67.5,74.8333 69.5,73.5C 70.2135,71.1889 71.2135,69.0223 72.5,67C 84.3056,61.8075 96.6389,60.1408 109.5,62C 114.078,62.4631 118.578,63.2965 123,64.5C 124.787,64.2414 126.287,63.5747 127.5,62.5C 127.5,76.1667 127.5,89.8333 127.5,103.5C 126.012,102.061 124.178,101.395 122,101.5C 97.9698,105.45 74.4698,103.283 51.5,95C 47.5,94.6667 43.5,94.3333 39.5,94C 37.9984,93.4169 36.6651,92.5836 35.5,91.5C 34.3377,61.7801 37.3377,32.4467 44.5,3.5C 44.2483,1.92714 43.5817,0.593804 42.5,-0.5 Z"/></g>
<g><path style="opacity:0.936" fill="#030201" d="M 59.5,-0.5 C 61.1667,-0.5 62.8333,-0.5 64.5,-0.5C 72.2041,17.692 75.5374,36.692 74.5,56.5C 92.3131,50.9032 109.98,51.2365 127.5,57.5C 127.5,59.1667 127.5,60.8333 127.5,62.5C 126.287,63.5747 124.787,64.2414 123,64.5C 118.578,63.2965 114.078,62.4631 109.5,62C 96.6389,60.1408 84.3056,61.8075 72.5,67C 71.2135,69.0223 70.2135,71.1889 69.5,73.5C 67.5,74.8333 65.5,74.8333 63.5,73.5C 63.0133,72.5539 62.6799,71.5539 62.5,70.5C 65.1415,62.4061 66.4748,54.0728 66.5,45.5C 65.5473,31.0705 62.5473,17.0705 57.5,3.5C 57.7517,1.92714 58.4183,0.593804 59.5,-0.5 Z"/></g>
<g><path style="opacity:0.917" fill="#000000" d="M -0.5,94.5 C -0.5,92.5 -0.5,90.5 -0.5,88.5C 4.41575,87.3889 9.41575,87.2223 14.5,88C 15.8333,90.3333 15.8333,92.6667 14.5,95C 9.41575,95.7777 4.41575,95.6111 -0.5,94.5 Z"/></g>
<g><path style="opacity:0.779" fill="#000000" d="M 9.5,105.5 C 17.3971,106.916 18.3971,110.416 12.5,116C 8.32442,118.632 5.65775,117.632 4.5,113C 5.54628,110.114 7.21295,107.614 9.5,105.5 Z"/></g>
<g><path style="opacity:0.836" fill="#000000" d="M 33.5,127.5 C 31.5,127.5 29.5,127.5 27.5,127.5C 25.4656,123.124 24.9656,118.457 26,113.5C 28.4177,111.32 31.0844,110.987 34,112.5C 34.7777,117.584 34.6111,122.584 33.5,127.5 Z"/></g>
</svg>
