<?xml version="1.0" encoding="UTF-8"?>
<!DOCTYPE svg PUBLIC "-//W3C//DTD SVG 1.1//EN" "http://www.w3.org/Graphics/SVG/1.1/DTD/svg11.dtd">
<svg xmlns="http://www.w3.org/2000/svg" version="1.1" width="512px" height="512px" style="shape-rendering:geometricPrecision; text-rendering:geometricPrecision; image-rendering:optimizeQuality; fill-rule:evenodd; clip-rule:evenodd" xmlns:xlink="http://www.w3.org/1999/xlink">
<g><path style="opacity:0.996" fill="#fed1c7" d="M 233.5,9.5 C 321.834,4.43455 394,35.7679 450,103.5C 506.069,180.801 516.735,264.134 482,353.5C 441.042,440.091 372.875,489.257 277.5,501C 191.882,506.366 121.049,476.866 65,412.5C 12.1617,344.645 -3.1716,268.978 19,185.5C 43.5881,108.913 93.0881,55.4133 167.5,25C 189.026,17.1994 211.026,12.0328 233.5,9.5 Z"/></g>
<g><path style="opacity:1" fill="#ec8b84" d="M 322.5,131.5 C 248.335,127.496 183.668,149.996 128.5,199C 106.407,219.91 86.4068,242.41 68.5,266.5C 101.398,203.77 150.065,157.603 214.5,128C 265.62,107.608 318.287,102.608 372.5,113C 398.202,117.192 421.535,126.858 442.5,142C 445.333,144.833 448.167,147.667 451,150.5C 451.711,152.367 451.211,153.867 449.5,155C 437.799,151.768 426.132,148.101 414.5,144C 384.381,135.813 353.714,131.647 322.5,131.5 Z"/></g>
<g><path style="opacity:1" fill="#3e3e50" d="M 322.5,131.5 C 357.899,134.481 392.565,141.647 426.5,153C 430.367,156.249 430.367,159.582 426.5,163C 424.167,163.667 421.833,163.667 419.5,163C 367.819,144.774 314.819,139.107 260.5,146C 232.175,150.826 205.841,160.66 181.5,175.5C 161.592,186.305 143.592,199.805 127.5,216C 165.638,193.451 206.971,180.118 251.5,176C 273.196,175.445 294.863,175.779 316.5,177C 323.496,175.509 329.163,172.009 333.5,166.5C 338.444,163.152 342.111,164.152 344.5,169.5C 343.064,174.031 340.397,177.698 336.5,180.5C 339.043,181.803 341.71,182.803 344.5,183.5C 346.086,185.173 346.753,187.173 346.5,189.5C 346.056,191.113 345.056,192.28 343.5,193C 339.797,193.579 336.131,193.412 332.5,192.5C 321.478,189.504 310.144,188.337 298.5,189C 313.087,206.396 316.587,225.896 309,247.5C 302.487,264.015 290.82,275.015 274,280.5C 271.465,280.132 269.632,278.799 268.5,276.5C 268.34,274.801 268.506,273.134 269,271.5C 291.914,261.667 302.581,244.334 301,219.5C 294.334,191.197 276.834,180.697 248.5,188C 241.746,188.511 235.079,189.511 228.5,191C 214.577,202.344 209.244,216.844 212.5,234.5C 226.895,228.418 239.395,231.085 250,242.5C 257.655,253.669 258.488,265.336 252.5,277.5C 239.922,293.228 224.922,296.062 207.5,286C 197.929,277.622 194.096,267.122 196,254.5C 197.863,250.116 199.696,245.783 201.5,241.5C 197.098,225.393 199.432,210.393 208.5,196.5C 196.03,197.817 184.03,201.317 172.5,207C 163.249,246.592 175.249,277.926 208.5,301C 246.794,320.628 281.294,315.462 312,285.5C 329.646,263.203 336.313,237.869 332,209.5C 332.816,208.177 333.983,207.511 335.5,207.5C 339.601,207.43 342.101,209.43 343,213.5C 347.86,250.603 336.027,281.103 307.5,305C 277.808,325.336 246.142,329.003 212.5,316C 180.466,300.449 162.299,274.949 158,239.5C 157.753,230.779 157.586,222.112 157.5,213.5C 129.729,227.436 104.896,245.436 83,267.5C 82.3333,268.5 82.3333,269.5 83,270.5C 100.589,299.084 124.756,320.25 155.5,334C 180.702,344.774 207.035,350.441 234.5,351C 247.84,351.266 261.174,351.266 274.5,351C 276.734,352.75 279.068,354.25 281.5,355.5C 284.499,359.332 287.999,362.665 292,365.5C 293.29,367.792 294.957,369.792 297,371.5C 297.483,372.448 297.649,373.448 297.5,374.5C 296.382,379.254 293.382,380.754 288.5,379C 287.956,378.283 287.289,377.783 286.5,377.5C 282.003,372.17 277.003,367.337 271.5,363C 231.141,366.222 192.141,360.555 154.5,346C 140.219,339.864 126.886,332.197 114.5,323C 105.025,320.005 95.3583,317.838 85.5,316.5C 80.1991,315.823 74.8657,315.323 69.5,315C 65.6336,312.694 64.6336,309.527 66.5,305.5C 68.423,304.149 70.5897,303.482 73,303.5C 80.5723,304.278 88.0723,305.111 95.5,306C 87.6573,297.804 80.6573,288.97 74.5,279.5C 68.3253,287.853 62.6587,296.52 57.5,305.5C 53.5573,313.218 49.224,320.718 44.5,328C 38.1714,328.668 35.6714,325.834 37,319.5C 46.5156,301.117 57.0156,283.451 68.5,266.5C 86.4068,242.41 106.407,219.91 128.5,199C 183.668,149.996 248.335,127.496 322.5,131.5 Z"/></g>
<g><path style="opacity:1" fill="#ea8a83" d="M 333.5,166.5 C 329.163,172.009 323.496,175.509 316.5,177C 294.863,175.779 273.196,175.445 251.5,176C 206.971,180.118 165.638,193.451 127.5,216C 143.592,199.805 161.592,186.305 181.5,175.5C 181.735,176.097 182.235,176.43 183,176.5C 232.272,159.763 282.438,156.43 333.5,166.5 Z"/></g>
<g><path style="opacity:1" fill="#ea8b84" d="M 379.5,178.5 C 377.996,180.836 375.996,182.669 373.5,184C 368.909,185.864 364.243,187.53 359.5,189C 358.309,189.698 357.309,190.531 356.5,191.5C 353.097,191.149 349.763,190.482 346.5,189.5C 346.753,187.173 346.086,185.173 344.5,183.5C 341.71,182.803 339.043,181.803 336.5,180.5C 340.397,177.698 343.064,174.031 344.5,169.5C 348.222,170.017 351.888,170.85 355.5,172C 358.167,172.667 360.833,172.667 363.5,172C 370.153,169.669 376.486,166.836 382.5,163.5C 381.53,168.819 378.863,173.152 374.5,176.5C 375.85,177.95 377.516,178.617 379.5,178.5 Z"/></g>
<g><path style="opacity:1" fill="#3f3e51" d="M 390.5,183.5 C 387.361,187.47 383.695,190.97 379.5,194C 387.288,197.394 394.955,201.061 402.5,205C 409.876,206.255 416.543,204.755 422.5,200.5C 429.227,196.435 434.227,190.768 437.5,183.5C 444.126,181.295 446.959,183.628 446,190.5C 442.759,197.557 438.259,203.557 432.5,208.5C 428.806,211.014 424.806,213.014 420.5,214.5C 419.479,215.002 419.312,215.668 420,216.5C 430.135,223.813 439.968,231.48 449.5,239.5C 452.438,241.934 455.271,244.601 458,247.5C 460.574,252.684 459.074,256.017 453.5,257.5C 449.962,256.294 446.962,254.294 444.5,251.5C 441.17,248.067 437.67,244.734 434,241.5C 429.989,252.523 425.156,263.19 419.5,273.5C 427.706,276.273 435.039,280.606 441.5,286.5C 443.235,288.235 444.568,290.235 445.5,292.5C 444.417,297.378 441.417,299.211 436.5,298C 433.919,294.912 430.919,292.412 427.5,290.5C 422.749,286.788 417.416,285.455 411.5,286.5C 405.249,296.251 397.749,304.917 389,312.5C 388.251,313.635 388.417,314.635 389.5,315.5C 393.806,316.986 397.806,318.986 401.5,321.5C 403.167,322.5 404.5,323.833 405.5,325.5C 405.65,329.683 403.65,332.016 399.5,332.5C 393.884,330.029 388.218,327.529 382.5,325C 379.833,324.333 377.167,324.333 374.5,325C 362.783,333.862 350.116,341.196 336.5,347C 341.375,350.266 346.042,353.766 350.5,357.5C 351.11,358.391 351.443,359.391 351.5,360.5C 352.145,365.694 349.811,368.028 344.5,367.5C 343.5,366.833 342.5,366.167 341.5,365.5C 335.21,358.774 327.376,355.107 318,354.5C 312.243,356.029 306.41,356.529 300.5,356C 299.177,355.184 298.511,354.017 298.5,352.5C 298.247,350.173 298.914,348.173 300.5,346.5C 362.316,332.179 403.316,295.012 423.5,235C 404.922,218.371 383.589,206.371 359.5,199C 356.959,197.152 355.959,194.652 356.5,191.5C 357.309,190.531 358.309,189.698 359.5,189C 364.243,187.53 368.909,185.864 373.5,184C 375.996,182.669 377.996,180.836 379.5,178.5C 381.202,174.957 383.535,171.79 386.5,169C 391.032,168.1 393.698,169.934 394.5,174.5C 393.43,177.639 392.096,180.639 390.5,183.5 Z"/></g>
<g><path style="opacity:1" fill="#eb8b84" d="M 422.5,200.5 C 416.543,204.755 409.876,206.255 402.5,205C 394.955,201.061 387.288,197.394 379.5,194C 383.695,190.97 387.361,187.47 390.5,183.5C 395.627,186.064 400.96,188.064 406.5,189.5C 413.662,189.085 419.662,186.252 424.5,181C 428.71,180.911 429.543,182.744 427,186.5C 424.766,190.458 421.933,193.958 418.5,197C 419.731,198.405 421.064,199.571 422.5,200.5 Z"/></g>
<g><path style="opacity:1" fill="#575f6a" d="M 268.5,276.5 C 263.203,277.275 257.87,277.608 252.5,277.5C 258.488,265.336 257.655,253.669 250,242.5C 239.395,231.085 226.895,228.418 212.5,234.5C 209.244,216.844 214.577,202.344 228.5,191C 235.079,189.511 241.746,188.511 248.5,188C 276.834,180.697 294.334,191.197 301,219.5C 302.581,244.334 291.914,261.667 269,271.5C 268.506,273.134 268.34,274.801 268.5,276.5 Z"/></g>
<g><path style="opacity:1" fill="#94d8e8" d="M 332.5,192.5 C 331.624,192.369 330.957,192.702 330.5,193.5C 332.568,198.038 334.235,202.705 335.5,207.5C 333.983,207.511 332.816,208.177 332,209.5C 336.313,237.869 329.646,263.203 312,285.5C 281.294,315.462 246.794,320.628 208.5,301C 175.249,277.926 163.249,246.592 172.5,207C 184.03,201.317 196.03,197.817 208.5,196.5C 199.432,210.393 197.098,225.393 201.5,241.5C 199.696,245.783 197.863,250.116 196,254.5C 194.096,267.122 197.929,277.622 207.5,286C 224.922,296.062 239.922,293.228 252.5,277.5C 257.87,277.608 263.203,277.275 268.5,276.5C 269.632,278.799 271.465,280.132 274,280.5C 290.82,275.015 302.487,264.015 309,247.5C 316.587,225.896 313.087,206.396 298.5,189C 310.144,188.337 321.478,189.504 332.5,192.5 Z"/></g>
<g><path style="opacity:1" fill="#fdfdfd" d="M 346.5,189.5 C 349.763,190.482 353.097,191.149 356.5,191.5C 355.959,194.652 356.959,197.152 359.5,199C 383.589,206.371 404.922,218.371 423.5,235C 403.316,295.012 362.316,332.179 300.5,346.5C 298.914,348.173 298.247,350.173 298.5,352.5C 292.752,353.093 287.085,354.093 281.5,355.5C 279.068,354.25 276.734,352.75 274.5,351C 261.174,351.266 247.84,351.266 234.5,351C 207.035,350.441 180.702,344.774 155.5,334C 124.756,320.25 100.589,299.084 83,270.5C 82.3333,269.5 82.3333,268.5 83,267.5C 104.896,245.436 129.729,227.436 157.5,213.5C 157.586,222.112 157.753,230.779 158,239.5C 162.299,274.949 180.466,300.449 212.5,316C 246.142,329.003 277.808,325.336 307.5,305C 336.027,281.103 347.86,250.603 343,213.5C 342.101,209.43 339.601,207.43 335.5,207.5C 334.235,202.705 332.568,198.038 330.5,193.5C 330.957,192.702 331.624,192.369 332.5,192.5C 336.131,193.412 339.797,193.579 343.5,193C 345.056,192.28 346.056,191.113 346.5,189.5 Z"/></g>
<g><path style="opacity:1" fill="#eb8b84" d="M 449.5,239.5 C 439.968,231.48 430.135,223.813 420,216.5C 419.312,215.668 419.479,215.002 420.5,214.5C 424.806,213.014 428.806,211.014 432.5,208.5C 441.738,215.449 450.738,214.949 459.5,207C 463.132,204.37 466.465,201.37 469.5,198C 470.784,197.316 471.951,197.483 473,198.5C 470.422,211.44 463.422,221.44 452,228.5C 450.739,232.062 449.906,235.729 449.5,239.5 Z"/></g>
<g><path style="opacity:1" fill="#ea8b84" d="M 444.5,251.5 C 442.869,257.598 440.536,263.432 437.5,269C 448.056,273.402 457.389,279.569 465.5,287.5C 465.113,288.72 464.28,289.387 463,289.5C 455.861,286.733 448.694,285.733 441.5,286.5C 435.039,280.606 427.706,276.273 419.5,273.5C 425.156,263.19 429.989,252.523 434,241.5C 437.67,244.734 441.17,248.067 444.5,251.5 Z"/></g>
<g><path style="opacity:1" fill="#fcfcfc" d="M 221.5,242.5 C 232.27,241.353 239.77,245.686 244,255.5C 246.025,273.142 238.191,281.309 220.5,280C 207.327,274.142 203.827,264.642 210,251.5C 213.134,247.524 216.967,244.524 221.5,242.5 Z"/></g>
<g><path style="opacity:1" fill="#e98982" d="M 66.5,305.5 C 63.5,305.5 60.5,305.5 57.5,305.5C 62.6587,296.52 68.3253,287.853 74.5,279.5C 80.6573,288.97 87.6573,297.804 95.5,306C 88.0723,305.111 80.5723,304.278 73,303.5C 70.5897,303.482 68.423,304.149 66.5,305.5 Z"/></g>
<g><path style="opacity:1" fill="#ea8a83" d="M 427.5,290.5 C 419.082,300.979 410.415,311.312 401.5,321.5C 397.806,318.986 393.806,316.986 389.5,315.5C 388.417,314.635 388.251,313.635 389,312.5C 397.749,304.917 405.249,296.251 411.5,286.5C 417.416,285.455 422.749,286.788 427.5,290.5 Z"/></g>
<g><path style="opacity:1" fill="#eb8b84" d="M 85.5,316.5 C 95.3583,317.838 105.025,320.005 114.5,323C 126.886,332.197 140.219,339.864 154.5,346C 192.141,360.555 231.141,366.222 271.5,363C 277.003,367.337 282.003,372.17 286.5,377.5C 283.833,377.5 281.167,377.5 278.5,377.5C 280.272,385.371 280.938,393.371 280.5,401.5C 279.5,401.5 278.5,401.5 277.5,401.5C 275.92,393.508 272.587,386.341 267.5,380C 214.189,382.588 164.523,370.588 118.5,344C 106.321,336.244 95.3208,327.078 85.5,316.5 Z"/></g>
<g><path style="opacity:1" fill="#ea8a84" d="M 405.5,325.5 C 412.473,331.132 417.473,338.132 420.5,346.5C 413.942,343.551 407.609,340.051 401.5,336C 396.924,334.524 392.257,334.19 387.5,335C 375.79,343.547 363.457,351.047 350.5,357.5C 346.042,353.766 341.375,350.266 336.5,347C 350.116,341.196 362.783,333.862 374.5,325C 377.167,324.333 379.833,324.333 382.5,325C 388.218,327.529 393.884,330.029 399.5,332.5C 403.65,332.016 405.65,329.683 405.5,325.5 Z"/></g>
<g><path style="opacity:1" fill="#403e50" d="M 156.5,394.5 C 131.261,382.037 108.594,365.871 88.5,346C 81.5938,341.069 73.9272,339.235 65.5,340.5C 59.7213,340.888 57.2213,338.222 58,332.5C 59.214,330.951 60.714,329.785 62.5,329C 73.9799,327.536 84.6465,329.869 94.5,336C 115.035,356.273 138.368,372.606 164.5,385C 167.849,393.12 165.182,396.287 156.5,394.5 Z"/></g>
<g><path style="opacity:1" fill="#ea8a84" d="M 65.5,340.5 C 73.9272,339.235 81.5938,341.069 88.5,346C 108.594,365.871 131.261,382.037 156.5,394.5C 151.576,395.302 146.576,394.802 141.5,393C 119.261,385.089 100.594,372.089 85.5,354C 80.0817,351.449 74.415,349.783 68.5,349C 66.0695,346.695 65.0695,343.862 65.5,340.5 Z"/></g>
<g><path style="opacity:1" fill="#eb8b84" d="M 298.5,352.5 C 298.511,354.017 299.177,355.184 300.5,356C 306.41,356.529 312.243,356.029 318,354.5C 327.376,355.107 335.21,358.774 341.5,365.5C 331.421,365.69 321.754,367.857 312.5,372C 307.514,372.997 302.514,373.831 297.5,374.5C 297.649,373.448 297.483,372.448 297,371.5C 294.957,369.792 293.29,367.792 292,365.5C 287.999,362.665 284.499,359.332 281.5,355.5C 287.085,354.093 292.752,353.093 298.5,352.5 Z"/></g>
<g><path style="opacity:1" fill="#ea8d87" d="M 351.5,360.5 C 355.21,367.013 356.543,374.013 355.5,381.5C 351.353,377.205 347.687,372.538 344.5,367.5C 349.811,368.028 352.145,365.694 351.5,360.5 Z"/></g>
</svg>
