<?xml version="1.0" encoding="UTF-8"?>
<!DOCTYPE svg PUBLIC "-//W3C//DTD SVG 1.1//EN" "http://www.w3.org/Graphics/SVG/1.1/DTD/svg11.dtd">
<svg xmlns="http://www.w3.org/2000/svg" version="1.1" width="128px" height="128px" style="shape-rendering:geometricPrecision; text-rendering:geometricPrecision; image-rendering:optimizeQuality; fill-rule:evenodd; clip-rule:evenodd" xmlns:xlink="http://www.w3.org/1999/xlink">
<g><path style="opacity:0.977" fill="#fe7272" d="M 127.5,55.5 C 127.5,57.8333 127.5,60.1667 127.5,62.5C 110.906,96.9626 83.5729,110.463 45.5,103C 23.3175,97.1047 7.98414,83.6047 -0.5,62.5C -0.5,60.1667 -0.5,57.8333 -0.5,55.5C 9.15747,42.3438 21.1575,31.8438 35.5,24C 39.0909,22.8484 42.7576,22.0151 46.5,21.5C 52.2281,22.2227 57.8948,23.2227 63.5,24.5C 80.0628,18.9125 94.7295,22.0792 107.5,34C 114.767,40.7616 121.434,47.9283 127.5,55.5 Z"/></g>
<g><path style="opacity:1" fill="#edeaea" d="M 96.5,50.5 C 95.2329,54.2573 92.5662,56.4239 88.5,57C 71.5,57.6667 54.5,57.6667 37.5,57C 34.4027,55.7266 31.7361,53.8933 29.5,51.5C 40.1485,46.0494 51.3152,44.7161 63,47.5C 67.7696,47.5378 72.4363,46.8711 77,45.5C 83.601,46.9416 90.101,48.6083 96.5,50.5 Z"/></g>
<g><path style="opacity:1" fill="#6e6c6c" d="M 96.5,50.5 C 102.768,52.7562 109.101,54.9229 115.5,57C 116.731,58.1827 116.731,59.3493 115.5,60.5C 89.9773,74.8332 62.9773,78.3332 34.5,71C 26.3258,68.579 18.6591,65.079 11.5,60.5C 10.5713,59.3112 10.238,57.9778 10.5,56.5C 16.7831,54.6276 23.1164,52.9609 29.5,51.5C 31.7361,53.8933 34.4027,55.7266 37.5,57C 54.5,57.6667 71.5,57.6667 88.5,57C 92.5662,56.4239 95.2329,54.2573 96.5,50.5 Z"/></g>
</svg>
