<?xml version="1.0" encoding="UTF-8"?>
<!DOCTYPE svg PUBLIC "-//W3C//DTD SVG 1.1//EN" "http://www.w3.org/Graphics/SVG/1.1/DTD/svg11.dtd">
<svg xmlns="http://www.w3.org/2000/svg" version="1.1" width="512px" height="512px" style="shape-rendering:geometricPrecision; text-rendering:geometricPrecision; image-rendering:optimizeQuality; fill-rule:evenodd; clip-rule:evenodd" xmlns:xlink="http://www.w3.org/1999/xlink">
<g><path style="opacity:0.96" fill="#010100" d="M 242.5,-0.5 C 251.167,-0.5 259.833,-0.5 268.5,-0.5C 298.257,5.4134 319.757,22.0801 333,49.5C 350.089,112.523 365.922,175.857 380.5,239.5C 378.5,239.833 376.5,240.167 374.5,240.5C 372.304,240.59 370.137,240.923 368,241.5C 366.674,241.245 365.674,240.578 365,239.5C 350.823,181.125 336.49,122.791 322,64.5C 310.268,32.0421 287.102,15.3754 252.5,14.5C 223.652,16.8415 203.152,31.1749 191,57.5C 169.537,141.351 148.704,225.351 128.5,309.5C 91.8927,317.607 69.3927,339.941 61,376.5C 59.3463,390.89 60.8463,404.89 65.5,418.5C 62.6538,418.552 60.3204,419.552 58.5,421.5C 55.8877,422.371 53.221,423.037 50.5,423.5C 37.4114,380.608 47.4114,344.108 80.5,314C 91.4044,306.13 103.238,299.964 116,295.5C 135.889,212.944 156.556,130.611 178,48.5C 191.593,21.6341 213.093,5.30074 242.5,-0.5 Z"/></g>
<g><path style="opacity:1" fill="#fed9a9" d="M 252.5,14.5 C 287.102,15.3754 310.268,32.0421 322,64.5C 336.49,122.791 350.823,181.125 365,239.5C 365.674,240.578 366.674,241.245 368,241.5C 370.137,240.923 372.304,240.59 374.5,240.5C 375.185,245.239 376.185,249.905 377.5,254.5C 374.976,255.74 372.309,256.907 369.5,258C 374.221,275.052 378.555,292.218 382.5,309.5C 424.075,319.072 446.742,345.072 450.5,387.5C 450.343,394.241 449.677,400.908 448.5,407.5C 426.597,442.614 394.93,457.614 353.5,452.5C 356.19,446.965 359.523,441.799 363.5,437C 379.497,436.5 395.497,436.333 411.5,436.5C 411.5,431.5 411.5,426.5 411.5,421.5C 392.821,421.167 374.155,421.5 355.5,422.5C 346.805,434.696 338.305,447.029 330,459.5C 327.666,463 324.832,466 321.5,468.5C 277.468,484.479 233.468,484.479 189.5,468.5C 187.203,466.706 185.037,464.706 183,462.5C 173.957,448.913 164.79,435.413 155.5,422C 136.836,421.5 118.17,421.333 99.5,421.5C 99.5,426.5 99.5,431.5 99.5,436.5C 115.503,436.333 131.503,436.5 147.5,437C 151.054,441.714 154.387,446.547 157.5,451.5C 117.582,458.622 91.0818,442.955 78,404.5C 73.837,361.485 90.6704,329.818 128.5,309.5C 134.418,307.521 140.418,305.854 146.5,304.5C 160.186,247.089 174.186,189.756 188.5,132.5C 192.63,133.574 196.797,134.574 201,135.5C 202.326,135.245 203.326,134.578 204,133.5C 205.514,129.504 206.014,125.504 205.5,121.5C 201.269,120.026 196.936,119.026 192.5,118.5C 193.073,112.545 194.407,106.878 196.5,101.5C 196.47,102.497 196.97,103.164 198,103.5C 202.123,104.739 206.29,105.739 210.5,106.5C 211.659,101.532 212.659,96.5322 213.5,91.5C 208.883,90.5127 204.216,89.846 199.5,89.5C 201.553,70.9204 207.72,53.9204 218,38.5C 226.749,26.2056 238.249,18.2056 252.5,14.5 Z"/></g>
<g><path style="opacity:1" fill="#fbb37e" d="M 252.5,14.5 C 238.249,18.2056 226.749,26.2056 218,38.5C 207.72,53.9204 201.553,70.9204 199.5,89.5C 197.898,93.2393 196.898,97.2393 196.5,101.5C 194.407,106.878 193.073,112.545 192.5,118.5C 190.566,122.888 189.233,127.555 188.5,132.5C 174.186,189.756 160.186,247.089 146.5,304.5C 140.418,305.854 134.418,307.521 128.5,309.5C 148.704,225.351 169.537,141.351 191,57.5C 203.152,31.1749 223.652,16.8415 252.5,14.5 Z"/></g>
<g><path style="opacity:1" fill="#fffdfb" d="M 199.5,89.5 C 204.216,89.846 208.883,90.5127 213.5,91.5C 212.659,96.5322 211.659,101.532 210.5,106.5C 206.29,105.739 202.123,104.739 198,103.5C 196.97,103.164 196.47,102.497 196.5,101.5C 196.898,97.2393 197.898,93.2393 199.5,89.5 Z"/></g>
<g><path style="opacity:1" fill="#fffcfa" d="M 192.5,118.5 C 196.936,119.026 201.269,120.026 205.5,121.5C 206.014,125.504 205.514,129.504 204,133.5C 203.326,134.578 202.326,135.245 201,135.5C 196.797,134.574 192.63,133.574 188.5,132.5C 189.233,127.555 190.566,122.888 192.5,118.5 Z"/></g>
<g><path style="opacity:0.967" fill="#030201" d="M 269.5,511.5 C 260.167,511.5 250.833,511.5 241.5,511.5C 216.216,507.691 194.549,496.691 176.5,478.5C 135.396,492.598 99.5631,484.265 69,453.5C 65.7047,449.071 62.538,444.571 59.5,440C 60.8975,437.791 62.8975,436.291 65.5,435.5C 67.8895,434.554 70.0562,433.221 72,431.5C 95.2975,464.771 126.798,476.438 166.5,466.5C 164.269,461.039 161.269,456.039 157.5,451.5C 154.387,446.547 151.054,441.714 147.5,437C 131.503,436.5 115.503,436.333 99.5,436.5C 99.5,431.5 99.5,426.5 99.5,421.5C 118.17,421.333 136.836,421.5 155.5,422C 164.79,435.413 173.957,448.913 183,462.5C 185.037,464.706 187.203,466.706 189.5,468.5C 207.221,487.138 229.055,496.138 255,495.5C 275.238,495.816 293.738,490.316 310.5,479C 314.668,475.998 318.335,472.498 321.5,468.5C 324.832,466 327.666,463 330,459.5C 338.305,447.029 346.805,434.696 355.5,422.5C 374.155,421.5 392.821,421.167 411.5,421.5C 411.5,426.5 411.5,431.5 411.5,436.5C 395.497,436.333 379.497,436.5 363.5,437C 359.523,441.799 356.19,446.965 353.5,452.5C 350.034,456.074 347.034,460.074 344.5,464.5C 345.09,465.799 346.09,466.632 347.5,467C 386.009,475.392 416.509,463.559 439,431.5C 443.251,423.912 446.417,415.912 448.5,407.5C 449.677,400.908 450.343,394.241 450.5,387.5C 446.742,345.072 424.075,319.072 382.5,309.5C 378.555,292.218 374.221,275.052 369.5,258C 372.309,256.907 374.976,255.74 377.5,254.5C 380.068,253.55 382.568,253.55 385,254.5C 388.176,268.204 391.509,281.87 395,295.5C 448.162,315.146 471.162,353.146 464,409.5C 454.268,448.232 430.101,472.732 391.5,483C 372.012,487.317 353.012,485.817 334.5,478.5C 316.451,496.691 294.784,507.691 269.5,511.5 Z"/></g>
<g><path style="opacity:1" fill="#fbb47e" d="M 128.5,309.5 C 90.6704,329.818 73.837,361.485 78,404.5C 91.0818,442.955 117.582,458.622 157.5,451.5C 161.269,456.039 164.269,461.039 166.5,466.5C 126.798,476.438 95.2975,464.771 72,431.5C 70.0562,433.221 67.8895,434.554 65.5,435.5C 63.1667,430.833 60.8333,426.167 58.5,421.5C 60.3204,419.552 62.6538,418.552 65.5,418.5C 60.8463,404.89 59.3463,390.89 61,376.5C 69.3927,339.941 91.8927,317.607 128.5,309.5 Z"/></g>
<g><path style="opacity:1" fill="#fbb37e" d="M 448.5,407.5 C 446.417,415.912 443.251,423.912 439,431.5C 416.509,463.559 386.009,475.392 347.5,467C 346.09,466.632 345.09,465.799 344.5,464.5C 347.034,460.074 350.034,456.074 353.5,452.5C 394.93,457.614 426.597,442.614 448.5,407.5 Z"/></g>
<g><path style="opacity:1" fill="#fbb47e" d="M 189.5,468.5 C 233.468,484.479 277.468,484.479 321.5,468.5C 318.335,472.498 314.668,475.998 310.5,479C 293.738,490.316 275.238,495.816 255,495.5C 229.055,496.138 207.221,487.138 189.5,468.5 Z"/></g>
</svg>
