<?xml version="1.0" encoding="UTF-8"?>
<!DOCTYPE svg PUBLIC "-//W3C//DTD SVG 1.1//EN" "http://www.w3.org/Graphics/SVG/1.1/DTD/svg11.dtd">
<svg xmlns="http://www.w3.org/2000/svg" version="1.1" width="128px" height="128px" style="shape-rendering:geometricPrecision; text-rendering:geometricPrecision; image-rendering:optimizeQuality; fill-rule:evenodd; clip-rule:evenodd" xmlns:xlink="http://www.w3.org/1999/xlink">
<g><path style="opacity:0.946" fill="#fec9b6" d="M 78.5,46.5 C 78.5,47.1667 78.1667,47.5 77.5,47.5C 76.8333,47.5 76.5,47.8333 76.5,48.5C 76.762,49.9778 76.4287,51.3112 75.5,52.5C 73.2706,51.4229 70.9372,50.7563 68.5,50.5C 71.4433,34.567 74.11,18.567 76.5,2.5C 80.7349,1.36709 83.0683,3.20043 83.5,8C 81.3918,19.9826 79.3918,31.9826 77.5,44C 77.528,45.0698 77.8614,45.9032 78.5,46.5 Z"/></g>
<g><path style="opacity:1" fill="#f7b4a0" d="M 76.5,2.5 C 74.11,18.567 71.4433,34.567 68.5,50.5C 70.9372,50.7563 73.2706,51.4229 75.5,52.5C 76.4287,51.3112 76.762,49.9778 76.5,48.5C 77.1667,48.5 77.5,48.1667 77.5,47.5C 78.1667,47.5 78.5,47.1667 78.5,46.5C 82.655,37.5217 86.8217,28.5217 91,19.5C 93.0696,16.5924 95.5696,15.9257 98.5,17.5C 91.5654,30.8751 85.5654,44.7084 80.5,59C 77.3772,58.2791 74.3772,56.9457 71.5,55C 60.3131,52.2707 49.4798,53.1041 39,57.5C 36.0464,65.0274 34.8798,72.8607 35.5,81C 35.4101,89.397 36.0768,97.7304 37.5,106C 36.3255,112.551 34.9921,119.051 33.5,125.5C 31.5,125.5 29.5,125.5 27.5,125.5C 28.7562,118.883 29.7562,112.216 30.5,105.5C 27.3158,87.6717 27.9824,70.005 32.5,52.5C 30.6628,41.829 29.1628,31.1624 28,20.5C 30.6812,17.1885 33.5146,16.8552 36.5,19.5C 34.9735,20.4919 34.3068,21.9919 34.5,24C 35.5477,33.7404 37.5477,43.2404 40.5,52.5C 43.2792,51.6023 45.6125,50.269 47.5,48.5C 48.3904,34.8148 49.5571,21.1481 51,7.5C 52.1096,5.96317 53.6096,5.2965 55.5,5.5C 54.9283,20.1719 54.2617,34.8385 53.5,49.5C 56.2469,49.8134 58.9135,49.48 61.5,48.5C 61.8627,47.8165 62.1961,47.1499 62.5,46.5C 65.3463,31.7608 69.0129,17.2608 73.5,3C 74.448,2.51722 75.448,2.35055 76.5,2.5 Z"/></g>
<g><path style="opacity:0.926" fill="#fec9b6" d="M 55.5,5.5 C 57.9115,5.13673 59.4115,6.13673 60,8.5C 60.4399,21.3482 61.2733,34.0149 62.5,46.5C 62.1961,47.1499 61.8627,47.8165 61.5,48.5C 58.9135,49.48 56.2469,49.8134 53.5,49.5C 54.2617,34.8385 54.9283,20.1719 55.5,5.5 Z"/></g>
<g><path style="opacity:0.983" fill="#fec9b6" d="M 98.5,17.5 C 100.99,18.1081 102.324,19.7748 102.5,22.5C 96.5705,36.4538 90.7372,50.4538 85,64.5C 84.4178,68.824 83.9178,73.1573 83.5,77.5C 83.5068,79.3693 83.8401,81.036 84.5,82.5C 82.9315,87.0819 84.5981,88.5819 89.5,87C 97.1937,82.8209 104.86,78.6543 112.5,74.5C 113.537,76.7375 113.703,79.0709 113,81.5C 110.257,83.7879 107.423,85.9545 104.5,88C 99.8712,94.5642 94.5378,100.564 88.5,106C 80.8471,110.108 72.8471,113.442 64.5,116C 61.924,118.651 60.5907,121.818 60.5,125.5C 51.5,125.5 42.5,125.5 33.5,125.5C 34.9921,119.051 36.3255,112.551 37.5,106C 36.0768,97.7304 35.4101,89.397 35.5,81C 34.8798,72.8607 36.0464,65.0274 39,57.5C 49.4798,53.1041 60.3131,52.2707 71.5,55C 74.3772,56.9457 77.3772,58.2791 80.5,59C 85.5654,44.7084 91.5654,30.8751 98.5,17.5 Z"/></g>
<g><path style="opacity:0.944" fill="#fec9b6" d="M 36.5,19.5 C 39.9906,29.3149 43.6573,38.9816 47.5,48.5C 45.6125,50.269 43.2792,51.6023 40.5,52.5C 37.5477,43.2404 35.5477,33.7404 34.5,24C 34.3068,21.9919 34.9735,20.4919 36.5,19.5 Z"/></g>
<g><path style="opacity:0.897" fill="#99dcf3" d="M 117.5,27.5 C 116.167,27.5 114.833,27.5 113.5,27.5C 113.5,25.5 113.5,23.5 113.5,21.5C 114.833,21.5 116.167,21.5 117.5,21.5C 117.5,23.5 117.5,25.5 117.5,27.5 Z"/></g>
<g><path style="opacity:0.902" fill="#9adcf4" d="M 113.5,27.5 C 113.5,28.8333 113.5,30.1667 113.5,31.5C 111.5,31.5 109.5,31.5 107.5,31.5C 107.5,30.1667 107.5,28.8333 107.5,27.5C 109.5,27.5 111.5,27.5 113.5,27.5 Z"/></g>
<g><path style="opacity:0.902" fill="#9adcf4" d="M 117.5,27.5 C 119.5,27.5 121.5,27.5 123.5,27.5C 123.5,28.8333 123.5,30.1667 123.5,31.5C 121.5,31.5 119.5,31.5 117.5,31.5C 117.5,30.1667 117.5,28.8333 117.5,27.5 Z"/></g>
<g><path style="opacity:0.897" fill="#99dcf3" d="M 113.5,31.5 C 114.833,31.5 116.167,31.5 117.5,31.5C 117.5,33.5 117.5,35.5 117.5,37.5C 116.167,37.5 114.833,37.5 113.5,37.5C 113.5,35.5 113.5,33.5 113.5,31.5 Z"/></g>
<g><path style="opacity:0.897" fill="#99dcf3" d="M 19.5,49.5 C 18.1667,49.5 16.8333,49.5 15.5,49.5C 15.5,47.5 15.5,45.5 15.5,43.5C 16.8333,43.5 18.1667,43.5 19.5,43.5C 19.5,45.5 19.5,47.5 19.5,49.5 Z"/></g>
<g><path style="opacity:0.902" fill="#9adcf4" d="M 15.5,49.5 C 15.5,50.8333 15.5,52.1667 15.5,53.5C 13.5,53.5 11.5,53.5 9.5,53.5C 9.5,52.1667 9.5,50.8333 9.5,49.5C 11.5,49.5 13.5,49.5 15.5,49.5 Z"/></g>
<g><path style="opacity:0.902" fill="#9adcf4" d="M 19.5,49.5 C 21.5,49.5 23.5,49.5 25.5,49.5C 25.5,50.8333 25.5,52.1667 25.5,53.5C 23.5,53.5 21.5,53.5 19.5,53.5C 19.5,52.1667 19.5,50.8333 19.5,49.5 Z"/></g>
<g><path style="opacity:0.897" fill="#99dcf3" d="M 15.5,53.5 C 16.8333,53.5 18.1667,53.5 19.5,53.5C 19.5,55.5 19.5,57.5 19.5,59.5C 18.1667,59.5 16.8333,59.5 15.5,59.5C 15.5,57.5 15.5,55.5 15.5,53.5 Z"/></g>
<g><path style="opacity:1" fill="#f7b4a0" d="M 69.5,63.5 C 71.8568,63.3367 74.1902,63.5034 76.5,64C 77.8333,65 77.8333,66 76.5,67C 61.7913,67.6877 49.7913,73.6877 40.5,85C 37.1693,84.8109 36.6693,83.3109 39,80.5C 47.2876,71.277 57.4543,65.6104 69.5,63.5 Z"/></g>
<g><path style="opacity:1" fill="#f7b4a0" d="M 74.5,69.5 C 76.6859,69.5106 77.5192,70.5106 77,72.5C 65.1382,79.0488 57.8049,89.0488 55,102.5C 52.875,103.851 51.7083,103.185 51.5,100.5C 54.5719,86.6625 62.2386,76.3291 74.5,69.5 Z"/></g>
<g><path style="opacity:1" fill="#f7b5a0" d="M 112.5,74.5 C 104.86,78.6543 97.1937,82.8209 89.5,87C 84.5981,88.5819 82.9315,87.0819 84.5,82.5C 91.0941,79.243 97.7608,76.0763 104.5,73C 107.538,72.115 110.205,72.615 112.5,74.5 Z"/></g>
<g><path style="opacity:0.897" fill="#99dcf3" d="M 101.5,111.5 C 100.167,111.5 98.8333,111.5 97.5,111.5C 97.5,109.5 97.5,107.5 97.5,105.5C 98.8333,105.5 100.167,105.5 101.5,105.5C 101.5,107.5 101.5,109.5 101.5,111.5 Z"/></g>
<g><path style="opacity:0.902" fill="#9adcf4" d="M 97.5,111.5 C 97.5,112.833 97.5,114.167 97.5,115.5C 95.5,115.5 93.5,115.5 91.5,115.5C 91.5,114.167 91.5,112.833 91.5,111.5C 93.5,111.5 95.5,111.5 97.5,111.5 Z"/></g>
<g><path style="opacity:0.902" fill="#9adcf4" d="M 101.5,111.5 C 103.5,111.5 105.5,111.5 107.5,111.5C 107.5,112.833 107.5,114.167 107.5,115.5C 105.5,115.5 103.5,115.5 101.5,115.5C 101.5,114.167 101.5,112.833 101.5,111.5 Z"/></g>
<g><path style="opacity:0.897" fill="#99dcf3" d="M 97.5,115.5 C 98.8333,115.5 100.167,115.5 101.5,115.5C 101.5,117.5 101.5,119.5 101.5,121.5C 100.167,121.5 98.8333,121.5 97.5,121.5C 97.5,119.5 97.5,117.5 97.5,115.5 Z"/></g>
</svg>
