<?xml version="1.0" encoding="UTF-8"?>
<!DOCTYPE svg PUBLIC "-//W3C//DTD SVG 1.1//EN" "http://www.w3.org/Graphics/SVG/1.1/DTD/svg11.dtd">
<svg xmlns="http://www.w3.org/2000/svg" version="1.1" width="240px" height="240px" style="shape-rendering:geometricPrecision; text-rendering:geometricPrecision; image-rendering:optimizeQuality; fill-rule:evenodd; clip-rule:evenodd" xmlns:xlink="http://www.w3.org/1999/xlink">
<g><path style="opacity:1" fill="#fefefe" d="M -0.5,-0.5 C 79.5,-0.5 159.5,-0.5 239.5,-0.5C 239.5,79.5 239.5,159.5 239.5,239.5C 159.5,239.5 79.5,239.5 -0.5,239.5C -0.5,159.5 -0.5,79.5 -0.5,-0.5 Z"/></g>
<g><path style="opacity:1" fill="#251a18" d="M 39.5,61.5 C 40.2389,61.369 40.9056,61.5357 41.5,62C 38.4875,63.6792 36.1541,66.0125 34.5,69C 36.6403,73.0805 39.9736,75.7472 44.5,77C 61.2016,81.3708 78.2016,83.7042 95.5,84C 122.307,85.3255 148.974,83.9921 175.5,80C 185.295,78.4803 194.628,75.647 203.5,71.5C 202.352,69.8513 201.019,68.3513 199.5,67C 209.838,69.7169 214.338,76.5502 213,87.5C 211.75,82.3323 209.416,77.6657 206,73.5C 203.503,97.0025 195.503,118.336 182,137.5C 161.152,159.561 135.652,168.061 105.5,163C 73.0725,154.575 51.5725,134.408 41,102.5C 37.2312,91.7582 34.5645,80.7582 33,69.5C 29.6071,73.6192 27.2738,78.2858 26,83.5C 24.9682,72.7116 29.4682,65.3783 39.5,61.5 Z"/></g>
<g><path style="opacity:1" fill="#5b5351" d="M 91.5,87.5 C 95.0419,87.1872 98.3752,87.5206 101.5,88.5C 98.5,88.5 95.5,88.5 92.5,88.5C 92.5,90.8333 92.5,93.1667 92.5,95.5C 91.596,94.791 91.2627,93.791 91.5,92.5C 91.5,90.8333 91.5,89.1667 91.5,87.5 Z"/></g>
<g><path style="opacity:1" fill="#fbfafa" d="M 183.5,82.5 C 184.222,91.4953 184.888,100.495 185.5,109.5C 184.713,111.104 183.38,111.771 181.5,111.5C 173.299,113.135 165.299,115.135 157.5,117.5C 156.883,117.389 156.383,117.056 156,116.5C 154.943,108.536 154.277,100.536 154,92.5C 153.512,100.531 153.512,108.531 154,116.5C 151.519,118.314 148.685,118.98 145.5,118.5C 141.027,119.051 136.693,119.717 132.5,120.5C 129.552,120.777 126.719,120.444 124,119.5C 123.5,109.172 123.334,98.8387 123.5,88.5C 133.158,87.9711 142.825,87.6378 152.5,87.5C 152.351,88.552 152.517,89.552 153,90.5C 153.309,89.2341 153.809,88.0674 154.5,87C 164.288,86.1556 173.955,84.6556 183.5,82.5 Z"/></g>
<g><path style="opacity:1" fill="#fcfcfc" d="M 65.5,85.5 C 74.0928,87.0063 82.7595,87.6729 91.5,87.5C 91.5,89.1667 91.5,90.8333 91.5,92.5C 90.5269,94.9479 90.1936,97.6146 90.5,100.5C 90.8047,105.762 90.4714,110.928 89.5,116C 79.8024,114.962 70.1357,113.462 60.5,111.5C 59.5217,102.859 59.5217,94.1923 60.5,85.5C 62.1667,85.5 63.8333,85.5 65.5,85.5 Z"/></g>
<g><path style="opacity:1" fill="#fbfafa" d="M 59.5,84.5 C 59.0799,92.5714 58.4133,100.571 57.5,108.5C 54.5,107.833 51.5,107.167 48.5,106.5C 47.828,105.733 46.9947,105.066 46,104.5C 42.6162,96.0306 40.2829,87.3639 39,78.5C 45.4791,81.662 52.3124,83.662 59.5,84.5 Z"/></g>
<g><path style="opacity:1" fill="#f6f5f5" d="M 187.5,106.5 C 186.341,98.5634 185.341,90.5634 184.5,82.5C 189.6,80.9269 194.767,79.2603 200,77.5C 199.612,87.3954 197.779,97.062 194.5,106.5C 192.997,107.557 191.33,108.224 189.5,108.5C 188.287,108.253 187.62,107.586 187.5,106.5 Z"/></g>
<g><path style="opacity:1" fill="#6a6460" d="M 183.5,82.5 C 183.833,82.5 184.167,82.5 184.5,82.5C 185.341,90.5634 186.341,98.5634 187.5,106.5C 186.833,107.5 186.167,108.5 185.5,109.5C 184.888,100.495 184.222,91.4953 183.5,82.5 Z"/></g>
<g><path style="opacity:1" fill="#6b6463" d="M 48.5,106.5 C 51.5,107.167 54.5,107.833 57.5,108.5C 57.1667,109.167 56.8333,109.833 56.5,110.5C 53.5198,109.677 50.8531,108.343 48.5,106.5 Z"/></g>
<g><path style="opacity:1" fill="#f3f2f1" d="M 48.5,106.5 C 50.8531,108.343 53.5198,109.677 56.5,110.5C 57.5585,111.6 58.3918,112.934 59,114.5C 59.4992,119.155 59.6658,123.821 59.5,128.5C 54.6326,121.767 50.2993,114.601 46.5,107C 47.0944,106.536 47.7611,106.369 48.5,106.5 Z"/></g>
<g><path style="opacity:1" fill="#554745" d="M 59.5,84.5 C 61.7354,84.2053 63.7354,84.5386 65.5,85.5C 63.8333,85.5 62.1667,85.5 60.5,85.5C 59.5217,94.1923 59.5217,102.859 60.5,111.5C 70.1357,113.462 79.8024,114.962 89.5,116C 90.4714,110.928 90.8047,105.762 90.5,100.5C 91.4682,102.607 91.8016,104.941 91.5,107.5C 91.2493,110.909 91.5827,114.242 92.5,117.5C 102.113,119.563 111.779,120.229 121.5,119.5C 122.476,109.219 122.809,98.8857 122.5,88.5C 122.833,88.5 123.167,88.5 123.5,88.5C 123.334,98.8387 123.5,109.172 124,119.5C 126.719,120.444 129.552,120.777 132.5,120.5C 132.5,120.833 132.5,121.167 132.5,121.5C 129.315,121.02 126.481,121.686 124,123.5C 123.5,135.495 123.333,147.495 123.5,159.5C 126.833,159.5 130.167,159.5 133.5,159.5C 126.167,160.833 118.833,160.833 111.5,159.5C 115.167,159.5 118.833,159.5 122.5,159.5C 122.667,147.495 122.5,135.495 122,123.5C 121.5,123 121,122.5 120.5,122C 111.962,121.523 103.462,120.689 95,119.5C 93.8926,119.585 92.8926,119.919 92,120.5C 91.5001,131.828 91.3335,143.162 91.5,154.5C 90.5084,154.672 89.8417,154.338 89.5,153.5C 90.6593,142.341 90.8259,131.008 90,119.5C 80.2794,116.855 70.4461,114.521 60.5,112.5C 60.5,118.167 60.5,123.833 60.5,129.5C 59.8333,129.5 59.5,129.167 59.5,128.5C 59.6658,123.821 59.4992,119.155 59,114.5C 58.3918,112.934 57.5585,111.6 56.5,110.5C 56.8333,109.833 57.1667,109.167 57.5,108.5C 58.4133,100.571 59.0799,92.5714 59.5,84.5 Z"/></g>
<g><path style="opacity:1" fill="#928d8a" d="M 91.5,92.5 C 91.2627,93.791 91.596,94.791 92.5,95.5C 92.8168,99.7016 92.4834,103.702 91.5,107.5C 91.8016,104.941 91.4682,102.607 90.5,100.5C 90.1936,97.6146 90.5269,94.9479 91.5,92.5 Z"/></g>
<g><path style="opacity:1" fill="#fdfcfc" d="M 101.5,88.5 C 108.5,88.5 115.5,88.5 122.5,88.5C 122.809,98.8857 122.476,109.219 121.5,119.5C 111.779,120.229 102.113,119.563 92.5,117.5C 91.5827,114.242 91.2493,110.909 91.5,107.5C 92.4834,103.702 92.8168,99.7016 92.5,95.5C 92.5,93.1667 92.5,90.8333 92.5,88.5C 95.5,88.5 98.5,88.5 101.5,88.5 Z"/></g>
<g><path style="opacity:1" fill="#696261" d="M 181.5,111.5 C 181.5,111.833 181.5,112.167 181.5,112.5C 173.791,115.012 165.791,116.678 157.5,117.5C 165.299,115.135 173.299,113.135 181.5,111.5 Z"/></g>
<g><path style="opacity:1" fill="#fbfbfa" d="M 89.5,153.5 C 77.4271,148.429 67.7604,140.429 60.5,129.5C 60.5,123.833 60.5,118.167 60.5,112.5C 70.4461,114.521 80.2794,116.855 90,119.5C 90.8259,131.008 90.6593,142.341 89.5,153.5 Z"/></g>
<g><path style="opacity:1" fill="#fbfbfb" d="M 181.5,112.5 C 183.973,112.088 185.306,113.088 185.5,115.5C 184.518,118.962 184.185,122.629 184.5,126.5C 178.036,138.299 168.703,146.965 156.5,152.5C 155.506,142.681 155.173,132.681 155.5,122.5C 155.392,120.486 156.058,118.82 157.5,117.5C 165.791,116.678 173.791,115.012 181.5,112.5 Z"/></g>
<g><path style="opacity:1" fill="#f2f2f0" d="M 187.5,122.5 C 186.539,120.735 186.205,118.735 186.5,116.5C 186.362,112.307 188.362,109.973 192.5,109.5C 191.416,114.09 189.749,118.424 187.5,122.5 Z"/></g>
<g><path style="opacity:1" fill="#4b3a37" d="M 157.5,117.5 C 156.058,118.82 155.392,120.486 155.5,122.5C 154.833,127.833 154.167,133.167 153.5,138.5C 153.666,132.491 153.499,126.491 153,120.5C 150.619,119.565 148.119,119.232 145.5,119.5C 145.5,119.167 145.5,118.833 145.5,118.5C 148.685,118.98 151.519,118.314 154,116.5C 153.512,108.531 153.512,100.531 154,92.5C 154.277,100.536 154.943,108.536 156,116.5C 156.383,117.056 156.883,117.389 157.5,117.5 Z"/></g>
<g><path style="opacity:1" fill="#fbfbfb" d="M 111.5,159.5 C 104.506,159.056 97.8392,157.389 91.5,154.5C 91.3335,143.162 91.5001,131.828 92,120.5C 92.8926,119.919 93.8926,119.585 95,119.5C 103.462,120.689 111.962,121.523 120.5,122C 121,122.5 121.5,123 122,123.5C 122.5,135.495 122.667,147.495 122.5,159.5C 118.833,159.5 115.167,159.5 111.5,159.5 Z"/></g>
<g><path style="opacity:1" fill="#706968" d="M 145.5,118.5 C 145.5,118.833 145.5,119.167 145.5,119.5C 141.361,120.563 137.028,121.23 132.5,121.5C 132.5,121.167 132.5,120.833 132.5,120.5C 136.693,119.717 141.027,119.051 145.5,118.5 Z"/></g>
<g><path style="opacity:1" fill="#fbfbfb" d="M 145.5,119.5 C 148.119,119.232 150.619,119.565 153,120.5C 153.499,126.491 153.666,132.491 153.5,138.5C 153.5,143.833 153.5,149.167 153.5,154.5C 146.964,156.674 140.297,158.341 133.5,159.5C 130.167,159.5 126.833,159.5 123.5,159.5C 123.333,147.495 123.5,135.495 124,123.5C 126.481,121.686 129.315,121.02 132.5,121.5C 137.028,121.23 141.361,120.563 145.5,119.5 Z"/></g>
<g><path style="opacity:1" fill="#8d8785" d="M 185.5,115.5 C 185.5,116.167 185.833,116.5 186.5,116.5C 186.205,118.735 186.539,120.735 187.5,122.5C 186.488,123.872 185.488,125.205 184.5,126.5C 184.185,122.629 184.518,118.962 185.5,115.5 Z"/></g>
<g><path style="opacity:1" fill="#8d8683" d="M 155.5,122.5 C 155.173,132.681 155.506,142.681 156.5,152.5C 155.71,153.401 154.71,154.068 153.5,154.5C 153.5,149.167 153.5,143.833 153.5,138.5C 154.167,133.167 154.833,127.833 155.5,122.5 Z"/></g>
<g><path style="opacity:1" fill="#302927" d="M 144.5,169.5 C 146.379,169.393 146.712,169.893 145.5,171C 128.434,179.471 111.434,179.471 94.5,171C 98.7408,171.959 103.074,172.959 107.5,174C 120.352,175.584 132.685,174.084 144.5,169.5 Z"/></g>
</svg>
