<?xml version="1.0" encoding="UTF-8"?>
<!DOCTYPE svg PUBLIC "-//W3C//DTD SVG 1.1//EN" "http://www.w3.org/Graphics/SVG/1.1/DTD/svg11.dtd">
<svg xmlns="http://www.w3.org/2000/svg" version="1.1" width="512px" height="512px" style="shape-rendering:geometricPrecision; text-rendering:geometricPrecision; image-rendering:optimizeQuality; fill-rule:evenodd; clip-rule:evenodd" xmlns:xlink="http://www.w3.org/1999/xlink">
<g><path style="opacity:0.992" fill="#802f34" d="M 6.5,-0.5 C 10.1667,-0.5 13.8333,-0.5 17.5,-0.5C 115.531,36.5885 216.865,50.0885 321.5,40C 380.824,34.3336 438.158,20.8336 493.5,-0.5C 497.167,-0.5 500.833,-0.5 504.5,-0.5C 507.167,1.5 509.5,3.83333 511.5,6.5C 511.5,11.1667 511.5,15.8333 511.5,20.5C 504.682,62.1364 489.515,100.47 466,135.5C 459.382,144.95 451.882,153.616 443.5,161.5C 434.316,146.135 424.483,131.135 414,116.5C 409.186,110.385 404.019,104.551 398.5,99C 396.112,97.1395 393.446,95.8061 390.5,95C 358.535,87.0258 326.535,86.6925 294.5,94C 283.851,97.1598 273.851,101.66 264.5,107.5C 261.518,109.474 258.518,111.474 255.5,113.5C 252.482,111.474 249.482,109.474 246.5,107.5C 228.102,96.3964 208.102,90.2297 186.5,89C 165.254,87.5579 144.254,89.2246 123.5,94C 115.932,96.038 109.766,100.205 105,106.5C 91.0732,123.915 78.5732,142.248 67.5,161.5C 39.8234,132.846 20.3234,99.1789 9,60.5C 5.23935,47.1729 2.07268,33.8396 -0.5,20.5C -0.5,15.8333 -0.5,11.1667 -0.5,6.5C 1.5,3.83333 3.83333,1.5 6.5,-0.5 Z"/></g>
<g><path style="opacity:0.998" fill="#fe5363" d="M 246.5,107.5 C 246.333,184.167 246.5,260.834 247,337.5C 249.451,343.089 253.617,344.922 259.5,343C 261.378,341.457 262.878,339.624 264,337.5C 264.5,260.834 264.667,184.167 264.5,107.5C 273.851,101.66 283.851,97.1598 294.5,94C 326.535,86.6925 358.535,87.0258 390.5,95C 393.446,95.8061 396.112,97.1395 398.5,99C 404.019,104.551 409.186,110.385 414,116.5C 424.483,131.135 434.316,146.135 443.5,161.5C 480.532,230.358 492.698,303.358 480,380.5C 467.506,434.663 435.339,471.829 383.5,492C 352.316,503.137 320.316,509.637 287.5,511.5C 266.167,511.5 244.833,511.5 223.5,511.5C 68.2646,501.38 4.09795,419.38 31,265.5C 37.7101,228.867 49.8768,194.201 67.5,161.5C 78.5732,142.248 91.0732,123.915 105,106.5C 109.766,100.205 115.932,96.038 123.5,94C 144.254,89.2246 165.254,87.5579 186.5,89C 208.102,90.2297 228.102,96.3964 246.5,107.5 Z"/></g>
<g><path style="opacity:1" fill="#df4d5f" d="M 246.5,107.5 C 249.482,109.474 252.482,111.474 255.5,113.5C 258.518,111.474 261.518,109.474 264.5,107.5C 264.667,184.167 264.5,260.834 264,337.5C 262.878,339.624 261.378,341.457 259.5,343C 253.617,344.922 249.451,343.089 247,337.5C 246.5,260.834 246.333,184.167 246.5,107.5 Z"/></g>
<g><path style="opacity:1" fill="#fb7a75" d="M 57.5,317.5 C 63.2039,316.436 67.3706,318.436 70,323.5C 68.7446,352.473 74.7446,379.806 88,405.5C 93.9526,413.788 100.286,421.788 107,429.5C 107.132,438.03 102.966,441.53 94.5,440C 75.1557,421.824 62.6557,399.657 57,373.5C 53.7652,356.644 52.4319,339.644 53,322.5C 54.7073,320.963 56.2073,319.296 57.5,317.5 Z"/></g>
<g><path style="opacity:1" fill="#df4d60" d="M 252.5,361.5 C 257.739,360.959 261.572,362.959 264,367.5C 264.667,381.167 264.667,394.833 264,408.5C 260.96,414.368 256.46,415.868 250.5,413C 248.513,411.681 247.346,409.848 247,407.5C 246.333,394.167 246.333,380.833 247,367.5C 248.36,364.977 250.193,362.977 252.5,361.5 Z"/></g>
</svg>
