<?xml version="1.0" encoding="UTF-8"?>
<!DOCTYPE svg PUBLIC "-//W3C//DTD SVG 1.1//EN" "http://www.w3.org/Graphics/SVG/1.1/DTD/svg11.dtd">
<svg xmlns="http://www.w3.org/2000/svg" version="1.1" width="224px" height="225px" style="shape-rendering:geometricPrecision; text-rendering:geometricPrecision; image-rendering:optimizeQuality; fill-rule:evenodd; clip-rule:evenodd" xmlns:xlink="http://www.w3.org/1999/xlink">
<g><path style="opacity:1" fill="#fefefe" d="M -0.5,-0.5 C 74.1667,-0.5 148.833,-0.5 223.5,-0.5C 223.5,74.5 223.5,149.5 223.5,224.5C 148.833,224.5 74.1667,224.5 -0.5,224.5C -0.5,149.5 -0.5,74.5 -0.5,-0.5 Z"/></g>
<g><path style="opacity:1" fill="#6d7481" d="M 47.5,16.5 C 47.427,18.0269 48.0937,19.0269 49.5,19.5C 49.5,20.5 49.5,21.5 49.5,22.5C 46.3301,23.0836 43.1635,23.7503 40,24.5C 38.6739,24.2451 37.6739,23.5784 37,22.5C 36.6012,22.7284 36.4346,23.0618 36.5,23.5C 33.726,19.867 31.0594,16.0336 28.5,12C 34.7399,8.5443 40.7399,9.21096 46.5,14C 47.2524,14.6708 47.5858,15.5041 47.5,16.5 Z"/></g>
<g><path style="opacity:1" fill="#323232" d="M 90.5,11.5 C 90.1667,12.5 89.5,13.1667 88.5,13.5C 88.1667,13.5 87.8333,13.5 87.5,13.5C 87.9731,12.0937 88.9731,11.427 90.5,11.5 Z"/></g>
<g><path style="opacity:1" fill="#f9f9f9" d="M 118.5,64.5 C 117.758,66.4258 116.758,68.2591 115.5,70C 116.517,71.0495 116.684,72.2161 116,73.5C 114.997,71.0649 114.497,71.3982 114.5,74.5C 114.467,77.1016 115.467,79.1016 117.5,80.5C 119.075,84.0781 121.075,87.4114 123.5,90.5C 124.8,93.4323 126.8,95.7656 129.5,97.5C 134.797,104.464 140.797,110.798 147.5,116.5C 148.08,118.749 149.413,120.415 151.5,121.5C 153.173,124.167 155.507,126.167 158.5,127.5C 158.427,129.027 159.094,130.027 160.5,130.5C 160.157,132.225 159.157,132.725 157.5,132C 147.124,126.428 136.457,121.428 125.5,117C 111.929,107.031 104.763,93.5315 104,76.5C 93.7413,60.9913 95.7413,47.3246 110,35.5C 114.309,28.8405 112.809,24.1739 105.5,21.5C 101.972,22.9213 98.3055,23.588 94.5,23.5C 94.6815,20.8049 95.6815,18.4716 97.5,16.5C 98.4345,15.4324 98.7678,14.099 98.5,12.5C 97.1667,12.5 95.8333,12.5 94.5,12.5C 92.5233,14.1881 90.5233,14.5214 88.5,13.5C 89.5,13.1667 90.1667,12.5 90.5,11.5C 97.2093,10.8639 103.876,10.6973 110.5,11C 125.407,21.5565 126.24,33.0565 113,45.5C 109.232,53.3713 111.066,59.7047 118.5,64.5 Z"/></g>
<g><path style="opacity:1" fill="#927231" d="M 94.5,12.5 C 95.8333,12.5 97.1667,12.5 98.5,12.5C 98.7678,14.099 98.4345,15.4324 97.5,16.5C 95.0882,16.3059 94.0882,14.9726 94.5,12.5 Z"/></g>
<g><path style="opacity:1" fill="#1f1f1f" d="M 120.5,63.5 C 123.049,64.8313 122.716,65.8313 119.5,66.5C 119.672,65.5084 119.338,64.8417 118.5,64.5C 111.066,59.7047 109.232,53.3713 113,45.5C 126.24,33.0565 125.407,21.5565 110.5,11C 103.876,10.6973 97.2093,10.8639 90.5,11.5C 92.1209,9.88284 94.1209,8.71618 96.5,8C 108.096,6.36668 118.763,8.70002 128.5,15C 130.046,17.2568 131.712,19.4235 133.5,21.5C 132.998,22.521 132.332,22.6877 131.5,22C 127.591,14.7202 121.591,11.0536 113.5,11C 122.171,17.0096 125.337,25.1762 123,35.5C 120,39.1667 117,42.8333 114,46.5C 110.649,54.3053 112.816,59.972 120.5,63.5 Z"/></g>
<g><path style="opacity:1" fill="#c8c3bc" d="M 94.5,12.5 C 94.0882,14.9726 95.0882,16.3059 97.5,16.5C 95.6815,18.4716 94.6815,20.8049 94.5,23.5C 94.1667,23.5 93.8333,23.5 93.5,23.5C 93.7148,21.8212 93.0481,20.8212 91.5,20.5C 91.1583,19.6618 90.4916,19.3284 89.5,19.5C 88.4884,18.1283 87.4884,16.795 86.5,15.5C 86.8333,14.8333 87.1667,14.1667 87.5,13.5C 87.8333,13.5 88.1667,13.5 88.5,13.5C 90.5233,14.5214 92.5233,14.1881 94.5,12.5 Z"/></g>
<g><path style="opacity:1" fill="#c1902c" d="M 86.5,15.5 C 87.4884,16.795 88.4884,18.1283 89.5,19.5C 86.5,19.5 83.5,19.5 80.5,19.5C 72.5267,20.8544 64.5267,21.6877 56.5,22C 66.4031,19.3082 76.4031,17.1415 86.5,15.5 Z"/></g>
<g><path style="opacity:1" fill="#0a0704" d="M 80.5,19.5 C 83.5,19.5 86.5,19.5 89.5,19.5C 90.4916,19.3284 91.1583,19.6618 91.5,20.5C 87.8212,20.7244 84.1545,21.0578 80.5,21.5C 79.4937,21.0623 79.4937,20.3957 80.5,19.5 Z"/></g>
<g><path style="opacity:1" fill="#494036" d="M 87.5,13.5 C 87.1667,14.1667 86.8333,14.8333 86.5,15.5C 76.4031,17.1415 66.4031,19.3082 56.5,22C 64.5267,21.6877 72.5267,20.8544 80.5,19.5C 79.4937,20.3957 79.4937,21.0623 80.5,21.5C 72.1984,24.7443 63.5317,27.0776 54.5,28.5C 54.5,27.8333 54.8333,27.5 55.5,27.5C 62.7644,25.4794 70.0977,23.6461 77.5,22C 70.1098,22.1736 62.7765,23.0069 55.5,24.5C 54.3915,23.71 53.0581,23.21 51.5,23C 52.5,22.6667 53.5,22.3333 54.5,22C 52.4971,21.6655 50.8304,20.8321 49.5,19.5C 48.0937,19.0269 47.427,18.0269 47.5,16.5C 50.1466,17.0729 52.8133,17.7396 55.5,18.5C 54.1962,20.0157 54.6962,20.6824 57,20.5C 67.1127,17.8495 77.2794,15.5161 87.5,13.5 Z"/></g>
<g><path style="opacity:1" fill="#1f1f21" d="M 49.5,19.5 C 50.8304,20.8321 52.4971,21.6655 54.5,22C 53.5,22.3333 52.5,22.6667 51.5,23C 53.0581,23.21 54.3915,23.71 55.5,24.5C 55.5,25.1667 55.5,25.8333 55.5,26.5C 49.6908,24.8939 44.0242,25.2273 38.5,27.5C 39.1272,28.4168 39.4606,29.4168 39.5,30.5C 37.4951,29.9612 35.4951,29.2945 33.5,28.5C 34.7629,26.9713 35.7629,25.3046 36.5,23.5C 36.4346,23.0618 36.6012,22.7284 37,22.5C 37.6739,23.5784 38.6739,24.2451 40,24.5C 43.1635,23.7503 46.3301,23.0836 49.5,22.5C 49.5,21.5 49.5,20.5 49.5,19.5 Z"/></g>
<g><path style="opacity:1" fill="#ebebeb" d="M 55.5,27.5 C 55.5,27.1667 55.5,26.8333 55.5,26.5C 55.5,25.8333 55.5,25.1667 55.5,24.5C 62.7765,23.0069 70.1098,22.1736 77.5,22C 70.0977,23.6461 62.7644,25.4794 55.5,27.5 Z"/></g>
<g><path style="opacity:1" fill="#bf8e27" d="M 91.5,20.5 C 93.0481,20.8212 93.7148,21.8212 93.5,23.5C 88.9652,24.1368 84.6319,25.1368 80.5,26.5C 80.1667,26.5 79.8333,26.5 79.5,26.5C 75.8776,26.322 72.5443,26.9886 69.5,28.5C 65.6423,29.2937 61.6423,29.9603 57.5,30.5C 55.2188,30.9227 53.5521,30.256 52.5,28.5C 53.1667,28.5 53.8333,28.5 54.5,28.5C 63.5317,27.0776 72.1984,24.7443 80.5,21.5C 84.1545,21.0578 87.8212,20.7244 91.5,20.5 Z"/></g>
<g><path style="opacity:1" fill="#7a8291" d="M 55.5,26.5 C 55.5,26.8333 55.5,27.1667 55.5,27.5C 54.8333,27.5 54.5,27.8333 54.5,28.5C 53.8333,28.5 53.1667,28.5 52.5,28.5C 51.3701,28.9234 51.2034,30.2568 52,32.5C 52.2004,34.3197 53.0337,35.653 54.5,36.5C 55.8717,37.5116 57.205,38.5116 58.5,39.5C 58.5,40.5 58.5,41.5 58.5,42.5C 55.3117,42.3822 52.3117,41.5489 49.5,40C 46.6256,37.9458 43.9589,35.7792 41.5,33.5C 36.1488,34.0706 35.4822,33.0706 39.5,30.5C 39.4606,29.4168 39.1272,28.4168 38.5,27.5C 44.0242,25.2273 49.6908,24.8939 55.5,26.5 Z"/></g>
<g><path style="opacity:1" fill="#211a13" d="M 79.5,26.5 C 76.4115,27.7846 73.0781,28.4512 69.5,28.5C 72.5443,26.9886 75.8776,26.322 79.5,26.5 Z"/></g>
<g><path style="opacity:1" fill="#343133" d="M 52.5,28.5 C 53.5521,30.256 55.2188,30.9227 57.5,30.5C 56.4324,31.4345 55.099,31.7678 53.5,31.5C 53.6287,33.2161 53.962,34.8828 54.5,36.5C 53.0337,35.653 52.2004,34.3197 52,32.5C 51.2034,30.2568 51.3701,28.9234 52.5,28.5 Z"/></g>
<g><path style="opacity:1" fill="#54565c" d="M 41.5,33.5 C 43.9589,35.7792 46.6256,37.9458 49.5,40C 52.3117,41.5489 55.3117,42.3822 58.5,42.5C 58.5,41.5 58.5,40.5 58.5,39.5C 62.8461,39.3343 67.1794,39.501 71.5,40C 72.6721,40.4186 73.6721,41.0853 74.5,42C 71.9925,42.0929 69.8259,42.9262 68,44.5C 66.5875,47.6314 66.0875,50.6314 66.5,53.5C 62.3575,51.191 59.0242,48.0243 56.5,44C 55.1279,43.5983 53.7946,43.0983 52.5,42.5C 49.6061,42.3388 46.6061,42.6721 43.5,43.5C 42.7597,40.1337 42.093,36.8004 41.5,33.5 Z"/></g>
<g><path style="opacity:1" fill="#1d1d1d" d="M 123.5,63.5 C 126.187,63.3359 128.854,63.5026 131.5,64C 132.416,64.2784 133.082,64.7784 133.5,65.5C 129.989,65.1006 126.656,64.4339 123.5,63.5 Z"/></g>
<g><path style="opacity:1" fill="#aeaeae" d="M 118.5,64.5 C 119.338,64.8417 119.672,65.5084 119.5,66.5C 118.859,67.4822 118.193,68.4822 117.5,69.5C 118.5,70.3333 119.5,71.1667 120.5,72C 116.777,73.9344 115.777,76.7677 117.5,80.5C 115.467,79.1016 114.467,77.1016 114.5,74.5C 114.497,71.3982 114.997,71.0649 116,73.5C 116.684,72.2161 116.517,71.0495 115.5,70C 116.758,68.2591 117.758,66.4258 118.5,64.5 Z"/></g>
<g><path style="opacity:1" fill="#efefef" d="M 120.5,63.5 C 121.5,63.5 122.5,63.5 123.5,63.5C 126.656,64.4339 129.989,65.1006 133.5,65.5C 135.819,65.9925 137.819,66.9925 139.5,68.5C 153.504,77.0113 163.337,89.0113 169,104.5C 170.213,107.768 170.546,111.101 170,114.5C 169.044,115.894 167.711,116.561 166,116.5C 162.338,115.42 158.838,113.92 155.5,112C 146.081,105.634 137.081,98.801 128.5,91.5C 125.027,87.6054 121.36,83.9387 117.5,80.5C 115.777,76.7677 116.777,73.9344 120.5,72C 119.5,71.1667 118.5,70.3333 117.5,69.5C 118.193,68.4822 118.859,67.4822 119.5,66.5C 122.716,65.8313 123.049,64.8313 120.5,63.5 Z"/></g>
<g><path style="opacity:1" fill="#262626" d="M 117.5,80.5 C 121.36,83.9387 125.027,87.6054 128.5,91.5C 126.983,91.4894 125.816,90.8228 125,89.5C 124.617,90.056 124.117,90.3893 123.5,90.5C 121.075,87.4114 119.075,84.0781 117.5,80.5 Z"/></g>
<g><path style="opacity:1" fill="#0f0f0f" d="M 160.5,130.5 C 162.727,132.607 164.727,134.94 166.5,137.5C 162.1,135.416 157.6,133.416 153,131.5C 152.228,131.645 151.561,131.978 151,132.5C 150.333,137.833 150.333,143.167 151,148.5C 152.387,152.215 153.22,156.048 153.5,160C 151.645,175.471 150.478,190.971 150,206.5C 153.428,207.824 156.595,209.657 159.5,212C 156.147,212.747 152.98,212.247 150,210.5C 145.194,213.326 140.027,214.826 134.5,215C 135.056,214.617 135.389,214.117 135.5,213.5C 132.531,214.329 129.531,214.495 126.5,214C 127.653,212.117 129.319,211.284 131.5,211.5C 132.922,211.291 134.255,210.791 135.5,210C 133.444,209.689 131.444,209.189 129.5,208.5C 128.893,208.624 128.56,208.957 128.5,209.5C 125.475,209.877 122.475,210.044 119.5,210C 120.328,209.085 121.328,208.419 122.5,208C 122,207.833 121.5,207.667 121,207.5C 118.379,209.52 115.545,209.853 112.5,208.5C 113.357,207.575 114.357,206.908 115.5,206.5C 124.684,205.247 124.684,204.581 115.5,204.5C 114.262,204.19 114.262,203.69 115.5,203C 119.5,202.667 123.5,202.333 127.5,202C 129.286,201.215 130.786,200.049 132,198.5C 134.966,181.227 135.632,163.894 134,146.5C 131.25,138.586 127.917,130.919 124,123.5C 118.667,115.5 113.333,107.5 108,99.5C 105.706,92.9925 104.04,86.3258 103,79.5C 101,74.8333 99,70.1667 97,65.5C 95.1093,56.642 96.776,48.642 102,41.5C 107.126,37.5714 109.793,32.5714 110,26.5C 108.818,24.6431 107.151,23.6431 105,23.5C 96.8056,24.3507 88.6389,25.3507 80.5,26.5C 84.6319,25.1368 88.9652,24.1368 93.5,23.5C 93.8333,23.5 94.1667,23.5 94.5,23.5C 98.3055,23.588 101.972,22.9213 105.5,21.5C 112.809,24.1739 114.309,28.8405 110,35.5C 95.7413,47.3246 93.7413,60.9913 104,76.5C 104.763,93.5315 111.929,107.031 125.5,117C 136.457,121.428 147.124,126.428 157.5,132C 159.157,132.725 160.157,132.225 160.5,130.5 Z"/></g>
<g><path style="opacity:1" fill="#242424" d="M 139.5,68.5 C 153.553,76.2194 164.219,87.2194 171.5,101.5C 170.35,100.15 169.683,100.316 169.5,102C 170.774,106.55 172.107,111.05 173.5,115.5C 172.883,115.389 172.383,115.056 172,114.5C 170.872,116.345 170.372,118.345 170.5,120.5C 167.502,119.357 164.502,118.357 161.5,117.5C 160.335,115.891 159.001,115.557 157.5,116.5C 155.877,114.049 153.711,112.049 151,110.5C 151.829,113.852 152.996,117.185 154.5,120.5C 151.689,116.891 149.355,112.891 147.5,108.5C 145.771,106.549 143.771,105.382 141.5,105C 143.653,108.808 145.653,112.642 147.5,116.5C 140.797,110.798 134.797,104.464 129.5,97.5C 133.417,100.914 137.251,104.58 141,108.5C 140.791,106.054 139.958,103.721 138.5,101.5C 134.764,98.4308 131.431,95.0975 128.5,91.5C 137.081,98.801 146.081,105.634 155.5,112C 158.838,113.92 162.338,115.42 166,116.5C 167.711,116.561 169.044,115.894 170,114.5C 170.546,111.101 170.213,107.768 169,104.5C 163.337,89.0113 153.504,77.0113 139.5,68.5 Z"/></g>
<g><path style="opacity:1" fill="#d4d4d4" d="M 128.5,91.5 C 131.431,95.0975 134.764,98.4308 138.5,101.5C 139.958,103.721 140.791,106.054 141,108.5C 137.251,104.58 133.417,100.914 129.5,97.5C 126.8,95.7656 124.8,93.4323 123.5,90.5C 124.117,90.3893 124.617,90.056 125,89.5C 125.816,90.8228 126.983,91.4894 128.5,91.5 Z"/></g>
<g><path style="opacity:1" fill="#1e1e1e" d="M 171.5,101.5 C 173.588,103.336 174.921,105.669 175.5,108.5C 173.412,106.664 172.079,104.331 171.5,101.5 Z"/></g>
<g><path style="opacity:1" fill="#d6d6d6" d="M 154.5,120.5 C 154.196,122.796 153.196,123.129 151.5,121.5C 150.92,119.251 149.587,117.585 147.5,116.5C 145.653,112.642 143.653,108.808 141.5,105C 143.771,105.382 145.771,106.549 147.5,108.5C 149.355,112.891 151.689,116.891 154.5,120.5 Z"/></g>
<g><path style="opacity:1" fill="#383838" d="M 175.5,108.5 C 178.207,111.247 179.873,114.58 180.5,118.5C 178.326,115.485 176.659,112.151 175.5,108.5 Z"/></g>
<g><path style="opacity:1" fill="#303030" d="M 147.5,116.5 C 149.587,117.585 150.92,119.251 151.5,121.5C 149.413,120.415 148.08,118.749 147.5,116.5 Z"/></g>
<g><path style="opacity:1" fill="#373737" d="M 173.5,115.5 C 175.588,117.336 176.921,119.669 177.5,122.5C 175.412,120.664 174.079,118.331 173.5,115.5 Z"/></g>
<g><path style="opacity:1" fill="#d0d0d1" d="M 157.5,116.5 C 158.757,119.096 159.924,121.763 161,124.5C 160.577,122.097 160.744,119.763 161.5,117.5C 164.502,118.357 167.502,119.357 170.5,120.5C 170.372,118.345 170.872,116.345 172,114.5C 172.383,115.056 172.883,115.389 173.5,115.5C 174.079,118.331 175.412,120.664 177.5,122.5C 177.66,124.153 178.326,125.486 179.5,126.5C 179.707,129.241 180.707,131.574 182.5,133.5C 182.707,136.241 183.707,138.574 185.5,140.5C 185.733,143.542 186.733,146.208 188.5,148.5C 188.573,151.682 189.073,154.682 190,157.5C 188.414,155.33 187.08,152.996 186,150.5C 185.667,151.5 185.333,152.5 185,153.5C 183.296,151.627 181.463,149.96 179.5,148.5C 179.573,146.973 178.906,145.973 177.5,145.5C 176.62,142.738 175.454,140.071 174,137.5C 173.805,139.207 173.805,140.874 174,142.5C 171.6,140.271 169.433,137.937 167.5,135.5C 167.672,136.492 167.338,137.158 166.5,137.5C 164.727,134.94 162.727,132.607 160.5,130.5C 160.573,128.973 159.906,127.973 158.5,127.5C 157.921,124.669 156.588,122.336 154.5,120.5C 152.996,117.185 151.829,113.852 151,110.5C 153.711,112.049 155.877,114.049 157.5,116.5 Z"/></g>
<g><path style="opacity:1" fill="#898989" d="M 161.5,117.5 C 160.744,119.763 160.577,122.097 161,124.5C 159.924,121.763 158.757,119.096 157.5,116.5C 159.001,115.557 160.335,115.891 161.5,117.5 Z"/></g>
<g><path style="opacity:1" fill="#2c2c2c" d="M 180.5,118.5 C 182.293,120.426 183.293,122.759 183.5,125.5C 181.707,123.574 180.707,121.241 180.5,118.5 Z"/></g>
<g><path style="opacity:1" fill="#424242" d="M 170.5,120.5 C 171.906,120.973 172.573,121.973 172.5,123.5C 171.094,123.027 170.427,122.027 170.5,120.5 Z"/></g>
<g><path style="opacity:1" fill="#cdcdce" d="M 171.5,101.5 C 172.079,104.331 173.412,106.664 175.5,108.5C 176.659,112.151 178.326,115.485 180.5,118.5C 180.707,121.241 181.707,123.574 183.5,125.5C 183.733,128.542 184.733,131.208 186.5,133.5C 186.054,136.01 186.72,138.01 188.5,139.5C 188.695,143.451 189.695,146.451 191.5,148.5C 192.338,148.842 192.672,149.508 192.5,150.5C 192.062,152.638 191.895,154.972 192,157.5C 191.1,154.282 189.933,151.282 188.5,148.5C 188.267,145.458 187.267,142.792 185.5,140.5C 185.293,137.759 184.293,135.426 182.5,133.5C 182.293,130.759 181.293,128.426 179.5,126.5C 178.326,125.486 177.66,124.153 177.5,122.5C 176.921,119.669 175.588,117.336 173.5,115.5C 172.107,111.05 170.774,106.55 169.5,102C 169.683,100.316 170.35,100.15 171.5,101.5 Z"/></g>
<g><path style="opacity:1" fill="#f5f5f5" d="M 132.5,123.5 C 135.777,123.422 138.277,124.756 140,127.5C 143.499,132.66 145.833,138.326 147,144.5C 149.623,163.823 149.29,183.156 146,202.5C 145.751,203.624 145.251,204.624 144.5,205.5C 141.401,204.638 138.567,203.305 136,201.5C 135.997,185.862 137.497,170.362 140.5,155C 136.189,144.922 133.522,134.422 132.5,123.5 Z"/></g>
<g><path style="opacity:1" fill="#4e4e4e" d="M 166.5,121.5 C 168.099,122.799 168.599,124.465 168,126.5C 166.991,124.975 166.491,123.308 166.5,121.5 Z"/></g>
<g><path style="opacity:1" fill="#2a2a2a" d="M 154.5,120.5 C 156.588,122.336 157.921,124.669 158.5,127.5C 155.507,126.167 153.173,124.167 151.5,121.5C 153.196,123.129 154.196,122.796 154.5,120.5 Z"/></g>
<g><path style="opacity:1" fill="#767676" d="M 172.5,123.5 C 175.077,124.69 175.91,126.69 175,129.5C 173.878,127.593 173.045,125.593 172.5,123.5 Z"/></g>
<g><path style="opacity:1" fill="#2b2b2b" d="M 183.5,125.5 C 185.267,127.792 186.267,130.458 186.5,133.5C 184.733,131.208 183.733,128.542 183.5,125.5 Z"/></g>
<g><path style="opacity:1" fill="#292929" d="M 158.5,127.5 C 159.906,127.973 160.573,128.973 160.5,130.5C 159.094,130.027 158.427,129.027 158.5,127.5 Z"/></g>
<g><path style="opacity:1" fill="#2f2f2f" d="M 179.5,126.5 C 181.293,128.426 182.293,130.759 182.5,133.5C 180.707,131.574 179.707,129.241 179.5,126.5 Z"/></g>
<g><path style="opacity:1" fill="#484848" d="M 169.5,128.5 C 171.462,130.425 172.295,132.758 172,135.5C 170.589,133.35 169.755,131.016 169.5,128.5 Z"/></g>
<g><path style="opacity:1" fill="#363636" d="M 167.5,135.5 C 165.915,134.998 165.415,133.998 166,132.5C 167.039,133.244 167.539,134.244 167.5,135.5 Z"/></g>
<g><path style="opacity:1" fill="#2c2c2c" d="M 182.5,133.5 C 184.293,135.426 185.293,137.759 185.5,140.5C 183.707,138.574 182.707,136.241 182.5,133.5 Z"/></g>
<g><path style="opacity:1" fill="#2a2a2a" d="M 167.5,135.5 C 169.433,137.937 171.6,140.271 174,142.5C 173.805,140.874 173.805,139.207 174,137.5C 175.454,140.071 176.62,142.738 177.5,145.5C 173.268,143.6 169.601,140.933 166.5,137.5C 167.338,137.158 167.672,136.492 167.5,135.5 Z"/></g>
<g><path style="opacity:1" fill="#505050" d="M 186.5,133.5 C 187.738,135.214 188.405,137.214 188.5,139.5C 186.72,138.01 186.054,136.01 186.5,133.5 Z"/></g>
<g><path style="opacity:1" fill="#262626" d="M 185.5,140.5 C 187.267,142.792 188.267,145.458 188.5,148.5C 186.733,146.208 185.733,143.542 185.5,140.5 Z"/></g>
<g><path style="opacity:1" fill="#373737" d="M 188.5,139.5 C 190.253,142.146 191.253,145.146 191.5,148.5C 189.695,146.451 188.695,143.451 188.5,139.5 Z"/></g>
<g><path style="opacity:1" fill="#262626" d="M 180.5,139.5 C 182.79,142.077 183.956,145.077 184,148.5C 182.259,145.691 181.092,142.691 180.5,139.5 Z"/></g>
<g><path style="opacity:1" fill="#2f2f2f" d="M 177.5,145.5 C 178.906,145.973 179.573,146.973 179.5,148.5C 178.094,148.027 177.427,147.027 177.5,145.5 Z"/></g>
<g><path style="opacity:1" fill="#4b4b4b" d="M 179.5,148.5 C 181.463,149.96 183.296,151.627 185,153.5C 185.333,152.5 185.667,151.5 186,150.5C 187.08,152.996 188.414,155.33 190,157.5C 189.073,154.682 188.573,151.682 188.5,148.5C 189.933,151.282 191.1,154.282 192,157.5C 191.895,154.972 192.062,152.638 192.5,150.5C 193.803,154.382 194.47,158.382 194.5,162.5C 193.448,162.649 192.448,162.483 191.5,162C 187.584,157.26 183.584,152.76 179.5,148.5 Z"/></g>
<g><path style="opacity:1" fill="#959595" d="M 115.5,204.5 C 124.684,204.581 124.684,205.247 115.5,206.5C 115.5,205.833 115.5,205.167 115.5,204.5 Z"/></g>
<g><path style="opacity:1" fill="#dddddd" d="M 135.5,205.5 C 137.927,205.523 140.26,206.023 142.5,207C 139.833,207.667 137.167,207.667 134.5,207C 135.056,206.617 135.389,206.117 135.5,205.5 Z"/></g>
<g><path style="opacity:1" fill="#929292" d="M 131.5,211.5 C 130.5,210.833 129.5,210.167 128.5,209.5C 128.56,208.957 128.893,208.624 129.5,208.5C 131.444,209.189 133.444,209.689 135.5,210C 134.255,210.791 132.922,211.291 131.5,211.5 Z"/></g>
<g><path style="opacity:1" fill="#b4b4b4" d="M 135.5,213.5 C 136.527,212.152 137.86,211.652 139.5,212C 138.437,213.188 137.103,213.688 135.5,213.5 Z"/></g>
</svg>
