<?xml version="1.0" encoding="UTF-8"?>
<!DOCTYPE svg PUBLIC "-//W3C//DTD SVG 1.1//EN" "http://www.w3.org/Graphics/SVG/1.1/DTD/svg11.dtd">
<svg xmlns="http://www.w3.org/2000/svg" version="1.1" width="612px" height="408px" style="shape-rendering:geometricPrecision; text-rendering:geometricPrecision; image-rendering:optimizeQuality; fill-rule:evenodd; clip-rule:evenodd" xmlns:xlink="http://www.w3.org/1999/xlink">
<g><path style="opacity:1" fill="#fefefe" d="M -0.5,-0.5 C 203.5,-0.5 407.5,-0.5 611.5,-0.5C 611.5,135.5 611.5,271.5 611.5,407.5C 407.5,407.5 203.5,407.5 -0.5,407.5C -0.5,271.5 -0.5,135.5 -0.5,-0.5 Z"/></g>
<g><path style="opacity:1" fill="#121212" d="M 144.5,152.5 C 142.735,153.461 140.735,153.795 138.5,153.5C 120.937,153.263 105.771,147.263 93,135.5C 87.0255,127.274 85.3588,118.274 88,108.5C 98.1975,134.04 117.031,148.707 144.5,152.5 Z"/></g>
<g><path style="opacity:1" fill="#101010" d="M 121.5,111.5 C 124.463,119.527 128.297,127.194 133,134.5C 138.822,141.321 145.989,146.155 154.5,149C 138.195,148.261 126.695,140.428 120,125.5C 119.118,120.647 119.618,115.981 121.5,111.5 Z"/></g>
<g><path style="opacity:1" fill="#121212" d="M 488.5,111.5 C 492.721,118.999 492.221,126.333 487,133.5C 478.971,143.097 468.804,148.264 456.5,149C 474.161,142.503 484.828,130.003 488.5,111.5 Z"/></g>
<g><path style="opacity:1" fill="#121212" d="M 68.5,114.5 C 82.2812,143.597 105.615,158.431 138.5,159C 119.03,162.696 100.696,159.696 83.5,150C 71.0031,141.345 66.0031,129.511 68.5,114.5 Z"/></g>
<g><path style="opacity:1" fill="#121212" d="M 540.5,114.5 C 541.497,114.47 542.164,114.97 542.5,116C 544.334,135.3 536,148.3 517.5,155C 501.829,160.439 485.829,161.772 469.5,159C 485.813,158.672 501.146,154.672 515.5,147C 528.069,139.332 536.403,128.499 540.5,114.5 Z"/></g>
<g><path style="opacity:1" fill="#0f0f0f" d="M 468.5,153.5 C 467.508,153.672 466.842,153.338 466.5,152.5C 493.404,148.645 512.237,134.312 523,109.5C 525.602,127.45 518.435,139.95 501.5,147C 490.957,151.535 479.957,153.701 468.5,153.5 Z"/></g>
<g><path style="opacity:1" fill="#090909" d="M 119.5,165.5 C 122.5,166.167 125.5,166.833 128.5,167.5C 111.562,170.534 94.5624,171.034 77.5,169C 64.2788,167.312 53.7788,161.145 46,150.5C 44.759,149.123 44.5923,147.79 45.5,146.5C 68.793,158.157 93.4596,164.49 119.5,165.5 Z"/></g>
<g><path style="opacity:1" fill="#1f1f1f" d="M 278.5,161.5 C 274.609,163.007 270.442,163.674 266,163.5C 259.815,163.231 253.648,162.731 247.5,162C 229.862,158.616 212.195,155.449 194.5,152.5C 184.183,151.827 173.85,151.327 163.5,151C 172.726,148.84 182.059,148.173 191.5,149C 212.038,152.108 232.371,156.108 252.5,161C 261.151,162.679 269.818,162.846 278.5,161.5 Z"/></g>
<g><path style="opacity:1" fill="#1d1d1d" d="M 428.5,151.5 C 420.784,151.816 413.118,152.65 405.5,154C 385.606,158.841 365.44,162.008 345,163.5C 342.833,163.333 340.667,163.167 338.5,163C 342.025,162.821 345.359,162.321 348.5,161.5C 351.518,161.665 354.518,161.498 357.5,161C 376.763,156.685 396.096,152.685 415.5,149C 425.262,148.214 434.929,148.881 444.5,151C 439.177,151.499 433.844,151.666 428.5,151.5 Z"/></g>
<g><path style="opacity:1" fill="#0e0e0e" d="M 482.5,167.5 C 485.167,166.833 487.833,166.167 490.5,165.5C 516.92,164.618 541.92,158.285 565.5,146.5C 564.957,151.035 562.623,154.869 558.5,158C 545.419,167.39 530.753,171.557 514.5,170.5C 503.724,170.422 493.057,169.422 482.5,167.5 Z"/></g>
<g><path style="opacity:1" fill="#777777" d="M 299.5,152.5 C 303.646,151.353 307.98,151.186 312.5,152C 314.584,152.697 316.251,153.864 317.5,155.5C 311.835,152.856 305.835,151.856 299.5,152.5 Z"/></g>
<g><path style="opacity:1" fill="#6c6c6c" d="M 144.5,152.5 C 146.179,152.892 147.846,153.392 149.5,154C 145.642,154.81 141.976,154.643 138.5,153.5C 140.735,153.795 142.735,153.461 144.5,152.5 Z"/></g>
<g><path style="opacity:1" fill="#6b6b6b" d="M 466.5,152.5 C 466.842,153.338 467.508,153.672 468.5,153.5C 465.696,154.638 462.696,154.805 459.5,154C 461.813,153.338 464.146,152.838 466.5,152.5 Z"/></g>
<g><path style="opacity:1" fill="#f1f1f1" d="M 428.5,151.5 C 429.072,153.223 429.072,154.723 428.5,156C 426.527,156.495 424.527,156.662 422.5,156.5C 423.263,155.732 424.263,155.232 425.5,155C 410.986,156.462 396.986,160.129 383.5,166C 373.538,167.686 363.538,169.019 353.5,170C 345.478,172.197 339.811,177.031 336.5,184.5C 335.205,183.512 333.872,182.512 332.5,181.5C 330.79,179.8 328.79,178.467 326.5,177.5C 325.537,177.97 325.537,178.637 326.5,179.5C 324.712,178.64 323.045,177.64 321.5,176.5C 322.73,174.703 323.396,172.703 323.5,170.5C 324.991,166.289 324.325,162.289 321.5,158.5C 321.88,157.867 322.213,157.2 322.5,156.5C 330.581,160.977 339.248,162.644 348.5,161.5C 345.359,162.321 342.025,162.821 338.5,163C 340.667,163.167 342.833,163.333 345,163.5C 365.44,162.008 385.606,158.841 405.5,154C 413.118,152.65 420.784,151.816 428.5,151.5 Z"/></g>
<g><path style="opacity:1" fill="#0f0f0f" d="M 422.5,156.5 C 418.307,156.953 414.307,158.119 410.5,160C 401.688,164.907 392.688,169.573 383.5,174C 374.021,177.096 364.355,179.429 354.5,181C 352.004,182.08 349.67,183.414 347.5,185C 343,190.167 338.5,195.333 334,200.5C 333.546,194.979 334.379,189.646 336.5,184.5C 339.811,177.031 345.478,172.197 353.5,170C 363.538,169.019 373.538,167.686 383.5,166C 396.986,160.129 410.986,156.462 425.5,155C 424.263,155.232 423.263,155.732 422.5,156.5 Z"/></g>
<g><path style="opacity:1" fill="#1a1a1a" d="M 446.5,157.5 C 446.735,156.903 447.235,156.57 448,156.5C 451.969,158.534 456.135,160.034 460.5,161C 462.792,162.29 464.792,163.957 466.5,166C 464.5,166.667 462.5,166.667 460.5,166C 455.684,163.338 451.018,160.505 446.5,157.5 Z"/></g>
<g><path style="opacity:1" fill="#131313" d="M 161.5,156.5 C 162.552,156.351 163.552,156.517 164.5,157C 160.5,159.667 156.5,162.333 152.5,165C 149.923,166.25 147.257,166.584 144.5,166C 145.5,165 146.5,164 147.5,163C 152.227,160.715 156.893,158.548 161.5,156.5 Z"/></g>
<g><path style="opacity:1" fill="#505050" d="M 317.5,155.5 C 319.43,155.771 320.764,156.771 321.5,158.5C 324.325,162.289 324.991,166.289 323.5,170.5C 323.42,164.681 321.42,159.681 317.5,155.5 Z"/></g>
<g><path style="opacity:1" fill="#181818" d="M 171.5,159.5 C 167.036,164.627 161.703,168.627 155.5,171.5C 154.893,171.376 154.56,171.043 154.5,170.5C 158.966,165.093 164.632,161.426 171.5,159.5 Z"/></g>
<g><path style="opacity:1" fill="#0e0e0e" d="M 189.5,154.5 C 203.586,158.026 217.586,162.193 231.5,167C 239.816,168.101 248.149,169.101 256.5,170C 265.793,171.958 271.96,177.458 275,186.5C 276.542,191.045 277.376,195.711 277.5,200.5C 272.406,194.176 266.739,188.343 260.5,183C 250.167,180.426 239.834,177.759 229.5,175C 218.864,169.682 208.198,164.349 197.5,159C 193.5,157.667 189.5,156.333 185.5,155C 186.793,154.51 188.127,154.343 189.5,154.5 Z"/></g>
<g><path style="opacity:1" fill="#1b1b1b" d="M 456.5,171.5 C 453.984,171.245 451.65,170.411 449.5,169C 445.939,165.927 442.272,163.094 438.5,160.5C 437.537,159.637 437.537,158.97 438.5,158.5C 442.167,160.333 445.833,162.167 449.5,164C 452.739,165.736 455.073,168.236 456.5,171.5 Z"/></g>
<g><path style="opacity:1" fill="#434343" d="M 119.5,165.5 C 124.844,165.334 130.177,165.501 135.5,166C 133.134,166.44 130.801,166.94 128.5,167.5C 125.5,166.833 122.5,166.167 119.5,165.5 Z"/></g>
<g><path style="opacity:1" fill="#434343" d="M 490.5,165.5 C 487.833,166.167 485.167,166.833 482.5,167.5C 480.436,167.313 478.436,166.813 476.5,166C 481.155,165.501 485.821,165.334 490.5,165.5 Z"/></g>
<g><path style="opacity:1" fill="#1a1a1a" d="M 173.5,169.5 C 171.198,171.656 168.531,173.323 165.5,174.5C 164.771,172.405 165.437,170.572 167.5,169C 170.921,167.301 173.921,165.135 176.5,162.5C 177.847,161.972 179.181,161.805 180.5,162C 177.961,164.37 175.628,166.87 173.5,169.5 Z"/></g>
<g><path style="opacity:1" fill="#191919" d="M 327.5,164.5 C 333.177,163.844 337.511,166.177 340.5,171.5C 339.21,172.408 337.877,172.241 336.5,171C 334.147,167.834 331.147,165.667 327.5,164.5 Z"/></g>
<g><path style="opacity:1" fill="#161616" d="M 186.5,167.5 C 183.734,170.164 181.067,172.997 178.5,176C 174.14,177.625 173.473,176.458 176.5,172.5C 179.88,169.721 183.38,167.054 187,164.5C 187.47,165.577 187.303,166.577 186.5,167.5 Z"/></g>
<g><path style="opacity:1" fill="#efefef" d="M 194.5,152.5 C 212.195,155.449 229.862,158.616 247.5,162C 253.648,162.731 259.815,163.231 266,163.5C 270.442,163.674 274.609,163.007 278.5,161.5C 282.847,159.574 287.013,157.241 291,154.5C 291.414,154.957 291.914,155.291 292.5,155.5C 294.487,153.673 296.821,152.673 299.5,152.5C 305.835,151.856 311.835,152.856 317.5,155.5C 321.42,159.681 323.42,164.681 323.5,170.5C 323.167,170.5 322.833,170.5 322.5,170.5C 321.04,168.578 319.373,167.911 317.5,168.5C 318.473,166.932 318.64,165.265 318,163.5C 316.292,165.543 314.292,167.21 312,168.5C 311.51,169.793 311.343,171.127 311.5,172.5C 313.947,172.385 315.947,171.385 317.5,169.5C 317.611,170.117 317.944,170.617 318.5,171C 315.598,172.36 313.932,174.193 313.5,176.5C 313.631,175.761 313.464,175.094 313,174.5C 309.314,179.138 307.647,178.472 308,172.5C 303.453,170.697 301.453,172.363 302,177.5C 300.846,176.257 299.512,175.257 298,174.5C 298.086,176.943 299.419,178.61 302,179.5C 302.92,182.101 303.587,184.768 304,187.5C 304.671,188.252 305.504,188.586 306.5,188.5C 307.566,189.692 308.399,189.359 309,187.5C 309.333,188.167 309.667,188.833 310,189.5C 311.684,187.649 313.517,185.982 315.5,184.5C 316.522,184.855 317.189,185.522 317.5,186.5C 316.957,186.56 316.624,186.893 316.5,187.5C 317.959,192.13 319.293,196.796 320.5,201.5C 321.84,200.312 322.507,198.812 322.5,197C 322.057,195.175 321.723,193.342 321.5,191.5C 321.389,189.608 322.056,187.608 323.5,185.5C 324.793,186.842 325.626,188.509 326,190.5C 326.333,193.5 326.667,196.5 327,199.5C 327.852,198.429 328.685,197.429 329.5,196.5C 331.537,200.111 331.87,203.778 330.5,207.5C 330.662,205.473 330.495,203.473 330,201.5C 327.573,211.019 324.573,220.353 321,229.5C 320.333,231.167 320.333,232.833 321,234.5C 321.898,231.931 323.065,229.598 324.5,227.5C 325.273,230.045 326.773,232.045 329,233.5C 328.891,232.231 329.058,231.231 329.5,230.5C 330.5,231.833 331.5,233.167 332.5,234.5C 336.215,243.148 339.048,252.148 341,261.5C 343.317,267.169 346.817,271.836 351.5,275.5C 349.152,275.592 347.486,276.592 346.5,278.5C 339.129,266.587 332.296,254.254 326,241.5C 327.213,253.246 329.047,264.912 331.5,276.5C 330.508,276.328 329.842,276.662 329.5,277.5C 326.13,271.078 323.13,264.412 320.5,257.5C 319.968,254.54 319.301,254.207 318.5,256.5C 317.5,255.833 316.5,255.167 315.5,254.5C 317.689,244.947 318.023,235.281 316.5,225.5C 315.808,226.025 315.308,226.692 315,227.5C 314.828,231.871 314.328,236.204 313.5,240.5C 312.712,241.77 311.712,242.77 310.5,243.5C 309.335,241.891 308.001,241.557 306.5,242.5C 307.511,238.888 307.678,235.221 307,231.5C 306.878,229.563 306.045,228.23 304.5,227.5C 304.785,225.712 304.452,224.045 303.5,222.5C 302.818,223.243 302.151,223.909 301.5,224.5C 301.662,222.473 301.495,220.473 301,218.5C 298.268,214.759 295.934,210.759 294,206.5C 295.037,211.272 296.704,215.939 299,220.5C 299.333,222.5 299.667,224.5 300,226.5C 300.383,225.944 300.883,225.611 301.5,225.5C 301.586,226.496 301.252,227.329 300.5,228C 299.041,227.645 297.707,227.811 296.5,228.5C 295.842,227.602 295.176,226.602 294.5,225.5C 293.503,232.803 293.169,240.137 293.5,247.5C 292.834,244.311 292.167,240.977 291.5,237.5C 289.129,237.108 288.462,236.108 289.5,234.5C 290.518,231.623 290.351,228.623 289,225.5C 285.931,217.626 283.264,209.626 281,201.5C 280.51,202.793 280.343,204.127 280.5,205.5C 279.691,203.708 279.191,201.708 279,199.5C 278.617,200.056 278.117,200.389 277.5,200.5C 277.376,195.711 276.542,191.045 275,186.5C 271.96,177.458 265.793,171.958 256.5,170C 248.149,169.101 239.816,168.101 231.5,167C 217.586,162.193 203.586,158.026 189.5,154.5C 191.698,154.88 193.365,154.213 194.5,152.5 Z"/></g>
<g><path style="opacity:1" fill="#191919" d="M 279.5,163.5 C 280.873,163.343 282.207,163.51 283.5,164C 279.361,166.639 275.361,169.472 271.5,172.5C 270.592,171.21 270.759,169.877 272,168.5C 274.479,166.686 276.979,165.019 279.5,163.5 Z"/></g>
<g><path style="opacity:1" fill="#1d1d1d" d="M 292.5,163.5 C 294.505,165.334 296.672,167.001 299,168.5C 299.49,169.793 299.657,171.127 299.5,172.5C 294.611,171.6 292.277,168.6 292.5,163.5 Z"/></g>
<g><path style="opacity:1" fill="#6e6e6e" d="M 291.5,156.5 C 292.043,156.56 292.376,156.893 292.5,157.5C 291.139,159.028 289.972,160.695 289,162.5C 288.482,166.575 288.482,170.575 289,174.5C 285.24,167.914 286.074,161.914 291.5,156.5 Z"/></g>
<g><path style="opacity:1" fill="#1b1b1b" d="M 317.5,168.5 C 317.5,168.833 317.5,169.167 317.5,169.5C 315.947,171.385 313.947,172.385 311.5,172.5C 311.343,171.127 311.51,169.793 312,168.5C 314.292,167.21 316.292,165.543 318,163.5C 318.64,165.265 318.473,166.932 317.5,168.5 Z"/></g>
<g><path style="opacity:1" fill="#efefef" d="M 431.5,161.5 C 434.828,166.994 439.328,171.327 445,174.5C 446.543,173.423 446.543,172.089 445,170.5C 441.855,168.024 438.688,165.69 435.5,163.5C 436.272,162.306 437.272,161.306 438.5,160.5C 442.272,163.094 445.939,165.927 449.5,169C 451.65,170.411 453.984,171.245 456.5,171.5C 456.918,172.222 457.584,172.722 458.5,173C 457.244,173.417 456.577,174.25 456.5,175.5C 457.29,176.794 458.29,177.961 459.5,179C 466.566,183.856 473.566,188.689 480.5,193.5C 478.952,193.821 478.285,194.821 478.5,196.5C 468.266,190.464 457.766,184.798 447,179.5C 452.17,188.177 459.003,195.51 467.5,201.5C 466.226,202.189 466.226,203.023 467.5,204C 465.881,204.236 464.881,205.069 464.5,206.5C 462.787,203.275 460.454,200.441 457.5,198C 450.305,192.639 442.972,187.472 435.5,182.5C 437.59,187.619 440.59,192.619 444.5,197.5C 443.5,197.5 442.5,197.5 441.5,197.5C 441.5,198.5 441.5,199.5 441.5,200.5C 435.905,196.41 430.739,191.744 426,186.5C 425.805,187.819 425.972,189.153 426.5,190.5C 422.403,187.982 422.737,185.982 427.5,184.5C 426.82,183.14 426.153,181.807 425.5,180.5C 426.376,180.631 427.043,180.298 427.5,179.5C 425.916,175.255 423.249,171.921 419.5,169.5C 421.395,168.396 423.061,167.729 424.5,167.5C 427.268,170.771 430.268,173.938 433.5,177C 434.448,177.483 435.448,177.649 436.5,177.5C 436.579,176.07 436.246,174.736 435.5,173.5C 432.788,171.115 430.122,168.782 427.5,166.5C 428.953,165.175 428.619,164.342 426.5,164C 427.833,163.333 429.167,162.667 430.5,162C 430.167,161.667 429.833,161.333 429.5,161C 430.437,160.308 431.103,160.475 431.5,161.5 Z"/></g>
<g><path style="opacity:1" fill="#191919" d="M 431.5,161.5 C 432.833,162.167 434.167,162.833 435.5,163.5C 438.688,165.69 441.855,168.024 445,170.5C 446.543,172.089 446.543,173.423 445,174.5C 439.328,171.327 434.828,166.994 431.5,161.5 Z"/></g>
<g><path style="opacity:1" fill="#181818" d="M 313.5,176.5 C 311.771,177.117 310.271,178.117 309,179.5C 308.099,182.52 307.266,185.52 306.5,188.5C 305.504,188.586 304.671,188.252 304,187.5C 303.587,184.768 302.92,182.101 302,179.5C 299.419,178.61 298.086,176.943 298,174.5C 299.512,175.257 300.846,176.257 302,177.5C 301.453,172.363 303.453,170.697 308,172.5C 307.647,178.472 309.314,179.138 313,174.5C 313.464,175.094 313.631,175.761 313.5,176.5 Z"/></g>
<g><path style="opacity:1" fill="#191919" d="M 427.5,166.5 C 430.122,168.782 432.788,171.115 435.5,173.5C 436.246,174.736 436.579,176.07 436.5,177.5C 435.448,177.649 434.448,177.483 433.5,177C 430.268,173.938 427.268,170.771 424.5,167.5C 423.697,166.577 423.53,165.577 424,164.5C 425.113,165.305 426.279,165.972 427.5,166.5 Z"/></g>
<g><path style="opacity:1" fill="#eeeeee" d="M 176.5,162.5 C 173.921,165.135 170.921,167.301 167.5,169C 165.437,170.572 164.771,172.405 165.5,174.5C 168.531,173.323 171.198,171.656 173.5,169.5C 173.5,171.5 174.5,172.5 176.5,172.5C 173.473,176.458 174.14,177.625 178.5,176C 181.067,172.997 183.734,170.164 186.5,167.5C 188.02,168.85 188.687,170.183 188.5,171.5C 185.558,173.779 183.891,176.779 183.5,180.5C 185.514,180.608 187.18,179.942 188.5,178.5C 188.721,181.097 189.221,181.097 190,178.5C 191.16,180.797 192.16,180.464 193,177.5C 193.399,177.728 193.565,178.062 193.5,178.5C 193.077,180.781 193.744,182.448 195.5,183.5C 197.188,185.477 197.521,187.477 196.5,189.5C 190.174,195.393 184.341,202.393 179,210.5C 177.011,214.253 176.178,218.253 176.5,222.5C 176.015,219.431 174.681,216.764 172.5,214.5C 178.07,205.701 182.237,196.368 185,186.5C 179.149,192.407 173.149,198.074 167,203.5C 164.008,207.157 161.841,211.157 160.5,215.5C 160.539,212.911 159.539,210.911 157.5,209.5C 163.859,201.292 169.859,192.792 175.5,184C 164.961,189.018 155.627,195.852 147.5,204.5C 147.306,202.088 145.973,201.088 143.5,201.5C 152.329,195.178 159.496,187.512 165,178.5C 154.059,184.385 143.226,190.385 132.5,196.5C 131.833,195.5 131.167,194.5 130.5,193.5C 138.61,187.933 146.61,182.099 154.5,176C 153.181,175.805 151.847,175.972 150.5,176.5C 151.171,175.153 151.171,173.986 150.5,173C 151.308,171.294 152.641,170.461 154.5,170.5C 154.56,171.043 154.893,171.376 155.5,171.5C 161.703,168.627 167.036,164.627 171.5,159.5C 171.897,158.475 172.563,158.308 173.5,159C 173.167,159.333 172.833,159.667 172.5,160C 174.066,160.608 175.4,161.442 176.5,162.5 Z"/></g>
<g><path style="opacity:1" fill="#111111" d="M 140.5,171.5 C 142.347,171.234 143.014,171.568 142.5,172.5C 129.17,179.11 115.17,183.61 100.5,186C 92.4887,187.365 85.1554,185.865 78.5,181.5C 82.824,179.083 87.4907,177.583 92.5,177C 108.794,176.457 124.794,174.624 140.5,171.5 Z"/></g>
<g><path style="opacity:1" fill="#1a1a1a" d="M 188.5,178.5 C 187.18,179.942 185.514,180.608 183.5,180.5C 183.891,176.779 185.558,173.779 188.5,171.5C 190.371,171.141 191.871,170.141 193,168.5C 191.839,171.835 190.339,175.168 188.5,178.5 Z"/></g>
<g><path style="opacity:1" fill="#161616" d="M 280.5,171.5 C 281.239,171.369 281.906,171.536 282.5,172C 280.701,174.791 278.367,176.958 275.5,178.5C 274.417,177.635 274.251,176.635 275,175.5C 276.812,174.023 278.645,172.69 280.5,171.5 Z"/></g>
<g><path style="opacity:1" fill="#1e1e1e" d="M 328.5,172.5 C 332.986,171.612 335.652,173.612 336.5,178.5C 335.448,178.649 334.448,178.483 333.5,178C 331.7,176.188 330.033,174.355 328.5,172.5 Z"/></g>
<g><path style="opacity:1" fill="#0d0d0d" d="M 466.5,172.5 C 466.735,171.903 467.235,171.57 468,171.5C 483.65,174.756 499.484,176.589 515.5,177C 521.398,177.724 527.064,179.224 532.5,181.5C 525.129,186.06 517.129,187.56 508.5,186C 493.923,183.196 479.923,178.696 466.5,172.5 Z"/></g>
<g><path style="opacity:1" fill="#171717" d="M 419.5,169.5 C 423.249,171.921 425.916,175.255 427.5,179.5C 427.043,180.298 426.376,180.631 425.5,180.5C 422.117,177.436 419.45,173.769 417.5,169.5C 417.97,168.537 418.637,168.537 419.5,169.5 Z"/></g>
<g><path style="opacity:1" fill="#747474" d="M 322.5,170.5 C 322.833,170.5 323.167,170.5 323.5,170.5C 323.396,172.703 322.73,174.703 321.5,176.5C 320.761,176.631 320.094,176.464 319.5,176C 321.16,174.512 322.16,172.679 322.5,170.5 Z"/></g>
<g><path style="opacity:1" fill="#181818" d="M 195.5,183.5 C 193.744,182.448 193.077,180.781 193.5,178.5C 196.13,176.372 198.63,174.039 201,171.5C 200.044,175.851 198.211,179.851 195.5,183.5 Z"/></g>
<g><path style="opacity:1" fill="#1a1a1a" d="M 409.5,171.5 C 413.285,173.95 415.952,177.284 417.5,181.5C 417.167,182.167 416.833,182.833 416.5,183.5C 412.684,180.407 410.351,176.407 409.5,171.5 Z"/></g>
<g><path style="opacity:1" fill="#101010" d="M 456.5,175.5 C 467.044,179.292 477.711,182.792 488.5,186C 493.449,187.974 497.449,191.14 500.5,195.5C 497.048,197.39 493.382,197.89 489.5,197C 486.516,195.729 483.516,194.562 480.5,193.5C 473.566,188.689 466.566,183.856 459.5,179C 458.29,177.961 457.29,176.794 456.5,175.5 Z"/></g>
<g><path style="opacity:1" fill="#121212" d="M 130.5,193.5 C 127.081,194.374 123.748,195.54 120.5,197C 110.451,198.936 108.785,196.603 115.5,190C 118.339,188.08 121.339,186.413 124.5,185C 133.393,182.453 142.059,179.619 150.5,176.5C 151.847,175.972 153.181,175.805 154.5,176C 146.61,182.099 138.61,187.933 130.5,193.5 Z"/></g>
<g><path style="opacity:1" fill="#171717" d="M 332.5,181.5 C 332.5,182.5 332.5,183.5 332.5,184.5C 329.474,184.163 327.474,182.496 326.5,179.5C 325.537,178.637 325.537,177.97 326.5,177.5C 328.79,178.467 330.79,179.8 332.5,181.5 Z"/></g>
<g><path style="opacity:1" fill="#1a1a1a" d="M 207.5,176.5 C 208.097,176.735 208.43,177.235 208.5,178C 208.356,181.83 206.69,184.663 203.5,186.5C 202.386,185.277 202.219,183.944 203,182.5C 204.332,180.34 205.832,178.34 207.5,176.5 Z"/></g>
<g><path style="opacity:1" fill="#171717" d="M 283.5,177.5 C 284.239,177.369 284.906,177.536 285.5,178C 284.063,180.725 282.063,182.892 279.5,184.5C 278.417,183.635 278.251,182.635 279,181.5C 280.397,179.93 281.897,178.596 283.5,177.5 Z"/></g>
<g><path style="opacity:1" fill="#1b1b1b" d="M 393.5,178.5 C 396.496,181.497 398.163,185.164 398.5,189.5C 397.178,189.67 396.011,189.337 395,188.5C 394.174,185.207 393.674,181.874 393.5,178.5 Z"/></g>
<g><path style="opacity:1" fill="#181818" d="M 402.5,176.5 C 406.045,178.925 408.045,182.258 408.5,186.5C 407.178,186.67 406.011,186.337 405,185.5C 403.85,182.582 403.017,179.582 402.5,176.5 Z"/></g>
<g><path style="opacity:1" fill="#0e0e0e" d="M 143.5,201.5 C 138.802,203.881 133.802,204.881 128.5,204.5C 128.776,201.281 130.109,198.615 132.5,196.5C 143.226,190.385 154.059,184.385 165,178.5C 159.496,187.512 152.329,195.178 143.5,201.5 Z"/></g>
<g><path style="opacity:1" fill="#1c1c1c" d="M 216.5,178.5 C 217.634,180.966 217.801,183.633 217,186.5C 216.092,188.439 214.592,189.439 212.5,189.5C 213.001,185.505 214.334,181.838 216.5,178.5 Z"/></g>
<g><path style="opacity:1" fill="#0f0f0f" d="M 386.5,183.5 C 388.051,185.913 388.717,188.579 388.5,191.5C 387.209,191.737 386.209,191.404 385.5,190.5C 385.198,187.941 385.532,185.607 386.5,183.5 Z"/></g>
<g><path style="opacity:1" fill="#181818" d="M 224.5,183.5 C 225.461,185.265 225.795,187.265 225.5,189.5C 224.321,193.268 223.321,193.268 222.5,189.5C 222.611,187.286 223.278,185.286 224.5,183.5 Z"/></g>
<g><path style="opacity:1" fill="#696969" d="M 224.5,183.5 C 224.56,182.957 224.893,182.624 225.5,182.5C 226.797,184.973 226.797,187.307 225.5,189.5C 225.795,187.265 225.461,185.265 224.5,183.5 Z"/></g>
<g><path style="opacity:1" fill="#0e0e0e" d="M 478.5,196.5 C 480.891,198.615 482.224,201.281 482.5,204.5C 477.149,205.02 472.149,204.02 467.5,201.5C 459.003,195.51 452.17,188.177 447,179.5C 457.766,184.798 468.266,190.464 478.5,196.5 Z"/></g>
<g><path style="opacity:1" fill="#212121" d="M 329.5,196.5 C 328.685,197.429 327.852,198.429 327,199.5C 326.667,196.5 326.333,193.5 326,190.5C 325.626,188.509 324.793,186.842 323.5,185.5C 321.891,184.102 321.058,182.435 321,180.5C 327.097,184.097 329.93,189.431 329.5,196.5 Z"/></g>
<g><path style="opacity:1" fill="#686868" d="M 386.5,183.5 C 385.532,185.607 385.198,187.941 385.5,190.5C 384.2,187.976 384.2,185.309 385.5,182.5C 386.107,182.624 386.44,182.957 386.5,183.5 Z"/></g>
<g><path style="opacity:1" fill="#141414" d="M 233.5,184.5 C 234.158,185.793 234.492,187.293 234.5,189C 234.577,191.051 234.077,192.884 233,194.5C 231.223,191.159 231.39,187.825 233.5,184.5 Z"/></g>
<g><path style="opacity:1" fill="#1d1d1d" d="M 376.5,184.5 C 379.531,187.484 380.031,190.818 378,194.5C 375.189,191.6 374.689,188.267 376.5,184.5 Z"/></g>
<g><path style="opacity:1" fill="#111111" d="M 464.5,206.5 C 465.369,208.717 465.702,211.05 465.5,213.5C 461.489,213.498 457.822,212.332 454.5,210C 450.953,205.959 447.62,201.792 444.5,197.5C 440.59,192.619 437.59,187.619 435.5,182.5C 442.972,187.472 450.305,192.639 457.5,198C 460.454,200.441 462.787,203.275 464.5,206.5 Z"/></g>
<g><path style="opacity:1" fill="#232323" d="M 240.5,186.5 C 241.497,186.47 242.164,186.97 242.5,188C 243.322,190.434 243.656,192.934 243.5,195.5C 242.178,195.67 241.011,195.337 240,194.5C 239.825,191.843 239.992,189.176 240.5,186.5 Z"/></g>
<g><path style="opacity:1" fill="#202020" d="M 353.5,187.5 C 354.461,189.265 354.795,191.265 354.5,193.5C 352.912,196.218 351.579,196.052 350.5,193C 351.632,191.235 352.632,189.402 353.5,187.5 Z"/></g>
<g><path style="opacity:1" fill="#242424" d="M 368.5,186.5 C 371.389,188.775 372.056,191.608 370.5,195C 369.552,195.483 368.552,195.649 367.5,195.5C 367.368,192.43 367.701,189.43 368.5,186.5 Z"/></g>
<g><path style="opacity:1" fill="#0e0e0e" d="M 157.5,209.5 C 153.858,211.748 149.858,213.081 145.5,213.5C 145.21,210.215 145.877,207.215 147.5,204.5C 155.627,195.852 164.961,189.018 175.5,184C 169.859,192.792 163.859,201.292 157.5,209.5 Z"/></g>
<g><path style="opacity:1" fill="#818181" d="M 257.5,187.5 C 256.539,189.265 256.205,191.265 256.5,193.5C 255.203,191.307 255.203,188.973 256.5,186.5C 257.107,186.624 257.44,186.957 257.5,187.5 Z"/></g>
<g><path style="opacity:1" fill="#202020" d="M 257.5,187.5 C 258.876,189.082 259.876,190.915 260.5,193C 259.421,196.052 258.088,196.218 256.5,193.5C 256.205,191.265 256.539,189.265 257.5,187.5 Z"/></g>
<g><path style="opacity:1" fill="#161616" d="M 287.5,182.5 C 288.043,182.56 288.376,182.893 288.5,183.5C 285.238,188.289 283.738,193.622 284,199.5C 280.285,192.901 281.451,187.234 287.5,182.5 Z"/></g>
<g><path style="opacity:1" fill="#1b1b1b" d="M 293.5,186.5 C 294.043,186.56 294.376,186.893 294.5,187.5C 292.907,192.386 291.74,197.386 291,202.5C 289.492,200.983 288.658,199.149 288.5,197C 289.508,193.152 291.175,189.652 293.5,186.5 Z"/></g>
<g><path style="opacity:1" fill="#111111" d="M 172.5,214.5 C 169.052,217.558 165.052,219.558 160.5,220.5C 160.5,218.833 160.5,217.167 160.5,215.5C 161.841,211.157 164.008,207.157 167,203.5C 173.149,198.074 179.149,192.407 185,186.5C 182.237,196.368 178.07,205.701 172.5,214.5 Z"/></g>
<g><path style="opacity:1" fill="#1e1e1e" d="M 248.5,187.5 C 252.476,189.78 253.143,192.78 250.5,196.5C 249.914,196.291 249.414,195.957 249,195.5C 248.503,192.854 248.336,190.187 248.5,187.5 Z"/></g>
<g><path style="opacity:1" fill="#878787" d="M 353.5,187.5 C 353.56,186.957 353.893,186.624 354.5,186.5C 355.797,188.973 355.797,191.307 354.5,193.5C 354.795,191.265 354.461,189.265 353.5,187.5 Z"/></g>
<g><path style="opacity:1" fill="#1f1f1f" d="M 360.5,187.5 C 361.748,188.334 362.415,189.667 362.5,191.5C 362.296,197.119 360.963,197.619 358.5,193C 359.32,191.2 359.986,189.366 360.5,187.5 Z"/></g>
<g><path style="opacity:1" fill="#1a1a1a" d="M 317.5,186.5 C 318.604,188.389 319.937,190.055 321.5,191.5C 321.723,193.342 322.057,195.175 322.5,197C 322.507,198.812 321.84,200.312 320.5,201.5C 319.293,196.796 317.959,192.13 316.5,187.5C 316.624,186.893 316.957,186.56 317.5,186.5 Z"/></g>
<g><path style="opacity:1" fill="#0c0c0c" d="M 441.5,200.5 C 442.842,203.166 444.675,205.499 447,207.5C 448.411,209.65 449.245,211.984 449.5,214.5C 449.923,216.781 449.256,218.448 447.5,219.5C 443.63,218.647 440.464,216.647 438,213.5C 433.593,206.02 429.76,198.354 426.5,190.5C 425.972,189.153 425.805,187.819 426,186.5C 430.739,191.744 435.905,196.41 441.5,200.5 Z"/></g>
<g><path style="opacity:1" fill="#0f0f0f" d="M 196.5,189.5 C 193.825,198.528 190.992,207.528 188,216.5C 185.859,220.639 182.526,223.306 178,224.5C 176.97,224.164 176.47,223.497 176.5,222.5C 176.178,218.253 177.011,214.253 179,210.5C 184.341,202.393 190.174,195.393 196.5,189.5 Z"/></g>
<g><path style="opacity:1" fill="#101010" d="M 298.5,191.5 C 299.162,193.304 299.495,195.304 299.5,197.5C 299.603,200.037 299.103,202.371 298,204.5C 296.079,200.158 296.245,195.825 298.5,191.5 Z"/></g>
<g><path style="opacity:1" fill="#0e0e0e" d="M 311.5,191.5 C 314.708,195.498 315.208,199.832 313,204.5C 311.633,200.3 311.133,195.967 311.5,191.5 Z"/></g>
<g><path style="opacity:1" fill="#0f0f0f" d="M 205.5,193.5 C 206.053,203.747 204.22,213.747 200,223.5C 197.933,226.07 195.433,228.07 192.5,229.5C 190.019,224.933 189.852,220.266 192,215.5C 196.725,208.281 201.225,200.948 205.5,193.5 Z"/></g>
<g><path style="opacity:1" fill="#0c0c0c" d="M 414.5,188.5 C 420.136,194.977 425.636,201.644 431,208.5C 433.938,213.434 435.105,218.767 434.5,224.5C 429.738,224.037 426.238,221.704 424,217.5C 419.928,208.117 416.761,198.45 414.5,188.5 Z"/></g>
<g><path style="opacity:1" fill="#212121" d="M 304.5,193.5 C 306.443,195.957 307.443,198.957 307.5,202.5C 306.167,209.167 304.833,209.167 303.5,202.5C 304.162,199.532 304.495,196.532 304.5,193.5 Z"/></g>
<g><path style="opacity:1" fill="#0f0f0f" d="M 404.5,193.5 C 410.055,200.254 414.888,207.587 419,215.5C 420.826,220.117 420.993,224.784 419.5,229.5C 414.609,227.779 411.109,224.446 409,219.5C 406.71,210.972 405.21,202.305 404.5,193.5 Z"/></g>
<g><path style="opacity:1" fill="#0e0e0e" d="M 216.5,194.5 C 217.163,196.641 217.497,198.975 217.5,201.5C 217.025,208.169 216.525,214.835 216,221.5C 214.431,225.072 212.098,228.072 209,230.5C 206.628,226.142 205.962,221.476 207,216.5C 210.075,209.101 213.242,201.768 216.5,194.5 Z"/></g>
<g><path style="opacity:1" fill="#0e0e0e" d="M 226.5,197.5 C 227.826,201.614 228.493,206.114 228.5,211C 228.333,215.5 228.167,220 228,224.5C 226.71,226.792 225.043,228.792 223,230.5C 220.6,225.804 219.934,220.804 221,215.5C 223.139,209.583 224.973,203.583 226.5,197.5 Z"/></g>
<g><path style="opacity:1" fill="#121212" d="M 345.5,199.5 C 346.147,200.274 346.48,201.274 346.5,202.5C 346.064,205.179 345.564,207.845 345,210.5C 344.359,212.813 343.026,214.48 341,215.5C 338.702,213.696 338.035,211.363 339,208.5C 341.176,205.471 343.343,202.471 345.5,199.5 Z"/></g>
<g><path style="opacity:1" fill="#161616" d="M 382.5,197.5 C 383.497,197.47 384.164,197.97 384.5,199C 388.338,207.84 390.172,217.006 390,226.5C 389.804,228.286 388.971,229.619 387.5,230.5C 384.65,228.135 382.816,225.135 382,221.5C 381.643,213.495 381.81,205.495 382.5,197.5 Z"/></g>
<g><path style="opacity:1" fill="#0d0d0d" d="M 393.5,194.5 C 397.844,201.662 401.344,209.329 404,217.5C 405.448,232.465 402.448,233.798 395,221.5C 394.3,212.507 393.8,203.507 393.5,194.5 Z"/></g>
<g><path style="opacity:1" fill="#121212" d="M 236.5,199.5 C 238.067,200.681 238.901,202.347 239,204.5C 240.33,210.452 240.663,216.452 240,222.5C 239.385,224.116 238.385,225.449 237,226.5C 234.457,224.047 232.957,221.047 232.5,217.5C 234.046,211.533 235.379,205.533 236.5,199.5 Z"/></g>
<g><path style="opacity:1" fill="#161616" d="M 246.5,201.5 C 249.448,206.329 251.448,211.662 252.5,217.5C 251.003,226.488 248.503,226.822 245,218.5C 244.437,212.736 244.937,207.07 246.5,201.5 Z"/></g>
<g><path style="opacity:1" fill="#141414" d="M 263.5,197.5 C 266.797,200.736 269.63,204.403 272,208.5C 272.965,211.363 272.298,213.696 270,215.5C 267.974,214.48 266.641,212.813 266,210.5C 265.004,206.184 264.17,201.851 263.5,197.5 Z"/></g>
<g><path style="opacity:1" fill="#101010" d="M 354.5,199.5 C 355.651,204.65 355.817,209.984 355,215.5C 354.027,217.64 352.527,219.307 350.5,220.5C 348.564,217.792 348.064,214.792 349,211.5C 350.588,207.328 352.421,203.328 354.5,199.5 Z"/></g>
<g><path style="opacity:1" fill="#101010" d="M 373.5,199.5 C 376.718,206.746 377.885,214.413 377,222.5C 374.481,227.719 372.481,227.385 371,221.5C 369.979,213.919 370.813,206.585 373.5,199.5 Z"/></g>
<g><path style="opacity:1" fill="#0e0e0e" d="M 255.5,199.5 C 259.954,205.069 262.12,211.403 262,218.5C 261.692,219.308 261.192,219.975 260.5,220.5C 258.132,219.631 256.632,217.965 256,215.5C 255.501,210.177 255.334,204.844 255.5,199.5 Z"/></g>
<g><path style="opacity:1" fill="#181818" d="M 363.5,201.5 C 365.395,205.31 366.395,209.476 366.5,214C 366.566,218.368 364.899,221.868 361.5,224.5C 359.82,222.299 358.82,219.799 358.5,217C 359.875,211.709 361.542,206.543 363.5,201.5 Z"/></g>
<g><path style="opacity:1" fill="#1a1a1a" d="M 289.5,234.5 C 287.013,228.188 284.513,221.855 282,215.5C 281.39,212.173 280.89,208.839 280.5,205.5C 280.343,204.127 280.51,202.793 281,201.5C 283.264,209.626 285.931,217.626 289,225.5C 290.351,228.623 290.518,231.623 289.5,234.5 Z"/></g>
<g><path style="opacity:1" fill="#242424" d="M 286.5,204.5 C 290.096,209.344 292.262,214.677 293,220.5C 289.444,215.722 287.277,210.389 286.5,204.5 Z"/></g>
<g><path style="opacity:1" fill="#1f1f1f" d="M 323.5,204.5 C 323.645,210.228 321.811,215.561 318,220.5C 317.333,218.833 317.333,217.167 318,215.5C 320.533,212.147 322.367,208.481 323.5,204.5 Z"/></g>
<g><path style="opacity:1" fill="#1e1e1e" d="M 316.5,205.5 C 317.598,206.601 317.765,207.934 317,209.5C 313.622,214.68 311.622,220.347 311,226.5C 309.46,224.045 309.126,221.379 310,218.5C 313.238,214.691 315.404,210.358 316.5,205.5 Z"/></g>
<g><path style="opacity:1" fill="#181818" d="M 330.5,207.5 C 329.103,214.356 327.103,221.023 324.5,227.5C 323.065,229.598 321.898,231.931 321,234.5C 320.333,232.833 320.333,231.167 321,229.5C 324.573,220.353 327.573,211.019 330,201.5C 330.495,203.473 330.662,205.473 330.5,207.5 Z"/></g>
<g><path style="opacity:1" fill="#5f5f5f" d="M 449.5,214.5 C 450.461,216.265 450.795,218.265 450.5,220.5C 449.209,220.737 448.209,220.404 447.5,219.5C 449.256,218.448 449.923,216.781 449.5,214.5 Z"/></g>
<g><path style="opacity:1" fill="#3d3d3d" d="M 301.5,210.5 C 303.054,211.914 304.388,213.581 305.5,215.5C 306.584,214.335 307.417,213.002 308,211.5C 308.654,210.304 309.154,210.304 309.5,211.5C 306.025,222.119 303.359,221.786 301.5,210.5 Z"/></g>
<g><path style="opacity:1" fill="#161616" d="M 301.5,224.5 C 301.5,224.833 301.5,225.167 301.5,225.5C 300.883,225.611 300.383,225.944 300,226.5C 299.667,224.5 299.333,222.5 299,220.5C 296.704,215.939 295.037,211.272 294,206.5C 295.934,210.759 298.268,214.759 301,218.5C 301.495,220.473 301.662,222.473 301.5,224.5 Z"/></g>
<g><path style="opacity:1" fill="#151515" d="M 315.5,254.5 C 314.496,255.683 313.662,257.016 313,258.5C 312.346,259.696 311.846,259.696 311.5,258.5C 313.952,254.379 314.619,250.046 313.5,245.5C 311.142,247.024 309.309,249.024 308,251.5C 307.333,250.167 307.333,248.833 308,247.5C 309.095,246.307 309.928,244.973 310.5,243.5C 311.712,242.77 312.712,241.77 313.5,240.5C 314.328,236.204 314.828,231.871 315,227.5C 315.308,226.692 315.808,226.025 316.5,225.5C 318.023,235.281 317.689,244.947 315.5,254.5 Z"/></g>
<g><path style="opacity:1" fill="#131313" d="M 304.5,227.5 C 306.045,228.23 306.878,229.563 307,231.5C 307.678,235.221 307.511,238.888 306.5,242.5C 305.25,242.423 304.417,241.756 304,240.5C 303.371,236.129 303.537,231.796 304.5,227.5 Z"/></g>
<g><path style="opacity:1" fill="#6f6f6f" d="M 333.5,233.5 C 332.833,233.5 332.5,233.833 332.5,234.5C 331.5,233.167 330.5,231.833 329.5,230.5C 329.369,229.761 329.536,229.094 330,228.5C 331.176,230.196 332.343,231.862 333.5,233.5 Z"/></g>
<g><path style="opacity:1" fill="#161616" d="M 296.5,228.5 C 296.334,232.514 296.501,236.514 297,240.5C 300.899,243.307 302.899,246.974 303,251.5C 301.691,249.024 299.858,247.024 297.5,245.5C 297.167,246.333 296.833,247.167 296.5,248C 297.44,251.912 298.273,255.745 299,259.5C 295.814,256.127 293.98,252.127 293.5,247.5C 293.169,240.137 293.503,232.803 294.5,225.5C 295.176,226.602 295.842,227.602 296.5,228.5 Z"/></g>
<g><path style="opacity:1" fill="#0c0c0c" d="M 278.5,231.5 C 279.043,231.56 279.376,231.893 279.5,232.5C 274.914,244.036 270.747,255.703 267,267.5C 262.966,274.097 257.133,277.431 249.5,277.5C 249.338,272.818 250.505,268.485 253,264.5C 261.333,253.339 269.833,242.339 278.5,231.5 Z"/></g>
<g><path style="opacity:1" fill="#0b0b0b" d="M 333.5,233.5 C 340.846,243.503 348.679,253.169 357,262.5C 359.354,266.203 360.854,270.203 361.5,274.5C 361.5,275.5 361.5,276.5 361.5,277.5C 360.167,277.5 358.833,277.5 357.5,277.5C 355.297,277.396 353.297,276.73 351.5,275.5C 346.817,271.836 343.317,267.169 341,261.5C 339.048,252.148 336.215,243.148 332.5,234.5C 332.5,233.833 332.833,233.5 333.5,233.5 Z"/></g>
<g><path style="opacity:1" fill="#0d0d0d" d="M 284.5,241.5 C 284.047,253.148 282.214,264.814 279,276.5C 276.239,282.426 271.739,286.426 265.5,288.5C 264.343,285.216 264.176,281.882 265,278.5C 272.162,266.508 278.662,254.174 284.5,241.5 Z"/></g>
<g><path style="opacity:1" fill="#0c0c0c" d="M 346.5,278.5 C 346.5,279.5 346.5,280.5 346.5,281.5C 346.975,284.082 346.308,286.082 344.5,287.5C 338.65,285.652 334.317,281.986 331.5,276.5C 329.047,264.912 327.213,253.246 326,241.5C 332.296,254.254 339.129,266.587 346.5,278.5 Z"/></g>
<g><path style="opacity:1" fill="#0c0c0c" d="M 320.5,257.5 C 323.13,264.412 326.13,271.078 329.5,277.5C 331.349,283.705 331.849,290.038 331,296.5C 330.581,297.672 329.915,298.672 329,299.5C 322.962,295.094 319.796,289.094 319.5,281.5C 319.174,273.316 319.508,265.316 320.5,257.5 Z"/></g>
<g><path style="opacity:1" fill="#0b0b0b" d="M 290.5,257.5 C 291.492,264.648 291.825,271.981 291.5,279.5C 291.797,287.903 288.63,294.57 282,299.5C 279.082,293.037 278.749,286.37 281,279.5C 284.457,272.257 287.623,264.924 290.5,257.5 Z"/></g>
<g><path style="opacity:1" fill="#979797" d="M 320.5,257.5 C 319.508,265.316 319.174,273.316 319.5,281.5C 318.507,273.35 318.174,265.017 318.5,256.5C 319.301,254.207 319.968,254.54 320.5,257.5 Z"/></g>
<g><path style="opacity:1" fill="#959595" d="M 291.5,279.5 C 291.825,271.981 291.492,264.648 290.5,257.5C 290.461,256.244 290.961,255.244 292,254.5C 292.823,263.01 292.657,271.344 291.5,279.5 Z"/></g>
<g><path style="opacity:1" fill="#101010" d="M 310.5,265.5 C 313.61,274.251 316.276,283.251 318.5,292.5C 318.123,296.257 316.457,299.257 313.5,301.5C 309.097,298.143 307.097,293.643 307.5,288C 308.268,280.459 309.268,272.959 310.5,265.5 Z"/></g>
<g><path style="opacity:1" fill="#0d0d0d" d="M 299.5,265.5 C 303.36,275.508 304.193,285.841 302,296.5C 299.634,302.399 296.967,302.733 294,297.5C 293.833,295.5 293.667,293.5 293.5,291.5C 294.881,282.691 296.881,274.025 299.5,265.5 Z"/></g>
<g><path style="opacity:1" fill="#909090" d="M 361.5,274.5 C 362.434,275.568 362.768,276.901 362.5,278.5C 360.585,278.784 358.919,278.451 357.5,277.5C 358.833,277.5 360.167,277.5 361.5,277.5C 361.5,276.5 361.5,275.5 361.5,274.5 Z"/></g>
<g><path style="opacity:1" fill="#818181" d="M 346.5,281.5 C 347.468,283.607 347.802,285.941 347.5,288.5C 346.209,288.737 345.209,288.404 344.5,287.5C 346.308,286.082 346.975,284.082 346.5,281.5 Z"/></g>
</svg>
