<?xml version="1.0" encoding="UTF-8"?>
<!DOCTYPE svg PUBLIC "-//W3C//DTD SVG 1.1//EN" "http://www.w3.org/Graphics/SVG/1.1/DTD/svg11.dtd">
<svg xmlns="http://www.w3.org/2000/svg" version="1.1" width="200px" height="200px" style="shape-rendering:geometricPrecision; text-rendering:geometricPrecision; image-rendering:optimizeQuality; fill-rule:evenodd; clip-rule:evenodd" xmlns:xlink="http://www.w3.org/1999/xlink">
<g><path style="opacity:1" fill="#fefefe" d="M -0.5,-0.5 C 66.1667,-0.5 132.833,-0.5 199.5,-0.5C 199.5,66.1667 199.5,132.833 199.5,199.5C 132.833,199.5 66.1667,199.5 -0.5,199.5C -0.5,132.833 -0.5,66.1667 -0.5,-0.5 Z"/></g>
<g><path style="opacity:1" fill="#edd395" d="M 93.5,5.5 C 104.031,7.93301 104.031,10.5997 93.5,13.5C 91.3792,13.3253 89.3792,13.6586 87.5,14.5C 86.8333,14.5 86.5,14.1667 86.5,13.5C 87.391,12.8902 88.391,12.5569 89.5,12.5C 90.0431,12.44 90.3764,12.1067 90.5,11.5C 88.9223,10.7022 87.2556,10.2022 85.5,10C 89.23,10.0624 91.8967,8.56239 93.5,5.5 Z"/></g>
<g><path style="opacity:1" fill="#b79965" d="M 92.5,3.5 C 93.1667,3.5 93.5,3.83333 93.5,4.5C 93.5,4.83333 93.5,5.16667 93.5,5.5C 91.8967,8.56239 89.23,10.0624 85.5,10C 87.2556,10.2022 88.9223,10.7022 90.5,11.5C 90.3764,12.1067 90.0431,12.44 89.5,12.5C 87.6365,11.2072 85.6365,11.2072 83.5,12.5C 84.1329,14.5193 85.1329,14.8526 86.5,13.5C 86.5,14.1667 86.8333,14.5 87.5,14.5C 85.1423,17.1017 82.6423,17.1017 80,14.5C 77.5396,15.3134 75.0396,15.9801 72.5,16.5C 71.2739,16.4805 70.2739,16.1471 69.5,15.5C 71.7812,15.9227 73.4479,15.256 74.5,13.5C 78.1031,12.8703 81.4364,11.3703 84.5,9C 86.5,8.66667 88.5,8.33333 90.5,8C 90.1667,7.66667 89.8333,7.33333 89.5,7C 91.0557,6.27985 92.0557,5.11318 92.5,3.5 Z"/></g>
<g><path style="opacity:1" fill="#482b1b" d="M 89.5,12.5 C 88.391,12.5569 87.391,12.8902 86.5,13.5C 85.1329,14.8526 84.1329,14.5193 83.5,12.5C 85.6365,11.2072 87.6365,11.2072 89.5,12.5 Z"/></g>
<g><path style="opacity:1" fill="#f5eacf" d="M 93.5,5.5 C 93.5,5.16667 93.5,4.83333 93.5,4.5C 97.4146,4.24666 101.081,4.91332 104.5,6.5C 104.662,8.5273 104.495,10.5273 104,12.5C 103.667,12.1667 103.333,11.8333 103,11.5C 99.5321,12.9335 96.0321,14.2668 92.5,15.5C 92.8333,14.8333 93.1667,14.1667 93.5,13.5C 104.031,10.5997 104.031,7.93301 93.5,5.5 Z"/></g>
<g><path style="opacity:1" fill="#1c1211" d="M 92.5,3.5 C 92.0557,5.11318 91.0557,6.27985 89.5,7C 89.8333,7.33333 90.1667,7.66667 90.5,8C 88.5,8.33333 86.5,8.66667 84.5,9C 81.4364,11.3703 78.1031,12.8703 74.5,13.5C 72.847,13.3404 71.5137,12.6737 70.5,11.5C 70.33,10.1779 70.6634,9.01127 71.5,8C 73.4242,7.82081 75.0909,7.65414 76.5,7.5C 73.1352,4.75993 70.1352,5.09326 67.5,8.5C 65.6614,9.50773 64.3281,11.0077 63.5,13C 65.8113,13.2359 67.8113,14.0693 69.5,15.5C 70.2739,16.1471 71.2739,16.4805 72.5,16.5C 75.0396,15.9801 77.5396,15.3134 80,14.5C 82.6423,17.1017 85.1423,17.1017 87.5,14.5C 89.3792,13.6586 91.3792,13.3253 93.5,13.5C 93.1667,14.1667 92.8333,14.8333 92.5,15.5C 88.6712,20.1555 86.8379,25.4888 87,31.5C 90.6903,38.2329 94.857,44.5662 99.5,50.5C 98.6832,52.3077 99.3498,53.8077 101.5,55C 100.004,55.5074 98.8373,55.0074 98,53.5C 96.984,54.6341 96.3173,54.3008 96,52.5C 95.5172,53.448 95.3505,54.448 95.5,55.5C 83.1411,54.9677 71.3078,55.6343 60,57.5C 59.8138,54.9644 59.3138,52.631 58.5,50.5C 54.1363,36.6538 54.6363,22.9871 60,9.5C 69.3209,-0.079279 80.1543,-2.07928 92.5,3.5 Z"/></g>
<g><path style="opacity:1" fill="#dbaa51" d="M 67.5,8.5 C 68.8999,9.09982 69.8999,10.0998 70.5,11.5C 71.5137,12.6737 72.847,13.3404 74.5,13.5C 73.4479,15.256 71.7812,15.9227 69.5,15.5C 67.8113,14.0693 65.8113,13.2359 63.5,13C 64.3281,11.0077 65.6614,9.50773 67.5,8.5 Z"/></g>
<g><path style="opacity:1" fill="#9e7f56" d="M 70.5,11.5 C 69.8999,10.0998 68.8999,9.09982 67.5,8.5C 70.1352,5.09326 73.1352,4.75993 76.5,7.5C 75.0909,7.65414 73.4242,7.82081 71.5,8C 70.6634,9.01127 70.33,10.1779 70.5,11.5 Z"/></g>
<g><path style="opacity:1" fill="#2e1f1e" d="M 58.5,50.5 C 59.3138,52.631 59.8138,54.9644 60,57.5C 71.3078,55.6343 83.1411,54.9677 95.5,55.5C 95.3505,54.448 95.5172,53.448 96,52.5C 96.3173,54.3008 96.984,54.6341 98,53.5C 98.8373,55.0074 100.004,55.5074 101.5,55C 99.3498,53.8077 98.6832,52.3077 99.5,50.5C 101.9,52.2964 103.567,54.6298 104.5,57.5C 104.425,60.2062 104.092,62.8728 103.5,65.5C 102.265,65.7214 101.265,66.3881 100.5,67.5C 99.1936,66.0878 98.3603,64.4211 98,62.5C 85.7792,63.5661 73.4458,65.2328 61,67.5C 58.5897,67.5176 56.423,66.8509 54.5,65.5C 54.5,64.8333 54.5,64.1667 54.5,63.5C 55.6401,61.2198 56.8068,58.8864 58,56.5C 58.4955,54.5273 58.6621,52.5273 58.5,50.5 Z"/></g>
<g><path style="opacity:1" fill="#392a25" d="M 103.5,65.5 C 102.167,67.8333 100.833,70.1667 99.5,72.5C 98.1411,71.9935 97.1411,70.9935 96.5,69.5C 84.6637,71.1221 72.6637,72.1221 60.5,72.5C 60.1852,74.483 59.1852,75.8163 57.5,76.5C 55.1229,73.274 54.1229,69.6073 54.5,65.5C 56.423,66.8509 58.5897,67.5176 61,67.5C 73.4458,65.2328 85.7792,63.5661 98,62.5C 98.3603,64.4211 99.1936,66.0878 100.5,67.5C 101.265,66.3881 102.265,65.7214 103.5,65.5 Z"/></g>
<g><path style="opacity:1" fill="#5d463f" d="M 104.5,57.5 C 106.633,59.0905 108.299,61.0905 109.5,63.5C 107.692,64.9179 107.025,66.9179 107.5,69.5C 107.664,72.1873 107.497,74.854 107,77.5C 106.016,75.2053 105.183,75.5386 104.5,78.5C 102.647,79.7596 100.814,79.7596 99,78.5C 96.1044,81.4544 94.771,85.1211 95,89.5C 91.3669,96.1866 86.5335,97.1866 80.5,92.5C 79.6143,93.325 79.281,94.325 79.5,95.5C 72.7978,95.3357 66.1311,95.669 59.5,96.5C 60.1621,100.466 60.4955,104.466 60.5,108.5C 56.526,100.875 53.3594,92.8754 51,84.5C 49.6088,76.9361 50.7755,69.9361 54.5,63.5C 54.5,64.1667 54.5,64.8333 54.5,65.5C 54.1229,69.6073 55.1229,73.274 57.5,76.5C 59.1126,79.2861 60.946,81.9528 63,84.5C 66.4106,83.7069 69.9106,83.2069 73.5,83C 77.2772,78.8237 81.6105,78.3237 86.5,81.5C 89.5778,79.8701 92.9111,79.0368 96.5,79C 97.129,76.6252 98.129,74.4586 99.5,72.5C 100.833,70.1667 102.167,67.8333 103.5,65.5C 104.092,62.8728 104.425,60.2062 104.5,57.5 Z"/></g>
<g><path style="opacity:1" fill="#4a3732" d="M 99.5,72.5 C 98.129,74.4586 97.129,76.6252 96.5,79C 92.9111,79.0368 89.5778,79.8701 86.5,81.5C 81.6105,78.3237 77.2772,78.8237 73.5,83C 69.9106,83.2069 66.4106,83.7069 63,84.5C 60.946,81.9528 59.1126,79.2861 57.5,76.5C 59.1852,75.8163 60.1852,74.483 60.5,72.5C 72.6637,72.1221 84.6637,71.1221 96.5,69.5C 97.1411,70.9935 98.1411,71.9935 99.5,72.5 Z"/></g>
<g><path style="opacity:1" fill="#5c4036" d="M 107.5,69.5 C 108.818,75.3676 110.152,81.3676 111.5,87.5C 113.475,90.8049 115.809,93.8049 118.5,96.5C 118.5,96.8333 118.5,97.1667 118.5,97.5C 117.206,96.7101 116.039,95.7101 115,94.5C 108.746,95.0552 102.246,95.5552 95.5,96C 93.0232,97.6427 90.6898,99.476 88.5,101.5C 87.7022,99.9223 87.2022,98.2556 87,96.5C 85.4422,98.3589 83.6089,99.8589 81.5,101C 75.763,101.614 70.0963,102.614 64.5,104C 62.8198,104.347 61.8198,105.347 61.5,107C 63.7843,109.741 64.7843,112.908 64.5,116.5C 62.659,114.151 61.3257,111.485 60.5,108.5C 60.4955,104.466 60.1621,100.466 59.5,96.5C 66.1311,95.669 72.7978,95.3357 79.5,95.5C 79.281,94.325 79.6143,93.325 80.5,92.5C 86.5335,97.1866 91.3669,96.1866 95,89.5C 94.771,85.1211 96.1044,81.4544 99,78.5C 100.814,79.7596 102.647,79.7596 104.5,78.5C 105.183,75.5386 106.016,75.2053 107,77.5C 107.497,74.854 107.664,72.1873 107.5,69.5 Z"/></g>
<g><path style="opacity:1" fill="#3c251d" d="M 109.5,63.5 C 120.863,75.5239 127.863,89.8572 130.5,106.5C 128.588,108.872 127.422,108.205 127,104.5C 126.601,104.728 126.435,105.062 126.5,105.5C 124.547,101.88 121.881,98.8797 118.5,96.5C 115.809,93.8049 113.475,90.8049 111.5,87.5C 110.152,81.3676 108.818,75.3676 107.5,69.5C 107.025,66.9179 107.692,64.9179 109.5,63.5 Z"/></g>
<g><path style="opacity:1" fill="#58372b" d="M 118.5,97.5 C 120.457,101.775 123.124,105.441 126.5,108.5C 125.737,109.268 124.737,109.768 123.5,110C 126.362,115.289 128.695,120.789 130.5,126.5C 129.599,127.29 128.932,128.29 128.5,129.5C 125.07,134.196 121.903,134.196 119,129.5C 118.505,131.473 118.338,133.473 118.5,135.5C 117.686,133.369 117.186,131.036 117,128.5C 115.594,129.668 114.428,129.335 113.5,127.5C 111.241,127.784 109.574,128.784 108.5,130.5C 107.533,129.194 106.199,128.527 104.5,128.5C 103.737,127.732 102.737,127.232 101.5,127C 98.3242,122.994 94.9908,119.16 91.5,115.5C 90.3493,114.269 89.1827,114.269 88,115.5C 87.4169,113.998 86.5836,112.665 85.5,111.5C 83.6129,113.026 82.6129,115.026 82.5,117.5C 81.6376,120.559 81.6376,123.559 82.5,126.5C 81.5,127.167 80.5,127.833 79.5,128.5C 82.3662,130.762 85.3662,132.762 88.5,134.5C 89.0901,138.603 90.0901,142.603 91.5,146.5C 90.0639,146.245 88.5639,145.912 87,145.5C 86.2917,146.381 85.4584,147.047 84.5,147.5C 77.1128,137.75 70.4462,127.417 64.5,116.5C 64.7843,112.908 63.7843,109.741 61.5,107C 61.8198,105.347 62.8198,104.347 64.5,104C 70.0963,102.614 75.763,101.614 81.5,101C 83.6089,99.8589 85.4422,98.3589 87,96.5C 87.2022,98.2556 87.7022,99.9223 88.5,101.5C 90.6898,99.476 93.0232,97.6427 95.5,96C 102.246,95.5552 108.746,95.0552 115,94.5C 116.039,95.7101 117.206,96.7101 118.5,97.5 Z"/></g>
<g><path style="opacity:1" fill="#b8a4a1" d="M 118.5,96.5 C 121.881,98.8797 124.547,101.88 126.5,105.5C 126.5,106.5 126.5,107.5 126.5,108.5C 123.124,105.441 120.457,101.775 118.5,97.5C 118.5,97.1667 118.5,96.8333 118.5,96.5 Z"/></g>
<g><path style="opacity:1" fill="#724e36" d="M 104.5,128.5 C 100.107,128.457 99.7741,128.957 103.5,130C 99.2273,131.03 94.894,131.697 90.5,132C 89.5842,132.278 88.9175,132.778 88.5,133.5C 88.5,133.833 88.5,134.167 88.5,134.5C 85.3662,132.762 82.3662,130.762 79.5,128.5C 80.5,127.833 81.5,127.167 82.5,126.5C 81.6376,123.559 81.6376,120.559 82.5,117.5C 82.6129,115.026 83.6129,113.026 85.5,111.5C 86.5836,112.665 87.4169,113.998 88,115.5C 89.1827,114.269 90.3493,114.269 91.5,115.5C 94.9908,119.16 98.3242,122.994 101.5,127C 102.737,127.232 103.737,127.732 104.5,128.5 Z"/></g>
<g><path style="opacity:1" fill="#221818" d="M 130.5,106.5 C 132.56,115.763 134.226,125.096 135.5,134.5C 133.376,132.281 131.709,129.614 130.5,126.5C 128.695,120.789 126.362,115.289 123.5,110C 124.737,109.768 125.737,109.268 126.5,108.5C 126.5,107.5 126.5,106.5 126.5,105.5C 126.435,105.062 126.601,104.728 127,104.5C 127.422,108.205 128.588,108.872 130.5,106.5 Z"/></g>
<g><path style="opacity:1" fill="#856e5f" d="M 104.5,128.5 C 106.199,128.527 107.533,129.194 108.5,130.5C 109.91,134.704 110.577,139.037 110.5,143.5C 110.5,143.833 110.5,144.167 110.5,144.5C 106.713,142.548 103.713,139.714 101.5,136C 97.1966,134.95 92.8632,134.116 88.5,133.5C 88.9175,132.778 89.5842,132.278 90.5,132C 94.894,131.697 99.2273,131.03 103.5,130C 99.7741,128.957 100.107,128.457 104.5,128.5 Z"/></g>
<g><path style="opacity:1" fill="#412417" d="M 118.5,135.5 C 118.5,138.833 118.5,142.167 118.5,145.5C 115.467,145.868 112.8,145.202 110.5,143.5C 110.577,139.037 109.91,134.704 108.5,130.5C 109.574,128.784 111.241,127.784 113.5,127.5C 114.428,129.335 115.594,129.668 117,128.5C 117.186,131.036 117.686,133.369 118.5,135.5 Z"/></g>
<g><path style="opacity:1" fill="#fdfcf7" d="M 88.5,133.5 C 92.8632,134.116 97.1966,134.95 101.5,136C 103.713,139.714 106.713,142.548 110.5,144.5C 110.5,148.5 110.5,152.5 110.5,156.5C 109.759,164.8 109.259,173.133 109,181.5C 107.061,183.194 105.228,185.027 103.5,187C 102.207,187.49 100.873,187.657 99.5,187.5C 97.3718,186.043 95.0384,185.043 92.5,184.5C 92.5596,175.487 92.8929,166.487 93.5,157.5C 93.6646,154.482 93.498,151.482 93,148.5C 92.7216,147.584 92.2216,146.918 91.5,146.5C 90.0901,142.603 89.0901,138.603 88.5,134.5C 88.5,134.167 88.5,133.833 88.5,133.5 Z"/></g>
<g><path style="opacity:1" fill="#aa9b91" d="M 128.5,129.5 C 129.481,132.807 130.481,136.14 131.5,139.5C 131.455,142.189 130.121,143.523 127.5,143.5C 127.5,144.5 127.5,145.5 127.5,146.5C 123.024,146.8 121.69,148.967 123.5,153C 122.244,153.417 121.577,154.25 121.5,155.5C 120.542,155.047 119.708,154.381 119,153.5C 118.503,150.854 118.336,148.187 118.5,145.5C 118.5,142.167 118.5,138.833 118.5,135.5C 118.338,133.473 118.505,131.473 119,129.5C 121.903,134.196 125.07,134.196 128.5,129.5 Z"/></g>
<g><path style="opacity:1" fill="#2e221b" d="M 110.5,143.5 C 112.8,145.202 115.467,145.868 118.5,145.5C 118.336,148.187 118.503,150.854 119,153.5C 119.708,154.381 120.542,155.047 121.5,155.5C 120.432,156.434 119.099,156.768 117.5,156.5C 117.737,157.791 117.404,158.791 116.5,159.5C 116.167,159.5 115.833,159.5 115.5,159.5C 115.5,158.833 115.167,158.5 114.5,158.5C 114.163,155.664 112.829,154.998 110.5,156.5C 110.5,152.5 110.5,148.5 110.5,144.5C 110.5,144.167 110.5,143.833 110.5,143.5 Z"/></g>
<g><path style="opacity:1" fill="#2d221f" d="M 91.5,146.5 C 92.2216,146.918 92.7216,147.584 93,148.5C 93.498,151.482 93.6646,154.482 93.5,157.5C 91.9582,158.301 90.2915,158.634 88.5,158.5C 87.153,154.788 85.8196,151.122 84.5,147.5C 85.4584,147.047 86.2917,146.381 87,145.5C 88.5639,145.912 90.0639,146.245 91.5,146.5 Z"/></g>
<g><path style="opacity:1" fill="#0a0909" d="M 137.5,144.5 C 139.165,148.495 140.832,152.495 142.5,156.5C 140.33,155.232 138.163,155.232 136,156.5C 135.685,153.628 135.185,150.795 134.5,148C 135.371,146.636 136.371,145.47 137.5,144.5 Z"/></g>
<g><path style="opacity:1" fill="#fae4b2" d="M 114.5,158.5 C 115.167,158.5 115.5,158.833 115.5,159.5C 115.638,164.414 114.972,169.081 113.5,173.5C 113.751,168.493 114.084,163.493 114.5,158.5 Z"/></g>
<g><path style="opacity:1" fill="#c3c0c0" d="M 130.5,126.5 C 131.709,129.614 133.376,132.281 135.5,134.5C 134.858,137.957 135.524,141.29 137.5,144.5C 136.371,145.47 135.371,146.636 134.5,148C 135.185,150.795 135.685,153.628 136,156.5C 138.163,155.232 140.33,155.232 142.5,156.5C 146.926,161.69 148.759,167.69 148,174.5C 147.439,175.022 146.772,175.355 146,175.5C 143.031,174.706 140.031,174.039 137,173.5C 134.399,175.153 131.565,175.653 128.5,175C 125.694,172.194 122.86,169.36 120,166.5C 118.274,164.409 117.107,162.076 116.5,159.5C 117.404,158.791 117.737,157.791 117.5,156.5C 119.099,156.768 120.432,156.434 121.5,155.5C 121.577,154.25 122.244,153.417 123.5,153C 121.69,148.967 123.024,146.8 127.5,146.5C 127.5,145.5 127.5,144.5 127.5,143.5C 130.121,143.523 131.455,142.189 131.5,139.5C 130.481,136.14 129.481,132.807 128.5,129.5C 128.932,128.29 129.599,127.29 130.5,126.5 Z"/></g>
<g><path style="opacity:1" fill="#f3d58c" d="M 93.5,157.5 C 92.8929,166.487 92.5596,175.487 92.5,184.5C 92.5,185.167 92.1667,185.5 91.5,185.5C 91.6664,177.16 91.4997,168.827 91,160.5C 90.6667,166.5 90.3333,172.5 90,178.5C 89.4339,181.229 87.9339,183.229 85.5,184.5C 85.6854,182.804 86.5187,181.471 88,180.5C 88.4997,173.174 88.6663,165.841 88.5,158.5C 90.2915,158.634 91.9582,158.301 93.5,157.5 Z"/></g>
<g><path style="opacity:1" fill="#f0ce6f" d="M 91.5,185.5 C 90.0937,185.973 89.427,186.973 89.5,188.5C 89.5,188.833 89.5,189.167 89.5,189.5C 87.2625,190.537 84.9291,190.703 82.5,190C 84.16,188.512 85.16,186.679 85.5,184.5C 87.9339,183.229 89.4339,181.229 90,178.5C 90.3333,172.5 90.6667,166.5 91,160.5C 91.4997,168.827 91.6664,177.16 91.5,185.5 Z"/></g>
<g><path style="opacity:1" fill="#f3d58e" d="M 114.5,158.5 C 114.084,163.493 113.751,168.493 113.5,173.5C 113.5,176.167 113.5,178.833 113.5,181.5C 112.246,183.357 112.246,185.357 113.5,187.5C 111.244,188.421 110.244,190.088 110.5,192.5C 109.5,192.5 108.5,192.5 107.5,192.5C 107.719,191.325 107.386,190.325 106.5,189.5C 105.667,190.5 104.833,191.5 104,192.5C 103.369,191.128 102.702,189.795 102,188.5C 100.503,189.477 99.003,190.477 97.5,191.5C 96.8333,191.167 96.1667,190.833 95.5,190.5C 96.6243,189.141 97.9577,188.141 99.5,187.5C 100.873,187.657 102.207,187.49 103.5,187C 105.228,185.027 107.061,183.194 109,181.5C 109.259,173.133 109.759,164.8 110.5,156.5C 112.829,154.998 114.163,155.664 114.5,158.5 Z"/></g>
<g><path style="opacity:1" fill="#edd898" d="M 85.5,184.5 C 85.16,186.679 84.16,188.512 82.5,190C 84.9291,190.703 87.2625,190.537 89.5,189.5C 86.8796,190.984 84.0463,192.317 81,193.5C 79.0838,192.072 76.9171,191.072 74.5,190.5C 77.678,187.742 81.3447,185.742 85.5,184.5 Z"/></g>
<g><path style="opacity:1" fill="#f2e6bc" d="M 113.5,181.5 C 113.5,182.833 113.5,184.167 113.5,185.5C 115.5,185.167 117.5,184.833 119.5,184.5C 119.36,186.124 120.027,187.29 121.5,188C 119.255,190.561 116.589,191.228 113.5,190C 112.572,191.976 111.405,193.809 110,195.5C 107.638,193.231 104.971,192.898 102,194.5C 98.5773,191.538 95.5773,191.871 93,195.5C 92.2438,193.191 92.7438,191.191 94.5,189.5C 93.218,187.296 91.5514,186.962 89.5,188.5C 89.427,186.973 90.0937,185.973 91.5,185.5C 92.1667,185.5 92.5,185.167 92.5,184.5C 95.0384,185.043 97.3718,186.043 99.5,187.5C 97.9577,188.141 96.6243,189.141 95.5,190.5C 96.1667,190.833 96.8333,191.167 97.5,191.5C 99.003,190.477 100.503,189.477 102,188.5C 102.702,189.795 103.369,191.128 104,192.5C 104.833,191.5 105.667,190.5 106.5,189.5C 107.386,190.325 107.719,191.325 107.5,192.5C 108.5,192.5 109.5,192.5 110.5,192.5C 110.244,190.088 111.244,188.421 113.5,187.5C 112.246,185.357 112.246,183.357 113.5,181.5 Z"/></g>
</svg>
