<?xml version="1.0" encoding="UTF-8"?>
<!DOCTYPE svg PUBLIC "-//W3C//DTD SVG 1.1//EN" "http://www.w3.org/Graphics/SVG/1.1/DTD/svg11.dtd">
<svg xmlns="http://www.w3.org/2000/svg" version="1.1" width="512px" height="512px" style="shape-rendering:geometricPrecision; text-rendering:geometricPrecision; image-rendering:optimizeQuality; fill-rule:evenodd; clip-rule:evenodd" xmlns:xlink="http://www.w3.org/1999/xlink">
<g><path style="opacity:1" fill="#8c8c8c" d="M 128.5,-0.5 C 137.5,-0.5 146.5,-0.5 155.5,-0.5C 180.878,5.36633 199.378,20.033 211,43.5C 217.264,56.9583 221.931,70.9583 225,85.5C 227.944,106.162 230.777,126.829 233.5,147.5C 228.071,150.413 222.737,153.58 217.5,157C 191.533,154.998 169.867,163.498 152.5,182.5C 133.861,184.561 115.195,184.894 96.5,183.5C 95.5084,183.672 94.8417,183.338 94.5,182.5C 95.5,182.5 96.5,182.5 97.5,182.5C 101.12,154.288 99.9534,126.288 94,98.5C 85.7195,73.2978 85.3862,47.9645 93,22.5C 94.5,19.5 96,16.5 97.5,13.5C 97.0431,12.7025 96.3764,12.3691 95.5,12.5C 105.505,5.60995 116.505,1.27661 128.5,-0.5 Z"/></g>
<g><path style="opacity:1" fill="#808080" d="M 95.5,12.5 C 96.3764,12.3691 97.0431,12.7025 97.5,13.5C 96,16.5 94.5,19.5 93,22.5C 85.3862,47.9645 85.7195,73.2978 94,98.5C 99.9534,126.288 101.12,154.288 97.5,182.5C 96.5,182.5 95.5,182.5 94.5,182.5C 89.1494,181.963 83.8161,181.296 78.5,180.5C 80.4217,156.734 78.0883,133.401 71.5,110.5C 72.8484,109.814 74.015,108.814 75,107.5C 75.8256,104.207 76.3256,100.874 76.5,97.5C 78.7845,82.9878 76.4511,69.3211 69.5,56.5C 71.5093,37.8029 80.176,23.1362 95.5,12.5 Z"/></g>
<g><path style="opacity:1" fill="#1e1f1f" d="M 127.5,40.5 C 138.496,40.331 143.996,45.6644 144,56.5C 141.012,64.7297 135.179,67.8963 126.5,66C 119.547,62.1579 117.047,56.3246 119,48.5C 121.074,44.9231 123.907,42.2565 127.5,40.5 Z"/></g>
<g><path style="opacity:0.99" fill="#fed631" d="M 69.5,56.5 C 76.4511,69.3211 78.7845,82.9878 76.5,97.5C 58.5136,96.4158 40.5136,96.4158 22.5,97.5C 31.0271,75.639 46.6938,61.9723 69.5,56.5 Z"/></g>
<g><path style="opacity:0.974" fill="#e8c42d" d="M 76.5,97.5 C 76.3256,100.874 75.8256,104.207 75,107.5C 74.015,108.814 72.8484,109.814 71.5,110.5C 64.8813,109.615 58.2146,108.948 51.5,108.5C 42.5186,109.666 33.5186,110.166 24.5,110C 23.5838,109.626 22.7504,109.126 22,108.5C 21.4213,104.797 21.588,101.131 22.5,97.5C 40.5136,96.4158 58.5136,96.4158 76.5,97.5 Z"/></g>
<g><path style="opacity:0.997" fill="#dcdcdc" d="M 233.5,147.5 C 234.641,152.42 236.474,157.086 239,161.5C 245.833,166.333 252.667,171.167 259.5,176C 290.515,206.825 317.515,240.658 340.5,277.5C 339.761,277.369 339.094,277.536 338.5,278C 322.314,297.272 301.981,310.272 277.5,317C 246.111,325.159 214.445,326.659 182.5,321.5C 182.167,321.5 181.833,321.5 181.5,321.5C 152.94,294.331 138.44,260.998 138,221.5C 138.79,216.541 139.957,211.708 141.5,207C 139.866,206.506 138.199,206.34 136.5,206.5C 138.218,205.776 140.052,205.109 142,204.5C 145.442,196.635 148.942,189.301 152.5,182.5C 169.867,163.498 191.533,154.998 217.5,157C 222.737,153.58 228.071,150.413 233.5,147.5 Z"/></g>
<g><path style="opacity:1" fill="#dddddd" d="M 78.5,180.5 C 83.8161,181.296 89.1494,181.963 94.5,182.5C 94.8417,183.338 95.5084,183.672 96.5,183.5C 95.8333,190.5 95.1667,197.5 94.5,204.5C 94.1667,204.5 93.8333,204.5 93.5,204.5C 88.7594,204.085 84.0928,203.251 79.5,202C 78.1031,200.69 77.1031,199.19 76.5,197.5C 77.4037,191.905 78.0704,186.239 78.5,180.5 Z"/></g>
<g><path style="opacity:1" fill="#f2f2f2" d="M 152.5,182.5 C 148.942,189.301 145.442,196.635 142,204.5C 140.052,205.109 138.218,205.776 136.5,206.5C 125.162,206.667 113.828,206.5 102.5,206C 99.6353,205.817 96.9686,205.317 94.5,204.5C 95.1667,197.5 95.8333,190.5 96.5,183.5C 115.195,184.894 133.861,184.561 152.5,182.5 Z"/></g>
<g><path style="opacity:0.989" fill="#b4b4b4" d="M 76.5,197.5 C 77.1031,199.19 78.1031,200.69 79.5,202C 84.0928,203.251 88.7594,204.085 93.5,204.5C 88.5119,250.073 93.6785,294.406 109,337.5C 133.028,384.509 170.861,414.009 222.5,426C 249.357,431.916 275.69,430.25 301.5,421C 303.544,420.502 304.878,419.335 305.5,417.5C 308.632,419.046 311.298,421.046 313.5,423.5C 299.359,433.069 284.026,440.235 267.5,445C 261.246,446.487 254.912,447.32 248.5,447.5C 236.743,448.971 225.076,448.638 213.5,446.5C 201.907,444.902 190.574,442.235 179.5,438.5C 138.08,422.915 107.58,395.249 88,355.5C 75.3949,320.599 70.0616,284.599 72,247.5C 73.3175,230.811 74.8175,214.144 76.5,197.5 Z"/></g>
<g><path style="opacity:1" fill="#c6c6c6" d="M 93.5,204.5 C 93.8333,204.5 94.1667,204.5 94.5,204.5C 96.9686,205.317 99.6353,205.817 102.5,206C 113.828,206.5 125.162,206.667 136.5,206.5C 138.199,206.34 139.866,206.506 141.5,207C 139.957,211.708 138.79,216.541 138,221.5C 138.44,260.998 152.94,294.331 181.5,321.5C 173.467,319.885 165.467,318.385 157.5,317C 172.638,339.806 191.972,358.14 215.5,372C 230.639,373.128 245.639,372.295 260.5,369.5C 261.833,369.167 263.167,368.833 264.5,368.5C 264.47,369.497 264.97,370.164 266,370.5C 287.644,377.774 309.811,382.44 332.5,384.5C 332.5,384.833 332.5,385.167 332.5,385.5C 321.993,392.754 310.66,398.42 298.5,402.5C 297.183,402.821 295.849,403.154 294.5,403.5C 285.065,400.976 275.731,398.476 266.5,396C 279.233,403.699 292.233,410.865 305.5,417.5C 304.878,419.335 303.544,420.502 301.5,421C 275.69,430.25 249.357,431.916 222.5,426C 170.861,414.009 133.028,384.509 109,337.5C 93.6785,294.406 88.5119,250.073 93.5,204.5 Z"/></g>
<g><path style="opacity:1" fill="#606060" d="M 340.5,277.5 C 345.222,284.23 349.555,291.23 353.5,298.5C 340.652,327.18 319.652,347.68 290.5,360C 281.982,363.339 273.315,366.173 264.5,368.5C 263.167,368.833 261.833,369.167 260.5,369.5C 243.59,361.877 226.923,353.377 210.5,344C 200.113,337.662 190.78,330.162 182.5,321.5C 214.445,326.659 246.111,325.159 277.5,317C 301.981,310.272 322.314,297.272 338.5,278C 339.094,277.536 339.761,277.369 340.5,277.5 Z"/></g>
<g><path style="opacity:0.996" fill="#dcdcdc" d="M 353.5,298.5 C 358.863,306.549 363.863,314.882 368.5,323.5C 364.984,348.869 352.984,369.202 332.5,384.5C 309.811,382.44 287.644,377.774 266,370.5C 264.97,370.164 264.47,369.497 264.5,368.5C 273.315,366.173 281.982,363.339 290.5,360C 319.652,347.68 340.652,327.18 353.5,298.5 Z"/></g>
<g><path style="opacity:1" fill="#575757" d="M 181.5,321.5 C 181.833,321.5 182.167,321.5 182.5,321.5C 190.78,330.162 200.113,337.662 210.5,344C 226.923,353.377 243.59,361.877 260.5,369.5C 245.639,372.295 230.639,373.128 215.5,372C 191.972,358.14 172.638,339.806 157.5,317C 165.467,318.385 173.467,319.885 181.5,321.5 Z"/></g>
<g><path style="opacity:1" fill="#616161" d="M 368.5,323.5 C 372.768,331.036 376.768,338.703 380.5,346.5C 385.556,358 390.223,369.667 394.5,381.5C 386.989,383.702 379.322,385.202 371.5,386C 358.491,386.537 345.491,386.37 332.5,385.5C 332.5,385.167 332.5,384.833 332.5,384.5C 352.984,369.202 364.984,348.869 368.5,323.5 Z"/></g>
<g><path style="opacity:0.989" fill="#8b8b8b" d="M 380.5,346.5 C 406.433,369.599 431.266,393.932 455,419.5C 464.765,430.596 473.765,442.263 482,454.5C 485.594,459.688 488.094,465.354 489.5,471.5C 479.644,471.857 469.977,470.69 460.5,468C 426.709,457.769 394.042,444.769 362.5,429C 350.5,423 338.5,417 326.5,411C 325.262,410.31 325.262,409.81 326.5,409.5C 343.812,411.817 361.145,411.984 378.5,410C 384.408,409.316 389.908,407.483 395,404.5C 396.336,401.991 397.17,399.324 397.5,396.5C 396.82,391.416 395.82,386.416 394.5,381.5C 390.223,369.667 385.556,358 380.5,346.5 Z"/></g>
<g><path style="opacity:1" fill="#575757" d="M 394.5,381.5 C 395.82,386.416 396.82,391.416 397.5,396.5C 397.17,399.324 396.336,401.991 395,404.5C 389.908,407.483 384.408,409.316 378.5,410C 361.145,411.984 343.812,411.817 326.5,409.5C 318.98,407.966 311.313,406.466 303.5,405C 301.347,404.901 299.681,404.067 298.5,402.5C 310.66,398.42 321.993,392.754 332.5,385.5C 345.491,386.37 358.491,386.537 371.5,386C 379.322,385.202 386.989,383.702 394.5,381.5 Z"/></g>
<g><path style="opacity:0.972" fill="#7f7f7f" d="M 298.5,402.5 C 299.681,404.067 301.347,404.901 303.5,405C 311.313,406.466 318.98,407.966 326.5,409.5C 325.262,409.81 325.262,410.31 326.5,411C 338.5,417 350.5,423 362.5,429C 394.042,444.769 426.709,457.769 460.5,468C 469.977,470.69 479.644,471.857 489.5,471.5C 490.348,477.308 488.015,481.142 482.5,483C 470.672,484.565 459.005,483.565 447.5,480C 430.133,474.989 413.133,468.989 396.5,462C 368.572,449.702 340.905,436.869 313.5,423.5C 311.298,421.046 308.632,419.046 305.5,417.5C 292.233,410.865 279.233,403.699 266.5,396C 275.731,398.476 285.065,400.976 294.5,403.5C 295.849,403.154 297.183,402.821 298.5,402.5 Z"/></g>
<g><path style="opacity:1" fill="#e1ab21" d="M 179.5,438.5 C 190.574,442.235 201.907,444.902 213.5,446.5C 213.5,451.833 213.5,457.167 213.5,462.5C 202.083,460.584 190.75,458.25 179.5,455.5C 179.5,449.833 179.5,444.167 179.5,438.5 Z"/></g>
<g><path style="opacity:0.991" fill="#e8c32d" d="M 213.5,446.5 C 225.076,448.638 236.743,448.971 248.5,447.5C 248.5,452.833 248.5,458.167 248.5,463.5C 236.796,463.77 225.129,463.436 213.5,462.5C 213.5,457.167 213.5,451.833 213.5,446.5 Z"/></g>
<g><path style="opacity:0.983" fill="#f7bc23" d="M 179.5,455.5 C 190.75,458.25 202.083,460.584 213.5,462.5C 213.5,468.5 213.5,474.5 213.5,480.5C 201.475,483.513 190.475,488.679 180.5,496C 176.041,499.087 173.875,503.253 174,508.5C 174.698,509.691 175.531,510.691 176.5,511.5C 164.833,511.5 153.167,511.5 141.5,511.5C 138.42,505.417 139.753,500.251 145.5,496C 155.789,488.772 166.956,483.272 179,479.5C 179.5,471.507 179.666,463.507 179.5,455.5 Z"/></g>
<g><path style="opacity:0.994" fill="#fed630" d="M 213.5,462.5 C 225.129,463.436 236.796,463.77 248.5,463.5C 248.334,468.844 248.501,474.177 249,479.5C 257.208,483.711 264.208,489.378 270,496.5C 273.602,501.379 274.102,506.379 271.5,511.5C 239.833,511.5 208.167,511.5 176.5,511.5C 175.531,510.691 174.698,509.691 174,508.5C 173.875,503.253 176.041,499.087 180.5,496C 190.475,488.679 201.475,483.513 213.5,480.5C 213.5,474.5 213.5,468.5 213.5,462.5 Z"/></g>
</svg>
