<?xml version="1.0" encoding="iso-8859-1"?>
<!-- Uploaded to: SVG Repo, www.svgrepo.com, Generator: SVG Repo Mixer Tools -->
<svg height="800px" width="800px" version="1.1" id="Layer_1" xmlns="http://www.w3.org/2000/svg" xmlns:xlink="http://www.w3.org/1999/xlink" 
	 viewBox="0 0 512.001 512.001" xml:space="preserve">
<path style="fill:#ED9900;" d="M213.718,322.15l-7.836,179.21c0,1.424-1.153,2.575-2.575,2.575h-23.245
	c-1.423,0-2.575-1.152-2.575-2.575l-7.838-179.21H213.718z"/>
<path style="fill:#333E48;" d="M177.009,490.462l0.476,10.897c0,1.424,1.153,2.575,2.575,2.575h23.245
	c1.423,0,2.575-1.152,2.575-2.575l0.476-10.897H177.009z"/>
<path style="fill:#ED9900;" d="M353.449,322.15l-7.837,179.21c0,1.424-1.152,2.575-2.574,2.575h-23.246
	c-1.423,0-2.575-1.152-2.575-2.575l-7.837-179.21H353.449z"/>
<path style="fill:#333E48;" d="M316.74,490.462l0.476,10.897c0,1.424,1.153,2.575,2.575,2.575h23.246
	c1.423,0,2.574-1.152,2.574-2.575l0.477-10.897H316.74z"/>
<g>
	<path style="fill:#FFB648;" d="M389.421,44.007c-13.779,0-26.244-5.621-35.228-14.697h-0.005
		c-4.557-5.449-11.403-8.918-19.061-8.918c-0.173,0-0.342,0.023-0.514,0.026v-0.026h-21.619c-13.2,0-23.966,10.299-24.771,23.296
		l-0.029,0.003L271.095,257.89h-80.461c-35.489,0-64.259,28.77-64.259,64.258c0,35.489,28.769,64.258,64.259,64.258h105.083
		c35.488,0,64.259-28.769,64.259-64.258V257.89L348.785,81.395h40.637c10.323,0,18.693-8.369,18.693-18.695
		C408.114,52.376,399.743,44.007,389.421,44.007z"/>
	<path style="fill:#FFB648;" d="M170.445,322.15l-7.837,179.21c0,1.424-1.153,2.575-2.575,2.575h-23.245
		c-1.423,0-2.575-1.152-2.575-2.575l-7.838-179.21H170.445z"/>
</g>
<path style="fill:#333E48;" d="M133.735,490.462l0.476,10.897c0,1.424,1.153,2.575,2.575,2.575h23.245
	c1.423,0,2.575-1.152,2.575-2.575l0.476-10.897H133.735z"/>
<path style="fill:#FFB648;" d="M310.177,322.15l-7.836,179.21c0,1.424-1.153,2.575-2.575,2.575H276.52
	c-1.424,0-2.576-1.152-2.576-2.575l-7.835-179.21H310.177z"/>
<path style="fill:#333E48;" d="M273.468,490.462l0.475,10.897c0,1.424,1.153,2.575,2.576,2.575h23.245
	c1.423,0,2.575-1.152,2.575-2.575l0.477-10.897H273.468z"/>
<g>
	<path style="fill:#65513C;" d="M224.542,257.892h-33.908c-0.272,0-0.541,0.017-0.813,0.02c-4.588,4.502-7.441,10.766-7.441,17.704
		c0,13.703,11.11,24.813,24.815,24.813c13.705,0,24.813-11.11,24.813-24.813C232.007,268.668,229.144,262.396,224.542,257.892z"/>
	<path style="fill:#65513C;" d="M279.58,168.982c-0.471,0-0.928,0.048-1.393,0.07l-4.882,61.144
		c2.026,0.417,4.124,0.639,6.275,0.639c17.082,0,30.927-13.846,30.927-30.927C310.507,182.829,296.661,168.982,279.58,168.982z"/>
	<circle style="fill:#65513C;" cx="288.145" cy="306.544" r="30.926"/>
	<path style="fill:#65513C;" d="M351.331,121.536c-15.379,1.788-27.32,14.843-27.32,30.698c0,17.081,13.846,30.926,30.925,30.926
		c0.102,0,0.199-0.013,0.3-0.015L351.331,121.536z"/>
	<circle style="fill:#65513C;" cx="331.265" cy="248.777" r="16.867"/>
	<path style="fill:#65513C;" d="M338.803,300.429c0,11.694,9.478,21.173,21.173,21.173v-42.345
		C348.281,279.257,338.803,288.736,338.803,300.429z"/>
	<circle style="fill:#65513C;" cx="304.027" cy="114.856" r="14.065"/>
	<circle style="fill:#65513C;" cx="229.109" cy="340.685" r="14.055"/>
	<circle style="fill:#65513C;" cx="168.321" cy="312.565" r="14.065"/>
</g>
<path style="fill:#ED9900;" d="M391.967,44.2c-6.606,9.265-10.506,20.595-10.506,32.84c0,1.468,0.072,2.916,0.182,4.354h7.778
	c10.323,0,18.694-8.369,18.694-18.695C408.114,53.243,401.082,45.445,391.967,44.2z"/>
<path style="fill:#FFB648;" d="M283.624,41.288c-6.705-6.705-8.356-14.789-3.923-19.223c4.431-4.433,12.516-2.78,19.221,3.926
	c6.706,6.705,8.356,14.788,3.924,19.221C298.414,49.645,290.331,47.993,283.624,41.288z"/>
<ellipse transform="matrix(0.7071 -0.7071 0.7071 0.7071 61.5288 215.8168)" style="fill:#ED9900;" cx="291.278" cy="33.637" rx="5.549" ry="11.098"/>
<path style="fill:#1E252B;" d="M389.421,35.942c-11.086,0-21.489-4.307-29.325-12.133c-5.636-6.565-13.544-10.595-22.078-11.344
	v-4.4c0-4.454-3.611-8.065-8.065-8.065s-8.065,3.611-8.065,8.065v4.263h-3.317V8.065c0-4.454-3.611-8.065-8.065-8.065
	s-8.065,3.611-8.065,8.065v5.994c-1.255,0.425-2.485,0.919-3.682,1.497c-4.137-2.624-8.533-4.028-12.775-4.028
	c-4.612,0-8.869,1.717-11.987,4.836c-4.061,4.062-5.67,9.921-4.414,16.075c1.043,5.109,3.926,10.141,8.339,14.556
	c0.582,0.581,1.176,1.137,1.783,1.667l-16.058,201.166h-73.014c-19.649,0-37.483,7.886-50.531,20.648
	c-25.433,4.663-44.282,27.049-44.282,53.192v12.552c0,4.454,3.611,8.065,8.065,8.065c4.454,0,8.065-3.611,8.065-8.065v-12.552
	c0-10.212,4.1-19.604,10.807-26.494c-2.874,7.789-4.449,16.202-4.449,24.977c0,1.764,0.078,3.627,0.242,5.691l7.598,173.755
	c0.125,5.758,4.849,10.405,10.638,10.405h23.245c5.788,0,10.512-4.647,10.638-10.406l2.064-47.203l2.065,47.203
	c0.125,5.759,4.849,10.406,10.638,10.406h23.245c5.788,0,10.512-4.647,10.638-10.406l4.684-107.121h37.191l4.683,107.122
	c0.125,5.759,4.85,10.406,10.639,10.406h23.245c5.788,0,10.513-4.647,10.638-10.406l2.065-47.203l2.064,47.202
	c0.124,5.759,4.849,10.407,10.638,10.407h23.246c5.788,0,10.511-4.647,10.637-10.406l7.136-163.2
	c1.205-5.239,1.853-10.676,1.853-16.244v-64.258c0-0.17-0.005-0.34-0.016-0.511L357.378,89.461h32.044
	c14.755,0,26.758-12.004,26.758-26.76C416.179,47.946,404.175,35.942,389.421,35.942z M203.425,495.87h-12.731l-4.441-101.541
	c1.456,0.087,2.914,0.143,4.381,0.143h17.226L203.425,495.87z M343.157,495.87h-12.732l-4.719-107.906
	c8.737-3.973,16.485-9.611,22.889-16.48L343.157,495.87z M389.421,73.33h-40.637c-2.227,0-4.356,0.922-5.881,2.545
	c-1.525,1.625-2.31,3.807-2.168,6.029l11.176,176.243v64.002c0,27.11-19.328,50.344-45.956,55.245
	c-3.697,0.68-6.434,3.824-6.597,7.579l-4.85,110.896h-12.732l-4.801-109.815c-0.188-4.313-3.74-7.712-8.057-7.712h-78.284
	c-6.852,0-13.564-1.231-19.951-3.657c-2.419-0.918-5.135-0.622-7.298,0.802c-2.162,1.423-3.511,3.798-3.624,6.385l-4.985,113.999
	h-12.731l-7.385-168.878c-0.004-0.098-0.01-0.196-0.018-0.292c-0.135-1.69-0.201-3.179-0.201-4.55
	c0-30.986,25.209-56.193,56.194-56.193h80.461c4.206,0,7.705-3.231,8.039-7.423l17.002-213c0.252-3.149-1.351-6.065-3.958-7.594
	c-0.97-0.641-1.929-1.432-2.852-2.354c-2.107-2.107-3.542-4.43-3.939-6.373c-0.165-0.808-0.088-1.339,0.017-1.443
	c0.105-0.105,0.502-0.111,0.581-0.111c1.32,0,3.807,0.886,6.53,3.366c2.786,2.765,7.251,3.149,10.496,0.733
	c2.898-2.158,6.349-3.299,9.981-3.299h20.975c0.271,0.023,0.547,0.03,0.815,0.024c0.167-0.003,0.332-0.012,0.514-0.023
	c4.914,0.049,9.537,2.24,12.704,6.026c0.203,0.244,0.42,0.474,0.648,0.689c10.887,10.9,25.355,16.899,40.771,16.899
	c5.861,0,10.629,4.768,10.629,10.629C400.049,68.562,395.281,73.33,389.421,73.33z M329.952,38.38c-3.396,0-6.149,2.754-6.149,6.151
	s2.754,6.151,6.149,6.151c3.399,0,6.153-2.754,6.153-6.151C336.105,41.133,333.352,38.38,329.952,38.38z"/>
</svg>