<?xml version="1.0" encoding="utf-8"?><!-- Uploaded to: SVG Repo, www.svgrepo.com, Generator: SVG Repo Mixer Tools -->
<svg width="800px" height="800px" viewBox="0 0 128 128" xmlns="http://www.w3.org/2000/svg" xmlns:xlink="http://www.w3.org/1999/xlink" aria-hidden="true" role="img" class="iconify iconify--noto" preserveAspectRatio="xMidYMid meet"><path d="M40.01 95.48s2.44 10.04 2.06 11.45c-.38 1.41-7.32 2.53-11.36 4.6c-2.65 1.36-6.92 4.39-4.32 6.84c1.41 1.33 5.35-2.03 17.18-2.71c12.01-.69 14.13.29 13.51-2.25c-.61-2.53-3.8-2.82-6.48-3.94c-.89-.37-1.92-.96-2.35-1.6c-.41-.61.19-10.98.19-10.98l-8.43-1.41z" fill="#feba02"></path><path d="M62.16 102.52s.28 10.15.28 10.8c0 .95-2.32 2.09-5.77 2.86c-3.45.77-10.28 2.05-10.37 6.42c-.06 2.69 13.12-.95 20.65-.84s12.36 1.1 12.01-2.06c-.28-2.53-4.2-3.68-6.31-4.14c-2.11-.46-3.07-1.49-3.13-2.75c-.04-.82.14-10.07.14-10.07l-7.5-.22z" fill="#feba02"></path><linearGradient id="IconifyId17ecdb2904d178eab14760" gradientUnits="userSpaceOnUse" x1="46.854" y1="97.057" x2="65.857" y2="33.649"><stop offset=".136" stop-color="#79da88"></stop><stop offset=".304" stop-color="#57cd75"></stop><stop offset=".634" stop-color="#19b553"></stop><stop offset=".791" stop-color="#01ab46"></stop></linearGradient><path d="M41.89 8.01l9.06-.61s5.04 1.63 9.83 8.57c6.36 9.23 5.52 26.11 5.52 26.11l17.46 46.55l2.11 15.39s-15.62 2.46-30.92.47c-18.02-2.35-36.6-18.68-36.32-43.08c.28-24.4 19.62-47.96 19.62-47.96l3.64-5.44z" fill="url(#IconifyId17ecdb2904d178eab14760)"></path><path d="M21.15 16.93s-6.95 2.16-8.92 9.95S13.55 41.92 15 42.41c.56.19 2.3-3.33 2.3-3.33s2.44 2.82 3.66 3.47c1.22.66 1.83 1.15 2.91 1.08c2.11-.14 5.21-6.29 5.12-10.42l1.08-20.23l-8.92 3.95z" fill="#ffd51d"></path><path d="M29.85 28.09s8.47-1.41 11.85-4.32s7.32-5.54 8.63-10.79c.8-3.2.84-5.44.84-5.44S39.36.69 28.66 6.32S20.49 19.6 20.49 19.6l9.36 8.49z" fill="#ff2b23"></path><path d="M29.5 29.22s-6.85 4.04-7.6 4.6s-3.2 1.78-4.32 2.72c-1.78 1.5-3.38 4.88-2.72 5.73c.66.84 1.6-1.78 4.22-3.38s7.13-4.13 8.35-4.79c1.22-.66 1.6-1.03 1.6-1.03l.47-3.85z" fill="#ff600d"></path><path d="M31.83 27.46c.47-.99.68-3.26-2.51-7.25c-3.75-4.69-9.01-4.88-9.01-4.88l-.56 1.88l5.82 5.82L28.8 30s2.06-.5 3.03-2.54z" fill="#a02a1b"></path><path d="M15.89 20.4s4.32.28 7.32 2.91c1.78 1.56 4.47 4.9 5.13 6.41s2.91-2.67 1.13-5.49s-3.91-5.65-7.85-7.02c-2.84-.98-5.54 1.41-5.73 3.19z" fill="#ec80af"></path><path d="M49.49 25.94s-3.47-8.82-10.61-8.45c-7.2.38-8.31 5.73-7.98 8.92c.38 3.69 2.82 5.73 8.45 5.54c5.64-.2 10.14-6.01 10.14-6.01z" fill="#fbd3b3"></path><path d="M44.24 24.81c0 2.28-2.48 4.32-4.74 4.32c-2.25 0-4.08-1.85-4.08-4.13s1.31-4.79 4.5-4.97c3.37-.21 4.32 2.5 4.32 4.78z" fill="#312f2a"></path><path d="M86.38 80.75s2.25 5.07 10.89 10.7c7.33 4.78 10.89 7.7 15.96 9.48c5.07 1.78 5.26 2.25 5.07 3.19c-.19.94-8.07 7.04-16.71 6.29c-8.63-.75-12.76-4.13-15.39-5.91s-7.6-14.36-7.6-14.36l7.78-9.39z" fill="#01ab46"></path><path d="M66.34 41.84s-11.97 3.52-17.22 11.5c-4.4 6.68-4.01 18.04.47 26.47c5.54 10.42 16.99 17.83 23.09 20.65c6.1 2.82 14.45 4.22 18.11 3.85s-3.28-25.62-9.95-39.14c-6.5-13.19-14.5-23.33-14.5-23.33z" fill="#b7d019"></path></svg>