<?xml version="1.0" encoding="UTF-8"?>
<svg version="1.1" xmlns="http://www.w3.org/2000/svg" width="420" height="594">
<path d="M0 0 C138.6 0 277.2 0 420 0 C420 196.02 420 392.04 420 594 C281.4 594 142.8 594 0 594 C0 397.98 0 201.96 0 0 Z " fill="#F289B8" transform="translate(0,0)"/>
<path d="M0 0 C14.05664073 -0.50202288 24.24287771 4.00183795 34.609375 13.15234375 C46.69781926 25.44920947 50.94562415 41.79602326 50.9921875 58.52099609 C50.55361692 85.44283388 36.64022605 111.23906909 21.74609375 132.9609375 C2.9574172 161.02373228 -13.43134217 191.56513584 -7.31347656 226.39794922 C-5.46696074 235.68811584 -2.50412622 243.11684183 2.609375 251.15234375 C3.125 251.97734375 3.640625 252.80234375 4.171875 253.65234375 C4.625625 254.37421875 5.079375 255.09609375 5.546875 255.83984375 C7.609375 259.15234375 7.609375 259.15234375 7.609375 261.15234375 C8.20105469 261.40628906 8.79273437 261.66023438 9.40234375 261.921875 C11.8524723 263.28787587 13.1453332 264.68170586 14.921875 266.83984375 C15.53804688 267.55914062 16.15421875 268.2784375 16.7890625 269.01953125 C17.87791326 270.29530918 18.96653496 271.57128273 20.0546875 272.84765625 C33.37624632 287.28515717 51.96903017 295.35280295 70.61328125 300.109375 C80.26910432 302.60791066 80.26910432 302.60791066 82.484375 306.15234375 C83.609375 309.15234375 83.609375 309.15234375 83.609375 311.15234375 C84.269375 311.15234375 84.929375 311.15234375 85.609375 311.15234375 C85.691875 311.77109375 85.774375 312.38984375 85.859375 313.02734375 C86.40884729 315.27621544 86.40884729 315.27621544 88.359375 316.27734375 C89.101875 316.56609375 89.844375 316.85484375 90.609375 317.15234375 C92.27638159 317.81815999 93.94308912 318.4847259 95.609375 319.15234375 C95.67889118 327.94931983 95.73219435 336.74620133 95.76481152 345.54339218 C95.78046629 349.62831068 95.80170091 353.71304123 95.83569336 357.79785156 C95.86829386 361.7400726 95.88622943 365.68211288 95.89400673 369.62445831 C95.89954903 371.12836808 95.91037185 372.63226797 95.92656517 374.13610077 C95.94834934 376.24296941 95.95134162 378.34909151 95.94995117 380.45605469 C95.95994392 382.25475006 95.95994392 382.25475006 95.97013855 384.08978271 C95.57589348 387.43657199 94.77670228 388.65996517 92.609375 391.15234375 C92.40807053 394.03589424 93.00572585 396.27340163 93.609375 399.15234375 C94.269375 399.81234375 94.929375 400.47234375 95.609375 401.15234375 C97.06480504 406.80953705 97.95243683 412.62620751 95.609375 418.15234375 C90.87312773 423.11374819 84.26066987 425.89690074 78.17382812 428.86181641 C74.68908103 430.6154696 71.47175535 432.67182005 68.234375 434.83984375 C64.86678778 437.04142365 61.5006496 439.23098986 58.0625 441.3203125 C44.653966 449.53662121 32.30301754 458.87333265 28.1171875 474.7265625 C26.32928294 483.26724507 28.84493626 490.05648744 31.609375 498.15234375 C32.269375 495.18234375 32.929375 492.21234375 33.609375 489.15234375 C34.269375 489.15234375 34.929375 489.15234375 35.609375 489.15234375 C35.88652344 489.85101562 36.16367188 490.5496875 36.44921875 491.26953125 C36.81144531 492.17960937 37.17367187 493.0896875 37.546875 494.02734375 C38.08634766 495.38472656 38.08634766 495.38472656 38.63671875 496.76953125 C39.55838762 499.11372042 39.55838762 499.11372042 40.609375 501.15234375 C42.34456541 497.68196292 42.46607781 493.71724512 43.01171875 489.90234375 C43.609375 487.15234375 43.609375 487.15234375 45.609375 485.15234375 C45.85171875 485.6834375 46.0940625 486.21453125 46.34375 486.76171875 C48.30350059 490.89226999 50.07566472 494.12344922 53.609375 497.15234375 C53.56296875 496.50910156 53.5165625 495.86585938 53.46875 495.203125 C53.0940458 485.82213759 55.65499203 477.80536287 59.234375 469.21484375 C61.16266856 464.52899048 61.11656157 459.53253959 61.30078125 454.51953125 C63.37596163 449.17981339 67.72310666 447.75419324 72.609375 445.15234375 C74.45214282 444.02438506 76.28554616 442.88098798 78.109375 441.72265625 C79.46869141 440.871875 79.46869141 440.871875 80.85546875 440.00390625 C82.72438887 438.83218612 84.59152013 437.65760882 86.45703125 436.48046875 C87.35292969 435.92101562 88.24882812 435.3615625 89.171875 434.78515625 C89.97753906 434.27871582 90.78320312 433.77227539 91.61328125 433.25048828 C93.609375 432.15234375 93.609375 432.15234375 95.609375 432.15234375 C95.609375 463.50234375 95.609375 494.85234375 95.609375 527.15234375 C58.46651786 537.15234375 58.46651786 537.15234375 52.609375 537.15234375 C55.25741254 540.56515747 58.18211332 540.98429924 62.296875 541.83984375 C63.47636719 542.09121094 64.65585938 542.34257813 65.87109375 542.6015625 C66.77472656 542.78332031 67.67835938 542.96507812 68.609375 543.15234375 C68.609375 543.81234375 68.609375 544.47234375 68.609375 545.15234375 C66.78125 546.7734375 66.78125 546.7734375 64.359375 548.58984375 C63.57046875 549.18667969 62.7815625 549.78351562 61.96875 550.3984375 C61.19015625 550.97722656 60.4115625 551.55601562 59.609375 552.15234375 C58.47242188 553.00505859 58.47242188 553.00505859 57.3125 553.875 C56.75046875 554.29652344 56.1884375 554.71804688 55.609375 555.15234375 C63.62639446 555.56701717 70.82867649 554.01174254 78.609375 552.15234375 C78.49427839 553.56984938 78.36683842 554.98635544 78.234375 556.40234375 C78.16476563 557.19125 78.09515625 557.98015625 78.0234375 558.79296875 C77.609375 561.15234375 77.609375 561.15234375 75.609375 565.15234375 C18.189375 565.15234375 -39.230625 565.15234375 -98.390625 565.15234375 C-98.390625 404.77234375 -98.390625 244.39234375 -98.390625 79.15234375 C-97.730625 80.47234375 -97.070625 81.79234375 -96.390625 83.15234375 C-93.34005115 87.39273086 -90.61857737 90.768474 -85.390625 92.15234375 C-85.555625 91.47171875 -85.720625 90.79109375 -85.890625 90.08984375 C-87.18676915 82.4749969 -85.89273302 76.93218724 -82.390625 70.15234375 C-80.10453561 67.10852608 -77.53121362 64.4517593 -74.828125 61.77734375 C-73.49197344 60.41685194 -72.15728571 59.05492062 -70.82421875 57.69140625 C-70.23697021 57.10568848 -69.64972168 56.5199707 -69.04467773 55.91650391 C-67.31809232 54.15843487 -67.31809232 54.15843487 -65.86157227 51.96972656 C-64.390625 50.15234375 -64.390625 50.15234375 -61.421875 49.53515625 C-60.2565625 49.45007813 -59.09125 49.365 -57.890625 49.27734375 C-50.56827415 48.44353568 -45.56525186 46.00363644 -39.390625 42.15234375 C-38.67132813 41.86359375 -37.95203125 41.57484375 -37.2109375 41.27734375 C-34.64988952 39.69455015 -34.35388847 37.96050167 -33.390625 35.15234375 C-32.49718687 33.47311063 -31.57890251 31.80694064 -30.640625 30.15234375 C-27.21656138 23.9704752 -24.28033213 17.59782527 -21.390625 11.15234375 C-20.730625 11.15234375 -20.070625 11.15234375 -19.390625 11.15234375 C-19.24625 10.43046875 -19.101875 9.70859375 -18.953125 8.96484375 C-16.55372732 4.64592793 -12.82023827 3.09502397 -8.390625 1.15234375 C-5.53078344 0.34412766 -2.950295 0.18800899 0 0 Z " fill="#FEFEFE" transform="translate(98.390625,28.84765625)"/>
<path d="M0 0 C7.70911038 0.66105865 14.99367237 2.71664008 22.4375 4.75 C23.79473206 5.11793837 25.15199136 5.48577624 26.50927734 5.85351562 C29.16317277 6.57436809 31.8157597 7.29977664 34.46728516 8.02929688 C36.55428481 8.60275303 38.64215636 9.17307807 40.73193359 9.73632812 C53.0944044 13.06920637 65.52399065 17.26199533 77 23 C77 131.9 77 240.8 77 353 C-3.52 353 -84.04 353 -167 353 C-163.47757658 350.18206126 -160.37696167 347.95453467 -156.5625 345.6875 C-148.3592744 340.49028861 -143.43149117 334.12744245 -140 325 C-139.38973454 321.17996418 -139.43564814 317.47862361 -139.546875 313.61865234 C-139.56247215 311.98250725 -139.56247215 311.98250725 -139.5783844 310.31330872 C-139.60285904 307.96209952 -139.63823583 305.61098307 -139.6835022 303.26008224 C-139.75092162 299.53501579 -139.77989269 295.81146213 -139.79760742 292.08584595 C-139.85194137 281.50054423 -139.9519055 270.91683411 -140.13330078 260.33300781 C-140.24134564 253.84365627 -140.28606848 247.35641109 -140.29089355 240.86619949 C-140.30522837 238.39964744 -140.34365328 235.93311085 -140.40686035 233.46732712 C-140.87930255 214.67218683 -140.87930255 214.67218683 -137.74417114 210.21433258 C-134.2998942 207.03215125 -130.38818684 205.57954786 -126 204 C-124.24213654 202.94211653 -122.50637858 201.84507365 -120.8125 200.6875 C-117.36211919 198.47597995 -113.8857358 196.31442638 -110.3828125 194.1875 C-109.1611438 193.44560425 -109.1611438 193.44560425 -107.91479492 192.6887207 C-106.28370893 191.70029577 -104.65109463 190.71438774 -103.0168457 189.73120117 C-102.26749756 189.27720947 -101.51814941 188.82321777 -100.74609375 188.35546875 C-100.07247803 187.94965576 -99.3988623 187.54384277 -98.70483398 187.12573242 C-96.84738535 185.98100988 -96.84738535 185.98100988 -95 184 C-92.7242587 183.1508428 -90.4207197 182.47631887 -88.09375 181.78125 C-85.82170857 181.09857013 -85.82170857 181.09857013 -84 179 C-83.52977249 176.96983336 -83.52977249 176.96983336 -83.5 174.6875 C-83.42265625 173.54861328 -83.42265625 173.54861328 -83.34375 172.38671875 C-84.19149926 169.30353543 -85.89594365 168.51768145 -88.35107422 166.63696289 C-91.84145382 163.17190585 -93.40851786 158.33346241 -95.3125 153.875 C-96.26844586 151.71306141 -97.22549179 149.55160894 -98.18359375 147.390625 C-98.65522949 146.31490234 -99.12686523 145.23917969 -99.61279297 144.13085938 C-101.62381959 139.59206928 -103.7395826 135.10628568 -105.875 130.625 C-106.24061035 129.84938721 -106.6062207 129.07377441 -106.98291016 128.2746582 C-109.29439817 123.39136029 -111.73532728 118.60264975 -114.41796875 113.91015625 C-115.22111237 111.27433591 -114.22143362 110.43432575 -113 108 C-112.88545064 105.39889146 -112.85608131 102.90556195 -112.9375 100.3125 C-112.9991885 97.8700922 -113.02063912 95.44426181 -113 93 C-111.3652159 91.3652159 -109.42994748 91.73743663 -107.171875 91.60546875 C-84.49611379 90.13087073 -63.17948517 86.64544473 -42.12890625 77.84765625 C-39.13657316 76.65621354 -36.11450737 75.81248018 -33 75 C-33 74.34 -33 73.68 -33 73 C-31.26378061 71.96069241 -29.4830217 70.99562373 -27.6875 70.0625 C-21.44256786 66.56593064 -17.03067491 62.38375573 -12.1796875 57.16015625 C-10 55 -10 55 -8 55 C-7.690625 54.21625 -7.38125 53.4325 -7.0625 52.625 C-6 50 -6 50 -5 48 C3.03885179 48.43268607 10.35034308 49.92525925 18.0625 52.1875 C19.14072021 52.49631104 20.21894043 52.80512207 21.32983398 53.12329102 C30.64212508 55.82169588 39.8461235 58.80841854 49 62 C47.05452784 59.00822348 45.27892757 56.27892757 42.75 53.75 C42.1725 53.1725 41.595 52.595 41 52 C41 51.34 41 50.68 41 50 C40.01 49.67 39.02 49.34 38 49 C36.31641418 47.35042601 34.6521537 45.68105435 33 44 C27.08411136 39.14800414 21.29718618 34.48767711 14 32 C14 31.34 14 30.68 14 30 C20.11192284 30.55453343 25.73883005 31.53868332 31.625 33.25 C32.3977124 33.46962402 33.1704248 33.68924805 33.96655273 33.91552734 C41.38885525 36.05401499 48.69609497 38.48982739 56 41 C57.64521202 41.54355087 59.29094992 42.08551601 60.9375 42.625 C65.00053856 43.97677138 68.99985477 45.47267182 73 47 C69.1399863 40.45475937 63.79303193 34.23964438 57.21484375 30.35546875 C56.48394531 29.90816406 55.75304687 29.46085937 55 29 C55 28.34 55 27.68 55 27 C54.35804688 26.77699219 53.71609375 26.55398438 53.0546875 26.32421875 C48.86023858 24.50590905 45.04760119 22.15037815 41.125 19.8125 C27.91520681 12.07048279 14.39594031 6.16437806 0 1 C0 0.67 0 0.34 0 0 Z " fill="#FEFEFE" transform="translate(343,241)"/>
<path d="M0 0 C103.95 0 207.9 0 315 0 C315 86.79 315 173.58 315 263 C307.44377811 256.52323838 307.44377811 256.52323838 304.5 253.3125 C289.68301048 238.29372268 269.07292948 226.91894074 249 221 C249 220.67 249 220.34 249 220 C264.58999118 220.97647893 279.81907927 224.50217382 295 228 C292.55225568 220.65676705 282.41383657 215.16079319 275.86328125 211.41015625 C266.12949557 206.6163 255.34587587 202.39141021 244.41796875 201.87890625 C238.81816302 201.60185439 236.14229783 200.8378633 232.140625 196.9296875 C219.84942435 185.84966355 203.17709734 177.33077817 188 171 C186.83984375 170.50757813 185.6796875 170.01515625 184.484375 169.5078125 C153.29376222 156.47990221 115.89619047 151.4515603 83 161 C81.80600586 161.34538818 81.80600586 161.34538818 80.58789062 161.69775391 C72.36068923 164.14523142 64.40680308 166.8999962 56.84765625 171.01953125 C55 172 55 172 52 173 C52.5971409 168.01729973 54.87040883 164.16943963 57.1875 159.8125 C67.74508651 139.26347362 73.17660267 116.63823632 73.24023438 93.5690918 C73.24986544 91.46687082 73.28091711 89.36566126 73.3125 87.26367188 C73.38402074 78.15529154 72.34537579 69.85544429 70 61 C69.80116211 60.24501221 69.60232422 59.49002441 69.39746094 58.7121582 C64.64167301 41.88780318 55.99978356 25.65562659 41 16 C40.05511719 15.35289063 39.11023438 14.70578125 38.13671875 14.0390625 C26.27313456 6.24588998 14.14454419 2.59811882 0 1 C0 0.67 0 0.34 0 0 Z " fill="#FEFEFE" transform="translate(105,0)"/>
<path d="M0 0 C1.13674164 -0.0051059 1.13674164 -0.0051059 2.29644775 -0.01031494 C12.94600981 -0.03765324 23.21028082 0.76983216 33.75 2.3125 C34.61866699 2.42746826 35.48733398 2.54243652 36.38232422 2.66088867 C47.56915053 4.14708524 58.06129068 6.9524505 68.72460938 10.61767578 C70.41974908 11.19920515 72.12306459 11.75682928 73.828125 12.30859375 C84.88396831 16.03249307 96.22373253 21.56472721 105.75 28.3125 C105.75 28.9725 105.75 29.6325 105.75 30.3125 C106.36875 30.621875 106.9875 30.93125 107.625 31.25 C109 31.9375 110.375 32.625 111.75 33.3125 C111.75 33.9725 111.75 34.6325 111.75 35.3125 C112.41 35.3125 113.07 35.3125 113.75 35.3125 C113.75 35.9725 113.75 36.6325 113.75 37.3125 C115.07 37.9725 116.39 38.6325 117.75 39.3125 C117.75 39.9725 117.75 40.6325 117.75 41.3125 C118.41 41.3125 119.07 41.3125 119.75 41.3125 C119.75 41.9725 119.75 42.6325 119.75 43.3125 C121.07 43.9725 122.39 44.6325 123.75 45.3125 C119.84935972 46.59706771 117.65503488 45.68645844 113.87792969 44.15380859 C97.27265931 37.58866842 79.79428065 37.70890008 62.75 42.3125 C63.97074219 42.28929687 65.19148437 42.26609375 66.44921875 42.2421875 C86.67840042 41.96177075 102.258837 44.9632461 118.34375 57.8671875 C119.75 59.3125 119.75 59.3125 119.75 61.3125 C121.07 61.6425 122.39 61.9725 123.75 62.3125 C123.75 62.9725 123.75 63.6325 123.75 64.3125 C124.41 64.3125 125.07 64.3125 125.75 64.3125 C126.41 65.6325 127.07 66.9525 127.75 68.3125 C126.0175 67.94125 126.0175 67.94125 124.25 67.5625 C123.4146875 67.38460937 122.579375 67.20671875 121.71875 67.0234375 C119.6161388 66.51991745 117.53274308 65.93283177 115.46875 65.2890625 C106.8845966 62.74627756 98.83657157 61.88770754 89.875 61.8125 C88.82957031 61.79429199 87.78414062 61.77608398 86.70703125 61.75732422 C79.61994364 61.81248103 74.11854153 63.21209553 67.75 66.3125 C68.74459229 66.2810791 68.74459229 66.2810791 69.75927734 66.24902344 C89.26500697 65.71665079 106.21591693 65.94531789 122.75 77.3125 C123.430625 77.73144531 124.11125 78.15039062 124.8125 78.58203125 C126.5 79.625 126.5 79.625 128.75 81.3125 C128.75 81.9725 128.75 82.6325 128.75 83.3125 C129.306875 83.374375 129.86375 83.43625 130.4375 83.5 C133.74068042 84.6605769 135.46894733 86.71463446 137.75 89.3125 C137.75 89.9725 137.75 90.6325 137.75 91.3125 C138.41 91.3125 139.07 91.3125 139.75 91.3125 C141.00390625 92.95703125 141.00390625 92.95703125 142.3125 95.125 C142.74691406 95.83269531 143.18132812 96.54039062 143.62890625 97.26953125 C144.75 99.3125 144.75 99.3125 145.75 102.3125 C144.76 102.3125 143.77 102.3125 142.75 102.3125 C142.75 101.6525 142.75 100.9925 142.75 100.3125 C142.10933594 100.13074219 141.46867188 99.94898438 140.80859375 99.76171875 C136.32446048 98.45858017 132.10228353 97.03292475 127.83203125 95.1328125 C112.74690077 89.18932769 92.16864821 84.49809354 76.5 91.1875 C73.68412925 92.61796234 71.24499554 94.38053443 68.75 96.3125 C70.56332154 96.00480293 72.37564345 95.69120936 74.1875 95.375 C75.70150391 95.11396484 75.70150391 95.11396484 77.24609375 94.84765625 C79.6787438 94.56498903 79.6787438 94.56498903 80.75 93.3125 C93.32639172 91.82008988 104.27383402 92.71574998 114.51171875 100.68359375 C116.90740604 102.88707691 118.52583107 105.30772173 119.75 108.3125 C118.986875 108.1475 118.22375 107.9825 117.4375 107.8125 C103.38825275 105.90751732 91.53327801 108.48998771 79.75 116.3125 C68.35146793 123.07975459 56.71574595 127.71648906 43.84375 130.78125 C42.35421794 131.15919097 40.87544906 131.58069562 39.40625 132.03125 C4.38407868 142.58009678 -35.82272465 135.60020697 -68.25 120.3125 C-69.91080813 119.63136963 -71.57516521 118.95837202 -73.25 118.3125 C-73.25 117.6525 -73.25 116.9925 -73.25 116.3125 C-73.98347656 116.04566406 -74.71695313 115.77882813 -75.47265625 115.50390625 C-87.91372276 110.16702118 -94.15430948 98.19691176 -99.25 86.3125 C-103.73580474 70.5851605 -99.80746826 51.37290607 -92.25 37.3125 C-91.01919456 35.15634449 -89.7711788 33.29003244 -88.25 31.3125 C-87.59 31.3125 -86.93 31.3125 -86.25 31.3125 C-85.92 29.9925 -85.59 28.6725 -85.25 27.3125 C-84.26 27.3125 -83.27 27.3125 -82.25 27.3125 C-82.25 26.6525 -82.25 25.9925 -82.25 25.3125 C-81.59 25.3125 -80.93 25.3125 -80.25 25.3125 C-80.25 24.6525 -80.25 23.9925 -80.25 23.3125 C-78.2734375 21.7265625 -78.2734375 21.7265625 -75.625 19.9375 C-74.71234375 19.32003906 -73.7996875 18.70257813 -72.859375 18.06640625 C-71.99828125 17.48761719 -71.1371875 16.90882813 -70.25 16.3125 C-69.63640625 15.86777344 -69.0228125 15.42304688 -68.390625 14.96484375 C-65.27378028 12.72360747 -64.27674453 12.3125 -60.25 12.3125 C-60.25 11.6525 -60.25 10.9925 -60.25 10.3125 C-59.16460937 9.97476563 -58.07921875 9.63703125 -56.9609375 9.2890625 C-55.51561539 8.83857249 -54.07030343 8.38804993 -52.625 7.9375 C-51.91214844 7.71578125 -51.19929688 7.4940625 -50.46484375 7.265625 C-49.76230469 7.04648438 -49.05976563 6.82734375 -48.3359375 6.6015625 C-47.63549316 6.38322754 -46.93504883 6.16489258 -46.21337891 5.93994141 C-44.54389518 5.40642074 -42.88743329 4.83242468 -41.234375 4.25 C-27.8922479 0.05875589 -13.84880917 0.01462162 0 0 Z " fill="#E570A2" transform="translate(214.25,174.6875)"/>
<path d="M0 0 C4.95 0.495 4.95 0.495 10 1 C10.00586624 1.83271927 10.01173248 2.66543854 10.01777649 3.52339172 C10.07565109 11.36635235 10.14769735 19.20902659 10.23571491 27.05170918 C10.28046588 31.08385029 10.31971128 35.11588927 10.34643555 39.14819336 C10.37242182 43.03873163 10.41279023 46.92887783 10.46318626 50.81917381 C10.47988681 52.30429398 10.49138123 53.78948201 10.49761391 55.274683 C10.5072209 57.35321905 10.53523621 59.43074485 10.56762695 61.5090332 C10.57873001 62.69261917 10.58983307 63.87620514 10.60127258 65.09565735 C11.04623519 68.33677853 11.601472 68.95067288 14 71 C15.03608129 74.99631356 15.42696428 77.1072565 13.625 80.875 C12 83 12 83 11 84 C10.76924918 85.34747084 10.58846937 86.70377565 10.4375 88.0625 C10.293125 89.361875 10.14875 90.66125 10 92 C15.76488832 88.5877972 21.50850089 85.14202912 27.23632812 81.66796875 C29.01912409 80.59199154 30.80658333 79.52368557 32.59960938 78.46484375 C34.9759135 77.06040869 37.33286178 75.62787934 39.6875 74.1875 C40.41122803 73.76879639 41.13495605 73.35009277 41.88061523 72.91870117 C42.54262939 72.50595947 43.20464355 72.09321777 43.88671875 71.66796875 C44.46639404 71.32016357 45.04606934 70.9723584 45.64331055 70.61401367 C47.89951826 67.92986949 47.86222581 65.43059999 48 62 C47.09885797 58.88402261 47.09885797 58.88402261 45.5 55.90234375 C44.94562256 54.77755615 44.39124512 53.65276855 43.82006836 52.49389648 C43.2194458 51.32028564 42.61882324 50.1466748 42 48.9375 C41.39231032 47.71835098 40.7862759 46.49837552 40.18188477 45.27758789 C38.47507372 41.84124289 36.73999182 38.41967379 35 35 C33.64350682 32.3136638 32.29047611 29.62561077 30.9375 26.9375 C30.16019531 25.39642578 30.16019531 25.39642578 29.3671875 23.82421875 C24 12.73714286 24 12.73714286 24 9 C24.66 9 25.32 9 26 9 C26 8.34 26 7.68 26 7 C33.75 6.875 33.75 6.875 36 8 C37.04638672 9.828125 37.04638672 9.828125 38.1796875 12.25 C38.82272827 13.61064575 38.82272827 13.61064575 39.47875977 14.9987793 C39.93951904 15.98918213 40.40027832 16.97958496 40.875 18 C41.86032185 20.09001126 42.84601264 22.17984862 43.83203125 24.26953125 C44.34717285 25.36604004 44.86231445 26.46254883 45.39306641 27.59228516 C48.08683553 33.30477823 50.82592468 38.99542333 53.5625 44.6875 C54.33086182 46.28948242 54.33086182 46.28948242 55.11474609 47.92382812 C55.59379395 48.92220703 56.0728418 49.92058594 56.56640625 50.94921875 C56.98865479 51.82924561 57.41090332 52.70927246 57.84594727 53.6159668 C58.22678467 54.40269775 58.60762207 55.18942871 59 56 C59.32605225 56.72936768 59.65210449 57.45873535 59.98803711 58.21020508 C60.96773189 60.26743995 60.96773189 60.26743995 63.625 61.6875 C66.30007705 64.29218028 66.43760512 64.92192903 66.625 68.5 C66.41736215 71.83313383 66.21470588 72.74503677 64 75.375 C61.14844763 76.91959087 58.31422654 77.98264225 55.26171875 79.0546875 C51.13156264 80.78093582 47.52622357 83.36441345 43.80224609 85.82373047 C40.06501228 88.26290583 36.27712029 90.62327322 32.5 93 C25.93165997 97.13348128 25.93165997 97.13348128 19.40234375 101.328125 C18.42394531 101.96234375 17.44554687 102.5965625 16.4375 103.25 C15.61121094 103.79140625 14.78492188 104.3328125 13.93359375 104.890625 C12 106 12 106 10 106 C10.00460896 106.57315382 10.00921793 107.14630764 10.01396656 107.73682976 C10.1246536 121.71845647 10.20725702 135.70001703 10.25906086 149.68198967 C10.28478234 156.4437527 10.31981552 163.20522227 10.37719727 169.96679688 C10.43258095 176.49607355 10.46144992 183.0251603 10.47438622 189.5546608 C10.48360139 192.04167595 10.5015965 194.52867507 10.52865028 197.01556015 C10.56512051 200.5079683 10.56993758 203.99913028 10.56762695 207.49169922 C10.58560333 208.51237991 10.60357971 209.53306061 10.62210083 210.58467102 C10.55435318 220.09182501 6.85731166 227.91324087 0.4375 234.90625 C-13.64179104 247 -13.64179104 247 -20 247 C-19.34 243.04 -18.68 239.08 -18 235 C-19.93875 235.495 -21.8775 235.99 -23.875 236.5 C-29.7073153 237.86066064 -35.03464837 238.36357674 -41 238 C-37.23225289 234.11807874 -33.37202211 230.20468119 -29 227 C-28.34 227 -27.68 227 -27 227 C-27 226.34 -27 225.68 -27 225 C-27.65226562 224.96261719 -28.30453125 224.92523437 -28.9765625 224.88671875 C-34.31622957 224.48506238 -38.3204092 223.83238391 -43 221 C-43 220.34 -43 219.68 -43 219 C-42.31075439 218.83918945 -41.62150879 218.67837891 -40.91137695 218.51269531 C-24.02679298 214.65019379 -24.02679298 214.65019379 -7.453125 209.6640625 C-5 209 -5 209 0 209 C0 177.65 0 146.3 0 114 C-12.88656958 121.50130884 -12.88656958 121.50130884 -24.97265625 129.66015625 C-27.51303674 131.33905896 -30.04293992 132.29964366 -33 133 C-32.94779297 133.92619141 -32.94779297 133.92619141 -32.89453125 134.87109375 C-32.6590913 142.23700067 -34.20946351 147.70545654 -37.01953125 154.4453125 C-40.23276455 162.50848219 -41.1823059 170.42497112 -42 179 C-45.69790046 177.76736651 -45.9354846 176.79947549 -47.6875 173.4375 C-48.12449219 172.61121094 -48.56148437 171.78492188 -49.01171875 170.93359375 C-49.33785156 170.29550781 -49.66398437 169.65742187 -50 169 C-52.18742014 172.2811302 -52.54442806 174.33084356 -53.125 178.1875 C-53.29257813 179.27417969 -53.46015625 180.36085938 -53.6328125 181.48046875 C-53.81457031 182.72763672 -53.81457031 182.72763672 -54 184 C-56.8748155 181.28623859 -58.43316707 178.65594351 -60 175 C-60 173.68 -60 172.36 -60 171 C-60.66 171 -61.32 171 -62 171 C-62.33 174.3 -62.66 177.6 -63 181 C-65 180 -65 180 -66.0703125 177.33984375 C-69.27685595 166.99577211 -70.36608635 159.19782006 -66 149 C-57.89903273 134.99600232 -45.57324828 127.05120216 -32.0625 118.8125 C-26.51259196 115.40890995 -20.97138212 111.99657696 -15.484375 108.4921875 C-14.61417725 107.93684326 -13.74397949 107.38149902 -12.84741211 106.80932617 C-11.18446109 105.74537706 -9.5237323 104.67794489 -7.86547852 103.60668945 C-7.12225342 103.13191162 -6.37902832 102.65713379 -5.61328125 102.16796875 C-4.96141846 101.74797607 -4.30955566 101.3279834 -3.63793945 100.89526367 C-2 100 -2 100 0 100 C-0.08730853 97.26935053 -0.19422124 94.5418381 -0.3125 91.8125 C-0.33505859 91.04357422 -0.35761719 90.27464844 -0.38085938 89.48242188 C-0.60425788 84.75043532 -1.33215815 82.02339393 -4 78 C-3.67857143 71.67857143 -3.67857143 71.67857143 -1 69 C-0.66697064 66.00490938 -0.66697064 66.00490938 -0.68115234 62.43896484 C-0.67110672 61.76567642 -0.6610611 61.092388 -0.65071106 60.3986969 C-0.61977818 58.16945259 -0.60281632 55.94032891 -0.5859375 53.7109375 C-0.56723393 52.16678828 -0.54766113 50.62264935 -0.5272522 49.07852173 C-0.4758391 45.01137355 -0.43626273 40.9441922 -0.39910889 36.87689209 C-0.35912657 32.7277398 -0.30800798 28.57872658 -0.2578125 24.4296875 C-0.16094463 16.28655319 -0.07657486 8.14335029 0 0 Z " fill="#A98187" transform="translate(194,347)"/>
<path d="M0 0 C29.7 0 59.4 0 90 0 C90 0.33 90 0.66 90 1 C88.65421875 1.20302734 88.65421875 1.20302734 87.28125 1.41015625 C79.27259639 2.79181447 72.36107959 4.87551593 64.99755859 8.30859375 C60.4489996 10.41729994 55.91293468 12.0845699 51.125 13.5625 C36.94521255 18.15007829 25.41016734 26.92677795 18 40 C15.0140291 46.15258772 14.9318071 51.81886652 15.125 58.5 C15.31604486 66.04300636 13.93535398 70.50960276 10 77 C8.71196168 79.49354626 7.50531141 82.02223034 6.3125 84.5625 C6.00876465 85.20533936 5.7050293 85.84817871 5.39208984 86.51049805 C3.17973158 91.3154444 1.82246643 95.79104591 1 101 C0.67 101 0.34 101 0 101 C0 67.67 0 34.34 0 0 Z " fill="#FEFDFE" transform="translate(0,0)"/>
<path d="M0 0 C0.99 0 1.98 0 3 0 C3.185625 0.61875 3.37125 1.2375 3.5625 1.875 C4.91373065 4.38925605 4.91373065 4.38925605 8.4375 4.8125 C9.613125 5.204375 10.78875 5.59625 12 6 C12.79251158 7.65141157 13.57078924 9.31341669 14.22924805 11.02270508 C15.49423454 14.26791434 17.11503763 17.33266526 18.6875 20.4375 C19.03490234 21.12851807 19.38230469 21.81953613 19.74023438 22.53149414 C21.16423606 25.36378218 22.59279383 28.19375903 24.02197266 31.0234375 C26.01809879 34.97856164 27.99766312 38.94130789 29.96044922 42.91308594 C30.68126801 44.36014066 31.41002234 45.80325912 32.14501953 47.24316406 C33.30074214 49.50836112 34.4331226 51.78407571 35.5625 54.0625 C35.92150391 54.7527124 36.28050781 55.4429248 36.65039062 56.15405273 C38.89073722 60.74709863 39.69764307 63.94306323 38 69 C35.8829909 70.93537222 34.17560779 72.19934941 31.75 73.625 C31.10264893 74.02960449 30.45529785 74.43420898 29.78833008 74.85107422 C28.34558252 75.74907497 26.89634429 76.6367042 25.44189453 77.515625 C22.74198249 79.15684328 20.0718824 80.84110375 17.40234375 82.53125 C9.83067317 87.29931426 9.83067317 87.29931426 6.26171875 89.5078125 C5.48787842 89.98879395 4.71403809 90.46977539 3.91674805 90.96533203 C2 92 2 92 0 92 C-0.26391027 86.6338245 -0.26391027 86.6338245 0 84 C0.97850195 82.97895449 1.97980427 81.9793879 3 81 C3.96416627 77.18453859 4.75376612 72.65367941 3 69 C2.01 68.67 1.02 68.34 0 68 C0 45.56 0 23.12 0 0 Z " fill="#FDFBFC" transform="translate(204,347)"/>
<path d="M0 0 C3.4602495 1.85814667 6.52218707 3.59891501 8.09765625 7.2421875 C8.71362253 10.60135244 8.34368964 13.06314414 7.09765625 16.2421875 C4.16799899 20.02781418 0.89333085 23.37611164 -2.47314453 26.77099609 C-10.27029318 34.7972376 -15.02364503 41.43544605 -15.08984375 52.7421875 C-15.04218365 54.57596662 -14.98480822 56.40964365 -14.90234375 58.2421875 C-19.14661197 57.75190134 -20.92026412 56.68763201 -23.65234375 53.4296875 C-24.2453125 52.74261719 -24.83828125 52.05554688 -25.44921875 51.34765625 C-28.67540604 46.6731537 -28.42683188 41.37862653 -27.51171875 35.90625 C-25.92468985 29.13085737 -23.07819978 23.23857422 -19.88574219 17.10717773 C-17.50511674 12.53112324 -15.5161496 7.9674194 -13.88671875 3.0625 C-11.22913806 -1.85191508 -4.72117196 -1.88071326 0 0 Z " fill="#EDC3D9" transform="translate(27.90234375,62.7578125)"/>
<path d="M0 0 C1.287419 0.43460642 2.57518533 0.8681852 3.86328125 1.30078125 C14.81706938 5.08955435 24.87039009 10.40747291 35 16 C31.27050781 17.12109375 31.27050781 17.12109375 28.8359375 16.03125 C28.02382813 15.5259375 27.21171875 15.020625 26.375 14.5 C13.42898207 7.04780762 -2.21272003 1.30814399 -16.8671875 -1.5078125 C-19 -2 -19 -2 -21.8828125 -2.984375 C-41.68009925 -9.4346188 -67.98811008 -8.06198526 -88 -3 C-88.33 -2.67 -88.66 -2.34 -89 -2 C-90.51928038 -1.92820036 -92.04167482 -1.91607993 -93.5625 -1.9375 C-94.38878906 -1.94652344 -95.21507812 -1.95554688 -96.06640625 -1.96484375 C-96.70449219 -1.97644531 -97.34257812 -1.98804688 -98 -2 C-98.33 -1.01 -98.66 -0.02 -99 1 C-105.12290247 3.83467707 -111.36277137 4.96293303 -118 6 C-116.3248367 2.64967339 -112.59297074 1.98162107 -109.25 0.6875 C-108.45883789 0.37989746 -107.66767578 0.07229492 -106.85253906 -0.24462891 C-72.6130022 -13.0594653 -34.26261671 -12.31143551 0 0 Z " fill="#DE9AB9" transform="translate(280,165)"/>
<path d="M0 0 C4.95077018 0.7058327 9.30651803 2.62219692 13.875 4.5625 C14.71562988 4.91892578 15.55625977 5.27535156 16.42236328 5.64257812 C28.67691766 10.92603442 41.13517458 17.19491462 52 25 C52 25.66 52 26.32 52 27 C52.69609375 27.20882813 53.3921875 27.41765625 54.109375 27.6328125 C57.89628053 29.42391647 60.34489037 31.90580707 63.25 34.875 C63.79140625 35.40480469 64.3328125 35.93460937 64.890625 36.48046875 C67.6334899 39.24390513 69.2824374 41.17676891 70 45 C60.8866003 43.80086846 52.24533296 40.51775203 43.76171875 37.09765625 C37.49623945 34.67136644 31.12963025 32.89901167 24.625 31.25 C23.32224121 30.91572998 23.32224121 30.91572998 21.99316406 30.57470703 C17.93013796 29.57116954 14.22089489 28.68734112 10 29 C10 28.34 10 27.68 10 27 C13.21451269 25.39274365 16.43612536 25.94251815 20 26 C20 26.66 20 27.32 20 28 C20.99966797 28.14695312 20.99966797 28.14695312 22.01953125 28.296875 C28.11895387 29.28643168 33.59529579 30.83406233 39.35546875 33.05078125 C43.16958356 34.41980621 47.03564611 35.20712922 51 36 C52.33508395 36.32625102 53.66897483 36.65756623 55 37 C55.66 35.68 56.32 34.36 57 33 C54.16569547 29.7457985 52.31392226 28.4793247 48 28 C47.505 26.02 47.505 26.02 47 24 C46.01 24 45.02 24 44 24 C44 23.34 44 22.68 44 22 C43.21625 21.79375 42.4325 21.5875 41.625 21.375 C37.55026007 19.82940899 34.138381 17.75885055 30.46484375 15.4375 C28.03525023 14.02055798 25.63347664 12.97640489 23 12 C23 11.34 23 10.68 23 10 C22.39414062 9.82984375 21.78828125 9.6596875 21.1640625 9.484375 C3.99129934 4.5174835 3.99129934 4.5174835 0 0 Z " fill="#E098B8" transform="translate(346,243)"/>
<path d="M0 0 C0.66 0.33 1.32 0.66 2 1 C1.401875 1.66 0.80375 2.32 0.1875 3 C-5.24266253 10.44708005 -5.40240178 17.05773816 -5 26 C-9.24426822 25.50971384 -11.01792037 24.44544451 -13.75 21.1875 C-14.34296875 20.50042969 -14.9359375 19.81335938 -15.546875 19.10546875 C-18.41290698 14.95280414 -18.17359919 10.947577 -18 6 C-17.68836198 4.32914075 -17.35904952 2.66131644 -17 1 C-15.41058594 1.01740234 -15.41058594 1.01740234 -13.7890625 1.03515625 C-12.40104342 1.04453476 -11.01302245 1.05363489 -9.625 1.0625 C-8.57699219 1.07506836 -8.57699219 1.07506836 -7.5078125 1.08789062 C-3.62704624 1.1835442 -3.62704624 1.1835442 0 0 Z " fill="#0D0B0C" transform="translate(18,95)"/>
<path d="M0 0 C2.46800047 1.15173355 4.04783565 2.04783565 6 4 C8.17694106 4.34559308 10.36848991 4.60077686 12.5625 4.8125 C29.95949714 6.82671022 44.46813579 12.80665213 58 24 C58.61230469 24.46664062 59.22460938 24.93328125 59.85546875 25.4140625 C62.91907385 27.78635528 64.29683519 29.20450814 65 33 C64.21987549 32.82871582 63.43975098 32.65743164 62.63598633 32.48095703 C59.02904968 31.6914982 55.42079539 30.90822414 51.8125 30.125 C49.97268555 29.72087891 49.97268555 29.72087891 48.09570312 29.30859375 C40.09702926 27.57800996 32.10363384 26.14294026 24 25 C24 24.67 24 24.34 24 24 C34.13024955 24.42772165 44.03312011 24.98708112 54 27 C54 27.66 54 28.32 54 29 C55.32 28.67 56.64 28.34 58 28 C57.525625 27.566875 57.05125 27.13375 56.5625 26.6875 C55 25 55 25 54 22 C52.35965807 21.27095914 50.68698082 20.61344757 49 20 C47.7315625 19.2265625 47.7315625 19.2265625 46.4375 18.4375 C44.12459944 16.91803109 44.12459944 16.91803109 41.75 16.4375 C41.1725 16.293125 40.595 16.14875 40 16 C39.505 15.01 39.505 15.01 39 14 C30.17859357 10.15065901 21.32544682 8.85449649 11.76171875 8.34375 C6.60605134 7.70202619 3.35177754 5.97247709 0 2 C0 1.34 0 0.68 0 0 Z " fill="#DB9BB7" transform="translate(336,196)"/>
<path d="M0 0 C1.85625 0.0309375 1.85625 0.0309375 3.75 0.0625 C-4.71013782 4.81977326 -16.03176076 4.50560792 -25.5 5.1875 C-26.63824219 5.27386719 -27.77648437 5.36023438 -28.94921875 5.44921875 C-31.71582357 5.65845777 -34.48269192 5.86281721 -37.25 6.0625 C-37.22679687 7.09890625 -37.20359375 8.1353125 -37.1796875 9.203125 C-37.16092333 10.57290944 -37.14272382 11.9427017 -37.125 13.3125 C-37.09986328 14.33537109 -37.09986328 14.33537109 -37.07421875 15.37890625 C-37.03762771 19.14778358 -37.19311593 21.86290255 -39.25 25.0625 C-39.58 25.7225 -39.91 26.3825 -40.25 27.0625 C-42.89 26.7325 -45.53 26.4025 -48.25 26.0625 C-48.25 26.7225 -48.25 27.3825 -48.25 28.0625 C-48.91 28.0625 -49.57 28.0625 -50.25 28.0625 C-49.92 29.3825 -49.59 30.7025 -49.25 32.0625 C-49.91 31.7325 -50.57 31.4025 -51.25 31.0625 C-51.875 28 -51.875 28 -52.25 25.0625 C-53.36375 24.98 -54.4775 24.8975 -55.625 24.8125 C-59.25 24.0625 -59.25 24.0625 -60.6875 22 C-60.873125 21.360625 -61.05875 20.72125 -61.25 20.0625 C-59.6 20.3925 -57.95 20.7225 -56.25 21.0625 C-56.25 21.7225 -56.25 22.3825 -56.25 23.0625 C-55.198125 23.206875 -54.14625 23.35125 -53.0625 23.5 C-50.09539451 23.93776966 -47.18205634 24.44054866 -44.25 25.0625 C-44.25 24.4025 -44.25 23.7425 -44.25 23.0625 C-42.93 23.0625 -41.61 23.0625 -40.25 23.0625 C-40.25 16.4625 -40.25 9.8625 -40.25 3.0625 C-37.98640625 2.92972656 -35.7228125 2.79695313 -33.390625 2.66015625 C-31.19297806 2.52865618 -28.99541298 2.39586028 -26.79785156 2.26293945 C-25.27319275 2.17141457 -23.74845272 2.08123228 -22.22363281 1.99243164 C-20.02906813 1.86439152 -17.83484304 1.73149019 -15.640625 1.59765625 C-14.62165131 1.53977684 -14.62165131 1.53977684 -13.58209229 1.48072815 C-8.96017721 1.19226733 -4.61334861 -0.07688914 0 0 Z " fill="#DD96B5" transform="translate(268.25,327.9375)"/>
<path d="M0 0 C2.5 1.5625 2.5 1.5625 4 4 C4 7.78814147 3.8367392 10.03929943 1.3125 12.9375 C-1.76819895 14.35295627 -3.64720251 14.55879958 -7 14 C-9.4375 11.875 -9.4375 11.875 -11 9 C-10.936318 5.81590023 -10.51040601 3.85067668 -8.875 1.125 C-5.83167192 -0.70099685 -3.45750445 -0.42460581 0 0 Z " fill="#050102" transform="translate(46,44)"/>
<path d="M0 0 C17.30044378 0.44777619 32.98513124 8.7362464 45.5 20.3125 C46.325 21.199375 47.15 22.08625 48 23 C48.59425781 23.58910156 49.18851563 24.17820312 49.80078125 24.78515625 C54.23050241 29.38690542 57.52285829 34.23207106 60.5625 39.8125 C60.92126221 40.45880371 61.28002441 41.10510742 61.6496582 41.77099609 C64.06972194 46.40115543 64.06972194 46.40115543 63.71484375 49.44921875 C63.47894531 49.96097656 63.24304688 50.47273438 63 51 C61.88158632 48.91229447 61.0291824 47.14591199 60.5625 44.8125 C60.2840625 43.9153125 60.2840625 43.9153125 60 43 C59.01 42.67 58.02 42.34 57 42 C55.90234375 39.85546875 55.90234375 39.85546875 54.9375 37.1875 C53.77223036 34.01927693 52.56894978 30.99146424 51 28 C50.34 28 49.68 28 49 28 C47.6328125 26.57421875 47.6328125 26.57421875 46.125 24.6875 C43.93386488 22.02376711 41.78979281 20.03869475 39 18 C39 17.34 39 16.68 39 16 C38.0409375 15.62875 38.0409375 15.62875 37.0625 15.25 C33.00011649 13.59188428 29.00275094 11.7964416 25 10 C25 9.34 25 8.68 25 8 C24.21625 7.9175 23.4325 7.835 22.625 7.75 C19.48059114 7.09943265 17.05268916 6.24697872 14.125 5 C10.84158412 3.61907774 7.98433752 2.71885857 4.4375 2.375 C3.303125 2.25125 2.16875 2.1275 1 2 C0.67 1.34 0.34 0.68 0 0 Z " fill="#DC9CB9" transform="translate(108,1)"/>
<path d="M0 0 C0.66 0 1.32 0 2 0 C1.44255611 3.64727571 0.19184621 5.05844308 -2.625 7.375 C-3.34945312 7.97828125 -4.07390625 8.5815625 -4.8203125 9.203125 C-5.53960937 9.79609375 -6.25890625 10.3890625 -7 11 C-8.16729407 12.04096355 -9.33400094 13.08258609 -10.5 14.125 C-19.70866935 22 -19.70866935 22 -24 22 C-24 22.66 -24 23.32 -24 24 C-53.12987453 36.53758336 -53.12987453 36.53758336 -62 36 C-59.81800892 33.81800892 -58.83138225 33.51201206 -55.921875 32.73828125 C-55.0971167 32.50995605 -54.2723584 32.28163086 -53.42260742 32.04638672 C-52.54064697 31.8042041 -51.65868652 31.56202148 -50.75 31.3125 C-41.86146138 28.76609254 -34.06905218 25.50595169 -26 21 C-25.21625 20.58363281 -24.4325 20.16726563 -23.625 19.73828125 C-20.21017418 17.99672495 -20.21017418 17.99672495 -18 15 C-17.236875 14.731875 -16.47375 14.46375 -15.6875 14.1875 C-12.3970599 12.73358461 -11.16588687 10.81565292 -9 8 C-8.01 7.67 -7.02 7.34 -6 7 C-5.67 6.34 -5.34 5.68 -5 5 C-4.34 5 -3.68 5 -3 5 C-2.690625 4.360625 -2.38125 3.72125 -2.0625 3.0625 C-1 1 -1 1 0 0 Z " fill="#DC9AB8" transform="translate(334,292)"/>
<path d="M0 0 C2.13120262 3.19680393 3.62001109 6.48595891 5.125 10 C5.40214844 10.6290625 5.67929688 11.258125 5.96484375 11.90625 C7.20009858 14.7783696 8 16.83945116 8 20 C8.66 20 9.32 20 10 20 C11.4239869 21.71519077 12.7663216 23.4987912 14.0625 25.3125 C15.13177734 26.79169922 15.13177734 26.79169922 16.22265625 28.30078125 C18 31 18 31 19 34 C19.66 34 20.32 34 21 34 C21 34.99 21 35.98 21 37 C21.66 37 22.32 37 23 37 C23 37.66 23 38.32 23 39 C23.66 39 24.32 39 25 39 C27.625 41.375 27.625 41.375 30 44 C30 44.66 30 45.32 30 46 C30.7425 46.2475 31.485 46.495 32.25 46.75 C35.26049464 48.11840665 36.71263803 49.64332403 39 52 C40.97630407 53.36821051 42.97209016 54.70951192 45 56 C44.34 56.66 43.68 57.32 43 58 C26.27963123 45.8103118 13.24472218 32.34235172 3.6875 13.875 C3.32551514 13.1938916 2.96353027 12.5127832 2.59057617 11.81103516 C0.50659139 7.69713005 -0.43422618 4.72496966 0 0 Z " fill="#DD9CB9" transform="translate(92,258)"/>
<path d="M0 0 C0.33 0 0.66 0 1 0 C1.29296875 5.95703125 1.29296875 5.95703125 1 8 C0.01078074 9.01066575 -0.98992521 10.01017733 -2 11 C-2.74780834 13.23153009 -2.74780834 13.23153009 -3.125 15.625 C-3.91666667 19.91666667 -3.91666667 19.91666667 -5 21 C-5.52969226 24.45714515 -5.76502423 27.95361165 -6.0625 31.4375 C-6.15192871 32.46689697 -6.24135742 33.49629395 -6.33349609 34.55688477 C-7.07652535 43.72161985 -7.20645984 52.81253698 -7 62 C-7.33 62 -7.66 62 -8 62 C-13.49340368 41.5959292 -8.75488361 18.82299976 0 0 Z " fill="#E09DBA" transform="translate(99,196)"/>
<path d="M0 0 C2.21888872 3.32833307 3.08746683 6.49763639 4.0625 10.3125 C4.23587891 10.96412109 4.40925781 11.61574219 4.58789062 12.28710938 C6.95320664 21.34056031 7.24105047 30.02210225 7.25 39.3125 C7.25100708 40.03242126 7.25201416 40.75234253 7.25305176 41.49407959 C7.23791879 57.45713816 4.75553047 71.76781865 0 87 C-1.86138654 81.41584039 0.20608936 76.38173193 2 71 C3.80084015 63.73139159 4.64814718 56.47073545 5 49 C5.03399902 48.29085449 5.06799805 47.58170898 5.10302734 46.85107422 C5.62663483 34.20209953 4.1460734 22.6510529 1.45751953 10.30664062 C0.77916178 6.88661711 0.37923666 3.46502544 0 0 Z " fill="#DB9AB8" transform="translate(172,51)"/>
<path d="M0 0 C4.81899176 1.3358159 8.1243994 3.31598508 12.0625 6.375 C13.06410156 7.14585937 14.06570313 7.91671875 15.09765625 8.7109375 C16.05542969 9.46632813 17.01320313 10.22171875 18 11 C18.87398438 11.67417969 19.74796875 12.34835937 20.6484375 13.04296875 C24.20091024 15.99942862 27.03738945 19.46873672 30 23 C31.2065625 24.423125 31.2065625 24.423125 32.4375 25.875 C34 28 34 28 34 30 C25.93519961 27.86662595 17.96053614 25.49320448 10 23 C13.3048979 21.92131805 15.61763479 22.09580981 19 22.8125 C19.845625 22.98394531 20.69125 23.15539062 21.5625 23.33203125 C23.9147832 23.97664732 25.8673002 24.82997719 28 26 C25.83027535 22.0031388 23.29022576 19.12571447 20 16 C19.195625 15.1028125 19.195625 15.1028125 18.375 14.1875 C16.92438937 12.67319006 16.92438937 12.67319006 14 13 C13.67 12.01 13.34 11.02 13 10 C11.6846659 9.29848848 10.34882408 8.63474075 9 8 C8 7 7 6 6 5 C4.948125 4.29875 3.89625 3.5975 2.8125 2.875 C1.884375 2.25625 0.95625 1.6375 0 1 C0 0.67 0 0.34 0 0 Z " fill="#DC9DB9" transform="translate(358,273)"/>
<path d="M0 0 C19.38768918 0.96938446 41.77621136 15.16172304 55 29 C50.70439716 28.47354068 48.46473324 27.09205969 45.1875 24.3125 C44.32253906 23.59578125 43.45757812 22.8790625 42.56640625 22.140625 C41.71949219 21.43421875 40.87257813 20.7278125 40 20 C38.55177355 18.84141884 37.09441518 17.69408702 35.625 16.5625 C35.01914062 16.08941406 34.41328125 15.61632812 33.7890625 15.12890625 C31.866945 13.91604171 30.22065455 13.42554393 28 13 C28 12.34 28 11.68 28 11 C27.01 10.731875 26.02 10.46375 25 10.1875 C19.69658277 8.66761823 14.60837648 7.07225099 10 4 C8.28555111 3.56261304 6.55332216 3.19151312 4.8125 2.875 C3.91144531 2.70742187 3.01039063 2.53984375 2.08203125 2.3671875 C1.39496094 2.24601563 0.70789063 2.12484375 0 2 C0 1.34 0 0.68 0 0 Z " fill="#DC99B7" transform="translate(351,221)"/>
<path d="M0 0 C0.66 0 1.32 0 2 0 C0.16881557 5.99296722 -2.01218669 11.49505629 -5 17 C-5.39703125 17.81726563 -5.7940625 18.63453125 -6.203125 19.4765625 C-10.74904105 28.12425337 -17.64956721 32.56000263 -26.6875 35.9375 C-30.87670038 37.1776243 -34.65357796 37.23707757 -39 37 C-39 36.34 -39 35.68 -39 35 C-38.20335937 34.95101562 -37.40671875 34.90203125 -36.5859375 34.8515625 C-28.61842686 34.29970605 -28.61842686 34.29970605 -21 32 C-21 31.34 -21 30.68 -21 30 C-19.00669158 28.65668346 -17.00615134 27.32405988 -15 26 C-14.34 25.01 -13.68 24.02 -13 23 C-12.34 23 -11.68 23 -11 23 C-10.896875 22.21625 -10.79375 21.4325 -10.6875 20.625 C-10 18 -10 18 -7 16 C-6.03385824 13.66061816 -5.20221447 11.4026991 -4.4375 9 C-2.24777117 2.24777117 -2.24777117 2.24777117 0 0 Z " fill="#DC9AB8" transform="translate(74,42)"/>
<path d="M0 0 C1.17816305 5.10537322 1.27603165 9.91581138 0 15 C-1.6875 17.0625 -1.6875 17.0625 -4 18 C-7.25 18.1875 -7.25 18.1875 -10 18 C-9.4225 17.7525 -8.845 17.505 -8.25 17.25 C-5.6011728 15.77842934 -3.89625859 14.37032324 -2 12 C-1.50910652 9.12476676 -1.58640508 7.70554428 -3.0625 5.1875 C-6.12613274 3.30978961 -8.50164045 3.56270506 -12 4 C-14.14782671 5.55797882 -14.14782671 5.55797882 -15 8 C-14.74454157 11.40611234 -13.6483487 14.03297233 -12 17 C-12.66 17.66 -13.32 18.32 -14 19 C-16.0625 18.8125 -16.0625 18.8125 -18 18 C-18.33 17.01 -18.66 16.02 -19 15 C-18.34 15 -17.68 15 -17 15 C-17.2475 13.783125 -17.495 12.56625 -17.75 11.3125 C-18.11561398 8.14009566 -18.03893303 7.08713582 -16.6875 4.0625 C-13.21067065 1.39423561 -10.53987938 1.31916413 -6.2421875 1.140625 C-3.8555967 0.99094335 -2.37101597 0 0 0 Z " fill="#D586A9" transform="translate(51,41)"/>
<path d="M0 0 C-1.38360175 2.7672035 -3.3584547 3.10588188 -6.12109375 4.2109375 C-8.19072298 5.03632441 -8.19072298 5.03632441 -10.75 6.5625 C-14.64413501 8.28490587 -18.30327641 8.77093368 -22.51171875 9.27734375 C-25.59983167 10.17420543 -26.21580801 11.41547046 -28 14 C-31.1875 14.75 -31.1875 14.75 -34 15 C-34 15.66 -34 16.32 -34 17 C-35.8125 18.0625 -35.8125 18.0625 -38 19 C-38.99 18.67 -39.98 18.34 -41 18 C-34.28656056 12.74156455 -28.07620199 8.73748565 -20 6 C-18.08203341 5.31613486 -16.16537577 4.62858828 -14.25 3.9375 C-12.88101563 3.45023438 -12.88101563 3.45023438 -11.484375 2.953125 C-8.78049201 1.96863998 -8.78049201 1.96863998 -5.5 0.1875 C-3 -1 -3 -1 0 0 Z " fill="#DF9CBA" transform="translate(70,7)"/>
<path d="M0 0 C4.45862199 1.910838 7.30609632 4.29678188 9.16015625 8.84765625 C10.10977789 12.23094026 11.05668926 15.61495074 12 19 C12.30292969 19.8559375 12.60585937 20.711875 12.91796875 21.59375 C16.01846952 30.79335791 15.25333677 40.42011694 15 50 C14.34 50 13.68 50 13 50 C12.98541748 49.42145264 12.97083496 48.84290527 12.95581055 48.24682617 C12.44105328 29.96475819 9.51489502 15.85815836 0 0 Z " fill="#DC97B6" transform="translate(136,46)"/>
<path d="M0 0 C0.33 1.32 0.66 2.64 1 4 C0.071875 4.5878125 0.071875 4.5878125 -0.875 5.1875 C-3.33662276 7.28711941 -3.89866715 9.01066797 -5 12 C-5.99 12.495 -5.99 12.495 -7 13 C-7.50294175 14.67647251 -7.99575066 16.35706312 -8.421875 18.0546875 C-9 20 -9 20 -10.6875 23.25 C-12.48223915 28.37782614 -11.79497036 32.70339028 -11 38 C-11.66 38 -12.32 38 -13 38 C-15.90641136 32.18717729 -14.28490473 23.92677098 -12.5625 17.9375 C-9.98583128 10.86099677 -5.28468653 5.28468653 0 0 Z " fill="#DE99B8" transform="translate(28,26)"/>
<path d="M0 0 C0.66 0.33 1.32 0.66 2 1 C-1.65217391 7.43478261 -1.65217391 7.43478261 -4 9 C-7.1875 8.6875 -7.1875 8.6875 -10 8 C-10.226875 8.5775 -10.45375 9.155 -10.6875 9.75 C-12.37267277 12.6388676 -14.22687065 14.1512471 -17 16 C-18.32 16 -19.64 16 -21 16 C-21 16.66 -21 17.32 -21 18 C-22.32 17.34 -23.64 16.68 -25 16 C-24.45585449 15.65743164 -23.91170898 15.31486328 -23.35107422 14.96191406 C-20.85853735 13.39208752 -18.36676375 11.82105339 -15.875 10.25 C-15.0190625 9.71117187 -14.163125 9.17234375 -13.28125 8.6171875 C-8.81492748 5.79996868 -4.37605526 2.95563077 0 0 Z " fill="#A98A90" transform="translate(182,453)"/>
<path d="M0 0 C4.491945 0.29295293 7.45871976 1.14191555 11.375 3.375 C16.76678776 6.26226907 22.12733155 7.14486969 28.11083984 8.01123047 C35.19747333 9.05190219 35.19747333 9.05190219 38 11 C39.75 14.125 39.75 14.125 41 17 C40.34 17.66 39.68 18.32 39 19 C38.65582031 18.05253906 38.31164062 17.10507812 37.95703125 16.12890625 C36.2601191 12.72264904 36.2601191 12.72264904 32.69921875 11.71484375 C31.36654306 11.43319579 30.0286991 11.17527097 28.6875 10.9375 C27.24482826 10.63089523 25.80342634 10.31826144 24.36328125 10 C23.6357666 9.84144531 22.90825195 9.68289063 22.15869141 9.51953125 C14.44736636 7.66365026 7.02681041 4.6400144 0 1 C0 0.67 0 0.34 0 0 Z " fill="#DCA0BB" transform="translate(142,319)"/>
<path d="M0 0 C0.33 0.66 0.66 1.32 1 2 C-1.31 2.66 -3.62 3.32 -6 4 C-6.67958603 6.39719432 -6.67958603 6.39719432 -7 9 C-5.10244856 11.34973818 -5.10244856 11.34973818 -1.875 11.125 C-0.451875 11.063125 -0.451875 11.063125 1 11 C1.66 8.69 2.32 6.38 3 4 C3.33 4 3.66 4 4 4 C3.51644989 10.40703902 3.51644989 10.40703902 1.3125 12.9375 C-1.76819895 14.35295627 -3.64720251 14.55879958 -7 14 C-9.4375 11.875 -9.4375 11.875 -11 9 C-10.936318 5.81590023 -10.51040601 3.85067668 -8.875 1.125 C-5.98014 -0.611916 -3.29140103 -0.18630572 0 0 Z " fill="#260914" transform="translate(46,44)"/>
<path d="M0 0 C1.96649546 5.89948639 -2.32587951 12.61475733 -4.99414062 18.01025391 C-6.6895207 21.29642892 -8.44584021 24.5467254 -10.23046875 27.78515625 C-11.5433543 30.17037657 -12.80985762 32.55257901 -14 35 C-15 32 -15 32 -14.0390625 29.9140625 C-13.57242188 29.15867188 -13.10578125 28.40328125 -12.625 27.625 C-11.0575522 25.07680273 -10.04430502 23.2240935 -9.4609375 20.2734375 C-9.30882812 19.52320313 -9.15671875 18.77296875 -9 18 C-8.34 17.67 -7.68 17.34 -7 17 C-5.00315698 13.87993279 -4.29261822 10.46656275 -3.46484375 6.90234375 C-3.06000887 5.24558252 -2.5393282 3.61798459 -2 2 C-1.34 2 -0.68 2 0 2 C0 1.34 0 0.68 0 0 Z " fill="#DD97B7" transform="translate(170,138)"/>
<path d="M0 0 C6.20213847 0.62452089 11.99429414 1.9157742 18 3.5625 C18.87011719 3.79646484 19.74023438 4.03042969 20.63671875 4.27148438 C22.75914728 4.84290744 24.88013594 5.41914957 27 6 C26.01 6.495 26.01 6.495 25 7 C25 7.99 25 8.98 25 10 C16.55823333 7.286575 8.28889147 4.14265947 0 1 C0 0.67 0 0.34 0 0 Z " fill="#FDE5F5" transform="translate(343,241)"/>
<path d="M0 0 C2.25056722 0.11433363 4.50046674 0.24186436 6.75 0.375 C8.62945312 0.47941406 8.62945312 0.47941406 10.546875 0.5859375 C13.66131295 0.9593882 15.33647778 1.49560319 18 3 C18.7425 2.95875 19.485 2.9175 20.25 2.875 C25.41423635 3.10973802 29.78264705 6.18843137 34 9 C26.59005856 8.34887891 19.65307831 6.42228272 12.5 4.4375 C11.29601562 4.10814453 10.09203125 3.77878906 8.8515625 3.43945312 C5.89965982 2.63119406 2.94923686 1.81792254 0 1 C0 0.67 0 0.34 0 0 Z " fill="#DD99B7" transform="translate(344,240)"/>
<path d="M0 0 C1.0859375 1.796875 1.0859375 1.796875 2 4 C0.625 7.25 0.625 7.25 -1 10 C-1.99 10 -2.98 10 -4 10 C-4.33 11.32 -4.66 12.64 -5 14 C-5.66 14 -6.32 14 -7 14 C-7.061875 14.721875 -7.12375 15.44375 -7.1875 16.1875 C-8.24456647 19.84657625 -10.20550071 21.49211602 -13 24 C-11.45196735 18.23684231 -8.51721614 13.62543026 -5.375 8.625 C-4.859375 7.79355469 -4.34375 6.96210938 -3.8125 6.10546875 C-2.54713205 4.06682038 -1.27621134 2.03187118 0 0 Z " fill="#E099B9" transform="translate(117,165)"/>
<path d="M0 0 C6.11120094 0.09701468 10.60089059 1.68850336 16.00610352 4.32568359 C17.99912476 5.0129323 19.99577474 5.69084293 22.00610352 6.32568359 C18.76839679 7.38279991 16.72294681 7.23999735 13.45141602 6.36474609 C12.5890332 6.14044922 11.72665039 5.91615234 10.83813477 5.68505859 C9.4981543 5.32154297 9.4981543 5.32154297 8.13110352 4.95068359 C0.13847932 2.81868249 0.13847932 2.81868249 -7.99389648 1.32568359 C-8.32389648 2.31568359 -8.65389648 3.30568359 -8.99389648 4.32568359 C-9.32389648 3.33568359 -9.65389648 2.34568359 -9.99389648 1.32568359 C-7.73182966 -0.93638323 -3.04992606 0.01955313 0 0 Z " fill="#DD99B7" transform="translate(345.993896484375,287.67431640625)"/>
<path d="M0 0 C5.78351592 0.63092901 11.35617175 1.58671846 17 3 C17.87527344 3.2165625 18.75054687 3.433125 19.65234375 3.65625 C24.42284027 4.94519473 27.88800959 5.89783083 31 10 C25.02489024 8.82456857 19.5555718 7.16923645 13.86328125 5.01953125 C9.31821687 3.4011659 4.67190571 2.19282699 0 1 C0 0.67 0 0.34 0 0 Z " fill="#DF9EBB" transform="translate(378,249)"/>
<path d="M0 0 C0 0.66 0 1.32 0 2 C-1.98 2.33 -3.96 2.66 -6 3 C-6.33 4.65 -6.66 6.3 -7 8 C-10.73487777 7.5020163 -12.81237635 7.12508244 -16 5 C-16 4.34 -16 3.68 -16 3 C-13.70887834 2.49750857 -11.41708499 1.99807883 -9.125 1.5 C-7.84882813 1.2215625 -6.57265625 0.943125 -5.2578125 0.65625 C-2 0 -2 0 0 0 Z " fill="#AB9195" transform="translate(167,563)"/>
<path d="M0 0 C4.86981365 0.59387971 8.71810613 1.64915631 13 4 C13.9375 6.6875 13.9375 6.6875 14 9 C14.66 9 15.32 9 16 9 C16.33 10.32 16.66 11.64 17 13 C16.52691406 12.63648438 16.05382812 12.27296875 15.56640625 11.8984375 C11.05489665 8.46863488 6.45330548 5.26640099 1.6875 2.19921875 C1.130625 1.80347656 0.57375 1.40773437 0 1 C0 0.67 0 0.34 0 0 Z " fill="#E09AB9" transform="translate(119,32)"/>
<path d="M0 0 C-1.35374797 4.06124391 -3.26258828 4.60315649 -6.9375 6.6875 C-8.01902344 7.31011719 -9.10054687 7.93273437 -10.21484375 8.57421875 C-13 10 -13 10 -15 10 C-14.34 7.69 -13.68 5.38 -13 3 C-11.9275 3.061875 -10.855 3.12375 -9.75 3.1875 C-5.52049983 2.97602499 -3.69153625 0 0 0 Z " fill="#A88F94" transform="translate(189,584)"/>
<path d="M0 0 C1.85625 0.0309375 1.85625 0.0309375 3.75 0.0625 C3.75 0.3925 3.75 0.7225 3.75 1.0625 C2.574375 1.31 1.39875 1.5575 0.1875 1.8125 C-4.83276093 3.07871146 -9.78722633 4.77294121 -12.6875 9.3125 C-12.873125 9.89 -13.05875 10.4675 -13.25 11.0625 C-13.91 11.0625 -14.57 11.0625 -15.25 11.0625 C-15.58 11.7225 -15.91 12.3825 -16.25 13.0625 C-16.17526871 9.92378588 -15.86787334 7.76980238 -13.765625 5.36328125 C-9.26532183 1.39185987 -6.04237028 -0.10070617 0 0 Z " fill="#DE9BBA" transform="translate(92.25,28.9375)"/>
<path d="M0 0 C7.70173865 3.47497102 14.30169219 7.86802652 21 13 C20.01 13.33 19.02 13.66 18 14 C15.80078125 12.7421875 15.80078125 12.7421875 13.3125 10.875 C9.44584685 8.03036971 5.55108238 5.44756351 1.3984375 3.04296875 C0.93695313 2.69878906 0.47546875 2.35460937 0 2 C0 1.34 0 0.68 0 0 Z " fill="#DB99B6" transform="translate(315,182)"/>
<path d="M0 0 C0.33 0 0.66 0 1 0 C1 1.98 1 3.96 1 6 C0.01 6.495 0.01 6.495 -1 7 C-1.1546875 8.5778125 -1.1546875 8.5778125 -1.3125 10.1875 C-2.1739451 14.96460465 -3.71187553 16.54325376 -7 20 C-7.33 19.34 -7.66 18.68 -8 18 C-7.08982541 16.11223048 -6.16931098 14.22858946 -5.19140625 12.375 C-3.18078834 8.36694857 -1.61081552 4.18126582 0 0 Z " fill="#E8CEDB" transform="translate(15,64)"/>
<path d="M0 0 C4.91935902 4.11619836 9.52647956 8.40410362 14 13 C12 14 12 14 8.5 12.9375 C5.40826252 11.55771633 5.1101629 11.2698991 3.75 7.9375 C3.5025 6.968125 3.255 5.99875 3 5 C2.01 4.34 1.02 3.68 0 3 C0 2.01 0 1.02 0 0 Z " fill="#D4AFBF" transform="translate(406,250)"/>
<path d="M0 0 C0.66 0.33 1.32 0.66 2 1 C1.71800273 3.4389764 1.42484385 5.87570933 1.125 8.3125 C1.04636719 9.00279297 0.96773437 9.69308594 0.88671875 10.40429688 C0.44056153 13.95639471 0.02019807 15.9697029 -2 19 C-2.66 17.68 -3.32 16.36 -4 15 C-3.01 15 -2.02 15 -1 15 C-1 12.36 -1 9.72 -1 7 C-2.32 6.67 -3.64 6.34 -5 6 C-4.01 5.67 -3.02 5.34 -2 5 C-0.78130071 2.49552484 -0.78130071 2.49552484 0 0 Z " fill="#AA8E92" transform="translate(141,512)"/>
<path d="M0 0 C0.33 1.32 0.66 2.64 1 4 C0.071875 4.5878125 0.071875 4.5878125 -0.875 5.1875 C-3.18606668 6.85796058 -3.18606668 6.85796058 -3.9375 9.5625 C-5 12 -5 12 -7.625 13.3125 C-8.40875 13.539375 -9.1925 13.76625 -10 14 C-8.62815653 9.93501119 -6.77931541 7.32603439 -3.875 4.1875 C-3.15054687 3.39730469 -2.42609375 2.60710938 -1.6796875 1.79296875 C-1.12539063 1.20128906 -0.57109375 0.60960938 0 0 Z " fill="#E1A2BE" transform="translate(28,26)"/>
<path d="M0 0 C6.35219042 0.54881057 12.67873638 1.16511613 19 2 C19 2.33 19 2.66 19 3 C17.35 3 15.7 3 14 3 C14 3.66 14 4.32 14 5 C12.03964825 4.55037804 10.08175691 4.09001752 8.125 3.625 C7.03445313 3.36976563 5.94390625 3.11453125 4.8203125 2.8515625 C2 2 2 2 0 0 Z " fill="#FCE2F3" transform="translate(354,220)"/>
<path d="M0 0 C2.5419589 -0.05434116 5.08273682 -0.0938339 7.625 -0.125 C8.33785156 -0.14175781 9.05070312 -0.15851562 9.78515625 -0.17578125 C14.23421356 -0.21659829 17.85220559 0.17497046 22 2 C22.33 2.66 22.66 3.32 23 4 C22.01902344 3.85691406 21.03804687 3.71382812 20.02734375 3.56640625 C15.87838391 2.9736977 11.72186679 2.45123698 7.5625 1.9375 C6.83095703 1.84662109 6.09941406 1.75574219 5.34570312 1.66210938 C3.56387277 1.44083632 1.78194639 1.22033671 0 1 C0 0.67 0 0.34 0 0 Z " fill="#D99AB8" transform="translate(96,28)"/>
<path d="M0 0 C1.41750563 0.11509661 2.83401169 0.24253658 4.25 0.375 C5.03890625 0.44460938 5.8278125 0.51421875 6.640625 0.5859375 C9.085877 1.01507113 10.84836903 1.78600638 13 3 C12.01 3.99 11.02 4.98 10 6 C5 4 5 4 0 2 C0 1.34 0 0.68 0 0 Z " fill="#FDEAF7" transform="translate(357,271)"/>
<path d="M0 0 C0.33 0 0.66 0 1 0 C0.67 3.3 0.34 6.6 0 10 C-0.66 10 -1.32 10 -2 10 C-2 10.99 -2 11.98 -2 13 C-2.66 13 -3.32 13 -4 13 C-4 13.99 -4 14.98 -4 16 C-4.66 16 -5.32 16 -6 16 C-5.23757784 12.38944909 -3.87526626 9.14165375 -2.4375 5.75 C-1.98246094 4.67234375 -1.52742187 3.5946875 -1.05859375 2.484375 C-0.70925781 1.66453125 -0.35992187 0.8446875 0 0 Z " fill="#E0A3BE" transform="translate(140,123)"/>
<path d="M0 0 C0.66 0 1.32 0 2 0 C2.94721072 2.60482949 3.30222393 4.30674701 2.17578125 6.890625 C1.17063275 8.62582873 0.0893855 10.31640423 -1 12 C-1.66 11.67 -2.32 11.34 -3 11 C-2.01 7.37 -1.02 3.74 0 0 Z " fill="#E399BC" transform="translate(144,112)"/>
<path d="M0 0 C2.475 0.495 2.475 0.495 5 1 C5 1.66 5 2.32 5 3 C7.31 3.33 9.62 3.66 12 4 C11.01 5.32 10.02 6.64 9 8 C9 7.01 9 6.02 9 5 C7.88625 4.9175 6.7725 4.835 5.625 4.75 C2 4 2 4 0.5625 1.9375 C0.376875 1.298125 0.19125 0.65875 0 0 Z " fill="#D99BB9" transform="translate(207,348)"/>
<path d="M0 0 C2.375 0.75 2.375 0.75 5 2 C5.66666667 3.33333333 6.33333333 4.66666667 7 6 C9.53770003 7.28254644 9.53770003 7.28254644 12 8 C12 8.66 12 9.32 12 10 C7.60316512 8.80086322 4.90159066 7.5711885 2 4 C2 3.34 2 2.68 2 2 C1.34 2 0.68 2 0 2 C0 1.34 0 0.68 0 0 Z " fill="#DE9EBB" transform="translate(182,338)"/>
<path d="M0 0 C0.99 0.66 1.98 1.32 3 2 C1.21385682 3.03046722 -0.57910018 4.04913236 -2.375 5.0625 C-3.87160156 5.91521484 -3.87160156 5.91521484 -5.3984375 6.78515625 C-6.25695312 7.18605469 -7.11546875 7.58695312 -8 8 C-8.66 7.67 -9.32 7.34 -10 7 C-10 6.34 -10 5.68 -10 5 C-9.16855469 4.70996094 -9.16855469 4.70996094 -8.3203125 4.4140625 C-7.59585938 4.15367187 -6.87140625 3.89328125 -6.125 3.625 C-5.04605469 3.24214844 -5.04605469 3.24214844 -3.9453125 2.8515625 C-1.81842006 2.06122217 -1.81842006 2.06122217 0 0 Z " fill="#A98B90" transform="translate(238,429)"/>
<path d="M0 0 C4.16138263 -0.08159574 7.9472484 0.01751476 12 1 C12 1.66 12 2.32 12 3 C13.98 2.67 15.96 2.34 18 2 C18 2.66 18 3.32 18 4 C14.7 4 11.4 4 8 4 C8 3.34 8 2.68 8 2 C5.36 1.67 2.72 1.34 0 1 C0 0.67 0 0.34 0 0 Z " fill="#E394B7" transform="translate(378,222)"/>
<path d="M0 0 C-1.4375 2 -1.4375 2 -4 4 C-7.02824418 4.35442445 -9.96485939 4.23347235 -13 4 C-9.46158217 0.07321923 -5.14982091 -1.71660697 0 0 Z " fill="#E690B5" transform="translate(170,170)"/>
<path d="M0 0 C0.66 0 1.32 0 2 0 C2 1.32 2 2.64 2 4 C1.01 4 0.02 4 -1 4 C-1.33 6.31 -1.66 8.62 -2 11 C-2.99 11 -3.98 11 -5 11 C-4.54917531 9.53932801 -4.08906463 8.08151968 -3.625 6.625 C-3.36976562 5.81289063 -3.11453125 5.00078125 -2.8515625 4.1640625 C-2 2 -2 2 0 0 Z " fill="#A98D92" transform="translate(131,492)"/>
<path d="M0 0 C2.96659857 3.55991828 5.381348 7.65222543 7 12 C6.67 12.66 6.34 13.32 6 14 C5.67 13.01 5.34 12.02 5 11 C4.34 11 3.68 11 3 11 C2.525625 9.88625 2.05125 8.7725 1.5625 7.625 C0.74693537 5.73289006 -0.07856355 3.84287291 -1 2 C-0.67 1.34 -0.34 0.68 0 0 Z " fill="#B1979C" transform="translate(241,380)"/>
<path d="M0 0 C0.66 0 1.32 0 2 0 C2.66 0.66 3.32 1.32 4 2 C4.66 1.67 5.32 1.34 6 1 C6 3.31 6 5.62 6 8 C2.24623848 6.74874616 1.75926711 5.4347596 0 2 C0 1.34 0 0.68 0 0 Z " fill="#9F898C" transform="translate(146,518)"/>
<path d="M0 0 C6.94736842 -0.31578947 6.94736842 -0.31578947 10 2 C11.75 5.125 11.75 5.125 13 8 C12.34 8.66 11.68 9.32 11 10 C10.484375 8.88625 9.96875 7.7725 9.4375 6.625 C8.19467053 4.40405925 7.47129124 3.23514102 5.17578125 2.08984375 C3.04770412 1.47406597 3.04770412 1.47406597 0 1 C0 0.67 0 0.34 0 0 Z " fill="#DF96B7" transform="translate(170,328)"/>
<path d="M0 0 C6.19887485 -0.37952295 10.4477112 0.1647887 16 3 C12.23331402 4.3805087 9.55210827 3.59568159 5.75 2.5625 C4.13351562 2.13130859 4.13351562 2.13130859 2.484375 1.69140625 C1.25460937 1.34916016 1.25460937 1.34916016 0 1 C0 0.67 0 0.34 0 0 Z " fill="#E0A4BF" transform="translate(352,291)"/>
<path d="M0 0 C1 3 1 3 0.109375 5.2265625 C-0.33921875 6.01804688 -0.7878125 6.80953125 -1.25 7.625 C-1.68828125 8.42164063 -2.1265625 9.21828125 -2.578125 10.0390625 C-4 12 -4 12 -7 13 C-5.35821735 8.22390502 -2.73453298 4.20617096 0 0 Z " fill="#DD9EBB" transform="translate(129,146)"/>
<path d="M0 0 C3 1 3 1 4.1875 3.0625 C4.455625 3.701875 4.72375 4.34125 5 5 C4.34 5.66 3.68 6.32 3 7 C0.9375 6.8125 0.9375 6.8125 -1 6 C-1.33 5.01 -1.66 4.02 -2 3 C-1.34 3 -0.68 3 0 3 C0 2.01 0 1.02 0 0 Z " fill="#DA83A9" transform="translate(34,53)"/>
<path d="M0 0 C0.66 0 1.32 0 2 0 C2 0.66 2 1.32 2 2 C5.96 2 9.92 2 14 2 C14 2.33 14 2.66 14 3 C6.08 3.495 6.08 3.495 -2 4 C-1.34 2.68 -0.68 1.36 0 0 Z " fill="#E68DB4" transform="translate(93,25)"/>
<path d="M0 0 C0.66 0 1.32 0 2 0 C3.96189209 3.6678852 5.39301257 6.87248551 6 11 C5.34 11 4.68 11 4 11 C3.32880451 9.5437455 2.66318193 8.08492133 2 6.625 C1.62875 5.81289063 1.2575 5.00078125 0.875 4.1640625 C0 2 0 2 0 0 Z " fill="#A2888B" transform="translate(236,394)"/>
<path d="M0 0 C1.51400391 0.01740234 1.51400391 0.01740234 3.05859375 0.03515625 C4.07050781 0.04417969 5.08242187 0.05320312 6.125 0.0625 C7.29869141 0.07990234 7.29869141 0.07990234 8.49609375 0.09765625 C8.16609375 0.75765625 7.83609375 1.41765625 7.49609375 2.09765625 C4.85609375 1.76765625 2.21609375 1.43765625 -0.50390625 1.09765625 C-0.50390625 1.75765625 -0.50390625 2.41765625 -0.50390625 3.09765625 C-1.16390625 3.09765625 -1.82390625 3.09765625 -2.50390625 3.09765625 C-2.17390625 4.41765625 -1.84390625 5.73765625 -1.50390625 7.09765625 C-2.16390625 6.76765625 -2.82390625 6.43765625 -3.50390625 6.09765625 C-3.54662725 4.4315372 -3.54454457 2.7638274 -3.50390625 1.09765625 C-2.50390625 0.09765625 -2.50390625 0.09765625 0 0 Z " fill="#C591A2" transform="translate(220.50390625,352.90234375)"/>
<path d="M0 0 C0.99 0.33 1.98 0.66 3 1 C3 1.66 3 2.32 3 3 C4.1446875 3.37125 4.1446875 3.37125 5.3125 3.75 C8.2364045 5.10995558 9.30004356 6.31585826 11 9 C6.71193127 8.52354792 4.73352513 7.34097516 2 4 C2 3.34 2 2.68 2 2 C1.34 2 0.68 2 0 2 C0 1.34 0 0.68 0 0 Z " fill="#DFA1BD" transform="translate(395,267)"/>
<path d="M0 0 C0.66 0.33 1.32 0.66 2 1 C1.67 1.33 1.34 1.66 1 2 C2.65 2.33 4.3 2.66 6 3 C6 3.33 6 3.66 6 4 C2.04 4.66 -1.92 5.32 -6 6 C-4 4 -2 2 0 0 Z " fill="#F080B0" transform="translate(288,266)"/>
<path d="M0 0 C1.37562854 1.28965176 2.70766393 2.62689293 4 4 C4 4.66 4 5.32 4 6 C-1.75 5.25 -1.75 5.25 -4 3 C-2.68 3 -1.36 3 0 3 C0 2.01 0 1.02 0 0 Z " fill="#D7A4BD" transform="translate(412,282)"/>
<path d="M0 0 C0.66 0 1.32 0 2 0 C1.6875 1.875 1.6875 1.875 1 4 C-2.4352048 6.29013653 -3.985331 6.17842973 -8 6 C-7.4225 5.7525 -6.845 5.505 -6.25 5.25 C-3.86550111 4.06009525 -3.86550111 4.06009525 -1.875 1.875 C-0.946875 0.946875 -0.946875 0.946875 0 0 Z " fill="#C47C9A" transform="translate(49,53)"/>
<path d="M0 0 C0.66 0 1.32 0 2 0 C1 3 1 3 -1.3125 4.8125 C-4 6 -4 6 -6.3125 5.1875 C-6.869375 4.795625 -7.42625 4.40375 -8 4 C-6.865625 3.525625 -5.73125 3.05125 -4.5625 2.5625 C-1.24259834 1.36377917 -1.24259834 1.36377917 0 0 Z " fill="#A4888E" transform="translate(187,584)"/>
<path d="M0 0 C0.33 0 0.66 0 1 0 C0.50769231 7.50769231 0.50769231 7.50769231 -2.0625 10 C-3.0215625 10.495 -3.0215625 10.495 -4 11 C-3.21681311 7.08406554 -1.60820142 3.63593365 0 0 Z " fill="#A99395" transform="translate(208,420)"/>
<path d="M0 0 C1.17539996 0.92652701 2.34010577 1.86663387 3.5 2.8125 C4.1496875 3.33457031 4.799375 3.85664063 5.46875 4.39453125 C7 6 7 6 7 9 C6.34 9 5.68 9 5 9 C3.98133771 7.34467377 2.98189187 5.67739862 2 4 C1.34 3.67 0.68 3.34 0 3 C0 2.01 0 1.02 0 0 Z " fill="#DA9DB8" transform="translate(406,250)"/>
<path d="M0 0 C0.33 0.99 0.66 1.98 1 3 C0 5 0 5 -1.9375 5.75 C-2.618125 5.8325 -3.29875 5.915 -4 6 C-4.66 5.34 -5.32 4.68 -6 4 C-4.02 2.68 -2.04 1.36 0 0 Z " fill="#A98D91" transform="translate(230,423)"/>
<path d="M0 0 C3.3 0.99 6.6 1.98 10 3 C5.03429151 4.24142712 2.84452938 3.37261666 -2 2 C-1.34 1.34 -0.68 0.68 0 0 Z " fill="#DEA6C0" transform="translate(167,327)"/>
<path d="M0 0 C1.65 0 3.3 0 5 0 C4.67 2.31 4.34 4.62 4 7 C2 6 2 6 0.875 2.9375 C0.58625 1.968125 0.2975 0.99875 0 0 Z " fill="#AA9A9B" transform="translate(127,521)"/>
<path d="M0 0 C0.66 0.33 1.32 0.66 2 1 C1 4 1 4 -0.875 5.25 C-3 6 -3 6 -6 5 C-4.02 3.35 -2.04 1.7 0 0 Z " fill="#DFA3BE" transform="translate(35,20)"/>
</svg>
