<?xml version="1.0" encoding="iso-8859-1"?>
<!-- Uploaded to: SVG Repo, www.svgrepo.com, Generator: SVG Repo Mixer Tools -->
<svg height="800px" width="800px" version="1.1" id="Layer_1" xmlns="http://www.w3.org/2000/svg" xmlns:xlink="http://www.w3.org/1999/xlink" 
	 viewBox="0 0 512 512" xml:space="preserve">
<g>
	<path style="fill:#D88C62;" d="M158.311,497.624c-28.578,0-60.356-16.684-85.005-44.628
		c-26.834-30.421-41.612-68.964-41.612-108.53c0-51.349,25.154-96.329,45.367-132.47c14.213-25.423,25.406-45.445,25.406-62.157
		c0-30.053-36.633-47.876-52.383-54.143l-2.29-0.911l1.153-2.178c4.7-8.878,13.222-22.235,27.138-35.457
		c29.863-28.383,69.433-42.775,117.613-42.775c48.611,0,84.633,25.439,107.061,75.609c13.878,31.034,18.091,62.178,19.258,74.126
		l0.154,1.581l-1.449,0.651c-22.128,9.948-54.24,31.151-72.799,52.429l-0.94,1.077l-1.368-0.415
		c-10.554-3.2-21.489-4.821-32.501-4.821c-27.939,0-55.072,10.473-76.4,29.491c-43.979,39.223-54.635,104.543-28.505,174.732
		c0.885,2.365,3.177,3.957,5.702,3.957c0.732,0,1.446-0.128,2.124-0.38c3.137-1.172,4.743-4.684,3.575-7.829
		c-24.318-65.309-14.9-125.645,25.195-161.394c19.098-17.03,43.378-26.408,68.368-26.408c15.685,0,31.419,3.786,45.497,10.949
		c0.866,0.441,1.793,0.665,2.754,0.665c2.305,0,4.386-1.274,5.431-3.324c0.732-1.444,0.858-3.093,0.355-4.639
		c-0.504-1.545-1.577-2.799-3.022-3.532c-0.75-0.38-1.501-0.74-2.251-1.099l-2.759-1.323l2.06-2.234
		c20.791-21.615,51.376-38.841,64.644-44.931l3.269-1.501l-0.136,3.594c-0.182,4.817,0.126,7.431,0.129,7.458
		c0.341,3.107,2.932,5.431,6.032,5.431c0.232,0,0.463-0.007,0.694-0.032c3.319-0.37,5.732-3.389,5.367-6.728
		c-0.019-0.113-2.288-21.132,12.456-51.144l1.591-3.241l2.164,2.891c5.269,7.041,12.652,20.436,17.895,44.264
		c0.615,2.763,3.111,4.774,5.935,4.774c0.439,0,0.881-0.049,1.316-0.144c1.588-0.349,2.944-1.295,3.817-2.663
		c0.874-1.369,1.162-2.998,0.813-4.589c-0.498-2.285-1.052-4.597-1.694-7.073l-0.899-3.46l3.498,0.741
		c31.354,6.639,51.815,27.555,63.459,43.931c13.873,19.474,19.761,38.476,20.859,44.155l0.163,0.842l-0.447,0.732
		c-1.268,2.076-4.14,6.017-9.119,9.089c-4.883,3.016-10.763,4.544-17.478,4.544c-7.473,0.001-15.922-1.892-25.111-5.626
		c-0.733-0.299-1.5-0.45-2.281-0.45c-2.489,0-4.703,1.492-5.642,3.8c-0.613,1.502-0.6,3.153,0.032,4.65
		c0.633,1.498,1.811,2.661,3.318,3.273c3.445,1.401,6.857,2.592,10.142,3.541l4.998,1.442l-4.507,2.599
		c-10.908,6.29-32.5,13.786-73.421,13.788c-1.802,0-3.636-0.014-5.515-0.044h-0.097c-3.305,0-6.033,2.684-6.082,5.981
		c-0.056,3.355,2.63,6.126,5.987,6.183l0.103,0.001c1.91,0.022,3.787,0.043,5.633,0.043c31.319,0,56.134-4.161,73.755-12.367
		c5.675-2.484,12.213-3.732,19.478-3.732c8.874,0,16.864,1.943,20.846,3.868l0.111,0.053l0.104,0.065
		c4.678,2.939,11.297,19.328,13.597,26.353l0.629,1.921l-1.858,0.799c-6.157,2.648-16.103,5.319-24.442,5.32
		c-3.996,0-7.447-0.593-10.255-1.76c-3.787-1.575-7.64-2.373-11.451-2.373c-13.822,0-25.91,10.216-35.911,20.208
		c-16.145,16.156-60.922,34.739-87.112,36.152l-2.369,0.128l0.039-2.372c0.21-13.094-1.918-24.936-6.324-35.198
		c-12.37-28.84-41.457-44.127-86.454-45.439l-0.142-0.001c-3.33,0-6.014,2.594-6.11,5.906c-0.046,1.624,0.542,3.17,1.658,4.355
		c1.116,1.183,2.624,1.861,4.246,1.908c39.841,1.154,65.286,13.962,75.628,38.064c15.88,37.046-7.398,87.912-17.673,102.248
		l-0.661,0.92h-14.826c-3.354,0-6.082,2.728-6.082,6.082s2.728,6.082,6.082,6.082h61.927c9.496,0,25.872,3.846,28.847,29.604
		l0.285,2.465H158.311z M417.451,212.32c-5.792,0-10.505,4.713-10.505,10.505c0,5.792,4.713,10.505,10.505,10.505
		s10.505-4.713,10.505-10.505C427.957,217.033,423.244,212.32,417.451,212.32z"/>
	<path style="fill:#D88C62;" d="M464.239,298.121c3.66,2.3,9.93,16.798,12.673,25.169c-7.354,3.163-23.399,7.531-32.976,3.55
		c-19.573-8.139-36.139,4.689-49.773,18.313c-15.99,16.001-60.257,34.137-85.669,35.508c0.199-12.385-1.626-24.749-6.502-36.105
		c-12.739-29.703-42.486-45.439-88.422-46.777c-4.578-0.111-8.393,3.472-8.526,8.05c-0.133,4.578,3.472,8.404,8.05,8.537
		c38.903,1.128,63.685,13.48,73.659,36.725c15.106,35.243-6.359,84.629-17.439,100.089h-13.69c-4.578,0-8.294,3.716-8.294,8.294
		s3.716,8.294,8.294,8.294h61.927c9.145,0,23.897,3.815,26.651,27.646h-185.89c-27.955,0-59.107-16.399-83.347-43.879
		c-26.474-30.012-41.06-68.031-41.06-107.067c0-50.791,25.014-95.5,45.107-131.428c14.343-25.655,25.666-45.903,25.666-63.198
		c0-31.085-36.382-49.276-53.777-56.198c4.291-8.106,12.695-21.575,26.706-34.889c29.437-27.978,68.495-42.165,116.09-42.165
		c47.661,0,83.004,25.003,105.043,74.301c13.956,31.207,18.047,62.911,19.076,73.438c-20.613,9.267-53.998,30.565-73.56,52.991
		c-38.151-11.567-79.974-2.543-111.014,25.136c-44.687,39.854-55.568,106.071-29.105,177.154c1.25,3.34,4.412,5.396,7.774,5.396
		c0.962,0,1.946-0.166,2.897-0.52c4.291-1.603,6.469-6.381,4.877-10.671c-23.985-64.415-14.796-123.853,24.594-158.974
		c31.151-27.778,74.876-33.717,111.39-15.139c4.081,2.079,9.079,0.453,11.158-3.627c2.068-4.081,0.442-9.079-3.638-11.147
		c-0.785-0.398-1.57-0.774-2.355-1.15c19.828-20.613,49.01-37.587,63.972-44.454c-0.177,4.678,0.1,7.442,0.144,7.807
		c0.464,4.246,4.058,7.376,8.227,7.376c0.31,0,0.619-0.011,0.929-0.044c4.556-0.509,7.829-4.611,7.332-9.167
		c-0.033-0.221-2.09-20.756,12.242-49.928c5.098,6.812,12.33,19.894,17.505,43.415c0.995,4.479,5.419,7.298,9.886,6.314
		c4.479-0.984,7.298-5.408,6.314-9.886c-0.542-2.488-1.117-4.855-1.714-7.155c30.388,6.436,50.415,26.595,62.115,43.05
		c13.392,18.799,19.319,37.233,20.491,43.293c-1.216,1.99-3.859,5.562-8.393,8.36c-9.742,6.016-23.775,5.584-40.595-1.25
		c-4.235-1.725-9.079,0.321-10.804,4.567c-1.725,4.235,0.321,9.079,4.567,10.804c3.616,1.471,7.066,2.665,10.362,3.616
		c-10.76,6.204-33.319,14.155-77.795,13.447c-0.044,0-0.088,0-0.133,0c-4.523,0-8.227,3.627-8.294,8.161
		c-0.077,4.578,3.583,8.349,8.161,8.426c1.957,0.022,3.881,0.044,5.772,0.044c37.366,0,60.511-5.971,74.688-12.573
		C439.966,291.807,457.858,295.036,464.239,298.121z M430.168,222.825c0-7.011-5.706-12.717-12.717-12.717
		c-7.022,0-12.717,5.706-12.717,12.717c0,7.011,5.695,12.717,12.717,12.717C424.462,235.542,430.168,229.836,430.168,222.825z"/>
</g>
<g>
	<path style="fill:#3D484A;" d="M494.683,326.817c0,3.351-1.78,6.226-5.275,8.559c-7.442,4.965-33.805,14.287-51.841,6.779
		c-6.215-2.588-14.354-2.588-31.671,14.73c-19.319,19.319-69.457,39.721-98.817,40.429c-3.13,20.878-10.892,40.496-18.279,53.865
		h28.752c21.121,0,43.68,13.801,43.68,52.527c0,4.578-3.716,8.294-8.294,8.294H158.311c-32.644,0-68.451-18.501-95.787-49.497
		c-29.15-33.042-45.206-74.964-45.206-118.036c0-55.115,26.175-101.913,47.219-139.523c12.64-22.614,23.554-42.132,23.554-55.104
		c0-13.757-13.137-24.638-24.162-31.339c-13.159-7.995-26.662-12.153-26.805-12.197c-2.178-0.663-4.003-2.201-5.009-4.246
		c-1.017-2.046-1.15-4.423-0.365-6.558c0.376-0.995,9.267-24.583,33.783-48.148C88.002,25.755,128.487,0,193.697,0
		c54.175,0,95.798,29.238,120.381,84.541c9.875,22.238,15.073,44.277,17.782,59.991c2.698-7.674,6.414-16.101,11.479-25.047v-16.256
		c0-4.578,3.705-8.294,8.294-8.294c4.578,0,8.294,3.716,8.294,8.294v14.398c4.888,4.368,13.038,13.889,20.17,32.677
		c0.088,0.011,0.166,0.011,0.254,0.022c40.761,5.264,66.682,30.963,81.257,51.587c15.117,21.398,23.477,45.56,23.477,54.086
		c0,1.073-0.21,2.145-0.619,3.141c-0.088,0.232-6.06,14.155-22.194,20.889c3.716,0.918,6.889,2.046,9.289,3.207
		c3.638,1.758,9.311,6.06,16.543,22.957C489.496,309.434,494.683,322.449,494.683,326.817z M476.912,323.29
		c-2.742-8.371-9.013-22.869-12.673-25.169c-6.381-3.085-24.273-6.314-38.428-0.122c-14.177,6.602-37.322,12.573-74.688,12.573
		c-1.891,0-3.815-0.022-5.772-0.044c-4.578-0.077-8.238-3.848-8.161-8.426c0.066-4.534,3.771-8.161,8.294-8.161
		c0.044,0,0.088,0,0.133,0c44.477,0.708,67.036-7.243,77.795-13.447c-3.295-0.951-6.746-2.145-10.362-3.616
		c-4.246-1.725-6.292-6.569-4.567-10.804c1.725-4.246,6.569-6.292,10.804-4.567c16.82,6.834,30.853,7.265,40.595,1.25
		c4.534-2.798,7.177-6.37,8.393-8.36c-1.172-6.06-7.099-24.494-20.491-43.293c-11.7-16.455-31.726-36.614-62.115-43.05
		c0.597,2.3,1.172,4.667,1.714,7.155c0.984,4.479-1.836,8.902-6.314,9.886c-4.468,0.984-8.891-1.836-9.886-6.314
		c-5.175-23.521-12.407-36.603-17.505-43.415c-14.332,29.172-12.275,49.707-12.242,49.928c0.498,4.556-2.776,8.659-7.332,9.167
		c-0.31,0.033-0.619,0.044-0.929,0.044c-4.169,0-7.763-3.13-8.227-7.376c-0.044-0.365-0.321-3.13-0.144-7.807
		c-14.962,6.867-44.145,23.842-63.972,44.454c0.785,0.376,1.57,0.752,2.355,1.15c4.081,2.068,5.706,7.066,3.638,11.147
		c-2.079,4.081-7.077,5.706-11.158,3.627c-36.515-18.578-80.239-12.64-111.39,15.139c-39.39,35.121-48.579,94.56-24.594,158.974
		c1.592,4.291-0.586,9.068-4.877,10.671c-0.951,0.354-1.935,0.52-2.897,0.52c-3.362,0-6.524-2.057-7.774-5.396
		c-26.463-71.083-15.581-137.3,29.105-177.154c31.041-27.679,72.863-36.703,111.014-25.136
		c19.562-22.426,52.947-43.725,73.56-52.991c-1.028-10.528-5.12-42.232-19.076-73.438c-22.039-49.298-57.382-74.301-105.043-74.301
		c-47.595,0-86.653,14.188-116.09,42.165C63.596,72.067,55.192,85.536,50.901,93.642c17.395,6.923,53.777,25.113,53.777,56.198
		c0,17.295-11.324,37.543-25.666,63.198c-20.093,35.928-45.107,80.637-45.107,131.428c0,39.036,14.586,77.054,41.06,107.067
		c24.24,27.48,55.391,43.879,83.347,43.879h185.89c-2.754-23.831-17.505-27.646-26.651-27.646h-61.927
		c-4.578,0-8.294-3.716-8.294-8.294s3.716-8.294,8.294-8.294h13.69c11.08-15.46,32.545-64.846,17.439-100.089
		c-9.975-23.245-34.756-35.597-73.659-36.725c-4.578-0.133-8.183-3.959-8.05-8.537s3.948-8.161,8.526-8.05
		c45.936,1.338,75.683,17.074,88.422,46.777c4.877,11.357,6.701,23.72,6.502,36.105c25.412-1.371,69.678-19.507,85.669-35.508
		c13.635-13.624,30.2-26.452,49.773-18.313C453.513,330.821,469.558,326.453,476.912,323.29z"/>
	<path style="fill:#3D484A;" d="M417.451,210.108c7.011,0,12.717,5.706,12.717,12.717c0,7.011-5.706,12.717-12.717,12.717
		c-7.022,0-12.717-5.706-12.717-12.717C404.734,215.814,410.429,210.108,417.451,210.108z"/>
</g>
</svg>