<?xml version="1.0" ?>
<!-- Uploaded to: SVG Repo, www.svgrepo.com, Generator: SVG Repo Mixer Tools -->
<svg width="800px" height="800px" viewBox="0 0 64 64" xmlns="http://www.w3.org/2000/svg">
<defs>
<style>.cls-1{fill:#efc89d;}.cls-2{fill:#ebb87f;}.cls-3{fill:#748a95;}.cls-4{fill:#617880;}.cls-5{fill:#e5936b;}.cls-6{fill:#e17c46;}.cls-7{fill:#252b48;}</style>
</defs>
<g data-name="Table" id="Table-4">
<path class="cls-1" d="M37.86,29.82H13.11l-2.82-4.46,2.84-8.8H38.71L41.26,25Z" id="path46195-1-1"/>
<path class="cls-2" d="M39.23,18.29,33.79,20v9.86h4.07L41.25,25Z" id="path265384"/>
<path class="cls-3" d="M54.64,20V47.14a2.41,2.41,0,0,1-2.4,2.41h-12a2.41,2.41,0,0,1-2.41-2.41V20l8.39-2.57Z" id="path184262-5"/>
<path class="cls-4" d="M42.32,20v2.42a1.92,1.92,0,0,0,1.92,1.92h4a1.91,1.91,0,0,0,1.92-1.92V20Z" id="path184264-0"/>
<path class="cls-4" d="M42.32,29.82v2.42a1.92,1.92,0,0,0,1.92,1.93h4a1.92,1.92,0,0,0,1.92-1.93V29.82Z" id="path184266-9"/>
<path class="cls-4" d="M42.32,39.68v2.43A1.92,1.92,0,0,0,44.24,44h4a1.91,1.91,0,0,0,1.92-1.92V39.68Z" id="path184268-6"/>
<path class="cls-3" d="M9.36,20V47.67a1.88,1.88,0,1,0,3.75,0V20l-1.88-1.61Z" id="path42600-4-5-3"/>
<path class="cls-4" d="M11.23,18.35,9.36,20V24.2h3.75V20Z" id="rect136481-9-8"/>
<path class="cls-5" d="M9.36,14.45H54.64A1.36,1.36,0,0,1,56,15.81V18.6A1.36,1.36,0,0,1,54.64,20H9.36A1.36,1.36,0,0,1,8,18.6V15.81A1.36,1.36,0,0,1,9.36,14.45Z" id="path184278-5"/>
<path class="cls-6" d="M50,14.45a1.36,1.36,0,0,1,1.36,1.36V18.6A1.36,1.36,0,0,1,50,20h4.66A1.36,1.36,0,0,0,56,18.6V15.81a1.36,1.36,0,0,0-1.36-1.36Z" id="path184280-6"/>
<path class="cls-7" d="M54.64,13.45H9.36A2.36,2.36,0,0,0,7,15.81V18.6a2.36,2.36,0,0,0,1.36,2.13V47.67a2.88,2.88,0,1,0,5.75,0V30.82H36.86V47.14a3.41,3.41,0,0,0,3.41,3.41h12a3.41,3.41,0,0,0,3.4-3.41V20.73A2.36,2.36,0,0,0,57,18.6V15.81A2.36,2.36,0,0,0,54.64,13.45ZM9,15.81a.36.36,0,0,1,.36-.36H54.64a.36.36,0,0,1,.36.36V18.6a.36.36,0,0,1-.36.36H9.36A.36.36,0,0,1,9,18.6ZM43.32,40.68h5.86v1.43a.92.92,0,0,1-.92.92h-4a.92.92,0,0,1-.92-.92Zm-4.46-2V30.82h2.46v1.42a2.93,2.93,0,0,0,2.92,2.93h4a2.93,2.93,0,0,0,2.92-2.93V30.82h2.46v7.86Zm10.32-7.86v1.42a.93.93,0,0,1-.92.93h-4a.93.93,0,0,1-.92-.93V30.82Zm4.46-2H38.86V21h2.46v1.42a2.92,2.92,0,0,0,2.92,2.92h4a2.92,2.92,0,0,0,2.92-2.92V21h2.46ZM49.18,21v1.42a.92.92,0,0,1-.92.92h-4a.92.92,0,0,1-.92-.92V21ZM11.24,48.55a.87.87,0,0,1-.88-.88V21h1.75v8.86h0V47.67A.87.87,0,0,1,11.24,48.55ZM14.11,21H36.86v7.86H14.11ZM52.24,48.55h-12a1.41,1.41,0,0,1-1.41-1.41V40.68h2.46v1.43A2.92,2.92,0,0,0,44.24,45h4a2.92,2.92,0,0,0,2.92-2.92V40.68h2.46v6.46A1.41,1.41,0,0,1,52.24,48.55Z"/>
<path class="cls-7" d="M28.37,23.89H21.14a1,1,0,0,0,0,2h7.23a1,1,0,1,0,0-2Z"/>
</g>
</svg>