<?xml version="1.0" encoding="UTF-8"?>
<svg version="1.1" xmlns="http://www.w3.org/2000/svg" width="239" height="211">
<path d="M0 0 C78.87 0 157.74 0 239 0 C239 69.63 239 139.26 239 211 C160.13 211 81.26 211 0 211 C0 141.37 0 71.74 0 0 Z " fill="#3F2479" transform="translate(0,0)"/>
<path d="M0 0 C36.96 0 73.92 0 112 0 C112 0.33 112 0.66 112 1 C110.76636719 1.31130859 110.76636719 1.31130859 109.5078125 1.62890625 C97.49208541 4.94502493 88.39528917 10.48778424 81.66796875 21.1015625 C72.77126846 37.17475517 72.21817038 54.57333222 77 72 C77.71452428 74.00527781 78.44323096 76.00557085 79.1875 78 C82.11847994 86.52029052 82.6695501 95.32501878 78.8125 103.625 C76.16347808 108.55302173 72.96502546 111.39364929 67.58203125 113.0546875 C65.71611328 113.46074219 65.71611328 113.46074219 63.8125 113.875 C53.28512958 116.42475784 45.24805374 120.98424075 39 130 C36.36904405 134.51477149 35.40275706 138.70543093 34.6875 143.8125 C33.56305988 150.70906605 31.63609956 155.62801162 27 161 C26.319375 161.86625 25.63875 162.7325 24.9375 163.625 C23 165 23 165 20.4375 165.0625 C17.26950811 163.68158046 16.51843179 162.03686357 15 159 C13.43090241 157.43090241 11.85953743 157.67981135 9.6875 157.5625 C7.25374629 157.48886495 7.25374629 157.48886495 5 158 C2.43319686 160.84730711 2.43319686 160.84730711 1 164 C0.67 164 0.34 164 0 164 C0 109.88 0 55.76 0 0 Z " fill="#FEFEFE" transform="translate(0,0)"/>
<path d="M0 0 C37.95 0 75.9 0 115 0 C115 37.62 115 75.24 115 114 C113.68 112.35 112.36 110.7 111 109 C106.18460288 105.82621554 102.59633422 105.53363882 97 106 C94.4345406 108.5654594 94.45953913 110.47686668 94 114 C96.31 114.66 98.62 115.32 101 116 C101 117.65 101 119.3 101 121 C96.03053806 124.05813042 91.71012078 125.17033881 86 124 C82.71556448 122.34952989 79.89003628 120.25967717 77 118 C67.91279308 110.95891914 57.74733948 107.35743537 46.3125 106.5625 C41.13522808 106.14717252 38.04838028 105.15407066 34.41015625 101.328125 C27.17372758 89.38100176 35.94680763 65.56061573 39 53 C39.33 52.01 39.66 51.02 40 50 C40.96461919 35.89343224 40.96461919 35.89343224 36 23 C35.443125 21.989375 34.88625 20.97875 34.3125 19.9375 C25.63429968 8.91384013 13.86381972 2.81512764 0 1 C0 0.67 0 0.34 0 0 Z " fill="#FEFDFE" transform="translate(124,0)"/>
<path d="M0 0 C0.33 0 0.66 0 1 0 C1 29.7 1 59.4 1 90 C-50.81 90 -102.62 90 -156 90 C-154.04297985 88.6953199 -152.06417543 87.42257633 -150.0625 86.1875 C-143.3834964 81.41678314 -140.58021061 74.87205838 -139 67 C-138.90734839 65.04341593 -138.87001585 63.0837702 -138.875 61.125 C-138.87242187 60.11695313 -138.86984375 59.10890625 -138.8671875 58.0703125 C-138.93194914 55.02777508 -138.93194914 55.02777508 -139.49560547 52.18041992 C-140.33815286 46.86780382 -140.22591022 41.55651033 -140.25 36.1875 C-140.270625 35.04990234 -140.29125 33.91230469 -140.3125 32.74023438 C-140.35848124 22.7795476 -139.08007181 15.26161212 -132 8 C-128.89079391 6.44539695 -125.36916972 6.27279307 -122 7 C-115.02863555 14.90393979 -115.51981423 26.51255307 -115.375 36.4375 C-115.68888302 53.36767849 -115.68888302 53.36767849 -111.5625 69.5 C-111.13066406 70.4590625 -110.69882813 71.418125 -110.25390625 72.40625 C-109.84011719 73.2621875 -109.42632812 74.118125 -109 75 C-108.65195313 75.7528125 -108.30390625 76.505625 -107.9453125 77.28125 C-106.66394781 79.61100399 -105.43564596 79.94674769 -103 81 C-101.515 82.051875 -101.515 82.051875 -100 83.125 C-94.99000033 86.01413588 -89.59678627 85.62014252 -84 85 C-80.31959956 84.20904064 -80.31959956 84.20904064 -78 82 C-76.84516561 78.50260082 -76.84516561 78.50260082 -77 75 C-79.8343354 72.1656646 -81.86365984 72.79961893 -85.8125 72.75 C-92.57682101 72.32161603 -92.57682101 72.32161603 -96.125 69.625 C-97.12109375 67.96875 -97.12109375 67.96875 -98 66 C-98.36222656 65.2471875 -98.72445312 64.494375 -99.09765625 63.71875 C-106.36224138 46.42955815 -105.35961577 24.2539876 -103 6 C-101.1640625 5.4140625 -101.1640625 5.4140625 -99 5 C-96.69990271 6.20481287 -95.00304777 7.37950857 -93 9 C-92.25492188 9.59941406 -91.50984375 10.19882813 -90.7421875 10.81640625 C-76.99005107 22.52081076 -68.58971044 36.36951821 -63.92578125 53.796875 C-61.95812091 60.60481372 -58.60342146 68.27090227 -52.25390625 72.03515625 C-42.98341959 76.04552774 -34.97230555 74.03256265 -25.8828125 70.484375 C-22.90036236 68.94869607 -21.06524415 67.63648189 -19 65 C-18.21242976 61.91489728 -18.34396702 59.10902586 -19 56 C-21.5676089 52.90376574 -23.11369394 52.14470303 -27.0625 51.5 C-30.72597134 52.12356959 -31.72957656 53.10325285 -34 56 C-35.03357147 57.64605826 -36.04060332 59.30963442 -37 61 C-38 62 -38 62 -40.8125 62.3125 C-44 62 -44 62 -46.3125 60.1875 C-48.89802839 56.83588913 -49.10631902 54.0316651 -49.3125 49.9375 C-50.45451511 37.00034377 -57.04760138 28.3772477 -66.5625 20 C-71.10174407 15.97416008 -75.73390513 11.76143931 -78 6 C-77.640625 3.23828125 -77.640625 3.23828125 -77 1 C-63.94509805 -0.22135257 -52.60854463 4.47560815 -41.78125 11.3515625 C-35.89317432 14.84140511 -30.91034914 16.5185178 -24.0625 16.375 C-23.35883301 16.36412354 -22.65516602 16.35324707 -21.93017578 16.34204102 C-15.7785142 16.15305535 -11.01553026 15.68952699 -6.265625 11.453125 C-3.01255581 7.95220292 -1.14742261 4.70443269 0 0 Z " fill="#FCFBFC" transform="translate(238,121)"/>
<path d="M0 0 C6.17415902 4.7784679 11.95146937 9.68352648 15 17 C14.67 17.66 14.34 18.32 14 19 C12.02 18.34 10.04 17.68 8 17 C8.16242188 17.82757812 8.32484375 18.65515625 8.4921875 19.5078125 C9.04633986 23.31867564 9.15045623 27.03474642 9.125 30.875 C9.12306641 31.57882813 9.12113281 32.28265625 9.11914062 33.0078125 C9.07955805 37.75772193 8.7801511 42.31909339 8 47 C7.34 47 6.68 47 6 47 C5.97421875 47.83402344 5.9484375 48.66804688 5.921875 49.52734375 C5.55314542 56.84327377 4.5712507 62.57174875 1 69 C-2.375 69.1875 -2.375 69.1875 -6 69 C-8.45811625 65.31282562 -8.31118164 63.35654296 -8 59 C-7.01 57.515 -7.01 57.515 -6 56 C-8.97 56 -11.94 56 -15 56 C-14.01 56.99 -14.01 56.99 -13 58 C-14.65 57.67 -16.3 57.34 -18 57 C-17.67 57.66 -17.34 58.32 -17 59 C-17.66 59 -18.32 59 -19 59 C-18.67 59.66 -18.34 60.32 -18 61 C-17.34 60.34 -16.68 59.68 -16 59 C-12.875 58.875 -12.875 58.875 -10 59 C-10 61.64 -10 64.28 -10 67 C-10.99 66.01 -10.99 66.01 -12 65 C-11.67 66.32 -11.34 67.64 -11 69 C-12.11375 69.2165625 -12.11375 69.2165625 -13.25 69.4375 C-15.52027739 69.90187492 -17.75759479 70.41863569 -20 71 C-19.01 69.02 -18.02 67.04 -17 65 C-17.92619141 65.34224609 -17.92619141 65.34224609 -18.87109375 65.69140625 C-24.86040578 67.7243082 -29.8023058 68.60368352 -36 67 C-36.70125 66.6390625 -37.4025 66.278125 -38.125 65.90625 C-40.00491216 64.73117176 -40.00491216 64.73117176 -42.125 65.6875 C-44.28070403 67.02721835 -44.28070403 67.02721835 -46 70 C-46.99 70 -47.98 70 -49 70 C-49 69.34 -49 68.68 -49 68 C-50.051875 68.2475 -51.10375 68.495 -52.1875 68.75 C-56 69 -56 69 -58.9375 67.5 C-61 65 -61 65 -61.3125 61.25 C-61.209375 60.1775 -61.10625 59.105 -61 58 C-61.66 58 -62.32 58 -63 58 C-63.02126953 59.12148437 -63.02126953 59.12148437 -63.04296875 60.265625 C-63.09066406 61.25046875 -63.13835937 62.2353125 -63.1875 63.25 C-63.22230469 64.22453125 -63.25710937 65.1990625 -63.29296875 66.203125 C-64.21994051 69.8700409 -65.92339868 70.93911873 -69 73 C-69.81639318 70.12605502 -70.62822141 67.2509487 -71.4375 64.375 C-71.66759766 63.56675781 -71.89769531 62.75851563 -72.13476562 61.92578125 C-76.82850207 45.19159044 -76.0815317 27.78903912 -67.53125 12.3046875 C-60.42353167 1.60684614 -51.42589012 -5.55917786 -38.84765625 -8.53125 C-25.03053877 -10.80567263 -11.77485865 -7.41552363 0 0 Z " fill="#3F237A" transform="translate(148,9)"/>
<path d="M0 0 C0.95119681 3.21759178 1.13742991 6.13427949 1.16113281 9.48364258 C1.17074036 10.58190872 1.1803479 11.68017487 1.19024658 12.8117218 C1.19449646 13.99404892 1.19874634 15.17637604 1.203125 16.39453125 C1.20882507 17.61524826 1.21452515 18.83596527 1.22039795 20.09367371 C1.22984352 22.67677952 1.23638017 25.25989737 1.24023438 27.84301758 C1.24993686 31.78683582 1.28096423 35.73013224 1.3125 39.67382812 C1.3190306 42.18489274 1.32428085 44.69596108 1.328125 47.20703125 C1.3404718 48.38328568 1.3528186 49.5595401 1.36553955 50.7714386 C1.34875381 56.96714966 0.99696107 61.52980422 -2 67 C-2.66386719 67.02578125 -3.32773438 67.0515625 -4.01171875 67.078125 C-8.21336175 67.34801156 -11.35260492 67.66335456 -15.125 69.625 C-17.26264449 71.95311263 -17.26264449 71.95311263 -17.625 75.375 C-17.17131552 79.81179988 -17.17131552 79.81179988 -12 85 C-36.42 85 -60.84 85 -86 85 C-86 71.14 -86 57.28 -86 43 C-85.01 44.32 -84.02 45.64 -83 47 C-79.99943612 50.39194178 -77.4177642 51.84815975 -72.86328125 52.3359375 C-64.51748947 52.42775039 -57.66735128 52.15332581 -51.2265625 46.421875 C-46.34587899 41.13645188 -44.01838268 35.74760752 -43.5625 28.5625 C-43.07446093 21.7205676 -41.28373015 17.26312506 -36.40234375 12.42578125 C-32.70404892 9.45362535 -28.80626402 8.58752805 -24.25 7.5625 C-17.73501725 5.95798032 -12.51237553 4.08383327 -7.04296875 0.0390625 C-4.34661668 -1.3323135 -2.83594989 -0.84138129 0 0 Z " fill="#FDFCFD" transform="translate(86,126)"/>
<path d="M0 0 C0 0.66 0 1.32 0 2 C1.71896484 2.29003906 1.71896484 2.29003906 3.47265625 2.5859375 C5.00263883 2.84875659 6.53258482 3.11178879 8.0625 3.375 C8.81466797 3.50132813 9.56683594 3.62765625 10.34179688 3.7578125 C15.00575243 4.56542385 19.4724934 5.61709626 24 7 C24 7.66 24 8.32 24 9 C24.94875 9.309375 25.8975 9.61875 26.875 9.9375 C30 11 30 11 32 12 C32 13.32 32 14.64 32 16 C31.14881592 16.0093457 30.29763184 16.01869141 29.4206543 16.02832031 C26.20891746 16.07279756 22.99807309 16.1346144 19.78686523 16.20751953 C18.40710265 16.2354389 17.02718876 16.25679511 15.6472168 16.27099609 C2.72801005 16.41177931 -9.07760709 18.6795543 -18.875 27.625 C-21.01096323 29.80266195 -21.01096323 29.80266195 -22 32 C-22.66 32 -23.32 32 -24 32 C-24.66 33.98 -25.32 35.96 -26 38 C-25.30132812 37.96519531 -24.60265625 37.93039063 -23.8828125 37.89453125 C-22.51769531 37.85392578 -22.51769531 37.85392578 -21.125 37.8125 C-20.22007813 37.77769531 -19.31515625 37.74289063 -18.3828125 37.70703125 C-17.20332031 37.85205078 -17.20332031 37.85205078 -16 38 C-15.34 38.99 -14.68 39.98 -14 41 C-16.475 41.495 -16.475 41.495 -19 42 C-18.13375 41.9175 -17.2675 41.835 -16.375 41.75 C-12.17901595 42.06081363 -10.26071549 43.40624904 -7 46 C-4.31878924 50.02181615 -4.18655665 53.27236391 -5 58 C-6.71077974 61.0717718 -8.80971307 63.40485654 -12 65 C-20.39097744 65.40601504 -20.39097744 65.40601504 -24 63 C-24 63.66 -24 64.32 -24 65 C-23.38125 65.28875 -22.7625 65.5775 -22.125 65.875 C-20 67 -20 67 -18 69 C-17.66338048 72.1642235 -17.50056589 74.18513382 -19.1875 76.9375 C-21 78 -21 78 -23.4375 77.875 C-26.30683951 76.89522553 -27.95983138 76.26685403 -30 74 C-30.25 70.3125 -30.25 70.3125 -30 67 C-30.66 67 -31.32 67 -32 67 C-32.02126953 68.12148437 -32.02126953 68.12148437 -32.04296875 69.265625 C-32.09066406 70.25046875 -32.13835937 71.2353125 -32.1875 72.25 C-32.22230469 73.22453125 -32.25710937 74.1990625 -32.29296875 75.203125 C-33.21994051 78.8700409 -34.92339868 79.93911873 -38 82 C-38.81639318 79.12605502 -39.62822141 76.2509487 -40.4375 73.375 C-40.66759766 72.56675781 -40.89769531 71.75851563 -41.13476562 70.92578125 C-45.82850207 54.19159044 -45.0815317 36.78903912 -36.53125 21.3046875 C-29.20317846 10.27519206 -20.32303145 3.72999627 -7.54296875 0.4453125 C-4.9740037 -0.00455235 -2.60235598 -0.08409768 0 0 Z " fill="#4B3193" transform="translate(117,0)"/>
<path d="M0 0 C4.95922305 0.0300559 9.23635761 0.14634774 13.828125 2.265625 C14.323125 3.255625 14.323125 3.255625 14.828125 4.265625 C12.188125 4.265625 9.548125 4.265625 6.828125 4.265625 C6.828125 4.925625 6.828125 5.585625 6.828125 6.265625 C5.466875 6.8534375 5.466875 6.8534375 4.078125 7.453125 C-0.61989539 10.07317483 -2.59547257 12.50359764 -4.26953125 17.62109375 C-5.65299212 23.48175481 -5.42335477 29.4034654 -5.359375 35.390625 C-5.35873047 36.54433594 -5.35808594 37.69804687 -5.35742188 38.88671875 C-5.33009027 44.15260868 -5.10159658 49.07418989 -4.171875 54.265625 C-3.44265361 64.53081843 -4.48674921 74.05247046 -11.171875 82.265625 C-15.63920501 86.69593293 -19.86395522 89.25424681 -26.171875 89.703125 C-29.71956984 89.63606083 -30.15862643 89.2766185 -33.109375 86.828125 C-33.79 85.9825 -34.470625 85.136875 -35.171875 84.265625 C-35.501875 83.935625 -35.831875 83.605625 -36.171875 83.265625 C-36.21251332 81.59945385 -36.214596 79.93174405 -36.171875 78.265625 C-34.171875 80.265625 -34.171875 80.265625 -32.171875 83.265625 C-26.2393832 82.26369305 -22.09871874 80.9021049 -17.171875 77.265625 C-15.686875 76.770625 -15.686875 76.770625 -14.171875 76.265625 C-14.171875 75.605625 -14.171875 74.945625 -14.171875 74.265625 C-13.511875 74.265625 -12.851875 74.265625 -12.171875 74.265625 C-10.5442616 65.51720296 -10.63862004 56.70681468 -12.171875 47.953125 C-14.45294837 34.33232718 -14.91030769 17.97451203 -7.109375 6.015625 C-2.93024091 0.35837479 -2.93024091 0.35837479 0 0 Z " fill="#2E1767" transform="translate(104.171875,121.734375)"/>
<path d="M0 0 C7 2 7 2 8.4140625 3.609375 C9.28227384 7.15167726 9.38227385 10.62456071 9.375 14.25 C9.37411377 15.04776855 9.37322754 15.84553711 9.37231445 16.66748047 C9.22598965 24.16792627 7.56277489 30.8782325 5.53466797 38.05419922 C1.94442379 51.12006502 1.61769034 63.55838461 2 77 C1.34 77 0.68 77 0 77 C2.31881505 79.67901932 4.31814468 80.66204403 7.6875 81.6875 C8.49574219 81.93886719 9.30398437 82.19023438 10.13671875 82.44921875 C10.75160156 82.63097656 11.36648437 82.81273438 12 83 C12 83.33 12 83.66 12 84 C4.54308006 84.4474152 0.28643637 83.19095758 -6 79 C-7.39354186 71.39886258 -7.08633754 63.70322717 -7 56 C-7 54.68 -7 53.36 -7 52 C-6.59077108 50.67137011 -6.12756094 49.35870916 -5.625 48.0625 C-3.55334679 42.19117954 -2.80811588 36.15118795 -2 30 C-1.34 30 -0.68 30 0 30 C0 20.1 0 10.2 0 0 Z " fill="#2E1467" transform="translate(156,26)"/>
<path d="M0 0 C4.77499272 0.13022707 7.45851858 1.57897426 11.3125 4.375 C13.69186104 7.21488254 14.25562556 8.95250418 14.75 12.625 C13.87820478 20.09753043 11.06260871 25.38142617 5.2890625 30.18359375 C0.21833562 33.24005956 -4.82112977 33.71495445 -10.625 33.6875 C-11.64110352 33.71166992 -11.64110352 33.71166992 -12.67773438 33.73632812 C-20.46297657 33.7437924 -26.27323555 30.22025057 -32.625 26.1875 C-33.50768555 25.63545898 -33.50768555 25.63545898 -34.40820312 25.07226562 C-35.83739413 24.17756882 -37.26285509 23.27691805 -38.6875 22.375 C-38.0275 21.055 -37.3675 19.735 -36.6875 18.375 C-32.77329143 19.50577136 -30.47804268 20.46312937 -27.6875 23.375 C-25.08834462 24.56527984 -25.08834462 24.56527984 -22.6875 25.375 C-22.6875 26.035 -22.6875 26.695 -22.6875 27.375 C-13.24842881 29.50211463 -6.19208989 30.73191409 2.3125 25.375 C4.99342691 22.69407309 4.69920257 20.98332637 4.9375 17.25 C5.01226562 16.15429688 5.08703125 15.05859375 5.1640625 13.9296875 C5.21304688 13.08664063 5.26203125 12.24359375 5.3125 11.375 C4.6525 11.375 3.9925 11.375 3.3125 11.375 C3.3125 10.715 3.3125 10.055 3.3125 9.375 C-0.0738251 7.86569817 -0.0738251 7.86569817 -3.6875 7.375 C-4.6775 7.375 -5.6675 7.375 -6.6875 7.375 C-5.89181135 2.33563856 -5.47161664 0.55643559 0 0 Z " fill="#2E1865" transform="translate(224.6875,104.625)"/>
<path d="M0 0 C3.0603333 1.7655769 5.50587755 3.50587755 8 6 C8.69356035 10.05915319 8.93346201 14.26147038 6.94921875 17.95703125 C3.87017404 21.69003236 2.02937943 22.89706206 -2.75 23.375 C-6.10058068 23.35058775 -7.84894532 22.75601354 -10.4375 20.625 C-14.18851385 16.78249801 -14.34356911 14.44821214 -14.28515625 9.2578125 C-13.85933373 5.88623144 -12.46522826 4.25979257 -10 2 C-6.73065722 -0.28853994 -3.9301848 -0.47162218 0 0 Z " fill="#F4F1F6" transform="translate(141,42)"/>
<path d="M0 0 C-0.64505596 3.48330216 -1.98217268 6.09432866 -4 9 C-4.66 9 -5.32 9 -6 9 C-6.268125 9.680625 -6.53625 10.36125 -6.8125 11.0625 C-7.6521893 13.13962617 -8.53123217 15.20104664 -9.4375 17.25 C-11.90879729 23.02884165 -13.83995825 28.81630638 -15 35 C-15.6501805 38.40545361 -16.3943431 41.73564784 -17.375 45.0625 C-17.58898437 45.79597656 -17.80296875 46.52945313 -18.0234375 47.28515625 C-19 49 -19 49 -21.1015625 49.74609375 C-21.72804688 49.82988281 -22.35453125 49.91367188 -23 50 C-23 50.66 -23 51.32 -23 52 C-24.32 52 -25.64 52 -27 52 C-27 52.66 -27 53.32 -27 54 C-29.40545638 55.20272819 -30.94996953 55.10071472 -33.625 55.0625 C-34.85089844 55.04896484 -34.85089844 55.04896484 -36.1015625 55.03515625 C-36.72804688 55.02355469 -37.35453125 55.01195312 -38 55 C-38 54.34 -38 53.68 -38 53 C-38.66 53 -39.32 53 -40 53 C-40.66 51.02 -41.32 49.04 -42 47 C-42.99 47 -43.98 47 -45 47 C-45 46.34 -45 45.68 -45 45 C-45.99 45 -46.98 45 -48 45 C-48 44.01 -48 43.02 -48 42 C-45.525 41.505 -45.525 41.505 -43 41 C-42.62875 41.763125 -42.2575 42.52625 -41.875 43.3125 C-39.58218549 46.59886747 -37.72041662 47.58624168 -34 49 C-31.24853726 49.25284367 -31.24853726 49.25284367 -29 49 C-29 48.34 -29 47.68 -29 47 C-28.01 47 -27.02 47 -26 47 C-26 46.34 -26 45.68 -26 45 C-25.01 45 -24.02 45 -23 45 C-20.90954647 41.39419587 -20.14945629 37.74980004 -19.3125 33.6875 C-19.04050781 32.41261719 -18.76851562 31.13773438 -18.48828125 29.82421875 C-17.82979843 26.01692153 -17.82979843 26.01692153 -18.53125 22.29296875 C-19.16277157 17.85652975 -18.06010986 16.05962977 -15.8046875 12.3515625 C-12.36689767 7.87201818 -6.12456078 0 0 0 Z " fill="#4B2F91" transform="translate(54,117)"/>
<path d="M0 0 C3.6578218 2.03993908 5.66946174 3.50419262 8 7 C8.68343706 10.77688904 8.85107095 14.47186889 6.94921875 17.88671875 C3.85115905 21.66105107 2.08009649 22.89199035 -2.75 23.375 C-6.10058068 23.35058775 -7.84894532 22.75601354 -10.4375 20.625 C-14.18851385 16.78249801 -14.34356911 14.44821214 -14.28515625 9.2578125 C-13.85933373 5.88623144 -12.46522826 4.25979257 -10 2 C-6.73065722 -0.28853994 -3.9301848 -0.47162218 0 0 Z " fill="#F1EDF3" transform="translate(104,42)"/>
<path d="M0 0 C4.80633442 0.08010557 7.66591475 0.34263621 11.25 3.625 C13.65495345 6.20644182 13.65495345 6.20644182 16.0625 6.0625 C18.16823641 4.99589844 18.16823641 4.99589844 20.3125 3 C23.64691337 0.5185761 25.86738934 0.07513838 30 0 C32.4375 1.4375 32.4375 1.4375 34 3 C33.67 3.99 33.34 4.98 33 6 C31.68 6 30.36 6 29 6 C29.495 9.465 29.495 9.465 30 13 C26.27660537 15.48226309 23.30613762 15.3138076 19 15 C17.66457061 14.67516582 16.33038449 14.3449145 15 14 C14.01 14.33 13.02 14.66 12 15 C9.84375 15.203125 9.84375 15.203125 7.5 15.25 C6.33984375 15.28867188 6.33984375 15.28867188 5.15625 15.328125 C3 15 3 15 1.21875 13.671875 C0 12 0 12 0 9 C0.66 9 1.32 9 2 9 C2 8.34 2 7.68 2 7 C0.35 6.67 -1.3 6.34 -3 6 C-2.42655063 3.13275314 -2.1385485 2.1385485 0 0 Z " fill="#D24EBB" transform="translate(104,87)"/>
<path d="M0 0 C2.5654594 2.5654594 2.54046087 4.47686668 3 8 C3.66 8 4.32 8 5 8 C5.19335938 8.65226563 5.38671875 9.30453125 5.5859375 9.9765625 C6.38341896 12.65325771 7.19123568 15.32669527 8 18 C8.350625 19.175625 8.70125 20.35125 9.0625 21.5625 C9.74447332 24.15318223 9.74447332 24.15318223 12 25 C12 25.99 12 26.98 12 28 C12.721875 28.268125 13.44375 28.53625 14.1875 28.8125 C17 30 17 30 19.4375 31.625 C22.54143212 33.29052455 24.52436271 33.38618192 28 33 C28.66 32.34 29.32 31.68 30 31 C29.98617135 28.94285168 29.98617135 28.94285168 29 27 C26.98954486 25.86442117 26.98954486 25.86442117 25 25 C26.93681161 24.91892417 28.8745934 24.86077525 30.8125 24.8125 C31.89144531 24.77769531 32.97039062 24.74289063 34.08203125 24.70703125 C37 25 37 25 38.890625 26.29296875 C40 28 40 28 39.9375 31.5 C39 35 39 35 37.125 36.875 C31.67372717 39.76096797 26.0222878 39.56239263 20 39 C12.04852887 36.3638366 6.70432443 29.18768916 3 22 C1.04524403 17.17182182 0.59787016 12.76029984 0.375 7.625 C0.33632812 6.88894531 0.29765625 6.15289062 0.2578125 5.39453125 C0.16442002 3.59672594 0.0811629 1.79839892 0 0 Z " fill="#462F82" transform="translate(122,168)"/>
<path d="M0 0 C1.8143773 0.01164929 3.62858298 0.10886213 5.4375 0.25 C6.92056641 0.35054687 6.92056641 0.35054687 8.43359375 0.453125 C11 1 11 1 13 4 C12.37351562 4.09796875 11.74703125 4.1959375 11.1015625 4.296875 C10.28429687 4.44640625 9.46703125 4.5959375 8.625 4.75 C7.81289062 4.88921875 7.00078125 5.0284375 6.1640625 5.171875 C3.84638162 5.81033792 3.84638162 5.81033792 2.7734375 7.953125 C2.51820312 8.62859375 2.26296875 9.3040625 2 10 C1.67 10.66 1.34 11.32 1 12 C0.42908183 17.58841057 0.72068414 21.29489464 4 26 C3.67 26.66 3.34 27.32 3 28 C3.928125 28.433125 3.928125 28.433125 4.875 28.875 C7 30 7 30 9 32 C9.33661952 35.1642235 9.49943411 37.18513382 7.8125 39.9375 C6 41 6 41 3.5625 40.875 C0.69316049 39.89522553 -0.95983138 39.26685403 -3 37 C-3.25 33.3125 -3.25 33.3125 -3 30 C-3.66 30 -4.32 30 -5 30 C-5.44209923 19.63522923 -5.4216484 10.66014752 -1 1 C-0.67 0.67 -0.34 0.34 0 0 Z " fill="#44287B" transform="translate(90,37)"/>
<path d="M0 0 C0 0.99 0 1.98 0 3 C1.0725 3.12375 2.145 3.2475 3.25 3.375 C7 4 7 4 8.86328125 5.16015625 C12.03946257 6.4085639 13.8245683 5.29118553 16.9375 4.0625 C21.13757601 2.41114268 23.61846467 1.70087074 28 3 C28 3.66 28 4.32 28 5 C26.96875 4.9175 25.9375 4.835 24.875 4.75 C19.55978837 5.09291688 16.69354478 7.30645522 13 11 C10.08526882 10.79898406 8.95087067 9.95632948 6.75 8 C3.07278272 5.32566016 0.49385423 5.30466808 -4 5 C-5.485 7.475 -5.485 7.475 -7 10 C-5.35 10.33 -3.7 10.66 -2 11 C-2 11.66 -2 12.32 -2 13 C-2.66 13 -3.32 13 -4 13 C-3.15602694 15.66250834 -3.15602694 15.66250834 -1 18 C2.74383132 18.66651543 6.44047011 18.43562287 10.09765625 17.4140625 C12 17 12 17 15 18 C21.08568662 18.23294845 21.08568662 18.23294845 27 17 C27.495 18.485 27.495 18.485 28 20 C27.67 20.66 27.34 21.32 27 22 C21.7758572 22.22713664 17.22796203 21.53273842 12.13671875 20.33984375 C9.95447503 19.78019816 9.95447503 19.78019816 8 21 C5.9765625 21.16796875 5.9765625 21.16796875 3.625 21.1875 C2.85414062 21.20167969 2.08328125 21.21585938 1.2890625 21.23046875 C-1.29451968 20.97034699 -2.8628385 20.47736667 -5 19 C-5.37400786 16.67284 -5.70764733 14.33882138 -6 12 C-6.99 11.34 -7.98 10.68 -9 10 C-8.67 8.35 -8.34 6.7 -8 5 C-7.34 5 -6.68 5 -6 5 C-5.71125 4.360625 -5.4225 3.72125 -5.125 3.0625 C-3.72314735 0.49243681 -2.91896073 0 0 0 Z " fill="#521C7A" transform="translate(108,83)"/>
<path d="M0 0 C1.98 0.495 1.98 0.495 4 1 C3.95359375 2.18078125 3.9071875 3.3615625 3.859375 4.578125 C3.82185051 6.13539134 3.78545107 7.69268508 3.75 9.25 C3.71648437 10.02730469 3.68296875 10.80460937 3.6484375 11.60546875 C3.53479091 16.45717688 3.53479091 16.45717688 6.015625 20.546875 C6.99789062 21.26617187 6.99789062 21.26617187 8 22 C7.67 22.66 7.34 23.32 7 24 C9.23775234 27.3566285 9.93320048 27.57996014 13.625 28.6875 C14.44226563 28.93886719 15.25953125 29.19023438 16.1015625 29.44921875 C16.72804687 29.63097656 17.35453125 29.81273438 18 30 C18 30.33 18 30.66 18 31 C10.54308006 31.4474152 6.28643637 30.19095758 0 26 C-1.46636883 18.00162457 -2.58753197 7.76259592 0 0 Z " fill="#2B1167" transform="translate(150,79)"/>
<path d="M0 0 C4.76201191 0.07936687 7.66635113 0.34452958 11.25 3.5625 C13.88643693 6.44220501 13.88643693 6.44220501 18 6 C18 6.66 18 7.32 18 8 C15.69 8.33 13.38 8.66 11 9 C10.67 10.32 10.34 11.64 10 13 C8.35 13.33 6.7 13.66 5 14 C7.31 14 9.62 14 12 14 C12 14.33 12 14.66 12 15 C10.56344146 15.08131463 9.1255517 15.13933559 7.6875 15.1875 C6.48673828 15.23970703 6.48673828 15.23970703 5.26171875 15.29296875 C3 15 3 15 1.20703125 13.67578125 C0 12 0 12 0 9 C0.66 9 1.32 9 2 9 C2 8.34 2 7.68 2 7 C0.35 6.67 -1.3 6.34 -3 6 C-2.42655063 3.13275314 -2.1385485 2.1385485 0 0 Z " fill="#BF57BF" transform="translate(104,87)"/>
<path d="M0 0 C4.32624283 1.50478011 4.32624283 1.50478011 5.875 4 C6.41568562 7.63031776 6.33879841 9.32214079 4.25 12.375 C1.21136094 14.45406883 -0.50949608 14.46155369 -4.125 14 C-7.125 12 -7.125 12 -8.125 8.6875 C-8.125 5 -8.125 5 -6.0625 2 C-3.125 0 -3.125 0 0 0 Z " fill="#0C0C0E" transform="translate(139.125,43)"/>
<path d="M0 0 C2.875 1 2.875 1 4.8125 2.6875 C6.27609489 5.87297124 5.86428968 7.67881323 4.875 11 C3.6875 12.875 3.6875 12.875 1.875 14 C-1.75531776 14.54068562 -3.44714079 14.46379841 -6.5 12.375 C-8.125 10 -8.125 10 -8.6875 7 C-8.125 4 -8.125 4 -6 1.5625 C-3.125 0 -3.125 0 0 0 Z " fill="#080809" transform="translate(102.125,43)"/>
<path d="M0 0 C-0.64505596 3.48330216 -1.98217268 6.09432866 -4 9 C-4.66 9 -5.32 9 -6 9 C-6.268125 9.70125 -6.53625 10.4025 -6.8125 11.125 C-9.14691529 16.77674229 -10.95018111 20.374489 -16 24 C-16.66 24.66 -17.32 25.32 -18 26 C-19.24342843 21.50452797 -19.3049952 18.83777891 -17.1875 14.625 C-13.96133289 9.32096254 -6.77524749 0 0 0 Z " fill="#4C338D" transform="translate(54,117)"/>
<path d="M0 0 C0.66 0 1.32 0 2 0 C1.97679688 1.18335938 1.95359375 2.36671875 1.9296875 3.5859375 C1.75201017 14.71691402 1.75201017 14.71691402 3.48828125 25.67578125 C4.4521059 30.05345808 4.67753456 34.53639942 5 39 C4.01 39.495 4.01 39.495 3 40 C2.34996375 37.79290017 1.70515255 35.58426108 1.0625 33.375 C0.70285156 32.14523438 0.34320313 30.91546875 -0.02734375 29.6484375 C-2.60288259 19.98758096 -3.5408287 9.51597713 0 0 Z " fill="#483675" transform="translate(75,38)"/>
<path d="M0 0 C1.91607056 0.24447876 1.91607056 0.24447876 3.87084961 0.49389648 C8.95056148 1.05599549 13.96031562 1.12787015 19.06640625 1.09765625 C19.98590561 1.0962413 20.90540497 1.09482635 21.85276794 1.09336853 C24.75604671 1.08782312 27.65924501 1.07528117 30.5625 1.0625 C32.54492075 1.05747793 34.52734273 1.05291627 36.50976562 1.04882812 C41.3398742 1.03787164 46.16992351 1.02064542 51 1 C38.87392926 9.08404716 18.47666888 5.53760607 4.9921875 2.8515625 C2 2 2 2 0 0 Z " fill="#2E136C" transform="translate(90,103)"/>
<path d="M0 0 C0.33 0.99 0.66 1.98 1 3 C-0.12279462 3.98169476 -1.24831473 4.96027298 -2.375 5.9375 C-3.31472656 6.75541016 -3.31472656 6.75541016 -4.2734375 7.58984375 C-7.37525439 10.12322813 -9.89907335 10.32938802 -13.890625 10.29296875 C-17.28649682 9.82131989 -19.43811326 8.17760373 -22 6 C-22 5.34 -22 4.68 -22 4 C-22.66 4 -23.32 4 -24 4 C-24 3.34 -24 2.68 -24 2 C-20.28400809 1.79913557 -19.22791555 1.8480563 -16 4 C-9.54123843 5.07646026 -5.30804337 3.61398697 0 0 Z " fill="#0D0428" transform="translate(130,74)"/>
<path d="M0 0 C1.32 0.66 2.64 1.32 4 2 C4.82643903 7.90313596 4.82643903 7.90313596 2.72265625 10.6953125 C-4.81176306 17.49508322 -12.10589133 18.49106789 -22 18 C-22 17.67 -22 17.34 -22 17 C-18.04 16.67 -14.08 16.34 -10 16 C-10 15.34 -10 14.68 -10 14 C-9.21625 13.773125 -8.4325 13.54625 -7.625 13.3125 C-4.85701681 12.25164095 -4.85701681 12.25164095 -3.875 9.8125 C-3.58625 8.884375 -3.2975 7.95625 -3 7 C-2.47055112 5.7240282 -1.92844467 4.45324845 -1.375 3.1875 C-0.92125 2.135625 -0.4675 1.08375 0 0 Z " fill="#352368" transform="translate(216,177)"/>
<path d="M0 0 C3.5625 0.1875 3.5625 0.1875 5.5625 2.1875 C5.89002234 4.90204956 5.6933425 7.43980759 5.5625 10.1875 C4.5625 11.1875 4.5625 11.1875 1.125 11.4375 C-0.050625 11.355 -1.22625 11.2725 -2.4375 11.1875 C-4.87519218 7.53096173 -4.67694439 5.49749899 -4.4375 1.1875 C-3.4375 0.1875 -3.4375 0.1875 0 0 Z " fill="#D79DE4" transform="translate(144.4375,66.8125)"/>
<path d="M0 0 C3 0.25 3 0.25 5 2.25 C5.33661952 5.4142235 5.49943411 7.43513382 3.8125 10.1875 C2 11.25 2 11.25 -0.5 11.125 C-3.18930863 10.18374198 -4.45731359 9.64973442 -6 7.25 C-5.66963219 2.73497322 -4.81520347 0.40126696 0 0 Z " fill="#E5B2F2" transform="translate(94,66.75)"/>
<path d="M0 0 C0.66 0 1.32 0 2 0 C2.65561666 2.54962034 3.12080126 4.46847446 2.53125 7.0625 C1.76232495 11.31420322 1.8957137 15.50208264 1.9375 19.8125 C1.94201172 20.69615234 1.94652344 21.57980469 1.95117188 22.49023438 C1.96290134 24.66018559 1.98083505 26.83010172 2 29 C-1.90380859 27.20898438 -1.90380859 27.20898438 -2.76953125 25.328125 C-3.59458966 16.99363665 -2.44249676 7.97882276 0 0 Z " fill="#443174" transform="translate(156,72)"/>
<path d="M0 0 C-0.495 0.37125 -0.99 0.7425 -1.5 1.125 C-3.59386094 3.74232618 -3.14186809 5.73703391 -3 9 C-4 10 -4 10 -7.375 10.1875 C-11 10 -11 10 -14 8 C-13.34 8 -12.68 8 -12 8 C-12.103125 7.236875 -12.20625 6.47375 -12.3125 5.6875 C-12 3 -12 3 -9.9375 1.1875 C-6.4483377 -0.22301242 -3.7303242 -0.21943084 0 0 Z " fill="#D64AB7" transform="translate(135,90)"/>
<path d="M0 0 C0 0.66 0 1.32 0 2 C1.32 1.34 2.64 0.68 4 0 C5.1875 1.6875 5.1875 1.6875 6 4 C4.75 6.75 4.75 6.75 3 9 C2.34 9 1.68 9 1 9 C1 8.34 1 7.68 1 7 C-2.3863251 5.49069817 -2.3863251 5.49069817 -6 5 C-6.99 5 -7.98 5 -9 5 C-8.67 3.35 -8.34 1.7 -8 0 C-4.71023192 -1.09658936 -3.28696233 -0.79953138 0 0 Z " fill="#2C1565" transform="translate(227,107)"/>
<path d="M0 0 C2.875 1.5 2.875 1.5 5 3 C4.01 4.485 4.01 4.485 3 6 C2.46375 5.319375 1.9275 4.63875 1.375 3.9375 C-0.89346479 1.65008671 -0.89346479 1.65008671 -4.125 2.125 C-7.09681373 2.78308824 -7.09681373 2.78308824 -9 5 C-9.24360073 8.12814514 -9.24360073 8.12814514 -9.125 11.625 C-9.10695313 12.81351563 -9.08890625 14.00203125 -9.0703125 15.2265625 C-9.04710938 16.14179687 -9.02390625 17.05703125 -9 18 C-10.32 18 -11.64 18 -13 18 C-14.73125121 14.53749757 -14.47815224 10.78591771 -14 7 C-10.52694655 1.17023171 -6.70277299 -0.68395643 0 0 Z " fill="#FAF6FA" transform="translate(104,42)"/>
<path d="M0 0 C1.5843317 0.08768248 3.16753567 0.19587329 4.75 0.3125 C6.07257813 0.39951172 6.07257813 0.39951172 7.421875 0.48828125 C10.38206534 1.07583418 11.82755938 1.92585986 14 4 C14.875 7.0625 14.875 7.0625 15 10 C14.34 10.66 13.68 11.32 13 12 C12.67 10.68 12.34 9.36 12 8 C11.01 8.33 10.02 8.66 9 9 C8.566875 8.54625 8.13375 8.0925 7.6875 7.625 C4.62909847 4.6798726 2.10678604 3.6659653 -2 3 C-1.34 2.01 -0.68 1.02 0 0 Z " fill="#472E85" transform="translate(137,37)"/>
<path d="M0 0 C2.875 1.0625 2.875 1.0625 4.8125 3.5 C5.163125 4.345625 5.51375 5.19125 5.875 6.0625 C5.545 6.7225 5.215 7.3825 4.875 8.0625 C3.885 7.7325 2.895 7.4025 1.875 7.0625 C1.875 6.4025 1.875 5.7425 1.875 5.0625 C-3.84363052 6.34389327 -3.84363052 6.34389327 -8.125 10.0625 C-8.4375 7.3125 -8.4375 7.3125 -8.125 4.0625 C-5.45505722 0.99991858 -4.08791489 0.0817583 0 0 Z " fill="#2A292C" transform="translate(102.125,42.9375)"/>
<path d="M0 0 C5.61604858 0.03961939 10.72546384 0.82872063 16.15234375 2.265625 C15.77734375 4.203125 15.77734375 4.203125 15.15234375 6.265625 C12.60870359 7.53744508 11.90771322 7.08629775 9.23828125 6.26953125 C8.47773438 6.04072266 7.7171875 5.81191406 6.93359375 5.57617188 C6.13953125 5.32931641 5.34546875 5.08246094 4.52734375 4.828125 C3.72554687 4.58513672 2.92375 4.34214844 2.09765625 4.09179688 C0.11389707 3.48958427 -1.86714607 2.87843811 -3.84765625 2.265625 C-1.84765625 0.265625 -1.84765625 0.265625 0 0 Z " fill="#3C2770" transform="translate(171.84765625,119.734375)"/>
<path d="M0 0 C4.07550344 1.68219654 6.77269197 1.44959448 11.125 0.5 C14.625 0 14.625 0 18.125 -0.5 C15.42255203 2.47269277 12.93265134 4.28696657 8.87109375 4.765625 C8.10925781 4.76046875 7.34742187 4.7553125 6.5625 4.75 C5.41587891 4.75773437 5.41587891 4.75773437 4.24609375 4.765625 C2.125 4.5 2.125 4.5 -0.875 2.5 C-2.53049531 2.11500109 -4.1972433 1.77206865 -5.875 1.5 C-5.875 2.16 -5.875 2.82 -5.875 3.5 C-5.215 3.5 -4.555 3.5 -3.875 3.5 C-3.875 4.16 -3.875 4.82 -3.875 5.5 C-5.8125 4.75 -5.8125 4.75 -7.875 3.5 C-8.625 1.375 -8.625 1.375 -8.875 -0.5 C-5.3285266 -1.71910023 -3.33734653 -1.43492915 0 0 Z " fill="#392567" transform="translate(111.875,74.5)"/>
<path d="M0 0 C0.66 0.33 1.32 0.66 2 1 C2 1.99 2 2.98 2 4 C0.68 4 -0.64 4 -2 4 C-2 4.99 -2 5.98 -2 7 C-3.4609375 8.38671875 -3.4609375 8.38671875 -5.375 9.6875 C-6.31472656 10.34298828 -6.31472656 10.34298828 -7.2734375 11.01171875 C-9 12 -9 12 -11 12 C-11.66 13.98 -12.32 15.96 -13 18 C-13.99 18 -14.98 18 -16 18 C-12.61234644 10.27614988 -7.9179993 3.61965682 0 0 Z " fill="#452D7F" transform="translate(96,6)"/>
<path d="M0 0 C0.66 0 1.32 0 2 0 C1.37922374 6.47567652 0.33183542 12.71162243 -1.0625 19.0625 C-1.24876953 19.92810547 -1.43503906 20.79371094 -1.62695312 21.68554688 C-2.08066267 23.79122451 -2.53976004 25.89574007 -3 28 C-3.33 27.34 -3.66 26.68 -4 26 C-4.66 26 -5.32 26 -6 26 C-4.39840797 17.23339098 -2.20549731 8.62927587 0 0 Z " fill="#3D2A6B" transform="translate(163,44)"/>
<path d="M0 0 C1.9375 1.25 1.9375 1.25 3 3 C2.6875 5.6875 2.6875 5.6875 2 8 C1.649375 7.505 1.29875 7.01 0.9375 6.5 C-1.94374289 4.26936034 -4.47009026 4.80019379 -8 5 C-8 5.66 -8 6.32 -8 7 C-8.66 7 -9.32 7 -10 7 C-10.25 4.6875 -10.25 4.6875 -10 2 C-6.89573811 -1.58184064 -4.35794704 -1.29811188 0 0 Z " fill="#302D33" transform="translate(142,44)"/>
<path d="M0 0 C1.45823212 -0.0270043 2.91660675 -0.04639787 4.375 -0.0625 C5.18710938 -0.07410156 5.99921875 -0.08570312 6.8359375 -0.09765625 C9 0 9 0 11 1 C11 3.97 11 6.94 11 10 C8.03 9.505 8.03 9.505 5 9 C5.33 6.69 5.66 4.38 6 2 C4.35 2 2.7 2 1 2 C0.67 1.34 0.34 0.68 0 0 Z " fill="#D849B7" transform="translate(103,90)"/>
<path d="M0 0 C3.37452744 1.39635618 5.11638118 2.8606353 7 6 C8.06056633 10.0439992 8.11539276 13.88270068 8.09765625 18.05078125 C8.0962413 18.70958786 8.09482635 19.36839447 8.09336853 20.04716492 C8.087805 22.13565762 8.07525947 24.22404011 8.0625 26.3125 C8.05748028 27.73502449 8.0529182 29.15755066 8.04882812 30.58007812 C8.03784757 34.05342077 8.02060835 37.52669961 8 41 C7.67 41 7.34 41 7 41 C6.9906543 40.31075439 6.98130859 39.62150879 6.97167969 38.91137695 C7.198511 18.57384224 7.198511 18.57384224 0 0 Z " fill="#2D1B58" transform="translate(115,127)"/>
<path d="M0 0 C1.4375 2.0625 1.4375 2.0625 2 4 C0.35 4.33 -1.3 4.66 -3 5 C-2.67 6.98 -2.34 8.96 -2 11 C-3.5625 9.75 -3.5625 9.75 -5 8 C-4.74853421 5.86254078 -4.54074221 4.54074221 -3 3 C-4.258125 3.165 -5.51625 3.33 -6.8125 3.5 C-9.26456585 3.82158241 -11.51650694 4 -14 4 C-8.75778414 -0.27654452 -6.83826334 -1.58745399 0 0 Z " fill="#C861C7" transform="translate(136,88)"/>
<path d="M0 0 C3.0603333 1.7655769 5.50587755 3.50587755 8 6 C8.1953125 8.3828125 8.1953125 8.3828125 8.125 11.125 C8.10695312 12.03507812 8.08890625 12.94515625 8.0703125 13.8828125 C8.04710937 14.58148438 8.02390625 15.28015625 8 16 C7.71125 15.360625 7.4225 14.72125 7.125 14.0625 C6.17176549 11.84793921 6.17176549 11.84793921 4 11 C3.690625 9.865625 3.38125 8.73125 3.0625 7.5625 C2.34378643 3.76783002 2.34378643 3.76783002 -1 2 C-4.29444058 2.20590254 -6.31110367 2.42591972 -8.875 4.5625 C-9.24625 5.036875 -9.6175 5.51125 -10 6 C-10.33 5.01 -10.66 4.02 -11 3 C-7.18365489 0.30610933 -4.67039834 -0.66719976 0 0 Z " fill="#E4DCEC" transform="translate(141,42)"/>
<path d="M0 0 C3.96 0 7.92 0 12 0 C11.360625 0.680625 10.72125 1.36125 10.0625 2.0625 C7.6741507 5.46408839 7.32122847 7.90433701 7 12 C6.67 12 6.34 12 6 12 C6 9.36 6 6.72 6 4 C3.23723823 4.52268466 0.6739124 5.10869587 -2 6 C-2.33 6.99 -2.66 7.98 -3 9 C-3.042721 7.33388095 -3.04063832 5.66617115 -3 4 C-2.67 3.67 -2.34 3.34 -2 3 C-2.66 2.34 -3.32 1.68 -4 1 C-1.525 1.495 -1.525 1.495 1 2 C0.67 1.34 0.34 0.68 0 0 Z " fill="#3A1B6C" transform="translate(132,64)"/>
<path d="M0 0 C1.32 0.33 2.64 0.66 4 1 C3.01 1.33 2.02 1.66 1 2 C1 2.66 1 3.32 1 4 C5.54170996 2.09115308 5.54170996 2.09115308 10 0 C8.09506486 4.24947069 6.49273302 6.38343636 2.125 8.1875 C-0.75823094 8.93714004 -3.04392481 9.17388678 -6 9 C-4.66666667 7.66666667 -3.33333333 6.33333333 -2 5 C-2 4.01 -2 3.02 -2 2 C-1.34 2 -0.68 2 0 2 C0 1.34 0 0.68 0 0 Z " fill="#3B246D" transform="translate(27,169)"/>
<path d="M0 0 C0.99 0.33 1.98 0.66 3 1 C3 1.66 3 2.32 3 3 C3.9590625 3.1546875 3.9590625 3.1546875 4.9375 3.3125 C5.618125 3.539375 6.29875 3.76625 7 4 C7.33 4.99 7.66 5.98 8 7 C10.01508358 7.73323796 10.01508358 7.73323796 12 8 C12 8.99 12 9.98 12 11 C10.68 11.33 9.36 11.66 8 12 C6.84545838 10.75803878 5.70167438 9.50607155 4.5625 8.25 C3.92441406 7.55390625 3.28632813 6.8578125 2.62890625 6.140625 C1.00918675 4.01207275 0.41732744 2.60976595 0 0 Z " fill="#321D67" transform="translate(176,181)"/>
<path d="M0 0 C3.125 0.375 3.125 0.375 6 1 C6 3.97 6 6.94 6 10 C8.31 10 10.62 10 13 10 C13 10.33 13 10.66 13 11 C11.56344146 11.08131463 10.1255517 11.13933559 8.6875 11.1875 C7.48673828 11.23970703 7.48673828 11.23970703 6.26171875 11.29296875 C4 11 4 11 2.20703125 9.67578125 C1 8 1 8 1 5 C1.66 5 2.32 5 3 5 C3 4.34 3 3.68 3 3 C1.35 2.67 -0.3 2.34 -2 2 C-1.34 1.34 -0.68 0.68 0 0 Z " fill="#B049B1" transform="translate(103,91)"/>
<path d="M0 0 C5.75 -0.125 5.75 -0.125 8 1 C8.33 1.99 8.66 2.98 9 4 C9.99 4.33 10.98 4.66 12 5 C12.33 5.99 12.66 6.98 13 8 C11.865625 8.12375 10.73125 8.2475 9.5625 8.375 C7.7990625 8.684375 7.7990625 8.684375 6 9 C5.67 9.66 5.34 10.32 5 11 C5.020625 10.2575 5.04125 9.515 5.0625 8.75 C4.98598815 5.27594193 4.98598815 5.27594193 4 2 C2.0162233 0.71563266 2.0162233 0.71563266 0 0 Z " fill="#4E3397" transform="translate(147,193)"/>
<path d="M0 0 C0.825 0.495 1.65 0.99 2.5 1.5 C6.58287578 3.2498039 9.62830676 3.67657157 14 3 C17.40241824 1.6351132 17.40241824 1.6351132 20 0 C20.33 0.99 20.66 1.98 21 3 C16.31884935 5.76417638 13.15284109 6.34558693 7.75 5.9375 C6.52796875 5.86402344 5.3059375 5.79054688 4.046875 5.71484375 C1 5 1 5 -0.421875 2.94140625 C-0.61265625 2.30074219 -0.8034375 1.66007812 -1 1 C-0.67 0.67 -0.34 0.34 0 0 Z " fill="#352161" transform="translate(108,80)"/>
<path d="M0 0 C2.43999027 4.5546485 3.1348183 8.61781955 3.5625 13.75 C3.64628906 14.73484375 3.73007813 15.7196875 3.81640625 16.734375 C3.87699219 17.48203125 3.93757813 18.2296875 4 19 C3.34 19.33 2.68 19.66 2 20 C1.33011414 17.70922959 0.66396838 15.41748541 0 13.125 C-0.19078125 12.47402344 -0.3815625 11.82304688 -0.578125 11.15234375 C-2 6.2265625 -2 6.2265625 -2 4 C-1.34 4 -0.68 4 0 4 C0 2.68 0 1.36 0 0 Z " fill="#422C7D" transform="translate(76,58)"/>
<path d="M0 0 C0.66 0.33 1.32 0.66 2 1 C1.67 1.66 1.34 2.32 1 3 C0.43450772 7.63518261 0.32325091 11.59939799 3 15.5625 C3.99 16.7690625 3.99 16.7690625 5 18 C2.625 17.8125 2.625 17.8125 0 17 C-1.125 14.625 -1.125 14.625 -2 12 C-3.52007842 10.22722741 -3.52007842 10.22722741 -5 9 C-4.34 9 -3.68 9 -3 9 C-3.226875 8.401875 -3.45375 7.80375 -3.6875 7.1875 C-3.790625 6.465625 -3.89375 5.74375 -4 5 C-2.625 3.375 -2.625 3.375 -1 2 C-0.67 1.34 -0.34 0.68 0 0 Z " fill="#3C2766" transform="translate(127,46)"/>
<path d="M0 0 C-1.0625 1.4375 -1.0625 1.4375 -3 3 C-5.33157492 3.34541851 -7.66508361 3.67794257 -10 4 C-12.85248773 5.4421908 -12.85248773 5.4421908 -15 7 C-15.33 5.68 -15.66 4.36 -16 3 C-10.28264895 0.54970669 -6.20970773 -0.33266291 0 0 Z " fill="#3E2771" transform="translate(115,1)"/>
<path d="M0 0 C0.66 0 1.32 0 2 0 C2 1.65 2 3.3 2 5 C-4.78117047 8.7505733 -10.30520289 9.51778074 -18 9 C-18 8.67 -18 8.34 -18 8 C-12.06 7.505 -12.06 7.505 -6 7 C-6 6.34 -6 5.68 -6 5 C-5.195625 4.731875 -4.39125 4.46375 -3.5625 4.1875 C-2.716875 3.795625 -1.87125 3.40375 -1 3 C-0.67 2.01 -0.34 1.02 0 0 Z " fill="#2A145F" transform="translate(212,186)"/>
<path d="M0 0 C0.66 0.33 1.32 0.66 2 1 C2.36253776 6.43806647 2.36253776 6.43806647 0.75 8.9375 C-1 10 -1 10 -3.1875 9.6875 C-3.785625 9.460625 -4.38375 9.23375 -5 9 C-4.67 8.67 -4.34 8.34 -4 8 C-4.66 7.34 -5.32 6.68 -6 6 C-5.34 6 -4.68 6 -4 6 C-4 5.01 -4 4.02 -4 3 C-2.68 2.67 -1.36 2.34 0 2 C0 1.34 0 0.68 0 0 Z " fill="#EDA5F3" transform="translate(97,68)"/>
<path d="M0 0 C0.7425 0.474375 1.485 0.94875 2.25 1.4375 C7.10460084 3.92343086 12.65477938 3.7491725 18 4 C14.1810656 6.54595627 11.31805127 6.11848015 6.9375 5.8125 C5.83825195 5.76512695 5.83825195 5.76512695 4.71679688 5.71679688 C2.58984375 5.58203125 2.58984375 5.58203125 -1 5 C-1.66 4.01 -2.32 3.02 -3 2 C-2.01 2 -1.02 2 0 2 C0 1.34 0 0.68 0 0 Z " fill="#3D2868" transform="translate(204,120)"/>
<path d="M0 0 C2.875 -0.125 2.875 -0.125 6 0 C8 2 8 2 8.25 5 C8 8 8 8 6 10 C3.375 10.125 3.375 10.125 1 10 C0.67 9.34 0.34 8.68 0 8 C1.98 8 3.96 8 6 8 C6.33 6.68 6.66 5.36 7 4 C4.36 3.67 1.72 3.34 -1 3 C-0.67 2.01 -0.34 1.02 0 0 Z " fill="#F4BBFB" transform="translate(142,67)"/>
<path d="M0 0 C0 3.54404336 -0.60989485 4.10267905 -2.875 6.6875 C-3.40867187 7.31011719 -3.94234375 7.93273437 -4.4921875 8.57421875 C-6 10 -6 10 -8 10 C-8.33 11.98 -8.66 13.96 -9 16 C-9.66 15.67 -10.32 15.34 -11 15 C-10.47462592 10.93190071 -9.38599539 8.82396544 -6.625 5.8125 C-6.01914062 5.13832031 -5.41328125 4.46414062 -4.7890625 3.76953125 C-3 2 -3 2 0 0 Z " fill="#402E6F" transform="translate(48,120)"/>
<path d="M0 0 C0.66 0 1.32 0 2 0 C2.33 2.97 2.66 5.94 3 9 C0.525 10.485 0.525 10.485 -2 12 C-2.05422947 10.5629191 -2.09289723 9.12524538 -2.125 7.6875 C-2.14820312 6.88699219 -2.17140625 6.08648437 -2.1953125 5.26171875 C-2 3 -2 3 0 0 Z " fill="#EEE7F2" transform="translate(129,46)"/>
<path d="M0 0 C0.66 0.99 1.32 1.98 2 3 C1.07767578 3.16435547 1.07767578 3.16435547 0.13671875 3.33203125 C-0.67152344 3.49058594 -1.47976562 3.64914063 -2.3125 3.8125 C-3.51326172 4.03873047 -3.51326172 4.03873047 -4.73828125 4.26953125 C-7.23445587 5.07572236 -8.32422106 6.02052002 -10 8 C-10.66 7.67 -11.32 7.34 -12 7 C-11.08137175 3.82655696 -10.61971964 2.35173277 -7.6875 0.6875 C-4.92487284 -0.01921858 -2.82994966 -0.38242563 0 0 Z " fill="#4C318D" transform="translate(101,38)"/>
<path d="M0 0 C-5.5825192 3.32575612 -9.49686791 4.46450943 -16 4 C-15.67 3.01 -15.34 2.02 -15 1 C-14.06027344 0.90912109 -14.06027344 0.90912109 -13.1015625 0.81640625 C-11.87566406 0.69072266 -11.87566406 0.69072266 -10.625 0.5625 C-9.81289062 0.48128906 -9.00078125 0.40007812 -8.1640625 0.31640625 C-1.96601942 -0.58980583 -1.96601942 -0.58980583 0 0 Z " fill="#412C75" transform="translate(90,207)"/>
<path d="M0 0 C5.3820598 -0.35880399 5.3820598 -0.35880399 7.9375 1.125 C9.52513015 3.92670027 8.74070176 5.96985644 8 9 C7.67 8.01 7.34 7.02 7 6 C4.03 5.505 4.03 5.505 1 5 C1.33 3.68 1.66 2.36 2 1 C1.34 0.67 0.68 0.34 0 0 Z " fill="#3F2B75" transform="translate(153,193)"/>
<path d="M0 0 C0.99 0 1.98 0 3 0 C3.625 1.8125 3.625 1.8125 4 4 C3.01 5.485 3.01 5.485 2 7 C1.34 7 0.68 7 0 7 C-0.33 8.32 -0.66 9.64 -1 11 C-1.66 11 -2.32 11 -3 11 C-3.33 9.02 -3.66 7.04 -4 5 C-2.68 4.67 -1.36 4.34 0 4 C0 2.68 0 1.36 0 0 Z " fill="#591F7B" transform="translate(137,88)"/>
<path d="M0 0 C2.8125 0.1875 2.8125 0.1875 6 1 C7.9375 3.4375 7.9375 3.4375 9 6 C8.67 6.66 8.34 7.32 8 8 C7.01 7.67 6.02 7.34 5 7 C5 6.34 5 5.68 5 5 C3.68 4.34 2.36 3.68 1 3 C1.33 2.34 1.66 1.68 2 1 C1.34 0.67 0.68 0.34 0 0 Z " fill="#302D33" transform="translate(99,43)"/>
<path d="M0 0 C2.625 -0.1875 2.625 -0.1875 5 0 C5 1.32 5 2.64 5 4 C3.35 4.33 1.7 4.66 0 5 C-0.33 5.99 -0.66 6.98 -1 8 C-1.99 8 -2.98 8 -4 8 C-2.87548273 5.0280615 -1.77706209 2.66559313 0 0 Z " fill="#271260" transform="translate(208,173)"/>
<path d="M0 0 C3.52808459 0 5.19414128 1.26410528 8.1484375 3.04296875 C10.69311763 4.358257 13.17018607 4.72392059 16 5 C12.63158449 7.38596099 9.80961783 7.15522067 5.90625 6.55078125 C3.10065865 5.74014932 1.69305353 4.3279486 0 2 C0 1.34 0 0.68 0 0 Z " fill="#3C296C" transform="translate(155,101)"/>
<path d="M0 0 C1.2065625 0.0309375 1.2065625 0.0309375 2.4375 0.0625 C2.7675 0.7225 3.0975 1.3825 3.4375 2.0625 C-1.85933222 3.86567693 -6.95184703 4.83953544 -12.5625 4.0625 C-13.2225 3.4025 -13.8825 2.7425 -14.5625 2.0625 C-13.78003906 2.00191406 -12.99757813 1.94132812 -12.19140625 1.87890625 C-11.17949219 1.79511719 -10.16757813 1.71132812 -9.125 1.625 C-8.11566406 1.54378906 -7.10632813 1.46257812 -6.06640625 1.37890625 C-3.14883217 1.01022684 -2.96221017 0.07224903 0 0 Z " fill="#621E7E" transform="translate(119.5625,99.9375)"/>
<path d="M0 0 C4.55384615 -0.36923077 4.55384615 -0.36923077 6.8125 1.5 C7.204375 1.995 7.59625 2.49 8 3 C7.67 3.99 7.34 4.98 7 6 C8.32 6.33 9.64 6.66 11 7 C7.93606987 7.25532751 6.36766788 7.21861333 3.6875 5.625 C3.130625 5.08875 2.57375 4.5525 2 4 C2 3.34 2 2.68 2 2 C1.34 2 0.68 2 0 2 C0 1.34 0 0.68 0 0 Z " fill="#0D052A" transform="translate(106,76)"/>
<path d="M0 0 C2.9375 -0.375 2.9375 -0.375 6 0 C7.875 1.5 7.875 1.5 9 3 C8.67 3.66 8.34 4.32 8 5 C4.7 4.34 1.4 3.68 -2 3 C-1.34 2.01 -0.68 1.02 0 0 Z " fill="#4C2F91" transform="translate(137,37)"/>
<path d="M0 0 C0 3.10551666 -0.5393715 4.35261084 -2 7 C-2.66 7 -3.32 7 -4 7 C-4.66 8.98 -5.32 10.96 -6 13 C-6.99 13 -7.98 13 -9 13 C-6.6560756 7.72289646 -4.33034194 3.84919283 0 0 Z " fill="#453270" transform="translate(89,11)"/>
<path d="M0 0 C0.99 0.495 0.99 0.495 2 1 C3.26968434 5.95586469 3.51109996 10.42093536 1 15 C0.67 15 0.34 15 0 15 C0 10.05 0 5.1 0 0 Z " fill="#3A2368" transform="translate(81,83)"/>
<path d="M0 0 C0.75410156 0.09990234 1.50820312 0.19980469 2.28515625 0.30273438 C4.14917753 0.55048404 6.01219288 0.80578057 7.875 1.0625 C7.875 1.3925 7.875 1.7225 7.875 2.0625 C5.4372037 2.11647335 3.00060315 2.15615616 0.5625 2.1875 C-0.47293945 2.21263672 -0.47293945 2.21263672 -1.52929688 2.23828125 C-5.29635396 2.27467794 -6.90931704 2.20628864 -10.125 0.0625 C-6.87932383 -1.56033808 -3.48660376 -0.48475234 0 0 Z " fill="#200F4D" transform="translate(213.125,135.9375)"/>
<path d="M0 0 C5.67276511 -0.29341888 8.99067246 -0.00559652 14 3 C13.01 3.66 12.02 4.32 11 5 C10.34 4.34 9.68 3.68 9 3 C8.01 3.33 7.02 3.66 6 4 C6 3.34 6 2.68 6 2 C3.69 2 1.38 2 -1 2 C-0.67 1.34 -0.34 0.68 0 0 Z " fill="#43336C" transform="translate(221,105)"/>
<path d="M0 0 C0.33 0.66 0.66 1.32 1 2 C0.41992188 1.96519531 -0.16015625 1.93039063 -0.7578125 1.89453125 C-6.009134 1.71255476 -9.39511219 2.16622289 -14 5 C-12.55319149 0.29787234 -12.55319149 0.29787234 -10.375 -0.875 C-6.76966849 -1.06475429 -3.56247093 -0.64241279 0 0 Z " fill="#382367" transform="translate(143,41)"/>
<path d="M0 0 C-0.33 3.3 -0.66 6.6 -1 10 C-2.32 10.33 -3.64 10.66 -5 11 C-4.67 10.34 -4.34 9.68 -4 9 C-3.75212983 4.85496339 -3.75212983 4.85496339 -5 1 C-3 0 -3 0 0 0 Z " fill="#5C3286" transform="translate(102,66)"/>
<path d="M0 0 C0.66 0 1.32 0 2 0 C3.5078125 2.1171875 3.5078125 2.1171875 5.125 4.875 C5.66382813 5.77992188 6.20265625 6.68484375 6.7578125 7.6171875 C8 10 8 10 8 12 C4.3392481 10.77974937 4.07660559 9.873509 2.3125 6.5625 C1.87550781 5.75941406 1.43851563 4.95632812 0.98828125 4.12890625 C0 2 0 2 0 0 Z " fill="#3A2766" transform="translate(162,147)"/>
<path d="M0 0 C1.9375 0.3125 1.9375 0.3125 4 1 C4.33 1.99 4.66 2.98 5 4 C3.35 5.65 1.7 7.3 0 9 C-1.125 2.25 -1.125 2.25 0 0 Z " fill="#4C3686" transform="translate(36,134)"/>
<path d="M0 0 C-2.36292656 2.52588702 -3.66462511 3.88820837 -7 5 C-7.33 4.01 -7.66 3.02 -8 2 C-8.66 1.67 -9.32 1.34 -10 1 C-6.78548731 -0.60725635 -3.56387464 -0.05748185 0 0 Z " fill="#352165" transform="translate(232,132)"/>
<path d="M0 0 C0.66 0.66 1.32 1.32 2 2 C-2.08430208 4.72286806 -4.14590877 4.38524534 -9 4 C-9.66 3.01 -10.32 2.02 -11 1 C-10.28972656 1.01160156 -9.57945313 1.02320312 -8.84765625 1.03515625 C-7.92855469 1.04417969 -7.00945312 1.05320312 -6.0625 1.0625 C-4.68771484 1.07990234 -4.68771484 1.07990234 -3.28515625 1.09765625 C-1.03406673 1.25949049 -1.03406673 1.25949049 0 0 Z " fill="#C252BC" transform="translate(132,98)"/>
<path d="M0 0 C2.31 0 4.62 0 7 0 C6.67 0.99 6.34 1.98 6 3 C7.65 3 9.3 3 11 3 C11 3.33 11 3.66 11 4 C7.37 3.67 3.74 3.34 0 3 C0 2.01 0 1.02 0 0 Z " fill="#412580" transform="translate(117,0)"/>
<path d="M0 0 C1.32 0.66 2.64 1.32 4 2 C4 3.32 4 4.64 4 6 C2.68 6 1.36 6 0 6 C-0.33 6.66 -0.66 7.32 -1 8 C-1.04241723 5.66705225 -1.04092937 3.33297433 -1 1 C-0.67 0.67 -0.34 0.34 0 0 Z " fill="#260E5C" transform="translate(216,177)"/>
<path d="M0 0 C0.66 0.66 1.32 1.32 2 2 C2.99 2.33 3.98 2.66 5 3 C5 4.32 5 5.64 5 7 C3.35 6.67 1.7 6.34 0 6 C-0.38218767 4.34385343 -0.71395102 2.67542976 -1 1 C-0.67 0.67 -0.34 0.34 0 0 Z " fill="#EA9DEC" transform="translate(141,67)"/>
<path d="M0 0 C2.35953094 2.35953094 2.49141413 3.77895617 3 7 C4.32 7 5.64 7 7 7 C7.33 7.99 7.66 8.98 8 10 C4.98197607 9.67372714 3.40308719 9.38918764 1.1875 7.25 C-0.19608294 4.62847443 -0.24360427 2.92325122 0 0 Z " fill="#342162" transform="translate(68,200)"/>
<path d="M0 0 C2.9375 1.25 2.9375 1.25 6 3 C6.875 5.1875 6.875 5.1875 7 7 C6.443125 6.690625 5.88625 6.38125 5.3125 6.0625 C2.87459567 4.94238179 0.63775814 4.43962636 -2 4 C-1.33333333 2.66666667 -0.66666667 1.33333333 0 0 Z " fill="#513B82" transform="translate(220,110)"/>
<path d="M0 0 C2.97 0.33 5.94 0.66 9 1 C8.67 1.99 8.34 2.98 8 4 C5.36 3.67 2.72 3.34 0 3 C0 2.01 0 1.02 0 0 Z " fill="#01010B" transform="translate(113,79)"/>
<path d="M0 0 C0 0.66 0 1.32 0 2 C-1.32 2.33 -2.64 2.66 -4 3 C-3.67 4.98 -3.34 6.96 -3 9 C-4.32 8.67 -5.64 8.34 -7 8 C-6.65930765 4.84859577 -6.41923159 3.39218439 -4.0625 1.1875 C-2 0 -2 0 0 0 Z " fill="#FCBDFD" transform="translate(97,68)"/>
<path d="M0 0 C2.875 1.5 2.875 1.5 5 3 C4.01 4.485 4.01 4.485 3 6 C2.46375 5.319375 1.9275 4.63875 1.375 3.9375 C-0.88767161 1.63471562 -0.88767161 1.63471562 -4.0625 2.25 C-5.031875 2.4975 -6.00125 2.745 -7 3 C-7.99 3 -8.98 3 -10 3 C-6.68588466 -0.05918339 -4.46341716 -0.54654088 0 0 Z " fill="#C0B4D3" transform="translate(104,42)"/>
<path d="M0 0 C1.22589844 0.01353516 1.22589844 0.01353516 2.4765625 0.02734375 C3.41628906 0.04474609 3.41628906 0.04474609 4.375 0.0625 C4.375 0.7225 4.375 1.3825 4.375 2.0625 C-2.025 3.29326923 -2.025 3.29326923 -5.0625 2.125 C-5.578125 1.774375 -6.09375 1.42375 -6.625 1.0625 C-4.21954362 -0.14022819 -2.67503047 -0.03821472 0 0 Z " fill="#352066" transform="translate(174.625,119.9375)"/>
<path d="M0 0 C1.32 0.66 2.64 1.32 4 2 C0.22777911 3.75163456 -2.666639 4.22490027 -6.8125 4.125 C-8.27623047 4.09792969 -8.27623047 4.09792969 -9.76953125 4.0703125 C-10.50558594 4.04710937 -11.24164063 4.02390625 -12 4 C-12 3.67 -12 3.34 -12 3 C-6.06 2.505 -6.06 2.505 0 2 C0 1.34 0 0.68 0 0 Z " fill="#1B0A45" transform="translate(206,191)"/>
<path d="M0 0 C0.55171875 0.16371094 1.1034375 0.32742187 1.671875 0.49609375 C4.26614007 1.05760414 6.59835411 1.09739008 9.25 1.0625 C10.58804688 1.04896484 10.58804688 1.04896484 11.953125 1.03515625 C12.62859375 1.02355469 13.3040625 1.01195313 14 1 C13.67 1.66 13.34 2.32 13 3 C10.8203125 3.484375 10.8203125 3.484375 8.125 3.75 C7.24070312 3.84796875 6.35640625 3.9459375 5.4453125 4.046875 C3 4 3 4 0 2 C0 1.34 0 0.68 0 0 Z " fill="#351C5B" transform="translate(93,63)"/>
<path d="M0 0 C0 0.99 0 1.98 0 3 C-1.32 3.33 -2.64 3.66 -4 4 C-4.66 2.68 -5.32 1.36 -6 0 C-3.50907189 -1.24546405 -2.58919267 -0.7767578 0 0 Z " fill="#39246A" transform="translate(188,189)"/>
<path d="M0 0 C0.99 0 1.98 0 3 0 C2.51171875 6.0546875 2.51171875 6.0546875 2 8 C1.01 8.66 0.02 9.32 -1 10 C-0.67 6.7 -0.34 3.4 0 0 Z " fill="#422680" transform="translate(39,147)"/>
<path d="M0 0 C1.98 0.99 3.96 1.98 6 3 C5.67 3.66 5.34 4.32 5 5 C2.125 5.1875 2.125 5.1875 -1 5 C-1.66 4.01 -2.32 3.02 -3 2 C-2.01 2 -1.02 2 0 2 C0 1.34 0 0.68 0 0 Z " fill="#422C72" transform="translate(204,120)"/>
<path d="M0 0 C0.66 0 1.32 0 2 0 C2.79953138 3.28696233 3.09658936 4.71023192 2 8 C1.01 8 0.02 8 -1 8 C-0.67 5.36 -0.34 2.72 0 0 Z " fill="#3E2B73" transform="translate(156,72)"/>
<path d="M0 0 C0.66 0.33 1.32 0.66 2 1 C0.90931332 4.77545388 0.0916909 7.47043472 -3 10 C-2.67 7.69 -2.34 5.38 -2 3 C-1.34 3 -0.68 3 0 3 C0 2.01 0 1.02 0 0 Z " fill="#372663" transform="translate(96,193)"/>
<path d="M0 0 C2.62187494 1.04874998 3.79371361 1.64931313 5.25 4.125 C5.4975 4.74375 5.745 5.3625 6 6 C5.01 6.33 4.02 6.66 3 7 C2.67 6.34 2.34 5.68 2 5 C1.34 4.67 0.68 4.34 0 4 C0 2.68 0 1.36 0 0 Z " fill="#352264" transform="translate(214,173)"/>
<path d="M0 0 C0.33333333 1.33333333 0.66666667 2.66666667 1 4 C1.2475 4.680625 1.495 5.36125 1.75 6.0625 C1.8325 6.701875 1.915 7.34125 2 8 C0.5625 9.75 0.5625 9.75 -1 11 C-1.125 3.375 -1.125 3.375 0 0 Z " fill="#E4DDEF" transform="translate(44,146)"/>
<path d="M0 0 C0.66 0.33 1.32 0.66 2 1 C1 3 0 5 -1 7 C-1.99 7 -2.98 7 -4 7 C-3.67 5.68 -3.34 4.36 -3 3 C-2.34 3 -1.68 3 -1 3 C-0.67 2.01 -0.34 1.02 0 0 Z " fill="#3E2873" transform="translate(103,128)"/>
<path d="M0 0 C3.125 0.375 3.125 0.375 6 1 C5.67 2.32 5.34 3.64 5 5 C2.69 4.01 0.38 3.02 -2 2 C-1.34 1.34 -0.68 0.68 0 0 Z " fill="#B941AA" transform="translate(103,91)"/>
<path d="M0 0 C0.66 0 1.32 0 2 0 C2.66 2.97 3.32 5.94 4 9 C3.01 9.495 3.01 9.495 2 10 C0.68373308 6.38026598 0 3.90432869 0 0 Z " fill="#39266C" transform="translate(76,68)"/>
<path d="M0 0 C0.66 0 1.32 0 2 0 C1.67 2.64 1.34 5.28 1 8 C-0.32 7.34 -1.64 6.68 -3 6 C-1.125 1.125 -1.125 1.125 0 0 Z " fill="#E5DEEB" transform="translate(93,45)"/>
<path d="M0 0 C0.66 0.33 1.32 0.66 2 1 C-0.31 3.31 -2.62 5.62 -5 8 C-5 5 -5 5 -2.5 2.3125 C-1.675 1.549375 -0.85 0.78625 0 0 Z M-8 8 C-7.01 8.495 -7.01 8.495 -6 9 C-6.99 9.495 -6.99 9.495 -8 10 C-8 9.34 -8 8.68 -8 8 Z " fill="#422785" transform="translate(101,24)"/>
<path d="M0 0 C6.75 -0.125 6.75 -0.125 9 1 C9 1.66 9 2.32 9 3 C6.03 2.67 3.06 2.34 0 2 C0 1.34 0 0.68 0 0 Z " fill="#361F66" transform="translate(123,1)"/>
<path d="M0 0 C4.29 0 8.58 0 13 0 C11.515 1.485 11.515 1.485 10 3 C7.51953125 2.85546875 7.51953125 2.85546875 4.8125 2.1875 C3.91144531 1.97480469 3.01039062 1.76210938 2.08203125 1.54296875 C1.39496094 1.36378906 0.70789063 1.18460937 0 1 C0 0.67 0 0.34 0 0 Z " fill="#EAE1F4" transform="translate(124,0)"/>
<path d="M0 0 C2.64 0.33 5.28 0.66 8 1 C6.68 1.99 5.36 2.98 4 4 C2.68 3.34 1.36 2.68 0 2 C0 1.34 0 0.68 0 0 Z " fill="#3A206C" transform="translate(144,193)"/>
<path d="M0 0 C0.66 0.99 1.32 1.98 2 3 C1.67 3.66 1.34 4.32 1 5 C0.34 4.67 -0.32 4.34 -1 4 C-2.70363822 3.77377919 -4.41328701 3.59111527 -6.125 3.4375 C-7.03507812 3.35371094 -7.94515625 3.26992187 -8.8828125 3.18359375 C-9.58148438 3.12300781 -10.28015625 3.06242188 -11 3 C-11 2.67 -11 2.34 -11 2 C-10.28972656 1.93941406 -9.57945313 1.87882813 -8.84765625 1.81640625 C-7.46900391 1.69072266 -7.46900391 1.69072266 -6.0625 1.5625 C-5.14597656 1.48128906 -4.22945313 1.40007812 -3.28515625 1.31640625 C-1.03840268 1.23955024 -1.03840268 1.23955024 0 0 Z " fill="#645389" transform="translate(85,191)"/>
<path d="M0 0 C0.66 0.33 1.32 0.66 2 1 C0.35 3.64 -1.3 6.28 -3 9 C-3.66 8.67 -4.32 8.34 -5 8 C-3.35 5.36 -1.7 2.72 0 0 Z " fill="#4F4372" transform="translate(206,173)"/>
<path d="M0 0 C1.25541557 3.76624671 0.37061958 5.37188934 -1 9 C-1.33 9 -1.66 9 -2 9 C-2.66 6.36 -3.32 3.72 -4 1 C-2.68 0.67 -1.36 0.34 0 0 Z " fill="#613B8D" transform="translate(152,66)"/>
<path d="M0 0 C5.75 -0.125 5.75 -0.125 8 1 C8 1.99 8 2.98 8 4 C6.68 4.33 5.36 4.66 4 5 C4 4.01 4 3.02 4 2 C2.68 1.34 1.36 0.68 0 0 Z " fill="#5E4893" transform="translate(147,193)"/>
<path d="M0 0 C3.3 0.33 6.6 0.66 10 1 C10 1.33 10 1.66 10 2 C6.7 2.33 3.4 2.66 0 3 C0 2.01 0 1.02 0 0 Z " fill="#2E156D" transform="translate(189,190)"/>
<path d="M0 0 C0.99 0.33 1.98 0.66 3 1 C2.34 3.31 1.68 5.62 1 8 C-0.42944945 5.64561267 -1.08661261 4.51967567 -0.625 1.75 C-0.41875 1.1725 -0.2125 0.595 0 0 Z " fill="#4B3478" transform="translate(173,168)"/>
<path d="M0 0 C1 3 1 3 0.25 5.5 C-0.93511657 7.87023314 -2.01292881 9.28389306 -4 11 C-3.39301257 6.87248551 -1.96189209 3.6678852 0 0 Z " fill="#3E267F" transform="translate(34,151)"/>
<path d="M0 0 C-0.33 0.66 -0.66 1.32 -1 2 C-2.423125 2.2165625 -2.423125 2.2165625 -3.875 2.4375 C-7.11003166 3.0198057 -8.02934054 3.48193513 -10 6 C-10.33 5.01 -10.66 4.02 -11 3 C-7.16674383 0.29417212 -4.67461851 -0.32613618 0 0 Z " fill="#BCB0D0" transform="translate(141,42)"/>
<path d="M0 0 C0.66 0 1.32 0 2 0 C2.33 1.65 2.66 3.3 3 5 C1.02 5.99 1.02 5.99 -1 7 C-0.67 4.69 -0.34 2.38 0 0 Z " fill="#433070" transform="translate(79,100)"/>
<path d="M0 0 C0.66 0.33 1.32 0.66 2 1 C2 1.99 2 2.98 2 4 C0.02 4.33 -1.96 4.66 -4 5 C-2.25 1.125 -2.25 1.125 0 0 Z " fill="#3A246C" transform="translate(96,6)"/>
</svg>
