<?xml version="1.0" encoding="UTF-8"?>
<svg version="1.1" xmlns="http://www.w3.org/2000/svg" width="224" height="225">
<path d="M0 0 C73.92 0 147.84 0 224 0 C224 74.25 224 148.5 224 225 C150.08 225 76.16 225 0 225 C0 150.75 0 76.5 0 0 Z " fill="#FEFEFD" transform="translate(0,0)"/>
<path d="M0 0 C2.27412221 2.27412221 2.70587755 3.69699295 3.6640625 6.73754883 C3.97778809 7.72229691 4.29151367 8.70704498 4.61474609 9.72163391 C4.94812988 10.78931503 5.28151367 11.85699615 5.625 12.95703125 C6.14634521 14.59970222 6.14634521 14.59970222 6.67822266 16.27555847 C7.79130251 19.7860615 8.89599771 23.29913272 10 26.8125 C11.10546849 30.31467225 12.21267987 33.81628185 13.32177734 37.31730652 C14.01205011 39.49794002 14.69996222 41.6793225 15.38525391 43.86152649 C15.69897949 44.85573105 16.01270508 45.84993561 16.3359375 46.87426758 C16.60970215 47.74537674 16.8834668 48.6164859 17.16552734 49.51399231 C17.44090332 50.33437485 17.7162793 51.15475739 18 52 C18.29729004 52.89204636 18.59458008 53.78409271 18.90087891 54.70317078 C19.90234646 57.35201469 19.90234646 57.35201469 23.25 58.875 C29.57214253 60.77164276 34.14687229 58.70267653 40.05078125 56.1640625 C40.7090239 55.88404388 41.36726654 55.60402527 42.04545593 55.31552124 C44.13716527 54.42483474 46.22504032 53.52559596 48.3125 52.625 C51.05669496 51.44603624 53.80264092 50.27130061 56.55078125 49.1015625 C57.20442657 48.82322571 57.8580719 48.54488892 58.53152466 48.25811768 C63.29176885 46.25109908 68.06561291 44.52248569 73 43 C71.53433908 46.95218019 69.67484954 50.47998937 67.5625 54.125 C67.22484619 54.71539062 66.88719238 55.30578125 66.53930664 55.9140625 C64.41194554 59.62092156 62.22259987 63.28390263 59.9921875 66.9296875 C59.4861499 67.76999512 58.9801123 68.61030273 58.45874023 69.47607422 C57.45911017 71.13458419 56.44593492 72.78501909 55.41821289 74.42626953 C52.64673133 79.0153418 52.64673133 79.0153418 52.06640625 84.25 C52.37449219 85.1575 52.68257812 86.065 53 87 C53.35498062 88.25389778 53.35498062 88.25389778 53.71713257 89.53312683 C54.80088874 92.18472449 54.80088874 92.18472449 57.40444946 93.28462219 C58.41260712 93.5932872 59.42076477 93.90195221 60.45947266 94.2199707 C61.60050446 94.57996658 62.74153625 94.93996246 63.91714478 95.31086731 C65.15362762 95.67878891 66.39011047 96.04671051 67.6640625 96.42578125 C68.93969674 96.82046285 70.21478719 97.21690596 71.48934937 97.61503601 C74.84112758 98.65683429 78.19975215 99.67455762 81.56036377 100.68743896 C84.99001141 101.72575219 88.41264396 102.7866679 91.8359375 103.84570312 C98.55059932 105.91930996 105.27276487 107.96756677 112 110 C109.81310257 112.18689743 108.64364314 112.58922478 105.73730469 113.48046875 C104.85588806 113.75415283 103.97447144 114.02783691 103.06634521 114.30981445 C102.11117004 114.59945068 101.15599487 114.88908691 100.171875 115.1875 C99.19011292 115.49067139 98.20835083 115.79384277 97.19683838 116.10620117 C94.04967569 117.07671113 90.89993965 118.03854563 87.75 119 C84.61495644 119.96337026 81.48045102 120.9284757 78.3460083 121.89379883 C76.394298 122.49415326 74.44212727 123.09301344 72.48944092 123.69018555 C71.59541565 123.96386963 70.70139038 124.23755371 69.78027344 124.51953125 C68.94653198 124.77428223 68.11279053 125.0290332 67.25378418 125.29150391 C65.35710682 125.88774046 63.47735922 126.53745412 61.60253906 127.19921875 C59 128 59 128 55 128 C54.855625 128.86625 54.71125 129.7325 54.5625 130.625 C54 134 54 134 53.2265625 136.76953125 C52.92627799 141.05117417 54.5841435 143.58234255 56.8125 147.0625 C59.21698308 150.96086785 61.30200013 154.7404737 63 159 C63.78252713 160.53691291 64.58921524 162.06173152 65.41796875 163.57421875 C65.86720703 164.40630859 66.31644531 165.23839844 66.77929688 166.09570312 C67.72568853 167.83753631 68.67628031 169.57709339 69.63085938 171.31445312 C70.29891602 172.55678711 70.29891602 172.55678711 70.98046875 173.82421875 C71.39192139 174.57791748 71.80337402 175.33161621 72.22729492 176.1081543 C72.4822876 176.73246338 72.73728027 177.35677246 73 178 C72.67 178.66 72.34 179.32 72 180 C43.92774222 168.73185651 43.92774222 168.73185651 32.72265625 162.79296875 C30.39057511 161.71947108 29.38521429 162.13264935 27 163 C26.154375 163.350625 25.30875 163.70125 24.4375 164.0625 C22 165 22 165 19 165 C18.846521 165.66902344 18.69304199 166.33804688 18.53491211 167.02734375 C16.34826832 176.18252254 13.49555348 185.06471455 10.5625 194 C10.07971275 195.48165183 9.59728918 196.96342221 9.11523438 198.4453125 C6.44526452 206.64191178 3.73933152 214.82629933 1 223 C-1.20656977 219.69014534 -2.24469084 216.44265325 -3.390625 212.68359375 C-3.61604477 211.95869751 -3.84146454 211.23380127 -4.07371521 210.48693848 C-4.80335884 208.13840933 -5.52663812 205.78797067 -6.25 203.4375 C-7.23835458 200.24921108 -8.23018138 197.06200844 -9.22265625 193.875 C-9.46430008 193.09777084 -9.70594391 192.32054169 -9.95491028 191.51976013 C-12.01403649 184.91340972 -14.16781344 178.34207498 -16.42480469 171.80053711 C-18 167.1963478 -18 167.1963478 -18 165 C-19.134375 164.690625 -20.26875 164.38125 -21.4375 164.0625 C-25 163 -25 163 -26 162 C-30.88293359 162.42497868 -34.79786986 163.54870805 -39.23828125 165.58203125 C-40.38876953 166.10216797 -41.53925781 166.62230469 -42.72460938 167.15820312 C-43.90861328 167.70412109 -45.09261719 168.25003906 -46.3125 168.8125 C-60.12064447 175.10549163 -60.12064447 175.10549163 -65.73046875 177.44921875 C-66.51188232 177.77623779 -67.2932959 178.10325684 -68.09838867 178.44018555 C-70 179 -70 179 -72 178 C-70.86568646 176.03496285 -69.73076757 174.07027844 -68.59521484 172.10595703 C-67.60779946 170.39773826 -66.62115676 168.68907264 -65.63525391 166.97998047 C-63.14804622 162.67651424 -60.64277421 158.38674734 -58.078125 154.12890625 C-57.39532471 152.98989868 -57.39532471 152.98989868 -56.69873047 151.82788086 C-55.83400364 150.38884911 -54.96347229 148.95328511 -54.08642578 147.52172852 C-51.05147909 142.59052824 -51.05147909 142.59052824 -50 137 C-50.8206881 134.23091005 -51.40980313 132.33578493 -53 130 C-55.66312766 128.58239191 -57.70836664 127.73649804 -60.546875 126.921875 C-61.2969281 126.6826532 -62.0469812 126.4434314 -62.81976318 126.19696045 C-64.40581397 125.69448555 -65.99576156 125.20416812 -67.58911133 124.7253418 C-69.93235803 124.02035082 -72.26259247 123.28315054 -74.59179688 122.53320312 C-79.13534829 121.0753596 -83.6912156 119.65936177 -88.25 118.25 C-90.58132799 117.52771888 -92.91233552 116.80445433 -95.24261475 116.07879639 C-96.67219163 115.63374353 -98.10237064 115.19061825 -99.53326416 114.74981689 C-103.0909108 113.6435683 -106.56374799 112.44100891 -110 111 C-107.17189998 109.50934799 -104.38422627 108.39061432 -101.3425293 107.41186523 C-100.42444992 107.11493271 -99.50637054 106.81800018 -98.56047058 106.5120697 C-97.57500748 106.19742264 -96.58954437 105.88277557 -95.57421875 105.55859375 C-94.04278984 105.06698509 -94.04278984 105.06698509 -92.48042297 104.56544495 C-90.3215582 103.87371761 -88.16213472 103.1837319 -86.00219727 102.49536133 C-82.70833062 101.44414794 -79.4175971 100.3835174 -76.12695312 99.32226562 C-74.02622662 98.65046304 -71.92532086 97.97922069 -69.82421875 97.30859375 C-68.84482834 96.99192245 -67.86543793 96.67525116 -66.85636902 96.34898376 C-61.89131243 94.77639105 -57.18416297 93.53836401 -52 93 C-51.814375 91.63875 -51.814375 91.63875 -51.625 90.25 C-51 87 -51 87 -49.875 84.9375 C-48.65808002 82.24289148 -49.24013662 80.83852321 -50 78 C-50.85863635 76.16182147 -51.78720163 74.35543881 -52.765625 72.578125 C-53.32636719 71.55203125 -53.88710938 70.5259375 -54.46484375 69.46875 C-55.05394531 68.4065625 -55.64304688 67.344375 -56.25 66.25 C-56.82363281 65.20328125 -57.39726563 64.1565625 -57.98828125 63.078125 C-60.14972001 59.13928443 -62.31496815 55.20381074 -64.53710938 51.29882812 C-64.99408203 50.49380859 -65.45105469 49.68878906 -65.921875 48.859375 C-66.52660645 47.8070166 -66.52660645 47.8070166 -67.14355469 46.73339844 C-68 45 -68 45 -68 43 C-68.66 43 -69.32 43 -70 43 C-70 42.34 -70 41.68 -70 41 C-65.34969882 42.41716682 -61.11996707 44.34137738 -56.8125 46.5625 C-55.40552955 47.27198794 -53.99794946 47.98026786 -52.58984375 48.6875 C-50.22488825 49.87795877 -47.86112909 51.07053416 -45.50048828 52.26953125 C-42.96632086 53.54991196 -40.42202873 54.80793416 -37.875 56.0625 C-37.08198486 56.46863525 -36.28896973 56.87477051 -35.47192383 57.29321289 C-30.86352971 59.53875588 -28.11591003 60.49999062 -23 59 C-21.33528556 58.65704997 -19.66884482 58.32225124 -18 58 C-17.85304688 57.42781738 -17.70609375 56.85563477 -17.5546875 56.26611328 C-15.25423772 47.5650586 -12.5361297 39.00427821 -9.81152344 30.42919922 C-8.99970715 27.87407827 -8.19098541 25.31799416 -7.3828125 22.76171875 C-6.85955403 21.1093183 -6.33612242 19.45697266 -5.8125 17.8046875 C-5.57490967 17.05444305 -5.33731934 16.30419861 -5.0925293 15.53121948 C-3.44177337 10.33825256 -1.7351783 5.16534762 0 0 Z " fill="#FED601" transform="translate(111,1)"/>
<path d="M0 0 C2.27412221 2.27412221 2.70587755 3.69699295 3.6640625 6.73754883 C3.97778809 7.72229691 4.29151367 8.70704498 4.61474609 9.72163391 C4.94812988 10.78931503 5.28151367 11.85699615 5.625 12.95703125 C6.14634521 14.59970222 6.14634521 14.59970222 6.67822266 16.27555847 C7.79130251 19.7860615 8.89599771 23.29913272 10 26.8125 C11.10546849 30.31467225 12.21267987 33.81628185 13.32177734 37.31730652 C14.01205011 39.49794002 14.69996222 41.6793225 15.38525391 43.86152649 C15.69897949 44.85573105 16.01270508 45.84993561 16.3359375 46.87426758 C16.60970215 47.74537674 16.8834668 48.6164859 17.16552734 49.51399231 C17.44090332 50.33437485 17.7162793 51.15475739 18 52 C18.29729004 52.89204636 18.59458008 53.78409271 18.90087891 54.70317078 C19.90234646 57.35201469 19.90234646 57.35201469 23.25 58.875 C29.57214253 60.77164276 34.14687229 58.70267653 40.05078125 56.1640625 C40.7090239 55.88404388 41.36726654 55.60402527 42.04545593 55.31552124 C44.13716527 54.42483474 46.22504032 53.52559596 48.3125 52.625 C51.05669496 51.44603624 53.80264092 50.27130061 56.55078125 49.1015625 C57.20442657 48.82322571 57.8580719 48.54488892 58.53152466 48.25811768 C63.29176885 46.25109908 68.06561291 44.52248569 73 43 C71.53433908 46.95218019 69.67484954 50.47998937 67.5625 54.125 C67.22484619 54.71539062 66.88719238 55.30578125 66.53930664 55.9140625 C64.41194554 59.62092156 62.22259987 63.28390263 59.9921875 66.9296875 C59.4861499 67.76999512 58.9801123 68.61030273 58.45874023 69.47607422 C57.45911017 71.13458419 56.44593492 72.78501909 55.41821289 74.42626953 C52.64673133 79.0153418 52.64673133 79.0153418 52.06640625 84.25 C52.37449219 85.1575 52.68257812 86.065 53 87 C53.35498062 88.25389778 53.35498062 88.25389778 53.71713257 89.53312683 C54.80088874 92.18472449 54.80088874 92.18472449 57.40444946 93.28462219 C58.41260712 93.5932872 59.42076477 93.90195221 60.45947266 94.2199707 C61.60050446 94.57996658 62.74153625 94.93996246 63.91714478 95.31086731 C65.15362762 95.67878891 66.39011047 96.04671051 67.6640625 96.42578125 C68.93969674 96.82046285 70.21478719 97.21690596 71.48934937 97.61503601 C74.84112758 98.65683429 78.19975215 99.67455762 81.56036377 100.68743896 C84.99001141 101.72575219 88.41264396 102.7866679 91.8359375 103.84570312 C98.55059932 105.91930996 105.27276487 107.96756677 112 110 C109.81310257 112.18689743 108.64364314 112.58922478 105.73730469 113.48046875 C104.85588806 113.75415283 103.97447144 114.02783691 103.06634521 114.30981445 C102.11117004 114.59945068 101.15599487 114.88908691 100.171875 115.1875 C99.19011292 115.49067139 98.20835083 115.79384277 97.19683838 116.10620117 C94.04967569 117.07671113 90.89993965 118.03854563 87.75 119 C84.61495644 119.96337026 81.48045102 120.9284757 78.3460083 121.89379883 C76.394298 122.49415326 74.44212727 123.09301344 72.48944092 123.69018555 C71.59541565 123.96386963 70.70139038 124.23755371 69.78027344 124.51953125 C68.94653198 124.77428223 68.11279053 125.0290332 67.25378418 125.29150391 C65.35710682 125.88774046 63.47735922 126.53745412 61.60253906 127.19921875 C59 128 59 128 55 128 C54.855625 128.86625 54.71125 129.7325 54.5625 130.625 C54 134 54 134 53.2265625 136.76953125 C52.92627799 141.05117417 54.5841435 143.58234255 56.8125 147.0625 C59.21698308 150.96086785 61.30200013 154.7404737 63 159 C63.78252713 160.53691291 64.58921524 162.06173152 65.41796875 163.57421875 C65.86720703 164.40630859 66.31644531 165.23839844 66.77929688 166.09570312 C67.72568853 167.83753631 68.67628031 169.57709339 69.63085938 171.31445312 C70.29891602 172.55678711 70.29891602 172.55678711 70.98046875 173.82421875 C71.39192139 174.57791748 71.80337402 175.33161621 72.22729492 176.1081543 C72.4822876 176.73246338 72.73728027 177.35677246 73 178 C72.67 178.66 72.34 179.32 72 180 C43.92774222 168.73185651 43.92774222 168.73185651 32.72265625 162.79296875 C30.39057511 161.71947108 29.38521429 162.13264935 27 163 C26.154375 163.350625 25.30875 163.70125 24.4375 164.0625 C22 165 22 165 19 165 C18.846521 165.66902344 18.69304199 166.33804688 18.53491211 167.02734375 C16.34826832 176.18252254 13.49555348 185.06471455 10.5625 194 C10.07971275 195.48165183 9.59728918 196.96342221 9.11523438 198.4453125 C6.44526452 206.64191178 3.73933152 214.82629933 1 223 C-1.20656977 219.69014534 -2.24469084 216.44265325 -3.390625 212.68359375 C-3.61604477 211.95869751 -3.84146454 211.23380127 -4.07371521 210.48693848 C-4.80335884 208.13840933 -5.52663812 205.78797067 -6.25 203.4375 C-7.23835458 200.24921108 -8.23018138 197.06200844 -9.22265625 193.875 C-9.46430008 193.09777084 -9.70594391 192.32054169 -9.95491028 191.51976013 C-12.01403649 184.91340972 -14.16781344 178.34207498 -16.42480469 171.80053711 C-18 167.1963478 -18 167.1963478 -18 165 C-19.134375 164.690625 -20.26875 164.38125 -21.4375 164.0625 C-25 163 -25 163 -26 162 C-30.88293359 162.42497868 -34.79786986 163.54870805 -39.23828125 165.58203125 C-40.38876953 166.10216797 -41.53925781 166.62230469 -42.72460938 167.15820312 C-43.90861328 167.70412109 -45.09261719 168.25003906 -46.3125 168.8125 C-60.12064447 175.10549163 -60.12064447 175.10549163 -65.73046875 177.44921875 C-66.51188232 177.77623779 -67.2932959 178.10325684 -68.09838867 178.44018555 C-70 179 -70 179 -72 178 C-70.86568646 176.03496285 -69.73076757 174.07027844 -68.59521484 172.10595703 C-67.60779946 170.39773826 -66.62115676 168.68907264 -65.63525391 166.97998047 C-63.14804622 162.67651424 -60.64277421 158.38674734 -58.078125 154.12890625 C-57.39532471 152.98989868 -57.39532471 152.98989868 -56.69873047 151.82788086 C-55.83400364 150.38884911 -54.96347229 148.95328511 -54.08642578 147.52172852 C-51.05147909 142.59052824 -51.05147909 142.59052824 -50 137 C-50.8206881 134.23091005 -51.40980313 132.33578493 -53 130 C-55.66312766 128.58239191 -57.70836664 127.73649804 -60.546875 126.921875 C-61.2969281 126.6826532 -62.0469812 126.4434314 -62.81976318 126.19696045 C-64.40581397 125.69448555 -65.99576156 125.20416812 -67.58911133 124.7253418 C-69.93235803 124.02035082 -72.26259247 123.28315054 -74.59179688 122.53320312 C-79.13534829 121.0753596 -83.6912156 119.65936177 -88.25 118.25 C-90.58132799 117.52771888 -92.91233552 116.80445433 -95.24261475 116.07879639 C-96.67219163 115.63374353 -98.10237064 115.19061825 -99.53326416 114.74981689 C-103.0909108 113.6435683 -106.56374799 112.44100891 -110 111 C-107.17189998 109.50934799 -104.38422627 108.39061432 -101.3425293 107.41186523 C-100.42444992 107.11493271 -99.50637054 106.81800018 -98.56047058 106.5120697 C-97.57500748 106.19742264 -96.58954437 105.88277557 -95.57421875 105.55859375 C-94.04278984 105.06698509 -94.04278984 105.06698509 -92.48042297 104.56544495 C-90.3215582 103.87371761 -88.16213472 103.1837319 -86.00219727 102.49536133 C-82.70833062 101.44414794 -79.4175971 100.3835174 -76.12695312 99.32226562 C-74.02622662 98.65046304 -71.92532086 97.97922069 -69.82421875 97.30859375 C-68.84482834 96.99192245 -67.86543793 96.67525116 -66.85636902 96.34898376 C-61.89131243 94.77639105 -57.18416297 93.53836401 -52 93 C-51.814375 91.63875 -51.814375 91.63875 -51.625 90.25 C-51 87 -51 87 -49.875 84.9375 C-48.65808002 82.24289148 -49.24013662 80.83852321 -50 78 C-50.85863635 76.16182147 -51.78720163 74.35543881 -52.765625 72.578125 C-53.32636719 71.55203125 -53.88710938 70.5259375 -54.46484375 69.46875 C-55.05394531 68.4065625 -55.64304688 67.344375 -56.25 66.25 C-56.82363281 65.20328125 -57.39726563 64.1565625 -57.98828125 63.078125 C-60.14972001 59.13928443 -62.31496815 55.20381074 -64.53710938 51.29882812 C-64.99408203 50.49380859 -65.45105469 49.68878906 -65.921875 48.859375 C-66.52660645 47.8070166 -66.52660645 47.8070166 -67.14355469 46.73339844 C-68 45 -68 45 -68 43 C-68.66 43 -69.32 43 -70 43 C-70 42.34 -70 41.68 -70 41 C-65.34969882 42.41716682 -61.11996707 44.34137738 -56.8125 46.5625 C-55.40552955 47.27198794 -53.99794946 47.98026786 -52.58984375 48.6875 C-50.22488825 49.87795877 -47.86112909 51.07053416 -45.50048828 52.26953125 C-42.96632086 53.54991196 -40.42202873 54.80793416 -37.875 56.0625 C-37.08198486 56.46863525 -36.28896973 56.87477051 -35.47192383 57.29321289 C-30.86352971 59.53875588 -28.11591003 60.49999062 -23 59 C-21.33528556 58.65704997 -19.66884482 58.32225124 -18 58 C-17.85304688 57.42781738 -17.70609375 56.85563477 -17.5546875 56.26611328 C-15.25423772 47.5650586 -12.5361297 39.00427821 -9.81152344 30.42919922 C-8.99970715 27.87407827 -8.19098541 25.31799416 -7.3828125 22.76171875 C-6.85955403 21.1093183 -6.33612242 19.45697266 -5.8125 17.8046875 C-5.57490967 17.05444305 -5.33731934 16.30419861 -5.0925293 15.53121948 C-3.44177337 10.33825256 -1.7351783 5.16534762 0 0 Z M-7 60 C-7.99 59.67 -8.98 59.34 -10 59 C-10.7425 59.45375 -11.485 59.9075 -12.25 60.375 C-15 62 -15 62 -18.3125 62.25 C-22.88729796 63.18046738 -24.8293712 65.11256376 -28.10546875 68.30859375 C-30.00591908 70.00528446 -31.73752294 70.86876147 -34 72 C-39.30499586 76.42931516 -42.64065329 80.54284057 -45 87 C-45.98244845 88.34631825 -46.97676564 89.68441297 -48 91 C-48 91.66 -48 92.32 -48 93 C-48.66 93 -49.32 93 -50 93 C-51.41260957 95.82521914 -51.1297767 98.2071361 -51.1328125 101.36328125 C-51.13410156 102.64267578 -51.13539062 103.92207031 -51.13671875 105.24023438 C-51.13462402 105.90885498 -51.1325293 106.57747559 -51.13037109 107.26635742 C-51.12504808 109.29418519 -51.1303055 111.32178875 -51.13671875 113.34960938 C-51.13542969 114.63287109 -51.13414063 115.91613281 -51.1328125 117.23828125 C-51.13168457 118.41430908 -51.13055664 119.59033691 -51.12939453 120.80200195 C-51.01373611 123.66051075 -50.65737966 126.2226199 -50 129 C-49.34 129 -48.68 129 -48 129 C-47.7525 130.19625 -47.505 131.3925 -47.25 132.625 C-46.20777614 136.80878436 -44.69101756 139.63622805 -42 143 C-41.34 143 -40.68 143 -40 143 C-39.67 144.32 -39.34 145.64 -39 147 C-38.01 147 -37.02 147 -36 147 C-35.67 148.32 -35.34 149.64 -35 151 C-34.34 151 -33.68 151 -33 151 C-33 151.66 -33 152.32 -33 153 C-32.34 153 -31.68 153 -31 153 C-31 153.66 -31 154.32 -31 155 C-30.13375 155.433125 -29.2675 155.86625 -28.375 156.3125 C-26.18276307 157.40861847 -24.01350824 158.55243539 -21.875 159.75 C-19.15189645 161.22735161 -19.15189645 161.22735161 -16.625 160.6875 C-16.08875 160.460625 -15.5525 160.23375 -15 160 C-15 160.66 -15 161.32 -15 162 C-10.11582388 164.55934907 -5.3130548 164.34290526 0.0625 164.3125 C1.46181763 164.31056641 1.46181763 164.31056641 2.8894043 164.30859375 C9.98112525 164.21014036 16.26736995 163.34178436 23 161 C23 160.34 23 159.68 23 159 C24.3303125 158.5978125 24.3303125 158.5978125 25.6875 158.1875 C31.29076592 156.27175632 31.29076592 156.27175632 35 152 C35.99 151.67 36.98 151.34 38 151 C40.09817566 148.59544472 40.09817566 148.59544472 42.125 145.6875 C42.82882813 144.72199219 43.53265625 143.75648438 44.2578125 142.76171875 C45.76588211 140.3711241 46.56856168 138.75205355 47 136 C47.66 136 48.32 136 49 136 C49.28875 135.113125 49.5775 134.22625 49.875 133.3125 C51 130 51 130 52.0625 127.75 C56.38885346 115.05936318 54.96548397 99.65746881 49.46484375 87.6484375 C48.02313504 84.73775373 46.54164707 81.85878242 45 79 C44.34 79 43.68 79 43 79 C43 78.34 43 77.68 43 77 C42.34 77 41.68 77 41 77 C41 76.34 41 75.68 41 75 C37.20741237 71.09448172 32.88204708 67.44102354 28 65 C27.34 65 26.68 65 26 65 C26 64.34 26 63.68 26 63 C14.96213239 59.44206666 4.34742383 56.18600477 -7 60 Z " fill="#FBB605" transform="translate(111,1)"/>
<path d="M0 0 C0.53367188 0.18175781 1.06734375 0.36351562 1.6171875 0.55078125 C5.66132204 1.9151519 9.69415074 3.19113424 13.8125 4.3125 C17.87591271 5.48609435 21.34467277 7.17760863 25.0625 9.1875 C34.18251424 13.82264032 40.35877946 11.99736824 49.91162109 9.4375 C59.17265602 7.04251697 68.81963839 7.03741319 78 10 C78.99 10.99 78.99 10.99 80 12 C78.35405757 11.85540319 76.70825269 11.70924064 75.0625 11.5625 C74.05960937 11.47484375 73.05671875 11.3871875 72.0234375 11.296875 C69.39473837 11.03875984 66.80115468 10.68715357 64.1875 10.3125 C60.32156801 9.84914142 57.65567474 10.607362 54 12 C53.01 11.67 52.02 11.34 51 11 C50.2575 11.45375 49.515 11.9075 48.75 12.375 C46 14 46 14 42.6875 14.25 C38.11270204 15.18046738 36.1706288 17.11256376 32.89453125 20.30859375 C30.99662106 22.00301666 29.26653868 22.88457742 27 24 C22.02396717 28.05573428 19.30192522 31.97114824 17 38 C15.79148269 40.16010575 14.50071189 42.0151875 13 44 C12.34 44 11.68 44 11 44 C10.975273 48.35994067 10.95712719 52.71984414 10.94506836 57.07983398 C10.94004097 58.56291413 10.93321815 60.04598933 10.92456055 61.52905273 C10.91242518 63.66130801 10.90675575 65.79349773 10.90234375 67.92578125 C10.89710693 69.20880127 10.89187012 70.49182129 10.88647461 71.8137207 C10.85072824 75.0225974 10.85072824 75.0225974 12 78 C6.3484812 77.25835551 1.05500598 75.60678144 -4.375 73.9375 C-5.30183594 73.65583984 -6.22867188 73.37417969 -7.18359375 73.08398438 C-9.45676934 72.39265778 -11.72883938 71.69791205 -14 71 C-14 70.34 -14 69.68 -14 69 C-15.051875 69.04125 -16.10375 69.0825 -17.1875 69.125 C-20.85875922 69.00463085 -22.70024975 68.40239386 -26 67 C-28.32597511 66.6186926 -30.65912158 66.27539746 -33 66 C-33 65.01 -33 64.02 -33 63 C-33.66 63 -34.32 63 -35 63 C-34.67 62.01 -34.34 61.02 -34 60 C-31.5078125 58.82421875 -31.5078125 58.82421875 -28.125 57.6875 C-27.21016846 57.37546631 -27.21016846 57.37546631 -26.27685547 57.05712891 C-20.13528789 54.98551389 -13.94439558 53.05192048 -7.75048828 51.14331055 C-2.75790472 49.59773527 2.11804609 47.86631931 7 46 C7.99 45.67 8.98 45.34 10 45 C10.73175115 42.92361328 10.73175115 42.92361328 11.0625 40.5 C11.47265625 38.03125 11.47265625 38.03125 12 36 C12.66 35.67 13.32 35.34 14 35 C14.65772428 31.97065509 14.65772428 31.97065509 15 29 C14.34 29 13.68 29 13 29 C11.0027204 25.48915345 9.03055106 21.96480149 7.0625 18.4375 C6.49853516 17.44685547 5.93457031 16.45621094 5.35351562 15.43554688 C2.46285929 10.22544175 0.26079332 5.9982463 0 0 Z " fill="#FCB905" transform="translate(50,50)"/>
<path d="M0 0 C1.30518372 3.91555116 0.80464567 5.31551508 -1 9 C-5.73169451 12.11280029 -10.34222787 13.91720934 -15.8125 15.375 C-17.30150542 15.79431189 -18.78976312 16.21628616 -20.27734375 16.640625 C-21.04546387 16.85912109 -21.81358398 17.07761719 -22.60498047 17.30273438 C-26.71996474 18.50073591 -30.80004417 19.79800067 -34.875 21.125 C-36.02512573 21.48730713 -36.02512573 21.48730713 -37.19848633 21.85693359 C-40.89344574 23.07236435 -43.39796633 24.11650354 -46 27 C-45.34 27 -44.68 27 -44 27 C-44 27.99 -44 28.98 -44 30 C-42.948125 29.95875 -41.89625 29.9175 -40.8125 29.875 C-37.14124078 29.99536915 -35.29975025 30.59760614 -32 32 C-29.67402489 32.3813074 -27.34087842 32.72460254 -25 33 C-25 33.66 -25 34.32 -25 35 C-23.73349609 35.18755859 -23.73349609 35.18755859 -22.44140625 35.37890625 C-18.85527636 36.02611925 -15.43826874 36.92802914 -11.9375 37.9375 C-10.75027344 38.27652344 -9.56304687 38.61554688 -8.33984375 38.96484375 C-5.4844275 39.8498558 -2.75257849 40.83965028 0 42 C0 42.66 0 43.32 0 44 C0.66 44 1.32 44 2 44 C2.31453125 44.81984375 2.6290625 45.6396875 2.953125 46.484375 C3.38109375 47.56203125 3.8090625 48.6396875 4.25 49.75 C4.66765625 50.81734375 5.0853125 51.8846875 5.515625 52.984375 C7.00396687 56.00805902 8.58280683 57.70676546 11 60 C11 60.66 11 61.32 11 62 C11.99 62 12.98 62 14 62 C14.33 62.99 14.66 63.98 15 65 C15.66 65.33 16.32 65.66 17 66 C17 66.66 17 67.32 17 68 C17.66 68 18.32 68 19 68 C19 68.66 19 69.32 19 70 C20.299375 70.4021875 20.299375 70.4021875 21.625 70.8125 C25 72 25 72 28.125 73.625 C31.07027495 75.287637 31.07027495 75.287637 35 75 C35 75.66 35 76.32 35 77 C36.65 77.33 38.3 77.66 40 78 C40 78.66 40 79.32 40 80 C46.27 80 52.54 80 59 80 C59 80.33 59 80.66 59 81 C57.96359375 81.06058594 56.9271875 81.12117188 55.859375 81.18359375 C54.48957127 81.26803371 53.11978025 81.35267997 51.75 81.4375 C51.06808594 81.47681641 50.38617188 81.51613281 49.68359375 81.55664062 C46.97504625 81.72756838 44.39401136 81.89460885 41.765625 82.59765625 C39.56731472 83.09859864 38.14663928 82.59656603 36 82 C36.80693963 85.14728687 37.62147828 88.29255678 38.4375 91.4375 C38.66759766 92.33533203 38.89769531 93.23316406 39.13476562 94.15820312 C39.46831055 95.43920898 39.46831055 95.43920898 39.80859375 96.74609375 C40.11494751 97.93223267 40.11494751 97.93223267 40.42749023 99.14233398 C40.84032953 100.9961588 40.84032953 100.9961588 42 102 C42.14115161 104.67058851 42.04247107 107.32432238 42 110 C40.62690564 107.36430708 39.50476723 104.7706105 38.5625 101.953125 C38.30726562 101.19 38.05203125 100.426875 37.7890625 99.640625 C37.52867188 98.85171875 37.26828125 98.0628125 37 97.25 C36.60941406 96.08984375 36.60941406 96.08984375 36.2109375 94.90625 C34.57409337 89.97918384 33.19944442 85.05150631 32 80 C30.2984375 79.5359375 30.2984375 79.5359375 28.5625 79.0625 C25 78 25 78 24 77 C19.11706641 77.42497868 15.20213014 78.54870805 10.76171875 80.58203125 C9.61123047 81.10216797 8.46074219 81.62230469 7.27539062 82.15820312 C6.09138672 82.70412109 4.90738281 83.25003906 3.6875 83.8125 C-10.12064447 90.10549163 -10.12064447 90.10549163 -15.73046875 92.44921875 C-16.51188232 92.77623779 -17.2932959 93.10325684 -18.09838867 93.44018555 C-20 94 -20 94 -22 93 C-20.86568646 91.03496285 -19.73076757 89.07027844 -18.59521484 87.10595703 C-17.60779946 85.39773826 -16.62115676 83.68907264 -15.63525391 81.97998047 C-13.14804622 77.67651424 -10.64277421 73.38674734 -8.078125 69.12890625 C-7.39532471 67.98989868 -7.39532471 67.98989868 -6.69873047 66.82788086 C-5.83400364 65.38884911 -4.96347229 63.95328511 -4.08642578 62.52172852 C-1.05147909 57.59052824 -1.05147909 57.59052824 0 52 C-0.8206881 49.23091005 -1.40980313 47.33578493 -3 45 C-5.66312766 43.58239191 -7.70836664 42.73649804 -10.546875 41.921875 C-11.2969281 41.6826532 -12.0469812 41.4434314 -12.81976318 41.19696045 C-14.40581397 40.69448555 -15.99576156 40.20416812 -17.58911133 39.7253418 C-19.93235803 39.02035082 -22.26259247 38.28315054 -24.59179688 37.53320312 C-29.13534829 36.0753596 -33.6912156 34.65936177 -38.25 33.25 C-40.58132799 32.52771888 -42.91233552 31.80445433 -45.24261475 31.07879639 C-46.67219163 30.63374353 -48.10237064 30.19061825 -49.53326416 29.74981689 C-53.0909108 28.6435683 -56.56374799 27.44100891 -60 26 C-57.17189998 24.50934799 -54.38422627 23.39061432 -51.3425293 22.41186523 C-50.42444992 22.11493271 -49.50637054 21.81800018 -48.56047058 21.5120697 C-47.57500748 21.19742264 -46.58954437 20.88277557 -45.57421875 20.55859375 C-44.04278984 20.06698509 -44.04278984 20.06698509 -42.48042297 19.56544495 C-40.3215582 18.87371761 -38.16213472 18.1837319 -36.00219727 17.49536133 C-32.70833062 16.44414794 -29.4175971 15.3835174 -26.12695312 14.32226562 C-24.02622662 13.65046304 -21.92532086 12.97922069 -19.82421875 12.30859375 C-18.84482834 11.99192245 -17.86543793 11.67525116 -16.85636902 11.34898376 C-11.89131243 9.77639105 -7.18416297 8.53836401 -2 8 C-1.855625 7.05125 -1.71125 6.1025 -1.5625 5.125 C-1 2 -1 2 0 0 Z " fill="#F6A807" transform="translate(61,86)"/>
<path d="M0 0 C0.99 0.33 1.98 0.66 3 1 C3.87890625 3.87890625 3.87890625 3.87890625 4.5625 7.5625 C4.81128906 8.83609375 5.06007813 10.1096875 5.31640625 11.421875 C5.54199219 12.60265625 5.76757812 13.7834375 6 15 C7.4618166 21.62690193 9.52130554 28.04174803 11.89453125 34.39453125 C14.64174581 41.95877955 14.64174581 41.95877955 13 46 C10.39048764 47.30475618 8.47298715 47.11301572 5.5546875 47.09765625 C3.94013672 47.09282227 3.94013672 47.09282227 2.29296875 47.08789062 C1.16503906 47.07951172 0.03710938 47.07113281 -1.125 47.0625 C-2.26066406 47.05798828 -3.39632812 47.05347656 -4.56640625 47.04882812 C-7.37765638 47.03701615 -10.1888023 47.02054507 -13 47 C-12.70317587 45.42893471 -12.40141685 43.8588014 -12.09765625 42.2890625 C-11.93015869 41.41459473 -11.76266113 40.54012695 -11.59008789 39.63916016 C-11.02992943 37.13385899 -10.30450721 34.78894377 -9.4375 32.375 C-8.41100193 29.47001045 -7.75887129 26.81450485 -7.4375 23.75 C-7.04069392 20.34880501 -6.37944349 18.08346192 -5 15 C-4.31974363 13.00458132 -3.65509503 11.00382009 -3 9 C-2.45913271 7.37473376 -1.91743059 5.74974516 -1.375 4.125 C-1.11460938 3.34382812 -0.85421875 2.56265625 -0.5859375 1.7578125 C-0.39257812 1.17773438 -0.19921875 0.59765625 0 0 Z " fill="#FDBB03" transform="translate(111,9)"/>
<path d="M0 0 C0.66 0 1.32 0 2 0 C0.74971173 6.21187527 -1.7167481 9.48322227 -6.125 13.9375 C-6.96998047 14.82018555 -6.96998047 14.82018555 -7.83203125 15.72070312 C-9.21052286 17.1576054 -10.60379091 18.58030727 -12 20 C-10.68 19.67 -9.36 19.34 -8 19 C-8 18.34 -8 17.68 -8 17 C-7.34 17 -6.68 17 -6 17 C-6 16.34 -6 15.68 -6 15 C-5.34 15 -4.68 15 -4 15 C-3.7525 14.443125 -3.505 13.88625 -3.25 13.3125 C-1.77075182 10.57589087 -0.06532561 8.32349131 2 6 C2.66 6 3.32 6 4 6 C4 6.66 4 7.32 4 8 C4.66 8 5.32 8 6 8 C11.71734044 14.33769702 14.95474608 22.8291597 17 31 C16.62890625 33.41796875 16.62890625 33.41796875 16 35 C13.21054387 34.31366149 10.43911621 33.57946809 7.671875 32.80859375 C6.87265625 32.58623047 6.0734375 32.36386719 5.25 32.13476562 C4.425 31.90466797 3.6 31.67457031 2.75 31.4375 C1.90953125 31.20353516 1.0690625 30.96957031 0.203125 30.72851562 C-1.86471337 30.15281062 -3.93237412 29.57646771 -6 29 C-6 28.01 -6 27.02 -6 26 C-6.721875 25.938125 -7.44375 25.87625 -8.1875 25.8125 C-11.84657625 24.75543353 -13.49211602 22.79449929 -16 20 C-15.67 19.34 -15.34 18.68 -15 18 C-14.34 18 -13.68 18 -13 18 C-12.67 17.01 -12.34 16.02 -12 15 C-11.01 15 -10.02 15 -9 15 C-8.73316406 14.43539062 -8.46632812 13.87078125 -8.19140625 13.2890625 C-6.92421921 10.8544015 -5.48139767 8.6434295 -3.9375 6.375 C-1.82273349 3.27282054 -1.82273349 3.27282054 0 0 Z " fill="#FCB805" transform="translate(158,137)"/>
<path d="M0 0 C0.66 0 1.32 0 2 0 C2 0.66 2 1.32 2 2 C2.66 2 3.32 2 4 2 C7 5.46153846 7 5.46153846 7 8 C7.66 8 8.32 8 9 8 C9 8.66 9 9.32 9 10 C9.66 10 10.32 10 11 10 C12.7143618 11.95927063 14.38405168 13.95880212 16 16 C12.26190518 18.16416016 9.03585204 19.23191272 4.8125 19.875 C0.85785945 20.48917973 0.85785945 20.48917973 -1.8125 23.375 C-2.204375 24.24125 -2.59625 25.1075 -3 26 C-6.66762654 29.37772224 -10.62831638 31.41164915 -15.1875 33.3125 C-16.13012695 33.72725586 -16.13012695 33.72725586 -17.09179688 34.15039062 C-18.70111786 34.83370659 -20.34902743 35.42456596 -22 36 C-22.66 35.67 -23.32 35.34 -24 35 C-22.74018219 32.68085795 -21.46803871 30.37016084 -20.1875 28.0625 C-19.83107422 27.40314453 -19.47464844 26.74378906 -19.10742188 26.06445312 C-16.33984375 21.11328125 -16.33984375 21.11328125 -13 20 C-11.53706037 17.68130796 -11.53706037 17.68130796 -10.3125 14.9375 C-9.87550781 14.01839844 -9.43851563 13.09929687 -8.98828125 12.15234375 C-8.66214844 11.44207031 -8.33601563 10.73179687 -8 10 C-7.34 10 -6.68 10 -6 10 C-5.896875 9.38125 -5.79375 8.7625 -5.6875 8.125 C-5 6 -5 6 -2 4 C-0.80767387 1.94996045 -0.80767387 1.94996045 0 0 Z " fill="#FDBB03" transform="translate(63,144)"/>
<path d="M0 0 C-0.22905499 6.29901211 -1.77256942 9.77787585 -5.52734375 14.82421875 C-7.08932232 17.13196958 -8.0527137 19.38695423 -9 22 C-9.66 22 -10.32 22 -11 22 C-11.33 22.99 -11.66 23.98 -12 25 C-12.99 25 -13.98 25 -15 25 C-15 26.32 -15 27.64 -15 29 C-15.99 29 -16.98 29 -18 29 C-18.9765625 27.20963542 -19.953125 25.41927083 -20.9296875 23.62890625 C-21.91410024 21.83381685 -21.91410024 21.83381685 -24 21 C-24 20.34 -24 19.68 -24 19 C-24.598125 18.731875 -25.19625 18.46375 -25.8125 18.1875 C-27.97224808 17.01506533 -29.35790256 15.80630718 -31 14 C-28.57112653 10.35668979 -27.12519473 10.06457554 -23.0625 8.625 C-17.66182747 6.64695124 -12.44830729 4.45647642 -7.2421875 2.015625 C-4.79255816 0.90603679 -2.7158603 0 0 0 Z " fill="#FCB906" transform="translate(176,51)"/>
<path d="M0 0 C0.99 0.99 0.99 0.99 2 2 C0.35405757 1.85540319 -1.29174731 1.70924064 -2.9375 1.5625 C-3.94039063 1.47484375 -4.94328125 1.3871875 -5.9765625 1.296875 C-8.60526163 1.03875984 -11.19884532 0.68715357 -13.8125 0.3125 C-17.67843199 -0.15085858 -20.34432526 0.607362 -24 2 C-24.99 1.67 -25.98 1.34 -27 1 C-28.11375 1.680625 -28.11375 1.680625 -29.25 2.375 C-32 4 -32 4 -35.3125 4.25 C-39.88729796 5.18046738 -41.8293712 7.11256376 -45.10546875 10.30859375 C-47.00337894 12.00301666 -48.73346132 12.88457742 -51 14 C-55.97603283 18.05573428 -58.69807478 21.97114824 -61 28 C-62.20851731 30.16010575 -63.49928811 32.0151875 -65 34 C-65.66 34 -66.32 34 -67 34 C-67.144375 35.299375 -67.28875 36.59875 -67.4375 37.9375 C-67.875 41.875 -67.875 41.875 -69 43 C-69.15655027 44.48638992 -69.25066943 45.97949127 -69.31640625 47.47265625 C-69.35830078 48.37177734 -69.40019531 49.27089844 -69.44335938 50.19726562 C-69.50233398 51.61555664 -69.50233398 51.61555664 -69.5625 53.0625 C-69.62727539 54.4865918 -69.62727539 54.4865918 -69.69335938 55.93945312 C-69.79979276 58.29281353 -69.90181008 60.64628354 -70 63 C-72.72154564 60.65255461 -72.97732794 60.24750334 -73.328125 56.41796875 C-73.31751084 55.007612 -73.29090092 53.59730351 -73.25 52.1875 C-73.24484375 51.48818359 -73.2396875 50.78886719 -73.234375 50.06835938 C-73.17283321 45.95659885 -72.78533249 42.03432899 -72 38 C-72.66 37.67 -73.32 37.34 -74 37 C-73.05125 36.855625 -72.1025 36.71125 -71.125 36.5625 C-67.86729385 35.37956266 -67.86729385 35.37956266 -67.2265625 32.8984375 C-66.91172911 31.27265852 -66.64245572 29.63731936 -66.421875 27.99609375 C-66.21304688 27.00802734 -66.21304688 27.00802734 -66 26 C-65.34 25.67 -64.68 25.34 -64 25 C-63.34444881 22.47266765 -63.34444881 22.47266765 -63 20 C-62.34 20 -61.68 20 -61 20 C-60.67 18.35 -60.34 16.7 -60 15 C-59.01 14.67 -58.02 14.34 -57 14 C-56.7525 13.4225 -56.505 12.845 -56.25 12.25 C-54.34399739 8.81919529 -51.23766852 7.11227572 -48 5 C-49.95216435 3.04783565 -51.53199953 2.15173355 -54 1 C-53.34 0.67 -52.68 0.34 -52 0 C-51.319375 0.309375 -50.63875 0.61875 -49.9375 0.9375 C-43.06082252 3.42480887 -37.00410328 1.85025525 -30.1875 0 C-20.13459633 -2.70074516 -10.06476149 -3.24799076 0 0 Z " fill="#F6A402" transform="translate(128,60)"/>
<path d="M0 0 C1.30518372 3.91555116 0.80464567 5.31551508 -1 9 C-5.73169451 12.11280029 -10.34222787 13.91720934 -15.8125 15.375 C-17.30150542 15.79431189 -18.78976312 16.21628616 -20.27734375 16.640625 C-21.04546387 16.85912109 -21.81358398 17.07761719 -22.60498047 17.30273438 C-26.71996474 18.50073591 -30.80004417 19.79800067 -34.875 21.125 C-36.02512573 21.48730713 -36.02512573 21.48730713 -37.19848633 21.85693359 C-40.89344574 23.07236435 -43.39796633 24.11650354 -46 27 C-45.34 27 -44.68 27 -44 27 C-44 27.99 -44 28.98 -44 30 C-42.948125 29.95875 -41.89625 29.9175 -40.8125 29.875 C-37.14124078 29.99536915 -35.29975025 30.59760614 -32 32 C-29.67402489 32.3813074 -27.34087842 32.72460254 -25 33 C-25 33.66 -25 34.32 -25 35 C-23.7625 35.185625 -23.7625 35.185625 -22.5 35.375 C-18.60227933 36.07102155 -14.83260331 37.00880949 -11 38 C-11 38.66 -11 39.32 -11 40 C-9.2984375 40.433125 -9.2984375 40.433125 -7.5625 40.875 C-6.386875 41.24625 -5.21125 41.6175 -4 42 C-3.67 42.66 -3.34 43.32 -3 44 C-11.61241716 41.43355248 -20.19993059 38.78889257 -28.78491211 36.13232422 C-34.21490554 34.4563008 -39.648067 32.79959788 -45.10546875 31.21484375 C-46.03117676 30.94454346 -46.95688477 30.67424316 -47.91064453 30.39575195 C-49.645383 29.89155665 -51.38198891 29.39373175 -53.12060547 28.90307617 C-55.09820541 28.32660558 -57.05252803 27.6712472 -59 27 C-59.33 26.34 -59.66 25.68 -60 25 C-52.88224931 22.77848991 -45.76309428 20.56154385 -38.64210796 18.35042572 C-35.33565206 17.32358968 -32.0297017 16.29518345 -28.72485352 15.26318359 C-24.92609103 14.07702538 -21.12522315 12.89770531 -17.32421875 11.71875 C-15.54285774 11.16096863 -15.54285774 11.16096863 -13.72550964 10.59191895 C-12.62459488 10.25156616 -11.52368011 9.91121338 -10.3894043 9.56054688 C-9.41899704 9.2585437 -8.44858978 8.95654053 -7.44877625 8.64538574 C-5 8 -5 8 -2 8 C-1.855625 7.05125 -1.71125 6.1025 -1.5625 5.125 C-1 2 -1 2 0 0 Z " fill="#E4A430" transform="translate(61,86)"/>
<path d="M0 0 C2.81057112 1.40528556 2.90882747 3.10396632 4 6 C4.78252713 7.53691291 5.58921524 9.06173152 6.41796875 10.57421875 C6.86720703 11.40630859 7.31644531 12.23839844 7.77929688 13.09570312 C8.72568853 14.83753631 9.67628031 16.57709339 10.63085938 18.31445312 C11.07623047 19.14267578 11.52160156 19.97089844 11.98046875 20.82421875 C12.39192139 21.57791748 12.80337402 22.33161621 13.22729492 23.1081543 C13.4822876 23.73246338 13.73728027 24.35677246 14 25 C13.67 25.66 13.34 26.32 13 27 C-15.07225778 15.73185651 -15.07225778 15.73185651 -26.27734375 9.79296875 C-28.60942489 8.71947108 -29.61478571 9.13264935 -32 10 C-32.845625 10.350625 -33.69125 10.70125 -34.5625 11.0625 C-37 12 -37 12 -40 12 C-40.33 13.65 -40.66 15.3 -41 17 C-41.33 17 -41.66 17 -42 17 C-42.25 14.6875 -42.25 14.6875 -42 12 C-39.95575462 10.02389614 -38.8823175 9 -36 9 C-36 8.01 -36 7.02 -36 6 C-30.65420561 2.96261682 -30.65420561 2.96261682 -27.8125 3.125 C-25.74338741 4.12388194 -24.61842985 5.38157015 -23 7 C-20.40084462 8.19027984 -20.40084462 8.19027984 -18 9 C-18 9.99 -18 10.98 -18 12 C-17.21496094 12.10957031 -16.42992187 12.21914062 -15.62109375 12.33203125 C-9.57652929 13.2442784 -4.52192288 14.41527014 1 17 C1.99 17 2.98 17 4 17 C3.38464225 13.0617104 2.1362385 9.62583945 0.62109375 5.96484375 C0 4 0 4 0 0 Z " fill="#F4A90E" transform="translate(170,154)"/>
<path d="M0 0 C0.33 0 0.66 0 1 0 C1.07442057 3.86986958 1.04702186 7.2735915 0 11 C1.34191406 10.45859375 1.34191406 10.45859375 2.7109375 9.90625 C9.93310499 7.134416 16.16353921 5.18746374 24 6 C20.07751123 8.61499251 16.03754745 9.72800983 11.5625 11.125 C10.70333984 11.40214844 9.84417969 11.67929688 8.95898438 11.96484375 C8.12818359 12.22652344 7.29738281 12.48820312 6.44140625 12.7578125 C5.30747437 13.11576904 5.30747437 13.11576904 4.15063477 13.48095703 C2 14 2 14 -2 14 C-2.144375 14.86625 -2.28875 15.7325 -2.4375 16.625 C-3 20 -3 20 -3.72265625 22.8515625 C-4.07126513 26.80900982 -3.06795256 28.40804096 -1 31.75 C0.05215584 33.46914749 1.06607292 35.21386445 2 37 C1.67 37.66 1.34 38.32 1 39 C0.16094435 37.87926138 -0.67107831 36.75325453 -1.5 35.625 C-1.9640625 34.99851563 -2.428125 34.37203125 -2.90625 33.7265625 C-4 32 -4 32 -4 30 C-4.66 30 -5.32 30 -6 30 C-6 29.34 -6 28.68 -6 28 C-8.41066845 30.34551525 -10.70194579 32.59155534 -12.6875 35.3125 C-13.120625 35.869375 -13.55375 36.42625 -14 37 C-14.66 37 -15.32 37 -16 37 C-16 37.66 -16 38.32 -16 39 C-16.66 39 -17.32 39 -18 39 C-18 39.66 -18 40.32 -18 41 C-19.65 41.66 -21.3 42.32 -23 43 C-21.7315625 41.5459375 -21.7315625 41.5459375 -20.4375 40.0625 C-19.62345703 39.09957031 -19.62345703 39.09957031 -18.79296875 38.1171875 C-17.58450644 36.6902015 -16.35735842 35.27885769 -15.11328125 33.8828125 C-11.06387222 29.11181066 -9.26716523 25.48380485 -8.39453125 19.2890625 C-7.86136841 16.19566224 -6.47117739 13.75046208 -5 11 C-4.855625 10.175 -4.71125 9.35 -4.5625 8.5 C-3.79478366 5.08792736 -2.06948245 2.78086704 0 0 Z " fill="#F4A301" transform="translate(168,115)"/>
<path d="M0 0 C4.65030118 1.41716682 8.88003293 3.34137738 13.1875 5.5625 C14.59447045 6.27198794 16.00205054 6.98026786 17.41015625 7.6875 C19.77511175 8.87795877 22.13887091 10.07053416 24.49951172 11.26953125 C27.03367914 12.54991196 29.57797127 13.80793416 32.125 15.0625 C32.91801514 15.46863525 33.71103027 15.87477051 34.52807617 16.29321289 C39.13647029 18.53875588 41.88408997 19.49999062 47 18 C48.65 17.67 50.3 17.34 52 17 C53.485 11.555 53.485 11.555 55 6 C56.26477172 11.05908689 55.59415556 14.47572187 53 19 C48.67513542 21.04003046 44.72720907 21.38176985 40 21 C37.11618992 19.94872114 34.41964593 18.58029916 31.6875 17.1875 C25.86446398 14.32590086 20.22860533 11.8685816 14 10 C12.32843853 9.34570308 10.66067693 8.68145019 9 8 C11.31982667 15.31970155 14.34430177 21.66238689 18.4140625 28.17578125 C20.03290249 31.05859237 21.05667834 33.83847148 22 37 C22.66 37 23.32 37 24 37 C24 38.98 24 40.96 24 43 C22.515 43.495 22.515 43.495 21 44 C21.17208984 42.82630859 21.17208984 42.82630859 21.34765625 41.62890625 C20.83336018 36.26057983 18.19473769 32.49412504 15.4375 27.9375 C14.33614428 26.06574822 13.23588177 24.19335275 12.13671875 22.3203125 C11.33113525 20.9595459 11.33113525 20.9595459 10.50927734 19.57128906 C8.52188709 16.18546017 6.62215915 12.76344903 4.75 9.3125 C4.20859375 8.31863281 3.6671875 7.32476562 3.109375 6.30078125 C2 4 2 4 2 2 C1.34 2 0.68 2 0 2 C0 1.34 0 0.68 0 0 Z " fill="#E1A439" transform="translate(41,42)"/>
<path d="M0 0 C2.66268592 0.51205499 4.56273686 1.29309211 7 2.5625 C10.04677388 4.28808012 10.04677388 4.28808012 14 4 C14 4.66 14 5.32 14 6 C16.475 6.495 16.475 6.495 19 7 C19 7.66 19 8.32 19 9 C25.27 9 31.54 9 38 9 C38 9.33 38 9.66 38 10 C36.96359375 10.06058594 35.9271875 10.12117187 34.859375 10.18359375 C33.48957127 10.26803371 32.11978025 10.35267997 30.75 10.4375 C29.72712891 10.49647461 29.72712891 10.49647461 28.68359375 10.55664062 C25.97504625 10.72756838 23.39401136 10.89460885 20.765625 11.59765625 C18.56731472 12.09859864 17.14663928 11.59656603 15 11 C15.80693963 14.14728687 16.62147828 17.29255678 17.4375 20.4375 C17.66759766 21.33533203 17.89769531 22.23316406 18.13476562 23.15820312 C18.35712891 24.01220703 18.57949219 24.86621094 18.80859375 25.74609375 C19.01282959 26.53685303 19.21706543 27.3276123 19.42749023 28.14233398 C19.84032953 29.9961588 19.84032953 29.9961588 21 31 C21.14115161 33.67058851 21.04247107 36.32432238 21 39 C19.62690564 36.36430708 18.50476723 33.7706105 17.5625 30.953125 C17.30726562 30.19 17.05203125 29.426875 16.7890625 28.640625 C16.39847656 27.45726562 16.39847656 27.45726562 16 26.25 C15.60941406 25.08984375 15.60941406 25.08984375 15.2109375 23.90625 C13.57409337 18.97918384 12.19944442 14.05150631 11 9 C9.865625 8.690625 8.73125 8.38125 7.5625 8.0625 C4 7 4 7 3 6 C-3.95807252 6.41894154 -9.47911549 9.31230793 -15.6796875 12.29296875 C-16.45054688 12.65261719 -17.22140625 13.01226562 -18.015625 13.3828125 C-19.05638184 13.88385498 -19.05638184 13.88385498 -20.11816406 14.39501953 C-22 15 -22 15 -25 14 C-20.61568211 10.65407319 -16.62763472 9.16825301 -11.3203125 7.7265625 C-8.83845936 7.05744415 -8.83845936 7.05744415 -6.3125 5.3125 C-3.15200651 3.5187064 -0.56588924 3.79024181 3 4 C2.01 2.68 1.02 1.36 0 0 Z " fill="#EFA614" transform="translate(82,157)"/>
<path d="M0 0 C1.4055061 4.46316913 0.07020699 7.77313762 -1.38671875 12.0625 C-1.64499954 12.84963379 -1.90328033 13.63676758 -2.16938782 14.44775391 C-2.99905293 16.96849836 -3.84303101 19.48418112 -4.6875 22 C-5.2372767 23.66244702 -5.7861147 25.32520478 -6.33398438 26.98828125 C-7.64085548 30.94765705 -8.95884491 34.90319198 -10.28265381 38.85693359 C-11.32334562 41.96599263 -12.35870317 45.07681734 -13.39453125 48.1875 C-13.92958491 49.79170089 -14.46469408 51.39588327 -15 53 C-17.88953666 48.66569501 -19.11545211 43.93982182 -20.6875 39 C-21.02072266 37.989375 -21.35394531 36.97875 -21.69726562 35.9375 C-22.00728516 34.968125 -22.31730469 33.99875 -22.63671875 33 C-22.92248779 32.113125 -23.20825684 31.22625 -23.50268555 30.3125 C-24 28 -24 28 -23 25 C-22.71125 25.639375 -22.4225 26.27875 -22.125 26.9375 C-21.17176549 29.15206079 -21.17176549 29.15206079 -19 30 C-18.11917692 32.29014001 -17.46696231 34.61347727 -16.78125 36.96875 C-16.19064164 39.18562475 -16.19064164 39.18562475 -14 40 C-12.89974917 35.75617536 -11.92180022 31.57188132 -11.1875 27.25 C-9.28742376 17.57148667 -4.51753215 8.68904057 0 0 Z " fill="#EAA41F" transform="translate(127,171)"/>
<path d="M0 0 C-1.52162715 4.13789425 -3.53930211 7.88773241 -5.75 11.6875 C-6.10126953 12.29674316 -6.45253906 12.90598633 -6.81445312 13.53369141 C-9.81662352 18.72483087 -12.88350807 23.87667614 -16 29 C-16.495 27.515 -16.495 27.515 -17 26 C-15.890625 23.8359375 -15.890625 23.8359375 -14.25 21.375 C-11.31706983 16.73687787 -9.45255715 12.27507596 -8 7 C-8.87140625 7.39832031 -9.7428125 7.79664063 -10.640625 8.20703125 C-17.53278656 11.27270052 -24.05931026 13.70068006 -31.453125 15.34375 C-34.20199798 15.95029345 -34.20199798 15.95029345 -37.25 17.6875 C-41.07034496 19.51084646 -43.78904636 19.28073024 -48 19 C-48.66 18.67 -49.32 18.34 -50 18 C-50 17.34 -50 16.68 -50 16 C-48.90558594 16.2578125 -47.81117188 16.515625 -46.68359375 16.78125 C-40.7877292 17.50641674 -36.28167613 14.9804957 -31.0625 12.5 C-29.02924543 11.57420286 -26.99538494 10.64973535 -24.9609375 9.7265625 C-23.45805176 9.03481934 -23.45805176 9.03481934 -21.92480469 8.32910156 C-17.71699053 6.41696965 -13.4624293 4.63083303 -9.1875 2.875 C-8.13091187 2.43317383 -8.13091187 2.43317383 -7.05297852 1.98242188 C-2.24343493 0 -2.24343493 0 0 0 Z " fill="#E3A431" transform="translate(184,44)"/>
<path d="M0 0 C0.66 0 1.32 0 2 0 C0.152 4.752 0.152 4.752 -1.1875 6.9375 C-2.63218391 10.60477455 -1.30405999 13.88029214 -0.30712891 17.55151367 C0.81172895 20.20508915 0.81172895 20.20508915 3.52197266 21.30200195 C5.07730713 21.76546021 5.07730713 21.76546021 6.6640625 22.23828125 C7.78554687 22.58310547 8.90703125 22.92792969 10.0625 23.28320312 C11.8259375 23.79270508 11.8259375 23.79270508 13.625 24.3125 C14.80835938 24.67150391 15.99171875 25.03050781 17.2109375 25.40039062 C20.13574913 26.28491027 23.06486559 27.15048915 26 28 C26 28.33 26 28.66 26 29 C23.36 29 20.72 29 18 29 C18 28.34 18 27.68 18 27 C17.16855469 26.93941406 16.33710938 26.87882812 15.48046875 26.81640625 C14.39378906 26.73261719 13.30710938 26.64882812 12.1875 26.5625 C11.10855469 26.48128906 10.02960938 26.40007812 8.91796875 26.31640625 C6 26 6 26 3 25 C2.34 26.32 1.68 27.64 1 29 C-0.34070318 26.39939496 -1.67273354 23.79495084 -3 21.1875 C-3.3815625 20.44951172 -3.763125 19.71152344 -4.15625 18.95117188 C-4.5171875 18.23896484 -4.878125 17.52675781 -5.25 16.79296875 C-5.58515625 16.1383667 -5.9203125 15.48376465 -6.265625 14.80932617 C-7.47040507 11.84103325 -6.99850964 9.99552891 -6 7 C-5.34 7 -4.68 7 -4 7 C-4 5.68 -4 4.36 -4 3 C-3.01 2.67 -2.02 2.34 -1 2 C-0.67 1.34 -0.34 0.68 0 0 Z " fill="#F5A509" transform="translate(165,73)"/>
<path d="M0 0 C7.42507799 1.29424225 14.47000764 3.27502921 21.625 5.625 C22.62917969 5.94984375 23.63335937 6.2746875 24.66796875 6.609375 C27.11363517 7.40130508 29.5575428 8.19823827 32 9 C28.17804911 12.82195089 22.13997328 13.63747752 17.0625 15.1875 C15.85658203 15.56841797 14.65066406 15.94933594 13.40820312 16.34179688 C12.25384766 16.69693359 11.09949219 17.05207031 9.91015625 17.41796875 C8.84933838 17.74563232 7.78852051 18.0732959 6.69555664 18.41088867 C4 19 4 19 1 18 C4.72965139 15.96564469 6.66905042 15 11 15 C11 14.34 11 13.68 11 13 C12.98 12.01 14.96 11.02 17 10 C17 9.01 17 8.02 17 7 C16.484375 6.87625 15.96875 6.7525 15.4375 6.625 C5.30985915 4.02816901 5.30985915 4.02816901 1 2 C0.67 1.34 0.34 0.68 0 0 Z " fill="#DDA23D" transform="translate(191,102)"/>
<path d="M0 0 C1.73051703 2.59577555 2.56485548 4.35569776 3.49633789 7.25610352 C3.77324966 8.11031387 4.05016144 8.96452423 4.33546448 9.84461975 C4.62823776 10.7634343 4.92101105 11.68224884 5.22265625 12.62890625 C5.52819931 13.57434799 5.83374237 14.51978973 6.14854431 15.49388123 C7.12424414 18.51536254 8.09366175 21.53881225 9.0625 24.5625 C10.03595736 27.58940771 11.01072382 30.61588473 11.98716736 33.64183044 C12.5945851 35.52535867 13.20007625 37.40950947 13.80348206 39.29432678 C14.07724167 40.14538498 14.35100128 40.99644318 14.63305664 41.87329102 C14.87351212 42.62369156 15.11396759 43.3740921 15.36170959 44.14723206 C16.48428191 47.40572692 16.94930046 47.96620031 20 50 C17.625 50.125 17.625 50.125 15 50 C13 48 13 48 12.5 44.4375 C12.2525 42.7359375 12.2525 42.7359375 12 41 C11.34 40.67 10.68 40.34 10 40 C9 37.48828125 9 37.48828125 8 34.3125 C7.67 33.27738281 7.34 32.24226563 7 31.17578125 C6.67 30.12777344 6.34 29.07976563 6 28 C5.649375 26.9584375 5.29875 25.916875 4.9375 24.84375 C3.76051466 21.27356114 2.86397143 17.65526373 2 14 C1.71769531 12.84371094 1.71769531 12.84371094 1.4296875 11.6640625 C0.49615973 7.7064307 -0.26438518 4.09797027 0 0 Z " fill="#E4A32A" transform="translate(114,10)"/>
<path d="M0 0 C-0.78375 0.350625 -1.5675 0.70125 -2.375 1.0625 C-5.88158991 3.65069731 -6.06285661 5.8188987 -7 10 C-7.64199649 11.67632417 -8.29894157 13.34750513 -9 15 C-9.33 15 -9.66 15 -10 15 C-10 12.03 -10 9.06 -10 6 C-16.27 6 -22.54 6 -29 6 C-29.33 5.34 -29.66 4.68 -30 4 C-30.99 3.34 -31.98 2.68 -33 2 C-27.60788013 1.42593401 -22.30149886 0.93451654 -16.875 1.0625 C-12.65340871 1.12983 -8.96990619 0.46714274 -4.91015625 -0.66015625 C-3 -1 -3 -1 0 0 Z " fill="#F3A102" transform="translate(134,163)"/>
<path d="M0 0 C0.66 0.66 1.32 1.32 2 2 C0.35405757 1.85540319 -1.29174731 1.70924064 -2.9375 1.5625 C-3.94039062 1.47484375 -4.94328125 1.3871875 -5.9765625 1.296875 C-8.60526163 1.03875984 -11.19884532 0.68715357 -13.8125 0.3125 C-17.67843199 -0.15085858 -20.34432526 0.607362 -24 2 C-24.99 1.67 -25.98 1.34 -27 1 C-28.11375 1.680625 -28.11375 1.680625 -29.25 2.375 C-32 4 -32 4 -35.3125 4.25 C-39.94714171 5.19263899 -41.91425934 7.23477378 -45.203125 10.50390625 C-47 12 -47 12 -50 12 C-50 11.34 -50 10.68 -50 10 C-49.34 10 -48.68 10 -48 10 C-48 9.34 -48 8.68 -48 8 C-43.61538462 5 -43.61538462 5 -41 5 C-41 4.34 -41 3.68 -41 3 C-38.95990245 2.34922704 -36.91784331 1.70460176 -34.875 1.0625 C-33.73804687 0.70285156 -32.60109375 0.34320313 -31.4296875 -0.02734375 C-21.34068297 -2.88857624 -10.07256196 -3.25050804 0 0 Z M-52 12 C-51.34 12.33 -50.68 12.66 -50 13 C-53.33333333 16.33333333 -56.66666667 19.66666667 -60 23 C-59.42429187 19.11397015 -57.58424279 16.88827136 -55 14 C-54.01 13.34 -53.02 12.68 -52 12 Z " fill="#FDB706" transform="translate(128,60)"/>
<path d="M0 0 C2.76223278 2.76223278 2.57856291 5.20706617 3 9 C2.34 9 1.68 9 1 9 C-1.14156494 13.3974853 -3.05352185 17.61906578 -4 22.4375 C-5.01754589 27.57878449 -6.96941139 32.18648239 -9 37 C-9.7535339 38.87358258 -10.50365194 40.74854335 -11.25 42.625 C-11.83333333 44.08333333 -12.41666667 45.54166667 -13 47 C-14.34201104 42.97396688 -13.06623212 40.24389177 -11.796875 36.3671875 C-11.55841858 35.61591583 -11.31996216 34.86464417 -11.07427979 34.09060669 C-10.30776276 31.68268037 -9.52900936 29.27891028 -8.75 26.875 C-8.2400897 25.27889982 -7.73096625 23.68254804 -7.22265625 22.0859375 C-4.86770311 14.70643241 -2.47499124 7.34021373 0 0 Z " fill="#E1A436" transform="translate(111,1)"/>
<path d="M0 0 C2.06911259 0.99888194 3.19407015 2.25657015 4.8125 3.875 C7.41165538 5.06527984 7.41165538 5.06527984 9.8125 5.875 C9.8125 6.535 9.8125 7.195 9.8125 7.875 C8.966875 7.545 8.12125 7.215 7.25 6.875 C0.72085614 4.9756127 -3.29253484 5.65956446 -9.1875 8.875 C-10.1775 8.875 -11.1675 8.875 -12.1875 8.875 C-12.5175 10.525 -12.8475 12.175 -13.1875 13.875 C-13.5175 13.875 -13.8475 13.875 -14.1875 13.875 C-14.4375 11.5625 -14.4375 11.5625 -14.1875 8.875 C-12.14325462 6.89889614 -11.0698175 5.875 -8.1875 5.875 C-8.1875 4.885 -8.1875 3.895 -8.1875 2.875 C-2.84170561 -0.16238318 -2.84170561 -0.16238318 0 0 Z " fill="#F5A70A" transform="translate(142.1875,157.125)"/>
<path d="M0 0 C4.33460798 3.63169858 5.85354165 6.65974944 7.32421875 12.109375 C7.82613625 14.20128328 7.82613625 14.20128328 10 15 C10.66 12.36 11.32 9.72 12 7 C12.33 7 12.66 7 13 7 C12.52060632 11.71403788 12.03165952 15.66579301 10 20 C9.01 20 8.02 20 7 20 C7 19.34 7 18.68 7 18 C6.34 18 5.68 18 5 18 C4.16112944 15.56427941 3.32873471 13.12666783 2.5 10.6875 C2.14228516 9.65206055 2.14228516 9.65206055 1.77734375 8.59570312 C0.76791737 5.61068511 0 3.17341086 0 0 Z " fill="#EDA217" transform="translate(103,196)"/>
<path d="M0 0 C0.99 0.495 0.99 0.495 2 1 C2.625 3.0625 2.625 3.0625 3 5 C3.66 4.67 4.32 4.34 5 4 C6.72314016 9.90592395 7.07444835 16.50923336 4.625 22.1875 C3.820625 23.0846875 3.820625 23.0846875 3 24 C2.34 24 1.68 24 1 24 C1.01160156 22.85402344 1.02320313 21.70804688 1.03515625 20.52734375 C1.04454242 18.99739748 1.05364173 17.46744942 1.0625 15.9375 C1.07087891 15.18533203 1.07925781 14.43316406 1.08789062 13.65820312 C1.10808341 8.99366882 0.77595959 4.60076827 0 0 Z " fill="#F9A902" transform="translate(163,96)"/>
<path d="M0 0 C1.16144531 0.54785156 2.32289063 1.09570312 3.51953125 1.66015625 C4.39996094 2.08167969 5.28039062 2.50320312 6.1875 2.9375 C6.1875 3.2675 6.1875 3.5975 6.1875 3.9375 C1.86494722 4.30800452 -0.24351874 3.31682084 -3.8125 0.9375 C-6.47434467 -0.77981914 -7.52787584 -1.0806675 -10.75 -0.875 C-13.97011855 -0.02068283 -16.17504805 0.90289421 -18.8125 2.9375 C-19.40320014 4.88353274 -19.40320014 4.88353274 -19.8125 6.9375 C-21.875 9.1875 -21.875 9.1875 -23.8125 10.9375 C-23.50328116 9.47846742 -23.19001201 8.02029278 -22.875 6.5625 C-22.70097656 5.75039062 -22.52695313 4.93828125 -22.34765625 4.1015625 C-21.8125 1.9375 -21.8125 1.9375 -20.8125 -0.0625 C-18.921875 -1.16796875 -18.921875 -1.16796875 -16.5625 -2.25 C-15.79421875 -2.61480469 -15.0259375 -2.97960937 -14.234375 -3.35546875 C-8.99379744 -4.8853793 -4.71129952 -2.23667755 0 0 Z " fill="#FDF0C6" transform="translate(150.8125,166.0625)"/>
<path d="M0 0 C5.24374021 0.42516813 9.34942454 2.44395885 14.03125 4.65625 C18.58661025 6.7181499 23.27772646 8.36501554 28 10 C28 10.66 28 11.32 28 12 C29.134375 12.28875 30.26875 12.5775 31.4375 12.875 C32.613125 13.24625 33.78875 13.6175 35 14 C35.495 14.99 35.495 14.99 36 16 C23.56059175 12.22375107 11.78954675 6.42019416 0 1 C0 0.67 0 0.34 0 0 Z " fill="#DEA543" transform="translate(142,162)"/>
<path d="M0 0 C-0.79664063 0.23074219 -1.59328125 0.46148437 -2.4140625 0.69921875 C-8.67488518 2.62621162 -13.39840725 4.27403988 -18 9 C-18.33 9.66 -18.66 10.32 -19 11 C-19.66 11 -20.32 11 -21 11 C-20.34 14.3 -19.68 17.6 -19 21 C-21.0625 18.875 -21.0625 18.875 -23 16 C-22.875 13.0625 -22.875 13.0625 -22 10 C-21.814375 9.00742188 -21.62875 8.01484375 -21.4375 6.9921875 C-20 4 -20 4 -16.4453125 2.28515625 C-15.01264739 1.8521789 -13.57186874 1.44534403 -12.125 1.0625 C-11.40441406 0.84271484 -10.68382812 0.62292969 -9.94140625 0.39648438 C-6.22476617 -0.67470195 -3.68251522 -1.14804224 0 0 Z " fill="#FDF2CB" transform="translate(186,125)"/>
<path d="M0 0 C0 0.99 0 1.98 0 3 C-1.27101563 2.7421875 -2.54203125 2.484375 -3.8515625 2.21875 C-9.88415874 1.54767388 -14.10333482 3.80524418 -19.375 6.5 C-21.12864526 7.37300483 -22.88630357 8.23800871 -24.6484375 9.09375 C-25.79578369 9.67672852 -25.79578369 9.67672852 -26.96630859 10.27148438 C-29 11 -29 11 -32 10 C-27.61148765 6.65087215 -23.62002201 5.16186054 -18.3046875 3.7265625 C-15.85989488 3.08068801 -15.85989488 3.08068801 -13.5625 1.3125 C-9.30067072 -0.87038817 -4.69787577 -0.22214124 0 0 Z " fill="#DFA43C" transform="translate(89,161)"/>
<path d="M0 0 C0.66 0 1.32 0 2 0 C3.58631421 4.16407479 4.47448657 7.53982624 4 12 C2.6875 14.5 2.6875 14.5 1 17 C-0.0150089 18.99242489 -1.01873444 20.99074195 -2 23 C-2.66 23 -3.32 23 -4 23 C-4.4021875 24.3303125 -4.4021875 24.3303125 -4.8125 25.6875 C-5.9250635 28.7909666 -7.10195778 31.31110685 -9 34 C-9.66 34 -10.32 34 -11 34 C-9.02039668 28.29874244 -5.69198961 23.34950767 -2.54492188 18.23828125 C0.69437812 12.97580107 0.69437812 12.97580107 2 7 C1.10836423 4.88316159 1.10836423 4.88316159 0 3 C0 2.01 0 1.02 0 0 Z " fill="#DDA543" transform="translate(59,131)"/>
<path d="M0 0 C1 3 1 3 0 5.3125 C-1.3043714 8.81799815 -1.03904012 10.39799424 0 14 C1.27061759 16.40321281 2.61391456 18.73199381 4.0390625 21.046875 C4.35617188 21.69140625 4.67328125 22.3359375 5 23 C4.67 23.66 4.34 24.32 4 25 C3.16094435 23.87926138 2.32892169 22.75325453 1.5 21.625 C0.80390625 20.68527344 0.80390625 20.68527344 0.09375 19.7265625 C-1 18 -1 18 -1 16 C-1.66 16 -2.32 16 -3 16 C-4.28317892 12.15046324 -4.06643637 9.05261865 -4 5 C-3.01 4.67 -2.02 4.34 -1 4 C-0.26676204 1.98491642 -0.26676204 1.98491642 0 0 Z " fill="#E2A32D" transform="translate(165,129)"/>
<path d="M0 0 C2.31 0.33 4.62 0.66 7 1 C4.64046906 3.35953094 3.22104383 3.49141413 0 4 C0 4.99 0 5.98 0 7 C-2.10063576 7.69821417 -4.20565737 8.38324472 -6.3125 9.0625 C-7.48425781 9.44535156 -8.65601563 9.82820313 -9.86328125 10.22265625 C-13 11 -13 11 -16 10 C-12.27034861 7.96564469 -10.33094958 7 -6 7 C-6 6.34 -6 5.68 -6 5 C-4.02 4.01 -2.04 3.02 0 2 C0 1.34 0 0.68 0 0 Z " fill="#EAA624" transform="translate(208,110)"/>
<path d="M0 0 C-3.93940757 2.62627171 -8.00955852 3.76964144 -12.5 5.1875 C-13.36753906 5.47302734 -14.23507813 5.75855469 -15.12890625 6.05273438 C-16.37994141 6.45008789 -16.37994141 6.45008789 -17.65625 6.85546875 C-18.41744141 7.09934326 -19.17863281 7.34321777 -19.96289062 7.59448242 C-22 8 -22 8 -25 7 C-23.35 6.67 -21.7 6.34 -20 6 C-20 5.34 -20 4.68 -20 4 C-13.14115041 0.73110147 -7.59570439 -0.58179863 0 0 Z " fill="#DFA433" transform="translate(192,121)"/>
<path d="M0 0 C0.66 0 1.32 0 2 0 C0.152 4.752 0.152 4.752 -1.1875 6.9375 C-3.00369035 11.54782935 -0.5850969 16.56172869 1 21 C0.34 21 -0.32 21 -1 21 C-1.27714844 20.43410156 -1.55429688 19.86820313 -1.83984375 19.28515625 C-2.20207031 18.55167969 -2.56429687 17.81820312 -2.9375 17.0625 C-3.29714844 16.33160156 -3.65679687 15.60070312 -4.02734375 14.84765625 C-4.86371827 13.03750973 -4.86371827 13.03750973 -6 12 C-6.04063832 10.33382885 -6.042721 8.66611905 -6 7 C-5.34 7 -4.68 7 -4 7 C-4 5.68 -4 4.36 -4 3 C-3.01 2.67 -2.02 2.34 -1 2 C-0.67 1.34 -0.34 0.68 0 0 Z " fill="#E7A222" transform="translate(165,73)"/>
<path d="M0 0 C0.33 1.32 0.66 2.64 1 4 C0.34 4 -0.32 4 -1 4 C-1.144375 4.78375 -1.28875 5.5675 -1.4375 6.375 C-2 9 -2 9 -3 11 C-2.31292969 10.69964844 -1.62585937 10.39929688 -0.91796875 10.08984375 C-0.01691406 9.70957031 0.88414063 9.32929688 1.8125 8.9375 C2.70582031 8.55464844 3.59914063 8.17179688 4.51953125 7.77734375 C7 7 7 7 10 8 C7.3789879 9.19706817 4.75385304 10.38288646 2.125 11.5625 C1.37863281 11.90474609 0.63226563 12.24699219 -0.13671875 12.59960938 C-2.06549332 13.45973857 -4.0311033 14.23616798 -6 15 C-6.66 14.67 -7.32 14.34 -8 14 C-5.36 9.38 -2.72 4.76 0 0 Z " fill="#D9A64E" transform="translate(47,165)"/>
<path d="M0 0 C1 2 1 2 0.37915039 4.43017578 C0.03875732 5.4251709 -0.30163574 6.42016602 -0.65234375 7.4453125 C-1.01650391 8.52167969 -1.38066406 9.59804687 -1.75585938 10.70703125 C-2.14580078 11.83496094 -2.53574219 12.96289062 -2.9375 14.125 C-3.32357422 15.26066406 -3.70964844 16.39632812 -4.10742188 17.56640625 C-5.06497179 20.37994797 -6.02942729 23.19092948 -7 26 C-9.29633824 22.55549263 -9.54016485 20.06187717 -10 16 C-9.67 16.66 -9.34 17.32 -9 18 C-8.01 17.67 -7.02 17.34 -6 17 C-5.07405582 14.10833167 -5.07405582 14.10833167 -4.5 10.6875 C-3.67871751 6.32199247 -2.98134294 3.3540108 0 0 Z " fill="#DCA444" transform="translate(119,198)"/>
<path d="M0 0 C2.81057112 1.40528556 2.90882747 3.10396632 4 6 C4.78252713 7.53691291 5.58921524 9.06173152 6.41796875 10.57421875 C6.86720703 11.40630859 7.31644531 12.23839844 7.77929688 13.09570312 C8.72568853 14.83753631 9.67628031 16.57709339 10.63085938 18.31445312 C11.07623047 19.14267578 11.52160156 19.97089844 11.98046875 20.82421875 C12.39192139 21.57791748 12.80337402 22.33161621 13.22729492 23.1081543 C13.4822876 23.73246338 13.73728027 24.35677246 14 25 C13.67 25.66 13.34 26.32 13 27 C10.525 26.01 10.525 26.01 8 25 C8.99 24.67 9.98 24.34 11 24 C9.71554544 21.35043907 8.42290321 18.70546207 7.125 16.0625 C6.76019531 15.30775391 6.39539063 14.55300781 6.01953125 13.77539062 C5.66503906 13.05673828 5.31054688 12.33808594 4.9453125 11.59765625 C4.62062988 10.93258057 4.29594727 10.26750488 3.96142578 9.58227539 C3.08247732 7.81950756 3.08247732 7.81950756 1 7 C0.59270772 4.67843403 0.25561323 2.3431213 0 0 Z " fill="#D8A64F" transform="translate(170,154)"/>
<path d="M0 0 C0.33 0 0.66 0 1 0 C1.14285714 7.42857143 1.14285714 7.42857143 0 11 C1.32 11.33 2.64 11.66 4 12 C2.88625 12.2475 1.7725 12.495 0.625 12.75 C-3.05537488 13.58074458 -3.05537488 13.58074458 -4.2265625 16.078125 C-4.48179687 16.71234375 -4.73703125 17.3465625 -5 18 C-4.74309819 15.93571843 -4.46886954 13.87358906 -4.1875 11.8125 C-4.03667969 10.66394531 -3.88585937 9.51539062 -3.73046875 8.33203125 C-2.99369466 4.97123823 -1.99559224 2.78125848 0 0 Z " fill="#F5A300" transform="translate(168,115)"/>
<path d="M0 0 C0.99 0.33 1.98 0.66 3 1 C3.66 4.3 4.32 7.6 5 11 C4.34 10.67 3.68 10.34 3 10 C3 9.34 3 8.68 3 8 C1.68 8 0.36 8 -1 8 C-1.12375 8.78375 -1.2475 9.5675 -1.375 10.375 C-2 13 -2 13 -4 15 C-4.3960246 10.51172124 -3.08641946 7.92246859 -1 4 C-0.31363375 1.76474965 -0.31363375 1.76474965 0 0 Z " fill="#F6A90E" transform="translate(111,9)"/>
<path d="M0 0 C3.22357978 0.71379266 6.1533155 1.80747326 9.203125 3.06640625 C10.1828125 3.46923828 11.1625 3.87207031 12.171875 4.28710938 C13.18765625 4.70798828 14.2034375 5.12886719 15.25 5.5625 C16.28125 5.98724609 17.3125 6.41199219 18.375 6.84960938 C20.91768866 7.89729128 23.45930032 8.94750596 26 10 C26 10.33 26 10.66 26 11 C22.04170312 11.22822613 19.32148459 10.55050009 15.6875 9 C14.80449219 8.62875 13.92148438 8.2575 13.01171875 7.875 C12.34785156 7.58625 11.68398437 7.2975 11 7 C11 6.34 11 5.68 11 5 C10.2575 4.855625 9.515 4.71125 8.75 4.5625 C6.47972261 4.09812508 4.24240521 3.58136431 2 3 C2 2.34 2 1.68 2 1 C1.34 0.67 0.68 0.34 0 0 Z " fill="#FDF4D2" transform="translate(157,170)"/>
<path d="M0 0 C8.54076441 1.67765015 16.72564036 4.34002181 25 7 C25 7.33 25 7.66 25 8 C22.36 8 19.72 8 17 8 C17 7.34 17 6.68 17 6 C16.43152344 5.96261719 15.86304688 5.92523438 15.27734375 5.88671875 C9.92591466 5.43108789 5.77710922 4.48807772 1 2 C0.67 1.34 0.34 0.68 0 0 Z " fill="#DEA23A" transform="translate(166,94)"/>
<path d="M0 0 C-4.37736366 2.50011482 -7.46391569 3.3648012 -12.4921875 3.29296875 C-13.69101563 3.28330078 -14.88984375 3.27363281 -16.125 3.26367188 C-17.3625 3.23853516 -18.6 3.21339844 -19.875 3.1875 C-21.13570312 3.17396484 -22.39640625 3.16042969 -23.6953125 3.14648438 C-26.79731454 3.11123435 -29.89843534 3.06195504 -33 3 C-33 2.67 -33 2.34 -33 2 C-27.60788013 1.42593401 -22.30149886 0.93451654 -16.875 1.0625 C-12.65340871 1.12983 -8.96990619 0.46714274 -4.91015625 -0.66015625 C-3 -1 -3 -1 0 0 Z " fill="#FBB305" transform="translate(134,163)"/>
<path d="M0 0 C1.67090662 2.50635993 2.50014399 4.16008793 3.40234375 6.94140625 C3.77842773 8.06385742 3.77842773 8.06385742 4.16210938 9.20898438 C4.67981722 10.7803646 5.19282843 12.35329982 5.70117188 13.92773438 C5.95318359 14.67474609 6.20519531 15.42175781 6.46484375 16.19140625 C6.687771 16.87404541 6.91069824 17.55668457 7.14038086 18.26000977 C7.99703502 20.3593404 7.99703502 20.3593404 11 22 C8.625 22.125 8.625 22.125 6 22 C3.21444921 19.21444921 3.55541764 16.8879235 3 13 C2.27226027 10.67592795 1.46857012 8.39619607 0.62109375 6.11328125 C0 4 0 4 0 0 Z " fill="#DFA440" transform="translate(123,38)"/>
<path d="M0 0 C-0.33 1.65 -0.66 3.3 -1 5 C-1.66 5 -2.32 5 -3 5 C-2.67 3.68 -2.34 2.36 -2 1 C-2.75925781 1.37253906 -3.51851562 1.74507812 -4.30078125 2.12890625 C-5.29464844 2.60199219 -6.28851563 3.07507812 -7.3125 3.5625 C-8.79169922 4.27599609 -8.79169922 4.27599609 -10.30078125 5.00390625 C-13 6 -13 6 -16 5 C-11.23959928 -0.46564527 -6.9749983 -0.13676467 0 0 Z " fill="#FCF3D8" transform="translate(186,43)"/>
<path d="M0 0 C0.66 0.33 1.32 0.66 2 1 C-9.82758621 8 -9.82758621 8 -15 8 C-14.34 5.69 -13.68 3.38 -13 1 C-12.34 1.33 -11.68 1.66 -11 2 C-11 2.99 -11 3.98 -11 5 C-9.5414128 4.35474023 -8.08313863 3.7087728 -6.625 3.0625 C-5.81289063 2.70285156 -5.00078125 2.34320313 -4.1640625 1.97265625 C-2.76316215 1.3430097 -1.37374716 0.68687358 0 0 Z " fill="#EFA212" transform="translate(59,168)"/>
<path d="M0 0 C-1.56641751 4.30764815 -3.68336156 8.06171464 -6 12 C-7 9 -7 9 -6.0625 6.8125 C-5.711875 6.214375 -5.36125 5.61625 -5 5 C-6.98 5 -8.96 5 -11 5 C-7.72709962 2.33319229 -4.35126896 0 0 0 Z " fill="#DAA64D" transform="translate(184,44)"/>
<path d="M0 0 C-1.30952279 4.43526814 -3.04733668 7.99986319 -5.5625 11.875 C-6.18253906 12.84179688 -6.80257812 13.80859375 -7.44140625 14.8046875 C-7.95574219 15.52914062 -8.47007813 16.25359375 -9 17 C-9.33 17 -9.66 17 -10 17 C-10.25532751 13.93606987 -10.21861333 12.36766788 -8.625 9.6875 C-7.820625 8.8521875 -7.820625 8.8521875 -7 8 C-6.34 8 -5.68 8 -5 8 C-5.061875 7.236875 -5.12375 6.47375 -5.1875 5.6875 C-5 3 -5 3 -3.625 1.1875 C-2 0 -2 0 0 0 Z " fill="#FDF5D5" transform="translate(54,153)"/>
<path d="M0 0 C-2.88020456 2.88020456 -6.2989031 4.07312294 -10 5.6875 C-10.73734375 6.02072266 -11.4746875 6.35394531 -12.234375 6.69726562 C-14.12939778 7.52893164 -16.06296531 8.27152467 -18 9 C-18.66 8.67 -19.32 8.34 -20 8 C-19.34 7.34 -18.68 6.68 -18 6 C-17.01 6 -16.02 6 -15 6 C-15 5.34 -15 4.68 -15 4 C-11.535 3.505 -11.535 3.505 -8 3 C-8 2.34 -8 1.68 -8 1 C-5.29120665 -0.35439668 -2.99066732 -0.06501451 0 0 Z " fill="#FDF3CE" transform="translate(170,49)"/>
<path d="M0 0 C3 1 3 1 4.60546875 4.08984375 C5.1440167 5.36773161 5.67094094 6.65056643 6.1875 7.9375 C6.46013672 8.58396484 6.73277344 9.23042969 7.01367188 9.89648438 C9 14.69055451 9 14.69055451 9 17 C8.34 17 7.68 17 7 17 C5.82592979 14.73272667 4.66060261 12.46165376 3.5 10.1875 C3.16613281 9.54490234 2.83226562 8.90230469 2.48828125 8.24023438 C0.99760916 5.30452301 0 3.33873483 0 0 Z " fill="#FDF4D6" transform="translate(177,165)"/>
<path d="M0 0 C3.9492568 0.55105909 7.34920174 1.38935371 11 3 C11 3.66 11 4.32 11 5 C11.66 5 12.32 5 13 5 C13.33 6.98 13.66 8.96 14 11 C13.67 10.34 13.34 9.68 13 9 C12.34 9 11.68 9 11 9 C11 8.01 11 7.02 11 6 C10.01 6 9.02 6 8 6 C7.67 5.34 7.34 4.68 7 4 C4.69034152 2.94647157 2.3570226 1.94280904 0 1 C0 0.67 0 0.34 0 0 Z " fill="#F0A612" transform="translate(50,125)"/>
<path d="M0 0 C1.39035371 4.17106112 -0.09769194 7.18206859 -1.4375 11.1875 C-1.68048828 11.93708984 -1.92347656 12.68667969 -2.17382812 13.45898438 C-2.77465056 15.30857501 -3.38629678 17.15464327 -4 19 C-4.33 19 -4.66 19 -5 19 C-4.22095672 7.47835991 -4.22095672 7.47835991 -2 2 C-1.34 2 -0.68 2 0 2 C0 1.34 0 0.68 0 0 Z " fill="#FDF4D0" transform="translate(110,1)"/>
<path d="M0 0 C-1.43429001 0.67354499 -2.87257057 1.33859701 -4.3125 2 C-5.11300781 2.37125 -5.91351563 2.7425 -6.73828125 3.125 C-9 4 -9 4 -12 4 C-12.33 5.65 -12.66 7.3 -13 9 C-13.33 9 -13.66 9 -14 9 C-14.375 6.75 -14.375 6.75 -14 4 C-9.21989232 0.08900281 -5.91356355 -1.60721333 0 0 Z " fill="#DFA333" transform="translate(142,162)"/>
<path d="M0 0 C0.66 0 1.32 0 2 0 C2 0.66 2 1.32 2 2 C2.66 2 3.32 2 4 2 C4.66 3.65 5.32 5.3 6 7 C4.68 6.34 3.36 5.68 2 5 C2 4.34 2 3.68 2 3 C-0.64 4.98 -3.28 6.96 -6 9 C-4.24686304 5.49372608 -2.58369151 2.90665295 0 0 Z " fill="#FBAF0A" transform="translate(160,143)"/>
<path d="M0 0 C-3.465 1.485 -3.465 1.485 -7 3 C-7 3.99 -7 4.98 -7 6 C-9.3431213 5.74438677 -11.67843403 5.40729228 -14 5 C-14.33 4.34 -14.66 3.68 -15 3 C-12.87790224 2.30359327 -10.75221473 1.61811643 -8.625 0.9375 C-6.84996094 0.36322266 -6.84996094 0.36322266 -5.0390625 -0.22265625 C-2 -1 -2 -1 0 0 Z " fill="#D6A759" transform="translate(16,108)"/>
<path d="M0 0 C-0.66 1.65 -1.32 3.3 -2 5 C-0.35 5.33 1.3 5.66 3 6 C3 6.33 3 6.66 3 7 C0.69 7 -1.62 7 -4 7 C-4 6.01 -4 5.02 -4 4 C-4.66 4 -5.32 4 -6 4 C-5.67 3.01 -5.34 2.02 -5 1 C-3 0 -3 0 0 0 Z " fill="#FAB10A" transform="translate(21,109)"/>
<path d="M0 0 C0.33 0.99 0.66 1.98 1 3 C0.67 3.66 0.34 4.32 0 5 C-0.66 5 -1.32 5 -2 5 C-2.103125 5.94875 -2.20625 6.8975 -2.3125 7.875 C-3 11 -3 11 -6 13 C-6.99 14.485 -6.99 14.485 -8 16 C-8 15.01 -8 14.02 -8 13 C-8.66 12.67 -9.32 12.34 -10 12 C-9.05125 11.855625 -8.1025 11.71125 -7.125 11.5625 C-3.86729385 10.37956266 -3.86729385 10.37956266 -3.2265625 7.8984375 C-2.91172911 6.27265852 -2.64245572 4.63731936 -2.421875 2.99609375 C-2.21304688 2.00802734 -2.21304688 2.00802734 -2 1 C-1.34 0.67 -0.68 0.34 0 0 Z " fill="#F0A30E" transform="translate(64,85)"/>
<path d="M0 0 C0.33 1.32 0.66 2.64 1 4 C1.99 4.66 2.98 5.32 4 6 C-0.26311718 10.12989477 -3.28758534 10.61271765 -9 11 C-7 9 -7 9 -4.375 8.875 C-3.59125 8.91625 -2.8075 8.9575 -2 9 C-1.34 6.03 -0.68 3.06 0 0 Z " fill="#F0A10C" transform="translate(96,52)"/>
<path d="M0 0 C1.125 1.6875 1.125 1.6875 2 4 C1.3125 6.6875 1.3125 6.6875 0 9 C-0.99 9.33 -1.98 9.66 -3 10 C-2.88637738 8.5199159 -2.75877092 7.04089926 -2.625 5.5625 C-2.55539063 4.73878906 -2.48578125 3.91507813 -2.4140625 3.06640625 C-2.27742188 2.38449219 -2.14078125 1.70257813 -2 1 C-1.34 0.67 -0.68 0.34 0 0 Z " fill="#F8AE0C" transform="translate(50,164)"/>
<path d="M0 0 C2.11044382 3.16566573 2.75552077 5.51197415 3.625 9.1875 C3.88539062 10.27417969 4.14578125 11.36085937 4.4140625 12.48046875 C4.60742188 13.31191406 4.80078125 14.14335937 5 15 C4.01 14.67 3.02 14.34 2 14 C1.66179834 12.4176994 1.32964061 10.83410625 1 9.25 C0.814375 8.36828125 0.62875 7.4865625 0.4375 6.578125 C0 4 0 4 0 0 Z " fill="#FDF0CB" transform="translate(106,208)"/>
<path d="M0 0 C0.33 0 0.66 0 1 0 C1.32374517 5.50366792 1.53286034 9.43672206 -2 14 C-3.25127906 10.45332822 -2.72285053 8.27746562 -1.5625 4.75 C-1.27503906 3.85796875 -0.98757812 2.9659375 -0.69140625 2.046875 C-0.46324219 1.37140625 -0.23507813 0.6959375 0 0 Z " fill="#FCF1CB" transform="translate(118,202)"/>
<path d="M0 0 C1.01562016 3.17744022 0.96666643 5.37828389 0.25 8.625 C0.01023437 9.78902344 0.01023437 9.78902344 -0.234375 10.9765625 C-1 13 -1 13 -4 15 C-3.52229477 13.06213915 -3.04278429 11.12472326 -2.5625 9.1875 C-2.29566406 8.10855469 -2.02882813 7.02960938 -1.75390625 5.91796875 C-1.23922588 3.9259157 -0.65062825 1.95188476 0 0 Z " fill="#FDF1C7" transform="translate(123,187)"/>
<path d="M0 0 C4.42580434 5.63284189 5.23709676 8.88709728 5 16 C3.59540269 13.40689727 2.45391647 10.74075463 1.375 8 C1.11460938 7.34 0.85421875 6.68 0.5859375 6 C0 4 0 4 0 0 Z " fill="#DEA43D" transform="translate(98,180)"/>
<path d="M0 0 C2.94995547 3.45856848 5.22675738 6.80021485 7 11 C6.67 11.66 6.34 12.32 6 13 C4.98868775 11.59138651 3.99133233 10.17274547 3 8.75 C2.1646875 7.56664062 2.1646875 7.56664062 1.3125 6.359375 C0 4 0 4 0 0 Z " fill="#DFA746" transform="translate(163,141)"/>
<path d="M0 0 C3.91211733 1.15585285 6.8745041 2.35534962 10 5 C8.35 5 6.7 5 5 5 C4.67 5.99 4.34 6.98 4 8 C3.34 6.02 2.68 4.04 2 2 C1.34 2 0.68 2 0 2 C0 1.34 0 0.68 0 0 Z " fill="#D8A95C" transform="translate(41,42)"/>
<path d="M0 0 C5.75 0.875 5.75 0.875 8 2 C8.33 1.34 8.66 0.68 9 0 C9.66 1.65 10.32 3.3 11 5 C7.08406554 4.21681311 3.63593365 2.60820142 0 1 C0 0.67 0 0.34 0 0 Z " fill="#EDA11B" transform="translate(170,173)"/>
<path d="M0 0 C1 3 1 3 0.3125 5.625 C-1 8 -1 8 -3.125 8.8125 C-3.74375 8.874375 -4.3625 8.93625 -5 9 C-5 8.01 -5 7.02 -5 6 C-4.34 5.67 -3.68 5.34 -3 5 C-2.835 4.34 -2.67 3.68 -2.5 3 C-2.335 2.34 -2.17 1.68 -2 1 C-1.34 0.67 -0.68 0.34 0 0 Z " fill="#FEF3CF" transform="translate(94,51)"/>
<path d="M0 0 C0.33 0.66 0.66 1.32 1 2 C1.99 2 2.98 2 4 2 C4.125 4.875 4.125 4.875 4 8 C3.34 8.66 2.68 9.32 2 10 C0.68373308 6.38026598 0 3.90432869 0 0 Z " fill="#D7A353" transform="translate(109,214)"/>
<path d="M0 0 C0.33 0 0.66 0 1 0 C1.50610724 6.07328688 0.04157942 9.77228537 -3 15 C-4.02444688 11.82421466 -4.12311432 11.26301696 -2.625 8.0625 C-2.08875 7.051875 -1.5525 6.04125 -1 5 C-0.30092586 2.26427415 -0.30092586 2.26427415 0 0 Z " fill="#FDB505" transform="translate(164,121)"/>
<path d="M0 0 C0.99 0 1.98 0 3 0 C3.22036864 3.85645121 2.60355101 6.49223216 1 10 C0.67 10 0.34 10 0 10 C0 6.7 0 3.4 0 0 Z " fill="#F6AD0F" transform="translate(124,168)"/>
<path d="M0 0 C0.66 0 1.32 0 2 0 C0.41037341 4.03520597 -1.28232318 8.01811282 -3 12 C-3.88336837 9.5332355 -4.1312406 8.36140628 -3.22265625 5.859375 C-2.83980469 5.16328125 -2.45695313 4.4671875 -2.0625 3.75 C-1.68222656 3.04359375 -1.30195313 2.3371875 -0.91015625 1.609375 C-0.60980469 1.07828125 -0.30945313 0.5471875 0 0 Z " fill="#DCA43A" transform="translate(165,73)"/>
<path d="M0 0 C4.33168317 -0.26252625 7.8803623 0.70756464 12 2 C11.34 2.66 10.68 3.32 10 4 C5.75534029 3.72317437 3.18382329 2.81645906 0 0 Z " fill="#FDEDC2" transform="translate(76,58)"/>
<path d="M0 0 C1.18771723 3.42943519 0.80226223 5.37784675 -0.4375 8.75 C-0.86869141 9.94882813 -0.86869141 9.94882813 -1.30859375 11.171875 C-1.65083984 12.07679688 -1.65083984 12.07679688 -2 13 C-3.47717605 8.2771977 -2.18614967 4.37229933 0 0 Z " fill="#DBA33E" transform="translate(127,171)"/>
<path d="M0 0 C4.97306516 0.49730652 8.63799813 1.55302334 13 4 C13 4.33 13 4.66 13 5 C8.69666114 5.36885762 6.53339666 4.41758719 3 2 C2.01 1.34 1.02 0.68 0 0 Z " fill="#FDF5CB" transform="translate(144,165)"/>
<path d="M0 0 C6.625 -0.125 6.625 -0.125 10 1 C10.33 1.99 10.66 2.98 11 4 C7.37 3.01 3.74 2.02 0 1 C0 0.67 0 0.34 0 0 Z " fill="#FEF2CB" transform="translate(166,93)"/>
<path d="M0 0 C0.66 0 1.32 0 2 0 C1.6875 2.375 1.6875 2.375 1 5 C0.01 5.66 -0.98 6.32 -2 7 C-1.34 4.69 -0.68 2.38 0 0 Z M-4 7 C-3.34 7 -2.68 7 -2 7 C-2.66 8.32 -3.32 9.64 -4 11 C-4 9.68 -4 8.36 -4 7 Z " fill="#FEB90A" transform="translate(66,83)"/>
<path d="M0 0 C1.60080151 4.00200378 0.29279692 7.04556236 -1 11 C-1.66 10.34 -2.32 9.68 -3 9 C-2.67582137 5.19090105 -2.14418558 3.21627837 0 0 Z " fill="#FDF0C2" transform="translate(165,77)"/>
<path d="M0 0 C2.97550031 3.0684847 3.96474513 4.46236331 4.25 8.8125 C4.1675 9.864375 4.085 10.91625 4 12 C1.57869669 9.57869669 1.47159496 8.19888623 0.875 4.875 C0.70742187 3.96492188 0.53984375 3.05484375 0.3671875 2.1171875 C0.24601562 1.41851563 0.12484375 0.71984375 0 0 Z " fill="#FFF4CB" transform="translate(119,22)"/>
<path d="M0 0 C2.97550031 3.0684847 3.96474513 4.46236331 4.25 8.8125 C4.1675 9.864375 4.085 10.91625 4 12 C2.09681116 9.14521674 1.5380901 7.58058692 0.875 4.3125 C0.70742187 3.50425781 0.53984375 2.69601563 0.3671875 1.86328125 C0.24601562 1.24839844 0.12484375 0.63351563 0 0 Z " fill="#DDA33C" transform="translate(103,196)"/>
<path d="M0 0 C4.455 0.99 4.455 0.99 9 2 C9 2.66 9 3.32 9 4 C5.625 3.6875 5.625 3.6875 2 3 C1.34 2.01 0.68 1.02 0 0 Z " fill="#DFA234" transform="translate(191,102)"/>
<path d="M0 0 C0.8125 1.625 0.8125 1.625 1 4 C-0.46818136 6.24609835 -2.15852858 8.02378677 -4 10 C-4 5.75354935 -2.18249194 3.61475228 0 0 Z " fill="#FEF2CE" transform="translate(182,48)"/>
<path d="M0 0 C3.9492568 0.55105909 7.34920174 1.38935371 11 3 C11 3.66 11 4.32 11 5 C9.53932801 4.54917531 8.08151968 4.08906463 6.625 3.625 C5.81289062 3.36976562 5.00078125 3.11453125 4.1640625 2.8515625 C2 2 2 2 0 0 Z " fill="#FCEDC1" transform="translate(65,53)"/>
<path d="M0 0 C1.98 0.66 3.96 1.32 6 2 C6 2.99 6 3.98 6 5 C4.02 4.34 2.04 3.68 0 3 C0 2.01 0 1.02 0 0 Z " fill="#E3A226" transform="translate(55,49)"/>
<path d="M0 0 C3.375 -0.125 3.375 -0.125 7 0 C7.66 0.66 8.32 1.32 9 2 C7.02 2 5.04 2 3 2 C2.67 2.66 2.34 3.32 2 4 C1.34 4 0.68 4 0 4 C0 2.68 0 1.36 0 0 Z " fill="#E69D28" transform="translate(46,47)"/>
<path d="M0 0 C2.76223278 2.76223278 2.57856291 5.20706617 3 9 C1.68 8.34 0.36 7.68 -1 7 C-0.67 4.69 -0.34 2.38 0 0 Z " fill="#D6A75C" transform="translate(111,1)"/>
<path d="M0 0 C0.66 0 1.32 0 2 0 C0.7508258 3.45925163 -0.67527795 6.14693203 -3 9 C-2.25 2.25 -2.25 2.25 0 0 Z " fill="#FDF3D5" transform="translate(42,170)"/>
<path d="M0 0 C-3.42346555 3.14958831 -6.44262737 3.56179109 -11 4 C-7.04396675 0.96704118 -5.03239385 -0.13243142 0 0 Z " fill="#FCEEC3" transform="translate(85,162)"/>
<path d="M0 0 C2.31 0 4.62 0 7 0 C4.66785852 1.20628008 2.50357861 2.1654738 0 3 C-1.20882096 5.00016466 -1.20882096 5.00016466 -2 7 C-1.125 2.25 -1.125 2.25 0 0 Z " fill="#EE9F14" transform="translate(165,126)"/>
<path d="M0 0 C1.39195915 4.17587745 -0.17676781 6.13474776 -2 10 C-2.66 10 -3.32 10 -4 10 C-3.29445932 6.33118845 -1.72264494 3.29549466 0 0 Z " fill="#EEA510" transform="translate(55,154)"/>
<path d="M0 0 C5.53846154 -0.36923077 5.53846154 -0.36923077 7.875 1.5 C8.24625 1.995 8.6175 2.49 9 3 C8.01 3.495 8.01 3.495 7 4 C4.64018187 3.06421005 2.30368736 2.06652192 0 1 C0 0.67 0 0.34 0 0 Z " fill="#FCEFC9" transform="translate(44,43)"/>
</svg>
