<svg xmlns="http://www.w3.org/2000/svg" width="214" height="235" viewBox="0 0 214 235">
<g>
<path d="M 50.40,122.25 L 50.88,122.50 L 51.13,122.75 L 52.57,123.63 L 53.73,124.00 L 54.23,124.00 L 55.54,124.42 L 56.29,125.03 L 56.55,125.42 L 56.97,126.24 L 57.00,126.64 L 56.93,127.40 L 56.65,127.68 L 56.22,127.78 L 55.77,127.70 L 55.48,127.60 L 54.21,127.06 L 53.50,126.59 L 52.10,125.88 L 51.25,125.64 L 50.88,125.63 L 50.18,125.66 L 49.90,125.77 L 49.39,126.04 L 49.22,126.24 L 48.93,126.70 L 48.89,126.98 L 48.87,127.57 L 48.97,127.90 L 49.25,128.59 L 49.52,128.96 L 50.14,129.70 L 50.59,130.07 L 51.38,130.80 L 51.61,131.16 L 51.58,131.30 L 51.41,131.57 L 51.16,131.71 L 50.56,131.99 L 50.09,132.16 L 48.61,133.17 L 48.00,134.06 L 48.00,134.49 L 47.26,135.87 L 46.17,136.74 L 45.48,137.01 L 43.19,138.52 L 42.64,139.25 L 42.43,139.70 L 42.05,140.66 L 41.91,141.25 L 41.68,142.48 L 41.62,143.22 L 41.53,144.78 L 41.54,145.69 L 41.58,147.61 L 41.65,148.73 L 41.81,151.05 L 41.94,152.38 L 42.38,156.16 L 42.74,158.39 L 42.95,159.38 L 43.42,161.26 L 43.71,162.10 L 44.32,163.71 L 44.69,164.43 L 45.47,165.81 L 45.94,166.44 L 46.92,167.67 L 47.50,168.23 L 48.72,169.35 L 49.42,169.89 L 50.90,170.96 L 51.74,171.49 L 56.52,173.72 L 58.25,174.19 L 59.21,174.35 L 61.18,174.65 L 62.29,174.74 L 66.21,174.81 L 68.67,174.58 L 69.85,174.31 L 72.17,173.68 L 73.31,173.19 L 75.57,172.09 L 76.70,171.35 L 78.97,169.75 L 80.13,168.74 L 82.49,166.58 L 83.73,165.27 L 86.24,162.51 L 87.58,160.88 L 90.33,157.47 L 91.82,155.50 L 99.72,145.72 L 102.31,142.78 L 103.59,141.41 L 106.12,138.76 L 107.35,137.56 L 109.79,135.23 L 110.97,134.19 L 113.29,132.21 L 114.39,131.36 L 116.56,129.75 L 117.58,129.10 L 119.58,127.89 L 120.50,127.44 L 124.10,125.86 L 126.20,125.18 L 127.41,124.99 L 128.66,124.81 L 129.37,124.75 L 130.88,124.65 L 131.77,124.61 L 133.64,124.56 L 134.75,124.55 L 137.11,124.53 L 138.50,124.53 L 142.44,124.53 L 144.62,124.55 L 145.52,124.58 L 147.23,124.65 L 147.97,124.72 L 149.37,124.88 L 150.00,125.00 L 152.43,125.60 L 153.77,126.15 L 155.15,126.73 L 155.95,127.10 L 157.64,127.88 L 158.65,128.36 L 165.03,132.00 L 168.91,134.86 L 170.66,136.48 L 174.02,139.85 L 175.48,141.70 L 178.28,145.52 L 179.45,147.57 L 181.64,151.76 L 182.49,153.98 L 184.04,158.48 L 184.56,160.83 L 185.44,165.59 L 185.61,168.04 L 185.77,172.98 L 185.57,175.50 L 184.77,182.18 L 184.44,184.19 L 184.27,185.01 L 183.92,186.52 L 183.76,187.00 L 182.24,190.50 L 180.93,192.76 L 180.22,193.72 L 178.80,195.50 L 178.15,196.08 L 177.51,196.60 L 177.23,196.76 L 176.68,197.00 L 176.45,197.00 L 175.43,197.29 L 175.00,197.72 L 175.00,198.00 L 174.47,198.40 L 173.62,198.63 L 172.99,198.71 L 171.61,198.88 L 170.76,198.92 L 168.97,199.00 L 167.96,199.00 L 164.15,198.84 L 161.86,198.56 L 160.81,198.33 L 158.80,197.81 L 157.89,197.44 L 156.12,196.65 L 155.32,196.14 L 153.76,195.06 L 153.05,194.40 L 151.68,192.99 L 151.04,192.17 L 149.81,190.43 L 149.23,189.43 L 148.10,187.33 L 147.56,186.14 L 146.76,184.50 L 146.26,183.61 L 146.04,183.28 L 145.61,182.68 L 145.42,182.49 L 145.06,182.19 L 144.92,182.14 L 144.65,182.13 L 144.56,182.23 L 144.40,182.52 L 144.36,182.77 L 144.32,183.36 L 144.35,183.76 L 144.44,184.65 L 144.54,185.22 L 145.52,188.71 L 146.51,190.90 L 147.16,191.92 L 148.54,193.88 L 149.37,194.77 L 151.11,196.48 L 152.09,197.23 L 154.13,198.65 L 155.24,199.24 L 157.54,200.33 L 158.77,200.74 L 161.27,201.46 L 162.58,201.68 L 165.25,202.00 L 166.62,202.00 L 169.44,202.07 L 170.69,202.20 L 171.07,202.34 L 171.68,202.67 L 171.82,202.94 L 172.00,203.55 L 172.00,203.98 L 171.81,204.83 L 171.49,205.46 L 171.25,205.81 L 170.05,207.26 L 169.17,208.07 L 167.24,209.72 L 166.06,210.59 L 163.56,212.33 L 162.17,213.19 L 159.31,214.90 L 157.80,215.70 L 154.74,217.27 L 153.21,217.96 L 150.15,219.27 L 148.68,219.79 L 145.81,220.73 L 144.50,221.02 L 142.52,221.48 L 140.93,221.88 L 140.07,222.10 L 136.54,223.02 L 135.03,223.45 L 131.90,224.07 L 129.19,224.40 L 127.61,224.53 L 124.31,224.77 L 122.53,224.85 L 118.88,224.97 L 117.01,225.00 L 113.26,225.02 L 111.42,224.98 L 107.80,224.89 L 106.12,224.80 L 102.86,224.59 L 101.46,224.45 L 98.81,224.12 L 97.80,223.91 L 92.20,222.60 L 88.27,221.52 L 86.32,220.93 L 82.47,219.70 L 80.70,219.06 L 77.28,217.79 L 75.85,217.17 L 73.84,216.20 L 72.30,215.37 L 71.48,214.90 L 68.07,212.86 L 66.45,211.79 L 64.86,210.73 L 64.14,210.23 L 62.76,209.24 L 62.20,208.81 L 61.17,207.98 L 60.82,207.65 L 60.25,207.06 L 60.18,206.88 L 59.79,206.40 L 59.30,205.97 L 58.97,205.71 L 57.44,204.58 L 56.52,204.01 L 54.84,202.59 L 53.43,201.11 L 52.63,200.18 L 50.98,198.18 L 50.11,197.06 L 48.35,194.74 L 47.47,193.52 L 45.73,191.06 L 44.92,189.84 L 43.34,187.43 L 42.66,186.30 L 41.37,184.12 L 40.88,183.18 L 40.03,181.42 L 39.81,180.76 L 38.83,178.16 L 38.51,177.43 L 38.37,177.15 L 38.11,176.64 L 38.01,176.50 L 37.57,175.46 L 37.17,174.26 L 36.93,173.46 L 36.44,171.74 L 36.18,170.74 L 35.63,168.66 L 35.36,167.55 L 34.24,162.93 L 33.77,160.73 L 33.31,158.58 L 33.12,157.61 L 32.78,155.76 L 32.66,155.00 L 32.47,154.03 L 32.37,153.78 L 32.33,153.86 L 32.26,154.16 L 32.23,154.51 L 32.17,155.36 L 32.15,156.00 L 32.18,156.65 L 31.46,151.07 L 32.01,147.26 L 32.74,143.06 L 33.00,141.87 L 33.11,141.40 L 33.34,140.57 L 33.42,140.34 L 33.43,139.50 L 33.20,138.81 L 32.98,138.42 L 31.90,136.79 L 31.15,135.98 L 29.55,134.44 L 28.73,133.89 L 27.93,133.39 L 27.56,133.24 L 26.85,133.00 L 26.55,133.00 L 25.43,132.55 L 24.79,131.89 L 24.62,131.46 L 24.67,130.10 L 25.24,129.46 L 25.68,129.31 L 26.62,129.14 L 27.10,129.28 L 28.04,129.70 L 28.39,130.18 L 29.26,130.87 L 30.19,131.38 L 30.79,131.64 L 33.49,132.66 L 35.00,133.03 L 39.25,134.26 L 40.40,134.66 L 40.83,134.84 L 41.58,135.18 L 41.75,135.31 L 43.04,135.58 L 44.02,135.31 L 44.45,135.04 L 45.25,134.42 L 45.45,134.06 L 45.69,133.31 L 45.48,132.97 L 45.00,131.40 L 44.72,129.84 L 44.63,129.05 L 44.49,127.52 L 44.50,127.01 L 44.52,126.57 L 44.56,126.46 L 44.65,126.32 L 44.73,126.40 L 45.10,126.37 L 45.50,126.14 L 45.75,125.94 L 46.89,124.92 L 47.53,124.19 L 48.74,122.91 L 49.38,122.39 L 49.65,122.28 L 50.16,122.17 M 82.45,221.15 L 87.94,223.02 L 90.78,223.76 L 95.49,224.85 L 92.67,224.27 L 90.52,223.79 L 86.45,222.61 L 84.43,221.97 L 80.49,220.45 L 80.17,220.31 M 71.27,216.11 L 71.19,216.07 L 70.94,215.92 M 63.23,211.09 L 62.23,210.43 L 61.17,209.57 M 54.00,203.46 L 56.59,205.84 L 54.42,203.95 L 53.53,203.00 M 48.47,197.45 L 50.18,199.42 L 49.90,199.12 L 47.74,196.63 L 44.35,191.75 M 41.46,186.95 L 42.77,189.34 L 42.19,188.44 L 41.14,186.34 M 35.53,172.83 L 37.89,179.39 L 39.29,182.49 L 40.46,184.99 L 39.18,182.44 L 37.76,179.37 L 35.49,172.78 L 35.08,171.47 M 34.91,170.93 L 34.45,169.42 L 34.35,168.98 M 142.49,154.02 L 141.85,154.37 L 141.26,154.76 L 141.03,155.03 L 140.62,155.64 L 140.50,156.02 L 140.36,158.51 L 140.71,160.51 L 141.05,161.51 L 141.81,163.47 L 142.29,164.25 L 143.29,165.65 L 143.83,165.96 L 144.91,166.56 L 145.36,166.71 L 146.21,166.92 L 146.60,166.88 L 147.37,166.69 L 147.79,166.43 L 148.65,165.82 L 149.17,165.35 L 150.51,163.52 L 150.93,162.14 L 150.91,161.39 L 150.71,159.86 L 150.38,159.06 L 149.57,157.45 L 148.93,156.63 L 146.65,154.72 L 144.93,154.01 L 144.10,153.95 M 28.18,142.00 L 29.77,142.11 L 30.44,142.39 L 30.63,142.73 L 30.93,143.56 L 31.00,144.29 L 31.06,145.08 L 31.08,145.57 L 31.11,146.62 L 31.12,147.18 L 31.11,147.06 L 30.97,145.73 L 30.90,145.12 L 30.75,144.18 L 30.67,143.75 L 30.47,143.13 L 30.25,142.58 L 29.59,142.15 L 28.04,142.00 M 19.57,140.29 L 20.75,140.70 L 23.16,141.44 L 24.40,141.66 L 26.91,142.00 L 26.79,142.00 L 24.31,141.66 L 23.08,141.44 L 20.69,140.69 L 19.52,140.28 L 17.30,139.19 L 16.29,138.65 L 17.34,139.21 M 16.25,138.63 L 16.23,138.61 L 15.44,138.07 M 167.61,22.16 L 169.04,22.33 L 169.81,22.54 L 171.43,23.04 L 172.43,23.42 L 176.06,25.35 L 178.09,27.00 L 178.92,27.97 L 180.43,30.00 L 180.98,31.12 L 181.94,33.43 L 182.20,34.66 L 182.59,37.14 L 182.56,38.40 L 182.35,40.95 L 182.02,42.20 L 181.19,44.70 L 180.53,45.90 L 179.06,48.25 L 178.08,49.33 L 175.59,51.51 L 173.63,52.80 L 172.59,53.31 L 170.48,54.25 L 169.46,54.55 L 167.48,55.00 L 166.63,55.01 L 163.78,55.27 L 161.90,55.69 L 160.98,56.01 L 159.16,56.73 L 158.28,57.20 L 156.55,58.20 L 155.72,58.80 L 154.11,60.06 L 153.37,60.78 L 151.91,62.27 L 151.25,63.10 L 149.98,64.80 L 149.43,65.73 L 148.38,67.61 L 147.95,68.62 L 146.92,70.92 L 146.50,71.71 L 146.11,72.43 L 145.96,72.65 L 145.71,73.00 L 145.65,73.00 L 145.23,72.38 L 144.99,71.39 L 144.89,70.66 L 144.71,69.06 L 144.64,68.08 L 144.52,66.02 L 144.49,64.88 L 144.43,60.04 L 144.51,57.54 L 144.61,55.06 L 144.69,53.87 L 144.87,51.56 L 145.00,50.52 L 145.71,45.62 L 146.26,42.81 L 146.61,41.55 L 147.35,39.09 L 147.82,37.89 L 148.83,35.49 L 149.46,34.22 L 150.93,31.36 L 151.82,29.75 L 152.25,29.08 L 153.10,27.80 L 153.52,27.28 L 154.38,26.29 L 154.83,25.88 L 156.73,24.48 L 157.92,24.00 L 159.17,23.55 L 159.88,23.36 L 161.37,22.98 L 162.23,22.80 L 165.27,22.26 L 166.88,22.11 Z" fill="rgba(3,125,251,1)"/>
<path d="M 73.39,171.74 L 72.21,172.27 L 69.86,173.16 L 68.66,173.41 L 66.23,173.77 L 64.95,173.78 L 64.41,173.76 L 66.25,173.68 L 69.82,173.05 L 70.65,172.82 L 72.27,172.21 L 73.08,171.87 L 73.89,171.43 M 62.65,173.69 L 62.72,173.70 L 62.34,173.68 L 60.93,173.49 L 60.91,173.49 M 48.22,166.77 L 49.85,168.36 L 50.71,169.12 L 52.62,170.43 L 53.61,171.04 L 55.74,172.03 L 56.83,172.48 L 58.64,172.99 L 56.84,172.61 L 54.40,171.73 L 53.31,171.15 L 51.23,169.88 L 50.33,169.09 L 48.61,167.42 L 47.88,166.42 L 47.52,165.88 M 89.91,155.63 L 93.55,150.95 L 90.81,154.49 M 43.50,149.99 L 43.52,151.70 L 43.54,152.52 L 43.59,153.97 L 43.63,154.74 L 43.60,154.55 L 43.22,151.13 L 43.15,149.24 L 42.81,139.98 L 43.50,139.69 M 41.69,142.52 L 41.63,143.27 L 41.54,144.85 L 41.55,145.76 L 41.59,147.69 L 41.66,148.79 L 41.82,151.08 L 41.87,151.70 L 41.81,151.05 L 41.65,148.73 L 41.58,147.61 L 41.54,145.69 L 41.53,144.78 L 41.62,143.22 L 41.68,142.48 L 41.79,141.90 M 30.62,142.71 L 30.93,143.54 L 31.00,144.28 L 31.06,145.07 L 31.08,145.56 L 31.11,146.61 L 31.11,146.62 L 31.08,145.57 L 31.06,145.08 L 31.00,144.29 L 30.93,143.56 L 30.63,142.73 L 30.50,142.50 M 30.43,142.37 L 30.43,142.39 L 30.05,142.23 M 29.74,142.10 L 29.75,142.11 L 29.14,142.07 M 26.45,141.94 L 27.03,142.00 L 26.91,142.00 M 21.05,137.06 L 21.56,137.24 L 21.73,137.54 L 22.00,138.30 L 22.00,138.89 L 22.36,140.29 L 22.96,141.00 L 23.46,141.25 L 24.54,141.68 L 24.40,141.66 L 23.16,141.44 L 20.75,140.70 L 19.57,140.29 L 18.44,139.74 L 18.51,139.66 L 18.89,139.16 L 19.12,138.75 L 20.12,137.46 L 20.77,137.05 M 33.42,140.34 L 33.34,140.57 L 33.12,141.39 L 33.31,140.59 L 33.41,140.30 L 33.43,140.10 M 31.15,135.98 L 31.90,136.79 L 32.46,137.64 L 32.44,137.99 L 32.62,138.45 L 32.65,139.60 L 32.12,140.00 L 31.59,140.00 L 30.85,139.88 L 30.53,139.66 L 30.45,139.46 L 30.34,139.02 L 30.37,138.70 L 30.47,137.99 L 30.58,137.53 L 30.78,136.23 L 30.71,135.56 M 51.53,133.44 L 52.00,134.09 L 52.00,134.50 L 52.11,135.53 L 52.32,135.89 L 52.42,135.90 L 48.89,137.59 L 46.18,138.57 L 46.32,138.51 L 48.00,137.70 L 48.77,137.20 L 49.00,136.93 L 49.35,136.39 L 49.39,136.08 L 49.40,135.42 L 49.30,135.02 L 49.28,133.48 L 49.82,133.00 L 50.38,133.00 M 45.66,137.12 L 45.09,137.27 L 45.09,137.27 L 45.48,137.01 L 46.08,136.78 M 27.15,134.26 L 27.79,134.46 L 28.08,134.72 L 28.62,135.35 L 28.77,135.81 L 28.80,136.44 L 28.59,136.65 L 28.02,137.00 L 27.58,137.00 L 26.47,136.53 L 26.00,135.85 L 26.00,135.42 L 26.35,134.47 L 26.85,134.21 M 9.86,132.48 L 10.60,133.44 L 12.16,135.38 L 12.48,135.72 L 11.71,134.97 L 10.94,134.16 L 9.73,132.41 L 9.18,131.51 L 9.06,131.22 M 39.10,134.21 L 40.34,134.62 L 40.79,134.81 L 41.58,135.16 L 41.75,135.29 L 41.95,135.35 L 41.75,135.31 L 41.58,135.18 L 40.83,134.84 L 40.40,134.66 L 39.25,134.26 L 38.48,134.04 M 43.72,132.44 L 44.00,133.09 L 44.00,133.50 L 43.93,134.20 L 43.80,134.45 L 43.49,134.85 L 43.27,134.93 L 42.80,135.01 L 42.53,134.92 L 41.98,134.64 L 41.69,134.36 L 41.39,133.65 L 41.46,133.13 L 41.60,132.88 L 41.95,132.42 L 42.20,132.26 L 42.74,132.00 L 43.06,132.00 M 14.65,132.41 L 15.00,132.98 L 15.00,133.42 L 14.82,134.25 L 14.53,134.53 L 13.85,135.00 L 13.42,135.00 L 12.47,134.65 L 12.21,134.15 L 12.26,133.85 L 12.46,133.21 L 12.72,132.92 L 13.35,132.38 L 13.81,132.23 M 45.48,132.97 L 45.69,133.31 L 45.45,134.06 L 45.25,134.42 L 44.64,134.90 L 45.14,134.12 L 45.24,133.52 L 45.28,132.32 M 48.30,133.71 L 48.05,134.36 L 48.00,134.44 L 48.00,134.06 L 48.61,133.17 L 49.00,132.90 M 27.56,133.24 L 27.93,133.39 L 28.73,133.89 L 29.21,134.21 L 28.94,134.05 L 28.35,133.80 L 26.85,133.00 M 21.07,131.19 L 21.83,131.72 L 22.15,132.24 L 22.15,132.50 L 22.03,133.04 L 21.83,133.28 L 21.37,133.71 L 21.07,133.81 L 20.32,133.57 L 20.00,132.96 L 20.00,132.50 L 20.32,131.43 L 20.78,131.09 M 56.09,129.21 L 56.87,129.48 L 57.34,129.87 L 58.11,130.31 L 58.61,130.40 L 58.85,130.35 L 59.60,129.96 L 59.28,130.46 L 57.20,132.59 L 56.20,133.52 L 56.24,133.07 L 56.15,132.80 L 55.91,132.22 L 55.69,131.87 L 55.10,130.41 L 55.12,129.67 L 55.29,129.46 L 55.74,129.15 M 37.82,133.09 L 37.46,132.69 L 38.45,130.24 M 51.73,131.53 L 51.74,131.67 L 51.66,131.89 L 51.48,131.94 L 51.01,132.00 L 50.63,132.00 L 49.61,132.49 L 50.09,132.16 L 50.56,131.99 L 51.16,131.71 L 51.41,131.57 L 51.58,131.30 M 45.14,131.87 L 45.02,131.56 L 45.00,131.41 M 31.03,128.55 L 31.53,128.86 L 31.71,129.11 L 32.00,129.65 L 32.00,129.99 L 31.49,130.70 L 30.73,131.10 L 30.25,131.20 L 30.12,131.35 L 29.26,130.87 L 28.39,130.18 L 28.04,129.70 L 27.20,129.32 L 28.61,129.40 L 29.41,129.14 L 29.57,128.89 L 30.22,128.44 L 30.76,128.43 M 25.68,129.31 L 25.24,129.46 L 24.67,130.10 L 24.64,131.07 L 24.43,130.50 L 24.56,129.89 L 24.78,129.67 L 25.33,129.29 L 25.73,129.23 L 26.31,129.20 M 16.44,127.28 L 16.65,127.47 L 17.00,127.98 L 17.00,128.42 L 16.82,129.25 L 16.53,129.53 L 15.85,130.00 L 15.42,130.00 L 14.41,129.65 L 14.12,129.14 L 14.23,128.81 L 14.92,127.72 L 15.54,127.30 L 15.85,127.26 M 49.64,125.97 L 49.19,126.48 L 49.08,126.68 L 49.13,126.72 L 49.29,126.76 L 49.48,126.71 L 49.92,126.58 L 50.25,126.45 L 51.05,126.24 L 51.45,126.26 L 51.59,126.34 L 51.83,126.56 L 51.90,126.76 L 52.00,127.20 L 52.00,127.50 L 51.60,128.65 L 50.90,128.79 L 50.31,128.56 L 49.48,128.29 L 49.21,128.28 L 49.22,128.38 L 49.34,128.64 L 49.54,128.90 L 50.06,129.51 L 50.46,129.96 L 50.49,129.99 L 50.14,129.70 L 49.52,128.96 L 49.25,128.59 L 48.97,127.90 L 48.87,127.57 L 48.89,126.98 L 48.93,126.70 L 49.22,126.24 L 49.39,126.04 L 49.77,125.84 M 33.83,128.71 L 34.59,129.61 L 33.59,128.54 L 32.06,126.92 L 31.17,126.06 L 30.75,125.72 L 29.13,124.61 L 28.68,124.50 L 30.28,124.50 M 41.11,125.13 L 41.67,125.86 L 42.23,126.03 L 43.53,126.23 L 44.42,126.06 L 44.63,126.35 L 44.56,126.46 L 44.52,126.57 L 44.51,126.77 L 44.38,127.05 L 44.01,127.49 L 42.75,128.45 L 42.00,128.40 L 41.64,128.04 L 40.53,127.19 L 39.94,127.04 L 39.70,127.20 L 39.66,127.23 L 40.06,126.25 L 40.93,124.73 M 19.14,124.52 L 17.75,124.65 L 14.71,125.02 L 13.16,125.30 L 12.61,125.46 L 11.66,125.80 L 11.39,126.00 L 11.00,126.41 L 11.00,126.64 L 10.56,127.60 L 9.91,128.00 L 9.50,128.00 L 8.44,128.25 L 8.25,128.41 L 8.00,126.82 L 8.00,126.25 L 8.20,125.49 L 8.29,125.33 L 8.63,125.08 L 8.84,124.97 L 9.46,124.80 L 9.81,124.73 L 10.79,124.63 L 11.34,124.59 L 12.77,124.54 L 13.55,124.52 L 15.51,124.51 L 19.14,124.50 L 19.37,124.50 M 24.56,126.29 L 25.00,126.72 L 25.00,127.00 L 24.83,127.52 L 24.56,127.71 L 23.91,128.00 L 23.50,128.00 L 22.44,127.71 L 22.00,127.27 L 22.00,127.00 L 22.44,126.29 L 23.09,126.00 L 23.50,126.00 M 60.69,114.73 L 60.85,114.93 L 61.11,115.89 L 61.53,118.32 L 61.71,119.56 L 61.80,122.42 L 61.80,123.11 L 61.72,124.39 L 61.51,125.97 L 61.26,127.08 L 60.84,127.84 L 61.03,127.03 L 61.39,124.96 L 61.42,123.70 L 61.39,121.59 L 61.27,120.64 L 61.15,120.35 L 60.86,119.90 L 60.63,119.81 L 60.11,119.73 L 59.75,119.79 L 58.48,119.57 L 58.00,118.98 L 58.00,118.50 L 57.84,117.74 L 57.54,117.42 L 57.26,117.35 L 56.61,117.26 L 56.11,117.30 L 55.01,117.41 L 54.25,117.54 L 53.67,117.64 L 56.28,116.82 L 56.93,116.58 L 58.00,116.10 L 59.11,115.40 L 59.51,115.04 L 60.08,114.65 L 60.34,114.52 M 59.72,123.44 L 60.00,124.09 L 60.00,124.50 L 59.93,125.20 L 59.80,125.45 L 59.49,125.85 L 59.27,125.93 L 58.80,126.01 L 58.53,125.92 L 57.98,125.64 L 57.69,125.36 L 57.39,124.65 L 57.46,124.13 L 57.60,123.88 L 57.95,123.42 L 58.20,123.26 L 58.74,123.00 L 59.06,123.00 M 48.74,122.91 L 47.53,124.19 L 46.89,124.92 L 46.28,125.47 L 46.70,124.89 L 47.45,123.94 L 47.86,123.56 L 48.67,122.88 L 48.94,122.75 M 47.44,119.46 L 47.36,119.79 L 47.34,120.51 L 47.50,121.00 L 47.63,122.54 L 47.34,123.25 L 47.08,123.39 L 46.49,123.55 L 46.15,123.38 L 45.46,122.87 L 45.16,122.32 L 44.60,121.49 L 44.26,121.18 L 44.08,121.15 L 43.85,121.17 L 43.95,121.07 L 44.92,120.32 L 47.33,119.22 L 48.04,119.03 M 50.98,122.58 L 51.18,122.78 L 51.13,122.75 L 50.95,122.58 M 54.59,120.35 L 54.88,120.86 L 54.77,121.19 L 54.37,122.02 L 54.08,122.28 L 53.46,122.70 L 53.15,122.74 L 52.56,122.72 L 52.35,122.53 L 52.00,122.02 L 52.00,121.58 L 52.47,120.47 L 53.15,120.00 L 53.58,120.00 Z" fill="rgba(12,61,131,1)"/>
<path d="M 57.26,117.35 L 57.54,117.42 L 57.84,117.74 L 58.00,118.50 L 58.00,118.98 L 58.48,119.57 L 59.75,119.79 L 60.11,119.73 L 60.63,119.81 L 60.86,119.90 L 61.15,120.35 L 61.27,120.64 L 61.39,121.59 L 61.42,123.70 L 61.39,124.96 L 61.03,127.03 L 60.81,127.98 L 60.13,129.32 L 59.75,129.89 L 58.85,130.35 L 58.61,130.40 L 58.11,130.31 L 57.34,129.87 L 56.87,129.48 L 56.09,129.21 L 55.74,129.15 L 55.29,129.46 L 55.12,129.67 L 55.10,130.41 L 55.69,131.87 L 55.91,132.22 L 56.15,132.80 L 56.24,133.07 L 56.20,133.53 L 56.14,133.75 L 55.79,134.16 L 54.91,134.82 L 54.30,135.21 L 53.42,135.67 L 53.03,135.86 L 52.53,135.92 L 52.32,135.89 L 52.11,135.53 L 52.00,134.50 L 52.00,134.09 L 51.53,133.44 L 50.38,133.00 L 49.82,133.00 L 49.28,133.48 L 49.30,135.02 L 49.40,135.42 L 49.39,136.08 L 49.35,136.39 L 49.00,136.93 L 48.77,137.20 L 48.00,137.70 L 46.32,138.51 L 42.81,139.98 L 43.15,149.24 L 43.22,151.13 L 43.60,154.55 L 43.83,156.20 L 44.53,159.17 L 44.92,160.60 L 45.95,163.12 L 46.51,164.33 L 47.88,166.42 L 48.61,167.42 L 50.33,169.09 L 51.23,169.88 L 53.31,171.15 L 54.40,171.73 L 56.84,172.61 L 60.93,173.49 L 62.34,173.68 L 64.95,173.78 L 66.23,173.77 L 68.66,173.41 L 69.86,173.16 L 72.21,172.27 L 73.39,171.74 L 75.79,170.23 L 77.00,169.40 L 79.54,167.20 L 80.85,166.01 L 83.65,163.05 L 85.09,161.47 L 88.26,157.67 L 89.08,156.67 L 90.81,154.49 L 93.55,150.95 L 94.62,149.56 L 96.66,146.96 L 97.67,145.69 L 99.61,143.34 L 101.53,141.04 L 105.13,137.14 L 106.90,135.30 L 110.30,132.25 L 111.99,130.82 L 115.33,128.52 L 117.00,127.46 L 120.41,125.83 L 122.14,125.10 L 125.75,124.06 L 127.60,123.61 L 131.55,123.08 L 138.00,122.76 L 139.90,122.75 L 143.57,122.97 L 145.37,123.13 L 148.84,123.68 L 150.55,124.00 L 153.82,124.88 L 155.44,125.36 L 158.52,126.57 L 160.04,127.22 L 162.93,128.76 L 164.35,129.57 L 167.06,131.44 L 168.39,132.42 L 170.91,134.62 L 174.48,138.30 L 175.54,139.51 L 177.46,142.01 L 178.39,143.27 L 180.03,145.86 L 180.81,147.17 L 182.18,149.86 L 182.83,151.22 L 183.93,154.03 L 184.45,155.45 L 185.28,158.38 L 185.67,159.87 L 186.24,162.94 L 186.50,164.49 L 186.81,167.71 L 187.00,172.71 L 187.00,174.34 L 186.82,177.45 L 186.69,178.98 L 186.25,181.90 L 186.00,183.35 L 185.29,186.13 L 184.90,187.50 L 183.91,190.18 L 183.37,191.50 L 182.08,194.09 L 181.40,195.38 L 179.80,197.93 L 178.96,199.20 L 177.03,201.74 L 173.77,205.57 L 172.84,206.58 L 170.80,208.52 L 169.76,209.47 L 167.50,211.27 L 165.18,213.04 L 159.95,216.17 L 157.25,217.66 L 151.34,220.21 L 148.32,221.40 L 141.87,223.33 L 138.59,224.21 L 131.74,225.48 L 128.28,226.03 L 121.16,226.61 L 117.58,226.80 L 110.33,226.65 L 106.71,226.48 L 99.47,225.55 L 96.52,225.10 L 90.78,223.76 L 87.94,223.02 L 82.45,221.15 L 79.73,220.15 L 74.53,217.77 L 71.96,216.52 L 67.10,213.66 L 64.71,212.18 L 60.23,208.88 L 58.04,207.17 L 54.00,203.46 L 52.04,201.55 L 48.47,197.45 L 43.73,190.89 L 42.96,189.69 L 41.46,186.95 L 40.71,185.54 L 39.29,182.49 L 37.89,179.39 L 35.53,172.83 L 34.99,171.20 L 34.07,168.01 L 33.64,166.44 L 32.98,163.47 L 32.68,162.03 L 32.32,159.40 L 32.15,156.00 L 32.17,155.36 L 32.23,154.51 L 32.26,154.16 L 32.33,153.86 L 32.37,153.78 L 32.47,154.03 L 32.66,155.00 L 32.78,155.76 L 33.12,157.61 L 33.31,158.58 L 33.77,160.73 L 34.24,162.93 L 35.36,167.55 L 35.63,168.66 L 36.18,170.74 L 36.44,171.74 L 36.93,173.46 L 37.17,174.26 L 37.57,175.46 L 38.01,176.50 L 38.11,176.64 L 38.37,177.15 L 38.51,177.43 L 38.83,178.16 L 39.81,180.76 L 40.03,181.42 L 40.88,183.18 L 41.37,184.12 L 42.66,186.30 L 43.34,187.43 L 44.92,189.84 L 45.73,191.06 L 47.47,193.52 L 48.35,194.74 L 50.11,197.06 L 50.98,198.18 L 52.63,200.18 L 53.43,201.11 L 54.84,202.59 L 56.52,204.01 L 57.44,204.58 L 58.97,205.71 L 59.30,205.97 L 59.79,206.40 L 60.18,206.88 L 60.25,207.06 L 60.82,207.65 L 61.17,207.98 L 62.20,208.81 L 62.76,209.24 L 64.14,210.23 L 64.86,210.73 L 66.45,211.79 L 68.07,212.86 L 71.48,214.90 L 72.30,215.37 L 73.84,216.20 L 75.85,217.17 L 77.28,217.79 L 80.70,219.06 L 82.47,219.70 L 86.32,220.93 L 88.27,221.52 L 92.20,222.60 L 97.80,223.91 L 98.81,224.12 L 101.46,224.45 L 102.86,224.59 L 106.12,224.80 L 107.80,224.89 L 111.42,224.98 L 113.26,225.02 L 117.01,225.00 L 118.88,224.97 L 122.53,224.85 L 124.31,224.77 L 127.61,224.53 L 129.19,224.40 L 131.90,224.07 L 135.03,223.45 L 136.54,223.02 L 140.07,222.10 L 140.93,221.88 L 142.52,221.48 L 144.50,221.02 L 145.81,220.73 L 148.68,219.79 L 150.15,219.27 L 153.21,217.96 L 154.74,217.27 L 157.80,215.70 L 159.31,214.90 L 162.17,213.19 L 163.56,212.33 L 166.06,210.59 L 167.24,209.72 L 169.17,208.07 L 170.05,207.26 L 171.25,205.81 L 171.49,205.46 L 171.81,204.83 L 172.00,203.98 L 172.00,203.55 L 171.82,202.94 L 171.68,202.67 L 171.07,202.34 L 170.69,202.20 L 169.44,202.07 L 166.62,202.00 L 165.25,202.00 L 163.83,201.83 L 165.05,201.89 L 168.22,201.94 L 169.72,201.78 L 172.64,201.33 L 173.85,200.90 L 175.46,200.28 L 176.23,199.93 L 176.45,199.77 L 176.80,199.48 L 176.82,199.36 L 176.75,199.14 L 176.55,199.06 L 176.06,198.91 L 175.66,198.86 L 174.74,198.77 L 174.13,198.75 L 172.83,198.73 L 172.99,198.71 L 173.62,198.63 L 174.47,198.40 L 175.00,198.00 L 175.00,197.72 L 175.43,197.29 L 176.45,197.00 L 176.68,197.00 L 177.23,196.76 L 177.51,196.60 L 178.15,196.08 L 178.80,195.50 L 180.22,193.72 L 180.93,192.76 L 182.24,190.50 L 183.76,187.00 L 183.92,186.52 L 184.27,185.01 L 184.44,184.19 L 184.77,182.18 L 185.57,175.50 L 185.77,172.98 L 185.61,168.04 L 185.44,165.59 L 184.56,160.83 L 184.04,158.48 L 182.49,153.98 L 181.64,151.76 L 179.45,147.57 L 178.28,145.52 L 175.48,141.70 L 174.02,139.85 L 170.66,136.48 L 168.91,134.86 L 165.03,132.00 L 158.65,128.36 L 157.64,127.88 L 155.95,127.10 L 155.15,126.73 L 153.77,126.15 L 152.43,125.60 L 150.00,125.00 L 149.37,124.88 L 147.97,124.72 L 147.23,124.65 L 145.52,124.58 L 144.62,124.55 L 142.44,124.53 L 138.50,124.53 L 137.11,124.53 L 134.75,124.55 L 133.64,124.56 L 131.77,124.61 L 130.88,124.65 L 129.37,124.75 L 128.66,124.81 L 127.41,124.99 L 126.20,125.18 L 124.10,125.86 L 120.50,127.44 L 119.58,127.89 L 117.58,129.10 L 116.56,129.75 L 114.39,131.36 L 113.29,132.21 L 110.97,134.19 L 109.79,135.23 L 107.35,137.56 L 106.12,138.76 L 103.59,141.41 L 102.31,142.78 L 99.72,145.72 L 91.82,155.50 L 90.33,157.47 L 87.58,160.88 L 86.24,162.51 L 83.73,165.27 L 82.49,166.58 L 80.13,168.74 L 78.97,169.75 L 76.70,171.35 L 75.57,172.09 L 73.31,173.19 L 72.17,173.68 L 69.85,174.31 L 68.67,174.58 L 66.21,174.81 L 62.29,174.74 L 61.18,174.65 L 59.21,174.35 L 58.25,174.19 L 56.52,173.72 L 51.74,171.49 L 50.90,170.96 L 49.42,169.89 L 48.72,169.35 L 47.50,168.23 L 46.92,167.67 L 45.94,166.44 L 45.47,165.81 L 44.69,164.43 L 44.32,163.71 L 43.71,162.10 L 43.42,161.26 L 42.95,159.38 L 42.74,158.39 L 42.38,156.16 L 41.94,152.38 L 41.82,151.08 L 41.66,148.79 L 41.59,147.69 L 41.55,145.76 L 41.54,144.85 L 41.63,143.27 L 41.69,142.52 L 41.90,141.26 L 42.02,140.67 L 42.37,139.69 L 42.56,139.24 L 43.06,138.54 L 43.32,138.21 L 43.96,137.74 L 45.09,137.27 L 45.66,137.12 L 46.81,136.19 L 48.05,134.36 L 48.30,133.71 L 49.18,132.69 L 50.63,132.00 L 51.01,132.00 L 51.48,131.94 L 51.66,131.89 L 51.74,131.67 L 51.73,131.53 L 51.41,131.05 L 50.46,129.96 L 50.06,129.51 L 49.54,128.90 L 49.34,128.64 L 49.22,128.38 L 49.21,128.28 L 49.48,128.29 L 50.31,128.56 L 50.90,128.79 L 51.60,128.65 L 52.00,127.50 L 52.00,127.20 L 51.90,126.76 L 51.83,126.56 L 51.59,126.34 L 51.45,126.26 L 51.05,126.24 L 50.25,126.45 L 49.92,126.58 L 49.48,126.71 L 49.29,126.76 L 49.13,126.72 L 49.08,126.68 L 49.19,126.48 L 49.64,125.97 L 49.86,125.75 L 50.32,125.51 L 50.56,125.42 L 51.11,125.44 L 51.41,125.48 L 52.12,125.78 L 53.42,126.54 L 54.15,127.02 L 55.46,127.59 L 55.75,127.69 L 56.22,127.77 L 56.65,127.68 L 56.93,127.40 L 57.00,126.64 L 56.97,126.24 L 56.55,125.42 L 56.29,125.03 L 55.54,124.42 L 54.23,124.00 L 53.73,124.00 L 52.61,123.67 L 51.29,122.89 L 50.98,122.58 L 50.26,122.41 L 49.89,122.38 L 49.08,122.68 L 48.67,122.88 L 47.86,123.56 L 47.45,123.94 L 46.70,124.89 L 45.98,125.89 L 45.05,128.26 L 44.89,128.85 L 44.78,130.00 L 45.02,131.56 L 45.28,132.24 L 45.24,133.52 L 45.14,134.12 L 44.55,135.04 L 44.20,135.43 L 43.28,135.75 L 41.75,135.29 L 41.58,135.16 L 40.79,134.81 L 40.34,134.62 L 39.10,134.21 L 34.50,132.94 L 33.67,132.75 L 32.31,132.37 L 31.68,132.19 L 30.78,131.85 L 30.39,131.69 L 30.04,131.44 L 30.25,131.20 L 30.73,131.10 L 31.49,130.70 L 32.00,129.99 L 32.00,129.65 L 31.71,129.11 L 31.53,128.86 L 31.03,128.55 L 30.76,128.43 L 30.22,128.44 L 29.57,128.89 L 29.41,129.14 L 28.61,129.40 L 27.11,129.32 L 26.59,129.18 L 25.73,129.23 L 25.33,129.29 L 24.78,129.67 L 24.56,129.89 L 24.43,130.50 L 24.82,131.57 L 25.00,131.84 L 26.14,132.62 L 28.35,133.80 L 28.94,134.05 L 29.77,134.53 L 30.13,134.77 L 30.54,135.28 L 30.71,135.56 L 30.78,136.23 L 30.58,137.53 L 30.47,137.99 L 30.37,138.70 L 30.34,139.02 L 30.45,139.46 L 30.53,139.66 L 30.85,139.88 L 31.59,140.00 L 32.12,140.00 L 32.65,139.60 L 32.62,138.45 L 32.44,137.99 L 32.47,137.50 L 33.05,137.53 L 33.34,137.71 L 33.58,138.61 L 33.41,140.30 L 33.31,140.59 L 33.08,141.52 L 32.97,142.03 L 32.71,143.28 L 31.99,147.46 L 31.25,152.50 L 31.12,147.25 L 31.11,146.61 L 31.08,145.56 L 31.06,145.07 L 31.00,144.28 L 30.93,143.54 L 30.62,142.71 L 30.43,142.37 L 29.74,142.10 L 28.08,142.00 L 27.03,142.00 L 25.35,141.82 L 24.58,141.69 L 23.46,141.25 L 22.96,141.00 L 22.36,140.29 L 22.00,138.89 L 22.00,138.30 L 21.73,137.54 L 21.56,137.24 L 21.05,137.06 L 20.77,137.05 L 20.12,137.46 L 19.12,138.75 L 18.89,139.16 L 18.51,139.66 L 18.32,139.86 L 17.87,139.93 L 17.62,139.90 L 16.90,139.52 L 15.32,138.41 L 14.61,137.88 L 12.98,136.25 L 12.16,135.38 L 10.60,133.44 L 9.86,132.48 L 8.75,130.72 L 8.51,130.32 L 8.20,129.63 L 8.00,128.85 L 8.00,128.62 L 8.44,128.25 L 9.50,128.00 L 9.91,128.00 L 10.56,127.60 L 11.00,126.64 L 11.00,126.41 L 11.39,126.00 L 11.66,125.80 L 12.61,125.46 L 13.16,125.30 L 14.71,125.02 L 17.75,124.65 L 19.14,124.52 L 21.44,124.32 L 22.51,124.23 L 24.28,124.13 L 25.10,124.09 L 26.45,124.13 L 27.08,124.17 L 28.13,124.36 L 29.13,124.61 L 30.75,125.72 L 31.17,126.06 L 32.06,126.92 L 33.59,128.54 L 37.82,133.09 L 38.49,130.04 L 38.67,129.24 L 39.04,128.13 L 39.24,127.66 L 39.70,127.20 L 39.94,127.04 L 40.53,127.19 L 41.64,128.04 L 42.00,128.40 L 42.75,128.45 L 44.01,127.49 L 44.38,127.05 L 44.68,126.41 L 44.42,126.06 L 43.53,126.23 L 42.23,126.03 L 41.67,125.86 L 41.11,125.13 L 40.93,124.71 L 41.19,123.65 L 42.60,121.92 L 42.93,121.64 L 43.45,121.31 L 43.69,121.18 L 44.08,121.15 L 44.26,121.18 L 44.60,121.49 L 45.16,122.32 L 45.46,122.87 L 46.15,123.38 L 46.49,123.55 L 47.08,123.39 L 47.34,123.25 L 47.63,122.54 L 47.50,121.00 L 47.34,120.51 L 47.36,119.79 L 47.44,119.46 L 48.15,118.95 L 48.38,118.83 L 49.03,118.61 L 49.38,118.50 L 50.30,118.28 L 50.80,118.17 L 52.03,117.93 L 54.25,117.54 L 55.01,117.41 L 56.11,117.30 L 56.61,117.26 M 163.01,201.73 L 162.58,201.68 L 161.27,201.46 L 160.91,201.36 M 152.02,197.12 L 154.50,198.84 L 154.13,198.65 L 152.09,197.23 L 151.11,196.48 L 150.76,196.14 M 163.22,198.73 L 162.62,198.68 L 162.05,198.58 M 149.81,190.43 L 151.04,192.17 L 151.68,192.99 L 153.05,194.40 L 153.76,195.06 L 155.32,196.14 L 156.12,196.65 L 157.89,197.44 L 158.80,197.81 L 160.81,198.33 L 161.65,198.52 L 161.51,198.49 L 159.37,198.04 L 158.40,197.70 L 156.54,196.95 L 155.69,196.45 L 154.06,195.38 L 153.31,194.71 L 151.87,193.28 L 151.21,192.43 L 149.92,190.63 L 149.31,189.59 L 148.13,187.39 L 148.10,187.33 L 149.23,189.43 M 148.45,193.67 L 150.47,195.86 L 149.37,194.77 L 148.54,193.88 L 148.00,193.11 M 147.17,191.93 L 147.16,191.92 L 146.51,190.90 L 146.06,189.89 M 145.52,188.71 L 144.54,185.22 L 145.89,189.53 M 26.35,134.47 L 26.00,135.42 L 26.00,135.85 L 26.47,136.53 L 27.58,137.00 L 28.02,137.00 L 28.59,136.65 L 28.80,136.44 L 28.77,135.81 L 28.62,135.35 L 28.08,134.72 L 27.79,134.46 L 27.15,134.26 L 26.85,134.21 M 42.74,132.00 L 42.20,132.26 L 41.95,132.42 L 41.60,132.88 L 41.46,133.13 L 41.39,133.65 L 41.69,134.36 L 41.98,134.64 L 42.53,134.92 L 42.80,135.01 L 43.27,134.93 L 43.49,134.85 L 43.80,134.45 L 43.93,134.20 L 44.00,133.50 L 44.00,133.09 L 43.72,132.44 L 43.06,132.00 M 13.35,132.38 L 12.72,132.92 L 12.46,133.21 L 12.26,133.85 L 12.21,134.15 L 12.47,134.65 L 13.42,135.00 L 13.85,135.00 L 14.53,134.53 L 14.82,134.25 L 15.00,133.42 L 15.00,132.98 L 14.65,132.41 L 13.81,132.23 M 20.32,131.43 L 20.00,132.50 L 20.00,132.96 L 20.32,133.57 L 21.07,133.81 L 21.37,133.71 L 21.83,133.28 L 22.03,133.04 L 22.15,132.50 L 22.15,132.24 L 21.83,131.72 L 21.07,131.19 L 20.78,131.09 M 15.54,127.30 L 14.92,127.72 L 14.23,128.81 L 14.12,129.14 L 14.41,129.65 L 15.42,130.00 L 15.85,130.00 L 16.53,129.53 L 16.82,129.25 L 17.00,128.42 L 17.00,127.98 L 16.65,127.47 L 16.44,127.28 L 15.85,127.26 M 23.09,126.00 L 22.44,126.29 L 22.00,127.00 L 22.00,127.27 L 22.44,127.71 L 23.50,128.00 L 23.91,128.00 L 24.56,127.71 L 24.83,127.52 L 25.00,127.00 L 25.00,126.72 L 24.56,126.29 L 23.50,126.00 M 58.74,123.00 L 58.20,123.26 L 57.95,123.42 L 57.60,123.88 L 57.46,124.13 L 57.39,124.65 L 57.69,125.36 L 57.98,125.64 L 58.53,125.92 L 58.80,126.01 L 59.27,125.93 L 59.49,125.85 L 59.80,125.45 L 59.93,125.20 L 60.00,124.50 L 60.00,124.09 L 59.72,123.44 L 59.06,123.00 M 53.15,120.00 L 52.47,120.47 L 52.00,121.58 L 52.00,122.02 L 52.35,122.53 L 52.56,122.72 L 53.15,122.74 L 53.46,122.70 L 54.08,122.28 L 54.37,122.02 L 54.77,121.19 L 54.88,120.86 L 54.59,120.35 L 53.58,120.00 M 167.48,21.18 L 169.28,21.29 L 172.21,21.81 L 173.59,22.13 L 175.90,23.18 L 177.00,23.78 L 178.94,25.49 L 181.75,28.99 L 182.23,29.70 L 182.96,31.30 L 183.29,32.13 L 183.71,33.92 L 183.88,34.83 L 184.00,36.73 L 184.03,37.69 L 183.86,39.65 L 183.74,40.62 L 183.28,42.56 L 183.02,43.53 L 182.29,45.39 L 181.90,46.30 L 180.90,48.01 L 179.11,50.34 L 178.23,51.30 L 176.49,52.80 L 175.60,53.48 L 173.67,54.51 L 172.66,54.98 L 170.30,55.66 L 166.00,56.42 L 164.74,56.57 L 162.42,57.12 L 161.29,57.43 L 159.21,58.29 L 158.20,58.76 L 156.35,59.96 L 155.45,60.60 L 153.81,62.14 L 153.02,62.96 L 151.58,64.86 L 150.88,65.86 L 149.62,68.15 L 149.02,69.34 L 147.93,72.02 L 146.47,76.50 L 146.00,78.15 L 145.01,81.02 L 144.78,81.65 L 144.37,82.61 L 143.89,83.45 L 143.82,83.52 L 143.70,83.38 L 143.64,83.27 L 143.53,82.79 L 143.48,82.51 L 143.38,81.71 L 143.33,81.27 L 143.25,80.18 L 143.17,79.02 L 143.07,75.91 L 143.02,74.24 L 143.00,70.27 L 143.00,67.38 L 143.13,62.04 L 143.22,59.44 L 143.53,54.68 L 143.71,52.37 L 144.21,48.16 L 144.49,46.11 L 145.18,42.42 L 145.55,40.64 L 146.45,37.43 L 146.92,35.89 L 148.01,33.15 L 148.59,31.84 L 149.89,29.53 L 152.10,26.54 L 153.10,25.40 L 155.11,23.71 L 156.14,22.95 L 158.41,21.96 L 159.60,21.55 L 162.39,21.17 M 165.27,22.26 L 162.23,22.80 L 161.37,22.98 L 159.88,23.36 L 159.17,23.55 L 157.92,24.00 L 156.73,24.48 L 154.83,25.88 L 154.38,26.29 L 153.52,27.28 L 153.10,27.80 L 152.25,29.08 L 151.82,29.75 L 150.93,31.36 L 149.46,34.22 L 148.83,35.49 L 147.82,37.89 L 147.35,39.09 L 146.61,41.55 L 146.26,42.81 L 145.71,45.62 L 145.00,50.52 L 144.87,51.56 L 144.69,53.87 L 144.61,55.06 L 144.51,57.54 L 144.43,60.04 L 144.49,64.88 L 144.52,66.02 L 144.64,68.08 L 144.71,69.06 L 144.89,70.66 L 144.99,71.39 L 145.23,72.38 L 145.65,73.00 L 145.71,73.00 L 145.96,72.65 L 146.11,72.43 L 146.50,71.71 L 146.92,70.92 L 147.95,68.62 L 148.38,67.61 L 149.43,65.73 L 149.98,64.80 L 151.25,63.10 L 151.91,62.27 L 153.37,60.78 L 154.11,60.06 L 155.72,58.80 L 156.55,58.20 L 158.28,57.20 L 159.16,56.73 L 160.98,56.01 L 161.90,55.69 L 163.78,55.27 L 166.63,55.01 L 167.48,55.00 L 169.46,54.55 L 170.48,54.25 L 172.59,53.31 L 173.63,52.80 L 175.59,51.51 L 178.08,49.33 L 179.06,48.25 L 180.53,45.90 L 181.19,44.70 L 182.02,42.20 L 182.35,40.95 L 182.56,38.40 L 182.59,37.14 L 182.20,34.66 L 181.94,33.43 L 180.98,31.12 L 180.43,30.00 L 178.92,27.97 L 178.09,27.00 L 176.06,25.35 L 172.43,23.42 L 171.43,23.04 L 169.81,22.54 L 169.04,22.33 L 167.61,22.16 L 166.88,22.11 Z" fill="rgba(21,121,218,1)"/>
<path d="M 176.80,199.48 L 176.45,199.77 L 176.23,199.93 L 175.46,200.28 L 173.85,200.90 L 172.64,201.33 L 169.72,201.78 L 168.22,201.94 L 165.05,201.89 L 163.47,201.81 L 162.88,201.70 L 164.19,201.84 L 165.73,201.86 L 168.81,201.80 L 170.22,201.65 L 172.88,201.24 L 173.85,200.90 L 175.44,200.29 L 176.21,199.93 L 176.44,199.78 L 176.80,199.49 L 176.81,199.44 M 144.92,182.14 L 145.06,182.19 L 145.42,182.49 L 145.61,182.68 L 146.04,183.28 L 146.26,183.61 L 146.76,184.50 L 147.56,186.14 L 148.13,187.39 L 149.31,189.59 L 149.92,190.63 L 151.21,192.43 L 151.87,193.28 L 153.31,194.71 L 154.06,195.38 L 155.69,196.45 L 156.54,196.95 L 158.40,197.70 L 159.37,198.04 L 161.51,198.49 L 162.62,198.68 L 163.96,198.78 L 163.40,198.78 L 161.39,198.64 L 160.52,198.55 L 158.90,198.33 L 158.33,198.20 L 156.73,197.92 L 155.88,197.85 L 155.56,197.87 L 154.99,197.95 L 154.82,198.03 L 154.54,198.22 L 154.51,198.35 L 154.52,198.65 L 154.64,198.82 L 154.92,199.13 L 154.91,199.13 L 152.02,197.12 L 150.66,196.07 L 148.45,193.67 L 147.44,192.42 L 145.94,189.67 L 144.54,185.22 L 144.44,184.65 L 144.35,183.76 L 144.32,183.36 L 144.36,182.77 L 144.40,182.52 L 144.56,182.23 L 144.65,182.13 M 143.78,111.50 L 143.79,111.45 L 144.86,110.08 M 155.81,97.63 L 156.58,97.01 L 156.85,96.83 M 133.70,96.11 L 134.03,97.14 L 133.44,95.38 M 173.34,91.31 L 175.54,91.93 L 176.64,92.51 L 178.89,93.35 L 179.79,93.50 L 180.34,93.54 L 181.52,93.59 L 182.25,93.58 L 183.82,93.52 L 184.80,93.45 L 186.89,93.29 L 188.17,93.16 L 190.89,92.88 L 192.53,92.70 L 196.02,92.31 L 196.87,92.21 L 195.68,92.83 L 194.86,93.22 L 193.06,93.78 L 192.13,94.02 L 190.10,94.32 L 189.06,94.43 L 186.77,94.46 L 185.59,94.45 L 183.01,94.22 L 178.79,93.61 L 177.07,93.31 L 173.88,92.95 L 172.33,92.82 L 169.45,92.83 L 168.04,92.88 L 165.41,93.27 L 164.13,93.51 L 161.72,94.29 L 160.53,94.73 L 158.29,95.92 L 158.13,96.02 L 159.74,95.04 L 161.00,94.38 L 165.82,92.21 L 168.60,91.34 L 169.84,91.19 L 172.22,91.09 M 152.56,82.15 L 152.02,83.54 L 149.82,89.35 L 148.95,91.86 L 149.80,89.38 L 152.01,83.56 L 152.55,82.17 L 153.61,79.64 L 155.09,76.36 L 153.62,79.62 M 204.54,82.70 L 201.92,87.46 L 201.34,88.27 L 201.30,88.32 L 201.46,88.10 L 201.90,87.48 L 204.53,82.71 L 205.32,80.27 M 128.50,82.31 L 129.18,83.87 L 130.23,86.50 L 130.67,87.65 L 130.06,86.14 L 129.63,85.08 L 128.80,83.26 L 128.39,82.40 L 127.58,80.90 L 127.29,80.38 M 126.68,79.42 L 126.90,79.76 L 126.50,79.16 M 205.60,79.40 L 205.60,79.40 L 205.69,78.57 M 125.70,78.02 L 126.29,78.86 L 124.55,76.79 M 100.62,69.93 L 103.84,69.98 L 105.39,70.03 L 108.44,70.15 L 109.80,70.24 L 111.67,70.37 L 110.20,70.34 L 109.21,70.35 L 107.06,70.49 L 103.50,70.89 L 102.12,71.08 L 99.69,71.39 L 98.53,71.53 L 96.48,71.72 L 94.50,71.89 L 91.27,71.89 L 89.71,71.82 L 86.75,71.34 L 84.10,70.63 L 84.90,70.76 L 85.38,70.77 L 86.26,70.73 L 86.57,70.61 L 87.31,70.43 L 88.01,70.32 L 88.45,70.27 L 90.45,70.10 L 91.72,70.04 L 94.41,69.95 L 95.92,69.93 L 99.02,69.91 M 115.22,70.78 L 115.76,70.93 L 116.13,71.09 L 115.46,70.88 L 114.82,70.73 M 80.68,69.68 L 80.29,69.55 L 80.06,69.45 M 76.40,67.81 L 76.08,67.66 L 75.99,67.59 M 61.77,46.93 L 62.31,48.99 L 63.55,53.04 L 64.41,54.94 L 66.27,58.62 L 67.28,60.03 L 67.24,59.98 L 66.36,58.81 L 64.86,56.23 L 64.16,54.91 L 63.04,52.07 L 62.53,50.61 L 61.81,47.51 L 61.42,44.47 M 124.89,26.17 L 126.79,29.21 L 127.61,30.69 L 129.23,34.36 L 130.03,36.31 L 131.58,40.80 L 132.34,43.13 L 133.78,48.27 L 134.48,50.90 L 135.64,55.90 L 134.46,50.92 L 133.42,47.21 L 131.87,42.00 L 130.84,38.85 L 130.31,37.42 L 129.24,34.64 L 128.68,33.37 L 127.53,30.90 L 126.92,29.75 L 124.42,25.51 M 61.38,33.35 L 61.50,32.44 L 61.91,30.71 M 62.00,30.33 L 62.06,30.07 L 62.10,29.92 M 122.60,23.09 L 123.42,24.11 L 124.12,25.09 L 122.81,23.39 L 120.81,20.99 M 70.29,18.14 L 68.34,19.87 L 68.40,19.81 L 70.56,17.88 L 70.97,17.55 M 119.17,19.08 L 119.32,19.25 L 118.03,17.98 M 77.99,12.80 L 76.88,13.43 L 74.67,14.77 L 73.58,15.55 L 72.24,16.56 L 74.34,14.91 L 75.27,14.22 L 77.48,13.01 L 78.64,12.43 L 79.56,12.07 M 110.11,11.53 L 110.88,12.04 L 110.01,11.48 M 107.06,10.14 L 107.75,10.34 L 109.07,10.99 L 107.91,10.53 L 106.41,9.99 M 98.84,8.87 L 100.31,8.92 L 103.13,9.27 L 103.21,9.29 L 102.59,9.21 L 100.56,8.99 L 99.44,8.94 L 97.12,8.87 L 95.83,8.89 L 92.83,9.02 L 94.34,8.90 L 95.86,8.82 M 139.99,83.27 L 140.61,92.00 L 139.94,82.75 Z" fill="rgba(147,219,236,1)"/>
<path d="M 157.79,200.71 L 157.21,200.48 L 156.28,200.03 L 155.85,199.81 L 155.23,199.39 L 154.96,199.19 L 154.64,198.82 L 154.52,198.65 L 154.51,198.35 L 154.54,198.22 L 154.82,198.03 L 154.99,197.95 L 155.56,197.87 L 155.88,197.85 L 156.73,197.92 L 158.33,198.20 L 158.90,198.33 L 160.52,198.55 L 161.39,198.64 L 163.40,198.78 L 169.75,198.81 L 170.72,198.76 L 172.37,198.72 L 173.14,198.71 L 174.38,198.73 L 174.95,198.75 L 175.80,198.84 L 176.17,198.90 L 176.61,199.05 L 176.78,199.14 L 176.83,199.37 L 176.80,199.49 L 176.44,199.78 L 176.21,199.93 L 175.44,200.29 L 173.85,200.90 L 172.88,201.24 L 170.22,201.65 L 168.81,201.80 L 165.73,201.86 L 164.19,201.84 L 161.29,201.54 L 160.60,201.45 L 159.36,201.19 L 158.78,201.05 M 143.83,165.96 L 143.29,165.65 L 142.29,164.25 L 141.81,163.47 L 141.05,161.51 L 140.71,160.51 L 140.36,158.51 L 140.50,156.02 L 140.62,155.64 L 141.03,155.03 L 141.26,154.76 L 141.85,154.37 L 142.49,154.02 L 144.10,153.95 L 144.93,154.01 L 146.65,154.72 L 148.93,156.63 L 149.57,157.45 L 150.38,159.06 L 150.71,159.86 L 150.91,161.39 L 150.93,162.14 L 150.51,163.52 L 149.17,165.35 L 148.65,165.82 L 147.79,166.43 L 147.37,166.69 L 146.60,166.88 L 146.21,166.92 L 145.36,166.71 L 144.91,166.56 M 138.71,111.00 L 138.67,110.90 L 138.52,110.48 L 138.43,110.25 L 138.20,109.59 L 137.96,108.88 L 137.27,106.86 L 136.90,105.77 L 136.04,103.20 L 134.65,99.00 L 133.70,96.11 L 131.61,90.22 L 131.12,88.85 L 130.23,86.50 L 129.18,83.87 L 128.50,82.31 L 126.68,79.42 L 125.70,78.02 L 123.42,75.59 L 122.24,74.45 L 119.68,72.67 L 115.76,70.93 L 115.22,70.78 L 113.40,70.54 L 112.38,70.42 L 109.80,70.24 L 108.44,70.15 L 105.39,70.03 L 103.84,69.98 L 100.62,69.93 L 99.02,69.91 L 95.92,69.93 L 94.41,69.95 L 91.72,70.04 L 90.45,70.10 L 88.45,70.27 L 88.01,70.32 L 87.31,70.43 L 86.57,70.61 L 86.26,70.73 L 85.38,70.77 L 84.90,70.76 L 83.74,70.57 L 82.53,70.33 L 79.61,69.29 L 78.12,68.70 L 75.15,67.16 L 71.35,64.57 L 69.90,63.33 L 67.43,60.24 L 66.27,58.62 L 64.41,54.94 L 63.55,53.04 L 62.31,48.99 L 61.77,46.93 L 61.17,42.72 L 60.96,40.62 L 61.04,36.48 L 61.16,34.45 L 61.93,30.60 L 62.40,28.73 L 63.89,25.40 L 64.30,24.61 L 65.28,23.16 L 66.94,21.22 L 68.08,20.11 L 70.29,18.14 L 71.39,17.19 L 73.58,15.55 L 74.67,14.77 L 76.88,13.43 L 77.99,12.80 L 80.25,11.75 L 81.40,11.26 L 83.77,10.49 L 84.97,10.13 L 87.49,9.61 L 88.77,9.37 L 91.49,9.08 L 95.83,8.89 L 97.12,8.87 L 99.44,8.94 L 100.56,8.99 L 102.59,9.21 L 103.57,9.33 L 105.38,9.72 L 106.26,9.94 L 107.91,10.53 L 109.54,11.17 L 112.62,13.17 L 113.39,13.74 L 114.99,15.10 L 117.52,17.47 L 119.53,19.46 L 122.81,23.39 L 124.35,25.39 L 126.92,29.75 L 127.53,30.90 L 128.68,33.37 L 129.24,34.64 L 130.31,37.42 L 130.84,38.85 L 131.87,42.00 L 133.42,47.21 L 134.46,50.92 L 136.20,58.30 L 137.02,61.99 L 138.32,69.38 L 138.91,73.09 L 139.78,80.58 L 140.61,92.00 L 140.73,94.74 L 140.70,100.05 L 140.67,101.33 L 140.56,103.69 L 140.50,104.83 L 140.32,106.83 L 140.22,107.77 L 140.00,109.30 L 139.88,110.00 L 139.61,110.94 L 139.47,111.32 L 139.17,111.56 L 139.02,111.58 M 144.50,107.05 L 144.62,106.31 L 145.09,104.34 L 145.35,103.29 L 146.05,100.82 L 146.43,99.54 L 147.31,96.74 L 147.77,95.31 L 148.78,92.34 L 149.82,89.35 L 152.02,83.54 L 152.56,82.15 L 153.62,79.62 L 155.09,76.36 L 156.04,74.39 L 158.45,70.77 L 159.73,69.02 L 162.69,65.87 L 164.23,64.36 L 167.59,61.76 L 169.31,60.54 L 172.94,58.56 L 174.77,57.65 L 178.52,56.36 L 180.39,55.81 L 184.12,55.28 L 185.96,55.12 L 189.51,55.42 L 194.50,56.88 L 195.74,57.45 L 197.70,58.62 L 198.61,59.23 L 200.12,60.68 L 200.83,61.47 L 202.12,63.49 L 204.08,67.46 L 204.84,69.16 L 205.64,72.59 L 205.92,74.31 L 205.78,77.71 L 205.60,79.41 L 204.53,82.71 L 201.90,87.48 L 201.46,88.10 L 200.60,89.24 L 200.18,89.79 L 199.44,90.69 L 199.10,91.11 L 198.56,91.68 L 198.08,92.07 L 196.02,92.31 L 192.53,92.70 L 190.89,92.88 L 188.17,93.16 L 186.89,93.29 L 184.80,93.45 L 183.82,93.52 L 182.25,93.58 L 181.52,93.59 L 180.34,93.54 L 179.79,93.50 L 178.89,93.35 L 176.64,92.51 L 175.54,91.93 L 173.34,91.31 L 172.22,91.09 L 169.84,91.19 L 168.60,91.34 L 165.82,92.21 L 161.00,94.38 L 159.74,95.04 L 157.60,96.34 L 156.58,97.01 L 154.73,98.49 L 153.83,99.27 L 152.03,101.14 L 149.13,104.63 L 143.75,111.50 L 144.50,107.05 Z" fill="rgba(170,252,252,1)"/>
</g>
</svg>