<?xml version="1.0" encoding="UTF-8"?>
<!DOCTYPE svg PUBLIC "-//W3C//DTD SVG 1.1//EN" "http://www.w3.org/Graphics/SVG/1.1/DTD/svg11.dtd">
<svg xmlns="http://www.w3.org/2000/svg" version="1.1" width="512px" height="512px" style="shape-rendering:geometricPrecision; text-rendering:geometricPrecision; image-rendering:optimizeQuality; fill-rule:evenodd; clip-rule:evenodd" xmlns:xlink="http://www.w3.org/1999/xlink">
<g><path style="opacity:0.929" fill="#000000" d="M 152.5,-0.5 C 158.833,-0.5 165.167,-0.5 171.5,-0.5C 177.835,1.50147 180.002,5.8348 178,12.5C 176.221,14.7635 173.887,16.0969 171,16.5C 165.874,15.4081 160.707,15.2414 155.5,16C 149.938,21.1626 150.271,25.8292 156.5,30C 177.273,31.4417 188.94,42.4417 191.5,63C 191.095,70.6353 188.595,77.4687 184,83.5C 175.969,91.1968 168.302,99.1968 161,107.5C 156.434,114.528 153.434,122.195 152,130.5C 151.333,151.5 151.333,172.5 152,193.5C 155.015,212.368 163.848,227.868 178.5,240C 186.667,246.167 194.833,252.333 203,258.5C 199.117,249.714 195.45,240.714 192,231.5C 190.454,206.881 201.954,193.548 226.5,191.5C 237.065,190.22 240.898,194.553 238,204.5C 237.097,205.701 235.931,206.535 234.5,207C 227.466,206.716 220.799,208.049 214.5,211C 208.952,215.976 206.786,222.142 208,229.5C 216.372,249.924 227.039,268.924 240,286.5C 252.263,300.097 266.763,310.597 283.5,318C 302.065,324.966 320.732,331.299 339.5,337C 337.333,334.167 335.167,331.333 333,328.5C 331.568,318.302 335.735,314.802 345.5,318C 361.927,338.85 378.593,359.516 395.5,380C 396.873,380.875 398.373,381.375 400,381.5C 403.662,380.42 407.162,378.92 410.5,377C 393.543,352.921 376.71,328.754 360,304.5C 358.18,296.331 361.347,292.498 369.5,293C 372.278,294.112 374.445,295.945 376,298.5C 394.777,326.276 413.944,353.776 433.5,381C 439.44,382.697 443.44,380.697 445.5,375C 426.53,343.036 406.364,311.869 385,281.5C 369.465,262.965 352.298,246.131 333.5,231C 309.844,214.504 285.844,198.504 261.5,183C 241.361,170.551 220.028,168.218 197.5,176C 182.778,178.228 172.944,172.394 168,158.5C 167.333,149.5 167.333,140.5 168,131.5C 169.662,124.51 172.662,118.176 177,112.5C 185.736,104.434 193.736,95.7674 201,86.5C 211.702,64.6874 208.702,45.0207 192,27.5C 189.829,23.3428 190.329,19.5094 193.5,16C 196.03,14.5783 198.697,14.245 201.5,15C 214.544,25.248 221.71,38.748 223,55.5C 224.742,72.868 220.408,88.5347 210,102.5C 203,109.5 196,116.5 189,123.5C 184.216,129.691 182.383,136.691 183.5,144.5C 183.396,148.947 183.896,153.28 185,157.5C 186.853,159.592 189.186,160.592 192,160.5C 220.062,151.416 246.562,154.582 271.5,170C 294.167,185 316.833,200 339.5,215C 371.631,239.457 398.465,268.624 420,302.5C 434.083,325.668 448.416,348.668 463,371.5C 462.493,382.392 457.326,390.558 447.5,396C 439.215,398.456 431.215,397.789 423.5,394C 422.333,392.833 421.167,391.667 420,390.5C 416.121,392.189 412.288,394.022 408.5,396C 400.89,398.372 393.557,397.706 386.5,394C 377.124,383.626 368.124,372.96 359.5,362C 348.667,358.167 337.833,354.333 327,350.5C 326.5,350.833 326,351.167 325.5,351.5C 330.085,368.252 332.919,385.252 334,402.5C 325.836,431.324 316.67,459.824 306.5,488C 319.556,488.077 332.556,488.744 345.5,490C 350.907,492.416 355.407,495.916 359,500.5C 360.337,505.128 359.17,508.795 355.5,511.5C 352.833,511.5 350.167,511.5 347.5,511.5C 345.454,508.634 342.787,506.467 339.5,505C 332.897,503.726 326.23,503.226 319.5,503.5C 319.47,506.852 318.137,509.518 315.5,511.5C 312.833,511.5 310.167,511.5 307.5,511.5C 301.67,505.193 294.337,502.526 285.5,503.5C 263.681,503.394 242.348,506.061 221.5,511.5C 218.167,511.5 214.833,511.5 211.5,511.5C 207.07,507.658 206.403,503.158 209.5,498C 224.847,493.464 240.514,490.464 256.5,489C 267.127,459.785 276.961,430.285 286,400.5C 284.94,387.694 282.774,375.028 279.5,362.5C 281.684,354.432 286.518,352.432 294,356.5C 297.854,369.768 300.687,383.268 302.5,397C 302.039,402.23 301.205,407.397 300,412.5C 291.692,437.757 283.192,462.924 274.5,488C 279.751,488.804 284.918,488.637 290,487.5C 298.667,461.5 307.333,435.5 316,409.5C 317.09,405.384 317.923,401.218 318.5,397C 315.256,379.449 311.756,361.949 308,344.5C 295.517,339.671 283.017,334.838 270.5,330C 254.702,321.76 240.702,311.093 228.5,298C 208.5,283 188.5,268 168.5,253C 150.247,237.664 139.414,218.164 136,194.5C 135.333,172.5 135.333,150.5 136,128.5C 137.633,118.566 140.966,109.233 146,100.5C 154.63,90.2016 163.63,80.2016 173,70.5C 177.452,60.8546 174.952,53.6879 165.5,49C 127.114,45.718 88.781,42.0514 50.5,38C 47.7352,35.0052 46.9019,31.5052 48,27.5C 48.5,25.6667 49.6667,24.5 51.5,24C 81.7432,16.9512 112.077,10.2846 142.5,4C 146.042,2.72452 149.375,1.22452 152.5,-0.5 Z M 130.5,22.5 C 132.167,22.5 133.833,22.5 135.5,22.5C 135.575,25.2062 135.908,27.8728 136.5,30.5C 127.86,29.5576 119.193,28.7242 110.5,28C 117.259,26.0894 123.926,24.2561 130.5,22.5 Z"/></g>
</svg>
