<?xml version="1.0" encoding="UTF-8"?>
<!DOCTYPE svg PUBLIC "-//W3C//DTD SVG 1.1//EN" "http://www.w3.org/Graphics/SVG/1.1/DTD/svg11.dtd">
<svg xmlns="http://www.w3.org/2000/svg" version="1.1" width="512px" height="512px" style="shape-rendering:geometricPrecision; text-rendering:geometricPrecision; image-rendering:optimizeQuality; fill-rule:evenodd; clip-rule:evenodd" xmlns:xlink="http://www.w3.org/1999/xlink">
<g><path style="opacity:0.994" fill="#5f525f" d="M 78.5,-0.5 C 85.1667,-0.5 91.8333,-0.5 98.5,-0.5C 104.349,1.09136 109.683,3.75802 114.5,7.5C 114.333,40.835 114.5,74.1683 115,107.5C 118.854,122.689 127.854,133.689 142,140.5C 144,145.167 144,149.833 142,154.5C 126.385,168.335 120.052,185.669 123,206.5C 131.965,262.13 163.798,296.63 218.5,310C 282.476,311.304 346.476,311.971 410.5,312C 429.738,331.401 448.404,351.234 466.5,371.5C 417.446,353.37 368.446,335.037 319.5,316.5C 306.425,326.248 293.092,335.581 279.5,344.5C 273.642,347.346 267.808,350.346 262,353.5C 261.667,366.5 261.333,379.5 261,392.5C 260.223,400.546 258.39,408.213 255.5,415.5C 240.672,402.188 230.672,385.854 225.5,366.5C 210.068,370.21 194.401,371.877 178.5,371.5C 173.16,370.719 167.66,370.052 162,369.5C 160.893,369.585 159.893,369.919 159,370.5C 152.435,384.733 145.602,398.733 138.5,412.5C 129.149,396.453 123.483,379.119 121.5,360.5C 43.0297,328.272 2.69633,269.606 0.5,184.5C 0.407929,144.053 6.90793,104.719 20,66.5C 26.3303,48.8349 34.997,32.5016 46,17.5C 55.2257,8.47321 66.059,2.47321 78.5,-0.5 Z"/></g>
<g><path style="opacity:0.994" fill="#4e3d4d" d="M 114.5,7.5 C 122.473,12.8218 127.806,20.1551 130.5,29.5C 131.425,42.8036 131.758,56.1369 131.5,69.5C 131.135,81.5473 131.635,93.5473 133,105.5C 134.355,110.38 136.855,114.547 140.5,118C 262.013,177.256 383.68,236.256 505.5,295C 511.755,299.948 512.088,305.282 506.5,311C 495.937,312.453 485.27,312.953 474.5,312.5C 384.535,268.269 294.035,224.936 203,182.5C 193.667,185.827 192.167,191.327 198.5,199C 277.703,237.101 357.036,274.935 436.5,312.5C 454.162,330.996 471.662,349.662 489,368.5C 490.623,373.696 488.79,376.696 483.5,377.5C 477.455,376.265 471.788,374.265 466.5,371.5C 448.404,351.234 429.738,331.401 410.5,312C 346.476,311.971 282.476,311.304 218.5,310C 163.798,296.63 131.965,262.13 123,206.5C 120.052,185.669 126.385,168.335 142,154.5C 144,149.833 144,145.167 142,140.5C 127.854,133.689 118.854,122.689 115,107.5C 114.5,74.1683 114.333,40.835 114.5,7.5 Z"/></g>
<g><path style="opacity:0.971" fill="#5f525f" d="M 130.5,29.5 C 151.657,29.7156 170.157,36.7156 186,50.5C 188.193,55.59 186.693,59.09 181.5,61C 164.801,63.7275 148.135,66.5609 131.5,69.5C 131.758,56.1369 131.425,42.8036 130.5,29.5 Z"/></g>
<g><path style="opacity:1" fill="#4e3d4d" d="M 84.5,34.5 C 89.635,33.4262 93.4683,35.0928 96,39.5C 96.6667,44.5 96.6667,49.5 96,54.5C 90.6667,62.5 85.3333,62.5 80,54.5C 79.3333,49.5 79.3333,44.5 80,39.5C 81.025,37.313 82.525,35.6464 84.5,34.5 Z"/></g>
<g><path style="opacity:0.995" fill="#5f525f" d="M 474.5,312.5 C 461.833,312.5 449.167,312.5 436.5,312.5C 357.036,274.935 277.703,237.101 198.5,199C 192.167,191.327 193.667,185.827 203,182.5C 294.035,224.936 384.535,268.269 474.5,312.5 Z"/></g>
<g><path style="opacity:0.961" fill="#4d3c4c" d="M 279.5,344.5 C 279.891,363.534 279.391,382.534 278,401.5C 271.637,426.586 264.47,451.419 256.5,476C 275.21,475.216 285.877,484.049 288.5,502.5C 288.079,506.24 286.412,509.24 283.5,511.5C 280.5,511.5 277.5,511.5 274.5,511.5C 270.811,508.45 268.978,504.45 269,499.5C 267.773,497.274 265.939,495.774 263.5,495C 241.833,494.333 220.167,494.333 198.5,495C 193.886,497.39 191.719,501.223 192,506.5C 190.975,508.687 189.475,510.354 187.5,511.5C 184.833,511.5 182.167,511.5 179.5,511.5C 177.525,510.354 176.025,508.687 175,506.5C 173.626,491.405 180.126,481.571 194.5,477C 208.829,476.5 223.163,476.333 237.5,476.5C 243.345,456.122 249.345,435.789 255.5,415.5C 258.39,408.213 260.223,400.546 261,392.5C 261.333,379.5 261.667,366.5 262,353.5C 267.808,350.346 273.642,347.346 279.5,344.5 Z"/></g>
<g><path style="opacity:0.964" fill="#4e3c4d" d="M 178.5,371.5 C 162.248,406.505 145.581,441.338 128.5,476C 148.916,476.745 158.416,487.245 157,507.5C 155.624,508.705 154.458,510.038 153.5,511.5C 150.5,511.5 147.5,511.5 144.5,511.5C 140.788,508.077 138.621,503.743 138,498.5C 136.786,496.951 135.286,495.785 133.5,495C 111.833,494.333 90.1667,494.333 68.5,495C 66.714,495.785 65.214,496.951 64,498.5C 62.8755,501.784 61.8755,505.117 61,508.5C 59.8549,509.636 58.6883,510.636 57.5,511.5C 54.5,511.5 51.5,511.5 48.5,511.5C 41.7516,498.868 44.4183,488.368 56.5,480C 59.0891,478.803 61.7558,477.803 64.5,477C 79.178,476.833 93.8447,476.333 108.5,475.5C 118.506,454.47 128.506,433.47 138.5,412.5C 145.602,398.733 152.435,384.733 159,370.5C 159.893,369.919 160.893,369.585 162,369.5C 167.66,370.052 173.16,370.719 178.5,371.5 Z"/></g>
</svg>
