<?xml version="1.0" encoding="UTF-8"?>
<!DOCTYPE svg PUBLIC "-//W3C//DTD SVG 1.1//EN" "http://www.w3.org/Graphics/SVG/1.1/DTD/svg11.dtd">
<svg xmlns="http://www.w3.org/2000/svg" version="1.1" width="512px" height="512px" style="shape-rendering:geometricPrecision; text-rendering:geometricPrecision; image-rendering:optimizeQuality; fill-rule:evenodd; clip-rule:evenodd" xmlns:xlink="http://www.w3.org/1999/xlink">
<g><path style="opacity:0.996" fill="#f1ede8" d="M 461.5,294.5 C 459.545,293.677 457.545,293.51 455.5,294C 450.291,298.878 444.791,303.378 439,307.5C 437.686,311.181 438.853,313.514 442.5,314.5C 451.046,310.947 457.713,305.28 462.5,297.5C 469.74,300.329 472.573,305.662 471,313.5C 469.303,319.896 466.303,325.562 462,330.5C 447.992,343.842 434.659,357.842 422,372.5C 391.38,405.231 353.88,425.565 309.5,433.5C 300.505,434.233 291.505,434.899 282.5,435.5C 255.484,436.721 228.817,434.054 202.5,427.5C 192.305,423.656 181.972,419.989 171.5,416.5C 90.9339,377.974 69.1006,317.974 106,236.5C 113.606,223.897 121.606,211.564 130,199.5C 136.083,178.463 135.75,157.463 129,136.5C 127.12,130.357 124.953,124.357 122.5,118.5C 130.506,117.322 134.34,112.656 134,104.5C 133.535,103.069 132.701,101.903 131.5,101C 119.914,94.398 112.414,84.5646 109,71.5C 107.362,66.1294 106.195,60.7961 105.5,55.5C 108.7,30.7987 122.366,15.2987 146.5,9C 195.714,1.36728 221.38,22.5339 223.5,72.5C 222.934,77.1594 222.434,81.8261 222,86.5C 217.158,106.868 212.158,127.201 207,147.5C 203.849,159.332 204.182,170.999 208,182.5C 218.431,202.592 234.264,216.758 255.5,225C 297.09,241.197 339.423,255.197 382.5,267C 393.075,269.615 403.741,271.782 414.5,273.5C 426.197,270.768 437.53,266.934 448.5,262C 460.264,259.442 466.597,264.108 467.5,276C 466.996,282.678 464.996,288.845 461.5,294.5 Z"/></g>
<g><path style="opacity:1" fill="#543635" d="M 154.5,47.5 C 163.827,47.0191 166.994,51.3525 164,60.5C 159.181,64.9191 155.181,64.2524 152,58.5C 150.812,54.2586 151.645,50.5919 154.5,47.5 Z"/></g>
<g><path style="opacity:1" fill="#fe6a42" d="M 105.5,55.5 C 106.195,60.7961 107.362,66.1294 109,71.5C 112.414,84.5646 119.914,94.398 131.5,101C 132.701,101.903 133.535,103.069 134,104.5C 134.34,112.656 130.506,117.322 122.5,118.5C 101.838,120.697 81.1709,120.864 60.5,119C 51.2201,117.442 43.0534,113.609 36,107.5C 32.1236,100.677 32.9569,94.5099 38.5,89C 60.8864,77.8068 83.2198,66.6401 105.5,55.5 Z"/></g>
<g><path style="opacity:1" fill="#de4c2f" d="M 87.5,78.5 C 92.2973,78.1211 96.964,78.6211 101.5,80C 102.78,82.1317 102.78,84.2984 101.5,86.5C 96.533,87.6623 91.533,87.8289 86.5,87C 85.0406,83.9295 85.3739,81.0961 87.5,78.5 Z"/></g>
<g><path style="opacity:1" fill="#c0b9b0" d="M 264.5,268.5 C 297.718,268.535 329.718,274.702 360.5,287C 371.277,290.961 380.111,297.461 387,306.5C 389.796,312.616 388.63,317.782 383.5,322C 380.291,323.092 377.124,324.259 374,325.5C 376.721,338.334 372.887,348.834 362.5,357C 357.714,359.471 353.214,362.304 349,365.5C 344.227,379.606 334.727,389.106 320.5,394C 305.907,399.014 290.907,400.68 275.5,399C 272.068,396.633 271.735,393.966 274.5,391C 294.202,392.887 312.536,388.887 329.5,379C 333.062,375.942 336.062,372.442 338.5,368.5C 338.167,368.167 337.833,367.833 337.5,367.5C 332.3,369.201 326.966,370.368 321.5,371C 310.833,371.667 300.167,371.667 289.5,371C 286.083,368.679 285.75,366.012 288.5,363C 304.98,363.24 321.313,361.907 337.5,359C 347.517,356.245 356.017,351.079 363,343.5C 367.594,337.679 367.428,332.179 362.5,327C 353.167,326.667 343.833,326.333 334.5,326C 331.068,323.633 330.735,320.966 333.5,318C 348.96,318.068 364.293,316.902 379.5,314.5C 378.681,310.147 376.348,306.647 372.5,304C 355.715,294.068 337.715,287.068 318.5,283C 301.363,279.374 284.03,277.374 266.5,277C 263.395,274.746 262.728,271.913 264.5,268.5 Z"/></g>
<g><path style="opacity:0.99" fill="#c0b9b0" d="M 461.5,294.5 C 462.11,295.391 462.443,296.391 462.5,297.5C 457.713,305.28 451.046,310.947 442.5,314.5C 438.853,313.514 437.686,311.181 439,307.5C 444.791,303.378 450.291,298.878 455.5,294C 457.545,293.51 459.545,293.677 461.5,294.5 Z"/></g>
<g><path style="opacity:1" fill="#c0b9b0" d="M 186.5,340.5 C 188.792,340.244 190.959,340.577 193,341.5C 196.021,357.522 205.188,368.355 220.5,374C 225.126,375.547 229.793,376.88 234.5,378C 236.597,382.389 235.264,384.889 230.5,385.5C 206.342,381.672 191.009,368.006 184.5,344.5C 184.752,342.927 185.418,341.594 186.5,340.5 Z"/></g>
<g><path style="opacity:0.954" fill="#fe673f" d="M 171.5,416.5 C 181.972,419.989 192.305,423.656 202.5,427.5C 193.257,441.644 183.757,455.644 174,469.5C 172,473.167 172,476.833 174,480.5C 182.361,484.695 188.528,491.028 192.5,499.5C 177.515,500.499 162.515,500.833 147.5,500.5C 150.1,496.065 153.6,492.398 158,489.5C 158.667,487.5 158.667,485.5 158,483.5C 154.543,481.993 151.376,482.493 148.5,485C 142.989,488.876 139.656,494.043 138.5,500.5C 123.818,500.833 109.152,500.499 94.5,499.5C 101.642,491.546 110.308,485.713 120.5,482C 126.772,479.798 133.105,477.798 139.5,476C 143.579,473.925 147.079,471.092 150,467.5C 157.66,450.68 164.827,433.68 171.5,416.5 Z"/></g>
<g><path style="opacity:0.953" fill="#fe6840" d="M 309.5,433.5 C 308.757,443.686 307.757,453.853 306.5,464C 307.425,474.015 312.258,481.515 321,486.5C 323.694,490.554 325.861,494.888 327.5,499.5C 312.848,500.499 298.182,500.833 283.5,500.5C 286.434,495.731 290.267,491.731 295,488.5C 296.002,484.837 294.668,482.504 291,481.5C 282.39,485.267 276.89,491.601 274.5,500.5C 263.828,500.667 253.161,500.5 242.5,500C 251.736,490.053 262.402,482.053 274.5,476C 280.03,471.106 283.03,464.939 283.5,457.5C 282.607,450.196 282.274,442.863 282.5,435.5C 291.505,434.899 300.505,434.233 309.5,433.5 Z"/></g>
<g><path style="opacity:1" fill="#de4c2f" d="M 147.5,500.5 C 144.5,500.5 141.5,500.5 138.5,500.5C 139.656,494.043 142.989,488.876 148.5,485C 151.376,482.493 154.543,481.993 158,483.5C 158.667,485.5 158.667,487.5 158,489.5C 153.6,492.398 150.1,496.065 147.5,500.5 Z"/></g>
<g><path style="opacity:1" fill="#de4c2f" d="M 283.5,500.5 C 280.5,500.5 277.5,500.5 274.5,500.5C 276.89,491.601 282.39,485.267 291,481.5C 294.668,482.504 296.002,484.837 295,488.5C 290.267,491.731 286.434,495.731 283.5,500.5 Z"/></g>
</svg>
