<?xml version="1.0" encoding="UTF-8"?>
<!DOCTYPE svg PUBLIC "-//W3C//DTD SVG 1.1//EN" "http://www.w3.org/Graphics/SVG/1.1/DTD/svg11.dtd">
<svg xmlns="http://www.w3.org/2000/svg" version="1.1" width="512px" height="512px" style="shape-rendering:geometricPrecision; text-rendering:geometricPrecision; image-rendering:optimizeQuality; fill-rule:evenodd; clip-rule:evenodd" xmlns:xlink="http://www.w3.org/1999/xlink">
<g><path style="opacity:0.924" fill="#331111" d="M 511.5,436.5 C 511.5,439.5 511.5,442.5 511.5,445.5C 509.203,449.287 505.869,451.787 501.5,453C 494.563,454.173 487.563,454.84 480.5,455C 486,457.833 490.167,462 493,467.5C 494.932,477.805 490.766,483.972 480.5,486C 469.611,487.322 459.277,485.489 449.5,480.5C 449.167,480.833 448.833,481.167 448.5,481.5C 452.975,492.222 449.475,498.222 438,499.5C 424.394,497.446 412.56,491.779 402.5,482.5C 402.167,482.667 401.833,482.833 401.5,483C 405.664,495.843 400.998,500.843 387.5,498C 383.888,496.861 380.554,495.194 377.5,493C 358.977,475.124 345.643,453.957 337.5,429.5C 307.952,434.04 278.619,433.206 249.5,427C 237.339,435.581 225.006,443.914 212.5,452C 206.07,455.549 199.404,458.549 192.5,461C 192.24,469.96 190.073,478.46 186,486.5C 180.789,493.111 174.789,494.111 168,489.5C 167.833,488 167.667,486.5 167.5,485C 169.295,476.969 168.795,469.136 166,461.5C 163.362,458.683 160.362,456.35 157,454.5C 156.771,463.033 152.938,469.2 145.5,473C 141.507,473.753 138.674,472.253 137,468.5C 136.783,463.447 136.283,458.447 135.5,453.5C 130.592,453.404 125.592,453.237 120.5,453C 116.443,451.053 114.943,447.886 116,443.5C 117.643,441.023 119.476,438.69 121.5,436.5C 117.875,434.807 114.042,433.807 110,433.5C 101.873,435.051 93.7063,435.884 85.5,436C 79.6555,432.596 78.9889,428.263 83.5,423C 76.0378,419.629 75.0378,414.963 80.5,409C 84.2316,406.867 88.2316,405.534 92.5,405C 105.27,403.304 117.603,404.804 129.5,409.5C 137.404,397.925 146.071,386.925 155.5,376.5C 146.768,367.378 139.768,357.044 134.5,345.5C 125.272,336.193 115.938,327.026 106.5,318C 81.0619,300.313 53.0619,293.979 22.5,299C 18.2002,302.298 14.2002,305.965 10.5,310C 7.86044,310.839 5.52711,310.339 3.5,308.5C 1.9618,305.852 0.628469,303.185 -0.5,300.5C -0.5,294.167 -0.5,287.833 -0.5,281.5C 2.71239,270.263 9.04572,261.096 18.5,254C 21.1274,252.103 23.9607,250.603 27,249.5C 32.5088,223.657 48.0088,207.157 73.5,200C 101.219,193.673 128.219,196.006 154.5,207C 164.855,210.677 174.855,215.177 184.5,220.5C 185.086,220.291 185.586,219.957 186,219.5C 192.064,205.779 194.064,191.446 192,176.5C 190.464,167.715 189.298,158.882 188.5,150C 188.728,146.131 189.228,142.298 190,138.5C 195.738,120.619 201.072,102.619 206,84.5C 209.882,65.8742 213.549,47.2076 217,28.5C 219.452,16.0416 226.952,10.5416 239.5,12C 246.032,13.54 251.199,17.04 255,22.5C 261.427,37.2553 263.76,52.5887 262,68.5C 268.738,60.2341 276.904,58.4008 286.5,63C 290.366,66.2521 292.533,70.4187 293,75.5C 293.667,81.8333 293.667,88.1667 293,94.5C 291.446,103.704 289.446,112.704 287,121.5C 291.498,116.587 296.831,112.92 303,110.5C 303.213,99.8831 308.046,92.3831 317.5,88C 368.562,76.7587 416.895,58.4254 462.5,33C 469.196,29.8588 476.196,28.8588 483.5,30C 488.731,32.2315 492.231,36.0648 494,41.5C 498.288,64.6354 491.788,84.1354 474.5,100C 497.557,95.3858 507.39,104.886 504,128.5C 497.029,148.136 483.529,160.969 463.5,167C 472.168,167.217 480.168,169.55 487.5,174C 496.303,183.62 496.803,193.787 489,204.5C 482.654,211.588 475.154,217.088 466.5,221C 459.169,223.556 451.835,225.889 444.5,228C 460.785,231.583 467.285,241.416 464,257.5C 458.51,268.645 449.676,275.812 437.5,279C 422.644,281.841 407.644,283.174 392.5,283C 401.276,286.776 407.776,292.942 412,301.5C 415.823,314.352 411.656,323.519 399.5,329C 391.257,331.88 382.757,333.38 374,333.5C 364.771,332.782 355.604,331.949 346.5,331C 362.23,346.022 379.23,359.355 397.5,371C 429.132,390.986 462.132,408.653 496.5,424C 502.592,426.931 507.592,431.098 511.5,436.5 Z"/></g>
<g><path style="opacity:1" fill="#983f32" d="M 288.5,75.5 C 282.527,114.96 261.527,143.127 225.5,160C 215.966,164.34 205.966,166.84 195.5,167.5C 193.154,156.905 192.987,146.239 195,135.5C 206.292,104 214.292,71.667 219,38.5C 219.462,29.7517 222.962,22.585 229.5,17C 242.92,14.7352 251.42,20.2352 255,33.5C 259.391,56.2574 257.891,78.5907 250.5,100.5C 251.833,100.5 253.167,100.5 254.5,100.5C 256.642,93.2653 258.475,85.9319 260,78.5C 263.554,71.4386 269.054,66.7719 276.5,64.5C 283.395,65.0631 287.395,68.7298 288.5,75.5 Z"/></g>
<g><path style="opacity:1" fill="#ac4936" d="M 480.5,34.5 C 478.459,52.0748 470.126,65.9082 455.5,76C 446.316,82.0947 436.649,87.428 426.5,92C 410.068,98.6095 393.401,104.609 376.5,110C 360.094,117.184 358.261,127.017 371,139.5C 374.983,146.395 373.483,151.895 366.5,156C 362.007,158.079 357.674,160.412 353.5,163C 348.441,166.612 346.274,171.446 347,177.5C 349.034,181.52 351.034,185.52 353,189.5C 353.457,195.738 350.624,199.905 344.5,202C 335.771,203.613 328.271,207.447 322,213.5C 320.543,216.366 320.21,219.366 321,222.5C 323.082,227.33 324.582,232.33 325.5,237.5C 325.237,240.028 324.404,242.361 323,244.5C 316.558,248.429 309.725,251.596 302.5,254C 299.793,255.864 298.959,258.364 300,261.5C 301.944,265.11 304.277,268.443 307,271.5C 309.385,275.457 308.552,278.624 304.5,281C 292.676,284.118 280.676,286.451 268.5,288C 264.262,290.172 263.428,293.338 266,297.5C 271.923,302.215 278.423,306.049 285.5,309C 302.414,315.471 319.414,321.637 336.5,327.5C 360.016,350.443 386.016,370.276 414.5,387C 429.274,395.718 444.274,403.884 459.5,411.5C 457.801,419.035 453.134,423.869 445.5,426C 441.747,426.091 438.08,426.258 434.5,426.5C 436.57,431.79 435.57,436.29 431.5,440C 422.774,443.027 414.941,441.527 408,435.5C 409.105,444.986 404.939,449.653 395.5,449.5C 388.035,449.184 381.535,446.517 376,441.5C 375.667,444.5 375.333,447.5 375,450.5C 374.208,453.106 372.708,455.106 370.5,456.5C 370.167,456.5 369.833,456.5 369.5,456.5C 362.416,444.919 360.749,432.586 364.5,419.5C 369.478,417.009 374.145,414.009 378.5,410.5C 379.95,409.15 380.617,407.484 380.5,405.5C 379.448,405.351 378.448,405.517 377.5,406C 373.4,410.603 368.4,413.769 362.5,415.5C 335.256,417.696 310.589,410.863 288.5,395C 284.779,391.279 281.113,387.613 277.5,384C 273.961,382.496 270.295,382.163 266.5,383C 251.127,396.708 235.461,410.042 219.5,423C 210.672,429.248 201.672,435.248 192.5,441C 189.691,442.741 186.691,443.908 183.5,444.5C 179.375,438.541 174.375,433.374 168.5,429C 178.389,409.785 189.889,391.619 203,374.5C 203.783,372.681 203.283,371.348 201.5,370.5C 200.16,371.867 198.827,373.2 197.5,374.5C 177.543,363.209 161.876,347.543 150.5,327.5C 150.957,326.702 151.624,326.369 152.5,326.5C 164.449,329.386 169.615,324.719 168,312.5C 167.127,309.382 165.961,306.382 164.5,303.5C 168.38,303.412 172.38,303.246 176.5,303C 177.579,302.044 178.745,301.211 180,300.5C 182.797,292.945 181.63,286.111 176.5,280C 190.835,282.008 196.335,276.174 193,262.5C 190.552,258.385 187.719,254.552 184.5,251C 189.723,250.98 194.723,249.98 199.5,248C 201.446,245.325 203.113,242.492 204.5,239.5C 244.841,223.987 275.341,197.32 296,159.5C 303.506,142.305 307.506,124.305 308,105.5C 310.573,97.2614 316.073,92.0948 324.5,90C 355.851,83.5499 386.184,73.8833 415.5,61C 432.346,52.4105 449.346,44.0771 466.5,36C 471.149,33.6654 475.816,33.1654 480.5,34.5 Z"/></g>
<g><path style="opacity:1" fill="#983f32" d="M 480.5,34.5 C 486.937,35.7785 490.437,39.7785 491,46.5C 492.153,74.3694 480.32,94.536 455.5,107C 447.959,109.801 440.293,112.134 432.5,114C 431.663,115.011 431.33,116.178 431.5,117.5C 434.839,117.11 438.173,116.61 441.5,116C 453.216,111.206 465.216,107.206 477.5,104C 495.49,100.656 502.99,108.156 500,126.5C 495.533,139.634 487.367,149.801 475.5,157C 456.193,165.959 435.859,170.459 414.5,170.5C 414.5,171.5 414.5,172.5 414.5,173.5C 427.988,172.655 441.488,171.988 455,171.5C 466.258,170.066 476.592,172.4 486,178.5C 491.058,187.205 490.391,195.538 484,203.5C 475.216,212.311 464.716,218.144 452.5,221C 431.672,225.946 410.672,226.779 389.5,223.5C 389.5,224.833 389.5,226.167 389.5,227.5C 405.174,228.452 420.84,229.618 436.5,231C 442.905,231.802 448.905,233.802 454.5,237C 462.426,246.062 462.426,255.228 454.5,264.5C 450.85,268.328 446.517,271.162 441.5,273C 423.511,278.101 405.178,279.768 386.5,278C 373.223,275.185 359.89,272.685 346.5,270.5C 346.36,272.124 347.027,273.29 348.5,274C 365.957,276.486 382.291,282.152 397.5,291C 407.687,297.504 410.854,306.337 407,317.5C 401.862,323.486 395.362,326.986 387.5,328C 370.3,329.322 353.3,328.155 336.5,324.5C 336.5,325.5 336.5,326.5 336.5,327.5C 319.414,321.637 302.414,315.471 285.5,309C 278.423,306.049 271.923,302.215 266,297.5C 263.428,293.338 264.262,290.172 268.5,288C 280.676,286.451 292.676,284.118 304.5,281C 308.552,278.624 309.385,275.457 307,271.5C 304.277,268.443 301.944,265.11 300,261.5C 298.959,258.364 299.793,255.864 302.5,254C 309.725,251.596 316.558,248.429 323,244.5C 324.404,242.361 325.237,240.028 325.5,237.5C 324.582,232.33 323.082,227.33 321,222.5C 320.21,219.366 320.543,216.366 322,213.5C 328.271,207.447 335.771,203.613 344.5,202C 350.624,199.905 353.457,195.738 353,189.5C 351.034,185.52 349.034,181.52 347,177.5C 346.274,171.446 348.441,166.612 353.5,163C 357.674,160.412 362.007,158.079 366.5,156C 373.483,151.895 374.983,146.395 371,139.5C 358.261,127.017 360.094,117.184 376.5,110C 393.401,104.609 410.068,98.6095 426.5,92C 436.649,87.428 446.316,82.0947 455.5,76C 470.126,65.9082 478.459,52.0748 480.5,34.5 Z"/></g>
<g><path style="opacity:1" fill="#e3bfb8" d="M 404.5,75.5 C 409.123,74.4082 410.956,76.0748 410,80.5C 407.237,82.9702 404.07,83.8035 400.5,83C 399.483,81.9505 399.316,80.7839 400,79.5C 401.397,77.9297 402.897,76.5964 404.5,75.5 Z"/></g>
<g><path style="opacity:1" fill="#e4c3bd" d="M 384.5,82.5 C 386.527,82.3379 388.527,82.5045 390.5,83C 391.517,84.0495 391.684,85.2161 391,86.5C 375.244,96.3967 358.078,101.563 339.5,102C 336.833,100.333 336.833,98.6667 339.5,97C 354.514,91.8436 369.514,87.0103 384.5,82.5 Z"/></g>
<g><path style="opacity:1" fill="#83362f" d="M 288.5,75.5 C 289.136,100.637 283.136,124.304 270.5,146.5C 271.363,148.872 272.529,148.872 274,146.5C 278.682,136.65 285.182,128.15 293.5,121C 296.286,118.94 299.286,117.44 302.5,116.5C 301.293,140.291 293.459,161.624 279,180.5C 259.118,205.702 234.118,224.035 204,235.5C 199.609,230.605 194.775,226.272 189.5,222.5C 192.778,215.498 194.945,208.164 196,200.5C 196.74,189.473 196.574,178.473 195.5,167.5C 205.966,166.84 215.966,164.34 225.5,160C 261.527,143.127 282.527,114.96 288.5,75.5 Z"/></g>
<g><path style="opacity:1" fill="#f5f0ee" d="M 141.5,325.5 C 141.66,327.199 141.494,328.866 141,330.5C 130.96,308.793 114.793,293.626 92.5,285C 85.2974,282.321 77.9641,280.154 70.5,278.5C 65.0292,275.597 59.6959,272.43 54.5,269C 50.1667,263.333 45.8333,257.667 41.5,252C 38.4642,249.994 35.1309,249.16 31.5,249.5C 36.681,225.816 51.0143,210.649 74.5,204C 97.8814,198.433 120.881,199.766 143.5,208C 159.023,213.172 174.023,219.505 188.5,227C 191.939,229.139 195.106,231.639 198,234.5C 200,237.833 200,241.167 198,244.5C 190.779,247.772 183.279,248.438 175.5,246.5C 175.351,247.552 175.517,248.552 176,249.5C 181,253.167 185.333,257.5 189,262.5C 191.161,266.848 190.995,271.015 188.5,275C 181.719,276.146 175.219,275.313 169,272.5C 167.054,272.763 166.388,273.763 167,275.5C 172.983,279.976 176.816,285.81 178.5,293C 177.306,299.149 173.639,301.149 167.5,299C 163.553,297.516 159.553,296.35 155.5,295.5C 158.557,300.61 161.391,305.943 164,311.5C 167.183,320.969 164.016,324.803 154.5,323C 149.761,320.757 145.428,317.923 141.5,314.5C 140.28,314.887 139.613,315.72 139.5,317C 140.687,319.724 141.353,322.557 141.5,325.5 Z"/></g>
<g><path style="opacity:1" fill="#351516" d="M 78.5,231.5 C 87.5146,230.683 91.6813,234.683 91,243.5C 88.3674,248.732 84.2008,250.565 78.5,249C 73.8451,246.103 72.3451,241.937 74,236.5C 75.7073,234.963 77.2073,233.296 78.5,231.5 Z"/></g>
<g><path style="opacity:1" fill="#e4dcdb" d="M 84.5,235.5 C 88.35,235.701 89.35,237.534 87.5,241C 82.7217,241.073 81.7217,239.24 84.5,235.5 Z"/></g>
<g><path style="opacity:1" fill="#fccf54" d="M 53.5,273.5 C 36.6779,273.996 22.5112,280.33 11,292.5C 8.8703,295.767 7.03697,299.1 5.5,302.5C 0.39821,282.847 6.39821,267.347 23.5,256C 27.8942,252.741 32.5609,252.075 37.5,254C 42.9505,260.399 48.2838,266.899 53.5,273.5 Z"/></g>
<g><path style="opacity:1" fill="#ffefc4" d="M 22.5,260.5 C 23.8333,260.5 25.1667,260.5 26.5,260.5C 26.6495,261.552 26.4828,262.552 26,263.5C 22.3333,266.5 18.6667,269.5 15,272.5C 13.2443,270.941 13.2443,269.274 15,267.5C 17.3959,264.933 19.8959,262.6 22.5,260.5 Z"/></g>
<g><path style="opacity:1" fill="#f6b649" d="M 53.5,273.5 C 60.2062,276.607 66.3728,280.607 72,285.5C 72.7517,288.894 72.5851,292.227 71.5,295.5C 70.8333,295.833 70.1667,296.167 69.5,296.5C 53.5426,292.488 37.5426,291.654 21.5,294C 23.596,292.234 25.9293,290.901 28.5,290C 36.8944,289.871 45.2277,289.204 53.5,288C 56.2146,287.125 57.5479,285.292 57.5,282.5C 54.9514,283.509 52.2848,284.342 49.5,285C 41.4233,285.098 33.4233,285.765 25.5,287C 21.5598,288.886 18.0598,291.386 15,294.5C 12.8499,298.63 10.5166,302.63 8,306.5C 6.51869,305.529 5.68535,304.196 5.5,302.5C 7.03697,299.1 8.8703,295.767 11,292.5C 22.5112,280.33 36.6779,273.996 53.5,273.5 Z"/></g>
<g><path style="opacity:1" fill="#ddd9d7" d="M 70.5,278.5 C 77.9641,280.154 85.2974,282.321 92.5,285C 114.793,293.626 130.96,308.793 141,330.5C 141.494,328.866 141.66,327.199 141.5,325.5C 143.364,330.804 142.364,335.637 138.5,340C 137.167,340.667 135.833,340.667 134.5,340C 124.383,327.546 112.717,316.879 99.5,308C 92.1836,303.841 84.517,300.508 76.5,298C 76.3772,293.948 76.2105,289.781 76,285.5C 74.3335,283.004 72.5002,280.671 70.5,278.5 Z"/></g>
<g><path style="opacity:1" fill="#973f32" d="M 152.5,326.5 C 151.624,326.369 150.957,326.702 150.5,327.5C 161.876,347.543 177.543,363.209 197.5,374.5C 193.917,380.599 190.083,386.599 186,392.5C 185.439,393.022 184.772,393.355 184,393.5C 164.717,381.446 149.883,365.279 139.5,345C 141.743,342.426 143.576,339.592 145,336.5C 145.333,331.833 145.667,327.167 146,322.5C 148.314,323.733 150.481,325.067 152.5,326.5 Z"/></g>
<g><path style="opacity:1" fill="#82362f" d="M 154.5,421.5 C 155.822,421.67 156.989,421.337 158,420.5C 162.734,408.238 160.234,397.905 150.5,389.5C 153.478,386.187 156.478,382.853 159.5,379.5C 166.733,386.236 174.4,392.403 182.5,398C 176.08,406.834 170.413,416.167 165.5,426C 161.628,425.066 157.961,423.566 154.5,421.5 Z"/></g>
<g><path style="opacity:1" fill="#973f32" d="M 362.5,415.5 C 350.188,422.466 336.855,426.299 322.5,427C 299.256,429.801 276.256,428.468 253.5,423C 261.333,416.5 269.167,410 277,403.5C 277.483,402.552 277.649,401.552 277.5,400.5C 275.692,400.491 274.025,400.991 272.5,402C 249.935,422.286 225.268,439.619 198.5,454C 196.162,454.837 193.828,455.67 191.5,456.5C 190.833,456.167 190.167,455.833 189.5,455.5C 187.742,451.646 185.742,447.979 183.5,444.5C 186.691,443.908 189.691,442.741 192.5,441C 201.672,435.248 210.672,429.248 219.5,423C 235.461,410.042 251.127,396.708 266.5,383C 270.295,382.163 273.961,382.496 277.5,384C 281.113,387.613 284.779,391.279 288.5,395C 310.589,410.863 335.256,417.696 362.5,415.5 Z"/></g>
<g><path style="opacity:1" fill="#973f32" d="M 150.5,389.5 C 160.234,397.905 162.734,408.238 158,420.5C 156.989,421.337 155.822,421.67 154.5,421.5C 146.448,420.75 139.448,417.75 133.5,412.5C 138.444,404.27 144.111,396.603 150.5,389.5 Z"/></g>
<g><path style="opacity:1" fill="#e3c1ba" d="M 201.5,390.5 C 202.5,390.5 203.5,390.5 204.5,390.5C 201.711,399.132 197.045,406.632 190.5,413C 189.552,413.483 188.552,413.649 187.5,413.5C 188.22,408.723 190.053,404.39 193,400.5C 195.669,397 198.502,393.667 201.5,390.5 Z"/></g>
<g><path style="opacity:1" fill="#f5b549" d="M 118.5,421.5 C 116.435,421.483 114.435,421.15 112.5,420.5C 112.389,419.883 112.056,419.383 111.5,419C 101.833,418.667 92.1667,418.333 82.5,418C 81.0652,415.733 81.3985,413.733 83.5,412C 100.965,406.052 117.632,407.719 133.5,417C 127.923,416.811 122.923,418.311 118.5,421.5 Z"/></g>
<g><path style="opacity:1" fill="#f5efed" d="M 459.5,411.5 C 474.591,417.545 488.925,424.878 502.5,433.5C 501.878,435.335 500.544,436.502 498.5,437C 487.047,439.159 475.714,438.493 464.5,435C 460.5,434.333 456.5,434.333 452.5,435C 449.852,436.633 448.519,438.967 448.5,442C 449.8,446.332 451.633,450.499 454,454.5C 454.494,456.134 454.66,457.801 454.5,459.5C 451.482,459.665 448.482,459.498 445.5,459C 438.451,456.428 431.284,454.261 424,452.5C 421.849,452.643 420.182,453.643 419,455.5C 417.873,458.377 417.206,461.377 417,464.5C 414.599,465.602 412.099,465.769 409.5,465C 401.5,460.667 393.5,456.333 385.5,452C 378.8,450.699 375.967,453.532 377,460.5C 373.557,461.598 371.391,460.265 370.5,456.5C 372.708,455.106 374.208,453.106 375,450.5C 375.333,447.5 375.667,444.5 376,441.5C 381.535,446.517 388.035,449.184 395.5,449.5C 404.939,449.653 409.105,444.986 408,435.5C 414.941,441.527 422.774,443.027 431.5,440C 435.57,436.29 436.57,431.79 434.5,426.5C 438.08,426.258 441.747,426.091 445.5,426C 453.134,423.869 457.801,419.035 459.5,411.5 Z"/></g>
<g><path style="opacity:1" fill="#973f32" d="M 364.5,419.5 C 360.749,432.586 362.416,444.919 369.5,456.5C 367.262,457.537 364.929,457.703 362.5,457C 358.996,455.746 355.663,454.246 352.5,452.5C 348.058,444.607 344.392,436.274 341.5,427.5C 349.449,425.628 357.116,422.961 364.5,419.5 Z"/></g>
<g><path style="opacity:1" fill="#ef9c3e" d="M 112.5,420.5 C 114.435,421.15 116.435,421.483 118.5,421.5C 117.701,424.43 117.368,427.43 117.5,430.5C 108.019,428.892 98.6854,429.558 89.5,432.5C 85.9875,432.493 84.4875,430.827 85,427.5C 87.087,426.206 89.2537,425.039 91.5,424C 98.8683,423.38 105.868,422.214 112.5,420.5 Z"/></g>
<g><path style="opacity:1" fill="#facd53" d="M 177.5,487.5 C 176.761,487.631 176.094,487.464 175.5,487C 181.857,463.508 173.857,447.341 151.5,438.5C 142.417,435.46 133.083,433.294 123.5,432C 119.402,428.351 119.735,425.018 124.5,422C 145.117,420.204 162.617,426.704 177,441.5C 187.664,454.766 189.331,469.099 182,484.5C 180.871,486.141 179.371,487.141 177.5,487.5 Z"/></g>
<g><path style="opacity:1" fill="#ddd9d7" d="M 502.5,433.5 C 507.106,435.819 508.606,439.485 507,444.5C 503.845,447.667 500.012,449.501 495.5,450C 488.444,450.788 481.444,450.455 474.5,449C 468.991,447.073 463.658,444.906 458.5,442.5C 458.286,444.144 458.62,445.644 459.5,447C 470.116,452.283 479.616,459.116 488,467.5C 490.587,475.787 487.421,480.62 478.5,482C 470.079,483.229 462.079,481.895 454.5,478C 446.997,474.418 439.997,470.085 433.5,465C 432.207,464.51 430.873,464.343 429.5,464.5C 432.014,468.53 435.181,472.196 439,475.5C 441.583,478.997 443.916,482.664 446,486.5C 446.585,492.907 443.585,495.574 437,494.5C 430.007,493.947 423.507,491.78 417.5,488C 407.431,481.289 398.098,473.623 389.5,465C 388.552,464.517 387.552,464.351 386.5,464.5C 386.351,465.552 386.517,466.552 387,467.5C 392.698,473.897 396.531,481.23 398.5,489.5C 398.351,491.32 397.684,492.82 396.5,494C 390.097,494.972 384.431,493.306 379.5,489C 368.164,478.466 359.164,466.299 352.5,452.5C 355.663,454.246 358.996,455.746 362.5,457C 364.929,457.703 367.262,457.537 369.5,456.5C 369.833,456.5 370.167,456.5 370.5,456.5C 371.391,460.265 373.557,461.598 377,460.5C 375.967,453.532 378.8,450.699 385.5,452C 393.5,456.333 401.5,460.667 409.5,465C 412.099,465.769 414.599,465.602 417,464.5C 417.206,461.377 417.873,458.377 419,455.5C 420.182,453.643 421.849,452.643 424,452.5C 431.284,454.261 438.451,456.428 445.5,459C 448.482,459.498 451.482,459.665 454.5,459.5C 454.66,457.801 454.494,456.134 454,454.5C 451.633,450.499 449.8,446.332 448.5,442C 448.519,438.967 449.852,436.633 452.5,435C 456.5,434.333 460.5,434.333 464.5,435C 475.714,438.493 487.047,439.159 498.5,437C 500.544,436.502 501.878,435.335 502.5,433.5 Z"/></g>
<g><path style="opacity:1" fill="#f7b749" d="M 151.5,438.5 C 173.857,447.341 181.857,463.508 175.5,487C 176.094,487.464 176.761,487.631 177.5,487.5C 175.777,488.807 173.943,488.807 172,487.5C 178.456,464.565 169.956,451.398 146.5,448C 139.417,447.25 132.417,447.75 125.5,449.5C 121.391,449.486 119.891,447.486 121,443.5C 122.579,441.959 124.413,440.792 126.5,440C 134.92,439.214 143.253,439.714 151.5,441.5C 151.5,440.5 151.5,439.5 151.5,438.5 Z"/></g>
<g><path style="opacity:1" fill="#eea944" d="M 140.5,451.5 C 144.5,451.833 148.5,452.167 152.5,452.5C 152.256,457.067 151.09,461.401 149,465.5C 146.759,468.227 144.093,468.894 141,467.5C 140.501,462.177 140.334,456.844 140.5,451.5 Z"/></g>
</svg>
