<?xml version="1.0" encoding="UTF-8"?>
<!DOCTYPE svg PUBLIC "-//W3C//DTD SVG 1.1//EN" "http://www.w3.org/Graphics/SVG/1.1/DTD/svg11.dtd">
<svg xmlns="http://www.w3.org/2000/svg" version="1.1" width="128px" height="128px" style="shape-rendering:geometricPrecision; text-rendering:geometricPrecision; image-rendering:optimizeQuality; fill-rule:evenodd; clip-rule:evenodd" xmlns:xlink="http://www.w3.org/1999/xlink">
<g><path style="opacity:0.896" fill="#080504" d="M 17.5,-0.5 C 20.8333,-0.5 24.1667,-0.5 27.5,-0.5C 30.1041,1.60004 32.6041,3.93337 35,6.5C 36.96,14.1528 36.96,21.8194 35,29.5C 31.6814,35.9697 28.5147,42.4697 25.5,49C 26.1805,53.6805 28.8471,56.3472 33.5,57C 43.5494,57.1349 53.5494,57.8016 63.5,59C 79.5281,65.5135 95.1948,72.8468 110.5,81C 112.318,84.3873 111.318,86.3873 107.5,87C 113.002,90.5855 118.669,93.9188 124.5,97C 125.554,98.3876 125.72,99.8876 125,101.5C 119.341,105.169 113.174,106.336 106.5,105C 101.861,103.347 97.5278,101.181 93.5,98.5C 89.7173,93.3877 85.0506,92.3877 79.5,95.5C 73.176,96.3314 66.8427,97.1648 60.5,98C 61.7797,100.132 61.7797,102.298 60.5,104.5C 68.4818,104.739 76.1484,103.072 83.5,99.5C 85.2915,99.366 86.9582,99.6993 88.5,100.5C 88.5858,101.496 88.2524,102.329 87.5,103C 77.8943,107.069 67.8943,109.235 57.5,109.5C 56.8309,115.16 58.6642,119.827 63,123.5C 63.49,124.793 63.6567,126.127 63.5,127.5C 50.8333,127.5 38.1667,127.5 25.5,127.5C 25.238,126.022 25.5713,124.689 26.5,123.5C 31.7907,120.903 37.124,118.403 42.5,116C 43.4231,113.959 43.7564,111.792 43.5,109.5C 13.5441,103.671 1.71078,85.6705 8,55.5C 12.1829,44.8002 17.1829,34.4668 23,24.5C 23.4221,22.6447 23.9221,20.8114 24.5,19C 23.259,17.2691 22.259,15.4358 21.5,13.5C 23.3388,12.2475 25.1722,12.2475 27,13.5C 28.7752,18.5604 28.4418,23.5604 26,28.5C 22,35.8333 18,43.1667 14,50.5C 12.1003,54.6322 11.267,58.9655 11.5,63.5C 11.1778,69.358 11.5111,75.0247 12.5,80.5C 12.8257,83.3113 13.6591,85.978 15,88.5C 25.5456,101.359 39.0456,106.859 55.5,105C 58.1667,102.667 58.1667,100.333 55.5,98C 43.5454,98.6812 32.8787,95.3479 23.5,88C 20.8823,85.8943 18.8823,83.3943 17.5,80.5C 18.4232,79.6971 19.4232,79.5304 20.5,80C 23.5935,82.6255 26.7602,85.1255 30,87.5C 44.7172,83.7289 57.5505,76.7289 68.5,66.5C 66.3029,64.4816 63.6363,63.315 60.5,63C 50.2116,61.4952 39.8782,61.1618 29.5,62C 24.4437,63.8957 20.4437,67.0623 17.5,71.5C 15.2458,70.286 14.9125,68.6194 16.5,66.5C 19.3904,63.4474 22.7238,60.9474 26.5,59C 22.388,54.9963 20.888,50.163 22,44.5C 25.2696,38.9601 28.2696,33.2935 31,27.5C 32.956,21.1407 32.956,14.8074 31,8.5C 28.1806,4.50709 24.3473,2.84042 19.5,3.5C 19.67,4.82207 19.3366,5.98873 18.5,7C 16.3295,8.58622 13.9962,9.91956 11.5,11C 14.1768,11.1676 16.5102,12.001 18.5,13.5C 18.3893,14.1174 18.056,14.6174 17.5,15C 12.1771,15.4994 6.84372,15.666 1.5,15.5C 1.34332,14.1266 1.50999,12.7932 2,11.5C 5.92419,8.78655 10.0909,6.45322 14.5,4.5C 15.3199,2.68116 16.3199,1.0145 17.5,-0.5 Z M 47.5,109.5 C 49.5,109.5 51.5,109.5 53.5,109.5C 54.4273,113.445 53.094,116.112 49.5,117.5C 48.914,117.291 48.414,116.957 48,116.5C 47.5034,114.19 47.3367,111.857 47.5,109.5 Z"/></g>
<g><path style="opacity:1" fill="#5e4f5c" d="M 16.5,66.5 C 14.5887,65.925 12.922,64.925 11.5,63.5C 11.267,58.9655 12.1003,54.6322 14,50.5C 18,43.1667 22,35.8333 26,28.5C 28.4418,23.5604 28.7752,18.5604 27,13.5C 25.1722,12.2475 23.3388,12.2475 21.5,13.5C 20.5,13.5 19.5,13.5 18.5,13.5C 16.5102,12.001 14.1768,11.1676 11.5,11C 13.9962,9.91956 16.3295,8.58622 18.5,7C 19.3366,5.98873 19.67,4.82207 19.5,3.5C 24.3473,2.84042 28.1806,4.50709 31,8.5C 32.956,14.8074 32.956,21.1407 31,27.5C 28.2696,33.2935 25.2696,38.9601 22,44.5C 20.888,50.163 22.388,54.9963 26.5,59C 22.7238,60.9474 19.3904,63.4474 16.5,66.5 Z"/></g>
<g><path style="opacity:1" fill="#cf8861" d="M 17.5,80.5 C 15.6656,79.506 13.9989,79.506 12.5,80.5C 11.5111,75.0247 11.1778,69.358 11.5,63.5C 12.922,64.925 14.5887,65.925 16.5,66.5C 14.9125,68.6194 15.2458,70.286 17.5,71.5C 20.4437,67.0623 24.4437,63.8957 29.5,62C 39.8782,61.1618 50.2116,61.4952 60.5,63C 63.6363,63.315 66.3029,64.4816 68.5,66.5C 57.5505,76.7289 44.7172,83.7289 30,87.5C 26.7602,85.1255 23.5935,82.6255 20.5,80C 19.4232,79.5304 18.4232,79.6971 17.5,80.5 Z"/></g>
<g><path style="opacity:1" fill="#c6825d" d="M 72.5,67.5 C 75.3422,67.5283 76.5088,68.8617 76,71.5C 66.8178,81.8477 55.6511,89.1811 42.5,93.5C 39.5147,93.0069 36.848,91.8403 34.5,90C 49.2682,85.7927 61.9348,78.2927 72.5,67.5 Z"/></g>
<g><path style="opacity:1" fill="#a66849" d="M 98.5,85.5 C 92.1803,80.8411 85.1803,77.5077 77.5,75.5C 78.4787,73.8546 79.812,72.5213 81.5,71.5C 89.1667,75.3333 96.8333,79.1667 104.5,83C 102.512,83.9383 100.512,84.7717 98.5,85.5 Z"/></g>
<g><path style="opacity:1" fill="#c17c5a" d="M 77.5,75.5 C 85.1803,77.5077 92.1803,80.8411 98.5,85.5C 89.9931,88.5017 81.3264,91.0017 72.5,93C 66.1667,93.6667 59.8333,93.6667 53.5,93C 62.547,88.4312 70.547,82.5979 77.5,75.5 Z"/></g>
<g><path style="opacity:1" fill="#eda56f" d="M 17.5,80.5 C 18.8823,83.3943 20.8823,85.8943 23.5,88C 32.8787,95.3479 43.5454,98.6812 55.5,98C 58.1667,100.333 58.1667,102.667 55.5,105C 39.0456,106.859 25.5456,101.359 15,88.5C 13.6591,85.978 12.8257,83.3113 12.5,80.5C 13.9989,79.506 15.6656,79.506 17.5,80.5 Z"/></g>
<g><path style="opacity:1" fill="#564755" d="M 99.5,88.5 C 106.305,91.4007 112.638,95.0674 118.5,99.5C 115.004,101.261 111.337,101.761 107.5,101C 101.911,98.4005 96.5773,95.4005 91.5,92C 94.3093,90.9066 96.976,89.7399 99.5,88.5 Z"/></g>
<g><path style="opacity:1" fill="#deb38c" d="M 93.5,98.5 C 91.9505,99.4408 90.2838,100.107 88.5,100.5C 86.9582,99.6993 85.2915,99.366 83.5,99.5C 82.1667,98.1667 80.8333,96.8333 79.5,95.5C 85.0506,92.3877 89.7173,93.3877 93.5,98.5 Z"/></g>
<g><path style="opacity:1" fill="#f1d1aa" d="M 79.5,95.5 C 80.8333,96.8333 82.1667,98.1667 83.5,99.5C 76.1484,103.072 68.4818,104.739 60.5,104.5C 61.7797,102.298 61.7797,100.132 60.5,98C 66.8427,97.1648 73.176,96.3314 79.5,95.5 Z"/></g>
<g><path style="opacity:1" fill="#807780" d="M 42.5,120.5 C 44.6807,120.284 46.3474,121.117 47.5,123C 44.5,123.667 41.5,123.667 38.5,123C 40.0664,122.392 41.3998,121.558 42.5,120.5 Z"/></g>
<g><path style="opacity:1" fill="#6a5d69" d="M 52.5,120.5 C 54.6807,120.284 56.3474,121.117 57.5,123C 55.4213,123.808 53.4213,123.641 51.5,122.5C 51.8627,121.817 52.1961,121.15 52.5,120.5 Z"/></g>
</svg>
