<?xml version="1.0" encoding="UTF-8"?>
<!DOCTYPE svg PUBLIC "-//W3C//DTD SVG 1.1//EN" "http://www.w3.org/Graphics/SVG/1.1/DTD/svg11.dtd">
<svg xmlns="http://www.w3.org/2000/svg" version="1.1" width="512px" height="512px" style="shape-rendering:geometricPrecision; text-rendering:geometricPrecision; image-rendering:optimizeQuality; fill-rule:evenodd; clip-rule:evenodd" xmlns:xlink="http://www.w3.org/1999/xlink">
<g><path style="opacity:0.955" fill="#060301" d="M 145.5,-0.5 C 149.167,-0.5 152.833,-0.5 156.5,-0.5C 161.02,2.20411 163.853,6.20411 165,11.5C 164.462,21.1855 163.795,30.8521 163,40.5C 164.808,42.3959 166.975,42.8959 169.5,42C 174.833,38 179.5,33.3333 183.5,28C 191.206,22.857 198.373,23.357 205,29.5C 207.033,34.9493 206.7,40.2826 204,45.5C 200.311,49.5334 198.311,54.2001 198,59.5C 198.5,60 199,60.5 199.5,61C 205.833,61.3333 212.167,61.6667 218.5,62C 226.12,67.3184 227.287,73.8184 222,81.5C 214.795,88.3734 207.295,94.8734 199.5,101C 215.816,117.469 225.316,137.303 228,160.5C 228.333,173.167 228.667,185.833 229,198.5C 234.667,210.329 240.167,222.163 245.5,234C 263.875,240.938 282.875,243.605 302.5,242C 331.015,238.497 359.349,233.831 387.5,228C 403.786,225.247 420.119,224.58 436.5,226C 438.5,227 440.5,228 442.5,229C 443.965,231.43 445.298,233.93 446.5,236.5C 465.396,229.863 484.73,228.03 504.5,231C 507.746,232.742 510.079,235.242 511.5,238.5C 511.5,241.5 511.5,244.5 511.5,247.5C 509.099,251.738 505.766,255.238 501.5,258C 494.394,261.553 487.061,264.553 479.5,267C 485.219,269.275 490.385,272.442 495,276.5C 497.582,282.287 496.749,287.454 492.5,292C 484.621,296.054 476.288,298.72 467.5,300C 477.023,307.717 478.856,316.884 473,327.5C 467.216,332.779 460.549,334.446 453,332.5C 454.571,343.818 450.738,352.651 441.5,359C 435.377,361.815 429.377,364.815 423.5,368C 415.167,377.667 406.167,386.667 396.5,395C 406.095,393.569 415.761,392.236 425.5,391C 433.246,390.104 440.913,390.437 448.5,392C 456.583,399.19 456.25,406.19 447.5,413C 444.167,415 440.833,417 437.5,419C 451.773,418.767 465.44,421.433 478.5,427C 484.883,436.169 484.717,445.336 478,454.5C 476.127,456.709 473.96,458.542 471.5,460C 489.931,466.643 495.098,478.809 487,496.5C 482.12,502.376 475.953,506.209 468.5,508C 457.072,509.697 445.739,510.864 434.5,511.5C 363.167,511.5 291.833,511.5 220.5,511.5C 153.538,510.302 86.5385,506.802 19.5,501C 10.1071,500.164 3.4404,495.664 -0.5,487.5C -0.5,484.167 -0.5,480.833 -0.5,477.5C 2.16775,470.659 6.83442,465.492 13.5,462C 8.79811,453.932 10.1314,446.932 17.5,441C 20.3821,439.392 23.3821,438.059 26.5,437C 33.5875,436.226 40.5875,435.059 47.5,433.5C 41.4182,424.492 42.7515,416.658 51.5,410C 62.2572,406.124 73.2572,405.458 84.5,408C 89.8431,409.34 95.1764,410.34 100.5,411C 99.1196,409.075 97.6196,407.241 96,405.5C 95.1923,403.421 95.359,401.421 96.5,399.5C 101.445,398.436 106.445,397.603 111.5,397C 70.5357,364.198 54.2024,321.698 62.5,269.5C 61.4889,264.191 61.3222,258.857 62,253.5C 74.0803,222.272 79.0803,189.939 77,156.5C 53.4205,140.959 29.5872,125.792 5.5,111C 4.40857,108.936 4.2419,106.769 5,104.5C 20.4091,103.12 35.9091,102.454 51.5,102.5C 65.1747,102.88 78.8414,103.047 92.5,103C 95.5,100 98.5,97 101.5,94C 79.5143,79.7075 70.0143,59.5408 73,33.5C 76.1333,24.6828 82.2999,21.1828 91.5,23C 94.9518,23.8917 97.9518,25.5584 100.5,28C 103.833,32.6667 107.833,36.6667 112.5,40C 118.947,41.8666 123.781,39.7 127,33.5C 129.743,24.2686 133.077,15.2686 137,6.5C 139.441,3.54644 142.275,1.21311 145.5,-0.5 Z"/></g>
<g><path style="opacity:1" fill="#cf4040" d="M 199.5,90.5 C 201.478,87.6667 203.311,84.6667 205,81.5C 207.036,78.1044 206.869,74.9378 204.5,72C 199.5,71.6667 194.5,71.3333 189.5,71C 188.167,70.3333 186.833,69.6667 185.5,69C 182.902,65.2171 181.068,61.0504 180,56.5C 179.261,55.4258 178.261,54.7591 177,54.5C 168.879,59.8067 161.045,65.4733 153.5,71.5C 152.558,71.3918 151.725,71.0585 151,70.5C 149.985,65.4061 148.652,60.4061 147,55.5C 144.79,52.7104 141.956,51.877 138.5,53C 134.578,56.2508 131.412,60.0841 129,64.5C 127.235,66.7744 125.068,68.4411 122.5,69.5C 113.283,65.785 106.45,59.4516 102,50.5C 97.3828,44.0604 93.0494,44.0604 89,50.5C 88.7532,57.3613 88.5865,64.0279 88.5,70.5C 80.1545,59.4376 77.6545,47.1042 81,33.5C 85.1921,28.4524 89.6921,28.2858 94.5,33C 97.8702,36.035 100.87,39.3683 103.5,43C 114.879,51.4464 124.713,49.9464 133,38.5C 136.137,29.4229 139.47,20.4229 143,11.5C 147.938,5.01682 152.604,5.01682 157,11.5C 156.344,21.4829 155.677,31.4829 155,41.5C 159.981,51.2803 167.147,53.1137 176.5,47C 181.061,41.527 186.061,36.527 191.5,32C 197.502,31.0069 199.668,33.5069 198,39.5C 183.524,61.7311 189.357,71.5644 215.5,69C 217.396,70.8083 217.896,72.975 217,75.5C 211.601,81.0998 205.768,86.0998 199.5,90.5 Z"/></g>
<g><path style="opacity:1" fill="#c03030" d="M 199.5,90.5 C 197.508,92.3172 195.341,93.9838 193,95.5C 166.613,75.6119 138.78,73.2785 109.5,88.5C 100.665,84.667 93.6652,78.667 88.5,70.5C 88.5865,64.0279 88.7532,57.3613 89,50.5C 93.0494,44.0604 97.3828,44.0604 102,50.5C 106.45,59.4516 113.283,65.785 122.5,69.5C 125.068,68.4411 127.235,66.7744 129,64.5C 131.412,60.0841 134.578,56.2508 138.5,53C 141.956,51.877 144.79,52.7104 147,55.5C 148.652,60.4061 149.985,65.4061 151,70.5C 151.725,71.0585 152.558,71.3918 153.5,71.5C 161.045,65.4733 168.879,59.8067 177,54.5C 178.261,54.7591 179.261,55.4258 180,56.5C 181.068,61.0504 182.902,65.2171 185.5,69C 186.833,69.6667 188.167,70.3333 189.5,71C 194.5,71.3333 199.5,71.6667 204.5,72C 206.869,74.9378 207.036,78.1044 205,81.5C 203.311,84.6667 201.478,87.6667 199.5,90.5 Z"/></g>
<g><path style="opacity:1" fill="#ba4b45" d="M 152.5,86.5 C 145.015,97.476 139.682,109.476 136.5,122.5C 129.686,122.49 127.186,125.823 129,132.5C 130.488,134.16 132.321,135.16 134.5,135.5C 132.357,178.562 150.357,209.896 188.5,229.5C 189.107,229.376 189.44,229.043 189.5,228.5C 192.336,237.853 191.836,247.186 188,256.5C 185.774,260.861 182.274,262.361 177.5,261C 171.508,258.341 167.675,253.841 166,247.5C 165.055,243.886 164.388,240.219 164,236.5C 162.267,234.398 160.267,234.065 158,235.5C 157.907,243.909 157.24,252.243 156,260.5C 149.495,269.434 142.495,269.768 135,261.5C 131.418,253.927 129.752,245.927 130,237.5C 128,236.167 126,236.167 124,237.5C 122.332,246.17 119.666,254.503 116,262.5C 110.138,271.756 104.471,271.756 99,262.5C 98.3618,257.075 98.8618,251.741 100.5,246.5C 99.3386,242.278 97.172,241.612 94,244.5C 92.9509,252.663 89.7842,259.83 84.5,266C 73.0274,271.51 67.8608,268.01 69,255.5C 81.8196,220.662 87.1529,184.662 85,147.5C 87.1961,113.655 104.696,93.1554 137.5,86C 142.684,85.1837 147.684,85.3503 152.5,86.5 Z"/></g>
<g><path style="opacity:1" fill="#d26b62" d="M 152.5,86.5 C 165.956,87.7282 177.956,92.5615 188.5,101C 215.02,125.219 225.687,155.219 220.5,191C 220.641,194.552 221.141,198.052 222,201.5C 226.394,211.289 231.061,220.955 236,230.5C 236.888,235.618 236.555,240.618 235,245.5C 232.081,249.198 228.247,250.864 223.5,250.5C 224.749,248.33 225.749,245.996 226.5,243.5C 226.392,242.558 226.059,241.725 225.5,241C 217.734,237.892 209.734,235.726 201.5,234.5C 198.941,230.388 196.608,226.054 194.5,221.5C 192.647,220.24 190.814,220.24 189,221.5C 188.666,223.847 188.833,226.181 189.5,228.5C 189.44,229.043 189.107,229.376 188.5,229.5C 150.357,209.896 132.357,178.562 134.5,135.5C 140.369,133.696 141.869,130.029 139,124.5C 138.005,123.934 137.172,123.267 136.5,122.5C 139.682,109.476 145.015,97.476 152.5,86.5 Z"/></g>
<g><path style="opacity:1" fill="#ef9a3c" d="M 26.5,111.5 C 46.9959,110.337 67.6626,110.171 88.5,111C 82.5232,122.433 78.8566,134.6 77.5,147.5C 65.3004,139.469 52.967,131.636 40.5,124C 45.0984,124.642 49.7651,125.309 54.5,126C 60.5,126.667 66.5,126.667 72.5,126C 75.473,124.776 76.1397,122.776 74.5,120C 57.755,121.083 41.755,118.25 26.5,111.5 Z"/></g>
<g><path style="opacity:1" fill="#0c0404" d="M 136.5,122.5 C 137.172,123.267 138.005,123.934 139,124.5C 141.869,130.029 140.369,133.696 134.5,135.5C 132.321,135.16 130.488,134.16 129,132.5C 127.186,125.823 129.686,122.49 136.5,122.5 Z"/></g>
<g><path style="opacity:1" fill="#c46e44" d="M 430.5,244.5 C 428.343,243.947 428.51,242.947 431,241.5C 431.684,240.216 431.517,239.049 430.5,238C 403.06,239.153 377.227,246.32 353,259.5C 352.722,258.584 352.222,257.918 351.5,257.5C 351.836,253 349.836,251.167 345.5,252C 344.913,256.862 344.08,261.696 343,266.5C 338.855,272.277 333.688,273.611 327.5,270.5C 325.261,270.574 324.261,271.741 324.5,274C 324.7,276.537 326.033,278.204 328.5,279C 331.562,279.741 334.562,279.575 337.5,278.5C 343.577,284.988 347.244,292.655 348.5,301.5C 347.299,314.831 340.465,319.498 328,315.5C 327.436,312.845 326.936,310.179 326.5,307.5C 327.705,304.43 329.205,301.43 331,298.5C 331.985,293.311 331.485,288.311 329.5,283.5C 327.647,282.24 325.814,282.24 324,283.5C 323.704,286.433 324.204,289.266 325.5,292C 322.674,302.662 316.507,305.162 307,299.5C 302.532,301.605 302.365,304.105 306.5,307C 310.884,309.208 315.551,310.041 320.5,309.5C 321.051,312.807 321.384,316.14 321.5,319.5C 321.664,322.187 321.497,324.854 321,327.5C 317.088,332.083 312.588,335.917 307.5,339C 303.833,339.667 300.167,339.667 296.5,339C 292.106,336.803 287.773,334.636 283.5,332.5C 283.692,327.73 284.525,323.063 286,318.5C 292.976,312.034 295.143,304.201 292.5,295C 298.541,288.569 299.707,281.402 296,273.5C 293.105,269.365 290.605,269.532 288.5,274C 293.914,282.658 291.747,288.158 282,290.5C 279.003,290.333 276.337,289.333 274,287.5C 269.532,289.605 269.365,292.105 273.5,295C 276.022,296.341 278.689,297.174 281.5,297.5C 270.769,305.927 259.436,306.593 247.5,299.5C 246.479,300.002 246.312,300.668 247,301.5C 250.819,306.167 255.319,309.834 260.5,312.5C 259.013,315.212 259.679,317.379 262.5,319C 267.099,321.867 272.099,323.034 277.5,322.5C 277.247,326.04 276.581,329.373 275.5,332.5C 269.674,333.75 264.674,336.583 260.5,341C 254.833,343 249.167,343 243.5,341C 237.625,338.235 232.291,334.735 227.5,330.5C 230.462,326.24 232.629,321.574 234,316.5C 245.674,309.137 248.674,299.137 243,286.5C 241,283.833 239,283.833 237,286.5C 236.82,288.488 236.986,290.488 237.5,292.5C 228.506,292.992 220.172,290.492 212.5,285C 211.778,282.259 210.112,281.259 207.5,282C 205.533,292.237 208.533,300.737 216.5,307.5C 218.995,311.828 222.329,315.328 226.5,318C 222.577,328.466 215.577,331.466 205.5,327C 203.787,325.622 202.453,323.955 201.5,322C 195.206,321.852 194.04,324.352 198,329.5C 202.669,334.751 208.502,337.085 215.5,336.5C 216.318,351.688 209.318,358.021 194.5,355.5C 185.603,346.576 178.603,336.242 173.5,324.5C 171.088,323.051 169.088,323.384 167.5,325.5C 162.533,336.339 153.867,341.672 141.5,341.5C 127.783,340.221 116.95,333.887 109,322.5C 101.379,307.582 105.212,296.748 120.5,290C 125.772,288.131 131.106,286.465 136.5,285C 155.262,281.429 173.929,277.429 192.5,273C 203.049,270.046 212.715,265.379 221.5,259C 223.382,258.802 225.048,258.302 226.5,257.5C 230.062,257.035 233.395,255.868 236.5,254C 240.136,250.506 243.136,246.673 245.5,242.5C 264.657,248.883 284.324,251.05 304.5,249C 309.5,248.667 314.5,248.333 319.5,248C 342.849,243.797 366.182,239.464 389.5,235C 404.085,232.717 418.752,232.05 433.5,233C 437.461,233.608 438.961,235.774 438,239.5C 436.143,242.2 433.643,243.866 430.5,244.5 Z"/></g>
<g><path style="opacity:1" fill="#b84b45" d="M 201.5,234.5 C 209.734,235.726 217.734,237.892 225.5,241C 226.059,241.725 226.392,242.558 226.5,243.5C 225.749,245.996 224.749,248.33 223.5,250.5C 216.383,250.692 210.55,248.026 206,242.5C 204.223,239.941 202.723,237.274 201.5,234.5 Z"/></g>
<g><path style="opacity:1" fill="#b05831" d="M 430.5,244.5 C 405.238,254.815 379.904,265.148 354.5,275.5C 351.579,275.717 348.913,275.051 346.5,273.5C 350.012,268.799 351.678,263.466 351.5,257.5C 352.222,257.918 352.722,258.584 353,259.5C 377.227,246.32 403.06,239.153 430.5,238C 431.517,239.049 431.684,240.216 431,241.5C 428.51,242.947 428.343,243.947 430.5,244.5 Z"/></g>
<g><path style="opacity:1" fill="#bf6b42" d="M 499.5,249.5 C 497.157,247.251 494.323,246.251 491,246.5C 466.381,249.368 442.048,253.701 418,259.5C 416.93,259.472 416.097,259.139 415.5,258.5C 427.336,254.39 438.67,249.223 449.5,243C 466.497,237.148 483.83,235.481 501.5,238C 505.786,242.734 505.119,246.568 499.5,249.5 Z"/></g>
<g><path style="opacity:1" fill="#b05831" d="M 226.5,257.5 C 225.048,258.302 223.382,258.802 221.5,259C 212.715,265.379 203.049,270.046 192.5,273C 173.929,277.429 155.262,281.429 136.5,285C 131.106,286.465 125.772,288.131 120.5,290C 105.212,296.748 101.379,307.582 109,322.5C 116.95,333.887 127.783,340.221 141.5,341.5C 153.867,341.672 162.533,336.339 167.5,325.5C 173.363,342.538 183.363,356.705 197.5,368C 211.456,379.061 227.289,385.561 245,387.5C 259.433,388.056 268.433,381.389 272,367.5C 288.595,379.35 306.761,382.516 326.5,377C 337.831,370.853 341.831,361.686 338.5,349.5C 351.162,348.344 363.829,348.344 376.5,349.5C 384.654,350.007 391.821,347.674 398,342.5C 400.078,339.13 400.911,335.463 400.5,331.5C 401.434,332.568 401.768,333.901 401.5,335.5C 414.612,334.117 426.612,329.617 437.5,322C 438.928,321.421 440.262,321.588 441.5,322.5C 441.077,323.265 440.743,324.098 440.5,325C 447.685,334.649 447.019,343.649 438.5,352C 431.072,354.915 424.072,358.582 417.5,363C 406.262,376.24 393.762,388.073 380,398.5C 382.363,390.061 379.53,384.228 371.5,381C 351.524,378.995 332.191,381.662 313.5,389C 294.709,397.229 276.043,405.729 257.5,414.5C 254.443,413.099 252.277,410.765 251,407.5C 240.099,396.901 231.432,398.568 225,412.5C 206.617,403.038 187.451,395.538 167.5,390C 146.62,385.851 143.287,391.518 157.5,407C 147.538,403.354 137.205,400.688 126.5,399C 82.5048,369.168 63.1715,327.668 68.5,274.5C 78.4516,276.977 86.6183,274.31 93,266.5C 100.018,278.211 108.684,279.545 119,270.5C 121.333,266.5 123.667,262.5 126,258.5C 133.15,275.265 144.15,278.598 159,268.5C 160.92,265.661 162.587,262.661 164,259.5C 173.186,270.49 182.853,271.157 193,261.5C 195.801,255.832 197.468,249.832 198,243.5C 204.967,253.4 214.467,258.067 226.5,257.5 Z"/></g>
<g><path style="opacity:1" fill="#af5831" d="M 499.5,249.5 C 483.682,258.385 466.682,264.218 448.5,267C 447.627,268.045 446.627,268.878 445.5,269.5C 427.775,269.142 410.108,269.975 392.5,272C 391.944,272.383 391.611,272.883 391.5,273.5C 387.774,273.823 384.107,273.489 380.5,272.5C 392.071,267.546 403.738,262.879 415.5,258.5C 416.097,259.139 416.93,259.472 418,259.5C 442.048,253.701 466.381,249.368 491,246.5C 494.323,246.251 497.157,247.251 499.5,249.5 Z"/></g>
<g><path style="opacity:1" fill="#c26d43" d="M 445.5,269.5 C 445.33,270.822 445.663,271.989 446.5,273C 455.86,272.051 465.193,272.385 474.5,274C 479.962,275.228 484.629,277.728 488.5,281.5C 488.083,282.124 487.416,282.457 486.5,282.5C 467.294,278.586 448.628,280.253 430.5,287.5C 424.775,280.954 417.442,277.121 408.5,276C 402.845,275.002 397.178,274.168 391.5,273.5C 391.611,272.883 391.944,272.383 392.5,272C 410.108,269.975 427.775,269.142 445.5,269.5 Z"/></g>
<g><path style="opacity:1" fill="#c26d43" d="M 346.5,273.5 C 348.913,275.051 351.579,275.717 354.5,275.5C 354.286,277.144 354.62,278.644 355.5,280C 376.564,277.959 397.23,279.959 417.5,286C 420.106,286.792 422.106,288.292 423.5,290.5C 423.047,291.458 422.381,292.292 421.5,293C 398.879,291.473 376.879,294.307 355.5,301.5C 354.048,291.926 350.381,283.259 344.5,275.5C 344.855,274.478 345.522,273.811 346.5,273.5 Z"/></g>
<g><path style="opacity:1" fill="#b05831" d="M 488.5,281.5 C 489.573,282.251 489.74,283.251 489,284.5C 482.376,288.376 475.209,290.876 467.5,292C 461.5,292.333 455.5,292.667 449.5,293C 447.963,294.11 447.297,295.61 447.5,297.5C 442.468,295.63 437.135,294.963 431.5,295.5C 431.599,292.763 431.265,290.096 430.5,287.5C 448.628,280.253 467.294,278.586 486.5,282.5C 487.416,282.457 488.083,282.124 488.5,281.5 Z"/></g>
<g><path style="opacity:1" fill="#b05831" d="M 237.5,292.5 C 239.797,299.116 238.13,304.616 232.5,309C 230.5,309.667 228.5,309.667 226.5,309C 224.899,305.933 222.732,303.433 220,301.5C 217.091,302.429 215.925,304.429 216.5,307.5C 208.533,300.737 205.533,292.237 207.5,282C 210.112,281.259 211.778,282.259 212.5,285C 220.172,290.492 228.506,292.992 237.5,292.5 Z"/></g>
<g><path style="opacity:1" fill="#af5731" d="M 423.5,290.5 C 424.675,295.924 422.342,299.424 416.5,301C 395.93,304.547 375.264,307.381 354.5,309.5C 355.092,306.873 355.425,304.206 355.5,301.5C 376.879,294.307 398.879,291.473 421.5,293C 422.381,292.292 423.047,291.458 423.5,290.5 Z"/></g>
<g><path style="opacity:1" fill="#c36e44" d="M 431.5,295.5 C 437.135,294.963 442.468,295.63 447.5,297.5C 453.32,300.666 459.153,303.999 465,307.5C 472.069,321.789 467.569,327.623 451.5,325C 448.383,322.569 445.05,321.735 441.5,322.5C 440.262,321.588 438.928,321.421 437.5,322C 426.612,329.617 414.612,334.117 401.5,335.5C 401.768,333.901 401.434,332.568 400.5,331.5C 399.486,328.311 397.82,325.478 395.5,323C 390.277,319.221 384.61,316.221 378.5,314C 392.556,311.965 406.556,309.632 420.5,307C 425.774,304.563 429.44,300.729 431.5,295.5 Z"/></g>
<g><path style="opacity:1" fill="#ae5731" d="M 281.5,297.5 C 283.167,297.5 284.833,297.5 286.5,297.5C 285.976,314.347 278.143,319.014 263,311.5C 262.098,311.743 261.265,312.077 260.5,312.5C 255.319,309.834 250.819,306.167 247,301.5C 246.312,300.668 246.479,300.002 247.5,299.5C 259.436,306.593 270.769,305.927 281.5,297.5 Z"/></g>
<g><path style="opacity:1" fill="#c26d43" d="M 393.5,336.5 C 382.278,336.26 371.945,333.093 362.5,327C 356.607,325.938 351.274,327.271 346.5,331C 340.327,332.186 334.661,331.02 329.5,327.5C 329.5,326.5 329.5,325.5 329.5,324.5C 337.747,325.372 344.747,322.872 350.5,317C 364.938,316.61 378.271,320.276 390.5,328C 392.93,330.305 393.93,333.138 393.5,336.5 Z"/></g>
<g><path style="opacity:1" fill="#ac5630" d="M 393.5,336.5 C 391.737,339.556 389.07,341.389 385.5,342C 365.817,342.145 346.15,341.645 326.5,340.5C 327.344,336.126 328.344,331.793 329.5,327.5C 334.661,331.02 340.327,332.186 346.5,331C 351.274,327.271 356.607,325.938 362.5,327C 371.945,333.093 382.278,336.26 393.5,336.5 Z"/></g>
<g><path style="opacity:1" fill="#ab5630" d="M 321.5,319.5 C 323.767,339.398 314.767,348.231 294.5,346C 290.384,344.795 286.384,343.295 282.5,341.5C 281.414,338.287 281.747,335.287 283.5,332.5C 287.773,334.636 292.106,336.803 296.5,339C 300.167,339.667 303.833,339.667 307.5,339C 312.588,335.917 317.088,332.083 321,327.5C 321.497,324.854 321.664,322.187 321.5,319.5 Z"/></g>
<g><path style="opacity:1" fill="#ae5731" d="M 227.5,330.5 C 232.291,334.735 237.625,338.235 243.5,341C 249.167,343 254.833,343 260.5,341C 264.674,336.583 269.674,333.75 275.5,332.5C 272.315,348.589 262.982,354.089 247.5,349C 238.834,344.825 231.167,339.325 224.5,332.5C 225.357,331.575 226.357,330.908 227.5,330.5 Z"/></g>
<g><path style="opacity:1" fill="#af5731" d="M 215.5,336.5 C 216.552,336.351 217.552,336.517 218.5,337C 230.266,349.383 244.6,356.716 261.5,359C 266.196,366.406 264.862,372.739 257.5,378C 247.426,381.441 237.426,381.108 227.5,377C 214.761,372.31 203.761,365.143 194.5,355.5C 209.318,358.021 216.318,351.688 215.5,336.5 Z"/></g>
<g><path style="opacity:1" fill="#ae5731" d="M 276.5,347.5 C 282.168,349.222 287.835,351.056 293.5,353C 302.874,354.718 311.541,353.051 319.5,348C 332.3,347.143 336.133,352.643 331,364.5C 321.701,373.146 310.867,375.646 298.5,372C 287.049,369.276 277.049,363.942 268.5,356C 272.07,353.932 274.737,351.099 276.5,347.5 Z"/></g>
<g><path style="opacity:1" fill="#fbdd78" d="M 450.5,502.5 C 447.5,502.5 444.5,502.5 441.5,502.5C 440.535,496.03 436.868,491.864 430.5,490C 426.535,488.874 422.535,487.874 418.5,487C 429.918,483.633 439.251,477.299 446.5,468C 439.239,466.652 431.906,466.152 424.5,466.5C 421.011,465.342 417.678,464.009 414.5,462.5C 418.473,458.699 422.64,455.032 427,451.5C 429.006,448.464 429.84,445.131 429.5,441.5C 425.154,441.334 420.821,441.501 416.5,442C 409.89,443.819 403.224,445.319 396.5,446.5C 395.089,444.461 393.089,443.461 390.5,443.5C 393.147,440.883 395.314,437.883 397,434.5C 399.167,427.333 396.667,424.833 389.5,427C 382.635,428.172 376.135,430.339 370,433.5C 369.601,433.272 369.435,432.938 369.5,432.5C 369.201,429.358 367.534,427.191 364.5,426C 359.537,424.253 354.537,424.087 349.5,425.5C 346.283,424.405 342.95,424.571 339.5,426C 335.929,428.421 332.262,430.587 328.5,432.5C 329.693,420.425 324.36,415.758 312.5,418.5C 311.162,416.887 309.495,416.387 307.5,417C 292.529,425.428 281.029,437.261 273,452.5C 274.969,444.013 275.636,435.347 275,426.5C 273.971,423.125 271.804,421.958 268.5,423C 256.466,434.892 247.299,448.726 241,464.5C 241.331,456.516 241.331,448.516 241,440.5C 240,437.833 239,435.167 238,432.5C 232.07,430.465 228.07,432.465 226,438.5C 225.79,436.942 225.29,435.609 224.5,434.5C 224.389,433.883 224.056,433.383 223.5,433C 220.854,432.503 218.187,432.336 215.5,432.5C 212.697,427.5 209.197,422.834 205,418.5C 202.957,420.208 201.29,422.208 200,424.5C 197.026,430.668 194.193,436.668 191.5,442.5C 190.778,432.439 185.445,427.773 175.5,428.5C 172.775,427.287 170.441,425.454 168.5,423C 170.058,422.79 171.391,422.29 172.5,421.5C 173.616,418.663 173.116,415.996 171,413.5C 166.833,408 162.667,402.5 158.5,397C 169.5,397.414 180.167,399.748 190.5,404C 204.391,409.612 217.724,416.279 230.5,424C 232.134,424.494 233.801,424.66 235.5,424.5C 235.499,420.679 234.499,417.179 232.5,414C 233.578,408.455 236.911,406.455 242.5,408C 245.057,410.892 247.224,414.059 249,417.5C 252.681,420.36 256.848,421.193 261.5,420C 275.953,413.607 290.287,406.94 304.5,400C 325.407,389.939 347.407,385.939 370.5,388C 373.306,389.305 374.14,391.472 373,394.5C 366.667,402.167 359.667,409.167 352,415.5C 350.836,418.567 351.836,420.233 355,420.5C 363.547,416.811 372.047,412.977 380.5,409C 398.048,402.238 416.215,398.405 435,397.5C 438.59,397.472 442.09,397.972 445.5,399C 446.554,400.388 446.72,401.888 446,403.5C 436.596,411.123 426.43,417.623 415.5,423C 411.365,425.895 411.532,428.395 416,430.5C 426.503,426.711 437.336,425.545 448.5,427C 452.848,427.573 457.181,428.24 461.5,429C 466.442,429.866 470.942,431.7 475,434.5C 476.612,446.57 471.445,454.07 459.5,457C 456.211,457.882 452.877,458.548 449.5,459C 446.11,460.006 445.11,462.006 446.5,465C 454.229,465.143 461.895,465.81 469.5,467C 485.732,474.208 487.732,484.208 475.5,497C 467.6,500.725 459.267,502.558 450.5,502.5 Z"/></g>
<g><path style="opacity:1" fill="#fbdd78" d="M 166.5,420.5 C 161.873,420.74 158.706,423.074 157,427.5C 155.644,435.095 155.144,442.762 155.5,450.5C 150.84,446.013 145.507,442.513 139.5,440C 134.939,439.055 130.606,439.555 126.5,441.5C 120.153,436.695 113.153,432.861 105.5,430C 92.6188,427.196 89.4522,431.363 96,442.5C 102.047,449.35 107.88,455.683 113.5,461.5C 104.425,459.982 95.4247,460.315 86.5,462.5C 72.1351,462.203 57.8018,462.703 43.5,464C 31.3073,466.217 28.1406,472.717 34,483.5C 40.3394,488.745 47.1727,493.078 54.5,496.5C 42.0777,496.204 29.7443,495.037 17.5,493C 3.94152,487.292 2.94152,479.626 14.5,470C 17.7148,468.226 21.0482,466.726 24.5,465.5C 25.6309,463.926 25.7975,462.259 25,460.5C 16.9395,456.612 16.4395,451.779 23.5,446C 25.087,445.138 26.7536,444.471 28.5,444C 35.8566,443.11 43.1899,442.11 50.5,441C 55.2391,439.881 59.0724,437.381 62,433.5C 63.2074,427.735 61.0408,426.068 55.5,428.5C 51.7459,427.148 50.5792,424.482 52,420.5C 54.412,416.704 57.912,414.538 62.5,414C 78.7461,413.875 94.4128,416.875 109.5,423C 116.109,424.728 117.942,422.562 115,416.5C 112.167,413 109.333,409.5 106.5,406C 128.113,404.237 148.113,409.07 166.5,420.5 Z"/></g>
<g><path style="opacity:1" fill="#f4be5d" d="M 312.5,418.5 C 289.746,431.284 275.746,450.618 270.5,476.5C 271.41,480.267 273.576,481.267 277,479.5C 280.847,455.865 293.014,438.198 313.5,426.5C 311.609,436.839 307.942,446.506 302.5,455.5C 302.957,456.298 303.624,456.631 304.5,456.5C 302.112,459.448 300.112,462.615 298.5,466C 298.767,469.164 300.433,470.164 303.5,469C 308.083,465.088 311.917,460.588 315,455.5C 324.981,445.761 336.481,438.428 349.5,433.5C 345.821,440.194 342.154,446.86 338.5,453.5C 333.653,457.183 328.487,460.516 323,463.5C 322.333,465.167 322.333,466.833 323,468.5C 323.725,469.059 324.558,469.392 325.5,469.5C 335.376,464.729 345.376,460.229 355.5,456C 364.479,452.194 373.812,450.528 383.5,451C 375.223,456.973 366.223,461.639 356.5,465C 353.833,467 353.833,469 356.5,471C 361.593,470.307 366.593,468.974 371.5,467C 385.803,464.299 399.803,465.299 413.5,470C 414.458,471.147 414.125,472.147 412.5,473C 403.456,479.097 393.456,482.43 382.5,483C 381.065,485.267 381.398,487.267 383.5,489C 399.7,488.821 413.533,482.988 425,471.5C 425.64,469.735 425.473,468.068 424.5,466.5C 431.906,466.152 439.239,466.652 446.5,468C 439.251,477.299 429.918,483.633 418.5,487C 422.535,487.874 426.535,488.874 430.5,490C 436.868,491.864 440.535,496.03 441.5,502.5C 444.5,502.5 447.5,502.5 450.5,502.5C 344.315,505.345 237.982,504.845 131.5,501C 105.752,499.866 80.0849,498.366 54.5,496.5C 47.1727,493.078 40.3394,488.745 34,483.5C 28.1406,472.717 31.3073,466.217 43.5,464C 57.8018,462.703 72.1351,462.203 86.5,462.5C 84.7274,463.892 82.7274,465.059 80.5,466C 79.4258,466.739 78.7591,467.739 78.5,469C 88.1179,480.652 100.451,487.985 115.5,491C 122.5,491.667 129.5,491.667 136.5,491C 139.473,489.776 140.14,487.776 138.5,485C 119.564,487.105 102.897,482.105 88.5,470C 92.4274,468.069 96.5941,467.236 101,467.5C 114.143,468.545 126.643,472.045 138.5,478C 143.083,478.934 144.583,477.1 143,472.5C 137,469.167 132.333,464.5 129,458.5C 127.738,454.091 128.572,450.257 131.5,447C 136.813,445.986 141.48,447.319 145.5,451C 153.039,457.869 159.039,465.869 163.5,475C 164.833,475.667 166.167,475.667 167.5,475C 167.035,466.208 167.535,457.375 169,448.5C 170.228,444.941 171.894,441.608 174,438.5C 180.343,433.528 184.01,435.195 185,443.5C 185.812,453.233 185.312,462.9 183.5,472.5C 184.342,476.923 186.508,477.59 190,474.5C 193.785,458.898 202.618,447.231 216.5,439.5C 215.312,452.885 210.812,465.219 203,476.5C 203.303,482.336 205.636,483.003 210,478.5C 218.537,465.056 223.37,450.389 224.5,434.5C 225.29,435.609 225.79,436.942 226,438.5C 228.07,432.465 232.07,430.465 238,432.5C 239,435.167 240,437.833 241,440.5C 241.331,448.516 241.331,456.516 241,464.5C 247.299,448.726 256.466,434.892 268.5,423C 271.804,421.958 273.971,423.125 275,426.5C 275.636,435.347 274.969,444.013 273,452.5C 281.029,437.261 292.529,425.428 307.5,417C 309.495,416.387 311.162,416.887 312.5,418.5 Z"/></g>
<g><path style="opacity:1" fill="#0b0804" d="M 328.5,432.5 C 327.297,433.943 326.797,435.609 327,437.5C 334.069,432.551 341.569,428.551 349.5,425.5C 354.537,424.087 359.537,424.253 364.5,426C 367.534,427.191 369.201,429.358 369.5,432.5C 365.439,438.069 360.772,443.235 355.5,448C 361.464,446.939 367.464,445.605 373.5,444C 379.157,443.501 384.824,443.334 390.5,443.5C 393.089,443.461 395.089,444.461 396.5,446.5C 396.649,447.552 396.483,448.552 396,449.5C 392.5,452.333 389,455.167 385.5,458C 395.373,458.424 405.04,459.924 414.5,462.5C 417.678,464.009 421.011,465.342 424.5,466.5C 425.473,468.068 425.64,469.735 425,471.5C 413.533,482.988 399.7,488.821 383.5,489C 381.398,487.267 381.065,485.267 382.5,483C 393.456,482.43 403.456,479.097 412.5,473C 414.125,472.147 414.458,471.147 413.5,470C 399.803,465.299 385.803,464.299 371.5,467C 366.593,468.974 361.593,470.307 356.5,471C 353.833,469 353.833,467 356.5,465C 366.223,461.639 375.223,456.973 383.5,451C 373.812,450.528 364.479,452.194 355.5,456C 345.376,460.229 335.376,464.729 325.5,469.5C 324.558,469.392 323.725,469.059 323,468.5C 322.333,466.833 322.333,465.167 323,463.5C 328.487,460.516 333.653,457.183 338.5,453.5C 347.104,447.898 354.437,440.898 360.5,432.5C 356.687,431.235 353.02,431.569 349.5,433.5C 336.481,438.428 324.981,445.761 315,455.5C 311.917,460.588 308.083,465.088 303.5,469C 300.433,470.164 298.767,469.164 298.5,466C 300.112,462.615 302.112,459.448 304.5,456.5C 311.975,449.571 317.475,441.238 321,431.5C 322.15,424.363 319.65,422.696 313.5,426.5C 293.014,438.198 280.847,455.865 277,479.5C 273.576,481.267 271.41,480.267 270.5,476.5C 275.746,450.618 289.746,431.284 312.5,418.5C 324.36,415.758 329.693,420.425 328.5,432.5 Z"/></g>
<g><path style="opacity:1" fill="#f3be5d" d="M 215.5,432.5 C 205.77,436.053 198.27,442.386 193,451.5C 192.637,448.456 192.137,445.456 191.5,442.5C 194.193,436.668 197.026,430.668 200,424.5C 201.29,422.208 202.957,420.208 205,418.5C 209.197,422.834 212.697,427.5 215.5,432.5 Z"/></g>
<g><path style="opacity:1" fill="#f3be5d" d="M 166.5,420.5 C 168.379,421.341 170.379,421.675 172.5,421.5C 171.391,422.29 170.058,422.79 168.5,423C 170.441,425.454 172.775,427.287 175.5,428.5C 166.505,435.472 161.338,444.805 160,456.5C 158.668,454.34 157.168,452.34 155.5,450.5C 155.144,442.762 155.644,435.095 157,427.5C 158.706,423.074 161.873,420.74 166.5,420.5 Z"/></g>
<g><path style="opacity:1" fill="#e7b559" d="M 349.5,425.5 C 341.569,428.551 334.069,432.551 327,437.5C 326.797,435.609 327.297,433.943 328.5,432.5C 332.262,430.587 335.929,428.421 339.5,426C 342.95,424.571 346.283,424.405 349.5,425.5 Z"/></g>
<g><path style="opacity:1" fill="#f6d674" d="M 304.5,456.5 C 303.624,456.631 302.957,456.298 302.5,455.5C 307.942,446.506 311.609,436.839 313.5,426.5C 319.65,422.696 322.15,424.363 321,431.5C 317.475,441.238 311.975,449.571 304.5,456.5 Z"/></g>
<g><path style="opacity:1" fill="#f3bd5c" d="M 390.5,443.5 C 384.824,443.334 379.157,443.501 373.5,444C 367.464,445.605 361.464,446.939 355.5,448C 360.772,443.235 365.439,438.069 369.5,432.5C 369.435,432.938 369.601,433.272 370,433.5C 376.135,430.339 382.635,428.172 389.5,427C 396.667,424.833 399.167,427.333 397,434.5C 395.314,437.883 393.147,440.883 390.5,443.5 Z"/></g>
<g><path style="opacity:1" fill="#0b0804" d="M 175.5,428.5 C 185.445,427.773 190.778,432.439 191.5,442.5C 192.137,445.456 192.637,448.456 193,451.5C 198.27,442.386 205.77,436.053 215.5,432.5C 218.187,432.336 220.854,432.503 223.5,433C 224.056,433.383 224.389,433.883 224.5,434.5C 223.37,450.389 218.537,465.056 210,478.5C 205.636,483.003 203.303,482.336 203,476.5C 210.812,465.219 215.312,452.885 216.5,439.5C 202.618,447.231 193.785,458.898 190,474.5C 186.508,477.59 184.342,476.923 183.5,472.5C 185.312,462.9 185.812,453.233 185,443.5C 184.01,435.195 180.343,433.528 174,438.5C 171.894,441.608 170.228,444.941 169,448.5C 167.535,457.375 167.035,466.208 167.5,475C 166.167,475.667 164.833,475.667 163.5,475C 159.039,465.869 153.039,457.869 145.5,451C 141.48,447.319 136.813,445.986 131.5,447C 128.572,450.257 127.738,454.091 129,458.5C 132.333,464.5 137,469.167 143,472.5C 144.583,477.1 143.083,478.934 138.5,478C 126.643,472.045 114.143,468.545 101,467.5C 96.5941,467.236 92.4274,468.069 88.5,470C 102.897,482.105 119.564,487.105 138.5,485C 140.14,487.776 139.473,489.776 136.5,491C 129.5,491.667 122.5,491.667 115.5,491C 100.451,487.985 88.1179,480.652 78.5,469C 78.7591,467.739 79.4258,466.739 80.5,466C 82.7274,465.059 84.7274,463.892 86.5,462.5C 95.4247,460.315 104.425,459.982 113.5,461.5C 116.418,462.365 119.418,463.365 122.5,464.5C 122.833,464.167 123.167,463.833 123.5,463.5C 120.076,455.452 121.076,448.119 126.5,441.5C 130.606,439.555 134.939,439.055 139.5,440C 145.507,442.513 150.84,446.013 155.5,450.5C 157.168,452.34 158.668,454.34 160,456.5C 161.338,444.805 166.505,435.472 175.5,428.5 Z"/></g>
<g><path style="opacity:1" fill="#f4be5d" d="M 126.5,441.5 C 121.076,448.119 120.076,455.452 123.5,463.5C 123.167,463.833 122.833,464.167 122.5,464.5C 119.418,463.365 116.418,462.365 113.5,461.5C 107.88,455.683 102.047,449.35 96,442.5C 89.4522,431.363 92.6188,427.196 105.5,430C 113.153,432.861 120.153,436.695 126.5,441.5 Z"/></g>
<g><path style="opacity:1" fill="#f1d373" d="M 338.5,453.5 C 342.154,446.86 345.821,440.194 349.5,433.5C 353.02,431.569 356.687,431.235 360.5,432.5C 354.437,440.898 347.104,447.898 338.5,453.5 Z"/></g>
<g><path style="opacity:1" fill="#f4be5d" d="M 414.5,462.5 C 405.04,459.924 395.373,458.424 385.5,458C 389,455.167 392.5,452.333 396,449.5C 396.483,448.552 396.649,447.552 396.5,446.5C 403.224,445.319 409.89,443.819 416.5,442C 420.821,441.501 425.154,441.334 429.5,441.5C 429.84,445.131 429.006,448.464 427,451.5C 422.64,455.032 418.473,458.699 414.5,462.5 Z"/></g>
</svg>
