<?xml version="1.0" encoding="UTF-8"?>
<!DOCTYPE svg PUBLIC "-//W3C//DTD SVG 1.1//EN" "http://www.w3.org/Graphics/SVG/1.1/DTD/svg11.dtd">
<svg xmlns="http://www.w3.org/2000/svg" version="1.1" width="512px" height="512px" style="shape-rendering:geometricPrecision; text-rendering:geometricPrecision; image-rendering:optimizeQuality; fill-rule:evenodd; clip-rule:evenodd" xmlns:xlink="http://www.w3.org/1999/xlink">
<g><path style="opacity:1" fill="#f7b30c" d="M 275.5,174.5 C 264.174,177.164 253.174,180.831 242.5,185.5C 238.432,120.042 214.099,63.3749 169.5,15.5C 173.322,4.24164 180.655,1.40831 191.5,7C 204.667,16.1667 215.833,27.3333 225,40.5C 254.401,80.3238 271.234,124.99 275.5,174.5 Z"/></g>
<g><path style="opacity:0.996" fill="#febf25" d="M 169.5,15.5 C 214.099,63.3749 238.432,120.042 242.5,185.5C 237.869,188.151 233.202,190.818 228.5,193.5C 212.336,168.666 192.336,147.333 168.5,129.5C 168.5,128.833 168.167,128.5 167.5,128.5C 163.402,95.9151 162.568,63.2484 165,30.5C 165.57,25.0928 167.07,20.0928 169.5,15.5 Z"/></g>
<g><path style="opacity:1" fill="#fecd52" d="M 17.5,84.5 C 72.0591,84.0238 122.059,98.6905 167.5,128.5C 168.167,128.5 168.5,128.833 168.5,129.5C 192.336,147.333 212.336,168.666 228.5,193.5C 238.84,211.518 247.006,230.518 253,250.5C 255.468,259.037 257.301,267.704 258.5,276.5C 258.378,279.698 257.545,282.698 256,285.5C 243.009,294.056 228.843,299.889 213.5,303C 199.512,305.512 185.512,306.012 171.5,304.5C 188.255,301.525 204.255,296.025 219.5,288C 224.245,282.731 225.745,276.564 224,269.5C 205.43,185.928 155.93,129.428 75.5,100C 56.2042,93.5144 36.8709,88.3477 17.5,84.5 Z"/></g>
<g><path style="opacity:0.993" fill="#fed774" d="M 17.5,84.5 C 36.8709,88.3477 56.2042,93.5144 75.5,100C 155.93,129.428 205.43,185.928 224,269.5C 225.745,276.564 224.245,282.731 219.5,288C 204.255,296.025 188.255,301.525 171.5,304.5C 168.794,304.425 166.127,304.092 163.5,303.5C 142.016,299.616 121.682,292.45 102.5,282C 94.0337,277.875 89.0337,271.209 87.5,262C 87.9962,254.346 91.9962,249.679 99.5,248C 103.795,247.088 108.128,246.421 112.5,246C 96.6159,240.061 81.9493,232.061 68.5,222C 58.3597,213.938 55.8597,204.105 61,192.5C 64.2387,189.085 68.2387,187.418 73,187.5C 78.264,188.222 83.4306,189.056 88.5,190C 59.9892,171.832 34.1559,150.332 11,125.5C 6.47693,119.501 2.64359,113.168 -0.5,106.5C -0.5,102.5 -0.5,98.5 -0.5,94.5C 3.9316,88.6115 9.9316,85.2782 17.5,84.5 Z"/></g>
<g><path style="opacity:0.998" fill="#9cc042" d="M 295.5,171.5 C 294.781,173.764 294.448,176.097 294.5,178.5C 290.32,200.452 294.986,220.452 308.5,238.5C 292.78,253.623 284.28,272.29 283,294.5C 287.241,331.906 277.407,364.906 253.5,393.5C 248.597,397.054 244.43,401.387 241,406.5C 238.381,413.355 237.881,420.355 239.5,427.5C 202.141,409.127 177.808,379.794 166.5,339.5C 166.028,335.95 165.028,333.284 163.5,331.5C 162.235,322.308 162.235,312.974 163.5,303.5C 166.127,304.092 168.794,304.425 171.5,304.5C 185.512,306.012 199.512,305.512 213.5,303C 228.843,299.889 243.009,294.056 256,285.5C 257.545,282.698 258.378,279.698 258.5,276.5C 257.301,267.704 255.468,259.037 253,250.5C 247.006,230.518 238.84,211.518 228.5,193.5C 233.202,190.818 237.869,188.151 242.5,185.5C 253.174,180.831 264.174,177.164 275.5,174.5C 282.08,173.011 288.746,172.011 295.5,171.5 Z"/></g>
<g><path style="opacity:1" fill="#fe959a" d="M 295.5,171.5 C 327.255,167.975 353.755,177.975 375,201.5C 384.512,214.202 389.345,228.536 389.5,244.5C 384.438,244.355 379.438,243.688 374.5,242.5C 367.037,244.091 364.871,248.425 368,255.5C 369.518,256.163 370.685,257.163 371.5,258.5C 365.969,258.643 360.635,259.643 355.5,261.5C 355.456,254.272 355.289,246.939 355,239.5C 354.127,235.053 352.96,230.72 351.5,226.5C 354.565,219.117 352.232,214.784 344.5,213.5C 337.948,203.115 329.281,194.949 318.5,189C 310.417,185.112 302.417,181.612 294.5,178.5C 294.448,176.097 294.781,173.764 295.5,171.5 Z"/></g>
<g><path style="opacity:1" fill="#febec1" d="M 294.5,178.5 C 302.417,181.612 310.417,185.112 318.5,189C 329.281,194.949 337.948,203.115 344.5,213.5C 338.869,215.539 337.036,219.539 339,225.5C 342.827,229.162 346.994,229.496 351.5,226.5C 352.96,230.72 354.127,235.053 355,239.5C 355.289,246.939 355.456,254.272 355.5,261.5C 351.725,262.555 348.058,263.888 344.5,265.5C 330.354,259.42 318.354,250.42 308.5,238.5C 294.986,220.452 290.32,200.452 294.5,178.5 Z"/></g>
<g><path style="opacity:1" fill="#4c4b4f" d="M 344.5,213.5 C 352.232,214.784 354.565,219.117 351.5,226.5C 346.994,229.496 342.827,229.162 339,225.5C 337.036,219.539 338.869,215.539 344.5,213.5 Z"/></g>
<g><path style="opacity:1" fill="#fdd674" d="M 308.5,238.5 C 318.354,250.42 330.354,259.42 344.5,265.5C 335.764,271.407 328.93,279.073 324,288.5C 320.846,302.392 318.179,316.392 316,330.5C 309.603,349.106 298.437,364.272 282.5,376C 273.442,382.861 263.775,388.695 253.5,393.5C 277.407,364.906 287.241,331.906 283,294.5C 284.28,272.29 292.78,253.623 308.5,238.5 Z"/></g>
<g><path style="opacity:0.959" fill="#48494d" d="M 389.5,244.5 C 434.595,252.391 475.262,270.057 511.5,297.5C 511.5,300.167 511.5,302.833 511.5,305.5C 508.795,309.17 505.128,310.337 500.5,309C 461.955,281.071 418.955,264.238 371.5,258.5C 370.685,257.163 369.518,256.163 368,255.5C 364.871,248.425 367.037,244.091 374.5,242.5C 379.438,243.688 384.438,244.355 389.5,244.5 Z"/></g>
<g><path style="opacity:1" fill="#dfbf9a" d="M 166.5,339.5 C 165.833,340.5 165.167,341.5 164.5,342.5C 163.886,338.865 163.552,335.198 163.5,331.5C 165.028,333.284 166.028,335.95 166.5,339.5 Z"/></g>
<g><path style="opacity:0.98" fill="#febec2" d="M 166.5,339.5 C 177.808,379.794 202.141,409.127 239.5,427.5C 247.532,431.346 255.865,434.512 264.5,437C 295.54,440.57 324.873,449.57 352.5,464C 367.285,472.451 379.118,483.951 388,498.5C 389.341,501.022 390.174,503.689 390.5,506.5C 344.667,509.529 301,501.363 259.5,482C 212.86,455.326 182.693,415.826 169,363.5C 167.336,356.514 165.836,349.514 164.5,342.5C 165.167,341.5 165.833,340.5 166.5,339.5 Z"/></g>
</svg>
