<?xml version="1.0" encoding="UTF-8"?>
<!DOCTYPE svg PUBLIC "-//W3C//DTD SVG 1.1//EN" "http://www.w3.org/Graphics/SVG/1.1/DTD/svg11.dtd">
<svg xmlns="http://www.w3.org/2000/svg" version="1.1" width="128px" height="128px" style="shape-rendering:geometricPrecision; text-rendering:geometricPrecision; image-rendering:optimizeQuality; fill-rule:evenodd; clip-rule:evenodd" xmlns:xlink="http://www.w3.org/1999/xlink">
<g><path style="opacity:0.988" fill="#4ec2ec" d="M 44.5,-0.5 C 51.8333,-0.5 59.1667,-0.5 66.5,-0.5C 67.2905,0.40128 68.2905,1.06795 69.5,1.5C 73.1667,9.5 76.8333,17.5 80.5,25.5C 76.9934,23.246 73.3267,21.246 69.5,19.5C 69.822,17.2776 69.1554,15.4443 67.5,14C 62.9239,11.8765 58.2573,10.0431 53.5,8.5C 52.4324,7.56552 51.099,7.23219 49.5,7.5C 49.2322,9.09903 49.5655,10.4324 50.5,11.5C 52.8061,13.1394 54.8061,15.1394 56.5,17.5C 59.9024,23.9695 63.5691,30.3028 67.5,36.5C 63.6924,36.1632 60.0257,36.6632 56.5,38C 55.5442,41.3936 55.2108,44.8936 55.5,48.5C 54.6068,43.3186 54.4401,37.9853 55,32.5C 54.6258,31.5838 54.1258,30.7504 53.5,30C 51.5952,28.5787 49.5952,27.412 47.5,26.5C 43.5181,23.8482 39.8514,20.8482 36.5,17.5C 38.7813,16.6855 40.7813,15.3522 42.5,13.5C 40.4668,11.4934 38.4668,9.49336 36.5,7.5C 38.1946,3.80534 40.8613,1.13868 44.5,-0.5 Z"/></g>
<g><path style="opacity:1" fill="#22afe0" d="M 69.5,1.5 C 72.7504,3.2433 75.5838,5.57663 78,8.5C 81.5133,15.5266 85.0133,22.5266 88.5,29.5C 86.3792,29.6747 84.3792,29.3414 82.5,28.5C 81.8333,27.5 81.1667,26.5 80.5,25.5C 76.8333,17.5 73.1667,9.5 69.5,1.5 Z"/></g>
<g><path style="opacity:0.915" fill="#605260" d="M 36.5,7.5 C 38.4668,9.49336 40.4668,11.4934 42.5,13.5C 40.7813,15.3522 38.7813,16.6855 36.5,17.5C 25.8878,16.0651 15.2211,14.8984 4.5,14C 2.11441,13.7165 1.44774,12.7165 2.5,11C 13.8484,9.89852 25.1817,8.73185 36.5,7.5 Z"/></g>
<g><path style="opacity:1" fill="#5e4b53" d="M 53.5,8.5 C 53.5,10.5 52.5,11.5 50.5,11.5C 49.5655,10.4324 49.2322,9.09903 49.5,7.5C 51.099,7.23219 52.4324,7.56552 53.5,8.5 Z"/></g>
<g><path style="opacity:1" fill="#fbab5e" d="M 53.5,8.5 C 58.2573,10.0431 62.9239,11.8765 67.5,14C 69.1554,15.4443 69.822,17.2776 69.5,19.5C 67.6115,20.604 65.9448,21.9373 64.5,23.5C 61.5691,21.9092 58.9024,19.9092 56.5,17.5C 54.8061,15.1394 52.8061,13.1394 50.5,11.5C 52.5,11.5 53.5,10.5 53.5,8.5 Z"/></g>
<g><path style="opacity:1" fill="#fafcfd" d="M 69.5,19.5 C 73.3267,21.246 76.9934,23.246 80.5,25.5C 81.1667,26.5 81.8333,27.5 82.5,28.5C 75.4538,30.8526 69.4538,29.186 64.5,23.5C 65.9448,21.9373 67.6115,20.604 69.5,19.5 Z"/></g>
<g><path style="opacity:0.989" fill="#78d6ed" d="M 56.5,17.5 C 58.9024,19.9092 61.5691,21.9092 64.5,23.5C 69.4538,29.186 75.4538,30.8526 82.5,28.5C 84.3792,29.3414 86.3792,29.6747 88.5,29.5C 94.8231,30.841 100.156,33.841 104.5,38.5C 103.876,38.9169 103.543,39.5836 103.5,40.5C 107,54.5 110.5,68.5 114,82.5C 114.333,89.8333 114.667,97.1667 115,104.5C 117.635,112.041 119.802,119.707 121.5,127.5C 120.167,127.5 118.833,127.5 117.5,127.5C 112.17,123.526 108.837,118.193 107.5,111.5C 105.557,105.338 103.224,99.3376 100.5,93.5C 104.353,93.3156 106.687,91.3156 107.5,87.5C 107.965,83.2076 107.132,79.2076 105,75.5C 99.4148,66.665 94.0814,57.665 89,48.5C 86.6303,45.9614 84.1303,43.6281 81.5,41.5C 77.1805,39.0587 72.5138,37.392 67.5,36.5C 63.5691,30.3028 59.9024,23.9695 56.5,17.5 Z"/></g>
<g><path style="opacity:0.955" fill="#fcaa5b" d="M 47.5,26.5 C 49.5952,27.412 51.5952,28.5787 53.5,30C 54.1258,30.7504 54.6258,31.5838 55,32.5C 54.4401,37.9853 54.6068,43.3186 55.5,48.5C 56.3329,56.1641 59.3329,62.8308 64.5,68.5C 73.6531,75.9089 82.9864,83.0756 92.5,90C 94.8175,91.9927 97.4842,93.1594 100.5,93.5C 103.224,99.3376 105.557,105.338 107.5,111.5C 99.5,105.833 91.5,100.167 83.5,94.5C 82.4206,92.457 80.754,91.1237 78.5,90.5C 77.5,89.8333 76.5,89.1667 75.5,88.5C 74.5994,86.2729 72.9328,85.2729 70.5,85.5C 62.1493,79.6469 55.3159,72.3136 50,63.5C 44.9005,52.1138 44.4005,40.6138 48.5,29C 47.7476,28.3292 47.4142,27.4959 47.5,26.5 Z"/></g>
<g><path style="opacity:1" fill="#1eacdd" d="M 67.5,36.5 C 72.5138,37.392 77.1805,39.0587 81.5,41.5C 80.5354,42.7211 80.702,44.0544 82,45.5C 90.2744,59.7301 98.7744,73.7301 107.5,87.5C 106.687,91.3156 104.353,93.3156 100.5,93.5C 97.4842,93.1594 94.8175,91.9927 92.5,90C 82.9864,83.0756 73.6531,75.9089 64.5,68.5C 59.3329,62.8308 56.3329,56.1641 55.5,48.5C 55.2108,44.8936 55.5442,41.3936 56.5,38C 60.0257,36.6632 63.6924,36.1632 67.5,36.5 Z"/></g>
<g><path style="opacity:0.936" fill="#4bc3ef" d="M 104.5,38.5 C 106.824,41.1381 108.657,44.1381 110,47.5C 113,59.5 116,71.5 119,83.5C 119.802,88.419 119.635,93.2523 118.5,98C 121.54,107.659 123.873,117.492 125.5,127.5C 124.167,127.5 122.833,127.5 121.5,127.5C 119.802,119.707 117.635,112.041 115,104.5C 114.667,97.1667 114.333,89.8333 114,82.5C 110.5,68.5 107,54.5 103.5,40.5C 103.543,39.5836 103.876,38.9169 104.5,38.5 Z"/></g>
<g><path style="opacity:1" fill="#058edf" d="M 81.5,41.5 C 84.1303,43.6281 86.6303,45.9614 89,48.5C 94.0814,57.665 99.4148,66.665 105,75.5C 107.132,79.2076 107.965,83.2076 107.5,87.5C 98.7744,73.7301 90.2744,59.7301 82,45.5C 80.702,44.0544 80.5354,42.7211 81.5,41.5 Z"/></g>
<g><path style="opacity:0.866" fill="#ff7d92" d="M 70.5,85.5 C 72.9328,85.2729 74.5994,86.2729 75.5,88.5C 75.152,92.2577 74.4853,95.9244 73.5,99.5C 76.4676,100.467 78.4676,102.467 79.5,105.5C 79.189,106.478 78.5223,107.145 77.5,107.5C 75.0442,106.052 72.3775,105.386 69.5,105.5C 66.3154,105.611 63.3154,106.111 60.5,107C 59.0652,104.733 59.3985,102.733 61.5,101C 63.6775,99.7978 66.0108,99.2978 68.5,99.5C 69.1667,94.8333 69.8333,90.1667 70.5,85.5 Z"/></g>
<g><path style="opacity:0.853" fill="#ff5e78" d="M 78.5,90.5 C 80.754,91.1237 82.4206,92.457 83.5,94.5C 83.3225,95.6948 82.9891,96.8615 82.5,98C 84.2096,99.6111 86.0429,101.111 88,102.5C 88.9859,104.925 88.3193,106.591 86,107.5C 84.1208,105.987 81.9541,105.321 79.5,105.5C 78.4676,102.467 76.4676,100.467 73.5,99.5C 74.8333,99.5 76.1667,99.5 77.5,99.5C 77.5079,96.4552 77.8413,93.4552 78.5,90.5 Z"/></g>
</svg>
