<?xml version="1.0" encoding="UTF-8"?>
<!DOCTYPE svg PUBLIC "-//W3C//DTD SVG 1.1//EN" "http://www.w3.org/Graphics/SVG/1.1/DTD/svg11.dtd">
<svg xmlns="http://www.w3.org/2000/svg" version="1.1" width="200px" height="200px" style="shape-rendering:geometricPrecision; text-rendering:geometricPrecision; image-rendering:optimizeQuality; fill-rule:evenodd; clip-rule:evenodd" xmlns:xlink="http://www.w3.org/1999/xlink">
<g><path style="opacity:0.118" fill="#7d666c" d="M 67.5,2.5 C 65.3932,4.72667 63.0599,6.72667 60.5,8.5C 61.7791,5.34814 64.1125,3.34814 67.5,2.5 Z"/></g>
<g><path style="opacity:1" fill="#eed19a" d="M 94.5,4.5 C 98.8138,4.98538 102.147,6.98538 104.5,10.5C 100.755,12.5334 96.755,14.2001 92.5,15.5C 94.0544,14.1054 93.721,13.4387 91.5,13.5C 90.1508,13.8457 88.8175,14.179 87.5,14.5C 86.8333,14.5 86.5,14.1667 86.5,13.5C 87.1667,13.1667 87.8333,12.8333 88.5,12.5C 89.3764,12.6309 90.0431,12.2975 90.5,11.5C 88.9223,10.7022 87.2556,10.2022 85.5,10C 87.5767,9.80779 89.5767,9.30779 91.5,8.5C 92.1716,6.8405 93.1716,5.50716 94.5,4.5 Z"/></g>
<g><path style="opacity:1" fill="#bf9a66" d="M 92.5,3.5 C 93.4916,3.32842 94.1583,3.66175 94.5,4.5C 93.1716,5.50716 92.1716,6.8405 91.5,8.5C 89.5767,9.30779 87.5767,9.80779 85.5,10C 87.2556,10.2022 88.9223,10.7022 90.5,11.5C 90.0431,12.2975 89.3764,12.6309 88.5,12.5C 86.9652,11.2121 85.2985,11.2121 83.5,12.5C 84.1329,14.5193 85.1329,14.8526 86.5,13.5C 86.5,14.1667 86.8333,14.5 87.5,14.5C 85.1423,17.1017 82.6423,17.1017 80,14.5C 77.5396,15.3134 75.0396,15.9801 72.5,16.5C 69.6185,15.1419 66.6185,13.9752 63.5,13C 66.001,6.81392 70.3343,4.98059 76.5,7.5C 75.0909,7.65414 73.4242,7.82081 71.5,8C 70.6198,9.35613 70.2865,10.8561 70.5,12.5C 75.7019,13.2438 80.3686,12.0772 84.5,9C 86.5,8.66667 88.5,8.33333 90.5,8C 90.1667,7.66667 89.8333,7.33333 89.5,7C 91.0557,6.27985 92.0557,5.11318 92.5,3.5 Z"/></g>
<g><path style="opacity:1" fill="#452c19" d="M 88.5,12.5 C 87.8333,12.8333 87.1667,13.1667 86.5,13.5C 85.1329,14.8526 84.1329,14.5193 83.5,12.5C 85.2985,11.2121 86.9652,11.2121 88.5,12.5 Z"/></g>
<g><path style="opacity:0.8" fill="#524849" d="M 92.5,15.5 C 91.2862,18.9302 89.7862,22.2635 88,25.5C 87.5034,27.8098 87.3367,30.1432 87.5,32.5C 86.7561,29.6404 86.0894,26.6404 85.5,23.5C 88.3065,21.201 90.6398,18.5344 92.5,15.5 Z"/></g>
<g><path style="opacity:1" fill="#1d1111" d="M 92.5,3.5 C 92.0557,5.11318 91.0557,6.27985 89.5,7C 89.8333,7.33333 90.1667,7.66667 90.5,8C 88.5,8.33333 86.5,8.66667 84.5,9C 80.3686,12.0772 75.7019,13.2438 70.5,12.5C 70.2865,10.8561 70.6198,9.35613 71.5,8C 73.4242,7.82081 75.0909,7.65414 76.5,7.5C 70.3343,4.98059 66.001,6.81392 63.5,13C 66.6185,13.9752 69.6185,15.1419 72.5,16.5C 75.0396,15.9801 77.5396,15.3134 80,14.5C 82.6423,17.1017 85.1423,17.1017 87.5,14.5C 88.8175,14.179 90.1508,13.8457 91.5,13.5C 93.721,13.4387 94.0544,14.1054 92.5,15.5C 90.6398,18.5344 88.3065,21.201 85.5,23.5C 86.0894,26.6404 86.7561,29.6404 87.5,32.5C 91.5734,38.9697 95.9067,45.3031 100.5,51.5C 100.539,52.5832 100.873,53.5832 101.5,54.5C 99.7941,54.8987 98.2941,54.8987 97,54.5C 95.9125,52.0684 95.4125,52.4017 95.5,55.5C 84.495,55.6665 73.495,55.4998 62.5,55C 63.1667,54.6667 63.8333,54.3333 64.5,54C 62.9963,52.5093 62.1629,50.676 62,48.5C 61.2303,47.4019 60.397,47.4019 59.5,48.5C 58.8333,47.5 58.1667,46.5 57.5,45.5C 56.71,44.3915 56.21,43.0581 56,41.5C 55.3333,35.1667 55.3333,28.8333 56,22.5C 56.5949,17.4227 58.0949,12.756 60.5,8.5C 63.0599,6.72667 65.3932,4.72667 67.5,2.5C 73.9618,0.461563 80.6285,-0.0384366 87.5,1C 89.4913,1.37362 91.158,2.20695 92.5,3.5 Z"/></g>
<g><path style="opacity:0.145" fill="#705a5f" d="M 57.5,45.5 C 58.1667,46.5 58.8333,47.5 59.5,48.5C 59.9679,52.9415 58.9679,56.9415 56.5,60.5C 56.1667,60.5 55.8333,60.5 55.5,60.5C 58.494,55.8514 59.1606,50.8514 57.5,45.5 Z"/></g>
<g><path style="opacity:1" fill="#2c1c1c" d="M 100.5,51.5 C 102.262,52.2623 103.262,53.5956 103.5,55.5C 104.219,57.7638 104.552,60.0971 104.5,62.5C 103.288,61.7701 102.288,60.7701 101.5,59.5C 99.556,60.1892 97.556,60.6892 95.5,61C 95.9574,61.414 96.2907,61.914 96.5,62.5C 93.8434,63.2592 91.1767,63.9258 88.5,64.5C 83.0246,63.2399 77.5246,63.2399 72,64.5C 68.111,64.2328 64.4443,63.2328 61,61.5C 59.0374,63.016 57.5374,62.6827 56.5,60.5C 58.9679,56.9415 59.9679,52.9415 59.5,48.5C 60.397,47.4019 61.2303,47.4019 62,48.5C 62.1629,50.676 62.9963,52.5093 64.5,54C 63.8333,54.3333 63.1667,54.6667 62.5,55C 73.495,55.4998 84.495,55.6665 95.5,55.5C 95.4125,52.4017 95.9125,52.0684 97,54.5C 98.2941,54.8987 99.7941,54.8987 101.5,54.5C 100.873,53.5832 100.539,52.5832 100.5,51.5 Z"/></g>
<g><path style="opacity:1" fill="#382924" d="M 104.5,62.5 C 103.529,64.4832 102.529,66.4832 101.5,68.5C 98.1406,66.8463 96.1406,67.8463 95.5,71.5C 84.1618,71.3335 72.8284,71.5001 61.5,72C 60.2283,73.3068 59.2283,74.8068 58.5,76.5C 57.2528,74.9936 57.2528,73.4936 58.5,72C 57.4232,71.5304 56.4232,71.6971 55.5,72.5C 54.5863,69.272 54.2529,65.9387 54.5,62.5C 54.3284,61.5084 54.6618,60.8417 55.5,60.5C 55.8333,60.5 56.1667,60.5 56.5,60.5C 57.5374,62.6827 59.0374,63.016 61,61.5C 64.4443,63.2328 68.111,64.2328 72,64.5C 77.5246,63.2399 83.0246,63.2399 88.5,64.5C 91.1767,63.9258 93.8434,63.2592 96.5,62.5C 96.2907,61.914 95.9574,61.414 95.5,61C 97.556,60.6892 99.556,60.1892 101.5,59.5C 102.288,60.7701 103.288,61.7701 104.5,62.5 Z"/></g>
<g><path style="opacity:1" fill="#3d231c" d="M 109.5,63.5 C 118.494,71.1458 124.161,80.8125 126.5,92.5C 126.747,95.8539 127.747,98.8539 129.5,101.5C 129.704,104.518 130.037,107.518 130.5,110.5C 128.818,109.173 127.485,107.506 126.5,105.5C 124.547,101.88 121.881,98.8797 118.5,96.5C 114.235,92.7282 111.402,88.0615 110,82.5C 109.421,75.8551 108.254,69.3551 106.5,63C 107.577,62.5304 108.577,62.6971 109.5,63.5 Z"/></g>
<g><path style="opacity:1" fill="#493631" d="M 101.5,68.5 C 99.3208,72.274 97.3208,75.9407 95.5,79.5C 92.2123,79.073 89.2123,79.7397 86.5,81.5C 81.6105,78.3237 77.2772,78.8237 73.5,83C 72,83.1667 70.5,83.3333 69,83.5C 67.0194,83.3708 65.3528,82.7042 64,81.5C 63.043,83.7092 61.8764,83.5425 60.5,81C 60.8333,80.6667 61.1667,80.3333 61.5,80C 57.9061,78.7759 55.9061,76.2759 55.5,72.5C 56.4232,71.6971 57.4232,71.5304 58.5,72C 57.2528,73.4936 57.2528,74.9936 58.5,76.5C 59.2283,74.8068 60.2283,73.3068 61.5,72C 72.8284,71.5001 84.1618,71.3335 95.5,71.5C 96.1406,67.8463 98.1406,66.8463 101.5,68.5 Z"/></g>
<g><path style="opacity:1" fill="#5d4238" d="M 103.5,55.5 C 105.878,57.8785 107.878,60.5451 109.5,63.5C 108.577,62.6971 107.577,62.5304 106.5,63C 108.254,69.3551 109.421,75.8551 110,82.5C 111.402,88.0615 114.235,92.7282 118.5,96.5C 118.5,96.8333 118.5,97.1667 118.5,97.5C 116.493,96.3215 116.16,96.8215 117.5,99C 116.01,100.634 114.676,100.301 113.5,98C 113.957,97.586 114.291,97.086 114.5,96.5C 112.704,95.8586 111.204,94.8586 110,93.5C 106.58,95.1225 102.913,96.1225 99,96.5C 97.9505,95.4829 96.7839,95.3162 95.5,96C 96.841,99.2617 96.5076,99.7617 94.5,97.5C 92.2011,98.6351 90.0344,99.9684 88,101.5C 87.7811,100.062 87.2811,98.7287 86.5,97.5C 85.6919,97.8076 85.0253,98.3076 84.5,99C 80.1667,99.3333 75.8333,99.6667 71.5,100C 68.8179,102.839 65.4845,104.339 61.5,104.5C 59.7581,101.855 59.0914,98.8555 59.5,95.5C 63.5,95.5 67.5,95.5 71.5,95.5C 71.5,94.1667 71.5,92.8333 71.5,91.5C 74.8981,91.8583 78.0647,91.1916 81,89.5C 87.1385,93.1045 91.8052,91.7712 95,85.5C 95.4955,83.5273 95.6621,81.5273 95.5,79.5C 97.3208,75.9407 99.3208,72.274 101.5,68.5C 102.529,66.4832 103.529,64.4832 104.5,62.5C 104.552,60.0971 104.219,57.7638 103.5,55.5 Z"/></g>
<g><path style="opacity:1" fill="#5f4540" d="M 54.5,62.5 C 54.2529,65.9387 54.5863,69.272 55.5,72.5C 55.9061,76.2759 57.9061,78.7759 61.5,80C 61.1667,80.3333 60.8333,80.6667 60.5,81C 61.8764,83.5425 63.043,83.7092 64,81.5C 65.3528,82.7042 67.0194,83.3708 69,83.5C 70.5,83.3333 72,83.1667 73.5,83C 77.2772,78.8237 81.6105,78.3237 86.5,81.5C 89.2123,79.7397 92.2123,79.073 95.5,79.5C 95.6621,81.5273 95.4955,83.5273 95,85.5C 91.8052,91.7712 87.1385,93.1045 81,89.5C 78.0647,91.1916 74.8981,91.8583 71.5,91.5C 71.5,92.8333 71.5,94.1667 71.5,95.5C 67.5,95.5 63.5,95.5 59.5,95.5C 59.0914,98.8555 59.7581,101.855 61.5,104.5C 61.5106,106.017 62.1772,107.184 63.5,108C 62.5842,108.278 61.9175,108.778 61.5,109.5C 52.3862,97.6558 48.8862,84.3225 51,69.5C 52.2126,67.0748 53.3793,64.7415 54.5,62.5 Z"/></g>
<g><path style="opacity:1" fill="#5a3a30" d="M 118.5,97.5 C 120.597,101.372 122.931,105.039 125.5,108.5C 124.624,108.369 123.957,108.702 123.5,109.5C 126.29,115.009 128.623,120.675 130.5,126.5C 129.599,127.29 128.932,128.29 128.5,129.5C 128.167,129.5 127.833,129.5 127.5,129.5C 126.681,126.695 126.181,123.695 126,120.5C 125.667,120.833 125.333,121.167 125,121.5C 121.193,120.191 119.026,117.524 118.5,113.5C 119.544,111.232 119.711,108.899 119,106.5C 116.008,104.674 113.508,102.341 111.5,99.5C 110.378,98.8442 109.045,98.5108 107.5,98.5C 103.751,100.706 99.7514,102.372 95.5,103.5C 95.5,104.833 95.5,106.167 95.5,107.5C 91.4068,107.522 87.4068,108.189 83.5,109.5C 81.9002,109.449 80.4002,109.116 79,108.5C 75.5582,110.853 71.7249,112.02 67.5,112C 67.1667,112.333 66.8333,112.667 66.5,113C 68.1793,115.565 68.846,118.398 68.5,121.5C 65.3768,118.024 63.0435,114.024 61.5,109.5C 61.9175,108.778 62.5842,108.278 63.5,108C 62.1772,107.184 61.5106,106.017 61.5,104.5C 65.4845,104.339 68.8179,102.839 71.5,100C 75.8333,99.6667 80.1667,99.3333 84.5,99C 85.0253,98.3076 85.6919,97.8076 86.5,97.5C 87.2811,98.7287 87.7811,100.062 88,101.5C 90.0344,99.9684 92.2011,98.6351 94.5,97.5C 96.5076,99.7617 96.841,99.2617 95.5,96C 96.7839,95.3162 97.9505,95.4829 99,96.5C 102.913,96.1225 106.58,95.1225 110,93.5C 111.204,94.8586 112.704,95.8586 114.5,96.5C 114.291,97.086 113.957,97.586 113.5,98C 114.676,100.301 116.01,100.634 117.5,99C 116.16,96.8215 116.493,96.3215 118.5,97.5 Z"/></g>
<g><path style="opacity:1" fill="#59362b" d="M 111.5,99.5 C 111.414,100.496 111.748,101.329 112.5,102C 111.906,109.164 111.072,116.331 110,123.5C 106.339,119.172 102.339,115.172 98,111.5C 97.0546,111.905 96.3879,112.572 96,113.5C 95.6667,112.833 95.3333,112.167 95,111.5C 94.2798,113.056 93.1132,114.056 91.5,114.5C 89.2776,114.822 87.4443,114.155 86,112.5C 84.9887,113.337 83.8221,113.67 82.5,113.5C 82.064,117.911 82.064,122.244 82.5,126.5C 81.5,127.167 80.5,127.833 79.5,128.5C 82.4612,130.796 85.4612,132.796 88.5,134.5C 86.8546,135.479 85.5213,136.812 84.5,138.5C 83.5224,138.023 82.6891,137.357 82,136.5C 80.0662,138.419 80.2329,139.919 82.5,141C 81.7476,141.671 81.4142,142.504 81.5,143.5C 76.666,136.504 72.3327,129.171 68.5,121.5C 68.846,118.398 68.1793,115.565 66.5,113C 66.8333,112.667 67.1667,112.333 67.5,112C 71.7249,112.02 75.5582,110.853 79,108.5C 80.4002,109.116 81.9002,109.449 83.5,109.5C 87.4068,108.189 91.4068,107.522 95.5,107.5C 95.5,106.167 95.5,104.833 95.5,103.5C 99.7514,102.372 103.751,100.706 107.5,98.5C 109.045,98.5108 110.378,98.8442 111.5,99.5 Z"/></g>
<g><path style="opacity:0.086" fill="#8d7379" d="M 126.5,92.5 C 128.253,95.1461 129.253,98.1461 129.5,101.5C 127.747,98.8539 126.747,95.8539 126.5,92.5 Z"/></g>
<g><path style="opacity:1" fill="#563427" d="M 111.5,99.5 C 113.508,102.341 116.008,104.674 119,106.5C 119.711,108.899 119.544,111.232 118.5,113.5C 119.026,117.524 121.193,120.191 125,121.5C 125.333,121.167 125.667,120.833 126,120.5C 126.181,123.695 126.681,126.695 127.5,129.5C 124.602,134.379 121.769,134.379 119,129.5C 118.505,131.473 118.338,133.473 118.5,135.5C 117.527,137.948 117.194,140.615 117.5,143.5C 115.05,143.298 112.717,143.631 110.5,144.5C 110.88,139.193 109.88,134.193 107.5,129.5C 105.723,128.4 103.723,127.566 101.5,127C 97.8992,122.915 94.5659,118.749 91.5,114.5C 93.1132,114.056 94.2798,113.056 95,111.5C 95.3333,112.167 95.6667,112.833 96,113.5C 96.3879,112.572 97.0546,111.905 98,111.5C 102.339,115.172 106.339,119.172 110,123.5C 111.072,116.331 111.906,109.164 112.5,102C 111.748,101.329 111.414,100.496 111.5,99.5 Z"/></g>
<g><path style="opacity:1" fill="#b9a5a1" d="M 118.5,96.5 C 121.881,98.8797 124.547,101.88 126.5,105.5C 126.737,106.791 126.404,107.791 125.5,108.5C 122.931,105.039 120.597,101.372 118.5,97.5C 118.5,97.1667 118.5,96.8333 118.5,96.5 Z"/></g>
<g><path style="opacity:0.125" fill="#866c6d" d="M 129.5,101.5 C 130.913,104.219 131.58,107.219 131.5,110.5C 131.167,110.5 130.833,110.5 130.5,110.5C 130.037,107.518 129.704,104.518 129.5,101.5 Z"/></g>
<g><path style="opacity:0.993" fill="#1b0a09" d="M 126.5,105.5 C 127.485,107.506 128.818,109.173 130.5,110.5C 130.833,110.5 131.167,110.5 131.5,110.5C 131.765,116.383 132.431,122.216 133.5,128C 133.43,128.765 133.097,129.265 132.5,129.5C 131.599,128.71 130.932,127.71 130.5,126.5C 128.623,120.675 126.29,115.009 123.5,109.5C 123.957,108.702 124.624,108.369 125.5,108.5C 126.404,107.791 126.737,106.791 126.5,105.5 Z"/></g>
<g><path style="opacity:1" fill="#724e38" d="M 91.5,114.5 C 94.5659,118.749 97.8992,122.915 101.5,127C 103.723,127.566 105.723,128.4 107.5,129.5C 106.778,129.918 106.278,130.584 106,131.5C 105.692,130.692 105.192,130.025 104.5,129.5C 99.9205,132.598 94.9205,134.265 89.5,134.5C 89.5,136.5 89.5,138.5 89.5,140.5C 88.5386,138.735 88.2053,136.735 88.5,134.5C 85.4612,132.796 82.4612,130.796 79.5,128.5C 80.5,127.833 81.5,127.167 82.5,126.5C 82.064,122.244 82.064,117.911 82.5,113.5C 83.8221,113.67 84.9887,113.337 86,112.5C 87.4443,114.155 89.2776,114.822 91.5,114.5 Z"/></g>
<g><path style="opacity:0.896" fill="#46383c" d="M 131.5,110.5 C 132.553,117.7 134.22,124.866 136.5,132C 136.257,132.902 135.923,133.735 135.5,134.5C 133.592,133.514 132.592,131.848 132.5,129.5C 133.097,129.265 133.43,128.765 133.5,128C 132.431,122.216 131.765,116.383 131.5,110.5 Z"/></g>
<g><path style="opacity:1" fill="#91776b" d="M 107.5,129.5 C 109.88,134.193 110.88,139.193 110.5,144.5C 110.183,148.702 110.517,152.702 111.5,156.5C 111.672,157.492 111.338,158.158 110.5,158.5C 109.675,154.353 109.175,150.019 109,145.5C 105.796,142.631 102.963,139.465 100.5,136C 96.9137,134.892 93.247,134.392 89.5,134.5C 94.9205,134.265 99.9205,132.598 104.5,129.5C 105.192,130.025 105.692,130.692 106,131.5C 106.278,130.584 106.778,129.918 107.5,129.5 Z"/></g>
<g><path style="opacity:1" fill="#322019" d="M 118.5,135.5 C 118.334,141.509 118.501,147.509 119,153.5C 119.708,154.381 120.542,155.047 121.5,155.5C 120.432,156.434 119.099,156.768 117.5,156.5C 117.737,157.791 117.404,158.791 116.5,159.5C 115.163,158.685 114.163,157.518 113.5,156C 112.563,155.308 111.897,155.475 111.5,156.5C 110.517,152.702 110.183,148.702 110.5,144.5C 112.717,143.631 115.05,143.298 117.5,143.5C 117.194,140.615 117.527,137.948 118.5,135.5 Z"/></g>
<g><path style="opacity:1" fill="#aa9d93" d="M 127.5,129.5 C 127.833,129.5 128.167,129.5 128.5,129.5C 130.471,133.707 131.137,138.041 130.5,142.5C 129.675,143.386 128.675,143.719 127.5,143.5C 127.5,144.5 127.5,145.5 127.5,146.5C 126.178,146.33 125.011,146.663 124,147.5C 123.293,149.081 122.46,150.581 121.5,152C 122.167,152.333 122.833,152.667 123.5,153C 122.244,153.417 121.577,154.25 121.5,155.5C 120.542,155.047 119.708,154.381 119,153.5C 118.501,147.509 118.334,141.509 118.5,135.5C 118.338,133.473 118.505,131.473 119,129.5C 121.769,134.379 124.602,134.379 127.5,129.5 Z"/></g>
<g><path style="opacity:1" fill="#161213" d="M 138.5,145.5 C 140.794,148.37 142.128,151.703 142.5,155.5C 140.531,155.363 138.364,155.696 136,156.5C 135.5,154 135,151.5 134.5,149C 134.955,147.276 135.788,145.776 137,144.5C 137.383,145.056 137.883,145.389 138.5,145.5 Z"/></g>
<g><path style="opacity:0.596" fill="#3a221e" d="M 88.5,134.5 C 88.2053,136.735 88.5386,138.735 89.5,140.5C 90.6737,141.514 91.3404,142.847 91.5,144.5C 91.9244,148.034 92.5911,151.534 93.5,155C 93.3517,156.256 93.0184,157.423 92.5,158.5C 91.2921,159.234 89.9587,159.567 88.5,159.5C 86.2028,154.23 83.8694,148.897 81.5,143.5C 81.4142,142.504 81.7476,141.671 82.5,141C 80.2329,139.919 80.0662,138.419 82,136.5C 82.6891,137.357 83.5224,138.023 84.5,138.5C 85.5213,136.812 86.8546,135.479 88.5,134.5 Z"/></g>
<g><path style="opacity:0.075" fill="#7c6863" d="M 91.5,144.5 C 93.7349,148.787 94.7349,153.454 94.5,158.5C 93.8333,158.5 93.1667,158.5 92.5,158.5C 93.0184,157.423 93.3517,156.256 93.5,155C 92.5911,151.534 91.9244,148.034 91.5,144.5 Z"/></g>
<g><path style="opacity:0.722" fill="#eecd84" d="M 116.5,159.5 C 116.259,161.886 116.925,163.886 118.5,165.5C 117.25,165.577 116.417,166.244 116,167.5C 114.911,173.472 114.077,179.472 113.5,185.5C 112.781,188.073 111.781,190.573 110.5,193C 106.644,193.177 102.977,193.677 99.5,194.5C 98.8333,194.167 98.1667,193.833 97.5,193.5C 96.2804,191.718 95.6138,189.718 95.5,187.5C 97.924,187.808 100.257,187.474 102.5,186.5C 103.127,185.583 103.461,184.583 103.5,183.5C 105.129,182.375 106.629,181.041 108,179.5C 108.781,172.44 109.614,165.44 110.5,158.5C 111.338,158.158 111.672,157.492 111.5,156.5C 111.897,155.475 112.563,155.308 113.5,156C 114.163,157.518 115.163,158.685 116.5,159.5 Z"/></g>
<g><path style="opacity:0.847" fill="#bfb9ba" d="M 130.5,126.5 C 130.932,127.71 131.599,128.71 132.5,129.5C 132.592,131.848 133.592,133.514 135.5,134.5C 136.035,138.309 137.035,141.976 138.5,145.5C 137.883,145.389 137.383,145.056 137,144.5C 135.788,145.776 134.955,147.276 134.5,149C 135,151.5 135.5,154 136,156.5C 138.364,155.696 140.531,155.363 142.5,155.5C 146.05,160.098 148.717,165.264 150.5,171C 149.833,172.333 149.167,173.667 148.5,175C 145.049,175.473 141.715,174.973 138.5,173.5C 129.433,177.144 122.766,174.478 118.5,165.5C 116.925,163.886 116.259,161.886 116.5,159.5C 117.404,158.791 117.737,157.791 117.5,156.5C 119.099,156.768 120.432,156.434 121.5,155.5C 121.577,154.25 122.244,153.417 123.5,153C 122.833,152.667 122.167,152.333 121.5,152C 122.46,150.581 123.293,149.081 124,147.5C 125.011,146.663 126.178,146.33 127.5,146.5C 127.5,145.5 127.5,144.5 127.5,143.5C 128.675,143.719 129.675,143.386 130.5,142.5C 131.137,138.041 130.471,133.707 128.5,129.5C 128.932,128.29 129.599,127.29 130.5,126.5 Z"/></g>
<g><path style="opacity:0.639" fill="#e4c587" d="M 92.5,158.5 C 93.1667,158.5 93.8333,158.5 94.5,158.5C 94.7744,163.263 94.441,167.93 93.5,172.5C 92.6753,176.647 92.1753,180.981 92,185.5C 91.6232,186.942 90.7899,187.942 89.5,188.5C 89.719,189.675 89.3857,190.675 88.5,191.5C 85.8332,192.123 83.3332,193.123 81,194.5C 78.5714,193.971 76.7381,192.637 75.5,190.5C 76.9527,188.815 78.286,187.149 79.5,185.5C 83.0198,184.817 85.5198,182.817 87,179.5C 87.286,172.8 87.786,166.133 88.5,159.5C 89.9587,159.567 91.2921,159.234 92.5,158.5 Z"/></g>
<g><path style="opacity:0.918" fill="#f4ce74" d="M 89.5,188.5 C 88.2209,189.968 86.5542,190.635 84.5,190.5C 83.4269,186.29 84.9269,182.957 89,180.5C 89.1691,173.809 89.6691,167.142 90.5,160.5C 92.0493,169.974 91.716,179.307 89.5,188.5 Z"/></g>
<g><path style="opacity:0.537" fill="#cfb99a" d="M 113.5,199.5 C 112.5,199.5 111.5,199.5 110.5,199.5C 110.142,197.299 108.808,195.965 106.5,195.5C 104.712,196.283 103.712,197.616 103.5,199.5C 102.167,199.5 100.833,199.5 99.5,199.5C 99.5,197.833 99.5,196.167 99.5,194.5C 102.977,193.677 106.644,193.177 110.5,193C 111.781,190.573 112.781,188.073 113.5,185.5C 115.582,185.528 117.416,184.861 119,183.5C 121.382,184.554 123.882,185.221 126.5,185.5C 126.5,186.5 126.5,187.5 126.5,188.5C 123.245,188.014 120.578,189.014 118.5,191.5C 116.922,190.36 115.256,189.86 113.5,190C 113.071,193.047 113.071,196.214 113.5,199.5 Z"/></g>
<g><path style="opacity:0.1" fill="#c9b698" d="M 93.5,172.5 C 93.2493,175.909 93.5827,179.242 94.5,182.5C 97.2947,184.688 100.295,185.021 103.5,183.5C 103.461,184.583 103.127,185.583 102.5,186.5C 100.257,187.474 97.924,187.808 95.5,187.5C 95.6138,189.718 96.2804,191.718 97.5,193.5C 96.0072,194.445 94.5072,195.445 93,196.5C 91.469,195.783 90.1357,194.783 89,193.5C 87.6988,194.098 86.8655,195.098 86.5,196.5C 84.9936,197.747 83.4936,197.747 82,196.5C 80.955,197.373 80.1217,198.373 79.5,199.5C 79.1667,199.5 78.8333,199.5 78.5,199.5C 77.3129,198.466 76.4796,197.133 76,195.5C 74.9887,196.337 73.8221,196.67 72.5,196.5C 71.9546,191.038 74.2879,187.371 79.5,185.5C 78.286,187.149 76.9527,188.815 75.5,190.5C 76.7381,192.637 78.5714,193.971 81,194.5C 83.3332,193.123 85.8332,192.123 88.5,191.5C 89.3857,190.675 89.719,189.675 89.5,188.5C 90.7899,187.942 91.6232,186.942 92,185.5C 92.1753,180.981 92.6753,176.647 93.5,172.5 Z"/></g>
</svg>
