<?xml version="1.0" encoding="UTF-8"?>
<!DOCTYPE svg PUBLIC "-//W3C//DTD SVG 1.1//EN" "http://www.w3.org/Graphics/SVG/1.1/DTD/svg11.dtd">
<svg xmlns="http://www.w3.org/2000/svg" version="1.1" width="128px" height="128px" style="shape-rendering:geometricPrecision; text-rendering:geometricPrecision; image-rendering:optimizeQuality; fill-rule:evenodd; clip-rule:evenodd" xmlns:xlink="http://www.w3.org/1999/xlink">
<g><path style="opacity:0.834" fill="#0b0807" d="M 26.5,-0.5 C 29.5,-0.5 32.5,-0.5 35.5,-0.5C 39.2547,1.6754 40.9214,5.00873 40.5,9.5C 40.0822,13.8427 39.5822,18.176 39,22.5C 36.4674,28.4324 34.1341,34.4324 32,40.5C 30.7925,44.722 32.2925,47.3887 36.5,48.5C 40.6805,48.0828 45.0138,47.2494 49.5,46C 59.6756,44.3994 68.6756,46.8994 76.5,53.5C 79.8397,50.0166 82.8397,46.1832 85.5,42C 91.8369,38.028 98.5036,37.6947 105.5,41C 108.978,45.9956 111.645,51.4956 113.5,57.5C 112.96,58.7481 112.293,59.9148 111.5,61C 107.908,61.3973 104.408,60.8973 101,59.5C 96.5997,60.1453 92.433,61.4786 88.5,63.5C 85.5567,69.2169 82.2234,74.7169 78.5,80C 80.6246,81.7373 81.458,83.904 81,86.5C 77.2546,87.297 73.4213,87.797 69.5,88C 71.7396,91.4741 73.4063,95.1408 74.5,99C 72.8357,105.995 71.169,112.995 69.5,120C 72.3953,121.929 73.3953,124.429 72.5,127.5C 62.8333,127.5 53.1667,127.5 43.5,127.5C 42.621,121.043 45.621,118.043 52.5,118.5C 53.4439,112.67 54.4439,106.837 55.5,101C 52.0612,96.6424 48.7279,92.1424 45.5,87.5C 42.5,86 39.5,84.5 36.5,83C 30.9026,76.5291 25.2359,70.3625 19.5,64.5C 19.9324,56.0066 20.0991,47.3399 20,38.5C 22.3617,32.2767 24.8617,26.11 27.5,20C 24.8287,14.8274 20.4954,12.4941 14.5,13C 13.7433,10.1524 14.7433,7.81902 17.5,6C 21.4996,5.16026 24.4996,2.99359 26.5,-0.5 Z"/></g>
<g><path style="opacity:1" fill="#ed7a7a" d="M 27.5,2.5 C 33.4346,0.962504 36.7679,3.12917 37.5,9C 36.9269,13.1576 36.4269,17.3243 36,21.5C 33.9429,27.2808 31.6096,32.9474 29,38.5C 28.8191,43.7056 27.9857,48.7056 26.5,53.5C 24.8762,53.6399 23.7096,52.9733 23,51.5C 22.3333,47.1667 22.3333,42.8333 23,38.5C 25.369,32.2645 27.869,26.0978 30.5,20C 29.9013,17.3079 28.9013,14.8079 27.5,12.5C 28.4655,10.4279 29.9655,8.7612 32,7.5C 34.8099,10.1973 35.6433,9.6973 34.5,6C 31.4718,4.86031 29.3051,5.69364 28,8.5C 24.8981,6.66274 24.7314,4.66274 27.5,2.5 Z"/></g>
<g><path style="opacity:1" fill="#d0d1d1" d="M 85.5,52.5 C 84.2334,53.087 83.2334,53.087 82.5,52.5C 84.7316,46.0755 89.0649,42.5755 95.5,42C 90.5902,44.0746 87.2569,47.5746 85.5,52.5 Z"/></g>
<g><path style="opacity:1" fill="#505458" d="M 48.5,48.5 C 59.2822,47.5948 68.7822,50.5948 77,57.5C 78.2613,57.2409 79.2613,56.5742 80,55.5C 81.3333,56.8333 82.6667,56.8333 84,55.5C 84.3603,57.4211 85.1936,59.0878 86.5,60.5C 83.5143,66.4688 80.0143,72.1355 76,77.5C 72.8039,72.9788 69.6372,68.4788 66.5,64C 63.9865,62.7475 61.3198,62.2475 58.5,62.5C 58.5,63.5 58.5,64.5 58.5,65.5C 63.5569,66.1237 64.2236,67.7904 60.5,70.5C 67.6081,72.44 67.9415,74.6067 61.5,77C 63.6234,78.1937 65.9568,78.8603 68.5,79C 69.8613,80.5843 70.528,82.4176 70.5,84.5C 57.7239,86.0227 47.5572,81.6893 40,71.5C 39.1611,67.3893 38.1611,63.3893 37,59.5C 34.9707,68.9671 38.1374,76.4671 46.5,82C 55.7638,85.4505 55.4305,86.1172 45.5,84C 38.2584,81.222 32.925,76.3887 29.5,69.5C 28.675,68.6143 27.675,68.281 26.5,68.5C 26.5,67.5 26.5,66.5 26.5,65.5C 22.4589,65.4983 21.7923,64.165 24.5,61.5C 21.7227,57.2449 23.056,55.5782 28.5,56.5C 28.2499,49.6954 30.5832,48.3621 35.5,52.5C 40.2238,52.0795 44.5571,50.7462 48.5,48.5 Z"/></g>
<g><path style="opacity:1" fill="#d1d2d3" d="M 85.5,52.5 C 88.8991,50.6117 91.8991,48.1117 94.5,45C 97.2417,43.177 100.075,42.677 103,43.5C 103.749,44.635 103.583,45.635 102.5,46.5C 97.408,47.5441 93.0747,49.8774 89.5,53.5C 90.365,54.5827 91.365,54.7494 92.5,54C 96.6951,50.0242 101.695,48.5242 107.5,49.5C 107.413,52.7387 108.08,55.7387 109.5,58.5C 102.853,56.8714 96.3533,57.2047 90,59.5C 88.2228,57.3171 86.7228,54.9838 85.5,52.5 Z"/></g>
<g><path style="opacity:1" fill="#bdbebf" d="M 65.5,67.5 C 66.2891,67.7828 66.9558,68.2828 67.5,69C 66.184,69.5281 65.5173,69.0281 65.5,67.5 Z"/></g>
<g><path style="opacity:1" fill="#b9babb" d="M 68.5,74.5 C 69.7434,73.2625 70.7434,73.5959 71.5,75.5C 71.1667,75.8333 70.8333,76.1667 70.5,76.5C 69.8182,75.7573 69.1515,75.0906 68.5,74.5 Z"/></g>
<g><path style="opacity:1" fill="#c8c9c9" d="M 71.5,80.5 C 71.56,79.9569 71.8933,79.6236 72.5,79.5C 74.3885,80.604 76.0552,81.9373 77.5,83.5C 75.9547,84.4519 74.288,84.7852 72.5,84.5C 72.7678,82.901 72.4345,81.5676 71.5,80.5 Z"/></g>
<g><path style="opacity:1" fill="#e17474" d="M 59.5,87.5 C 61.924,87.1924 64.2573,87.5258 66.5,88.5C 68.4435,92.0528 70.1102,95.7194 71.5,99.5C 68.648,107.567 67.3147,115.733 67.5,124C 63.4589,124.827 59.4589,124.66 55.5,123.5C 56.4383,122.447 57.605,121.78 59,121.5C 60.4162,122.573 61.7496,122.573 63,121.5C 65.2058,114.104 67.0391,106.604 68.5,99C 64.5225,95.8647 61.5225,92.0313 59.5,87.5 Z"/></g>
<g><path style="opacity:1" fill="#e07373" d="M 50.5,88.5 C 52.5273,88.3379 54.5273,88.5045 56.5,89C 58.7582,92.1839 60.7582,95.5172 62.5,99C 60.5204,105.252 58.8537,111.585 57.5,118C 56.9915,119.169 56.1581,120.002 55,120.5C 55.9026,113.265 57.4026,106.098 59.5,99C 55.8926,95.9023 52.8926,92.4023 50.5,88.5 Z"/></g>
<g><path style="opacity:1" fill="#da7070" d="M 47.5,121.5 C 49.6648,121.116 51.3315,121.783 52.5,123.5C 50.2351,124.647 47.9018,124.814 45.5,124C 46.3805,123.292 47.0472,122.458 47.5,121.5 Z"/></g>
</svg>
