<?xml version="1.0" encoding="UTF-8"?>
<!DOCTYPE svg PUBLIC "-//W3C//DTD SVG 1.1//EN" "http://www.w3.org/Graphics/SVG/1.1/DTD/svg11.dtd">
<svg xmlns="http://www.w3.org/2000/svg" version="1.1" width="512px" height="512px" style="shape-rendering:geometricPrecision; text-rendering:geometricPrecision; image-rendering:optimizeQuality; fill-rule:evenodd; clip-rule:evenodd" xmlns:xlink="http://www.w3.org/1999/xlink">
<g><path style="opacity:0.98" fill="#6c392c" d="M 77.5,-0.5 C 78.1667,-0.5 78.8333,-0.5 79.5,-0.5C 85.8108,18.6484 98.8108,30.1484 118.5,34C 135.273,34.0709 151.939,35.2375 168.5,37.5C 187.846,40.0876 206.179,45.921 223.5,55C 238.531,64.5251 248.864,77.6918 254.5,94.5C 228.614,65.4202 196.614,55.5869 158.5,65C 136.865,72.8157 119.865,86.3157 107.5,105.5C 74.6974,84.5176 62.8641,54.851 72,16.5C 73.2746,10.6259 75.108,4.95922 77.5,-0.5 Z"/></g>
<g><path style="opacity:0.98" fill="#6c392c" d="M 431.5,-0.5 C 432.167,-0.5 432.833,-0.5 433.5,-0.5C 441.343,19.5968 443.176,40.2635 439,61.5C 432.61,80.6421 420.777,95.3088 403.5,105.5C 375.607,65.4104 338.274,52.9104 291.5,68C 277.967,74.4262 266.3,83.2595 256.5,94.5C 262.136,77.6918 272.469,64.5251 287.5,55C 304.676,45.4409 323.01,39.6076 342.5,37.5C 359.061,35.2375 375.727,34.0709 392.5,34C 412.189,30.1484 425.189,18.6484 431.5,-0.5 Z"/></g>
<g><path style="opacity:0.98" fill="#7a4631" d="M 342.5,37.5 C 323.01,39.6076 304.676,45.4409 287.5,55C 272.469,64.5251 262.136,77.6918 256.5,94.5C 255.833,97.1667 255.167,97.1667 254.5,94.5C 248.864,77.6918 238.531,64.5251 223.5,55C 206.179,45.921 187.846,40.0876 168.5,37.5C 195.652,23.4631 224.652,16.4631 255.5,16.5C 286.348,16.4631 315.348,23.4631 342.5,37.5 Z"/></g>
<g><path style="opacity:0.993" fill="#895438" d="M 254.5,94.5 C 255.167,97.1667 255.833,97.1667 256.5,94.5C 266.3,83.2595 277.967,74.4262 291.5,68C 338.274,52.9104 375.607,65.4104 403.5,105.5C 414.026,125.331 417.193,146.331 413,168.5C 411.147,176.395 408.314,183.895 404.5,191C 421.92,207.068 437.087,224.902 450,244.5C 458.048,257.622 460.715,271.622 458,286.5C 452.139,313.745 442.139,339.411 428,363.5C 410.899,394.048 391.566,423.048 370,450.5C 364.002,441.676 357.836,433.01 351.5,424.5C 388.445,381.041 406.445,330.541 405.5,273C 405.123,250.661 401.623,228.827 395,207.5C 394.667,207.167 394.333,206.833 394,206.5C 362.114,239.412 325.281,246.246 283.5,227C 276.934,222.253 270.268,217.753 263.5,213.5C 265.025,208.094 266.858,202.761 269,197.5C 271.245,185.988 266.578,179.321 255,177.5C 244.137,179.887 239.804,186.553 242,197.5C 244.142,202.761 245.975,208.094 247.5,213.5C 240.732,217.753 234.066,222.253 227.5,227C 212.562,235.234 196.562,238.734 179.5,237.5C 154.504,235.669 133.838,225.336 117.5,206.5C 113.577,201.64 109.91,196.64 106.5,191.5C 92.8948,162.684 93.2281,134.017 107.5,105.5C 119.865,86.3157 136.865,72.8157 158.5,65C 196.614,55.5869 228.614,65.4202 254.5,94.5 Z"/></g>
<g><path style="opacity:1" fill="#fcfbfb" d="M 175.5,105.5 C 201.801,103.393 219.301,114.726 228,139.5C 231.416,167.063 219.916,184.897 193.5,193C 167.119,195.74 149.952,184.573 142,159.5C 138.668,132.496 149.835,114.496 175.5,105.5 Z"/></g>
<g><path style="opacity:1" fill="#fcfcfb" d="M 317.5,105.5 C 348.318,104.162 365.984,118.662 370.5,149C 368.808,171.683 357.142,186.35 335.5,193C 308.886,196.043 291.386,184.877 283,159.5C 279.781,131.92 291.281,113.92 317.5,105.5 Z"/></g>
<g><path style="opacity:1" fill="#314152" d="M 177.5,123.5 C 200.344,122.181 211.511,132.847 211,155.5C 203.072,174.374 189.572,179.874 170.5,172C 157.59,161.606 155.09,149.106 163,134.5C 166.951,129.466 171.784,125.799 177.5,123.5 Z"/></g>
<g><path style="opacity:1" fill="#314152" d="M 319.5,123.5 C 335.678,121.665 346.511,128.332 352,143.5C 353.989,159.37 347.489,169.87 332.5,175C 316.333,177.335 305.5,170.835 300,155.5C 298.521,139.841 305.021,129.174 319.5,123.5 Z"/></g>
<g><path style="opacity:1" fill="#979ea7" d="M 186.5,132.5 C 198.944,131.106 203.777,136.439 201,148.5C 194.593,155.106 188.259,155.106 182,148.5C 179.556,142.006 181.056,136.672 186.5,132.5 Z"/></g>
<g><path style="opacity:1" fill="#969da6" d="M 327.5,132.5 C 339.454,130.7 344.621,135.7 343,147.5C 339.723,153.109 334.89,154.942 328.5,153C 319.685,146.576 319.352,139.742 327.5,132.5 Z"/></g>
<g><path style="opacity:1" fill="#fdb232" d="M 263.5,213.5 C 260.841,221.144 258.174,228.811 255.5,236.5C 252.826,228.811 250.159,221.144 247.5,213.5C 245.975,208.094 244.142,202.761 242,197.5C 239.804,186.553 244.137,179.887 255,177.5C 266.578,179.321 271.245,185.988 269,197.5C 266.858,202.761 265.025,208.094 263.5,213.5 Z"/></g>
<g><path style="opacity:0.98" fill="#6b382b" d="M 106.5,191.5 C 109.91,196.64 113.577,201.64 117.5,206.5C 115.689,208.385 114.522,210.719 114,213.5C 99.7837,267.446 103.45,320.113 125,371.5C 134.032,390.93 145.532,408.597 159.5,424.5C 153.164,433.01 146.998,441.676 141,450.5C 112.411,414.358 88.0775,375.358 68,333.5C 59.0179,314.229 53.5179,294.063 51.5,273C 53.2577,260.976 57.4244,249.809 64,239.5C 75.8021,221.524 89.9688,205.524 106.5,191.5 Z"/></g>
<g><path style="opacity:1" fill="#59291d" d="M 117.5,206.5 C 133.838,225.336 154.504,235.669 179.5,237.5C 182.287,238.477 185.287,238.81 188.5,238.5C 179.835,274.985 176.668,311.985 179,349.5C 181.673,388.58 197.173,421.413 225.5,448C 234.798,455.147 244.465,461.647 254.5,467.5C 242.585,467.458 230.918,465.792 219.5,462.5C 213.829,460.382 208.162,458.048 202.5,455.5C 186.258,447.873 171.925,437.54 159.5,424.5C 145.532,408.597 134.032,390.93 125,371.5C 103.45,320.113 99.7837,267.446 114,213.5C 114.522,210.719 115.689,208.385 117.5,206.5 Z"/></g>
<g><path style="opacity:0.999" fill="#6c392c" d="M 351.5,424.5 C 339.075,437.54 324.742,447.873 308.5,455.5C 303.239,457.421 297.906,459.254 292.5,461C 291.944,461.383 291.611,461.883 291.5,462.5C 279.433,466.011 267.1,467.677 254.5,467.5C 244.465,461.647 234.798,455.147 225.5,448C 197.173,421.413 181.673,388.58 179,349.5C 176.668,311.985 179.835,274.985 188.5,238.5C 185.287,238.81 182.287,238.477 179.5,237.5C 196.562,238.734 212.562,235.234 227.5,227C 234.066,222.253 240.732,217.753 247.5,213.5C 250.159,221.144 252.826,228.811 255.5,236.5C 258.174,228.811 260.841,221.144 263.5,213.5C 270.268,217.753 276.934,222.253 283.5,227C 325.281,246.246 362.114,239.412 394,206.5C 394.333,206.833 394.667,207.167 395,207.5C 401.623,228.827 405.123,250.661 405.5,273C 406.445,330.541 388.445,381.041 351.5,424.5 Z"/></g>
<g><path style="opacity:0.94" fill="#feb331" d="M 202.5,455.5 C 208.162,458.048 213.829,460.382 219.5,462.5C 214.212,475.115 204.879,483.115 191.5,486.5C 189.235,492.796 187.068,499.129 185,505.5C 183.668,507.66 182.168,509.66 180.5,511.5C 177.5,511.5 174.5,511.5 171.5,511.5C 168.816,509.305 167.15,506.472 166.5,503C 167.91,498.458 169.077,493.958 170,489.5C 165.07,497.038 159.903,504.371 154.5,511.5C 151.5,511.5 148.5,511.5 145.5,511.5C 140.338,507.624 139.171,502.624 142,496.5C 147.063,488.102 152.896,480.269 159.5,473C 162.554,470.806 165.888,469.139 169.5,468C 177.869,467.124 186.203,466.124 194.5,465C 198.224,462.716 200.891,459.549 202.5,455.5 Z"/></g>
<g><path style="opacity:0.94" fill="#feb331" d="M 308.5,455.5 C 310.109,459.549 312.776,462.716 316.5,465C 324.797,466.124 333.131,467.124 341.5,468C 345.112,469.139 348.446,470.806 351.5,473C 358.104,480.269 363.937,488.102 369,496.5C 371.829,502.624 370.662,507.624 365.5,511.5C 362.5,511.5 359.5,511.5 356.5,511.5C 351.097,504.371 345.93,497.038 341,489.5C 341.923,493.958 343.09,498.458 344.5,503C 343.85,506.472 342.184,509.305 339.5,511.5C 336.5,511.5 333.5,511.5 330.5,511.5C 328.832,509.66 327.332,507.66 326,505.5C 323.932,499.129 321.765,492.796 319.5,486.5C 306.121,483.115 296.788,475.115 291.5,462.5C 291.611,461.883 291.944,461.383 292.5,461C 297.906,459.254 303.239,457.421 308.5,455.5 Z"/></g>
</svg>
