<?xml version="1.0" encoding="UTF-8"?>
<!DOCTYPE svg PUBLIC "-//W3C//DTD SVG 1.1//EN" "http://www.w3.org/Graphics/SVG/1.1/DTD/svg11.dtd">
<svg xmlns="http://www.w3.org/2000/svg" version="1.1" width="128px" height="128px" style="shape-rendering:geometricPrecision; text-rendering:geometricPrecision; image-rendering:optimizeQuality; fill-rule:evenodd; clip-rule:evenodd" xmlns:xlink="http://www.w3.org/1999/xlink">
<g><path style="opacity:0.718" fill="#343c69" d="M 44.5,29.5 C 45.5,29.5 46.5,29.5 47.5,29.5C 47.7778,31.3464 47.1112,32.6798 45.5,33.5C 44.5713,32.3112 44.238,30.9778 44.5,29.5 Z"/></g>
<g><path style="opacity:0.768" fill="#333c6a" d="M 44.5,34.5 C 45.5,34.5 46.5,34.5 47.5,34.5C 47.8895,40.0581 49.2229,45.3914 51.5,50.5C 51,50.8333 50.5,51.1667 50,51.5C 48.5232,50.556 47.5232,49.2226 47,47.5C 45.8434,43.2177 45.0101,38.8843 44.5,34.5 Z"/></g>
<g><path style="opacity:0.787" fill="#333e69" d="M 46.5,3.5 C 51.742,3.02272 56.742,3.85605 61.5,6C 71.5457,15.2434 78.7124,26.4101 83,39.5C 86.1966,56.2688 92.0299,71.9355 100.5,86.5C 97.8015,86.5339 95.3015,85.8672 93,84.5C 94.9106,97.5552 97.4106,110.555 100.5,123.5C 99.325,123.719 98.325,123.386 97.5,122.5C 95,116.833 92.5,111.167 90,105.5C 89.7002,115.825 88.0335,116.158 85,106.5C 84.8281,109.826 84.9947,113.159 85.5,116.5C 84.5,116.5 83.5,116.5 82.5,116.5C 76.6952,101.582 72.1952,86.2488 69,70.5C 66.6506,67.9832 64.1506,65.6499 61.5,63.5C 60.4104,64.3914 60.4104,65.3914 61.5,66.5C 60.9747,67.1924 60.3081,67.6924 59.5,68C 61.5571,69.7194 63.2237,71.7194 64.5,74C 64.1501,75.2575 63.4835,75.5908 62.5,75C 56.1979,69.6991 50.1979,64.0325 44.5,58C 42.2537,56.9605 40.087,55.7938 38,54.5C 37.6258,55.4162 37.1258,56.2496 36.5,57C 39.2835,64.8578 36.6168,68.8578 28.5,69C 25.4067,62.3018 27.4067,57.6351 34.5,55C 31.5184,54.502 28.5184,54.3354 25.5,54.5C 25.5,53.5 25.5,52.5 25.5,51.5C 28.8499,51.665 32.1832,51.4983 35.5,51C 32.484,49.4714 31.1506,46.9714 31.5,43.5C 31.6667,42.1667 31.8333,40.8333 32,39.5C 35.5507,38.4608 38.5507,39.4608 41,42.5C 41.8436,46.6472 43.0103,50.6472 44.5,54.5C 45.5,55.1667 46.5,55.8333 47.5,56.5C 48.8196,54.7299 50.3196,54.3966 52,55.5C 52.7065,53.9194 53.5399,52.4194 54.5,51C 50.4985,42.6607 48.6652,33.8274 49,24.5C 47.3005,23.5939 45.4672,23.2606 43.5,23.5C 43.762,24.9778 43.4287,26.3112 42.5,27.5C 39.4261,25.1382 37.7594,21.9716 37.5,18C 38.5827,11.8385 41.5827,7.00517 46.5,3.5 Z M 52.5,60.5 C 55.2048,60.6198 55.8715,59.6198 54.5,57.5C 55,56.5 55.5,55.5 56,54.5C 56.9143,56.6641 58.081,58.6641 59.5,60.5C 58.0295,61.4167 56.5295,62.4167 55,63.5C 53.955,62.6266 53.1217,61.6266 52.5,60.5 Z"/></g>
<g><path style="opacity:1" fill="#68b666" d="M 33.5,41.5 C 38.2831,41.4486 40.4497,43.7819 40,48.5C 39.6322,47.09 38.7989,46.09 37.5,45.5C 37.5,46.8333 37.5,48.1667 37.5,49.5C 34.1064,47.8909 32.7731,45.2243 33.5,41.5 Z"/></g>
<g><path style="opacity:1" fill="#ec6b59" d="M 45.5,19.5 C 46.675,19.281 47.675,19.6143 48.5,20.5C 47.277,21.6139 45.9437,21.7805 44.5,21C 45.056,20.6174 45.3893,20.1174 45.5,19.5 Z"/></g>
<g><path style="opacity:1" fill="#e0685b" d="M 40.5,14.5 C 42.9124,14.244 44.5791,15.244 45.5,17.5C 40.3752,23.0605 38.7086,22.0605 40.5,14.5 Z"/></g>
<g><path style="opacity:1" fill="#6dc067" d="M 47.5,5.5 C 52.0803,5.11343 56.4136,5.94676 60.5,8C 68.875,16.5803 75.375,26.4136 80,37.5C 82.8446,47.8785 85.8446,58.2118 89,68.5C 91.2455,73.3257 93.7455,77.9923 96.5,82.5C 81.9565,78.1066 69.7898,69.7733 60,57.5C 53.4526,46.7693 50.4526,35.1026 51,22.5C 49.4401,17.7823 46.6068,14.1157 42.5,11.5C 43.4649,8.87238 45.1315,6.87238 47.5,5.5 Z"/></g>
<g><path style="opacity:1" fill="#3a4b69" d="M 58.5,28.5 C 63.5432,27.4308 67.3765,29.0974 70,33.5C 75.9525,41.1939 79.4525,49.8606 80.5,59.5C 66.8255,56.6591 58.1588,48.4924 54.5,35C 54.7225,32.0379 56.0558,29.8712 58.5,28.5 Z"/></g>
<g><path style="opacity:1" fill="#63b04f" d="M 59.5,29.5 C 63.0254,29.3459 65.8587,30.6792 68,33.5C 73.4175,40.6677 76.9175,48.6677 78.5,57.5C 70.8773,55.3984 64.7106,51.0651 60,44.5C 55.8081,39.4587 55.6414,34.4587 59.5,29.5 Z"/></g>
<g><path style="opacity:1" fill="#f1f9f0" d="M 63.5,19.5 C 67.8488,21.5203 70.8488,24.8537 72.5,29.5C 72.1667,29.8333 71.8333,30.1667 71.5,30.5C 68.582,26.9895 65.9154,23.3228 63.5,19.5 Z"/></g>
<g><path style="opacity:1" fill="#f3faf2" d="M 60.5,13.5 C 62.4759,14.4271 62.8092,15.7605 61.5,17.5C 60.5713,16.3112 60.238,14.9778 60.5,13.5 Z"/></g>
<g><path style="opacity:1" fill="#3a4c6a" d="M 49.5,8.5 C 52.8606,9.20318 53.1939,10.5365 50.5,12.5C 48.3576,11.5629 48.0243,10.2296 49.5,8.5 Z"/></g>
<g><path style="opacity:0.585" fill="#323b6b" d="M 92.5,60.5 C 90.5241,59.5729 90.1908,58.2395 91.5,56.5C 93.6424,57.4371 93.9757,58.7704 92.5,60.5 Z"/></g>
<g><path style="opacity:1" fill="#68b666" d="M 31.5,58.5 C 32.2389,58.369 32.9056,58.5357 33.5,59C 30.9603,66.0306 31.4603,66.1973 35,59.5C 35.87,64.1073 34.0367,66.7739 29.5,67.5C 29.0653,64.1625 29.7319,61.1625 31.5,58.5 Z"/></g>
<g><path style="opacity:0.846" fill="#323a6c" d="M 92.5,60.5 C 95.7708,65.0177 98.6042,70.0177 101,75.5C 101.749,76.635 101.583,77.635 100.5,78.5C 95.7132,73.4841 93.0466,67.4841 92.5,60.5 Z"/></g>
<g><path style="opacity:1" fill="#61ac50" d="M 72.5,72.5 C 77.9745,76.0739 83.6412,79.4072 89.5,82.5C 91.9234,92.1141 93.7567,101.781 95,111.5C 92.3242,104.8 89.6576,98.1329 87,91.5C 86.6667,94.8333 86.3333,98.1667 86,101.5C 85.1932,96.9515 83.8598,92.6182 82,88.5C 81.6667,93.8333 81.3333,99.1667 81,104.5C 76.9121,94.1473 74.0788,83.4806 72.5,72.5 Z"/></g>
</svg>
