<?xml version="1.0" encoding="UTF-8"?>
<!DOCTYPE svg PUBLIC "-//W3C//DTD SVG 1.1//EN" "http://www.w3.org/Graphics/SVG/1.1/DTD/svg11.dtd">
<svg xmlns="http://www.w3.org/2000/svg" version="1.1" width="512px" height="512px" style="shape-rendering:geometricPrecision; text-rendering:geometricPrecision; image-rendering:optimizeQuality; fill-rule:evenodd; clip-rule:evenodd" xmlns:xlink="http://www.w3.org/1999/xlink">
<g><path style="opacity:0.963" fill="#010000" d="M 392.5,-0.5 C 399.5,-0.5 406.5,-0.5 413.5,-0.5C 432.72,4.20359 448.053,14.7036 459.5,31C 473.589,33.6177 487.589,36.6177 501.5,40C 506.443,42.1059 509.776,45.6059 511.5,50.5C 511.5,54.1667 511.5,57.8333 511.5,61.5C 509.902,64.4954 507.902,67.3287 505.5,70C 495.025,77.6414 484.691,85.4747 474.5,93.5C 468.781,106.602 461.281,118.602 452,129.5C 444.822,139.857 439.822,151.19 437,163.5C 439.405,225.357 417.238,276.19 370.5,316C 357.949,324.942 344.282,331.776 329.5,336.5C 319.018,348.803 309.018,361.47 299.5,374.5C 324.021,394.856 348.688,415.022 373.5,435C 404.461,432.271 435.461,429.604 466.5,427C 474.504,426.559 482.504,426.059 490.5,425.5C 500.865,425.019 504.698,429.686 502,439.5C 500.786,441.049 499.286,442.215 497.5,443C 478.653,443.858 459.987,445.525 441.5,448C 463.5,460.667 485.5,473.333 507.5,486C 509.07,487.397 510.404,488.897 511.5,490.5C 511.5,492.833 511.5,495.167 511.5,497.5C 508.411,502.121 504.077,503.621 498.5,502C 470.5,485.667 442.5,469.333 414.5,453C 411.795,451.128 408.795,450.295 405.5,450.5C 399.121,451.005 392.787,451.838 386.5,453C 387.631,462.377 383.631,468.711 374.5,472C 366.893,474.381 362.226,471.715 360.5,464C 360.911,460.504 362.578,457.837 365.5,456C 355.996,455.855 346.663,457.021 337.5,459.5C 337.863,470.664 332.363,477.331 321,479.5C 313.139,477.776 310.472,473.11 313,465.5C 314.214,463.951 315.714,462.785 317.5,462C 220.766,474.733 124.766,491.233 29.5,511.5C 26.8333,511.5 24.1667,511.5 21.5,511.5C 16.8794,508.411 15.3794,504.077 17,498.5C 18.5429,496.622 20.3762,495.122 22.5,494C 103.902,477.655 185.568,462.822 267.5,449.5C 269.167,440.833 270.833,432.167 272.5,423.5C 260.296,412.464 247.629,401.964 234.5,392C 230.578,388.749 227.412,384.916 225,380.5C 224.333,376.5 224.333,372.5 225,368.5C 229.392,360.775 234.559,353.608 240.5,347C 204.934,346.012 170.101,340.512 136,330.5C 96.0224,354.72 53.3558,372.72 8,384.5C 4.1054,384.475 1.27206,382.808 -0.5,379.5C -0.5,376.833 -0.5,374.167 -0.5,371.5C 114.966,255.201 230.966,139.368 347.5,24C 360.854,12.6589 375.854,4.49221 392.5,-0.5 Z M 293.5,343.5 C 295.527,343.338 297.527,343.505 299.5,344C 294.333,350.5 289.167,357 284,363.5C 278.923,372.287 279.756,380.454 286.5,388C 297.333,396.833 308.167,405.667 319,414.5C 318.915,421.268 317.915,427.935 316,434.5C 291.209,414.711 266.709,394.544 242.5,374C 249.31,365.023 256.31,356.189 263.5,347.5C 273.647,346.214 283.647,344.881 293.5,343.5 Z M 335.5,428.5 C 339.798,431.463 343.798,434.797 347.5,438.5C 342.896,439.826 338.229,440.326 333.5,440C 334.648,436.281 335.314,432.448 335.5,428.5 Z M 288.5,436.5 C 292.291,439.118 295.957,441.951 299.5,445C 295.496,445.881 291.496,446.714 287.5,447.5C 287.038,443.882 287.372,440.215 288.5,436.5 Z"/></g>
<g><path style="opacity:1" fill="#765346" d="M 397.5,16.5 C 409.839,15.5079 420.839,18.8412 430.5,26.5C 378.616,36.7301 342.283,66.0635 321.5,114.5C 310.238,110.247 298.571,108.414 286.5,109C 311.891,82.9409 337.891,57.6076 364.5,33C 374.502,25.3321 385.502,19.8321 397.5,16.5 Z"/></g>
<g><path style="opacity:1" fill="#c22727" d="M 391.5,242.5 C 393.411,242.426 394.578,241.426 395,239.5C 403.437,214.596 407.437,188.929 407,162.5C 408.949,152.987 412.282,143.987 417,135.5C 423.839,124.486 431.173,113.819 439,103.5C 446.934,88.2098 447.6,72.5432 441,56.5C 439.154,52.1453 437.321,47.8119 435.5,43.5C 438.743,42.42 442.076,42.2534 445.5,43C 454.866,56.7657 458.699,71.9323 457,88.5C 456.226,92.0487 454.893,95.382 453,98.5C 440.729,113.363 430.729,129.697 423,147.5C 420.797,155.053 419.13,162.72 418,170.5C 419.093,193.941 415.427,216.607 407,238.5C 405.39,242.061 403.557,245.394 401.5,248.5C 398.103,246.474 394.77,244.474 391.5,242.5 Z"/></g>
<g><path style="opacity:1" fill="#f24234" d="M 435.5,43.5 C 437.321,47.8119 439.154,52.1453 441,56.5C 447.6,72.5432 446.934,88.2098 439,103.5C 431.173,113.819 423.839,124.486 417,135.5C 412.282,143.987 408.949,152.987 407,162.5C 407.437,188.929 403.437,214.596 395,239.5C 394.578,241.426 393.411,242.426 391.5,242.5C 386.687,240.443 382.687,237.443 379.5,233.5C 387.308,209.884 387.474,186.218 380,162.5C 372.5,143 359,129.5 339.5,122C 338.941,121.275 338.608,120.442 338.5,119.5C 348.868,93.9666 365.868,74.1333 389.5,60C 403.714,51.3935 419.048,45.8935 435.5,43.5 Z"/></g>
<g><path style="opacity:1" fill="#eeb507" d="M 468.5,50.5 C 476.979,51.9949 485.313,53.9949 493.5,56.5C 486.985,61.2591 480.652,66.2591 474.5,71.5C 472.749,64.401 470.749,57.401 468.5,50.5 Z"/></g>
<g><path style="opacity:1" fill="#0b0301" d="M 422.5,60.5 C 434.109,60.2474 437.109,65.0807 431.5,75C 422.059,78.5439 417.559,75.3772 418,65.5C 419.059,63.3408 420.559,61.6741 422.5,60.5 Z"/></g>
<g><path style="opacity:1" fill="#bea784" d="M 280.5,126.5 C 308.331,125.166 332.831,133.499 354,151.5C 367.669,170.798 372.002,192.131 367,215.5C 358.516,249.316 337.683,271.483 304.5,282C 271.345,289.96 238.012,290.627 204.5,284C 180.616,279.038 157.449,271.871 135,262.5C 134.333,261.833 134.333,261.167 135,260.5C 175.167,220.333 215.333,180.167 255.5,140C 263.044,133.897 271.378,129.397 280.5,126.5 Z"/></g>
<g><path style="opacity:1" fill="#775347" d="M 381.5,256.5 C 366.827,283.672 345.493,303.839 317.5,317C 307.576,320.807 297.576,323.973 287.5,326.5C 242.93,331.582 198.93,328.582 155.5,317.5C 164.833,310.5 174.167,303.5 183.5,296.5C 220.427,306.181 257.76,308.015 295.5,302C 328.577,295.893 354.077,278.726 372,250.5C 375.11,252.636 378.277,254.636 381.5,256.5 Z"/></g>
<g><path style="opacity:1" fill="#4d332d" d="M 381.5,256.5 C 385.852,258.673 389.852,261.34 393.5,264.5C 368.907,303.143 333.573,323.809 287.5,326.5C 297.576,323.973 307.576,320.807 317.5,317C 345.493,303.839 366.827,283.672 381.5,256.5 Z"/></g>
<g><path style="opacity:1" fill="#4c332d" d="M 119.5,275.5 C 133.684,280.951 148.017,286.118 162.5,291C 125.056,319.224 84.0562,340.891 39.5,356C 66.3682,329.299 93.0349,302.465 119.5,275.5 Z"/></g>
</svg>
