<?xml version="1.0" encoding="UTF-8"?>
<!DOCTYPE svg PUBLIC "-//W3C//DTD SVG 1.1//EN" "http://www.w3.org/Graphics/SVG/1.1/DTD/svg11.dtd">
<svg xmlns="http://www.w3.org/2000/svg" version="1.1" width="512px" height="512px" style="shape-rendering:geometricPrecision; text-rendering:geometricPrecision; image-rendering:optimizeQuality; fill-rule:evenodd; clip-rule:evenodd" xmlns:xlink="http://www.w3.org/1999/xlink">
<g><path style="opacity:1" fill="#d7effa" d="M 511.5,50.5 C 511.5,51.1667 511.5,51.8333 511.5,52.5C 491.671,92.9402 465.337,128.773 432.5,160C 415.5,175 398.5,190 381.5,205C 372.041,213.423 365.208,223.589 361,235.5C 353.981,261.246 346.815,286.912 339.5,312.5C 329.181,311.335 318.848,310.168 308.5,309C 305.367,308.607 302.367,307.774 299.5,306.5C 306.22,281.835 313.053,257.168 320,232.5C 322.826,226.178 326.159,220.178 330,214.5C 356.857,190.066 383.523,165.399 410,140.5C 418.544,130.958 426.71,121.125 434.5,111C 434.272,110.601 433.938,110.435 433.5,110.5C 456.167,92.8333 478.833,75.1667 501.5,57.5C 504.533,55.984 507.2,53.984 509.5,51.5C 509.842,50.6618 510.508,50.3284 511.5,50.5 Z"/></g>
<g><path style="opacity:1" fill="#6084f0" d="M -0.5,54.5 C 58.3041,89.07 116.971,123.903 175.5,159C 178.667,162.167 181.833,165.333 185,168.5C 200.097,189.049 214.931,209.716 229.5,230.5C 229.062,230.435 228.728,230.601 228.5,231C 235.418,240.174 242.084,249.508 248.5,259C 243.651,266.005 238.651,272.838 233.5,279.5C 206.53,243.016 179.697,206.349 153,169.5C 149.833,166.333 146.667,163.167 143.5,160C 100.775,133.973 57.7748,108.473 14.5,83.5C 8.9947,75.1601 3.9947,66.4935 -0.5,57.5C -0.5,56.5 -0.5,55.5 -0.5,54.5 Z"/></g>
<g><path style="opacity:0.988" fill="#9cb7f4" d="M 509.5,51.5 C 507.2,53.984 504.533,55.984 501.5,57.5C 500.833,57.5 500.167,57.5 499.5,57.5C 502.494,55.0002 505.827,53.0002 509.5,51.5 Z"/></g>
<g><path style="opacity:1" fill="#7393f0" d="M 499.5,57.5 C 500.167,57.5 500.833,57.5 501.5,57.5C 478.833,75.1667 456.167,92.8333 433.5,110.5C 399.322,135.765 365.655,161.765 332.5,188.5C 308.305,222.862 284.305,257.362 260.5,292C 257.211,294.478 253.544,296.144 249.5,297C 238.631,297.699 227.965,297.199 217.5,295.5C 219.199,295.66 220.866,295.494 222.5,295C 226.299,289.892 229.966,284.725 233.5,279.5C 238.651,272.838 243.651,266.005 248.5,259C 242.084,249.508 235.418,240.174 228.5,231C 228.728,230.601 229.062,230.435 229.5,230.5C 236.495,238.839 243.161,247.505 249.5,256.5C 267.214,233.612 284.381,210.279 301,186.5C 304.709,181.06 308.875,176.06 313.5,171.5C 315.5,170.167 317.167,168.5 318.5,166.5C 320.336,163.832 322.669,161.666 325.5,160C 383.391,125.558 441.391,91.3915 499.5,57.5 Z"/></g>
<g><path style="opacity:0.994" fill="#7191f0" d="M 14.5,83.5 C 57.7748,108.473 100.775,133.973 143.5,160C 146.667,163.167 149.833,166.333 153,169.5C 179.697,206.349 206.53,243.016 233.5,279.5C 229.966,284.725 226.299,289.892 222.5,295C 220.866,295.494 219.199,295.66 217.5,295.5C 197.216,293.444 176.882,292.111 156.5,291.5C 152.111,273.614 146.945,255.947 141,238.5C 134.608,222.703 125.942,208.37 115,195.5C 93.3638,175.532 72.0305,155.198 51,134.5C 37.0379,118.717 24.8712,101.717 14.5,83.5 Z"/></g>
<g><path style="opacity:0.994" fill="#eaf8fe" d="M 433.5,110.5 C 433.938,110.435 434.272,110.601 434.5,111C 426.71,121.125 418.544,130.958 410,140.5C 383.523,165.399 356.857,190.066 330,214.5C 326.159,220.178 322.826,226.178 320,232.5C 313.053,257.168 306.22,281.835 299.5,306.5C 302.367,307.774 305.367,308.607 308.5,309C 318.848,310.168 329.181,311.335 339.5,312.5C 380.956,318.909 422.289,326.076 463.5,334C 475.349,338.866 481.349,347.699 481.5,360.5C 462.806,360.218 444.139,360.552 425.5,361.5C 418.842,360.834 412.008,360.5 405,360.5C 390.671,357.978 377.838,361.145 366.5,370C 357.369,382.891 345.369,391.891 330.5,397C 325.953,397.429 321.619,398.262 317.5,399.5C 300.167,399.5 282.833,399.5 265.5,399.5C 260.167,398.167 254.833,398.167 249.5,399.5C 244.833,399.5 240.167,399.5 235.5,399.5C 230.167,398.167 224.833,398.167 219.5,399.5C 192.463,399.946 165.463,399.446 138.5,398C 123.743,394.466 112.41,386.3 104.5,373.5C 115.988,371.223 120.488,364.223 118,352.5C 116.5,349.667 114.333,347.5 111.5,346C 106.728,345.017 102.062,344.183 97.5,343.5C 99.877,318.277 113.21,301.777 137.5,294C 143.697,292.114 150.03,291.28 156.5,291.5C 176.882,292.111 197.216,293.444 217.5,295.5C 227.965,297.199 238.631,297.699 249.5,297C 253.544,296.144 257.211,294.478 260.5,292C 284.305,257.362 308.305,222.862 332.5,188.5C 365.655,161.765 399.322,135.765 433.5,110.5 Z"/></g>
<g><path style="opacity:0.788" fill="#96c5f7" d="M 318.5,166.5 C 317.167,168.5 315.5,170.167 313.5,171.5C 314.167,168.833 315.833,167.167 318.5,166.5 Z"/></g>
<g><path style="opacity:1" fill="#7795f0" d="M 140.5,325.5 C 148.201,325.362 151.367,329.029 150,336.5C 144.854,343.406 140.187,343.073 136,335.5C 135.333,333.833 135.333,332.167 136,330.5C 137.366,328.638 138.866,326.972 140.5,325.5 Z"/></g>
<g><path style="opacity:0.971" fill="#fee940" d="M 97.5,343.5 C 102.062,344.183 106.728,345.017 111.5,346C 114.333,347.5 116.5,349.667 118,352.5C 120.488,364.223 115.988,371.223 104.5,373.5C 82.5,373.5 60.5,373.5 38.5,373.5C 39.8264,356.008 49.1597,346.175 66.5,344C 76.828,343.5 87.1613,343.334 97.5,343.5 Z"/></g>
<g><path style="opacity:1" fill="#d7effa" d="M 425.5,361.5 C 420.469,362.849 415.802,365.015 411.5,368C 405.221,374.279 398.887,380.613 392.5,387C 384.091,393.917 374.425,397.917 363.5,399C 348.17,399.5 332.837,399.667 317.5,399.5C 321.619,398.262 325.953,397.429 330.5,397C 345.369,391.891 357.369,382.891 366.5,370C 377.838,361.145 390.671,357.978 405,360.5C 412.008,360.5 418.842,360.834 425.5,361.5 Z"/></g>
<g><path style="opacity:0.946" fill="#f5dc1e" d="M 235.5,399.5 C 235.104,407.253 235.604,414.92 237,422.5C 240.43,426.917 244.93,428.584 250.5,427.5C 254.364,433.86 259.697,438.693 266.5,442C 272.953,442.988 279.286,443.821 285.5,444.5C 285.665,448.182 285.499,451.848 285,455.5C 280.623,462.022 275.623,462.689 270,457.5C 268.805,453.249 268.305,448.915 268.5,444.5C 259.494,444.666 250.494,444.5 241.5,444C 230.543,441.711 223.376,435.211 220,424.5C 219.5,416.173 219.334,407.84 219.5,399.5C 224.833,398.167 230.167,398.167 235.5,399.5 Z"/></g>
<g><path style="opacity:0.954" fill="#fee940" d="M 265.5,399.5 C 265.334,406.175 265.5,412.842 266,419.5C 266.69,422.196 268.19,424.363 270.5,426C 283.405,427.296 296.405,427.963 309.5,428C 311.939,428.774 313.773,430.274 315,432.5C 315.167,436.333 315.333,440.167 315.5,444C 315.607,448.612 315.107,453.112 314,457.5C 308.981,462.843 304.314,462.509 300,456.5C 299.501,452.514 299.334,448.514 299.5,444.5C 294.833,444.5 290.167,444.5 285.5,444.5C 279.286,443.821 272.953,442.988 266.5,442C 259.697,438.693 254.364,433.86 250.5,427.5C 249.613,418.199 249.279,408.866 249.5,399.5C 254.833,398.167 260.167,398.167 265.5,399.5 Z"/></g>
</svg>
