<?xml version="1.0" encoding="UTF-8"?>
<!DOCTYPE svg PUBLIC "-//W3C//DTD SVG 1.1//EN" "http://www.w3.org/Graphics/SVG/1.1/DTD/svg11.dtd">
<svg xmlns="http://www.w3.org/2000/svg" version="1.1" width="512px" height="512px" style="shape-rendering:geometricPrecision; text-rendering:geometricPrecision; image-rendering:optimizeQuality; fill-rule:evenodd; clip-rule:evenodd" xmlns:xlink="http://www.w3.org/1999/xlink">
<g><path style="opacity:0.968" fill="#010101" d="M 511.5,319.5 C 511.5,322.167 511.5,324.833 511.5,327.5C 508.444,331.241 504.444,332.407 499.5,331C 448.813,322.608 398.146,314.108 347.5,305.5C 321.13,317.902 294.796,330.402 268.5,343C 261.08,346.14 253.414,348.473 245.5,350C 234.319,361.014 223.319,372.181 212.5,383.5C 214.554,385.194 216.888,386.361 219.5,387C 226.939,387.07 234.272,387.737 241.5,389C 244.902,392.719 245.402,396.886 243,401.5C 242.25,402.126 241.416,402.626 240.5,403C 230.347,404.125 220.347,403.458 210.5,401C 206.581,399.46 203.081,397.293 200,394.5C 194.169,398.832 187.669,401.665 180.5,403C 148.167,403.667 115.833,403.667 83.5,403C 81.6667,402.5 80.5,401.333 80,399.5C 78.0084,393.663 79.8418,389.829 85.5,388C 101.5,387.667 117.5,387.333 133.5,387C 138.725,385.721 143.391,383.388 147.5,380C 159.137,367.362 171.137,355.029 183.5,343C 178.256,340.797 173.422,337.964 169,334.5C 167.748,331.986 167.248,329.32 167.5,326.5C 170.643,322.76 174.643,321.593 179.5,323C 203.862,337.77 229.529,340.437 256.5,331C 264.193,327.486 271.859,323.986 279.5,320.5C 292.929,314.286 306.263,307.786 319.5,301C 302.568,297.678 285.568,294.678 268.5,292C 265.156,290.106 263.822,287.273 264.5,283.5C 265.126,279.26 267.626,277.26 272,277.5C 295.85,281.62 319.683,285.454 343.5,289C 324.264,274.798 304.764,260.965 285,247.5C 273.198,258.82 259.365,266.654 243.5,271C 235.687,272.791 228.021,274.624 220.5,276.5C 210.825,276.638 201.158,276.971 191.5,277.5C 153.314,277.836 126.147,260.836 110,226.5C 106.456,217.119 105.123,207.453 106,197.5C 108.167,192.667 111.667,189.167 116.5,187C 128.763,184.53 140.096,180.03 150.5,173.5C 155.537,170.972 159.871,167.472 163.5,163C 154.562,159.075 145.229,156.909 135.5,156.5C 128.963,155.033 122.296,154.2 115.5,154C 113.181,152.853 111.848,151.019 111.5,148.5C 110.833,141.833 113.833,138.833 120.5,139.5C 129.546,140.257 138.546,141.09 147.5,142C 134.794,127.483 118.794,120.983 99.5,122.5C 82.3092,123.012 68.4759,130.012 58,143.5C 57.3162,144.784 57.4829,145.951 58.5,147C 65.4248,152.38 72.2581,157.88 79,163.5C 80.2272,167.591 79.3939,171.091 76.5,174C 69.4234,179.621 62.2568,185.121 55,190.5C 51.7997,227.926 65.633,257.093 96.5,278C 114.993,287.746 133.327,297.746 151.5,308C 154.542,311.041 155.208,314.541 153.5,318.5C 151.834,320.828 149.501,321.828 146.5,321.5C 144.366,321.485 142.366,320.985 140.5,320C 123.66,310.413 106.66,301.079 89.5,292C 53.6006,268.702 36.9339,235.535 39.5,192.5C 28.4188,188.638 17.4188,184.472 6.5,180C 3.7982,178.988 1.46486,177.488 -0.5,175.5C -0.5,172.833 -0.5,170.167 -0.5,167.5C 12.7307,158.538 26.3974,150.038 40.5,142C 50.9305,122.917 66.9305,111.583 88.5,108C 110.347,104.301 130.347,108.635 148.5,121C 158.203,131.035 167.537,141.368 176.5,152C 209.675,175.088 242.675,198.421 275.5,222C 351.72,253.277 428.053,284.277 504.5,315C 507.202,316.012 509.535,317.512 511.5,319.5 Z M 200.5,348.5 C 207.07,350.082 213.737,351.249 220.5,352C 210.5,362 200.5,372 190.5,382C 182.165,387.092 173.165,388.759 163.5,387C 175.673,373.994 188.006,361.161 200.5,348.5 Z"/></g>
<g><path style="opacity:1" fill="#d9d6d9" d="M 99.5,122.5 C 99.5,122.833 99.5,123.167 99.5,123.5C 94.3529,127.979 90.3529,133.313 87.5,139.5C 81.3906,143.976 81.0573,148.809 86.5,154C 92.3601,155.407 96.0268,153.24 97.5,147.5C 100.319,147.131 103.152,146.798 106,146.5C 108.121,146.698 109.954,147.364 111.5,148.5C 111.848,151.019 113.181,152.853 115.5,154C 122.296,154.2 128.963,155.033 135.5,156.5C 140.208,162.534 145.208,168.201 150.5,173.5C 140.096,180.03 128.763,184.53 116.5,187C 111.667,189.167 108.167,192.667 106,197.5C 105.123,207.453 106.456,217.119 110,226.5C 126.147,260.836 153.314,277.836 191.5,277.5C 218.622,290.558 245.955,303.392 273.5,316C 276.177,316.814 278.177,318.314 279.5,320.5C 271.859,323.986 264.193,327.486 256.5,331C 229.529,340.437 203.862,337.77 179.5,323C 174.643,321.593 170.643,322.76 167.5,326.5C 163.194,323.343 158.528,320.676 153.5,318.5C 155.208,314.541 154.542,311.041 151.5,308C 133.327,297.746 114.993,287.746 96.5,278C 65.633,257.093 51.7997,227.926 55,190.5C 62.2568,185.121 69.4234,179.621 76.5,174C 79.3939,171.091 80.2272,167.591 79,163.5C 72.2581,157.88 65.4248,152.38 58.5,147C 57.4829,145.951 57.3162,144.784 58,143.5C 68.4759,130.012 82.3092,123.012 99.5,122.5 Z"/></g>
<g><path style="opacity:1" fill="#a3695a" d="M 99.5,123.5 C 102.572,123.183 105.572,123.516 108.5,124.5C 113.238,129.014 117.238,134.014 120.5,139.5C 113.833,138.833 110.833,141.833 111.5,148.5C 109.954,147.364 108.121,146.698 106,146.5C 103.152,146.798 100.319,147.131 97.5,147.5C 96.4847,141.987 93.1514,139.32 87.5,139.5C 90.3529,133.313 94.3529,127.979 99.5,123.5 Z"/></g>
<g><path style="opacity:1" fill="#804f4f" d="M 99.5,123.5 C 99.5,123.167 99.5,122.833 99.5,122.5C 118.794,120.983 134.794,127.483 147.5,142C 138.546,141.09 129.546,140.257 120.5,139.5C 117.238,134.014 113.238,129.014 108.5,124.5C 105.572,123.516 102.572,123.183 99.5,123.5 Z"/></g>
<g><path style="opacity:1" fill="#0a0707" d="M 87.5,139.5 C 93.1514,139.32 96.4847,141.987 97.5,147.5C 96.0268,153.24 92.3601,155.407 86.5,154C 81.0573,148.809 81.3906,143.976 87.5,139.5 Z"/></g>
<g><path style="opacity:1" fill="#c4c0c4" d="M 135.5,156.5 C 145.229,156.909 154.562,159.075 163.5,163C 159.871,167.472 155.537,170.972 150.5,173.5C 145.208,168.201 140.208,162.534 135.5,156.5 Z"/></g>
<g><path style="opacity:1" fill="#5e505d" d="M 45.5,156.5 C 50.7271,159.387 55.3938,163.054 59.5,167.5C 55.1366,171.767 50.3032,175.434 45,178.5C 38.0858,175.862 31.2524,173.029 24.5,170C 31.5647,165.476 38.5647,160.976 45.5,156.5 Z"/></g>
<g><path style="opacity:1" fill="#c37e5b" d="M 225.5,225.5 C 208.736,213.918 192.069,202.085 175.5,190C 171.817,187.128 167.817,184.962 163.5,183.5C 167.605,179.898 171.605,176.065 175.5,172C 176.5,171.333 177.5,171.333 178.5,172C 201.833,188.667 225.167,205.333 248.5,222C 240.89,223.623 233.223,224.789 225.5,225.5 Z"/></g>
<g><path style="opacity:1" fill="#d18a62" d="M 163.5,183.5 C 167.817,184.962 171.817,187.128 175.5,190C 192.069,202.085 208.736,213.918 225.5,225.5C 194.403,228.748 167.903,219.415 146,197.5C 145.5,196.5 145,195.5 144.5,194.5C 151.024,191.074 157.358,187.408 163.5,183.5 Z"/></g>
<g><path style="opacity:1" fill="#a26858" d="M 243.5,238.5 C 249.122,241.472 254.455,244.805 259.5,248.5C 238.547,258.476 216.38,263.142 193,262.5C 162.026,263.687 139.359,250.687 125,223.5C 121.766,216.816 120.432,209.816 121,202.5C 122.823,200.833 124.99,199.833 127.5,199.5C 154.131,230.964 188.131,244.464 229.5,240C 234.137,239.171 238.804,238.671 243.5,238.5 Z"/></g>
<g><path style="opacity:1" fill="#7f4f4f" d="M 259.5,248.5 C 254.455,244.805 249.122,241.472 243.5,238.5C 250.035,236.889 256.701,235.222 263.5,233.5C 266.872,234.701 269.872,236.534 272.5,239C 268.492,242.665 264.159,245.832 259.5,248.5 Z"/></g>
<g><path style="opacity:1" fill="#dd976a" d="M 264.5,283.5 C 249.756,281.598 235.089,279.265 220.5,276.5C 228.021,274.624 235.687,272.791 243.5,271C 259.365,266.654 273.198,258.82 285,247.5C 304.764,260.965 324.264,274.798 343.5,289C 319.683,285.454 295.85,281.62 272,277.5C 267.626,277.26 265.126,279.26 264.5,283.5 Z"/></g>
<g><path style="opacity:1" fill="#bd7a59" d="M 334.5,264.5 C 335.251,263.427 336.251,263.26 337.5,264C 370.167,277.333 402.833,290.667 435.5,304C 416.432,301.751 397.432,298.751 378.5,295C 363.979,284.577 349.312,274.41 334.5,264.5 Z"/></g>
<g><path style="opacity:1" fill="#c7c3c7" d="M 220.5,276.5 C 235.089,279.265 249.756,281.598 264.5,283.5C 263.822,287.273 265.156,290.106 268.5,292C 285.568,294.678 302.568,297.678 319.5,301C 306.263,307.786 292.929,314.286 279.5,320.5C 278.177,318.314 276.177,316.814 273.5,316C 245.955,303.392 218.622,290.558 191.5,277.5C 201.158,276.971 210.825,276.638 220.5,276.5 Z"/></g>
</svg>
