<?xml version="1.0" encoding="UTF-8"?>
<!DOCTYPE svg PUBLIC "-//W3C//DTD SVG 1.1//EN" "http://www.w3.org/Graphics/SVG/1.1/DTD/svg11.dtd">
<svg xmlns="http://www.w3.org/2000/svg" version="1.1" width="128px" height="128px" style="shape-rendering:geometricPrecision; text-rendering:geometricPrecision; image-rendering:optimizeQuality; fill-rule:evenodd; clip-rule:evenodd" xmlns:xlink="http://www.w3.org/1999/xlink">
<g><path style="opacity:0.897" fill="#060606" d="M 127.5,115.5 C 127.5,117.167 127.5,118.833 127.5,120.5C 84.8036,121.828 42.137,121.828 -0.5,120.5C -0.5,118.5 -0.5,116.5 -0.5,114.5C 1.58294,109.854 4.91627,106.354 9.5,104C 3.74603,93.7934 0.412695,82.9601 -0.5,71.5C -0.5,70.8333 -0.5,70.1667 -0.5,69.5C 2.81273,66.8506 5.9794,67.1839 9,70.5C 6.78139,59.8421 7.11472,49.1754 10,38.5C 12.0109,35.9079 13.8442,36.0746 15.5,39C 18.261,48.6888 23.4277,56.8554 31,63.5C 29.6539,57.3075 29.3206,50.9741 30,44.5C 30.9492,41.8003 32.7825,40.967 35.5,42C 38.9386,47.439 43.6052,51.439 49.5,54C 61.9257,58.7522 74.5924,62.7522 87.5,66C 92.1492,68.4551 94.9826,72.2884 96,77.5C 109.527,60.2953 108.36,44.1287 92.5,29C 91.5,28.5 90.5,28 89.5,27.5C 86.2573,45.5962 75.5907,54.0962 57.5,53C 56.9415,52.2753 56.6082,51.4419 56.5,50.5C 58.509,47.8155 60.009,44.8155 61,41.5C 61.4336,36.1604 61.2669,30.827 60.5,25.5C 60.2438,21.8773 61.0771,18.544 63,15.5C 80.383,1.21306 96.7163,2.21306 112,18.5C 129.043,46.2882 130.543,74.7882 116.5,104C 120.398,107.729 124.065,111.562 127.5,115.5 Z"/></g>
<g><path style="opacity:1" fill="#ebebeb" d="M 13.5,61.5 C 13.185,57.6286 13.5184,53.9619 14.5,50.5C 18.2007,59.7033 24.5341,66.5367 33.5,71C 35.5,71.6667 37.5,71.6667 39.5,71C 40.0219,70.4387 40.3552,69.772 40.5,69C 37.1766,63.1923 35.3432,57.0256 35,50.5C 39.738,55.1235 45.238,58.6235 51.5,61C 61.6173,64.7418 71.9507,67.7418 82.5,70C 89.1545,72.976 91.4879,77.976 89.5,85C 89.6667,86.5 90.5,87.3333 92,87.5C 107.249,77.6501 113.249,63.6501 110,45.5C 107.474,35.3209 101.641,27.8209 92.5,23C 86.5727,21.2869 83.5727,23.4536 83.5,29.5C 79.1885,30.1552 75.1885,31.6552 71.5,34C 70.1667,34.6667 68.8333,34.6667 67.5,34C 66.3651,29.2523 66.1985,24.419 67,19.5C 81.6685,7.96184 95.3351,8.96184 108,22.5C 120.083,42.4133 123.417,63.7466 118,86.5C 116.701,91.9054 114.534,96.9054 111.5,101.5C 99.7876,105.107 87.9543,105.44 76,102.5C 71.1174,102.851 66.284,103.518 61.5,104.5C 55.3455,103.42 49.1789,102.42 43,101.5C 37.0357,102.71 31.0357,103.71 25,104.5C 21.7421,104.507 18.5755,104.007 15.5,103C 9.80317,94.7112 6.96984,85.5445 7,75.5C 13.7525,79.46 20.5858,83.2934 27.5,87C 31.1667,87.6667 32.1667,86.3333 30.5,83C 25.9188,81.1288 21.7522,78.6288 18,75.5C 15.5847,71.0886 14.0847,66.4219 13.5,61.5 Z"/></g>
<g><path style="opacity:1" fill="#242424" d="M 71.5,22.5 C 75.1612,22.3501 76.1612,23.8501 74.5,27C 70.7071,27.4866 69.7071,25.9866 71.5,22.5 Z"/></g>
<g><path style="opacity:1" fill="#f2b048" d="M 78.5,35.5 C 79.3764,35.3691 80.0431,35.7025 80.5,36.5C 77.4472,42.8941 72.4472,46.5608 65.5,47.5C 66.0916,44.8728 66.4249,42.2062 66.5,39.5C 71.0445,39.5409 75.0445,38.2075 78.5,35.5 Z"/></g>
<g><path style="opacity:1" fill="#5f5f5f" d="M 14.5,50.5 C 13.5184,53.9619 13.185,57.6286 13.5,61.5C 12.1905,57.6493 12.1905,53.6493 13.5,49.5C 14.1067,49.6236 14.44,49.9569 14.5,50.5 Z"/></g>
<g><path style="opacity:1" fill="#0e0e0e" d="M 55.5,80.5 C 61.791,83.4604 68.4576,85.6271 75.5,87C 77.1179,89.7997 76.2845,91.2997 73,91.5C 65.9197,91.1445 59.9197,88.4778 55,83.5C 54.5304,82.4232 54.6971,81.4232 55.5,80.5 Z"/></g>
<g><path style="opacity:1" fill="#181818" d="M 35.5,84.5 C 36.5,84.5 37.5,84.5 38.5,84.5C 38.5,86.1667 38.5,87.8333 38.5,89.5C 34.7162,89.4747 33.7162,87.8081 35.5,84.5 Z"/></g>
<g><path style="opacity:1" fill="#00e2dd" d="M 119.5,115.5 C 81.663,115.832 43.9963,115.498 6.5,114.5C 7.25429,111.909 8.92096,110.076 11.5,109C 16.167,108.665 20.8337,108.832 25.5,109.5C 31.5605,108.818 37.5605,107.818 43.5,106.5C 49.8692,107.375 56.2026,108.375 62.5,109.5C 67.1667,108.833 71.8333,108.167 76.5,107.5C 87.1949,109.98 97.8616,109.98 108.5,107.5C 113.234,108.549 116.901,111.216 119.5,115.5 Z"/></g>
<g><path style="opacity:1" fill="#004342" d="M 6.5,114.5 C 43.9963,115.498 81.663,115.832 119.5,115.5C 81.6645,116.83 43.6645,116.83 5.5,115.5C 5.62358,114.893 5.95691,114.56 6.5,114.5 Z"/></g>
</svg>
