<?xml version="1.0" encoding="UTF-8"?>
<!DOCTYPE svg PUBLIC "-//W3C//DTD SVG 1.1//EN" "http://www.w3.org/Graphics/SVG/1.1/DTD/svg11.dtd">
<svg xmlns="http://www.w3.org/2000/svg" version="1.1" width="128px" height="128px" style="shape-rendering:geometricPrecision; text-rendering:geometricPrecision; image-rendering:optimizeQuality; fill-rule:evenodd; clip-rule:evenodd" xmlns:xlink="http://www.w3.org/1999/xlink">
<g><path style="opacity:0.682" fill="#fd647a" d="M 76.5,-0.5 C 77.1667,-0.5 77.8333,-0.5 78.5,-0.5C 78.7214,0.734849 79.3881,1.73485 80.5,2.5C 79.5197,3.98138 78.353,5.31471 77,6.5C 76.3632,4.69692 75.1965,3.36359 73.5,2.5C 74.7701,1.71237 75.7701,0.712371 76.5,-0.5 Z"/></g>
<g><path style="opacity:0.845" fill="#080604" d="M 114.5,127.5 C 78.5,127.5 42.5,127.5 6.5,127.5C 7.67788,120.247 12.0112,117.414 19.5,119C 26.0583,114.554 33.0583,110.887 40.5,108C 44.39,105.229 48.0567,102.229 51.5,99C 52.7091,95.699 52.0424,92.699 49.5,90C 44.3431,87.8319 39.3431,88.1652 34.5,91C 27.3947,96.9013 21.7281,103.901 17.5,112C 14.9369,112.918 12.7702,112.418 11,110.5C 10.5006,105.177 10.334,99.8437 10.5,94.5C 7.22954,94.3213 5.56287,92.488 5.5,89C 6.46417,82.6433 8.13084,76.4766 10.5,70.5C 8.60477,68.1329 8.10477,65.4663 9,62.5C 15.3714,48.789 24.7047,37.4557 37,28.5C 37.3095,27.2341 37.8095,26.0674 38.5,25C 50.3654,22.7604 62.0321,19.7604 73.5,16C 76.8333,15.3333 80.1667,15.3333 83.5,16C 84.9308,16.4652 86.0975,17.2986 87,18.5C 86.9481,8.88726 91.4481,2.88726 100.5,0.5C 105.694,3.16778 111.027,5.66778 116.5,8C 120.761,11.2809 122.094,15.4476 120.5,20.5C 117.198,19.523 113.865,18.523 110.5,17.5C 108.865,18.0463 107.199,18.3796 105.5,18.5C 107.806,28.8993 103.806,35.2326 93.5,37.5C 95.055,42.0607 94.555,46.3941 92,50.5C 82.8938,61.7258 73.5605,72.7258 64,83.5C 60.515,88.7148 61.015,93.5481 65.5,98C 69.5,99.3333 73.5,100.667 77.5,102C 79.4049,103.815 81.0716,105.815 82.5,108C 87.3239,109.898 92.3239,111.231 97.5,112C 101.184,115.457 105.517,117.79 110.5,119C 113.011,121.326 114.344,124.159 114.5,127.5 Z"/></g>
<g><path style="opacity:1" fill="#f1dab6" d="M 98.5,3.5 C 105.898,3.64882 107.564,6.48215 103.5,12C 104.968,14.0283 104.801,15.8616 103,17.5C 102.667,21.1667 102.333,24.8333 102,28.5C 98.3571,33.2837 94.0238,34.2837 89,31.5C 88.5045,29.5273 88.3379,27.5273 88.5,25.5C 89.5,25.5 90.5,25.5 91.5,25.5C 88.3558,16.2525 90.6892,8.9192 98.5,3.5 Z"/></g>
<g><path style="opacity:1" fill="#1a1814" d="M 97.5,6.5 C 99.6648,6.11589 101.332,6.78256 102.5,8.5C 100.955,9.45189 99.288,9.78522 97.5,9.5C 97.5,8.5 97.5,7.5 97.5,6.5 Z"/></g>
<g><path style="opacity:1" fill="#d3ac41" d="M 107.5,8.5 C 113.363,8.47416 116.863,11.1408 118,16.5C 114.938,13.8855 111.438,12.2188 107.5,11.5C 107.5,10.5 107.5,9.5 107.5,8.5 Z"/></g>
<g><path style="opacity:1" fill="#715c23" d="M 106.5,14.5 C 107.708,13.218 109.042,13.218 110.5,14.5C 109.192,15.6256 107.858,15.6256 106.5,14.5 Z"/></g>
<g><path style="opacity:1" fill="#9d775d" d="M 73.5,18.5 C 76.28,18.9452 78.9466,18.9452 81.5,18.5C 83.1487,19.6477 84.6487,20.981 86,22.5C 86.4983,25.8168 86.665,29.1501 86.5,32.5C 81.9423,31.1792 77.2757,30.3458 72.5,30C 71.3816,28.9264 70.3816,27.7598 69.5,26.5C 67.8877,29.7529 68.8877,31.9196 72.5,33C 92.8752,33.2935 96.5418,40.9602 83.5,56C 70.6741,65.1043 56.3408,69.4376 40.5,69C 31.7565,73.7487 22.4231,75.9154 12.5,75.5C 14.0425,71.7891 13.7092,68.2891 11.5,65C 21.9201,40.533 39.9201,26.1997 65.5,22C 68.3093,20.9066 70.976,19.7399 73.5,18.5 Z"/></g>
<g><path style="opacity:0.776" fill="#f6c84c" d="M 22.5,25.5 C 23.8333,25.5 25.1667,25.5 26.5,25.5C 26.5,26.8333 26.5,28.1667 26.5,29.5C 25.1667,29.5 23.8333,29.5 22.5,29.5C 22.5,28.1667 22.5,26.8333 22.5,25.5 Z"/></g>
<g><path style="opacity:0.875" fill="#70d7f9" d="M 9.5,32.5 C 10.8333,32.5 12.1667,32.5 13.5,32.5C 13.5,33.5 13.5,34.5 13.5,35.5C 14.5,35.5 15.5,35.5 16.5,35.5C 16.6495,36.552 16.4828,37.552 16,38.5C 14.3333,39.5 13,40.8333 12,42.5C 9.99119,40.9895 8.15786,39.3229 6.5,37.5C 8.29702,36.3049 9.29702,34.6382 9.5,32.5 Z"/></g>
<g><path style="opacity:1" fill="#704a31" d="M 67.5,66.5 C 69.3786,66.3932 69.7119,66.8932 68.5,68C 58.8868,74.8724 48.2201,79.2057 36.5,81C 27.8621,84.6008 19.1955,88.1008 10.5,91.5C 9.05421,90.8291 8.38754,89.6624 8.5,88C 9.4089,84.5339 10.0756,81.0339 10.5,77.5C 14.8076,78.3676 19.141,78.5343 23.5,78C 29.9872,76.0601 36.3206,73.7268 42.5,71C 51.2379,70.99 59.5712,69.49 67.5,66.5 Z"/></g>
<g><path style="opacity:1" fill="#56575a" d="M 72.5,67.5 C 73.525,67.8966 73.6917,68.5632 73,69.5C 66.2832,74.8708 61.1166,81.3708 57.5,89C 54.6715,89.9694 52.3382,89.3028 50.5,87C 47.5755,86.0124 44.5755,85.3457 41.5,85C 46.6699,81.3823 52.3366,78.7157 58.5,77C 63.4056,74.0578 68.0723,70.8911 72.5,67.5 Z"/></g>
<g><path style="opacity:1" fill="#56585b" d="M 36.5,83.5 C 37.2389,83.369 37.9056,83.5357 38.5,84C 29.2462,91.4174 21.2462,99.9174 14.5,109.5C 13.1667,103.833 13.1667,98.1667 14.5,92.5C 22.0831,89.8676 29.4164,86.8676 36.5,83.5 Z"/></g>
<g><path style="opacity:0.831" fill="#f5ca4a" d="M 79.5,86.5 C 81.4366,88.0908 83.4366,89.7575 85.5,91.5C 83.5,92.8333 81.8333,94.5 80.5,96.5C 79.1667,94.5 77.5,92.8333 75.5,91.5C 77.6114,90.3954 78.9447,88.7288 79.5,86.5 Z"/></g>
<g><path style="opacity:1" fill="#737374" d="M 54.5,91.5 C 55.9403,92.3629 57.2736,92.3629 58.5,91.5C 59.3605,95.3879 61.3605,98.5545 64.5,101C 68.5524,102.337 72.5524,103.671 76.5,105C 72.8333,105.667 69.1667,105.667 65.5,105C 61.0642,102.462 56.3976,101.795 51.5,103C 55.5977,100.022 56.5977,96.1884 54.5,91.5 Z"/></g>
<g><path style="opacity:0.717" fill="#86d148" d="M 89.5,101.5 C 90.8333,101.5 92.1667,101.5 93.5,101.5C 92.9517,105.961 91.285,106.461 88.5,103C 89.056,102.617 89.3893,102.117 89.5,101.5 Z"/></g>
<g><path style="opacity:1" fill="#6f4a31" d="M 55.5,104.5 C 60.1402,105.814 64.8069,107.147 69.5,108.5C 71.1886,108.274 72.8553,107.941 74.5,107.5C 78.1304,109.315 81.7971,111.149 85.5,113C 91.9006,112.293 97.2339,114.293 101.5,119C 105.356,119.533 108.356,121.366 110.5,124.5C 89.1745,125.666 67.8411,125.833 46.5,125C 48.5519,119.446 52.2185,115.279 57.5,112.5C 54.0274,111.305 51.1941,112.305 49,115.5C 47.5455,118.912 45.7121,122.079 43.5,125C 32.4849,125.832 21.4849,125.666 10.5,124.5C 10.7093,123.914 11.0426,123.414 11.5,123C 14.5,122.667 17.5,122.333 20.5,122C 27.0583,117.554 34.0583,113.887 41.5,111C 44,109.167 46.5,107.333 49,105.5C 51.4556,106.842 53.6222,106.509 55.5,104.5 Z"/></g>
</svg>
