<?xml version="1.0" encoding="UTF-8"?>
<!DOCTYPE svg PUBLIC "-//W3C//DTD SVG 1.1//EN" "http://www.w3.org/Graphics/SVG/1.1/DTD/svg11.dtd">
<svg xmlns="http://www.w3.org/2000/svg" version="1.1" width="128px" height="128px" style="shape-rendering:geometricPrecision; text-rendering:geometricPrecision; image-rendering:optimizeQuality; fill-rule:evenodd; clip-rule:evenodd" xmlns:xlink="http://www.w3.org/1999/xlink">
<g><path style="opacity:1" fill="#eb2582" d="M 95.5,-0.5 C 97.1667,-0.5 98.8333,-0.5 100.5,-0.5C 100.5,0.833333 100.5,2.16667 100.5,3.5C 93.2452,3.62599 87.5785,6.62599 83.5,12.5C 81.2615,13.5419 79.0948,14.8753 77,16.5C 76.6012,16.2716 76.4346,15.9382 76.5,15.5C 77.0231,12.122 78.3565,9.12197 80.5,6.5C 82.0103,5.16394 83.6769,3.99728 85.5,3C 89.0523,2.12245 92.3856,0.955786 95.5,-0.5 Z"/></g>
<g><path style="opacity:1" fill="#fe3c7d" d="M 100.5,3.5 C 100.5,6.5 100.5,9.5 100.5,12.5C 94.8333,12.5 89.1667,12.5 83.5,12.5C 87.5785,6.62599 93.2452,3.62599 100.5,3.5 Z"/></g>
<g><path style="opacity:0.981" fill="#98f7fd" d="M 55.5,5.5 C 63.7468,4.19945 72.0801,4.53278 80.5,6.5C 78.3565,9.12197 77.0231,12.122 76.5,15.5C 75.3882,17.5994 74.7215,19.9327 74.5,22.5C 68.518,23.8313 62.518,25.1646 56.5,26.5C 56.8245,19.3134 56.4912,12.3134 55.5,5.5 Z"/></g>
<g><path style="opacity:1" fill="#d88d57" d="M 55.5,5.5 C 56.4912,12.3134 56.8245,19.3134 56.5,26.5C 56.5,27.1667 56.5,27.8333 56.5,28.5C 56.5,36.1667 56.5,43.8333 56.5,51.5C 56.5,53.1667 56.5,54.8333 56.5,56.5C 56.5,58.1667 56.5,59.8333 56.5,61.5C 56.5,63.1667 56.5,64.8333 56.5,66.5C 56.1725,71.544 56.5059,76.544 57.5,81.5C 58.8333,80.8333 60.1667,80.1667 61.5,79.5C 62.48,82.0865 62.8134,84.7531 62.5,87.5C 63.4702,92.7044 61.6368,96.371 57,98.5C 56.5002,108.161 56.3335,117.828 56.5,127.5C 55.1667,127.5 53.8333,127.5 52.5,127.5C 47.9207,126.142 43.254,124.642 38.5,123C 35.7613,121.974 33.428,120.474 31.5,118.5C 31.6666,101.83 31.4999,85.1633 31,68.5C 28,66.5 25,64.5 22,62.5C 21.5017,59.1832 21.335,55.8499 21.5,52.5C 22.391,53.1098 23.391,53.4431 24.5,53.5C 25.1855,41.5984 25.8522,29.5984 26.5,17.5C 34.7751,10.4011 44.4417,6.4011 55.5,5.5 Z"/></g>
<g><path style="opacity:0.999" fill="#eeecec" d="M 83.5,12.5 C 89.1667,12.5 94.8333,12.5 100.5,12.5C 100.5,14.1667 100.5,15.8333 100.5,17.5C 100.817,21.7016 100.483,25.7016 99.5,29.5C 98.7961,27.6558 97.4628,27.1558 95.5,28C 91.2516,30.4859 90.585,33.6526 93.5,37.5C 95.1856,36.1431 96.8523,34.8098 98.5,33.5C 97.2931,37.7869 96.2931,42.1203 95.5,46.5C 94.8333,46.1667 94.1667,45.8333 93.5,45.5C 93.5,45.1667 93.5,44.8333 93.5,44.5C 93.4348,42.3043 92.7681,40.3043 91.5,38.5C 87.836,39.7506 84.1693,39.7506 80.5,38.5C 78.1402,37.135 76.4735,35.135 75.5,32.5C 77.4788,31.1879 79.1455,29.5212 80.5,27.5C 78.4293,25.8149 76.4293,24.1482 74.5,22.5C 74.7215,19.9327 75.3882,17.5994 76.5,15.5C 76.4346,15.9382 76.6012,16.2716 77,16.5C 79.0948,14.8753 81.2615,13.5419 83.5,12.5 Z"/></g>
<g><path style="opacity:0.985" fill="#98f7fd" d="M 100.5,17.5 C 115.1,27.9868 123.267,42.3202 125,60.5C 125.469,66.1815 125.302,71.8482 124.5,77.5C 117.26,75.6847 110.593,77.0181 104.5,81.5C 103.476,80.1482 102.476,78.8149 101.5,77.5C 103.113,70.9201 103.613,64.2534 103,57.5C 101.482,53.151 98.9816,49.4844 95.5,46.5C 96.2931,42.1203 97.2931,37.7869 98.5,33.5C 98.8333,32.1667 99.1667,30.8333 99.5,29.5C 100.483,25.7016 100.817,21.7016 100.5,17.5 Z"/></g>
<g><path style="opacity:0.979" fill="#97f8fd" d="M 24.5,18.5 C 24.5,30.1667 24.5,41.8333 24.5,53.5C 23.391,53.4431 22.391,53.1098 21.5,52.5C 19.5395,50.6878 17.2061,49.6878 14.5,49.5C 14.3341,54.5111 14.5007,59.5111 15,64.5C 17.6947,66.6944 20.528,68.6944 23.5,70.5C 24.4287,71.6888 24.762,73.0222 24.5,74.5C 21.6575,75.1723 19.1575,76.5056 17,78.5C 12.8769,74.7346 8.04359,72.4012 2.5,71.5C 0.681383,50.1255 8.01472,32.4588 24.5,18.5 Z"/></g>
<g><path style="opacity:0.998" fill="#c0b393" d="M 26.5,17.5 C 25.8522,29.5984 25.1855,41.5984 24.5,53.5C 24.5,41.8333 24.5,30.1667 24.5,18.5C 24.8417,17.6618 25.5084,17.3284 26.5,17.5 Z"/></g>
<g><path style="opacity:1" fill="#615b62" d="M 83.5,20.5 C 85.1667,20.5 86.8333,20.5 88.5,20.5C 88.6602,22.1992 88.4935,23.8659 88,25.5C 86.6667,26.8333 85.3333,26.8333 84,25.5C 83.5065,23.8659 83.3398,22.1992 83.5,20.5 Z"/></g>
<g><path style="opacity:1" fill="#504d53" d="M 74.5,22.5 C 76.4293,24.1482 78.4293,25.8149 80.5,27.5C 79.1455,29.5212 77.4788,31.1879 75.5,32.5C 68.9796,31.9295 62.6463,30.5962 56.5,28.5C 56.5,27.8333 56.5,27.1667 56.5,26.5C 62.518,25.1646 68.518,23.8313 74.5,22.5 Z"/></g>
<g><path style="opacity:1" fill="#5b565e" d="M 99.5,29.5 C 99.1667,30.8333 98.8333,32.1667 98.5,33.5C 96.8523,34.8098 95.1856,36.1431 93.5,37.5C 90.585,33.6526 91.2516,30.4859 95.5,28C 97.4628,27.1558 98.7961,27.6558 99.5,29.5 Z"/></g>
<g><path style="opacity:1" fill="#98f7fd" d="M 56.5,28.5 C 62.6463,30.5962 68.9796,31.9295 75.5,32.5C 76.4735,35.135 78.1402,37.135 80.5,38.5C 72.32,42.8452 66.9867,49.5119 64.5,58.5C 61.8333,56.1667 59.1667,53.8333 56.5,51.5C 56.5,43.8333 56.5,36.1667 56.5,28.5 Z"/></g>
<g><path style="opacity:1" fill="#675f68" d="M 80.5,38.5 C 84.1693,39.7506 87.836,39.7506 91.5,38.5C 92.7681,40.3043 93.4348,42.3043 93.5,44.5C 91.5328,44.2606 89.6995,44.5939 88,45.5C 84.6674,58.1617 81.334,70.8283 78,83.5C 76.2417,91.0379 77.7417,97.7046 82.5,103.5C 80.2262,108.894 78.3929,114.56 77,120.5C 75.4931,121.535 73.9931,121.368 72.5,120C 67.3505,116.534 64.6838,111.701 64.5,105.5C 65.7591,100.205 66.7591,94.8717 67.5,89.5C 68.4343,88.2275 69.101,86.7275 69.5,85C 67.3494,81.3831 65.6828,77.5498 64.5,73.5C 63.8505,71.5648 63.5172,69.5648 63.5,67.5C 63.5,65.8333 63.5,64.1667 63.5,62.5C 63.4326,61.0413 63.7659,59.7079 64.5,58.5C 66.9867,49.5119 72.32,42.8452 80.5,38.5 Z"/></g>
<g><path style="opacity:1" fill="#434044" d="M 93.5,44.5 C 93.5,44.8333 93.5,45.1667 93.5,45.5C 90.4367,59.6494 87.4367,73.8161 84.5,88C 84.4933,91.2579 84.9933,94.4245 86,97.5C 88.0222,101.003 90.1888,104.337 92.5,107.5C 91.3991,108.598 90.0657,108.765 88.5,108C 86.34,106.668 84.34,105.168 82.5,103.5C 77.7417,97.7046 76.2417,91.0379 78,83.5C 81.334,70.8283 84.6674,58.1617 88,45.5C 89.6995,44.5939 91.5328,44.2606 93.5,44.5 Z"/></g>
<g><path style="opacity:1" fill="#544e56" d="M 93.5,45.5 C 94.1667,45.8333 94.8333,46.1667 95.5,46.5C 98.9816,49.4844 101.482,53.151 103,57.5C 103.613,64.2534 103.113,70.9201 101.5,77.5C 97.8839,87.2938 94.8839,97.2938 92.5,107.5C 90.1888,104.337 88.0222,101.003 86,97.5C 84.9933,94.4245 84.4933,91.2579 84.5,88C 87.4367,73.8161 90.4367,59.6494 93.5,45.5 Z"/></g>
<g><path style="opacity:1" fill="#c37d46" d="M 21.5,52.5 C 21.335,55.8499 21.5017,59.1832 22,62.5C 25,64.5 28,66.5 31,68.5C 31.4999,85.1633 31.6666,101.83 31.5,118.5C 28.6298,117.567 26.2964,115.9 24.5,113.5C 24.5,100.5 24.5,87.5 24.5,74.5C 24.762,73.0222 24.4287,71.6888 23.5,70.5C 20.528,68.6944 17.6947,66.6944 15,64.5C 14.5007,59.5111 14.3341,54.5111 14.5,49.5C 17.2061,49.6878 19.5395,50.6878 21.5,52.5 Z"/></g>
<g><path style="opacity:1" fill="#e4dfdd" d="M 56.5,51.5 C 59.1667,53.8333 61.8333,56.1667 64.5,58.5C 63.7659,59.7079 63.4326,61.0413 63.5,62.5C 61.1667,60.5 58.8333,58.5 56.5,56.5C 56.5,54.8333 56.5,53.1667 56.5,51.5 Z"/></g>
<g><path style="opacity:1" fill="#a2f5fa" d="M 56.5,56.5 C 58.8333,58.5 61.1667,60.5 63.5,62.5C 63.5,64.1667 63.5,65.8333 63.5,67.5C 61.1667,65.5 58.8333,63.5 56.5,61.5C 56.5,59.8333 56.5,58.1667 56.5,56.5 Z"/></g>
<g><path style="opacity:1" fill="#e1dedc" d="M 56.5,61.5 C 58.8333,63.5 61.1667,65.5 63.5,67.5C 63.5172,69.5648 63.8505,71.5648 64.5,73.5C 61.8333,71.1667 59.1667,68.8333 56.5,66.5C 56.5,64.8333 56.5,63.1667 56.5,61.5 Z"/></g>
<g><path style="opacity:1" fill="#97f5fa" d="M 56.5,66.5 C 59.1667,68.8333 61.8333,71.1667 64.5,73.5C 65.6828,77.5498 67.3494,81.3831 69.5,85C 69.101,86.7275 68.4343,88.2275 67.5,89.5C 66.2196,88.0687 64.5529,87.4021 62.5,87.5C 62.8134,84.7531 62.48,82.0865 61.5,79.5C 60.1667,80.1667 58.8333,80.8333 57.5,81.5C 56.5059,76.544 56.1725,71.544 56.5,66.5 Z"/></g>
<g><path style="opacity:0.97" fill="#02cb75" d="M 2.5,71.5 C 8.04359,72.4012 12.8769,74.7346 17,78.5C 19.1575,76.5056 21.6575,75.1723 24.5,74.5C 24.5,87.5 24.5,100.5 24.5,113.5C 10.8844,102.941 3.55103,88.9407 2.5,71.5 Z"/></g>
<g><path style="opacity:0.976" fill="#06c975" d="M 124.5,77.5 C 118.111,104.556 101.444,121.223 74.5,127.5C 68.5,127.5 62.5,127.5 56.5,127.5C 56.3335,117.828 56.5002,108.161 57,98.5C 61.6368,96.371 63.4702,92.7044 62.5,87.5C 64.5529,87.4021 66.2196,88.0687 67.5,89.5C 66.7591,94.8717 65.7591,100.205 64.5,105.5C 64.6838,111.701 67.3505,116.534 72.5,120C 73.9931,121.368 75.4931,121.535 77,120.5C 78.3929,114.56 80.2262,108.894 82.5,103.5C 84.34,105.168 86.34,106.668 88.5,108C 90.0657,108.765 91.3991,108.598 92.5,107.5C 94.8839,97.2938 97.8839,87.2938 101.5,77.5C 102.476,78.8149 103.476,80.1482 104.5,81.5C 110.593,77.0181 117.26,75.6847 124.5,77.5 Z"/></g>
</svg>
