<?xml version="1.0" encoding="UTF-8"?>
<svg xmlns="http://www.w3.org/2000/svg" xmlns:xlink="http://www.w3.org/1999/xlink" width="16px" height="16px" viewBox="0 0 16 16" version="1.1">
<g id="surface1">
<path style=" stroke:none;fill-rule:nonzero;fill:rgb(0.784314%,0.784314%,0.392157%);fill-opacity:1;" d="M 13.65625 0.683594 C 13.71875 0.726562 13.71875 0.726562 13.789062 0.703125 C 13.820312 0.6875 13.847656 0.671875 13.875 0.65625 C 13.917969 0.632812 13.957031 0.613281 14 0.59375 C 14.019531 0.582031 14.039062 0.570312 14.0625 0.558594 C 14.308594 0.453125 14.613281 0.472656 14.863281 0.558594 C 15.117188 0.675781 15.324219 0.878906 15.4375 1.136719 C 15.542969 1.4375 15.53125 1.738281 15.40625 2.03125 C 15.382812 2.066406 15.359375 2.097656 15.335938 2.132812 C 15.269531 2.214844 15.269531 2.214844 15.300781 2.300781 C 15.351562 2.425781 15.414062 2.539062 15.476562 2.652344 C 15.835938 3.316406 16.011719 4.039062 16.011719 4.796875 C 16.011719 4.835938 16.011719 4.871094 16.015625 4.910156 C 16.015625 5.433594 15.832031 5.832031 15.476562 6.210938 C 15.320312 6.367188 15.183594 6.460938 14.96875 6.53125 C 14.96875 6.589844 14.96875 6.589844 14.96875 6.652344 C 14.972656 7.023438 14.972656 7.398438 14.972656 7.769531 C 14.972656 7.960938 14.976562 8.15625 14.976562 8.347656 C 14.976562 8.53125 14.976562 8.71875 14.976562 8.902344 C 14.976562 8.972656 14.976562 9.042969 14.980469 9.113281 C 14.980469 9.574219 14.972656 9.96875 14.757812 10.382812 C 14.746094 10.402344 14.734375 10.425781 14.722656 10.449219 C 14.640625 10.601562 14.550781 10.742188 14.4375 10.875 C 14.402344 10.921875 14.402344 10.921875 14.367188 10.96875 C 14.230469 11.128906 14.054688 11.253906 13.886719 11.382812 C 13.835938 11.421875 13.785156 11.464844 13.734375 11.503906 C 13.703125 11.527344 13.671875 11.550781 13.640625 11.578125 C 13.519531 11.699219 13.476562 11.824219 13.453125 12 C 13.460938 12.15625 13.519531 12.261719 13.625 12.375 C 13.707031 12.441406 13.792969 12.507812 13.878906 12.570312 C 14.179688 12.792969 14.390625 13.082031 14.460938 13.453125 C 14.503906 13.851562 14.453125 14.226562 14.214844 14.554688 C 13.898438 14.933594 13.589844 15.140625 13.109375 15.242188 C 12.949219 15.253906 12.785156 15.253906 12.625 15.25 C 12.636719 15.292969 12.644531 15.332031 12.65625 15.375 C 12.65625 15.582031 12.65625 15.789062 12.65625 16 C 11.203125 16 9.75 16 8.25 16 C 8.25 15.660156 8.25 15.320312 8.25 14.96875 C 7.589844 14.96875 6.929688 14.96875 6.25 14.96875 C 6.3125 15.15625 6.375 15.339844 6.4375 15.53125 C 6.5 15.761719 6.5 15.761719 6.5625 16 C 6.027344 16 5.488281 16 4.9375 16 C 4.75 15.34375 4.75 15.34375 4.691406 15.136719 C 4.671875 15.082031 4.65625 15.027344 4.640625 14.976562 C 4.632812 14.945312 4.625 14.917969 4.617188 14.890625 C 4.5625 14.710938 4.492188 14.59375 4.363281 14.460938 C 4.296875 14.390625 4.257812 14.316406 4.222656 14.226562 C 4.210938 14.199219 4.199219 14.171875 4.1875 14.140625 C 4.089844 13.890625 4.125 13.753906 4.125 13.4375 C 3.335938 13.453125 3.335938 13.453125 2.53125 13.46875 C 2.476562 13.648438 2.421875 13.828125 2.367188 14.015625 C 2.335938 14.128906 2.300781 14.242188 2.265625 14.355469 C 2.210938 14.535156 2.15625 14.71875 2.105469 14.898438 C 2.0625 15.042969 2.015625 15.191406 1.972656 15.335938 C 1.957031 15.390625 1.941406 15.445312 1.921875 15.503906 C 1.898438 15.582031 1.878906 15.65625 1.855469 15.734375 C 1.847656 15.757812 1.839844 15.78125 1.832031 15.804688 C 1.785156 15.964844 1.785156 15.964844 1.75 16 C 1.699219 16.003906 1.648438 16.003906 1.601562 16.003906 C 1.566406 16.003906 1.535156 16.003906 1.503906 16.003906 C 1.46875 16.003906 1.433594 16.003906 1.398438 16.003906 C 1.363281 16.003906 1.328125 16.003906 1.292969 16.003906 C 1.179688 16.003906 1.066406 16.003906 0.953125 16 C 0.875 16 0.796875 16 0.722656 16 C 0.53125 16 0.34375 16 0.15625 16 C 0.238281 15.664062 0.328125 15.332031 0.429688 15 C 0.445312 14.953125 0.457031 14.910156 0.472656 14.863281 C 0.507812 14.746094 0.542969 14.628906 0.578125 14.507812 C 0.617188 14.386719 0.652344 14.265625 0.691406 14.144531 C 0.761719 13.910156 0.835938 13.671875 0.90625 13.4375 C 0.871094 13.4375 0.839844 13.441406 0.804688 13.441406 C 0.757812 13.441406 0.714844 13.441406 0.671875 13.445312 C 0.636719 13.445312 0.636719 13.445312 0.601562 13.445312 C 0.425781 13.449219 0.273438 13.417969 0.132812 13.296875 C 0.0390625 13.167969 -0.00390625 13.101562 -0.00390625 12.945312 C -0.00390625 12.910156 -0.00390625 12.878906 -0.00390625 12.847656 C -0.00390625 12.8125 -0.00390625 12.777344 -0.00390625 12.738281 C -0.00390625 12.703125 -0.00390625 12.664062 -0.00390625 12.625 C -0.00390625 12.523438 -0.00390625 12.417969 -0.00390625 12.316406 C -0.00390625 12.203125 -0.0078125 12.089844 -0.0078125 11.980469 C -0.0078125 11.707031 -0.0078125 11.4375 -0.0078125 11.167969 C -0.0078125 11.039062 -0.0078125 10.914062 -0.0078125 10.785156 C -0.0078125 10.363281 -0.0078125 9.941406 -0.0078125 9.515625 C -0.0078125 9.40625 -0.0078125 9.296875 -0.0078125 9.1875 C -0.0078125 9.160156 -0.0078125 9.132812 -0.0078125 9.105469 C -0.0078125 8.664062 -0.0117188 8.21875 -0.0117188 7.777344 C -0.0117188 7.324219 -0.0117188 6.871094 -0.0117188 6.414062 C -0.0117188 6.160156 -0.0117188 5.90625 -0.015625 5.652344 C -0.015625 5.433594 -0.015625 5.21875 -0.015625 5 C -0.015625 4.890625 -0.015625 4.777344 -0.015625 4.667969 C -0.015625 4.546875 -0.015625 4.425781 -0.015625 4.308594 C -0.015625 4.273438 -0.015625 4.238281 -0.015625 4.199219 C -0.015625 4.007812 -0.00390625 3.894531 0.125 3.75 C 0.300781 3.617188 0.425781 3.589844 0.640625 3.589844 C 0.664062 3.589844 0.6875 3.589844 0.714844 3.589844 C 0.796875 3.589844 0.875 3.589844 0.957031 3.589844 C 1.015625 3.589844 1.074219 3.589844 1.132812 3.589844 C 1.289062 3.589844 1.449219 3.589844 1.605469 3.589844 C 1.769531 3.589844 1.933594 3.589844 2.101562 3.589844 C 2.378906 3.589844 2.65625 3.589844 2.929688 3.589844 C 3.253906 3.589844 3.574219 3.589844 3.894531 3.589844 C 4.167969 3.589844 4.445312 3.589844 4.71875 3.589844 C 4.882812 3.589844 5.046875 3.589844 5.210938 3.589844 C 5.367188 3.589844 5.519531 3.589844 5.675781 3.589844 C 5.730469 3.589844 5.789062 3.589844 5.84375 3.589844 C 5.921875 3.589844 6 3.589844 6.078125 3.589844 C 6.101562 3.589844 6.121094 3.589844 6.144531 3.589844 C 6.242188 3.589844 6.316406 3.59375 6.40625 3.625 C 6.421875 3.589844 6.441406 3.558594 6.457031 3.523438 C 6.605469 3.230469 6.761719 2.972656 6.96875 2.71875 C 6.988281 2.695312 7.003906 2.671875 7.023438 2.648438 C 7.578125 1.976562 8.433594 1.628906 9.28125 1.53125 C 9.285156 1.507812 9.289062 1.488281 9.292969 1.464844 C 9.40625 0.945312 9.691406 0.542969 10.125 0.242188 C 11.160156 -0.367188 12.703125 0.0898438 13.65625 0.683594 Z M 13.65625 0.683594 "/>
<path style=" stroke:none;fill-rule:nonzero;fill:rgb(89.411765%,90.588235%,92.156863%);fill-opacity:1;" d="M 0.53125 4.125 C 2.398438 4.125 4.265625 4.125 6.1875 4.125 C 6.1875 6.144531 6.1875 8.167969 6.1875 10.25 C 6.0625 10.199219 5.972656 10.152344 5.863281 10.078125 C 5.507812 9.851562 5.144531 9.785156 4.722656 9.859375 C 4.5625 9.902344 4.421875 9.976562 4.277344 10.0625 C 4.21875 10.09375 4.21875 10.09375 4.125 10.09375 C 4.140625 10.0625 4.15625 10.027344 4.175781 9.992188 C 4.457031 9.410156 4.609375 8.871094 4.609375 8.21875 C 4.609375 8.183594 4.609375 8.183594 4.609375 8.148438 C 4.605469 7.253906 4.261719 6.574219 3.761719 5.851562 C 3.722656 5.792969 3.6875 5.738281 3.648438 5.683594 C 3.574219 5.574219 3.5 5.464844 3.425781 5.355469 C 3.304688 5.179688 3.183594 5 3.066406 4.820312 C 3.046875 4.792969 3.027344 4.765625 3.007812 4.738281 C 2.992188 4.710938 2.972656 4.683594 2.953125 4.65625 C 2.933594 4.625 2.933594 4.625 2.90625 4.589844 C 2.875 4.53125 2.875 4.53125 2.875 4.46875 C 2.773438 4.5625 2.699219 4.664062 2.621094 4.785156 C 2.609375 4.800781 2.597656 4.820312 2.585938 4.835938 C 2.550781 4.894531 2.511719 4.949219 2.476562 5.007812 C 2.453125 5.046875 2.425781 5.085938 2.402344 5.125 C 2.339844 5.21875 2.28125 5.3125 2.21875 5.40625 C 2.0625 5.335938 1.972656 5.21875 1.859375 5.09375 C 1.789062 5.023438 1.789062 5.023438 1.71875 5.03125 C 1.636719 5.070312 1.585938 5.125 1.523438 5.1875 C 1.5 5.210938 1.480469 5.234375 1.457031 5.257812 C 1.441406 5.277344 1.421875 5.292969 1.40625 5.3125 C 1.449219 5.402344 1.492188 5.46875 1.5625 5.539062 C 1.589844 5.566406 1.589844 5.566406 1.617188 5.59375 C 1.636719 5.609375 1.65625 5.628906 1.675781 5.648438 C 1.695312 5.667969 1.714844 5.6875 1.734375 5.707031 C 1.78125 5.75 1.828125 5.796875 1.875 5.84375 C 1.832031 5.96875 1.769531 6.070312 1.699219 6.179688 C 1.679688 6.210938 1.660156 6.242188 1.640625 6.273438 C 1.625 6.296875 1.609375 6.320312 1.59375 6.34375 C 1.492188 6.300781 1.425781 6.246094 1.351562 6.167969 C 1.324219 6.136719 1.324219 6.136719 1.292969 6.109375 C 1.277344 6.09375 1.265625 6.078125 1.25 6.0625 C 1.148438 6.105469 1.082031 6.160156 1.007812 6.238281 C 0.988281 6.257812 0.96875 6.277344 0.949219 6.296875 C 0.933594 6.3125 0.921875 6.328125 0.90625 6.34375 C 0.960938 6.488281 1.082031 6.582031 1.195312 6.683594 C 1.242188 6.726562 1.242188 6.726562 1.3125 6.8125 C 1.3125 6.886719 1.3125 6.886719 1.28125 6.96875 C 1.265625 7.023438 1.265625 7.023438 1.246094 7.078125 C 1.238281 7.097656 1.234375 7.117188 1.226562 7.140625 C 0.914062 8.082031 1.027344 9.058594 1.464844 9.9375 C 1.589844 10.175781 1.738281 10.386719 1.90625 10.59375 C 1.925781 10.617188 1.945312 10.640625 1.964844 10.667969 C 2.074219 10.796875 2.175781 10.894531 2.324219 10.976562 C 2.421875 11.046875 2.507812 11.136719 2.59375 11.21875 C 2.59375 11.433594 2.59375 11.652344 2.59375 11.875 C 2.078125 11.875 1.5625 11.875 1.03125 11.875 C 1.03125 12.039062 1.03125 12.203125 1.03125 12.375 C 1.085938 12.375 1.085938 12.375 1.144531 12.371094 C 1.5 12.363281 1.855469 12.355469 2.214844 12.351562 C 2.394531 12.347656 2.578125 12.34375 2.761719 12.339844 C 2.9375 12.335938 3.113281 12.332031 3.292969 12.332031 C 3.359375 12.328125 3.425781 12.328125 3.492188 12.324219 C 4.007812 12.308594 4.007812 12.308594 4.152344 12.421875 C 4.265625 12.546875 4.40625 12.734375 4.40625 12.90625 C 3.128906 12.90625 1.847656 12.90625 0.53125 12.90625 C 0.53125 10.007812 0.53125 7.109375 0.53125 4.125 Z M 0.53125 4.125 "/>
<path style=" stroke:none;fill-rule:nonzero;fill:rgb(93.333333%,80.784314%,70.196078%);fill-opacity:1;" d="M 8 5.03125 C 8.03125 5.058594 8.0625 5.085938 8.09375 5.113281 C 8.117188 5.128906 8.136719 5.148438 8.15625 5.164062 C 8.195312 5.199219 8.230469 5.230469 8.269531 5.265625 C 8.617188 5.589844 9.015625 5.664062 9.472656 5.660156 C 9.566406 5.65625 9.660156 5.65625 9.753906 5.65625 C 9.929688 5.65625 10.101562 5.65625 10.277344 5.652344 C 11.300781 5.636719 11.300781 5.636719 11.6875 6 C 11.753906 6.039062 11.820312 6.078125 11.890625 6.113281 C 11.917969 6.128906 11.945312 6.140625 11.972656 6.15625 C 11.992188 6.167969 12.011719 6.175781 12.03125 6.1875 C 12.03125 6.199219 12.03125 6.207031 12.03125 6.21875 C 12.015625 6.222656 11.996094 6.226562 11.976562 6.230469 C 11.746094 6.296875 11.574219 6.410156 11.449219 6.617188 C 11.398438 6.742188 11.390625 6.847656 11.382812 6.980469 C 11.382812 7.058594 11.378906 7.136719 11.375 7.21875 C 11.539062 7.21875 11.703125 7.21875 11.875 7.21875 C 11.871094 7.164062 11.871094 7.113281 11.867188 7.054688 C 11.867188 6.941406 11.871094 6.882812 11.921875 6.773438 C 12.015625 6.707031 12.074219 6.703125 12.1875 6.699219 C 12.28125 6.726562 12.316406 6.765625 12.375 6.84375 C 12.390625 6.972656 12.378906 7.089844 12.375 7.21875 C 12.550781 7.21875 12.726562 7.21875 12.90625 7.21875 C 12.902344 7.152344 12.902344 7.085938 12.898438 7.015625 C 12.898438 6.980469 12.894531 6.941406 12.894531 6.90625 C 12.875 6.75 12.875 6.75 12.75 6.5 C 13.074219 6.5625 13.074219 6.5625 13.40625 6.625 C 13.410156 6.859375 13.410156 7.097656 13.414062 7.332031 C 13.414062 7.414062 13.414062 7.492188 13.414062 7.574219 C 13.425781 8.433594 13.425781 8.433594 13.28125 8.8125 C 13.265625 8.851562 13.265625 8.851562 13.253906 8.886719 C 13.226562 8.949219 13.199219 9.007812 13.171875 9.066406 C 13.160156 9.085938 13.148438 9.109375 13.136719 9.128906 C 12.824219 9.710938 12.3125 10.058594 11.695312 10.265625 C 11.476562 10.316406 11.261719 10.316406 11.039062 10.316406 C 11.003906 10.316406 10.96875 10.316406 10.933594 10.316406 C 10.859375 10.316406 10.785156 10.316406 10.710938 10.316406 C 10.601562 10.316406 10.488281 10.320312 10.375 10.320312 C 10.304688 10.320312 10.230469 10.320312 10.160156 10.320312 C 10.109375 10.320312 10.109375 10.320312 10.058594 10.320312 C 9.855469 10.320312 9.667969 10.296875 9.46875 10.25 C 9.429688 10.242188 9.429688 10.242188 9.390625 10.230469 C 9.222656 10.191406 9.078125 10.121094 8.929688 10.035156 C 8.898438 10.019531 8.898438 10.019531 8.871094 10.003906 C 8.6875 9.894531 8.558594 9.75 8.425781 9.582031 C 8.375 9.527344 8.375 9.527344 8.296875 9.488281 C 8.046875 9.324219 7.863281 8.867188 7.796875 8.585938 C 7.738281 8.277344 7.738281 7.96875 7.738281 7.65625 C 7.738281 7.597656 7.738281 7.535156 7.738281 7.476562 C 7.738281 7.351562 7.738281 7.222656 7.738281 7.097656 C 7.738281 6.9375 7.734375 6.777344 7.734375 6.617188 C 7.734375 6.492188 7.734375 6.371094 7.734375 6.246094 C 7.734375 6.1875 7.730469 6.128906 7.730469 6.070312 C 7.726562 5.675781 7.746094 5.351562 8 5.03125 Z M 8 5.03125 "/>
<path style=" stroke:none;fill-rule:nonzero;fill:rgb(98.039216%,42.745098%,31.372549%);fill-opacity:1;" d="M 14.1875 1.8125 C 14.199219 2.558594 14.09375 3.285156 13.875 4 C 13.867188 4.023438 13.859375 4.046875 13.855469 4.066406 C 13.671875 4.652344 13.410156 5.210938 13.09375 5.734375 C 13.078125 5.757812 13.0625 5.78125 13.050781 5.804688 C 12.949219 5.964844 12.949219 5.964844 12.84375 6 C 11.828125 5.691406 10.898438 4.917969 10.375 4 C 10.320312 3.898438 10.269531 3.796875 10.21875 3.695312 C 10.210938 3.667969 10.199219 3.644531 10.1875 3.621094 C 10.105469 3.449219 10.050781 3.277344 10 3.09375 C 10.644531 2.609375 11.414062 2.277344 12.1875 2.0625 C 12.242188 2.046875 12.242188 2.046875 12.300781 2.03125 C 12.917969 1.859375 13.550781 1.789062 14.1875 1.8125 Z M 14.1875 1.8125 "/>
<path style=" stroke:none;fill-rule:nonzero;fill:rgb(69.019608%,47.058824%,27.058824%);fill-opacity:1;" d="M 9.3125 2.09375 C 9.316406 2.113281 9.316406 2.128906 9.320312 2.148438 C 9.445312 3.191406 9.78125 4.15625 10.472656 4.960938 C 10.523438 5.023438 10.558594 5.082031 10.59375 5.15625 C 10.382812 5.160156 10.167969 5.160156 9.957031 5.164062 C 9.882812 5.164062 9.8125 5.164062 9.742188 5.164062 C 9.636719 5.167969 9.53125 5.167969 9.429688 5.167969 C 9.378906 5.167969 9.378906 5.167969 9.332031 5.171875 C 9.011719 5.171875 8.765625 5.074219 8.53125 4.855469 C 8.355469 4.648438 8.246094 4.421875 8.246094 4.148438 C 8.246094 4.121094 8.246094 4.089844 8.246094 4.058594 C 8.246094 4.007812 8.246094 4.007812 8.25 3.960938 C 8.25 3.929688 8.25 3.898438 8.25 3.863281 C 8.25 3.785156 8.25 3.703125 8.25 3.625 C 8.085938 3.625 7.921875 3.625 7.75 3.625 C 7.757812 3.714844 7.757812 3.714844 7.765625 3.804688 C 7.769531 3.882812 7.777344 3.964844 7.78125 4.042969 C 7.785156 4.082031 7.789062 4.121094 7.792969 4.160156 C 7.804688 4.375 7.800781 4.503906 7.664062 4.671875 C 7.621094 4.71875 7.574219 4.765625 7.53125 4.8125 C 7.46875 4.90625 7.46875 4.90625 7.429688 4.996094 C 7.414062 5.023438 7.398438 5.050781 7.386719 5.078125 C 7.246094 5.441406 7.234375 5.785156 7.238281 6.167969 C 7.234375 6.222656 7.234375 6.28125 7.234375 6.339844 C 7.234375 6.460938 7.234375 6.585938 7.234375 6.707031 C 7.238281 6.859375 7.234375 7.015625 7.234375 7.167969 C 7.234375 7.289062 7.234375 7.410156 7.234375 7.53125 C 7.234375 7.585938 7.234375 7.644531 7.234375 7.699219 C 7.230469 8.21875 7.300781 8.699219 7.5 9.175781 C 7.53125 9.25 7.53125 9.25 7.53125 9.3125 C 7.496094 9.324219 7.496094 9.324219 7.460938 9.335938 C 7.136719 9.460938 6.902344 9.621094 6.75 9.9375 C 6.738281 9.9375 6.730469 9.9375 6.71875 9.9375 C 6.71875 9.246094 6.714844 8.558594 6.714844 7.867188 C 6.714844 7.546875 6.714844 7.226562 6.714844 6.90625 C 6.714844 6.628906 6.714844 6.347656 6.710938 6.070312 C 6.710938 5.921875 6.710938 5.773438 6.710938 5.625 C 6.710938 5.488281 6.710938 5.347656 6.710938 5.207031 C 6.710938 5.15625 6.710938 5.105469 6.710938 5.054688 C 6.707031 4.289062 6.890625 3.570312 7.433594 3.003906 C 7.476562 2.960938 7.519531 2.917969 7.5625 2.875 C 7.589844 2.851562 7.613281 2.824219 7.640625 2.796875 C 8.089844 2.367188 8.683594 2.082031 9.3125 2.09375 Z M 9.3125 2.09375 "/>
<path style=" stroke:none;fill-rule:nonzero;fill:rgb(65.882353%,69.019608%,73.333333%);fill-opacity:1;" d="M 7.976562 9.867188 C 8.097656 9.933594 8.191406 10.011719 8.238281 10.148438 C 8.253906 10.246094 8.253906 10.339844 8.253906 10.441406 C 8.253906 10.460938 8.253906 10.484375 8.253906 10.507812 C 8.253906 10.578125 8.253906 10.652344 8.253906 10.722656 C 8.253906 10.773438 8.253906 10.824219 8.253906 10.875 C 8.253906 11.007812 8.253906 11.136719 8.253906 11.269531 C 8.25 11.40625 8.25 11.539062 8.25 11.675781 C 8.25 11.941406 8.25 12.203125 8.25 12.46875 C 8.015625 12.527344 7.78125 12.585938 7.550781 12.644531 C 7.46875 12.664062 7.390625 12.683594 7.3125 12.703125 C 7.195312 12.734375 7.082031 12.761719 6.96875 12.789062 C 6.914062 12.804688 6.914062 12.804688 6.859375 12.816406 C 6.8125 12.828125 6.8125 12.828125 6.761719 12.839844 C 6.730469 12.847656 6.703125 12.855469 6.671875 12.863281 C 6.589844 12.875 6.542969 12.871094 6.46875 12.84375 C 6.414062 12.796875 6.414062 12.796875 6.359375 12.742188 C 6.109375 12.515625 5.792969 12.433594 5.464844 12.429688 C 5.4375 12.429688 5.414062 12.429688 5.386719 12.429688 C 5.222656 12.425781 5.089844 12.449219 4.9375 12.515625 C 4.859375 12.535156 4.824219 12.535156 4.75 12.5 C 4.6875 12.425781 4.6875 12.425781 4.625 12.328125 C 4.613281 12.3125 4.601562 12.292969 4.589844 12.277344 C 4.566406 12.238281 4.542969 12.203125 4.519531 12.164062 C 4.484375 12.109375 4.445312 12.054688 4.410156 12 C 4.210938 11.699219 4.078125 11.429688 4.125 11.0625 C 4.15625 10.960938 4.195312 10.871094 4.25 10.78125 C 4.261719 10.761719 4.273438 10.742188 4.28125 10.722656 C 4.402344 10.53125 4.59375 10.394531 4.8125 10.332031 C 5.230469 10.253906 5.511719 10.417969 5.855469 10.640625 C 6.070312 10.78125 6.238281 10.84375 6.5 10.8125 C 6.695312 10.757812 6.894531 10.679688 7.007812 10.503906 C 7.0625 10.40625 7.109375 10.304688 7.160156 10.207031 C 7.332031 9.882812 7.613281 9.695312 7.976562 9.867188 Z M 7.976562 9.867188 "/>
<path style=" stroke:none;fill-rule:nonzero;fill:rgb(69.019608%,47.058824%,27.058824%);fill-opacity:1;" d="M 14.4375 6.6875 C 14.441406 7.070312 14.441406 7.457031 14.445312 7.839844 C 14.445312 8.019531 14.445312 8.195312 14.445312 8.375 C 14.449219 8.546875 14.449219 8.71875 14.449219 8.890625 C 14.449219 8.957031 14.449219 9.023438 14.449219 9.089844 C 14.457031 9.699219 14.375 10.191406 13.929688 10.648438 C 13.738281 10.828125 13.535156 10.992188 13.328125 11.15625 C 13.125 11.324219 13.019531 11.5 12.9375 11.75 C 12.910156 12.074219 12.945312 12.394531 13.15625 12.65625 C 13.316406 12.816406 13.496094 12.957031 13.675781 13.09375 C 13.832031 13.226562 13.921875 13.425781 13.953125 13.628906 C 13.964844 13.910156 13.882812 14.109375 13.703125 14.320312 C 13.507812 14.53125 13.285156 14.667969 13 14.71875 C 12.917969 14.722656 12.839844 14.722656 12.757812 14.71875 C 12.726562 14.71875 12.726562 14.71875 12.691406 14.71875 C 12.636719 14.71875 12.585938 14.71875 12.53125 14.71875 C 12.527344 14.703125 12.519531 14.683594 12.515625 14.667969 C 12.328125 14.09375 12.097656 13.539062 11.722656 13.0625 C 11.6875 13 11.6875 13 11.6875 12.941406 C 11.734375 12.839844 11.816406 12.773438 11.898438 12.695312 C 12.050781 12.550781 12.167969 12.414062 12.25 12.21875 C 12.261719 12.199219 12.269531 12.179688 12.28125 12.160156 C 12.40625 11.867188 12.394531 11.464844 12.28125 11.171875 C 12.199219 11.003906 12.089844 10.859375 11.96875 10.71875 C 12.042969 10.644531 12.097656 10.628906 12.195312 10.59375 C 12.863281 10.316406 13.390625 9.804688 13.679688 9.140625 C 13.835938 8.722656 13.910156 8.335938 13.917969 7.890625 C 13.917969 7.839844 13.917969 7.839844 13.917969 7.789062 C 13.921875 7.683594 13.921875 7.574219 13.921875 7.46875 C 13.925781 7.394531 13.925781 7.324219 13.929688 7.25 C 13.929688 7.074219 13.933594 6.894531 13.9375 6.71875 C 14.015625 6.714844 14.09375 6.707031 14.171875 6.703125 C 14.191406 6.703125 14.214844 6.699219 14.238281 6.699219 C 14.402344 6.6875 14.402344 6.6875 14.4375 6.6875 Z M 14.4375 6.6875 "/>
<path style=" stroke:none;fill-rule:nonzero;fill:rgb(93.72549%,81.176471%,70.196078%);fill-opacity:1;" d="M 9.25 12.25 C 9.347656 12.292969 9.414062 12.34375 9.488281 12.421875 C 9.523438 12.453125 9.523438 12.453125 9.554688 12.488281 C 9.578125 12.511719 9.601562 12.535156 9.625 12.558594 C 9.652344 12.582031 9.675781 12.605469 9.699219 12.632812 C 9.777344 12.707031 9.851562 12.785156 9.929688 12.863281 C 9.980469 12.914062 10.035156 12.96875 10.085938 13.019531 C 10.214844 13.148438 10.339844 13.277344 10.46875 13.40625 C 10.320312 13.582031 10.167969 13.746094 10.007812 13.910156 C 9.96875 13.945312 9.96875 13.945312 9.933594 13.984375 C 9.78125 14.136719 9.636719 14.257812 9.4375 14.34375 C 9.402344 14.359375 9.367188 14.375 9.332031 14.390625 C 9.15625 14.457031 8.980469 14.453125 8.796875 14.449219 C 8.738281 14.453125 8.738281 14.453125 8.679688 14.453125 C 8.574219 14.453125 8.46875 14.453125 8.363281 14.453125 C 8.300781 14.453125 8.234375 14.453125 8.167969 14.453125 C 7.9375 14.453125 7.707031 14.453125 7.476562 14.453125 C 7.261719 14.453125 7.050781 14.457031 6.835938 14.457031 C 6.652344 14.457031 6.46875 14.460938 6.28125 14.457031 C 6.171875 14.457031 6.0625 14.460938 5.953125 14.460938 C 5.832031 14.460938 5.707031 14.460938 5.585938 14.460938 C 5.53125 14.460938 5.53125 14.460938 5.476562 14.460938 C 5.234375 14.460938 5.070312 14.402344 4.875 14.25 C 4.804688 14.171875 4.804688 14.171875 4.765625 14.101562 C 4.75 14.078125 4.734375 14.054688 4.71875 14.03125 C 4.621094 13.84375 4.632812 13.628906 4.667969 13.425781 C 4.738281 13.214844 4.894531 13.066406 5.082031 12.953125 C 5.300781 12.855469 5.5625 12.875 5.789062 12.953125 C 5.984375 13.042969 6.152344 13.199219 6.292969 13.363281 C 6.347656 13.417969 6.347656 13.417969 6.460938 13.402344 C 6.777344 13.355469 7.089844 13.28125 7.398438 13.210938 C 7.511719 13.183594 7.625 13.15625 7.738281 13.132812 C 8.414062 12.996094 8.8125 12.808594 9.25 12.25 Z M 9.25 12.25 "/>
<path style=" stroke:none;fill-rule:nonzero;fill:rgb(69.411765%,85.098039%,49.019608%);fill-opacity:1;" d="M 2.8125 5.40625 C 2.917969 5.441406 2.925781 5.453125 2.984375 5.542969 C 3 5.5625 3.015625 5.585938 3.03125 5.609375 C 3.046875 5.632812 3.0625 5.65625 3.078125 5.683594 C 3.09375 5.707031 3.109375 5.734375 3.128906 5.757812 C 3.164062 5.8125 3.199219 5.867188 3.234375 5.917969 C 3.285156 6 3.339844 6.082031 3.390625 6.160156 C 3.648438 6.546875 3.910156 6.949219 4.03125 7.40625 C 4.035156 7.425781 4.042969 7.445312 4.046875 7.46875 C 4.261719 8.234375 4.121094 9.089844 3.75 9.78125 C 3.605469 10.035156 3.367188 10.425781 3.09375 10.5625 C 3.09375 9.632812 3.09375 8.707031 3.09375 7.75 C 2.929688 7.75 2.765625 7.75 2.59375 7.75 C 2.59375 8.679688 2.59375 9.605469 2.59375 10.5625 C 2.53125 10.5625 2.53125 10.5625 2.484375 10.519531 C 2.429688 10.449219 2.371094 10.382812 2.3125 10.3125 C 2.292969 10.289062 2.273438 10.269531 2.253906 10.246094 C 1.777344 9.691406 1.550781 8.992188 1.554688 8.273438 C 1.550781 8.234375 1.550781 8.195312 1.550781 8.15625 C 1.550781 7.855469 1.566406 7.519531 1.71875 7.25 C 1.863281 7.375 2.011719 7.5 2.15625 7.625 C 2.3125 7.46875 2.3125 7.46875 2.46875 7.3125 C 2.304688 7.113281 2.121094 6.933594 1.9375 6.75 C 2.023438 6.566406 2.121094 6.410156 2.25 6.25 C 2.378906 6.359375 2.507812 6.472656 2.625 6.59375 C 2.722656 6.550781 2.792969 6.5 2.867188 6.425781 C 2.890625 6.40625 2.910156 6.390625 2.929688 6.371094 C 2.976562 6.316406 2.976562 6.316406 2.960938 6.253906 C 2.933594 6.179688 2.90625 6.144531 2.851562 6.09375 C 2.828125 6.070312 2.828125 6.070312 2.800781 6.042969 C 2.785156 6.027344 2.765625 6.007812 2.75 5.992188 C 2.730469 5.976562 2.710938 5.957031 2.695312 5.941406 C 2.652344 5.898438 2.605469 5.855469 2.5625 5.8125 C 2.601562 5.699219 2.648438 5.613281 2.722656 5.523438 C 2.738281 5.5 2.757812 5.476562 2.773438 5.457031 C 2.785156 5.4375 2.800781 5.421875 2.8125 5.40625 Z M 2.8125 5.40625 "/>
<path style=" stroke:none;fill-rule:nonzero;fill:rgb(97.647059%,83.529412%,43.137255%);fill-opacity:1;" d="M 11.25 13.34375 C 11.378906 13.402344 11.433594 13.480469 11.507812 13.59375 C 11.519531 13.613281 11.53125 13.632812 11.542969 13.652344 C 11.890625 14.21875 12.09375 14.800781 12.09375 15.46875 C 11 15.46875 9.90625 15.46875 8.78125 15.46875 C 8.78125 15.304688 8.78125 15.140625 8.78125 14.96875 C 8.855469 14.960938 8.929688 14.953125 9.007812 14.945312 C 9.796875 14.851562 10.234375 14.363281 10.769531 13.828125 C 10.816406 13.777344 10.863281 13.730469 10.910156 13.683594 C 11.023438 13.570312 11.136719 13.457031 11.25 13.34375 Z M 11.25 13.34375 "/>
<path style=" stroke:none;fill-rule:nonzero;fill:rgb(98.823529%,50.196078%,42.352941%);fill-opacity:1;" d="M 14.6875 2.40625 C 15.027344 2.816406 15.234375 3.332031 15.371094 3.84375 C 15.378906 3.878906 15.378906 3.878906 15.390625 3.914062 C 15.507812 4.382812 15.589844 5.050781 15.359375 5.488281 C 15.34375 5.515625 15.328125 5.539062 15.3125 5.5625 C 15.292969 5.597656 15.292969 5.597656 15.269531 5.632812 C 15.066406 5.933594 14.757812 6.113281 14.40625 6.1875 C 14.300781 6.195312 14.195312 6.191406 14.089844 6.195312 C 14.0625 6.195312 14.035156 6.195312 14.003906 6.195312 C 13.808594 6.195312 13.628906 6.171875 13.4375 6.125 C 13.449219 6.101562 13.464844 6.082031 13.476562 6.058594 C 14.085938 5.035156 14.574219 3.855469 14.640625 2.652344 C 14.652344 2.476562 14.652344 2.476562 14.6875 2.40625 Z M 14.6875 2.40625 "/>
<path style=" stroke:none;fill-rule:nonzero;fill:rgb(98.823529%,50.196078%,42.745098%);fill-opacity:1;" d="M 13.078125 0.972656 C 13.253906 1.066406 13.429688 1.164062 13.59375 1.28125 C 13.59375 1.292969 13.59375 1.300781 13.59375 1.3125 C 13.574219 1.316406 13.554688 1.316406 13.535156 1.320312 C 12.234375 1.480469 11.015625 1.847656 9.90625 2.5625 C 9.742188 2.296875 9.785156 1.832031 9.8125 1.53125 C 9.890625 1.203125 10.097656 0.910156 10.375 0.71875 C 11.183594 0.261719 12.292969 0.585938 13.078125 0.972656 Z M 13.078125 0.972656 "/>
<path style=" stroke:none;fill-rule:nonzero;fill:rgb(97.647059%,83.529412%,43.529412%);fill-opacity:1;" d="M 11.375 10.898438 C 11.644531 11.039062 11.773438 11.210938 11.875 11.5 C 11.917969 11.734375 11.871094 11.925781 11.75 12.125 C 11.582031 12.339844 11.382812 12.527344 11.1875 12.71875 C 11.160156 12.75 11.128906 12.78125 11.097656 12.808594 C 11.023438 12.882812 10.949219 12.957031 10.875 13.03125 C 10.777344 12.988281 10.710938 12.9375 10.636719 12.859375 C 10.613281 12.839844 10.589844 12.816406 10.570312 12.792969 C 10.546875 12.769531 10.523438 12.746094 10.5 12.722656 C 10.472656 12.699219 10.449219 12.675781 10.425781 12.648438 C 10.347656 12.574219 10.273438 12.496094 10.195312 12.417969 C 10.144531 12.367188 10.089844 12.3125 10.039062 12.261719 C 9.910156 12.132812 9.785156 12.003906 9.65625 11.875 C 9.8125 11.6875 9.980469 11.511719 10.152344 11.339844 C 10.179688 11.3125 10.207031 11.285156 10.234375 11.257812 C 10.550781 10.9375 10.90625 10.699219 11.375 10.898438 Z M 11.375 10.898438 "/>
<path style=" stroke:none;fill-rule:nonzero;fill:rgb(0.784314%,0.784314%,0.392157%);fill-opacity:1;" d="M 11.34375 8.25 C 11.519531 8.25 11.695312 8.25 11.875 8.25 C 11.855469 8.585938 11.75 8.832031 11.5 9.0625 C 11.269531 9.238281 11.058594 9.289062 10.769531 9.289062 C 10.730469 9.289062 10.730469 9.289062 10.6875 9.285156 C 10.601562 9.285156 10.511719 9.285156 10.425781 9.285156 C 10.367188 9.285156 10.308594 9.285156 10.246094 9.285156 C 10.101562 9.285156 9.957031 9.28125 9.8125 9.28125 C 9.8125 9.117188 9.8125 8.953125 9.8125 8.78125 C 9.894531 8.78125 9.972656 8.78125 10.054688 8.78125 C 10.136719 8.777344 10.214844 8.777344 10.292969 8.777344 C 10.347656 8.777344 10.402344 8.773438 10.457031 8.773438 C 10.535156 8.773438 10.613281 8.773438 10.691406 8.773438 C 10.726562 8.773438 10.726562 8.773438 10.765625 8.773438 C 10.949219 8.769531 11.078125 8.710938 11.21875 8.59375 C 11.296875 8.472656 11.316406 8.390625 11.34375 8.25 Z M 11.34375 8.25 "/>
<path style=" stroke:none;fill-rule:nonzero;fill:rgb(1.960784%,1.568627%,1.176471%);fill-opacity:1;" d="M 9.476562 6.316406 C 9.664062 6.441406 9.753906 6.597656 9.8125 6.8125 C 9.820312 6.949219 9.816406 7.082031 9.8125 7.21875 C 9.636719 7.21875 9.460938 7.21875 9.28125 7.21875 C 9.277344 7.125 9.273438 7.03125 9.269531 6.933594 C 9.257812 6.839844 9.257812 6.839844 9.191406 6.785156 C 9.09375 6.734375 9.015625 6.738281 8.90625 6.75 C 8.851562 6.785156 8.851562 6.785156 8.8125 6.84375 C 8.792969 6.9375 8.792969 6.9375 8.789062 7.039062 C 8.789062 7.097656 8.785156 7.15625 8.78125 7.21875 C 8.605469 7.21875 8.429688 7.21875 8.25 7.21875 C 8.234375 6.9375 8.238281 6.730469 8.40625 6.5 C 8.71875 6.152344 9.070312 6.097656 9.476562 6.316406 Z M 9.476562 6.316406 "/>
<path style=" stroke:none;fill-rule:nonzero;fill:rgb(78.823529%,60%,44.705882%);fill-opacity:1;" d="M 1.46875 13.40625 C 1.632812 13.40625 1.796875 13.40625 1.96875 13.40625 C 1.929688 13.601562 1.878906 13.789062 1.820312 13.976562 C 1.804688 14.035156 1.785156 14.089844 1.769531 14.144531 C 1.761719 14.171875 1.753906 14.199219 1.746094 14.226562 C 1.703125 14.363281 1.664062 14.496094 1.625 14.632812 C 1.617188 14.65625 1.609375 14.683594 1.601562 14.707031 C 1.523438 14.960938 1.449219 15.214844 1.375 15.46875 C 1.210938 15.46875 1.046875 15.46875 0.875 15.46875 C 0.917969 15.21875 0.984375 14.984375 1.058594 14.742188 C 1.070312 14.703125 1.082031 14.667969 1.09375 14.625 C 1.125 14.527344 1.15625 14.425781 1.1875 14.324219 C 1.21875 14.21875 1.25 14.117188 1.28125 14.011719 C 1.34375 13.8125 1.40625 13.609375 1.46875 13.40625 Z M 1.46875 13.40625 "/>
<path style=" stroke:none;fill-rule:nonzero;fill:rgb(87.058824%,88.235294%,89.803922%);fill-opacity:1;" d="M 3.6875 10.6875 C 3.699219 10.707031 3.707031 10.730469 3.71875 10.75 C 3.703125 10.789062 3.703125 10.789062 3.691406 10.832031 C 3.652344 10.953125 3.644531 11.0625 3.648438 11.1875 C 3.648438 11.222656 3.648438 11.222656 3.648438 11.257812 C 3.648438 11.476562 3.691406 11.664062 3.75 11.875 C 3.535156 11.875 3.316406 11.875 3.09375 11.875 C 3.050781 11.277344 3.050781 11.277344 3.160156 11.121094 C 3.25 11.050781 3.339844 10.996094 3.4375 10.9375 C 3.488281 10.890625 3.535156 10.84375 3.585938 10.796875 C 3.605469 10.773438 3.625 10.753906 3.644531 10.730469 C 3.664062 10.710938 3.664062 10.710938 3.6875 10.6875 Z M 3.6875 10.6875 "/>
<path style=" stroke:none;fill-rule:nonzero;fill:rgb(94.117647%,41.176471%,30.196078%);fill-opacity:1;" d="M 14.628906 1.050781 C 14.777344 1.113281 14.863281 1.195312 14.941406 1.335938 C 14.988281 1.453125 14.996094 1.566406 14.96875 1.6875 C 14.921875 1.757812 14.921875 1.757812 14.875 1.8125 C 14.859375 1.792969 14.839844 1.773438 14.824219 1.753906 C 14.554688 1.417969 14.554688 1.417969 14.21875 1.15625 C 14.230469 1.125 14.238281 1.09375 14.25 1.0625 C 14.371094 1.003906 14.503906 1.015625 14.628906 1.050781 Z M 14.628906 1.050781 "/>
<path style=" stroke:none;fill-rule:nonzero;fill:rgb(93.72549%,80%,41.568627%);fill-opacity:1;" d="M 9.84375 10.96875 C 9.703125 11.109375 9.558594 11.253906 9.417969 11.394531 C 9.371094 11.445312 9.320312 11.492188 9.273438 11.542969 C 9.203125 11.609375 9.136719 11.679688 9.066406 11.75 C 9.042969 11.773438 9.023438 11.792969 9 11.816406 C 8.980469 11.835938 8.960938 11.855469 8.9375 11.875 C 8.921875 11.894531 8.902344 11.914062 8.886719 11.929688 C 8.84375 11.96875 8.84375 11.96875 8.8125 11.96875 C 8.824219 11.683594 8.980469 11.425781 9.1875 11.234375 C 9.621094 10.894531 9.621094 10.894531 9.84375 10.96875 Z M 9.84375 10.96875 "/>
<path style=" stroke:none;fill-rule:nonzero;fill:rgb(79.215686%,60.392157%,45.098039%);fill-opacity:1;" d="M 5.1875 14.9375 C 5.351562 14.949219 5.515625 14.957031 5.6875 14.96875 C 5.773438 15.167969 5.796875 15.265625 5.8125 15.46875 C 5.65625 15.46875 5.503906 15.46875 5.34375 15.46875 C 5.316406 15.390625 5.292969 15.316406 5.265625 15.238281 C 5.257812 15.214844 5.25 15.195312 5.242188 15.171875 C 5.1875 15.007812 5.1875 15.007812 5.1875 14.9375 Z M 5.1875 14.9375 "/>
<path style=" stroke:none;fill-rule:nonzero;fill:rgb(67.058824%,45.490196%,26.27451%);fill-opacity:1;" d="M 8.78125 10.53125 C 8.9375 10.59375 8.9375 10.59375 9.09375 10.65625 C 8.992188 10.757812 8.894531 10.847656 8.78125 10.9375 C 8.78125 10.804688 8.78125 10.667969 8.78125 10.53125 Z M 8.78125 10.53125 "/>
</g>
</svg>
