<?xml version="1.0" encoding="iso-8859-1"?>
<!-- Uploaded to: SVG Repo, www.svgrepo.com, Generator: SVG Repo Mixer Tools -->
<svg version="1.1" id="Layer_1" xmlns="http://www.w3.org/2000/svg" xmlns:xlink="http://www.w3.org/1999/xlink" 
	 viewBox="0 0 512 512" xml:space="preserve">
<path style="fill:#FF8C78;" d="M406.353,431.825H67.284c-9.364,0-16.953-7.59-16.953-16.953V24.942
	c0-9.364,7.59-16.953,16.953-16.953h339.069c9.364,0,16.953,7.59,16.953,16.953v389.93
	C423.307,424.235,415.717,431.825,406.353,431.825z"/>
<path style="fill:#DF7A6E;" d="M67.284,414.872V24.942c0-9.364,7.59-16.953,16.953-16.953H67.284
	c-9.364,0-16.953,7.59-16.953,16.953v389.93c0,9.364,7.59,16.953,16.953,16.953h16.953
	C74.874,431.825,67.284,424.235,67.284,414.872z"/>
<path style="fill:#F6F6F7;" d="M372.447,397.918H84.238V41.895h288.209c9.364,0,16.953,7.59,16.953,16.953v322.116
	C389.4,390.328,381.81,397.918,372.447,397.918z"/>
<path style="fill:#ECEDEF;" d="M330.063,397.918H84.238V41.895h245.825c9.364,0,16.953,7.59,16.953,16.953v322.116
	C347.016,390.328,339.426,397.918,330.063,397.918z"/>
<rect x="84.238" y="41.895" style="fill:#B3B9BF;" width="50.86" height="356.023"/>
<g>
	<path style="fill:#68727E;" d="M92.714,364.011H24.9c-9.364,0-16.953-7.59-16.953-16.953l0,0c0-9.364,7.59-16.953,16.953-16.953
		h67.814c9.364,0,16.953,7.59,16.953,16.953l0,0C109.668,356.421,102.078,364.011,92.714,364.011z"/>
	<path style="fill:#68727E;" d="M92.714,236.86H24.9c-9.364,0-16.953-7.59-16.953-16.953l0,0c0-9.364,7.59-16.953,16.953-16.953
		h67.814c9.364,0,16.953,7.59,16.953,16.953l0,0C109.668,229.27,102.078,236.86,92.714,236.86z"/>
	<path style="fill:#68727E;" d="M92.714,109.709H24.9c-9.364,0-16.953-7.59-16.953-16.953l0,0c0-9.364,7.59-16.953,16.953-16.953
		h67.814c9.364,0,16.953,7.59,16.953,16.953l0,0C109.668,102.119,102.078,109.709,92.714,109.709z"/>
</g>
<g>
	<path style="fill:#424F5E;" d="M24.9,347.058L24.9,347.058c0-9.364,7.59-16.953,16.953-16.953H24.9
		c-9.364,0-16.953,7.59-16.953,16.953l0,0c0,9.364,7.59,16.953,16.953,16.953h16.953C32.49,364.011,24.9,356.421,24.9,347.058z"/>
	<path style="fill:#424F5E;" d="M24.9,219.907L24.9,219.907c0-9.364,7.59-16.953,16.953-16.953H24.9
		c-9.364,0-16.953,7.59-16.953,16.953l0,0c0,9.364,7.59,16.953,16.953,16.953h16.953C32.49,236.86,24.9,229.27,24.9,219.907z"/>
	<path style="fill:#424F5E;" d="M24.9,92.756L24.9,92.756c0-9.364,7.59-16.953,16.953-16.953H24.9
		c-9.364,0-16.953,7.59-16.953,16.953l0,0c0,9.364,7.59,16.953,16.953,16.953h16.953C32.49,109.709,24.9,102.119,24.9,92.756z"/>
</g>
<path style="fill:#A6C451;" d="M211.389,211.43l47.952,83.915L463.135,499.14c6.62,6.62,17.355,6.62,23.975,0l11.988-11.988
	c6.62-6.62,6.62-17.355,0-23.975L295.304,259.382L211.389,211.43z"/>
<polygon style="fill:#FFD791;" points="211.389,211.43 259.34,295.345 295.304,259.382 "/>
<polygon style="fill:#68727E;" points="211.389,211.43 242.085,265.149 265.107,242.126 "/>
<path style="fill:#D9DCDF;" d="M259.34,295.345L463.135,499.14c6.62,6.62,17.355,6.62,23.975,0l11.988-11.988
	c6.62-6.62,6.62-17.355,0-23.975L295.304,259.382L259.34,295.345z"/>
<rect x="341.795" y="240.124" transform="matrix(-0.7071 0.7071 -0.7071 -0.7071 886.5934 367.309)" style="fill:#C4DF64;" width="50.86" height="254.3"/>
<path style="fill:#B3B9BF;" d="M270.258,284.427l-10.918,10.918L463.135,499.14c6.259,6.259,16.192,6.593,22.852,1.016
	L270.258,284.427z"/>
<rect x="346.988" y="252.658" transform="matrix(-0.7071 0.7071 -0.7071 -0.7071 874.0886 397.5558)" style="fill:#A6C451;" width="15.44" height="254.3"/>
<path d="M194.435,15.935h211.918c4.966,0,9.007,4.04,9.007,9.007v220.395c0,4.389,3.557,7.947,7.947,7.947s7.947-3.558,7.947-7.947
	V24.942c0-13.73-11.17-24.9-24.9-24.9H194.435c-4.389,0-7.947,3.558-7.947,7.947S190.046,15.935,194.435,15.935z"/>
<path d="M169.005,100.703h144.104c4.39,0,7.947-3.558,7.947-7.947c0-4.389-3.557-7.947-7.947-7.947H169.005
	c-4.389,0-7.947,3.558-7.947,7.947C161.058,97.145,164.616,100.703,169.005,100.703z"/>
<path d="M313.109,135.669h-93.244c-4.389,0-7.947,3.558-7.947,7.947s3.558,7.947,7.947,7.947h93.244c4.39,0,7.947-3.558,7.947-7.947
	S317.499,135.669,313.109,135.669z"/>
<path d="M169.005,151.563h16.953c4.389,0,7.947-3.558,7.947-7.947s-3.558-7.947-7.947-7.947h-16.953
	c-4.389,0-7.947,3.558-7.947,7.947S164.616,151.563,169.005,151.563z"/>
<path d="M169.005,202.423h84.767c4.39,0,7.947-3.558,7.947-7.947s-3.557-7.947-7.947-7.947h-84.767
	c-4.389,0-7.947,3.558-7.947,7.947S164.616,202.423,169.005,202.423z"/>
<path d="M504.719,457.557l-73.465-73.465v-96.372c0-4.389-3.557-7.947-7.947-7.947s-7.947,3.558-7.947,7.947v80.478l-18.013-18.013
	V58.849c0-13.73-11.17-24.9-24.9-24.9H84.238c-4.389,0-7.947,3.558-7.947,7.947v25.96H58.278V24.942c0-4.966,4.04-9.007,9.007-9.007
	h84.767c4.389,0,7.947-3.558,7.947-7.947s-3.558-7.947-7.947-7.947H67.284c-13.73,0-24.9,11.17-24.9,24.9v42.913H24.9
	c-13.73,0-24.9,11.17-24.9,24.9s11.17,24.9,24.9,24.9h17.483v77.35H24.9c-13.73,0-24.9,11.17-24.9,24.9
	c0,13.73,11.17,24.9,24.9,24.9h17.483v77.35H24.9c-13.73,0-24.9,11.17-24.9,24.9c0,13.73,11.17,24.9,24.9,24.9h17.483v42.913
	c0,13.73,11.17,24.9,24.9,24.9h325.244l64.988,64.987c9.598,9.598,25.616,9.6,35.213,0l11.989-11.988
	C514.427,483.063,514.427,467.265,504.719,457.557z M439.159,463.925l-168.58-168.58l24.725-24.725l168.579,168.58L439.159,463.925z
	 M243.823,252.172l-11.077-19.385l19.385,11.077L243.823,252.172z M266.434,252.038l15.893,9.082l-21.25,21.25l-9.082-15.893
	L266.434,252.038z M381.453,58.849v275.443l-26.49-26.49V58.849c0-3.176-0.604-6.211-1.692-9.007h19.175
	C377.413,49.842,381.453,53.882,381.453,58.849z M127.151,49.842v68.344c0,4.389,3.558,7.947,7.947,7.947s7.947-3.558,7.947-7.947
	V49.842h187.018c4.966,0,9.007,4.04,9.007,9.007v233.059l-38.145-38.145c-0.05-0.05-0.105-0.093-0.157-0.141
	c-0.11-0.105-0.221-0.208-0.339-0.306c-0.103-0.087-0.209-0.168-0.315-0.249c-0.096-0.073-0.194-0.147-0.295-0.216
	c-0.137-0.094-0.276-0.182-0.416-0.267c-0.053-0.032-0.102-0.069-0.157-0.101l-83.915-47.952c-3.131-1.786-7.224-1.191-9.697,1.429
	c-2.375,2.517-2.867,6.394-1.145,9.413l47.952,83.915c0.022,0.038,0.05,0.072,0.073,0.11c0.135,0.226,0.281,0.445,0.439,0.659
	c0.051,0.069,0.1,0.14,0.152,0.207c0.191,0.242,0.394,0.478,0.617,0.7l0.008,0.008c0.014,0.014,0.029,0.029,0.042,0.042
	l88.955,88.956h-199.68V160.571c0-4.389-3.558-7.947-7.947-7.947s-7.947,3.558-7.947,7.947v229.402H92.184v-18.013h0.53
	c13.73,0,24.9-11.17,24.9-24.9c0-13.73-11.17-24.9-24.9-24.9h-0.53v-77.35h0.53c13.73,0,24.9-11.17,24.9-24.9
	c0-13.73-11.17-24.9-24.9-24.9h-0.53v-77.35h0.53c13.73,0,24.9-11.17,24.9-24.9s-11.17-24.9-24.9-24.9h-0.53V49.843h34.967V49.842z
	 M76.291,244.807v77.35H58.278v-77.35H76.291z M76.291,117.656v77.35H58.278v-77.35H76.291z M15.894,92.756
	c0-4.966,4.04-9.007,9.007-9.007h67.814c4.966,0,9.007,4.04,9.007,9.007c0,4.966-4.04,9.007-9.007,9.007H24.9
	C19.934,101.762,15.894,97.722,15.894,92.756z M15.894,219.907c0-4.966,4.04-9.007,9.007-9.007h67.814
	c4.966,0,9.007,4.04,9.007,9.007c0,4.966-4.04,9.007-9.007,9.007H24.9C19.934,228.913,15.894,224.873,15.894,219.907z
	 M15.894,347.058c0-4.966,4.04-9.007,9.007-9.007h67.814c4.966,0,9.007,4.04,9.007,9.007c0,4.966-4.04,9.007-9.007,9.007H24.9
	C19.934,356.064,15.894,352.024,15.894,347.058z M58.278,414.872v-42.913h18.013v25.96c0,4.389,3.558,7.947,7.947,7.947h274.383
	l18.013,18.013H67.284C62.318,423.878,58.278,419.838,58.278,414.872z M493.48,481.533l-11.989,11.988
	c-3.471,3.471-9.265,3.471-12.736,0l-18.356-18.356l24.724-24.724l18.356,18.356C496.991,472.307,496.991,478.021,493.48,481.533z"
	/>
</svg>