<?xml version="1.0" encoding="utf-8"?>
<!-- Generator: Adobe Illustrator 27.5.0, SVG Export Plug-In . SVG Version: 6.00 Build 0)  -->
<svg version="1.1" xmlns="http://www.w3.org/2000/svg" xmlns:xlink="http://www.w3.org/1999/xlink" x="0px" y="0px"
	 viewBox="0 0 500 500" style="enable-background:new 0 0 500 500;" xml:space="preserve">
<g id="Background_complete">
	<g>
		<g>
			<g>
				<g>
					<g>
						<path style="fill:#E0E0E0;" d="M443.92,330.198H263.174c-3.232,0-5.862-2.63-5.862-5.862V61.062
							c0-3.232,2.63-5.862,5.862-5.862H443.92c3.232,0,5.862,2.629,5.862,5.862v263.273
							C449.783,327.568,447.153,330.198,443.92,330.198z M263.174,55.45c-3.095,0-5.612,2.518-5.612,5.612v263.273
							c0,3.095,2.518,5.612,5.612,5.612H443.92c3.095,0,5.612-2.518,5.612-5.612V61.062c0-3.094-2.518-5.612-5.612-5.612H263.174z"
							/>
					</g>
				</g>
				<g>
					<g>
						<path style="fill:#E0E0E0;" d="M235.493,330.198H54.746c-3.232,0-5.862-2.63-5.862-5.862V61.062
							c0-3.232,2.629-5.862,5.862-5.862h180.747c3.232,0,5.862,2.629,5.862,5.862v263.273
							C241.355,327.568,238.725,330.198,235.493,330.198z M54.746,55.45c-3.094,0-5.612,2.518-5.612,5.612v263.273
							c0,3.095,2.518,5.612,5.612,5.612h180.747c3.095,0,5.612-2.518,5.612-5.612V61.062c0-3.094-2.518-5.612-5.612-5.612H54.746z"
							/>
					</g>
				</g>
			</g>
			<g>
				<g>
					<rect x="0" y="391.267" style="fill:#E0E0E0;" width="500" height="0.25"/>
				</g>
			</g>
		</g>
		<rect x="51.672" y="405.531" style="fill:#E0E0E0;" width="16.06" height="0.25"/>
		<rect x="170.352" y="402.821" style="fill:#E0E0E0;" width="53.53" height="0.25"/>
		<rect x="68.732" y="414.821" style="fill:#E0E0E0;" width="36.25" height="0.25"/>
		<rect x="378.352" y="402.691" style="fill:#E0E0E0;" width="43.19" height="0.25"/>
		<rect x="430.452" y="402.691" style="fill:#E0E0E0;" width="6.33" height="0.25"/>
		<rect x="316.212" y="408.921" style="fill:#E0E0E0;" width="53.89" height="0.25"/>
	</g>
	<g>
		<path style="fill:#F5F5F5;" d="M424.016,270.593h-13.315l0,0v-28.848c0-2.217,1.797-4.013,4.013-4.013h5.335
			c2.216,0,4.013,1.797,4.013,4.013v28.848H424.016z"/>
		<path style="fill:#E6E6E6;" d="M420.617,237.719h-6.504c-0.372,0-0.673-0.301-0.673-0.673v-3.765c0-0.371,0.301-0.673,0.673-0.673
			h6.504c0.372,0,0.673,0.301,0.673,0.673v3.765C421.29,237.418,420.988,237.719,420.617,237.719z"/>
		<path style="fill:#F5F5F5;" d="M436.053,270.694h-9.649l0,0v-20.907c0-1.606,1.302-2.909,2.909-2.909h3.867
			c1.606,0,2.909,1.302,2.909,2.909v20.907H436.053z"/>
		<path style="fill:#E6E6E6;" d="M433.589,246.871h-4.713c-0.269,0-0.488-0.218-0.488-0.488v-2.729c0-0.269,0.218-0.488,0.488-0.488
			h4.713c0.269,0,0.488,0.218,0.488,0.488v2.729C434.077,246.652,433.859,246.871,433.589,246.871z"/>
		<g>
			<path style="fill:#F5F5F5;" d="M406.488,270.581h-11.674l0,0v-25.319c0-1.956,1.585-3.541,3.541-3.541h4.639
				c1.956,0,3.541,1.585,3.541,3.541v25.319H406.488z"/>
			<path style="fill:#E6E6E6;" d="M403.501,241.768h-5.713c-0.326,0-0.59-0.264-0.59-0.59v-3.305c0-0.326,0.264-0.59,0.59-0.59
				h5.713c0.326,0,0.59,0.264,0.59,0.59v3.305C404.092,241.504,403.827,241.768,403.501,241.768z"/>
		</g>
	</g>
	<g>
		<path style="fill:#F5F5F5;" d="M93.246,270.593H79.931l0,0v-28.848c0-2.217,1.797-4.013,4.013-4.013h5.335
			c2.216,0,4.013,1.797,4.013,4.013v28.848H93.246z"/>
		<path style="fill:#E6E6E6;" d="M89.847,237.719h-6.504c-0.372,0-0.673-0.301-0.673-0.673v-3.765c0-0.371,0.301-0.673,0.673-0.673
			h6.504c0.371,0,0.673,0.301,0.673,0.673v3.765C90.519,237.418,90.218,237.719,89.847,237.719z"/>
		<path style="fill:#F5F5F5;" d="M105.283,270.694h-9.649l0,0v-20.907c0-1.606,1.302-2.909,2.909-2.909h3.867
			c1.606,0,2.909,1.302,2.909,2.909v20.907H105.283z"/>
		<path style="fill:#E6E6E6;" d="M102.819,246.871h-4.713c-0.269,0-0.488-0.218-0.488-0.488v-2.729c0-0.269,0.218-0.488,0.488-0.488
			h4.713c0.269,0,0.488,0.218,0.488,0.488v2.729C103.307,246.652,103.089,246.871,102.819,246.871z"/>
		<g>
			<path style="fill:#F5F5F5;" d="M75.718,270.581H64.044l0,0v-25.319c0-1.956,1.585-3.541,3.541-3.541h4.639
				c1.956,0,3.541,1.585,3.541,3.541v25.319H75.718z"/>
			<path style="fill:#E6E6E6;" d="M72.731,241.768h-5.713c-0.326,0-0.59-0.264-0.59-0.59v-3.305c0-0.326,0.264-0.59,0.59-0.59h5.713
				c0.326,0,0.59,0.264,0.59,0.59v3.305C73.321,241.504,73.057,241.768,72.731,241.768z"/>
		</g>
		<rect x="112.614" y="257.278" style="fill:#E0E0E0;" width="21.509" height="13.417"/>
	</g>
	<g>
		<path style="fill:#F5F5F5;" d="M447.418,124.361h-12.792l0,0V96.645c0-2.13,1.726-3.856,3.856-3.856h5.126
			c2.129,0,3.856,1.726,3.856,3.856v27.715H447.418z"/>
		<path style="fill:#E6E6E6;" d="M444.152,92.778h-6.248c-0.357,0-0.646-0.289-0.646-0.646v-3.618c0-0.357,0.289-0.646,0.646-0.646
			h6.248c0.357,0,0.646,0.29,0.646,0.646v3.618C444.798,92.489,444.509,92.778,444.152,92.778z"/>
		<g>
			<path style="fill:#F5F5F5;" d="M430.578,124.349h-11.216l0,0v-24.325c0-1.879,1.523-3.402,3.402-3.402h4.457
				c1.879,0,3.402,1.523,3.402,3.402v24.325H430.578z"/>
			<path style="fill:#E6E6E6;" d="M427.709,96.668h-5.489c-0.313,0-0.567-0.254-0.567-0.567v-3.175c0-0.313,0.254-0.567,0.567-0.567
				h5.489c0.313,0,0.567,0.254,0.567,0.567v3.175C428.276,96.414,428.022,96.668,427.709,96.668z"/>
		</g>
		<path style="fill:#E6E6E6;" d="M474.17,124.361h-21.728l0,0V98.528c0-2.399,1.944-4.343,4.343-4.343h13.053
			c2.399,0,4.343,1.944,4.343,4.343v25.833H474.17z"/>
		<path style="fill:#E6E6E6;" d="M466.742,97.394h-6.861l0,0V89.24c0-0.758,0.614-1.372,1.372-1.372h4.117
			c0.758,0,1.372,0.614,1.372,1.372V97.394L466.742,97.394z"/>
		<rect x="416.729" y="123.299" style="fill:#E0E0E0;" width="61.469" height="9.045"/>
	</g>
	<g>
		<rect x="255.518" y="278.121" style="fill:#F5F5F5;" width="42.868" height="13.877"/>
	</g>
	<g>
		<rect x="21.51" y="198.007" style="fill:#EBEBEB;" width="42.868" height="13.877"/>
		<rect x="38.68" y="211.488" style="fill:#F5F5F5;" width="42.868" height="13.877"/>
	</g>
	<g>
		<rect x="410.023" y="174.952" style="fill:#EBEBEB;" width="42.868" height="13.877"/>
		<rect x="427.193" y="188.433" style="fill:#F5F5F5;" width="42.868" height="13.877"/>
	</g>
	<g>
		<rect x="231.657" y="353.961" style="fill:#EBEBEB;" width="42.868" height="13.877"/>
		<rect x="248.827" y="367.442" style="fill:#F5F5F5;" width="42.868" height="13.877"/>
	</g>
	<g>
		<rect x="44.994" y="353.961" style="fill:#EBEBEB;" width="42.868" height="13.877"/>
	</g>
	<g>
		<rect x="136.368" y="28.222" style="fill:#EBEBEB;" width="42.868" height="13.877"/>
	</g>
	<g>
		<rect x="350.379" y="42.385" style="fill:#EBEBEB;" width="42.868" height="13.877"/>
	</g>
	<rect x="48.884" y="270.694" style="fill:#EBEBEB;" width="400.648" height="17.714"/>
	<rect x="73.321" y="288.408" style="fill:#E0E0E0;" width="17.198" height="158.068"/>
	<rect x="390.372" y="288.408" style="fill:#E0E0E0;" width="17.198" height="158.068"/>
	<rect x="90.519" y="288.408" style="fill:#E0E0E0;" width="302.525" height="33.796"/>
	<rect x="92.997" y="293.008" style="fill:#EBEBEB;" width="150.94" height="24.596"/>
	<rect x="253.724" y="293.008" style="fill:#EBEBEB;" width="135.033" height="24.596"/>
</g>
<g id="Background_simple" style="display:none;">
	<g style="display:inline;">
		<path style="fill:#407BFF;" d="M418.689,252.897c-2.828-17.203-10.703-34.28-24.1-50.034
			c-15.791-18.568-41.251-38.424-77.181-36.679c-66.332,3.221-71.812,48.326-114.955,35.126
			c-48.869-14.952-107.981-13.637-128.589,30.71C34.72,316.251,205.403,438.746,307.488,418.567
			C371.042,406.005,433.704,344.242,418.689,252.897z"/>
		<path style="opacity:0.9;fill:#FFFFFF;" d="M418.689,252.897c-2.828-17.203-10.703-34.28-24.1-50.034
			c-15.791-18.568-41.251-38.424-77.181-36.679c-66.332,3.221-71.812,48.326-114.955,35.126
			c-48.869-14.952-107.981-13.637-128.589,30.71C34.72,316.251,205.403,438.746,307.488,418.567
			C371.042,406.005,433.704,344.242,418.689,252.897z"/>
	</g>
</g>
<g id="Shadow">
	<g>
		<g>
			<path style="fill:#F5F5F5;" d="M458.875,466.838c0,3.387-93.517,6.132-208.875,6.132s-208.875-2.745-208.875-6.132
				c0-3.387,93.516-6.132,208.875-6.132S458.875,463.451,458.875,466.838z"/>
		</g>
	</g>
</g>
<g id="Plant">
	<g>
		<g>
			<g>
				<path style="fill:#407BFF;" d="M446.052,299.24c-17.616,20.607-22.762,51.109-12.879,76.354
					c10.98-9.8,18.712-24.737,19.201-37.802C452.864,324.726,449.444,311.866,446.052,299.24z"/>
			</g>
			<g>
				<path style="fill:#407BFF;" d="M442.979,377.975c-5.978,9.159-8.839,20.312-8.008,31.218
					c9.523-3.316,17.919-14.073,22.952-22.811c5.033-8.738,7.848-18.552,10.408-28.306
					C458.014,361.706,448.956,368.816,442.979,377.975z"/>
			</g>
			<g>
				<g>
					<path style="fill:#263238;" d="M440.77,335.222c-7.087,25.468-10.694,51.888-10.661,78.326
						c0.009,7.475,0.313,14.947,0.897,22.398c0.038,0.478,0.788,0.482,0.75,0c-2.06-26.291-0.538-52.839,4.556-78.716
						c1.444-7.334,3.177-14.608,5.181-21.81C441.623,334.956,440.899,334.757,440.77,335.222L440.77,335.222z"/>
				</g>
			</g>
			<g>
				<g>
					<path style="fill:#263238;" d="M431.229,417.812c7.23-17.211,16.735-33.333,27.721-48.403c0.285-0.391-0.366-0.765-0.648-0.379
						c-11.028,15.128-20.539,31.307-27.797,48.582C430.319,418.057,431.044,418.251,431.229,417.812L431.229,417.812z"/>
				</g>
			</g>
			<g>
				<path style="fill:#407BFF;" d="M420.963,392.246c4.984,7.637,7.37,16.937,6.678,26.03c-7.941-2.765-14.941-11.734-19.138-19.02
					c-4.197-7.286-6.544-15.47-8.679-23.602C408.426,378.681,415.978,384.609,420.963,392.246z"/>
			</g>
			<g>
				<g>
					<path style="fill:#263238;" d="M431.014,424.299c-5.932-14.111-13.769-27.19-22.774-39.543
						c-0.282-0.386-0.933-0.012-0.648,0.379c8.963,12.296,16.794,25.317,22.698,39.364
						C430.475,424.937,431.201,424.744,431.014,424.299L431.014,424.299z"/>
				</g>
			</g>
			<g>
				<g>
					<path style="fill:#263238;" d="M431.289,428.998c11.206-11.529,22.648-22.825,33.854-34.355c0.337-0.346-0.193-0.877-0.53-0.53
						c-11.206,11.529-22.648,22.825-33.854,34.355C430.422,428.814,430.951,429.345,431.289,428.998L431.289,428.998z"/>
				</g>
			</g>
			<g>
				<path style="fill:#407BFF;" d="M465.555,389.338c-9.722,9.376-18.58,19.648-26.425,30.644l1.779,0
					c7.4-0.347,14.583-3.998,19.226-9.77C464.778,404.439,466.803,396.64,465.555,389.338z"/>
			</g>
			<g>
				<g>
					<g>
						<path style="fill:#263238;" d="M419.522,366.983c4.174,6.827,8.108,13.798,11.793,20.901c0.222,0.429,0.87,0.05,0.648-0.378
							c-3.685-7.103-7.618-14.074-11.792-20.901C419.918,366.194,419.27,366.57,419.522,366.983L419.522,366.983z"/>
					</g>
				</g>
				<g>
					<path style="fill:#407BFF;" d="M409.466,332.508c-1.592,7.161-3.171,16.473-3.187,23.93
						c-0.016,7.457,2.259,14.733,6.496,19.729c4.237,4.997,12.791,7.185,16.239,4.326L409.466,332.508z"/>
				</g>
			</g>
		</g>
		<rect x="409.248" y="432.318" style="fill:#263238;" width="42.471" height="7.871"/>
		<polygon style="fill:#263238;" points="444.84,468.23 418.468,468.23 413.675,438.385 448.626,438.385 		"/>
		<polygon style="opacity:0.2;" points="413.988,440.335 448.379,440.335 447.951,443.714 414.531,443.714 		"/>
	</g>
</g>
<g id="Mirror_2">
	<g>
		<g>
			<g id="freepik--Mirror--inject-2_00000129884905859828126260000017427637647726550174_">
				<rect x="391.12" y="99.159" style="fill:#407BFF;" width="0.945" height="5.858"/>
				<rect x="391.12" y="79.762" style="fill:#407BFF;" width="0.945" height="14.783"/>
				<rect x="262.917" y="52.559" style="fill:#407BFF;" width="125.84" height="188.684"/>
				<rect x="259.373" y="52.559" style="fill:#407BFF;" width="3.544" height="188.684"/>
				<rect x="259.373" y="52.559" style="opacity:0.2;enable-background:new    ;" width="3.544" height="188.684"/>
				<rect x="263.525" y="53.499" style="opacity:0.8;fill:#FFFFFF;enable-background:new    ;" width="124.632" height="186.788"/>
				<polygon style="opacity:0.2;fill:#FFFFFF;enable-background:new    ;" points="327.307,240.288 300.954,240.288 321.607,53.499 
					347.97,53.499 				"/>
				<polygon style="opacity:0.2;fill:#FFFFFF;enable-background:new    ;" points="347.582,240.288 336.466,240.288 357.129,53.499 
					368.245,53.499 				"/>
			</g>
		</g>
		<g style="opacity:0.2;">
			<path style="fill:#407BFF;" d="M367.012,147.001c-0.024-0.009-0.05-0.008-0.074-0.016c0.082,0.15,0.178,0.291,0.245,0.451
				l-0.005,0.004c0.382,0.749,0.691,1.583,0.927,2.453C368.314,148.543,367.914,147.35,367.012,147.001z"/>
			<path style="fill:#407BFF;" d="M368.686,151.251c0.906-0.531,1.539-0.787,1.539-0.787l2.232-1.001
				c0.472-0.769,1.384-1.228,2.482-1.455l-1.904-7.994L368.686,151.251z"/>
			<path style="fill:#407BFF;" d="M377.991,147.603c-0.17,0.04-0.324,0.118-0.469,0.214c0.796,0.011,1.576,0.179,2.299,0.487
				C379.272,147.739,378.613,147.456,377.991,147.603z"/>
			<path style="fill:#407BFF;" d="M363.93,148.897c-0.077,0.151-0.154,0.301-0.218,0.465c-0.488,1.251-0.43,2.514,0.054,3.299
				c0.171-0.959,0.286-1.875,0.287-2.683c-0.002-0.33-0.042-0.657-0.106-0.981C363.942,148.963,363.937,148.931,363.93,148.897z"/>
			<path style="fill:#407BFF;" d="M383.024,151.474c-0.358-0.823-0.879-1.523-1.504-2.088c-0.746-2.089-2.312-3.425-3.842-3.083
				c-0.633,0.172-1.165,0.599-1.47,1.179l-2.31-9.694l0.208-0.539c0.029-0.075,0.087-0.135,0.161-0.166l4.15-1.752
				c0.074-0.031,0.13-0.087,0.16-0.162c0.429-1.103,3.773-10.05,3.151-19.415c-0.021-0.317-0.457-0.388-0.573-0.092l-7.787,19.899
				l-4.909-20.603c-0.094-0.396-0.666-0.385-0.745,0.015c-1.454,7.384-0.373,14.791,0.222,17.893
				c0.182,0.949,0.749,1.778,1.57,2.286l2.783,1.721l0.214,0.899l-3.433,8.774c-0.089,0.227-0.397,0.267-0.533,0.066
				c-0.251-0.372-0.605-0.668-1.026-0.849c-0.458-0.185-0.96-0.161-1.466,0.001c-0.035-0.034-0.077-0.06-0.113-0.093
				c-0.476-0.473-1.009-0.836-1.621-1.009c0,0,0,0,0,0c-0.112-0.032-0.209-0.044-0.297-0.045c-0.031-0.001-0.056,0.006-0.084,0.009
				c-0.052,0.006-0.102,0.014-0.145,0.031c-0.03,0.011-0.057,0.026-0.083,0.043c-0.031,0.02-0.06,0.044-0.086,0.071
				c-0.025,0.025-0.049,0.051-0.07,0.082c-0.017,0.026-0.03,0.057-0.043,0.086c-0.078,0.165-0.115,0.384-0.117,0.646
				c0,0.004,0,0.007,0,0.011c0,0.093,0.004,0.192,0.01,0.295c0.001,0.012,0.001,0.025,0.002,0.037
				c0.008,0.105,0.018,0.213,0.032,0.325c0,0.003,0.001,0.006,0.001,0.01c0.057,0.454,0.156,0.957,0.261,1.458
				c-0.285,0.423-0.544,0.887-0.746,1.401c-0.809,2.065-0.553,4.139,0.507,5.104c-0.472,2.166-1.059,4.356-1.167,5.893
				c-0.069,0.612-0.086,1.255-0.039,1.931l-19.672,25.576c0,0-0.869-1.494-2.185-3.734l-0.016-0.027v0
				c-0.487-0.829-1.034-1.758-1.622-2.753l2.885-2.189c0,0-17.742-30.492-28.294-36.041c-0.841-0.442-1.543-0.572-2.132-0.458
				l-1.442-0.31l0.009-0.276c0,0-5.104-2.85-8.448-1.68c-0.03,0.011-0.058,0.061-0.084,0.124l-8.711-1.871l-0.449-0.048
				c-0.28-1.843-0.543-4.017-0.696-6.136c0.07-0.076,0.154-0.137,0.206-0.233c1.404,0.522,2.964,0.615,4.42,0.263
				c0.792-0.192,1.574-0.526,2.142-1.111c0.568-0.584,0.889-1.451,0.673-2.237c0.991,0.333,2.188-0.125,2.702-1.036
				c0.514-0.911,0.289-2.172-0.509-2.848c0.663-0.418,1.204-1.099,1.267-1.88c0.063-0.781-0.905-2.662-1.679-2.782
				c1.878-0.37,1.421-2.971,0.772-3.889c-0.001-0.001-0.003-0.003-0.003-0.004c0.206-0.838,0.355-1.703,0.424-2.598
				c0.148-1.94,0.124-4.087-0.091-6.312c0.316-0.13,0.627-0.274,0.924-0.449c1.567-0.927,2.669-2.454,3.725-3.938
				c1.231-1.73,2.495-3.536,2.867-5.627c-1.175,0.674-2.572,0.955-3.916,0.787c0.793-1.065,1.276-2.357,1.376-3.681
				c-1.835,0.976-4.176,0.078-5.652-1.384c-1.477-1.462-2.376-3.395-3.59-5.082c-2.245-3.121-5.634-5.399-9.372-6.298
				c-3.738-0.899-8.38-1.678-11.799,0.081c-1.695,0.872-5.37,4.702-6.135,6.448l0.008,0.011c-3.425,2.647-5.358,6.887-5.002,11.309
				c0.004,0.048,0.005,0.094,0.009,0.142c0.044,0.48,0.106,0.961,0.205,1.442v0c0.132,0.364,0.305,0.739,0.513,1.122
				c0.465,1.026,0.918,2.044,0.953,2.122c0.014,0.035,0.027,0.068,0.041,0.103c-1.486,1.423-1.978,3.787-1.088,5.957
				c1.173,2.861,3.543,4.908,5.91,5.87c0.61,2.408,2.173,5.155,4.083,6.827c1.131,6.137,1.165,10.678,0.983,13.411l-8.748,2.505
				c-2.61-0.354-5.021,0.884-6.068,1.529v99.732h59.865l-0.519-7.585l-1.604-17.386l-1.091-0.62l-2.378-32.648l5.487,11.787
				l2.129-1.615c5.586,7.941,13.141,16.297,19.362,14.622c10.782-2.903,27.178-38.391,28.931-42.244
				c0.013-0.004,0.027-0.006,0.041-0.011l7.323-2.389c1.32-0.423,2.533-1.126,3.555-2.062c1.628-1.484,2.131-3.839,1.251-5.859
				L383.024,151.474z M363.767,152.661c-0.484-0.785-0.542-2.049-0.054-3.299c0.064-0.163,0.141-0.314,0.218-0.465
				c0.006,0.035,0.011,0.066,0.017,0.1c0.064,0.323,0.104,0.651,0.106,0.981C364.053,150.786,363.938,151.702,363.767,152.661z
				 M368.105,149.892c-0.237-0.87-0.545-1.704-0.927-2.453l0.005-0.004c-0.066-0.16-0.163-0.3-0.245-0.451
				c0.024,0.008,0.05,0.007,0.074,0.016C367.914,147.35,368.314,148.543,368.105,149.892z M372.458,149.463l-2.232,1.001
				c0,0-0.633,0.256-1.539,0.787l4.349-11.237l1.904,7.994C373.842,148.235,372.93,148.694,372.458,149.463z M377.523,147.816
				c0.145-0.096,0.299-0.173,0.469-0.214c0.622-0.147,1.281,0.137,1.831,0.701C379.099,147.995,378.319,147.827,377.523,147.816z"/>
		</g>
	</g>
</g>
<g id="Mirror_1">
	<g>
		<g>
			<g id="freepik--Mirror--inject-2">
				<rect x="245.032" y="99.159" style="fill:#407BFF;" width="0.945" height="5.858"/>
				<rect x="245.032" y="79.762" style="fill:#407BFF;" width="0.945" height="14.783"/>
				<rect x="116.829" y="52.559" style="fill:#407BFF;" width="125.84" height="188.684"/>
				<rect x="113.285" y="52.559" style="fill:#407BFF;" width="3.544" height="188.684"/>
				<rect x="113.285" y="52.559" style="opacity:0.2;enable-background:new    ;" width="3.544" height="188.684"/>
				<rect x="117.437" y="53.499" style="opacity:0.8;fill:#FFFFFF;enable-background:new    ;" width="124.632" height="186.788"/>
				<polygon style="opacity:0.2;fill:#FFFFFF;enable-background:new    ;" points="181.219,240.288 154.866,240.288 175.519,53.499 
					201.882,53.499 				"/>
				<polygon style="opacity:0.2;fill:#FFFFFF;enable-background:new    ;" points="201.494,240.288 190.378,240.288 211.041,53.499 
					222.157,53.499 				"/>
			</g>
		</g>
		<g>
			<path style="fill:none;" d="M219.977,177.499l9.564-0.332l-0.182,0.714c0.194-0.249,0.386-0.494,0.571-0.731l-9.957,0.318
				L219.977,177.499z"/>
			<path style="fill:none;" d="M206.238,77.092c0,0-0.008-0.006-0.023-0.011c0.022,0.021,0.044,0.041,0.066,0.062
				C206.256,77.113,206.238,77.092,206.238,77.092z"/>
			<path style="opacity:0.2;fill:#407BFF;" d="M222.083,213.835l11.659-41.544c0,0-0.234,0.297-0.634,0.805
				c-0.899-7.093-2.856-21.764-4.289-26.885c-1.917-6.854-9.509-10.933-9.509-10.933c-0.051,0.053-4.094-1.558-8.418-3.303
				l-5.161-2.421c-0.02,0.037-0.042,0.141-0.066,0.304c-2.932-1.191-5.171-2.105-5.171-2.105l-0.224-0.05
				c-0.077-1.994-0.092-4.406,0.019-6.72c0.008-0.112,0.014-0.218,0.014-0.312c0.058-1.08,0.144-2.132,0.265-3.1
				c0.006-0.041,0.011-0.081,0.017-0.122c0.011-0.082,0.023-0.16,0.035-0.241c5.748-1.215,10.79-5.867,12.059-12.371
				c1.004-5.143,0.931-11.916-0.82-17.884c0.378,0.207,0.768,0.489,1.147,0.884c0.129,0.135,0.312,0.187,0.484,0.154
				c0.101-0.019,0.197-0.066,0.276-0.144c0.215-0.208,0.223-0.55,0.018-0.764c-0.781-0.814-1.616-1.25-2.357-1.479
				c-0.813-2.358-1.906-4.554-3.324-6.425c0.001,0.001,0.004,0.003,0.005,0.004c0.168,0.064,1.663-2.066-3.855-4.884
				c-7.351-3.753-16.319-2.949-20.32,0.213c-4.001,3.162-7.192,8.04-6.756,12.851c0.05,1.538,0.405,3.234,0.953,4.97
				c-1.374,1.291-1.973,3.394-1.392,5.47c0.847,3.028,3.02,5.369,5.301,6.583c0.231,0.123,0.451,0.216,0.664,0.29
				c0.667,2.48,1.627,4.652,3.15,6.641c0.346,6.208-0.22,10.617-0.724,13.142l-4.849,0.151l0.015-0.131l-5.916,0.315l-11.222,0.349
				c0,0-6.482-0.322-11.023,6.506c-0.287,0.432-0.604,1.038-0.943,1.781c-0.614-3.278-0.831-5.584-1.879-6.115
				c-0.812-0.411-1.992-0.069-1.992-0.069c-0.257,0.23-2.594,1.241-1.979,4.859c0.293,1.723,1.43,5.562,2.842,9.523
				c-4.165,12.895-9.104,32.791-9.104,32.791c0.88-0.622,2.539-1.165,4.611-1.638c-0.005,0.06-1.022,13.398,3.237,16.967
				c0.943,0.79,3.232,1.742,6.448,2.709c-1.343,10.532-4.235,31.695-4.876,31.695c-0.189,0-0.93,6.406-1.968,16.347h76.5
				l-0.085-1.851L222.083,213.835z M206.238,77.092c0,0,0.018,0.021,0.042,0.051c-0.022-0.021-0.044-0.041-0.065-0.062
				C206.23,77.085,206.238,77.092,206.238,77.092z"/>
		</g>
	</g>
</g>
<g id="Barber_Shop_Pole">
	<g>
		<g>
			<rect x="45.134" y="70.969" style="fill:#407BFF;" width="36.856" height="88.658"/>
			<rect x="45.134" y="70.969" style="opacity:0.8;fill:#FFFFFF;" width="36.856" height="88.658"/>
			<polygon style="fill:#263238;" points="61.551,55.334 45.134,69.813 45.134,94.78 81.523,65.002 			"/>
			<rect x="40.634" y="67.745" style="fill:#407BFF;" width="45.856" height="6.449"/>
			<path style="fill:#407BFF;" d="M81.99,70.969H45.318V66.2c0-9.32,7.556-16.876,16.876-16.876h2.921
				c9.32,0,16.876,7.556,16.876,16.876V70.969z"/>
			<polygon style="fill:#407BFF;" points="81.99,81.825 45.134,114.33 45.134,139.298 81.99,108.206 			"/>
			<polygon style="fill:#263238;" points="45.134,159.555 45.379,164.14 67.878,165.336 81.99,153.431 81.99,127.05 			"/>
			<g>
				
					<rect x="40.634" y="157.873" transform="matrix(-1 -1.224647e-16 1.224647e-16 -1 127.1245 322.1943)" style="fill:#407BFF;" width="45.856" height="6.449"/>
				<path style="fill:#407BFF;" d="M45.134,161.097h36.673v4.77c0,9.32-7.556,16.876-16.876,16.876H62.01
					c-9.32,0-16.876-7.556-16.876-16.876V161.097z"/>
			</g>
			<path style="opacity:0.3;" d="M45.134,164.406H81.99c0,0-11.999,1.663-18.029,1.67C54.275,166.089,45.134,164.406,45.134,164.406
				z"/>
			<path style="opacity:0.3;" d="M81.99,67.745H45.134c0,0,11.998-1.663,18.029-1.67C72.849,66.063,81.99,67.745,81.99,67.745z"/>
			<rect x="49.876" y="74.194" style="opacity:0.5;fill:#FFFFFF;" width="6.186" height="83.679"/>
		</g>
	</g>
</g>
<g id="Speech_Bubble">
	<g>
		<g>
			<g>
				<g>
					<path style="fill:#407BFF;" d="M372.84,62.874c-9.328-7.218-22.74-5.507-29.957,3.82c-5.572,7.201-5.802,16.826-1.335,24.166
						l-1.866,6.136l6.752-0.576c0.093,0.074,0.174,0.158,0.269,0.231c9.327,7.218,22.74,5.507,29.957-3.82
						C383.878,83.503,382.168,70.091,372.84,62.874z"/>
					
						<path style="fill:none;stroke:#407BFF;stroke-width:0.5;stroke-linecap:round;stroke-linejoin:round;stroke-miterlimit:10;" d="
						M375.166,61.545c5.648,4.038,9.029,11.056,8.665,17.99"/>
					
						<path style="fill:none;stroke:#407BFF;stroke-width:0.5;stroke-linecap:round;stroke-linejoin:round;stroke-miterlimit:10;" d="
						M383.552,82.709c0.023,1.059-0.175,2.122-0.579,3.101"/>
				</g>
			</g>
		</g>
		<g>
			<path style="fill:#FFFFFF;" d="M357.876,88.721c-0.489-0.471-0.734-1.044-0.734-1.721c0-0.676,0.24-1.241,0.721-1.694
				c0.48-0.454,1.094-0.68,1.841-0.68s1.361,0.227,1.841,0.68c0.48,0.454,0.72,1.018,0.72,1.694c0,0.676-0.245,1.25-0.734,1.721
				c-0.489,0.472-1.098,0.707-1.827,0.707C358.974,89.428,358.365,89.193,357.876,88.721z M357.223,70.54h4.962l-0.827,12.192
				h-3.308L357.223,70.54z"/>
		</g>
	</g>
</g>
<g id="Character_1">
	<g>
		<g>
			<g>
				<g>
					<g>
						<polygon style="fill:#CE7A63;" points="142.695,429.424 132.842,457.048 123.912,454.05 126.993,424.893 						"/>
					</g>
				</g>
			</g>
		</g>
		<g>
			<g>
				<g>
					<g>
						<g>
							<g>
								<g>
									<g>
										<g>
											<g>
												<g>
													<g>
														<path style="fill:#263238;" d="M133.805,468.669l-8.097-0.063c0,0-1.631-0.917-2.593-0.804
															c-0.959,0.115-4.299,0.749-4.299,0.749l-21.502-0.168c0.178-0.935,0.397-1.767,0.644-2.504
															c0.301-0.899,0.649-1.66,1.034-2.303c1.349-2.248,3.172-3.037,5.15-3.151c3.012-0.173,12.535-6.668,12.535-6.668
															s3.446-1.222,3.66-5.022c0.081-1.425,2.119-3.148,3.084-3.284c1.968-0.28,3.053,1.023,3.324,3.067l0.313,2.375
															l4.547-0.699c0,0,4.638-2.379,4.396-0.035c-0.138,1.338-0.958,7.297-1.479,12.024
															c-0.122,1.102-0.236,2.145-0.337,3.059l-0.002,0.001C133.961,467.274,133.805,468.669,133.805,468.669z"/>
													</g>
												</g>
											</g>
										</g>
									</g>
								</g>
								<g style="opacity:0.4;">
									<g>
										<g>
											<g>
												<g>
													<g>
														<path d="M133.805,468.669l-8.097-0.063c0,0-1.631-0.917-2.593-0.804c-0.959,0.115-4.299,0.749-4.299,0.749
															l-21.502-0.168c0.178-0.935,0.397-1.767,0.644-2.504c0.301-0.899,0.649-1.66,1.034-2.303
															c1.349-2.248,3.172-3.037,5.15-3.151c3.012-0.173,12.535-6.668,12.535-6.668s3.446-1.222,3.66-5.022
															c0.081-1.425,2.119-3.148,3.084-3.284c1.968-0.28,3.053,1.023,3.324,3.067l0.313,2.375l4.547-0.699
															c0,0,4.638-2.379,4.396-0.035c-0.138,1.338-0.958,7.297-1.479,12.024c-0.122,1.102-0.236,2.145-0.337,3.059
															l-0.002,0.001C133.961,467.274,133.805,468.669,133.805,468.669z"/>
													</g>
												</g>
											</g>
										</g>
									</g>
								</g>
								<g style="opacity:0.3;">
									<path style="fill:#FFFFFF;" d="M97.315,468.383l21.502,0.168c0,0,3.34-0.634,4.299-0.749
										c0.962-0.113,2.593,0.804,2.593,0.804l8.097,0.063c0,0,0.156-1.395,0.379-3.426l-36.225,0.635
										C97.712,466.617,97.493,467.448,97.315,468.383z"/>
								</g>
								<g>
									<g>
										<g>
											<g>
												<path style="fill:#FFFFFF;" d="M111.309,456.648c0.13-0.131,0.33-0.144,0.481-0.038
													c0.689,0.483,1.266,1.162,1.656,2.011c0.205,0.448-0.425,0.873-0.632,0.421c-0.346-0.755-0.851-1.355-1.453-1.779
													c-0.201-0.142-0.232-0.435-0.057-0.61C111.305,456.652,111.307,456.65,111.309,456.648z"/>
											</g>
										</g>
									</g>
								</g>
								<g>
									<g>
										<g>
											<g>
												<path style="fill:#FFFFFF;" d="M113.542,455.306c0.13-0.131,0.33-0.143,0.481-0.038
													c0.689,0.483,1.266,1.162,1.656,2.012c0.205,0.448-0.425,0.873-0.632,0.421c-0.346-0.755-0.851-1.355-1.453-1.779
													c-0.201-0.142-0.232-0.435-0.057-0.61C113.538,455.309,113.54,455.307,113.542,455.306z"/>
											</g>
										</g>
									</g>
								</g>
								<g>
									<g>
										<g>
											<g>
												<path style="fill:#FFFFFF;" d="M115.844,454.054c0.13-0.131,0.331-0.144,0.481-0.038
													c0.689,0.483,1.266,1.163,1.655,2.012c0.205,0.448-0.425,0.873-0.632,0.421c-0.346-0.755-0.851-1.355-1.453-1.779
													c-0.201-0.142-0.232-0.435-0.058-0.61C115.84,454.057,115.842,454.056,115.844,454.054z"/>
											</g>
										</g>
									</g>
								</g>
							</g>
						</g>
					</g>
				</g>
			</g>
		</g>
		<g>
			<g>
				<g>
					<g>
						<g>
							<polygon style="fill:#CE7A63;" points="206.065,424.504 210.162,454.566 219.959,455.061 223.132,426.08 							"/>
						</g>
					</g>
				</g>
			</g>
			<g>
				<g>
					<g>
						<path style="fill:#263238;" d="M228.301,468.523h-21.914c0,0-0.478-0.92,0.068-3.371c0.083-0.382,0.192-0.801,0.334-1.259
							c0.008-0.023,0.013-0.046,0.02-0.069c0.205-0.678,0.44-1.512,0.69-2.412c1.004-3.669,2.185-8.463,2.185-8.463
							s3.646-7.806,7.911-5.856c3.742,1.709,2.855,6.602,2.855,6.602s0.367,2.872,3.204,5.406c1.755,1.565,3.499,2.777,4.339,4.723
							c0.157,0.364,0.281,0.751,0.369,1.171c0.01,0.051,0.02,0.104,0.028,0.157C228.564,466.09,228.554,467.19,228.301,468.523z"/>
					</g>
				</g>
			</g>
			<g style="opacity:0.4;">
				<g>
					<g>
						<path d="M228.301,468.523h-21.914c0,0-0.478-0.92,0.068-3.371c0.083-0.382,0.192-0.801,0.334-1.259
							c0.008-0.023,0.013-0.046,0.02-0.069c0.205-0.678,0.44-1.512,0.69-2.412c1.004-3.669,2.185-8.463,2.185-8.463
							s3.646-7.806,7.911-5.856c3.742,1.709,2.855,6.602,2.855,6.602s0.367,2.872,3.204,5.406c1.755,1.565,3.499,2.777,4.339,4.723
							c0.157,0.364,0.281,0.751,0.369,1.171c0.01,0.051,0.02,0.104,0.028,0.157C228.564,466.09,228.554,467.19,228.301,468.523z"/>
					</g>
				</g>
			</g>
			<g style="opacity:0.3;">
				<path style="fill:#FFFFFF;" d="M206.455,465.152c-0.546,2.45-0.068,3.371-0.068,3.371h21.914
					c0.253-1.332,0.263-2.432,0.089-3.371H206.455z"/>
			</g>
			<g>
				<g>
					<g>
						<g>
							<path style="fill:#FFFFFF;" d="M219.568,454.924c-1.233-0.96-2.85-0.836-3.958,0.245c-0.298,0.291-0.756-0.166-0.457-0.457
								c1.384-1.349,3.359-1.425,4.873-0.245C220.353,454.723,219.892,455.178,219.568,454.924L219.568,454.924z"/>
						</g>
					</g>
				</g>
			</g>
			<g>
				<g>
					<g>
						<g>
							<path style="fill:#FFFFFF;" d="M220.186,456.971c-1.233-0.96-2.85-0.836-3.958,0.246c-0.298,0.291-0.756-0.166-0.457-0.457
								c1.384-1.349,3.359-1.425,4.873-0.245C220.972,456.769,220.511,457.224,220.186,456.971L220.186,456.971z"/>
						</g>
					</g>
				</g>
			</g>
			<g>
				<g>
					<g>
						<g>
							<path style="fill:#FFFFFF;" d="M220.808,458.853c-1.233-0.96-2.85-0.836-3.958,0.245c-0.298,0.291-0.756-0.166-0.457-0.457
								c1.384-1.35,3.359-1.425,4.873-0.246C221.593,458.651,221.132,459.106,220.808,458.853L220.808,458.853z"/>
						</g>
					</g>
				</g>
			</g>
		</g>
		<g>
			<g>
				<g>
					<path style="fill:#407BFF;" d="M155.021,238.4c0,0-17.006,84.723-20.837,109.673c-2.505,16.309-17.312,89.732-17.312,89.732
						l24.846,5.667c0,0,24.506-92.427,26.274-101.31c1.767-8.883,23.926-72.911,23.926-72.911l-3.939-34.087L155.021,238.4z"/>
				</g>
				<g>
					<g>
						<g>
							<g>
								<g>
									<g>
										<path style="fill:#407BFF;" d="M229.608,307.171c2.567-22.65,0.755-70.679,0.755-70.679l-45.511-2.274
											c0,0,6.467,46.488,12.075,70.386L229.608,307.171z"/>
									</g>
								</g>
							</g>
						</g>
					</g>
				</g>
				<g style="opacity:0.2;">
					<path d="M191.636,246.378c-0.502,7.694-0.991,15.4-1.493,23.094c-0.024,0.497-0.764,0.497-0.741,0
						c0.263-3.946,0.514-7.905,0.764-11.863c-1.828,1.464-3.966-0.31-4.563-2.271c-0.98-3.177-0.609-6.949,0.155-10.126
						c0.119-0.484,0.836-0.273,0.717,0.199c-0.538,2.234-0.765,4.517-0.609,6.813c0.072,1.166,0.179,2.507,0.705,3.574
						c0.585,1.191,2.067,2.197,3.249,1.117c0.131-0.112,0.275-0.124,0.394-0.062c0.227-3.487,0.454-6.987,0.681-10.474
						C190.92,245.882,191.66,245.882,191.636,246.378z"/>
				</g>
				<g>
					<g>
						<g>
							<g style="opacity:0.2;">
								<path d="M213.417,247.689c-0.105,10.2,7.453,18.741,17.227,19.543c0.469,0.038,0.466-0.721,0-0.759
									c-9.379-0.769-16.597-9.023-16.497-18.784C214.152,247.2,213.422,247.2,213.417,247.689L213.417,247.689z"/>
							</g>
						</g>
					</g>
				</g>
				<g>
					<g>
						<g>
							<path style="fill:#407BFF;" d="M205.625,445.464l20.284,0.036c2.678-32.51,4.396-146.7,4.396-146.7l-38.387-21.187
								c0,0,4.667,49.626,6.499,66.092C198.416,343.705,201.753,422.564,205.625,445.464z"/>
						</g>
					</g>
				</g>
			</g>
			<polygon style="opacity:0.3;" points="198.755,351.249 199.087,358.219 229.138,358.809 229.31,351.249 			"/>
			<path style="opacity:0.3;" d="M147.657,349.805c0,0-2.279,8.351-1.814,7.653c0.465-0.698,18.383,0.041,18.383,0.041l1.815-7.175
				L147.657,349.805z"/>
		</g>
		<g>
			<path style="fill:#263238;" d="M166.795,129.492l3.574-6.5l22.794-0.709l14.746,3.312c0,0,18.707,7.641,18.816,7.526l-5.01,48.21
				l-2.301,28.994l-56.429-3.261L166.795,129.492z"/>
			<path style="opacity:0.8;fill:#FFFFFF;" d="M166.795,129.492l3.574-6.5l22.794-0.709l14.746,3.312c0,0,18.707,7.641,18.816,7.526
				l-5.01,48.21l-2.301,28.994l-56.429-3.261L166.795,129.492z"/>
			<path style="fill:#263238;" d="M147.289,172.263c0,0,9.165-36.921,13.055-42.771c4.541-6.828,11.023-6.506,11.023-6.506
				l3.116,45.05C174.483,168.036,151.603,169.21,147.289,172.263z"/>
			<path style="opacity:0.8;fill:#FFFFFF;" d="M147.289,172.263c0,0,9.165-36.921,13.055-42.771
				c4.541-6.828,11.023-6.506,11.023-6.506l3.116,45.05C174.483,168.036,151.603,169.21,147.289,172.263z"/>
			<path style="fill:#263238;" d="M226.726,133.122c0,0,7.592,4.079,9.509,10.933c1.917,6.854,4.776,30.821,4.776,30.821
				l-20.145,0.643L226.726,133.122z"/>
			<path style="opacity:0.8;fill:#FFFFFF;" d="M226.726,133.122c0,0,7.592,4.079,9.509,10.933
				c1.917,6.854,4.776,30.821,4.776,30.821l-20.145,0.643L226.726,133.122z"/>
		</g>
		<g>
			<path style="fill:#263238;" d="M161.48,184.507c0.006,0.954-4.722,37.489-5.565,37.489c-0.843,0-12.706,127.683-12.706,127.683
				l92.457,2.614l-5.303-115.801l-1.869-53.722l-4.675-31.555c0,0-49.713-4.871-48.901-4.871
				C175.73,146.345,161.48,184.507,161.48,184.507z"/>
			<polygon style="fill:#407BFF;" points="181.794,122.637 176.614,153.05 184.14,154.281 187.711,122.323 			"/>
			<path style="fill:#407BFF;" d="M213.147,127.398c-0.41,0.777-1.914,30.192-1.914,30.192h7.658v-27.498L213.147,127.398z"/>
			<g>
				<path style="fill:#407BFF;" d="M174.699,235.284c0,0,0.464-2.396,0.435-3.602c-0.039-1.663-1.155-3.84-3.365-3.632
					c-2.21,0.208-4.1,2.389-3.396,5.073c0.705,2.684,2.785,3.567,2.785,3.567c0.407,0.667,0.757,1.513,1.035,2.316l2.89-0.008
					l-0.118-0.815L174.699,235.284z M171.736,235.255c-1.178-0.007-2.126-1.361-2.116-3.024c0.01-1.663,0.973-3.006,2.151-2.999
					c1.178,0.007,2.126,1.361,2.116,3.024C173.877,233.919,172.914,235.262,171.736,235.255z"/>
				<path style="fill:#407BFF;" d="M175.916,238.182l-0.118,0.815l2.89,0.008c0.279-0.804,0.628-1.649,1.035-2.316
					c0,0,2.08-0.883,2.785-3.567s-1.186-4.865-3.396-5.073c-2.209-0.208-3.325,1.969-3.365,3.632
					c-0.029,1.206,0.435,3.602,0.435,3.602L175.916,238.182z M176.994,232.256c-0.01-1.663,0.938-3.017,2.116-3.024
					c1.178-0.007,2.142,1.336,2.151,2.999c0.01,1.663-0.938,3.017-2.116,3.024C177.967,235.262,177.004,233.919,176.994,232.256z"/>
			</g>
			<path style="opacity:0.3;" d="M193.912,283.887h-4.549c-14.518,0-26.287-11.769-26.287-26.287v-18.595h57.123V257.6
				C220.198,272.118,208.429,283.887,193.912,283.887z"/>
			<path style="fill:#263238;" d="M182.494,150.003c0,1.05-0.75,1.901-1.675,1.901c-0.925,0-1.675-0.851-1.675-1.901
				c0-1.05,0.75-1.901,1.675-1.901C181.744,148.102,182.494,148.953,182.494,150.003z"/>
			<ellipse style="fill:#263238;" cx="215.186" cy="153.761" rx="1.675" ry="1.901"/>
			<path style="fill:#FFFFFF;" d="M207.076,162.956l-18.665-3.285c-0.058-0.01-0.096-0.065-0.086-0.123l0.506-2.878
				c0.01-0.058,0.065-0.096,0.123-0.086l18.665,3.285c0.058,0.01,0.096,0.065,0.086,0.123l-0.506,2.878
				C207.188,162.928,207.133,162.967,207.076,162.956z"/>
			<path style="fill:#407BFF;" d="M190.425,238.593v-1.029h3.845v-0.471h-3.845v-1.029h3.845v-0.471h-3.845v-1.029h3.845v-0.471
				h-3.845v-1.029h3.845v-0.471h-3.845v-1.029h3.845v-0.471h-3.845v-1.029h3.845v-0.471h-3.845v-1.029h3.845v-0.471h-3.845v-1.029
				h3.845v-0.471h-3.845v-1.029h3.845v-1.168h-4.626c-0.727,0-1.316,0.589-1.316,1.316v13.297h5.942v-0.412H190.425z"/>
			<rect x="200.754" y="233.52" style="fill:#407BFF;" width="8.128" height="5.485"/>
		</g>
		<line style="fill:#407BFF;" x1="182.593" y1="121.45" x2="182.593" y2="121.45"/>
		<g>
			<path style="fill:#263238;" d="M164.155,152.165c0.18-0.316,3.403-9.994,3.403-9.994l-2.324-0.699l4.286-17.114l4.178,1.046
				l-6.655,27.572L164.155,152.165z"/>
			<path style="fill:#407BFF;" d="M154.736,125.09c-0.257,0.23-2.594,1.241-1.979,4.859c0.615,3.618,4.95,16.565,7.752,20.385
				c2.803,3.821,5.915,5.202,6.534,2.642c0.618-2.56-0.331-2.291-1.417-5.043c-1.085-2.752-3.659-4.816-5.739-11.4
				c-1.878-5.945-1.613-10.591-3.159-11.375C155.916,124.747,154.736,125.09,154.736,125.09z"/>
			<path style="opacity:0.4;fill:#FFFFFF;" d="M164.155,152.165c0.18-0.316,3.403-9.994,3.403-9.994l-2.324-0.699l4.286-17.114
				l4.178,1.046l-6.655,27.572L164.155,152.165z"/>
			<path style="fill:#CE7A63;" d="M222.32,175.519l-42.845-17.929l-4.033,10.632c0,0,22.577,16.774,34.327,25.481
				c7.953,5.893,19.528,3.288,23.719-5.68c0.124-0.266,0.242-0.536,0.353-0.81l3.116-12.203L222.32,175.519z"/>
			<path style="fill:#CE7A63;" d="M159.52,148.478c0.858-1.202,8.41,0.858,8.41,0.858s9.361,3.463,11.546,8.254l-4.033,10.632
				c0,0-6.569,0.337-9.486-1.379c-2.918-1.716-6.865-2.66-7.123-3.604c-0.257-0.944,0-2.66,1.03-2.832c0,0-1.974-0.739-1.802-2.043
				c0.172-1.304,1.716-1.904,1.716-1.904s-2.167-1.545-1.727-2.832c0.44-1.287,2.499-1.116,3.1-0.858
				c0.601,0.257,3.004,0.429,3.004,0.429s-4.205-1.888-4.548-2.918C159.262,149.251,159.52,148.478,159.52,148.478z"/>
		</g>
		<g>
			<path style="fill:#CE7A63;" d="M191.907,124.815c0,0,2.525-6.983,0.952-20.349c0.003-0.013,0.724-0.2,0.727-0.213
				c-0.212-1.868-0.48-3.606-0.754-5.119c-0.005-0.043-0.002-0.057-0.002-0.057l15.645,13.682
				c-1.088,4.009-0.937,12.131-0.618,15.603c0,0,1.198,6.392-6.86,5.321C195.108,132.9,191.907,124.815,191.907,124.815z"/>
			<g>
				<g style="opacity:0.2;">
					<g>
						<path d="M198.988,114.641c1.826,2.659,5.332,4.447,8.684,4.911c-0.014-0.305,0.048-0.753,0.047-1.055
							c-0.002-0.475,0.086-1.19,0.117-1.685c0.043-0.607,0.11-1.265,0.214-1.887c0.058-0.245,0.153-0.197,0.212-0.442l0.119-0.503
							l-9.773-4.644C197.712,109.843,197.517,112.483,198.988,114.641z"/>
					</g>
				</g>
				<g>
					<g>
						<path style="fill:#CE7A63;" d="M188.131,88.059c-1.162-11.211,9.505-20.162,20.529-16.21
							c11.189,4.011,13.423,20.631,11.433,30.831c-2.211,11.332-15.869,17.061-24.772,8.741
							C189.403,105.89,189.293,99.27,188.131,88.059L188.131,88.059z"/>
					</g>
				</g>
				<path style="fill:#263238;" d="M197.042,81.206c-1.577-2.941-5.874-3.466-9.141-1.807c-1.007,0.508-3.339,2.907-3.309,5.806
					c0.152,4.622,3.01,10.664,5.82,14.973c-0.21-0.581-0.387-1.205-0.542-1.885c-0.517-2.27-1.119-5.413-1.682-9.183
					c0.879,0.13,1.488,0.446,2.031,0.821c3.957,2.728,5.25,5.003,7.267,3.151C199.135,91.563,197.416,84.504,197.042,81.206z"/>
			</g>
			<path style="fill:#CE7A63;" d="M184.153,95.646c0.847,3.028,3.02,5.369,5.301,6.583c3.43,1.826,4.835-1.941,4.609-5.623
				c-0.204-3.314-1.055-7.369-4.848-7.674C185.479,88.63,183.185,92.184,184.153,95.646z"/>
			<path style="fill:#263238;" d="M203.666,92.323c-0.032,1.151,0.552,2.095,1.306,2.109c0.753,0.014,1.391-0.908,1.423-2.059
				c0.033-1.151-0.552-2.095-1.305-2.109C204.336,90.25,203.698,91.172,203.666,92.323z"/>
			<path style="fill:#263238;" d="M214.794,92.868c-0.033,1.151,0.552,2.095,1.305,2.109c0.754,0.014,1.391-0.908,1.424-2.059
				c0.033-1.151-0.552-2.095-1.305-2.109C215.464,90.796,214.826,91.717,214.794,92.868z"/>
			<path style="fill:#A24E3F;" d="M211.668,91.117c0,0,3.482,5.821,4.584,8.182c-1.643,1.402-4.383,0.657-4.383,0.657
				L211.668,91.117z"/>
			<path style="fill:#263238;" d="M201.459,87.898c0.172,0.076,0.379,0.06,0.543-0.061c1.899-1.397,3.652-0.825,3.834-0.762
				c0.279,0.102,0.591-0.04,0.696-0.318c0.105-0.278-0.038-0.587-0.315-0.689c-0.098-0.037-2.443-0.867-4.855,0.908
				c-0.241,0.177-0.293,0.513-0.116,0.751C201.303,87.805,201.377,87.862,201.459,87.898z"/>
			
				<path style="opacity:0.2;fill:none;stroke:#000000;stroke-width:0.5;stroke-linecap:round;stroke-linejoin:round;stroke-miterlimit:10;" d="
				M186.907,92.498c0.49-0.683,1.454-0.912,2.264-0.688c0.809,0.224,1.47,0.826,1.948,1.516c0.574,0.829,0.927,1.81,1.012,2.814"/>
			<path style="fill:#263238;" d="M220.905,85.834c0.101-0.019,0.197-0.066,0.276-0.144c0.215-0.208,0.223-0.55,0.017-0.764
				c-2.058-2.145-4.49-1.675-4.602-1.668c-0.292,0.058-0.484,0.341-0.429,0.634c0.055,0.292,0.333,0.481,0.623,0.427
				c0.1-0.024,1.979-0.361,3.631,1.36C220.551,85.815,220.734,85.867,220.905,85.834z"/>
			<path style="fill:none;stroke:#263238;stroke-width:0.75;stroke-linecap:round;stroke-linejoin:round;stroke-miterlimit:10;" d="
				M210.544,103.365c-1.689,0.031-3.362-0.711-4.138-1.837"/>
			<path style="fill:#263238;" d="M197.06,81.307c0-0.002-0.932-4.841,2.101-5.422c3.033-0.581,12.077,3.485,13.1,1.097
				c1.023-2.388,1.395-2.046,1.395-2.046s1.7,2.026,1.868,2.09c0.168,0.065,1.663-2.066-3.855-4.884
				c-7.351-3.753-16.319-2.949-20.32,0.213s-7.192,8.04-6.756,12.851"/>
		</g>
		<g>
			<path style="fill:#CE7A63;" d="M151.106,170.622c0,0-1.032,13.392,3.237,16.969c4.27,3.577,36.058,10.456,56.945,7.11
				c0,0-13.914-11.867-23.619-17.695c-2.833-1.701-20.891-5.259-20.891-5.259l0.555-3.105
				C167.333,168.643,155.289,168.567,151.106,170.622z"/>
			<path style="fill:#CE7A63;" d="M209.846,174.824c0,0,1.385-2.989,3.923-5.58c2.539-2.59,7.616-6.052,9.232-6.745
				c1.616-0.692,3.231,0.577,1.039,2.308l-0.808,0.808l7.038-1.373c0,0,1.616,1.518-0.576,2.6l2.193,0.957
				c0,0-0.449,1.609-2.296,2.238c-1.846,0.629-2.517,0.919-2.517,0.919s0.889,0.871-0.149,2.324c-1.039,1.453-2.439,2.55-2.439,2.55
				L209.846,174.824z"/>
			<path style="opacity:0.3;" d="M185.684,175.83l25.604,18.872c-1.332,0.222-2.893,0.417-4.563,0.599
				c-1.404-0.175-24.563-20.113-24.563-20.113L185.684,175.83z"/>
			<path style="opacity:0.3;" d="M212.07,171.23l13.076,4.6l-11.377-6.585C213.178,169.831,212.613,170.495,212.07,171.23z"/>
			<path style="opacity:0.3;" d="M166.778,171.748c0,0-4.52,2.719-5.892,5.479c0,0,0.206-6.282,6.199-7.065L166.778,171.748z"/>
		</g>
	</g>
</g>
<g id="Character_2">
	<g>
		<g>
			<g>
				<g>
					<path style="fill:#263238;" d="M261.319,236.991c-2.918-2.045-6.543-2.289-9.999-2.231c-3.44,0.058-7.86,0.076-10.791,2.157
						c-2.385,1.693-2.881,4.914-0.436,6.787c2.693,2.062,6.738,1.983,9.873,1.238c4.352-1.034,8.089-3.639,11.674-6.198
						c0.389-0.278,0.015-0.929-0.379-0.648c-3.316,2.368-6.747,4.791-10.716,5.919c-2.105,0.598-4.352,0.842-6.52,0.458
						c-1.907-0.338-4.529-1.258-4.826-3.488c-0.309-2.325,1.915-3.833,3.846-4.444c2.047-0.648,4.228-0.863,6.363-0.968
						c3.897-0.192,8.199-0.269,11.531,2.067C261.336,237.917,261.712,237.267,261.319,236.991L261.319,236.991z"/>
				</g>
			</g>
			<g>
				<g>
					<path style="fill:#263238;" d="M262.372,235.605c0.225-3.838-1.774-7.27-3.82-10.361c-1.072-1.62-2.223-3.201-3.548-4.626
						c-1.143-1.228-2.463-2.441-4.103-2.942c-1.299-0.397-2.822-0.285-3.935,0.54c-1.244,0.922-1.614,2.52-1.493,3.995
						c0.269,3.288,2.34,6.292,4.714,8.458c3.13,2.855,7.079,4.541,10.941,6.153c0.445,0.186,0.639-0.54,0.199-0.723
						c-5.693-2.376-12.208-5.314-14.534-11.526c-0.522-1.393-0.883-3.054-0.321-4.49c0.646-1.651,2.493-2.166,4.101-1.719
						c1.572,0.436,2.817,1.621,3.9,2.785c1.171,1.258,2.198,2.64,3.158,4.064c2.081,3.088,4.217,6.524,3.991,10.392
						C261.594,236.087,262.344,236.085,262.372,235.605L262.372,235.605z"/>
				</g>
			</g>
		</g>
		<g>
			<path style="fill:#EEC1BB;" d="M244.28,170.135c0,0-19.244,24.366-20.518,27.347c-1.805,4.226,2.193,9.892,5.123,11.761
				c12.602,8.038,28.721,20.311,28.721,20.311l7.121-9.637l-21.856-21.201l16.739-16.196L244.28,170.135z"/>
			<polygon style="opacity:0.3;" points="238.012,178.146 251.398,190.467 253.883,188.062 239.09,176.759 			"/>
			<path style="opacity:0.3;" d="M242.871,198.716c0,0-6.707,0.371-8.239,1.409c0,0,3.064-4.003,9.516-2.643L242.871,198.716z"/>
		</g>
		<g>
			<path style="fill:#EEC1BB;" d="M398.645,151.474c-1.339-3.083-4.924-4.497-8.007-3.158c-0.033,0.014-0.066,0.029-0.099,0.044
				l-4.693,2.105c0,0-9.001,3.612-7.921,12.23l1.522,0.995c2.468,1.609,5.53,2.017,8.333,1.109l7.323-2.389
				c1.32-0.423,2.533-1.126,3.555-2.062l0,0c1.628-1.484,2.131-3.839,1.251-5.859L398.645,151.474z"/>
			<path style="fill:#EEC1BB;" d="M343.356,163.562c1.409,0.961,14.84,24.061,14.84,24.061l20.331-26.432l9.371,3.272
				c0,0-17.684,39.519-29.087,42.59c-11.403,3.07-27.302-27.561-27.302-27.561L343.356,163.562z"/>
			<path style="fill:#EEC1BB;" d="M383.913,157.148c1.123-1.849,0.228-11.291-3.982-12.485c-1.948-0.555-0.227,3.726-0.256,5.304
				c0,4.266-3.185,11.561-1.066,12.173C380.728,162.751,381.979,160.376,383.913,157.148z"/>
			<path style="fill:#263238;" d="M383.131,145.764c0.42,0.18,0.775,0.477,1.026,0.849c0.136,0.202,0.444,0.161,0.532-0.066
				l12.085-30.884c0.116-0.296,0.552-0.225,0.573,0.092c0.622,9.364-2.722,18.312-3.151,19.415
				c-0.029,0.075-0.086,0.131-0.159,0.162l-4.15,1.752c-0.074,0.031-0.132,0.091-0.161,0.166l-5.458,14.103l0,0
				c-0.938,2.432-2.986,3.911-4.565,3.285c-1.578-0.626-2.09-3.086-1.138-5.517C379.519,146.688,381.581,145.138,383.131,145.764z
				 M380.159,153.343c1.123,0.441,2.602-0.626,3.285-2.375c0.683-1.749,0.327-3.527-0.811-3.967
				c-1.138-0.441-2.617,0.611-3.299,2.361C378.652,151.111,379.021,152.902,380.159,153.343z"/>
			<path style="opacity:0.3;fill:#FFFFFF;" d="M383.131,145.764c0.42,0.18,0.775,0.477,1.026,0.849
				c0.136,0.202,0.444,0.161,0.532-0.066l12.085-30.884c0.116-0.296,0.552-0.225,0.573,0.092c0.622,9.364-2.722,18.312-3.151,19.415
				c-0.029,0.075-0.086,0.131-0.159,0.162l-4.15,1.752c-0.074,0.031-0.132,0.091-0.161,0.166l-5.458,14.103l0,0
				c-0.938,2.432-2.986,3.911-4.565,3.285c-1.578-0.626-2.09-3.086-1.138-5.517C379.519,146.688,381.581,145.138,383.131,145.764z
				 M380.159,153.343c1.123,0.441,2.602-0.626,3.285-2.375c0.683-1.749,0.327-3.527-0.811-3.967
				c-1.138-0.441-2.617,0.611-3.299,2.361C378.652,151.111,379.021,152.902,380.159,153.343z"/>
			<path style="fill:#263238;" d="M393.299,146.303c-0.633,0.172-1.165,0.599-1.471,1.179l-7.75-32.523
				c-0.094-0.396-0.667-0.385-0.745,0.015c-1.454,7.384-0.373,14.791,0.222,17.893c0.182,0.949,0.749,1.778,1.57,2.286l2.783,1.721
				l3.507,14.724l0,0c0.596,2.536,2.419,4.282,4.066,3.886c1.647-0.396,2.495-2.771,1.899-5.307
				C396.785,147.642,395.015,145.92,393.299,146.303z M395.191,154.218c-1.18,0.292-2.512-0.975-2.933-2.799
				c-0.421-1.825,0.177-3.537,1.355-3.816c1.177-0.278,2.5,0.958,2.933,2.799c0.433,1.841-0.107,3.55-1.309,3.882L395.191,154.218z"
				/>
			<path style="opacity:0.3;fill:#FFFFFF;" d="M393.299,146.303c-0.633,0.172-1.165,0.599-1.471,1.179l-7.75-32.523
				c-0.094-0.396-0.667-0.385-0.745,0.015c-1.454,7.384-0.373,14.791,0.222,17.893c0.182,0.949,0.749,1.778,1.57,2.286l2.783,1.721
				l3.507,14.724l0,0c0.596,2.536,2.419,4.282,4.066,3.886c1.647-0.396,2.495-2.771,1.899-5.307
				C396.785,147.642,395.015,145.92,393.299,146.303z M395.191,154.218c-1.18,0.292-2.512-0.975-2.933-2.799
				c-0.421-1.825,0.177-3.537,1.355-3.816c1.177-0.278,2.5,0.958,2.933,2.799c0.433,1.841-0.107,3.55-1.309,3.882L395.191,154.218z"
				/>
			<path style="fill:#EEC1BB;" d="M394.735,148.075c-2.617-0.526-5.688-0.27-6.684,1.422c-0.996,1.692,0.896,2.346,1.991,1.962
				c1.095-0.384,5.077,1.692,5.688,0.74C396.342,151.246,394.735,148.075,394.735,148.075z"/>
			<path style="fill:#EEC1BB;" d="M379.931,144.662c-1.593-0.455-0.725,2.361-0.37,4.266c0.073,0.346,0.111,0.699,0.114,1.052
				l3.129-2.545C382.27,146.155,381.23,145.151,379.931,144.662z"/>
			<polygon style="opacity:0.3;" points="358.195,187.624 356.772,195.755 355.995,183.863 			"/>
		</g>
		<polygon style="fill:#EEC1BB;" points="286.739,426.551 282.642,456.613 272.844,457.108 269.672,428.128 		"/>
		<g>
			<path style="fill:#263238;" d="M264.257,470.228h21.914c0,0,0.478-0.921-0.068-3.371c-0.083-0.382-0.192-0.801-0.334-1.259
				c-0.008-0.023-0.013-0.046-0.02-0.068c-0.205-0.678-0.44-1.512-0.69-2.412c-1.004-3.669-2.185-8.463-2.185-8.463
				s-3.646-7.806-7.911-5.856c-3.742,1.709-2.855,6.602-2.855,6.602s-0.367,2.872-3.204,5.406c-1.755,1.565-3.499,2.777-4.339,4.723
				c-0.157,0.364-0.281,0.751-0.369,1.171c-0.01,0.051-0.02,0.104-0.028,0.157C263.994,467.796,264.004,468.896,264.257,470.228z"/>
			<path style="opacity:0.6;fill:#FFFFFF;" d="M286.103,466.858c0.546,2.45,0.068,3.371,0.068,3.371h-21.914
				c-0.253-1.333-0.263-2.433-0.089-3.371H286.103z"/>
			<path style="fill:#FFFFFF;" d="M272.99,456.238c1.233-0.96,2.85-0.836,3.958,0.245c0.298,0.291,0.756-0.166,0.457-0.457
				c-1.384-1.349-3.359-1.425-4.873-0.245C272.205,456.036,272.666,456.491,272.99,456.238L272.99,456.238z"/>
			<path style="fill:#FFFFFF;" d="M272.372,458.285c1.233-0.96,2.85-0.836,3.958,0.245c0.298,0.291,0.756-0.166,0.457-0.457
				c-1.384-1.35-3.359-1.425-4.873-0.245C271.586,458.083,272.047,458.538,272.372,458.285L272.372,458.285z"/>
			<path style="fill:#FFFFFF;" d="M271.75,460.167c1.233-0.96,2.85-0.836,3.958,0.246c0.298,0.291,0.756-0.166,0.457-0.457
				c-1.384-1.35-3.359-1.425-4.873-0.246C270.965,459.965,271.426,460.419,271.75,460.167L271.75,460.167z"/>
		</g>
		<polygon style="fill:#EEC1BB;" points="315.74,427.061 321.821,456.785 331.629,456.63 332.874,427.503 		"/>
		<g>
			<path style="fill:#263238;" d="M340.167,470.228l-21.914-0.019c0,0-0.477-0.921,0.071-3.371c0.084-0.382,0.193-0.801,0.335-1.259
				c0.008-0.023,0.013-0.046,0.02-0.068c0.205-0.678,0.441-1.512,0.692-2.412c1.007-3.668,2.192-8.461,2.192-8.461
				s3.653-7.802,7.917-5.849c3.741,1.713,2.849,6.604,2.849,6.604s0.364,2.873,3.199,5.409c1.753,1.567,3.497,2.78,4.335,4.727
				c0.156,0.364,0.28,0.751,0.368,1.171c0.01,0.051,0.02,0.104,0.028,0.157C340.432,467.796,340.421,468.896,340.167,470.228z"/>
			<path style="opacity:0.6;fill:#FFFFFF;" d="M318.324,466.839c-0.548,2.45-0.071,3.371-0.071,3.371l21.914,0.019
				c0.254-1.332,0.265-2.432,0.091-3.371L318.324,466.839z"/>
			<path style="fill:#FFFFFF;" d="M331.446,456.622c-1.232-0.961-2.849-0.838-3.959,0.242c-0.298,0.291-0.756-0.167-0.457-0.458
				c1.385-1.348,3.361-1.422,4.873-0.241C332.231,456.421,331.77,456.876,331.446,456.622L331.446,456.622z"/>
			<path style="fill:#FFFFFF;" d="M332.063,458.67c-1.232-0.961-2.849-0.838-3.959,0.242c-0.298,0.291-0.756-0.167-0.457-0.458
				c1.385-1.348,3.36-1.422,4.873-0.241C332.848,458.468,332.387,458.923,332.063,458.67L332.063,458.67z"/>
			<path style="fill:#FFFFFF;" d="M332.682,460.552c-1.232-0.961-2.849-0.839-3.959,0.242c-0.298,0.291-0.756-0.167-0.457-0.458
				c1.385-1.348,3.36-1.422,4.873-0.241C333.467,460.351,333.006,460.805,332.682,460.552L332.682,460.552z"/>
		</g>
		<g>
			<path style="fill:#407BFF;" d="M336.964,299.534c-0.12-24.382-5.747-64.227-5.747-64.227l-23.282,1.066
				c0.009-0.065,0.015-0.109,0.015-0.109h-46.142c0,0-0.805,40.342,0.692,64.678c0.056,3.686,1.761,114.635,4.394,146.604
				l20.284-0.036c3.872-22.9,7.209-101.759,7.209-101.759c1.215-10.928,3.679-36.45,5.199-52.387
				c2.333,15.695,5.742,40.843,6.256,53.704c0,0,5.466,78.342,10.848,100.935l20.242-1.309
				C337.44,414.623,337.153,303.216,336.964,299.534z"/>
			<path style="opacity:0.3;" d="M336.964,299.534c-0.12-24.382-5.747-64.227-5.747-64.227l-23.282,1.066
				c0.009-0.065,0.015-0.109,0.015-0.109h-46.142c0,0-0.805,40.342,0.692,64.678c0.056,3.686,1.761,114.635,4.394,146.604
				l20.284-0.036c3.872-22.9,7.209-101.759,7.209-101.759c1.215-10.928,3.679-36.45,5.199-52.387
				c2.333,15.695,5.742,40.843,6.256,53.704c0,0,5.466,78.342,10.848,100.935l20.242-1.309
				C337.44,414.623,337.153,303.216,336.964,299.534z"/>
			<polygon style="opacity:0.3;" points="293.753,359.512 263.625,359.433 263.625,353.494 294.04,353.494 			"/>
			<path d="M319.736,348.975c3.114,0.962,6.375,0.764,9.349-0.566c0.428-0.192,0.19-0.911-0.242-0.717
				c-2.867,1.283-5.961,1.469-8.962,0.541C319.429,348.092,319.288,348.836,319.736,348.975L319.736,348.975z"/>
			<polygon style="opacity:0.3;" points="306.407,354.774 306.723,358.911 337.205,358.13 337.199,354.301 			"/>
		</g>
		<g>
			<g>
				<polygon style="fill:#407BFF;" points="270.685,142.943 292.375,136.734 308.156,138.411 328.964,142.881 334.637,220.781 
					262.482,229.554 				"/>
				<path style="fill:#407BFF;" d="M337.319,194.046l19.939-15.124c0,0-17.742-30.492-28.294-36.041
					c-8.183-4.303-3.838,19.558,1.361,36.142L337.319,194.046z"/>
				<path style="fill:#407BFF;" d="M259.79,192.575l-22.296-17.035c0,0,25.379-34.596,34.813-32.574
					c6.605,1.416,3.751,19.301-2.47,34.089C267.173,183.387,261.991,188.492,259.79,192.575z"/>
				<path style="opacity:0.3;" d="M266.952,182.361c0.421-0.658,1.376-13.672,1.376-13.672s-4.57,18.155-4.444,17.985
					C264.011,186.504,266.952,182.361,266.952,182.361z"/>
			</g>
			<path d="M308.359,250.016c0.572,10.184,8.679,18.206,18.485,18.358c0.47,0.007,0.417-0.75-0.05-0.757
				c-9.409-0.146-17.159-7.904-17.706-17.649C309.06,249.48,308.331,249.528,308.359,250.016L308.359,250.016z"/>
			<path style="fill:#263238;" d="M327.822,172.01l4.243,41.677l3.236,1.84l1.604,17.386l8.298,121.264l-88.532,1.359
				c-1.364-22.55,7.261-112.761,7.261-112.761l-4.024-0.739l0.393-12.565c0,0,11.65-12.764,11.456-15.273
				c-0.194-2.51,5.733-42.21,5.733-42.21L327.822,172.01z"/>
			<g>
				<path style="fill:#263238;" d="M324.395,179.539l1.174-37.626c0,0-5.3-2.96-8.773-1.744c-1.169,0.409,0.681,39.37,0.681,39.37
					H324.395z"/>
				<path style="opacity:0.7;fill:#FFFFFF;" d="M324.395,179.539l1.174-37.626c0,0-5.3-2.96-8.773-1.744
					c-1.169,0.409,0.681,39.37,0.681,39.37H324.395z"/>
				<circle style="fill:#263238;" cx="321.537" cy="176.186" r="1.462"/>
			</g>
			<g>
				<path style="fill:#263238;" d="M283.828,138.875c0,0,4.114,26.046,4.869,40.047h-7.021l-4.825-38.141
					C276.851,140.781,280.12,138.372,283.828,138.875z"/>
				<path style="opacity:0.7;fill:#FFFFFF;" d="M283.828,138.875c0,0,4.114,26.046,4.869,40.047h-7.021l-4.825-38.141
					C276.851,140.781,280.12,138.372,283.828,138.875z"/>
			</g>
			<path style="fill:#263238;" d="M282.774,175.123c0,0.815,0.661,1.477,1.477,1.477c0.816,0,1.477-0.661,1.477-1.477
				c0-0.816-0.661-1.477-1.477-1.477C283.435,173.647,282.774,174.308,282.774,175.123z"/>
			<g>
				<g>
					<g>
						<path style="fill:#407BFF;" d="M316.248,238.182l-0.118,0.815l2.89,0.008c0.279-0.804,0.628-1.649,1.035-2.316
							c0,0,2.08-0.883,2.785-3.567s-1.186-4.865-3.396-5.073c-2.21-0.208-3.325,1.969-3.365,3.632
							c-0.029,1.206,0.435,3.602,0.435,3.602L316.248,238.182z M317.326,232.256c-0.01-1.663,0.938-3.017,2.116-3.024
							c1.178-0.007,2.142,1.336,2.151,2.999c0.01,1.663-0.938,3.017-2.116,3.024C318.299,235.262,317.336,233.919,317.326,232.256z"
							/>
						<path style="fill:#407BFF;" d="M315.031,235.284c0,0,0.464-2.396,0.435-3.602c-0.039-1.663-1.155-3.84-3.365-3.632
							c-2.21,0.208-4.1,2.389-3.396,5.073c0.704,2.684,2.785,3.567,2.785,3.567c0.407,0.667,0.757,1.513,1.035,2.316l2.89-0.008
							l-0.118-0.815L315.031,235.284z M312.068,235.255c-1.178-0.007-2.126-1.361-2.116-3.024c0.01-1.663,0.973-3.006,2.151-2.999
							c1.178,0.007,2.126,1.361,2.116,3.024C314.209,233.919,313.246,235.262,312.068,235.255z"/>
					</g>
					<path style="opacity:0.3;" d="M297.302,283.887h4.549c14.518,0,26.287-11.769,26.287-26.287v-18.595h-57.123V257.6
						C271.015,272.118,282.784,283.887,297.302,283.887z"/>
				</g>
				<rect x="302.601" y="223.854" style="fill:#407BFF;" width="1.747" height="15.152"/>
				<path style="fill:#407BFF;" d="M294.945,238.593v-1.029h3.845v-0.471h-3.845v-1.029h3.845v-0.471h-3.845v-1.029h3.845v-0.471
					h-3.845v-1.029h3.845v-0.471h-3.845v-1.029h3.845v-0.471h-3.845v-1.029h3.845v-0.471h-3.845v-1.029h3.845v-0.471h-3.845v-1.029
					h3.845v-0.471h-3.845v-1.029h3.845v-1.168h-4.626c-0.727,0-1.316,0.589-1.316,1.316v13.297h5.942v-0.412H294.945z"/>
				<path style="fill:#FFFFFF;" d="M311.906,189.809h-18.952c-0.058,0-0.106-0.047-0.106-0.106v-2.922
					c0-0.059,0.047-0.106,0.106-0.106h18.952c0.058,0,0.106,0.047,0.106,0.106v2.922
					C312.011,189.762,311.964,189.809,311.906,189.809z"/>
			</g>
		</g>
		<g>
			<path style="fill:#EEC1BB;" d="M263.286,219.006c0,0,6.718-1.963,8.635-1.701c1.917,0.261,10.984,9.847,10.851,10.021
				c-0.132,0.174-0.132,1.597-2.572,1.016l0.959,2.557c0,0-0.087,1.743-2.44,1.307c-2.353-0.436-3.573-2.266-3.573-2.266
				l2.964,3.652c0,0,0.976,2.161-1.464,1.987s-5.031-3.587-5.031-3.587l3.168,4.571c0.255,0.367,0.196,0.867-0.137,1.165l0,0
				c-0.25,0.224-0.6,0.288-0.913,0.167c-0.601-0.232-1.768-0.821-3.883-2.316c-3.573-2.527-4.291-5.24-4.291-5.24
				s-3.536,2.791-7.954-0.785C253.701,226.392,263.286,219.006,263.286,219.006z"/>
			<polygon style="opacity:0.3;" points="263.675,218.895 260.738,225.856 262.01,217.281 			"/>
		</g>
		<g>
			<g>
				<path style="fill:#263238;" d="M320.933,98.333c0.793-1.065,1.276-2.357,1.376-3.681c-1.835,0.976-4.176,0.078-5.652-1.384
					c-1.477-1.462-2.376-3.395-3.59-5.082c-2.245-3.121-5.635-5.399-9.373-6.298c-3.738-0.899-8.38-1.678-11.799,0.081
					c-1.695,0.872-5.37,4.702-6.135,6.448l10.731,14.424c-0.196-0.004-0.115,0.316,0.029,0.45c0.896,0.832,1.792,1.665,2.687,2.497
					c0.673,0.626,1.357,1.259,2.174,1.681c0.879,0.454,1.868,0.641,2.847,0.782c3.19,0.462,6.44,0.501,9.64,0.116
					c1.522-0.183,3.069-0.475,4.389-1.256c1.567-0.927,2.669-2.454,3.725-3.938c1.231-1.73,2.495-3.536,2.867-5.627
					C323.675,98.221,322.278,98.502,320.933,98.333z"/>
			</g>
			<path style="fill:#EEC1BB;" d="M291.998,139.778c0,0,1.698-7.229-1.416-20.322c0.001-0.014,0.696-0.282,0.697-0.296
				c-0.428-1.83-0.896-3.526-1.343-4.997c-0.01-0.043-0.009-0.057-0.009-0.057l17.127,11.774
				c-0.616,4.108,0.477,12.157,1.197,15.569c0,0,1.932,6.21-6.196,6.081C296.115,147.437,291.998,139.778,291.998,139.778z"/>
			<path d="M297.85,128.202c2.122,2.43,5.812,3.798,9.195,3.87c-0.049-0.301-0.04-0.754-0.075-1.053
				c-0.057-0.471-0.053-1.192-0.079-1.687c-0.027-0.608-0.038-1.269-0.006-1.899c0.029-0.25,0.13-0.214,0.159-0.463l0.06-0.514
				l-10.246-3.478C296.026,123.584,296.139,126.229,297.85,128.202z"/>
			<path style="fill:#EEC1BB;" d="M283.982,103.059c-2.455-11,7.101-21.129,18.51-18.483c11.579,2.686,15.727,18.934,14.934,29.296
				c-0.881,11.512-13.782,18.787-23.59,11.557C287.315,120.622,286.437,114.06,283.982,103.059L283.982,103.059z"/>
			<g>
				<path style="fill:#263238;" d="M280.98,101.321c0.147,0.406,0.338,0.823,0.579,1.252c1.191,2.127,2.803,8.306,6.094,12.259
					c-0.276-0.553-0.524-1.152-0.757-1.81c-0.777-2.194-1.739-5.246-2.737-8.926c0.889,0.027,1.53,0.271,2.112,0.579
					c4.247,2.25,5.795,4.36,7.583,2.286c1.463-1.7-1.524-8.41-1.816-11.907c-0.434-3.775,1.449-11.065-1.604-9.038
					c-0.146,0.097-0.513,0.243-1.031,0.424C283.269,88.59,279.671,94.953,280.98,101.321L280.98,101.321z"/>
			</g>
			<path style="opacity:0.3;fill:#FFFFFF;" d="M284.637,105.814c-0.158-0.558-0.316-1.126-0.477-1.718
				c0.889,0.027,1.53,0.271,2.112,0.579c4.247,2.25,5.795,4.36,7.583,2.286c1.317-1.53-0.966-7.111-1.649-10.763
				c-0.005-0.013-0.008-0.021-0.008-0.021c0.085,0.424-9.722,1.84-11.469,2.176c-0.026,0.979,0.046,1.972,0.25,2.967
				c0.579,1.252,1.474,3.264,1.474,3.264S283.453,105.14,284.637,105.814z"/>
			<path style="fill:#263238;" d="M299.906,105.492c0.101,1.147,0.791,2.017,1.542,1.943c0.75-0.074,1.276-1.063,1.175-2.21
				c-0.101-1.147-0.792-2.017-1.541-1.943C300.331,103.355,299.805,104.345,299.906,105.492z"/>
			<path style="fill:#263238;" d="M311.023,104.741c0.101,1.147,0.791,2.017,1.541,1.943c0.75-0.074,1.276-1.063,1.175-2.21
				c-0.101-1.147-0.791-2.017-1.541-1.943C311.447,102.605,310.921,103.595,311.023,104.741z"/>
			<path style="fill:#CE7A63;" d="M307.714,103.365c0,0,4.134,5.378,5.502,7.595c-1.469,1.583-4.277,1.161-4.277,1.161
				L307.714,103.365z"/>
			<path style="fill:#263238;" d="M296.96,99.29c0.179,0.055,0.384,0.015,0.532-0.123c1.724-1.608,3.531-1.243,3.72-1.201
				c0.289,0.069,0.583-0.108,0.655-0.396c0.072-0.288-0.105-0.578-0.393-0.648c-0.102-0.025-2.527-0.577-4.717,1.465
				c-0.219,0.204-0.231,0.544-0.029,0.759C296.795,99.216,296.874,99.263,296.96,99.29z"/>
			<path style="fill:#263238;" d="M316.044,98.399c0.098-0.03,0.188-0.089,0.258-0.175c0.189-0.231,0.157-0.572-0.071-0.761
				c-2.292-1.891-4.654-1.142-4.764-1.122c-0.283,0.092-0.441,0.395-0.353,0.68c0.088,0.283,0.387,0.44,0.668,0.352
				c0.097-0.035,1.924-0.589,3.764,0.929C315.69,98.421,315.878,98.451,316.044,98.399z"/>
			<path style="fill:#263238;" d="M290.355,115.957c0.719-0.77,1.085-1.812,1.247-2.853c0.362-2.321-0.238-4.776-1.629-6.669
				l3.882,0.527c0,0,0.546,4.765,3.693,5.21c3.147,0.445,4.121-0.678,6.702-0.144c2.582,0.534,2.853,1.981,2.853,1.981
				s2.071-0.926,3.907-0.552c1.836,0.374,5.346,2.098,5.995,3.016c0.648,0.919,1.106,3.519-0.772,3.889l0,0
				c0.775,0.12,1.742,2,1.679,2.782c-0.063,0.781-0.604,1.463-1.267,1.88c0.797,0.676,1.022,1.938,0.509,2.848
				c-0.514,0.911-1.711,1.369-2.702,1.036c0.216,0.786-0.105,1.653-0.673,2.237c-0.568,0.584-1.35,0.919-2.142,1.111
				c-1.456,0.352-3.016,0.259-4.42-0.263c-0.393,0.72-1.348,0.86-2.166,0.915c-1.492,0.099-3.026,0.185-4.447-0.28
				c-1.421-0.465-2.721-1.61-2.918-3.092c-1.289-0.2-2.614-0.46-3.688-1.201c-1.073-0.741-1.833-2.087-1.509-3.35
				c0.06-0.235,0.154-0.491,0.049-0.709c-0.068-0.141-0.206-0.232-0.335-0.32c-2.403-1.62-4.449-5.115-5.022-7.956
				C288.198,116.273,289.636,116.727,290.355,115.957z"/>
			<path style="fill:#FFFFFF;" d="M302.827,113.702c0,0,1.786,1.888,5.526,2.875c0,0-1.352,2.385-3.695,1.543
				C301.825,117.102,302.827,113.702,302.827,113.702z"/>
			<g>
				<path style="fill:#263238;" d="M314.745,92.582c-0.798-1.272-1.826-2.38-2.741-3.57c-0.8-1.041-1.534-2.168-2.589-2.951
					c-0.938-0.696-2.068-1.072-3.182-1.422c-2.202-0.691-4.442-1.323-6.742-1.515c-2.3-0.192-4.683,0.077-6.747,1.112
					c-0.805,0.404-1.631,1.047-1.689,1.946l0.882,5.999c1.138-2.695,3.04-2.488,4.41-1.247c0.842,0.763,1.643,1.582,2.59,2.21
					c1.704,1.13,3.782,1.683,5.822,1.549c-1.033-1.722-2.067-3.444-3.1-5.166c2.241,1.555,4.497,3.119,6.978,4.253
					c2.406,1.1,4.998,1.784,7.318,3.055C316.106,95.341,315.543,93.854,314.745,92.582z"/>
			</g>
			<path style="fill:#EEC1BB;" d="M281.398,110.625c1.193,2.909,3.623,4.982,6.029,5.924c3.619,1.416,4.577-2.489,3.925-6.12
				c-0.587-3.268-1.903-7.196-5.705-7.06C281.901,103.503,280.035,107.299,281.398,110.625z"/>
			
				<path style="opacity:0.2;fill:none;stroke:#000000;stroke-width:0.5;stroke-linecap:round;stroke-linejoin:round;stroke-miterlimit:10;" d="
				M283.768,107.179c0.407-0.735,1.339-1.074,2.169-0.946c0.83,0.128,1.556,0.649,2.111,1.28c0.666,0.757,1.131,1.69,1.332,2.678"/>
		</g>
	</g>
</g>
</svg>
