<?xml version="1.0" encoding="utf-8"?>
<!-- Generator: Adobe Illustrator 27.5.0, SVG Export Plug-In . SVG Version: 6.00 Build 0)  -->
<svg version="1.1" xmlns="http://www.w3.org/2000/svg" xmlns:xlink="http://www.w3.org/1999/xlink" x="0px" y="0px"
	 viewBox="0 0 500 500" style="enable-background:new 0 0 500 500;" xml:space="preserve">
<g id="BACKGROUND">
	<rect x="0" style="fill:#FFFFFF;" width="500" height="500"/>
</g>
<g id="OBJECTS">
	<g>
		<circle style="fill:#A9CAEB;" cx="278.336" cy="241.516" r="157.763"/>
		<g>
			<g>
				<path style="fill:#132E17;" d="M119.808,376.573c0,0-4.005,1.109-13.153-6.113c-4.707-3.717-14.399,3.483-17.168,9.713
					c-2.769,6.23-8.307,5.815-12.045,4.707s-6.507-0.831-9.83,5.953c-3.323,6.784-8.999,13.568-14.953,10.522
					c-5.953-3.046-3.184-9.553-4.154-14.953c-0.969-5.4-2.492-9.347,3.877-13.05s9.529-4.949,9.472-9.241s2.097-9.375,10.465-10.107
					c11.076-0.969,32.31-18.577,50.396,21.875L119.808,376.573z"/>
				<path style="fill:#225229;" d="M108.546,367.849c-5.462-0.412-4.907-4.52-10.326-5.874c-6.607-1.651-11.211,3.504-13.581,8.484
					c-2.37,4.98-6.492,7.179-11.645,7.081c-5.152-0.098-6.698,4.529-7.419,8.651c-0.721,4.122-0.824,11.129-5.162,14.142
					c2.875-2.105,5.388-5.801,7.2-9.501c3.323-6.784,6.092-7.061,9.83-5.953c3.738,1.108,9.276,1.523,12.045-4.707
					c2.769-6.23,12.461-13.43,17.168-9.713c9.148,7.223,13.153,6.113,13.153,6.113l2.908-0.692
					C120.707,372.267,114.007,368.261,108.546,367.849z"/>
				<g>
					<path style="fill:#225229;" d="M54.741,396.412c-0.019,0-0.039-0.002-0.058-0.005c-0.201-0.032-0.339-0.221-0.307-0.423
						c2.721-17.146,10.551-27.42,23.272-30.538c15.472-3.794,34.548,3.456,40.878,8.582c0.158,0.128,0.183,0.36,0.055,0.519
						c-0.128,0.158-0.361,0.184-0.519,0.054c-5.107-4.134-23.938-12.434-40.238-8.438c-12.404,3.041-20.047,13.113-22.718,29.937
						C55.076,396.282,54.919,396.412,54.741,396.412z"/>
				</g>
			</g>
			<g>
				<path style="fill:#225229;" d="M66.537,285.964c9.647-6.99,21.056-3.397,24.992,1.942c3.936,5.339,7.084,9.288,13.775,11.938
					c6.691,2.65,12.398,6.853,13.578,14.296c1.181,7.443,1.378,13.15,8.265,18.463c6.888,5.313,7.24,18.898-2.972,35.031
					c0,0-9.595-6.3-19.546-5.907c-9.951,0.394-15.855-4.92-17.036-12.004c-1.181-7.084-1.968-12.594-10.233-15.546
					s-7.871-15.836-5.904-21.791C73.425,306.43,52.959,295.803,66.537,285.964z"/>
				<g>
					<path style="fill:#132E17;" d="M124.982,375.084c-0.192,0-0.355-0.15-0.368-0.344c-2.833-41.482-38.397-78.637-53.281-83.901
						c-0.192-0.068-0.293-0.279-0.225-0.471c0.068-0.193,0.279-0.289,0.471-0.225c17.276,6.11,51.076,45.086,53.771,84.547
						c0.014,0.203-0.14,0.379-0.343,0.393C124.999,375.084,124.991,375.084,124.982,375.084z"/>
				</g>
			</g>
			<g>
				<path style="fill:#225229;" d="M148.639,365.705c0,0-11.835-18.254-6.625-27.474c5.211-9.22,11.54-8.225,13.478-18.805
					c1.938-10.58,5.275-14.728,12.031-16.047c6.756-1.319,21.124-23.36,35.621-17.708c14.497,5.652-3.257,17.52-0.985,29.765
					c2.273,12.245-12.122,15.013-13.355,17.166c-4.3,7.512,6.228,14.671-2.967,22.207
					C176.643,362.344,151.469,362.08,148.639,365.705z"/>
				<path style="fill:#132E17;" d="M202.227,285.367c-12.208,11.008-39.911,40.903-53.987,79.698
					c0.249,0.407,0.399,0.639,0.399,0.639c0.064-0.082,0.152-0.16,0.238-0.238c14.135-39.092,42.173-69.121,54.156-79.833
					C202.764,285.532,202.496,285.45,202.227,285.367z"/>
				<path style="fill:#132E17;" d="M148.639,365.705c2.83-3.625,28.005-3.36,37.199-10.896c2.68-2.196,3.678-4.36,3.863-6.511
					c-7.845-5.843-19.775-9.855-26.262,0.567c-7.136-0.571-14.744,3.507-19.872,7.027
					C145.843,361.386,148.639,365.705,148.639,365.705z"/>
			</g>
			<g>
				<path style="fill:#30753B;" d="M106.432,240.69c14.901-6.209,23.802,12.023,25.274,19.63
					c1.472,7.607,14.098,14.455,13.796,30.17c10.986,12.28,7.55,29.56,6.983,36.326c12.836,4.417,0.322,36.488-4.095,46.094h-28.582
					c0,0-23.191-29.409-13.376-43.886c-9.079-11.533-7.286-32.389-1.803-36.315c-4.086-7.852,1.312-19.819,1.312-26.104
					S97.599,244.371,106.432,240.69z"/>
				<path style="fill:#132E17;" d="M134.669,372.91c4.893-88.32-24.34-130.424-26.148-132.929c-0.244,0.067-0.486,0.126-0.734,0.207
					c0.012,0.04,0.029,0.08,0.056,0.116c0.079,0.105,8.021,10.732,15.15,32.61c6.465,19.837,13.533,53.179,10.936,99.997H134.669z"
					/>
			</g>
			<path style="fill:#132E17;" d="M140.689,367.633c-4.687,4.636-4.687,4.636-4.687,4.636h29.124l4.779-5.825L140.689,367.633z"/>
			<polygon style="fill:#1E3F61;" points="158.282,440.761 110.027,440.761 100.809,370.527 167.5,370.527 			"/>
			<path style="fill:#142940;" d="M156.872,370.527c1.393,2.277,4.12,5.523,9.455,8.933l1.172-8.933H156.872z"/>
			
				<line style="fill:none;stroke:#142940;stroke-width:0.9406;stroke-linecap:round;stroke-linejoin:round;stroke-miterlimit:10;" x1="104.629" y1="380.572" x2="163.68" y2="380.572"/>
			<path style="fill:#142940;" d="M160.751,395.342l-10.968,22.109c-2.747,5.536-7.687,9.712-13.649,11.344
				c-6.231,1.705-14.251,5.14-18.794,11.967h40.942l5.827-44.397C164.371,394.371,161.645,393.541,160.751,395.342z"/>
			<path style="fill:#225229;" d="M140.689,367.633c0,0,13.699-12.798,25.984-11.816c9.991-16.052,32.904,2.129,33.896,8.517
				c16.388,5.405,14.75,31.612,14.75,31.612s-23.914-7.491-28.5-15.375c-12.026,0.142-22.931-8.822-24.569-12.939
				C156.353,369.413,140.689,367.633,140.689,367.633z"/>
		</g>
		<path style="fill:#4693E3;" d="M421.253,208.877v-1.014c0-1.808-1.466-3.274-3.274-3.274h-5.361c-1.917,0-3.679-0.869-5.037-2.221
			c-1.27-1.264-3.021-2.046-4.955-2.046s-3.685,0.782-4.955,2.046c-1.358,1.352-3.121,2.221-5.037,2.221h-5.361
			c-1.808,0-3.274,1.466-3.274,3.274v1.014H357.21v120.208h90.831V208.877H421.253z"/>
		<g>
			<circle style="fill:#4693E3;" cx="352.085" cy="142.825" r="55.135"/>
			<path style="fill:#FFFFFF;" d="M375.37,110.765c-9.137-7.469-16.549,2.343-23.285,2.343c-6.737,0-14.148-9.812-23.285-2.343
				c-7.467,6.104-5.711,23.431-1.757,34.634c3.954,11.202,5.858,23.213,7.762,28.924c1.904,5.712,8.201,3.075,8.651,0
				c1.213-8.28,4.529-14.791,8.629-14.791c4.101,0,7.416,6.511,8.629,14.791c0.451,3.075,6.748,5.712,8.652,0
				c1.904-5.711,3.808-17.722,7.762-28.924C381.081,134.196,382.837,116.869,375.37,110.765z"/>
			<path style="fill:#FFC259;" d="M394.334,130.333c-6.42,1.845-7.915,3.341-9.761,9.761c-1.845-6.42-3.341-7.916-9.761-9.761
				c6.42-1.845,7.916-3.341,9.761-9.761C386.419,126.993,387.915,128.488,394.334,130.333z"/>
			<path style="fill:#FFC259;" d="M330.78,143.845c-4.698,1.35-5.792,2.445-7.142,7.142c-1.35-4.698-2.445-5.792-7.142-7.142
				c4.698-1.35,5.792-2.445,7.142-7.142C324.988,141.401,326.083,142.495,330.78,143.845z"/>
			<path style="fill:#FFC259;" d="M381.163,163.409c-2.088,0.6-2.575,1.087-3.175,3.175c-0.6-2.088-1.087-2.575-3.175-3.175
				c2.088-0.6,2.575-1.087,3.175-3.175C378.588,162.322,379.074,162.809,381.163,163.409z"/>
		</g>
		<g>
			<rect x="360.041" y="212.018" style="fill:#EBCD86;" width="90.831" height="120.208"/>
			<rect x="364.838" y="216.947" style="fill:#FFFFFF;" width="81.238" height="110.351"/>
			<path style="fill:#1E3F61;" d="M415.449,207.731c-1.917,0-3.679-0.869-5.037-2.221c-1.27-1.264-3.021-2.046-4.955-2.046
				s-3.685,0.782-4.955,2.046c-1.358,1.352-3.121,2.221-5.037,2.221h-5.361c-1.808,0-3.274,1.466-3.274,3.274v5.521
				c0,1.686,1.367,3.053,3.053,3.053h31.149c1.686,0,3.053-1.367,3.053-3.053v-5.521c0-1.808-1.466-3.274-3.274-3.274H415.449z"/>
			<g>
				<g>
					
						<line style="fill:none;stroke:#C9D8E6;stroke-width:1.6565;stroke-linecap:round;stroke-linejoin:round;stroke-miterlimit:10;" x1="373.97" y1="236.825" x2="416.721" y2="236.825"/>
					
						<line style="fill:none;stroke:#C9D8E6;stroke-width:1.6565;stroke-linecap:round;stroke-linejoin:round;stroke-miterlimit:10;" x1="373.97" y1="251.917" x2="416.721" y2="251.917"/>
					
						<line style="fill:none;stroke:#C9D8E6;stroke-width:1.6565;stroke-linecap:round;stroke-linejoin:round;stroke-miterlimit:10;" x1="373.97" y1="267.008" x2="416.721" y2="267.008"/>
					
						<line style="fill:none;stroke:#C9D8E6;stroke-width:1.6565;stroke-linecap:round;stroke-linejoin:round;stroke-miterlimit:10;" x1="373.97" y1="282.1" x2="416.721" y2="282.1"/>
					
						<line style="fill:none;stroke:#C9D8E6;stroke-width:1.6565;stroke-linecap:round;stroke-linejoin:round;stroke-miterlimit:10;" x1="373.97" y1="297.192" x2="416.721" y2="297.192"/>
					
						<line style="fill:none;stroke:#C9D8E6;stroke-width:1.6565;stroke-linecap:round;stroke-linejoin:round;stroke-miterlimit:10;" x1="373.97" y1="312.284" x2="416.721" y2="312.284"/>
				</g>
				<g>
					
						<polyline style="fill:none;stroke:#5E8A81;stroke-width:1.6565;stroke-linecap:round;stroke-linejoin:round;stroke-miterlimit:10;" points="
						425.569,235.132 430.039,239.778 436.943,231.618 					"/>
					
						<polyline style="fill:none;stroke:#5E8A81;stroke-width:1.6565;stroke-linecap:round;stroke-linejoin:round;stroke-miterlimit:10;" points="
						425.569,250.298 430.039,254.944 436.943,246.784 					"/>
					
						<polyline style="fill:none;stroke:#5E8A81;stroke-width:1.6565;stroke-linecap:round;stroke-linejoin:round;stroke-miterlimit:10;" points="
						425.569,265.464 430.039,270.11 436.943,261.95 					"/>
					
						<polyline style="fill:none;stroke:#5E8A81;stroke-width:1.6565;stroke-linecap:round;stroke-linejoin:round;stroke-miterlimit:10;" points="
						425.569,280.63 430.039,285.276 436.943,277.116 					"/>
					
						<polyline style="fill:none;stroke:#5E8A81;stroke-width:1.6565;stroke-linecap:round;stroke-linejoin:round;stroke-miterlimit:10;" points="
						425.569,295.797 430.039,300.442 436.943,292.282 					"/>
					
						<polyline style="fill:none;stroke:#5E8A81;stroke-width:1.6565;stroke-linecap:round;stroke-linejoin:round;stroke-miterlimit:10;" points="
						425.569,310.963 430.039,315.608 436.943,307.448 					"/>
				</g>
			</g>
		</g>
		<g>
			<g>
				<path style="fill:#1E3F61;" d="M321.569,318.623h-77.913c-3.445,0-6.238-2.793-6.238-6.238v0c0-3.445,2.793-6.238,6.238-6.238
					h77.913c3.445,0,6.238,2.793,6.238,6.238v0C327.808,315.83,325.015,318.623,321.569,318.623z"/>
				<rect x="300.569" y="316.349" style="fill:#1E3F61;" width="8.573" height="98.385"/>
				<rect x="297.082" y="404.741" style="fill:#142940;" width="15.547" height="12.639"/>
				<polygon style="fill:#142940;" points="307.773,440.761 301.937,440.761 298.846,404.741 310.865,404.741 				"/>
				<polygon style="fill:#142940;" points="309.142,337.939 300.569,364.056 300.569,316.349 309.142,316.349 				"/>
				<polygon style="fill:#142940;" points="353.659,434.96 312.629,417.38 312.629,404.741 353.659,429.798 				"/>
				<circle style="fill:#142940;" cx="354.009" cy="435.193" r="5.568"/>
				<path style="fill:#1E3F61;" d="M355.177,433.224l2.342-3.948c-1.029-0.612-2.226-0.969-3.51-0.969
					c-3.803,0-6.886,3.083-6.886,6.886h4.588c0,1.269,1.029,2.297,2.297,2.297c1.269,0,2.297-1.029,2.297-2.297
					C356.307,434.352,355.851,433.625,355.177,433.224z"/>
				<polygon style="fill:#142940;" points="256.051,434.96 297.082,417.38 297.082,404.741 256.051,429.798 				"/>
				<circle style="fill:#142940;" cx="255.701" cy="435.193" r="5.568"/>
				<path style="fill:#1E3F61;" d="M254.534,433.224l-2.342-3.948c1.029-0.612,2.226-0.969,3.51-0.969
					c3.803,0,6.886,3.083,6.886,6.886h-4.588c0,1.269-1.029,2.297-2.297,2.297c-1.269,0-2.297-1.029-2.297-2.297
					C253.404,434.352,253.86,433.625,254.534,433.224z"/>
			</g>
			<path style="fill:#1E3F61;" d="M321.614,299.099H284.82c-6.105,0-10.344-4.949-9.467-11.054l12.395-86.319
				c0.877-6.105,6.537-11.054,12.642-11.054h36.794c6.105,0,10.344,4.949,9.467,11.054l-12.395,86.319
				C333.379,294.15,327.719,299.099,321.614,299.099z"/>
			<polygon style="fill:#1E3F61;" points="322.988,312.997 277.999,312.997 284.388,266.605 329.378,266.605 			"/>
		</g>
		<g>
			<path style="fill:#4693E3;" d="M277.275,63.148c0.016-0.076,0.019-0.157,0.03-0.235c0.014-0.11,0.032-0.219,0.033-0.329
				c0-0.011,0.003-0.022,0.003-0.033c0-0.065-0.015-0.126-0.019-0.19c-0.008-0.11-0.013-0.22-0.033-0.328
				c-0.017-0.089-0.045-0.173-0.07-0.259c-0.026-0.089-0.048-0.177-0.082-0.263c-0.034-0.086-0.079-0.166-0.121-0.248
				c-0.041-0.08-0.08-0.161-0.129-0.237c-0.048-0.074-0.104-0.141-0.159-0.21c-0.058-0.074-0.114-0.15-0.18-0.218
				c-0.063-0.065-0.133-0.121-0.202-0.18c-0.069-0.059-0.135-0.121-0.21-0.173c-0.091-0.064-0.19-0.114-0.288-0.167
				c-0.056-0.03-0.104-0.068-0.162-0.094c-0.01-0.005-0.02-0.006-0.031-0.01c-0.098-0.043-0.202-0.072-0.306-0.104
				c-0.08-0.025-0.158-0.056-0.238-0.074c-0.062-0.013-0.127-0.015-0.19-0.024c-0.126-0.018-0.252-0.037-0.378-0.038
				c-0.008,0-0.016-0.002-0.024-0.002h-98.667c-6.528,0-12.516,3.565-15.628,9.303l-5.146,9.487
				c-0.743,1.37-0.235,3.083,1.135,3.826c0.428,0.232,0.888,0.342,1.343,0.342c1.002,0,1.972-0.535,2.483-1.477l5.146-9.487
				c2.124-3.916,6.212-6.349,10.667-6.349h94.287l-46.228,101.824c-0.644,1.419-0.017,3.092,1.403,3.736
				c0.378,0.172,0.775,0.254,1.165,0.254c1.073,0,2.099-0.615,2.571-1.656l48.038-105.813c0.005-0.01,0.006-0.02,0.01-0.03
				c0.045-0.103,0.075-0.212,0.108-0.321C277.229,63.293,277.259,63.221,277.275,63.148z"/>
			<path style="fill:#204A75;" d="M228.216,157.715l-4.305,9.482c-0.644,1.419-0.017,3.092,1.403,3.736
				c0.378,0.172,0.775,0.254,1.165,0.254c1.073,0,2.099-0.615,2.571-1.656l4.313-9.501
				C231.915,158.838,230.149,158.027,228.216,157.715z"/>
			<g>
				<path style="fill:#4693E3;" d="M226.48,274.967c-1.558,0-2.822-1.263-2.822-2.822V169.914c0-1.558,1.264-2.822,2.822-2.822
					s2.822,1.264,2.822,2.822v102.231C229.302,273.704,228.039,274.967,226.48,274.967z"/>
			</g>
			<path style="fill:#204A75;" d="M226.48,167.092c-1.558,0-2.822,1.264-2.822,2.822v8.947c0.901,0.243,1.844,0.384,2.822,0.384
				c0.978,0,1.921-0.141,2.822-0.384v-8.947C229.302,168.356,228.039,167.092,226.48,167.092z"/>
			<path style="fill:#204A75;" d="M159.023,71.245l-3.945,7.274c-0.743,1.37-0.235,3.083,1.135,3.826
				c0.428,0.232,0.888,0.342,1.343,0.342c1.002,0,1.972-0.535,2.483-1.477l4.916-9.064
				C163.046,71.651,161.062,71.344,159.023,71.245z"/>
			<path style="fill:#204A75;" d="M277.288,62.032c-0.017-0.089-0.045-0.173-0.07-0.259c-0.026-0.089-0.048-0.177-0.082-0.263
				c-0.034-0.086-0.079-0.166-0.121-0.248c-0.041-0.08-0.08-0.161-0.129-0.237c-0.048-0.074-0.104-0.141-0.159-0.21
				c-0.058-0.074-0.114-0.15-0.18-0.218c-0.063-0.065-0.133-0.121-0.202-0.18c-0.069-0.059-0.135-0.121-0.21-0.173
				c-0.091-0.064-0.19-0.114-0.288-0.167c-0.056-0.03-0.104-0.068-0.162-0.094c-0.01-0.005-0.02-0.006-0.031-0.01
				c-0.098-0.043-0.202-0.072-0.306-0.104c-0.08-0.025-0.158-0.056-0.238-0.074c-0.062-0.013-0.127-0.015-0.19-0.024
				c-0.126-0.018-0.252-0.037-0.378-0.038c-0.008,0-0.016-0.002-0.024-0.002h-10.999c-0.231,0.904-0.367,1.846-0.367,2.822
				c0,0.976,0.136,1.918,0.367,2.822h6.619l-2.739,6.033c1.46,1.175,3.217,1.991,5.14,2.329l4.548-10.017
				c0.005-0.01,0.006-0.02,0.01-0.03c0.045-0.103,0.075-0.212,0.108-0.321c0.022-0.073,0.052-0.145,0.068-0.218
				c0.016-0.076,0.019-0.157,0.03-0.235c0.014-0.11,0.032-0.219,0.033-0.329c0-0.011,0.003-0.022,0.003-0.033
				c0-0.065-0.015-0.126-0.019-0.19C277.314,62.25,277.309,62.14,277.288,62.032z"/>
			<g>
				<circle style="fill:#4693E3;" cx="274.519" cy="62.551" r="7.42"/>
				<circle style="fill:#FFFFFF;" cx="274.519" cy="62.551" r="3.54"/>
			</g>
			<g>
				<circle style="fill:#4693E3;" cx="226.48" cy="168.404" r="7.42"/>
				<circle style="fill:#FFFFFF;" cx="226.48" cy="168.404" r="3.54"/>
			</g>
			<g>
				<path style="fill:#4693E3;" d="M185.283,118.139h-55.448c-3.961,0-7.269-2.969-7.697-6.907l-2.094-19.295
					c-0.112-1.033,0.634-1.961,1.667-2.073c1.029-0.113,1.961,0.634,2.073,1.667l2.094,19.295c0.22,2.024,1.921,3.55,3.956,3.55
					h55.448c2.036,0,3.737-1.526,3.956-3.55l2.093-19.295c0.112-1.033,1.042-1.781,2.073-1.667c1.033,0.112,1.779,1.04,1.667,2.073
					l-2.093,19.295C192.552,115.169,189.243,118.139,185.283,118.139z"/>
			</g>
			<path style="fill:#204A75;" d="M183.594,114.376h-52.071c0.696,1.316,1.485,2.574,2.365,3.763h47.341
				C182.109,116.95,182.899,115.692,183.594,114.376z"/>
			<circle style="fill:#4693E3;" cx="157.559" cy="100.643" r="26.726"/>
			<g>
				<circle style="fill:#FFFFFF;" cx="157.559" cy="100.643" r="21.574"/>
				<circle style="fill:#FFC259;" cx="157.559" cy="100.643" r="19.625"/>
			</g>
		</g>
		<g>
			<g>
				<circle style="fill:#2D423E;" cx="282.912" cy="122.41" r="8.154"/>
				<path style="fill:#0A0F0E;" d="M276.108,120.634c-0.396,0-0.785,0.03-1.169,0.075c-0.117,0.549-0.181,1.117-0.181,1.701
					c0,4.503,3.651,8.154,8.154,8.154c1.096,0,2.14-0.22,3.095-0.612C285.689,124.755,281.385,120.634,276.108,120.634z"/>
				<path style="fill:#2D423E;" d="M280.851,124.65c-4.88-3.711-9.8-2.417-11.834-1.611c-1.83-1.013-3.932-1.593-6.171-1.593
					c-7.052,0-12.769,5.717-12.769,12.769c0,7.052,5.717,12.769,12.769,12.769c3.915,0,7.413-1.766,9.756-4.539l7.061,6.22
					l3.608-4.839C283.27,143.826,287.213,129.489,280.851,124.65z"/>
				<polygon style="fill:#5E8A81;" points="269.385,165.65 289.939,162.146 292.343,267.845 266.252,267.845 				"/>
				<polygon style="fill:#2D423E;" points="269.385,165.65 276.852,267.845 266.252,267.845 				"/>
				<path style="fill:#6D757D;" d="M193.518,212.879c-2.917-2.654,1.719-18.655,1.719-18.655l14.248,12.92
					C209.485,207.144,199.139,217.994,193.518,212.879z"/>
				<g>
					<path style="fill:#FF9C9C;" d="M204.608,191.435l-16.345-10.041l-2.851-8.552c-0.35-1.05-1.083-1.93-2.052-2.464l-4.837-2.666
						c-1.494-0.823-3.362-0.468-4.449,0.846l-2.889,3.494c-0.432,0.522-0.279,1.308,0.316,1.631l1.176,0.637l-1.54,2.585
						c-0.842,1.413-0.462,3.236,0.874,4.195l2.912,1.748l0.879-0.769c0,0,3.096,3.412,6.608,2.944l18.029,25.849
						C200.438,210.872,207.139,197.027,204.608,191.435z"/>
					<path style="fill:#FF9C9C;" d="M185.93,174.395l-0.518-1.553c-0.35-1.05-1.083-1.93-2.052-2.464l-4.837-2.666
						c-1.494-0.823-3.362-0.468-4.449,0.846l-2.889,3.494c-0.432,0.522-0.279,1.308,0.316,1.631l1.176,0.637l-1.54,2.585
						c-0.842,1.413-0.462,3.236,0.874,4.195l2.912,1.748l0.879-0.769c0,0,1.089,1.363,2.544,2.115
						c1.954,1.011,4.356,0.018,5.101-2.051l0.493-1.368L185.93,174.395z"/>
					<path style="fill:#FF6666;" d="M179.562,177.601l-0.407,0.485l-3.859-5.192c-0.01-0.014-0.025-0.021-0.037-0.033l1.096-0.815
						c0.164-0.122,0.198-0.353,0.076-0.516c-0.122-0.164-0.352-0.198-0.516-0.076l-3.458,2.57c-0.044,0.032-0.078,0.075-0.103,0.121
						l0.323,0.175l-0.199,0.334l4.83,5.631l-0.866,1.031l-4.831-5.017c-0.024-0.025-0.053-0.039-0.081-0.056l-0.381,0.64
						l4.815,5.001l-0.164,0.195l0,0c0,0,0.188,0.231,0.501,0.551l3.824-4.555c0.131-0.156,0.111-0.389-0.045-0.52
						C179.927,177.424,179.693,177.444,179.562,177.601z M177.789,179.712l-4.574-5.332l1.468-1.091
						c0.008,0.015,0.011,0.031,0.021,0.045l3.964,5.333L177.789,179.712z"/>
					<g>
						<g>
							<path style="fill:#204A75;" d="M173.733,167.774c-0.091,0-0.181-0.041-0.242-0.118l-4.235-5.462l-2.35-0.074
								c-0.169-0.005-0.301-0.146-0.296-0.315c0.006-0.169,0.141-0.309,0.315-0.296l2.494,0.079
								c0.091,0.003,0.176,0.046,0.232,0.118l4.323,5.576c0.103,0.134,0.079,0.326-0.054,0.429
								C173.865,167.752,173.799,167.774,173.733,167.774z"/>
						</g>
						
							<ellipse transform="matrix(0.9027 -0.4303 0.4303 0.9027 -53.3827 87.5638)" style="fill:#FFFFFF;" cx="166.916" cy="161.813" rx="1.856" ry="2.997"/>
						
							<rect x="176.668" y="163.419" transform="matrix(0.7903 -0.6128 0.6128 0.7903 -68.4377 145.032)" style="fill:#547AA1;" width="1.946" height="18.138"/>
					</g>
					<path style="fill:#FF6666;" d="M204.608,191.435l-1.242-0.763c-0.809,3.189-3.078,10.284-7.775,13.251l4.847,6.949
						C200.438,210.872,207.139,197.027,204.608,191.435z"/>
					<path style="fill:#FF9C9C;" d="M183.36,170.378l-0.841-0.464l0,0l-8.231,0.867c-0.588,0.062-1.035,0.558-1.035,1.15v0
						c0,0.603,0.464,1.105,1.065,1.152l5.199,0.412c0,0-1.065,4.536,2.525,7.37c1.045,0.825,2.412,1.133,3.728,0.924l2.494-0.395
						l-2.851-8.552C185.062,171.792,184.329,170.912,183.36,170.378z"/>
				</g>
				<polygon style="fill:#FF9C9C;" points="281.402,140.817 287.262,160.997 289.939,162.146 277.479,181.853 269.385,165.65 
					272.323,164.285 269.631,154.395 				"/>
				<path style="fill:#FFFFFF;" d="M269.385,165.65l2.489,102.44l-29.532-0.245l11.841-43.509c0,0-4.695-7.137-6.386-13.335
					l-15.178,18.404c-4.414,5.352-12.349,6.067-17.65,1.591l-21.452-18.117c0,0,4.957,1.65,11.09-21.445l17.65,10.508l17.985-20.693
					c4.18-4.743,9.476-8.369,15.41-10.551L269.385,165.65z"/>
				<path style="fill:#C9D8E6;" d="M247.797,211.001c-2.603-6.793,1.36-19.638,1.36-19.638l-17.343,39.018L247.797,211.001z"/>
				
					<line style="fill:none;stroke:#6D757D;stroke-width:0.7382;stroke-linecap:round;stroke-linejoin:round;stroke-miterlimit:10;" x1="222.258" y1="201.943" x2="230.82" y2="207.144"/>
				<path style="fill:#FFFFFF;" d="M289.939,162.146l-3.75,105.699h39.39l-11.845-55.957l9.349-35.178l0,0
					c-3.415-4.142-7.993-7.165-13.143-8.68L289.939,162.146z"/>
				<path style="fill:#C9D8E6;" d="M289.939,162.146l-1.835,51.715l11.291-20.436c1.442-2.609,1.082-5.844-0.898-8.073l-3.109-3.5
					l2.638-4.624c1.4-2.454,1.023-5.535-0.927-7.579L289.939,162.146z"/>
				<polygon style="fill:#C9D8E6;" points="287.181,239.892 308.917,267.845 325.58,267.845 317.853,231.344 291.534,232.266 				
					"/>
				<g>
					<g>
						
							<rect x="275.823" y="203.396" transform="matrix(0.8963 0.4435 -0.4435 0.8963 128.1808 -105.582)" style="fill:#EBCD86;" width="28.012" height="35.739"/>
						<path style="fill:#6E2222;" d="M300.914,205.438c0.258-0.915-0.523-2.113-1.877-2.783c-1.354-0.67-2.78-0.564-3.351,0.196
							l-1.703-0.843l-1.253,2.533l8.634,4.272l1.253-2.533L300.914,205.438z"/>
					</g>
					<polygon style="fill:#A68C4C;" points="273.362,222.965 286.189,239.402 294.458,243.493 302.617,227.002 277.674,214.25 					
						"/>
				</g>
				<g>
					<g>
						<path style="fill:#FF9C9C;" d="M305.105,224.454l-14.789-4.964l-5.571-10.103c-0.295-0.535-0.941-0.768-1.51-0.545l0,0
							c-0.634,0.249-0.94,0.97-0.679,1.599l2.498,6.011l-5.346-2.747c-1.413-0.726-3.146-0.122-3.801,1.326l-2.298,5.077
							c-0.544,1.201-0.168,2.619,0.899,3.394l3.185,2.312c0.853,0.619,1.867,0.979,2.92,1.034l4.745,0.25
							c1.479,0.078,2.898,0.609,4.064,1.522l13.375,10.468L305.105,224.454z"/>
						<g>
							<path style="fill:#FF6666;" d="M279.762,222.732l-5.85-3.293l-0.303,0.669c-0.001,0.002-0.001,0.004-0.002,0.006l5.793,3.261
								c0.057,0.032,0.119,0.048,0.181,0.048c0.129,0,0.254-0.068,0.322-0.188C280.003,223.057,279.94,222.832,279.762,222.732z"/>
							<path style="fill:#FF6666;" d="M281.066,221.051c0.129,0,0.254-0.068,0.322-0.188c0.1-0.178,0.037-0.403-0.141-0.502
								l-6.177-3.477l-0.305,0.675l6.121,3.445C280.942,221.035,281.005,221.051,281.066,221.051z"/>
							<path style="fill:#FF6666;" d="M275.924,215.003l6.445,3.628c0.057,0.032,0.119,0.048,0.18,0.048
								c0.129,0,0.254-0.068,0.322-0.188c0.1-0.178,0.037-0.403-0.141-0.502l-6.4-3.602
								C276.174,214.571,276.032,214.772,275.924,215.003z"/>
						</g>
					</g>
					<polygon style="fill:#FF6666;" points="302.551,223.597 296.034,233.796 302.798,239.09 305.105,224.454 					"/>
				</g>
				<path style="fill:#C9D8E6;" d="M269.385,165.65l-6.527,5.764c-1.982,1.751-2.682,4.541-1.759,7.02l1.769,4.753l-2.413,2.853
					c-1.866,2.206-2.193,5.329-0.825,7.874l10.936,20.336L269.385,165.65z"/>
				<path style="fill:#FFFFFF;" d="M317.936,178.13c0.367-2.947,4.404-3.493,5.541-0.75l22.11,53.35
					c2.897,6.26,2.439,13.56-1.217,19.409v0c-3.979,6.367-11.872,9.079-18.924,6.504l-28.496-10.405l8.155-21.785l12.073,3.698
					l-3.442-16.263L317.936,178.13z"/>
				<path style="fill:#C9D8E6;" d="M313.735,211.889l1.261-4.745l10.431,17.991c1.403,2.42-0.896,5.302-3.567,4.472l-4.682-1.455
					L313.735,211.889z"/>
				
					<line style="fill:none;stroke:#6D757D;stroke-width:0.7382;stroke-linecap:round;stroke-linejoin:round;stroke-miterlimit:10;" x1="305.105" y1="224.454" x2="335.341" y2="233.796"/>
				<path style="fill:#FF6666;" d="M280.936,146.289c0,0,1.504,13.166-9.641,14.217l-1.105-4.057L280.936,146.289z"/>
				
					<line style="fill:none;stroke:#6D757D;stroke-width:0.7382;stroke-linecap:round;stroke-linejoin:round;stroke-miterlimit:10;" x1="321.056" y1="184.341" x2="313.735" y2="211.889"/>
				<path style="fill:#FF9C9C;" d="M269.993,133.066c1.614,3.365,4.876,7.203,11.409,7.752c0,0,0.591,15.647-10.278,16.922
					c-11.897,1.395-10.513-12.385-10.513-12.385l-1.104-2.207c-1.439-2.879-0.986-6.351,1.174-8.737
					c0.759-0.838,1.66-1.753,2.718-2.705C265.486,129.826,268.779,130.535,269.993,133.066z"/>
				
					<ellipse transform="matrix(0.2656 -0.9641 0.9641 0.2656 70.7682 376.4236)" style="fill:#FF9C9C;" cx="282.469" cy="141.76" rx="4.474" ry="3.044"/>
				<path style="fill:none;stroke:#FF6666;stroke-width:0.4703;stroke-miterlimit:10;" d="M280.889,143.35
					c-0.244-0.55-0.292-1.291-0.083-2.048c0.372-1.35,1.418-2.239,2.336-1.986c0.389,0.107,0.693,0.403,0.886,0.811"/>
				
					<polyline style="fill:none;stroke:#FF6666;stroke-width:0.9406;stroke-linecap:round;stroke-linejoin:round;stroke-miterlimit:10;" points="
					264.341,140.817 265.147,143.669 265.147,146.289 267.51,146.101 				"/>
				
					<path style="fill:none;stroke:#FF6666;stroke-width:0.9406;stroke-linecap:round;stroke-linejoin:round;stroke-miterlimit:10;" d="
					M265.926,148.96c0,0,3.757,0.151,6.075-3.174"/>
				<g>
					
						<ellipse transform="matrix(0.9472 -0.3205 0.3205 0.9472 -30.9185 93.7978)" style="fill:#0A0F0E;" cx="269.47" cy="140.82" rx="0.903" ry="1.201"/>
					
						<ellipse transform="matrix(0.9472 -0.3205 0.3205 0.9472 -32.1298 91.5236)" style="fill:#0A0F0E;" cx="261.957" cy="143.362" rx="0.903" ry="1.201"/>
				</g>
				<path style="fill:none;stroke:#2D423E;stroke-width:0.9406;stroke-miterlimit:10;" d="M259.907,140.817
					c0,0,1.26-1.331,3.225-1.23"/>
				<path style="fill:none;stroke:#2D423E;stroke-width:0.9406;stroke-miterlimit:10;" d="M266.966,138.118
					c0,0,1.26-1.331,3.225-1.23"/>
				<circle style="fill:#FFFFFF;" cx="282.036" cy="145.97" r="1.73"/>
				
					<line style="fill:none;stroke:#FF6666;stroke-width:0.4703;stroke-miterlimit:10;" x1="282.681" y1="141.671" x2="281.576" y2="139.892"/>
			</g>
			
				<path style="fill:none;stroke:#000000;stroke-width:0.7382;stroke-linecap:round;stroke-linejoin:round;stroke-miterlimit:10;" d="
				M325.58,267.845l3.043,9.48c5.564,17.332-7.365,35.06-25.567,35.06h-82.188l25.427-52.739L325.58,267.845z"/>
		</g>
		<g>
			<g>
				<polygon style="fill:#FF9C9C;" points="151.269,183.187 162.941,196.575 142.086,206.379 132.409,189.19 135.002,182.674 				
					"/>
				<path style="fill:#FF6666;" d="M137.228,186.318c0,0,7.383,5.926,18.585,2.081l-4.543-5.212L137.228,186.318z"/>
				<path style="fill:#FF9C9C;" d="M150.123,160.225c0,0,2.379,0.399,4.934,0.983c0.671,0.154,1.033,0.885,0.752,1.513l-1.525,3.406
					c5.225,7.451,6.356,25.118-19.609,19.719l-3.904-29.976l16.74-8.128L150.123,160.225z"/>
				<path style="fill:#8C2C2C;" d="M140.43,154.033c0,0,1.565,5.225-3.757,10.74c0,0,3.096,11.321-2.032,15.385
					c0,0,1.728,6.163-2.232,9.032l-19.295-16.043c-3.867-3.215-2.657-9.516,2.168-10.93c0.066-0.019,0.133-0.038,0.201-0.057
					c0,0-1.451-14.224,14.03-16.643c0,0,7.547-9.482,17.223-1.742c12.095-3.04,15.076,14.051,3.387,16.449
					C150.123,160.225,147.09,155.29,140.43,154.033z"/>
				
					<ellipse transform="matrix(0.7517 -0.6594 0.6594 0.7517 -82.8275 132.1918)" style="fill:#FF9C9C;" cx="134.162" cy="176.107" rx="4.473" ry="5.649"/>
				
					<path style="fill:none;stroke:#FF6666;stroke-width:0.9406;stroke-linecap:round;stroke-linejoin:round;stroke-miterlimit:10;" d="
					M131.293,175.481c-0.11-2.309,3.958-3.133,6.157,1.869"/>
				
					<ellipse transform="matrix(0.9134 -0.407 0.407 0.9134 -53.6967 73.6139)" style="fill:#142940;" cx="146.191" cy="163.028" rx="1.244" ry="2.345"/>
				<path style="fill:none;stroke:#6E2222;stroke-width:0.9406;stroke-miterlimit:10;" d="M141.636,161.235
					c0,0,1.164-3.212,4.555-2.887"/>
				<path style="fill:#FFFFFF;" d="M145.76,169.791l7.468-1.387c0,0,2.607,8.52,0,9.265
					C150.621,178.414,145.76,169.791,145.76,169.791z"/>
			</g>
			<g>
				<path style="fill:#FF9C9C;" d="M395.926,367.441l4.105,8.506l11.301,4.625l16.183,1.582c1.177,0.115,2.117,1.03,2.265,2.203v0
					c0.283,2.248-0.786,4.452-2.727,5.622h0c-2.381,1.435-5.043,2.341-7.805,2.654l-10.818,1.226l-13.81,3.402l-3.502-5.304
					l-0.5-8.606l-6.123-7.839L395.926,367.441z"/>
				<path style="fill:#1E3F61;" d="M390.618,383.352l0.5,8.606l3.502,5.304l13.81-3.402l10.818-1.226
					c2.762-0.313,5.425-1.218,7.805-2.654c1.96-1.181,3.03-3.417,2.718-5.688c-0.158-1.146-1.105-2.025-2.256-2.137l-16.183-1.582
					l-11.301-4.625c0,0-1.144,1.803-1.87,4.244c-0.483,1.624-2.004,2.708-3.697,2.627
					C393.272,382.761,391.893,382.86,390.618,383.352z"/>
				
					<line style="fill:none;stroke:#142940;stroke-width:0.7382;stroke-linecap:round;stroke-linejoin:round;stroke-miterlimit:10;" x1="393.176" y1="393.61" x2="429.787" y2="385.709"/>
			</g>
			<g>
				<path style="fill:#785C0F;" d="M229.334,247.707l95.901,14.269c7.231,1.076,13.611,5.306,17.417,11.548l48.143,78.965
					c0,0,3.587,1.003,3.782,5.094c0,0,2.728,1.753,3.312,5.455l2.143,3.702l-17.437,13.833l-63.126-81.473H204.522L229.334,247.707z
					"/>
				<polygon style="fill:#4D3B0A;" points="204.522,299.099 225.398,299.099 231.923,249.894 208.307,291.261 				"/>
				<path style="fill:#4D3B0A;" d="M382.595,380.572l17.437-13.833l-2.143-3.702c-0.584-3.702-3.312-5.455-3.312-5.455
					c-0.195-4.091-3.782-5.094-3.782-5.094l0,0c-1.932-3.169-4.617-5.813-7.816-7.695l-51.659-30.398L382.595,380.572z"/>
				
					<line style="fill:none;stroke:#2E2306;stroke-width:0.7382;stroke-linecap:round;stroke-linejoin:round;stroke-miterlimit:10;" x1="330.967" y1="277.735" x2="323.241" y2="292.333"/>
				
					<line style="fill:none;stroke:#2E2306;stroke-width:0.7382;stroke-linecap:round;stroke-linejoin:round;stroke-miterlimit:10;" x1="322.201" y1="277.735" x2="319.468" y2="291.701"/>
				
					<line style="fill:none;stroke:#2E2306;stroke-width:0.7382;stroke-linecap:round;stroke-linejoin:round;stroke-miterlimit:10;" x1="396.785" y1="364.056" x2="379.826" y2="376.998"/>
				
					<path style="fill:none;stroke:#2E2306;stroke-width:0.7382;stroke-linecap:round;stroke-linejoin:round;stroke-miterlimit:10;" d="
					M220.863,273.023l99.918,11.303c2.209,0.25,4.217,1.402,5.547,3.184l61.977,83.017"/>
			</g>
			<g>
				<path style="fill:#FFFFFF;" d="M149.457,194.474c0,0,10.889-2.774,19.505,1.097c12.229,5.495,37.934,39.232,37.934,39.232
					l17.886,8.89l4.465-0.557c2.588-0.323,4.558,2.274,3.548,4.679l-20.973,49.966h-29.155l-46.905-85.215L149.457,194.474z"/>
				<path style="fill:#C9D8E6;" d="M196.537,240.661l-29.067-26.8l-21.456,17.328l36.654,66.591h29.155l17.118-40.783
					c1.161-2.766-0.353-5.925-3.236-6.753l-24.793-7.122C199.282,242.653,197.784,241.811,196.537,240.661z"/>
				
					<line style="fill:none;stroke:#6D757D;stroke-width:0.7382;stroke-linecap:round;stroke-linejoin:round;stroke-miterlimit:10;" x1="204.972" y1="237.318" x2="182.059" y2="255.16"/>
				
					<line style="fill:none;stroke:#6D757D;stroke-width:0.7382;stroke-linecap:round;stroke-linejoin:round;stroke-miterlimit:10;" x1="203.351" y1="243.788" x2="196.379" y2="261.947"/>
			</g>
			<path style="fill:#1E3F61;" d="M208.648,312.385l-27.965-11.923l-28.565-48.259c-9.639,10.119-15.568,23.804-15.568,38.882
				c0,31.148,25.25,56.398,56.398,56.398c5.451,0,10.714-0.789,15.7-2.231V312.385z"/>
			<path style="fill:#142940;" d="M172.6,327.146v16.538c6.314,2.445,13.171,3.8,20.349,3.8c5.451,0,10.714-0.789,15.7-2.231
				v-32.867l-27.965-11.923l-28.565-48.259c-3.155,3.313-5.904,7.013-8.186,11.014l18.25,33.03
				c7.237,13.099,21.02,21.23,35.985,21.23h-15.901C176.928,317.479,172.6,321.807,172.6,327.146z"/>
			<path style="fill:#1E3F61;" d="M128.752,206.379l-4.961-19.914c-8.936,2.219-15.561,10.292-15.561,19.914
				c0,11.334,9.188,20.522,20.522,20.522c3.466,0,6.729-0.863,9.592-2.38L128.752,206.379z"/>
			<g>
				<path style="fill:#4693E3;" d="M387.467,406.358c-2.551,0-5.072-1.147-6.738-3.332l-71.682-93.973
					c-2.836-3.717-2.121-9.03,1.596-11.865c3.717-2.837,9.029-2.12,11.865,1.597l71.683,93.973c2.835,3.717,2.12,9.03-1.597,11.866
					C391.061,405.793,389.256,406.358,387.467,406.358z"/>
			</g>
			<path style="fill:#204A75;" d="M322.509,298.785c-2.836-3.718-8.148-4.434-11.865-1.597c-3.718,2.836-4.432,8.149-1.596,11.865
				l5.517,7.233c0.41,0.042,0.826,0.063,1.247,0.063c6.163,0,11.247-4.563,12.092-10.492L322.509,298.785z"/>
			<g>
				<path style="fill:#4693E3;" d="M315.778,312.385H202.323c-15.222,0-29.251-8.277-36.613-21.601l-44.359-80.287
					c-2.261-4.092-0.777-9.243,3.316-11.504c4.092-2.263,9.243-0.777,11.504,3.316l44.359,80.287
					c4.382,7.931,12.733,12.858,21.794,12.858h113.455c4.676,0,8.466,3.79,8.466,8.466
					C324.244,308.595,320.454,312.385,315.778,312.385z"/>
			</g>
			<path style="fill:#204A75;" d="M136.17,202.308c-2.261-4.093-7.412-5.579-11.504-3.316c-4.092,2.261-5.577,7.412-3.316,11.504
				l4.246,7.685c1.008,0.269,2.063,0.426,3.156,0.426c5.486,0,10.128-3.612,11.678-8.588L136.17,202.308z"/>
			<circle style="fill:#FFFFFF;" cx="315.811" cy="304.12" r="3.657"/>
			<circle style="fill:#142940;" cx="287.696" cy="304.12" r="5.02"/>
			<path style="fill:#4693E3;" d="M273.797,282.08h-89.343l0,0c0-3.654,2.962-6.616,6.616-6.616h85.287
				c1.12,0,2.028,0.908,2.028,2.028l0,0C278.385,280.026,276.331,282.08,273.797,282.08z"/>
			<path style="fill:#4693E3;" d="M187.907,312.385h108.018c4.391,0,7.607,4.136,6.526,8.392l-27.035,106.397h-96.67V321.546
				C178.747,316.486,182.848,312.385,187.907,312.385z"/>
			<path style="fill:#204A75;" d="M187.907,314.876h108.018c3.36,0,6.024,2.423,6.609,5.467c0.765-4.098-2.368-7.958-6.609-7.958
				H187.907c-5.059,0-9.161,4.101-9.161,9.161v2.491C178.747,318.977,182.848,314.876,187.907,314.876z"/>
			<g>
				
					<circle style="fill:none;stroke:#FFFFFF;stroke-width:0.7382;stroke-linecap:round;stroke-linejoin:round;stroke-miterlimit:10;" cx="186.255" cy="321.307" r="2.349"/>
				
					<circle style="fill:none;stroke:#FFFFFF;stroke-width:0.7382;stroke-linecap:round;stroke-linejoin:round;stroke-miterlimit:10;" cx="294.588" cy="321.307" r="2.349"/>
			</g>
			<path style="fill:#204A75;" d="M268.131,406.358H200.79c-7.67,0-15.14,1.541-22.044,4.39v16.425h96.67l5.082-20
				C276.417,406.637,272.288,406.358,268.131,406.358z"/>
			<g>
				<path style="fill:#4693E3;" d="M128.757,214.871c-3.637,0-6.997-2.362-8.102-6.023l-19.95-66.123
					c-1.351-4.476,1.183-9.2,5.659-10.55c4.474-1.352,9.2,1.183,10.55,5.659l19.95,66.123c1.351,4.476-1.183,9.2-5.659,10.55
					C130.39,214.754,129.566,214.871,128.757,214.871z"/>
			</g>
			<circle style="fill:#FFFFFF;" cx="128.752" cy="206.379" r="3.657"/>
			<path style="fill:#4693E3;" d="M327.762,440.761h-169.76c-3.325,0-5.237-3.781-3.266-6.459l0,0
				c10.896-14.801,28.18-23.54,46.559-23.54h67.341c22.659,0,44.569,8.112,61.766,22.867l0,0
				C333.259,436.079,331.525,440.761,327.762,440.761z"/>
			<g>
				<path style="fill:#142940;" d="M287.698,306.471c-0.708,0-1.408-0.318-1.871-0.924l-11.083-14.513
					c-2.033-2.662-5.246-4.251-8.596-4.251H161.182c-1.299,0-2.352-1.053-2.352-2.352s1.053-2.352,2.352-2.352h104.967
					c4.807,0,9.417,2.28,12.333,6.099l11.083,14.513c0.788,1.033,0.591,2.508-0.442,3.297
					C288.698,306.314,288.196,306.471,287.698,306.471z"/>
			</g>
			<g>
				<path style="fill:#FF9C9C;" d="M185.03,278.08h81.831c3.467,2.863,11.525,3.296,11.525,3.296l1.604,4.971
					c0.112,0.348,0.447,0.576,0.812,0.553l0,0c0.444-0.028,0.78-0.414,0.747-0.858l-0.373-4.971l2.789,6.043
					c0.223,0.483,0.706,0.792,1.237,0.792h6.033c0.71,0,1.196-0.717,0.932-1.377l-3.695-9.241c-0.471-1.179-1.431-2.094-2.631-2.509
					l-17.479-6.045l-77.989-21.63l-17.442-31.166l-27.915,14.439l21.805,37.261C170.604,274.105,177.536,278.08,185.03,278.08z"/>
				<g>
					<path style="fill:#FF6666;" d="M287.381,287.906l-3.561-9.658c-0.09-0.244-0.361-0.371-0.604-0.278
						c-0.244,0.089-0.368,0.36-0.279,0.604l3.441,9.333H287.381z"/>
					<path style="fill:#FF6666;" d="M286.387,278.247c-0.09-0.244-0.36-0.371-0.604-0.278c-0.244,0.089-0.368,0.36-0.279,0.604
						l3.441,9.333h1.003L286.387,278.247z"/>
				</g>
				<path style="fill:#1B0740;" d="M149.457,247.707c0,0,6.161,2.117,13.966-3.469l-5.729-7.519
					C157.694,236.719,150.027,241.58,149.457,247.707z"/>
				<path style="fill:#FF6666;" d="M182.667,233.336l-3.071-5.487l-28.386,13.115l5.528,9.446
					C161.627,242.925,175.544,242.506,182.667,233.336z"/>
				
					<line style="fill:none;stroke:#FF6666;stroke-width:0.9406;stroke-linecap:round;stroke-linejoin:round;stroke-miterlimit:10;" x1="190.907" y1="248.1" x2="195.524" y2="256.716"/>
				<path style="fill:#FFFFFF;" d="M149.457,247.707c5.451-8.987,21.45-6.609,32.602-15.458l-14.589-28.737
					c-4.192-8.257-14.231-11.626-22.554-7.569l0,0c-8.151,3.973-11.553,13.782-7.621,21.953c1.824,3.79,3.805,7.805,5.68,11.396
					C148.188,239.28,149.457,247.707,149.457,247.707z"/>
			</g>
			
				<line style="fill:none;stroke:#6D757D;stroke-width:0.7382;stroke-linecap:round;stroke-linejoin:round;stroke-miterlimit:10;" x1="167.47" y1="203.511" x2="179.596" y2="227.849"/>
		</g>
		<g>
			<g>
				<circle style="fill:#C9D8E6;" cx="74.51" cy="179.772" r="26.755"/>
				<polygon style="fill:#C9D8E6;" points="93.487,169.383 120.573,169.965 95.736,182.831 				"/>
			</g>
			<path style="fill:#BA3B3B;" d="M83.255,167.855c-5.676-1.2-8.745,3.64-8.745,3.64s-3.069-4.841-8.745-3.64
				c-7.682,1.624-7.087,11.869-2.495,16.039c7.799,7.083,11.241,9.869,11.241,9.869s3.441-2.786,11.241-9.869
				C90.343,179.724,90.937,169.479,83.255,167.855z"/>
		</g>
		<rect x="66.819" y="440.761" style="fill:#142940;" width="366.304" height="2.54"/>
	</g>
</g>
</svg>
