<?xml version="1.0" encoding="utf-8"?>
<!-- Generator: Adobe Illustrator 27.5.0, SVG Export Plug-In . SVG Version: 6.00 Build 0)  -->
<svg version="1.1" id="_x3C_Layer_x3E_" xmlns="http://www.w3.org/2000/svg" xmlns:xlink="http://www.w3.org/1999/xlink" x="0px"
	 y="0px" viewBox="0 0 1177 1284" style="enable-background:new 0 0 1177 1284;" xml:space="preserve">
<rect style="fill:#FFFFFF;" width="1177" height="1284"/>
<g>
	<g>
		<path style="fill:#9CECF9;" d="M1000.776,377.484c31.521-58.931,54.54-115.037,38.762-181.924
			c-16.584-70.31-71.857-89.631-140.816-86.484c-66.315,3.027-129.841,16.842-195.349,26.176
			c-74.003,10.545-148.979,8.955-223.666,15.575c-132.718,11.763-253.213,62.95-251.242,213.98
			c1.113,85.353-8.718,159.52-44.658,239.325c-16.588,36.832-46.952,70.296-50.841,111.074
			c-3.344,35.068,7.505,72.508,23.099,103.549c30.966,61.643,80.701,111.483,84.319,184.243
			c3.418,68.773-25.448,171.391-83.491,212.474l814.14-2.983c-11.977-19.38,2.861-77.007,6.119-101.394
			c5.369-40.183,20.672-79.78,29.668-119.299c24.015-105.489-38.96-164.853-94.853-243.876
			C819.699,617.47,939.095,492.799,1000.776,377.484z"/>
		<path style="fill:#A7A9A9;" d="M1113.776,1223.679c0,9.972-235.174,18.056-525.277,18.056
			c-290.102,0-525.276-8.084-525.276-18.056c0-9.973,235.174-18.057,525.276-18.057
			C878.602,1205.622,1113.776,1213.706,1113.776,1223.679z"/>
	</g>
	<g>
		<g>
			<g>
				<g>
					<path style="fill:#FF916C;" d="M334.393,1134.438c0.988,8.208,6.359,22.122,9.202,31.96c1.961,6.785,3.151,31.01,7.99,35.155
						c17.911,15.344,14.761-53.227,14.101-60.674L334.393,1134.438z"/>
					<path style="fill:#FFFFFF;" d="M367.029,1182.912l-15.444-0.932c-7.722-8.394-10.543,1.992-13.426,6.396
						c-3.428,5.227-10.421,9.32-15.617,12.517c-9.162,5.633-32.275,10.714-28.371,25.23c18.93,0.828,54.399,3.703,73.814,0.235
						c8.353-1.496,5.049-12.285,2.489-23.834C368.711,1194.579,369.141,1190.618,367.029,1182.912z"/>
				</g>
				<path style="fill:#FF916C;" d="M505.49,1155.307c0.258,8.262,4.381,22.594,6.344,32.648c1.355,6.931,0.399,31.169,4.854,35.722
					c16.486,16.866,19.405-51.715,19.405-59.187L505.49,1155.307z"/>
				<path style="fill:#FFFFFF;" d="M523.573,1178.711c-10.85-1.084-12.866,7.949-14.79,12.242c-2.287,5.102-6.003,6.659-9.551,9.669
					c-6.252,5.303-22.178,9.576-19.234,24.193c13.128,1.484,45.996,2.592,59.388-0.197c5.764-1.201,2.041-5.104-3.06-17.854
					C533.315,1199.24,533.775,1179.731,523.573,1178.711z"/>
				<g>
					<g>
						<path style="fill:#499FC8;" d="M401.15,948.38c-3.701,29.323,4.621,67.774,0.804,97.872
							c-3.661,28.885-23.693,94.279-34.019,125.163l-39.603-6.904c2.415-32.216,3.324-77.113,3.391-126.548
							c0.202-140.065-6.335-316.586-4.27-344.481l117.645-49.206c2.589,10.629-6.337,70.844-16.902,136.069
							C417.393,846.977,404.875,918.831,401.15,948.38z"/>
						<path style="fill:#188AAF;" d="M401.954,1046.252c-3.661,28.885-23.693,94.279-34.019,125.163l-39.603-6.904
							c2.415-32.216,3.324-77.113,3.391-126.548c13.96,4.896,29.699,5.297,40.374-1.055c17.22-10.24,17.983-89.654,19.486-99.865
							c5.372-36.372,7.932-74.908,11.501-111.354c2.09-21.283,4.833-43.013,8.014-64.28c1.412-9.406,12.029-56.345,6.915-59.69
							h9.183c-3.058,17.626,0.947,36.657,0,55.094c-0.418,8.213-0.044,15.998,1,23.532
							c-10.803,66.631-23.321,138.485-27.046,168.034C397.449,977.702,405.771,1016.153,401.954,1046.252z"/>
					</g>
					<path style="fill:#499FC8;" d="M539.976,1164.023l-40.195,0.51c-3.266-29.496-9.764-69.27-17.811-113.224
						c-25.524-139.462-66.661-320.984-69.858-349.573l106.563-70.045c2.456,5.429,4.264,25.966,5.671,54.221
						c3.789,76.562,4.597,209.795,7.174,252.772c1.767,29.503,17.03,65.761,18.827,96.048
						C552.068,1063.804,544.435,1131.767,539.976,1164.023z"/>
					<path style="fill:#188AAF;" d="M539.976,1164.023l-40.195,0.51c-3.266-29.496-9.764-69.27-17.811-113.224
						c20.106-0.609,41.211-9.804,45.038-29.376c5.619-28.715-10.154-96.531-10.417-118.823c-0.259-21.557-1.722-44.165-1.722-67.125
						V684.408l9.476,1.504c3.789,76.562,4.597,209.795,7.174,252.772c1.767,29.503,17.03,65.761,18.827,96.048
						C552.068,1063.804,544.435,1131.767,539.976,1164.023z"/>
				</g>
			</g>
			<path style="fill:#5EB0E0;" d="M503.436,703.106c19.734-55.714,48.986-198.611,70.579-254.407
				c9.532-24.63,28.401-64.662,27.539-90.145c-1.064-31.434-70.376-86.064-69.942-85.044l-70.275-13.12
				c-11.844,5.345-41.784-0.291-65.786,15.55c-23.662,15.616-49.568,365.933-42.279,399.465L503.436,703.106z"/>
			<g>
				<g>
					<path style="fill:#F3F3F3;" d="M415.593,354.371c-4.319,27.365-40.817,99.718-65.117,120.196
						c-14.383,12.12-54.811,40.449-68.66,16.757c-0.948-1.623-1.773-3.489-2.454-5.623c-4.597-14.381,12.959-46.706,19.986-60.831
						c6.774-13.619,15.498-27.581,26.223-55.622c11.521-30.123,32.074-94.764,64.755-100.967l20.098,68.478L415.593,354.371z"/>
					<path style="fill:#B0B4B6;" d="M415.593,354.371c-4.319,27.365-40.817,99.718-65.117,120.196
						c-14.383,12.12-54.811,40.449-68.66,16.757c7.896-2.296,15.608-5.282,22.989-9.636c25.904-15.264,57.214-99.669,67.42-138.683
						c7.375-28.193,27.485,24.442,38.199-6.246L415.593,354.371z"/>
				</g>
				<path style="fill:#F3F3F3;" d="M331.4,526.699c-12.951,6.402-34.988,5.828-59.774-26.239
					c-10.711-13.862-21.914-33.052-30.171-49.359c-0.525-1.035-1.034-2.052-1.535-3.062c-4.325-8.725-9.135-17.342-12.869-26.248
					c-2.372-5.647-5.745-22.168-8.438-23.35l27.396-15.972c13.403,10.759,18.204,14.379,31.254,26.715
					c16.349,15.463,34.201,30.728,44.887,51.173c0.583,1.109,1.239,2.429,1.945,3.916
					C332.073,481.041,346.469,519.255,331.4,526.699z"/>
				<path style="fill:#E07F4F;" d="M208.903,334.586c-12.629,1.234-24.806,16.283-31.16,26.103
					c10.365,8.608,19.502,19.688,32.297,24.949c6.438,2.647,11.399,12.122,18.167,11.014c5.391-0.883,11.906-1.455,17.801-14.18
					L208.903,334.586z"/>
				<g>
					<path style="fill:#B0B4B6;" d="M241.269,444.046l-0.082-3.1C240.955,441.898,241.005,442.941,241.269,444.046z"/>
					<path style="fill:#B0B4B6;" d="M331.4,526.699c-12.951,6.402-34.988,5.828-59.774-26.239
						c-10.711-13.862-21.914-33.052-30.171-49.359l-0.189-7.059c1.748,7.313,13.124,17.4,18.056,23.031
						c8.708,9.947,17.811,15.57,31.106,15.725c17.047,0.214,26.059-8.01,33.667-18.523
						C332.073,481.041,346.469,519.255,331.4,526.699z"/>
				</g>
				<polygon style="fill:#3A4950;" points="154.655,217.261 79.256,235.119 102.176,383.931 138.96,487.336 251.218,452.347 
					211.855,354.667 192.902,208.876 				"/>
				<g>
					<g>
						<path style="fill:#5B6B73;" d="M149.777,394.616c-1.468,14.962-25.394-3.251-34.199-20.195
							c-8.8-16.944-13.003-21.254-10.156-62.669c0.189-2.731,0.398-5.301,0.632-7.722c3.294-34.227,10.992-37.507,19.592-26.321
							c9.203,11.978,11.493,30.472,11.493,30.472s3.644,14.189,4.465,25.418c0.34,4.66,2.055,13.378,3.844,23.058
							C147.974,370.306,150.636,385.86,149.777,394.616z"/>
						<path style="fill:#5B6B73;" d="M208.019,352.409c-0.219,19.091-13.372,46.132-21.424,33.441
							c-5.714-9.004-11.307-29.257-15.622-43.98c-1.769-6.04-3.324-11.147-4.582-14.17c-4.33-10.399-7.473-24.704-7.473-24.704
							s-6.292-17.542-3.474-32.382c2.823-14.844,12.191-14.417,33.397,21.269c0.219,0.369,0.433,0.734,0.646,1.093
							C210.006,327.696,208.238,333.517,208.019,352.409z"/>
						<path style="fill:#5B6B73;" d="M157.462,290.685c-3.772-2.199-6.095-8.289-8.216-13.26
							c-2.658-6.229-4.764-11.587-6.569-18.256c-1.777-6.564-2.977-14.211-5.668-20.207c-2.055,0.309-4.481,0.562-6.189,1.923
							c2.737,13.264,6.086,25.177,6.15,38.463c0.029,6.064,0.171,12.769-2.097,17.177c-1.433,2.784-5.292,6.887-7.936,5.134
							l3.609,9.501c4.216,0.676,7.935-2.319,10.658-6.142c3.57-5.01,5.641-6.883,10.86-3.038c3.568,2.629,8.894,3.479,12.278,2.944
							c5.412-0.855,3.348-7.902,2.672-14.896C164.902,292.349,160.361,292.374,157.462,290.685z"/>
					</g>
					<path style="opacity:0.6;fill:#5B6B73;" d="M149.777,394.616c-1.468,14.962-25.394-3.251-34.199-20.195
						c-8.8-16.944-13.003-21.254-10.156-62.669c0.189-2.731,0.398-5.301,0.632-7.722c11.842-6.321,9.99,25.895,16.05,30.429
						c21.444-14.053,6.706,9.923,16.273,19.607c2.041,2.066,4.504,2.498,7.07,2.591C147.974,370.306,150.636,385.86,149.777,394.616
						z"/>
					<path style="opacity:0.6;fill:#5B6B73;" d="M208.019,352.409c-0.219,19.091-13.372,46.132-21.424,33.441
						c-5.714-9.004-11.307-29.257-15.622-43.98c0.34-1.006,0.802-1.915,1.395-2.693c4.961-6.477,12.575-2.332,11.978-13.556
						c-0.457-8.611-6.837-10.35-2.721-19.408c1.258-2.765,4.927-3.601,6.346-6.808c0.826-1.885,1.239-4.149,1.516-6.429
						C210.006,327.696,208.238,333.517,208.019,352.409z"/>
				</g>
				<path style="fill:#FFA471;" d="M222.715,342.359c-6.828-11.128-12.902-15.598-18.338-20.934
					c-10.053-9.867-4.211,20.753,5.952,23.052c-2.146,12.932,9.983,36.586,24.503,23.419L222.715,342.359z"/>
			</g>
			<path style="fill:#F3F3F3;" d="M436.371,261.362l-2.916,71.435c-12.381,38.086-16.02,81.061-20.733,122.467
				c-4.796,42.086-11.191,84.137-17.09,126.795c-7.318,52.897-34.247,250.273-40.904,258.091
				c-8.834,10.375-51.026,1.458-68.52-10.204c0.909-8.295,9.505-63.281,19.548-127.074c2.959-18.804,6.045-38.372,9.092-57.741
				c9.553-60.663,16.897-119.655,22.708-146.126c12.801-58.323,28.634-101.706,34.669-156.002
				c2.318-20.836-5.504-62.234,14.58-72.896C403.961,260.998,430.54,264.278,436.371,261.362z"/>
			<g>
				<g>
					<g>
						<path style="fill:#FFA471;" d="M553.963,212.766c-2.536,9.534-8.484,31.468-13.241,47.96
							c-1.846,6.404-3.518,11.983-4.737,15.699c-5.209,15.866-59.768,60.264-79.205,70.953c-4.028-8.784-5.899-20.928-6.672-32.653
							c-1.272-19.418-0.014-31.382-0.014-31.382s20.802-52.601,27.212-69.486l64.005-0.336L553.963,212.766z"/>
					</g>
				</g>
			</g>
			<path style="fill:#F3F3F3;" d="M589.339,431.551c-9.708,38.29-15.332,58.176-24.671,96.608
				c-7.585,31.206-5.754,74.423-7.29,106.426c-0.32,6.637,16.3,205.287,11.664,209.938c-5.034,5.038-61.602,15.677-68.522,16.037
				c-25.885,1.332-68.577-1.405-93.305-8.747c5.219-15.195,23.297-221.972,24.896-238.285c1.302-13.29,2.896-26.362,4.708-39.427
				c1.186-8.542,2.468-17.085,3.829-25.686c0.622-3.932,1.322-7.857,2.104-11.779c3.435-17.196,8.411-34.257,14.844-50.661
				c9.048-23.072,14.101-48.86,25.812-70.945c10.846-20.447,18.431-43.043,28.184-64.166c3.542-7.682,24.014-39.243,22.566-42.736
				l7.775-33.043c12.633,17.493,40.137,38.752,53.451,63.169C611.297,367.434,596.827,402.012,589.339,431.551z"/>
			<path style="fill:#FFFFFF;" d="M528.424,324.848c3.28,5.972,9.524,11.147,12.415,17.289
				c-28.625,21.74-65.705,113.544-85.158,177.346c-4.907,16.074-8.688,30.371-10.933,41.323c-0.15,0.725-0.296,1.448-0.437,2.173
				c-7.303,36.206-11.57,73.126-14.446,105.245c-3.095,34.545-11.99,95.544-13.904,112.152
				c1.584-41.162,5.336-133.731,13.062-206.512c1.356-12.746,3.057-25.87,5.2-39.331c5.549-34.884,14.043-72.027,27.046-110.755
				c34.136-101.698,79.691-163.269,79.691-163.269c1.137,6.818,5.404,15.632,8.353,23.592c0.977,2.629,1.812,5.171,2.337,7.508
				c2.022,8.97,8.921,23.013,8.747,32.071C551.534,324.518,536.898,323.478,528.424,324.848z"/>
			<g>
				<path style="fill:#E6E8EA;" d="M462.242,253.705l-0.37,1.477c0.378,0.084,0.758,0.172,1.141,0.269
					C464.649,254.392,462.935,254.727,462.242,253.705z"/>
				<path style="fill:#FFFFFF;" d="M426.28,265.345c-9.572,6.426-22.865,14.513-29.973,23.103c5.828,3.55,24.28,5.61,29.005,9.963
					c-7.49,8.518-27.241,16.705-35.08,25.267c2.849,2.864,14.671,16.521,10.784,74.831c-6.326,94.897-25.381,310.682-27.335,325.009
					c7.582-13.244,61.026-355.864,65.214-386.235c3.247-23.546,8.283-52.965,19.459-73.859l3.518-8.241
					C448.224,252.138,437.672,257.695,426.28,265.345z"/>
			</g>
			<path style="opacity:0.8;fill:#B0B4B6;" d="M576.481,410.025c-7.969,16.195,0.661,25.564-9.062,40.963
				c-11.657,18.464-57.412,107.618-90.226,115.075c-32.074,7.29-46.905,6.929-48.169,7.8c1.356-12.746,3.057-25.87,5.2-39.331
				c3.746-2.278,7.318-4.673,10.476-6.919c1.851-1.316,3.562-2.581,5.087-3.737c1.958-1.487,3.922-2.95,5.894-4.393
				c17.076-12.551,34.549-23.96,50.162-38.266c14.359-13.159,27.844-26.337,41.391-39.996
				C557.365,430.997,569.032,422.416,576.481,410.025z"/>
			<g>
				<g>
					<g>
						<path style="fill:#FFA471;" d="M318.815,468.842c-5.214-7.961-19.34-16.412-27.089-23.817
							c-8.195-7.838-10.281-24.23-21.272-25.651c-13.943-1.806-27.548-14.996-29.463-10.845c-0.018,0.042-0.037,0.079-0.05,0.121
							c-3.678,8.467,15.903,19.244,19.454,22.434c-3.966,4.907-25.908-0.069-32.755-0.755c-8.136-0.818-23.887-13.076-28.87-11.11
							c-0.365,0.147-0.676,0.367-0.918,0.671c-2.921,4.394,22.282,18.833,23.88,20.52c-3.463-2.757-29.099-18.983-31.943-14.951
							c-0.033,0.039-0.057,0.078-0.079,0.12c-1.06,1.957-0.153,4.034,1.856,6.089c2.221,2.272,5.79,4.516,9.546,6.538
							c-5.813-2.683-11.077-4.823-11.009-3.83c-0.213,0.333-0.25,0.728-0.135,1.177c0.457,1.753,3.265,4.283,6.776,6.881
							c-0.738-0.062-1.252,0.171-1.457,0.813c0.004,0.054,0.007,0.107,0.01,0.16c1.054,10.287,43.44,30.907,52.404,32.928
							c0.938,0.212,2.32,0.3,4.03,0.322c0.005-0.001,0.005-0.001,0.005-0.001c9.295,0.116,28.135-1.75,36.633,3.378
							c3.678,2.217,8.579,9.061,13.165,14.962c4.192,5.397,8.118,10.009,10.61,9.588l0.857-4.03l6.499-30.572
							C319.294,469.604,319.062,469.222,318.815,468.842z M215.981,445.573c-0.232-0.136-0.668-0.372-1.264-0.692
							c-0.005-0.005-0.01-0.003-0.016-0.012c-0.353-0.181-0.766-0.397-1.232-0.638c0.597,0.29,1.126,0.557,1.565,0.787
							C215.421,445.228,215.74,445.414,215.981,445.573z M211.873,452.273c0.251,0.157,0.465,0.296,0.635,0.408
							C212.376,452.622,212.162,452.478,211.873,452.273z"/>
						<path style="fill:#E07F4F;" d="M319.501,469.985l-6.499,30.572c-3.649-2.069-7.448-3.829-11.331-5.502
							c-0.047-0.017-0.09-0.04-0.136-0.057c-4.586-5.901-9.488-12.745-13.165-14.962c-8.498-5.129-27.339-3.263-36.633-3.378
							c7.188-2.589,14.12-5.964,21.409-8.22c8.044-2.493,16.795-3.523,25.297-3.976c4.678-0.248,9.864-1.244,14.398,0.542
							c2.151,0.848,3.986,2.671,5.974,3.838C319.062,469.222,319.294,469.604,319.501,469.985z"/>
					</g>
					<g>
						<path style="fill:#E07F4F;" d="M264.036,438.358c-5.103,1.928-11.295,0.337-16.412-0.119
							c-10.537-0.942-19.439-1.846-28.729-7.54c-3.434-2.106-12.746-7.566-20.124-11.479c4.983-1.967,20.734,10.292,28.87,11.11
							c6.847,0.686,28.788,5.663,32.755,0.755c-3.551-3.19-23.132-13.967-19.454-22.434c2.615,3.775,5.546,7.25,9.028,10.599
							c3.795,3.649,9.007,4.832,13.066,8.037C266.689,430.166,269.7,436.215,264.036,438.358z"/>
					</g>
					<path style="fill:#E07F4F;" d="M223.306,448.55c-2.659-1.117-5.445-2.284-8.272-3.531c-0.105-0.043-0.211-0.09-0.317-0.137
						c-0.005-0.005-0.01-0.003-0.016-0.012c-7.997-3.535-16.317-7.719-23.134-13.2c-2.009-2.055-2.916-4.132-1.856-6.089
						c0.023-0.042,0.046-0.081,0.079-0.12C197.316,433.644,219.701,446.735,223.306,448.55z"/>
					<path style="fill:#E07F4F;" d="M196.744,442.435c-3.512-2.597-6.319-5.127-6.776-6.881
						c9.864,8.285,28.436,19.023,31.613,20.619c-8.02-3.369-17.726-7.452-26.283-12.765c-0.003-0.053-0.007-0.107-0.01-0.16
						C195.492,442.606,196.006,442.373,196.744,442.435z"/>
				</g>
				<g>
					<path style="fill:#F3F3F3;" d="M590.795,318.199c-17.849-18.039-39.523-6.693-56.831,22.09
						c-2.87,4.774-10.757,10.149-17.768,19.384c0,0,0.001,0.005-0.004,0.006c-27.86,36.719-69.234,108.638-80.236,112.682
						c0,0-73.563-14.157-117.167-22.327c-7.128-1.336-13.451-2.512-18.525-3.439c-0.393,1.324-0.802,2.648-1.224,3.97
						c-1.614,5.065-3.367,10.085-4.986,15.148c-1.221,3.819-2.314,9.196-3.286,13.838c-1.825,8.717-3.377,17.488-4.931,26.259
						c57.131,26.81,168.287,49.899,180.719,42.413c9.886-5.954,43.75-32.593,57.638-46.43
						c31.828-31.71,63.004-75.608,78.174-118.618C608.601,365.511,605.511,333.075,590.795,318.199z"/>
					<g>
						<path style="fill:#B0B4B6;" d="M311.074,449.642c-0.273,0.006-0.539,0.02-0.794,0.044L311.074,449.642z"/>
						<path style="fill:#B0B4B6;" d="M311.094,449.642c0.161-0.005,0.36,0.007,0.59,0.031
							C311.352,449.656,311.148,449.643,311.094,449.642z"/>
						<path style="fill:#B0B4B6;" d="M478.745,461.28c-13.031,3.034-23.979,5.108-35.336,10.343
							c7.465,2.719,30.562,11.01,32.937,22.315c-12.694-6.413-26.6-11.712-40.77-10.864c6.372,5.811,29.885,17.384,28.64,25.183
							c-10.503-7.873-37.326-23.435-49.621-29.789c-10.904-5.631-91.184-27.568-102.822-28.79c1.126,0.059,3.576,0.186,7.015,0.355
							c43.604,8.171,117.167,22.327,117.167,22.327c11.003-4.044,52.376-75.964,80.236-112.682
							c-12.817,31.076-43.816,77.994-65.002,103.006C458.671,459.489,471.5,459.491,478.745,461.28z"/>
					</g>
				</g>
			</g>
			<path style="opacity:0.8;fill:#B0B4B6;" d="M488.855,665.201h-1.457c-3.218,13.7,9.412,56.633,30.541,58.392
				c26.539,2.209,28.268-42.535,30.465-59.629C528.275,662.943,508.868,665.201,488.855,665.201z"/>
			<path style="opacity:0.8;fill:#B0B4B6;" d="M334.936,648.013c-3.926,14.51-10.365,49.889-29.18,54.86
				c2.959-18.804,6.045-38.372,9.092-57.741C321.524,645.851,328.216,646.739,334.936,648.013z"/>
			<g>
				<g>
					<path style="fill:#006695;" d="M519.379,356.095c1.478,9.312,10.227,15.658,19.537,14.18
						c9.308-1.478,15.659-10.222,14.18-19.537c-0.095-0.597-0.22-1.18-0.373-1.753c-2.232-8.339-10.451-13.812-19.16-12.428
						c-8.715,1.385-14.832,9.132-14.373,17.751C519.224,354.902,519.284,355.498,519.379,356.095z"/>
					<path style="fill:#FFFFFF;" d="M519.19,354.309c2.233,8.342,10.451,13.814,19.163,12.431
						c8.712-1.384,14.831-9.132,14.371-17.754c-2.232-8.339-10.451-13.812-19.16-12.428
						C524.849,337.942,518.731,345.69,519.19,354.309z"/>
					<g>
						<path style="fill:#584F4F;" d="M523.01,351.333c0.982,6.187,6.794,10.404,12.981,9.423c6.187-0.983,10.407-6.796,9.423-12.981
							c-0.982-6.187-6.793-10.405-12.98-9.423C526.245,339.332,522.028,345.144,523.01,351.333z"/>
						<path style="fill:#393333;" d="M527.807,350.572c0.562,3.536,3.886,5.949,7.422,5.386c3.536-0.561,5.949-3.886,5.387-7.422
							c-0.561-3.536-3.885-5.95-7.42-5.385C529.659,343.711,527.245,347.033,527.807,350.572z"/>
					</g>
				</g>
				<path style="fill:#393333;" d="M546.657,265.264c-1.563-3.23-3.226-5.526-5.177-7.558c-0.705,1.613-1.683,3.103-2.932,4.367
					c-0.034,0.035-0.073,0.064-0.107,0.098c1.95,2.127,3.636,4.425,4.583,6.808c5.021,12.64,1.666,27.393-1.575,40.045
					c-3.622,14.151-8.674,28.272-9.832,42.921c-0.247,3.099,4.545,3.635,4.791,0.538c0.657-8.322,2.702-16.468,4.874-24.508
					c3.826-14.142,8.779-28.641,8.989-43.437C550.364,277.968,549.548,271.244,546.657,265.264z"/>
			</g>
			<g>
				<g>
					<g>
						<g>
							<path style="fill:#FFFFFF;" d="M413.582,360.992c3.544,3.986,6.697,4.443,8.846,4.017c4.904-0.963,9.161-7.018,12.312-17.516
								c1.906-6.35,3.482-16.429,4.634-23.79c0.561-3.596,1.142-7.315,1.388-7.896c-0.072,0.169-0.326,0.449-0.709,0.481
								l-0.12-2.193c-0.932,0.073-1.124,1.134-1.504,3.247c-0.265,1.49-0.592,3.579-0.969,5.995
								c-1.141,7.291-2.7,17.276-4.56,23.466c-2.862,9.539-6.695,15.236-10.792,16.045c-2.875,0.565-5.955-1.396-8.904-5.681
								l-1.54,1.358C412.313,359.466,412.955,360.285,413.582,360.992z"/>
							<path style="fill:#171111;" d="M408.425,353.601c-1.329,1.51-0.922,4.405,0.909,6.469c1.835,2.06,4.4,2.504,5.73,0.996
								c1.329-1.509,0.925-4.407-0.909-6.468C412.323,352.536,409.758,352.092,408.425,353.601z"/>
						</g>
						<g>
							<path style="fill:#FFFFFF;" d="M396.856,350.703c-4.998-0.501-7.33-2.927-8.417-5.05c-2.483-4.849-1.07-12.395,4.088-21.837
								c3.119-5.712,9.003-13.53,13.297-19.235c2.098-2.791,4.271-5.676,4.512-6.26c-0.07,0.173-0.099,0.572,0.125,0.922
								l1.576-1.302c0.549,0.849-0.055,1.692-1.255,3.376c-0.85,1.183-2.067,2.8-3.478,4.678
								c-4.255,5.653-10.083,13.397-13.123,18.965c-4.688,8.58-6.129,15.537-4.058,19.584c1.456,2.844,4.771,4.239,9.591,4.038
								l0.057,2.193C398.712,350.819,397.74,350.794,396.856,350.703z"/>
							<path style="fill:#171111;" d="M405.213,350.411c-0.179,2.114-2.421,3.619-5.004,3.358c-2.585-0.258-4.533-2.183-4.352-4.298
								c0.181-2.118,2.419-3.617,5.003-3.361C403.443,346.37,405.393,348.294,405.213,350.411z"/>
						</g>
						<g>
							<path style="fill:#393333;" d="M403.835,305.093c0.103,0.088,0.247,0.139,0.307,0.265c1.247,2.56,2.165,2.553,3.08,4.101
								c1.305-1.891,2.626-3.549,3.945-4.985c12.63-13.694,25.483-6.989,25.81,11.452c0.049,2.64-0.161,5.518-0.666,8.613
								c2.484,0.354,1.981,0.351,4.456,0.799c2.662-11.776,3.389-42.781-3.248-47.676
								C429.333,271.622,411.482,295.984,403.835,305.093z"/>
						</g>
						<g style="opacity:0.5;">
							<g>
								<path style="fill:#006695;" d="M411.167,304.474c12.63-13.694,25.483-6.989,25.81,11.452
									c1.417-10.565,2.141-31.285-1.72-34.133C429.768,277.737,412.572,301.576,411.167,304.474z"/>
							</g>
							<path style="fill:#FF9800;" d="M409.601,307.698c-0.081,0.06-0.149,0.153-0.205,0.265
								C408.439,310.017,408.782,309.368,409.601,307.698z"/>
						</g>
					</g>
				</g>
				<path style="fill:#393333;" d="M440.904,268.359c2.859-3.411,6.092-6.522,9.48-9.406c2.834-2.413,5.848-4.7,9.132-6.471
					c0.864-0.464,4.291-1.658,6.548-2.111c-0.43,1.237-1.831,3.058-2.116,4.341c-1.335,0.428-2.561,1.188-2.951,1.414
					c-3.069,1.746-5.891,3.95-8.575,6.232c-3.054,2.601-5.903,5.453-8.496,8.514c-2.234,2.636-4.319,5.486-5.626,8.706
					c-0.955,2.344-4.517,0.689-3.564-1.655C436.164,274.405,438.481,271.251,440.904,268.359z"/>
			</g>
			<g>
				<polygon style="fill:#473239;" points="443.937,165.36 443.178,163.471 473.502,149.03 474.262,150.92 				"/>
				<path style="fill:#2F191F;" d="M482.101,98.744c-8.031,17.289-17.465,39.69-17.879,60.307c0.581-8.11,7.916-17.183,12.53-23.692
					c6.81-9.604,17.435-22.308,26.667-27.676L482.101,98.744z"/>
				<path style="fill:#FFA471;" d="M579.694,167.297c-3.858,8.376-8.52,18.959-14.022,30.093c-0.158,0.337-0.329,0.674-0.495,1.01
					c-1.492,2.998-3.04,6.038-4.648,9.084c-20.768,39.224-51.575,79.143-93.489,50.805c-13.918-9.407-15.802-16.056-15.3-26.846
					c0.192-4.14,0.736-8.892,1.086-14.641c0.99-16.235-1.004-31.715,3.872-47.469c4.27-13.788,14.365-25.148,18.567-38.371
					c4.717-14.826,14.069-31.07,18.821-44.122l20.63-2.062c23.752-7.538,46.878,3.652,63.204,22.404
					C594.313,126.017,589.349,146.357,579.694,167.297z"/>
				<path style="fill:#1B0C11;" d="M565.768,197.54c-0.2,0.282-0.398,0.572-0.591,0.86c-1.857,2.771-3.314,5.873-4.648,9.084
					c-20.768,39.224-51.575,79.143-93.489,50.805c-13.918-9.407-15.802-16.056-15.3-26.846c4.578,2.252,8.355,2.77,11.564-7.775
					c0.864-2.839,5.944,0.972,9.169,2.293c0.536,24.474,35.428,24.626,50.501,15.419c8.974-5.481,15.349-14.304,21.015-22.755
					c4.586-6.829,13.389-25.409,13.293-33.923l8.389,12.688L565.768,197.54z"/>
				<g>
					<path style="fill:#EEEEEE;" d="M536.309,183.615c-2.455,2.936-6.237,4.339-10.17,4.518
						c-8.583,0.392-17.845-5.014-15.466-12.963c0,0,5.9-4.883,12.116-2.908c0.935,0.296,1.857,0.598,2.751,0.915
						C530.313,174.889,534.328,177.24,536.309,183.615z"/>
					<path style="fill:#20181A;" d="M525.54,173.177c-0.894-0.318-1.815-0.619-2.751-0.915c-3.377-1.073-6.658-0.121-8.952,0.971
						c-0.146,2.59-1.314,5.194-3.061,7.089c1.851,5.021,8.803,8.111,15.363,7.812c0.426-1.96,0.66-4.105,0.66-6.355
						C526.799,178.636,526.338,175.687,525.54,173.177z"/>
					<path style="fill:#E07F4F;" d="M523.709,168.596c-6.219-1.972-13.033,6.574-13.033,6.574
						c1.215,7.719,21.407,10.867,25.636,8.447C533.955,176.04,529.649,170.479,523.709,168.596z"/>
				</g>
				<g>
					<path style="fill:#EEEEEE;" d="M484.735,167.627c-2.001,2.936-5.083,4.339-8.289,4.518
						c-6.993,0.392-14.543-5.013-12.604-12.962c0,0,4.808-4.883,9.874-2.91c0.763,0.296,1.513,0.599,2.242,0.915
						C479.848,158.901,483.12,161.253,484.735,167.627z"/>
					<path style="fill:#20181A;" d="M475.958,157.189c-0.728-0.316-1.479-0.62-2.242-0.915c-2.751-1.072-5.425-0.121-7.296,0.972
						c-0.12,2.59-1.071,5.193-2.495,7.088c1.51,5.021,7.174,8.111,12.52,7.812c0.348-1.96,0.538-4.105,0.538-6.354
						C476.983,162.649,476.608,159.698,475.958,157.189z"/>
					<path style="fill:#E07F4F;" d="M474.466,152.607c-5.068-1.971-10.622,6.574-10.622,6.574
						c0.99,7.719,17.446,10.867,20.893,8.447C482.816,160.053,479.307,154.491,474.466,152.607z"/>
				</g>
				<path style="fill:#1B0C11;" d="M511.361,164.809c5.338,0.69,10.627,1.671,15.725,3.4c4.998,1.697,9.895,3.759,14.503,6.335
					c1.153-1.996,2.307-3.989,3.47-5.979c-4.95-4.33-19.308-11.508-24.394-12.358c-6.667-1.113-7.948,2.226-9.742,8.56
					C511.068,164.78,511.216,164.789,511.361,164.809z"/>
				<path style="fill:#1B0C11;" d="M484.561,157.79c-2.936-2.743-6.046-5.248-9.575-7.105c-3.46-1.82-7.122-3.318-10.997-4.274
					c0.819-2.12,1.637-4.24,2.447-6.361c5.223-0.086,16.727,3.501,19.653,5.977c3.837,3.247,2.167,6.4-1.297,12
					C484.716,157.946,484.641,157.864,484.561,157.79z"/>
				<g>
					<g>
						<path style="fill:#2F191F;" d="M475.366,112.737c0.019-0.026,0.035-0.053,0.055-0.079c-0.037,0.007-0.072,0.015-0.109,0.021
							C475.063,112.944,475.082,112.962,475.366,112.737z"/>
						<path style="fill:#2F191F;" d="M611.107,148.317c-2.647-1.801-5.9-2.441-9.284-1.987c6.367,14.413-8.273,33.73-18.12,43.701
							c-4.786,4.848-8.444,9.937-12.742,14.785c-3.397,3.837-3.198,3.617-8.94,4.105c-2.812,0.241-12.529-0.378-12.529-0.378
							c3.645-4.359,6.175-12.151,6.189-22.466c0.008-5.618-8.472-14.385-4.813-19.941c15.851-24.069,4.655-26.31-3.439-27.507
							c-11.519-1.705-54.415-12.756-64.641-17.879c-5.825-2.916-20.445-13.981-17.191-19.255c1.485-2.4,6.003-4.842,10.995-6.938
							c6.004-2.523,12.688-4.56,15.548-5.439c-3.115-3.432-7.385-5.632-9.765-9.641c9.043-3.446,23.353-3.885,32.617-1.451
							c-0.159-4.257-2.215-8.074-3.198-12.22c4.951,1.327,67.432-7.372,84.411,59.826c0.254,1.011,0.501,2.042,0.735,3.088
							c1.843-2.71,3.624-7.675,4.106-9.428c1.822,5.577,0.337,10.053,0.164,15.83c3.232-1.864,7.283-1.526,10.652-0.619
							c-3.83,0.317-8.397,2.393-10.727,5.364C606.988,139.66,609.787,143.064,611.107,148.317z"/>
					</g>
					<path style="fill:#1B0C11;" d="M611.107,148.317c-2.647-1.801-5.9-2.441-9.284-1.987c6.367,14.413-8.273,33.73-18.12,43.701
						c-4.786,4.848-8.444,9.937-12.742,14.785c-3.397,3.837-3.198,3.617-8.94,4.105c-2.812,0.241-12.529-0.378-12.529-0.378
						c2.407-6.994,6.175-12.151,6.189-22.466c0.008-5.618-8.472-14.385-4.813-19.941c15.851-24.069,4.655-26.31-3.439-27.507
						c-11.519-1.705-54.415-12.756-64.641-17.879c-5.825-2.916-20.445-13.981-17.191-19.255c1.485-2.4,6.003-4.842,10.995-6.938
						c1.039,2.765,2.552,5.364,4.477,7.626c6.402,7.55,15.83,10.528,25.1,13.327c8.052,2.428,16.146,3.769,24.412,4.545
						c6.636,0.626,13.293,1.438,19.255,4.552c5.934,3.101,12.028,7.393,14.537,14.021c2.6,6.884,1.149,13.609,0.722,20.588
						c6.766-2.021,8.967-15.026,9.565-20.898c3.294,2.675,4.436,8.039,4.807,11.959c2.255-0.791,3.913-5.24,4.477-7.489
						c5.075,4.298,1.692,16.118-0.275,20.987c8.046-7.618,9.689-19.227,11.209-29.274c0.454-2.978,0.977-5.879,1.328-8.871
						c0.254,1.011,0.501,2.042,0.735,3.088c1.843-2.71,3.624-7.675,4.106-9.428c1.822,5.577,0.337,10.053,0.164,15.83
						c3.232-1.864,7.283-1.526,10.652-0.619c-3.83,0.317-8.397,2.393-10.727,5.364C606.988,139.66,609.787,143.064,611.107,148.317z
						"/>
				</g>
				<path style="fill:#EE6E46;" d="M460.095,202.581l1.375,11.347c6.876,17.879,27.28,5.996,31.288,0.344
					C486.801,212.892,465.488,205.581,460.095,202.581z"/>
				<path style="fill:#1B0C11;" d="M479.694,202.81l-13.34-3.21c-2.276,0.554-24.002,3.298-16.011,6.889
					c2.644,1.187,47.379,18.085,52.64,21.66C507.663,231.329,499.98,212.208,479.694,202.81z"/>
				<path style="fill:#E07F4F;" d="M475.064,200.058c8.544-8.241,16.893-28.995,16.893-28.995
					c-4.005,5.593-7.893,11.236-12.401,16.402c-3.923,4.495-8.844,7.96-13.202,12.135c3.995,6.173,17.709,11.273,23.999,7.795
					C487.945,204.988,481.069,200.862,475.064,200.058z"/>
				<path style="fill:#473239;" d="M464.737,188.484c-12.039,0-21.833-9.795-21.833-21.833c0-12.038,9.794-21.834,21.833-21.834
					s21.833,9.795,21.833,21.834C486.57,178.689,476.776,188.484,464.737,188.484z M464.737,146.88
					c-10.902,0-19.771,8.869-19.771,19.771c0,10.902,8.869,19.77,19.771,19.77s19.77-8.868,19.77-19.77
					C484.507,155.749,475.639,146.88,464.737,146.88z"/>
				<path style="fill:#473239;" d="M518.374,207.395c-12.039,0-21.833-9.795-21.833-21.834c0-12.038,9.794-21.832,21.833-21.832
					c12.04,0,21.834,9.795,21.834,21.832C540.208,197.6,530.414,207.395,518.374,207.395z M518.374,165.791
					c-10.901,0-19.77,8.869-19.77,19.77c0,10.902,8.869,19.771,19.77,19.771c10.902,0,19.771-8.868,19.771-19.771
					C538.145,174.66,529.276,165.791,518.374,165.791z"/>
				<path style="fill:#473239;" d="M499.122,177.366c-3.784-5.676-10.108-5.701-14.745-4.721l-0.426-2.018
					c7.437-1.57,13.435,0.415,16.888,5.595L499.122,177.366z"/>
				<path style="fill:#473239;" d="M583.875,206.371l-1.973-0.015c0.003-0.546-0.026-13.408-8.952-14.092
					c-9.437-0.724-34.21-0.685-34.459-0.685l-0.003-2.063c0.25-0.001,25.098-0.038,34.607,0.69
					C581.709,190.867,583.914,201.068,583.875,206.371z"/>
				<g>
					<path style="fill:#FFA471;" d="M559.463,200.862c-1.812,2.043-5.554,9.408-5.554,9.408c-6.492,5.984-8.63,22.771,3.095,23.777
						c7.006,0.601,16.607-9.328,20.884-14.238C595.23,199.898,573.703,184.798,559.463,200.862z"/>
					<path style="fill:#E07F4F;" d="M559.255,209.74c4.813-1.278,6.891,3.795,4.334,7.626c-2.104,3.152-9.542-0.01-9.542-0.01
						c1.423,5.232,9.379,8.526,14.699,3.01c4.03-4.178,3.908-16.667-4.351-14.083c2.245-4.565,12.693-8.296,14.768-1.768
						C576.401,192.631,559.246,199.46,559.255,209.74z"/>
				</g>
			</g>
		</g>
		<g>
			<g>
				<path style="fill:#672D23;" d="M824.63,289.986c-8.664-12.353-21.028-17.244-34.446-23.556
					c-11.123-5.232-22.13-14.821-20.339-26.467l-9.028,21.339c-2.693,15.183-2.963,32.914,3.081,47.442
					c5.009,12.043,14.419,15.819,25.626,20.882c14.041,6.343,43.719,17.034,40.599,36.423c2.327-12.242,0.033-26.558,1.282-39.088
					C832.725,313.69,832.714,301.513,824.63,289.986z"/>
			</g>
			<g>
				<g>
					<g>
						<g>
							<path style="fill:#E07F4F;" d="M723.147,913.244c2.577-20.839,6.205-41.358,9.767-61.646
								c0.328-1.855,0.648-3.702,0.977-5.557c0.197-1.125,0.385-2.249,0.583-3.382c0.763-4.383,1.518-8.757,2.241-13.123
								c0-0.009,0-0.009,0-0.009c1.231-7.329,2.388-14.642,3.439-21.93c0.192-1.355,1.402-13.787,3.171-32.315h-88.32
								c8.25,100.064,21.003,248.276,26.663,303.957c0.886,8.79,1.609,15.266,2.101,18.893
								c6.204,45.625,14.847,86.457,14.256,99.753l21.339,9.029c0-21.34,0.821-37.755,0.821-37.755
								c1.601-18.918,4.522-29.293,8.749-48.054c5.86-26.067,11.269-53.882,7.928-88.747c-0.919-9.562-7.001-33.306-11.482-55.343
								c-3.07-15.126-5.401-29.44-4.802-37.811C721.209,930.495,722.088,921.844,723.147,913.244z"/>
						</g>
					</g>
					<path style="fill:#FFFFFF;" d="M719.902,1191.688l-13.37-1.208c-6.441-7.28-9.208,1.392-11.847,5.023
						c-3.133,4.31-9.326,7.566-13.933,10.118c-8.123,4.496-28.33,8.147-25.391,20.479c16.396,1.212,50.421,0.921,67.37-1.472
						c7.295-1.032,1.418-6.535-0.446-16.332C721.001,1201.558,721.497,1198.234,719.902,1191.688z"/>
				</g>
				<g>
					<g>
						<path style="fill:#FFA386;" d="M771.465,940.436c-0.601,8.368,1.726,22.688,4.803,37.811
							c4.482,22.038,10.556,45.782,11.478,55.339c3.345,34.872-2.065,62.687-7.931,88.751c-4.224,18.762-7.141,29.135-8.745,48.054
							c0,0-0.821,16.415-0.821,37.754l-21.339-9.028c0.594-13.299-8.05-54.13-14.26-99.749
							c-5.109-37.521-34.052-381.375-36.233-417.854c-0.026-0.388-0.043-0.776-0.071-1.159h104.945
							c-5.731,60.955-11.805,125.286-12.252,128.473c-1.048,7.289-2.212,14.598-3.442,21.932c0,0,0,0,0,0.005
							c-0.72,4.365-1.477,8.74-2.237,13.125c-0.2,1.13-0.389,2.255-0.588,3.384c-0.326,1.848-0.646,3.699-0.971,5.551
							c-3.562,20.293-7.188,40.812-9.766,61.65C772.974,923.076,772.091,931.727,771.465,940.436z"/>
					</g>
					<path style="fill:#FFFFFF;" d="M770.788,1192.92l-13.37-1.208c-6.441-7.28-9.207,1.392-11.846,5.023
						c-3.133,4.31-9.326,7.566-13.933,10.118c-8.122,4.496-28.33,8.147-25.391,20.479c16.396,1.212,50.422,0.921,67.37-1.472
						c7.295-1.032,1.418-6.535-0.447-16.332C771.887,1202.789,772.383,1199.465,770.788,1192.92z"/>
				</g>
				<g>
					<g>
						<path style="fill:#FFA471;" d="M643.13,786.363c-4.378-17.414-1.357-35.829-3.693-52.935l-16.004-20.928
							c-5.256,23.545-23.556,80.169-1.505,97.527c8.257,6.499,10.598,3.407,17.171-3.045
							C647.654,798.585,645.883,797.313,643.13,786.363z"/>
						<path style="fill:#FFFFFF;" d="M692.826,363.325c-8.621-0.01-28.371,19.318-33.693,43.871
							c-5.894,27.193-16.004,108.333-19.697,145.265c-5.547,55.472-14.747,56.647-19.697,118.182
							c-1.595,19.824-3.614,56.269-6.155,75.095l22.196,1.231c4.372-10.607,6.546-23.801,10.088-34.186
							c9.932-29.123,16.261-59.289,21.885-88.945c4.579-24.145,8.89-49.703,17.542-72.597c8.039-21.274,8.492-44.452,11.975-66.477
							c0.336-2.121,0.923-4.046,1.26-6.155L692.826,363.325z"/>
					</g>
					<path style="fill:#FFFFFF;" d="M743.172,621.731c-1.724,46.775-11.884,92.523-14.42,139.1
						c-0.837,15.536-1.691,30.901-2.364,46.413c-0.156,3.456,4.317,34.644,2.003,37.311c-3.628,4.186-74.318,1.748-98.596-2.257
						c-5.073-0.837-8.125-1.74-8.101-2.667c0.689-30.171,4.809-84.964,9.734-144.172c6.87-82.551,19.916-184.244,22.781-229.172
						c1.732-27.109,6.86-49.578,17.235-75.095c9.217-22.677,32.144-35.324,47.098-48.932l34.471,172.356
						C740.144,544.68,744.362,589.214,743.172,621.731z"/>
					<path style="fill:#00ABB6;" d="M804.837,687.089c-1.832-25.826-0.511-49.635-0.823-75.317l-138.722,4.706
						C652.191,704.515,640,820.894,645.594,911.931c29.545,7.387,52.355,7.465,81.248,8.616c20.13,0.8,79.019,4.016,86.906-13.616
						C818.817,895.601,807.162,719.884,804.837,687.089z"/>
					<path style="fill:#00B5C7;" d="M771.07,312.713l-46.688,15.7c-40.123,48.524-47.518,84.06-51.254,123.826
						c-4.384,46.672-16.962,221.601-16.962,221.601s63.292,9.931,77.15,11.49c39.396-1.642,52.974,5.366,65.66-36.113
						c29.714-97.156-24.749-245.479,12.477-297.147C799.813,345.532,768.04,326.887,771.07,312.713z"/>
					<g>
						<path style="fill:#FFA471;" d="M763.349,292.272c-3.951-14.542-9.931-28.951-6.434-44.123l-38.113,36.38
							c0.44,1.527,0.834,3.039,1.194,4.489c2.521,10.143,7.363,21.026,4.375,31.057c-8.564,28.751-25.526,80.184-24.98,94.411
							c0.16,4.173,64.515-76.945,68.012-78.774c3.807-1.995,7.592-4.077,11.291-6.29
							C773.268,317.254,766.938,305.46,763.349,292.272z"/>
						<path style="fill:#E07F4F;" d="M746.175,276.933c-4.191,5.149-9.758,9.535-14.615,14.077c-1.64,1.534-5.46,2.992-10.011,4.842
							c1.651,7.974,2.722,16.092,2.822,24.223c0.023,1.848-1.941,6.119-1.998,7.959c5.406-6.467,12.171-15.865,16.32-23.101
							c6.416-11.187,15.017-27.557,15.797-40.682C751.427,268.046,749.364,273.017,746.175,276.933z"/>
						<path style="fill:#FFA471;" d="M765.634,194.004c-9.455-15.641-27.417-25.566-45.865-23.083l-27.558,5.599
							c0.15,3.925-5.675,9.385-8.147,14.018c-3.154,5.909-6.49,13.394-7.078,20.562c-1.383,16.876-6.09,19.273-7.533,32.638
							c-1.419,13.139,7.392,58.716,12.43,61.405c3.419,1.825,13.331,2.778,17.781,3.056c12.079,0.753,16.956-3.389,27.905-7.387
							c13.473-4.919,23.631-17.553,29.7-29.656C770.138,245.499,782.104,221.248,765.634,194.004z"/>
						<path style="fill:#8F4534;" d="M807.425,225.413c-3.019,19.092-13.557,32.658-22.533,46.276
							c-0.753,1.137-1.488,2.271-2.213,3.413c-7.269,11.486-12.91,23.339-11.522,38.882c-4.71-6.846-10.211-21.173-12.278-29.402
							c-2.441-9.725,9.994-28.587,10.664-38.783c-6.654,2.445-10.312,1.42-14.532-10.325c-2.687-7.479,0.604-16.116-8.84-26.244
							c-9.515-10.204-23.557,20.364-45.853-19.248c-0.136-3.321-0.132-6.392,0.003-9.226c1.216-25.441,12.803-31.995,24.05-34.4
							c11.671-2.494,36.529-6.717,66.709,18.146c12.373,10.199,14.726,24.923,16.598,40.392
							C808.593,212.443,808.407,219.221,807.425,225.413z"/>
						<path style="fill:#8F4534;" d="M705.419,150.651c-10.489,0.835-19.474,4.352-25.702,11.757
							c-5.35,6.361-7.01,12.904-6.827,20.824c0.13,5.677,2.244,12.094,5.667,19.684c2.021-3.587,3.356-8.951,6.214-11.898
							c4.471-4.61,10.635-7.452,15.549-1.033c7.646-11.686,25.74-6.382,39.57,2.692l-5.991-33.172
							C724.931,153.906,716.577,149.764,705.419,150.651z"/>
						<path style="fill:#672D23;" d="M807.425,225.413c-3.019,19.092-13.557,32.658-22.533,46.276
							c-1.156,0.863-1.935,1.975-2.213,3.413c-7.269,11.486-12.91,23.339-11.522,38.882c-4.71-6.846-13.219-23.841-13.886-42.827
							c-0.352-10.021,11.602-15.162,12.272-25.358c-6.654,2.445-10.312,1.42-14.532-10.325c-2.687-7.479,0.604-16.116-8.84-26.244
							c-9.515-10.204-23.557,20.364-45.853-19.248c-0.136-3.321-8.241-10.628-8.106-13.462c7.038-1.497,23.097,3.851,29.648,2.872
							c-1.977-4.393-7.239-7.489-11.833-8.218c2.957-4.303,14.28-4.54,19.185-4.795c6.931-0.36,13.64,0.742,20.529,1.221
							c-1.005-5.264-7.419-7.138-10.052-11.301c5.366-3.149,19.471,0.311,25.289,2.226
							C773.335,161.281,811.011,179.885,807.425,225.413z"/>
						<g>
							<path style="fill:#FFA471;" d="M780.91,256.727c-5.121,10.534-13.824,16.861-19.439,14.131
								c-5.614-2.73-6.013-13.483-0.892-24.016c5.122-10.534,13.825-16.861,19.439-14.131
								C785.632,235.44,786.032,246.193,780.91,256.727z"/>
							<path style="fill:#E07F4F;" d="M779.83,249.393c5.833-11.307-9.266-16.947-14.789-4.744
								c8.351-1.751,2.568,13.276-4.481,12.371l-1.195-0.582c1.811,15.313,25.206-6.871,12.877-13.787
								C776.555,241.476,780.227,244.756,779.83,249.393z"/>
						</g>
						<g>
							<path style="fill:#E07F4F;" d="M725.687,228.972c-13.006-9.616-15.31,13.214-15.31,13.214
								c3.742,2.793,17.909,5.525,22.45,2.033C731.388,237.413,731.318,233.137,725.687,228.972z"/>
							<path style="fill:#FFFFFF;" d="M732.827,244.219c-1.212,0.933-3.101,1.417-5.299,1.585c-0.556,0.041-1.135,0.06-1.723,0.058
								c-4.637,0.016-10.107-1.149-13.394-2.566c-0.659-0.281-1.235-0.575-1.695-0.872c-0.118-0.08-0.235-0.16-0.339-0.238
								c0,0,0.045-0.775,0.275-1.922c0.155-0.772,0.659-1.967,1.472-3.209c2.719-4.169,8.826-8.834,16.276,0.288
								C729.831,239.089,731.315,241.348,732.827,244.219z"/>
							<path style="fill:#322927;" d="M728.4,237.343c-0.495,3.224-1.414,6.141-2.595,8.519c-4.637,0.016-10.107-1.149-13.394-2.566
								c-0.31-1.897-0.412-4.011-0.287-6.241C714.842,232.886,720.949,228.221,728.4,237.343z"/>
							<path style="fill:#FFFFFF;" d="M724.54,240.767c-0.185,1.389-0.898,2.44-1.593,2.348c-0.694-0.092-1.108-1.294-0.923-2.683
								c0.185-1.39,0.899-2.44,1.593-2.348C724.313,238.177,724.726,239.378,724.54,240.767z"/>
						</g>
						<g>
							<path style="fill:#E07F4F;" d="M682.742,221.542c-10.372-9.266-12.813,13.546-12.813,13.546
								c2.984,2.692,14.473,5.067,18.263,1.474C687.185,229.815,687.234,225.553,682.742,221.542z"/>
							<path style="fill:#FFFFFF;" d="M688.192,236.562c-1.013,0.959-2.564,1.489-4.363,1.71c-0.455,0.055-0.927,0.088-1.406,0.1
								c-3.782,0.13-8.216-0.896-10.861-2.229c-0.532-0.263-0.994-0.542-1.362-0.828c-0.094-0.076-0.188-0.153-0.271-0.228
								c0,0,0.056-0.773,0.272-1.922c0.144-0.775,0.586-1.977,1.279-3.235c2.32-4.223,7.416-9.022,13.269-0.113
								C685.874,231.523,687.029,233.738,688.192,236.562z"/>
							<path style="fill:#322927;" d="M684.749,229.819c-0.482,3.225-1.304,6.156-2.326,8.554c-3.782,0.13-8.216-0.896-10.861-2.229
								c-0.206-1.883-0.238-3.987-0.082-6.212C673.8,225.709,678.896,220.91,684.749,229.819z"/>
							<path style="fill:#FFFFFF;" d="M681.517,233.326c-0.185,1.389-0.792,2.454-1.358,2.379c-0.563-0.075-0.87-1.262-0.685-2.652
								c0.185-1.389,0.793-2.455,1.356-2.38C681.395,230.749,681.702,231.937,681.517,233.326z"/>
						</g>
						<path style="fill:#55241C;" d="M737.502,225.986c-7.046-4.436-15.389-8.742-23.174-4.262c-9.862,5.675,4.041,4.017,7.826,4.07
							c5.465,0.076,10.427,1.231,15.544,2.506L737.502,225.986z"/>
						<path style="fill:#55241C;" d="M669.607,212.411c6.297-1.896,13.394-3.267,16.795,3.302c4.308,8.321-4.171,2.447-6.669,1.314
							c-3.609-1.635-7.297-2.119-11.131-2.54L669.607,212.411z"/>
						<path style="fill:#E07F4F;" d="M697.03,236.484c-5.145,6.771-12.762,17.092-19.186,22.87
							c3.148,3.068,10.876,4.633,15.104,4.868c-2.22-2.075-6.924-3.525-8.817-6.189C691.937,248.661,697.03,236.484,697.03,236.484z
							"/>
						<path style="fill:#FF2420;" d="M678.641,274.308c0,0,0.429,0.043,1.139,0.183c0.706,0.136,1.684,0.387,2.788,0.675
							c0.55,0.155,1.138,0.296,1.742,0.456c0.307,0.064,0.609,0.153,0.922,0.229c0.32,0.058,0.634,0.141,0.955,0.214
							c0.651,0.127,1.304,0.282,1.988,0.391c0.669,0.144,1.375,0.23,2.068,0.361c1.433,0.217,2.866,0.435,4.209,0.638
							c0.694,0.115,1.364,0.227,1.999,0.333c0.647,0.126,1.26,0.245,1.826,0.355c0.571,0.119,1.098,0.262,1.57,0.372
							c0.472,0.117,0.887,0.231,1.23,0.339c0.689,0.217,1.091,0.383,1.091,0.383s-0.367,0.223-1.023,0.536
							c-0.328,0.156-0.729,0.329-1.194,0.512c-0.463,0.187-0.996,0.343-1.578,0.515c-0.583,0.166-1.218,0.328-1.903,0.441
							c-0.682,0.116-1.402,0.24-2.162,0.279c-0.756,0.061-1.542,0.092-2.349,0.054c-0.802-0.01-1.627-0.121-2.445-0.23
							c-0.82-0.154-1.639-0.309-2.43-0.573c-0.397-0.122-0.788-0.244-1.164-0.409c-0.378-0.157-0.755-0.295-1.107-0.481
							c-0.353-0.185-0.703-0.354-1.032-0.546c-0.322-0.206-0.64-0.395-0.936-0.601c-0.587-0.418-1.12-0.836-1.57-1.26
							c-0.914-0.836-1.553-1.633-1.988-2.212C678.861,274.679,678.641,274.308,678.641,274.308z"/>
					</g>
					<path style="fill:#FFFFFF;" d="M831.484,832.572c1.346,4.12-12.179,6.878-32.247,8.487
						c-45.37,3.652-124.17,1.485-140.101-3.857c-1.322-63.255,2.281-122.603,8.872-177.059
						c22.333-184.356,78.988-312.638,95.313-346.649c2.848-5.926,4.465-8.987,4.465-8.987c0.115,0.246,0.238,0.501,0.369,0.763
						c2.355,4.579,13.994,13.452,22.612,16.472c18.606,6.517,30.794,9.381,40.216,13.953
						c38.985,18.894,0.443,170.362-14.273,218.047c-0.853,2.766-1.608,5.95-2.265,9.512
						C803.161,624.12,819.075,794.679,831.484,832.572z"/>
					<g>
						<path style="fill:#F5E9E7;" d="M761.549,354.571c6.065,7.206,12.492,15.759,19.042,22.16
							c-49.27,42.605-103.274,250.992-112.582,283.411c22.333-184.356,95.401-360.561,95.401-360.561s24.6,18.417,27.358,22.16
							C784.875,332.066,770.315,347.709,761.549,354.571z"/>
					</g>
					<path style="fill:#F5E9E7;" d="M687.353,361.958c2.638,1.9,6.19,2.928,9.302,4.925c-5.016,5.909-15.868,11.491-15.868,11.491
						s-21.339,102.867-19.19,215.948c0.146,7.673-4.346,58.166-4.338,65.841c14.062-88.68,16.079-223.417,53.886-306.849
						c3.85-8.496,8.764-16.251,13.224-33.238C724.37,320.075,697.604,344.587,687.353,361.958z"/>
					<g>
						<path style="fill:#FFA471;" d="M805.628,685.416l-18.466-8.618c-8.397,29.588-30.706,55.756-29.363,87.215
							c8.282-1.65,19.675,1.422,28.133-1.04c8.024-2.336,11.009-10.568,14.43-19.701c3.744-9.995,1.546-17.874,1.573-28.31
							C801.962,704.574,805.104,695.209,805.628,685.416z"/>
						<path style="fill:#FFFFFF;" d="M850.766,378.373c-2.395-25.045-19.765-62.083-45.64-30.861
							c-17.532,21.154-6.474,131.493-3.192,213.567c1.039,25.977-1.341,46.435-9.848,71.401
							c-1.577,4.628-25.004,54.399-27.082,62.785c11.15,2.907,29.965,10.059,41.158,12.799c13.064-27.398,38.45-73.39,46.247-96.511
							c10.462-31.029,4.841-47.403,6.48-80.521C861.706,474.125,856.18,434.985,850.766,378.373z"/>
					</g>
					<path style="fill:#F5E9E7;" d="M775.091,726.659c-14.457,1.047-30.885,1.076-45.287-4.293
						c2.698,26.39,16.199,59.017,39.624,60.293c24.221,1.32,33.979-34.389,37.928-60.029
						C796.637,724.35,785.883,725.877,775.091,726.659z"/>
					<path style="fill:#F5E9E7;" d="M808.523,583.179c7.591,0.655,13.99-2.125,21.291-2.344c-5.8-4.834-12.157-6.445-19.075-7.632
						c-1.6-27.85-2.084-158.701-6.337-167.417c-0.048,39.917-0.437,81.33-2.438,121.717c-1.003,20.239-1.828,41.202-4.985,60.659
						c-2.561,15.778-18.433,73.863-18.433,73.863c6.829-9.304,25.84-56.512,29.76-68.724c5.256-1.048,10.789,0.251,15.662,0.771
						C820.119,589.201,813.376,587.508,808.523,583.179z"/>
					<g>
						<path style="fill:#F5E9E7;" d="M656.671,504.45c-0.45,3.781-6.431,89.672-7.112,93.562
							c-6.492,37.098-18.072,185.16-19.763,244.286c-5.073-0.837-8.125-1.74-8.101-2.667c0.689-30.171,4.809-84.964,9.734-144.172
							C636.697,659.88,650.516,556.154,656.671,504.45z"/>
						<path style="fill:#F5E9E7;" d="M652.129,586.531c0.212-0.634,0.421-1.272,0.638-1.901
							C652.54,585.251,652.33,585.887,652.129,586.531z"/>
					</g>
				</g>
			</g>
		</g>
	</g>
</g>
</svg>
