<?xml version="1.0" encoding="utf-8"?>
<!-- Generator: Adobe Illustrator 27.5.0, SVG Export Plug-In . SVG Version: 6.00 Build 0)  -->
<svg version="1.1" xmlns="http://www.w3.org/2000/svg" xmlns:xlink="http://www.w3.org/1999/xlink" x="0px" y="0px"
	 viewBox="0 0 750 500" style="enable-background:new 0 0 750 500;" xml:space="preserve">
<g id="Background_Complete">
	<g>
		<g>
			<g>
				<polygon style="fill:#E0E0E0;" points="483.601,33.234 483.601,168.918 288.723,168.918 281.702,34.183 				"/>
			</g>
		</g>
		<g>
			<g>
				
					<rect x="311.917" y="3.969" transform="matrix(6.123234e-17 -1 1 6.123234e-17 277.7334 480.5483)" style="fill:#FFFFFF;" width="134.449" height="194.878"/>
			</g>
			<g>
				<path style="fill:#E0E0E0;" d="M477.504,169.556H280.778V33.259h196.727V169.556z M282.627,167.707h193.029v-132.6H282.627
					V167.707z"/>
			</g>
		</g>
		<g>
			<g>
				<g>
					<rect x="302.809" y="50.887" style="fill:#FFFFFF;" width="152.664" height="101.04"/>
				</g>
			</g>
			<g>
				<g>
					<g>
						<path style="fill:#E0E0E0;" d="M455.473,50.887c0,0-0.263,0.017-0.753,0.026c-0.517,0.006-1.235,0.015-2.171,0.026
							c-1.934,0.012-4.742,0.03-8.384,0.053c-7.333,0.028-17.995,0.068-31.46,0.119c-26.922,0.053-65.029,0.129-109.896,0.217
							l0.441-0.441c0.012,30.871,0.026,65.076,0.04,101.028v0.012l-0.481-0.481c57.589,0.037,110.685,0.071,152.664,0.098
							l-0.383,0.383c0.084-30.748,0.154-55.959,0.202-73.515c0.042-8.775,0.075-15.63,0.098-20.329
							c0.019-2.322,0.033-4.104,0.043-5.342C455.446,51.53,455.473,50.887,455.473,50.887s0.027,0.588,0.041,1.773
							c0.01,1.221,0.024,2.98,0.043,5.27c0.022,4.679,0.055,11.505,0.098,20.243c0.048,17.613,0.117,42.906,0.202,73.754
							l0.001,0.384l-0.385,0c-41.979,0.027-95.075,0.061-152.664,0.098l-0.482,0v-0.482v-0.012
							c0.014-35.952,0.028-70.157,0.04-101.028l0-0.443l0.442,0.001c44.986,0.089,83.193,0.164,110.186,0.217
							c13.422,0.051,24.051,0.091,31.36,0.119c3.603,0.023,6.382,0.041,8.296,0.053c0.914,0.011,1.616,0.02,2.121,0.026
							C455.245,50.87,455.473,50.887,455.473,50.887z"/>
					</g>
				</g>
			</g>
		</g>
		<g>
			<g>
				<g>
					<path style="fill:#E0E0E0;" d="M281.702,33.806c0.082-0.105,1.356,0.731,3.351,2.17c1.993,1.44,4.708,3.481,7.64,5.827
						c2.931,2.347,5.51,4.566,7.325,6.228c1.816,1.663,2.877,2.758,2.791,2.856c-0.181,0.204-4.866-3.66-10.718-8.333
						C286.234,37.887,281.53,34.026,281.702,33.806z"/>
				</g>
			</g>
		</g>
		<g>
			<g>
				<g>
					<path style="fill:#E0E0E0;" d="M476.58,34.183c0.165,0.208-4.427,4.117-10.254,8.729c-5.83,4.614-10.688,8.183-10.853,7.975
						c-0.165-0.208,4.425-4.116,10.255-8.73C471.556,37.545,476.415,33.975,476.58,34.183z"/>
				</g>
			</g>
		</g>
		<g>
			<g>
				<g>
					<path style="fill:#FFFFFF;" d="M476.425,168.651c-7.243-5.87-14.485-11.74-21.728-17.611"/>
				</g>
			</g>
			<g>
				<g>
					<g>
						<path style="fill:#E0E0E0;" d="M454.697,151.04c0.167-0.207,5.167,3.568,11.167,8.431c6.001,4.864,10.729,8.973,10.561,9.18
							c-0.167,0.207-5.166-3.568-11.168-8.432C459.259,155.357,454.53,151.247,454.697,151.04z"/>
					</g>
				</g>
			</g>
		</g>
		<g>
			<g>
				<g>
					<path style="fill:#E0E0E0;" d="M281.702,168.632c-0.165-0.209,4.378-4.077,10.146-8.638c5.77-4.564,10.58-8.093,10.745-7.884
						c0.165,0.208-4.377,4.076-10.147,8.639C286.678,165.31,281.867,168.84,281.702,168.632z"/>
				</g>
			</g>
		</g>
		<g>
			<g>
				
					<rect x="364.919" y="51.254" transform="matrix(6.123234e-17 -1 1 6.123234e-17 282.5519 481.1185)" style="fill:#E0E0E0;" width="33.832" height="96.059"/>
			</g>
		</g>
	</g>
	<g>
		<g>
			<g>
				<g>
					<rect x="565.678" y="200.154" style="fill:#E0E0E0;" width="131.617" height="248.798"/>
				</g>
			</g>
			<g>
				<g>
					<rect x="526.618" y="200.154" style="fill:#F5F5F5;" width="131.617" height="248.798"/>
				</g>
			</g>
			<g>
				<g>
					<g>
						<path style="fill:#E0E0E0;" d="M648.546,251.365H535.572v-39.438h112.974V251.365z M536.96,249.977h110.198v-36.662H536.96
							V249.977z"/>
					</g>
				</g>
				<g>
					<g>
						<path style="fill:#EBEBEB;" d="M609.313,220.48h-32.978c-2.733,0-4.948-2.215-4.948-4.948v-2.911h42.874v2.911
							C614.261,218.264,612.046,220.48,609.313,220.48z"/>
					</g>
				</g>
			</g>
			<g>
				<g>
					<g>
						<path style="fill:#E0E0E0;" d="M648.546,301.462H535.572v-39.438h112.974V301.462z M536.96,300.074h110.198v-36.662H536.96
							V300.074z"/>
					</g>
				</g>
				<g>
					<g>
						<path style="fill:#EBEBEB;" d="M609.313,270.577h-32.977c-2.733,0-4.948-2.215-4.948-4.948v-2.911h42.874v2.911
							C614.261,268.361,612.046,270.577,609.313,270.577z"/>
					</g>
				</g>
			</g>
			<g>
				<g>
					<g>
						<path style="fill:#E0E0E0;" d="M648.546,351.56H535.572v-39.438h112.974V351.56z M536.96,350.172h110.198v-36.662H536.96
							V350.172z"/>
					</g>
				</g>
				<g>
					<g>
						<path style="fill:#EBEBEB;" d="M609.313,320.673h-32.978c-2.733,0-4.948-2.215-4.948-4.948v-2.911h42.874v2.91
							C614.261,318.458,612.046,320.673,609.313,320.673z"/>
					</g>
				</g>
			</g>
			<g>
				<g>
					<g>
						<path style="fill:#E0E0E0;" d="M648.546,401.656H535.572v-39.438h112.974V401.656z M536.96,400.268h110.198v-36.662H536.96
							V400.268z"/>
					</g>
				</g>
				<g>
					<g>
						<path style="fill:#EBEBEB;" d="M609.313,370.771h-32.977c-2.733,0-4.948-2.215-4.948-4.948v-2.911h42.874v2.911
							C614.261,368.555,612.046,370.771,609.313,370.771z"/>
					</g>
				</g>
			</g>
			<g>
				<g>
					<rect x="520.78" y="190.842" style="fill:#EBEBEB;" width="142.96" height="12.393"/>
				</g>
			</g>
			<g>
				<g>
					<rect x="663.74" y="190.842" style="fill:#E0E0E0;" width="42.99" height="12.393"/>
				</g>
			</g>
			<g>
				<g>
					<rect x="526.618" y="448.952" style="fill:#E0E0E0;" width="6.916" height="12.709"/>
				</g>
			</g>
			<g>
				<g>
					<rect x="569.354" y="448.952" style="fill:#E0E0E0;" width="6.916" height="12.709"/>
				</g>
			</g>
			<g>
				<g>
					<rect x="647.416" y="448.952" style="fill:#E0E0E0;" width="6.916" height="12.709"/>
				</g>
			</g>
			<g>
				<g>
					<rect x="686.447" y="448.952" style="fill:#E0E0E0;" width="6.916" height="12.709"/>
				</g>
			</g>
		</g>
		<g>
			<g>
				<polygon style="fill:#E0E0E0;" points="648.478,157.756 661.801,191.839 653.519,191.801 646.881,170.856 				"/>
			</g>
			<g>
				<g>
					<g>
						<polygon style="fill:#EBEBEB;" points="602.983,126.264 598.404,191.569 645.684,192.556 651.004,126.264 						"/>
					</g>
					<g>
						<polygon style="fill:#FAFAFA;" points="607.714,131.523 603.901,185.88 639.049,187.527 643.96,131.201 						"/>
					</g>
				</g>
				<g>
					<polygon style="fill:#E0E0E0;" points="615.427,139.21 612.575,177.418 631.964,177.418 635.385,139.21 					"/>
				</g>
			</g>
		</g>
	</g>
	<g>
		<g>
			<g>
				<g>
					<g>
						<g>
							<g>
								<g>
									<g>
										<rect x="64.863" y="311.453" style="fill:#F5F5F5;" width="200.939" height="92.671"/>
									</g>
								</g>
							</g>
						</g>
					</g>
				</g>
				<g>
					<g>
						<g>
							<g>
								<g>
									<g>
										<path style="fill:#E0E0E0;" d="M261.019,399.756H69.462v-83.427h191.557V399.756z M70.712,398.506h189.057v-80.927H70.712
											V398.506z"/>
									</g>
								</g>
							</g>
						</g>
					</g>
				</g>
				<g>
					<g>
						<g>
							<g>
								<g>
									<g>
										<rect x="265.802" y="311.453" style="fill:#E0E0E0;" width="49.089" height="92.671"/>
									</g>
								</g>
							</g>
						</g>
					</g>
				</g>
				<g>
					<g>
						<g>
							<g>
								<g>
									<g>
										<g>
											<path style="fill:#E0E0E0;" d="M70.087,342.147c21.527,0,43.053,0,64.579,0c34.011,0,68.022,0,102.033,0
												c7.898,0,15.797,0,23.695,0c0.325,0,0.325-0.504,0-0.504c-21.526,0-43.053,0-64.579,0c-34.011,0-68.022,0-102.032,0
												c-7.898,0-15.797,0-23.695,0C69.762,341.643,69.762,342.147,70.087,342.147L70.087,342.147z"/>
										</g>
									</g>
								</g>
							</g>
						</g>
					</g>
				</g>
				<g>
					<g>
						<g>
							<g>
								<g>
									<g>
										<g>
											<path style="fill:#E0E0E0;" d="M165.862,341.895c0.57-8.226,0.509-16.939,0.065-25.173c-0.018-0.329-0.495-0.33-0.513,0
												c-0.444,8.234-0.505,16.946,0.065,25.173C165.497,342.141,165.845,342.141,165.862,341.895L165.862,341.895z"/>
										</g>
									</g>
								</g>
							</g>
						</g>
					</g>
				</g>
				<g>
					<g>
						<g>
							<g>
								<g>
									<g>
										<path style="fill:#E0E0E0;" d="M217.086,329.309c0,1.432-1.161,2.593-2.593,2.593c-1.432,0-2.593-1.161-2.593-2.593
											c0-1.432,1.16-2.592,2.593-2.592C215.925,326.716,217.086,327.877,217.086,329.309z"/>
									</g>
								</g>
							</g>
						</g>
					</g>
				</g>
				<g>
					<g>
						<g>
							<g>
								<g>
									<g>
										<path style="fill:#E0E0E0;" d="M117.212,329.309c0,1.432-1.161,2.593-2.592,2.593c-1.432,0-2.593-1.161-2.593-2.593
											c0-1.432,1.161-2.592,2.593-2.592C116.051,326.716,117.212,327.877,117.212,329.309z"/>
									</g>
								</g>
							</g>
						</g>
					</g>
				</g>
				<g>
					<g>
						<g>
							<g>
								<g>
									<g>
										<circle style="fill:#E0E0E0;" cx="165.24" cy="358.042" r="2.593"/>
									</g>
								</g>
							</g>
						</g>
					</g>
				</g>
				<g>
					<g>
						<g>
							<g>
								<g>
									<g>
										<polygon style="fill:#E0E0E0;" points="88.887,404.123 78.541,462.304 84.36,462.304 103.435,404.123 										"/>
									</g>
								</g>
							</g>
						</g>
					</g>
				</g>
				<g>
					<g>
						<g>
							<g>
								<g>
									<g>
										<polygon style="fill:#E0E0E0;" points="251.585,404.123 260.237,462.405 254.417,462.405 237.037,404.123 										"/>
									</g>
								</g>
							</g>
						</g>
					</g>
				</g>
				<g>
					<g>
						<g>
							<g>
								<g>
									<g>
										<polygon style="fill:#E0E0E0;" points="290.43,404.123 300.232,462.405 294.413,462.405 275.882,404.123 										"/>
									</g>
								</g>
							</g>
						</g>
					</g>
				</g>
				<g>
					<g>
						<g>
							<g>
								<g>
									<g>
										<path style="fill:#E0E0E0;" d="M167.659,384.269c0,1.432-1.161,2.592-2.592,2.592c-1.432,0-2.593-1.161-2.593-2.592
											c0-1.432,1.161-2.593,2.593-2.593C166.498,381.677,167.659,382.837,167.659,384.269z"/>
									</g>
								</g>
							</g>
						</g>
					</g>
				</g>
				<g>
					<g>
						<g>
							<g>
								<g>
									<g>
										<g>
											<path style="fill:#E0E0E0;" d="M70.087,370.844c21.527,0,43.053,0,64.579,0c34.011,0,68.022,0,102.033,0
												c7.898,0,15.797,0,23.695,0c0.325,0,0.325-0.504,0-0.504c-21.526,0-43.053,0-64.579,0c-34.011,0-68.022,0-102.032,0
												c-7.898,0-15.797,0-23.695,0C69.762,370.34,69.762,370.844,70.087,370.844L70.087,370.844z"/>
										</g>
									</g>
								</g>
							</g>
						</g>
					</g>
				</g>
			</g>
		</g>
	</g>
	<g>
		<g>
			<g>
				<path style="fill:#E0E0E0;" d="M225.671,311.414c0,0-0.169-0.023-0.491-0.094c-0.324-0.064-0.806-0.16-1.445-0.239
					c-1.276-0.179-3.176-0.238-5.626-0.205c-1.225,0.005-2.592,0.016-4.086-0.111c-1.488-0.132-3.123-0.396-4.753-1.081
					c-1.626-0.669-3.212-1.88-4.237-3.627c-0.507-0.87-0.865-1.878-0.921-2.956c-0.064-1.066,0.211-2.221,0.899-3.133
					c0.665-0.919,1.643-1.643,2.784-1.996c1.129-0.349,2.509-0.237,3.511,0.574c1.008,0.783,1.562,2.049,1.663,3.328
					c0.109,1.294-0.29,2.621-1,3.732c-0.705,1.124-1.677,2.074-2.76,2.878c-1.079,0.816-2.296,1.475-3.584,1.996
					c-2.579,1.047-5.504,1.445-8.421,1.097c-2.908-0.341-5.848-1.453-8.225-3.432c-2.383-1.954-4.233-4.637-5.27-7.662
					c-1.043-3.018-1.243-6.418-0.337-9.615c0.464-1.589,1.204-3.126,2.273-4.441c1.063-1.306,2.475-2.4,4.13-2.926
					c1.641-0.529,3.438-0.56,5.067-0.014c1.63,0.529,3.044,1.753,3.715,3.322c0.702,1.556,0.743,3.319,0.343,4.913
					c-0.383,1.606-1.231,3.08-2.398,4.216c-2.378,2.262-5.652,3.106-8.691,3.185c-3.079,0.072-6.067-0.567-8.79-1.622
					c-5.475-2.134-9.812-5.892-13.049-9.906c-3.278-4.03-5.394-8.452-6.853-12.586c-1.457-4.152-2.281-8.055-2.87-11.488
					c-0.568-3.44-0.889-6.426-1.126-8.866c-0.234-2.441-0.371-4.339-0.466-5.626c-0.041-0.627-0.072-1.113-0.095-1.465
					c-0.019-0.33-0.015-0.501-0.015-0.501s0.032,0.167,0.068,0.496c0.035,0.35,0.084,0.836,0.147,1.46
					c0.131,1.307,0.32,3.194,0.563,5.614c0.267,2.434,0.617,5.412,1.211,8.837c0.614,3.418,1.46,7.298,2.93,11.414
					c1.473,4.101,3.586,8.463,6.842,12.438c3.214,3.959,7.507,7.649,12.885,9.729c2.672,1.029,5.61,1.648,8.605,1.573
					c2.961-0.081,6.107-0.913,8.352-3.057c1.088-1.062,1.892-2.455,2.25-3.97c0.377-1.503,0.33-3.152-0.316-4.578
					c-0.618-1.437-1.898-2.549-3.41-3.042c-1.509-0.506-3.202-0.48-4.74,0.017c-1.545,0.49-2.874,1.516-3.887,2.76
					c-1.017,1.25-1.732,2.725-2.179,4.257c-0.875,3.081-0.688,6.374,0.322,9.305c1.003,2.938,2.797,5.546,5.102,7.443
					c2.297,1.919,5.139,3.002,7.967,3.341c2.834,0.346,5.684-0.035,8.194-1.046c2.486-1.009,4.776-2.566,6.148-4.678
					c0.676-1.055,1.045-2.274,0.95-3.471c-0.089-1.187-0.598-2.342-1.495-3.043c-0.888-0.724-2.107-0.834-3.153-0.521
					c-1.053,0.319-1.976,0.992-2.596,1.843c-0.643,0.847-0.897,1.89-0.847,2.9c0.046,1.012,0.377,1.971,0.857,2.806
					c0.973,1.682,2.488,2.861,4.065,3.525c1.582,0.68,3.188,0.956,4.661,1.101c1.478,0.141,2.839,0.146,4.064,0.156
					c2.45-0.003,4.363,0.09,5.641,0.304C225.03,311.174,225.671,311.414,225.671,311.414z"/>
			</g>
		</g>
		<g>
			<g>
				<polygon style="fill:#F5F5F5;" points="129.734,247.544 113.854,311.52 120.286,311.52 136.77,247.544 				"/>
			</g>
			<g>
				<polygon style="fill:#F5F5F5;" points="175.766,247.544 191.647,311.52 185.214,311.52 168.73,247.544 				"/>
			</g>
			<g>
				<rect x="148.236" y="230.148" style="fill:#F5F5F5;" width="7.488" height="81.371"/>
			</g>
		</g>
		<g>
			<rect x="98.967" y="164.889" style="fill:#E0E0E0;" width="105.666" height="67.697"/>
		</g>
		<g>
			<rect x="125.312" y="246.506" style="fill:#F5F5F5;" width="53.036" height="6.538"/>
		</g>
		<g>
			<g>
				<path style="fill:#F5F5F5;" d="M105.989,223.755c0.025,0,0.049,0.389,0.072,1.238h-0.145c-0.109-3.311-0.188-14.28-0.188-27.278
					c0.03-7.845,0.057-14.942,0.076-20.167c0.034-2.527,0.062-4.597,0.083-6.111c0.02-0.675,0.036-1.225,0.049-1.662
					c0.017-0.38,0.035-0.579,0.053-0.579c0.018,0,0.035,0.2,0.052,0.579c0.013,0.437,0.029,0.987,0.049,1.662
					c0.021,1.514,0.049,3.584,0.083,6.111c0.02,5.225,0.047,12.323,0.076,20.167c0,12.999-0.079,23.968-0.188,27.278h-0.145
					C105.94,224.144,105.964,223.755,105.989,223.755z"/>
			</g>
		</g>
		<g>
			<g>
				<path style="fill:#F5F5F5;" d="M113.854,223.755c0.025,0,0.049,0.389,0.072,1.238h-0.145c-0.109-3.311-0.188-14.28-0.188-27.278
					c0.03-7.845,0.057-14.942,0.076-20.167c0.034-2.527,0.062-4.597,0.083-6.111c0.02-0.675,0.036-1.225,0.049-1.662
					c0.017-0.38,0.035-0.579,0.052-0.579c0.018,0,0.035,0.2,0.052,0.579c0.013,0.437,0.029,0.987,0.049,1.662
					c0.021,1.514,0.049,3.584,0.083,6.111c0.02,5.225,0.047,12.323,0.076,20.167c0,12.999-0.079,23.968-0.188,27.278h-0.145
					C113.804,224.144,113.829,223.755,113.854,223.755z"/>
			</g>
		</g>
		<g>
			<g>
				<path style="fill:#F5F5F5;" d="M121.718,223.755c0.025,0,0.049,0.389,0.072,1.238h-0.145c-0.109-3.311-0.188-14.28-0.188-27.278
					c0.03-7.845,0.056-14.942,0.076-20.167c0.034-2.527,0.062-4.597,0.083-6.111c0.02-0.675,0.036-1.225,0.049-1.662
					c0.017-0.38,0.035-0.579,0.052-0.579c0.018,0,0.035,0.2,0.052,0.579c0.013,0.437,0.029,0.987,0.049,1.662
					c0.021,1.514,0.049,3.584,0.083,6.111c0.02,5.225,0.047,12.323,0.076,20.167c0,12.999-0.079,23.968-0.188,27.278h-0.145
					C121.669,224.144,121.693,223.755,121.718,223.755z"/>
			</g>
		</g>
		<g>
			<g>
				<path style="fill:#F5F5F5;" d="M129.583,223.755c0.025,0,0.049,0.389,0.072,1.238h-0.145c-0.109-3.311-0.188-14.28-0.188-27.278
					c0.03-7.845,0.056-14.942,0.076-20.167c0.034-2.527,0.062-4.597,0.083-6.111c0.02-0.675,0.036-1.225,0.049-1.662
					c0.017-0.38,0.035-0.579,0.052-0.579c0.018,0,0.036,0.2,0.053,0.579c0.013,0.437,0.029,0.987,0.049,1.662
					c0.021,1.514,0.049,3.584,0.083,6.111c0.02,5.225,0.047,12.323,0.076,20.167c0,12.999-0.079,23.968-0.188,27.278h-0.145
					C129.533,224.144,129.557,223.755,129.583,223.755z"/>
			</g>
		</g>
		<g>
			<g>
				<path style="fill:#F5F5F5;" d="M137.447,223.755c0.025,0,0.049,0.389,0.072,1.238h-0.145c-0.109-3.311-0.188-14.28-0.188-27.278
					c0.03-7.845,0.057-14.942,0.076-20.167c0.034-2.527,0.062-4.597,0.083-6.111c0.02-0.675,0.036-1.225,0.049-1.662
					c0.017-0.38,0.035-0.579,0.053-0.579c0.018,0,0.035,0.2,0.052,0.579c0.013,0.437,0.029,0.987,0.049,1.662
					c0.021,1.514,0.049,3.584,0.083,6.111c0.02,5.225,0.047,12.323,0.076,20.167c0,12.999-0.079,23.968-0.188,27.278h-0.145
					C137.398,224.144,137.422,223.755,137.447,223.755z"/>
			</g>
		</g>
		<g>
			<g>
				<path style="fill:#F5F5F5;" d="M145.311,223.755c0.025,0,0.049,0.389,0.072,1.238h-0.145c-0.109-3.311-0.188-14.28-0.188-27.278
					c0.03-7.845,0.057-14.942,0.076-20.167c0.034-2.527,0.062-4.597,0.083-6.111c0.02-0.675,0.036-1.225,0.049-1.662
					c0.017-0.38,0.035-0.579,0.053-0.579s0.035,0.2,0.052,0.579c0.013,0.437,0.029,0.987,0.049,1.662
					c0.02,1.514,0.048,3.584,0.083,6.111c0.02,5.225,0.047,12.323,0.076,20.167c0,12.999-0.079,23.968-0.188,27.278h-0.145
					C145.262,224.144,145.286,223.755,145.311,223.755z"/>
			</g>
		</g>
		<g>
			<g>
				<path style="fill:#F5F5F5;" d="M153.176,223.755c0.025,0,0.049,0.389,0.072,1.238h-0.145c-0.109-3.311-0.188-14.28-0.188-27.278
					c0.03-7.845,0.057-14.942,0.076-20.167c0.034-2.527,0.062-4.597,0.083-6.111c0.02-0.675,0.036-1.225,0.049-1.662
					c0.017-0.38,0.035-0.579,0.052-0.579c0.018,0,0.036,0.2,0.052,0.579c0.013,0.437,0.029,0.987,0.049,1.662
					c0.021,1.514,0.049,3.584,0.083,6.111c0.02,5.225,0.047,12.323,0.076,20.167c0,12.999-0.079,23.968-0.188,27.278h-0.145
					C153.126,224.144,153.151,223.755,153.176,223.755z"/>
			</g>
		</g>
		<g>
			<g>
				<path style="fill:#F5F5F5;" d="M161.04,223.755c0.025,0,0.049,0.389,0.072,1.238h-0.145c-0.109-3.311-0.188-14.28-0.188-27.278
					c0.03-7.845,0.057-14.942,0.076-20.167c0.034-2.527,0.062-4.597,0.083-6.111c0.02-0.675,0.036-1.225,0.049-1.662
					c0.017-0.38,0.035-0.579,0.053-0.579c0.018,0,0.035,0.2,0.052,0.579c0.013,0.437,0.029,0.987,0.049,1.662
					c0.021,1.514,0.049,3.584,0.083,6.111c0.02,5.225,0.047,12.323,0.076,20.167c0,12.999-0.079,23.968-0.188,27.278h-0.145
					C160.991,224.144,161.015,223.755,161.04,223.755z"/>
			</g>
		</g>
		<g>
			<g>
				<path style="fill:#F5F5F5;" d="M168.904,223.755c0.025,0,0.049,0.389,0.072,1.238h-0.145c-0.109-3.311-0.188-14.28-0.188-27.278
					c0.03-7.845,0.057-14.942,0.076-20.167c0.034-2.527,0.062-4.597,0.083-6.111c0.02-0.675,0.036-1.225,0.049-1.662
					c0.017-0.38,0.035-0.579,0.052-0.579c0.018,0,0.036,0.2,0.053,0.579c0.013,0.437,0.029,0.987,0.049,1.662
					c0.02,1.514,0.048,3.584,0.083,6.111c0.02,5.225,0.047,12.323,0.076,20.167c0,12.999-0.079,23.968-0.188,27.278h-0.145
					C168.855,224.144,168.879,223.755,168.904,223.755z"/>
			</g>
		</g>
		<g>
			<g>
				<path style="fill:#F5F5F5;" d="M176.769,223.755c0.025,0,0.049,0.389,0.072,1.238h-0.145c-0.109-3.311-0.188-14.28-0.188-27.278
					c0.03-7.845,0.057-14.942,0.076-20.167c0.034-2.527,0.062-4.597,0.083-6.111c0.02-0.675,0.036-1.225,0.049-1.662
					c0.017-0.38,0.035-0.579,0.053-0.579c0.018,0,0.035,0.2,0.052,0.579c0.013,0.437,0.029,0.987,0.049,1.662
					c0.021,1.514,0.049,3.584,0.083,6.111c0.02,5.225,0.047,12.323,0.076,20.167c0,12.999-0.079,23.968-0.188,27.278h-0.145
					C176.719,224.144,176.744,223.755,176.769,223.755z"/>
			</g>
		</g>
		<g>
			<g>
				<path style="fill:#F5F5F5;" d="M184.633,223.755c0.025,0,0.049,0.389,0.072,1.238h-0.145c-0.109-3.311-0.188-14.28-0.188-27.278
					c0.03-7.845,0.057-14.942,0.076-20.167c0.034-2.527,0.062-4.597,0.083-6.111c0.02-0.675,0.036-1.225,0.049-1.662
					c0.017-0.38,0.035-0.579,0.053-0.579c0.018,0,0.035,0.2,0.052,0.579c0.013,0.437,0.029,0.987,0.049,1.662
					c0.02,1.514,0.049,3.584,0.083,6.111c0.02,5.225,0.047,12.323,0.076,20.167c0,12.999-0.079,23.968-0.188,27.278h-0.145
					C184.584,224.144,184.608,223.755,184.633,223.755z"/>
			</g>
		</g>
		<g>
			<g>
				<path style="fill:#F5F5F5;" d="M192.498,223.755c0.025,0,0.049,0.389,0.072,1.238h-0.145c-0.109-3.311-0.188-14.28-0.188-27.278
					c0.03-7.845,0.056-14.942,0.076-20.167c0.034-2.527,0.062-4.597,0.083-6.111c0.02-0.675,0.036-1.225,0.049-1.662
					c0.017-0.38,0.035-0.579,0.053-0.579s0.036,0.2,0.052,0.579c0.013,0.437,0.029,0.987,0.049,1.662
					c0.02,1.514,0.049,3.584,0.083,6.111c0.02,5.225,0.047,12.323,0.076,20.167c0,12.999-0.079,23.968-0.188,27.278h-0.145
					C192.448,224.144,192.473,223.755,192.498,223.755z"/>
			</g>
		</g>
		<g>
			<g>
				<path style="fill:#F5F5F5;" d="M200.362,223.755c0.025,0,0.049,0.389,0.072,1.238h-0.145c-0.109-3.311-0.188-14.28-0.188-27.278
					c0.03-7.845,0.057-14.942,0.076-20.167c0.034-2.527,0.062-4.597,0.083-6.111c0.02-0.675,0.036-1.225,0.049-1.662
					c0.017-0.38,0.035-0.579,0.052-0.579c0.018,0,0.036,0.2,0.052,0.579c0.013,0.437,0.029,0.987,0.049,1.662
					c0.021,1.514,0.049,3.584,0.083,6.111c0.02,5.225,0.047,12.323,0.076,20.167c0,12.999-0.079,23.968-0.188,27.278h-0.145
					C200.313,224.144,200.337,223.755,200.362,223.755z"/>
			</g>
		</g>
	</g>
</g>
<g id="Background_Simple" style="display:none;">
	<g style="display:inline;">
		<path style="fill:#EBEBEB;" d="M92.147,256.779l1.529,2.443c12.889,20.59,35.846,32.791,59.845,30.939
			c3.085-0.238,6.154-0.699,9.178-1.39c21.775-4.978,40.548-21.758,48.131-43.018c4.46-12.504,5.555-26.844,14.209-36.84
			c11.262-13.009,30.68-13.682,47.765-13.387c17.085,0.295,36.515-0.429,47.721-13.488c7.018-8.179,9.125-19.7,8.399-30.512
			c-1.92-28.626-22.238-53.964-47.801-66.343c-25.563-12.379-55.469-13.105-83.175-7.118c-38.813,8.387-75.528,30.448-97.315,64.036
			C78.848,175.689,73.847,221.107,92.147,256.779z"/>
	</g>
	<g style="display:inline;">
		
			<ellipse transform="matrix(0.2478 -0.9688 0.9688 0.2478 -161.2537 578.6444)" style="fill:#EBEBEB;" cx="292.004" cy="393.165" rx="40.451" ry="40.451"/>
	</g>
	<g style="display:inline;">
		<path style="fill:#EBEBEB;" d="M651.135,140.271c-8.158-15.303-22.976-27.51-37.027-37.674
			c-20.972-15.17-51.981-17.708-68.874-13.788h0c-9.998,1.971-19.423,6.101-27.243,12.7c-17.866,15.076-23.794,44.357-9.341,62.73
			c5.814,7.391,14.11,12.451,20.319,19.513c17.763,20.204,15.282,52.418,32.372,73.195c15.436,18.767,44.732,22.783,66.444,11.87
			c21.711-10.913,35.558-34.311,38.565-58.424S662.566,161.714,651.135,140.271z"/>
	</g>
</g>
<g id="Plant">
	<g>
		<g>
			<g>
				<g>
					<g>
						<g>
							<path style="fill:#FF725E;" d="M174.346,379.836c4.38-2.26,9.537-2.554,14.399-1.75c2.612,0.432,5.336,1.213,7.113,3.175
								c1.777,1.962,2.114,5.415,0.073,7.101c-1.215,1.003-2.909,1.156-4.485,1.138c-3.807-0.044-8.03-0.715-11.071,1.576
								c-1.735,1.306-2.89,3.479-4.964,4.121c-2.029,0.629-4.319-0.569-5.395-2.401c-1.076-1.831-1.112-4.121-0.61-6.185
								C169.405,386.612,169.934,382.112,174.346,379.836z"/>
						</g>
					</g>
				</g>
			</g>
			<g>
				<g>
					<g>
						<g>
							<path style="fill:#FF725E;" d="M164.311,360.465c2.678,3.825,7.883,2.559,10.297,0.224c2.413-2.335,3.434-5.719,4.362-8.945
								c2.122-7.373,4.26-15.107,2.683-22.615c-0.472-2.245-1.311-4.483-2.888-6.148c-1.577-1.665-4.003-2.656-6.22-2.07
								c-2.624,0.693-4.256,3.264-5.434,5.709c-3.465,7.188-5.3,15.156-5.327,23.135
								C161.77,353.481,162.209,357.389,164.311,360.465"/>
						</g>
					</g>
				</g>
			</g>
			<g>
				<g>
					<g>
						<g>
							<path style="fill:#FF725E;" d="M156.957,366.136c2.908-3.451,3.46-8.484,2.166-12.808c-1.294-4.323-4.217-8.001-7.586-11.004
								c-3.95-3.52-8.593-6.26-13.584-8.015c-1.964-0.69-4.036-1.236-6.109-1.038c-2.073,0.198-4.16,1.258-5.127,3.102
								c-1.43,2.727-0.059,6.034,1.424,8.732c2.612,4.753,5.598,9.301,8.922,13.587c2.674,3.448,5.738,6.849,9.813,8.407
								c4.076,1.558,8.309,1.375,10.47-1.452"/>
						</g>
					</g>
				</g>
			</g>
			<g>
				<g>
					<g>
						<g>
							<g>
								<path style="fill:#263238;" d="M164.13,418.347c0.05,0.003,0.131-0.617,0.242-1.738c0.123-1.265,0.278-2.853,0.462-4.743
									c0.221-1.996,0.513-4.371,1.067-6.958c0.553-2.58,1.418-5.376,2.529-8.212c1.151-2.819,2.554-5.381,4.193-7.43
									c1.628-2.058,3.521-3.548,5.301-4.407c1.774-0.876,3.365-1.232,4.464-1.39c1.109-0.114,1.73-0.201,1.73-0.251
									c0.001-0.05-0.622-0.057-1.761-0.027c-1.129,0.075-2.785,0.361-4.655,1.211c-1.876,0.832-3.884,2.345-5.592,4.446
									c-1.721,2.092-3.176,4.71-4.346,7.58c-1.13,2.885-1.983,5.71-2.511,8.346c-0.526,2.632-0.767,5.033-0.925,7.046
									c-0.151,2.014-0.208,3.645-0.235,4.773C164.068,417.72,164.081,418.344,164.13,418.347z"/>
							</g>
						</g>
					</g>
				</g>
			</g>
			<g>
				<g>
					<g>
						<g>
							<g>
								<path style="fill:#263238;" d="M164.457,414.697c0.025-0.001,0.04-0.279,0.047-0.807c-0.002-0.606-0.004-1.369-0.006-2.306
									c-0.006-2.001-0.005-4.898,0.103-8.474c0.177-7.153,0.793-14.852,1.983-25.705c1.126-10.206,2.639-22.083,4.234-29.805
									c0.342-1.756,0.687-3.337,1.011-4.72c0.309-1.387,0.574-2.583,0.828-3.551c0.219-0.911,0.397-1.653,0.539-2.242
									c0.116-0.515,0.165-0.789,0.141-0.796c-0.024-0.007-0.12,0.253-0.28,0.756c-0.176,0.58-0.397,1.312-0.67,2.21
									c-0.297,0.959-0.601,2.147-0.949,3.528c-0.362,1.378-0.742,2.955-1.117,4.708c-1.579,6.997-3.25,16.776-4.451,27.656
									c-1.192,10.876-1.729,20.779-1.776,27.95c-0.042,3.585,0.034,6.488,0.125,8.491c0.057,0.937,0.104,1.699,0.141,2.305
									C164.399,414.423,164.432,414.699,164.457,414.697z"/>
							</g>
						</g>
					</g>
				</g>
			</g>
			<g>
				<g>
					<g>
						<g>
							<g>
								<path style="fill:#263238;" d="M164.505,395.597c0.05-0.002,0.041-0.858-0.017-2.409c-0.089-1.548-0.301-3.786-0.738-6.527
									c-0.462-2.734-1.108-5.982-2.123-9.51c-0.44-1.613-1.473-5.478-3.977-11.253c-3.298-7.825-7.78-14.222-11.678-18.184
									c-0.914-1.052-1.933-1.81-2.747-2.554c-0.422-0.356-0.794-0.712-1.174-0.993c-0.382-0.263-0.737-0.508-1.066-0.735
									c-1.283-0.878-2.002-1.34-2.028-1.298c-0.115,0.156,2.874,1.916,6.648,5.931c3.759,4.007,8.115,10.36,11.387,18.119
									c1.824,4.208,3.097,7.962,3.999,11.149c1.043,3.494,1.735,6.708,2.259,9.415c0.497,2.713,0.786,4.929,0.959,6.463
									C164.353,394.747,164.456,395.599,164.505,395.597z"/>
							</g>
						</g>
					</g>
				</g>
			</g>
		</g>
		<g>
			<g>
				<g>
					<g>
						<polygon style="fill:#263238;" points="146.044,429.29 147.957,455.51 181.642,455.51 183.556,429.29 						"/>
					</g>
				</g>
			</g>
		</g>
		<g>
			<g>
				<g>
					<g>
						<rect x="142.79" y="418.955" style="fill:#263238;" width="44.785" height="10.335"/>
					</g>
				</g>
			</g>
		</g>
		<g>
			<g>
				<g>
					<g>
						<polygon style="fill:#455A64;" points="142.79,454.507 142.79,457.372 144.894,457.372 186.835,457.372 186.835,454.507 
													"/>
					</g>
				</g>
			</g>
		</g>
		<g>
			<g>
				<g>
					<g>
						<polygon style="fill:#455A64;" points="146.957,462.414 144.894,457.372 185.231,457.372 182.824,462.414 						"/>
					</g>
				</g>
			</g>
		</g>
		<g>
			<g>
				<g>
					<g>
						<g>
							<path style="fill:#E0E0E0;" d="M182.93,437.859c0.008,0.006-0.046,0.088-0.157,0.241c-0.134,0.177-0.299,0.397-0.503,0.668
								c-0.478,0.612-1.136,1.453-1.962,2.511l-0.087,0.112l-0.084-0.117c-1.233-1.706-2.881-3.985-4.821-6.668h0.277
								c-1.434,2.031-3.031,4.292-4.746,6.721l-0.149,0.211l-0.167-0.198c-1.752-2.084-3.654-4.347-5.629-6.697l0.324-0.004
								c-0.098,0.123-0.204,0.256-0.31,0.389c-1.746,2.189-3.435,4.307-5.033,6.31l-0.168,0.21l-0.155-0.219
								c-1.709-2.418-3.305-4.677-4.749-6.719l0.276,0.013c-2.34,2.666-4.325,4.928-5.848,6.663l-0.104,0.118l-0.079-0.133
								c-0.771-1.295-1.386-2.328-1.831-3.077c-0.191-0.334-0.346-0.604-0.47-0.819c-0.103-0.187-0.152-0.286-0.143-0.292
								c0.009-0.005,0.076,0.083,0.196,0.26c0.137,0.207,0.308,0.467,0.52,0.788c0.468,0.735,1.113,1.749,1.922,3.02l-0.183-0.015
								c1.499-1.757,3.452-4.046,5.755-6.744l0.145-0.17l0.131,0.183c1.456,2.033,3.067,4.282,4.791,6.689l-0.322-0.009
								c1.594-2.006,3.28-4.128,5.021-6.319c0.106-0.133,0.212-0.266,0.31-0.389l0.16-0.201l0.165,0.197
								c1.97,2.354,3.867,4.622,5.613,6.71l-0.315,0.012c1.732-2.416,3.345-4.666,4.794-6.687l0.14-0.196l0.137,0.196
								c1.899,2.712,3.512,5.016,4.719,6.74l-0.171-0.005c0.86-1.031,1.544-1.851,2.041-2.447c0.222-0.257,0.401-0.465,0.547-0.633
								C182.854,437.923,182.923,437.853,182.93,437.859z"/>
						</g>
					</g>
				</g>
			</g>
		</g>
		<g>
			<g>
				<g>
					<g>
						<g>
							<path style="fill:#455A64;" d="M184.025,429.117c0,0.116-8.44,0.21-18.849,0.21c-10.413,0-18.851-0.094-18.851-0.21
								c0-0.116,8.438-0.21,18.851-0.21C175.584,428.907,184.025,429.001,184.025,429.117z"/>
						</g>
					</g>
				</g>
			</g>
		</g>
		<g>
			<g>
				<g>
					<g>
						<g>
							<path style="fill:#263238;" d="M185.726,457.654c0,0.116-9.173,0.21-20.486,0.21c-11.317,0-20.488-0.094-20.488-0.21
								c0-0.116,9.171-0.21,20.488-0.21C176.553,457.444,185.726,457.538,185.726,457.654z"/>
						</g>
					</g>
				</g>
			</g>
		</g>
	</g>
</g>
<g id="Floor">
	<g>
		<g>
			<path style="fill:#263238;" d="M691.341,462.472c0,0.144-146.18,0.26-326.46,0.26c-180.343,0-326.491-0.117-326.491-0.26
				s146.149-0.26,326.491-0.26C545.161,462.211,691.341,462.328,691.341,462.472z"/>
		</g>
	</g>
</g>
<g id="Character">
	<g>
		<g>
			<g>
				<g>
					<g>
						<g>
							<g>
								<g>
									<path style="fill:#263238;" d="M398.882,200.729c-4.391-0.434-8.107-3.478-10.868-6.919
										c-2.762-3.441-4.861-7.388-7.757-10.717c-2.159-2.481-2.497-7.521-5.685-8.332c-3.988-1.014-5.94-6.718-5.682-9.996
										c0.281-3.569,3.172-7.158,3.081-8.226c-0.24-2.803-3.452-4.807-3.502-7.62c-0.116-6.612,4.986-7.517,4.986-7.517
										c1.272-3.434,3.018-7.997,7.413-10.934c4.763-3.184,12.132-6.884,17.751-5.767c5.619,1.117,9.683,1.753,13.003,6.423"/>
								</g>
							</g>
						</g>
					</g>
				</g>
				<g>
					<g>
						<g>
							<g>
								<g>
									<path style="fill:#FFBE9D;" d="M446.446,198.458l-4.382,22.662l-9.865,20.409l-13.152-9.107l-4.337-12.288l-3.638-10.306
										c0,0-14.359,2.893-19.53-10.624c-2.497-6.527-6.545-20.384-10.063-32.97c-3.784-13.535,3.458-27.707,16.645-32.566
										l1.31-0.483c14.431-4.38,26.214,5.428,30.193,19.975L446.446,198.458"/>
								</g>
							</g>
						</g>
					</g>
				</g>
				<g>
					<g>
						<g>
							<g>
								<g>
									<g>
										<g>
											<g>
												<path style="fill:#263238;" d="M389.015,174.942c0.341,1.037,1.501,1.604,2.591,1.268
													c1.088-0.336,1.696-1.447,1.354-2.485c-0.341-1.037-1.501-1.605-2.589-1.269
													C389.281,172.792,388.673,173.905,389.015,174.942z"/>
											</g>
										</g>
									</g>
								</g>
							</g>
						</g>
					</g>
				</g>
				<g>
					<g>
						<g>
							<g>
								<g>
									<g>
										<g>
											<g>
												<g>
													<path style="fill:#263238;" d="M386.377,171.158c0.333,0.164,1.402-1.464,3.491-2.228
														c2.075-0.792,4.002-0.283,4.134-0.622c0.07-0.154-0.344-0.521-1.189-0.76c-0.835-0.242-2.127-0.299-3.425,0.185
														c-1.297,0.486-2.214,1.367-2.662,2.089C386.265,170.551,386.216,171.088,386.377,171.158z"/>
												</g>
											</g>
										</g>
									</g>
								</g>
							</g>
						</g>
					</g>
				</g>
				<g>
					<g>
						<g>
							<g>
								<g>
									<g>
										<g>
											<g>
												<path style="fill:#263238;" d="M408.561,167.588c0.341,1.038,1.501,1.604,2.591,1.267
													c1.088-0.336,1.696-1.447,1.354-2.485c-0.341-1.037-1.501-1.605-2.589-1.269
													C408.827,165.437,408.22,166.551,408.561,167.588z"/>
											</g>
										</g>
									</g>
								</g>
							</g>
						</g>
					</g>
				</g>
				<g>
					<g>
						<g>
							<g>
								<g>
									<g>
										<g>
											<g>
												<g>
													<path style="fill:#263238;" d="M406.953,162.908c0.314,0.199,1.555-1.304,3.712-1.836
														c2.149-0.563,4.009,0.152,4.177-0.171c0.086-0.146-0.283-0.555-1.1-0.884c-0.803-0.331-2.082-0.528-3.425-0.188
														c-1.342,0.343-2.349,1.12-2.873,1.788C406.91,162.292,406.802,162.822,406.953,162.908z"/>
												</g>
											</g>
										</g>
									</g>
								</g>
							</g>
						</g>
					</g>
				</g>
				<g>
					<g>
						<g>
							<g>
								<g>
									<g>
										<g>
											<g>
												<path style="fill:#263238;" d="M405.626,182.892c-0.034-0.122-1.414,0.132-3.614,0.637
													c-0.553,0.141-1.097,0.221-1.32-0.109c-0.267-0.339-0.256-0.995-0.226-1.71c0.026-1.474,0.052-3.019,0.081-4.638
													c0.06-6.583-0.107-11.917-0.372-11.917c-0.266,0-0.529,5.336-0.588,11.919c-0.002,1.618-0.005,3.162-0.006,4.638
													c0.022,0.68-0.072,1.495,0.494,2.193c0.29,0.345,0.788,0.49,1.163,0.456c0.38-0.022,0.682-0.126,0.951-0.208
													C404.346,183.488,405.661,183.014,405.626,182.892z"/>
											</g>
										</g>
									</g>
								</g>
							</g>
						</g>
					</g>
				</g>
				<g>
					<g>
						<g>
							<g>
								<g>
									<g>
										<g>
											<g>
												<path style="fill:#263238;" d="M412.298,182.073c-0.347,0.105,0.484,2.372-0.862,4.694
													c-1.341,2.326-3.849,2.962-3.75,3.285c0.021,0.154,0.7,0.242,1.729-0.106c1.012-0.334,2.353-1.193,3.178-2.614
													c0.819-1.422,0.843-2.924,0.578-3.882C412.908,182.471,412.449,182.002,412.298,182.073z"/>
											</g>
										</g>
									</g>
								</g>
							</g>
						</g>
					</g>
				</g>
				<g>
					<g>
						<g>
							<g>
								<path style="fill:#263238;" d="M404.676,155.945c0.372,0.525,2.436-0.342,5.035-0.733c2.591-0.443,4.822-0.266,5.012-0.881
									c0.08-0.291-0.425-0.742-1.401-1.08c-0.968-0.339-2.413-0.517-3.969-0.269c-1.555,0.252-2.872,0.873-3.685,1.498
									C404.847,155.107,404.508,155.693,404.676,155.945z"/>
							</g>
						</g>
					</g>
				</g>
				<g>
					<g>
						<g>
							<g>
								<path style="fill:#263238;" d="M385.384,165.474c0.542,0.339,1.798-0.683,3.518-1.343c1.697-0.72,3.31-0.858,3.464-1.478
									c0.059-0.295-0.346-0.685-1.151-0.898c-0.795-0.215-1.984-0.192-3.158,0.282c-1.174,0.476-2.045,1.284-2.467,1.991
									C385.157,164.741,385.137,165.303,385.384,165.474z"/>
							</g>
						</g>
					</g>
				</g>
				<g>
					<g>
						<g>
							<g>
								<g>
									<g>
										<g>
											<g>
												<g>
													<g>
														<g>
															<g>
																<g>
																	<path style="fill:#263238;" d="M410.265,130.5c1.068,3.022,0.721,6.512-0.921,9.265
																		c-1.642,2.753-4.549,4.715-7.716,5.211c-2.457,0.384-5.396,0.101-6.966,2.029
																		c-1.651,2.029-0.631,5.229-1.931,7.499c-1.858,3.244-6.854,2.553-9.887,4.738
																		c-2.342,1.688-3.103,4.755-4.105,7.462c-1.002,2.707-2.905,5.613-5.788,5.75c-0.654-2.407-1.312-4.841-1.398-7.333
																		c-0.086-2.493,0.451-5.088,1.975-7.062c0.835-1.082,1.941-1.95,2.663-3.111c1.558-2.508,0.996-5.731,1.481-8.643
																		c0.626-3.754,3.189-7.131,6.636-8.745c2.868-1.343,6.244-1.52,8.888-3.264c1.954-1.288,3.34-3.333,5.368-4.504
																		c3.948-2.28,8.938-0.618,13.058,1.332"/>
																</g>
															</g>
														</g>
													</g>
												</g>
											</g>
										</g>
									</g>
								</g>
								<g>
									<g>
										<g>
											<path style="fill:#263238;" d="M398.835,141.243c1.706-1.204,5.156-3.786,5.598-5.785
												c0.961-4.342,4.003-8.139,8.056-9.311c4.053-1.171,8.968,0.636,11.248,4.552c4.825-1.644,10.576-0.261,14.474,3.481
												c3.898,3.742,5.784,9.692,4.748,14.973c-0.271,1.383-0.724,2.829-0.269,4.193c0.564,1.691,2.274,2.589,3.638,3.674
												c3.72,2.958,5.36,8.232,4.951,13.011c-0.409,4.779-1.206,6.686-3.553,8.434c-4.592,3.42,5.273,11.538-3.308,14.534
												l-13.579-29.67c-0.175,0.194-0.399,0.388-0.701,0.576c-4.678,2.923-8.813-6.763-8.67-9.997
												c-2.407-0.99-4.843-1.996-6.969-3.579c-2.126-1.583-5.334-6.804-5.923-9.453
												C406.783,141.624,398.085,141.772,398.835,141.243z"/>
										</g>
									</g>
								</g>
							</g>
						</g>
					</g>
				</g>
				<g>
					<g>
						<g>
							<g>
								<g>
									<g>
										<g>
											<g>
												<g>
													<g>
														<g>
															<g>
																<g>
																	<g>
																		<g>
																			<g>
																				<g>
																					<g>
																						<path style="fill:#FFBE9D;" d="M430.195,163.779c0.195-0.185,8.313-6.197,11.437,3.195
																							c3.124,9.392-6.95,10.591-7.056,10.327C434.471,177.038,430.195,163.779,430.195,163.779z"/>
																					</g>
																				</g>
																			</g>
																		</g>
																	</g>
																</g>
															</g>
														</g>
													</g>
												</g>
											</g>
										</g>
									</g>
								</g>
							</g>
						</g>
					</g>
					<g>
						<g>
							<g>
								<g>
									<g>
										<g>
											<g>
												<g>
													<g>
														<g>
															<g>
																<g>
																	<g>
																		<g>
																			<g>
																				<g>
																					<g>
																						<g>
																							<path style="fill:#EB996E;" d="M436.262,172.789c0.031-0.044,0.202,0.06,0.521,0.095
																								c0.31,0.034,0.803-0.035,1.231-0.382c0.871-0.694,1.183-2.547,0.665-4.255
																								c-0.26-0.863-0.71-1.617-1.237-2.19c-0.516-0.592-1.119-0.924-1.649-0.847
																								c-0.535,0.051-0.789,0.467-0.816,0.77c-0.039,0.304,0.083,0.472,0.039,0.505
																								c-0.018,0.032-0.254-0.091-0.307-0.504c-0.023-0.199,0.013-0.457,0.174-0.711
																								c0.164-0.258,0.465-0.462,0.825-0.54c0.741-0.191,1.615,0.259,2.193,0.888
																								c0.62,0.619,1.146,1.46,1.438,2.429c0.569,1.913,0.19,4.006-1.038,4.85
																								c-0.603,0.392-1.221,0.376-1.579,0.249C436.354,173.01,436.235,172.817,436.262,172.789z"/>
																						</g>
																					</g>
																				</g>
																			</g>
																		</g>
																	</g>
																</g>
															</g>
														</g>
													</g>
												</g>
											</g>
										</g>
									</g>
								</g>
							</g>
						</g>
					</g>
				</g>
			</g>
			<g>
				<g>
					<g>
						<g>
							<path style="fill:#EB996E;" d="M411.051,209.825c0,0,8.839-2.464,15.848-11.554c0,0-0.583,11.314-14.583,15.084
								L411.051,209.825z"/>
						</g>
					</g>
				</g>
			</g>
			<g>
				<path style="fill:#E0E0E0;" d="M408.682,140.966c0,0,6.74,1.598,15.091,1.033c8.351-0.566,9.501-5.193,12.202-9.583
					c0,0,5.422,2.765,6.746,9.678c0,0-4.721,13.427-21.251,11.816C421.469,153.91,409.42,150.572,408.682,140.966z"/>
			</g>
			<g>
				<g>
					<path style="fill:#E0E0E0;" d="M442.353,152.806c0.249,0.22-0.371,1.501-2.102,2.951c-1.699,1.44-4.628,2.932-8.147,3.14
						c-3.52,0.207-6.604-0.93-8.461-2.161c-1.89-1.236-2.655-2.436-2.434-2.683c0.245-0.294,1.393,0.35,3.267,1.041
						c1.861,0.7,4.532,1.376,7.475,1.204c2.941-0.175,5.514-1.16,7.28-2.073C441.01,153.317,442.075,152.543,442.353,152.806z"/>
				</g>
			</g>
			<g>
				<g>
					<path style="fill:#EB996E;" d="M419.835,159.773c0.132,0.034-0.231,1.22-1.39,2.123c-1.151,0.914-2.389,0.988-2.391,0.852
						c-0.032-0.15,1.039-0.436,2.069-1.261C419.167,160.68,419.696,159.706,419.835,159.773z"/>
				</g>
			</g>
			<g>
				<g>
					<path style="fill:#EB996E;" d="M421.584,162.372c0.033,0.14-0.953,0.495-2.203,0.793c-1.25,0.298-2.291,0.426-2.324,0.286
						c-0.033-0.14,0.953-0.495,2.203-0.793C420.51,162.36,421.551,162.232,421.584,162.372z"/>
				</g>
			</g>
			<g>
				<g>
					<path style="fill:#EB996E;" d="M402.087,158.432c0.02,0.073-0.316,0.222-0.822,0.513c-0.511,0.283-1.18,0.738-1.972,1.207
						c-0.794,0.47-1.604,0.789-2.225,0.868c-0.621,0.088-1.004-0.02-0.997-0.084c0.003-0.079,0.37-0.106,0.918-0.275
						c0.551-0.162,1.27-0.502,2.042-0.958c0.772-0.458,1.501-0.881,2.078-1.091C401.684,158.393,402.07,158.366,402.087,158.432z"/>
				</g>
			</g>
			<g>
				<g>
					<path style="fill:#EB996E;" d="M405.096,152.84c0.025,0.082-0.616,0.275-1.483,0.869c-0.88,0.578-1.914,1.611-3.043,2.801
						c-1.133,1.193-2.331,2.17-3.355,2.609c-1.018,0.457-1.73,0.427-1.729,0.372c-0.015-0.086,0.649-0.188,1.564-0.701
						c0.924-0.496,2.022-1.46,3.146-2.642c1.124-1.185,2.247-2.226,3.223-2.751C404.387,152.852,405.088,152.783,405.096,152.84z"/>
				</g>
			</g>
			<g>
				<g>
					<path style="fill:#EB996E;" d="M388.579,174.969c0.066,0.121-0.631,0.58-1.629,0.621c-0.997,0.048-1.733-0.348-1.677-0.475
						c0.049-0.141,0.773,0,1.654-0.046C387.809,175.038,388.518,174.833,388.579,174.969z"/>
				</g>
			</g>
			<g>
				<g>
					<path style="fill:#EB996E;" d="M387.936,176.086c0.057,0.137-0.401,0.447-0.785,0.967c-0.397,0.511-0.57,1.036-0.718,1.018
						c-0.14-0.001-0.185-0.691,0.303-1.332C387.22,176.096,387.897,175.952,387.936,176.086z"/>
				</g>
			</g>
			<g>
				<g>
					<path style="fill:#EB996E;" d="M415.361,182.162c-0.135,0.061-0.532-0.607-1.364-0.949c-0.819-0.371-1.578-0.204-1.626-0.344
						c-0.023-0.062,0.149-0.204,0.492-0.283c0.338-0.081,0.845-0.064,1.341,0.149c0.495,0.215,0.854,0.573,1.026,0.875
						C415.408,181.913,415.422,182.136,415.361,182.162z"/>
				</g>
			</g>
			<g>
				<g>
					<path style="fill:#EB996E;" d="M417.286,182.38c-0.143,0.048-0.487-0.69-1.211-1.325c-0.71-0.65-1.481-0.912-1.449-1.059
						c0.008-0.138,0.963-0.082,1.797,0.671C417.262,181.414,417.423,182.358,417.286,182.38z"/>
				</g>
			</g>
			<g>
				<g>
					<path style="fill:#EB996E;" d="M416.646,167.243c0.129,0.038-0.332,1.39-1.641,2.486c-1.299,1.108-2.709,1.337-2.725,1.204
						c-0.046-0.148,1.195-0.577,2.389-1.602C415.878,168.325,416.508,167.173,416.646,167.243z"/>
				</g>
			</g>
		</g>
		<g>
			<g>
				<g>
					<g>
						<g>
							<g>
								<g>
									<g>
										<g>
											<g>
												<g>
													<g>
														<g>
															<g>
																<g>
																	<path style="fill:#455A64;" d="M398.923,408.731l1.353,34.42c0,0-34.532,12.935-34.901,19.32l66.832-0.226
																		l0.093-53.717L398.923,408.731z"/>
																</g>
															</g>
														</g>
													</g>
												</g>
											</g>
										</g>
									</g>
								</g>
							</g>
						</g>
					</g>
					<g>
						<g>
							<g>
								<g>
									<g>
										<g>
											<g>
												<g>
													<g>
														<g>
															<g>
																<g>
																	<g>
																		<path style="fill:#E0E0E0;" d="M420.932,440.186c1.295,0.349,2.193,1.801,1.898,3.108
																			c-0.296,1.308-1.764,2.235-3.064,1.908c-1.3-0.326-2.433-2.035-1.992-3.302c0.44-1.266,2.224-2.26,3.408-1.631"/>
																	</g>
																</g>
															</g>
														</g>
													</g>
												</g>
											</g>
										</g>
									</g>
								</g>
							</g>
						</g>
					</g>
					<g style="opacity:0.6;">
						<g>
							<g>
								<g>
									<g>
										<g>
											<g>
												<g>
													<g>
														<g>
															<g>
																<g>
																	<path style="fill:#FFFFFF;" d="M432.208,462.246l-0.203-5.415l-64.002,2.242c0,0-2.971,1.305-2.628,3.399
																		L432.208,462.246z"/>
																</g>
															</g>
														</g>
													</g>
												</g>
											</g>
										</g>
									</g>
								</g>
							</g>
						</g>
					</g>
					<g>
						<g>
							<g>
								<g>
									<g>
										<g>
											<g>
												<g>
													<g>
														<g>
															<g>
																<g>
																	<g>
																		<path style="fill:#263238;" d="M399.192,442.815c0.012,0.327,1.644,0.469,3.253,1.513
																			c1.637,1.002,2.469,2.413,2.769,2.283c0.301-0.065-0.193-2.014-2.163-3.243
																			C401.092,442.12,399.12,442.516,399.192,442.815z"/>
																	</g>
																</g>
															</g>
														</g>
													</g>
												</g>
											</g>
										</g>
									</g>
								</g>
							</g>
						</g>
					</g>
					<g>
						<g>
							<g>
								<g>
									<g>
										<g>
											<g>
												<g>
													<g>
														<g>
															<g>
																<g>
																	<g>
																		<path style="fill:#263238;" d="M392.192,445.738c-0.073,0.316,1.342,0.867,2.455,2.243
																			c1.154,1.344,1.438,2.835,1.763,2.82c0.307,0.05,0.526-1.862-0.89-3.547
																			C394.118,445.557,392.198,445.427,392.192,445.738z"/>
																	</g>
																</g>
															</g>
														</g>
													</g>
												</g>
											</g>
										</g>
									</g>
								</g>
							</g>
						</g>
					</g>
					<g>
						<g>
							<g>
								<g>
									<g>
										<g>
											<g>
												<g>
													<g>
														<g>
															<g>
																<g>
																	<g>
																		<path style="fill:#263238;" d="M388.239,454.141c0.297,0.069,0.745-1.563-0.099-3.348
																			c-0.832-1.791-2.373-2.491-2.51-2.218c-0.183,0.269,0.811,1.225,1.481,2.7
																			C387.817,452.734,387.915,454.11,388.239,454.141z"/>
																	</g>
																</g>
															</g>
														</g>
													</g>
												</g>
											</g>
										</g>
									</g>
								</g>
							</g>
						</g>
					</g>
					<g>
						<g>
							<g>
								<g>
									<g>
										<g>
											<g>
												<g>
													<g>
														<g>
															<g>
																<g>
																	<g>
																		<path style="fill:#263238;" d="M399.754,434.936c0.138,0.297,1.634-0.158,3.478-0.039
																			c1.848,0.082,3.285,0.696,3.454,0.415c0.188-0.237-1.217-1.44-3.393-1.55
																			C401.12,433.637,399.593,434.681,399.754,434.936z"/>
																	</g>
																</g>
															</g>
														</g>
													</g>
												</g>
											</g>
										</g>
									</g>
								</g>
							</g>
						</g>
					</g>
				</g>
			</g>
		</g>
		<g>
			<g>
				<g>
					<g>
						<g>
							<g>
								<g>
									<g>
										<g>
											<g>
												<g>
													<g>
														<g>
															<g>
																<g>
																	<path style="fill:#455A64;" d="M579.551,453.742l34.067-5.099c0,0,16.624,32.915,23.012,32.586l-7.515-66.409
																		l-53.407,5.767L579.551,453.742z"/>
																</g>
															</g>
														</g>
													</g>
												</g>
											</g>
										</g>
									</g>
								</g>
							</g>
						</g>
					</g>
					<g>
						<g>
							<g>
								<g>
									<g>
										<g>
											<g>
												<g>
													<g>
														<g>
															<g>
																<g>
																	<g>
																		<path style="fill:#E0E0E0;" d="M608.417,428.434c0.206-1.325,1.551-2.377,2.883-2.225
																			c1.333,0.151,2.414,1.51,2.231,2.838c-0.182,1.328-1.758,2.64-3.065,2.341c-1.307-0.299-2.489-1.964-1.993-3.209"
																			/>
																	</g>
																</g>
															</g>
														</g>
													</g>
												</g>
											</g>
										</g>
									</g>
								</g>
							</g>
						</g>
					</g>
					<g style="opacity:0.6;">
						<g>
							<g>
								<g>
									<g>
										<g>
											<g>
												<g>
													<g>
														<g>
															<g>
																<g>
																	<path style="fill:#FFFFFF;" d="M629.115,414.819l-5.36,0.792l9.209,63.376c0,0,1.621,2.811,3.666,2.241
																		L629.115,414.819z"/>
																</g>
															</g>
														</g>
													</g>
												</g>
											</g>
										</g>
									</g>
								</g>
							</g>
						</g>
					</g>
					<g>
						<g>
							<g>
								<g>
									<g>
										<g>
											<g>
												<g>
													<g>
														<g>
															<g>
																<g>
																	<g>
																		<path style="fill:#263238;" d="M613.402,449.757c0.323-0.047,0.287-1.686,1.149-3.399
																			c0.818-1.736,2.129-2.718,1.967-3.002c-0.097-0.292-1.981,0.411-2.988,2.504
																			C612.503,447.944,613.112,449.861,613.402,449.757z"/>
																	</g>
																</g>
															</g>
														</g>
													</g>
												</g>
											</g>
										</g>
									</g>
								</g>
							</g>
						</g>
					</g>
					<g>
						<g>
							<g>
								<g>
									<g>
										<g>
											<g>
												<g>
													<g>
														<g>
															<g>
																<g>
																	<g>
																		<path style="fill:#263238;" d="M617.071,456.397c0.322,0.039,0.715-1.428,1.962-2.685
																			c1.21-1.293,2.661-1.739,2.611-2.06c0.016-0.311-1.908-0.32-3.429,1.272
																			C616.681,454.501,616.761,456.424,617.071,456.397z"/>
																	</g>
																</g>
															</g>
														</g>
													</g>
												</g>
											</g>
										</g>
									</g>
								</g>
							</g>
						</g>
					</g>
					<g>
						<g>
							<g>
								<g>
									<g>
										<g>
											<g>
												<g>
													<g>
														<g>
															<g>
																<g>
																	<g>
																		<path style="fill:#263238;" d="M625.855,459.409c0.036-0.302-1.635-0.57-3.317,0.463
																			c-1.689,1.022-2.217,2.63-1.931,2.737c0.287,0.153,1.129-0.939,2.523-1.767
																			C624.503,459.983,625.86,459.735,625.855,459.409z"/>
																	</g>
																</g>
															</g>
														</g>
													</g>
												</g>
											</g>
										</g>
									</g>
								</g>
							</g>
						</g>
					</g>
					<g>
						<g>
							<g>
								<g>
									<g>
										<g>
											<g>
												<g>
													<g>
														<g>
															<g>
																<g>
																	<g>
																		<path style="fill:#263238;" d="M605.509,450.058c0.28-0.169-0.336-1.607-0.418-3.453
																			c-0.12-1.845,0.333-3.341,0.036-3.479c-0.256-0.161-1.299,1.367-1.17,3.542
																			C604.068,448.841,605.272,450.246,605.509,450.058z"/>
																	</g>
																</g>
															</g>
														</g>
													</g>
												</g>
											</g>
										</g>
									</g>
								</g>
							</g>
						</g>
					</g>
				</g>
			</g>
		</g>
		<g>
			<g>
				<polygon style="fill:#FFBE9D;" points="363.838,268.254 411.8,279.792 397.114,309.498 354.357,285.267 				"/>
			</g>
			<g>
				<g>
					<g>
						<path style="fill:#FF725E;" d="M347.644,260.943l-8.2-1.574l-11.249,5.303l-4.773,10.6c-0.628,1.394-0.34,3.025,0.717,4.129
							c2.035,2.124,5.352,5.329,7.07,5.598c0,0,0.247,3.727,3.749,3.905c0,0-1.031,1.713,3.056,2.368
							c4.087,0.655,16.841-1.72,16.841-1.72s0.75-2.231-2.744-4.956l4.172-3.363c0,0-0.255-2.661-4.151-3.331l4.182-6.855
							L347.644,260.943z"/>
					</g>
					<g>
						<polygon style="fill:#FF725E;" points="351.411,285.426 365.462,293.962 376.924,270.83 359.299,264.395 348.689,284.944 
													"/>
					</g>
					<g>
						<polygon style="fill:#E0E0E0;" points="329.537,266.163 328.613,268.647 299.317,257.615 295.688,256.678 294.046,255.28 
							295.226,253.044 297.168,253.276 300.331,255.297 						"/>
					</g>
					<g>
						<g>
							<path style="fill:#263238;" d="M352.11,284.594c0.025,0.062-0.889,0.513-2.424,1.111c-1.534,0.598-3.696,1.322-6.136,1.933
								c-2.441,0.608-4.691,0.986-6.326,1.179c-1.636,0.194-2.655,0.226-2.662,0.159c-0.008-0.077,0.995-0.237,2.607-0.523
								c1.613-0.285,3.832-0.717,6.254-1.32c2.421-0.606,4.582-1.268,6.139-1.774C351.12,284.853,352.081,284.523,352.11,284.594z"
								/>
						</g>
					</g>
					<g>
						<g>
							<path style="fill:#FF725E;" d="M332.112,284.548c5.764-0.715,11.443-2.086,16.946-3.987c0.706-0.244,1.418-0.501,2.033-0.935
								c0.616-0.434,1.134-1.07,1.286-1.833"/>
						</g>
						<g>
							<g>
								<path style="fill:#263238;" d="M352.377,277.793c0.026,0.001,0.038,0.333-0.224,0.853c-0.254,0.514-0.858,1.165-1.787,1.605
									c-1.859,0.808-4.465,1.648-7.409,2.445c-2.942,0.786-5.657,1.289-7.63,1.571c-1.975,0.277-3.207,0.348-3.215,0.281
									c-0.009-0.076,1.205-0.276,3.155-0.645c1.949-0.374,4.633-0.93,7.557-1.711c2.912-0.787,5.564-1.584,7.387-2.276
									c0.896-0.375,1.475-0.924,1.768-1.374C352.274,278.092,352.333,277.782,352.377,277.793z"/>
							</g>
						</g>
					</g>
					<g>
						<path style="fill:#455A64;" d="M353.825,280.735l-25.915-9.641l2.694-7.241l25.915,9.642c2,0.744,3.017,2.968,2.274,4.968l0,0
							C358.049,280.461,355.825,281.478,353.825,280.735z"/>
					</g>
					<g>
						<g>
							<path style="fill:#FF725E;" d="M329.06,276.173c6.488-1.321,13.097-2.047,19.716-2.165c0.787-0.014,1.624-0.006,2.29,0.414
								c0.713,0.45,1.09,1.305,1.168,2.145c0.001,0.008,0.002,0.017,0.002,0.025c0.129,1.483-0.924,2.78-2.257,3.443
								c-0.083,0.041,0,0-0.06,0.023"/>
						</g>
						<g>
							<g>
								<path style="fill:#263238;" d="M349.921,280.058c-0.035-0.021,0.353-0.21,0.895-0.684c0.513-0.464,1.292-1.345,1.244-2.613
									c-0.03-0.615-0.241-1.321-0.727-1.837c-0.479-0.532-1.276-0.691-2.124-0.679c-1.733,0.033-3.657,0.11-5.662,0.245
									c-4.017,0.265-7.637,0.714-10.249,1.096c-1.22,0.183-2.253,0.338-3.093,0.464c-0.73,0.113-1.138,0.158-1.145,0.123
									c-0.007-0.035,0.387-0.148,1.107-0.322c0.721-0.169,1.769-0.395,3.072-0.629c2.605-0.477,6.236-0.986,10.273-1.252
									c2.02-0.136,3.938-0.198,5.7-0.206c0.873-0.005,1.858,0.191,2.436,0.865c0.569,0.643,0.766,1.43,0.779,2.121
									c0.011,0.709-0.237,1.321-0.535,1.774c-0.302,0.457-0.646,0.78-0.948,1.006
									C350.336,279.976,349.916,280.102,349.921,280.058z"/>
							</g>
						</g>
					</g>
					<g>
						<g>
							<path style="fill:#FF725E;" d="M364.532,268.865c0,0-8.252-7.33-11.519-9.141c-3.267-1.81-6.225-1.91-8.054-1.455
								c-1.829,0.455-15.43,10.285-15.43,10.285s1.331,3.184,5.84,2.724c4.509-0.461,6.977-3.163,6.977-3.163
								s0.858,4.462,6.43,5.893C355.206,275.659,364.532,268.865,364.532,268.865z"/>
						</g>
						<g>
							<g>
								<path style="fill:#263238;" d="M342.244,259.906c0.016,0.024-0.307,0.28-0.92,0.734c-0.682,0.492-1.57,1.133-2.654,1.915
									c-2.361,1.655-5.568,3.904-9.284,6.509l0.052-0.359c0.694,0.83,1.599,1.547,2.688,1.948
									c1.084,0.408,2.316,0.496,3.536,0.324c2.532-0.378,4.782-1.634,6.527-3.052l0.279-0.226l0.113,0.338
									c0.7,2.102,2.13,3.74,3.67,4.734c1.55,1.011,3.201,1.372,4.549,1.424c1.36,0.05,2.432-0.199,3.141-0.409
									c0.712-0.218,1.08-0.393,1.095-0.36c0.006,0.013-0.08,0.068-0.253,0.162c-0.172,0.096-0.436,0.219-0.79,0.353
									c-0.706,0.263-1.794,0.568-3.2,0.56c-1.392-0.01-3.125-0.345-4.767-1.377c-1.63-1.015-3.155-2.712-3.913-4.931l0.391,0.112
									c-1.795,1.478-4.099,2.786-6.77,3.188c-1.287,0.182-2.612,0.09-3.788-0.358c-1.181-0.439-2.161-1.227-2.892-2.118
									l-0.171-0.208l0.223-0.151c3.758-2.543,7.002-4.739,9.39-6.355c1.117-0.734,2.032-1.335,2.735-1.798
									C341.873,260.093,342.228,259.882,342.244,259.906z"/>
							</g>
						</g>
					</g>
				</g>
				<g>
					<g>
						<path style="fill:#FF725E;" d="M354.304,289.857c0.832-0.771,0.644-2.215-0.092-3.078c-0.736-0.863-1.848-1.291-2.912-1.685
							c0.703-0.215,1.347-0.623,1.842-1.167c0.345-0.379,0.625-0.843,0.665-1.353c0.066-0.836-0.536-1.609-1.276-2.003
							c-0.74-0.394-1.37-0.251-2.204-0.336"/>
					</g>
					<g>
						<g>
							<path style="fill:#263238;" d="M350.327,280.234c0.004-0.037,0.217-0.045,0.602-0.068c0.372-0.009,0.987-0.095,1.676,0.235
								c0.633,0.315,1.423,0.992,1.445,2.084c-0.001,0.534-0.251,1.043-0.584,1.455c-0.336,0.413-0.759,0.772-1.25,1.044
								c-0.274,0.152-0.561,0.271-0.841,0.356l0.014-0.49c0.894,0.333,1.768,0.693,2.436,1.243c0.683,0.529,1.076,1.287,1.152,1.926
								c0.095,0.645-0.07,1.18-0.274,1.471c-0.203,0.297-0.385,0.386-0.4,0.366c-0.077-0.032,0.592-0.609,0.332-1.775
								c-0.118-0.564-0.466-1.168-1.096-1.625c-0.614-0.471-1.436-0.797-2.33-1.121l-0.719-0.26l0.733-0.23
								c0.245-0.077,0.498-0.182,0.739-0.317c0.844-0.477,1.576-1.267,1.606-2.053c0.023-0.8-0.597-1.44-1.137-1.748
								c-0.556-0.321-1.126-0.309-1.51-0.359C350.535,280.33,350.322,280.269,350.327,280.234z"/>
						</g>
					</g>
				</g>
			</g>
			<g>
				<polygon style="fill:#E0E0E0;" points="369.871,268.254 358.704,289.857 362.806,292.349 373.314,269.512 				"/>
			</g>
		</g>
		<g>
			<g>
				<path style="fill:#E0E0E0;" d="M420.533,210.129c0,0,4.492-13.964,12.892-15.124c8.401-1.16,18.393-0.756,25.217,1.74
					c12.293,4.495,63.73,58.871,63.73,58.871s15.614,21.13,10.444,29.404l-43.286,16.392h-36.575c0,0-26.495-34.792-25.915-35.662
					C427.619,264.879,420.533,210.129,420.533,210.129z"/>
			</g>
			<g>
				<g>
					<g>
						<path style="fill:#FF725E;" d="M474.61,352.34c0,0,1.269,87.142,4.23,94.334c2.961,7.191,6.768,12.691,19.459,15.229
							c12.691,2.538,107.87-4.23,107.87-4.23l-4.653-42.725l-67.821-6.217c0,0-0.286-19.165,0.137-28.048
							c0.423-8.883,10.349-25.52,11.61-45.383C546.703,315.436,474.61,352.34,474.61,352.34z"/>
					</g>
					<g>
						<g>
							<path style="fill:#263238;" d="M535.357,407.991c0.035,0.081-1.224,0.638-3.151,1.723c-1.928,1.082-4.496,2.754-7.039,4.968
								c-2.538,2.221-4.541,4.541-5.873,6.305c-1.336,1.763-2.057,2.935-2.132,2.89c-0.031-0.018,0.121-0.328,0.423-0.874
								c0.296-0.549,0.776-1.315,1.412-2.233c1.268-1.836,3.256-4.229,5.828-6.48c2.577-2.244,5.216-3.891,7.206-4.9
								c0.995-0.506,1.819-0.878,2.403-1.098C535.016,408.066,535.343,407.957,535.357,407.991z"/>
						</g>
					</g>
					<g>
						<g>
							<path style="fill:#263238;" d="M523.473,433.257c-0.035-0.008,0.018-0.385,0.146-1.063c0.122-0.679,0.346-1.652,0.661-2.844
								c0.628-2.385,1.701-5.634,3.262-9.066c1.567-3.43,3.316-6.371,4.704-8.41c0.693-1.02,1.281-1.827,1.713-2.365
								c0.428-0.541,0.678-0.829,0.707-0.807c0.067,0.05-0.811,1.293-2.111,3.373c-1.302,2.078-2.985,5.023-4.539,8.425
								c-1.548,3.404-2.666,6.605-3.381,8.951C523.916,431.797,523.554,433.276,523.473,433.257z"/>
						</g>
					</g>
					<g style="opacity:0.3;">
						<g>
							<path d="M475.047,370.838l-0.048,0.357c7.286,5.583,16.427,8.547,25.591,8.021c9.164-0.526,19.522-5.179,26.121-11.559
								C510.508,372.252,491.845,372.056,475.047,370.838z"/>
						</g>
					</g>
					<g>
						<polygon style="fill:#E0E0E0;" points="576.995,412.699 579.515,459.426 594.271,458.482 591.467,414.026 						"/>
					</g>
				</g>
				<g>
					<path style="fill:#FF725E;" d="M437.224,273.414l53.446,25.654l43.195-19.939c0,0,8.08,9.55,9.669,13.52
						c1.589,3.97,2.101,17.522,2.101,17.522l-55.576,7.221h-47.949l-8.685-14.728L437.224,273.414z"/>
				</g>
				<g>
					<path style="fill:#FF725E;" d="M545.047,301.411c-5.076-5.922-73.822,6.512-73.822,6.512s-68.106,2.961-78.259,4.653
						c-10.152,1.692-19.653,19.34-19.653,29.916s9.096,90.766,9.096,90.766l57.564-5.856c-0.423-7.614-6.397-62.371-6.397-62.371
						s52.878,9.307,66.414,7.614c13.537-1.692,35.957-16.921,41.033-24.112C546.1,341.341,550.124,307.333,545.047,301.411z"/>
				</g>
				<g>
					<path style="fill:#455A64;" d="M437.455,309.498c0,0,83.648-10.823,109.83,8.969c0,0,4.892-11.282-2.238-17.055
						s-110.534,3.099-110.534,3.099L437.455,309.498z"/>
				</g>
				<g>
					<g>
						<path style="fill:#263238;" d="M412.693,345.491c0.008-0.035,0.433,0.041,1.2,0.209c0.385,0.078,0.852,0.189,1.381,0.367
							c0.53,0.171,1.147,0.336,1.792,0.614c1.318,0.489,2.829,1.225,4.428,2.177c1.58,0.981,3.237,2.196,4.814,3.658
							c1.56,1.481,2.877,3.058,3.957,4.573c1.051,1.535,1.883,2.996,2.454,4.281c0.319,0.627,0.522,1.232,0.727,1.75
							c0.211,0.516,0.352,0.975,0.454,1.355c0.216,0.754,0.319,1.174,0.284,1.184c-0.102,0.033-0.564-1.642-1.797-4.129
							c-0.606-1.248-1.458-2.667-2.513-4.163c-1.084-1.475-2.389-3.015-3.922-4.471c-1.55-1.437-3.169-2.641-4.71-3.629
							c-1.56-0.958-3.03-1.718-4.314-2.243C414.368,345.95,412.667,345.595,412.693,345.491z"/>
					</g>
				</g>
				<g>
					<g>
						<path style="fill:#263238;" d="M413.785,354.381c0.008-0.035,0.32,0.004,0.88,0.106c0.561,0.097,1.363,0.285,2.344,0.557
							c1.961,0.542,4.622,1.502,7.383,2.942c2.758,1.446,5.065,3.085,6.629,4.386c0.783,0.65,1.395,1.202,1.794,1.607
							c0.403,0.402,0.613,0.636,0.589,0.662c-0.057,0.062-1.001-0.764-2.611-1.98c-1.609-1.217-3.918-2.786-6.642-4.214
							c-2.726-1.422-5.332-2.424-7.249-3.051C414.984,354.767,413.767,354.462,413.785,354.381z"/>
					</g>
				</g>
				<g>
					<g>
						<path style="fill:#263238;" d="M527.868,367.758c0.002,0.009-0.078,0.033-0.235,0.072c-0.188,0.043-0.419,0.096-0.702,0.161
							c-0.661,0.139-1.566,0.33-2.709,0.571c-1.176,0.252-2.619,0.54-4.309,0.795c-1.688,0.265-3.602,0.622-5.74,0.858
							c-1.069,0.133-2.187,0.272-3.351,0.417c-1.166,0.14-2.385,0.223-3.644,0.343c-2.517,0.261-5.218,0.377-8.058,0.538
							c-5.684,0.217-11.943,0.225-18.5-0.082c-13.121-0.656-24.905-2.35-33.38-3.777c-4.238-0.72-7.659-1.355-10.014-1.836
							c-1.144-0.236-2.049-0.422-2.711-0.558c-0.283-0.064-0.514-0.116-0.702-0.158c-0.158-0.039-0.238-0.063-0.236-0.071
							c0.002-0.009,0.085-0.002,0.246,0.019c0.191,0.029,0.425,0.064,0.712,0.107c0.666,0.113,1.577,0.267,2.728,0.462
							c2.366,0.42,5.794,1,10.036,1.672c8.483,1.333,20.254,2.965,33.346,3.62c6.542,0.306,12.784,0.313,18.456,0.122
							c2.833-0.147,5.528-0.247,8.041-0.489c1.257-0.11,2.474-0.183,3.638-0.312c1.163-0.133,2.28-0.26,3.347-0.382
							c2.137-0.211,4.051-0.543,5.74-0.78c1.691-0.227,3.137-0.486,4.318-0.707c1.151-0.2,2.06-0.359,2.726-0.475
							c0.287-0.045,0.521-0.081,0.712-0.111C527.782,367.756,527.866,367.749,527.868,367.758z"/>
					</g>
				</g>
				<g>
					<g>
						<g>
							<path style="fill:#263238;" d="M460.155,353.439c0.005,0.019-0.226,0.104-0.67,0.25c-0.502,0.158-1.148,0.36-1.948,0.611
								c-1.763,0.526-4.198,1.252-7.171,2.139l-0.19,0.057l-0.053-0.196c-1.36-4.995-2.663-11.757-4.037-19.152
								c-1.049-5.619-2.088-10.854-3.189-15.193l-0.068-0.27l0.276-0.008c4.308-0.12,7.879,0.318,10.335,0.76
								c1.23,0.221,2.185,0.442,2.833,0.606c0.647,0.168,0.986,0.274,0.981,0.296c-0.006,0.024-0.356-0.038-1.01-0.163
								c-0.655-0.122-1.615-0.301-2.845-0.484c-2.456-0.365-6.008-0.735-10.278-0.571l0.207-0.278
								c1.153,4.344,2.222,9.588,3.271,15.209c1.375,7.398,2.627,14.154,3.904,19.15l-0.243-0.139
								c2.992-0.818,5.444-1.487,7.219-1.972c0.812-0.21,1.467-0.379,1.977-0.51C459.909,353.47,460.15,353.421,460.155,353.439z"/>
						</g>
					</g>
					<g>
						<g>
							<path style="fill:#263238;" d="M461.687,352.714c-0.036-0.001-0.067-0.411-0.092-1.151c-0.034-0.851-0.075-1.897-0.124-3.132
								c-0.124-2.642-0.409-6.286-1.013-10.273c-0.611-3.988-1.425-7.552-2.094-10.111c-0.322-1.194-0.594-2.205-0.815-3.026
								c-0.197-0.714-0.289-1.115-0.255-1.127c0.034-0.011,0.192,0.368,0.448,1.065c0.26,0.696,0.597,1.717,0.977,2.989
								c0.763,2.544,1.639,6.118,2.254,10.131c0.609,4.012,0.837,7.685,0.867,10.34c0.016,1.328-0.001,2.403-0.042,3.145
								C461.76,352.306,461.723,352.715,461.687,352.714z"/>
						</g>
					</g>
				</g>
				<g style="opacity:0.3;">
					<g>
						<path d="M450.46,356.394c-2.321-10.18-3.891-19.569-6.212-29.748l-0.122-0.102c1.285,11.668,2.334,23.337,3.619,35.005
							c4.403-1.812,8.425-4.545,11.73-7.972C456.471,354.516,453.466,355.455,450.46,356.394z"/>
					</g>
				</g>
				<g>
					<g>
						<g>
							<g>
								<path style="fill:#263238;" d="M423.874,370.721c0.019-0.003,0.071,0.238,0.151,0.699c0.083,0.519,0.19,1.188,0.323,2.016
									c0.265,1.821,0.631,4.335,1.078,7.405l0.029,0.196l-0.201,0.024c-5.139,0.623-12.019,0.933-19.535,1.223
									c-5.712,0.225-11.042,0.496-15.495,0.957l-0.277,0.029l0.032-0.274c0.505-4.28,1.455-7.75,2.247-10.116
									c0.397-1.185,0.754-2.098,1.01-2.715c0.26-0.615,0.414-0.936,0.434-0.928c0.023,0.009-0.089,0.347-0.308,0.976
									c-0.215,0.63-0.532,1.555-0.891,2.745c-0.717,2.378-1.597,5.838-2.052,10.087l-0.245-0.245
									c4.465-0.512,9.808-0.811,15.522-1.036c7.519-0.289,14.385-0.551,19.513-1.092l-0.173,0.221
									c-0.376-3.079-0.684-5.602-0.907-7.428c-0.09-0.834-0.162-1.507-0.219-2.03
									C423.869,370.969,423.855,370.723,423.874,370.721z"/>
							</g>
						</g>
						<g>
							<g>
								<path style="fill:#263238;" d="M423.379,369.1c-0.006,0.035-0.416,0.007-1.153-0.076c-0.846-0.09-1.888-0.201-3.117-0.331
									c-2.632-0.26-6.279-0.506-10.312-0.484c-4.034,0.027-7.678,0.317-10.307,0.608c-1.228,0.145-2.267,0.269-3.112,0.369
									c-0.735,0.091-1.145,0.125-1.152,0.089s0.392-0.137,1.119-0.289c0.726-0.157,1.785-0.342,3.099-0.534
									c2.628-0.386,6.291-0.737,10.35-0.764c4.058-0.022,7.725,0.284,10.357,0.639c1.316,0.176,2.378,0.348,3.105,0.497
									C422.985,368.969,423.385,369.065,423.379,369.1z"/>
							</g>
						</g>
					</g>
					<g style="opacity:0.3;">
						<g>
							<path d="M425.395,380.741c-10.408,0.823-24.787,1.455-35.195,2.279l4.026,2.661c11.732,0.417,34.287-1.386,34.287-1.386
								l-4.6-12.883C424.407,374.522,424.901,377.632,425.395,380.741z"/>
						</g>
					</g>
				</g>
				<g>
					<g>
						<path style="fill:#263238;" d="M506.247,272.348c0.027,0.023-0.252,0.397-0.781,1.053c-0.526,0.658-1.316,1.587-2.314,2.716
							c-1.996,2.257-4.866,5.28-8.246,8.401c-3.384,3.119-6.63,5.736-9.04,7.543c-1.205,0.904-2.195,1.616-2.893,2.087
							c-0.696,0.474-1.091,0.722-1.112,0.693c-0.021-0.029,0.333-0.333,0.992-0.856c0.74-0.588,1.674-1.33,2.788-2.215
							c2.347-1.877,5.542-4.529,8.913-7.635c3.367-3.108,6.267-6.079,8.327-8.267c0.972-1.039,1.787-1.91,2.432-2.6
							C505.889,272.653,506.22,272.324,506.247,272.348z"/>
					</g>
				</g>
				<g>
					<g>
						<path style="fill:#263238;" d="M482.279,271.611c0.068,0.014-0.095,1.194-0.461,3.085c-0.367,1.89-0.952,4.488-1.739,7.32
							c-0.789,2.833-1.631,5.359-2.293,7.168c-0.663,1.808-1.134,2.903-1.199,2.879c-0.07-0.025,0.278-1.164,0.85-2.997
							c0.571-1.834,1.354-4.368,2.14-7.189c0.784-2.821,1.423-5.395,1.881-7.26C481.916,272.751,482.206,271.597,482.279,271.611z"
							/>
					</g>
				</g>
				<g>
					<g>
						<path style="fill:#455A64;" d="M504.415,305.587l-1.665,44.709c-0.281,7.546,5.598,13.896,13.143,14.197l20.043,0.8
							c7.363,0.294,13.641-5.285,14.204-12.632c1.097-14.324,2.084-36.591-1.217-47.074H504.415z"/>
					</g>
					<g>
						<g>
							<path style="fill:#263238;" d="M549.346,309.433c0.004,0.036-0.599,0.137-1.694,0.29c-1.094,0.159-2.685,0.336-4.655,0.506
								c-3.939,0.344-9.409,0.572-15.443,0.325c-6.036-0.255-11.469-0.935-15.366-1.605c-1.949-0.333-3.519-0.641-4.596-0.89
								c-1.078-0.243-1.671-0.394-1.663-0.43c0.007-0.035,0.613,0.049,1.702,0.231c1.087,0.188,2.664,0.44,4.615,0.726
								c3.901,0.575,9.318,1.195,15.33,1.449c6.01,0.245,11.459,0.077,15.395-0.172c1.968-0.123,3.56-0.243,4.66-0.34
								C548.731,309.431,549.342,309.397,549.346,309.433z"/>
						</g>
					</g>
					<g>
						<g>
							<path style="fill:#263238;" d="M549.545,327.115c0.013,0.034-0.526,0.263-1.515,0.649c-0.492,0.199-1.1,0.427-1.821,0.651
								c-0.718,0.229-1.529,0.518-2.45,0.75c-1.826,0.526-4.039,1.01-6.521,1.407c-2.486,0.366-5.242,0.626-8.145,0.67
								c-2.903,0.021-5.666-0.179-8.159-0.49c-2.49-0.342-4.715-0.778-6.551-1.263c-0.926-0.211-1.743-0.482-2.466-0.695
								c-0.725-0.208-1.338-0.423-1.834-0.611c-0.997-0.365-1.541-0.582-1.529-0.615c0.012-0.034,0.579,0.119,1.592,0.423
								c0.505,0.158,1.124,0.344,1.852,0.524c0.727,0.185,1.546,0.43,2.472,0.617c1.836,0.436,4.051,0.831,6.524,1.145
								c2.477,0.282,5.216,0.465,8.094,0.445c2.877-0.043,5.61-0.287,8.08-0.624c2.466-0.368,4.671-0.811,6.497-1.288
								c0.922-0.207,1.735-0.47,2.457-0.671c0.725-0.196,1.34-0.396,1.841-0.565C548.968,327.246,549.532,327.081,549.545,327.115z"
								/>
						</g>
					</g>
				</g>
				<g>
					<g>
						<path style="fill:#263238;" d="M474.437,295.57c0.018,0.031-0.377,0.283-1.107,0.711c-0.726,0.436-1.811,1.008-3.179,1.661
							c-2.731,1.309-6.66,2.83-11.172,3.881c-4.517,1.041-8.715,1.402-11.743,1.427c-1.515,0.015-2.741-0.022-3.585-0.094
							c-0.844-0.064-1.309-0.116-1.307-0.152c0.002-0.036,0.47-0.052,1.314-0.051c0.843,0.01,2.064-0.01,3.568-0.072
							c3.007-0.119,7.159-0.535,11.635-1.566c4.473-1.042,8.384-2.493,11.137-3.708c1.378-0.605,2.483-1.125,3.236-1.504
							C473.991,295.73,474.419,295.539,474.437,295.57z"/>
					</g>
				</g>
				<g>
					<path style="fill:#E0E0E0;" d="M381.756,427.401c-0.059-0.531-1.568-14.196-1.568-14.196l57.948-5.215l1.318,12.989
						L381.756,427.401z"/>
				</g>
			</g>
		</g>
		<g>
			<g>
				<polygon style="fill:#E0E0E0;" points="530.71,338.304 524.483,347.839 528.527,347.839 525.787,356.189 533.615,345.36 
					529.443,345.36 				"/>
			</g>
		</g>
		<g>
			<g>
				<g>
					<g>
						<g>
							<path style="fill:#FFBE9D;" d="M414.474,245.689c0,0-11.647,19.545-11.66,31.81l-55.134,26.855l5.865,16.116
								c0,0,65.482-7.801,69.935-10.182c4.454-2.381,16.119-11.953,19.41-19.431c3.29-7.478,8.515-29.801,8.515-29.801
								L414.474,245.689z"/>
						</g>
						<g>
							<g>
								<path style="fill:#EB996E;" d="M417.31,279.927c-0.052,0.071-0.755-0.425-1.984-1.035c-1.225-0.613-3.01-1.284-5.074-1.595
									c-2.066-0.303-3.969-0.181-5.319,0.048c-1.353,0.226-2.17,0.495-2.199,0.413c-0.021-0.051,0.758-0.448,2.127-0.774
									c1.363-0.329,3.333-0.516,5.468-0.202c2.133,0.322,3.962,1.074,5.171,1.786C416.715,279.278,417.346,279.884,417.31,279.927
									z"/>
							</g>
						</g>
					</g>
				</g>
				<g>
					<g>
						<polygon style="fill:#455A64;" points="306.514,297.76 292.39,313.41 335.297,322.506 334.562,303.178 						"/>
					</g>
					<g>
						<path style="fill:#FF725E;" d="M348.639,303.177c0,0-8.239-1.96-12.211-1.615c-3.973,0.345-21.935,4.361-21.935,4.361
							s-1.382,3.239,3.109,4.62c4.491,1.382,10.536,0,10.536,0s-11.054,8.809-11.227,9.5s-1.555,2.245,0.173,3.454
							c1.727,1.209,6.909,0,6.909,0s0,3.8,1.555,4.836c1.555,1.036,2.936,1.9,2.936,1.9s2.764,2.936,4.491,3.454
							c1.727,0.518,5.182,1.209,5.182,1.209h5.182l13.983-11.831l12.065-2.597l-7.686-23.344L348.639,303.177z"/>
					</g>
					<g>
						<g>
							<path style="fill:#263238;" d="M332.455,320.923c0.061,0.123-1.697,1.083-4.043,1.821c-2.344,0.746-4.333,0.972-4.355,0.836
								c-0.027-0.148,1.891-0.598,4.198-1.332C330.564,321.522,332.392,320.786,332.455,320.923z"/>
						</g>
					</g>
					<g>
						<g>
							<path style="fill:#263238;" d="M356.733,310.927c0.147,0.005,0.169,2.839,0.199,6.331c0.027,3.493,0.051,6.327-0.095,6.334
								c-0.141,0.007-0.398-2.825-0.425-6.33C356.381,313.759,356.592,310.922,356.733,310.927z"/>
						</g>
					</g>
					<g>
						<polygon style="fill:#E0E0E0;" points="354.851,300.298 362.243,322.006 367.275,320.923 358.704,298.512 						"/>
					</g>
				</g>
				<g>
					<g>
						<path style="fill:#E0E0E0;" d="M440.223,198.995c0,0-16.732,4.389-20.023,11.795c-3.292,7.406-13.577,43.696-13.577,43.696
							l44.783,15.812c0,0,5.767-25.776,8.236-35.651C462.11,224.772,469.846,205.853,440.223,198.995z"/>
					</g>
					<g>
						<g>
							<path style="fill:#263238;" d="M406.622,254.486c0.003-0.008,0.086,0.011,0.244,0.057c0.187,0.058,0.416,0.128,0.699,0.216
								c0.65,0.213,1.543,0.506,2.674,0.877c2.357,0.797,5.698,1.928,9.813,3.32c8.312,2.865,19.742,6.804,32.409,11.17
								l-0.342,0.204c0.043-0.264,0.089-0.55,0.135-0.836c2.204-13.413,4.199-25.553,5.651-34.39
								c0.742-4.364,1.346-7.91,1.771-10.412c0.215-1.195,0.384-2.139,0.508-2.827c0.059-0.297,0.106-0.538,0.145-0.733
								c0.036-0.165,0.058-0.248,0.067-0.247c0.009,0.001,0.004,0.088-0.014,0.255c-0.025,0.197-0.056,0.441-0.094,0.741
								c-0.1,0.691-0.237,1.64-0.411,2.842c-0.386,2.508-0.934,6.063-1.608,10.438c-1.413,8.844-3.355,20.992-5.5,34.415
								c-0.046,0.286-0.093,0.572-0.136,0.836l-0.05,0.307l-0.293-0.102c-12.647-4.423-24.059-8.414-32.358-11.317
								c-4.093-1.458-7.415-2.641-9.759-3.476c-1.117-0.41-1.999-0.733-2.642-0.969c-0.276-0.107-0.5-0.194-0.682-0.264
								C406.696,254.53,406.62,254.494,406.622,254.486z"/>
						</g>
					</g>
					<g>
						<g>
							<path style="fill:#263238;" d="M463.038,226.164c0.036,0.006,0.017,0.324-0.048,0.895c-0.061,0.572-0.187,1.395-0.372,2.406
								c-0.369,2.023-1.029,4.796-2.03,7.774c-1.005,2.979-2.156,5.586-3.085,7.421c-0.464,0.918-0.861,1.649-1.158,2.142
								c-0.294,0.494-0.472,0.759-0.503,0.742c-0.07-0.038,0.491-1.176,1.329-3.042c0.839-1.865,1.927-4.474,2.924-7.429
								c0.993-2.956,1.704-5.69,2.163-7.684C462.718,227.397,462.959,226.151,463.038,226.164z"/>
						</g>
					</g>
				</g>
				<g>
					<g>
						<path style="fill:#EB996E;" d="M409.44,255.54c0.013,0.007-0.043,0.147-0.162,0.411c-0.142,0.305-0.32,0.686-0.539,1.155
							c-0.469,1.009-1.157,2.48-1.925,4.371c-1.567,3.761-3.273,9.328-3.755,16.04l-0.01,0.14l-0.13,0.063
							c-3.136,1.516-6.559,3.171-10.124,4.894c-8.521,4.172-16.221,7.982-21.835,10.658c-2.805,1.343-5.085,2.406-6.667,3.129
							c-0.756,0.337-1.363,0.608-1.829,0.816c-0.421,0.181-0.645,0.269-0.653,0.253c-0.008-0.016,0.202-0.135,0.608-0.347
							c0.455-0.23,1.048-0.53,1.786-0.904c1.611-0.801,3.85-1.913,6.593-3.277c5.618-2.786,13.29-6.591,21.768-10.795
							c3.56-1.74,6.991-3.389,10.142-4.87l-0.14,0.202c0.52-6.763,2.311-12.376,3.964-16.118c0.812-1.884,1.545-3.338,2.06-4.326
							c0.248-0.456,0.45-0.826,0.61-1.121C409.347,255.661,409.427,255.533,409.44,255.54z"/>
					</g>
				</g>
			</g>
			<g>
				<g>
					<g>
						<polygon style="fill:#FF725E;" points="435.171,232.587 428.943,242.122 432.988,242.122 430.248,250.472 438.076,239.643 
							433.904,239.643 						"/>
					</g>
				</g>
				<g>
					<g>
						<path style="fill:#FF725E;" d="M437.842,256.166c-0.047,0.136-3.763-1.029-8.298-2.601c-4.537-1.573-8.175-2.958-8.128-3.093
							c0.047-0.136,3.762,1.029,8.299,2.601C434.25,254.645,437.889,256.03,437.842,256.166z"/>
					</g>
				</g>
			</g>
		</g>
	</g>
</g>
<g id="Plugs">
	<g>
		<g>
			<rect x="225.162" y="257.276" style="fill:#455A64;" width="31.38" height="31.381"/>
		</g>
		<g>
			<g>
				<path style="fill:#263238;" d="M251.553,273.005c-0.069,0.005-0.012-0.934-0.426-2.532c-0.41-1.568-1.463-3.868-3.821-5.645
					c-1.169-0.868-2.638-1.603-4.331-1.896c-1.681-0.283-3.576-0.225-5.378,0.464c-0.907,0.317-1.781,0.795-2.584,1.397
					c-0.813,0.591-1.55,1.324-2.157,2.173c-1.256,1.673-1.963,3.822-1.984,6.036c0.02,2.215,0.727,4.365,1.983,6.039
					c0.608,0.849,1.345,1.583,2.158,2.174c0.803,0.603,1.678,1.081,2.585,1.398c1.802,0.69,3.697,0.747,5.378,0.464
					c1.693-0.293,3.162-1.029,4.331-1.897c2.359-1.776,3.411-4.077,3.821-5.644C251.541,273.938,251.484,273,251.553,273.005
					c0,0,0.131,0.935-0.229,2.581c-0.357,1.612-1.381,4.009-3.794,5.888c-1.195,0.918-2.714,1.703-4.475,2.028
					c-1.748,0.314-3.728,0.271-5.621-0.438c-0.952-0.326-1.872-0.821-2.717-1.449c-0.855-0.616-1.631-1.382-2.273-2.271
					c-1.324-1.752-2.073-4.014-2.093-6.341c0.02-2.326,0.77-4.587,2.094-6.339c0.641-0.889,1.418-1.655,2.272-2.271
					c0.845-0.628,1.765-1.123,2.717-1.449c1.893-0.708,3.872-0.752,5.62-0.438c1.761,0.325,3.279,1.11,4.475,2.028
					c2.413,1.879,3.438,4.276,3.795,5.888C251.684,272.069,251.553,273.005,251.553,273.005z"/>
			</g>
		</g>
		<g>
			<path style="fill:#263238;" d="M238.762,272.728c0,0.936-0.759,1.695-1.695,1.695c-0.936,0-1.695-0.759-1.695-1.695
				s0.759-1.694,1.695-1.694C238.003,271.033,238.762,271.792,238.762,272.728z"/>
		</g>
		<g>
			<path style="fill:#263238;" d="M246.993,272.728c0,0.936-0.759,1.695-1.695,1.695c-0.936,0-1.695-0.759-1.695-1.695
				s0.759-1.694,1.695-1.694C246.234,271.033,246.993,271.792,246.993,272.728z"/>
		</g>
		<g>
			<g>
				<path style="fill:#E0E0E0;" d="M230.614,285.635c0,0.817-0.662,1.479-1.479,1.479c-0.817,0-1.479-0.662-1.479-1.479
					c0-0.817,0.662-1.479,1.479-1.479C229.952,284.156,230.614,284.818,230.614,285.635z"/>
			</g>
			<g>
				<g>
					<path style="fill:#263238;" d="M229.778,284.892c0.052,0.138-0.26,0.382-0.548,0.736c-0.297,0.346-0.481,0.697-0.626,0.671
						c-0.14-0.016-0.163-0.539,0.226-1.004C229.218,284.829,229.738,284.758,229.778,284.892z"/>
				</g>
			</g>
			<g>
				<g>
					<path style="fill:#263238;" d="M229.791,286.063c-0.138,0.051-0.381-0.265-0.757-0.521c-0.368-0.269-0.746-0.392-0.744-0.539
						c-0.013-0.141,0.53-0.251,1.045,0.114C229.851,285.479,229.929,286.028,229.791,286.063z"/>
				</g>
			</g>
		</g>
		<g>
			<g>
				<path style="fill:#E0E0E0;" d="M255.072,285.635c0,0.817-0.662,1.479-1.479,1.479c-0.817,0-1.479-0.662-1.479-1.479
					c0-0.817,0.662-1.479,1.479-1.479C254.41,284.156,255.072,284.818,255.072,285.635z"/>
			</g>
			<g>
				<g>
					<path style="fill:#263238;" d="M254.236,284.892c0.052,0.138-0.26,0.382-0.548,0.736c-0.297,0.346-0.481,0.697-0.626,0.671
						c-0.14-0.016-0.163-0.539,0.226-1.004C253.676,284.829,254.196,284.758,254.236,284.892z"/>
				</g>
			</g>
			<g>
				<g>
					<path style="fill:#263238;" d="M254.25,286.063c-0.138,0.051-0.381-0.265-0.757-0.521c-0.368-0.269-0.746-0.392-0.744-0.539
						c-0.013-0.141,0.53-0.251,1.045,0.114C254.31,285.479,254.387,286.028,254.25,286.063z"/>
				</g>
			</g>
		</g>
		<g>
			<g>
				<path style="fill:#E0E0E0;" d="M255.072,260.229c0,0.817-0.662,1.479-1.479,1.479c-0.817,0-1.479-0.662-1.479-1.479
					c0-0.817,0.662-1.479,1.479-1.479C254.41,258.75,255.072,259.412,255.072,260.229z"/>
			</g>
			<g>
				<g>
					<path style="fill:#263238;" d="M254.236,259.486c0.052,0.138-0.26,0.382-0.548,0.736c-0.297,0.346-0.481,0.697-0.626,0.671
						c-0.14-0.015-0.163-0.54,0.226-1.004C253.676,259.423,254.196,259.351,254.236,259.486z"/>
				</g>
			</g>
			<g>
				<g>
					<path style="fill:#263238;" d="M254.25,260.657c-0.138,0.051-0.381-0.264-0.757-0.521c-0.368-0.269-0.746-0.392-0.744-0.539
						c-0.013-0.141,0.53-0.251,1.045,0.114C254.31,260.073,254.387,260.622,254.25,260.657z"/>
				</g>
			</g>
		</g>
		<g>
			<g>
				<path style="fill:#E0E0E0;" d="M230.604,260.229c0,0.817-0.662,1.479-1.479,1.479c-0.817,0-1.479-0.662-1.479-1.479
					c0-0.817,0.662-1.479,1.479-1.479C229.942,258.75,230.604,259.412,230.604,260.229z"/>
			</g>
			<g>
				<g>
					<path style="fill:#263238;" d="M229.768,259.486c0.052,0.138-0.26,0.382-0.548,0.736c-0.297,0.346-0.481,0.697-0.626,0.671
						c-0.14-0.015-0.163-0.54,0.226-1.004C229.208,259.423,229.728,259.351,229.768,259.486z"/>
				</g>
			</g>
			<g>
				<g>
					<path style="fill:#263238;" d="M229.782,260.657c-0.139,0.051-0.381-0.264-0.757-0.521c-0.368-0.269-0.746-0.392-0.744-0.539
						c-0.013-0.141,0.53-0.251,1.045,0.114C229.842,260.073,229.92,260.622,229.782,260.657z"/>
				</g>
			</g>
		</g>
	</g>
	<g>
		<g>
			<rect x="260.569" y="257.276" style="fill:#263238;" width="31.38" height="31.381"/>
		</g>
		<g>
			<g>
				<path style="fill:#455A64;" d="M269.23,257.276c0.045-0.01,0.048,0.337,0.339,0.893c0.281,0.557,0.842,1.304,1.717,2.114
					c1.744,1.634,4.675,3.529,8.45,5.549c1.889,1.012,3.992,2.058,6.27,3.139c1.144,0.534,2.326,1.086,3.543,1.654
					c1.209,0.565,2.509,1.127,3.698,1.944c2.374,1.572,4.629,3.868,5.608,6.912c0.981,2.992,0.741,6.541-0.984,9.442
					c-1.712,2.888-4.634,4.912-7.746,5.493c-3.127,0.604-6.228-0.118-8.817-1.319c-2.621-1.209-4.76-2.961-6.594-4.702
					c-1.831-1.76-3.373-3.546-4.787-5.16c-2.844-3.204-5.294-5.675-6.909-7.453c-0.814-0.883-1.435-1.58-1.846-2.061
					c-0.186-0.223-0.337-0.405-0.461-0.553c-0.101-0.127-0.15-0.195-0.143-0.201c0.007-0.006,0.069,0.05,0.183,0.165
					c0.134,0.139,0.298,0.309,0.499,0.518c0.468,0.486,1.107,1.151,1.916,1.992c1.659,1.735,4.145,4.161,7.038,7.349
					c1.431,1.599,2.984,3.363,4.808,5.091c1.827,1.71,3.94,3.415,6.497,4.58c2.53,1.16,5.534,1.839,8.518,1.254
					c2.965-0.559,5.763-2.502,7.396-5.257c1.644-2.759,1.88-6.158,0.948-9.019c-0.924-2.9-3.081-5.126-5.389-6.671
					c-1.153-0.801-2.405-1.349-3.626-1.928c-1.215-0.577-2.395-1.137-3.536-1.679c-2.275-1.099-4.375-2.168-6.26-3.205
					c-3.767-2.069-6.689-4.023-8.415-5.726c-0.866-0.844-1.415-1.629-1.672-2.216c-0.128-0.295-0.199-0.527-0.215-0.693
					C269.231,257.36,269.221,257.278,269.23,257.276z"/>
			</g>
		</g>
		<g>
			<g>
				<path style="fill:#455A64;" d="M281.666,257.276c0.028,0.011-0.064,0.351-0.315,0.936c-0.246,0.586-0.682,1.407-1.364,2.326
					c-1.352,1.836-3.925,3.931-7.331,4.889c-1.725,0.421-3.42,0.369-4.914,0.175c-1.497-0.208-2.809-0.575-3.881-0.952
					c-1.071-0.382-1.907-0.77-2.463-1.076c-0.557-0.304-0.845-0.506-0.829-0.534c0.042-0.081,1.268,0.6,3.408,1.26
					c1.068,0.327,2.364,0.649,3.826,0.826c1.457,0.164,3.095,0.194,4.725-0.204c3.259-0.918,5.79-2.889,7.169-4.612
					C281.098,258.574,281.57,257.228,281.666,257.276z"/>
			</g>
		</g>
		<g>
			<path style="fill:#455A64;" d="M272.493,271.529c-0.335,0-0.672-0.009-1.012-0.025c-3.935-0.199-7.935-1.811-11.328-3.363
				l0.831-1.818c3.222,1.472,7,3.002,10.598,3.184c3.828,0.191,7.333-0.83,9.854-2.88c2.76-2.247,4.187-5.854,3.55-8.976l1.96-0.4
				c0.793,3.892-0.874,8.181-4.248,10.927C280.022,270.355,276.428,271.529,272.493,271.529z"/>
		</g>
		<g>
			<g>
				<path style="fill:#455A64;" d="M275.064,257.276c0,0-0.116,0.272-0.446,0.721c-0.326,0.451-0.885,1.071-1.733,1.71
					c-0.848,0.64-1.985,1.267-3.265,2.023c-1.275,0.756-2.676,1.734-3.863,3.162c-0.593,0.707-1.116,1.536-1.442,2.475
					c-0.319,0.933-0.411,2.005-0.08,3.012c0.621,2.059,2.843,3.495,5.205,3.82c2.423,0.316,4.969-0.433,7.525-1.255
					c2.55-0.802,5.376-1.721,8.33-1.169c1.462,0.298,2.805,1.04,3.799,2.106c0.999,1.049,1.589,2.545,1.373,3.978
					c-0.186,1.438-1.03,2.645-1.988,3.556c-0.97,0.922-2.084,1.616-3.211,2.172c-4.53,2.23-9.146,2.792-12.905,2.707
					c-3.79-0.078-6.791-0.863-8.785-1.527c-0.992-0.361-1.755-0.658-2.252-0.908c-0.502-0.236-0.762-0.367-0.754-0.383
					c0.008-0.016,0.282,0.083,0.796,0.287c0.508,0.218,1.279,0.483,2.273,0.812c1.999,0.601,4.982,1.322,8.729,1.352
					c3.716,0.038,8.26-0.56,12.683-2.768c1.095-0.546,2.167-1.225,3.083-2.103c0.907-0.869,1.666-1.984,1.826-3.262
					c0.187-1.274-0.328-2.592-1.247-3.561c-0.912-0.978-2.169-1.674-3.519-1.947c-2.772-0.524-5.526,0.344-8.076,1.144
					c-2.56,0.813-5.178,1.589-7.745,1.244c-1.268-0.183-2.46-0.653-3.452-1.36c-0.993-0.7-1.771-1.692-2.1-2.807
					c-0.354-1.107-0.239-2.281,0.113-3.271c0.359-0.999,0.918-1.856,1.54-2.58c1.244-1.459,2.699-2.438,3.998-3.176
					c1.305-0.738,2.442-1.331,3.294-1.936C274.477,258.328,275.007,257.224,275.064,257.276z"/>
			</g>
		</g>
		<g>
			<g>
				<path style="fill:#455A64;" d="M305.721,268.966c0.01,0.028-0.458,0.225-1.336,0.487c-0.877,0.265-2.18,0.552-3.816,0.712
					c-3.259,0.345-7.918-0.072-12.569-2.006c-4.653-1.932-8.28-4.787-10.649-7.025c-1.191-1.124-2.094-2.093-2.692-2.785
					c-0.598-0.691-0.903-1.095-0.878-1.117c0.029-0.026,0.385,0.332,1.026,0.979c0.64,0.647,1.579,1.572,2.792,2.651
					c2.415,2.152,6.027,4.917,10.6,6.816c4.569,1.898,9.124,2.365,12.341,2.12C303.777,269.578,305.694,268.857,305.721,268.966z"/>
			</g>
		</g>
		<g>
			<g>
				<path style="fill:#FF725E;" d="M310.77,264.965c0.116,0.069-0.581,1.317-1.946,2.388c-1.359,1.08-2.735,1.468-2.774,1.339
					c-0.058-0.142,1.166-0.723,2.452-1.748C309.797,265.932,310.646,264.876,310.77,264.965z"/>
			</g>
		</g>
		<g>
			<g>
				<path style="fill:#FF725E;" d="M312.615,270.554c-0.097,0.125-1.358-0.899-3.243-1.338c-1.878-0.47-3.467-0.135-3.496-0.29
					c-0.06-0.119,1.592-0.717,3.618-0.216C311.526,269.189,312.723,270.475,312.615,270.554z"/>
			</g>
		</g>
		<g>
			<g>
				<path style="fill:#FF725E;" d="M308.838,274.243c-0.071-0.046,0.147-0.394,0.208-1.004c0.069-0.6-0.067-1.478-0.586-2.245
					c-0.528-0.771-1.256-1.28-1.792-1.616c-0.542-0.337-0.902-0.527-0.873-0.599c0.024-0.062,0.432,0.005,1.046,0.273
					c0.603,0.267,1.444,0.767,2.05,1.649c0.606,0.894,0.697,1.932,0.518,2.602C309.233,273.99,308.879,274.283,308.838,274.243z"/>
			</g>
		</g>
	</g>
</g>
</svg>
