<?xml version="1.0" encoding="utf-8"?>
<!-- Generator: Adobe Illustrator 27.5.0, SVG Export Plug-In . SVG Version: 6.00 Build 0)  -->
<svg version="1.1" xmlns="http://www.w3.org/2000/svg" xmlns:xlink="http://www.w3.org/1999/xlink" x="0px" y="0px"
	 viewBox="0 0 750 500" style="enable-background:new 0 0 750 500;" xml:space="preserve">
<g id="BACKGROUND">
	<rect style="fill:#FFFCDB;" width="750" height="453.323"/>
</g>
<g id="OBJECTS">
	<g>
		<defs>
			<rect id="SVGID_1_" y="194.886" width="113.429" height="147.583"/>
		</defs>
		<clipPath id="SVGID_00000105395620810508335450000015156696790921813926_">
			<use xlink:href="#SVGID_1_"  style="overflow:visible;"/>
		</clipPath>
		<g style="clip-path:url(#SVGID_00000105395620810508335450000015156696790921813926_);">
			<g>
				<path style="fill:#694D42;" d="M50.855,346.052c0.128-4.367,1.22-42.819,0.124-48.046c-1.057-5.042-7.907-47.841-7.976-48.273
					l-3.932,0.629c0.283,1.766,6.935,43.326,8.011,48.46c0.756,3.607,0.29,30.151-0.207,47.112L50.855,346.052z"/>
				<path style="fill:#694D42;" d="M47.922,296.452l1.295-1.005c-0.579-0.746-14.21-18.298-17.372-21.299
					c-2.312-2.194-4.339-5.345-5.549-7.228c-0.411-0.64-0.737-1.146-0.974-1.463c-0.528-0.79-2.525-8.442-4.149-15.381l-1.596,0.373
					c0.804,3.436,3.5,14.744,4.433,15.99c0.203,0.27,0.514,0.754,0.908,1.367c1.25,1.945,3.344,5.201,5.799,7.531
					C33.789,278.253,47.781,296.271,47.922,296.452z"/>
				<path style="fill:#694D42;" d="M30.47,274.864l1.622-0.241c-0.261-1.758-0.696-6.82,0.415-9.095
					c1.563-3.202-1.016-12.014-1.315-13.008l-1.57,0.472c0.007,0.023,0.705,2.354,1.214,5.01c0.864,4.503,0.495,6.197,0.197,6.806
					C29.472,268.007,30.428,274.586,30.47,274.864z"/>
				<path style="fill:#694D42;" d="M48.587,286.971c0.037-0.17,3.742-17.056,5.768-21.259c0.956-1.983,0.662-5.814-0.873-11.385
					c-1.114-4.045-2.506-7.604-2.52-7.64l-1.526,0.599c1.495,3.811,5.029,14.421,3.442,17.714
					c-2.109,4.375-5.739,20.918-5.893,21.62L48.587,286.971z"/>
			</g>
			<path style="fill:#5E8F4D;" d="M107.288,250.549c-2.669-9.224-10.062-5.668-10.062-5.668c-3.333-5.217-4.588,0.487-4.588,0.487
				c-1.743-7.579-9.962-3.074-9.962-3.074c-5.209-9.585-15.996-2.899-15.996-2.899c0.975-6.252-4.72-5.32-4.72-5.32
				c-0.576-6.587-7.028-4.095-7.028-4.095c-6.337-16.735-20.881,1.7-20.881,1.7c-12.404-2.536-14.28,3.039-15.133,6.772h0
				c-15.639-1.396-16.747,2.941-16.281,5.27c-9.115,2.284-15.39,7.642-11.491,18.627c2.669,8.27,10.062,5.082,10.062,5.082
				c3.333,4.677,4.588-0.437,4.588-0.437c1.743,6.795,9.962,2.756,9.962,2.756c5.209,8.593,15.996,2.599,15.996,2.599
				c-0.975,5.606,4.72,4.769,4.72,4.769c0.576,5.906,7.028,3.671,7.028,3.671c6.337,15.004,20.881-1.525,20.881-1.525
				c12.404,2.273,14.28-2.724,15.133-6.072c8.729,0.698,12.924-0.206,14.852-1.504C104.241,269.375,111.388,263.431,107.288,250.549
				z"/>
		</g>
	</g>
	<g>
		<defs>
			<rect id="SVGID_00000093162503718890702940000009239219464994952880_" x="552.07" y="153.648" width="197.93" height="201.822"/>
		</defs>
		<clipPath id="SVGID_00000066492013645196382860000009449949046400253060_">
			<use xlink:href="#SVGID_00000093162503718890702940000009239219464994952880_"  style="overflow:visible;"/>
		</clipPath>
		<g style="clip-path:url(#SVGID_00000066492013645196382860000009449949046400253060_);">
			<g>
				<path style="fill:#694D42;" d="M685.36,355.903c0.155-5.288,1.477-51.845,0.15-58.174c-1.28-6.104-9.574-57.925-9.658-58.448
					l-4.76,0.762c0.342,2.139,8.396,52.459,9.7,58.675c0.915,4.367,0.352,36.506-0.251,57.043L685.36,355.903z"/>
				<path style="fill:#694D42;" d="M681.808,295.849l1.568-1.217c-0.701-0.903-17.206-22.156-21.034-25.788
					c-2.8-2.656-5.253-6.472-6.719-8.752c-0.498-0.775-0.892-1.387-1.18-1.772c-0.639-0.956-3.058-10.222-5.023-18.623l-1.933,0.452
					c0.974,4.161,4.238,17.853,5.367,19.361c0.246,0.328,0.622,0.913,1.099,1.655c1.514,2.355,4.049,6.297,7.022,9.118
					C664.696,273.813,681.638,295.629,681.808,295.849z"/>
				<path style="fill:#694D42;" d="M660.677,269.71l1.964-0.292c-0.316-2.129-0.842-8.257,0.502-11.012
					c1.892-3.877-1.23-14.546-1.592-15.75l-1.901,0.572c0.008,0.028,0.853,2.85,1.47,6.067c1.046,5.452,0.599,7.503,0.239,8.241
					C659.469,261.407,660.627,269.372,660.677,269.71z"/>
				<path style="fill:#694D42;" d="M682.614,284.369c0.045-0.206,4.531-20.652,6.983-25.74c1.157-2.401,0.802-7.039-1.056-13.785
					c-1.349-4.897-3.034-9.207-3.051-9.25l-1.848,0.725c1.811,4.614,6.089,17.461,4.167,21.448
					c-2.553,5.297-6.949,25.328-7.135,26.178L682.614,284.369z"/>
			</g>
			<path style="fill:#5E8F4D;" d="M751.471,228.704c-3.232-11.168-12.183-6.863-12.183-6.863c-4.036-6.317-5.555,0.59-5.555,0.59
				c-2.11-9.176-12.061-3.722-12.061-3.722c-6.307-11.605-19.368-3.51-19.368-3.51c1.181-7.57-5.715-6.441-5.715-6.441
				c-0.698-7.976-8.51-4.958-8.51-4.958c-7.673-20.262-25.283,2.059-25.283,2.059c-15.019-3.07-17.29,3.679-18.323,8.2h0
				c-18.935-1.69-20.277,3.561-19.713,6.381c-11.037,2.765-18.634,9.253-13.913,22.553c3.232,10.013,12.184,6.153,12.184,6.153
				c4.036,5.663,5.555-0.529,5.555-0.529c2.11,8.227,12.061,3.337,12.061,3.337c6.306,10.404,19.368,3.147,19.368,3.147
				c-1.181,6.787,5.715,5.775,5.715,5.775c0.698,7.151,8.51,4.445,8.51,4.445c7.673,18.166,25.282-1.846,25.282-1.846
				c15.019,2.753,17.29-3.298,18.323-7.352c10.568,0.846,15.648-0.249,17.983-1.821C747.78,251.499,756.435,244.301,751.471,228.704
				z"/>
		</g>
		<g style="clip-path:url(#SVGID_00000066492013645196382860000009449949046400253060_);">
			<g>
				<path style="fill:#694D42;" d="M628.33,375.451c0.128-4.367,1.22-42.819,0.124-48.046c-1.057-5.042-7.907-47.841-7.976-48.273
					l-3.932,0.629c0.283,1.767,6.935,43.326,8.011,48.46c0.756,3.607,0.29,30.151-0.207,47.112L628.33,375.451z"/>
				<path style="fill:#694D42;" d="M625.397,325.851l1.295-1.005c-0.579-0.746-14.211-18.298-17.372-21.298
					c-2.312-2.194-4.339-5.345-5.549-7.228c-0.411-0.64-0.737-1.146-0.974-1.463c-0.528-0.79-2.525-8.442-4.149-15.381l-1.596,0.373
					c0.804,3.436,3.5,14.745,4.433,15.99c0.203,0.271,0.514,0.754,0.908,1.367c1.25,1.945,3.344,5.201,5.799,7.531
					C611.264,307.652,625.256,325.67,625.397,325.851z"/>
				<path style="fill:#694D42;" d="M607.945,304.263l1.622-0.241c-0.261-1.758-0.696-6.82,0.415-9.095
					c1.563-3.202-1.016-12.014-1.315-13.008l-1.57,0.472c0.007,0.023,0.705,2.354,1.214,5.01c0.864,4.503,0.495,6.197,0.197,6.806
					C606.947,297.406,607.903,303.984,607.945,304.263z"/>
				<path style="fill:#694D42;" d="M626.062,316.37c0.037-0.17,3.742-17.056,5.768-21.259c0.956-1.983,0.662-5.814-0.872-11.385
					c-1.114-4.045-2.506-7.604-2.52-7.64l-1.526,0.599c1.495,3.811,5.029,14.421,3.442,17.714
					c-2.109,4.375-5.739,20.918-5.893,21.621L626.062,316.37z"/>
			</g>
			<path style="fill:#5E8F4D;" d="M684.763,279.948c-2.669-9.224-10.062-5.668-10.062-5.668c-3.333-5.217-4.588,0.487-4.588,0.487
				c-1.743-7.578-9.961-3.074-9.961-3.074c-5.209-9.585-15.996-2.899-15.996-2.899c0.975-6.253-4.72-5.32-4.72-5.32
				c-0.576-6.587-7.028-4.095-7.028-4.095c-6.337-16.735-20.881,1.7-20.881,1.7c-12.404-2.536-14.28,3.039-15.133,6.772h0
				c-15.639-1.396-16.747,2.941-16.281,5.27c-9.115,2.284-15.39,7.642-11.491,18.626c2.669,8.27,10.062,5.082,10.062,5.082
				c3.333,4.677,4.588-0.437,4.588-0.437c1.743,6.794,9.961,2.756,9.961,2.756c5.209,8.593,15.996,2.599,15.996,2.599
				c-0.975,5.606,4.72,4.769,4.72,4.769c0.576,5.906,7.028,3.671,7.028,3.671c6.337,15.004,20.881-1.525,20.881-1.525
				c12.404,2.273,14.28-2.724,15.133-6.072c8.729,0.698,12.924-0.206,14.852-1.504C681.716,298.774,688.863,292.829,684.763,279.948
				z"/>
		</g>
	</g>
	<path style="fill:#D19921;" d="M750,348.908c-4.261-0.335-7.4,0.967-7.4,0.967c-10.138-7.478-12.592,1.444-12.592,1.444
		c-6.163-11.335-28.074-3.19-28.074-3.19c-16.098-13.878-44.718-2.004-44.718-2.004c1.582-9.719-13.989-7.424-13.989-7.424
		c-2.764-9.995-20.149-5.198-20.149-5.198c-20.488-24.651-42.505-11.646-42.505-11.646c-5.254-4.829-11.695-2.982-16.437-0.333
		c0,0-36.078-10.205-36.055,6.916c0,0-22.353,0.131-12.776,9.49c0,0-18.113,1.552-25.86,7.395
		c-7.099,0.274-13.915,2.805-13.915,2.805c-16.098-13.878-44.718-2.004-44.718-2.004c1.582-9.719-13.989-7.424-13.989-7.424
		c-2.764-9.995-20.149-5.198-20.149-5.198c-20.488-24.651-42.505-11.646-42.505-11.646c-5.254-4.829-11.695-2.982-16.437-0.333
		c0,0-36.078-10.205-36.055,6.916c0,0-22.353,0.131-12.776,9.49c0,0-29.845,2.555-29.301,13.462
		c-7.55-4.617-15.03-1.515-15.03-1.515c-10.138-7.478-12.592,1.444-12.592,1.444c-6.163-11.335-28.074-3.19-28.074-3.19
		c-16.098-13.878-44.718-2.004-44.718-2.004c1.582-9.719-13.989-7.424-13.989-7.424c-2.764-9.995-20.149-5.198-20.149-5.198
		c-20.488-24.651-42.505-11.646-42.505-11.646c-5.254-4.829-11.695-2.982-16.437-0.333c0,0-36.078-10.205-36.055,6.916
		c0,0-22.353,0.131-12.776,9.49c0,0-9.185,0.787-17.272,3.349v24.501c0.18,0.122,0.36,0.251,0.54,0.368
		c-0.18-0.016-0.36-0.029-0.54-0.044v19.161c0.739,0.251,1.469,0.477,2.188,0.677c-0.745,0.264-1.477,0.541-2.188,0.828v8.602
		c9.203,0.613,12.749-3.182,12.749-3.182l39.141,0.754c0,0-2.221,6.474,0.153,6.659c1.751,0.136,4.698-3.025,5.486-4.607
		c1.375,1.675,6.499,5.019,9.533,3.268c2.443-1.41,0.177-3.242-1.441-4.177c3.124,1.056,11.003,2.599,14.515,1.568
		c4.044-1.187,2.925-2.11,2.925-2.11l90.376,1.741c0,0-5.587,3.674-0.17,3.78c5.416,0.105,5.061-2.811,5.061-2.811
		s2.143,5.064,4.705,3.34c2.562-1.724-0.275-4.129-0.275-4.129l25.98,0.501l28.4,0.547c0,0,20.112,0.718,26.947-5.375
		c-1.357,1.496-0.968,2.818,2.438,3.528c13.042,2.72,17.853-2.476,17.853-2.476l39.141,0.754c0,0-2.22,6.474,0.153,6.659
		c1.751,0.136,4.698-3.025,5.486-4.607c1.375,1.675,6.499,5.019,9.533,3.268c2.443-1.41,0.177-3.242-1.441-4.177
		c3.124,1.056,11.004,2.599,14.515,1.568c4.044-1.187,2.925-2.11,2.925-2.11l90.376,1.741c0,0-5.587,3.674-0.17,3.78
		c5.416,0.105,5.061-2.811,5.061-2.811s2.143,5.064,4.705,3.34c2.562-1.724-0.275-4.129-0.275-4.129l25.98,0.501l28.4,0.547
		c0,0,16.644,0.595,24.796-3.884l16.363,0.315c0,0-2.22,6.474,0.153,6.659c1.751,0.136,4.698-3.025,5.487-4.607
		c1.375,1.675,6.499,5.019,9.533,3.268c2.443-1.41,0.177-3.242-1.441-4.177c3.124,1.056,11.003,2.599,14.515,1.568
		c4.044-1.187,2.925-2.11,2.925-2.11l90.376,1.741c0,0-5.587,3.674-0.17,3.78c5.416,0.105,5.061-2.811,5.061-2.811
		s2.143,5.064,4.705,3.34c2.562-1.724-0.275-4.129-0.275-4.129l25.98,0.501l28.4,0.547c0,0,7.455,0.266,14.83-0.9V348.908z
		 M264.592,390.641c1.883-1.989,2.419-4.645,0.639-8.185c2.915,1.586,5.832,2.721,8.583,3.485
		C269.94,387.314,266.392,389.046,264.592,390.641z"/>
	<rect y="355.47" style="fill:#E3AA24;" width="750" height="144.358"/>
	<path style="fill:#D19921;" d="M750,399.52c0,0-118.168,10.622-164.313,12.082c0,0-133.58-3.059-261.644-0.19
		c0,0,151.197,10.831,196.123,15.391l-50.408,2.166L750,481.421v-50.06l-262.646-17.43L750,416.352V399.52z"/>
	<path style="fill:#D19921;" d="M0,443.94c0,0,361.291,7.521,548.168,10.809l-472.594,4.815l209.789,14.738L0,480.831V443.94z"/>
	<path style="fill:#655F51;" d="M815.193,217.437c0,0,3.219-2.188,6.999,0.491c0.357,0.253,1.105,1.311,0.804,1.583
		c-0.455,0.411-1.083,0.873-1.591,0.856c-0.78-0.027-1.767-1.187-2.028-1.51c-0.047-0.059-0.089-0.097-0.146-0.13
		C818.644,218.387,816.889,217.62,815.193,217.437z"/>
	<path style="opacity:0.23;fill:#42323D;" d="M561.826,384.161c0-4.464-111.809-8.083-249.732-8.083s-249.732,3.619-249.732,8.083
		c0,4.464,111.809,8.083,249.732,8.083c0.63,0,1.255-0.001,1.883-0.001c-10.272,1.356-16.376,3.045-16.376,4.878
		c0,4.464,36.174,8.083,80.797,8.083c44.623,0,80.797-3.619,80.797-8.083c0-2.327-9.842-4.423-25.571-5.898
		C510.099,389.842,561.826,387.197,561.826,384.161z"/>
	<g>
		<g>
			<g>
				<path style="fill:#422F2A;" d="M239.715,269.428c-32.536,0-58.912,26.376-58.912,58.912s26.376,58.912,58.912,58.912
					s58.912-26.376,58.912-58.912S272.251,269.428,239.715,269.428z M239.715,367.206c-21.465,0-38.867-17.401-38.867-38.866
					c0-21.465,17.401-38.867,38.867-38.867s38.867,17.401,38.867,38.867C278.581,349.805,261.18,367.206,239.715,367.206z"/>
				<g>
					<g>
						<rect x="237.263" y="273.653" style="fill:#422F2A;" width="4.904" height="109.373"/>
						
							<rect x="237.263" y="273.653" transform="matrix(-1.836970e-16 1 -1 -1.836970e-16 568.0546 88.625)" style="fill:#422F2A;" width="4.904" height="109.374"/>
					</g>
					<g>
						
							<rect x="237.263" y="273.653" transform="matrix(0.7071 0.7071 -0.7071 0.7071 302.3763 -73.3364)" style="fill:#422F2A;" width="4.904" height="109.374"/>
						
							<rect x="237.263" y="273.653" transform="matrix(-0.7071 0.7071 -0.7071 -0.7071 641.39 391.0071)" style="fill:#422F2A;" width="4.904" height="109.374"/>
					</g>
					<g>
						
							<rect x="237.263" y="273.653" transform="matrix(0.3839 0.9234 -0.9234 0.3839 450.8553 -19.0647)" style="fill:#422F2A;" width="4.904" height="109.374"/>
						
							<rect x="237.263" y="273.653" transform="matrix(-0.9234 0.3839 -0.3839 -0.9234 587.121 539.4775)" style="fill:#422F2A;" width="4.904" height="109.374"/>
					</g>
					<g>
						
							<rect x="237.263" y="273.653" transform="matrix(-0.384 0.9234 -0.9234 -0.384 634.9274 233.0658)" style="fill:#422F2A;" width="4.904" height="109.374"/>
						
							<rect x="237.263" y="273.653" transform="matrix(0.9234 0.3839 -0.3839 0.9234 144.4365 -66.8718)" style="fill:#422F2A;" width="4.904" height="109.374"/>
					</g>
				</g>
				
					<ellipse transform="matrix(0.7071 -0.7071 0.7071 0.7071 -161.9604 265.6724)" style="fill:#422F2A;" cx="239.715" cy="328.34" rx="14.079" ry="14.079"/>
				<circle style="fill:#422F2A;" cx="239.715" cy="328.34" r="6.937"/>
			</g>
			<path style="fill:#422F2A;" d="M239.715,279.77c-26.824,0-48.57,21.745-48.57,48.569c0,26.824,21.745,48.57,48.57,48.57
				s48.57-21.745,48.57-48.57C288.284,301.516,266.539,279.77,239.715,279.77z M239.715,367.206
				c-21.465,0-38.867-17.401-38.867-38.867c0-21.465,17.401-38.866,38.867-38.866s38.867,17.401,38.867,38.866
				C278.581,349.805,261.18,367.206,239.715,367.206z"/>
		</g>
		<g>
			
				<rect x="78.349" y="242.146" transform="matrix(0.972 -0.2349 0.2349 0.972 -61.197 53.0348)" style="fill:#422F2A;" width="227.396" height="82.567"/>
			
				<rect x="82.946" y="297.646" transform="matrix(0.972 -0.2349 0.2349 0.972 -65.5365 54.6465)" style="fill:#855C54;" width="227.396" height="9.612"/>
			<g>
				<path style="fill:#E3AA24;" d="M269.142,139.835c-1.319,3.373-3.184,5.796-4.166,5.411c-0.982-0.384-0.709-3.43,0.609-6.802
					c1.319-3.373,3.184-5.796,4.167-5.411C270.734,133.417,270.461,136.463,269.142,139.835z"/>
				<path style="fill:#E3AA24;" d="M204.375,151.426c-1.319,3.373-3.184,5.796-4.167,5.411c-0.982-0.384-0.709-3.43,0.609-6.802
					c1.319-3.373,3.184-5.796,4.167-5.411C205.967,145.008,205.694,148.053,204.375,151.426z"/>
				<path style="fill:#E3AA24;" d="M197.114,155.814c1.849,3.114,2.612,6.075,1.706,6.613c-0.907,0.538-3.141-1.549-4.99-4.663
					c-1.849-3.114-2.612-6.075-1.706-6.613C193.031,150.613,195.265,152.701,197.114,155.814z"/>
			</g>
			<path style="fill:#E3AA24;" d="M316.525,160.277c-2.737-3.917-12.789-4.324-12.789-4.324
				c-13.921-16.864-24.286-6.006-24.286-6.006c-12.63-7.829-11.603,5.323-11.603,5.323c-10.262-14.278-28.307,2.881-28.307,2.881
				c-20.818-15.241-43.919,8.906-43.919,8.906c-2.172-14.041-16.326-6.745-16.326-6.745c-6.471-13.29-21.424-2.01-21.424-2.01
				c-29.155-29.196-45.454-5.194-45.454-5.194c-6.908-5.394-12.421-1.117-15.99,3.839c0,0-38.702-4.857-32.163,19.142
				c0,0-21.523,6.039-8.718,16.653c0,0-36.234,14.842-19.071,33.161c4.659,4.972,9.315,8.443,13.663,10.788
				c-12.8,1.809-24.26,6.797-12.846,16.764c7.865,6.868,15.614,9.8,21.97,10.558c-6.635,6.065-11.374,13.918-3.717,14.141
				c13.622,0.397,16.287-8.148,16.287-8.148l38.061-9.197c0,0,0.321,9.659,2.682,9.296c1.742-0.268,3.382-5.473,3.541-7.896
				c1.965,1.988,8.182,5.335,10.444,2.084c1.821-2.617-1.063-4.592-2.981-5.48c3.416,0.662,11.608,0.762,14.605-1.604
				c3.451-2.724,2.02-3.725,2.02-3.725l87.882-21.235c0,0-3.993,6.615,1.274,5.344c5.267-1.271,3.814-5.267,3.814-5.267
				s3.996,6.538,5.812,3.451c1.816-3.088-1.837-5.718-1.837-5.718l25.263-6.104l27.617-6.673c0,0,37.902-8.204,19.947-29.454
				c-0.564-0.668-1.113-1.288-1.645-1.862C317.504,180.616,323.46,170.202,316.525,160.277z"/>
			<path style="fill:none;stroke:#655F51;stroke-width:0.5;stroke-miterlimit:10;" d="M109.895,260.808
				c0,0-38.515-63.363-13.467-103.861"/>
			<path style="fill:none;stroke:#655F51;stroke-width:0.5;stroke-miterlimit:10;" d="M179.295,160.311
				c0,0-41.472,42.228-32.754,91.812"/>
			<path style="fill:none;stroke:#655F51;stroke-width:0.5;stroke-miterlimit:10;" d="M239.541,158.15
				c0,0-1.832,47.484,22.873,65.804"/>
		</g>
		<g>
			<path style="fill:#EBE5D8;" d="M563.445,254.472c-5.915-7.23-10.479-33.174-10.546-35.252c-0.102-3.169-4.57-6.482-7.857-8.985
				c-3.286-2.503-11.173-5.384-15.116-5.384c-3.943,0-5.258,3.943-22.017,8.872c-16.759,4.929-19.06-1.314-19.06-1.314
				c0.329-16.102-8.544-24.975-17.745-28.589c-9.201-3.615-15.116,4.929-20.045,13.473c-4.929,8.544-8.215,8.544-40.091,11.501
				c-31.875,2.958-75.252-3.943-79.196-3.943c-3.943,0-13.145,5.915-25.303,10.516c-12.159,4.601-12.159,23.66-8.215,46.196
				c3.943,22.535,24.646,24.456,54.221,31.357c29.575,6.901,48.306,6.901,65.066,5.586c0.498-0.039,1.011-0.078,1.535-0.116
				c0.003,0.001,12.762,5.703,34.448,14.082c21.689,8.38,37.544-14.295,44.445-19.717c6.901-5.422,7.147-9.858,8.38-18.238
				c0.743-5.049,3.331-7.012,5.275-7.781c0.188-0.025,0.387-0.12,0.558-0.059c11.791,4.163,8.215-3.99,12.487-5.115
				c4.272-1.125,13.473,0.796,15.445,0c1.972-0.796,10.516,5.725,17.088,5.068C563.774,265.973,569.361,261.701,563.445,254.472z"/>
			<path style="fill:#655F51;" d="M542.485,213.301c0.575-0.486,0.516-1.381-0.109-1.8c-2.795-1.874-8.738-7.089-4.342-15.441
				c5.62-10.674,14.718-10.174,13.676-10.755c-1.043-0.581-14.781-3.745-20.677,7.962c-4.51,8.955,0.617,17.293,3.02,19.515l0,0
				c2.179,1.512,4.705,2.954,7.724,1.116L542.485,213.301z"/>
			<path style="fill:#EBE5D8;" d="M455.291,347.017c1.438-0.205,3.492-0.698,5.956-1.848c4.929-2.3,18.731-9.53,15.445-14.459
				c-3.286-4.929-23.714-26.189-30.232-29.904s-7.191-13.473-7.191-13.473l39.395-2.3c0,0-5.915,13.802,0,23.332
				c5.915,9.53,12.816,24.975,9.858,27.604c-2.957,2.629-18.074,14.459-21.36,17.745c-3.286,3.286-9.858,2.3-9.858,2.3"/>
			<path style="fill:#EBE5D8;" d="M376.136,279.446c0,0-18.074-4.56-23.989,19.737c-5.915,24.297-3.943,41.714,3.615,48.943
				c7.558,7.229,20.374,25.632,20.374,25.632s7.229,3.943,8.215,8.215c0,0-9.858,1.972-15.116,0c0,0-37.79-50.607-38.448-52.578
				c-0.657-1.972,3.615-30.233-4.601-35.49c-8.215-5.258-24.425-13.825-26.933-28.155
				C296.747,251.419,376.136,279.446,376.136,279.446z"/>
			<path style="fill:#EBE5D8;" d="M276.237,313.293c0,0,4.272-3.615,9.53-16.102c5.258-12.487-3.943-42.391-2.3-51.264
				s18.074-21.36,18.074-21.36v6.893c0,0-13.674,9.778-14.167,16.679C286.881,255.041,300.965,294.645,276.237,313.293z"/>
			<path style="fill:none;stroke:#BF9779;stroke-width:2;stroke-linecap:round;stroke-miterlimit:10;" d="M546.768,247.992
				c0,0-21.432-15.47-36.039-35.135"/>
			<path style="fill:#191919;" d="M563.588,264.428c0,0-2.051-0.094-2.459-1.254c-0.346-0.983,0.385-8.863,1.712-7.027
				c2.821,3.902,2.997,2.877,2.997,2.877C566.487,262.895,563.588,264.428,563.588,264.428z"/>
			<path style="fill:#EBE5D8;" d="M457.961,292.919c0,0-0.329,34.176,0,39.762c0.329,5.586-0.657,30.89,2.957,35.162
				c3.615,4.272,6.572,4.929,9.201,12.487c0,0-7.193,0.329-12.305,0c0,0-5.769-4.929-6.098-9.53c-0.329-4.601,0-18.731-2.3-25.303
				s-3.943-10.516-4.601-12.487c-0.657-1.972-5.548-43.048-5.548-43.048L457.961,292.919z"/>
			<path style="fill:#EBE5D8;" d="M328.815,273.531c0,0-8.911,53.564-8.582,59.151c0.329,5.586-0.657,30.89,2.957,35.162
				c3.615,4.272,6.572,4.929,9.201,12.487c0,0-7.193,0.329-12.305,0c0,0-5.769-4.929-6.098-9.53c-0.329-4.601,0-18.731-2.3-25.303
				c-2.3-6.572-3.943-10.516-4.601-12.487c-0.657-1.972-9.989-78.816-9.989-78.816L328.815,273.531z"/>
			<path style="fill:none;stroke:#655F51;stroke-width:0.5;stroke-miterlimit:10;" d="M521.23,232.783c0,0-1.468,9.366,0,11.83
				c1.468,2.465,20.258,17.057,20.258,17.057"/>
			<path style="fill:#655F51;" d="M282.969,304.66c0,0,3.416,7.754-3.226,18.405c-6.641,10.651-7.268,16.791-7.268,16.791
				l0.752-13.658c0,0-1.629,5.513-2.381,7.894c0,0-3.759-10.275,2.13-19.673C278.867,305.021,282.969,304.66,282.969,304.66z"/>
			<g>
				<path style="fill:#D49985;" d="M529.228,220.331c0,0-19.643,18.408-17.068,18.995c2.575,0.587,12.006-5.033,13.176-6.804
					C526.507,230.751,529.228,220.331,529.228,220.331z"/>
				<path style="fill:#EBE5D8;" d="M512.016,238.414c0.47-3.661,16.553-28.505,16.553-28.505l0.18,10.874L512.016,238.414z"/>
				<path style="fill:none;stroke:#655F51;stroke-width:0.5;stroke-linecap:round;stroke-linejoin:round;stroke-miterlimit:10;" d="
					M528.569,209.909c0,0-16.082,24.844-16.553,28.505"/>
			</g>
			<path style="fill:none;stroke:#655F51;stroke-width:0.5;stroke-linecap:round;stroke-linejoin:round;stroke-miterlimit:10;" d="
				M354.03,293.275c0,0-13.333-3.352-30.096-8.243"/>
			<path style="fill:none;stroke:#655F51;stroke-width:0.5;stroke-linecap:round;stroke-linejoin:round;stroke-miterlimit:10;" d="
				M478.663,308.364c0,0,0.659-7.982-0.986-15.445c-1.645-7.463,3.671-18.512,3.671-26.684"/>
			<path style="fill:none;stroke:#655F51;stroke-width:0.5;stroke-linecap:round;stroke-linejoin:round;stroke-miterlimit:10;" d="
				M442.897,308.76c8.056,3.194,15.793,5.813,18.864,5.511c0,0-10.943-10.637-13.122-12.051c-2.179-1.414-7.734-3.664-9.37-12.259"
				/>
			<g>
				<path style="fill:#655F51;" d="M462.868,369.918L462.868,369.918c-3.76,3.914-10.792,2.617-10.793,2.617
					c1.326,4.024,5.74,7.795,5.74,7.795c5.112,0.329,12.305,0,12.305,0C467.979,374.178,465.621,372.598,462.868,369.918z"/>
				<path style="fill:#655F51;" d="M376.136,373.758c-6.93,1.928-12.397,0.839-12.398,0.839c3.317,4.457,5.497,7.376,5.497,7.376
					c5.258,1.972,15.116,0,15.116,0C383.365,377.702,376.136,373.758,376.136,373.758z"/>
				<path style="fill:#655F51;" d="M324.548,369.328L324.548,369.328c-6.221,2.399-10.613,0.011-10.632,0.001
					c0.021,0.551,0.044,1.061,0.074,1.472c0.329,4.601,6.098,9.53,6.098,9.53c5.112,0.329,12.305,0,12.305,0
					C330.099,373.741,327.557,372.396,324.548,369.328z"/>
			</g>
			<path style="fill:#655F51;" d="M458.105,346.378c-3.131,0.951-5.074,0.762-5.074,0.762c-9.53,15.116-9.969,16.818-9.969,16.818
				c7.897,0.282,13.53-5.688,14.101-7.466l0.14-0.479C457.303,356.013,455.714,349.751,458.105,346.378z"/>
			<path style="fill:none;stroke:#BF9779;stroke-width:2;stroke-linecap:round;stroke-miterlimit:10;" d="M560.787,249.885
				c0,0-7.785-4.523-14.018-1.893c-2.115,0.893-6.206,7.403-5.28,13.678"/>
			<path style="fill:#191919;" d="M546.898,226.767c0.337,1.199,1.227,1.992,1.987,1.771c0.76-0.221,1.103-1.371,0.766-2.569
				c-0.337-1.198-1.227-1.991-1.987-1.771C546.904,224.419,546.561,225.569,546.898,226.767z"/>
		</g>
		<g>
			<g>
				<path style="fill:#855C54;" d="M225.636,274.294c-32.536,0-58.912,26.376-58.912,58.912s26.376,58.912,58.912,58.912
					s58.912-26.376,58.912-58.912S258.172,274.294,225.636,274.294z M225.636,372.072c-21.465,0-38.867-17.401-38.867-38.867
					s17.401-38.866,38.867-38.866c21.465,0,38.866,17.401,38.866,38.866S247.102,372.072,225.636,372.072z"/>
				<g>
					<g>
						<rect x="223.184" y="278.519" style="fill:#855C54;" width="4.904" height="109.374"/>
						
							<rect x="223.184" y="278.519" transform="matrix(-1.836970e-16 1 -1 -1.836970e-16 558.8418 107.5695)" style="fill:#855C54;" width="4.904" height="109.373"/>
					</g>
					<g>
						
							<rect x="223.184" y="278.519" transform="matrix(0.7071 0.7071 -0.7071 0.7071 301.6992 -61.9552)" style="fill:#855C54;" width="4.904" height="109.374"/>
						
							<rect x="223.184" y="278.519" transform="matrix(-0.7071 0.7071 -0.7071 -0.7071 620.797 409.2687)" style="fill:#855C54;" width="4.904" height="109.374"/>
					</g>
					<g>
						
							<rect x="223.184" y="278.519" transform="matrix(0.3839 0.9234 -0.9234 0.3839 446.6722 -3.0692)" style="fill:#855C54;" width="4.904" height="109.374"/>
						
							<rect x="223.184" y="278.519" transform="matrix(-0.9233 0.384 -0.384 -0.9233 561.9151 554.2354)" style="fill:#855C54;" width="4.904" height="109.374"/>
					</g>
					<g>
						
							<rect x="223.184" y="278.519" transform="matrix(-0.384 0.9233 -0.9233 -0.384 619.9368 252.8022)" style="fill:#855C54;" width="4.904" height="109.374"/>
						
							<rect x="223.184" y="278.519" transform="matrix(0.9234 0.384 -0.384 0.9234 145.2301 -61.0944)" style="fill:#855C54;" width="4.904" height="109.374"/>
					</g>
				</g>
				
					<ellipse transform="matrix(0.2334 -0.9724 0.9724 0.2334 -151.0294 474.8414)" style="fill:#422F2A;" cx="225.636" cy="333.206" rx="14.079" ry="14.079"/>
				<path style="fill:#855C54;" d="M225.636,340.143c-3.831,0-6.937-3.106-6.937-6.937c0-3.831,3.106-6.937,6.937-6.937
					c3.831,0,6.937,3.106,6.937,6.937C232.573,337.037,229.467,340.143,225.636,340.143z"/>
			</g>
			<path style="fill:#422F2A;" d="M225.636,284.636c-26.824,0-48.57,21.745-48.57,48.569s21.745,48.569,48.57,48.569
				c26.824,0,48.569-21.745,48.569-48.569S252.46,284.636,225.636,284.636z M225.636,372.072c-21.465,0-38.867-17.401-38.867-38.867
				s17.401-38.866,38.867-38.866s38.866,17.401,38.866,38.866S247.102,372.072,225.636,372.072z"/>
		</g>
	</g>
	<path style="fill:none;stroke:#655F51;stroke-width:0.5;stroke-miterlimit:10;" d="M239.818,148.238"/>
	<path style="fill:#4A6B3E;" d="M48.475,489.951c0,0-19.026-107.931-5.433-101.635c13.593,6.295,13.593,95.362,13.593,95.362
		s18.898-92.66,31.63-83.591c12.733,9.069-25.059,92.458-25.059,92.458s57.651-52.805,61.807-40.462
		c4.157,12.343-56.893,47.746-56.893,47.746H45.472c0,0-23.613-69.101-24.057-78.243C20.972,412.443,36.083,436.897,48.475,489.951z
		"/>
	<path style="fill:#4A6B3E;" d="M523.582,489.951c0,0-19.25-79.211-5.657-72.916c13.593,6.295,13.817,66.642,13.817,66.642
		s17.88-91.028,31.63-83.591c8.411,4.55-25.06,92.458-25.06,92.458s33.864-40.75,33.102-27.748
		c-0.359,6.123-28.188,35.031-28.188,35.031h-22.648c0,0-20.601-33.693-21.044-42.835
		C499.092,447.851,501.805,445.857,523.582,489.951z"/>
	<g>
		<path style="fill:#C98C5F;" d="M316.938,377.275c0,0-6.402,4.349-5.606,5.798c0.796,1.449,6.512,13.232,9.696,15.065
			c3.184,1.833,14.025,1.34,15.121,0.363c1.097-0.977-0.8-2.218-4.928-3.128c-4.764-1.05-3.861-6.499-3.861-6.499L316.938,377.275z"
			/>
		<path style="fill:#C98C5F;" d="M454.301,245.344c0,0-3.664,6.938-1.741,9.154c0,0-24.572,4.898-36.021-1.935
			c0,0-0.969-10.48,9.719-13.319L454.301,245.344z"/>
		<path style="fill:#C98C5F;" d="M407.668,206.621c0,0,18.959,30.635,21.913,33.59c0,0-6.518,13.707-13.043,12.353l-18.35-24.787
			C398.188,227.777,396.588,212.284,407.668,206.621z"/>
		<g>
			<path style="fill:#E3AA24;" d="M460.503,161.983c-0.706,4.688-2.806,27.338-2.765,32.633c0.041,5.295,1.1,146.378,0.672,151.18
				c-0.429,4.801-1.564,55.03-1.564,55.03s-1.488,1.108-2.295,0c0,0,1.364-51.337,1.691-56.138s-0.783-28.438-0.48-34.348
				c0.303-5.909,1.261-13.49,1.084-20.964c-0.176-7.474-1.589-68.264-1.185-80.526c0.404-12.263,3.187-58.655,3.46-64.267
				C459.394,138.971,461.21,157.295,460.503,161.983z"/>
			<path style="fill:#C98C5F;" d="M458.406,240.262c1.587-0.427,3.116,0.838,2.999,2.477c-0.344,4.807-1.209,13.249-3.065,13.868
				c-2.606,0.869-6.516,0.434-6.95-1.52c-0.434-1.955,0.652-11.643,0.869-12.555C452.389,241.983,455.753,240.976,458.406,240.262z"
				/>
			
				<line style="fill:none;stroke:#191919;stroke-width:0.5;stroke-linecap:round;stroke-miterlimit:10;" x1="458.561" y1="244.513" x2="452.56" y2="245.344"/>
			
				<line style="fill:none;stroke:#191919;stroke-width:0.5;stroke-linecap:round;stroke-miterlimit:10;" x1="457.823" y1="248.606" x2="451.518" y2="249.154"/>
			
				<line style="fill:none;stroke:#191919;stroke-width:0.5;stroke-linecap:round;stroke-miterlimit:10;" x1="457.084" y1="252.658" x2="451.518" y2="252.658"/>
			<path style="fill:#C98C5F;" d="M452.856,243.057c0,0,2.919,3.45,1.728,5.033c-1.191,1.583-1.766,2.214-3.328,0.339
				c-1.562-1.875-3.986-4.586-3.481-5.456C448.28,242.103,450.04,239.202,452.856,243.057z"/>
		</g>
		<path style="fill:#422F2A;" d="M353.22,305.097c0,0-3.66,29.279-7.726,32.939c-4.066,3.66-30.905,40.258-30.905,40.258
			s9.76,15.046,14.639,14.233l43.512-50.425l15.859-37.005c0,0,18.706,37.444,19.113,43.731c0.407,6.287,7.32,46.546,7.32,46.546
			l23.992-4.473c0,0-7.726-63.031-8.946-64.657c-1.22-1.627-17.893-35.785-17.893-35.785L353.22,305.097z"/>
		<path style="fill:#4A6B3E;" d="M393.682,192.556c0,0-9.76,4.27-13.115,12.505c-3.355,8.235-35.074,102.476-35.074,102.476
			s23.179,10.573,30.092,9.76l6.913-19.113l3.66,19.157c0,0,25.619-0.045,36.192-4.111c0,0,2.44-67.504-8.133-106.949
			C414.218,206.281,407.305,187.371,393.682,192.556z"/>
		<path style="fill:#C98C5F;" d="M406.154,159.509c7.571-1.307,15.099,2.544,18.836,9.258c0.747,1.343,1.264,2.272,0.994,3.412
			c-0.761,3.21,3.253,19.986-0.015,20.85s-19.458,1.368-25.461-7.782C395.671,177.875,392.05,161.943,406.154,159.509z"/>
		<path style="fill:#C98C5F;" d="M414.925,189.437l-4.221,13.489c0,0-10.489-4.323-13.719-10.522l5.502-11.858L414.925,189.437z"/>
		<path style="fill:#542E1C;" d="M413.253,161.873c0,0-0.585,5.136-3.483,6.312l0.367,10.757c0,0-8.303-1.248-9.628,6.304
			c0,0-7.356-7.429-6.106-17.564C394.402,167.681,402.181,160.451,413.253,161.873z"/>
		<path style="fill:#C98C5F;" d="M401.581,177.747c-0.246,2.673,1.592,5.027,4.105,5.258c2.513,0.231,4.75-1.749,4.996-4.422
			c0.246-2.673-1.592-5.027-4.105-5.258C404.064,173.095,401.827,175.074,401.581,177.747z"/>
		<path style="fill:none;stroke:#191919;stroke-width:0.5;stroke-linecap:round;stroke-miterlimit:10;" d="M405.013,175.976
			c0,0,1.966,0.681,2.266,2.711c0,0-2.824-0.176-1.907,1.327"/>
		<path style="fill:#C98C5F;" d="M425.903,174.046c0,0,0.244,1.717,1.614,3.554c1.37,1.837,1.404,3.734-1.926,4.778L425.903,174.046
			z"/>
		<g>
			<path style="fill:#542E1C;" d="M423.137,170.119c0.365-0.069,0.517-0.537,0.279-0.854c-0.311-0.414-0.836-0.833-1.656-0.723
				c-1.538,0.205-1.83,1.234-1.524,1.699C420.453,170.572,422.169,170.301,423.137,170.119z"/>
			<path style="fill:#191919;" d="M421.796,176.132c0.186,0.66,0.676,1.097,1.095,0.976s0.608-0.755,0.422-1.416
				c-0.186-0.66-0.676-1.097-1.095-0.976C421.799,174.838,421.61,175.472,421.796,176.132z"/>
		</g>
		<path style="fill:#191919;" d="M425.357,183.681c0,0-2.697,1.532-4.969-0.912"/>
		<path style="fill:#EBE5D8;" d="M396.985,180.263c0,0,11.025-12.107,26.913-13.221l-1.026-6.259c0-4.481-6.788-3.573-6.788-3.573
			s-17.948-4.076-22.398,10C393.686,167.21,387.603,173.893,396.985,180.263z"/>
		<path style="fill:none;stroke:#655F51;stroke-width:0.5;stroke-linecap:round;stroke-linejoin:round;stroke-miterlimit:10;" d="
			M393.686,167.21c0,0,9.411-7.939,29.186-6.427c0,0-21.204,1.191-26.664,17.902"/>
		<path style="fill:none;stroke:#655F51;stroke-width:0.5;stroke-linecap:round;stroke-linejoin:round;stroke-miterlimit:10;" d="
			M416.084,157.21c0,0-3.651,2.072-4.346,3.715"/>
		<path style="fill:#C98C5F;" d="M398.108,229.639c0,0-14.288-9.632-19.591-7.452l-5.534,32.241c0,0,7.421,16.755,13.884,8.023
			L398.108,229.639z"/>
		<path style="fill:#C98C5F;" d="M397.879,288.681c0,0-5.574,1.994-6.715,3.123c0,0-18.885-26.527-18.181-37.375
			c0,0,6.38-12.211,15.167-0.13L397.879,288.681z"/>
		<path style="fill:#C98C5F;" d="M418.191,394.784c0,0-0.563,2.685,0.89,3.473c1.453,0.788,16.273-0.847,19.942-1.028
			c3.669-0.182,14.312-0.334,14.706-1.749c0.394-1.415,1.411-1.26-7.763-2.198c-4.854-0.496-6.943-2.382-6.943-2.382
			L418.191,394.784z"/>
		<g>
			<path style="fill:#C98C5F;" d="M404.968,299.38c0,0,0.858,7.694,1.324,8.977c0.466,1.283-2.075,0.693-2.774-0.591
				c-0.699-1.284-1.142-6.75-1.253-6.748C402.153,301.022,404.968,299.38,404.968,299.38z"/>
			<path style="fill:#C98C5F;" d="M403.323,297.162c0,0,4.712,6.143,5.774,7c1.062,0.858-1.418,1.666-2.68,0.928
				c-1.262-0.738-4.467-5.188-4.561-5.128C401.762,300.023,403.323,297.162,403.323,297.162z"/>
			<g>
				<path style="fill:#C98C5F;" d="M397.111,285.831c0,0,6.107,9.524,7.846,13.038c1.112,2.247-1.106,6.981-1.681,9.511
					c-0.576,2.53-3.439,0.358-3.094-2.288c0.345-2.647,0.283-4.506,0.283-4.506l-2.435-3.298c-1.362-0.363-0.037,0.196-3.894-1.333
					c-1.604-0.636-5.264-4.383-4.659-7.348L397.111,285.831z"/>
				<path style="fill:none;stroke:#191919;stroke-width:0.5;stroke-linecap:round;stroke-miterlimit:10;" d="M402.025,296.057
					c0,0,1.925,3.125,2.502,4.622c0.577,1.496-0.104,4.619-0.104,4.619"/>
			</g>
		</g>
		<path style="fill:#422F2A;" d="M311.263,382.084c0,0,10.606,15.154,12.168,15.427c1.562,0.272,0.762-2.716,5.725-2.516
			c4.964,0.2,8.377,2.176,8.028,3.673c-0.349,1.498-14.099,0.525-15.052,0.705c-0.954,0.18-11.919-15.893-11.851-16.302
			C310.35,382.663,311.263,382.084,311.263,382.084z"/>
		<path style="fill:#422F2A;" d="M418.084,396.421c0,0,24.875-1.747,25.692-1.736c0.817,0.011,0.443-1.908,2.554-1.772
			c2.111,0.136,8.389,0.992,8.221,1.772c-0.168,0.78-1.547,2.009-1.785,2.009c-0.238,0-32.664,2.877-34.225,1.777
			C417.693,397.872,418.084,396.421,418.084,396.421z"/>
	</g>
	<circle style="fill:#FFFFFF;" cx="620.591" cy="72.236" r="20.717"/>
	<g>
		<g>
			<path style="fill:#1C1716;" d="M247.62,66.621c-3.802,3.225-7.108,7.543-7.67,12.617c-0.043,0.497-0.773,0.6-0.958,0.145
				c-1.396-3.183-4.741-6.327-8.454-5.017c-0.546,0.087-1.222,0.471-1.737,0.669l-1.63,0.968c1.908-1.745,4.47-3.123,7.129-2.366
				c2.641,0.725,4.463,2.978,5.612,5.357l-0.957,0.145C239.55,73.86,243.193,69.331,247.62,66.621L247.62,66.621z"/>
		</g>
		<g>
			<path style="fill:#1C1716;" d="M189.68,63.638c2.615-0.892,7.782-2.564,8.77,1.265c0,0-0.949-0.145-0.949-0.145
				c0.407-0.733,0.861-1.374,1.364-2.004c1.47-1.835,3.495-3.471,5.909-3.672c-0.767,0.16-1.492,0.442-2.149,0.84
				c-1.922,1.229-3.308,3.209-4.217,5.259c-0.187,0.47-0.919,0.355-0.949-0.145C196.991,61.987,191.807,63.158,189.68,63.638
				L189.68,63.638z"/>
		</g>
		<g>
			<path style="fill:#1C1716;" d="M264.104,79.562c-2.419,1.315-6.573,3.002-6.321,6.22c0.082,0.442-0.491,0.748-0.814,0.447
				c-1.496-1.241-3.442-2.174-5.434-2.084c-0.684-0.011-1.335,0.215-2.01,0.423c2.469-1.807,5.9-0.93,8.102,0.93l-0.812,0.458
				C256.364,82.048,260.993,80.232,264.104,79.562L264.104,79.562z"/>
		</g>
		<g>
			<path style="fill:#1C1716;" d="M573.583,108.859c-2.2,0.386-5.592,0.359-6.405,2.811c-0.089,0.439-0.73,0.51-0.919,0.114
				c-0.737-1.334-1.88-2.591-3.353-3.125c-0.497-0.207-1.04-0.258-1.605-0.316c0.54-0.138,1.131-0.228,1.712-0.125
				c1.796,0.261,3.248,1.573,4.124,3.124l-0.923,0.131c0.135-0.804,0.68-1.493,1.3-1.909
				C569.322,108.42,571.595,108.456,573.583,108.859L573.583,108.859z"/>
		</g>
	</g>
</g>
</svg>
