<svg xmlns="http://www.w3.org/2000/svg" viewBox="0 0 700 550" id="lawyers-arguing-with-each-other"><path fill="#433f43" d="M246.65777,53.1416a21.83258,21.83258,0,1,0-19.64145,19.23495l5.37978,2.86263,1.835-4.83226A21.82324,21.82324,0,0,0,246.65777,53.1416Z"></path><path fill="#ab695d" d="M311.70572,234.25819h76.58856a14.73232,14.73232,0,0,1,14.73232,14.73232v27.689a0,0,0,0,1,0,0H296.9734a0,0,0,0,1,0,0v-27.689a14.73232,14.73232,0,0,1,14.73232-14.73232Z"></path><path fill="#d88a55" d="M413.81041,337.74292s.85752,6.51525.1259,7.24687-10.40533,8.373-13.49441,8.53562-.61174-3.34094,1.78842-5.284,3.3756-6.05771,3.3756-6.05771-2.935-5.76985-2.66753-7.61942S413.81041,337.74292,413.81041,337.74292Z"></path><path fill="#f6a96c" d="M404.66909 253.108s5.36522 35.628 6.09685 53.43088 3.17037 28.0456 3.17037 30.48435-9.755 22.92423-10.60855 22.92423-2.9265.60969-1.951-2.56069 6.34074-19.70385 4.51168-21.74082-3.41425-2.037-3.902 1.37728-.36581 8.90143-3.29231 7.804.12194-19.02223 0-20.72936-1.99164-28.93981-12.88472-51.05113l.56905-19.95659zM300.47815 253.44671s-5.36522 35.628-6.09685 53.43087-3.17037 28.0456-3.17037 30.48435 9.755 22.92424 10.60855 22.92424 2.9265.60968 1.951-2.56069-6.34074-19.70386-4.51168-21.74083 3.41425-2.037 3.902 1.37728.36581 8.90143 3.29231 7.804-.12194-19.02224 0-20.72936 1.99164-28.93981 12.88472-51.05113l-.56905-19.9566z"></path><path fill="#302e30" d="M303.306,371.99216c-3.09259-58.31165,14.38829-98.60672,14.38829-98.60672h69.90759s17.4777,44.68482,15.153,98.60672"></path><line x1="354.886" x2="351.006" y1="344.182" y2="344.182" fill="#302e30"></line><path fill="none" stroke="#433f43" stroke-miterlimit="10" stroke-width=".339" d="M372.45454 296.9923s11.503 131.30938 5.03142 159.59886M330.4509 296.9923s-11.503 131.30938-5.03142 159.59886"></path><path fill="#efe2dd" d="M367.57084,186.76923a57.61424,57.61424,0,0,0,15.71925,5.48719c9.26724,1.82906,14.26668,7.1943,18.29061,17.43705s5.27041,28.08723,6.48978,43.73537l-18.62255.0645-.67066,13.1449s-.19413,6.7472-2.06384,6.7472h-67.502c-1.86971,0-2.48848-6.7472-2.48848-6.7472l-.67066-13.1449-18.62255-.0645c1.21937-15.64814,2.46584-33.49263,6.48978-43.73537s9.02337-15.608,18.29061-17.437a53.182,53.182,0,0,0,15.85186-5.853"></path><path fill="#f6a96c" d="M343.406,173.134s.99679,9.61132-5.344,13.26944c0,0-1.34131,11.21824,9.755,14.9983s20.11968-5.48718,19.75386-14.63249c0,0-6.4196-3.516-5.40467-14.43949Z"></path><path fill="#d88a55" d="M343.44927,175.30583s8.61044,8.474,21.152,8.50544v-.00054c-1.52108-2.23061-2.95549-5.88021-2.435-11.481l-18.76031.80422a17.6695,17.6695,0,0,1,.04333,2.17179Z"></path><path fill="#fea613" d="M383.35495 273.38544h3.14618a2.31288 2.31288 0 002.27623-1.71136l.67049-15.37394v-19.3589S383.01408 258.108 383.35495 273.38544zM316.28474 236.94124V261.6303l.43828 10.04378a2.31261 2.31261 0 002.27607 1.71136h3.37872C322.71867 258.108 316.28474 236.94124 316.28474 236.94124z"></path><line x1="389.448" x2="389.448" y1="253.493" y2="230.357" fill="none" stroke="#433f43" stroke-miterlimit="10" stroke-width=".339"></line><line x1="316.285" x2="316.285" y1="253.493" y2="230.357" fill="none" stroke="#433f43" stroke-miterlimit="10" stroke-width=".339"></line><path fill="#433f43" d="M343.26465,198.99414s-2.54771,221.0158-4.98645,224.91779-44.38522,3.41425-44.38522,0,12.11774-105.73984,12.255-106.58833-10.54672,3.18541-14.937-.22884c-4.18732-3.25638-1.01173-96.76711,18.153-119.33616a14.57155,14.57155,0,0,1,5.39127-3.95605,81.72743,81.72743,0,0,1,15.0687-4.49819s5.852-1.802,8.18728-3.73942C338.01115,185.56494,337.60191,195.10823,343.26465,198.99414Z"></path><path fill="#d88a55" d="M291.33683,338.08163s-.85752,6.51526-.1259,7.24688,10.40533,8.373,13.49441,8.53562.61174-3.34094-1.78842-5.284-3.3756-6.0577-3.3756-6.0577,2.935-5.76985,2.66753-7.61942S291.33683,338.08163,291.33683,338.08163Z"></path><path fill="#f6a96c" d="M302.9807,317.71122l2.6115,3.28893c.02032.0779.04742.17952.07451.31161.71808,3.28215,3.60054,22.79891.78582,23.8557-2.2389.84-2.69278-2.17116-3.001-5.162-.09484-.92131-.17613-1.83923-.2913-2.642a4.09777,4.09777,0,0,0-.95179-2.45907c-.74517-.674-1.79857-.19984-2.95021,1.0805-.6571.73162-.38613,3.34312.28453,6.5372a.13285.13285,0,0,0,.01016.04742c.63,3.01456,1.60551,6.544,2.47939,9.48741.09823.3421.19984.674.29468.99921.64356,2.13051,1.18889,3.85119,1.44293,4.67088.9755,3.17037-1.09744,2.56068-1.951,2.56068-.10161,0-.33194-.29468-.65711-.8163-1.10421-1.76471-3.30247-6.1409-5.35169-10.55775a92.05807,92.05807,0,0,1-4.47443-10.82872v-.00338a3.17418,3.17418,0,0,1-.12532-.71808c0-1.86632,1.426-8.29174,2.4252-19.17466Z"></path><path fill="#302e30" d="M306.148,317.3236s7.6833-82.53659,10.33468-90.58446c0,0-4.20656,8.41368-5.16734,13.16924s-7.885,77.71375-7.885,77.71375S306.43786,316.958,306.148,317.3236Z"></path><path fill="#433f43" d="M362.66584,198.99414s2.54771,221.0158,4.98646,224.91779,44.38522,3.41425,44.38522,0-12.11774-105.73984-12.255-106.58833,10.54673,3.18541,14.93705-.22884S414.5475,212.14532,392.807,196.09122c0,0-2.83218-2.81343-15.13153-5.40983,0,0-7.47169-2.3405-9.807-4.278C367.8685,186.40342,368.32858,195.10823,362.66584,198.99414Z"></path><path fill="#d88a55" d="M414.59367,338.08163s.85752,6.51526.1259,7.24688-10.40533,8.373-13.49441,8.53562-.61175-3.34094,1.78842-5.284,3.3756-6.0577,3.3756-6.0577-2.935-5.76985-2.66753-7.61942S414.59367,338.08163,414.59367,338.08163Z"></path><path fill="#f6a96c" d="M412.29494,318.18881c.99921,10.88292,2.4252,17.30834,2.4252,19.17466a3.17418,3.17418,0,0,1-.12532.71808v.00338a92.06162,92.06162,0,0,1-4.47443,10.82872c-2.04923,4.41685-4.24749,8.793-5.3517,10.55775-.32516.52162-.55549.8163-.6571.8163-.85357,0-2.9265.60969-1.951-2.56068.254-.81969.79936-2.54037,1.44292-4.67088.09484-.32517.19646-.65711.29468-.99921.87389-2.94344,1.84939-6.47285,2.4794-9.48741a.13307.13307,0,0,0,.01016-.04742c.67066-3.19408.94163-5.80558.28452-6.5372-1.15163-1.28034-2.205-1.75454-2.95021-1.0805a4.09777,4.09777,0,0,0-.95179,2.45907c-.11516.80275-.19645,1.72067-.29129,2.642-.30823,2.99085-.76211,6.002-3.001,5.162-2.81472-1.05679.06775-20.57355.78582-23.8557.0271-.13209.0542-.23371.07452-.31161l2.61149-3.28893Z"></path><path fill="#302e30" d="M399.78252,317.3236s-7.6833-82.53659-10.33467-90.58446c0,0,4.20656,8.41368,5.16734,13.16924s7.885,77.71375,7.885,77.71375S399.49264,316.958,399.78252,317.3236Z"></path><path fill="#faf7f7" d="M367.57079,186.76924a8.69585,8.69585,0,0,1-2.05231-1.77455c0,.00025-2.60354,13.10521-12.72215,13.08917-10.11878-.01606-11.88017-14.27259-11.88017-14.27259l-.00016,0a9.15873,9.15873,0,0,1-2.85394,2.59211s-1.34146,11.21824,9.75493,14.99829S367.93663,195.91455,367.57079,186.76924Z"></path><polygon fill="#faf7f7" points="347.521 200.398 342.901 248.796 349.892 249.772 352.689 214.491 355.374 249.772 361.76 247.983 359.104 201.063 347.521 200.398"></polygon><path fill="#f6a96c" d="M367.65741,152.32485a1.23392,1.23392,0,0,0-.49451.11243c-1.71772-8.86295-7.6105-15.39525-14.61882-15.39525-7.02983,0-12.93849,6.57181-14.63587,15.47624a1.28891,1.28891,0,0,0-.65047-.19342,4.90294,4.90294,0,0,0-3.82063,6.66591c1.11554,3.50838,2.2941,6.66591,3.82063,6.66591a1.56535,1.56535,0,0,0,1.12729-.58361c2.1555,7.845,7.68046,13.42768,14.15905,13.42768,6.4417,0,11.9392-5.52006,14.12067-13.29459a1.4704,1.4704,0,0,0,.99266.45052c1.52654,0,2.70526-3.15753,3.8208-6.66591A4.903,4.903,0,0,0,367.65741,152.32485Z"></path><path fill="#433f43" d="M359.20317 156.45039a1.52513 1.52513 0 000-3.04843 1.52513 1.52513 0 000 3.04843zM346.2778 156.45039a1.52513 1.52513 0 000-3.04843 1.52513 1.52513 0 000 3.04843z"></path><path fill="#d88a55" d="M353.13508,157.77139s-2.76222,4.7962,0,4.87749a4.4493,4.4493,0,0,0,1.45355-.1983"></path><path fill="#433f43" d="M355.87024 151.37646a3.00162 3.00162 0 011.26709-1.01678 3.89968 3.89968 0 011.61682-.35284 3.76386 3.76386 0 011.62061.35546 3.19182 3.19182 0 011.26721 1.01416c-.55152-.07629-1.02283-.1994-1.49951-.256a8.40909 8.40909 0 00-1.38514-.098A14.01273 14.01273 0 00355.87024 151.37646zM343.392 151.37646a3.00162 3.00162 0 011.26709-1.01678 3.89968 3.89968 0 011.61682-.35284 3.76378 3.76378 0 011.6206.35546 3.19185 3.19185 0 011.26722 1.01416c-.55152-.07629-1.02283-.1994-1.49952-.256a8.4089 8.4089 0 00-1.38513-.098A14.01273 14.01273 0 00343.392 151.37646z"></path><ellipse cx="369.008" cy="158.933" fill="#d88a55" rx="3.231" ry="1.227" transform="rotate(-81.769 369.008 158.933)"></ellipse><ellipse cx="336.161" cy="158.933" fill="#d88a55" rx="1.227" ry="3.231" transform="rotate(-8.231 336.161 158.933)"></ellipse><path fill="#d8cdca" d="M357.2884,164.7996s-.4497-.04389-.69166-.04389h-8.27817a2.29766,2.29766,0,0,0-.44424.04389h0c-3.1733.04389-9.48931-5.28452-9.48931-5.28452v5.558c1.58128,8.10746,5.52132,11.12161,7.64424,12.18289a9.4836,9.4836,0,0,0,1.01648.42592,3.97639,3.97639,0,0,0,.392.1118v-.00027a18.82046,18.82046,0,0,0,10.28714-.0044l.00017.00467s6.83913-1.37059,9.05285-12.72061v-5.558S360.46186,164.84349,357.2884,164.7996Z"></path><path fill="#d8cdca" d="M338.17,154.198s-.05778,6.00912.34668,6.70248,1.50228,0,1.50228,0-.23112-6.52914,0-6.70248,3.35124-2.369,3.29346-4.56461-.57622-6.6447.00079-7.04916,9.41734-.40446,9.41734-.40446v-7.97364S334.81877,133.62834,338.17,154.198Z"></path><path fill="#d8cdca" d="M366.9524,154.198s.05778,6.00912-.34668,6.70248-1.50228,0-1.50228,0,.23112-6.52914,0-6.70248-3.35123-2.369-3.29345-4.56461.57621-6.6447-.0008-7.04916-9.41734-.40446-9.41734-.40446v-7.97364S370.30364,133.62834,366.9524,154.198Z"></path><path fill="#bb5d4c" d="M349.04172,168.50188s3.25166-4.22717,7.31624,0Z"></path><path fill="#a44f3e" d="M349.04172,168.50188s3.902,5.20266,7.31624,0Z"></path><circle cx="346.278" cy="154.943" r="3.99" fill="none" stroke="#433f43" stroke-miterlimit="10" stroke-width="1.069"></circle><circle cx="358.756" cy="154.943" r="3.99" fill="none" stroke="#433f43" stroke-miterlimit="10" stroke-width="1.069"></circle><path fill="none" stroke="#433f43" stroke-miterlimit="10" stroke-width="1.069" d="M350.09666,153.78686s2.90241-1.68022,4.8408,0"></path><line x1="362.629" x2="367.163" y1="153.998" y2="152.437" fill="none" stroke="#433f43" stroke-linecap="round" stroke-miterlimit="10" stroke-width="1.069"></line><line x1="342.403" x2="337.908" y1="153.998" y2="152.518" fill="none" stroke="#433f43" stroke-linecap="round" stroke-miterlimit="10" stroke-width="1.069"></line><circle cx="90.685" cy="270.022" r="17.181" fill="#ab695d"></circle><circle cx="609.315" cy="270.022" r="17.181" fill="#ab695d"></circle><rect width="534.811" height="162.11" x="82.594" y="291.83" fill="#c38f86"></rect><circle cx="111.38" cy="310.768" r="18.938" fill="#ab695d"></circle><path fill="#ab695d" d="M130.31837,365.30964a18.93066,18.93066,0,0,0-9.8478-16.6139V314.55561H102.29v34.14013a18.96356,18.96356,0,0,0-9.44183,20.53173c5.398,25.6464,9.44182,51.559,9.44183,77.7673v6.945h18.18055v-6.94507c0-26.20831,4.04384-52.12088,9.44183-77.76727A19.006,19.006,0,0,0,130.31837,365.30964Z"></path><circle cx="164.407" cy="310.768" r="18.938" fill="#ab695d"></circle><path fill="#ab695d" d="M183.345,365.30964a18.93064,18.93064,0,0,0-9.8478-16.6139V314.55561H155.31662v34.14013a18.96356,18.96356,0,0,0-9.44183,20.53173c5.398,25.6464,9.44182,51.559,9.44183,77.7673v6.945h18.18055v-6.94507c0-26.20831,4.04384-52.12088,9.44183-77.76727A19.006,19.006,0,0,0,183.345,365.30964Z"></path><circle cx="217.434" cy="310.768" r="18.938" fill="#ab695d"></circle><path fill="#ab695d" d="M236.37157,365.30964a18.93064,18.93064,0,0,0-9.8478-16.6139V314.55561H208.34322v34.14013a18.96356,18.96356,0,0,0-9.44183,20.53173c5.398,25.6464,9.44182,51.559,9.44183,77.7673v6.945h18.18055v-6.94507c0-26.20831,4.04384-52.12088,9.44183-77.76727A19.006,19.006,0,0,0,236.37157,365.30964Z"></path><circle cx="270.46" cy="310.768" r="18.938" fill="#ab695d"></circle><path fill="#ab695d" d="M289.39817,365.30964a18.93064,18.93064,0,0,0-9.8478-16.6139V314.55561H261.36982v34.14013a18.96349,18.96349,0,0,0-9.44182,20.53173c5.398,25.6464,9.44181,51.559,9.44182,77.7673v6.945h18.18055v-6.94507c0-26.20831,4.04384-52.12088,9.44183-77.76727A19.006,19.006,0,0,0,289.39817,365.30964Z"></path><circle cx="323.487" cy="310.768" r="18.938" fill="#ab695d"></circle><path fill="#ab695d" d="M342.42477,365.30964a18.93064,18.93064,0,0,0-9.8478-16.6139V314.55561H314.39643v34.14013a18.96348,18.96348,0,0,0-9.44183,20.53173c5.398,25.6464,9.44181,51.559,9.44182,77.7673v6.945H332.577v-6.94507c0-26.20831,4.04384-52.12088,9.44183-77.76727A19.006,19.006,0,0,0,342.42477,365.30964Z"></path><circle cx="376.513" cy="310.768" r="18.938" fill="#ab695d"></circle><path fill="#ab695d" d="M395.45137,365.30964a18.93064,18.93064,0,0,0-9.8478-16.6139V314.55561H367.423v34.14013a18.96348,18.96348,0,0,0-9.44183,20.53173c5.398,25.6464,9.44181,51.559,9.44182,77.7673v6.945h18.18054v-6.94507c0-26.20831,4.04384-52.12088,9.44183-77.76727A19.006,19.006,0,0,0,395.45137,365.30964Z"></path><circle cx="429.54" cy="310.768" r="18.938" fill="#ab695d"></circle><path fill="#ab695d" d="M448.478,365.30964a18.93065,18.93065,0,0,0-9.84779-16.6139V314.55561H420.44963v34.14013a18.96348,18.96348,0,0,0-9.44183,20.53173c5.398,25.6464,9.44181,51.559,9.44182,77.7673v6.945h18.18055v-6.94507c0-26.20831,4.04383-52.12088,9.44182-77.76727A19.006,19.006,0,0,0,448.478,365.30964Z"></path><circle cx="482.567" cy="310.768" r="18.938" fill="#ab695d"></circle><path fill="#ab695d" d="M501.50457,365.30964a18.93065,18.93065,0,0,0-9.84779-16.6139V314.55561H473.47623v34.14013a18.96348,18.96348,0,0,0-9.44183,20.53173c5.398,25.6464,9.44181,51.559,9.44182,77.7673v6.945h18.18055v-6.94507c0-26.20831,4.04383-52.12088,9.44182-77.76727A19.006,19.006,0,0,0,501.50457,365.30964Z"></path><circle cx="535.593" cy="310.768" r="18.938" fill="#ab695d"></circle><path fill="#ab695d" d="M554.53117,365.30964a18.93065,18.93065,0,0,0-9.84779-16.6139V314.55561H526.50283v34.14013a18.96348,18.96348,0,0,0-9.44183,20.53173c5.398,25.6464,9.44181,51.559,9.44182,77.7673v6.945h18.18055v-6.94507c0-26.20831,4.04383-52.12088,9.44182-77.76727A19.006,19.006,0,0,0,554.53117,365.30964Z"></path><circle cx="588.62" cy="310.768" r="18.938" fill="#ab695d"></circle><path fill="#ab695d" d="M607.55777,365.30964a18.93065,18.93065,0,0,0-9.84779-16.6139V314.55561H579.52943v34.14013a18.96348,18.96348,0,0,0-9.44183,20.53173c5.398,25.6464,9.44182,51.559,9.44183,77.7673v6.945H597.71v-6.94507c0-26.20831,4.04384-52.12088,9.44182-77.76727A19.006,19.006,0,0,0,607.55777,365.30964Z"></path><rect width="534.811" height="18.938" x="82.594" y="294.86" fill="#ab695d"></rect><rect width="534.811" height="25.756" x="82.594" y="425.154" fill="#ab695d"></rect><rect width="552.992" height="25.756" x="73.504" y="276.679" fill="#c38f86" rx="2"></rect><rect width="552.992" height="25.756" x="73.504" y="434.244" fill="#c38f86" rx="2"></rect><path fill="#ab695d" d="M460.61351,248.7759l-27.9241,22.3685a2.99113,2.99113,0,0,0,3.74186,4.66755l27.921-22.37"></path><path fill="#c38f86" d="M471.13067,261.90518a2.18131,2.18131,0,0,1,.33805-3.0602l11.40211-9.12972a2.17708,2.17708,0,0,1,2.72218,3.39829l-11.40214,9.12967a2.17339,2.17339,0,0,1-3.0602-.338Zm0,0"></path><path fill="#ab695d" d="M471.02417,259.20105l-2.38766-2.98554,12.28693-9.84237,2.39194,2.98605Zm12.29121-9.84186"></path><path fill="#c38f86" d="M453.648,240.07906a2.17328,2.17328,0,0,0,3.06016.338l11.401-9.12979a2.17705,2.17705,0,0,0-2.72215-3.39825l-11.401,9.1298a2.17926,2.17926,0,0,0-.338,3.0602Zm0,0"></path><path fill="#ab695d" d="M468.55374,230.9312l2.392,2.98609-12.29012,9.842-2.39306-2.98614Zm-12.29122,9.84193"></path><path fill="#c38f86" d="M458.50626,246.149a1.77771,1.77771,0,0,1,.27559-2.49482l12.03359-9.6355a1.77376,1.77376,0,0,1,2.49157.27523l7.75757,9.68427a1.77441,1.77441,0,0,1-.27511,2.49047l-12.0336,9.63553a1.77364,1.77364,0,0,1-2.49153-.27523l-7.75808-9.68Zm0,0"></path><path fill="#ab695d" d="M456.65518,275.70568a5.44445,5.44445,0,0,1,5.44842-5.44846h28.12929a5.44913,5.44913,0,0,1,5.44842,5.44846v.8014H456.65518Zm0,.8014"></path><path fill="#c38f86" d="M461.7458 264.2343a1.56046 1.56046 0 011.562-1.562h25.71928a1.56171 1.56171 0 011.56352 1.562v6.02292H461.7458zm0 6.02292M260.283 251.71869v-3.078H242.81109v3.06354a8.73617 8.73617 0 002.44739 6.064l3.88848 4.03252-3.9057 4.07358a8.73608 8.73608 0 00-2.43017 6.046v3.078H260.283v-3.06354a8.73576 8.73576 0 00-2.44747-6.064l-3.88848-4.03252 3.90577-4.07366A8.736 8.736 0 00260.283 251.71869z"></path><path fill="#ab695d" d="M244.65812 274.99833l5.748-8.52648a1.248 1.248 0 012.05769-.0174l5.97222 8.54388zM258.436 252.7426l-5.748 8.52649a1.248 1.248 0 01-2.05769.01739l-5.97222-8.54388zM262.60426 250.5125H240.43979a1.87186 1.87186 0 010-3.74372h22.16447a1.87186 1.87186 0 110 3.74372z"></path><path fill="#ab695d" d="M262.60426,276.87007H240.43979a1.87186,1.87186,0,1,1,0-3.74372h22.16447a1.87186,1.87186,0,1,1,0,3.74372Z"></path><path fill="#f6a96c" d="M495.53292,187.619s-43.50111,5.52039-59.42468,8.98372-3.557,12.98205-2.0181,12.69577,22.7399,3.69711,48.15281-.38566l17.52919-5.11166Z"></path><path fill="#f6a96c" d="M436.10824,196.60267c-5.23072-1.16861-10.73609-6.79592-12.18255-8.49373s-20.38793-10.1736-20.98217-9.66734-2.399,1.3113.16054,2.93987,16.10094,9.95667,16.03574,12.45961-1.16878,3.44314-3.53338,1.35549-5.53424-5.98-6.92071-3.48027,17.34868,18.60031,25.40443,17.58214"></path><path fill="#433f43" d="M433.99441,193.04262s-4.38855,18.65875-2.14506,21.53976,40.76128,1.59855,40.76128,1.59855L486.256,181.84717Z"></path><path fill="#66321d" d="M471.50383,480s.63218-5.53159,8.21837-8.53446,10.11491-8.53446,10.11491-8.53446l23.2598.98253.76313,12.2933h1.09754a.878.878,0,0,1,.878.878v2.037a.878.878,0,0,1-.878.878Z"></path><path fill="#f6a96c" d="M493.31412,444.75584s.94827,13.908-3.477,18.17524c0,0,6.22982,1.42241,7.81028,13.27583H513.86s.37463-3.74627-.76313-12.2933c-.33534-2.51913-.56631-5.05106-.6684-7.59036l-.465-11.56741Z"></path><path fill="#d88a55" d="M512.53815,458.35532l.00043-.00394c-.045-.67548-.083-1.3515-.11018-2.02814l-.465-11.5674H493.31408S508.28069,449.91427,512.53815,458.35532Z"></path><polygon fill="#f6a96c" points="467.61 211.714 467.61 216.993 518.721 216.993 518.721 211.677 467.61 211.714"></polygon><path fill="#302e30" d="M467.61037,216.9929S456.9531,308.0706,463.251,346.3426c0,0,8.23575,79.93521,12.1114,106.09583h51.35231s-7.26683-102.70463-5.329-124.02069,8.72021-49.89895,8.23575-64.91708-10.90026-46.50776-10.90026-46.50776Z"></path><path fill="#d88a55" d="M543.32681,275.06714s.85173,6.47125.125,7.19793-10.33505,8.31649-13.40327,8.478-.60762-3.31838,1.77634-5.24827,3.3528-6.0168,3.3528-6.0168-2.91514-5.73088-2.64952-7.568S543.32681,275.06714,543.32681,275.06714Z"></path><path fill="#f6a96c" d="M534.24722,191.00376s5.329,35.38741,6.05567,53.07005,3.149,27.85621,3.149,30.27848-9.68911,22.76943-10.53691,22.76943-2.90673.60557-1.93782-2.5434,6.29792-19.57079,4.48121-21.594-3.39119-2.02322-3.87564,1.368-.36334,8.84132-3.27008,7.7513.12111-18.89378,0-20.58937-1.97819-28.74438-12.79771-50.70638l.5652-19.82183Z"></path><path fill="#433f43" d="M493.04506,77.46963s-11.2636-9.68912-18.046,1.93782c0,0-7.99352,22.285-8.59909,24.22279s-1.74042,9.32578,6.21495,15.74482c0,0-4.58987,21.90149,8.22291,22.88047s37.03557-3.9867,38.36782-4.71338,5.57124-5.329,3.75453-12.717c0,0,6.78238-3.87565-.12111-10.53692,0,0,5.45013-6.419-1.57448-18.40932S513.75554,76.50072,493.04506,77.46963Z"></path><path fill="#efe2dd" d="M478.148,145.23289s-20.95271,18.46987-19.74157,32.27686,5.44937,39.24093,9.2039,39.48315,51.11084,0,51.11084,0l4.60233-25.67615,16.48523-.39251s-5.585-43.20852-31.50336-64.16123Z"></path><path fill="#f6a96c" d="M486.5049,80.37636s-10.81951,3.3912-8.7202,17.92487c0,0-4.42066,5.69236-4.96567,6.23737s-.12112,1.99838,2.78562,2.96729a5.56907,5.56907,0,0,0-.96892,2.42228c0,1.02947.66613,3.63342.66613,4.66289s-.18167,6.66126,3.87565,6.96405,6.419.66613,7.32739,1.57448a9.12589,9.12589,0,0,1,1.45337,8.96243c-1.57448,4.48122-9.81023,13.14087-9.81023,13.14087s16.22927-2.60395,30.15737-18.46988c0,0-7.38795-4.72345-7.02461-18.77266,0,0,6.0557-9.20466.24223-11.50583a3.72583,3.72583,0,0,0-4.84456,3.27008l-3.27007-.24223s0-5.57124-1.81671-6.419S486.14156,87.76432,486.5049,80.37636Z"></path><path fill="#bb5d4c" d="M474.63573,109.92817s2.36173.18167,2.66451,1.57448h-2.66451S473.96961,110.5943,474.63573,109.92817Z"></path><path fill="#a44f3e" d="M477.30024,111.50265a2.51263,2.51263,0,0,1-1.35772,2.18484,1.28177,1.28177,0,0,1-1.61832-1.80242,1.80182,1.80182,0,0,1,.31153-.38242Z"></path><path fill="#433f43" d="M483.41607,143.78453s15.07911-5.03124,24.88934-17.02152c0,0,24.25024,15.83676,31.50336,61.52589s7.25311,75.5751,7.25311,75.5751l-17.44041-.36334.02469,108.27588s-45.80576,2.423-49.43918,1.75652S480.89854,151.7882,483.41607,143.78453Z"></path><path fill="#302e30" d="M529.62147,263.50066s-7.26684-77.26938-10.90026-82.599c0,0,11.99028,25.55438,15.987,82.599Z"></path><path fill="#d88a55" d="M543.406,275.06561s.85172,6.47125.125,7.19794-10.33506,8.31649-13.40328,8.478-.60761-3.31838,1.77634-5.24827,3.35281-6.0168,3.35281-6.0168-2.91514-5.73088-2.64952-7.568S543.406,275.06561,543.406,275.06561Z"></path><polygon fill="#faf7f7" points="551.099 259.302 571.931 288.692 525.464 324.081 504.591 295.959 551.099 259.302"></polygon><line x1="515.515" x2="527.395" y1="297.168" y2="313.4" fill="none" stroke="#302e30" stroke-miterlimit="10" stroke-width=".673"></line><line x1="526.684" x2="538.564" y1="294.11" y2="310.341" fill="none" stroke="#302e30" stroke-miterlimit="10" stroke-width=".673"></line><line x1="530.32" x2="542.2" y1="291.691" y2="307.923" fill="none" stroke="#302e30" stroke-miterlimit="10" stroke-width=".673"></line><line x1="533.451" x2="545.331" y1="289.053" y2="305.284" fill="none" stroke="#302e30" stroke-miterlimit="10" stroke-width=".673"></line><line x1="536.899" x2="548.779" y1="286.526" y2="302.757" fill="none" stroke="#302e30" stroke-miterlimit="10" stroke-width=".673"></line><line x1="537.512" x2="549.392" y1="273.107" y2="289.338" fill="none" stroke="#302e30" stroke-miterlimit="10" stroke-width=".673"></line><line x1="541.122" x2="553.002" y1="270.559" y2="286.791" fill="none" stroke="#302e30" stroke-miterlimit="10" stroke-width=".673"></line><path fill="#f6a96c" d="M542.17962,263.76229c.99246,10.80942,1.352,8.73629,1.352,10.59a3.15219,3.15219,0,0,1-.12448.71323v.00337a91.43779,91.43779,0,0,1-4.44421,10.75559c-2.03538,4.387-4.2188,8.73366-5.31555,10.48645-.323.5181-.55174.81079-.65267.81079-.8478,0-2.90674.60557-1.93783-2.5434.25232-.81415.794-2.5232,1.43319-4.63933.09419-.323.19512-.65267.29269-.99246.868-2.92356,1.83689-6.42914,2.46265-9.42334a.13206.13206,0,0,0,.01009-.0471c.66613-3.17251.93527-5.76637.2826-6.49306-1.14385-1.27169-2.19014-1.74269-2.93029-1.0732a4.07018,4.07018,0,0,0-.94536,2.44246c-.11438.79734-.19512,1.70906-.28932,2.62414-.30615,2.97066-.757,5.9615-2.98075,5.12716-2.79572-1.04966,1.1-12.24108,1.81318-15.50107.02692-.1312.05383-.23213.074-.30951l2.17041-2.73342Z"></path><polygon fill="#faf7f7" points="523.222 281.275 533.451 273.212 533.451 279.568 527.845 288.208 523.222 281.275"></polygon><path fill="#faf7f7" d="M508.30539,126.763a9.7597,9.7597,0,0,1-1.60625-1.42315c-6.572,8.87158-25.86123,16.91566-25.86131,16.91566-1.53118,1.75907-2.68978,2.97735-2.68978,2.97735S494.37732,142.62894,508.30539,126.763Z"></path><path fill="#faf7f7" d="M479.72252,144.56676s-8.72172,23.17446-12.11215,36.33485a63.33735,63.33735,0,0,0-6.3502-3.14963l16.88788-32.5191Z"></path><path fill="#433f43" d="M482.12231 100.45321a1.51483 1.51483 0 000-3.02785 1.51483 1.51483 0 000 3.02785zM479.43457 96.38257a2.98058 2.98058 0 01.82935-1.38422 3.87121 3.87121 0 011.384-.88659 3.738 3.738 0 011.63208-.22822 3.16993 3.16993 0 011.53.50727c-.5398.11926-1.02124.1673-1.48486.279a8.35005 8.35005 0 00-1.324.3866A13.927 13.927 0 00479.43457 96.38257z"></path><path fill="#fac600" d="M501.03858,109.66576a1.51483,1.51483,0,0,0,0-3.02785,1.51483,1.51483,0,0,0,0,3.02785Z"></path><ellipse cx="500.372" cy="101.83" fill="#d88a55" rx="1.877" ry="2.89"></ellipse><path fill="#d88a55" d="M487.59784,132.95752c3.13668-1.38443,7.8695-7.40566,7.8695-7.40566-2.86637-.60556-8.9624-2.42228-8.9624-2.42228a9.37783,9.37783,0,0,1,1.0929,9.82794Z"></path><path fill="#302e30" d="M262.32992,480s-.652-5.70516-8.47624-8.80225-10.4323-8.80225-10.4323-8.80225l-23.98963,1.01336-.78707,12.679h.2264a.90558.90558,0,0,0-.90558.90558v2.101a.90558.90558,0,0,0,.90558.90558Z"></path><path fill="#f6a96c" d="M244.43481,442.1929s-5.57756,15.80148-1.01343,20.2026c0,0-3.239.61573-4.86907,12.84107l-19.90763.85132s-.38638-3.86381.78707-12.679c.34587-2.59817.58409-5.20954.68937-7.82852L221.7944,443.577Z"></path><path fill="#d88a55" d="M220.00805,457.67617l-.00045-.00406c.04643-.69668.08557-1.39391.11364-2.09178l.47955-11.93036h19.23453S224.3991,448.97026,220.00805,457.67617Z"></path><path fill="#302e30" d="M239.47118,470.07609s-19.47783-2.61212-19.665-9.9239c0,0-.6876.29518-1.29223,1.8433a8.40818,8.40818,0,0,0-.54843,3.06127V480H240.464Z"></path><polygon fill="#f6a96c" points="266.233 211.029 266.233 216.322 214.992 216.322 214.992 210.992 266.233 211.029"></polygon><path fill="#302e30" d="M266.23331,216.32162s10.68448,91.31015,4.37047,129.67984c0,0-8.25676,80.13924-12.1423,106.36662H206.97809s7.28539-102.96677,5.34262-124.33723-8.74246-50.02631-8.25677-65.08277S214.992,216.32162,214.992,216.32162Z"></path><path fill="#d88a55" d="M190.32362,274.54407s-.85391,6.48777-.12537,7.21631,10.36144,8.33772,13.43749,8.49962.60917-3.32685-1.78087-5.26167-3.36137-6.03216-3.36137-6.03216,2.92258-5.74551,2.65628-7.58727S190.32362,274.54407,190.32362,274.54407Z"></path><path fill="#f6a96c" d="M199.42638,190.26614s-5.34259,35.47773-6.07113,53.2055-3.157,27.92731-3.157,30.35577S199.9121,296.655,200.76206,296.655s2.91415.60711,1.94277-2.54989-6.314-19.62075-4.49265-21.64912,3.39984-2.02838,3.88553,1.37147.36427,8.86388,3.27843,7.77108-.12143-18.942,0-20.64193,1.98324-28.81774,12.83037-50.83579l-.56664-19.87242Z"></path><path fill="#efe2dd" d="M255.66875,144.37844s8.6733,11.89451,10.56456,34.48827c1.1591,13.847,3.76412,37.21206,0,37.45491s-51.2413,0-51.2413,0l-4.61407-25.7417-16.5273-.3935s5.59922-43.31881,31.58376-64.325Z"></path><path fill="#f6a96c" d="M247.29055,79.35638S258.13768,82.75623,256.033,97.327c0,0,4.43194,5.70688,4.97834,6.25329s.12142,2.00348-2.79273,2.97486a5.58332,5.58332,0,0,1,.97139,2.42846c0,1.0321-.66783,3.6427-.66783,4.67479s.18213,6.67827-3.88554,6.98183-6.43542.66783-7.3461,1.5785a9.14921,9.14921,0,0,0-1.45707,8.98531c1.5785,4.49265,9.83527,13.1744,9.83527,13.1744s-16.2707-2.61059-30.23435-18.517c0,0,6.43542-4.54925,6.07115-18.63432,0,0-5.04136-12.74943.78695-15.05647a10.2496,10.2496,0,0,1,4.79852,6.61345l-3.70341-14.06073A61.41191,61.41191,0,0,1,247.29055,79.35638Z"></path><path fill="#433f43" d="M250.38727,142.92638s-15.1176-5.04407-24.95287-17.065c0,0-24.31213,15.87719-31.58376,61.68293s-7.27163,75.768-7.27163,75.768l17.48493-.36427-.02476,108.55223s45.92268,2.42921,49.56537,1.761S252.91123,150.95049,250.38727,142.92638Z"></path><path fill="#302e30" d="M204.06394,262.94808s7.28538-77.4666,10.92807-82.80988c0,0-12.02088,25.61961-16.02784,82.80988Z"></path><path fill="#d88a55" d="M190.24424,274.54254s-.8539,6.48777-.12537,7.21631,10.36144,8.33772,13.43749,8.49962.60917-3.32685-1.78087-5.26167-3.36137-6.03216-3.36137-6.03216,2.92259-5.74551,2.65629-7.58728S190.24424,274.54254,190.24424,274.54254Z"></path><polygon fill="#faf7f7" points="182.532 258.739 161.647 288.204 208.232 323.683 229.158 295.489 182.532 258.739"></polygon><line x1="218.207" x2="206.296" y1="296.702" y2="312.974" fill="none" stroke="#302e30" stroke-miterlimit="10" stroke-width=".675"></line><line x1="207.009" x2="195.099" y1="293.636" y2="309.908" fill="none" stroke="#302e30" stroke-miterlimit="10" stroke-width=".675"></line><line x1="203.364" x2="191.454" y1="291.211" y2="307.483" fill="none" stroke="#302e30" stroke-miterlimit="10" stroke-width=".675"></line><line x1="200.225" x2="188.314" y1="288.565" y2="304.838" fill="none" stroke="#302e30" stroke-miterlimit="10" stroke-width=".675"></line><line x1="196.768" x2="184.857" y1="286.032" y2="302.304" fill="none" stroke="#302e30" stroke-miterlimit="10" stroke-width=".675"></line><line x1="196.154" x2="184.243" y1="272.579" y2="288.851" fill="none" stroke="#302e30" stroke-miterlimit="10" stroke-width=".675"></line><line x1="192.534" x2="180.624" y1="270.025" y2="286.298" fill="none" stroke="#302e30" stroke-miterlimit="10" stroke-width=".675"></line><path fill="#f6a96c" d="M201.22822,263.00716l2.176,2.74039c.02024.07758.04722.17877.0742.31031.715,3.2683,4.62067,14.48829,1.81782,15.54063-2.22946.83647-2.68143-2.162-2.98836-5.14025-.09444-.91742-.17539-1.83146-.29007-2.63083a4.08049,4.08049,0,0,0-.94777-2.4487c-.742-.6712-1.791-.199-2.93776,1.07594-.65434.72854-.38451,3.329.28332,6.50963a.13231.13231,0,0,0,.01012.04722c.62735,3.00185,1.59873,6.51637,2.46893,9.44739.09781.34066.199.6712.29344.995.64084,2.12154,1.18388,3.83495,1.43684,4.65118.97138,3.157-1.09281,2.54989-1.94277,2.54989-.10119,0-.33054-.29344-.65433-.81286-1.09956-1.75726-3.28855-6.115-5.32913-10.51322a91.672,91.672,0,0,1-4.45555-10.783v-.00337a3.16072,3.16072,0,0,1-.1248-.71505c0-1.85845.36044.22,1.35543-10.617Z"></path><polygon fill="#faf7f7" points="210.48 280.768 200.225 272.684 200.225 279.057 205.845 287.718 210.48 280.768"></polygon><path fill="#faf7f7" d="M225.43443,125.86143a9.784,9.784,0,0,0,1.61034-1.42678c6.58878,8.89422,25.92724,16.95883,25.92732,16.95883,1.53508,1.76357,2.69665,2.985,2.69665,2.985S239.39805,141.76784,225.43443,125.86143Z"></path><path fill="#faf7f7" d="M254.09025,143.71061s.54342,30.04169,3.94251,43.23567a63.49743,63.49743,0,0,1,6.36641-3.15766l-8.73043-39.41018Z"></path><path fill="#433f43" d="M251.68433 99.48447a1.51869 1.51869 0 000-3.03557 1.51869 1.51869 0 000 3.03557zM255.00317 94.432a13.95628 13.95628 0 00-2.87487-.3526 8.37 8.37 0 00-1.37928.09765c-.47473.0564-.94409.179-1.49316.25495a3.17813 3.17813 0 011.26184-1.00989 3.74645 3.74645 0 011.61377-.35394 3.88248 3.88248 0 011.61.35137A2.988 2.988 0 01255.00317 94.432z"></path><ellipse cx="233.388" cy="100.865" fill="#d88a55" rx="1.882" ry="2.898"></ellipse><path fill="#d88a55" d="M246.19483,132.07175c-3.14469-1.388-7.88959-7.42456-7.88959-7.42456,2.87369-.60711,8.98527-2.42847,8.98527-2.42847a9.40185,9.40185,0,0,0-1.09568,9.853Z"></path><path fill="#433f43" d="M253.19607,83.76377s-12.58878-1.44912-11.92537.87282,3.64876,4.80973,1.65853,7.62923a17.31277,17.31277,0,0,0-2.48779,6.8h-3.42289s-1.05514-5.639-4.3722-3.98047-3.23279,9.19426-.91085,11.01864c0,0-.01976,10.71556-1.41522,11.476,0,0-11.20079-18.17463-11.78906-21.44281-.72854-4.04744.18348-14.98345,11.2127-17.80295S249.29852,78.12477,253.19607,83.76377Z"></path><path fill="#433f43" d="M237.091,98.78408l1.44-1.40552,1.83843,1.16267s9.55288,11.454,13.49693,10.03607c1.96794-1.55517,5.54259-.8538,5.54259-.8538s1.59854,6.6772,0,10.25089c-1.09347,2.44419-6.61644,3.16315-9.99847,3.37346a8.20746,8.20746,0,0,1-5.35374-1.55307C240.2328,117.00184,234.00511,110.45715,237.091,98.78408Z"></path><path fill="#bb5d4c" d="M259.19,108.98361s-2.36775.18214-2.67131,1.5785H259.19S259.85784,109.65144,259.19,108.98361Z"></path><path fill="#a44f3e" d="M256.51871,110.56211a2.519,2.519,0,0,0,1.36119,2.19042,1.285,1.285,0,0,0,1.62244-1.807,1.80672,1.80672,0,0,0-.31232-.3834Z"></path><line x1="461.31" x2="438.517" y1="112.627" y2="103.869" fill="none" stroke="#433f43" stroke-miterlimit="10"></line><line x1="462.757" x2="441.73" y1="127.594" y2="140.14" fill="none" stroke="#433f43" stroke-miterlimit="10"></line><line x1="456.032" x2="441.73" y1="119.505" y2="120.018" fill="none" stroke="#433f43" stroke-miterlimit="10"></line><path fill="#efe2dd" d="M226.96289 60.23633a1.50056 1.50056 0 01-1.46777-1.2002l-4.00489-19.623a1.5 1.5 0 112.93946-.59961l4.00488 19.623a1.50006 1.50006 0 01-1.47168 1.79981zM227.72905 65.488c2.89554 0 2.90033-4.5 0-4.5-2.89553 0-2.90033 4.5 0 4.5z"></path></svg>