<?xml version="1.0" encoding="utf-8"?>
<!-- Generator: Adobe Illustrator 27.5.0, SVG Export Plug-In . SVG Version: 6.00 Build 0)  -->
<svg version="1.1" xmlns="http://www.w3.org/2000/svg" xmlns:xlink="http://www.w3.org/1999/xlink" x="0px" y="0px"
	 viewBox="0 0 500 500" style="enable-background:new 0 0 500 500;" xml:space="preserve">
<g id="Background_Complete">
	<g>
		<rect y="382.398" style="fill:#EBEBEB;" width="500" height="0.25"/>
		<rect x="416.779" y="398.494" style="fill:#EBEBEB;" width="33.122" height="0.25"/>
		<rect x="239.645" y="395.444" style="fill:#EBEBEB;" width="30.22" height="0.25"/>
		<rect x="345.889" y="389.208" style="fill:#EBEBEB;" width="69.889" height="0.25"/>
		<rect x="52.459" y="390.888" style="fill:#EBEBEB;" width="167.138" height="0.25"/>
		<rect x="228.5" y="390.888" style="fill:#EBEBEB;" width="6.333" height="0.25"/>
		<path style="fill:#EBEBEB;" d="M237.014,337.8H43.915c-3.147,0-5.708-2.561-5.708-5.708V60.66c0-3.147,2.561-5.708,5.708-5.708
			h193.099c3.146,0,5.707,2.561,5.707,5.708v271.432C242.721,335.239,240.16,337.8,237.014,337.8z M43.915,55.203
			c-3.01,0-5.458,2.448-5.458,5.458v271.432c0,3.01,2.448,5.458,5.458,5.458h193.099c3.009,0,5.457-2.448,5.457-5.458V60.66
			c0-3.009-2.448-5.458-5.457-5.458H43.915z"/>
		<path style="fill:#EBEBEB;" d="M453.31,337.8H260.212c-3.147,0-5.707-2.561-5.707-5.708V60.66c0-3.147,2.561-5.708,5.707-5.708
			H453.31c3.148,0,5.708,2.561,5.708,5.708v271.432C459.019,335.239,456.458,337.8,453.31,337.8z M260.212,55.203
			c-3.009,0-5.457,2.448-5.457,5.458v271.432c0,3.01,2.448,5.458,5.457,5.458H453.31c3.01,0,5.458-2.448,5.458-5.458V60.66
			c0-3.009-2.448-5.458-5.458-5.458H260.212z"/>
	</g>
	<g>
		<g>
			<g>
				<path style="fill:#EBEBEB;" d="M345.831,259.083c35.788,36.376,23.716,69.048-0.463,118.538
					c-0.791,1.593-1.54,3.186-2.331,4.778h59.603c18.58-41.451,17.587-103.275-36.075-157.84
					c-29.681-30.191-31.845-44.267-31.98-46.23c1.416-2.297,7.874-5.853,13.648-6.779c9.19-1.519,15.777-12.41,14.619-24.412
					c-1.156-12.002-9.482-20.559-18.737-19.225c-3.572,0.519-35.206,6.112-42.116,38.376
					C294.389,201.777,323.39,236.227,345.831,259.083z"/>
			</g>
			<g>
				<path style="fill:#E0E0E0;" d="M238.005,211.32l105.237,12.087c8.911,1.024,17.557-3.87,22.361-12.649
					c5.237-9.572,9.534-21.732,3.072-28.886c-5.198-5.754-8.088-13.686-7.565-22.005c1.912-30.42-10.542-68.386-50.038-71.647
					c-22.344-1.845-30.205,13.787-32.279,30.797c-1.937,15.886-14.93,26.559-28.448,23.27c-11.901-2.895-22.488,0.496-21.63,22.408
					c0.418,10.682-4.549,20.716-12.732,25.613C204.218,197.346,197.685,209.043,238.005,211.32z"/>
				<path style="fill:#FAFAFA;" d="M158.384,380.48c0.886,0.679,1.789,1.31,2.705,1.919h194.789
					c17.297-7.709,25.989-14.998,14.292-19.303c-10.429-3.849-20.261-12.763-25.487-23.374
					c-6.64-13.465-26.625-15.232-44.585-13.746c-15.239,1.263-33.377-11.126-40.84-28.311
					c-7.937-18.285-23.409-36.921-53.425-35.962c-47.818,1.521-63.077,34.324-53.73,70.438c2.892,11.16,0.333,21.339-7.118,26.31
					C138.11,363.049,148.788,373.156,158.384,380.48z"/>
				<path style="fill:#E6E6E6;" d="M26.414,380.925c0.386,0.521,0.804,1.006,1.243,1.474H177.27
					c16.641-5.921,26.488-11.52,19.377-14.826c-6.335-2.956-10.008-9.803-9.405-17.953c0.76-10.342-13.822-11.699-28.263-10.558
					c-12.255,0.97-20.795-8.545-19.048-21.745c1.861-14.044-1.913-28.358-25.386-27.622c-37.39,1.168-63.385,26.364-71.922,54.102
					c-2.636,8.572-9.03,16.39-16.916,20.209C18.427,367.536,22.23,375.3,26.414,380.925z"/>
				<path style="fill:#F5F5F5;" d="M289.93,267.257l166.095-40.606c8.656-1.003,16.467-6.872,21.071-16.923
					c3.496-7.631,4.5-16.067-4.481-20.388c-10.331-4.971-17.872-14.727-21.454-26.199c-8.516-27.272-37.983-54.979-94.422-49.372
					c-29.255,2.906-39.249,15.235-40.703,28.993c-2.189,20.714-18.274,36.02-37.811,36.22c-16.346,0.168-29.661,4.688-27.63,19.59
					c1.982,14.543-4.25,28.659-15.435,36.91C223.303,244.228,234.528,273.675,289.93,267.257z"/>
			</g>
		</g>
		<g>
			
				<ellipse transform="matrix(0.9239 -0.3827 0.3827 0.9239 -19.8758 82.3616)" style="fill:#F0F0F0;" cx="197.092" cy="91.142" rx="25.355" ry="25.355"/>
			<path style="fill:#FAFAFA;" d="M188.235,83.95c11.371-7.277,8.99-14.219-14.802-12.842
				c-23.793,1.376-27.677,12.224-27.677,12.224s-36.049-1.318-33.008,6.359c-20.525,1.804-26.129,3.592-12.016,4.522l103.182-7.152
				C203.914,87.062,207.624,82.352,188.235,83.95z"/>
			<path style="fill:#F5F5F5;" d="M67.233,157.881l56.224-3.897c0,0,21.744-7.58,8.062-7.415
				c10.419-5.913,17.479-15.209-4.161-13.913c-21.639,1.295-28.671,13.936-28.671,13.936s-21.144-6.664-28.992,6.809
				C64.584,153.755,39.818,159.782,67.233,157.881z"/>
			<path style="fill:#F5F5F5;" d="M366.432,88.804l41.09-2.848c0,0,15.891-5.539,5.892-5.419
				c7.614-4.322,12.774-11.115-3.041-10.168c-15.814,0.947-20.953,10.185-20.953,10.185s-15.453-4.87-21.188,4.976
				C364.496,85.789,346.397,90.193,366.432,88.804z"/>
		</g>
	</g>
</g>
<g id="Background_Simple" style="display:none;">
	<g style="display:inline;">
		<path style="fill:#407BFF;" d="M303.884,169.819c-30.716-18.75-49.107-84.196-89.587-65.305
			c-24.582,11.471-18.104,22.01-47.237,13.036c-19.46-5.995-32.3-18.773-60.448-10.365
			c-108.181,32.316-51.956,184.327,43.286,197.237c27.838,3.774,34.603-22.805,55.957-28.202
			c21.713-5.488,42.931,13.956,60.149,23.624c42.781,24.023,86.38,25.574,128.154-4.206c31.805-22.674,46.845-77.085,16.293-108.036
			C383.452,160.251,337.781,190.509,303.884,169.819z"/>
		<path style="opacity:0.9;fill:#FFFFFF;" d="M303.884,169.819c-30.716-18.75-49.107-84.196-89.587-65.305
			c-24.582,11.471-18.104,22.01-47.237,13.036c-19.46-5.995-32.3-18.773-60.448-10.365
			c-108.181,32.316-51.956,184.327,43.286,197.237c27.838,3.774,34.603-22.805,55.957-28.202
			c21.713-5.488,42.931,13.956,60.149,23.624c42.781,24.023,86.38,25.574,128.154-4.206c31.805-22.674,46.845-77.085,16.293-108.036
			C383.452,160.251,337.781,190.509,303.884,169.819z"/>
	</g>
</g>
<g id="Shadow_1_">
	<ellipse id="_x3C_Path_x3E__342_" style="fill:#F5F5F5;" cx="250" cy="416.238" rx="193.889" ry="11.323"/>
</g>
<g id="Butterflies">
	<g>
		<g>
			<path style="fill:#407BFF;" d="M173.384,117.393c-1.398-6.264-9.936-14.668-14.845-17.759
				c-4.909-3.091-5.439,11.237-4.408,16.216s4.505,11.774,8.022,13.41c-3.559,0.992-12.876,10.015-6.534,13.305
				c6.341,3.29,14.309-1.151,14.309-1.151L173.384,117.393z"/>
			<path style="fill:#407BFF;" d="M183.099,150.342l-0.194-0.98c1.405-0.278,2.611-0.863,3.586-1.738l0.668,0.744
				C186.049,149.364,184.683,150.028,183.099,150.342z"/>
			<path style="fill:#407BFF;" d="M189.819,143.404l-0.983-0.18c0.519-2.845-0.187-6.631-1.797-9.646l0.882-0.471
				C189.631,136.31,190.376,140.352,189.819,143.404z"/>
			<path style="fill:#407BFF;" d="M174.333,117.525c3.345-5.602,14.197-11.299,19.878-12.912c5.681-1.613,1.742,13.485-1.158,17.701
				c-2.9,4.216-6.41,9.296-10.294,9.899c3.082,1.919,6.772,13.285-0.341,14.697c-7.113,1.412-12.49-5.496-12.49-5.496
				L174.333,117.525z"/>
			<path style="fill:#263238;" d="M169.092,141.891l2.708-25.469c0.1-0.943,0.859-1.649,1.654-1.538l1.616,0.226
				c0.795,0.111,1.294,0.993,1.087,1.921l-5.585,25.068C170.332,143.178,168.976,142.988,169.092,141.891z"/>
			<path style="fill:#263238;" d="M173.858,116.472l-0.6-0.178c0.023-0.078,2.265-7.897-2.633-10.698l0.311-0.543
				C176.264,108.1,173.959,116.131,173.858,116.472z"/>
			<path style="fill:#263238;" d="M175.037,116.557l-0.62-0.08c0.061-0.467,1.562-11.424,7.692-11.708l0.029,0.625
				C176.529,105.653,175.051,116.448,175.037,116.557z"/>
		</g>
		<g>
			<g>
				<path style="fill:#407BFF;" d="M110.296,171.55c0.069-4.001,3.71-9.857,5.991-12.14c2.281-2.284,6.549,5.637,6.537,8.811
					c-0.012,3.174-3.572,8.617-5.268,9.892c2.002,0.357,7.937,5.291,4.914,7.803c-3.023,2.512-7.745,0.331-7.745,0.331
					L110.296,171.55z"/>
				<path style="opacity:0.3;fill:#FFFFFF;" d="M110.296,171.55c0.069-4.001,3.71-9.857,5.991-12.14
					c2.281-2.284,6.549,5.637,6.537,8.811c-0.012,3.174-3.572,8.617-5.268,9.892c2.002,0.357,7.937,5.291,4.914,7.803
					c-3.023,2.512-7.745,0.331-7.745,0.331L110.296,171.55z"/>
			</g>
			<g>
				<path style="fill:#407BFF;" d="M109.805,171.702c-2.385-3.241-8.779-5.993-11.978-6.581c-3.2-0.588-1.588,8.687,0.411,11.099
					c1.999,2.412,6.53,5.15,8.663,5.24c-1.434,1.42-2.174,8.765,1.766,9.122c3.94,0.358,6.059-4.336,6.059-4.336L109.805,171.702z"
					/>
				<path style="opacity:0.3;fill:#FFFFFF;" d="M109.805,171.702c-2.385-3.241-8.779-5.993-11.978-6.581
					c-3.2-0.588-1.588,8.687,0.411,11.099c1.999,2.412,6.53,5.15,8.663,5.24c-1.434,1.42-2.174,8.765,1.766,9.122
					c3.94,0.358,6.059-4.336,6.059-4.336L109.805,171.702z"/>
			</g>
			<path style="fill:#263238;" d="M115.248,186.48l-3.884-15.696c-0.144-0.581-0.679-0.957-1.167-0.82l-0.991,0.28
				c-0.488,0.138-0.724,0.732-0.515,1.295l5.649,15.197C114.583,187.391,115.415,187.156,115.248,186.48z"/>
			<path style="fill:#263238;" d="M110.082,170.994c-0.119-0.258-2.888-6.345,0.183-8.708l0.241,0.313
				c-2.824,2.174-0.094,8.169-0.066,8.229L110.082,170.994z"/>
			<path style="fill:#263238;" d="M109.348,171.132c-0.011-0.055-1.102-5.616-4.619-5.298l-0.035-0.393
				c3.863-0.366,4.996,5.374,5.042,5.618L109.348,171.132z"/>
		</g>
		<g>
			<g>
				<path style="fill:#407BFF;" d="M190.365,207.477c-0.044-3.403-3.147-8.224-5.098-10.064c-1.951-1.84-5.649,5.097-5.651,7.799
					c-0.002,2.702,3.033,7.174,4.485,8.183c-1.722,0.395-6.839,4.865-4.253,6.867c2.586,2.001,6.652-0.07,6.652-0.07
					L190.365,207.477z"/>
				<path style="opacity:0.7;fill:#FFFFFF;" d="M190.365,207.477c-0.044-3.403-3.147-8.224-5.098-10.064
					c-1.951-1.84-5.649,5.097-5.651,7.799c-0.002,2.702,3.033,7.174,4.485,8.183c-1.722,0.395-6.839,4.865-4.253,6.867
					c2.586,2.001,6.652-0.07,6.652-0.07L190.365,207.477z"/>
			</g>
			<g>
				<path style="fill:#407BFF;" d="M189.557,207.477c1.764-2.764,6.867-4.794,9.47-5.095c2.604-0.301,1.861,7.986,0.364,10.026
					c-1.497,2.04-5.063,4.193-6.819,4.12c1.274,1.39,2.35,8.099-0.88,8.137c-3.23,0.039-5.276-4.367-5.276-4.367L189.557,207.477z"
					/>
				<path style="opacity:0.7;fill:#FFFFFF;" d="M189.557,207.477c1.764-2.764,6.867-4.794,9.47-5.095
					c2.604-0.301,1.861,7.986,0.364,10.026c-1.497,2.04-5.063,4.193-6.819,4.12c1.274,1.39,2.35,8.099-0.88,8.137
					c-3.23,0.039-5.276-4.367-5.276-4.367L189.557,207.477z"/>
			</g>
			<path style="fill:#263238;" d="M186.041,220.413l3.395-15.696c0.126-0.581,0.594-0.957,1.02-0.82l0.866,0.28
				c0.426,0.138,0.633,0.732,0.45,1.295l-4.938,15.197C186.622,221.325,185.894,221.09,186.041,220.413z"/>
			<path style="fill:#263238;" d="M190.571,204.914l-0.342-0.139c0.024-0.061,2.419-6.078-0.06-8.261l0.244-0.277
				C193.088,198.593,190.675,204.657,190.571,204.914z"/>
			<path style="fill:#263238;" d="M191.211,205.06l-0.364-0.061c0.04-0.243,1.044-5.965,4.424-5.611l-0.038,0.367
				C192.164,199.454,191.22,205.004,191.211,205.06z"/>
		</g>
	</g>
</g>
<g id="Character_1_">
	<g>
		<g>
			<g>
				<path style="fill:#B55B52;" d="M316.021,174.189l-1.36-4.916l-7.504,6.311c0,0,1.713,1.304,4.566,2.942
					c1.179,0.676,2.689,0.275,3.376-0.898l0.605-1.033C316.131,175.869,316.245,175.001,316.021,174.189z"/>
				<polygon style="fill:#B55B52;" points="307.699,163.949 304.278,171.091 307.157,175.584 314.661,169.273 				"/>
				<g>
					<path style="fill:#263238;" d="M316.742,173.343l-19.521-2.525c-2.223-0.288-3.807-2.342-3.519-4.565l1.505-11.634
						c0.288-2.223,2.342-3.807,4.565-3.519l19.521,2.525c2.223,0.288,3.807,2.342,3.519,4.565l-1.505,11.634
						C321.02,172.047,318.965,173.63,316.742,173.343z"/>
					<path style="fill:#263238;" d="M333.424,209.227c-4.594,0-13.063-3.884-23.968-12.808
						c-11.884-9.727-10.758-17.374-9.937-22.958c0.302-2.052,0.563-3.823,0.148-5.337l1.051-0.287
						c0.475,1.732,0.199,3.609-0.121,5.782c-0.828,5.623-1.857,12.622,9.548,21.956c14.554,11.911,23.741,14.065,25.615,11.797
						c1.207-1.462-0.472-5.514-7.01-10.956c-7.325-6.099-7.686-15.434-7.95-22.25c-0.097-2.502-0.18-4.663-0.613-6.02l1.037-0.332
						c0.479,1.498,0.565,3.728,0.665,6.31c0.256,6.611,0.605,15.666,7.559,21.454c6.383,5.314,9.124,10.1,7.152,12.487
						C335.972,208.828,334.897,209.227,333.424,209.227z"/>
					<path style="fill:#263238;" d="M315.593,157.355l-5.66-1.873c-0.645-0.213-1.102-0.929-1.017-1.59l0.448-3.46
						c0.086-0.661,0.683-1.028,1.328-0.814l5.66,1.873c0.645,0.213,1.102,0.929,1.017,1.59l-0.447,3.46
						C316.835,157.202,316.238,157.568,315.593,157.355z"/>
					<path style="fill:#263238;" d="M313.367,151.254l-3.264-1.081c-0.372-0.123-0.636-0.536-0.586-0.917l0.258-1.995
						c0.049-0.381,0.394-0.593,0.766-0.47l3.264,1.08c0.372,0.123,0.636,0.536,0.586,0.917l-0.258,1.995
						C314.083,151.165,313.738,151.377,313.367,151.254z"/>
					<path d="M271.925,166.203l-9.198-1.19c-1.509-0.195-2.584-1.59-2.389-3.099l1.499-11.59c0.195-1.509,1.59-2.584,3.099-2.389
						l9.198,1.19c1.509,0.195,2.584,1.59,2.389,3.099l-1.499,11.59C274.828,165.324,273.434,166.398,271.925,166.203z"/>
					<path style="fill:#263238;" d="M281.449,165.761l-10.014-1.295c-2.553-0.33-4.372-2.689-4.041-5.242l0.582-4.5
						c0.33-2.553,2.689-4.372,5.242-4.042l10.014,1.295c2.553,0.33,4.372,2.689,4.042,5.242l-0.582,4.5
						C286.361,164.272,284.002,166.091,281.449,165.761z"/>
					<path style="fill:#FFFFFF;" d="M271.436,164.738c-0.012,0-0.023-0.001-0.036-0.002c-1.307-0.169-2.473-0.841-3.283-1.892
						c-0.81-1.051-1.163-2.35-0.994-3.656l0.582-4.5c0.351-2.709,2.836-4.619,5.547-4.277c0.149,0.02,0.254,0.156,0.235,0.306
						c-0.019,0.148-0.155,0.247-0.305,0.235c-2.402-0.319-4.624,1.396-4.937,3.807l-0.582,4.5c-0.15,1.162,0.164,2.317,0.885,3.253
						c0.721,0.936,1.758,1.534,2.921,1.684c0.149,0.02,0.254,0.156,0.235,0.306C271.688,164.638,271.571,164.738,271.436,164.738z"
						/>
					<path style="fill:#263238;" d="M286.473,166.747l-7.781-1.006c-1.277-0.165-2.186-1.345-2.021-2.621l1.268-9.804
						c0.165-1.277,1.345-2.186,2.621-2.021l7.781,1.006c1.277,0.165,2.186,1.345,2.021,2.621l-1.268,9.804
						C288.929,166.003,287.75,166.912,286.473,166.747z"/>
					<path d="M288.318,166.986l-7.781-1.006c-1.276-0.165-2.186-1.345-2.021-2.621l1.268-9.804c0.165-1.277,1.345-2.186,2.621-2.021
						l7.781,1.006c1.277,0.165,2.186,1.345,2.021,2.621l-1.268,9.804C290.774,166.242,289.595,167.151,288.318,166.986z"/>
					<path style="fill:#263238;" d="M296.375,166.611l-8.47-1.096c-2.16-0.279-3.698-2.275-3.419-4.434l0.492-3.807
						c0.279-2.16,2.275-3.698,4.434-3.419l8.47,1.096c2.16,0.279,3.698,2.275,3.419,4.434l-0.492,3.807
						C300.53,165.352,298.534,166.891,296.375,166.611z"/>
					<path style="fill:#FFFFFF;" d="M287.905,165.788c-0.012,0-0.023-0.001-0.036-0.002c-2.313-0.3-3.953-2.426-3.653-4.74
						l0.492-3.806c0.145-1.116,0.718-2.112,1.616-2.805c0.897-0.692,2.005-0.994,3.124-0.85c0.149,0.02,0.254,0.156,0.235,0.306
						c-0.02,0.148-0.156,0.246-0.305,0.235c-0.969-0.13-1.938,0.137-2.721,0.74c-0.782,0.602-1.282,1.471-1.408,2.443l-0.492,3.806
						c-0.261,2.017,1.168,3.868,3.184,4.129c0.149,0.02,0.254,0.156,0.235,0.306C288.157,165.688,288.04,165.788,287.905,165.788z"
						/>
					<path style="opacity:0.6;fill:#407BFF;" d="M318.098,160.792l-4.808-0.622c-0.548-0.071-0.938-0.577-0.867-1.124l0.371-2.865
						c0.071-0.548,0.577-0.938,1.124-0.867l4.808,0.622c0.548,0.071,0.938,0.577,0.867,1.124l-0.371,2.865
						C319.152,160.473,318.646,160.863,318.098,160.792z"/>
					<path d="M298.52,170.986l-1.299-0.168c-2.223-0.288-3.807-2.342-3.519-4.565l1.505-11.634c0.288-2.223,2.342-3.807,4.565-3.519
						l1.299,0.168c2.223,0.288,3.807,2.342,3.519,4.565l-1.505,11.634C302.797,169.69,300.743,171.273,298.52,170.986z"/>
				</g>
			</g>
			<g>
				<g>
					<line style="opacity:0.2;" x1="386.163" y1="171.947" x2="386.163" y2="171.947"/>
				</g>
			</g>
			<g>
				<g>
					<path style="fill:#B55B52;" d="M314.343,188.731l-0.04-0.003l-0.115-0.003l-0.132,0c-0.079-0.002-0.52,0.02-0.758,0.062
						c-11.813,7.906,1.582,13.843-0.774,11.836c0.133,0.038,0.267,0.071,0.402,0.099l0.159,0.031
						c0.029,0.005,0.057,0.01,0.047,0.009l-0.169-0.02l-0.515-0.062l-1.09-0.132c-0.733-0.086-1.467-0.196-2.2-0.303
						c-1.467-0.217-2.933-0.452-4.399-0.706c-2.934-0.495-5.853-1.128-8.779-1.842c-5.846-1.512-11.677-3.265-17.554-6.583
						c-1.463-0.864-2.934-1.845-4.38-3.106c-0.361-0.314-0.72-0.652-1.075-1.008l-0.528-0.554l-0.131-0.145l-0.257-0.297
						c-0.323-0.392-0.611-0.814-0.824-1.248c-0.461-0.895-0.633-1.725-0.711-2.449c-0.036-0.363-0.033-0.648-0.029-0.975
						c0.012-0.286,0.039-0.537,0.072-0.806c0.144-0.972,0.381-1.637,0.612-2.233c0.475-1.161,0.983-1.972,1.482-2.742
						c0.502-0.759,1.006-1.435,1.514-2.079c1.01-1.287,2.057-2.429,3.117-3.531c4.239-4.374,8.708-8.085,13.522-11.564l4.107,4.385
						c-3.49,4.443-7.099,8.918-10.257,13.327c-0.776,1.104-1.515,2.212-2.164,3.268c-0.32,0.528-0.611,1.048-0.842,1.523
						c-0.23,0.465-0.401,0.926-0.425,1.111c-0.014,0.077,0.017,0.104,0.07-0.155c0.019-0.09,0.026-0.162,0.032-0.269
						c0.013-0.148,0.007-0.253-0.006-0.438c-0.029-0.371-0.128-0.842-0.411-1.423c-0.142-0.268-0.313-0.552-0.527-0.802
						c-0.163-0.183-0.09-0.102-0.079-0.095l0.054,0.051l0.233,0.207c0.163,0.139,0.338,0.282,0.531,0.424
						c0.763,0.573,1.725,1.141,2.774,1.662c2.102,1.064,4.537,1.962,7.056,2.726c2.521,0.781,5.145,1.445,7.81,2.028
						c2.662,0.603,5.373,1.099,8.094,1.591c1.362,0.239,2.73,0.461,4.101,0.667l2.061,0.307l1.043,0.157l0.552,0.082l0.363,0.056
						l0.18,0.03l0.225,0.043c0.146,0.03,0.291,0.066,0.435,0.106c-2.346-2.005,11.067,3.94-0.765,11.848
						c-0.25,0.042-0.701,0.065-0.792,0.064l-0.166,0l-0.182-0.004l-0.175-0.008L314.343,188.731z"/>
				</g>
				<path style="fill:#B55B52;" d="M295.309,152.43h3.65l-1.275,4.984l-6.906-2.481l1.197-1.156
					C292.87,152.913,294.065,152.43,295.309,152.43z"/>
				<path style="fill:#B55B52;" d="M289.056,161.731l1.722-6.798l6.906,2.481c0,0-0.05,8.188-5.375,7.77L289.056,161.731z"/>
				<path style="fill:#B55B52;" d="M345.228,204.137c-0.603,0.22-0.833,0.286-1.203,0.4c-0.347,0.108-0.652,0.184-0.982,0.276
					c-0.636,0.155-1.265,0.296-1.882,0.408c-1.241,0.242-2.459,0.37-3.676,0.491c-2.43,0.19-4.828,0.162-7.19-0.053
					c-2.366-0.18-4.686-0.593-6.954-1.113c-1.139-0.249-2.257-0.564-3.36-0.908l-0.83-0.249l-0.476-0.145
					c-0.266-0.088-0.536-0.173-0.792-0.278c-1.037-0.411-1.96-0.98-2.729-1.598c-1.548-1.252-2.489-2.646-3.215-3.933
					c-0.722-1.302-1.209-2.551-1.608-3.769c-0.743-2.444-1.156-4.754-1.385-7.04c-0.455-4.574-0.358-8.905,0.223-13.379l6.008,0.011
					c0.694,3.933,1.487,8.017,2.554,11.716c0.556,1.843,1.147,3.636,1.902,5.124c0.359,0.742,0.747,1.415,1.131,1.904
					c0.373,0.5,0.759,0.785,0.891,0.809c0.068,0.018,0.067-0.023,0.017-0.07c-0.012-0.008-0.026-0.029-0.042-0.034
					c-0.039-0.009,0.064,0.01,0.112,0.018l0.176,0.03l0.703,0.121l1.402,0.242l1.402,0.184c0.93,0.156,1.863,0.197,2.789,0.301
					c0.927,0.03,1.852,0.127,2.768,0.126c1.834,0.035,3.654-0.009,5.414-0.198c0.875-0.091,1.747-0.204,2.573-0.352
					c0.42-0.065,0.818-0.152,1.206-0.233l0.544-0.121c0.136-0.028,0.409-0.111,0.303-0.066L345.228,204.137z"/>
				<path style="fill:#B55B52;" d="M338.486,165.199c-1.815,8.109-2.27,14.148-0.623,20.547c0,0-1.83,5.938-12.707,5.938
					c-11.96,0-5.487-5.938-5.487-5.938c6.588-1.559,6.606-6.402,5.645-10.95L338.486,165.199z"/>
				<path style="fill:#263238;" d="M340.032,189.419c0.93-1.88,1.957-4.031,0.03-4.705c-2.12-0.741-13.849-1.498-17.957-0.106
					C317.998,186,319,189.812,319,189.812L340.032,189.419z"/>
				<path style="fill:#407BFF;" d="M395.837,406.202c0.702-0.401,1.377-0.978,1.832-1.406c0.061-0.057,0.081-0.145,0.052-0.223
					c-0.029-0.078-0.102-0.131-0.186-0.134c-0.375-0.015-3.684-0.122-4.277,0.788c-0.092,0.141-0.17,0.375-0.018,0.685
					c0.204,0.417,0.512,0.665,0.914,0.738C394.663,406.741,395.26,406.531,395.837,406.202z M397.003,404.84
					c-1.142,0.994-2.16,1.513-2.775,1.401c-0.27-0.049-0.471-0.217-0.617-0.513c-0.071-0.145-0.041-0.224-0.007-0.276
					C393.914,404.978,395.68,404.832,397.003,404.84z"/>
				<path style="fill:#407BFF;" d="M397.63,404.824c0.034-0.02,0.063-0.049,0.081-0.085c0.035-0.067,0.03-0.149-0.013-0.211
					c-0.06-0.089-1.492-2.176-2.785-2.394c-0.337-0.057-0.639,0.013-0.898,0.206c0,0,0,0,0,0c-0.4,0.298-0.361,0.628-0.303,0.798
					c0.322,0.938,2.791,1.735,3.82,1.714C397.567,404.851,397.6,404.841,397.63,404.824z M394.341,402.62
					c0.148-0.084,0.314-0.11,0.503-0.078c0.829,0.139,1.801,1.278,2.254,1.868c-1.12-0.148-2.804-0.852-2.995-1.407
					c-0.017-0.051-0.058-0.169,0.159-0.331l0,0C394.288,402.653,394.314,402.635,394.341,402.62z"/>
				<polygon style="fill:#B55B52;" points="406.836,401.087 401.026,405.821 387.165,391.594 392.976,386.86 				"/>
				<path style="fill:#263238;" d="M398.203,403.948l7.389-5.12c0.269-0.186,0.624-0.156,0.854,0.073l4.262,5.526
					c0.543,0.517,0.463,1.439-0.156,1.872c-2.569,1.8-3.727,2.409-7.161,4.368c-2.113,1.205-3.716,6.136-10.947,6.136
					c-3.285,0-4.383-2.613-3.026-3.028c7.111-2.173,7.314-6.051,7.982-8.672C397.52,404.63,397.809,404.22,398.203,403.948z"/>
				<path style="fill:#407BFF;" d="M305.14,257.13h42.806c0.491-5.889-1.782-32.268,3.166-59.972
					c0.98-5.488-2.968-10.607-8.517-11.141c-1.221-0.118-2.476-0.214-3.721-0.274c-5.458-0.261-13.37-0.436-18.19,0
					c-2.694,0.244-5.329,0.68-7.472,1.102c-3.479,0.684-6.733,3.145-7.255,6.653c-3.222,21.652-0.814,63.633-0.814,63.633"/>
				<g>
					<path style="fill:#263238;" d="M313.806,252.92h-12.649c-2.825,0-4.888-2.311-4.584-5.136l1.471-13.678
						c0.304-2.825,2.864-5.136,5.689-5.136h12.649c2.825,0,4.888,2.311,4.584,5.136l-1.471,13.678
						C319.191,250.608,316.631,252.92,313.806,252.92z"/>
					<path d="M316.381,228.969l-2.575,23.951c2.825,0,5.385-2.311,5.689-5.136l1.471-13.678
						C321.269,231.281,319.207,228.969,316.381,228.969z"/>
					<path style="fill:#263238;" d="M319.879,234.277c-0.146,0-0.29-0.063-0.389-0.186c-0.174-0.215-0.14-0.529,0.074-0.703
						c0.28-0.227,27.975-22.95,22.542-47.262c-0.061-0.27,0.109-0.537,0.379-0.598c0.27-0.057,0.537,0.109,0.597,0.379
						c5.568,24.92-22.604,48.027-22.889,48.258C320.1,234.241,319.99,234.277,319.879,234.277z"/>
					<path d="M316.575,229.901l-14.833-0.037c-0.486,0-0.974,0.112-1.443,0.317c-1.221,0.942-2.083,2.361-2.251,3.929l-0.683,6.355
						c0.389,0.28,0.885,0.448,1.454,0.448l14.834,0.028c1.791,0.009,3.667-1.558,4.171-3.471l1.082-4.078
						C319.411,231.469,318.357,229.901,316.575,229.901z"/>
					<path style="fill:#263238;" d="M313.745,240.057l-14.828-0.036c-1.79-0.004-2.84-1.574-2.333-3.489l1.081-4.085
						c0.506-1.914,2.385-3.477,4.175-3.473l14.828,0.036c1.79,0.004,2.84,1.574,2.333,3.489l-1.081,4.085
						C317.413,238.499,315.535,240.062,313.745,240.057z"/>
				</g>
				<path style="opacity:0.2;" d="M305.153,200.602c-0.371,4.248-0.599,8.888-0.73,13.626
					C309.194,208.934,312.439,202.333,305.153,200.602z"/>
				<path style="fill:#407BFF;" d="M315.169,202.76c-5.675,5.083-17.246-1.634-17.246-1.634l-3.449-16.575
					c0,0,12.808,0.047,22.828,1.235C328.492,187.113,321.562,197.035,315.169,202.76z"/>
				<g style="opacity:0.2;">
					<polygon points="392.981,386.863 387.168,391.599 394.315,398.93 400.128,394.194 					"/>
				</g>
				<path style="fill:#263238;" d="M312.931,257.13c0,0,14.114,45.303,18.215,68.213c4.491,25.087,57.825,72.387,57.825,72.387
					l9.942-9.258c0,0-32.853-43.826-43.85-60.854c-2.34-26.958-7.122-70.487-7.122-70.487H312.931z"/>
				<path style="fill:#407BFF;" d="M384.885,396.818c-0.047,0.041,4.647,3.429,4.647,3.429l12.517-10.733l-3.352-3.742
					L384.885,396.818z"/>
				<path style="opacity:0.2;" d="M319.879,280.474c1.133,3.932,2.309,8.136,3.474,12.406c6.317-9.302,7.189-20.608,7.189-20.608
					L319.879,280.474z"/>
				<path style="fill:#263238;" d="M318.384,157.241c-0.091,0.639-0.504,1.123-0.924,1.08s-0.686-0.596-0.596-1.236
					c0.091-0.64,0.504-1.123,0.924-1.08C318.208,156.048,318.475,156.601,318.384,157.241z"/>
				<path style="fill:#A02724;" d="M317.939,158.37c0,0-1.982,3.54-3.842,5.155c0.986,1.172,2.986,0.887,2.986,0.887L317.939,158.37
					z"/>
				<path style="fill:#263238;" d="M318.125,153.064c-0.112-0.041-0.204-0.134-0.237-0.258c-0.054-0.202,0.066-0.41,0.268-0.464
					c0.072-0.019,1.789-0.459,3.313,0.933c0.155,0.141,0.166,0.381,0.025,0.535c-0.141,0.155-0.382,0.166-0.535,0.025
					c-1.222-1.116-2.593-0.764-2.606-0.76C318.275,153.095,318.196,153.09,318.125,153.064z"/>
				<path style="fill:#B55B52;" d="M339.991,158.079c-1.596,7.804-2.133,12.438-6.687,16.061c-6.849,5.45-16.073,0.857-16.844-7.176
					c-0.694-7.23,2.033-18.778,10.194-21.113C334.694,143.55,341.587,150.274,339.991,158.079z"/>
				<path style="fill:#263238;" d="M322.31,161.839l-3.418,0.303c0,0-0.508-4.9,2.176-7.685c-1.803-0.331-3.444-3.168-3.148-7.089
					c0.313-4.144,6.634-10.656,11.22-6.479c4.944,4.504,14.651,5.554,12.715,8.29c2.844-0.532,9.561,8.848,2.844,13.447
					c-6.717,4.599-4.44,9.074-7.636,10.891S323.278,173.457,322.31,161.839z"/>
				<path style="fill:#263238;" d="M341.538,149.343c0,0,1.384-1.275-0.182-3.951C343.625,146.529,343.171,148.889,341.538,149.343z
					"/>
				<path style="fill:#B55B52;" d="M326.099,161.622c-0.435,2.052-1.682,3.888-3.02,5.029c-2.013,1.716-3.63,0.32-3.583-2.044
					c0.042-2.128,1.141-5.585,3.407-6.4C325.136,157.405,326.596,159.276,326.099,161.622z"/>
				<path style="fill:#407BFF;" d="M247.509,408.642c0.809,0,1.681-0.168,2.288-0.314c0.081-0.019,0.142-0.086,0.156-0.168
					s-0.024-0.165-0.095-0.209c-0.318-0.199-3.139-1.931-4.106-1.435c-0.15,0.077-0.333,0.241-0.355,0.586
					c-0.029,0.463,0.115,0.832,0.428,1.095C246.222,408.529,246.844,408.642,247.509,408.642z M249.197,408.037
					c-1.484,0.298-2.626,0.244-3.104-0.158c-0.21-0.176-0.302-0.422-0.281-0.751c0.01-0.161,0.075-0.215,0.131-0.243
					C246.444,406.627,248.051,407.374,249.197,408.037z"/>
				<path style="fill:#407BFF;" d="M249.749,408.334c0.039,0,0.079-0.011,0.113-0.033c0.064-0.041,0.1-0.114,0.094-0.19
					c-0.008-0.107-0.217-2.629-1.233-3.46c-0.264-0.216-0.562-0.306-0.882-0.266h0c-0.495,0.061-0.625,0.366-0.659,0.543
					c-0.185,0.975,1.564,2.89,2.469,3.381C249.681,408.326,249.715,408.334,249.749,408.334z M247.984,404.79
					c0.17,0,0.327,0.06,0.476,0.182c0.651,0.532,0.931,2.002,1.033,2.739c-0.899-0.683-2.014-2.13-1.904-2.706
					c0.01-0.053,0.033-0.176,0.302-0.209l0,0C247.922,404.792,247.953,404.79,247.984,404.79z"/>
				<polygon style="fill:#B55B52;" points="259.159,408.309 251.158,408.309 251.076,389.779 259.078,389.779 				"/>
				<path style="fill:#263238;" d="M251.246,407.091h8.738c0.327,0,0.602,0.227,0.66,0.546l1.306,7.113
					c0.135,0.737-0.451,1.436-1.206,1.423c-3.15-0.053-7.698-0.238-11.66-0.238c-4.633,0-4.859,0.253-10.292,0.253
					c-3.285,0-4.068-3.321-2.682-3.622c6.313-1.369,7.645-1.516,13.183-4.852C249.896,407.352,250.556,407.091,251.246,407.091z"/>
				<polygon style="opacity:0.2;" points="251.078,389.784 251.118,399.335 259.124,399.335 259.083,389.784 				"/>
				<path style="fill:#263238;" d="M305.142,257.13c0,0-55.093,42.655-57.468,66.941c-2.47,25.261,0.533,73.123,0.533,73.123h13.555
					c0,0,7.727-49.648,9.293-74.575c29.563-29.011,61.783-37.215,70.799-65.489H305.142z"/>
				<path style="fill:#407BFF;" d="M245.808,391.795c-0.063,0,0.547,5.628,0.547,5.628h16.489l0.64-5.022L245.808,391.795z"/>
			</g>
		</g>
	</g>
</g>
</svg>
