<?xml version="1.0" encoding="utf-8"?>
<!-- Generator: Adobe Illustrator 27.5.0, SVG Export Plug-In . SVG Version: 6.00 Build 0)  -->
<svg version="1.1" id="_x2018_лой_x5F_1" xmlns="http://www.w3.org/2000/svg" xmlns:xlink="http://www.w3.org/1999/xlink"
	 x="0px" y="0px" viewBox="0 0 3200 2000" style="enable-background:new 0 0 3200 2000;" xml:space="preserve">
<rect style="fill:#FDFFFF;" width="3200" height="2000"/>
<g>
	<rect x="84.26" y="61.74" style="fill:#F2F7FC;" width="3062.98" height="1876.52"/>
	<path style="fill:#C7EAFF;" d="M3147.25,149.31v964.34c0,0,0,0-0.01,0c-0.82-0.101-41.24-5.141-112.71-12.98
		c-56.71-6.23-132.97-14.22-224.49-22.9c-56.18-5.33-118.101-10.92-184.78-16.529c-11.279-0.94-22.71-1.891-34.26-2.84
		c-3.64-0.301-7.3-0.601-10.97-0.9c-0.53-0.04-1.07-0.09-1.61-0.13c-0.01,0-0.01,0-0.01,0c-111.721-9.09-235.36-18.06-366.71-25.87
		c-34.74-2.07-70.021-4.05-105.771-5.93c-60.39-3.19-122.069-6.09-184.729-8.601h-0.72c-30.2-1.21-60.61-2.319-91.2-3.34
		c-0.98-0.03-1.96-0.07-2.94-0.1c0,0,0,0-0.01,0c-1.04-0.03-2.09-0.07-3.141-0.101c-15.869-0.519-31.779-1.019-47.739-1.479
		c-1.05-0.03-2.101-0.061-3.15-0.09c-0.979-0.03-1.96-0.061-2.939-0.08v-0.011c-16.141-0.46-32.33-0.89-48.551-1.289
		c-0.899-0.03-1.81-0.051-2.71-0.07c-0.939-0.021-1.88-0.05-2.83-0.07c-17.859-0.439-35.77-0.83-53.71-1.189
		c-0.949-0.021-1.89-0.04-2.84-0.051h-0.01c-0.9-0.02-1.8-0.04-2.7-0.06c-18.479-0.36-36.99-0.68-55.53-0.95
		c-9.29-0.14-18.58-0.25-27.86-0.35c-10.29-0.11-20.57-0.19-30.84-0.25c-28.96-0.16-57.84-0.141-86.6,0.06
		c-0.86,0.01-1.72,0.01-2.58,0.021h-0.01c-0.9,0.01-1.8,0.01-2.7,0.019c-18.98,0.15-37.92,0.37-56.79,0.67
		c-0.9,0.01-1.81,0.03-2.71,0.04c-0.86,0.01-1.73,0.03-2.59,0.04c-16.05,0.271-32.05,0.58-48,0.95c-0.91,0.02-1.81,0.04-2.72,0.06
		h-0.01c-0.96,0.021-1.92,0.04-2.88,0.07c-17.73,0.42-35.39,0.9-52.98,1.44c-0.96,0.019-1.91,0.05-2.87,0.09
		c-0.91,0.02-1.81,0.05-2.72,0.08c-25.64,0.8-51.13,1.73-76.43,2.77c-215.64,8.84-417.89,25.771-590.66,44.23h-0.03
		c-0.71,0.069-1.42,0.149-2.12,0.22h-0.01c-5.89,0.63-11.74,1.27-17.57,1.9c-10.63,1.16-21.15,2.319-31.55,3.489
		c-62.9,7.05-121.36,14.221-174.52,21.16c-43.02,5.62-82.56,11.09-118.18,16.21c-52.88,7.62-97.11,14.48-131.17,19.98
		c-19.96,3.229-36.44,5.979-49.12,8.149V153.1c149.68,18.23,822.6,96.47,1417.75,105.69c13.15,0.2,26.41,0.35,39.77,0.46
		c10.22,0.08,20.5,0.13,30.84,0.16c668,1.69,1571.069-109.66,1574.62-110.1C3147.25,149.31,3147.25,149.31,3147.25,149.31z"/>
	<path style="opacity:0.7;fill:#F8FCFF;" d="M3147.25,746.46v521.18H84.26V744.83c42.83-6.35,103.271-12.36,169.28-9.88
		c22.74,0.85,46.15,2.71,69.72,5.92c49.19,6.68,99.12,19.19,145.33,40.57c0,0,29.74-9.62,78.07-13.75
		c12.81-1.1,26.93-1.81,42.15-1.85c86.63-0.23,208.85,21.17,328.23,116.17c0,0,150.22-150.27,402.9-73.82
		c0,0,95.05-28.73,221.84-31.05c10.09-0.19,20.39-0.2,30.84-0.02c97.82,1.65,210.41,20.37,311.7,78.85
		c95.27,55.01,156.109,102.92,194.92,141.09c9.42,9.24,17.54,17.93,24.54,25.999c0.729,0.841,1.45,1.681,2.149,2.511
		c23.431,27.51,33.65,47.619,38.01,58.779c2.591,6.61,3.121,10.08,3.121,10.08s3.029-3.729,8.81-10.08
		c10.35-11.38,29.53-31.16,55.83-52.85c1.319-1.09,2.66-2.18,4.01-3.27c9.57-7.75,20.021-15.69,31.271-23.54
		c46.789-32.641,107.539-63.7,176.81-72.46c0,0-2.2-121.69,172.79-182.49c10.32-3.59,21.25-6.97,32.84-10.08
		c57.44-15.5,130.93-24.87,224.95-23.54c24.85,0.34,51.14,1.44,78.94,3.36c63.149,4.37,134.14,13.03,213.93,26.98H3147.25z"/>
	<rect x="1541.779" y="183.115" style="fill:#233862;" width="30.842" height="848.438"/>
	<path style="fill:#233862;" d="M3147.244,1071.693v461.812H264.551v-454.293c296.905-40.071,849.708-100.877,1424.687-92.928
		C2286.501,994.533,2859.807,1043.414,3147.244,1071.693z"/>
	<path style="fill:#233862;" d="M1173.689,995.768c0,0,46.271-89.519,99.977-95.257c36.65-3.915,542.111,0,542.111,0
		s87.73,6.885,124.042,94.663L1173.689,995.768z"/>
	<path style="fill:#B0D0FF;" d="M3147.24,1093.5v844.76H84.26v-807.89c14.96-2.021,30.71-4.15,47.19-6.38
		c40.21-5.41,84.81-11.37,133.1-17.641c39.83-5.17,82.16-10.55,126.62-16.01c53.03-6.52,109.07-13.15,167.45-19.689
		c6.47-0.721,12.97-1.44,19.5-2.16c13.17-1.46,26.46-2.91,39.86-4.351c3.78-0.409,7.58-0.81,11.39-1.21
		c0.85-0.1,1.67-0.189,2.52-0.279h0.02c1.74-0.181,3.48-0.37,5.22-0.551c0.01,0,0.01,0,0.02,0
		c176.15-18.75,369.84-35.8,564.34-45.649h1.65c24.74-1.25,49.5-2.38,74.23-3.4c0.96-0.03,1.92-0.069,2.87-0.109
		c1.02-0.04,2.04-0.08,3.06-0.12c16.49-0.66,32.96-1.261,49.41-1.801c1.02-0.039,2.03-0.069,3.05-0.1c0.96-0.03,1.92-0.06,2.87-0.09
		c16.67-0.54,33.32-1.01,49.93-1.42c0.88-0.021,1.75-0.04,2.63-0.061c0.93-0.02,1.85-0.04,2.77-0.069
		c18.53-0.431,37.01-0.79,55.43-1.05c0.92-0.021,1.84-0.03,2.76-0.04c0.88-0.021,1.76-0.03,2.64-0.04
		c29.17-0.4,58.18-0.58,86.99-0.511c10.31,0.011,20.59,0.061,30.84,0.16c9.31,0.061,18.6,0.16,27.86,0.29
		c18.43,0.25,36.93,0.55,55.47,0.88c0.899,0.011,1.8,0.03,2.7,0.05h0.01c0.939,0.011,1.88,0.03,2.83,0.051
		c17.939,0.319,35.93,0.68,53.95,1.08c0.939,0.02,1.88,0.04,2.829,0.06c0.9,0.021,1.801,0.04,2.7,0.059
		c16,0.351,32.03,0.731,48.08,1.141c0.97,0.019,1.931,0.05,2.891,0.07h0.01c1.03,0.029,2.06,0.059,3.09,0.079
		c16.24,0.421,32.5,0.86,48.771,1.33c1.029,0.021,2.069,0.051,3.1,0.091c0.97,0.019,1.93,0.05,2.9,0.079
		c32.959,0.95,65.939,2,98.89,3.15h0.01c58.63,2.021,117.12,4.32,175.07,6.85c37.569,1.63,74.92,3.36,111.93,5.171
		c136.29,6.649,268.07,14.359,389.92,22.359h0.01c5.9,0.391,11.761,0.78,17.601,1.18h0.029c1.271,0.08,2.54,0.16,3.811,0.24
		c11.81,0.79,23.52,1.58,35.13,2.37h0.03c55.27,3.771,108.21,7.58,158.25,11.351h0.01c72.07,5.43,138.14,10.779,196.6,15.83
		C3066.17,1085.8,3109.87,1089.82,3147.24,1093.5z"/>
	<path style="fill:#B0D0FF;" d="M1197.799,1016.449c0,0,45.591-88.916,82.079-94.129c36.488-5.212,542.112,0,542.112,0
		s70.724,6.885,107.035,94.663L1197.799,1016.449z"/>
	<path style="fill:#233862;" d="M3147.24,61.74v136.69c0,0-905.32,139.24-1574.62,137.13c-10.34-0.03-20.62-0.09-30.84-0.2
		c-13.36-0.13-26.62-0.32-39.76-0.57C906.87,323.32,233.95,225.85,84.26,203.15V61.74H3147.24z"/>
	<path style="fill:#B0D0FF;" d="M3147.24,61.74V178.9c0,0-905.33,139.24-1574.62,137.12c-10.34-0.03-20.62-0.09-30.84-0.2
		c-13.36-0.13-26.62-0.32-39.76-0.57C906.87,303.78,233.95,206.32,84.26,183.62V61.74H3147.24z"/>
	<path style="opacity:0.5;fill:#F8FCFF;" d="M609.54,480.76l-525.28-4.87v-87.96c48.13-17.53,118.271-26.63,190.92,20.62
		c0,0,139.47-21.15,242.76,18.31C586.8,453.16,609.54,480.76,609.54,480.76z"/>
	<path style="opacity:0.5;fill:#F8FCFF;" d="M954.115,593.211c0,0,23.142-59.089,78.482-52.524c0,0,80.343-98.486,166.019-13.131
		c0,0,91.072-21.149,158.519,18.311c44.968,26.31,59.821,53.909,59.821,53.909L954.115,593.211z"/>
	<path style="opacity:0.5;fill:#F8FCFF;" d="M1695.613,556.322c0,0,43.935-88.447,148.995-78.62c0,0,152.528-147.418,315.181-19.655
		c0,0,172.897-31.657,300.942,27.41c85.37,39.381,113.568,80.693,113.568,80.693L1695.613,556.322z"/>
	<polygon style="fill:#98BAF4;" points="2045.83,1938.26 2009.5,1680.12 2009.46,1679.86 2000.72,1617.77 1988.86,1533.5 
		1971.37,1409.23 1891.26,1409.23 1730.7,1409.23 1713.79,1409.23 1420.58,1409.23 1403.68,1409.23 1388.79,1409.23 
		1297.34,1409.23 1171.79,1409.23 1156.12,1491.27 1156.12,1491.28 1148.05,1533.5 1110.79,1728.57 1106.46,1751.23 
		1070.74,1938.26 1073.82,1938.26 2045.27,1938.26 	"/>
	<path style="fill:#98BAF4;" d="M1268.734,985.577c0-21.157,17.151-38.308,38.308-38.308c21.157,0,38.308,17.151,38.308,38.308
		c0,21.157-17.151,38.307-38.308,38.307C1285.886,1023.884,1268.734,1006.733,1268.734,985.577z"/>
	<path style="fill:#98BAF4;" d="M1280.822,1176.194c0-9.468,7.675-17.143,17.143-17.143c9.468,0,17.143,7.675,17.143,17.143
		s-7.675,17.143-17.143,17.143C1288.497,1193.337,1280.822,1185.662,1280.822,1176.194z"/>
	<path style="fill:#699FF0;" d="M1350.184,1176.194c0-9.468,7.675-17.143,17.143-17.143c9.468,0,17.143,7.675,17.143,17.143
		s-7.675,17.143-17.143,17.143C1357.859,1193.337,1350.184,1185.662,1350.184,1176.194z"/>
	
		<ellipse transform="matrix(0.2705 -0.9627 0.9627 0.2705 -86.365 2238.4182)" style="fill:#98BAF4;" cx="1433.769" cy="1176.194" rx="17.143" ry="17.143"/>
	<path style="fill:#F99746;" d="M1280.822,1234.949c0-9.467,7.675-17.143,17.143-17.143c9.468,0,17.143,7.676,17.143,17.143
		c0,9.468-7.675,17.144-17.143,17.144C1288.497,1252.093,1280.822,1244.417,1280.822,1234.949z"/>
	<path style="fill:#E7EEFD;" d="M1350.184,1234.949c0-9.467,7.675-17.143,17.143-17.143c9.468,0,17.143,7.676,17.143,17.143
		c0,9.468-7.675,17.144-17.143,17.144C1357.859,1252.093,1350.184,1244.417,1350.184,1234.949z"/>
	<path style="fill:#98BAF4;" d="M1416.626,1234.949c0-9.467,7.675-17.143,17.143-17.143s17.143,7.676,17.143,17.143
		c0,9.468-7.675,17.144-17.143,17.144S1416.626,1244.417,1416.626,1234.949z"/>
	
		<ellipse transform="matrix(0.2882 -0.9576 0.9576 0.2882 75.1197 2453.4424)" style="fill:#98BAF4;" cx="1687.79" cy="1176.194" rx="17.143" ry="17.143"/>
	
		<ellipse transform="matrix(0.2077 -0.9782 0.9782 0.2077 241.6913 2650.7773)" style="fill:#E7EEFD;" cx="1757.152" cy="1176.194" rx="17.143" ry="17.143"/>
	<path style="fill:#98BAF4;" d="M1806.451,1176.194c0-9.468,7.676-17.143,17.144-17.143s17.143,7.675,17.143,17.143
		s-7.675,17.143-17.143,17.143S1806.451,1185.662,1806.451,1176.194z"/>
	<path style="fill:#F99746;" d="M1670.647,1234.949c0-9.467,7.675-17.143,17.143-17.143s17.143,7.676,17.143,17.143
		c0,9.468-7.675,17.144-17.143,17.144S1670.647,1244.417,1670.647,1234.949z"/>
	<path style="fill:#F99746;" d="M1740.01,1234.949c0-9.467,7.675-17.143,17.143-17.143s17.143,7.676,17.143,17.143
		c0,9.468-7.675,17.144-17.143,17.144S1740.01,1244.417,1740.01,1234.949z"/>
	<path style="fill:#699FF0;" d="M1806.451,1234.949c0-9.467,7.676-17.143,17.144-17.143s17.143,7.676,17.143,17.143
		c0,9.468-7.675,17.144-17.143,17.144S1806.451,1244.417,1806.451,1234.949z"/>
	<g>
		<rect x="1275.987" y="1056.638" style="fill:#E7EEFD;" width="43.955" height="27.71"/>
		<rect x="1345.35" y="1056.638" style="fill:#E7EEFD;" width="43.955" height="27.71"/>
		<rect x="1411.792" y="1056.638" style="fill:#E7EEFD;" width="43.955" height="27.71"/>
		<rect x="1275.987" y="1106.784" style="fill:#E7EEFD;" width="43.955" height="27.71"/>
		<rect x="1345.35" y="1106.784" style="fill:#E7EEFD;" width="43.955" height="27.71"/>
		<rect x="1411.792" y="1106.784" style="fill:#E7EEFD;" width="43.955" height="27.71"/>
	</g>
	<polygon style="fill:#E7EEFD;" points="1218.539,1610.493 1174.584,1610.493 1177.985,1582.782 1221.94,1582.782 	"/>
	<polygon style="fill:#E7EEFD;" points="1287.902,1610.493 1243.947,1610.493 1247.348,1582.782 1291.303,1582.782 	"/>
	<polygon style="fill:#699FF0;" points="1354.344,1610.493 1310.389,1610.493 1313.79,1582.782 1357.745,1582.782 	"/>
	<polygon style="fill:#F99746;" points="1212.385,1660.64 1168.43,1660.64 1171.831,1632.929 1215.786,1632.929 	"/>
	<polygon style="fill:#E7EEFD;" points="1281.747,1660.64 1237.792,1660.64 1241.193,1632.929 1285.148,1632.929 	"/>
	<polygon style="fill:#E7EEFD;" points="1348.189,1660.64 1304.234,1660.64 1307.636,1632.929 1351.59,1632.929 	"/>
	<polygon style="fill:#E7EEFD;" points="1199.399,1756.277 1155.444,1756.277 1158.845,1728.566 1202.8,1728.566 	"/>
	<polygon style="fill:#699FF0;" points="1268.762,1756.277 1224.807,1756.277 1228.208,1728.566 1272.163,1728.566 	"/>
	<polygon style="fill:#E7EEFD;" points="1335.204,1756.277 1291.249,1756.277 1294.649,1728.566 1338.604,1728.566 	"/>
	<polygon style="fill:#E7EEFD;" points="1193.245,1806.424 1149.29,1806.424 1152.691,1778.714 1196.646,1778.714 	"/>
	<polygon style="fill:#E7EEFD;" points="1262.607,1806.424 1218.652,1806.424 1222.053,1778.714 1266.008,1778.714 	"/>
	<polygon style="fill:#E7EEFD;" points="1329.049,1806.424 1285.094,1806.424 1288.495,1778.714 1332.45,1778.714 	"/>
	<polygon style="fill:#E7EEFD;" points="1909.725,1610.493 1953.68,1610.493 1950.278,1582.782 1906.324,1582.782 	"/>
	<polygon style="fill:#E7EEFD;" points="1840.362,1610.493 1884.317,1610.493 1880.916,1582.782 1836.961,1582.782 	"/>
	<polygon style="fill:#E7EEFD;" points="1773.92,1610.493 1817.875,1610.493 1814.475,1582.782 1770.52,1582.782 	"/>
	<polygon style="fill:#E7EEFD;" points="1915.879,1660.64 1959.834,1660.64 1956.434,1632.929 1912.479,1632.929 	"/>
	<polygon style="fill:#F99746;" points="1846.517,1660.64 1890.472,1660.64 1887.07,1632.929 1843.116,1632.929 	"/>
	<polygon style="fill:#E7EEFD;" points="1780.075,1660.64 1824.029,1660.64 1820.629,1632.929 1776.674,1632.929 	"/>
	<polygon style="fill:#699FF0;" points="1928.865,1756.277 1972.82,1756.277 1969.419,1728.566 1925.464,1728.566 	"/>
	<polygon style="fill:#E7EEFD;" points="1859.503,1756.277 1903.457,1756.277 1900.057,1728.566 1856.102,1728.566 	"/>
	<polygon style="fill:#E7EEFD;" points="1793.061,1756.277 1837.016,1756.277 1833.614,1728.566 1789.66,1728.566 	"/>
	<polygon style="fill:#E7EEFD;" points="1935.02,1806.424 1978.975,1806.424 1975.573,1778.714 1931.619,1778.714 	"/>
	<polygon style="fill:#E7EEFD;" points="1865.657,1806.424 1909.612,1806.424 1906.211,1778.714 1862.256,1778.714 	"/>
	<polygon style="fill:#F99746;" points="1799.215,1806.424 1843.17,1806.424 1839.77,1778.714 1795.814,1778.714 	"/>
	<rect x="1664.352" y="1056.638" style="fill:#E7EEFD;" width="43.954" height="27.71"/>
	<rect x="1733.715" y="1056.638" style="fill:#E7EEFD;" width="43.955" height="27.71"/>
	<rect x="1800.156" y="1056.638" style="fill:#E7EEFD;" width="43.955" height="27.71"/>
	<rect x="1664.352" y="1106.784" style="fill:#E7EEFD;" width="43.954" height="27.71"/>
	<rect x="1733.715" y="1106.784" style="fill:#E7EEFD;" width="43.955" height="27.71"/>
	<rect x="1800.156" y="1106.784" style="fill:#E7EEFD;" width="43.955" height="27.71"/>
	<rect x="1487.639" y="1051.288" style="fill:#1C468A;" width="147.631" height="177.346"/>
	<polygon style="fill:#233862;" points="1370.039,1536.904 1188.274,1536.904 1207.323,1435.861 1379.185,1435.861 	"/>
	<polygon style="fill:#233862;" points="1762.812,1536.904 1944.576,1536.904 1925.527,1435.861 1743.764,1435.861 	"/>
	<g>
		<rect x="1417.221" y="1502.275" style="fill:#233862;" width="40.747" height="327.92"/>
		<g>
			
				<rect x="1414.415" y="1359.302" transform="matrix(0.9933 -0.1158 0.1158 0.9933 -164.2328 174.8646)" style="fill:#233862;" width="16.795" height="283.119"/>
		</g>
		<path style="fill:#F99746;" d="M1512.432,1368.467H1292.64c-6.928,0-12.596-5.668-12.596-12.596V1348
			c0-6.928,5.668-12.596,12.596-12.596h219.793c6.928,0,12.596,5.668,12.596,12.596v7.871
			C1525.028,1362.799,1519.36,1368.467,1512.432,1368.467z"/>
	</g>
	<g>
		<rect x="1673.215" y="1502.275" style="fill:#233862;" width="40.748" height="327.92"/>
		<g>
			
				<rect x="1570.003" y="1492.464" transform="matrix(0.1158 -0.9933 0.9933 0.1158 22.5891 3027.0974)" style="fill:#233862;" width="283.119" height="16.795"/>
		</g>
		<path style="fill:#F99746;" d="M1621.942,1368.467h219.793c6.927,0,12.596-5.668,12.596-12.596V1348
			c0-6.928-5.669-12.596-12.596-12.596h-219.793c-6.928,0-12.596,5.668-12.596,12.596v7.871
			C1609.347,1362.799,1615.015,1368.467,1621.942,1368.467z"/>
	</g>
	<rect x="904.283" y="1084.348" style="fill:#1C468A;" width="203.529" height="251.057"/>
	<path style="fill:#F99746;" d="M1075.785,1210.391c0,38.517-31.221,69.736-69.737,69.736c-38.516,0-69.737-31.22-69.737-69.736
		c0-38.516,31.221-69.757,69.737-69.757C1044.564,1140.634,1075.785,1171.875,1075.785,1210.391z"/>
	<path style="fill:#699FF0;" d="M1075.785,1210.391H936.311c0-38.516,31.221-69.757,69.737-69.757
		C1044.564,1140.634,1075.785,1171.875,1075.785,1210.391z"/>
	<g>
		<rect x="976.479" y="1207.179" style="fill:#FFFFFF;" width="60.252" height="6.694"/>
		<rect x="976.479" y="1260.945" style="fill:#FFFFFF;" width="60.252" height="6.695"/>
		<rect x="987.777" y="1195.254" style="fill:#FFFFFF;" width="37.658" height="4.185"/>
		<rect x="987.777" y="1185.943" style="fill:#FFFFFF;" width="37.658" height="4.185"/>
		<rect x="987.777" y="1176.634" style="fill:#FFFFFF;" width="37.658" height="4.185"/>
		<rect x="987.777" y="1167.324" style="fill:#FFFFFF;" width="37.658" height="4.185"/>
		<rect x="987.777" y="1158.015" style="fill:#FFFFFF;" width="37.658" height="4.184"/>
		<rect x="976.479" y="1143.592" style="fill:#FFFFFF;" width="60.252" height="6.694"/>
		<rect x="987.777" y="1131.666" style="fill:#FFFFFF;" width="37.658" height="4.185"/>
		<rect x="987.777" y="1122.356" style="fill:#FFFFFF;" width="37.658" height="4.185"/>
		<rect x="987.777" y="1113.047" style="fill:#FFFFFF;" width="37.658" height="4.185"/>
		<rect x="987.777" y="1103.737" style="fill:#FFFFFF;" width="37.658" height="4.184"/>
		<rect x="987.777" y="1094.427" style="fill:#FFFFFF;" width="37.658" height="4.185"/>
		<g>
			<rect x="987.777" y="1241.28" style="fill:#FFFFFF;" width="37.658" height="4.184"/>
			<rect x="987.777" y="1251.113" style="fill:#FFFFFF;" width="37.658" height="4.184"/>
			<rect x="987.777" y="1231.447" style="fill:#FFFFFF;" width="37.658" height="4.184"/>
			<rect x="987.777" y="1221.614" style="fill:#FFFFFF;" width="37.658" height="4.185"/>
		</g>
		<rect x="976.479" y="1312.621" style="fill:#FFFFFF;" width="60.252" height="6.694"/>
		<g>
			<rect x="987.777" y="1292.955" style="fill:#FFFFFF;" width="37.658" height="4.184"/>
			<rect x="987.777" y="1302.788" style="fill:#FFFFFF;" width="37.658" height="4.184"/>
			<rect x="987.777" y="1283.122" style="fill:#FFFFFF;" width="37.658" height="4.185"/>
			<rect x="987.777" y="1273.289" style="fill:#FFFFFF;" width="37.658" height="4.185"/>
		</g>
	</g>
	<rect x="2025.908" y="1084.348" style="fill:#1C468A;" width="203.529" height="251.057"/>
	<path style="fill:#F99746;" d="M2197.409,1210.391c0,38.517-31.22,69.736-69.736,69.736s-69.736-31.22-69.736-69.736
		c0-38.516,31.22-69.757,69.736-69.757S2197.409,1171.875,2197.409,1210.391z"/>
	<path style="fill:#699FF0;" d="M2197.409,1210.391h-139.473c0-38.516,31.22-69.757,69.736-69.757
		S2197.409,1171.875,2197.409,1210.391z"/>
	<g>
		<rect x="2098.104" y="1207.179" style="fill:#FFFFFF;" width="60.253" height="6.694"/>
		<rect x="2098.104" y="1260.945" style="fill:#FFFFFF;" width="60.253" height="6.695"/>
		<rect x="2109.401" y="1195.254" style="fill:#FFFFFF;" width="37.658" height="4.185"/>
		<rect x="2109.401" y="1185.943" style="fill:#FFFFFF;" width="37.658" height="4.185"/>
		<rect x="2109.401" y="1176.634" style="fill:#FFFFFF;" width="37.658" height="4.185"/>
		<rect x="2109.401" y="1167.324" style="fill:#FFFFFF;" width="37.658" height="4.185"/>
		<rect x="2109.401" y="1158.015" style="fill:#FFFFFF;" width="37.658" height="4.184"/>
		<rect x="2098.104" y="1143.592" style="fill:#FFFFFF;" width="60.253" height="6.694"/>
		<rect x="2109.401" y="1131.666" style="fill:#FFFFFF;" width="37.658" height="4.185"/>
		<rect x="2109.401" y="1122.356" style="fill:#FFFFFF;" width="37.658" height="4.185"/>
		<rect x="2109.401" y="1113.047" style="fill:#FFFFFF;" width="37.658" height="4.185"/>
		<rect x="2109.401" y="1103.737" style="fill:#FFFFFF;" width="37.658" height="4.184"/>
		<rect x="2109.401" y="1094.427" style="fill:#FFFFFF;" width="37.658" height="4.185"/>
		<g>
			<rect x="2109.401" y="1241.28" style="fill:#FFFFFF;" width="37.658" height="4.184"/>
			<rect x="2109.401" y="1251.113" style="fill:#FFFFFF;" width="37.658" height="4.184"/>
			<rect x="2109.401" y="1231.447" style="fill:#FFFFFF;" width="37.658" height="4.184"/>
			<rect x="2109.401" y="1221.614" style="fill:#FFFFFF;" width="37.658" height="4.185"/>
		</g>
		<rect x="2098.104" y="1312.621" style="fill:#FFFFFF;" width="60.253" height="6.694"/>
		<g>
			<rect x="2109.401" y="1292.955" style="fill:#FFFFFF;" width="37.658" height="4.184"/>
			<rect x="2109.401" y="1302.788" style="fill:#FFFFFF;" width="37.658" height="4.184"/>
			<rect x="2109.401" y="1283.122" style="fill:#FFFFFF;" width="37.658" height="4.185"/>
			<rect x="2109.401" y="1273.289" style="fill:#FFFFFF;" width="37.658" height="4.185"/>
		</g>
	</g>
	<g>
		<path style="fill:#1C468A;" d="M1307.04,945.12c-22.31,0-40.46,18.15-40.46,40.46c0,2.1,0.16,4.17,0.48,6.19
			c0.2,1.33,0.47,2.64,0.8,3.93c1.47,5.689,4.16,10.899,7.76,15.33c0.56,0.689,1.14,1.37,1.75,2.02c1.13,1.23,2.35,2.38,3.63,3.46
			c7.04,5.94,16.14,9.52,26.04,9.52c9.89,0,18.96-3.57,26-9.48c2.04-1.72,3.92-3.64,5.59-5.72c0.4-0.5,0.79-1.021,1.17-1.54
			c2.95-4.059,5.16-8.68,6.43-13.66c0.55-2.12,0.93-4.31,1.11-6.54c0.11-1.16,0.16-2.33,0.16-3.51
			C1347.5,963.27,1329.35,945.12,1307.04,945.12z M1343.01,989.22c-0.21,2.2-0.63,4.35-1.23,6.42c-1.5,5.16-4.12,9.85-7.59,13.78
			c-0.47,0.55-0.97,1.08-1.48,1.6c-2.1,2.12-4.46,3.971-7.02,5.521c-5.45,3.3-11.83,5.191-18.65,5.191c-6.84,0-13.24-1.9-18.7-5.211
			h-0.57c-1.69-1.119-2.9-2.329-4.47-3.699c-0.72-0.62-1.42-1.28-2.09-1.96c-4.11-4.2-7.2-9.391-8.89-15.171
			c-0.39-1.33-0.7-2.69-0.93-4.08c-0.34-1.96-0.51-3.98-0.51-6.03c0-19.94,16.22-36.16,36.16-36.16s36.16,16.22,36.16,36.16
			C1343.2,986.81,1343.14,988.02,1343.01,989.22z"/>
	</g>
	<path style="fill:#1C468A;" d="M1319.525,1004.529L1319.525,1004.529c-4.389,2.891-10.345,1.665-13.236-2.725l-14.455-21.944
		c-2.891-4.389-1.665-10.345,2.724-13.236l0,0c4.389-2.891,10.345-1.665,13.236,2.724l14.454,21.945
		C1325.14,995.682,1323.915,1001.638,1319.525,1004.529z"/>
	<path style="fill:#98BAF4;" d="M1382.921,985.577c0-21.157,17.151-38.308,38.308-38.308s38.307,17.151,38.307,38.308
		c0,21.157-17.15,38.307-38.307,38.307S1382.921,1006.733,1382.921,985.577z"/>
	<g>
		<path style="fill:#1C468A;" d="M1421.23,945.12c-22.31,0-40.46,18.15-40.46,40.46c0,0.88,0.03,1.75,0.09,2.61
			c0.16,2.54,0.56,5.02,1.17,7.42c1.18,4.61,3.15,8.9,5.77,12.73c0.24,0.36,0.5,0.72,0.76,1.07c1.94,2.66,4.2,5.07,6.73,7.18
			c7.03,5.891,16.07,9.44,25.94,9.44c9.85,0,18.88-3.54,25.9-9.4c2.93-2.45,5.52-5.31,7.66-8.479c0.13-0.2,0.27-0.4,0.39-0.601
			c2.37-3.64,4.17-7.68,5.26-12c0.74-2.89,1.17-5.91,1.24-9.01c0.01-0.32,0.01-0.64,0.01-0.96
			C1461.69,963.27,1443.54,945.12,1421.23,945.12z M1457.38,986.61c-0.09,3.09-0.57,6.09-1.4,8.94c-1.26,4.42-3.35,8.49-6.09,12.04
			c-0.16,0.22-0.33,0.43-0.5,0.641c-2.69,3.34-5.41,6.01-9.08,8.399h-0.57c-5.42,3.24-11.75,5.101-18.51,5.101
			c-6.78,0-13.13-1.87-18.56-5.131c-3.28-1.97-6.22-4.449-8.71-7.319c-0.3-0.33-0.59-0.67-0.86-1.02
			c-2.99-3.69-5.26-7.98-6.61-12.66c-0.7-2.41-1.16-4.93-1.33-7.52c-0.06-0.83-0.09-1.66-0.09-2.5c0-19.94,16.22-36.16,36.16-36.16
			s36.16,16.22,36.16,36.16C1457.39,985.92,1457.39,986.27,1457.38,986.61z"/>
	</g>
	<path style="fill:#1C468A;" d="M1442.609,993.187L1442.609,993.187c-1.763,4.951-7.255,7.56-12.207,5.798l-24.756-8.812
		c-4.951-1.763-7.56-7.255-5.797-12.207l0,0c1.762-4.951,7.255-7.56,12.206-5.798l24.756,8.812
		C1441.762,982.743,1444.371,988.236,1442.609,993.187z"/>
	<path style="fill:#98BAF4;" d="M1650.638,985.577c0-21.157,17.151-38.308,38.308-38.308s38.308,17.151,38.308,38.308
		c0,21.157-17.151,38.307-38.308,38.307S1650.638,1006.733,1650.638,985.577z"/>
	<g>
		<path style="fill:#1C468A;" d="M1688.95,945.12c-22.311,0-40.46,18.15-40.46,40.46v0.25c0.02,3.3,0.439,6.5,1.21,9.57
			c1.229,4.94,3.38,9.53,6.25,13.57c0.02,0.02,0.04,0.05,0.06,0.07c2.061,2.89,4.49,5.49,7.23,7.75c6.99,5.77,15.95,9.24,25.71,9.24
			c9.729,0,18.1-3.46,25.09-9.21h0.57c2.29-1.88,4.37-4.011,6.199-6.34c0.051-0.07,0.11-0.141,0.16-0.211
			c3.37-4.359,5.87-9.43,7.23-14.93c0.68-2.72,1.09-5.54,1.18-8.44c0.01-0.44,0.021-0.88,0.021-1.32
			C1729.4,963.27,1711.25,945.12,1688.95,945.12z M1725.08,986.83c-0.1,2.94-0.55,5.79-1.32,8.51
			c-1.569,5.6-4.46,10.66-8.319,14.811c-0.061,0.069-0.12,0.13-0.171,0.189c-2.39,2.53-5.119,4.71-8.14,6.481
			c-5.35,3.12-11.56,4.91-18.18,4.91c-6.65,0-12.88-1.801-18.24-4.941c-3.46-2.03-6.55-4.62-9.15-7.64
			c-0.029-0.021-0.05-0.051-0.069-0.08c-3.36-3.92-5.901-8.57-7.34-13.68c-0.86-3.03-1.33-6.23-1.36-9.53v-0.28
			c0-19.94,16.22-36.16,36.16-36.16c19.93,0,36.149,16.22,36.149,36.16C1725.1,986,1725.09,986.42,1725.08,986.83z"/>
	</g>
	<path style="fill:#1C468A;" d="M1706.197,970.833L1706.197,970.833c3.415,3.995,2.939,10.058-1.056,13.472l-19.977,17.072
		c-3.995,3.414-10.058,2.938-13.472-1.056l0,0c-3.415-3.996-2.939-10.058,1.056-13.472l19.977-17.072
		C1696.721,966.362,1702.783,966.837,1706.197,970.833z"/>
	<path style="fill:#98BAF4;" d="M1761.85,985.577c0-21.157,17.15-38.308,38.307-38.308c21.157,0,38.308,17.151,38.308,38.308
		c0,21.157-17.15,38.307-38.308,38.307C1779,1023.884,1761.85,1006.733,1761.85,985.577z"/>
	<g>
		<path style="fill:#1C468A;" d="M1765.33,995.31h-2.23c0.011,0.03,0.021,0.06,0.021,0.09c0.02,0.06,0.04,0.13,0.05,0.19
			c0.01,0.05,0.03,0.11,0.05,0.16c0.061,0.23,0.13,0.46,0.2,0.7c0.11,0.38,0.23,0.76,0.35,1.13c0.08,0.25,0.16,0.49,0.25,0.73
			c0.15,0.44,0.32,0.88,0.49,1.31c0.101,0.25,0.2,0.5,0.3,0.75c0.381,0.899,0.79,1.79,1.23,2.649c0.29,0.551,0.58,1.091,0.89,1.62
			c0.261,0.46,0.53,0.91,0.82,1.351c0.41,0.66,0.84,1.29,1.29,1.92c0.45,0.62,0.92,1.229,1.4,1.83c0.25,0.3,0.5,0.6,0.75,0.899
			c0.26,0.28,0.51,0.561,0.76,0.841c1.03,0.029,2.06,0.059,3.09,0.079C1770.49,1007.16,1767.09,1001.58,1765.33,995.31z
			 M1765.33,995.31h-2.23c0.011,0.03,0.021,0.06,0.021,0.09c0.02,0.06,0.04,0.13,0.05,0.19c0.01,0.05,0.03,0.11,0.05,0.16
			c0.061,0.23,0.13,0.46,0.2,0.7c0.11,0.38,0.23,0.76,0.35,1.13c0.08,0.25,0.16,0.49,0.25,0.73c0.15,0.44,0.32,0.88,0.49,1.31
			c0.101,0.25,0.2,0.5,0.3,0.75c0.381,0.899,0.79,1.79,1.23,2.649c0.29,0.551,0.58,1.091,0.89,1.62c0.261,0.46,0.53,0.91,0.82,1.351
			c0.41,0.66,0.84,1.29,1.29,1.92c0.45,0.62,0.92,1.229,1.4,1.83c0.25,0.3,0.5,0.6,0.75,0.899c0.26,0.28,0.51,0.561,0.76,0.841
			c1.03,0.029,2.06,0.059,3.09,0.079C1770.49,1007.16,1767.09,1001.58,1765.33,995.31z M1765.33,995.31h-2.23
			c0.011,0.03,0.021,0.06,0.021,0.09c0.02,0.06,0.04,0.13,0.05,0.19c0.01,0.05,0.03,0.11,0.05,0.16c0.061,0.23,0.13,0.46,0.2,0.7
			c0.11,0.38,0.23,0.76,0.35,1.13c0.08,0.25,0.16,0.49,0.25,0.73c0.15,0.44,0.32,0.88,0.49,1.31c0.101,0.25,0.2,0.5,0.3,0.75
			c0.381,0.899,0.79,1.79,1.23,2.649c0.29,0.551,0.58,1.091,0.89,1.62c0.261,0.46,0.53,0.91,0.82,1.351
			c0.41,0.66,0.84,1.29,1.29,1.92c0.45,0.62,0.92,1.229,1.4,1.83c0.25,0.3,0.5,0.6,0.75,0.899c0.26,0.28,0.51,0.561,0.76,0.841
			c1.03,0.029,2.06,0.059,3.09,0.079C1770.49,1007.16,1767.09,1001.58,1765.33,995.31z M1765.33,995.31h-2.23
			c0.011,0.03,0.021,0.06,0.021,0.09c0.02,0.06,0.04,0.13,0.05,0.19c0.01,0.05,0.03,0.11,0.05,0.16c0.061,0.23,0.13,0.46,0.2,0.7
			c0.11,0.38,0.23,0.76,0.35,1.13c0.08,0.25,0.16,0.49,0.25,0.73c0.15,0.44,0.32,0.88,0.49,1.31c0.101,0.25,0.2,0.5,0.3,0.75
			c0.381,0.899,0.79,1.79,1.23,2.649c0.29,0.551,0.58,1.091,0.89,1.62c0.261,0.46,0.53,0.91,0.82,1.351
			c0.41,0.66,0.84,1.29,1.29,1.92c0.45,0.62,0.92,1.229,1.4,1.83c0.25,0.3,0.5,0.6,0.75,0.899c0.26,0.28,0.51,0.561,0.76,0.841
			c1.03,0.029,2.06,0.059,3.09,0.079C1770.49,1007.16,1767.09,1001.58,1765.33,995.31z M1765.33,995.31h-2.23
			c0.011,0.03,0.021,0.06,0.021,0.09c0.02,0.06,0.04,0.13,0.05,0.19c0.01,0.05,0.03,0.11,0.05,0.16c0.061,0.23,0.13,0.46,0.2,0.7
			c0.11,0.38,0.23,0.76,0.35,1.13c0.08,0.25,0.16,0.49,0.25,0.73c0.15,0.44,0.32,0.88,0.49,1.31c0.101,0.25,0.2,0.5,0.3,0.75
			c0.381,0.899,0.79,1.79,1.23,2.649c0.29,0.551,0.58,1.091,0.89,1.62c0.261,0.46,0.53,0.91,0.82,1.351
			c0.41,0.66,0.84,1.29,1.29,1.92c0.45,0.62,0.92,1.229,1.4,1.83c0.25,0.3,0.5,0.6,0.75,0.899c0.26,0.28,0.51,0.561,0.76,0.841
			c1.03,0.029,2.06,0.059,3.09,0.079C1770.49,1007.16,1767.09,1001.58,1765.33,995.31z M1765.33,995.31h-2.23
			c0.011,0.03,0.021,0.06,0.021,0.09c0.02,0.06,0.04,0.13,0.05,0.19c0.01,0.05,0.03,0.11,0.05,0.16c0.061,0.23,0.13,0.46,0.2,0.7
			c0.11,0.38,0.23,0.76,0.35,1.13c0.08,0.25,0.16,0.49,0.25,0.73c0.15,0.44,0.32,0.88,0.49,1.31c0.101,0.25,0.2,0.5,0.3,0.75
			c0.381,0.899,0.79,1.79,1.23,2.649c0.29,0.551,0.58,1.091,0.89,1.62c0.261,0.46,0.53,0.91,0.82,1.351
			c0.41,0.66,0.84,1.29,1.29,1.92c0.45,0.62,0.92,1.229,1.4,1.83c0.25,0.3,0.5,0.6,0.75,0.899c0.26,0.28,0.51,0.561,0.76,0.841
			c1.03,0.029,2.06,0.059,3.09,0.079C1770.49,1007.16,1767.09,1001.58,1765.33,995.31z M1765.33,995.31h-2.23
			c0.011,0.03,0.021,0.06,0.021,0.09c0.02,0.06,0.04,0.13,0.05,0.19c0.01,0.05,0.03,0.11,0.05,0.16c0.061,0.23,0.13,0.46,0.2,0.7
			c0.11,0.38,0.23,0.76,0.35,1.13c0.08,0.25,0.16,0.49,0.25,0.73c0.15,0.44,0.32,0.88,0.49,1.31c0.101,0.25,0.2,0.5,0.3,0.75
			c0.381,0.899,0.79,1.79,1.23,2.649c0.29,0.551,0.58,1.091,0.89,1.62c0.261,0.46,0.53,0.91,0.82,1.351
			c0.41,0.66,0.84,1.29,1.29,1.92c0.45,0.62,0.92,1.229,1.4,1.83c0.25,0.3,0.5,0.6,0.75,0.899c0.26,0.28,0.51,0.561,0.76,0.841
			c1.03,0.029,2.06,0.059,3.09,0.079C1770.49,1007.16,1767.09,1001.58,1765.33,995.31z M1765.33,995.31h-2.23
			c0.011,0.03,0.021,0.06,0.021,0.09c0.02,0.06,0.04,0.13,0.05,0.19c0.01,0.05,0.03,0.11,0.05,0.16c0.061,0.23,0.13,0.46,0.2,0.7
			c0.11,0.38,0.23,0.76,0.35,1.13c0.08,0.25,0.16,0.49,0.25,0.73c0.15,0.44,0.32,0.88,0.49,1.31c0.101,0.25,0.2,0.5,0.3,0.75
			c0.381,0.899,0.79,1.79,1.23,2.649c0.29,0.551,0.58,1.091,0.89,1.62c0.261,0.46,0.53,0.91,0.82,1.351
			c0.41,0.66,0.84,1.29,1.29,1.92c0.45,0.62,0.92,1.229,1.4,1.83c0.25,0.3,0.5,0.6,0.75,0.899c0.26,0.28,0.51,0.561,0.76,0.841
			c1.03,0.029,2.06,0.059,3.09,0.079C1770.49,1007.16,1767.09,1001.58,1765.33,995.31z M1765.33,995.31h-2.23
			c0.011,0.03,0.021,0.06,0.021,0.09c0.02,0.06,0.04,0.13,0.05,0.19c0.01,0.05,0.03,0.11,0.05,0.16c0.061,0.23,0.13,0.46,0.2,0.7
			c0.11,0.38,0.23,0.76,0.35,1.13c0.08,0.25,0.16,0.49,0.25,0.73c0.15,0.44,0.32,0.88,0.49,1.31c0.101,0.25,0.2,0.5,0.3,0.75
			c0.381,0.899,0.79,1.79,1.23,2.649c0.29,0.551,0.58,1.091,0.89,1.62c0.261,0.46,0.53,0.91,0.82,1.351
			c0.41,0.66,0.84,1.29,1.29,1.92c0.45,0.62,0.92,1.229,1.4,1.83c0.25,0.3,0.5,0.6,0.75,0.899c0.26,0.28,0.51,0.561,0.76,0.841
			c1.03,0.029,2.06,0.059,3.09,0.079C1770.49,1007.16,1767.09,1001.58,1765.33,995.31z M1765.33,995.31h-2.23
			c0.011,0.03,0.021,0.06,0.021,0.09c0.02,0.06,0.04,0.13,0.05,0.19c0.01,0.05,0.03,0.11,0.05,0.16c0.061,0.23,0.13,0.46,0.2,0.7
			c0.11,0.38,0.23,0.76,0.35,1.13c0.08,0.25,0.16,0.49,0.25,0.73c0.15,0.44,0.32,0.88,0.49,1.31c0.101,0.25,0.2,0.5,0.3,0.75
			c0.381,0.899,0.79,1.79,1.23,2.649c0.29,0.551,0.58,1.091,0.89,1.62c0.261,0.46,0.53,0.91,0.82,1.351
			c0.41,0.66,0.84,1.29,1.29,1.92c0.45,0.62,0.92,1.229,1.4,1.83c0.25,0.3,0.5,0.6,0.75,0.899c0.26,0.28,0.51,0.561,0.76,0.841
			c1.03,0.029,2.06,0.059,3.09,0.079C1770.49,1007.16,1767.09,1001.58,1765.33,995.31z M1765.33,995.31h-2.23
			c0.011,0.03,0.021,0.06,0.021,0.09c0.02,0.06,0.04,0.13,0.05,0.19c0.01,0.05,0.03,0.11,0.05,0.16c0.061,0.23,0.13,0.46,0.2,0.7
			c0.11,0.38,0.23,0.76,0.35,1.13c0.08,0.25,0.16,0.49,0.25,0.73c0.15,0.44,0.32,0.88,0.49,1.31c0.101,0.25,0.2,0.5,0.3,0.75
			c0.381,0.899,0.79,1.79,1.23,2.649c0.29,0.551,0.58,1.091,0.89,1.62c0.261,0.46,0.53,0.91,0.82,1.351
			c0.41,0.66,0.84,1.29,1.29,1.92c0.45,0.62,0.92,1.229,1.4,1.83c0.25,0.3,0.5,0.6,0.75,0.899c0.26,0.28,0.51,0.561,0.76,0.841
			c1.03,0.029,2.06,0.059,3.09,0.079C1770.49,1007.16,1767.09,1001.58,1765.33,995.31z M1765.33,995.31h-2.23
			c0.011,0.03,0.021,0.06,0.021,0.09c0.02,0.06,0.04,0.13,0.05,0.19c0.01,0.05,0.03,0.11,0.05,0.16c0.061,0.23,0.13,0.46,0.2,0.7
			c0.11,0.38,0.23,0.76,0.35,1.13c0.08,0.25,0.16,0.49,0.25,0.73c0.15,0.44,0.32,0.88,0.49,1.31c0.101,0.25,0.2,0.5,0.3,0.75
			c0.381,0.899,0.79,1.79,1.23,2.649c0.29,0.551,0.58,1.091,0.89,1.62c0.261,0.46,0.53,0.91,0.82,1.351
			c0.41,0.66,0.84,1.29,1.29,1.92c0.45,0.62,0.92,1.229,1.4,1.83c0.25,0.3,0.5,0.6,0.75,0.899c0.26,0.28,0.51,0.561,0.76,0.841
			c1.03,0.029,2.06,0.059,3.09,0.079C1770.49,1007.16,1767.09,1001.58,1765.33,995.31z M1765.33,995.31h-2.23
			c0.011,0.03,0.021,0.06,0.021,0.09c0.02,0.06,0.04,0.13,0.05,0.19c0.01,0.05,0.03,0.11,0.05,0.16c0.061,0.23,0.13,0.46,0.2,0.7
			c0.11,0.38,0.23,0.76,0.35,1.13c0.08,0.25,0.16,0.49,0.25,0.73c0.15,0.44,0.32,0.88,0.49,1.31c0.101,0.25,0.2,0.5,0.3,0.75
			c0.381,0.899,0.79,1.79,1.23,2.649c0.29,0.551,0.58,1.091,0.89,1.62c0.261,0.46,0.53,0.91,0.82,1.351
			c0.41,0.66,0.84,1.29,1.29,1.92c0.45,0.62,0.92,1.229,1.4,1.83c0.25,0.3,0.5,0.6,0.75,0.899c0.26,0.28,0.51,0.561,0.76,0.841
			c1.03,0.029,2.06,0.059,3.09,0.079C1770.49,1007.16,1767.09,1001.58,1765.33,995.31z M1765.33,995.31h-2.23
			c0.011,0.03,0.021,0.06,0.021,0.09c0.02,0.06,0.04,0.13,0.05,0.19c0.01,0.05,0.03,0.11,0.05,0.16c0.061,0.23,0.13,0.46,0.2,0.7
			c0.11,0.38,0.23,0.76,0.35,1.13c0.08,0.25,0.16,0.49,0.25,0.73c0.15,0.44,0.32,0.88,0.49,1.31c0.101,0.25,0.2,0.5,0.3,0.75
			c0.381,0.899,0.79,1.79,1.23,2.649c0.29,0.551,0.58,1.091,0.89,1.62c0.261,0.46,0.53,0.91,0.82,1.351
			c0.41,0.66,0.84,1.29,1.29,1.92c0.45,0.62,0.92,1.229,1.4,1.83c0.25,0.3,0.5,0.6,0.75,0.899c0.26,0.28,0.51,0.561,0.76,0.841
			c1.03,0.029,2.06,0.059,3.09,0.079C1770.49,1007.16,1767.09,1001.58,1765.33,995.31z M1765.33,995.31h-2.23
			c0.011,0.03,0.021,0.06,0.021,0.09c0.02,0.06,0.04,0.13,0.05,0.19c0.01,0.05,0.03,0.11,0.05,0.16c0.061,0.23,0.13,0.46,0.2,0.7
			c0.11,0.38,0.23,0.76,0.35,1.13c0.08,0.25,0.16,0.49,0.25,0.73c0.15,0.44,0.32,0.88,0.49,1.31c0.101,0.25,0.2,0.5,0.3,0.75
			c0.381,0.899,0.79,1.79,1.23,2.649c0.29,0.551,0.58,1.091,0.89,1.62c0.261,0.46,0.53,0.91,0.82,1.351
			c0.41,0.66,0.84,1.29,1.29,1.92c0.45,0.62,0.92,1.229,1.4,1.83c0.25,0.3,0.5,0.6,0.75,0.899c0.26,0.28,0.51,0.561,0.76,0.841
			c1.03,0.029,2.06,0.059,3.09,0.079C1770.49,1007.16,1767.09,1001.58,1765.33,995.31z M1765.33,995.31h-2.23
			c0.011,0.03,0.021,0.06,0.021,0.09c0.02,0.06,0.04,0.13,0.05,0.19c0.01,0.05,0.03,0.11,0.05,0.16c0.061,0.23,0.13,0.46,0.2,0.7
			c0.11,0.38,0.23,0.76,0.35,1.13c0.08,0.25,0.16,0.49,0.25,0.73c0.15,0.44,0.32,0.88,0.49,1.31c0.101,0.25,0.2,0.5,0.3,0.75
			c0.381,0.899,0.79,1.79,1.23,2.649c0.29,0.551,0.58,1.091,0.89,1.62c0.261,0.46,0.53,0.91,0.82,1.351
			c0.41,0.66,0.84,1.29,1.29,1.92c0.45,0.62,0.92,1.229,1.4,1.83c0.25,0.3,0.5,0.6,0.75,0.899c0.26,0.28,0.51,0.561,0.76,0.841
			c1.03,0.029,2.06,0.059,3.09,0.079C1770.49,1007.16,1767.09,1001.58,1765.33,995.31z M1765.33,995.31h-2.23
			c0.011,0.03,0.021,0.06,0.021,0.09c0.02,0.06,0.04,0.13,0.05,0.19c0.01,0.05,0.03,0.11,0.05,0.16c0.061,0.23,0.13,0.46,0.2,0.7
			c0.11,0.38,0.23,0.76,0.35,1.13c0.08,0.25,0.16,0.49,0.25,0.73c0.15,0.44,0.32,0.88,0.49,1.31c0.101,0.25,0.2,0.5,0.3,0.75
			c0.381,0.899,0.79,1.79,1.23,2.649c0.29,0.551,0.58,1.091,0.89,1.62c0.261,0.46,0.53,0.91,0.82,1.351
			c0.41,0.66,0.84,1.29,1.29,1.92c0.45,0.62,0.92,1.229,1.4,1.83c0.25,0.3,0.5,0.6,0.75,0.899c0.26,0.28,0.51,0.561,0.76,0.841
			c1.03,0.029,2.06,0.059,3.09,0.079C1770.49,1007.16,1767.09,1001.58,1765.33,995.31z M1765.33,995.31h-2.23
			c0.011,0.03,0.021,0.06,0.021,0.09c0.02,0.06,0.04,0.13,0.05,0.19c0.01,0.05,0.03,0.11,0.05,0.16c0.061,0.23,0.13,0.46,0.2,0.7
			c0.11,0.38,0.23,0.76,0.35,1.13c0.08,0.25,0.16,0.49,0.25,0.73c0.15,0.44,0.32,0.88,0.49,1.31c0.101,0.25,0.2,0.5,0.3,0.75
			c0.381,0.899,0.79,1.79,1.23,2.649c0.29,0.551,0.58,1.091,0.89,1.62c0.261,0.46,0.53,0.91,0.82,1.351
			c0.41,0.66,0.84,1.29,1.29,1.92c0.45,0.62,0.92,1.229,1.4,1.83c0.25,0.3,0.5,0.6,0.75,0.899c0.26,0.28,0.51,0.561,0.76,0.841
			c1.03,0.029,2.06,0.059,3.09,0.079C1770.49,1007.16,1767.09,1001.58,1765.33,995.31z M1765.33,995.31h-2.23
			c0.011,0.03,0.021,0.06,0.021,0.09c0.02,0.06,0.04,0.13,0.05,0.19c0.01,0.05,0.03,0.11,0.05,0.16c0.061,0.23,0.13,0.46,0.2,0.7
			c0.11,0.38,0.23,0.76,0.35,1.13c0.08,0.25,0.16,0.49,0.25,0.73c0.15,0.44,0.32,0.88,0.49,1.31c0.101,0.25,0.2,0.5,0.3,0.75
			c0.381,0.899,0.79,1.79,1.23,2.649c0.29,0.551,0.58,1.091,0.89,1.62c0.261,0.46,0.53,0.91,0.82,1.351
			c0.41,0.66,0.84,1.29,1.29,1.92c0.45,0.62,0.92,1.229,1.4,1.83c0.25,0.3,0.5,0.6,0.75,0.899c0.26,0.28,0.51,0.561,0.76,0.841
			c1.03,0.029,2.06,0.059,3.09,0.079C1770.49,1007.16,1767.09,1001.58,1765.33,995.31z M1765.33,995.31h-2.23
			c0.011,0.03,0.021,0.06,0.021,0.09c0.02,0.06,0.04,0.13,0.05,0.19c0.01,0.05,0.03,0.11,0.05,0.16c0.061,0.23,0.13,0.46,0.2,0.7
			c0.11,0.38,0.23,0.76,0.35,1.13c0.08,0.25,0.16,0.49,0.25,0.73c0.15,0.44,0.32,0.88,0.49,1.31c0.101,0.25,0.2,0.5,0.3,0.75
			c0.381,0.899,0.79,1.79,1.23,2.649c0.29,0.551,0.58,1.091,0.89,1.62c0.261,0.46,0.53,0.91,0.82,1.351
			c0.41,0.66,0.84,1.29,1.29,1.92c0.45,0.62,0.92,1.229,1.4,1.83c0.25,0.3,0.5,0.6,0.75,0.899c0.26,0.28,0.51,0.561,0.76,0.841
			c1.03,0.029,2.06,0.059,3.09,0.079C1770.49,1007.16,1767.09,1001.58,1765.33,995.31z M1765.33,995.31h-2.23
			c0.011,0.03,0.021,0.06,0.021,0.09c0.02,0.06,0.04,0.13,0.05,0.19c0.01,0.05,0.03,0.11,0.05,0.16c0.061,0.23,0.13,0.46,0.2,0.7
			c0.11,0.38,0.23,0.76,0.35,1.13c0.08,0.25,0.16,0.49,0.25,0.73c0.15,0.44,0.32,0.88,0.49,1.31c0.101,0.25,0.2,0.5,0.3,0.75
			c0.381,0.899,0.79,1.79,1.23,2.649c0.29,0.551,0.58,1.091,0.89,1.62c0.261,0.46,0.53,0.91,0.82,1.351
			c0.41,0.66,0.84,1.29,1.29,1.92c0.45,0.62,0.92,1.229,1.4,1.83c0.25,0.3,0.5,0.6,0.75,0.899c0.26,0.28,0.51,0.561,0.76,0.841
			c1.03,0.029,2.06,0.059,3.09,0.079C1770.49,1007.16,1767.09,1001.58,1765.33,995.31z M1765.33,995.31h-2.23
			c0.011,0.03,0.021,0.06,0.021,0.09c0.02,0.06,0.04,0.13,0.05,0.19c0.01,0.05,0.03,0.11,0.05,0.16c0.061,0.23,0.13,0.46,0.2,0.7
			c0.11,0.38,0.23,0.76,0.35,1.13c0.08,0.25,0.16,0.49,0.25,0.73c0.15,0.44,0.32,0.88,0.49,1.31c0.101,0.25,0.2,0.5,0.3,0.75
			c0.381,0.899,0.79,1.79,1.23,2.649c0.29,0.551,0.58,1.091,0.89,1.62c0.261,0.46,0.53,0.91,0.82,1.351
			c0.41,0.66,0.84,1.29,1.29,1.92c0.45,0.62,0.92,1.229,1.4,1.83c0.25,0.3,0.5,0.6,0.75,0.899c0.26,0.28,0.51,0.561,0.76,0.841
			c1.03,0.029,2.06,0.059,3.09,0.079C1770.49,1007.16,1767.09,1001.58,1765.33,995.31z M1765.33,995.31h-2.23
			c0.011,0.03,0.021,0.06,0.021,0.09c0.02,0.06,0.04,0.13,0.05,0.19c0.01,0.05,0.03,0.11,0.05,0.16c0.061,0.23,0.13,0.46,0.2,0.7
			c0.11,0.38,0.23,0.76,0.35,1.13c0.08,0.25,0.16,0.49,0.25,0.73c0.15,0.44,0.32,0.88,0.49,1.31c0.101,0.25,0.2,0.5,0.3,0.75
			c0.381,0.899,0.79,1.79,1.23,2.649c0.29,0.551,0.58,1.091,0.89,1.62c0.261,0.46,0.53,0.91,0.82,1.351
			c0.41,0.66,0.84,1.29,1.29,1.92c0.45,0.62,0.92,1.229,1.4,1.83c0.25,0.3,0.5,0.6,0.75,0.899c0.26,0.28,0.51,0.561,0.76,0.841
			c1.03,0.029,2.06,0.059,3.09,0.079C1770.49,1007.16,1767.09,1001.58,1765.33,995.31z M1765.33,995.31h-2.23
			c0.011,0.03,0.021,0.06,0.021,0.09c0.02,0.06,0.04,0.13,0.05,0.19c0.01,0.05,0.03,0.11,0.05,0.16c0.061,0.23,0.13,0.46,0.2,0.7
			c0.11,0.38,0.23,0.76,0.35,1.13c0.08,0.25,0.16,0.49,0.25,0.73c0.15,0.44,0.32,0.88,0.49,1.31c0.101,0.25,0.2,0.5,0.3,0.75
			c0.381,0.899,0.79,1.79,1.23,2.649c0.29,0.551,0.58,1.091,0.89,1.62c0.261,0.46,0.53,0.91,0.82,1.351
			c0.41,0.66,0.84,1.29,1.29,1.92c0.45,0.62,0.92,1.229,1.4,1.83c0.25,0.3,0.5,0.6,0.75,0.899c0.26,0.28,0.51,0.561,0.76,0.841
			c1.03,0.029,2.06,0.059,3.09,0.079C1770.49,1007.16,1767.09,1001.58,1765.33,995.31z M1765.33,995.31h-2.23
			c0.011,0.03,0.021,0.06,0.021,0.09c0.02,0.06,0.04,0.13,0.05,0.19c0.01,0.05,0.03,0.11,0.05,0.16c0.061,0.23,0.13,0.46,0.2,0.7
			c0.11,0.38,0.23,0.76,0.35,1.13c0.08,0.25,0.16,0.49,0.25,0.73c0.15,0.44,0.32,0.88,0.49,1.31c0.101,0.25,0.2,0.5,0.3,0.75
			c0.381,0.899,0.79,1.79,1.23,2.649c0.29,0.551,0.58,1.091,0.89,1.62c0.261,0.46,0.53,0.91,0.82,1.351
			c0.41,0.66,0.84,1.29,1.29,1.92c0.45,0.62,0.92,1.229,1.4,1.83c0.25,0.3,0.5,0.6,0.75,0.899c0.26,0.28,0.51,0.561,0.76,0.841
			c1.03,0.029,2.06,0.059,3.09,0.079C1770.49,1007.16,1767.09,1001.58,1765.33,995.31z M1765.33,995.31h-2.23
			c0.011,0.03,0.021,0.06,0.021,0.09c0.02,0.06,0.04,0.13,0.05,0.19c0.01,0.05,0.03,0.11,0.05,0.16c0.061,0.23,0.13,0.46,0.2,0.7
			c0.11,0.38,0.23,0.76,0.35,1.13c0.08,0.25,0.16,0.49,0.25,0.73c0.15,0.44,0.32,0.88,0.49,1.31c0.101,0.25,0.2,0.5,0.3,0.75
			c0.381,0.899,0.79,1.79,1.23,2.649c0.29,0.551,0.58,1.091,0.89,1.62c0.261,0.46,0.53,0.91,0.82,1.351
			c0.41,0.66,0.84,1.29,1.29,1.92c0.45,0.62,0.92,1.229,1.4,1.83c0.25,0.3,0.5,0.6,0.75,0.899c0.26,0.28,0.51,0.561,0.76,0.841
			c1.03,0.029,2.06,0.059,3.09,0.079C1770.49,1007.16,1767.09,1001.58,1765.33,995.31z M1765.33,995.31h-2.23
			c0.011,0.03,0.021,0.06,0.021,0.09c0.02,0.06,0.04,0.13,0.05,0.19c0.01,0.05,0.03,0.11,0.05,0.16c0.061,0.23,0.13,0.46,0.2,0.7
			c0.11,0.38,0.23,0.76,0.35,1.13c0.08,0.25,0.16,0.49,0.25,0.73c0.15,0.44,0.32,0.88,0.49,1.31c0.101,0.25,0.2,0.5,0.3,0.75
			c0.381,0.899,0.79,1.79,1.23,2.649c0.29,0.551,0.58,1.091,0.89,1.62c0.261,0.46,0.53,0.91,0.82,1.351
			c0.41,0.66,0.84,1.29,1.29,1.92c0.45,0.62,0.92,1.229,1.4,1.83c0.25,0.3,0.5,0.6,0.75,0.899c0.26,0.28,0.51,0.561,0.76,0.841
			c1.03,0.029,2.06,0.059,3.09,0.079C1770.49,1007.16,1767.09,1001.58,1765.33,995.31z M1765.33,995.31h-2.23
			c0.011,0.03,0.021,0.06,0.021,0.09c0.02,0.06,0.04,0.13,0.05,0.19c0.01,0.05,0.03,0.11,0.05,0.16c0.061,0.23,0.13,0.46,0.2,0.7
			c0.11,0.38,0.23,0.76,0.35,1.13c0.08,0.25,0.16,0.49,0.25,0.73c0.15,0.44,0.32,0.88,0.49,1.31c0.101,0.25,0.2,0.5,0.3,0.75
			c0.381,0.899,0.79,1.79,1.23,2.649c0.29,0.551,0.58,1.091,0.89,1.62c0.261,0.46,0.53,0.91,0.82,1.351
			c0.41,0.66,0.84,1.29,1.29,1.92c0.45,0.62,0.92,1.229,1.4,1.83c0.25,0.3,0.5,0.6,0.75,0.899c0.26,0.28,0.51,0.561,0.76,0.841
			c1.03,0.029,2.06,0.059,3.09,0.079C1770.49,1007.16,1767.09,1001.58,1765.33,995.31z M1765.33,995.31h-2.23
			c0.011,0.03,0.021,0.06,0.021,0.09c0.02,0.06,0.04,0.13,0.05,0.19c0.01,0.05,0.03,0.11,0.05,0.16c0.061,0.23,0.13,0.46,0.2,0.7
			c0.11,0.38,0.23,0.76,0.35,1.13c0.08,0.25,0.16,0.49,0.25,0.73c0.15,0.44,0.32,0.88,0.49,1.31c0.101,0.25,0.2,0.5,0.3,0.75
			c0.381,0.899,0.79,1.79,1.23,2.649c0.29,0.551,0.58,1.091,0.89,1.62c0.261,0.46,0.53,0.91,0.82,1.351
			c0.41,0.66,0.84,1.29,1.29,1.92c0.45,0.62,0.92,1.229,1.4,1.83c0.25,0.3,0.5,0.6,0.75,0.899c0.26,0.28,0.51,0.561,0.76,0.841
			c1.03,0.029,2.06,0.059,3.09,0.079C1770.49,1007.16,1767.09,1001.58,1765.33,995.31z M1800.16,945.12
			c-22.311,0-40.46,18.15-40.46,40.46c0,0.62,0.01,1.24,0.04,1.86c0.13,2.7,0.51,5.33,1.149,7.87c1.48,5.999,4.32,11.49,8.16,16.1
			c0.101,0.13,0.19,0.24,0.311,0.359v0.011c1.569,1.85,3.31,3.55,5.189,5.09c6.98,5.72,15.9,9.16,25.61,9.16
			c9.689,0,18.59-3.431,25.56-9.12h0.16c1.25-1.19,2.28-2.12,3.4-3.28c0.18-0.189,0.359-0.38,0.53-0.57
			c4.6-4.949,7.97-11.05,9.629-17.81c0.48-1.96,0.82-3.97,1-6.03c0.121-1.2,0.171-2.41,0.171-3.64
			C1840.61,963.27,1822.46,945.12,1800.16,945.12z M1836.13,989.11c-0.2,2.1-0.58,4.16-1.14,6.14c-1.93,6.94-5.88,13.05-11.18,17.64
			c-0.2,0.181-0.41,0.36-0.621,0.54c-1.56,1.28-3.22,2.45-4.979,3.471c-5.31,3.069-11.479,4.83-18.05,4.83
			c-6.59,0-12.2-1.771-17.53-4.86h-0.569c-2.391-1.39-4.61-3.04-6.61-4.92c-0.141-0.13-0.28-0.26-0.41-0.391
			c-4.55-4.399-7.95-9.979-9.71-16.249c-0.7-2.5-1.14-5.1-1.271-7.78c-0.04-0.65-0.06-1.3-0.06-1.95
			c0-19.94,16.22-36.16,36.16-36.16c19.93,0,36.15,16.22,36.15,36.16C1836.311,986.77,1836.25,987.95,1836.13,989.11z
			 M1765.33,995.31h-2.23c0.011,0.03,0.021,0.06,0.021,0.09c0.02,0.06,0.04,0.13,0.05,0.19c0.01,0.05,0.03,0.11,0.05,0.16
			c0.061,0.23,0.13,0.46,0.2,0.7c0.11,0.38,0.23,0.76,0.35,1.13c0.08,0.25,0.16,0.49,0.25,0.73c0.15,0.44,0.32,0.88,0.49,1.31
			c0.101,0.25,0.2,0.5,0.3,0.75c0.381,0.899,0.79,1.79,1.23,2.649c0.29,0.551,0.58,1.091,0.89,1.62c0.261,0.46,0.53,0.91,0.82,1.351
			c0.41,0.66,0.84,1.29,1.29,1.92c0.45,0.62,0.92,1.229,1.4,1.83c0.25,0.3,0.5,0.6,0.75,0.899c0.26,0.28,0.51,0.561,0.76,0.841
			c1.03,0.029,2.06,0.059,3.09,0.079C1770.49,1007.16,1767.09,1001.58,1765.33,995.31z M1765.33,995.31h-2.23
			c0.011,0.03,0.021,0.06,0.021,0.09c0.02,0.06,0.04,0.13,0.05,0.19c0.01,0.05,0.03,0.11,0.05,0.16c0.061,0.23,0.13,0.46,0.2,0.7
			c0.11,0.38,0.23,0.76,0.35,1.13c0.08,0.25,0.16,0.49,0.25,0.73c0.15,0.44,0.32,0.88,0.49,1.31c0.101,0.25,0.2,0.5,0.3,0.75
			c0.381,0.899,0.79,1.79,1.23,2.649c0.29,0.551,0.58,1.091,0.89,1.62c0.261,0.46,0.53,0.91,0.82,1.351
			c0.41,0.66,0.84,1.29,1.29,1.92c0.45,0.62,0.92,1.229,1.4,1.83c0.25,0.3,0.5,0.6,0.75,0.899c0.26,0.28,0.51,0.561,0.76,0.841
			c1.03,0.029,2.06,0.059,3.09,0.079C1770.49,1007.16,1767.09,1001.58,1765.33,995.31z M1765.33,995.31h-2.23
			c0.011,0.03,0.021,0.06,0.021,0.09c0.02,0.06,0.04,0.13,0.05,0.19c0.01,0.05,0.03,0.11,0.05,0.16c0.061,0.23,0.13,0.46,0.2,0.7
			c0.11,0.38,0.23,0.76,0.35,1.13c0.08,0.25,0.16,0.49,0.25,0.73c0.15,0.44,0.32,0.88,0.49,1.31c0.101,0.25,0.2,0.5,0.3,0.75
			c0.381,0.899,0.79,1.79,1.23,2.649c0.29,0.551,0.58,1.091,0.89,1.62c0.261,0.46,0.53,0.91,0.82,1.351
			c0.41,0.66,0.84,1.29,1.29,1.92c0.45,0.62,0.92,1.229,1.4,1.83c0.25,0.3,0.5,0.6,0.75,0.899c0.26,0.28,0.51,0.561,0.76,0.841
			c1.03,0.029,2.06,0.059,3.09,0.079C1770.49,1007.16,1767.09,1001.58,1765.33,995.31z M1765.33,995.31h-2.23
			c0.011,0.03,0.021,0.06,0.021,0.09c0.02,0.06,0.04,0.13,0.05,0.19c0.01,0.05,0.03,0.11,0.05,0.16c0.061,0.23,0.13,0.46,0.2,0.7
			c0.11,0.38,0.23,0.76,0.35,1.13c0.08,0.25,0.16,0.49,0.25,0.73c0.15,0.44,0.32,0.88,0.49,1.31c0.101,0.25,0.2,0.5,0.3,0.75
			c0.381,0.899,0.79,1.79,1.23,2.649c0.29,0.551,0.58,1.091,0.89,1.62c0.261,0.46,0.53,0.91,0.82,1.351
			c0.41,0.66,0.84,1.29,1.29,1.92c0.45,0.62,0.92,1.229,1.4,1.83c0.25,0.3,0.5,0.6,0.75,0.899c0.26,0.28,0.51,0.561,0.76,0.841
			c1.03,0.029,2.06,0.059,3.09,0.079C1770.49,1007.16,1767.09,1001.58,1765.33,995.31z M1765.33,995.31h-2.23
			c0.011,0.03,0.021,0.06,0.021,0.09c0.02,0.06,0.04,0.13,0.05,0.19c0.01,0.05,0.03,0.11,0.05,0.16c0.061,0.23,0.13,0.46,0.2,0.7
			c0.11,0.38,0.23,0.76,0.35,1.13c0.08,0.25,0.16,0.49,0.25,0.73c0.15,0.44,0.32,0.88,0.49,1.31c0.101,0.25,0.2,0.5,0.3,0.75
			c0.381,0.899,0.79,1.79,1.23,2.649c0.29,0.551,0.58,1.091,0.89,1.62c0.261,0.46,0.53,0.91,0.82,1.351
			c0.41,0.66,0.84,1.29,1.29,1.92c0.45,0.62,0.92,1.229,1.4,1.83c0.25,0.3,0.5,0.6,0.75,0.899c0.26,0.28,0.51,0.561,0.76,0.841
			c1.03,0.029,2.06,0.059,3.09,0.079C1770.49,1007.16,1767.09,1001.58,1765.33,995.31z M1765.33,995.31h-2.23
			c0.011,0.03,0.021,0.06,0.021,0.09c0.02,0.06,0.04,0.13,0.05,0.19c0.01,0.05,0.03,0.11,0.05,0.16c0.061,0.23,0.13,0.46,0.2,0.7
			c0.11,0.38,0.23,0.76,0.35,1.13c0.08,0.25,0.16,0.49,0.25,0.73c0.15,0.44,0.32,0.88,0.49,1.31c0.101,0.25,0.2,0.5,0.3,0.75
			c0.381,0.899,0.79,1.79,1.23,2.649c0.29,0.551,0.58,1.091,0.89,1.62c0.261,0.46,0.53,0.91,0.82,1.351
			c0.41,0.66,0.84,1.29,1.29,1.92c0.45,0.62,0.92,1.229,1.4,1.83c0.25,0.3,0.5,0.6,0.75,0.899c0.26,0.28,0.51,0.561,0.76,0.841
			c1.03,0.029,2.06,0.059,3.09,0.079C1770.49,1007.16,1767.09,1001.58,1765.33,995.31z M1765.33,995.31h-2.23
			c0.011,0.03,0.021,0.06,0.021,0.09c0.02,0.06,0.04,0.13,0.05,0.19c0.01,0.05,0.03,0.11,0.05,0.16c0.061,0.23,0.13,0.46,0.2,0.7
			c0.11,0.38,0.23,0.76,0.35,1.13c0.08,0.25,0.16,0.49,0.25,0.73c0.15,0.44,0.32,0.88,0.49,1.31c0.101,0.25,0.2,0.5,0.3,0.75
			c0.381,0.899,0.79,1.79,1.23,2.649c0.29,0.551,0.58,1.091,0.89,1.62c0.261,0.46,0.53,0.91,0.82,1.351
			c0.41,0.66,0.84,1.29,1.29,1.92c0.45,0.62,0.92,1.229,1.4,1.83c0.25,0.3,0.5,0.6,0.75,0.899c0.26,0.28,0.51,0.561,0.76,0.841
			c1.03,0.029,2.06,0.059,3.09,0.079C1770.49,1007.16,1767.09,1001.58,1765.33,995.31z M1765.33,995.31h-2.23
			c0.011,0.03,0.021,0.06,0.021,0.09c0.02,0.06,0.04,0.13,0.05,0.19c0.01,0.05,0.03,0.11,0.05,0.16c0.061,0.23,0.13,0.46,0.2,0.7
			c0.11,0.38,0.23,0.76,0.35,1.13c0.08,0.25,0.16,0.49,0.25,0.73c0.15,0.44,0.32,0.88,0.49,1.31c0.101,0.25,0.2,0.5,0.3,0.75
			c0.381,0.899,0.79,1.79,1.23,2.649c0.29,0.551,0.58,1.091,0.89,1.62c0.261,0.46,0.53,0.91,0.82,1.351
			c0.41,0.66,0.84,1.29,1.29,1.92c0.45,0.62,0.92,1.229,1.4,1.83c0.25,0.3,0.5,0.6,0.75,0.899c0.26,0.28,0.51,0.561,0.76,0.841
			c1.03,0.029,2.06,0.059,3.09,0.079C1770.49,1007.16,1767.09,1001.58,1765.33,995.31z M1765.33,995.31h-2.23
			c0.011,0.03,0.021,0.06,0.021,0.09c0.02,0.06,0.04,0.13,0.05,0.19c0.01,0.05,0.03,0.11,0.05,0.16c0.061,0.23,0.13,0.46,0.2,0.7
			c0.11,0.38,0.23,0.76,0.35,1.13c0.08,0.25,0.16,0.49,0.25,0.73c0.15,0.44,0.32,0.88,0.49,1.31c0.101,0.25,0.2,0.5,0.3,0.75
			c0.381,0.899,0.79,1.79,1.23,2.649c0.29,0.551,0.58,1.091,0.89,1.62c0.261,0.46,0.53,0.91,0.82,1.351
			c0.41,0.66,0.84,1.29,1.29,1.92c0.45,0.62,0.92,1.229,1.4,1.83c0.25,0.3,0.5,0.6,0.75,0.899c0.26,0.28,0.51,0.561,0.76,0.841
			c1.03,0.029,2.06,0.059,3.09,0.079C1770.49,1007.16,1767.09,1001.58,1765.33,995.31z M1765.33,995.31h-2.23
			c0.011,0.03,0.021,0.06,0.021,0.09c0.02,0.06,0.04,0.13,0.05,0.19c0.01,0.05,0.03,0.11,0.05,0.16c0.061,0.23,0.13,0.46,0.2,0.7
			c0.11,0.38,0.23,0.76,0.35,1.13c0.08,0.25,0.16,0.49,0.25,0.73c0.15,0.44,0.32,0.88,0.49,1.31c0.101,0.25,0.2,0.5,0.3,0.75
			c0.381,0.899,0.79,1.79,1.23,2.649c0.29,0.551,0.58,1.091,0.89,1.62c0.261,0.46,0.53,0.91,0.82,1.351
			c0.41,0.66,0.84,1.29,1.29,1.92c0.45,0.62,0.92,1.229,1.4,1.83c0.25,0.3,0.5,0.6,0.75,0.899c0.26,0.28,0.51,0.561,0.76,0.841
			c1.03,0.029,2.06,0.059,3.09,0.079C1770.49,1007.16,1767.09,1001.58,1765.33,995.31z M1765.33,995.31h-2.23
			c0.011,0.03,0.021,0.06,0.021,0.09c0.02,0.06,0.04,0.13,0.05,0.19c0.01,0.05,0.03,0.11,0.05,0.16c0.061,0.23,0.13,0.46,0.2,0.7
			c0.11,0.38,0.23,0.76,0.35,1.13c0.08,0.25,0.16,0.49,0.25,0.73c0.15,0.44,0.32,0.88,0.49,1.31c0.101,0.25,0.2,0.5,0.3,0.75
			c0.381,0.899,0.79,1.79,1.23,2.649c0.29,0.551,0.58,1.091,0.89,1.62c0.261,0.46,0.53,0.91,0.82,1.351
			c0.41,0.66,0.84,1.29,1.29,1.92c0.45,0.62,0.92,1.229,1.4,1.83c0.25,0.3,0.5,0.6,0.75,0.899c0.26,0.28,0.51,0.561,0.76,0.841
			c1.03,0.029,2.06,0.059,3.09,0.079C1770.49,1007.16,1767.09,1001.58,1765.33,995.31z M1765.33,995.31h-2.23
			c0.011,0.03,0.021,0.06,0.021,0.09c0.02,0.06,0.04,0.13,0.05,0.19c0.01,0.05,0.03,0.11,0.05,0.16c0.061,0.23,0.13,0.46,0.2,0.7
			c0.11,0.38,0.23,0.76,0.35,1.13c0.08,0.25,0.16,0.49,0.25,0.73c0.15,0.44,0.32,0.88,0.49,1.31c0.101,0.25,0.2,0.5,0.3,0.75
			c0.381,0.899,0.79,1.79,1.23,2.649c0.29,0.551,0.58,1.091,0.89,1.62c0.261,0.46,0.53,0.91,0.82,1.351
			c0.41,0.66,0.84,1.29,1.29,1.92c0.45,0.62,0.92,1.229,1.4,1.83c0.25,0.3,0.5,0.6,0.75,0.899c0.26,0.28,0.51,0.561,0.76,0.841
			c1.03,0.029,2.06,0.059,3.09,0.079C1770.49,1007.16,1767.09,1001.58,1765.33,995.31z M1765.33,995.31h-2.23
			c0.011,0.03,0.021,0.06,0.021,0.09c0.02,0.06,0.04,0.13,0.05,0.19c0.01,0.05,0.03,0.11,0.05,0.16c0.061,0.23,0.13,0.46,0.2,0.7
			c0.11,0.38,0.23,0.76,0.35,1.13c0.08,0.25,0.16,0.49,0.25,0.73c0.15,0.44,0.32,0.88,0.49,1.31c0.101,0.25,0.2,0.5,0.3,0.75
			c0.381,0.899,0.79,1.79,1.23,2.649c0.29,0.551,0.58,1.091,0.89,1.62c0.261,0.46,0.53,0.91,0.82,1.351
			c0.41,0.66,0.84,1.29,1.29,1.92c0.45,0.62,0.92,1.229,1.4,1.83c0.25,0.3,0.5,0.6,0.75,0.899c0.26,0.28,0.51,0.561,0.76,0.841
			c1.03,0.029,2.06,0.059,3.09,0.079C1770.49,1007.16,1767.09,1001.58,1765.33,995.31z M1765.33,995.31h-2.23
			c0.011,0.03,0.021,0.06,0.021,0.09c0.02,0.06,0.04,0.13,0.05,0.19c0.01,0.05,0.03,0.11,0.05,0.16c0.061,0.23,0.13,0.46,0.2,0.7
			c0.11,0.38,0.23,0.76,0.35,1.13c0.08,0.25,0.16,0.49,0.25,0.73c0.15,0.44,0.32,0.88,0.49,1.31c0.101,0.25,0.2,0.5,0.3,0.75
			c0.381,0.899,0.79,1.79,1.23,2.649c0.29,0.551,0.58,1.091,0.89,1.62c0.261,0.46,0.53,0.91,0.82,1.351
			c0.41,0.66,0.84,1.29,1.29,1.92c0.45,0.62,0.92,1.229,1.4,1.83c0.25,0.3,0.5,0.6,0.75,0.899c0.26,0.28,0.51,0.561,0.76,0.841
			c1.03,0.029,2.06,0.059,3.09,0.079C1770.49,1007.16,1767.09,1001.58,1765.33,995.31z M1765.33,995.31h-2.23
			c0.011,0.03,0.021,0.06,0.021,0.09c0.02,0.06,0.04,0.13,0.05,0.19c0.01,0.05,0.03,0.11,0.05,0.16c0.061,0.23,0.13,0.46,0.2,0.7
			c0.11,0.38,0.23,0.76,0.35,1.13c0.08,0.25,0.16,0.49,0.25,0.73c0.15,0.44,0.32,0.88,0.49,1.31c0.101,0.25,0.2,0.5,0.3,0.75
			c0.381,0.899,0.79,1.79,1.23,2.649c0.29,0.551,0.58,1.091,0.89,1.62c0.261,0.46,0.53,0.91,0.82,1.351
			c0.41,0.66,0.84,1.29,1.29,1.92c0.45,0.62,0.92,1.229,1.4,1.83c0.25,0.3,0.5,0.6,0.75,0.899c0.26,0.28,0.51,0.561,0.76,0.841
			c1.03,0.029,2.06,0.059,3.09,0.079C1770.49,1007.16,1767.09,1001.58,1765.33,995.31z M1765.33,995.31h-2.23
			c0.011,0.03,0.021,0.06,0.021,0.09c0.02,0.06,0.04,0.13,0.05,0.19c0.01,0.05,0.03,0.11,0.05,0.16c0.061,0.23,0.13,0.46,0.2,0.7
			c0.11,0.38,0.23,0.76,0.35,1.13c0.08,0.25,0.16,0.49,0.25,0.73c0.15,0.44,0.32,0.88,0.49,1.31c0.101,0.25,0.2,0.5,0.3,0.75
			c0.381,0.899,0.79,1.79,1.23,2.649c0.29,0.551,0.58,1.091,0.89,1.62c0.261,0.46,0.53,0.91,0.82,1.351
			c0.41,0.66,0.84,1.29,1.29,1.92c0.45,0.62,0.92,1.229,1.4,1.83c0.25,0.3,0.5,0.6,0.75,0.899c0.26,0.28,0.51,0.561,0.76,0.841
			c1.03,0.029,2.06,0.059,3.09,0.079C1770.49,1007.16,1767.09,1001.58,1765.33,995.31z M1765.33,995.31h-2.23
			c0.011,0.03,0.021,0.06,0.021,0.09c0.02,0.06,0.04,0.13,0.05,0.19c0.01,0.05,0.03,0.11,0.05,0.16c0.061,0.23,0.13,0.46,0.2,0.7
			c0.11,0.38,0.23,0.76,0.35,1.13c0.08,0.25,0.16,0.49,0.25,0.73c0.15,0.44,0.32,0.88,0.49,1.31c0.101,0.25,0.2,0.5,0.3,0.75
			c0.381,0.899,0.79,1.79,1.23,2.649c0.29,0.551,0.58,1.091,0.89,1.62c0.261,0.46,0.53,0.91,0.82,1.351
			c0.41,0.66,0.84,1.29,1.29,1.92c0.45,0.62,0.92,1.229,1.4,1.83c0.25,0.3,0.5,0.6,0.75,0.899c0.26,0.28,0.51,0.561,0.76,0.841
			c1.03,0.029,2.06,0.059,3.09,0.079C1770.49,1007.16,1767.09,1001.58,1765.33,995.31z M1765.33,995.31h-2.23
			c0.011,0.03,0.021,0.06,0.021,0.09c0.02,0.06,0.04,0.13,0.05,0.19c0.01,0.05,0.03,0.11,0.05,0.16c0.061,0.23,0.13,0.46,0.2,0.7
			c0.11,0.38,0.23,0.76,0.35,1.13c0.08,0.25,0.16,0.49,0.25,0.73c0.15,0.44,0.32,0.88,0.49,1.31c0.101,0.25,0.2,0.5,0.3,0.75
			c0.381,0.899,0.79,1.79,1.23,2.649c0.29,0.551,0.58,1.091,0.89,1.62c0.261,0.46,0.53,0.91,0.82,1.351
			c0.41,0.66,0.84,1.29,1.29,1.92c0.45,0.62,0.92,1.229,1.4,1.83c0.25,0.3,0.5,0.6,0.75,0.899c0.26,0.28,0.51,0.561,0.76,0.841
			c1.03,0.029,2.06,0.059,3.09,0.079C1770.49,1007.16,1767.09,1001.58,1765.33,995.31z M1765.33,995.31h-2.23
			c0.011,0.03,0.021,0.06,0.021,0.09c0.02,0.06,0.04,0.13,0.05,0.19c0.01,0.05,0.03,0.11,0.05,0.16c0.061,0.23,0.13,0.46,0.2,0.7
			c0.11,0.38,0.23,0.76,0.35,1.13c0.08,0.25,0.16,0.49,0.25,0.73c0.15,0.44,0.32,0.88,0.49,1.31c0.101,0.25,0.2,0.5,0.3,0.75
			c0.381,0.899,0.79,1.79,1.23,2.649c0.29,0.551,0.58,1.091,0.89,1.62c0.261,0.46,0.53,0.91,0.82,1.351
			c0.41,0.66,0.84,1.29,1.29,1.92c0.45,0.62,0.92,1.229,1.4,1.83c0.25,0.3,0.5,0.6,0.75,0.899c0.26,0.28,0.51,0.561,0.76,0.841
			c1.03,0.029,2.06,0.059,3.09,0.079C1770.49,1007.16,1767.09,1001.58,1765.33,995.31z M1765.33,995.31h-2.23
			c0.011,0.03,0.021,0.06,0.021,0.09c0.02,0.06,0.04,0.13,0.05,0.19c0.01,0.05,0.03,0.11,0.05,0.16c0.061,0.23,0.13,0.46,0.2,0.7
			c0.11,0.38,0.23,0.76,0.35,1.13c0.08,0.25,0.16,0.49,0.25,0.73c0.15,0.44,0.32,0.88,0.49,1.31c0.101,0.25,0.2,0.5,0.3,0.75
			c0.381,0.899,0.79,1.79,1.23,2.649c0.29,0.551,0.58,1.091,0.89,1.62c0.261,0.46,0.53,0.91,0.82,1.351
			c0.41,0.66,0.84,1.29,1.29,1.92c0.45,0.62,0.92,1.229,1.4,1.83c0.25,0.3,0.5,0.6,0.75,0.899c0.26,0.28,0.51,0.561,0.76,0.841
			c1.03,0.029,2.06,0.059,3.09,0.079C1770.49,1007.16,1767.09,1001.58,1765.33,995.31z M1765.33,995.31h-2.23
			c0.011,0.03,0.021,0.06,0.021,0.09c0.02,0.06,0.04,0.13,0.05,0.19c0.01,0.05,0.03,0.11,0.05,0.16c0.061,0.23,0.13,0.46,0.2,0.7
			c0.11,0.38,0.23,0.76,0.35,1.13c0.08,0.25,0.16,0.49,0.25,0.73c0.15,0.44,0.32,0.88,0.49,1.31c0.101,0.25,0.2,0.5,0.3,0.75
			c0.381,0.899,0.79,1.79,1.23,2.649c0.29,0.551,0.58,1.091,0.89,1.62c0.261,0.46,0.53,0.91,0.82,1.351
			c0.41,0.66,0.84,1.29,1.29,1.92c0.45,0.62,0.92,1.229,1.4,1.83c0.25,0.3,0.5,0.6,0.75,0.899c0.26,0.28,0.51,0.561,0.76,0.841
			c1.03,0.029,2.06,0.059,3.09,0.079C1770.49,1007.16,1767.09,1001.58,1765.33,995.31z M1765.33,995.31h-2.23
			c0.011,0.03,0.021,0.06,0.021,0.09c0.02,0.06,0.04,0.13,0.05,0.19c0.01,0.05,0.03,0.11,0.05,0.16c0.061,0.23,0.13,0.46,0.2,0.7
			c0.11,0.38,0.23,0.76,0.35,1.13c0.08,0.25,0.16,0.49,0.25,0.73c0.15,0.44,0.32,0.88,0.49,1.31c0.101,0.25,0.2,0.5,0.3,0.75
			c0.381,0.899,0.79,1.79,1.23,2.649c0.29,0.551,0.58,1.091,0.89,1.62c0.261,0.46,0.53,0.91,0.82,1.351
			c0.41,0.66,0.84,1.29,1.29,1.92c0.45,0.62,0.92,1.229,1.4,1.83c0.25,0.3,0.5,0.6,0.75,0.899c0.26,0.28,0.51,0.561,0.76,0.841
			c1.03,0.029,2.06,0.059,3.09,0.079C1770.49,1007.16,1767.09,1001.58,1765.33,995.31z M1765.33,995.31h-2.23
			c0.011,0.03,0.021,0.06,0.021,0.09c0.02,0.06,0.04,0.13,0.05,0.19c0.01,0.05,0.03,0.11,0.05,0.16c0.061,0.23,0.13,0.46,0.2,0.7
			c0.11,0.38,0.23,0.76,0.35,1.13c0.08,0.25,0.16,0.49,0.25,0.73c0.15,0.44,0.32,0.88,0.49,1.31c0.101,0.25,0.2,0.5,0.3,0.75
			c0.381,0.899,0.79,1.79,1.23,2.649c0.29,0.551,0.58,1.091,0.89,1.62c0.261,0.46,0.53,0.91,0.82,1.351
			c0.41,0.66,0.84,1.29,1.29,1.92c0.45,0.62,0.92,1.229,1.4,1.83c0.25,0.3,0.5,0.6,0.75,0.899c0.26,0.28,0.51,0.561,0.76,0.841
			c1.03,0.029,2.06,0.059,3.09,0.079C1770.49,1007.16,1767.09,1001.58,1765.33,995.31z M1765.33,995.31h-2.23
			c0.011,0.03,0.021,0.06,0.021,0.09c0.02,0.06,0.04,0.13,0.05,0.19c0.01,0.05,0.03,0.11,0.05,0.16c0.061,0.23,0.13,0.46,0.2,0.7
			c0.11,0.38,0.23,0.76,0.35,1.13c0.08,0.25,0.16,0.49,0.25,0.73c0.15,0.44,0.32,0.88,0.49,1.31c0.101,0.25,0.2,0.5,0.3,0.75
			c0.381,0.899,0.79,1.79,1.23,2.649c0.29,0.551,0.58,1.091,0.89,1.62c0.261,0.46,0.53,0.91,0.82,1.351
			c0.41,0.66,0.84,1.29,1.29,1.92c0.45,0.62,0.92,1.229,1.4,1.83c0.25,0.3,0.5,0.6,0.75,0.899c0.26,0.28,0.51,0.561,0.76,0.841
			c1.03,0.029,2.06,0.059,3.09,0.079C1770.49,1007.16,1767.09,1001.58,1765.33,995.31z M1765.33,995.31h-2.23
			c0.011,0.03,0.021,0.06,0.021,0.09c0.02,0.06,0.04,0.13,0.05,0.19c0.01,0.05,0.03,0.11,0.05,0.16c0.061,0.23,0.13,0.46,0.2,0.7
			c0.11,0.38,0.23,0.76,0.35,1.13c0.08,0.25,0.16,0.49,0.25,0.73c0.15,0.44,0.32,0.88,0.49,1.31c0.101,0.25,0.2,0.5,0.3,0.75
			c0.381,0.899,0.79,1.79,1.23,2.649c0.29,0.551,0.58,1.091,0.89,1.62c0.261,0.46,0.53,0.91,0.82,1.351
			c0.41,0.66,0.84,1.29,1.29,1.92c0.45,0.62,0.92,1.229,1.4,1.83c0.25,0.3,0.5,0.6,0.75,0.899c0.26,0.28,0.51,0.561,0.76,0.841
			c1.03,0.029,2.06,0.059,3.09,0.079C1770.49,1007.16,1767.09,1001.58,1765.33,995.31z M1765.33,995.31h-2.23
			c0.011,0.03,0.021,0.06,0.021,0.09c0.02,0.06,0.04,0.13,0.05,0.19c0.01,0.05,0.03,0.11,0.05,0.16c0.061,0.23,0.13,0.46,0.2,0.7
			c0.11,0.38,0.23,0.76,0.35,1.13c0.08,0.25,0.16,0.49,0.25,0.73c0.15,0.44,0.32,0.88,0.49,1.31c0.101,0.25,0.2,0.5,0.3,0.75
			c0.381,0.899,0.79,1.79,1.23,2.649c0.29,0.551,0.58,1.091,0.89,1.62c0.261,0.46,0.53,0.91,0.82,1.351
			c0.41,0.66,0.84,1.29,1.29,1.92c0.45,0.62,0.92,1.229,1.4,1.83c0.25,0.3,0.5,0.6,0.75,0.899c0.26,0.28,0.51,0.561,0.76,0.841
			c1.03,0.029,2.06,0.059,3.09,0.079C1770.49,1007.16,1767.09,1001.58,1765.33,995.31z M1765.33,995.31h-2.23
			c0.011,0.03,0.021,0.06,0.021,0.09c0.02,0.06,0.04,0.13,0.05,0.19c0.01,0.05,0.03,0.11,0.05,0.16c0.061,0.23,0.13,0.46,0.2,0.7
			c0.11,0.38,0.23,0.76,0.35,1.13c0.08,0.25,0.16,0.49,0.25,0.73c0.15,0.44,0.32,0.88,0.49,1.31c0.101,0.25,0.2,0.5,0.3,0.75
			c0.381,0.899,0.79,1.79,1.23,2.649c0.29,0.551,0.58,1.091,0.89,1.62c0.261,0.46,0.53,0.91,0.82,1.351
			c0.41,0.66,0.84,1.29,1.29,1.92c0.45,0.62,0.92,1.229,1.4,1.83c0.25,0.3,0.5,0.6,0.75,0.899c0.26,0.28,0.51,0.561,0.76,0.841
			c1.03,0.029,2.06,0.059,3.09,0.079C1770.49,1007.16,1767.09,1001.58,1765.33,995.31z M1765.33,995.31h-2.23
			c0.011,0.03,0.021,0.06,0.021,0.09c0.02,0.06,0.04,0.13,0.05,0.19c0.01,0.05,0.03,0.11,0.05,0.16c0.061,0.23,0.13,0.46,0.2,0.7
			c0.11,0.38,0.23,0.76,0.35,1.13c0.08,0.25,0.16,0.49,0.25,0.73c0.15,0.44,0.32,0.88,0.49,1.31c0.101,0.25,0.2,0.5,0.3,0.75
			c0.381,0.899,0.79,1.79,1.23,2.649c0.29,0.551,0.58,1.091,0.89,1.62c0.261,0.46,0.53,0.91,0.82,1.351
			c0.41,0.66,0.84,1.29,1.29,1.92c0.45,0.62,0.92,1.229,1.4,1.83c0.25,0.3,0.5,0.6,0.75,0.899c0.26,0.28,0.51,0.561,0.76,0.841
			c1.03,0.029,2.06,0.059,3.09,0.079C1770.49,1007.16,1767.09,1001.58,1765.33,995.31z M1765.33,995.31h-2.23
			c0.011,0.03,0.021,0.06,0.021,0.09c0.02,0.06,0.04,0.13,0.05,0.19c0.01,0.05,0.03,0.11,0.05,0.16c0.061,0.23,0.13,0.46,0.2,0.7
			c0.11,0.38,0.23,0.76,0.35,1.13c0.08,0.25,0.16,0.49,0.25,0.73c0.15,0.44,0.32,0.88,0.49,1.31c0.101,0.25,0.2,0.5,0.3,0.75
			c0.381,0.899,0.79,1.79,1.23,2.649c0.29,0.551,0.58,1.091,0.89,1.62c0.261,0.46,0.53,0.91,0.82,1.351
			c0.41,0.66,0.84,1.29,1.29,1.92c0.45,0.62,0.92,1.229,1.4,1.83c0.25,0.3,0.5,0.6,0.75,0.899c0.26,0.28,0.51,0.561,0.76,0.841
			c1.03,0.029,2.06,0.059,3.09,0.079C1770.49,1007.16,1767.09,1001.58,1765.33,995.31z"/>
	</g>
	<path style="fill:#1C468A;" d="M1791.402,964.639L1791.402,964.639c4.85-2.027,10.475,0.281,12.502,5.13l10.137,24.244
		c2.027,4.849-0.281,10.475-5.131,12.502l0,0c-4.849,2.027-10.474-0.281-12.501-5.13l-10.137-24.244
		C1784.246,972.292,1786.554,966.666,1791.402,964.639z"/>
	<rect x="1664.352" y="1070.492" style="fill:#F99746;" width="43.954" height="13.856"/>
	<rect x="1411.792" y="1070.492" style="fill:#F99746;" width="43.955" height="13.856"/>
	<rect x="1345.35" y="1070.492" style="fill:#F99746;" width="43.955" height="13.856"/>
	<rect x="1345.35" y="1120.727" style="fill:#699FF0;" width="43.955" height="13.854"/>
	<rect x="1411.792" y="1120.727" style="fill:#699FF0;" width="43.955" height="13.854"/>
	<rect x="1275.987" y="1120.727" style="fill:#699FF0;" width="43.955" height="13.854"/>
	<rect x="1664.352" y="1120.727" style="fill:#699FF0;" width="43.954" height="13.854"/>
	<rect x="1733.715" y="1120.727" style="fill:#699FF0;" width="43.955" height="13.854"/>
	<rect x="1800.156" y="1120.727" style="fill:#699FF0;" width="43.955" height="13.854"/>
	<rect x="1275.987" y="1070.492" style="fill:#F99746;" width="43.955" height="13.856"/>
	<rect x="1733.715" y="1070.492" style="fill:#F99746;" width="43.955" height="13.856"/>
	<rect x="1800.156" y="1070.492" style="fill:#F99746;" width="43.955" height="13.856"/>
	<g>
		<path style="fill:#70A1EF;" d="M1511.839,1122.334c0-27.357,22.257-49.615,49.615-49.615c27.357,0,49.615,22.258,49.615,49.615
			h2.226c0-28.585-23.255-51.842-51.841-51.842s-51.841,23.257-51.841,51.842H1511.839z"/>
		<path style="fill:#70A1EF;" d="M1530.973,1122.334c0-16.808,13.674-30.481,30.481-30.481s30.481,13.674,30.481,30.481h1.368
			c0-17.562-14.288-31.85-31.849-31.85c-17.562,0-31.85,14.288-31.85,31.85H1530.973z"/>
		<path style="fill:#70A1EF;" d="M1543.201,1122.334c0-10.064,8.188-18.253,18.253-18.253c10.064,0,18.253,8.188,18.253,18.253
			h0.819c0-10.517-8.556-19.072-19.072-19.072c-10.517,0-19.072,8.556-19.072,19.072H1543.201z"/>
	</g>
	<g>
		<path style="fill:#70A1EF;" d="M1511.839,1196.978c0-27.358,22.257-49.615,49.615-49.615c27.357,0,49.615,22.257,49.615,49.615
			h2.226c0-28.586-23.255-51.842-51.841-51.842s-51.841,23.256-51.841,51.842H1511.839z"/>
		<path style="fill:#70A1EF;" d="M1530.973,1196.978c0-16.808,13.674-30.481,30.481-30.481s30.481,13.674,30.481,30.481h1.368
			c0-17.562-14.288-31.85-31.849-31.85c-17.562,0-31.85,14.288-31.85,31.85H1530.973z"/>
		<path style="fill:#70A1EF;" d="M1543.201,1196.978c0-10.064,8.188-18.253,18.253-18.253c10.064,0,18.253,8.188,18.253,18.253
			h0.819c0-10.517-8.556-19.072-19.072-19.072c-10.517,0-19.072,8.556-19.072,19.072H1543.201z"/>
	</g>
	<g>
		<path style="fill:#70A1EF;" d="M1234.115,1511.606c0-27.358,22.257-49.615,49.615-49.615c27.357,0,49.615,22.257,49.615,49.615
			h2.227c0-28.586-23.256-51.842-51.841-51.842s-51.841,23.256-51.841,51.842H1234.115z"/>
		<path style="fill:#70A1EF;" d="M1253.249,1511.606c0-16.808,13.674-30.482,30.481-30.482s30.481,13.675,30.481,30.482h1.368
			c0-17.563-14.288-31.85-31.849-31.85c-17.562,0-31.85,14.287-31.85,31.85H1253.249z"/>
		<path style="fill:#70A1EF;" d="M1265.477,1511.606c0-10.065,8.188-18.254,18.253-18.254c10.064,0,18.253,8.188,18.253,18.254
			h0.819c0-10.517-8.556-19.072-19.072-19.072c-10.517,0-19.072,8.556-19.072,19.072H1265.477z"/>
	</g>
	<g>
		<path style="fill:#70A1EF;" d="M1806.487,1511.606c0-27.358,22.257-49.615,49.614-49.615s49.615,22.257,49.615,49.615h2.227
			c0-28.586-23.256-51.842-51.842-51.842c-28.585,0-51.841,23.256-51.841,51.842H1806.487z"/>
		<path style="fill:#70A1EF;" d="M1825.62,1511.606c0-16.808,13.675-30.482,30.481-30.482c16.808,0,30.481,13.675,30.481,30.482
			h1.368c0-17.563-14.287-31.85-31.85-31.85c-17.562,0-31.85,14.287-31.85,31.85H1825.62z"/>
		<path style="fill:#70A1EF;" d="M1837.849,1511.606c0-10.065,8.188-18.254,18.253-18.254c10.065,0,18.253,8.188,18.253,18.254
			h0.819c0-10.517-8.556-19.072-19.072-19.072c-10.516,0-19.072,8.556-19.072,19.072H1837.849z"/>
	</g>
	<g>
		<path style="fill:#BDD1F9;" d="M1141.217,1113.723c0.782-20.934,18.387-37.271,39.321-36.488
			c20.934,0.781,37.271,18.387,36.489,39.32c-0.782,20.935-18.386,37.271-39.321,36.489
			C1156.772,1152.262,1140.436,1134.657,1141.217,1113.723z"/>
		<g>
			<path style="fill:#131375;" d="M1180.6,1075.64c-21.78-0.819-40.17,16.24-40.98,38.021c-0.81,21.779,16.24,40.17,38.03,40.979
				c21.78,0.811,40.16-16.239,40.97-38.029C1219.44,1094.83,1202.38,1076.45,1180.6,1075.64z M1215.43,1116.5
				c-0.75,20.02-17.64,35.689-37.66,34.95c-20.02-0.75-35.7-17.65-34.96-37.67c0.75-20.021,17.65-35.7,37.67-34.95
				S1216.18,1096.48,1215.43,1116.5z"/>
		</g>
		<g>
			<g>
				<polygon style="fill:#91B5F8;" points="1194.516,1092.566 1176.555,1113.388 1181.689,1116.89 				"/>
				<polygon style="fill:#91B5F8;" points="1163.728,1137.712 1181.689,1116.89 1176.555,1113.388 				"/>
			</g>
			<path style="fill:#131375;" d="M1176.555,1113.388c0.967-1.417,2.9-1.783,4.318-0.816c1.418,0.968,1.783,2.9,0.816,4.318
				c-0.967,1.418-2.9,1.783-4.318,0.816C1175.954,1116.739,1175.588,1114.806,1176.555,1113.388z"/>
		</g>
	</g>
	<g>
		<path style="fill:#BDD1F9;" d="M1911.237,1113.723c0.782-20.934,18.387-37.271,39.321-36.488
			c20.934,0.781,37.271,18.387,36.488,39.32c-0.782,20.935-18.387,37.271-39.32,36.489
			C1926.792,1152.262,1910.455,1134.657,1911.237,1113.723z"/>
		<g>
			<path style="fill:#131375;" d="M1950.62,1075.64c-21.78-0.819-40.17,16.24-40.98,38.021c-0.81,21.779,16.25,40.17,38.03,40.979
				c21.78,0.811,40.16-16.239,40.97-38.029C1989.46,1094.83,1972.4,1076.45,1950.62,1075.64z M1985.45,1116.5
				c-0.75,20.02-17.64,35.689-37.66,34.95c-20.021-0.75-35.7-17.65-34.96-37.67c0.75-20.021,17.65-35.7,37.67-34.95
				S1986.2,1096.48,1985.45,1116.5z"/>
		</g>
		<g>
			<g>
				<polygon style="fill:#91B5F8;" points="1964.536,1092.566 1946.575,1113.388 1951.709,1116.89 				"/>
				<polygon style="fill:#91B5F8;" points="1933.748,1137.712 1951.709,1116.89 1946.575,1113.388 				"/>
			</g>
			<path style="fill:#131375;" d="M1946.575,1113.388c0.967-1.417,2.9-1.783,4.317-0.816c1.418,0.968,1.783,2.9,0.816,4.318
				s-2.899,1.783-4.317,0.816S1945.608,1114.806,1946.575,1113.388z"/>
		</g>
	</g>
	<path style="fill:#233862;" d="M1109.17,1749.43c-5.15,36.37-20.16,113.681-35.35,188.83H758.26v-195.84l29.42-1.16h0.01
		l65.37-2.56l85.16-3.351l172.57-6.779C1111.44,1730.53,1110.79,1737.939,1109.17,1749.43z"/>
	<g>
		<path style="fill:#FFB27D;" d="M1302.802,1428.342c0,0-12.481-32.488-4.837-48.732c7.645-16.244,27.997-50.644,52.22-50.644
			s45.765-3.366,47.894,6.438c2.129,9.806-8.21,48.027-8.774,63.315c-0.563,15.289-0.445,43.955-31.56,48.732
			C1326.631,1452.23,1302.802,1428.342,1302.802,1428.342z"/>
		<path style="fill:#FFB27D;" d="M359.665,1069.684l83.814,54.953l121.131-22.575c-1.676-9.778-9.673-50.307-16.955-87.015
			c-0.44-2.165-0.879-4.33-1.292-6.446c-6.238-31.235-11.624-58.067-11.624-58.067l-113.135-49.917l-42.182-18.609
			c0.11,0.657,3.27,34.665,3.709,39.628C391.047,1009.792,359.665,1069.684,359.665,1069.684z"/>
		<path style="fill:#FCA56B;" d="M391.624,923.191c24.842,42.084,117.421,78.477,156.031,91.856c-0.44-2.165-0.879-4.33-1.292-6.446
			c-6.238-31.235-11.624-58.067-11.624-58.067l-113.135-49.917C396.598,900.276,381.374,905.871,391.624,923.191z"/>
		<path style="fill:#FFB27D;" d="M577.383,943.654c0,0-182.238,56.848-215.894-57.185
			c-33.655-114.034-79.843-183.497,35.089-224.614c114.932-41.118,150.484-4.307,170.975,31.023
			C588.045,728.207,623.921,925.927,577.383,943.654z"/>
		<path style="fill:#163560;" d="M560.396,681.891c0,0-11.623,132.699-39.065,126.938c-27.442-5.761-52.331-10.031-48.313,29.969
			c4.018,40,42.073,86.191-42.501,93.267c-84.575,7.076-206.156-211.036-182.923-252.332
			C314.631,560.578,657.288,536.532,560.396,681.891z"/>
		<path style="fill:#CCE3FF;" d="M546.363,1008.601c-2.351-0.99-148.441-27.436-164.032-22.288
			c-15.59,5.148-35.024,52.764-35.024,52.764l230.223,20.428C577.53,1059.504,576.352,1021.227,546.363,1008.601z"/>
		<path style="fill:#FFFFFF;" d="M1379.19,1450.8c0,0-0.53,0.79-1.56,2.28c-4.73,6.87-19.95,28.75-42.07,58.17v0.02
			c-0.08,0.11-0.17,0.23-0.25,0.341c-5.2,6.909-10.77,14.239-16.68,21.89c-0.87,1.12-1.75,2.26-2.64,3.4
			c-11.2,14.439-23.54,29.939-36.71,45.88c-7.55,9.13-15.37,18.399-23.42,27.71c-13.84,16.02-28.33,32.109-43.18,47.689
			c-0.78,0.82-1.56,1.641-2.35,2.46c-33.09,34.521-67.87,66.3-101.16,88.79c-0.91,0.601-1.81,1.21-2.71,1.801
			c-19.41,12.84-38.28,22.439-55.98,27.479c-38.5,10.979-71.87,15.54-99.82,16.5c-42.54,1.47-72.53-5.399-88.97-10.729
			c-9.76-3.16-14.74-5.771-14.74-5.771l-59.26-37.45h-0.01L458.9,1533.5l-194.35-122.811L84.26,1296.77v-88.47
			c4.64-9.189,9.6-18.75,14.74-28.34c0.44-0.83,0.89-1.649,1.33-2.479c10.09-18.7,20.82-37.391,31.12-53.49
			c0.64-1.01,1.29-2.01,1.93-3c13.59-20.93,26.31-37.01,35.62-42.18c34.4-19.11,120.12-31.49,178.31-39.73
			c5.82-0.82,14.16-1.23,24.5-1.27c34.27-0.141,90.54,3.75,150.14,9.909c10.89,1.12,21.88,2.32,32.87,3.591
			c7.4,0.85,14.79,1.729,22.15,2.629c10.62,1.32,21.17,2.681,31.53,4.091h0.03c9.72,1.319,19.28,2.68,28.6,4.069
			c0.01,0,0.01,0,0.02,0c38.3,5.711,72.5,11.94,96.64,18.141c13.5,3.449,23.86,6.899,30.03,10.24
			c19.45,10.52,59.99,88.409,104.3,177.159c51.91,103.971,109,222.851,143.48,265.86c9.82,12.25,17.81,18.35,23.32,16.189
			c7.2-2.819,19.8-8.59,35.7-16.189c23.54-11.25,54.31-26.53,85.5-42.22v-0.011c15.17-7.63,30.45-15.369,45.05-22.789
			c24.43-12.42,46.95-23.94,63.85-32.62c18.67-9.591,30.49-15.7,30.49-15.7s1.68-0.28,4.38-0.68c8.69-1.301,27.92-3.92,35.68-2.87
			c15.51,2.1,26.59,11.04,33.7,19.25c1.69,1.96,3.16,3.87,4.41,5.64c2.01,2.86,3.46,5.34,4.36,7.02v0.011
			C1378.81,1449.95,1379.19,1450.8,1379.19,1450.8z"/>
		<g>
			<polygon style="fill:#163560;" points="733.792,1080.244 696.927,1122.354 627.411,1106.459 627.397,1106.459 607.746,1101.944 
				607.732,1101.944 591.019,1098.132 571.34,1093.631 551.69,1089.131 593.972,1056.107 617.536,1060.178 629.289,1062.198 
				641.888,1064.377 653.899,1066.455 			"/>
			<g>
				<polygon style="fill:#F99746;" points="631.482,1082.021 591.019,1098.132 571.34,1093.631 619.127,1074.597 617.536,1060.178 
					629.289,1062.198 				"/>
			</g>
			<g>
				<polygon style="fill:#F99746;" points="658.786,1093.961 627.411,1106.459 627.397,1106.459 607.746,1101.944 645.858,1086.766 
					641.888,1064.377 653.899,1066.455 				"/>
			</g>
		</g>
	</g>
	<path style="fill:#2B478B;" d="M980.39,1938.26H156.84l-72.58-349.21v-403.91c4.71-1.96,9.63-3.689,14.74-5.18
		c14.49-4.26,30.53-6.59,47.73-6.649l117.82-0.4l354.78-1.221c0.01,0,0.01,0,0.02,0l52.8-0.18
		c73.62-0.25,143.42,41.311,166.75,96.13c2.72,6.37,4.8,12.921,6.19,19.601l51.18,246.26l41.95,201.85l12.44,59.86L980.39,1938.26z"
		/>
	<polygon style="fill:#233862;" points="2045.83,1938.26 2254.05,1938.26 2348.85,1938.26 2423.79,1938.26 2423.79,1742.42 
		2388.37,1728.52 2348.87,1713.02 2304.48,1695.6 1994.8,1574.08 2000.89,1618.03 2009.46,1679.86 2009.5,1680.12 2045.27,1938.26 	
		"/>
	<g>
		<path style="fill:#FFB27D;" d="M1919.299,1268.729c0,0,12.481-32.488,4.837-48.732s-27.996-50.644-52.22-50.644
			c-24.223,0-45.765-3.365-47.894,6.439s8.21,48.026,8.773,63.315c0.563,15.288,0.446,43.954,31.56,48.732
			C1895.47,1292.618,1919.299,1268.729,1919.299,1268.729z"/>
		<path style="fill:#FFB27D;" d="M2822.381,1069.684l-83.813,54.953l-121.132-22.575c1.677-9.778,9.674-50.307,16.955-87.015
			c0.439-2.165,0.88-4.33,1.292-6.446c6.237-31.235,11.624-58.067,11.624-58.067l113.135-49.917l42.182-18.609
			c-0.11,0.657-3.271,34.665-3.71,39.628C2790.999,1009.792,2822.381,1069.684,2822.381,1069.684z"/>
		<path style="fill:#FCA56B;" d="M2790.422,923.191c-24.842,42.084-117.422,78.477-156.031,91.856
			c0.439-2.165,0.88-4.33,1.292-6.446c6.237-31.235,11.624-58.067,11.624-58.067l113.135-49.917
			C2785.447,900.276,2800.672,905.871,2790.422,923.191z"/>
		<path style="fill:#FFB27D;" d="M2604.662,943.654c0,0,182.239,56.848,215.895-57.185s79.843-183.497-35.089-224.614
			s-150.484-4.307-170.976,31.023C2594.001,728.207,2558.125,925.927,2604.662,943.654z"/>
		<path style="fill:#B64C41;" d="M2621.649,681.891c0,0,11.623,132.699,39.064,126.938c27.442-5.761,52.332-10.031,48.313,29.969
			c-4.018,40-42.073,86.191,42.502,93.267c84.574,7.076,206.155-211.036,182.922-252.332
			C2867.414,560.578,2524.758,536.532,2621.649,681.891z"/>
		<path style="fill:#CCE3FF;" d="M2635.683,1008.601c2.351-0.99,148.44-27.436,164.031-22.288s35.024,52.764,35.024,52.764
			l-230.223,20.428C2604.516,1059.504,2605.693,1021.227,2635.683,1008.601z"/>
		<path style="fill:#FFFFFF;" d="M3128.33,1277.474c-0.002-11.573-80.882-179.557-115.281-198.668
			c-34.399-19.11-120.125-31.49-178.311-39.729c-58.186-8.238-367.779,25.057-416.512,51.408s-220.07,382.678-264.787,389.272
			c-43.942,6.479-231.554-218.812-231.554-218.812s-25.17,1.047-40.088,6.695c-28.535,10.805-37.628,27.406-37.628,27.406
			s151.639,409.799,283.503,447.375s473.639-131.929,473.639-131.929L3128.33,1277.474z"/>
		<g>
			<polygon style="fill:#163560;" points="2448.254,1080.244 2485.119,1122.354 2554.635,1106.459 2554.648,1106.459 
				2574.3,1101.944 2574.313,1101.944 2591.026,1098.132 2610.705,1093.631 2630.355,1089.131 2588.073,1056.107 2564.51,1060.178 
				2552.757,1062.198 2540.158,1064.377 2528.147,1066.455 			"/>
			<g>
				<polygon style="fill:#F99746;" points="2550.564,1082.021 2591.026,1098.132 2610.705,1093.631 2562.919,1074.597 
					2564.51,1060.178 2552.757,1062.198 				"/>
			</g>
			<g>
				<polygon style="fill:#F99746;" points="2523.26,1093.961 2554.635,1106.459 2554.648,1106.459 2574.3,1101.944 
					2536.188,1086.766 2540.158,1064.377 2528.147,1066.455 				"/>
			</g>
		</g>
	</g>
	<path style="fill:#2B478B;" d="M3147.25,1183.96v419.19l-0.01,0.039l-69.641,335.07h-823.55l43.7-210.26l6.73-32.4l33.689-162.1
		l51.18-246.26c1.391-6.68,3.471-13.23,6.19-19.601c23.33-54.819,93.13-96.38,166.75-96.13l57.55,0.2c0.021-0.01,0.03-0.01,0.05,0
		l459.55,1.57l8.271,0.03c22.01,0.069,42.13,3.879,59.53,10.64L3147.25,1183.96z"/>
	<path style="fill:#233862;" d="M3147.24,1179.75c-12.971-4.12-27.29-6.38-42.62-6.439l-25.21-0.101h-0.01l-451.101-1.7
		c-2.81-0.01-5.61,0.051-8.41,0.2c-0.02-0.01-0.029-0.01-0.05,0c-63.56,3.09-122.46,43.43-142.71,95.93
		c-2.46,6.37-4.35,12.921-5.61,19.601l-46.399,246.26l-30.94,164.22l-5.81,30.8l-39.521,209.74h746.601l51.79-274.84l0.01-0.05
		v-483.62H3147.24z"/>
	<path style="fill:#98BAF4;" d="M943.14,61.74H2219.6l-38.819,62.79c-30.38,49.15-82.061,80.71-139,85.75
		c-1.101,0.1-2.21,0.19-3.32,0.26c-2.69,0.19-5.38,0.32-8.09,0.38c-1.14,0.04-2.271,0.06-3.41,0.06c-0.42,0.01-0.85,0.01-1.271,0.01
		H1125.21c-54.13-0.06-104.5-27.71-133.63-73.34L943.14,61.74z"/>
	<g>
		<g>
			<rect x="1128.616" y="179.186" style="fill:#1C468A;" width="8.096" height="32.383"/>
			<path style="fill:#F99746;" d="M1138.793,244.892h-12.412c-2.037,0-3.643-1.733-3.487-3.765l2.831-36.893
				c0.14-1.822,1.659-3.23,3.487-3.23h6.89c1.833,0,3.354,1.415,3.487,3.243l2.691,36.893
				C1142.428,243.167,1140.824,244.892,1138.793,244.892z"/>
		</g>
		<g>
			<rect x="1196.977" y="179.186" style="fill:#1C468A;" width="8.096" height="32.383"/>
			<path style="fill:#F99746;" d="M1207.154,244.892h-12.412c-2.037,0-3.643-1.733-3.487-3.765l2.832-36.893
				c0.14-1.822,1.659-3.23,3.486-3.23h6.89c1.833,0,3.354,1.415,3.488,3.243l2.69,36.893
				C1210.789,243.167,1209.186,244.892,1207.154,244.892z"/>
		</g>
		<g>
			<rect x="1259.755" y="179.186" style="fill:#1C468A;" width="8.096" height="32.383"/>
			<path style="fill:#F99746;" d="M1269.932,244.892h-12.412c-2.037,0-3.643-1.733-3.487-3.765l2.831-36.893
				c0.14-1.822,1.659-3.23,3.487-3.23h6.89c1.833,0,3.354,1.415,3.488,3.243l2.691,36.893
				C1273.567,243.167,1271.963,244.892,1269.932,244.892z"/>
		</g>
	</g>
	<g>
		<g>
			<rect x="1899.229" y="179.186" style="fill:#1C468A;" width="8.096" height="32.383"/>
			<path style="fill:#F99746;" d="M1909.406,244.892h-12.412c-2.036,0-3.643-1.733-3.486-3.765l2.831-36.893
				c0.14-1.822,1.659-3.23,3.487-3.23h6.89c1.833,0,3.354,1.415,3.487,3.243l2.691,36.893
				C1913.042,243.167,1911.438,244.892,1909.406,244.892z"/>
		</g>
		<g>
			<rect x="1967.59" y="179.186" style="fill:#1C468A;" width="8.096" height="32.383"/>
			<path style="fill:#F99746;" d="M1977.768,244.892h-12.412c-2.037,0-3.643-1.733-3.486-3.765l2.831-36.893
				c0.14-1.822,1.659-3.23,3.486-3.23h6.89c1.833,0,3.354,1.415,3.488,3.243l2.69,36.893
				C1981.402,243.167,1979.799,244.892,1977.768,244.892z"/>
		</g>
		<g>
			<rect x="2030.368" y="179.186" style="fill:#1C468A;" width="8.096" height="32.383"/>
			<path style="fill:#F99746;" d="M2040.545,244.892h-12.411c-2.037,0-3.643-1.733-3.486-3.765l2.831-36.893
				c0.14-1.822,1.659-3.23,3.486-3.23h6.89c1.833,0,3.354,1.415,3.488,3.243l2.69,36.893
				C2044.181,243.167,2042.577,244.892,2040.545,244.892z"/>
		</g>
	</g>
	<g>
		<rect x="1602.303" y="163.168" style="fill:#1C468A;" width="23.175" height="18.289"/>
		<rect x="1602.303" y="169.447" style="fill:#F99746;" width="23.175" height="12.01"/>
		<rect x="1647.985" y="163.168" style="fill:#1C468A;" width="23.175" height="18.289"/>
		<rect x="1647.985" y="169.447" style="fill:#F99746;" width="23.175" height="12.01"/>
		<rect x="1696.015" y="163.168" style="fill:#1C468A;" width="23.175" height="18.289"/>
		<rect x="1696.015" y="169.447" style="fill:#F99746;" width="23.175" height="12.01"/>
		<rect x="1741.944" y="163.168" style="fill:#1C468A;" width="23.175" height="18.289"/>
		<rect x="1741.944" y="169.447" style="fill:#F99746;" width="23.175" height="12.01"/>
		<rect x="1602.303" y="131.744" style="fill:#1C468A;" width="23.175" height="18.289"/>
		<rect x="1602.303" y="138.023" style="fill:#F99746;" width="23.175" height="12.009"/>
		<rect x="1647.985" y="131.744" style="fill:#1C468A;" width="23.175" height="18.289"/>
		<rect x="1647.985" y="138.023" style="fill:#F99746;" width="23.175" height="12.009"/>
		<rect x="1696.015" y="131.744" style="fill:#1C468A;" width="23.175" height="18.289"/>
		<rect x="1696.015" y="138.023" style="fill:#F99746;" width="23.175" height="12.009"/>
		<rect x="1741.944" y="131.744" style="fill:#1C468A;" width="23.175" height="18.289"/>
		<rect x="1741.944" y="138.023" style="fill:#F99746;" width="23.175" height="12.009"/>
	</g>
	<g>
		<rect x="1358.865" y="163.168" style="fill:#1C468A;" width="23.175" height="18.289"/>
		<rect x="1358.865" y="169.447" style="fill:#F99746;" width="23.175" height="12.01"/>
		<rect x="1404.548" y="163.168" style="fill:#1C468A;" width="23.174" height="18.289"/>
		<rect x="1404.548" y="169.447" style="fill:#F99746;" width="23.174" height="12.01"/>
		<rect x="1452.577" y="163.168" style="fill:#1C468A;" width="23.174" height="18.289"/>
		<rect x="1452.577" y="169.447" style="fill:#F99746;" width="23.174" height="12.01"/>
		<rect x="1498.507" y="163.168" style="fill:#1C468A;" width="23.174" height="18.289"/>
		<rect x="1498.507" y="169.447" style="fill:#F99746;" width="23.174" height="12.01"/>
		<rect x="1358.865" y="131.744" style="fill:#1C468A;" width="23.175" height="18.289"/>
		<rect x="1358.865" y="138.023" style="fill:#F99746;" width="23.175" height="12.009"/>
		<rect x="1404.548" y="131.744" style="fill:#1C468A;" width="23.174" height="18.289"/>
		<rect x="1404.548" y="138.023" style="fill:#F99746;" width="23.174" height="12.009"/>
		<rect x="1452.577" y="131.744" style="fill:#1C468A;" width="23.174" height="18.289"/>
		<rect x="1452.577" y="138.023" style="fill:#F99746;" width="23.174" height="12.009"/>
		<rect x="1498.507" y="131.744" style="fill:#1C468A;" width="23.174" height="18.289"/>
		<rect x="1498.507" y="138.023" style="fill:#F99746;" width="23.174" height="12.009"/>
	</g>
	<g>
		<ellipse style="fill:#F99746;" cx="1873.654" cy="92.441" rx="16.744" ry="10.835"/>
		<ellipse style="fill:#F99746;" cx="1935.616" cy="92.441" rx="16.744" ry="10.835"/>
		<ellipse style="fill:#FFFFFF;" cx="2006.176" cy="92.441" rx="16.744" ry="10.835"/>
		<ellipse style="fill:#F99746;" cx="2077.717" cy="90.437" rx="16.744" ry="10.835"/>
		<path style="fill:#FFFFFF;" d="M1856.91,132.165c0-5.984,7.496-10.834,16.744-10.834s16.744,4.851,16.744,10.834
			c0,5.983-7.496,10.834-16.744,10.834S1856.91,138.149,1856.91,132.165z"/>
		<path style="fill:#FFFFFF;" d="M1918.872,132.165c0-5.984,7.496-10.834,16.744-10.834c9.247,0,16.744,4.851,16.744,10.834
			c0,5.983-7.497,10.834-16.744,10.834C1926.368,142.999,1918.872,138.149,1918.872,132.165z"/>
		<path style="fill:#F99746;" d="M1989.432,132.165c0-5.984,7.496-10.834,16.744-10.834c9.247,0,16.744,4.851,16.744,10.834
			c0,5.983-7.497,10.834-16.744,10.834C1996.928,142.999,1989.432,138.149,1989.432,132.165z"/>
		<path style="fill:#FFFFFF;" d="M2060.973,132.165c0-5.984,7.497-10.834,16.744-10.834c9.248,0,16.744,4.851,16.744,10.834
			c0,5.983-7.496,10.834-16.744,10.834C2068.47,142.999,2060.973,138.149,2060.973,132.165z"/>
	</g>
	<g>
		<ellipse style="fill:#F99746;" cx="1089.214" cy="92.441" rx="16.744" ry="10.835"/>
		<ellipse style="fill:#F99746;" cx="1151.175" cy="92.441" rx="16.744" ry="10.835"/>
		<path style="fill:#FFFFFF;" d="M1204.991,92.441c0-5.984,7.497-10.835,16.744-10.835s16.745,4.851,16.745,10.835
			c0,5.983-7.497,10.834-16.745,10.834S1204.991,98.424,1204.991,92.441z"/>
		<ellipse style="fill:#F99746;" cx="1293.276" cy="90.437" rx="16.744" ry="10.835"/>
		<path style="fill:#FFFFFF;" d="M1072.47,132.165c0-5.984,7.497-10.834,16.744-10.834s16.744,4.851,16.744,10.834
			c0,5.983-7.497,10.834-16.744,10.834S1072.47,138.149,1072.47,132.165z"/>
		<path style="fill:#FFFFFF;" d="M1134.431,132.165c0-5.984,7.497-10.834,16.744-10.834s16.744,4.851,16.744,10.834
			c0,5.983-7.497,10.834-16.744,10.834S1134.431,138.149,1134.431,132.165z"/>
		<path style="fill:#F99746;" d="M1204.991,132.165c0-5.984,7.497-10.834,16.744-10.834s16.745,4.851,16.745,10.834
			c0,5.983-7.497,10.834-16.745,10.834S1204.991,138.149,1204.991,132.165z"/>
		<path style="fill:#FFFFFF;" d="M1276.532,132.165c0-5.984,7.497-10.834,16.744-10.834s16.744,4.851,16.744,10.834
			c0,5.983-7.497,10.834-16.744,10.834S1276.532,138.149,1276.532,132.165z"/>
	</g>
</g>
</svg>
