<?xml version="1.0" encoding="utf-8"?>
<!-- Generator: Adobe Illustrator 27.5.0, SVG Export Plug-In . SVG Version: 6.00 Build 0)  -->
<svg version="1.1" xmlns="http://www.w3.org/2000/svg" xmlns:xlink="http://www.w3.org/1999/xlink" x="0px" y="0px"
	 viewBox="0 0 500 499.999" style="enable-background:new 0 0 500 499.999;" xml:space="preserve">
<g id="BACKGROUND">
	<g>
		<rect x="0" y="-0.001" style="fill-rule:evenodd;clip-rule:evenodd;fill:#DEF3E2;" width="500" height="500"/>
	</g>
</g>
<g id="OBJECTS">
	<g>
		<g>
			<path style="fill:#BCD5C5;" d="M266.591,434.368c0,10.061,32.16,18.217,71.834,18.217s71.836-8.155,71.836-18.217
				c0-10.059-32.162-18.216-71.836-18.216S266.591,424.309,266.591,434.368z"/>
			<g>
				<g>
					<path style="fill:#FACCBB;" d="M273.48,191.612c1.906,0.691,23.052,11.403,23.052,11.403s2.803-11.744,7.226-21.95
						c10.25,1.98,14.214,0.57,18.373,5.444c-4.703,16.476-9.098,37.506-21.598,40.506c-13.725,3.294-35.387-29.459-35.559-32.339
						C264.811,191.794,271.574,190.921,273.48,191.612z"/>
					<path style="fill:#3C5574;" d="M297.635,185.148c1.179-5.155,3.634-15.329,8.397-22.133c4.766-6.806,15.5-12.5,17-10
						s1.65,20.226-4.813,37.917C312.774,187.87,307.886,187.126,297.635,185.148z"/>
				</g>
				<g>
					<path style="fill:#242A1D;" d="M300.412,237.18c2.957-0.665,11.963,0.139,12.822,5.3c0.859,5.161,2.293,21.947-2.805,25.414
						c-5.102,3.467-8.633,1.648-13.231-0.916c-4.597-2.566-2.737-9.624-2.199-14.455c0.117-1.044,1.51-4.811,1.51-4.811
						s-1.731-1.214-1.656-2.744c0.073-1.528,1.207-3.109,1.84-4.262C297.982,238.361,299.082,237.479,300.412,237.18z"/>
					<path style="fill:#334743;" d="M299.533,244.348c-0.289,0.847-1.172,1.322-1.973,1.062c-0.799-0.261-1.212-1.16-0.923-2.008
						c0.289-0.847,1.173-1.322,1.973-1.061C299.409,242.602,299.824,243.501,299.533,244.348z"/>
					<path style="fill:none;stroke:#334743;stroke-miterlimit:10;" d="M298.866,249.348c0,0,3.667,2.333,6.334,1.667"/>
				</g>
				<g>
					<path style="fill:#2A254F;" d="M334.88,414.302c-0.643-4.067-1.619-8.483-4.314-10.535c-2.694-2.057-9.819-0.424-12.881,1.246
						c-3.06,1.67-7.206,11.12-9.941,14.48c-2.737,3.361-11.574,7.018-12.297,12.43c-0.722,5.412,6.344,10.549,15.852,7.918
						c9.506-2.629,11.246-8.03,12.618-10.053c1.368-2.022,3.485-2.699,3.485-2.699s-0.43,1.709,1.602,1.729
						c2.033,0.015,5.761-0.292,6.126-3.68C335.496,421.759,335.524,418.372,334.88,414.302z"/>
					<path style="fill:#3C68A6;" d="M310.033,242.015c-4.5,4.5-5.5,29-5,41c0.462,11.092,2.332,27.576,2.866,41.037
						c0.296,7.463,0.742,14.686,1.634,21.463c2.5,19-0.5,64.001-0.5,64.001s5.5,5,12.5,4.5s12-4.5,12-4.5s3-21.501,5-37.001
						s3.5-15.5,2-24.5s-4.5-25-4.5-25s6.5-24.5,7.5-35.5s-1.5-38-1.5-38S314.533,237.515,310.033,242.015z"/>
					<path style="fill:#2A254F;" d="M372.38,416.302c-0.643-4.067-1.619-8.482-4.314-10.535c-2.694-2.057-9.819-0.424-12.881,1.247
						c-3.06,1.67-7.206,11.118-9.941,14.479c-2.737,3.361-11.574,7.018-12.297,12.43c-0.722,5.412,6.344,10.549,15.852,7.918
						c9.506-2.629,11.246-8.03,12.618-10.053c1.368-2.022,3.485-2.699,3.485-2.699s-0.43,1.709,1.602,1.729
						c2.033,0.015,5.761-0.292,6.126-3.68C372.996,423.759,373.024,420.372,372.38,416.302z"/>
					<path style="fill:#3C68A6;" d="M335.968,250.845c0,0-1.47,22.651-0.159,34.59c1.212,11.036,4.193,27.354,5.637,40.749
						c0.8,7.426,1.735,14.602,3.084,21.304c3.781,18.787,3.833,63.887,3.833,63.887s5.826,4.616,12.776,3.644
						c6.95-0.973,13.392-6.502,13.392-6.502s-1-28.501,0-34.001s0.5-19-0.5-27s-3-26-3-26s7.247-35.457,7.5-46.5
						c0.253-11.042-7-31.5-7-31.5L335.968,250.845z"/>
					<path style="fill:none;stroke:#2A457A;stroke-miterlimit:10;" d="M332.533,252.515c0,0,0.5,17.5,1.5,29s5,28,5,28"/>
				</g>
				<g>
					<path style="fill:#3C5574;" d="M309.934,238.834c0,0,3.165-25.509,2.373-30.649c-0.792-5.141-1.979-13.025-4.352-19.105
						c-2.372-6.078-2.173-11.19,1.583-16.093c3.755-4.904,3.642-14.605,7.119-18.587c3.475-3.986,16.021-4.145,23.966-4.704
						c7.944-0.56,29.735,3.219,32.542,10.229c4.252,10.623,0.541,31.094-5.095,47.766c-3.349,9.897,3.525,32.034,3.525,32.034
						s-15.79,6.573-35.559,6.822C325.423,246.68,309.934,238.834,309.934,238.834z"/>
					<path style="fill:none;stroke:#2A384F;stroke-miterlimit:10;" d="M333.96,162.012c0,0-2.112,6.885-4.152,13.348
						c-1.78,5.635-3.263,10.084-2.076,19.279c0.967,7.5,2.032,14.977,2.302,23.875c0.333,11,0.667,28.667,0.667,28.667"/>
					<path style="fill:#3F75A2;" d="M338.468,147.964c3.551-0.248,10.034-0.254,12.992,3.371c2.958,3.624-0.49,10.161-3.559,13.051
						c-3.07,2.89-9.789,7.712-9.789,7.712l-4.275-9.538l-8.085,7.7c0,0-2.133-11.632,0.199-16.552
						C328.283,148.787,334.917,148.212,338.468,147.964z"/>
					<g>
						<g>
							<path style="fill:#3F75A2;" d="M324.305,183.491l-14.892-1.642c0,0-1.386,4.68,1.547,7.607
								c0.973,0.971,5.042,3.335,5.042,3.335s3.671-1.162,4.944-1.865C324.698,188.857,324.305,183.491,324.305,183.491z"/>
							<path style="fill:#F6E504;" d="M321.436,174.8c0,0-1.27-0.113-2.061-0.669c-0.789-0.558-1.315-2.39-1.315-2.39
								s-0.957,1.701-1.863,2.108c-0.905,0.406-2.178,0.293-2.178,0.293s-0.871,1.871-0.26,5.658
								c0.611,3.789,2.739,4.789,2.739,4.789s2.322-0.605,3.833-4.208C321.838,176.782,321.436,174.8,321.436,174.8z"/>
						</g>
						<g>
							<path style="fill:#3F75A2;" d="M337.169,183.798l17.689,0.846c0,0,0.364,4.608-3.241,7.04
								c-1.564,1.055-5.96,1.964-5.96,1.964s-6.507-1.958-7.589-3.269C335.792,187.621,337.169,183.798,337.169,183.798z"/>
							<polygon style="fill:#7CA7A2;" points="338.107,177.628 337.861,181.523 354.415,182.617 354.699,178.848 							"/>
						</g>
					</g>
					<path style="fill:none;stroke:#2A384F;stroke-miterlimit:10;" d="M313.79,159.64c0,0-0.593,7.119-2.373,9.788
						c-1.78,2.669-5.042,8.602-5.042,12.161c0,2.669,1.668,7.174,3.003,11.887"/>
				</g>
				<g>
					<path style="fill:#2A254F;" d="M373.033,244.015c0,0-7.424,4.445-14.964,6.741c-7.538,2.296-17.721,4.39-28.89,3.309
						c-11.169-1.08-22.223-7.414-22.223-7.414l2.953-7.975c0,0,5.355,2.444,9.511,4.053c4.157,1.609,17.081,2.631,29.917,1.031
						c12.836-1.6,21.681-7.144,21.681-7.144L373.033,244.015z"/>
					<path style="fill:#8898B1;" d="M338.848,243.363l0.102,11.997c0,0-6.292,0.098-9.607,0.022
						c-3.315-0.074-6.863-1.614-6.863-1.614l0.964-10.964C323.443,242.805,336.504,243.735,338.848,243.363z"/>
					<polygon style="fill:#3C68A6;" points="356.271,241.566 358.076,250.961 353.208,252.65 351.347,242.919 					"/>
				</g>
				<g>
					<g>
						<path style="fill:#7D402C;" d="M358.367,127.63c4.666,0.551,11.876,4.3,10.104,12.759c-1.772,8.459-13.75,8.765-16.724,4.746
							c-2.975-4.02-3.45-7.263-2.249-11.108C350.699,130.182,353.701,127.079,358.367,127.63z"/>
						<path style="fill:#FACCBB;" d="M329.521,138.72c0,0,0.292,3.648,0.556,9.634c0.206,4.77,3.882,13.658,3.882,13.658
							l14.297-10.785l-2.874-17.071L329.521,138.72z"/>
						<path style="fill:#7D402C;" d="M343.726,132.758c-6.357,6.97-13.825,9.064-17.074,8.29c-3.249-0.772-7.301-4.415-8.064-7.164
							c-0.765-2.749-7.707-10.145-2.491-24.047c5.218-13.905,23.432-13.086,23.432-13.086
							C351.658,101.497,350.085,125.784,343.726,132.758z"/>
						<path style="fill:#FACCBB;" d="M317.501,117.978c-0.707,4.91-1.038,22.472,9.726,27.364
							c13.321,6.055,23.323-1.943,27.098-17.336c3.771-15.394-8.866-26.742-20.512-24.855
							C321.801,105.098,318.203,113.069,317.501,117.978z"/>
						<path style="fill:#7D402C;" d="M361.397,112.104c-2.217-5.246-2.593-11.505-13.972-15.998
							c-14.348-5.665-25.961,5.901-25.961,5.901s-8.992,8.546-5.098,11.175c3.894,2.631,13.667,2.999,19.667,4.333
							c6,1.333,11,4.667,12.06,7.066c1.463,3.314,4.203,0.959,3.921,2.426c-0.808,4.224,1.353,7.174,1.353,7.174
							s2.279,1.655,6.44-4.841C361.862,126.127,363.615,117.351,361.397,112.104z"/>
						<g>
							<path style="fill:#FFFFFF;" d="M326.838,136.954c0.062-1.252,2.701-0.438,4.996-0.745c2.295-0.305,5.858-1.747,6.375-0.948
								c0.514,0.799,0.521,5.142-4.938,5.609C329.059,141.234,326.774,138.205,326.838,136.954z"/>
							<g>
								<path style="fill:#DC8C7A;" d="M329.406,124.237c0,0,0.173,0.131,0.396,0.44c0.212,0.308,0.495,0.803,0.581,1.492
									c0.123,0.683-0.014,1.567-0.455,2.366c-0.352,0.651-0.855,1.363-1.231,1.936c-0.189,0.284-0.308,0.532-0.344,0.68
									c-0.028,0.079-0.022,0.154-0.023,0.251l0.008,0.077c-0.006-0.011,0.017,0.081-0.013-0.015l0.017,0.068
									c0.02,0.074-0.001-0.008-0.009,0.001c-0.009-0.007,0.007,0.021,0.008,0.033c0.054,0.149,0.26,0.384,0.468,0.583
									c0.212,0.206,0.442,0.402,0.658,0.589c0.444,0.357,0.834,0.678,1.108,0.91c0.275,0.231,0.433,0.378,0.433,0.378
									s-0.859,0.109-2.08-0.226c-0.309-0.081-0.639-0.192-0.987-0.363c-0.347-0.182-0.719-0.384-1.095-0.838
									c-0.047-0.067-0.086-0.114-0.138-0.203c-0.045-0.076-0.119-0.237-0.125-0.253l-0.028-0.064l-0.047-0.152l-0.052-0.199
									c-0.056-0.276-0.078-0.59-0.031-0.892c0.083-0.621,0.367-1.074,0.594-1.449c0.495-0.735,0.954-1.268,1.4-1.856
									c0.174-0.221,0.352-0.443,0.469-0.684c0.129-0.236,0.234-0.483,0.309-0.729c0.145-0.492,0.192-0.969,0.21-1.316
									C329.419,124.454,329.406,124.237,329.406,124.237z"/>
							</g>
							<g>
								<g>
									<path style="fill:#7D402C;" d="M320.799,124.131c0.733-0.195,1.525-0.786,2.313-0.679c0.824,0.111,1.503,0.785,2.349,0.738
										c0.518-0.029,0.821-0.544,0.579-1.008c-0.488-0.936-1.958-1.295-2.92-1.369c-0.942-0.073-2.297,0.539-3.004,1.144
										C319.559,123.43,320.154,124.303,320.799,124.131L320.799,124.131z"/>
								</g>
							</g>
							<g>
								<g>
									<path style="fill:#7D402C;" d="M336.018,123.867c0.988-0.338,1.791-0.957,2.863-0.638c0.876,0.26,1.833,1.002,2.781,0.8
										c0.435-0.092,0.555-0.594,0.385-0.947c-0.464-0.963-2.237-1.369-3.177-1.552c-1.186-0.232-2.643,0.391-3.537,1.162
										C334.804,123.149,335.362,124.091,336.018,123.867L336.018,123.867z"/>
								</g>
							</g>
							<path style="fill:#4C313B;" d="M340.186,127.239c-0.014,1.031-0.858,1.857-1.89,1.844c-1.03-0.009-1.857-0.855-1.845-1.887
								c0.013-1.031,0.858-1.854,1.888-1.843C339.372,125.362,340.196,126.208,340.186,127.239z"/>
							<path style="fill:#4C313B;" d="M324.722,127.062c-0.01,1.033-0.856,1.858-1.887,1.847c-1.03-0.011-1.856-0.856-1.845-1.887
								c0.012-1.032,0.855-1.857,1.886-1.847C323.907,125.188,324.733,126.031,324.722,127.062z"/>
						</g>
						<path style="fill:none;stroke:#DC8C7A;stroke-miterlimit:10;" d="M330.71,146.746c0,0,7.258,2.753,14.078-2.675"/>
						<path style="fill:#FACCBB;" d="M354.738,123.681c-3.227-0.967-5.783,2.955-5.783,2.955s-1.974,4.903-0.921,6.247
							c2.215,2.819,6.351,0.462,8.117-1.698C357.917,129.033,357.969,124.649,354.738,123.681z"/>
					</g>
					<g>
						<path style="fill:#242A1D;" d="M357.756,110.488c0,0-3.684,4.507-18.382,4.398c-14.697-0.109-23.512-2.061-24.583-5.397
							c-1.069-3.337,7.158-7.16,7.158-7.16L357.756,110.488z"/>
						<path style="fill:#3C5574;" d="M361.581,107.804c0,0,12.853,0.398,7.973-6.894c-4.882-7.29-22.459-19.907-31.748-20.996
							c-9.287-1.089-21.446,8.552-20.781,13.552c0.666,5,4.478,5.608,4.478,5.608L361.581,107.804z"/>
						<path style="fill:#3F75A2;" d="M362.27,106.217l-1.823,5.057c0,0-16.883-2.579-25.005-4.389
							c-8.119-1.809-15.126-3.602-15.126-3.602l0.03-6.78c0,0,4.275-1.547,15.432,0.254
							C346.936,98.56,362.27,106.217,362.27,106.217z"/>
						<path style="fill:#F6E504;" d="M327.793,92.585c0,0,1.512,0.133,2.562-0.228c1.047-0.362,2.074-1.933,2.074-1.933
							s0.738,1.726,1.707,2.264c0.968,0.537,2.481,0.67,2.481,0.67s0.6,1.864-0.963,5.2c-1.563,3.336-4.277,3.853-4.277,3.853
							s-2.581-0.981-3.541-4.538C326.88,94.316,327.793,92.585,327.793,92.585z"/>
					</g>
				</g>
				<path style="fill:#794342;" d="M381.854,294.748c0.748,1.844,2.85,2.73,4.693,1.982l1.019-0.414
					c1.845-0.748,2.732-2.851,1.983-4.692l-30.933-76.176c-0.749-1.843-2.849-2.73-4.693-1.981l-1.019,0.414
					c-1.845,0.749-2.732,2.85-1.983,4.693L381.854,294.748z"/>
				<g>
					<path style="fill:#FACCBB;" d="M371.783,186.54c0,0,6.25,5.949,9.25,6.983c3,1.035,14.5,8.991,14.5,8.991s-3,5-6.25,9.75
						c-3.417,4.995-11.322,18.497-11.322,18.497l6.572,9.003c0,0,8.305-7.41,14.104-11.598c5.8-4.187,12.647-10.902,15.147-14.902
						s5.25-11,4.5-13.5s-7.558-10.832-14.131-15.439c-6.572-4.606-15.851-10.887-19.524-12.563
						C380.956,170.088,369.657,180.05,371.783,186.54z"/>
					<g>
						<path style="fill:#FACCBB;" d="M383.132,227.46c-1.145-0.898-7.115-1.446-8.542-1.139c-1.425,0.306-5.874,1.948-7.581,3.458
							c-1.707,1.512-0.847,4.608-0.847,4.608s-4.672,2.606-4.357,5.131c0.315,2.527,3.217,2.666,3.217,2.666
							s-0.56,2.409,0.311,3.518c0.871,1.111,2.847,0.38,2.847,0.38s-1.055,2.592,0.034,3.731c1.09,1.139,3.455-0.285,3.455-0.285
							s-0.887,1.869,0.478,2.796c1.365,0.928,3.942,0.526,6.913-1.561c2.969-2.087,6.502-6.584,8.326-9.571
							c1.825-2.985,1.077-6.563,0.156-8.424C386.621,230.906,384.278,228.359,383.132,227.46z"/>
						<g>
							<path style="fill:none;stroke:#DC8C7A;stroke-miterlimit:10;" d="M366.056,233.877c0,0,2.684,0.108,4.554-1.131
								c1.87-1.241,2.914-1.846,2.914-1.846"/>
							<path style="fill:none;stroke:#DC8C7A;stroke-miterlimit:10;" d="M364.366,242.098c0,0,2.465,0.079,4.398-2.396"/>
							<path style="fill:none;stroke:#DC8C7A;stroke-miterlimit:10;" d="M367.664,245.95c0,0,2.491-0.161,4.229-2.783"/>
							<path style="fill:none;stroke:#DC8C7A;stroke-miterlimit:10;" d="M370.59,249.878c0,0,3.056-1.078,4.162-2.917"/>
						</g>
					</g>
					<path style="fill:#3C5574;" d="M363.517,156.307c5.719-1.946,12.516,2.708,15.766,5.708s10.5,12.25,10.5,12.25
						s-4.21,1.852-7.119,7.063c-2.909,5.211-3.131,11.688-3.131,11.688s-13.148-2.046-19.984-13.83
						C352.713,167.4,357.797,158.253,363.517,156.307z"/>
				</g>
				<g>
					<path style="fill:#FFFFFF;" d="M249.782,160.303l38.251-11.288c0,0,11.046,16.427,15.5,26c4.454,9.568,8,29,8,29l-36.755,3.117
						c0,0-2.68-9.156-8.863-21.405C261.092,176.174,249.782,160.303,249.782,160.303z"/>
					<g>
						<path style="fill:#FACCBB;" d="M260.1,175.992c1.065-1.598,1.598-3.992,4.26-3.46c2.661,0.532,4.259,2.131,4.259,3.46
							c0,1.33-1.134,2.266-1.134,2.266s2.729,0.662,2.995,2.791c0.266,2.128-1.423,1.226-1.423,1.226s4.095,1.472,3.559,4.248
							c-0.538,2.775-4.265,0.381-4.265,0.381s7.582,4.376,6.719,8.31c-0.865,3.933-5.919,4.997-9.647,0.473
							c-3.725-4.525-4.791-9.049-5.053-10.379c-0.27-1.333-0.27-1.333-0.27-1.333s-0.797-2.66-1.33-3.725
							C258.239,179.185,259.037,177.588,260.1,175.992z"/>
						<path style="fill:none;stroke:#DC8C7A;stroke-miterlimit:10;" d="M266.489,177.056c0,0-2.995-1.331-5.323-0.53"/>
						<path style="fill:none;stroke:#DC8C7A;stroke-miterlimit:10;" d="M269.058,182.275c0,0-5.496-3.355-8.688-0.427"/>
						<path style="fill:none;stroke:#DC8C7A;stroke-miterlimit:10;" d="M269.416,187.17c0,0-2.395-1.065-5.056,0.795"/>
					</g>
				</g>
			</g>
		</g>
		<g>
			<path style="fill:#BCD5C5;" d="M81.591,434.368c0,10.061,32.16,18.217,71.834,18.217s71.835-8.155,71.835-18.217
				c0-10.059-32.161-18.216-71.835-18.216S81.591,424.309,81.591,434.368z"/>
			<g>
				<g>
					<path style="fill:#EAAA7F;" d="M205.277,160.134c0,0,1.88,13.768,2.059,21.006c0.181,7.236-1.969,23.229-1.969,23.229
						s5.043,6.699,7.015,15.994c1.971,9.294,1.969,25.479,1.969,25.479l-11.237-1.13c0,0-10.362-11.317-12.496-22.27
						c-2.134-10.953-3.5-28.5-3.5-28.5l0.732-33.215L205.277,160.134z"/>
					<g>
						<path style="fill:#EAAA7F;" d="M203.669,243.259c0,0-4.248,5.031-4.165,10.526c0.082,5.496,0.881,6.883,0.867,10.71
							c-0.015,3.828-0.269,7.668,2.13,7.766c2.396,0.1,3.462-2.115,3.547-4.75c0.085-2.637,2.314-9.463,2.314-9.463
							s2.06,2.51,2.929,5.09c0.868,2.58,1.235,4.71-0.31,6.953c-1.541,2.242-4.29,4.316-3.716,5.957
							c0.574,1.64,3.421,1.234,3.421,1.234s0.308,1.178,1.752,1.331c1.442,0.154,4.472-5.284,5.791-7.274
							c1.318-1.989,1.5-7.022,1.319-10.121c-0.183-3.097-5.814-17.592-5.814-17.592L203.669,243.259z"/>
						<path style="fill:none;stroke:#D58069;stroke-miterlimit:10;" d="M210.775,277.228c0,0,2.092-1.709,3.71-3.465
							c1.616-1.754,3.191-10.233,3.191-10.233"/>
					</g>
					<path style="fill:#3C5574;" d="M186.861,129.034c9.765-3.077,16.722,8.427,18.595,16.721
						c1.873,8.293,1.432,19.992,1.432,19.992s-6.668,2.244-11.134,5.332c-4.466,3.086-9.188,3.55-9.188,3.55
						S176.494,132.302,186.861,129.034z"/>
				</g>
				<path style="fill:#794342;" d="M166.425,284.674c-0.903,1.774-0.196,3.942,1.578,4.844l0.981,0.499
					c1.773,0.903,3.942,0.196,4.843-1.577l40.393-79.193c0.903-1.773,0.196-3.94-1.578-4.844l-0.981-0.498
					c-1.774-0.902-3.942-0.196-4.843,1.577L166.425,284.674z"/>
				<g>
					<g>
						<path style="fill:#2A254F;" d="M106.29,430.737c0.047-2.834,1.51-7.641,1.679-11.953c0.283-7.021,1.635-10.839,1.635-10.839
							s3.705,1.662,9.982,1.811c6.275,0.151,7.718-1.707,7.718-1.707s1.017,4.523,2.466,8.741c1.657,4.815,4.441,9.206,5.942,12.755
							c0.962,2.285,0.111,7.622-2.432,9.969c-1.55,1.431-3.997,2.505-7.795,2.837c-8.642,0.747-14.746-0.584-17.552-4.13
							C106.423,436.318,106.252,433.088,106.29,430.737z"/>
						<path style="fill:none;stroke:#6B6F84;stroke-miterlimit:10;" d="M134.849,434.79c0,0-0.074,3.206-8.128,4.056
							c-12.521,1.323-19.406-3.658-19.674-6.533"/>
						<g>
							<path style="fill:none;stroke:#6B6F84;stroke-miterlimit:10;" d="M125.577,414.954c0,0-7.217-1.555-12.211,0.413"/>
							<path style="fill:none;stroke:#6B6F84;stroke-miterlimit:10;" d="M125.793,421.423c0,0-7.215-1.555-12.211,0.413"/>
						</g>
					</g>
					<g>
						<path style="fill:#2A254F;" d="M201.459,421.547c-1.979-1.275-6.398-4.031-8.138-5.913c-4.22-4.558-8.636-8.71-10.079-10.057
							l-18.966,0.228c0,0-2.082,11.401-1.471,15.639c0.43,2.95,2.523,3.441,6.761,5.858c2.656,1.521,8.198,5.872,12.349,7.786
							c4.415,2.027,15.696,1.82,20.17-0.212C211.47,430.61,207.051,425.133,201.459,421.547z"/>
						<g>
							<path style="fill:none;stroke:#6B6F84;stroke-miterlimit:10;" d="M177.356,412.851c0,0,4.649-2.401,9.724-2.083"/>
							<path style="fill:none;stroke:#6B6F84;stroke-miterlimit:10;" d="M180.853,417.326c0,0,4.65-2.4,9.728-2.079"/>
							<path style="fill:none;stroke:#6B6F84;stroke-miterlimit:10;" d="M200.458,434.439c0,0-8.112,1.193-14.679-0.488
								c-5.607-1.438-9.771-7.75-15.115-9.631c-5.34-1.885-7.197-5.207-7.197-5.207"/>
						</g>
					</g>
					<g>
						<path style="fill:#4C6DA6;" d="M151.186,233.02c6.763,0.43,40.429-0.856,40.429-0.856s4.194,38.141,2.05,52.92
							c-1.691,11.658-1.668,33.95-2.032,38.226c-0.365,4.277-2.561,19.605-2.936,22.954c-2.123,18.84-1.333,58.594-1.333,58.594
							s-2.265,3.079-10.924,4.202c-8.98,1.166-16.007-0.205-16.007-0.205l-2.386-20.961c0,0-3.634-34.439-3.79-42.938
							c-0.156-8.499,5.039-25.097,5.039-25.097l-6.157-37.338c0,0-5.938-16.67-5.472-30.005
							C148.133,239.183,151.186,233.02,151.186,233.02z"/>
					</g>
					<g>
						<path style="fill:#4C6DA6;" d="M124.68,233.343c6.587,1.592,39.971,6.137,39.971,6.137s-4.368,38.926-6.406,50.395
							c-2.039,11.468-6.923,35.031-8.02,39.181c-1.098,4.15-5.907,18.869-6.855,22.103c-5.342,18.19-12.723,57.69-12.723,57.69
							s-2.763,2.64-11.486,2.251c-9.046-0.402-13.746-2.732-13.746-2.732s2.546-53.685,3.859-62.082
							c1.313-8.398,7.012-26.633,7.012-26.633l1.771-37.212c0,0-2.97-17.445-0.208-30.5
							C120.609,238.886,124.68,233.343,124.68,233.343z"/>
					</g>
				</g>
				<path style="fill:none;stroke:#2A457A;stroke-miterlimit:10;" d="M161.618,246.442c0,0-0.5,16.5-2.5,27.5s-4,24-4,24"/>
				<g>
					<path style="fill:#3C5574;" d="M120.696,152.431c0.686-10.68-2.024-20.215,1.003-24.155c4.418-5.747,24.441-9.014,41.535-7.052
						c5.736,0.653,15.955,3.536,19.181,4.411c4.587,1.248,9.933,2.848,13.292,4.953c7.388,4.634,5.462,15.683,5.928,19.844
						c0.672,6.052-3.267,25.2-5.883,35.417c-2.082,8.127-2.179,53.599-2.179,53.599s-5.183,8.596-35.594,6.041
						c-26.082-2.189-35.064-10.708-35.064-10.708s2.373-27.045,2.373-39.816C125.288,182.194,120.045,162.561,120.696,152.431z"/>
					<path style="fill:none;stroke:#2A384F;stroke-miterlimit:10;" d="M166.806,139.387c0,0,2.811,19.555,1.145,37.222
						c-1.667,17.667-2.666,28.667-3.333,36c-0.667,7.333-1.667,29.667-1.667,29.667"/>
					<path style="fill:#3F75A2;" d="M164.744,115.876c-4.988-1.149-15.575-2.832-20.564,2.088
						c-4.988,4.918-4.293,12.549-0.563,17.646c3.729,5.098,14.333,18.333,14.333,18.333l8.811-14.945l9.809,13.562
						c0,0,5.557-17.379,3.314-25.432C177.643,119.076,169.733,117.025,164.744,115.876z"/>
					<path style="fill:none;stroke:#2A384F;stroke-miterlimit:10;" d="M197.527,176.177c0,0,5.801-26.365,3.691-34.802"/>
					<g>
						<g>
							<path style="fill:#3F75A2;" d="M194.532,166.263l-20.19-0.845c0,0-0.094,4.546,1.892,7.265
								c1.986,2.719,8.577,6.175,8.577,6.175s6.017-2.982,7.256-4.583C194.387,171.275,194.532,166.263,194.532,166.263z"/>
							<polygon style="fill:#7CA7A2;" points="174.813,158.102 174.82,163.439 194.16,164.118 194.284,158.781 							"/>
						</g>
						<g>
							<path style="fill:#3F75A2;" d="M160.497,165.435l-23.029,0.093c-0.002-0.001-0.335,3.604,1.796,6.737
								c1.75,2.573,9.899,4.816,9.899,4.816s9.098-3.116,10.478-4.852C162.301,168.876,160.497,165.435,160.497,165.435z"/>
							<path style="fill:#F6E504;" d="M155.583,159.004c0,0-1.699-0.03-2.826-0.583c-1.128-0.554-2.11-2.524-2.11-2.524
								s-0.998,1.934-2.129,2.447c-1.137,0.51-2.832,0.48-2.832,0.48s-0.855,2.112,0.537,6.219c1.398,4.108,4.363,5.049,4.363,5.049
								s2.972-0.833,4.405-4.888C156.423,161.15,155.583,159.004,155.583,159.004z"/>
						</g>
					</g>
				</g>
				<g>
					<g>
						<polygon style="fill:#EAAA7F;" points="172.674,111.71 149.997,102.188 145.118,123.942 166.806,139.387 174.378,127.134 
													"/>
					</g>
					<path style="fill:#592221;" d="M174.992,72.439c0,0,7.888,3.572,8.686,13.829c0.799,10.265-3.483,11.309-7.211,9.152
						c-3.727-2.155-15.63-13.869-15.63-13.869l3.38-12.057L174.992,72.439z"/>
					<path style="fill:#EAAA7F;" d="M178.48,78.894c4.78,6.168,3.869,11.106,3.673,18.372c-0.193,7.045-1.396,13.63-6.244,17.332
						c-6.436,4.905-14.521,5.394-21.761-0.89c-3.232-2.806-7.702-8.593-10.162-15.058c-3.021-7.937,1.744-24.512,9.986-28.218
						C162.215,66.727,173.706,72.726,178.48,78.894z"/>
					<path style="fill:#592221;" d="M138.899,80.963c1.314-5.589,6.673-6.995,6.673-6.995l7.908,3.897c0,0,2.173,4.586-2.531,8.246
						c-1.585,1.232-1.319,6.561-0.354,10.914c0.966,4.354-1.189,4.725-2.561,2.183c-1.367-2.54-5.002-2.053-6.904-2.717
						C139.229,95.826,138.144,84.175,138.899,80.963z"/>
					<path style="fill:none;stroke:#D58069;stroke-miterlimit:10;" d="M172.66,116.822c0,0-5.439,2.918-11.093,1.33
						c-5.655-1.588-10.492-8.263-10.492-8.263"/>
					<path style="fill:#592221;" d="M142.035,76.807c0,0-0.148-13.509,15.993-14.45c11.652-0.68,21.598,4.969,23.871,17.541
						c0.832,4.604,1.066,8.292-8.02,6.726c-9.086-1.566-24.296-5.589-26.006-6.426C146.163,79.361,142.035,76.807,142.035,76.807z"
						/>
					<path style="fill:#EAAA7F;" d="M146.541,95.694c-2.27-3.561-9.452-3.369-8.617,1.514c0.833,4.885,7.068,10.87,10.912,8.353
						C150.915,104.201,148.808,99.258,146.541,95.694z"/>
					<g>
						<g>
							<path style="fill:#412500;" d="M174.33,95.808c0.61,0.911,1.845,1.159,2.758,0.55c0.911-0.608,1.162-1.84,0.554-2.757
								c-0.609-0.915-1.843-1.165-2.76-0.552C173.968,93.657,173.721,94.891,174.33,95.808z"/>
						</g>
						<g>
							<path style="fill:#412500;" d="M159.515,95.783c0.489,0.982,1.68,1.386,2.663,0.896c0.988-0.488,1.39-1.68,0.902-2.666
								c-0.49-0.984-1.684-1.385-2.669-0.896C159.43,93.606,159.026,94.797,159.515,95.783z"/>
						</g>
						<g>
							<path style="fill:#D58069;" d="M170.247,90.072c0.557,1.172,0.96,2.363,1.335,3.558c0.365,1.197,0.667,2.401,0.924,3.612
								l-0.606-0.949c0.251,0.124,0.436,0.228,0.642,0.356c0.201,0.123,0.401,0.249,0.589,0.395c0.385,0.281,0.75,0.604,1.097,0.983
								c0.338,0.386,0.675,0.829,0.917,1.421c0.064,0.14,0.117,0.3,0.161,0.473c0.05,0.162,0.086,0.338,0.096,0.537l0.017,0.285
								l0.001,0.118l-0.001,0.01l-0.003,0.02l-0.005,0.039l-0.01,0.078c-0.012,0.106-0.039,0.276-0.071,0.407
								c-0.032,0.121-0.064,0.2-0.101,0.3c-0.323,0.715-0.752,1.096-1.161,1.41c-0.414,0.31-0.838,0.527-1.266,0.709
								c-0.861,0.345-1.749,0.543-2.688,0.536c0.562-0.744,1.126-1.388,1.627-2.012c0.248-0.309,0.482-0.613,0.658-0.896
								c0.178-0.275,0.291-0.561,0.254-0.636c-0.008,0-0.005-0.019-0.014,0c-0.016,0.027-0.021,0.095-0.021,0.097l-0.005-0.079
								l-0.002-0.039l-0.001-0.02l-0.001-0.01c0.001,0.2,0,0.055,0,0.1l-0.001-0.001l-0.001,0l-0.025-0.026
								c-0.007-0.011-0.02-0.038-0.042-0.073c-0.012-0.028-0.029-0.064-0.063-0.111c-0.048-0.08-0.125-0.188-0.201-0.297
								c-0.081-0.113-0.187-0.223-0.285-0.348c-0.212-0.243-0.459-0.492-0.716-0.747l-0.783-0.742l-0.588-0.558l-0.019-0.391
								c-0.059-1.236-0.074-2.478-0.025-3.728C169.92,92.602,170.006,91.347,170.247,90.072z"/>
						</g>
						<g>
							<g>
								<path style="fill:#592221;" d="M173.689,91.581c1.162-0.316,2.187-0.958,3.41-0.688c0.591,0.131,3.075,1.415,3.075-0.034
									c0-1.233-2.901-1.573-3.756-1.644c-1.021-0.085-2.398,0.693-3.192,1.266C172.694,90.865,172.996,91.77,173.689,91.581
									L173.689,91.581z"/>
							</g>
						</g>
						<g>
							<g>
								<path style="fill:#592221;" d="M165.156,91.063c-1.214-0.561-2.439-1.036-3.742-1.351c-1.747-0.423-3.851,0.822-5.371,1.584
									c-0.551,0.276-0.43,1.202,0.173,1.327c0.029,0.006,0.058,0.012,0.086,0.018c0.328,0.068,0.633-0.043,0.815-0.331
									c0.293-0.465,0.27-0.767,0.335-1.265c0.017-0.135-0.103-0.232-0.211-0.277c-0.015-0.006-0.029-0.012-0.044-0.018
									c-0.216-0.089-0.448,0.217-0.309,0.402c-0.302-0.403-0.263,0.079-0.286,0.072c0,0.466,0,0.933,0,1.399
									c1.63-0.632,3.269-1.862,5.054-1.432c1.036,0.25,2.066,0.553,3.096,0.829C165.311,92.17,165.707,91.318,165.156,91.063
									L165.156,91.063z"/>
							</g>
						</g>
						<g>
							<path style="fill:#FFFFFF;" d="M169.164,107.093c0,0-1.392-0.638-3.875-1.671c-2.483-1.033-3.003,0.265-2.969,2.242
								c0.034,1.978,3.692,4.006,6.299,3.879c3.805-0.185,5.655-1.727,5.185-4.123C173.335,105.024,169.164,107.093,169.164,107.093
								z"/>
						</g>
						<path style="fill:#592221;" d="M169.767,104.271c0,0-2.562-0.835-4.358-1.104c-1.56-0.233-2.985,0.154-3.903,0.617
							c-1.974,0.993-1.016,3.733,0.575,3.502c1.592-0.231,3.467-1.295,3.467-1.295s0.163,2.283,1.6,2.612
							c1.436,0.328,2.582-1.798,2.582-1.798s0.623,1.49,2.149,1.741c1.527,0.252,2.097-1.411,2.097-1.411s1.285,2.186,2.468,1.538
							c1.183-0.647,0.335-3.933-1.891-4.669S169.767,104.271,169.767,104.271z"/>
					</g>
					<g>
						<path style="fill:#242A1D;" d="M141.438,82.64c0,0,4.129,4.549,19.069,3.096c14.938-1.454,23.737-4.37,24.543-8.084
							c0.804-3.714-7.887-7.108-7.887-7.108L141.438,82.64z"/>
						<path style="fill:#3C5574;" d="M137.321,80.08c0,0-13.038,1.599-8.691-6.746c4.345-8.344,21.153-23.614,30.506-25.638
							c9.353-2.024,22.537,7.319,22.284,12.797c-0.254,5.479-4.078,6.484-4.078,6.484L137.321,80.08z"/>
						<path style="fill:#3F75A2;" d="M136.487,78.422l2.281,5.315c0,0,16.953-4.329,25.059-7.028
							c8.105-2.699,15.079-5.279,15.079-5.279l-0.605-7.345c0,0-4.48-1.288-15.673,1.679
							C151.432,68.73,136.487,78.422,136.487,78.422z"/>
						<path style="fill:#F6E504;" d="M170.394,60.516c0,0-1.526,0.282-2.625-0.014c-1.096-0.297-2.274-1.905-2.274-1.905
							s-0.603,1.937-1.544,2.608c-0.938,0.67-2.466,0.952-2.466,0.952s-0.453,2.074,1.42,5.546c1.873,3.473,4.677,3.787,4.677,3.787
							s2.542-1.297,3.216-5.239C171.468,62.31,170.394,60.516,170.394,60.516z"/>
					</g>
				</g>
				<g>
					<g>
						<path style="fill:#3C5574;" d="M133.699,125.608c-6.019-5.047-22.7,4.486-26.726,17.428
							c-3.446,11.079-4.689,19.999-2.638,22.888c2.051,2.889,10.845,2.452,16.018,2.472c5.172,0.02,9.32-1.233,9.32-1.233
							S139.718,130.655,133.699,125.608z"/>
						<path style="fill:none;stroke:#2A384F;stroke-miterlimit:10;" d="M134.645,144.742c0,0-0.536,9.789-1.694,14.572
							c-1.159,4.784-2.776,11.755-2.776,11.755"/>
					</g>
					<g>
						<g>
							<g>
								<path style="fill:#242A1D;" d="M160.129,125.915c0.562,1.258-0.003,2.733-1.262,3.295l-11.621,5.185
									c-1.258,0.562-2.734-0.004-3.295-1.262l-11.541-25.861c-0.561-1.258,0.003-2.733,1.262-3.295l11.62-5.186
									c1.259-0.562,2.734,0.003,3.295,1.262L160.129,125.915z"/>
								<path style="fill:#242A1D;" d="M138.112,107.801c0.21,0.473-0.001,1.027-0.474,1.237l0,0
									c-0.471,0.211-1.024-0.001-1.235-0.473l-10.675-23.924c-0.212-0.472,0.001-1.025,0.473-1.235l0,0
									c0.472-0.211,1.026,0.001,1.236,0.473L138.112,107.801z"/>
							</g>
						</g>
						<g>
							<path style="fill:#EAAA7F;" d="M146.456,104.484c0,0-3.708-0.413-5.351,2.029c-1.643,2.442-3.787,6.499-4.682,8.434
								c-0.896,1.936-0.556,3.222-0.802,6.393c-0.245,3.17,0.425,8.953,1.854,11.209c1.43,2.256,6.374,6.34,10.124,6.618
								c3.751,0.277,6.831-5.626,5.707-8.879c-1.094-3.167,0.334-8.525,2.325-9.235c1.992-0.711,1.448,1.039,2.299,1.155
								c0.849,0.116,2.208-0.938,2.036-2.762c-0.172-1.824-1.184-3.319-1.184-3.319s0.933-0.153,0.417-1.345
								c-0.515-1.193-1.787-2.326-1.787-2.326s-0.13-1.958-1.133-3.007c-1.003-1.048-3.788-2.06-3.788-2.06s1.317-0.92-0.265-1.999
								C150.643,104.307,146.456,104.484,146.456,104.484z"/>
							<path style="fill:none;stroke:#D58069;stroke-miterlimit:10;" d="M141.923,111.489c0,0,3.179-3.588,5.533-4.039
								c2.352-0.451,4.321-0.136,4.321-0.136"/>
							<path style="fill:none;stroke:#D58069;stroke-miterlimit:10;" d="M145.522,115.114c0,0,3.313-3.547,5.396-4.081
								c2.085-0.535,5.686,1.172,5.686,1.172"/>
							<path style="fill:none;stroke:#D58069;stroke-miterlimit:10;" d="M149.235,117.889c0,0,3.499-3.194,5.602-2.837
								c2.103,0.357,3.946,1.075,3.946,1.075"/>
							<path style="fill:none;stroke:#D58069;stroke-miterlimit:10;" d="M157.21,121.32c0.22,0.363,0.296,0.83,0.721,0.888
								c0.849,0.116,2.208-0.938,2.036-2.762c-0.172-1.824-1.184-3.319-1.184-3.319s0.933-0.153,0.417-1.345
								c-0.515-1.193-1.787-2.326-1.787-2.326s-0.13-1.958-1.133-3.007c-1.003-1.048-3.788-2.06-3.788-2.06s1.317-0.92-0.265-1.999
								c-0.519-0.355-1.319-0.575-2.16-0.709"/>
						</g>
						<path style="fill:none;stroke:#D58069;stroke-miterlimit:10;" d="M150.354,138.442c0,0,3.196-2.847,2.852-7.159"/>
					</g>
					<g>
						<path style="fill:#EAAA7F;" d="M104.699,161.007c0,0,3.103-2.305,6.754-3.08c3.651-0.774,6.958-0.354,6.958-0.354
							s3.125-2.907,7.219-7.592c4.094-4.685,12.893-17.099,12.893-17.099s2.858-1.059,7.039,0.299
							c4.179,1.358,4.759,5.593,4.759,5.593s-15.403,41.469-22.288,48.168c-6.884,6.698-13.65,10.079-18.378,7.191
							c-4.728-2.887-7.839-7.825-7.622-13.857c0.216-6.032,1.004-11.468,1.004-11.468S103.093,163.667,104.699,161.007z"/>
						<path style="fill:none;stroke:#D58069;stroke-miterlimit:10;" d="M109.383,165.1c0,0,6.227-5.212,9.028-7.527"/>
					</g>
				</g>
				<g>
					<g>
						<path style="fill:#2A254F;" d="M193.284,238.609l0.334,8c0,0-13.188,6.311-31.771,4.671
							c-18.585-1.64-41.562-11.15-41.562-11.15l3.379-8.855c0,0,20.95,6.231,37.508,8.199
							C177.727,241.442,193.284,238.609,193.284,238.609z"/>
						<path style="fill:#8898B1;" d="M155.163,238.587c2.434,0.722,16.49,1.46,16.49,1.46l-0.803,12.105c0,0-4.031,1.204-7.572,0.84
							c-3.541-0.363-10.221-1.315-10.221-1.315L155.163,238.587z"/>
						<polygon style="fill:#4C6DA6;" points="141.952,235.609 139.284,247.942 133.284,246.276 136.618,233.942 						"/>
						<polygon style="fill:#4C6DA6;" points="182.268,238.735 183.07,250.381 188.301,249.482 186.618,238.276 						"/>
					</g>
					<g>
						<path style="fill:#242A1D;" d="M120.763,226.402c3.945-0.169,15.51,2.503,15.793,8.49c0.285,5.987-0.554,25.194-7.733,28.104
							c-7.18,2.909-11.475,0.165-17.032-3.628c-5.556-3.793-2.007-11.386-0.528-16.729c0.319-1.154,2.734-5.127,2.734-5.127
							s-2.05-1.709-1.708-3.418c0.342-1.709,2.069-3.268,3.077-4.443C117.416,227.258,118.986,226.479,120.763,226.402z"/>
						<path style="fill:none;stroke:#334743;stroke-miterlimit:10;" d="M115.137,237.626c0,0,0.911,1.823,8.204,5.469
							c7.292,3.646,10.937-0.911,12.305-4.101"/>
						<path style="fill:#334743;" d="M123.471,235.97c-0.461,0.929-1.933,1.138-3.286,0.466c-1.35-0.672-2.073-1.971-1.611-2.901
							c0.462-0.929,1.934-1.138,3.286-0.466C123.211,233.741,123.932,235.04,123.471,235.97z"/>
					</g>
				</g>
			</g>
		</g>
	</g>
</g>
</svg>
