<?xml version="1.0" encoding="utf-8"?>
<!-- Generator: Adobe Illustrator 27.5.0, SVG Export Plug-In . SVG Version: 6.00 Build 0)  -->
<svg version="1.1" xmlns="http://www.w3.org/2000/svg" xmlns:xlink="http://www.w3.org/1999/xlink" x="0px" y="0px"
	 viewBox="0 0 500 500" style="enable-background:new 0 0 500 500;" xml:space="preserve">
<g id="Background_Complete">
	<g>
		<g>
			<rect x="29.292" y="58.415" style="fill:#F5F5F5;" width="222.11" height="146.282"/>
		</g>
		<g>
			<path style="fill:#E0E0E0;" d="M64.079,93.363c0,0-3.109-1.718-5.087,0.392c-0.702,0.75-0.887,3.209,1.855,3.7
				c0,0,5.932-0.327,8.633-0.818c2.7-0.491,8.837-3.191,8.837-3.191l3.191-7.119c0,0,0.409-3.355,0.818-3.437
				c0.409-0.082,1.637,3.437,1.637,3.437l6.873,1.964l0.736,1.391l-5.564,2.291c0,0,0.818,8.837,0.082,10.392
				c-0.736,1.555-2.864,3.437-2.864,3.437l0.327,12.847c0,0,1.227-0.491,1.309,0.409H81.59c0,0-1.309-8.019-3.191-8.592l0.491-3.355
				l-12.847-1.064c0,0,0.9,3.028-2.782,5.482c-3.682,2.455-5.319,4.419-5.319,4.419v2.455c0,0,1.064,0.409,1.146,1.309H55.16
				c0,0,0.491-6.792,0-7.937c0,0,4.821-4.927,4.173-10.965c0,0-5.482-1.391-4.173-6.71C56.47,88.781,62.607,88.699,64.079,93.363z"
				/>
		</g>
		<g>
			<path style="fill:#E0E0E0;" d="M64.898,134.323c0,0-1.932-1.068-3.161,0.243c-0.437,0.466-0.551,1.994,1.152,2.299
				c0,0,3.687-0.203,5.365-0.508c1.678-0.305,5.492-1.983,5.492-1.983l1.983-4.424c0,0,0.254-2.085,0.508-2.136
				c0.254-0.051,1.017,2.136,1.017,2.136l4.271,1.22l0.458,0.864l-3.458,1.424c0,0,0.509,5.492,0.051,6.458
				c-0.458,0.966-1.78,2.136-1.78,2.136L77,150.036c0,0,0.763-0.305,0.814,0.254H75.78c0,0-0.814-4.983-1.983-5.339l0.305-2.085
				l-7.984-0.661c0,0,0.559,1.881-1.729,3.407c-2.288,1.525-3.305,2.746-3.305,2.746v1.525c0,0,0.661,0.254,0.712,0.814h-2.441
				c0,0,0.305-4.22,0-4.932c0,0,2.996-3.062,2.593-6.814c0,0-3.407-0.865-2.593-4.17C60.169,131.475,63.982,131.425,64.898,134.323z
				"/>
		</g>
		<g>
			<path style="fill:#E0E0E0;" d="M63.499,168.322c0,0-1.456-0.804-2.381,0.183c-0.329,0.351-0.415,1.502,0.868,1.732
				c0,0,2.777-0.153,4.041-0.383c1.264-0.23,4.137-1.494,4.137-1.494l1.494-3.333c0,0,0.191-1.571,0.383-1.609
				c0.191-0.038,0.766,1.609,0.766,1.609l3.218,0.919l0.345,0.651l-2.605,1.073c0,0,0.383,4.137,0.038,4.865
				c-0.345,0.728-1.341,1.609-1.341,1.609l0.153,6.014c0,0,0.575-0.23,0.613,0.192h-1.532c0,0-0.613-3.754-1.494-4.022l0.23-1.571
				l-6.014-0.498c0,0,0.421,1.417-1.302,2.566c-1.724,1.149-2.49,2.069-2.49,2.069v1.149c0,0,0.498,0.192,0.536,0.613h-1.839
				c0,0,0.23-3.179,0-3.716c0,0,2.257-2.307,1.954-5.133c0,0-2.567-0.651-1.954-3.141C59.937,166.177,62.81,166.139,63.499,168.322z
				"/>
		</g>
		<g>
			<g>
				<path style="fill:#E0E0E0;" d="M217.834,99.108c0,0.144-23.096,0.26-51.579,0.26c-28.493,0-51.584-0.117-51.584-0.26
					c0-0.144,23.091-0.26,51.584-0.26C194.738,98.847,217.834,98.964,217.834,99.108z"/>
			</g>
		</g>
		<g>
			<g>
				<path style="fill:#E0E0E0;" d="M217.834,103.086c0,0.144-23.096,0.26-51.579,0.26c-28.493,0-51.584-0.117-51.584-0.26
					c0-0.144,23.091-0.26,51.584-0.26C194.738,102.825,217.834,102.942,217.834,103.086z"/>
			</g>
		</g>
		<g>
			<g>
				<path style="fill:#E0E0E0;" d="M217.834,107.064c0,0.144-23.096,0.26-51.579,0.26c-28.493,0-51.584-0.117-51.584-0.26
					s23.091-0.26,51.584-0.26C194.738,106.803,217.834,106.92,217.834,107.064z"/>
			</g>
		</g>
		<g>
			<g>
				<path style="fill:#E0E0E0;" d="M217.834,111.042c0,0.144-23.096,0.26-51.579,0.26c-28.493,0-51.584-0.117-51.584-0.26
					c0-0.144,23.091-0.26,51.584-0.26C194.738,110.781,217.834,110.898,217.834,111.042z"/>
			</g>
		</g>
		<g>
			<g>
				<path style="fill:#E0E0E0;" d="M217.834,133.584c0,0.144-23.096,0.26-51.579,0.26c-28.493,0-51.584-0.117-51.584-0.26
					c0-0.144,23.091-0.26,51.584-0.26C194.738,133.323,217.834,133.44,217.834,133.584z"/>
			</g>
		</g>
		<g>
			<g>
				<path style="fill:#E0E0E0;" d="M217.834,137.562c0,0.144-23.096,0.26-51.579,0.26c-28.493,0-51.584-0.117-51.584-0.26
					c0-0.144,23.091-0.26,51.584-0.26C194.738,137.301,217.834,137.418,217.834,137.562z"/>
			</g>
		</g>
		<g>
			<g>
				<path style="fill:#E0E0E0;" d="M217.834,141.54c0,0.144-23.096,0.26-51.579,0.26c-28.493,0-51.584-0.117-51.584-0.26
					c0-0.144,23.091-0.26,51.584-0.26C194.738,141.279,217.834,141.396,217.834,141.54z"/>
			</g>
		</g>
		<g>
			<g>
				<path style="fill:#E0E0E0;" d="M217.834,145.518c0,0.144-23.096,0.261-51.579,0.261c-28.493,0-51.584-0.117-51.584-0.261
					c0-0.144,23.091-0.26,51.584-0.26C194.738,145.257,217.834,145.374,217.834,145.518z"/>
			</g>
		</g>
		<g>
			<g>
				<path style="fill:#E0E0E0;" d="M217.834,168.06c0,0.144-23.096,0.26-51.579,0.26c-28.493,0-51.584-0.117-51.584-0.26
					c0-0.144,23.091-0.26,51.584-0.26C194.738,167.799,217.834,167.916,217.834,168.06z"/>
			</g>
		</g>
		<g>
			<g>
				<path style="fill:#E0E0E0;" d="M217.834,172.038c0,0.144-23.096,0.26-51.579,0.26c-28.493,0-51.584-0.117-51.584-0.26
					s23.091-0.26,51.584-0.26C194.738,171.777,217.834,171.894,217.834,172.038z"/>
			</g>
		</g>
		<g>
			<g>
				<path style="fill:#E0E0E0;" d="M217.834,176.016c0,0.144-23.096,0.26-51.579,0.26c-28.493,0-51.584-0.117-51.584-0.26
					s23.091-0.26,51.584-0.26C194.738,175.755,217.834,175.872,217.834,176.016z"/>
			</g>
		</g>
		<g>
			<g>
				<path style="fill:#E0E0E0;" d="M217.834,179.994c0,0.144-23.096,0.26-51.579,0.26c-28.493,0-51.584-0.117-51.584-0.26
					c0-0.144,23.091-0.26,51.584-0.26C194.738,179.733,217.834,179.85,217.834,179.994z"/>
			</g>
		</g>
		<g>
			<g>
				<path style="fill:#E0E0E0;" d="M208.686,79.251c0,1.438-22.917,2.604-51.18,2.604c-28.273,0-51.185-1.166-51.185-2.604
					c0-1.438,22.912-2.604,51.185-2.604C185.768,76.648,208.686,77.814,208.686,79.251z"/>
			</g>
		</g>
	</g>
	<g>
		<g>
			<g>
				<path style="fill:#EBEBEB;" d="M377.528,55.114h-2.811v-5.321c0-1.725-1.245-3.128-2.774-3.128h-21.389
					c-1.53,0-2.774,1.403-2.774,3.128v5.321h-2.811v-5.321c0-3.275,2.506-5.94,5.586-5.94h21.389c3.08,0,5.586,2.664,5.586,5.94
					V55.114z"/>
			</g>
		</g>
		<g>
			<g>
				<g>
					<path style="fill:#EBEBEB;" d="M407.251,129.124h-92.439c-5.041,0-9.127-4.086-9.127-9.127V64.241
						c0-5.041,4.086-9.127,9.127-9.127h92.439c5.04,0,9.127,4.086,9.127,9.127v55.756
						C416.378,125.038,412.291,129.124,407.251,129.124z"/>
				</g>
			</g>
			<g>
				<g>
					<g>
						<g>
							<g>
								<rect x="357.929" y="77.173" style="fill:#F5F5F5;" width="6.638" height="29.749"/>
							</g>
						</g>
					</g>
					<g>
						<g>
							<g>
								
									<rect x="357.929" y="77.173" transform="matrix(6.123234e-17 -1 1 6.123234e-17 269.2007 453.2962)" style="fill:#F5F5F5;" width="6.638" height="29.749"/>
							</g>
						</g>
					</g>
				</g>
				<g>
					<g>
						<g>
							<g>
								<path style="fill:#F5F5F5;" d="M385.955,92.119c-0.009,0-0.025-0.136-0.047-0.401c-0.021-0.29-0.049-0.679-0.085-1.176
									c-0.017-0.261-0.036-0.549-0.056-0.866c-0.035-0.317-0.104-0.66-0.162-1.034c-0.121-0.747-0.236-1.612-0.524-2.553
									c-0.442-1.911-1.342-4.167-2.756-6.558c-1.426-2.381-3.481-4.867-6.275-6.975c-2.786-2.089-6.299-3.865-10.354-4.581
									c-4.027-0.69-8.573-0.564-12.901,1.081c-1.101,0.353-2.137,0.898-3.201,1.409c-1.008,0.61-2.071,1.172-3.009,1.935
									c-0.998,0.685-1.87,1.543-2.784,2.368c-0.825,0.914-1.693,1.808-2.404,2.845c-1.46,2.028-2.735,4.282-3.507,6.76
									c-0.8,2.463-1.23,5.079-1.266,7.741c0.035,2.663,0.465,5.28,1.264,7.744c0.771,2.479,2.047,4.734,3.507,6.763
									c0.712,1.037,1.579,1.932,2.405,2.846c0.914,0.826,1.786,1.683,2.784,2.368c0.939,0.764,2.001,1.326,3.01,1.936
									c1.065,0.511,2.1,1.056,3.202,1.409c4.329,1.646,8.875,1.772,12.902,1.081c4.055-0.717,7.569-2.493,10.354-4.582
									c2.794-2.109,4.849-4.595,6.275-6.976c1.414-2.391,2.314-4.647,2.756-6.558c0.288-0.941,0.403-1.807,0.524-2.553
									c0.057-0.373,0.127-0.717,0.161-1.034c0.021-0.316,0.039-0.604,0.056-0.865c0.036-0.496,0.064-0.886,0.085-1.176
									C385.93,92.255,385.946,92.119,385.955,92.119c0.009,0,0.011,0.136,0.006,0.402c-0.008,0.291-0.02,0.682-0.034,1.181
									c-0.01,0.263-0.02,0.553-0.031,0.871c-0.027,0.319-0.088,0.666-0.138,1.043c-0.105,0.754-0.205,1.628-0.48,2.581
									c-0.415,1.934-1.295,4.224-2.702,6.658c-1.419,2.423-3.48,4.961-6.302,7.12c-2.813,2.14-6.376,3.966-10.499,4.714
									c-4.095,0.722-8.726,0.61-13.147-1.054c-1.124-0.358-2.182-0.91-3.269-1.429c-1.031-0.619-2.115-1.191-3.075-1.968
									c-1.019-0.698-1.912-1.57-2.845-2.411c-0.845-0.931-1.73-1.843-2.459-2.901c-1.494-2.069-2.798-4.371-3.588-6.902
									c-0.819-2.516-1.258-5.189-1.293-7.908c0.036-2.718,0.476-5.39,1.295-7.906c0.791-2.531,2.094-4.832,3.588-6.9
									c0.728-1.057,1.614-1.97,2.459-2.9c0.933-0.841,1.826-1.713,2.845-2.411c0.96-0.776,2.044-1.349,3.074-1.967
									c1.087-0.52,2.145-1.071,3.269-1.429c4.42-1.664,9.05-1.777,13.145-1.055c4.124,0.748,7.686,2.574,10.499,4.713
									c2.822,2.159,4.883,4.697,6.302,7.12c1.408,2.434,2.287,4.724,2.703,6.658c0.275,0.953,0.375,1.827,0.48,2.581
									c0.05,0.377,0.111,0.723,0.138,1.043c0.011,0.318,0.022,0.609,0.031,0.872c0.014,0.499,0.025,0.89,0.034,1.182
									C385.966,91.983,385.964,92.119,385.955,92.119z"/>
							</g>
						</g>
					</g>
				</g>
			</g>
		</g>
		<g>
			<g>
				<g>
					<g>
						<path style="fill:#EBEBEB;" d="M449.505,60.561v-11.19h-7.879c0,0.438,0,11.19,0,11.19h-7.914v64.011h23.148V60.561H449.505z"
							/>
					</g>
				</g>
			</g>
			<g>
				<g>
					<g>
						<rect x="292.935" y="124.572" style="fill:#E0E0E0;" width="190.959" height="9.743"/>
					</g>
				</g>
			</g>
			<g>
				<g>
					<g>
						<rect x="330.258" y="134.315" style="fill:#E0E0E0;" width="5.559" height="23.033"/>
					</g>
				</g>
			</g>
			<g>
				<g>
					<g>
						<rect x="441.445" y="134.315" style="fill:#E0E0E0;" width="5.559" height="23.033"/>
					</g>
				</g>
			</g>
			<g>
				<g>
					<g>
						<path style="fill:#FAFAFA;" d="M406.437,77.78v-8.18h-5.76c0,0.32,0,8.18,0,8.18h-5.785v46.793h16.922V77.78H406.437z"/>
					</g>
				</g>
			</g>
			<g>
				<g>
					<g>
						<path style="fill:#F5F5F5;" d="M425.645,77.78v-8.18h-5.76c0,0.32,0,8.18,0,8.18H414.1v46.793h16.922V77.78H425.645z"/>
					</g>
				</g>
			</g>
			<g>
				<g>
					<g>
						<g>
							<rect x="299.858" y="94.172" style="fill:#E0E0E0;" width="30.4" height="30.401"/>
						</g>
					</g>
				</g>
				<g>
					<g>
						<g>
							<g>
								<path style="fill:#EBEBEB;" d="M330.109,101.983c0,0.196-6.711,0.355-14.988,0.355c-8.28,0-14.99-0.159-14.99-0.355
									c0-0.196,6.71-0.355,14.99-0.355C323.398,101.628,330.109,101.787,330.109,101.983z"/>
							</g>
						</g>
					</g>
				</g>
				<g>
					<g>
						<g>
							<g>
								<path style="fill:#EBEBEB;" d="M316.213,105.994c0.007-0.023,0.111-0.008,0.309,0.045c0.201,0.042,0.48,0.168,0.809,0.382
									c0.661,0.428,1.4,1.414,1.665,2.798c0.251,1.338,0.301,3.158-0.782,4.778c-0.525,0.784-1.344,1.487-2.364,1.79
									c-1.012,0.311-2.118,0.253-3.158-0.029c-2.077-0.529-3.877-2.132-4.225-4.065c-0.401-1.884,0.348-3.671,1.428-4.597
									c1.077-0.953,2.263-1.203,3.027-1.222c0.782-0.021,1.187,0.162,1.177,0.193c-0.009,0.063-0.427-0.021-1.155,0.082
									c-0.713,0.098-1.784,0.412-2.705,1.313c-0.919,0.866-1.515,2.451-1.134,4.09c0.329,1.648,1.88,3.028,3.773,3.521
									c0.939,0.255,1.917,0.303,2.77,0.048c0.854-0.244,1.55-0.817,2.027-1.497c0.972-1.371,1.003-3.055,0.825-4.314
									c-0.188-1.294-0.785-2.211-1.34-2.67C316.605,106.176,316.187,106.062,316.213,105.994z"/>
							</g>
						</g>
					</g>
				</g>
			</g>
		</g>
	</g>
	<g>
		<g>
			<g>
				<g>
					<g>
						<path style="fill:#EBEBEB;" d="M47.083,347.311c-6.368-3.286-13.867-3.713-20.936-2.544
							c-3.798,0.628-7.758,1.764-10.343,4.617c-2.584,2.853-3.074,7.874-0.107,10.325c1.767,1.459,4.23,1.681,6.521,1.654
							c5.534-0.064,11.675-1.039,16.097,2.291c2.522,1.9,4.202,5.058,7.218,5.992c2.951,0.914,6.28-0.827,7.845-3.49
							c1.565-2.663,1.617-5.992,0.887-8.993C54.266,357.164,53.498,350.621,47.083,347.311z"/>
					</g>
				</g>
			</g>
			<g>
				<g>
					<g>
						<path style="fill:#EBEBEB;" d="M61.672,319.147c-3.894,5.561-11.462,3.72-14.971,0.326c-3.509-3.395-4.992-8.315-6.342-13.007
							c-3.085-10.72-6.195-21.966-3.901-32.883c0.686-3.264,1.906-6.518,4.2-8.94c2.293-2.421,5.82-3.862,9.044-3.01
							c3.816,1.008,6.188,4.745,7.902,8.301c5.039,10.451,7.707,22.036,7.746,33.638C65.368,308.991,64.729,314.674,61.672,319.147"
							/>
					</g>
				</g>
			</g>
			<g>
				<g>
					<g>
						<path style="fill:#EBEBEB;" d="M72.366,327.127c-4.228-5.018-5.03-12.336-3.149-18.622c1.882-6.286,6.132-11.634,11.03-16
							c5.743-5.119,12.494-9.102,19.751-11.654c2.856-1.004,5.869-1.797,8.883-1.509c3.014,0.288,6.049,1.828,7.454,4.51
							c2.079,3.965,0.086,8.773-2.07,12.696c-3.798,6.911-8.14,13.523-12.973,19.755c-3.888,5.013-8.342,9.958-14.268,12.224
							c-5.926,2.265-12.081,1.999-15.223-2.111"/>
					</g>
				</g>
			</g>
			<g>
				<g>
					<g>
						<g>
							<path style="fill:#E0E0E0;" d="M61.936,403.042c-0.073,0.004-0.191-0.897-0.352-2.527c-0.179-1.839-0.404-4.149-0.671-6.897
								c-0.321-2.902-0.745-6.355-1.552-10.116c-0.804-3.751-2.061-7.817-3.677-11.94c-1.673-4.099-3.713-7.824-6.097-10.803
								c-2.367-2.993-5.12-5.159-7.708-6.408c-2.579-1.274-4.892-1.791-6.491-2.021c-1.613-0.165-2.515-0.293-2.516-0.364
								c-0.001-0.072,0.904-0.084,2.561-0.039c1.641,0.109,4.05,0.525,6.769,1.761c2.727,1.21,5.648,3.409,8.131,6.464
								c2.503,3.042,4.618,6.849,6.32,11.021c1.644,4.195,2.883,8.303,3.651,12.135c0.766,3.826,1.116,7.318,1.345,10.244
								c0.219,2.929,0.302,5.3,0.342,6.939C62.026,402.129,62.007,403.038,61.936,403.042z"/>
						</g>
					</g>
				</g>
			</g>
			<g>
				<g>
					<g>
						<g>
							<path style="fill:#E0E0E0;" d="M61.461,397.735c-0.036-0.002-0.058-0.406-0.068-1.173c0.002-0.881,0.005-1.991,0.009-3.353
								c0.008-2.91,0.007-7.122-0.149-12.322c-0.257-10.401-1.153-21.594-2.883-37.375c-1.638-14.839-3.836-32.108-6.156-43.336
								c-0.498-2.553-0.999-4.852-1.47-6.863c-0.45-2.017-0.834-3.756-1.204-5.162c-0.318-1.324-0.577-2.403-0.784-3.259
								c-0.168-0.749-0.24-1.147-0.205-1.157c0.035-0.01,0.174,0.369,0.408,1.099c0.256,0.844,0.578,1.907,0.973,3.213
								c0.432,1.394,0.874,3.121,1.38,5.13c0.527,2.004,1.079,4.296,1.624,6.846c2.296,10.174,4.726,24.393,6.472,40.212
								c1.733,15.814,2.514,30.213,2.583,40.64c0.062,5.213-0.049,9.433-0.182,12.345c-0.083,1.362-0.151,2.471-0.205,3.351
								C61.545,397.336,61.497,397.737,61.461,397.735z"/>
						</g>
					</g>
				</g>
			</g>
			<g>
				<g>
					<g>
						<g>
							<path style="fill:#E0E0E0;" d="M61.391,369.964c-0.072-0.002-0.06-1.247,0.025-3.503c0.129-2.251,0.438-5.505,1.072-9.49
								c0.672-3.976,1.611-8.697,3.087-13.827c0.639-2.345,2.142-7.964,5.782-16.361c4.796-11.377,11.312-20.679,16.98-26.44
								c1.329-1.529,2.81-2.632,3.995-3.713c0.613-0.518,1.155-1.035,1.706-1.444c0.555-0.383,1.071-0.738,1.55-1.068
								c1.866-1.276,2.91-1.949,2.949-1.888c0.168,0.227-4.178,2.785-9.666,8.624c-5.465,5.826-11.799,15.063-16.556,26.344
								c-2.653,6.119-4.503,11.577-5.815,16.211c-1.516,5.08-2.523,9.753-3.284,13.69c-0.723,3.945-1.142,7.166-1.395,9.397
								C61.612,368.728,61.463,369.966,61.391,369.964z"/>
						</g>
					</g>
				</g>
			</g>
		</g>
		<g>
			<g>
				<g>
					<polygon style="fill:#E0E0E0;" points="88.234,418.952 85.451,457.077 36.474,457.077 33.691,418.952 					"/>
				</g>
			</g>
		</g>
		<g>
			<g>
				<g>
					<rect x="27.847" y="403.925" style="fill:#E0E0E0;" width="65.117" height="15.027"/>
				</g>
			</g>
		</g>
		<g>
			<g>
				<g>
					<polygon style="fill:#EBEBEB;" points="92.964,455.618 92.964,459.783 89.905,459.783 28.923,459.783 28.923,455.618 					"/>
				</g>
			</g>
		</g>
		<g>
			<g>
				<g>
					<polygon style="fill:#E0E0E0;" points="86.906,467.114 89.905,459.783 31.256,459.783 34.755,467.114 					"/>
				</g>
			</g>
		</g>
		<g>
			<g>
				<g>
					<g>
						<path style="fill:#F5F5F5;" d="M34.6,431.412c-0.011,0.009,0.067,0.128,0.228,0.35c0.194,0.258,0.435,0.577,0.732,0.971
							c0.695,0.89,1.651,2.113,2.853,3.651l0.127,0.162l0.123-0.17c1.793-2.48,4.189-5.794,7.01-9.695H45.27
							c2.085,2.952,4.407,6.241,6.901,9.772l0.216,0.306l0.242-0.288c2.547-3.03,5.313-6.321,8.185-9.738l-0.472-0.006
							c0.142,0.179,0.296,0.372,0.45,0.566c2.538,3.182,4.995,6.262,7.318,9.175l0.244,0.306l0.225-0.319
							c2.484-3.516,4.806-6.8,6.905-9.769l-0.402,0.019c3.403,3.877,6.288,7.165,8.503,9.688l0.151,0.172l0.115-0.194
							c1.121-1.883,2.015-3.385,2.663-4.473c0.278-0.485,0.504-0.878,0.683-1.191c0.15-0.272,0.222-0.417,0.209-0.425
							c-0.013-0.008-0.11,0.121-0.285,0.378c-0.199,0.301-0.448,0.679-0.756,1.146c-0.68,1.069-1.618,2.543-2.795,4.392l0.266-0.021
							c-2.179-2.554-5.019-5.882-8.367-9.806l-0.211-0.248l-0.191,0.267c-2.118,2.956-4.46,6.226-6.966,9.725l0.469-0.013
							c-2.318-2.917-4.769-6.001-7.301-9.188c-0.154-0.194-0.308-0.387-0.45-0.566l-0.233-0.292l-0.239,0.286
							c-2.864,3.423-5.622,6.721-8.162,9.757l0.458,0.018c-2.518-3.513-4.864-6.785-6.97-9.723l-0.204-0.285l-0.199,0.285
							c-2.761,3.943-5.106,7.293-6.861,9.8l0.249-0.007c-1.25-1.499-2.244-2.691-2.968-3.558c-0.322-0.373-0.584-0.676-0.795-0.92
							C34.711,431.505,34.611,431.403,34.6,431.412z"/>
					</g>
				</g>
			</g>
		</g>
		<g>
			<g>
				<g>
					<g>
						<path style="fill:#F5F5F5;" d="M33.009,418.701c0,0.168,12.272,0.305,27.407,0.305c15.14,0,27.41-0.137,27.41-0.305
							c0-0.168-12.27-0.305-27.41-0.305C45.282,418.396,33.009,418.533,33.009,418.701z"/>
					</g>
				</g>
			</g>
		</g>
		<g>
			<g>
				<g>
					<g>
						<path style="fill:#F5F5F5;" d="M30.535,460.194c0,0.168,13.337,0.305,29.786,0.305c16.455,0,29.789-0.137,29.789-0.305
							c0-0.168-13.334-0.305-29.789-0.305C43.872,459.889,30.535,460.026,30.535,460.194z"/>
					</g>
				</g>
			</g>
		</g>
	</g>
	<g>
		<g>
			<g>
				<g>
					<rect x="368.764" y="170.077" style="fill:#E0E0E0;" width="92.354" height="96.271"/>
				</g>
			</g>
		</g>
		<g>
			<g>
				<g>
					<rect x="362.509" y="170.077" style="fill:#EBEBEB;" width="92.354" height="96.271"/>
				</g>
			</g>
		</g>
		<g>
			<g>
				<g>
					<rect x="374.924" y="183.018" style="fill:#FAFAFA;" width="67.524" height="70.388"/>
				</g>
			</g>
		</g>
		<g>
			<g>
				<g>
					<g>
						<path style="fill:#E0E0E0;" d="M374.924,253.874c0.045,0.054-0.603,0.781-1.687,1.913c-1.084,1.132-2.603,2.669-4.302,4.342
							c-1.699,1.674-3.257,3.169-4.403,4.233c-1.146,1.064-1.88,1.698-1.929,1.648c-0.049-0.05,0.596-0.774,1.68-1.906
							c1.084-1.132,2.607-2.672,4.31-4.35c1.703-1.677,3.264-3.175,4.41-4.239C374.148,254.452,374.879,253.821,374.924,253.874z"/>
					</g>
				</g>
			</g>
		</g>
		<g>
			<g>
				<g>
					<g>
						<path style="fill:#E0E0E0;" d="M442.449,253.702c0.053-0.045,0.781,0.603,1.913,1.687c1.132,1.084,2.668,2.603,4.342,4.302
							c1.674,1.699,3.169,3.257,4.233,4.403c1.064,1.146,1.698,1.88,1.648,1.929c-0.05,0.049-0.774-0.596-1.906-1.68
							c-1.132-1.084-2.672-2.607-4.35-4.31c-1.677-1.703-3.175-3.264-4.239-4.41C443.026,254.478,442.395,253.747,442.449,253.702z"
							/>
					</g>
				</g>
			</g>
		</g>
		<g>
			<g>
				<g>
					<g>
						<path style="fill:#E0E0E0;" d="M442.264,183.206c-0.045-0.054,0.603-0.781,1.687-1.913c1.084-1.132,2.603-2.669,4.302-4.342
							c1.699-1.674,3.257-3.169,4.403-4.233c1.146-1.064,1.88-1.698,1.929-1.648c0.049,0.05-0.596,0.774-1.68,1.906
							c-1.084,1.132-2.607,2.672-4.31,4.35c-1.703,1.677-3.264,3.175-4.41,4.239C443.04,182.629,442.309,183.26,442.264,183.206z"/>
					</g>
				</g>
			</g>
		</g>
		<g>
			<g>
				<g>
					<g>
						<path style="fill:#E0E0E0;" d="M374.74,183.379c-0.054,0.045-0.781-0.603-1.913-1.687c-1.132-1.084-2.668-2.603-4.342-4.302
							c-1.674-1.7-3.169-3.257-4.233-4.403c-1.064-1.146-1.698-1.88-1.649-1.929c0.05-0.049,0.774,0.596,1.906,1.68
							c1.132,1.084,2.672,2.607,4.35,4.31c1.677,1.703,3.175,3.264,4.239,4.41C374.162,182.603,374.793,183.334,374.74,183.379z"/>
					</g>
				</g>
			</g>
		</g>
		<g>
			<g>
				<g>
					<g>
						<path style="fill:#E0E0E0;" d="M442.264,253.407c0,0-0.009-0.119-0.013-0.34c-0.003-0.235-0.007-0.559-0.012-0.98
							c-0.006-0.876-0.015-2.145-0.026-3.796c-0.014-3.328-0.033-8.177-0.058-14.341c-0.027-12.325-0.066-29.894-0.112-50.931
							l0.221,0.221c-19.656,0.01-42.742,0.021-67.333,0.033h-0.007l0.253-0.254c-0.013,25.836-0.025,50.006-0.036,70.388
							l-0.218-0.218c20.188,0.046,36.994,0.085,48.771,0.111c5.889,0.024,10.517,0.044,13.691,0.057
							c1.574,0.011,2.784,0.02,3.62,0.025c0.401,0.005,0.71,0.009,0.934,0.012C442.151,253.398,442.264,253.407,442.264,253.407
							s-0.097,0.008-0.3,0.012c-0.219,0.003-0.52,0.007-0.911,0.012c-0.826,0.006-2.022,0.014-3.578,0.025
							c-3.163,0.013-7.775,0.032-13.642,0.057c-11.81,0.027-28.664,0.065-48.909,0.111l-0.218,0l0-0.218
							c-0.01-20.382-0.023-44.552-0.036-70.388l0-0.254h0.254h0.007c24.591,0.012,47.677,0.023,67.333,0.033l0.221,0l0,0.221
							c-0.046,21.096-0.085,38.713-0.112,51.073c-0.025,6.142-0.044,10.975-0.058,14.291c-0.011,1.632-0.02,2.888-0.026,3.753
							c-0.005,0.411-0.01,0.727-0.013,0.956C442.272,253.305,442.264,253.407,442.264,253.407z"/>
					</g>
				</g>
			</g>
		</g>
		<g>
			<g>
				<g>
					<g>
						<path style="fill:#EBEBEB;" d="M392.745,212.424c0,0-1.446,17.428,17.428,17.428
							C410.173,220.552,402.5,213.21,392.745,212.424z"/>
					</g>
				</g>
			</g>
			<g>
				<g>
					<g>
						<path style="fill:#EBEBEB;" d="M427.281,212.437c0,0-17.428-1.446-17.428,17.428
							C419.153,229.865,426.495,222.192,427.281,212.437z"/>
					</g>
				</g>
			</g>
			<g>
				<g>
					<g>
						<path style="fill:#E0E0E0;" d="M409.336,202.899c0,0-14.237,12.781,0.779,26.953
							C417.099,222.452,416.507,210.849,409.336,202.899z"/>
					</g>
				</g>
			</g>
		</g>
	</g>
</g>
<g id="Background_Simple" style="display:none;">
	<path style="display:inline;fill:#EBEBEB;" d="M203.652,106.504l-1.264-1.105c-10.655-9.316-25.513-12.26-38.589-7.188
		c-1.681,0.652-3.315,1.425-4.886,2.32c-11.309,6.441-18.957,18.96-19.609,32.095c-0.384,7.725,1.418,15.909-1.727,22.941
		c-4.093,9.152-14.812,12.795-24.391,15.505s-20.296,6.384-24.35,15.554c-2.539,5.743-1.775,12.524,0.449,18.434
		c5.888,15.645,21.485,26.36,37.827,28.963c16.343,2.604,33.146-2.024,47.594-10.025c20.239-11.209,37.007-29.693,43.508-52.095
		C224.716,149.5,219.863,123.323,203.652,106.504z"/>
	
		<ellipse transform="matrix(0.7071 -0.7071 0.7071 0.7071 17.7391 200.2232)" style="display:inline;fill:#EBEBEB;" cx="250.56" cy="78.699" rx="23.906" ry="23.906"/>
</g>
<g id="Table">
	<g>
		<g>
			<path style="fill:#263238;" d="M462.139,467.233c0,0.144-94.831,0.26-211.783,0.26c-116.993,0-211.803-0.117-211.803-0.26
				c0-0.144,94.81-0.26,211.803-0.26C367.309,466.973,462.139,467.09,462.139,467.233z"/>
		</g>
	</g>
</g>
<g id="Characters">
	<g>
		<g>
			<path style="fill:#455A64;" d="M210.767,297.147c0,0-20.146-3.155-21.828-3.092c-1.682,0.063-17.659,3.188-17.659,3.188
				s-22.61,4.012-24.888,5.639c-2.278,1.628-0.601,6.792-0.601,6.792c2.505,0.97,10.416-0.574,10.416-0.574
				s-0.035,2.116,1.387,4.986c1.421,2.87,5.299,2.146,5.299,2.146l-3.034,1.561c0,0,0.253,2.309,1.36,5.303
				c1.107,2.994,8.309,2.565,8.309,2.565s1.907,4.284,4.892,5.006c2.985,0.721,18.551-2.931,23.168-3.437
				c4.618-0.506,13.485-5.971,13.485-5.971s6.82,2.414,10.863,3.229l2.271-29.352C222.542,294.988,210.767,297.147,210.767,297.147z
				"/>
		</g>
		<g>
			<path style="fill:#FF725E;" d="M130.043,390.275c-8.592-2.16-15.098-9.678-18.05-18.031c-2.952-8.354-2.842-17.472-1.961-26.288
				c0.164-1.643,0.337-3.387-0.391-4.87c-1.156-2.355-4.313-3.171-6.819-2.395c-2.506,0.776-4.448,2.756-6.054,4.831
				c-8.811,11.382-10.178,28.022-3.344,40.69c6.834,12.668,21.491,20.663,35.842,19.55"/>
		</g>
		<g>
			<path style="fill:#FF725E;" d="M195.116,307.367c0,0,20.13,34.871,25.219,48.893c5.089,14.022,11.571,52.567,11.571,52.567
				s30.228,7.786,11.501,40.279c-6.923,12.011-6.302,17.587-14.062,17.941c-6.047,0.275-54.716-0.095-54.716-0.095l0.875,4.767
				c0,0-4.072,13.78-12.319,9.893s-17.953-14.66-17.953-14.66l-14.169-0.194l-33.773,0.194l-9.875-0.194
				c0.01-0.088,0.02-0.177,0.031-0.268c0.673-5.48,4.526-10.049,9.81-11.653l7.242-2.198c0,0-9.406-39.524-1.258-48.974
				c8.148-9.45,21.406-8.83,21.406-8.83l-6.089-40.661c-1.209-9.537-0.246-19.224,2.816-28.336l4.566-13.586L195.116,307.367z"/>
		</g>
		<g>
			<g>
				<path style="fill:#263238;" d="M125.175,396.216c13.952,7.929,23.377,21.224,28.062,36.407c0.047,0.153,0.289,0.088,0.241-0.066
					c-3.632-11.771-10.074-22.671-19.591-30.626c-2.675-2.236-5.555-4.209-8.585-5.931
					C125.161,395.921,125.035,396.137,125.175,396.216L125.175,396.216z"/>
			</g>
		</g>
		<g>
			<g>
				<path style="fill:#FF725E;" d="M125.466,313.664c0,0-6.563,17.542-7.114,26.314c-0.913,14.556,6.295,54.857,6.295,54.857
					s-2.468,39.517-4.612,45.372c-2.143,5.855-1.242,11.26-10.993,13.258c-2.636,0.54-7.223,9.065-7.223,13.293h27.27
					c0,0,7.378-8.337,7.735-16.143c0.357-7.806,13.323-50.173,13.323-50.173"/>
			</g>
			<g>
				<g>
					<path style="fill:#263238;" d="M150.147,400.442c0,0-0.02,0.109-0.078,0.319c-0.064,0.225-0.151,0.533-0.265,0.934
						c-0.244,0.839-0.598,2.053-1.057,3.629c-0.924,3.195-2.269,7.846-3.974,13.744c-1.67,5.921-3.713,13.098-5.755,21.38
						c-0.504,2.072-1.005,4.214-1.436,6.431c-0.101,0.555-0.202,1.114-0.304,1.677c-0.096,0.563-0.135,1.131-0.206,1.702
						c-0.059,0.584-0.118,1.172-0.178,1.764c-0.104,0.587-0.21,1.18-0.353,1.766c-1.25,4.681-3.924,9.086-7.28,13.123l-0.065,0.078
						l-0.108,0c-8.419,0.007-17.626,0.014-27.269,0.021l-0.263,0l0.011-0.252c0.113-2.674,1.16-5.152,2.336-7.541
						c0.61-1.19,1.293-2.357,2.105-3.454c0.417-0.541,0.849-1.077,1.363-1.554c0.473-0.486,1.165-0.911,1.864-1.056
						c2.6-0.575,5.306-1.544,7.029-3.667c1.737-2.117,2.171-4.99,2.985-7.695c0.141-0.508,0.316-1.008,0.486-1.508
						c0.157-0.498,0.275-0.986,0.416-1.478c0.2-1.012,0.419-2.021,0.557-3.046c0.32-2.04,0.568-4.082,0.802-6.111
						c0.466-4.058,0.834-8.072,1.18-12.019c0.684-7.895,1.238-15.53,1.715-22.809l0.003,0.057
						c-2.068-11.935-3.722-23.035-4.886-32.989c-0.581-4.976-1.041-9.667-1.26-14.036c-0.209-4.356-0.268-8.443,0.504-12.039
						c0.695-3.594,1.58-6.751,2.388-9.491c0.816-2.738,1.581-5.054,2.219-6.93c0.64-1.876,1.163-3.309,1.521-4.274
						c0.179-0.47,0.317-0.831,0.417-1.091c0.096-0.244,0.156-0.364,0.156-0.364s-0.034,0.13-0.118,0.378
						c-0.09,0.264-0.216,0.629-0.379,1.105c-0.334,0.993-0.819,2.432-1.447,4.297c-0.614,1.883-1.355,4.204-2.148,6.944
						c-0.785,2.741-1.647,5.9-2.318,9.48c-0.745,3.574-0.666,7.615-0.44,11.966c0.237,4.356,0.714,9.039,1.31,14.007
						c1.194,9.938,2.873,21.032,4.958,32.951l0.005,0.029l-0.002,0.029c-0.466,7.285-1.011,14.922-1.689,22.823
						c-0.343,3.95-0.709,7.967-1.174,12.033c-0.234,2.033-0.482,4.079-0.803,6.133c-0.138,1.029-0.36,2.053-0.564,3.084
						c-0.144,0.51-0.275,1.037-0.433,1.535c-0.166,0.49-0.337,0.978-0.477,1.48c-0.401,1.347-0.715,2.724-1.149,4.077
						c-0.431,1.348-1.018,2.687-1.933,3.799c-0.905,1.12-2.105,1.951-3.368,2.557c-1.264,0.628-2.619,0.968-3.955,1.286
						c-0.638,0.144-1.138,0.455-1.622,0.929c-0.479,0.443-0.898,0.961-1.301,1.484c-0.79,1.065-1.463,2.211-2.062,3.38
						c-1.16,2.333-2.184,4.816-2.287,7.308l-0.252-0.252c9.644,0.008,18.85,0.015,27.269,0.021l-0.173,0.078
						c3.316-3.967,5.984-8.349,7.214-12.921c0.141-0.572,0.246-1.15,0.349-1.722c0.06-0.581,0.12-1.158,0.179-1.732
						c0.074-0.583,0.117-1.171,0.216-1.739c0.105-0.566,0.209-1.129,0.312-1.688c0.441-2.228,0.95-4.372,1.462-6.445
						c2.076-8.286,4.154-15.453,5.862-21.365c1.722-5.908,3.128-10.547,4.099-13.71c0.488-1.567,0.864-2.774,1.124-3.609
						c0.128-0.396,0.227-0.701,0.299-0.923C150.102,400.545,150.147,400.442,150.147,400.442z"/>
				</g>
			</g>
		</g>
		<g>
			<g>
				<path style="fill:#263238;" d="M197.903,331.896c0,0,0.098,0.216,0.264,0.646c0.169,0.448,0.41,1.085,0.724,1.916
					c0.628,1.706,1.542,4.193,2.718,7.391c2.327,6.43,5.7,15.734,9.607,27.324c0.971,2.899,1.974,5.942,2.958,9.134
					c0.498,1.594,0.97,3.232,1.428,4.91c0.433,1.701,0.68,3.457,0.912,5.243c0.861,7.153,1.276,14.829,1.739,22.899
					c0.449,8.071,0.841,16.548,1.429,25.32c0.307,4.383,0.633,8.85,1.246,13.336c0.161,1.119,0.341,2.241,0.596,3.342
					c0.124,0.551,0.277,1.096,0.474,1.61c0.096,0.257,0.218,0.503,0.361,0.701c0.071,0.085,0.154,0.185,0.22,0.201
					c0.051,0.042,0.253,0.094,0.373,0.14c1.111,0.364,2.225,0.806,3.185,1.521c0.514,0.309,0.922,0.756,1.366,1.158
					c0.377,0.466,0.783,0.916,1.062,1.452c1.236,2.112,1.478,4.631,1.033,6.968l-0.038,0.199l-0.215,0
					c-10.536,0.015-20.745,0.029-30.489,0.042l-0.255,0l0.004-0.249c0.045-2.619,0.607-5.104,1.158-7.54
					c0.576-2.434,1.235-4.804,1.954-7.124l-0.008,0.109c-1.838-12.008-3.581-23.114-5.214-33.009
					c-0.827-4.945-1.594-9.597-2.459-13.874c-0.118-0.53-0.205-1.07-0.346-1.577l-0.199-0.763c-0.061-0.256-0.213-0.465-0.313-0.698
					c-0.472-0.901-1.098-1.73-1.707-2.518c-1.22-1.588-2.49-3.028-3.69-4.4c-4.87-5.431-8.935-9.545-11.694-12.378
					c-1.379-1.401-2.443-2.481-3.176-3.226c-0.351-0.359-0.621-0.634-0.815-0.833c-0.182-0.188-0.268-0.291-0.268-0.291
					s0.105,0.084,0.296,0.262c0.201,0.192,0.48,0.458,0.843,0.805c0.745,0.732,1.827,1.795,3.23,3.173
					c2.795,2.8,6.894,6.882,11.802,12.293c1.211,1.368,2.49,2.803,3.728,4.397c0.62,0.796,1.249,1.614,1.755,2.567
					c0.108,0.246,0.271,0.48,0.334,0.741l0.208,0.783c0.147,0.524,0.235,1.055,0.357,1.591c0.886,4.288,1.67,8.934,2.513,13.879
					c1.666,9.893,3.435,20.996,5.292,33.003l0.008,0.054l-0.017,0.055c-0.71,2.305-1.365,4.673-1.934,7.092
					c-0.544,2.415-1.097,4.906-1.135,7.424l-0.251-0.248c9.744-0.02,19.953-0.04,30.489-0.062l-0.252,0.199
					c0.416-2.182,0.183-4.623-0.977-6.583c-0.26-0.503-0.643-0.923-0.994-1.36c-0.419-0.375-0.798-0.797-1.285-1.087
					c-0.903-0.676-1.97-1.099-3.038-1.449c-0.148-0.057-0.232-0.067-0.434-0.164c-0.207-0.087-0.308-0.232-0.419-0.36
					c-0.195-0.268-0.324-0.545-0.43-0.824c-0.214-0.557-0.37-1.12-0.497-1.684c-0.261-1.128-0.442-2.259-0.604-3.387
					c-0.616-4.516-0.938-8.985-1.242-13.375c-0.582-8.781-0.963-17.258-1.399-25.328c-0.449-8.067-0.848-15.744-1.688-22.871
					c-0.226-1.777-0.469-3.528-0.888-5.192c-0.451-1.67-0.916-3.304-1.408-4.897c-0.972-3.189-1.963-6.234-2.923-9.135
					c-3.86-11.599-7.18-20.922-9.449-27.372c-1.136-3.212-2.02-5.71-2.626-7.423c-0.293-0.838-0.518-1.482-0.676-1.933
					C197.967,332.124,197.903,331.896,197.903,331.896z"/>
			</g>
		</g>
		<g>
			<g>
				<path style="fill:#263238;" d="M171.268,424.039c-0.012,0.014-0.203-0.133-0.556-0.426c-0.39-0.331-0.899-0.763-1.532-1.3
					c-1.301-1.16-3.136-2.901-5.266-5.181c-4.298-4.526-9.755-11.217-15.27-18.972c-5.475-7.786-9.98-15.155-12.8-20.724
					c-1.428-2.774-2.45-5.087-3.099-6.706c-0.287-0.779-0.518-1.405-0.695-1.885c-0.153-0.433-0.225-0.662-0.208-0.668
					c0.017-0.006,0.122,0.212,0.307,0.632c0.2,0.47,0.46,1.082,0.783,1.844c0.704,1.589,1.773,3.869,3.239,6.613
					c2.894,5.507,7.436,12.825,12.899,20.594c5.503,7.738,10.9,14.447,15.115,19.022c2.089,2.305,3.877,4.079,5.133,5.282
					c0.605,0.566,1.09,1.021,1.463,1.37C171.111,423.852,171.279,424.025,171.268,424.039z"/>
			</g>
		</g>
		<g>
			<g>
				<path style="fill:#FF725E;" d="M154.498,420.172c1.832,5.913,3.089,11.991,3.656,18.157c0.123,1.345,1.061,2.5,2.5,2.5
					c1.257,0,2.624-1.147,2.5-2.5c-0.607-6.613-1.868-13.142-3.834-19.487c-0.4-1.289-1.744-2.112-3.075-1.746
					C154.97,417.446,154.097,418.877,154.498,420.172L154.498,420.172z"/>
			</g>
		</g>
		<g>
			<g>
				<path style="fill:#FF725E;" d="M125.631,317.684c-0.848-21.39-2.388-46.368-0.066-54.505
					c2.322-8.136,18.707-24.221,28.111-27.951c9.404-3.73,24.992,1.246,29.702,5.408l29.625-7.163c0,0,5.807,13.467-1.356,24.272
					c-7.164,10.804-28.274,10.673-28.274,10.673s-1.895,11.755,7.133,12.787c9.028,1.032,21.049-0.386,22.208,9.436l-18.555,1.664
					l1.039,16.356l-35.294,18.757l-33.057-9.542"/>
			</g>
			<g>
				<g>
					<g>
						<g>
							<g>
								<g>
									<g>
										<g>
											<path style="fill:#263238;" d="M151.014,248.205c0.03-0.003,0.095,0.304,0.189,0.892
												c0.099,0.689,0.221,1.541,0.369,2.578c0.298,2.373,0.702,5.586,1.194,9.499c0.476,4.054,1.037,8.825,1.656,14.101
												c0.308,2.649,0.637,5.459,0.663,8.398c0.001,2.926-0.266,6.045-1.491,8.995c-1.224,2.934-3.53,5.375-6.323,6.555
												c-2.78,1.227-5.805,1.271-8.478,0.75c-2.685-0.573-5.076-1.797-6.904-3.417c-1.815-1.624-3.136-3.504-4.036-5.347
												c-1.828-3.703-2.167-7.087-2.237-9.34c-0.022-1.138,0.034-2.02,0.099-2.614c0.07-0.594,0.121-0.903,0.152-0.9
												c0.083,0.006-0.043,1.256,0.095,3.498c0.172,2.217,0.609,5.522,2.451,9.07c0.906,1.767,2.208,3.55,3.961,5.077
												c1.751,1.51,4.031,2.646,6.582,3.168c2.539,0.472,5.393,0.407,7.965-0.746c2.578-1.105,4.694-3.345,5.851-6.102
												c1.153-2.773,1.431-5.782,1.439-8.644c-0.013-2.879-0.319-5.654-0.606-8.312c-0.549-5.284-1.045-10.061-1.466-14.122
												c-0.376-3.926-0.684-7.15-0.912-9.53c-0.081-1.044-0.149-1.902-0.203-2.596
												C150.987,248.523,150.983,248.209,151.014,248.205z"/>
										</g>
									</g>
								</g>
							</g>
						</g>
					</g>
				</g>
			</g>
			<g>
				<g>
					<g>
						<g>
							<g>
								<g>
									<g>
										<path style="fill:#263238;" d="M204.17,235.734c-0.114,1.538,0.621,3.219,1.618,4.321c0.997,1.102,2.416,1.723,3.831,2.18
											c1.84,0.595,3.897,0.956,5.671,0.183c0-2.38-0.374-4.759-1.103-7.023c-0.225-0.698-0.547-1.456-1.22-1.748
											c-0.377-0.163-0.804-0.149-1.214-0.119C209.108,233.721,206.505,234.479,204.17,235.734"/>
									</g>
								</g>
							</g>
						</g>
					</g>
				</g>
			</g>
			<g style="opacity:0.3;">
				<g>
					<g>
						<g>
							<g>
								<g>
									<g>
										<g>
											<path d="M125.941,283.738c0.797,5.289,2.257,11.086,5.873,15.028c3.616,3.941,9.292,6.267,14.459,4.884
												c6.344-1.698,10.27-8.454,10.774-15.002c0.504-6.548-1.679-12.971-3.832-19.175c1.033,5.902,2.062,12.002,0.679,17.833
												c-1.383,5.831-5.832,11.371-11.781,12.087c-4.134,0.497-8.347-1.46-11.095-4.588
												C128.269,291.677,126.229,287.892,125.941,283.738"/>
										</g>
									</g>
								</g>
							</g>
						</g>
					</g>
				</g>
			</g>
			<g>
				<g>
					<g>
						<g>
							<g>
								<g>
									<g>
										<g>
											<path style="fill:#263238;" d="M215.389,244.762c0.055,0.004,0.082,0.556,0.008,1.549
												c-0.066,0.994-0.259,2.427-0.672,4.165c-0.41,1.737-1.082,3.773-2.135,5.905c-1.072,2.107-2.568,4.354-4.769,6.079
												c-2.177,1.724-4.582,2.825-6.795,3.643c-2.22,0.821-4.296,1.305-6.045,1.636c-1.752,0.321-3.185,0.475-4.178,0.528
												c-0.993,0.054-1.544,0.031-1.548-0.026c-0.012-0.147,2.173-0.327,5.598-1.118c1.707-0.405,3.732-0.944,5.884-1.788
												c2.145-0.839,4.466-1.937,6.53-3.573c2.068-1.618,3.516-3.738,4.594-5.758c1.057-2.042,1.777-4.007,2.255-5.69
												C215.08,246.943,215.232,244.746,215.389,244.762z"/>
										</g>
									</g>
								</g>
							</g>
						</g>
					</g>
				</g>
			</g>
			<g>
				<g>
					<g>
						<g>
							<g>
								<g>
									<g>
										<path style="fill:#263238;" d="M172.23,249.238c-1.743,0.707-2.157,3.443-0.702,4.634
											c1.455,1.191,4.055,0.245,4.404-1.603c0.349-1.848-1.727-3.677-3.516-3.099"/>
									</g>
								</g>
							</g>
						</g>
					</g>
				</g>
			</g>
			<g>
				<g>
					<g>
						<g>
							<g>
								<g>
									<g>
										<g>
											<path style="fill:#263238;" d="M162.041,252.411c-0.333,0.126-0.878-0.3-1.293-1.244
												c-0.416-0.932-0.629-2.389-0.299-3.926c0.332-1.536,1.125-2.777,1.888-3.456c0.767-0.69,1.439-0.854,1.691-0.602
												c0.51,0.558-0.513,2.326-0.966,4.62C162.531,250.08,162.736,252.112,162.041,252.411z"/>
										</g>
									</g>
								</g>
							</g>
						</g>
					</g>
				</g>
			</g>
		</g>
		<g>
			<g>
				<path style="fill:#263238;" d="M198.857,427.353c-0.001,0.058-1.026,0-2.869,0.09c-0.92,0.044-2.047,0.138-3.326,0.384
					c-1.279,0.241-2.708,0.687-4.134,1.489c-2.864,1.599-5.654,4.446-8.856,7.398c-3.156,2.986-6.091,6.893-10.256,9.89
					c-2.067,1.497-4.443,2.507-6.829,2.897c-2.386,0.389-4.699,0.338-6.863,0.514c-2.155,0.167-4.219,0.54-5.887,1.477
					c-1.68,0.905-2.994,2.18-3.916,3.52c-1.864,2.699-2.331,5.458-2.261,7.267c0.056,1.837,0.444,2.812,0.373,2.828
					c0,0-0.454-0.951-0.575-2.82c-0.133-1.84,0.281-4.677,2.16-7.484c0.93-1.393,2.271-2.731,4.013-3.691
					c1.738-0.997,3.87-1.393,6.054-1.575c2.192-0.19,4.497-0.152,6.817-0.539c2.312-0.387,4.591-1.357,6.613-2.82
					c4.071-2.923,7.021-6.81,10.224-9.81c3.231-2.939,6.043-5.767,9.013-7.375c1.474-0.801,2.951-1.234,4.256-1.451
					c1.307-0.222,2.446-0.287,3.373-0.3c0.928-0.015,1.648,0.01,2.135,0.044C198.602,427.312,198.857,427.335,198.857,427.353z"/>
			</g>
		</g>
		<g>
			<g>
				<path style="fill:#263238;" d="M161.617,457.821c-0.001-0.031,0.325-0.076,0.918-0.077c0.593-0.003,1.455,0.067,2.496,0.296
					c2.067,0.437,4.901,1.69,7.104,4.147c2.199,2.461,3.131,5.418,3.337,7.52c0.112,1.06,0.086,1.924,0.018,2.514
					c-0.067,0.59-0.146,0.908-0.177,0.904c-0.1-0.007,0.105-1.311-0.205-3.369c-0.293-2.037-1.25-4.859-3.36-7.221
					c-2.114-2.357-4.812-3.62-6.804-4.136C162.932,457.862,161.612,457.921,161.617,457.821z"/>
			</g>
		</g>
		<g>
			<g>
				<path style="fill:#263238;" d="M171.487,471.002c0.053,0.01-0.073,0.938-0.741,2.276c-0.654,1.328-1.947,3.043-3.91,4.252
					c-1.964,1.209-4.078,1.591-5.559,1.576c-1.496-0.006-2.381-0.311-2.366-0.363c0.014-0.088,0.912,0.083,2.354-0.005
					c1.431-0.079,3.43-0.503,5.297-1.652c1.866-1.15,3.144-2.743,3.86-3.985C171.15,471.854,171.402,470.975,171.487,471.002z"/>
			</g>
		</g>
		<g>
			<g>
				<path style="fill:#263238;" d="M162.857,464.545c0.016,0.084-0.8,0.24-2.013,0.751c-1.209,0.503-2.808,1.43-4.165,2.896
					c-1.358,1.466-2.161,3.131-2.57,4.375c-0.417,1.249-0.51,2.074-0.596,2.064c-0.058-0.002-0.096-0.85,0.243-2.17
					c0.33-1.31,1.115-3.085,2.541-4.623c1.424-1.538,3.134-2.457,4.415-2.885C162.002,464.514,162.851,464.488,162.857,464.545z"/>
			</g>
		</g>
		<g>
			<g>
				<path style="fill:#263238;" d="M219.806,467.693c-0.079-0.019,0.079-0.789,0.211-2.034c0.124-1.234,0.207-3-0.428-4.767
					c-0.642-1.754-1.986-2.965-3.087-3.459c-1.116-0.518-1.93-0.425-1.927-0.525c-0.021-0.04,0.819-0.281,2.07,0.185
					c1.228,0.443,2.735,1.711,3.434,3.62c0.68,1.901,0.522,3.751,0.303,4.996C220.152,466.97,219.867,467.709,219.806,467.693z"/>
			</g>
		</g>
		<g>
			<g>
				<path style="fill:#263238;" d="M121.068,456.226c-0.008,0.09-0.928-0.023-2.372,0.191c-1.433,0.204-3.41,0.83-5.14,2.214
					c-1.729,1.387-2.771,3.18-3.282,4.534c-0.524,1.363-0.614,2.285-0.704,2.273c-0.053,0.001-0.096-0.949,0.356-2.395
					c0.438-1.432,1.479-3.354,3.304-4.818c1.825-1.461,3.928-2.058,5.422-2.174C120.163,455.926,121.08,456.175,121.068,456.226z"/>
			</g>
		</g>
		<g>
			<g>
				<path style="fill:#263238;" d="M245.57,447.111c-0.045-0.036,0.476-0.631,1.237-1.826c0.764-1.189,1.73-3.014,2.484-5.426
					c0.733-2.412,1.233-5.417,1.102-8.753c-0.123-3.327-0.873-6.99-2.499-10.475c-1.635-3.482-4.072-6.351-6.827-8.223
					c-2.729-1.911-5.579-3.042-8.048-3.508c-2.479-0.459-4.555-0.263-5.91,0.115c-0.676,0.2-1.198,0.371-1.535,0.532
					c-0.345,0.142-0.532,0.209-0.54,0.193c-0.008-0.016,0.162-0.114,0.496-0.288c0.326-0.194,0.843-0.398,1.523-0.632
					c1.362-0.446,3.487-0.706,6.03-0.283c2.534,0.43,5.456,1.547,8.258,3.477c1.397,0.964,2.766,2.145,3.954,3.57
					c1.189,1.422,2.227,3.052,3.07,4.824c1.662,3.562,2.409,7.294,2.508,10.68c0.107,3.396-0.441,6.446-1.23,8.881
					c-0.811,2.437-1.842,4.26-2.666,5.427c-0.415,0.583-0.754,1.022-1.01,1.299C245.719,446.979,245.584,447.122,245.57,447.111z"/>
			</g>
		</g>
		<g>
			<g>
				<path style="fill:#263238;" d="M124.575,395.959c-0.014,0.154-2.562-0.867-6.767-0.379c-2.085,0.224-4.526,0.9-7.008,2.127
					c-2.461,1.248-4.966,3.099-6.941,5.609c-1.007,1.234-1.74,2.606-2.261,4.017c-0.507,1.415-0.813,2.842-1.035,4.211
					c-0.402,2.75-0.448,5.271-0.433,7.382c0.017,2.113,0.084,3.825,0.109,5.009c0.006,0.542,0.011,0.992,0.016,1.365
					c-0.003,0.312-0.012,0.476-0.03,0.477c-0.018,0.001-0.043-0.162-0.074-0.472c-0.031-0.371-0.068-0.82-0.113-1.359
					c-0.086-1.181-0.21-2.891-0.274-5.013c-0.062-2.119-0.055-4.66,0.327-7.459c0.212-1.395,0.514-2.855,1.03-4.314
					c0.526-1.451,1.295-2.897,2.334-4.168c2.028-2.577,4.606-4.463,7.135-5.714c2.55-1.231,5.054-1.882,7.183-2.064
					c2.13-0.193,3.871-0.028,5.032,0.235c0.59,0.09,1.025,0.263,1.326,0.343C124.427,395.885,124.581,395.942,124.575,395.959z"/>
			</g>
		</g>
		<g>
			<g>
				<path style="fill:#263238;" d="M83.328,374.315c-0.035,0.006-0.124-0.382-0.255-1.092c-0.14-0.708-0.27-1.746-0.364-3.034
					c-0.194-2.574-0.1-6.179,0.712-10.05c0.824-3.87,2.197-7.205,3.415-9.481c0.607-1.14,1.146-2.037,1.56-2.628
					c0.407-0.596,0.645-0.915,0.675-0.896c0.079,0.05-0.787,1.388-1.907,3.69c-1.123,2.297-2.421,5.604-3.234,9.422
					c-0.801,3.819-0.952,7.369-0.853,9.923C83.17,372.727,83.42,374.3,83.328,374.315z"/>
			</g>
		</g>
		<g>
			<g>
				<path style="fill:#263238;" d="M80.121,375.872c-0.035,0.007-0.138-0.38-0.295-1.088c-0.163-0.706-0.34-1.742-0.505-3.028
					c-0.333-2.571-0.509-6.174-0.132-10.124c0.387-3.95,1.25-7.453,2.07-9.913c0.408-1.231,0.78-2.213,1.076-2.875
					c0.289-0.665,0.464-1.025,0.498-1.011c0.082,0.033-0.5,1.523-1.221,3.995c-0.724,2.469-1.52,5.946-1.903,9.854
					c-0.373,3.908-0.258,7.472-0.021,10.034C79.922,374.281,80.208,375.856,80.121,375.872z"/>
			</g>
		</g>
		<g style="opacity:0.3;">
			<g>
				<path d="M145.349,415.525c4.149,4.545,7.152,10.129,8.657,16.096c0.334,1.325,0.588,2.768,0.051,4.025
					c-1.148,2.691-4.854,2.819-7.39,4.278c-2.123,1.221-3.438,3.441-4.659,5.564c-4.132,7.187-8.265,14.373-12.397,21.56
					c3.83-0.316,5.25,0.087,9.08-0.23l6.16,0.135c-0.228,0.098-1.198-2.931-1.279-4.352c-0.249-4.339,2.681-9.592,6.575-11.524
					c4.895-2.43,10.523-0.4,15.489-2.681c4.755-2.183,7.588-5.523,10.679-8.59c3.88-3.85,7.724-8.951,12.696-11.22
					c2.247-1.025,7.623-1.127,7.623-1.127c-2.558-3.003-7.238-2.85-11.047-1.823c-3.809,1.027-7.707,2.684-11.555,1.819
					c-3.233-0.726-5.797-3.109-8.192-5.399c-6.131-5.862-12.474-12.048-15.206-20.079c-1.706,4.406-3.411,8.812-5.117,13.217"/>
			</g>
		</g>
		<g style="opacity:0.3;">
			<g>
				<path d="M229.346,467.047c1.981-4.857-2.533-10.6-4.352-15.52c-1.844-4.987-1.445-10.473-1.433-15.79
					c0.024-11.181-1.794-22.364-5.36-32.962c-0.396,14.57,1.267,30.051,2.135,44.601c0.184,3.09-0.055,6.662,2.213,8.769
					c1.159,1.076,1.85,0.604,3.147,1.509C226.993,458.559,229.55,460.612,229.346,467.047"/>
			</g>
		</g>
		<g>
			<g>
				<path style="fill:#263238;" d="M170.46,323.432c-0.03,0.122-2.583-0.776-5.002-2.993c-2.438-2.197-3.575-4.653-3.456-4.694
					c0.139-0.087,1.444,2.184,3.807,4.309C168.148,322.202,170.533,323.286,170.46,323.432z"/>
			</g>
		</g>
		<g>
			<g>
				<path style="fill:#263238;" d="M174.214,321.379c-0.04,0.125-2.193-0.572-4.447-2.173c-2.264-1.588-3.641-3.383-3.537-3.463
					c0.115-0.106,1.632,1.492,3.837,3.037C172.261,320.34,174.275,321.234,174.214,321.379z"/>
			</g>
		</g>
		<g>
			<g>
				<path style="fill:#263238;" d="M179.151,321.203c-0.029,0.127-2.139-0.407-4.328-1.901c-2.2-1.48-3.478-3.241-3.371-3.315
					c0.118-0.105,1.533,1.454,3.663,2.884C177.231,320.318,179.204,321.055,179.151,321.203z"/>
			</g>
		</g>
		<g>
			<g>
				<path style="fill:#263238;" d="M145.138,364.147c-0.042,0.118-2.499-1.052-4.654-3.546c-2.177-2.476-3-5.07-2.878-5.095
					c0.149-0.069,1.162,2.359,3.27,4.753C142.959,362.674,145.227,364.009,145.138,364.147z"/>
			</g>
		</g>
		<g>
			<g>
				<path style="fill:#263238;" d="M148.827,364.201c-0.071,0.111-1.961-1.11-3.707-3.233c-1.759-2.113-2.604-4.198-2.482-4.246
					c0.139-0.071,1.171,1.859,2.883,3.914C147.219,362.702,148.923,364.077,148.827,364.201z"/>
			</g>
		</g>
		<g>
			<g>
				<path style="fill:#263238;" d="M155.264,365.453c-0.105,0.098-1.692-1.435-3.545-3.423c-1.853-1.989-3.269-3.68-3.164-3.778
					c0.105-0.098,1.692,1.434,3.545,3.423C153.953,363.664,155.369,365.355,155.264,365.453z"/>
			</g>
		</g>
		<g>
			<g>
				<path style="fill:#263238;" d="M135.418,282.229c-0.039,0.049-0.444-0.179-0.962-0.715c-0.517-0.532-1.114-1.401-1.488-2.483
					c-0.37-1.084-0.432-2.136-0.35-2.874c0.079-0.741,0.259-1.17,0.32-1.155c0.158,0.02-0.2,1.817,0.523,3.86
					C134.145,280.917,135.53,282.116,135.418,282.229z"/>
			</g>
		</g>
		<g>
			<g>
				<path style="fill:#263238;" d="M137.176,281.462c-0.107,0.082-0.999-1.018-1.505-2.663c-0.516-1.642-0.404-3.054-0.269-3.047
					c0.153-0.005,0.274,1.334,0.766,2.893C136.647,280.206,137.305,281.379,137.176,281.462z"/>
			</g>
		</g>
		<g>
			<g>
				<path style="fill:#263238;" d="M141.149,283.946c-0.107,0.082-1.336-1.421-2.31-3.592c-0.985-2.166-1.299-4.083-1.167-4.108
					c0.148-0.037,0.681,1.781,1.642,3.894C140.262,282.258,141.275,283.859,141.149,283.946z"/>
			</g>
		</g>
	</g>
	<g>
		<g>
			<path style="fill:#263238;" d="M258.917,99.353c-7.751,4.751-10.376,16.214-10.711,25.299s2.145,18.002,4.154,26.868
				c2.009,8.867,3.557,18.157,1.38,26.984c-2.016,8.176-7.119,16.793-3.451,24.372c2.77,5.723,9.862,8.693,11.819,14.743
				c2.284,7.062-3.489,13.959-8.793,19.151c2.406,3.932,8.098,5.406,12.109,3.134c-0.117,2.144-1.182,4.219-2.855,5.565
				c6.012,1.548,12.846-0.837,16.59-5.789c-0.734,2.521-1.469,5.042-2.203,7.563c6.021-1.394,11.437-5.237,14.741-10.459
				c0.85,1.591,1.699,3.182,2.549,4.773c9.757-6.697,16.534-17.235,19.858-28.592s3.368-23.497,1.458-35.176
				C310.166,144.793,288.542,114.851,258.917,99.353"/>
		</g>
		<g>
			<g>
				<path style="fill:#263238;" d="M372.342,182.634c-3.474-4.17-7.755-8.313-8.235-13.719c-0.212-2.389,0.364-4.837-0.178-7.173
					c-1.398-6.029-9.239-8.412-11.602-14.133c-2.966-7.179,3.784-16.682-1.215-22.628c-2.399-2.854-6.535-3.412-9.686-5.404
					c-8.021-5.069-6.058-19.05-25.244-29.137l1.429,30.615c6.46,25.891,11.591,52.113,15.365,78.529
					c14.439-0.711,28.878-1.422,43.317-2.133C378.785,192.63,375.817,186.804,372.342,182.634z"/>
			</g>
			<g>
				<g>
					<g>
						<g>
							<path style="fill:#263238;" d="M249.748,110.509c0.421-7.623,4.056-15.016,9.837-20.004
								c6.351-5.479,14.922-7.914,23.309-8.033c8.387-0.119,16.663,1.91,24.644,4.491c4.478,1.448,8.993,3.127,12.63,6.113
								c6.638,5.451,9.283,14.263,11.589,22.536c1.864,6.69,3.741,13.719,2.199,20.491c-1.414,6.215-5.819,11.677-11.592,14.377"/>
						</g>
					</g>
				</g>
				<g>
					<g>
						<g>
							<path style="fill:#263238;" d="M252.068,104.754c-4.508,7.646-6.332,16.839-5.083,25.627
								c1.249,8.787,5.562,17.109,12.023,23.195c0.223-19.291,2.131-38.563,5.694-57.524"/>
						</g>
					</g>
				</g>
				<g>
					<g>
						<g>
							<g>
								<g>
									<g>
										<path style="fill:#9D6054;" d="M250.314,131.306c-1.998-13.531,3.364-31.795,16.968-33.217l32.451,1.235
											c10.411,0.396,18.779,7.315,21.682,17.321c0.145,0.499,0.063-0.129,0.137,0.253l15.103,81.066
											c2.449,13.294-6.281,26.075-19.556,28.628l0,0c-13.128,2.525-25.871-5.893-28.704-18.958
											c-1.408-6.495-3.059-14.151-3.054-14.117c0,0-17.661,0.795-25.929-20.71C255.302,162.112,252.535,146.339,250.314,131.306
											z"/>
									</g>
								</g>
							</g>
						</g>
					</g>
				</g>
				<g>
					<g>
						<g>
							<g>
								<path style="fill:#724A44;" d="M279.391,117.775c0.066,0.128-2.61,1.57-6.166,2.714c-3.554,1.157-6.566,1.556-6.588,1.413
									c-0.031-0.162,2.904-0.802,6.416-1.946C276.567,118.826,279.32,117.626,279.391,117.775z"/>
							</g>
						</g>
					</g>
				</g>
				<g>
					<g>
						<g>
							<g>
								<path style="fill:#724A44;" d="M274.25,118.049c0.061,0.135-1.614,0.998-3.847,1.602c-2.232,0.611-4.113,0.715-4.129,0.568
									c-0.021-0.16,1.794-0.508,3.982-1.108C272.446,118.52,274.188,117.901,274.25,118.049z"/>
							</g>
						</g>
					</g>
				</g>
				<g>
					<g>
						<g>
							<g>
								<path style="fill:#724A44;" d="M292.981,160.103c-0.146,0.051-0.532-0.817-1.553-1.196c-1.005-0.421-1.88-0.051-1.952-0.187
									c-0.036-0.058,0.141-0.262,0.541-0.403c0.395-0.143,1.012-0.169,1.616,0.069c0.603,0.239,1.037,0.679,1.227,1.053
									C293.057,159.816,293.047,160.085,292.981,160.103z"/>
							</g>
						</g>
					</g>
				</g>
				<g>
					<g>
						<g>
							<g>
								<g>
									<g>
										<g>
											<g>
												<g>
													<g>
														<g>
															<g>
																<g>
																	<g>
																		<path style="fill:#263238;" d="M258.964,147.677c0.267,1.519,1.774,2.545,3.365,2.295
																			c1.588-0.25,2.662-1.68,2.395-3.199c-0.268-1.519-1.774-2.546-3.362-2.296
																			C259.771,144.725,258.697,146.158,258.964,147.677z"/>
																	</g>
																</g>
															</g>
														</g>
													</g>
												</g>
											</g>
										</g>
									</g>
								</g>
							</g>
						</g>
					</g>
				</g>
				<g>
					<g>
						<g>
							<g>
								<g>
									<g>
										<g>
											<g>
												<g>
													<g>
														<g>
															<g>
																<g>
																	<g>
																		<g>
																			<path style="fill:#263238;" d="M256.259,139.91c0.433,0.297,2.255-1.763,5.328-2.409
																				c3.061-0.688,5.651,0.413,5.904-0.034c0.128-0.201-0.376-0.796-1.509-1.302
																				c-1.117-0.506-2.913-0.848-4.824-0.433c-1.911,0.417-3.371,1.464-4.142,2.382
																				C256.226,139.039,256.049,139.78,256.259,139.91z"/>
																		</g>
																	</g>
																</g>
															</g>
														</g>
													</g>
												</g>
											</g>
										</g>
									</g>
								</g>
							</g>
						</g>
					</g>
				</g>
				<g>
					<g>
						<g>
							<g>
								<g>
									<g>
										<g>
											<g>
												<g>
													<g>
														<g>
															<g>
																<g>
																	<g>
																		<path style="fill:#263238;" d="M286.592,141.653c0.267,1.519,1.774,2.544,3.365,2.294
																			c1.587-0.25,2.662-1.68,2.395-3.199c-0.267-1.518-1.774-2.546-3.362-2.297
																			C287.398,138.702,286.325,140.135,286.592,141.653z"/>
																	</g>
																</g>
															</g>
														</g>
													</g>
												</g>
											</g>
										</g>
									</g>
								</g>
							</g>
						</g>
					</g>
				</g>
				<g>
					<g>
						<g>
							<g>
								<g>
									<g>
										<g>
											<g>
												<g>
													<g>
														<g>
															<g>
																<g>
																	<g>
																		<g>
																			<path style="fill:#263238;" d="M286.572,134.062c0.434,0.297,2.259-1.764,5.33-2.409
																				c3.06-0.689,5.651,0.412,5.904-0.035c0.128-0.201-0.372-0.797-1.509-1.302c-1.118-0.507-2.913-0.848-4.824-0.434
																				c-1.911,0.418-3.37,1.465-4.143,2.382C286.543,133.19,286.364,133.932,286.572,134.062z"/>
																		</g>
																	</g>
																</g>
															</g>
														</g>
													</g>
												</g>
											</g>
										</g>
									</g>
								</g>
							</g>
						</g>
					</g>
				</g>
				<g>
					<g>
						<g>
							<g>
								<g>
									<g>
										<g>
											<g>
												<g>
													<g>
														<g>
															<g>
																<g>
																	<g>
																		<g>
																			<path style="fill:#263238;" d="M280.27,159.211c-0.023-0.177-2.002-0.101-5.181,0.161
																				c-0.801,0.086-1.577,0.088-1.823-0.419c-0.306-0.528-0.157-1.442,0.029-2.436
																				c0.334-2.055,0.682-4.208,1.049-6.466c1.412-9.188,2.257-16.676,1.887-16.73
																				c-0.37-0.054-1.817,7.35-3.229,16.539c-0.329,2.261-0.646,4.418-0.944,6.48
																				c-0.107,0.954-0.403,2.074,0.248,3.165c0.336,0.541,1.002,0.844,1.534,0.873
																				c0.535,0.046,0.978-0.039,1.371-0.099C278.361,159.785,280.296,159.389,280.27,159.211z"/>
																		</g>
																	</g>
																</g>
															</g>
														</g>
													</g>
												</g>
											</g>
										</g>
									</g>
								</g>
							</g>
						</g>
					</g>
				</g>
				<g>
					<g>
						<g>
							<path style="fill:#724A44;" d="M313.147,179.257c0,0-3.955,16.837-26.673,19.491l-1.132-5.232
								C285.342,193.516,300.209,191.328,313.147,179.257z"/>
						</g>
					</g>
				</g>
				<g>
					<g>
						<g>
							<g>
								<g>
									<g>
										<g>
											<g>
												<g>
													<g>
														<g>
															<g>
																<g>
																	<g>
																		<path style="fill:#724A44;" d="M283.143,166.338c0.794-1.695,2.559-2.909,4.525-3.111
																			c1.363-0.14,2.847,0.216,3.887,1.13c1.04,0.913,1.538,2.418,1.022,3.609c-0.581,1.342-2.256,1.98-3.81,1.875
																			c-1.555-0.105-3.021-0.801-4.424-1.508c-0.388-0.195-0.786-0.401-1.07-0.722c-0.285-0.32-0.43-0.788-0.239-1.144"
																			/>
																	</g>
																</g>
															</g>
														</g>
													</g>
												</g>
											</g>
										</g>
									</g>
								</g>
							</g>
						</g>
					</g>
				</g>
				<g>
					<g>
						<g>
							<g>
								<g>
									<g>
										<g>
											<g>
												<g>
													<g>
														<g>
															<g>
																<g>
																	<g>
																		<g>
																			<path style="fill:#263238;" d="M289.761,159.413c-0.506,0.077,0.197,3.413-2.154,6.386
																				c-2.343,2.98-5.977,3.362-5.904,3.833c-0.002,0.219,0.929,0.48,2.437,0.201c1.482-0.262,3.531-1.192,4.969-3.011
																				c1.432-1.821,1.77-3.917,1.592-5.309C290.533,160.093,289.985,159.346,289.761,159.413z"/>
																		</g>
																	</g>
																</g>
															</g>
														</g>
													</g>
												</g>
											</g>
										</g>
									</g>
								</g>
							</g>
						</g>
					</g>
				</g>
				<g>
					<g>
						<g>
							<g>
								<g>
									<g>
										<g>
											<g>
												<g>
													<g>
														<g>
															<path style="fill:#263238;" d="M283.9,125.231c0.48,0.77,3.463-0.277,7.159-0.61c3.69-0.406,6.82,0.031,7.139-0.82
																c0.137-0.403-0.536-1.082-1.883-1.64c-1.336-0.56-3.358-0.931-5.573-0.713c-2.214,0.224-4.121,0.988-5.32,1.801
																C284.211,124.065,283.685,124.862,283.9,125.231z"/>
														</g>
													</g>
												</g>
											</g>
										</g>
									</g>
								</g>
							</g>
						</g>
					</g>
				</g>
				<g>
					<g>
						<g>
							<g>
								<g>
									<g>
										<g>
											<g>
												<g>
													<g>
														<g>
															<path style="fill:#263238;" d="M255.498,130.78c0.689,0.582,2.651-0.592,5.188-1.167
																c2.517-0.664,4.799-0.531,5.14-1.366c0.142-0.401-0.346-1.027-1.428-1.487c-1.068-0.461-2.734-0.669-4.471-0.244
																c-1.736,0.428-3.117,1.382-3.849,2.285C255.329,129.709,255.187,130.49,255.498,130.78z"/>
														</g>
													</g>
												</g>
											</g>
										</g>
									</g>
								</g>
							</g>
						</g>
					</g>
				</g>
				<g>
					<g>
						<g>
							<path style="fill:#263238;" d="M251.99,109.689c0.641-3.64,3.882-6.44,7.452-7.398c3.569-0.959,7.388-0.35,10.905,0.785
								c14.895,4.81,25.614,18.419,40.409,23.528c3.639,1.257,7.513,1.994,10.807,3.987c3.294,1.993,5.957,5.736,5.183,9.507
								c1.24-2.791,2.495-5.631,2.89-8.659c0.395-3.028-0.183-6.327-2.231-8.592c-1.555-1.719-3.877-2.787-4.899-4.867
								c-0.899-1.83-0.571-4.017-1.082-5.991c-0.521-2.01-1.88-3.685-3.258-5.237c-7.077-7.967-15.895-14.653-26.076-17.801
								c-6.651-2.057-13.857-2.546-20.61-0.852c-6.753,1.694-13.009,5.655-16.99,11.367
								C252.145,102.825,249.675,106.311,251.99,109.689"/>
						</g>
					</g>
				</g>
				<g>
					<g>
						<g>
							<g>
								<path style="fill:#263238;" d="M335.215,143.474c-0.586-0.151-0.641-1.676-1.083-4.078c-0.234-1.176-0.58-2.613-1.308-3.802
									c-0.18-0.294-0.38-0.569-0.6-0.812c-0.098-0.135-0.236-0.223-0.344-0.341c-0.104-0.105-0.318-0.294-0.478-0.438
									c-0.701-0.611-1.481-1.236-2.295-1.74c-0.792-0.511-1.699-0.908-2.206-0.937c-0.259-0.029-0.304,0.059-0.184,0.073
									c-0.247,0.105-0.497,0.212-0.748,0.32c-0.263,0.124-0.529,0.249-0.797,0.375c-1.04,0.517-1.974,1.113-2.905,1.875
									c-0.465,0.38-0.928,0.799-1.393,1.253l-0.349,0.348l-0.603,0.556c-0.411,0.351-0.835,0.676-1.27,0.975
									c-1.751,1.17-3.669,2.036-6.032,2.402c-1.181,0.168-2.502,0.198-3.948-0.139l-0.536-0.137l-0.432-0.146
									c-0.285-0.104-0.582-0.191-0.856-0.318c-0.56-0.237-1.104-0.503-1.617-0.807c-2.075-1.212-3.641-2.817-4.93-4.377
									c-1.28-1.569-2.326-3.148-3.311-4.579c-3.769-5.54-8.318-10.073-12.932-13.637c-4.613-3.572-9.284-6.13-13.378-7.941
									c-4.108-1.884-7.439-2.807-9.847-3.147c-2.396-0.351-3.889-0.257-4.102-0.834c-0.206-0.49,1.013-1.723,3.904-2.428
									c2.86-0.718,7.225-0.528,11.991,0.799c4.812,1.255,10.402,3.551,15.933,7.257c5.518,3.679,11.011,8.793,15.349,15.172
									c1.05,1.534,1.969,2.923,2.887,4.084c0.914,1.152,1.814,2.043,2.662,2.574c0.211,0.14,0.423,0.25,0.633,0.353
									c0.103,0.061,0.213,0.084,0.318,0.133l0.157,0.068l0.069,0.019c0.172,0.064,0.529,0.114,0.964,0.077
									c0.878-0.064,1.988-0.443,2.859-0.949c0.217-0.127,0.42-0.259,0.608-0.391l0.263-0.202l0.495-0.423
									c0.668-0.557,1.364-1.089,2.092-1.581c1.45-0.987,3.046-1.784,4.565-2.332c0.38-0.139,0.754-0.264,1.121-0.379l0.545-0.164
									l0.622-0.171c1.404-0.387,2.725-0.22,3.703,0.08c1.993,0.63,3.207,1.611,4.274,2.53c1.055,0.935,1.881,1.894,2.615,2.846
									c0.189,0.256,0.339,0.446,0.543,0.755c0.19,0.302,0.405,0.589,0.547,0.894c0.321,0.599,0.553,1.195,0.726,1.768
									c0.668,2.308,0.475,4.179,0.223,5.62C336.812,142.34,335.736,143.625,335.215,143.474z"/>
							</g>
						</g>
					</g>
				</g>
				<g>
					<g>
						<g>
							<g>
								<g>
									<g>
										<g>
											<g>
												<g>
													<g>
														<g>
															<g>
																<g>
																	<g>
																		<g>
																			<g>
																				<g>
																					<path style="fill:#9D6054;" d="M322.754,133.983c0.097-0.689,10.802-7.371,13.607,4.93
																						c2.725,11.951-9.873,12.191-9.971,11.853C326.293,150.428,322.754,133.983,322.754,133.983z"/>
																				</g>
																			</g>
																		</g>
																	</g>
																</g>
															</g>
														</g>
													</g>
												</g>
											</g>
										</g>
									</g>
								</g>
							</g>
						</g>
					</g>
					<g>
						<g>
							<g>
								<g>
									<g>
										<g>
											<g>
												<g>
													<g>
														<g>
															<g>
																<g>
																	<g>
																		<g>
																			<g>
																				<g>
																					<g>
																						<path style="fill:#724A44;" d="M329.061,145.406c0.044-0.05,0.241,0.099,0.63,0.181
																							c0.378,0.08,0.993,0.056,1.565-0.318c1.159-0.748,1.772-2.993,1.345-5.161
																							c-0.214-1.095-0.675-2.08-1.254-2.851c-0.562-0.793-1.265-1.277-1.926-1.247
																							c-0.666-0.004-1.031,0.478-1.101,0.847c-0.085,0.37,0.044,0.592-0.014,0.627
																							c-0.027,0.038-0.302-0.143-0.316-0.658c-0.004-0.249,0.073-0.562,0.302-0.855
																							c0.234-0.298,0.63-0.512,1.083-0.563c0.936-0.144,1.957,0.518,2.593,1.365
																							c0.687,0.839,1.231,1.941,1.471,3.171c0.465,2.427-0.262,4.959-1.878,5.847
																							c-0.792,0.409-1.551,0.313-1.977,0.112C329.148,145.69,329.025,145.437,329.061,145.406z"/>
																					</g>
																				</g>
																			</g>
																		</g>
																	</g>
																</g>
															</g>
														</g>
													</g>
												</g>
											</g>
										</g>
									</g>
								</g>
							</g>
						</g>
					</g>
				</g>
			</g>
		</g>
		<g>
			<g>
				<g>
					<path style="fill:#E0E0E0;" d="M282.507,220.923c0,0-7.293,2.598-10.601,10.977c-3.308,8.38-17.691,59.386-17.691,59.386
						l-30.009,3.848l-2.271,27.724c0,0,11.477,3.237,26.466,4.558c11.059,0.975,28.934-0.652,33.595-3.259
						c4.661-2.607-0.458-102.067-0.458-102.067L282.507,220.923z"/>
				</g>
			</g>
			<g>
				<path style="fill:#455A64;" d="M288.589,213.348c9.504,10.793,34.459-11.093,45.57-28.481l-35.74,167.854l-6.099-1.49
					L288.589,213.348z"/>
			</g>
			<g>
				<path style="fill:#E0E0E0;" d="M287.845,205.977l-2.298,10.899l-8.51,7.76c-0.111,14.245,7.59,42.68,5.675,48.388
					c-2.731,8.143-3.818,16.591-0.555,28.467c1.671,6.082,11.778,49.741,11.778,49.741s-2.916,114.252-2.611,115.721h23.238
					L291.87,315.007l-0.92-95.214L287.845,205.977z"/>
			</g>
			<g>
				<path style="fill:#E0E0E0;" d="M436.938,394.558c-7.198-17.994-33.828-64.058-33.828-64.058s-2.159-16.194-3.959-51.822
					c-1.799-35.628-17.274-75.574-20.513-81.692c-3.239-6.118-39.241-12.12-39.241-12.12l-6.293-9.165
					c0,0-13.426,35.262-14.146,36.341c-0.72,1.08-15.09,43.36-16.53,55.236c-1.44,11.876-5.482,75.817-5.482,75.817l17.615,123.856
					h130.919C445.481,466.952,444.136,412.552,436.938,394.558z"/>
			</g>
			<g>
				<g>
					<path style="fill:#263238;" d="M315.67,390.078c1.873-0.211,26.193-2.956,65.125-7.35l0.226-0.025l0.021,0.227
						c1.852,19.931,4.049,43.587,6.399,68.878c0.257,2.788,0.513,5.556,0.766,8.3l0.026,0.277l-0.278,0.006
						c-18.863,0.433-36.643,0.841-52.356,1.201l-0.182,0.004l-0.048-0.175c-5.797-21.24-10.667-39.087-14.094-51.641
						c-1.742-6.249-3.116-11.177-4.06-14.563c-0.485-1.667-0.858-2.951-1.116-3.837c-0.132-0.421-0.233-0.744-0.306-0.979
						C315.709,390.181,315.662,390.075,315.67,390.078c0,0,0.067,0.106,0.157,0.311c0.079,0.216,0.204,0.538,0.342,0.969
						c0.289,0.859,0.681,2.143,1.185,3.818c1.001,3.352,2.419,8.275,4.186,14.529c3.533,12.51,8.47,30.344,14.276,51.594
						l-0.229-0.171c15.712-0.377,33.493-0.804,52.355-1.257l-0.253,0.284c-0.254-2.744-0.509-5.512-0.767-8.3
						c-2.322-25.294-4.495-48.952-6.325-68.885l0.246,0.201C341.882,387.3,317.542,389.879,315.67,390.078z"/>
				</g>
			</g>
			<g>
				<g>
					<path style="fill:#263238;" d="M382.324,399.246c0.01,0.144-13.97,1.282-31.221,2.544c-17.258,1.262-31.252,2.168-31.262,2.024
						c-0.01-0.143,13.967-1.282,31.224-2.544C368.317,400.009,382.314,399.103,382.324,399.246z"/>
				</g>
			</g>
			<g>
				<g>
					<path style="fill:#263238;" d="M402.631,330.307c0.017,0.032-0.259,0.208-0.774,0.499c-0.511,0.298-1.276,0.683-2.237,1.125
						c-1.923,0.878-4.694,1.891-7.878,2.496c-3.186,0.599-6.124,0.706-8.234,0.685c-1.057-0.015-1.91-0.05-2.499-0.1
						c-0.589-0.046-0.913-0.088-0.912-0.124c0.003-0.08,1.307-0.079,3.407-0.144c2.098-0.073,5-0.238,8.141-0.829
						c3.139-0.597,5.886-1.54,7.831-2.323C401.421,330.805,402.592,330.231,402.631,330.307z"/>
				</g>
			</g>
			<g>
				<g>
					<path style="fill:#263238;" d="M403.11,330.501c0.048,0.05-0.788,0.942-2.221,2.3c-1.43,1.36-3.462,3.176-5.735,5.144
						c-2.217,1.91-4.221,3.637-5.83,5.025c-1.492,1.285-2.416,2.081-2.467,2.026c-0.048-0.05,0.788-0.942,2.22-2.299
						c1.43-1.36,3.463-3.176,5.736-5.145c2.216-1.91,4.22-3.637,5.83-5.024C402.135,331.242,403.058,330.447,403.11,330.501z"/>
				</g>
			</g>
			<g>
				<g>
					<path style="fill:#FF725E;" d="M358.615,427.341c-2.509-0.912-5.249-1.273-7.563,0.058c-1.866,1.073-2.766,3.413-2.526,5.552
						c0.24,2.139,1.457,4.069,2.981,5.589c1.038,1.036,2.325,1.955,3.789,2.033c1.638,0.087,3.142-0.89,4.355-1.993
						c1.234-1.123,2.329-2.456,2.878-4.031c0.549-1.575,0.487-3.422-0.445-4.806c-1.084-1.608-3.066-2.304-4.91-2.9"/>
				</g>
				<g>
					<path style="fill:#FF725E;" d="M350.073,425.968c0.187-1.059,0.12-2.184-0.333-3.16c-0.452-0.976-1.318-1.784-2.364-2.033
						c-1.046-0.25-2.25,0.128-2.865,1.01c-0.443,0.636-0.553,1.458-0.454,2.226c0.175,1.364,1.051,2.672,2.34,3.151
						C347.685,427.643,349.465,427.201,350.073,425.968"/>
				</g>
				<g>
					<path style="fill:#FF725E;" d="M361.25,426.525c1.075-0.03,2.163-0.322,3.028-0.962c0.865-0.64,1.482-1.65,1.515-2.725
						c0.034-1.075-0.578-2.178-1.567-2.602c-0.712-0.306-1.539-0.248-2.272,0.003c-1.301,0.446-2.405,1.567-2.616,2.926
						C359.128,424.523,359.92,426.177,361.25,426.525"/>
				</g>
				<g>
					<path style="fill:#FF725E;" d="M366.707,430.032c0.742-0.021,1.493-0.223,2.09-0.664c0.597-0.442,1.023-1.139,1.046-1.881
						c0.023-0.742-0.399-1.503-1.081-1.796c-0.491-0.211-1.062-0.171-1.568,0.002c-0.898,0.308-1.66,1.082-1.805,2.02
						C365.243,428.65,365.789,429.792,366.707,430.032"/>
				</g>
				<g>
					<path style="fill:#FF725E;" d="M355.121,424.687c1.165-0.502,2.23-1.298,2.898-2.377c0.669-1.079,0.903-2.455,0.471-3.648
						c-0.433-1.193-1.585-2.134-2.853-2.168c-0.914-0.024-1.795,0.4-2.489,0.996c-1.23,1.057-1.951,2.768-1.589,4.349
						C351.921,423.42,353.511,424.887,355.121,424.687"/>
				</g>
			</g>
			<g>
				<g>
					<path style="fill:#263238;" d="M302.429,299.963c-0.008-0.003,0.016-0.103,0.07-0.297c0.065-0.219,0.149-0.501,0.254-0.855
						c0.245-0.782,0.589-1.878,1.027-3.276c0.924-2.874,2.245-6.978,3.875-12.047c3.333-10.201,7.932-24.277,13.047-39.932
						l-0.01,0.045c0.099-0.7,0.205-1.455,0.311-2.213c0.957-6.768,1.878-13.277,2.735-19.333l0.011-0.074l0.05-0.055
						c4.37-4.89,8.392-9.389,11.92-13.336l-0.05,0.107c1.11-7.258,2.02-13.209,2.658-17.383c0.326-2.041,0.582-3.646,0.762-4.778
						c0.09-0.523,0.161-0.935,0.214-1.247c0.052-0.281,0.083-0.424,0.094-0.423c0.01,0.002-0.001,0.148-0.032,0.432
						c-0.039,0.314-0.09,0.729-0.155,1.255c-0.154,1.135-0.373,2.746-0.652,4.794c-0.596,4.181-1.445,10.141-2.481,17.409
						l-0.009,0.06l-0.041,0.047c-3.51,3.964-7.511,8.481-11.859,13.39l0.06-0.13c-0.848,6.057-1.76,12.568-2.708,19.337
						c-0.107,0.758-0.213,1.513-0.312,2.213l-0.003,0.023l-0.007,0.022c-5.174,15.635-9.826,29.693-13.198,39.882
						c-1.696,5.047-3.069,9.134-4.03,11.995c-0.477,1.385-0.851,2.471-1.118,3.246c-0.125,0.347-0.225,0.624-0.303,0.839
						C302.477,299.871,302.437,299.966,302.429,299.963z"/>
				</g>
			</g>
			<g>
				<g>
					<path style="fill:#263238;" d="M291.27,312.406c-0.008,0.001-0.025-0.066-0.052-0.198c-0.029-0.16-0.064-0.353-0.106-0.588
						c-0.09-0.559-0.212-1.318-0.366-2.279c-0.305-2.031-0.738-4.909-1.275-8.483c-1.047-7.258-2.5-17.332-4.153-28.793
						l-0.005-0.034l0.004-0.034c0.362-2.867,0.738-5.849,1.123-8.896c0.664-5.207,1.304-10.225,1.902-14.911l0.067,0.203
						c-2.64-2.755-5.128-5.35-7.425-7.746l-0.079-0.083l0.02-0.111c1.294-7.063,2.372-12.949,3.136-17.116
						c0.387-2.028,0.693-3.635,0.912-4.78c0.107-0.521,0.192-0.936,0.257-1.255c0.062-0.283,0.099-0.428,0.111-0.426
						c0.012,0.002-0.003,0.151-0.043,0.438c-0.048,0.322-0.112,0.741-0.191,1.267c-0.189,1.15-0.455,2.764-0.791,4.801
						c-0.719,4.175-1.734,10.073-2.953,17.149l-0.059-0.193c2.308,2.385,4.808,4.968,7.462,7.71l0.082,0.085l-0.015,0.118
						c-0.59,4.688-1.222,9.706-1.878,14.914c-0.388,3.047-0.767,6.029-1.132,8.895l0-0.068c1.583,11.47,2.975,21.553,3.978,28.818
						c0.473,3.583,0.854,6.469,1.123,8.505c0.118,0.966,0.21,1.729,0.279,2.291c0.024,0.238,0.044,0.433,0.061,0.595
						C291.276,312.336,291.278,312.405,291.27,312.406z"/>
				</g>
			</g>
			<g>
				<g>
					<path style="fill:#263238;" d="M314.539,466.844c-0.142,0.02-3.684-24.077-7.91-53.816
						c-4.227-29.749-7.538-53.874-7.395-53.894c0.142-0.02,3.683,24.072,7.911,53.821
						C311.371,442.694,314.682,466.824,314.539,466.844z"/>
				</g>
			</g>
		</g>
		<g>
			<g>
				<polyline style="fill:#9D6054;" points="231.995,335.672 252.233,329.854 264.807,359.134 236.634,358.252 231.995,336.862 				
					"/>
			</g>
			<g>
				<path style="fill:#E0E0E0;" d="M252.233,329.854l16.448,38.301c0,0,82.241-23.472,88.115-30.064s18.328-66.04,20.443-77.554
					c2.115-11.514,4.465-58.332-5.404-65.822c-9.869-7.49-19.503-5.845-28.902,4.493c-7.614,8.375-20.015,56.293-24.451,74.193
					c-1.092,4.406-1.383,8.97-0.858,13.479l0.872,7.492c0,0-7.754,7.049-8.224,13.628L252.233,329.854z"/>
			</g>
			<g>
				<g>
					<path style="fill:#263238;" d="M331.998,224.764c0,0-0.097,0.42-0.313,1.231c-0.222,0.821-0.546,2.023-0.97,3.594
						c-0.867,3.166-2.14,7.811-3.776,13.78c-1.648,5.977-3.66,13.277-5.993,21.736c-0.584,2.115-1.189,4.303-1.812,6.56
						c-0.681,2.247-1.154,4.6-1.399,7.066c-0.243,2.461-0.257,5.016,0.016,7.611c0.304,2.603,0.616,5.273,0.936,8.007l0.011,0.096
						l-0.074,0.07c-1.827,1.747-3.584,3.735-5.086,5.967c-1.492,2.218-2.796,4.754-3.059,7.533l-0.013,0.135l-0.123,0.046
						c-17.333,6.538-36.921,13.927-58.025,21.888l0.141-0.33c5.252,12.221,10.77,25.062,16.458,38.296l-0.309-0.147
						c6.779-1.947,13.956-4.057,21.209-6.233c14.126-4.245,27.885-8.505,41.053-12.97c6.574-2.254,13.03-4.507,19.165-7.139
						c1.535-0.653,3.035-1.365,4.472-2.153c0.698-0.415,1.413-0.832,1.969-1.368c0.287-0.263,0.491-0.612,0.724-0.929
						c0.197-0.352,0.405-0.695,0.592-1.052c1.425-2.912,2.454-5.991,3.433-9.023c1.921-6.086,3.522-12.11,5.015-17.974
						c1.491-5.866,2.846-11.585,4.121-17.122c2.53-11.078,4.763-21.43,6.596-30.915c1.723-9.501,2.714-18.2,3.299-25.848
						c0.566-7.651,0.65-14.276,0.229-19.659c-0.419-5.375-1.357-9.525-2.626-12.071c-1.19-2.618-2.639-3.392-2.554-3.449
						c0,0,0.287,0.237,0.835,0.724c0.251,0.264,0.526,0.629,0.872,1.047c0.264,0.472,0.663,0.972,0.941,1.632
						c1.309,2.551,2.282,6.714,2.734,12.101c0.454,5.396,0.398,12.033-0.141,19.697c-0.559,7.663-1.524,16.368-3.228,25.894
						c-1.812,9.5-4.024,19.855-6.537,30.944c-1.267,5.542-2.614,11.265-4.098,17.138c-1.487,5.871-3.082,11.902-5.001,18.007
						c-0.98,3.045-2.004,6.127-3.455,9.1c-0.193,0.367-0.409,0.726-0.613,1.09c-0.247,0.34-0.47,0.716-0.785,1.008
						c-0.634,0.612-1.36,1.025-2.079,1.457c-1.464,0.805-2.974,1.522-4.516,2.18c-6.163,2.649-12.62,4.906-19.199,7.166
						c-13.177,4.475-26.939,8.74-41.068,12.986c-7.255,2.176-14.434,4.286-21.217,6.232l-0.219,0.063l-0.09-0.21
						c-5.681-13.237-11.193-26.081-16.438-38.305l-0.103-0.239l0.243-0.092c21.114-7.935,40.711-15.3,58.052-21.817l-0.135,0.182
						c0.281-2.907,1.628-5.482,3.142-7.729c1.531-2.263,3.297-4.254,5.161-6.028l-0.062,0.166c-0.313-2.736-0.62-5.409-0.918-8.014
						c-0.27-2.621-0.249-5.201,0.003-7.684c0.251-2.478,0.743-4.881,1.428-7.115c0.631-2.256,1.242-4.442,1.833-6.555
						c2.367-8.45,4.41-15.743,6.083-21.714c1.679-5.957,2.986-10.594,3.876-13.753c0.447-1.565,0.79-2.762,1.023-3.58
						C331.864,225.173,331.998,224.764,331.998,224.764z"/>
				</g>
			</g>
			<g>
				<g>
					<path style="fill:#263238;" d="M320.95,316.773c-0.145,0.096-1.511-2.928-4.62-5.387c-3.074-2.505-6.32-3.185-6.258-3.347
						c0.011-0.057,0.828,0.028,2.082,0.448c1.251,0.416,2.92,1.227,4.503,2.493c1.578,1.271,2.73,2.725,3.406,3.857
						C320.744,315.971,321.003,316.75,320.95,316.773z"/>
				</g>
			</g>
			<g>
				<g>
					<path style="fill:#263238;" d="M339.397,301.234c-0.078,0.057-0.826-1.116-2.428-2.637c-1.583-1.517-4.132-3.319-7.353-4.28
						c-3.223-0.961-6.342-0.848-8.498-0.445c-2.173,0.395-3.44,0.967-3.475,0.877c-0.013-0.029,0.289-0.201,0.866-0.446
						c0.576-0.247,1.438-0.544,2.536-0.792c2.18-0.505,5.395-0.684,8.719,0.307c3.323,0.991,5.915,2.901,7.463,4.516
						c0.783,0.808,1.341,1.53,1.689,2.052C339.265,300.907,339.424,301.216,339.397,301.234z"/>
				</g>
			</g>
			<g>
				<g>
					<g>
						<path style="fill:#FF725E;" d="M250.65,371.41c-11.178,0-26.674-3.873-46.057-11.512
							c-14.353-5.656-25.628-11.395-25.74-11.452l1.819-3.563c0.441,0.226,44.419,22.526,69.978,22.526
							c10.104,0,17.921-4.879,23.234-14.5c4.087-7.399,5.099-14.953,5.108-15.028c0.267-1.603,6.297-37.571,8.368-47.173
							c1.08-5.006,3.968-13.219,6.762-21.162c2.555-7.264,5.196-14.774,5.73-17.981c1.088-6.524,0.301-20.794,0.292-20.938
							l3.994-0.226c0.034,0.604,0.82,14.858-0.341,21.821c-0.592,3.548-3.171,10.884-5.902,18.649
							c-2.752,7.826-5.599,15.919-6.625,20.679c-2.052,9.51-8.26,46.54-8.322,46.913C282.919,338.719,278.436,371.41,250.65,371.41z
							"/>
					</g>
					<g style="opacity:0.4;">
						<path d="M250.65,371.41c-11.178,0-26.674-3.873-46.057-11.512c-14.353-5.656-25.628-11.395-25.74-11.452l1.819-3.563
							c0.441,0.226,44.419,22.526,69.978,22.526c10.104,0,17.921-4.879,23.234-14.5c4.087-7.399,5.099-14.953,5.108-15.028
							c0.267-1.603,6.297-37.571,8.368-47.173c1.08-5.006,3.968-13.219,6.762-21.162c2.555-7.264,5.196-14.774,5.73-17.981
							c1.088-6.524,0.301-20.794,0.292-20.938l3.994-0.226c0.034,0.604,0.82,14.858-0.341,21.821
							c-0.592,3.548-3.171,10.884-5.902,18.649c-2.752,7.826-5.599,15.919-6.625,20.679c-2.052,9.51-8.26,46.54-8.322,46.913
							C282.919,338.719,278.436,371.41,250.65,371.41z"/>
					</g>
					<g>
						<g>
							<path style="fill:#E0E0E0;" d="M299.483,231.889c-2.559,0-4.981-0.937-6.698-2.64c-6.891-6.833-14.239-35.196-14.549-36.4
								l1.938-0.498c0.074,0.289,7.518,29.03,14.02,35.478c1.632,1.619,4.111,2.352,6.624,1.956c3.259-0.51,6.171-2.812,7.989-6.315
								c5.32-10.249,19.819-80.242,19.965-80.947l1.959,0.404c-0.598,2.893-14.702,70.972-20.148,81.465
								c-2.115,4.074-5.561,6.76-9.455,7.37C300.577,231.846,300.027,231.889,299.483,231.889z"/>
						</g>
						<g>
							<path style="fill:#E0E0E0;" d="M328.012,148.281c0.139-2.809-0.546-5.089-1.02-7.862c-0.2-1.167,0.171-3.164,1.146-3.836
								c1.007-0.693,2.486,0.144,2.897,1.295s0.356,2.906,0.193,4.118c-0.445,3.329-1.387,4.295-1.933,6.285"/>
						</g>
						<g>
							<path style="fill:#FF725E;" d="M300.469,232.448c-0.206,0-0.412-0.005-0.62-0.015c-4.532-0.218-8.46-2.76-10.506-6.802
								c-2.531-5-5.834-11.736-7.188-15.428l3.756-1.377c1.004,2.738,3.49,8.064,7,14.998c1.388,2.741,4.053,4.466,7.129,4.613
								c3.047,0.148,5.809-1.291,7.424-3.841l0.107-0.172c0.075-0.155,0.424-1.013,1.654-4.523l0.141-0.398
								c0.724-2.026,2.237-6.543,4.252-14.045l3.863,1.038c-2.052,7.637-3.604,12.269-4.348,14.351l-0.133,0.378
								c-1.517,4.322-1.793,4.921-1.997,5.254l-0.164,0.262C308.558,230.345,304.714,232.448,300.469,232.448z"/>
						</g>
						<g style="opacity:0.4;">
							<path d="M300.469,232.448c-0.206,0-0.412-0.005-0.62-0.015c-4.532-0.218-8.46-2.76-10.506-6.802
								c-2.531-5-5.834-11.736-7.188-15.428l3.756-1.377c1.004,2.738,3.49,8.064,7,14.998c1.388,2.741,4.053,4.466,7.129,4.613
								c3.047,0.148,5.809-1.291,7.424-3.841l0.107-0.172c0.075-0.155,0.424-1.013,1.654-4.523l0.141-0.398
								c0.724-2.026,2.237-6.543,4.252-14.045l3.863,1.038c-2.052,7.637-3.604,12.269-4.348,14.351l-0.133,0.378
								c-1.517,4.322-1.793,4.921-1.997,5.254l-0.164,0.262C308.558,230.345,304.714,232.448,300.469,232.448z"/>
						</g>
					</g>
				</g>
				<g>
					<circle style="fill:#E0E0E0;" cx="172.558" cy="343.04" r="9.681"/>
				</g>
				<g>
					<circle style="fill:#263238;" cx="173.095" cy="343.604" r="5.513"/>
				</g>
			</g>
			<g>
				<path style="fill:#455A64;" d="M166.463,352.721c0,0-2.126-4.997,0-6.819c2.126-1.822,24.293-7.811,24.293-7.811
					s15.639-4.521,17.309-4.732c1.67-0.211,22.016,1.155,22.016,1.155s11.539-3.189,13.21-3.189c1.67,0-0.759,10.628-1.063,14.121
					c-0.304,3.492-2.581,5.591-0.456,7.274c2.126,1.684,7.755,6.413,7.755,6.413s-5.933,1.647-10.032,1.192
					c-4.1-0.456-6.984-1.822-6.984-1.822s-8.351,6.225-12.906,7.136c-4.555,0.911-19.738,5.922-22.775,5.466
					c-3.037-0.456-5.314-4.555-5.314-4.555s-7.136,1.063-8.503-1.822s-1.822-5.162-1.822-5.162l2.885-1.822
					c0,0-3.798,1.063-5.467-1.67c-1.669-2.733-1.821-4.844-1.821-4.844S169.044,353.466,166.463,352.721z"/>
			</g>
		</g>
		<g>
			<g>
				<path style="fill:#263238;" d="M280.431,261.387c0.017,0.005-0.014,0.206-0.09,0.584c-0.094,0.432-0.212,0.977-0.358,1.646
					c-0.168,0.711-0.363,1.584-0.541,2.607c-0.184,1.021-0.439,2.176-0.607,3.471c-0.199,1.29-0.411,2.704-0.551,4.233
					c-0.193,1.523-0.277,3.161-0.393,4.882c-0.154,3.446-0.15,7.243,0.139,11.215c0.32,3.97,0.896,7.724,1.573,11.107
					c0.378,1.683,0.711,3.29,1.134,4.766c0.372,1.49,0.797,2.855,1.19,4.1c0.363,1.255,0.791,2.357,1.129,3.338
					c0.331,0.984,0.657,1.816,0.932,2.493c0.246,0.639,0.446,1.16,0.604,1.572c0.133,0.362,0.195,0.556,0.178,0.563
					c-0.016,0.007-0.11-0.172-0.275-0.521c-0.182-0.403-0.413-0.912-0.696-1.537c-0.304-0.667-0.659-1.491-1.017-2.469
					c-0.365-0.975-0.819-2.073-1.206-3.326c-0.418-1.243-0.865-2.609-1.257-4.101c-0.443-1.479-0.793-3.09-1.187-4.78
					c-0.707-3.397-1.301-7.172-1.623-11.166c-0.291-3.995-0.28-7.816-0.099-11.28c0.131-1.73,0.231-3.376,0.443-4.905
					c0.159-1.535,0.393-2.952,0.616-4.245c0.192-1.298,0.473-2.452,0.685-3.471c0.205-1.021,0.43-1.889,0.629-2.595
					c0.184-0.661,0.334-1.199,0.453-1.625C280.348,261.574,280.414,261.383,280.431,261.387z"/>
			</g>
		</g>
	</g>
</g>
</svg>
