<?xml version="1.0" ?>
<!DOCTYPE svg  PUBLIC '-//W3C//DTD SVG 1.1//EN'  'http://www.w3.org/Graphics/SVG/1.1/DTD/svg11.dtd'>
<!-- Uploaded to: SVG Repo, www.svgrepo.com, Generator: SVG Repo Mixer Tools -->
<svg width="800px" height="800px" viewBox="0 0 24 24" enable-background="new 0 0 24 24" version="1.1" xml:space="preserve" xmlns="http://www.w3.org/2000/svg" xmlns:xlink="http://www.w3.org/1999/xlink">
<g id="Layer_27"/>
<g id="Layer_2"/>
<g id="Layer_3"/>
<g id="Layer_4"/>
<g id="Layer_5"/>
<g id="Layer_6"/>
<g id="Layer_7"/>
<g id="Layer_8"/>
<g id="Layer_9"/>
<g id="Layer_10"/>
<g id="Layer_11"/>
<g id="Layer_12"/>
<g id="Layer_13"/>
<g id="Layer_14"/>
<g id="Layer_15"/>
<g id="Layer_16">
<g id="Layer_17"/>
</g>
<g id="Layer_18"/>
<g id="Layer_19"/>
<g id="Layer_20"/>
<g id="Layer_21"/>
<g id="Layer_22">
<g>
<g>
<path d="M22,12c0,2.39-0.84,4.66-2.36,6.45c-0.14,0.16-0.28,0.31-0.42,0.46c-0.33,0.34-0.68,0.66-1.05,0.94     C16.42,21.25,14.27,22,12,22s-4.42-0.75-6.17-2.15c-0.37-0.28-0.72-0.6-1.05-0.94c-0.14-0.15-0.28-0.3-0.42-0.46     C2.84,16.66,2,14.39,2,12s0.84-4.66,2.36-6.45C4.5,5.39,4.64,5.24,4.78,5.09c0.33-0.34,0.68-0.66,1.05-0.94     C7.58,2.75,9.73,2,12,2s4.42,0.75,6.17,2.15c0.37,0.28,0.72,0.6,1.05,0.94c0.14,0.15,0.28,0.3,0.42,0.46     C21.16,7.34,22,9.61,22,12z" fill="#85C756"/>
</g>
</g>
<g>
<path d="M5.83,4.15c-0.37,0.28-0.72,0.6-1.05,0.94C4.64,5.24,4.5,5.39,4.36,5.55C5.58,7.46,6.23,9.68,6.23,12    s-0.65,4.54-1.87,6.45c0.14,0.16,0.28,0.31,0.42,0.46c0.33,0.34,0.68,0.66,1.05,0.94c1.56-2.29,2.4-5.01,2.4-7.85    C8.23,9.16,7.39,6.44,5.83,4.15z" fill="#FFD217"/>
</g>
<g>
<path d="M19.64,5.55c-0.14-0.16-0.28-0.31-0.42-0.46c-0.33-0.34-0.68-0.66-1.05-0.94c-1.56,2.29-2.4,5.01-2.4,7.85    c0,2.84,0.84,5.56,2.4,7.85c0.37-0.28,0.72-0.6,1.05-0.94c0.14-0.15,0.28-0.3,0.42-0.46c-1.22-1.91-1.87-4.13-1.87-6.45    S18.42,7.46,19.64,5.55z" fill="#FFD217"/>
</g>
</g>
<g id="Layer_23"/>
<g id="Layer_24"/>
<g id="Layer_25"/>
<g id="Layer_26"/>
</svg>