<?xml version="1.0" encoding="UTF-8" standalone="no"?>


<!-- Uploaded to: SVG Repo, www.svgrepo.com, Generator: SVG Repo Mixer Tools -->
<svg 
   xmlns:dc="http://purl.org/dc/elements/1.1/"
   xmlns:cc="http://creativecommons.org/ns#"
   xmlns:rdf="http://www.w3.org/1999/02/22-rdf-syntax-ns#"
   xmlns:svg="http://www.w3.org/2000/svg"
   xmlns="http://www.w3.org/2000/svg"
   xmlns:sodipodi="http://sodipodi.sourceforge.net/DTD/sodipodi-0.dtd"
   xmlns:inkscape="http://www.inkscape.org/namespaces/inkscape"
   id="svg1"
   inkscape:version="0.92.4 (5da689c313, 2019-01-14)"
   viewBox="0 0 256 256"
   sodipodi:version="0.32"
   inkscape:export-xdpi="72.000000"
   version="1.0"
   inkscape:output_extension="org.inkscape.output.svg.inkscape"
   inkscape:export-ydpi="72.000000"
   sodipodi:docname="grapes.svg"
   width="256"
   height="256">
  <defs
     id="defs3">
    <linearGradient
       id="linearGradient3606">
      <stop
         id="stop3607"
         style="stop-color:#993c0d;stop-opacity:.54639"
         offset="0" />
      <stop
         id="stop3608"
         style="stop-color:#91713c;stop-opacity:.26804"
         offset="1" />
    </linearGradient>
    <linearGradient
       id="linearGradient3786"
       y2="85.968002"
       gradientUnits="userSpaceOnUse"
       x2="263.29999"
       gradientTransform="matrix(1.4453,0,0,0.69188,-205.98,12.836162)"
       y1="137.64"
       x1="191.50999"
       inkscape:collect="always">
      <stop
         id="stop5522"
         style="stop-color:#373620;stop-opacity:.78351"
         offset="0" />
      <stop
         id="stop5523"
         style="stop-color:#6c3620;stop-opacity:0"
         offset="1" />
    </linearGradient>
  </defs>
  <sodipodi:namedview
     id="base"
     bordercolor="#666666"
     inkscape:window-x="-8"
     inkscape:window-y="-8"
     pagecolor="#ffffff"
     inkscape:zoom="1.4938093"
     inkscape:pageshadow="2"
     borderopacity="1.0"
     inkscape:current-layer="svg1"
     inkscape:cx="167.92289"
     inkscape:cy="136.46049"
     inkscape:window-width="1920"
     showgrid="false"
     inkscape:pageopacity="0.0"
     inkscape:window-height="1025"
     inkscape:window-maximized="1"
     fit-margin-top="0"
     fit-margin-left="0"
     fit-margin-right="0"
     fit-margin-bottom="0" />
  <g
     id="g1246"
     transform="matrix(0.75023557,0,0,0.75023557,2.3073221,-30.480574)">
    <path
       id="path4322"
       style="fill:#000000;fill-rule:evenodd"
       d="m 143.11,134.26416 140.34,67.15 28.48,151.71 -175.55,-61.68 11.91,-15.42 -24.34,-10.94 -60.077003,-32.83 z"
       inkscape:connector-curvature="0" />
    <path
       id="path2621"
       style="fill:#8b0065;fill-rule:evenodd"
       d="m 333.49,353.56416 c 0,14.86 -13.95,26.91 -31.13,26.91 -17.19,0 -31.14,-12.05 -31.14,-26.91 0,-14.86 13.95,-26.92 31.14,-26.92 17.18,0 31.13,12.06 31.13,26.92 z"
       inkscape:connector-curvature="0" />
    <path
       id="path4228"
       style="fill:#4b0136;fill-rule:evenodd"
       d="m 302.4,325.59416 c -17.86,0 -32.37,12.57 -32.37,28.01 0,15.44 14.51,27.98 32.37,27.98 17.87,0 32.38,-12.54 32.38,-27.98 0,-15.44 -14.51,-28.01 -32.38,-28.01 z m 0,2.16 c 16.51,0 29.88,11.58 29.88,25.85 0,14.27 -13.37,25.82 -29.88,25.82 -16.51,0 -29.87,-11.55 -29.87,-25.82 0,-14.27 13.36,-25.85 29.87,-25.85 z"
       inkscape:connector-curvature="0" />
    <path
       id="path2623"
       style="fill:#8b0065;fill-rule:evenodd"
       d="m 333.31,312.06416 c 0,15.07 -13.26,27.3 -29.59,27.3 -16.34,0 -29.6,-12.23 -29.6,-27.3 0,-15.07 13.26,-27.3 29.6,-27.3 16.33,0 29.59,12.23 29.59,27.3 z"
       inkscape:connector-curvature="0" />
    <path
       id="path4245"
       style="fill:#4b0136;fill-rule:evenodd"
       d="m 303.76,283.69416 c -16.98,0 -30.77,12.75 -30.77,28.41 0,15.66 13.79,28.38 30.77,28.38 16.98,0 30.78,-12.72 30.78,-28.38 0,-15.66 -13.8,-28.41 -30.78,-28.41 z m 0,2.19 c 15.7,0 28.4,11.74 28.4,26.22 0,14.47 -12.7,26.19 -28.4,26.19 -15.69,0 -28.4,-11.72 -28.4,-26.19 0,-14.48 12.71,-26.22 28.4,-26.22 z"
       inkscape:connector-curvature="0" />
    <path
       id="path2625"
       style="fill:#8b0065;fill-rule:evenodd"
       d="m 293.36,356.61416 c 0,13.38 -12.4,24.24 -27.67,24.24 -15.28,0 -27.68,-10.86 -27.68,-24.24 0,-13.38 12.4,-24.24 27.68,-24.24 15.27,0 27.67,10.86 27.67,24.24 z"
       inkscape:connector-curvature="0" />
    <path
       id="path4248"
       style="fill:#4b0136;fill-rule:evenodd"
       d="m 265.73,331.42416 c -15.87,0 -28.77,11.32 -28.77,25.23 0,13.9 12.9,25.2 28.77,25.2 15.88,0 28.78,-11.3 28.78,-25.2 0,-13.91 -12.9,-25.23 -28.78,-25.23 z m 0,1.95 c 14.68,0 26.55,10.43 26.55,23.28 0,12.85 -11.87,23.25 -26.55,23.25 -14.67,0 -26.55,-10.4 -26.55,-23.25 0,-12.85 11.88,-23.28 26.55,-23.28 z"
       inkscape:connector-curvature="0" />
    <path
       id="path2627"
       style="fill:#8b0065;fill-rule:evenodd"
       d="m 325.06,267.84416 c 0,14.86 -12.74,26.92 -28.44,26.92 -15.7,0 -28.45,-12.06 -28.45,-26.92 0,-14.85 12.75,-26.91 28.45,-26.91 15.7,0 28.44,12.06 28.44,26.91 z"
       inkscape:connector-curvature="0" />
    <path
       id="path4254"
       style="fill:#4b0136;fill-rule:evenodd"
       d="m 296.66,239.87416 c -16.31,0 -29.57,12.57 -29.57,28.01 0,15.45 13.26,27.99 29.57,27.99 16.32,0 29.58,-12.54 29.58,-27.99 0,-15.44 -13.26,-28.01 -29.58,-28.01 z m 0,2.16 c 15.09,0 27.29,11.58 27.29,25.85 0,14.28 -12.2,25.83 -27.29,25.83 -15.08,0 -27.29,-11.55 -27.29,-25.83 0,-14.27 12.21,-25.85 27.29,-25.85 z"
       inkscape:connector-curvature="0" />
    <path
       id="path2629"
       style="fill:#8b0065;fill-rule:evenodd"
       d="m 296.45,316.80416 c 0,13.8 -13.08,25 -29.21,25 -16.12,0 -29.21,-11.2 -29.21,-25 0,-13.8 13.09,-25 29.21,-25 16.13,0 29.21,11.2 29.21,25 z"
       inkscape:connector-curvature="0" />
    <path
       id="path4251"
       style="fill:#4b0136;fill-rule:evenodd"
       d="m 267.29,290.82416 c -16.76,0 -30.37,11.68 -30.37,26.02 0,14.34 13.61,26 30.37,26 16.76,0 30.37,-11.66 30.37,-26 0,-14.34 -13.61,-26.02 -30.37,-26.02 z m 0,2.01 c 15.49,0 28.03,10.75 28.03,24.01 0,13.26 -12.54,23.99 -28.03,23.99 -15.49,0 -28.03,-10.73 -28.03,-23.99 0,-13.26 12.54,-24.01 28.03,-24.01 z"
       inkscape:connector-curvature="0" />
    <path
       id="path2631"
       style="fill:#8b0065;fill-rule:evenodd"
       d="m 246.7,337.32416 c 0,14.22 -13.78,25.77 -30.75,25.77 -16.98,0 -30.75,-11.55 -30.75,-25.77 0,-14.23 13.77,-25.77 30.75,-25.77 16.97,0 30.75,11.54 30.75,25.77 z"
       inkscape:connector-curvature="0" />
    <path
       id="path4260"
       style="fill:#4b0136;fill-rule:evenodd"
       d="m 216,310.54416 c -17.65,0 -31.98,12.03 -31.98,26.82 0,14.78 14.33,26.79 31.98,26.79 17.64,0 31.97,-12.01 31.97,-26.79 0,-14.79 -14.33,-26.82 -31.97,-26.82 z m 0,2.07 c 16.3,0 29.5,11.08 29.5,24.75 0,13.66 -13.2,24.72 -29.5,24.72 -16.31,0 -29.51,-11.06 -29.51,-24.72 0,-13.67 13.2,-24.75 29.51,-24.75 z"
       inkscape:connector-curvature="0" />
    <path
       id="path2633"
       style="fill:#8b0065;fill-rule:evenodd"
       d="m 252.98,300.69416 c 0,14.86 -13.95,26.92 -31.14,26.92 -17.19,0 -31.14,-12.06 -31.14,-26.92 0,-14.86 13.95,-26.91 31.14,-26.91 17.19,0 31.14,12.05 31.14,26.91 z"
       inkscape:connector-curvature="0" />
    <path
       id="path4263"
       style="fill:#4b0136;fill-rule:evenodd"
       d="m 221.89,272.72416 c -17.87,0 -32.38,12.57 -32.38,28.01 0,15.44 14.51,27.99 32.38,27.99 17.86,0 32.37,-12.55 32.37,-27.99 0,-15.44 -14.51,-28.01 -32.37,-28.01 z m 0,2.16 c 16.51,0 29.87,11.58 29.87,25.85 0,14.27 -13.36,25.83 -29.87,25.83 -16.51,0 -29.88,-11.56 -29.88,-25.83 0,-14.27 13.37,-25.85 29.88,-25.85 z"
       inkscape:connector-curvature="0" />
    <path
       id="path2639"
       style="fill:#8b0065;fill-rule:evenodd"
       d="m 195.27,314.28416 c 0,13.59 -13.26,24.62 -29.59,24.62 -16.34,0 -29.6,-11.03 -29.6,-24.62 0,-13.59 13.26,-24.62 29.6,-24.62 16.33,0 29.59,11.03 29.59,24.62 z"
       inkscape:connector-curvature="0" />
    <path
       id="path2635"
       style="fill:#8b0065;fill-rule:evenodd"
       d="m 298.9,271.43416 c 0,14.86 -13.95,26.92 -31.14,26.92 -17.19,0 -31.13,-12.06 -31.13,-26.92 0,-14.86 13.94,-26.91 31.13,-26.91 17.19,0 31.14,12.05 31.14,26.91 z"
       inkscape:connector-curvature="0" />
    <path
       id="path4257"
       style="fill:#4b0136;fill-rule:evenodd"
       d="m 267.81,243.46416 c -17.87,0 -32.38,12.57 -32.38,28.01 0,15.44 14.51,27.99 32.38,27.99 17.86,0 32.37,-12.55 32.37,-27.99 0,-15.44 -14.51,-28.01 -32.37,-28.01 z m 0,2.16 c 16.51,0 29.87,11.58 29.87,25.85 0,14.27 -13.36,25.83 -29.87,25.83 -16.51,0 -29.88,-11.56 -29.88,-25.83 0,-14.27 13.37,-25.85 29.88,-25.85 z"
       inkscape:connector-curvature="0" />
    <path
       id="path2637"
       style="fill:#8b0065;fill-rule:evenodd"
       d="m 313.94,222.84416 c 0,14.86 -13.95,26.92 -31.14,26.92 -17.18,0 -31.13,-12.06 -31.13,-26.92 0,-14.86 13.95,-26.91 31.13,-26.91 17.19,0 31.14,12.05 31.14,26.91 z"
       inkscape:connector-curvature="0" />
    <path
       id="path4269"
       style="fill:#4b0136;fill-rule:evenodd"
       d="m 282.85,194.87416 c -17.86,0 -32.37,12.57 -32.37,28.01 0,15.44 14.51,27.99 32.37,27.99 17.86,0 32.38,-12.55 32.38,-27.99 0,-15.44 -14.52,-28.01 -32.38,-28.01 z m 0,2.16 c 16.51,0 29.88,11.58 29.88,25.85 0,14.27 -13.37,25.83 -29.88,25.83 -16.51,0 -29.87,-11.56 -29.87,-25.83 0,-14.27 13.36,-25.85 29.87,-25.85 z"
       inkscape:connector-curvature="0" />
    <path
       id="path4290"
       style="fill:#4b0136;fill-rule:evenodd"
       d="m 165.72,288.70416 c -16.98,0 -30.77,11.49 -30.77,25.62 0,14.12 13.79,25.6 30.77,25.6 16.98,0 30.78,-11.48 30.78,-25.6 0,-14.13 -13.8,-25.62 -30.78,-25.62 z m 0,1.97 c 15.7,0 28.4,10.59 28.4,23.65 0,13.05 -12.7,23.62 -28.4,23.62 -15.69,0 -28.39,-10.57 -28.39,-23.62 0,-13.06 12.7,-23.65 28.39,-23.65 z"
       inkscape:connector-curvature="0" />
    <path
       id="path2641"
       style="fill:#8b0065;fill-rule:evenodd"
       d="m 204.06,284.73416 c 0,14.86 -13.95,26.92 -31.14,26.92 -17.19,0 -31.14,-12.06 -31.14,-26.92 0,-14.86 13.95,-26.91 31.14,-26.91 17.19,0 31.14,12.05 31.14,26.91 z"
       inkscape:connector-curvature="0" />
    <path
       id="path4293"
       style="fill:#4b0136;fill-rule:evenodd"
       d="m 172.97,256.76416 c -17.87,0 -32.38,12.57 -32.38,28.01 0,15.44 14.51,27.99 32.38,27.99 17.86,0 32.37,-12.55 32.37,-27.99 0,-15.44 -14.51,-28.01 -32.37,-28.01 z m 0,2.16 c 16.51,0 29.87,11.58 29.87,25.85 0,14.27 -13.36,25.82 -29.87,25.82 -16.52,0 -29.88,-11.55 -29.88,-25.82 0,-14.27 13.36,-25.85 29.88,-25.85 z"
       inkscape:connector-curvature="0" />
    <path
       id="path2643"
       style="fill:#8b0065;fill-rule:evenodd"
       d="m 151.91,281.41416 c 0,15.49 -13.6,28.07 -30.36,28.07 -16.77,0 -30.369003,-12.58 -30.369003,-28.07 0,-15.49 13.599003,-28.06 30.369003,-28.06 16.76,0 30.36,12.57 30.36,28.06 z"
       inkscape:connector-curvature="0" />
    <path
       id="path4287"
       style="fill:#4b0136;fill-rule:evenodd"
       d="m 121.59,252.24416 c -17.42,0 -31.570003,13.11 -31.570003,29.21 0,16.1 14.150003,29.18 31.570003,29.18 17.42,0 31.57,-13.08 31.57,-29.18 0,-16.1 -14.15,-29.21 -31.57,-29.21 z m 0,2.25 c 16.1,0 29.14,12.08 29.14,26.96 0,14.89 -13.04,26.93 -29.14,26.93 -16.1,0 -29.132003,-12.04 -29.132003,-26.93 0,-14.88 13.032003,-26.96 29.132003,-26.96 z"
       inkscape:connector-curvature="0" />
    <path
       id="path2645"
       style="fill:#8b0065;fill-rule:evenodd"
       d="m 240.9,257.23416 c 0,14.65 -13.26,26.54 -29.59,26.54 -16.34,0 -29.6,-11.89 -29.6,-26.54 0,-14.64 13.26,-26.53 29.6,-26.53 16.33,0 29.59,11.89 29.59,26.53 z"
       inkscape:connector-curvature="0" />
    <path
       id="path4296"
       style="fill:#4b0136;fill-rule:evenodd"
       d="m 211.35,229.66416 c -16.97,0 -30.77,12.39 -30.77,27.61 0,15.23 13.8,27.59 30.77,27.59 16.98,0 30.78,-12.36 30.78,-27.59 0,-15.22 -13.8,-27.61 -30.78,-27.61 z m 0,2.13 c 15.7,0 28.4,11.41 28.4,25.48 0,14.07 -12.7,25.46 -28.4,25.46 -15.69,0 -28.39,-11.39 -28.39,-25.46 0,-14.07 12.7,-25.48 28.39,-25.48 z"
       inkscape:connector-curvature="0" />
    <path
       id="path2649"
       style="fill:#8b0065;fill-rule:evenodd"
       d="m 275.84,226.31416 c 0,14.43 -13.09,26.15 -29.21,26.15 -16.13,0 -29.21,-11.72 -29.21,-26.15 0,-14.44 13.08,-26.15 29.21,-26.15 16.12,0 29.21,11.71 29.21,26.15 z"
       inkscape:connector-curvature="0" />
    <path
       id="path4299"
       style="fill:#4b0136;fill-rule:evenodd"
       d="m 246.68,199.13416 c -16.77,0 -30.38,12.22 -30.38,27.22 0,15 13.61,27.19 30.38,27.19 16.76,0 30.37,-12.19 30.37,-27.19 0,-15 -13.61,-27.22 -30.37,-27.22 z m 0,2.1 c 15.49,0 28.02,11.25 28.02,25.12 0,13.87 -12.53,25.09 -28.02,25.09 -15.5,0 -28.03,-11.22 -28.03,-25.09 0,-13.87 12.53,-25.12 28.03,-25.12 z"
       inkscape:connector-curvature="0" />
    <path
       id="path2651"
       style="fill:#8b0065;fill-rule:evenodd"
       d="m 304.38,177.05416 c 0,13.8 -13.43,25 -29.98,25 -16.55,0 -29.99,-11.2 -29.99,-25 0,-13.8 13.44,-25.01 29.99,-25.01 16.55,0 29.98,11.21 29.98,25.01 z"
       inkscape:connector-curvature="0" />
    <path
       id="path4266"
       style="fill:#4b0136;fill-rule:evenodd"
       d="m 274.44,151.06416 c -17.2,0 -31.17,11.68 -31.17,26.03 0,14.34 13.97,25.99 31.17,25.99 17.2,0 31.18,-11.65 31.18,-25.99 0,-14.35 -13.98,-26.03 -31.18,-26.03 z m 0,2.01 c 15.9,0 28.77,10.76 28.77,24.02 0,13.25 -12.87,23.98 -28.77,23.98 -15.9,0 -28.76,-10.73 -28.76,-23.98 0,-13.26 12.86,-24.02 28.76,-24.02 z"
       inkscape:connector-curvature="0" />
    <path
       id="path2655"
       style="fill:#8b0065;fill-rule:evenodd"
       d="m 269.13,183.60416 c 0,14.85 -12.91,26.91 -28.83,26.91 -15.91,0 -28.82,-12.06 -28.82,-26.91 0,-14.86 12.91,-26.92 28.82,-26.92 15.92,0 28.83,12.06 28.83,26.92 z"
       inkscape:connector-curvature="0" />
    <path
       id="path4302"
       style="fill:#4b0136;fill-rule:evenodd"
       d="m 240.35,155.62416 c -16.54,0 -29.97,12.57 -29.97,28.02 0,15.44 13.43,27.98 29.97,27.98 16.54,0 29.97,-12.54 29.97,-27.98 0,-15.45 -13.43,-28.02 -29.97,-28.02 z m 0,2.16 c 15.29,0 27.66,11.58 27.66,25.86 0,14.27 -12.37,25.82 -27.66,25.82 -15.29,0 -27.66,-11.55 -27.66,-25.82 0,-14.28 12.37,-25.86 27.66,-25.86 z"
       inkscape:connector-curvature="0" />
    <path
       id="path2657"
       style="fill:#8b0065;fill-rule:evenodd"
       d="m 223.02,212.04416 c 0,14.86 -13.95,26.92 -31.14,26.92 -17.19,0 -31.14,-12.06 -31.14,-26.92 0,-14.86 13.95,-26.91 31.14,-26.91 17.19,0 31.14,12.05 31.14,26.91 z"
       inkscape:connector-curvature="0" />
    <path
       id="path4305"
       style="fill:#4b0136;fill-rule:evenodd"
       d="m 191.93,184.07416 c -17.87,0 -32.38,12.57 -32.38,28.01 0,15.44 14.51,27.99 32.38,27.99 17.86,0 32.37,-12.55 32.37,-27.99 0,-15.44 -14.51,-28.01 -32.37,-28.01 z m 0,2.16 c 16.51,0 29.87,11.58 29.87,25.85 0,14.27 -13.36,25.83 -29.87,25.83 -16.52,0 -29.88,-11.56 -29.88,-25.83 0,-14.27 13.36,-25.85 29.88,-25.85 z"
       inkscape:connector-curvature="0" />
    <path
       id="path2659"
       style="fill:#8b0065;fill-rule:evenodd"
       d="m 186.13,239.68416 c 0,15.48 -12.4,28.05 -27.68,28.05 -15.28,0 -27.69,-12.57 -27.69,-28.05 0,-15.49 12.41,-28.05 27.69,-28.05 15.28,0 27.68,12.56 27.68,28.05 z"
       inkscape:connector-curvature="0" />
    <path
       id="path4308"
       style="fill:#4b0136;fill-rule:evenodd"
       d="m 158.49,210.52416 c -15.88,0 -28.78,13.1 -28.78,29.2 0,16.09 12.9,29.16 28.78,29.16 15.88,0 28.79,-13.07 28.79,-29.16 0,-16.1 -12.91,-29.2 -28.79,-29.2 z m 0,2.25 c 14.68,0 26.56,12.07 26.56,26.95 0,14.87 -11.88,26.91 -26.56,26.91 -14.68,0 -26.56,-12.04 -26.56,-26.91 0,-14.88 11.88,-26.95 26.56,-26.95 z"
       inkscape:connector-curvature="0" />
    <path
       id="path2661"
       style="fill:#8b0065;fill-rule:evenodd"
       d="m 104.66,252.69416 c 0,14.01 -12.743003,25.38 -28.443003,25.38 -15.701,0 -28.443,-11.37 -28.443,-25.38 0,-14.01 12.742,-25.39 28.443,-25.39 15.7,0 28.443003,11.38 28.443003,25.39 z"
       inkscape:connector-curvature="0" />
    <path
       id="path4284"
       style="fill:#4b0136;fill-rule:evenodd"
       d="m 76.262997,226.31416 c -16.318,0 -29.574,11.85 -29.574,26.42 0,14.56 13.256,26.39 29.574,26.39 16.319,0 29.577003,-11.83 29.577003,-26.39 0,-14.57 -13.258003,-26.42 -29.577003,-26.42 z m 0,2.04 c 15.083,0 27.287003,10.92 27.287003,24.38 0,13.46 -12.204003,24.35 -27.287003,24.35 -15.082,0 -27.29,-10.89 -27.29,-24.35 0,-13.46 12.208,-24.38 27.29,-24.38 z"
       inkscape:connector-curvature="0" />
    <path
       id="path2663"
       style="fill:#8b0065;fill-rule:evenodd"
       d="m 144.12,231.61416 c 0,14.43 -13.43,26.15 -29.98,26.15 -16.553003,0 -29.985003,-11.72 -29.985003,-26.15 0,-14.44 13.432,-26.15 29.985003,-26.15 16.55,0 29.98,11.71 29.98,26.15 z"
       inkscape:connector-curvature="0" />
    <path
       id="path4317"
       style="fill:#4b0136;fill-rule:evenodd"
       d="m 114.18,204.43416 c -17.197003,0 -31.170003,12.21 -31.170003,27.22 0,15 13.973,27.19 31.170003,27.19 17.21,0 31.18,-12.19 31.18,-27.19 0,-15.01 -13.97,-27.22 -31.18,-27.22 z m 0,2.1 c 15.9,0 28.77,11.25 28.77,25.12 0,13.86 -12.87,25.09 -28.77,25.09 -15.895003,0 -28.763003,-11.23 -28.763003,-25.09 0,-13.87 12.868,-25.12 28.763003,-25.12 z"
       inkscape:connector-curvature="0" />
    <path
       id="path2665"
       style="fill:#8b0065;fill-rule:evenodd"
       d="m 108.41,204.08416 c 0,14.86 -13.945003,26.92 -31.133003,26.92 -17.187,0 -31.137,-12.06 -31.137,-26.92 0,-14.86 13.95,-26.91 31.137,-26.91 17.188,0 31.133003,12.05 31.133003,26.91 z"
       inkscape:connector-curvature="0" />
    <path
       id="path4311"
       style="fill:#4b0136;fill-rule:evenodd"
       d="m 77.323997,176.11416 c -17.864,0 -32.375,12.57 -32.375,28.01 0,15.44 14.511,27.99 32.375,27.99 17.864,0 32.376003,-12.55 32.376003,-27.99 0,-15.44 -14.512003,-28.01 -32.376003,-28.01 z m 0,2.16 c 16.511,0 29.876003,11.58 29.876003,25.85 0,14.27 -13.365003,25.83 -29.876003,25.83 -16.512,0 -29.875,-11.56 -29.875,-25.83 0,-14.27 13.363,-25.85 29.875,-25.85 z"
       inkscape:connector-curvature="0" />
    <path
       id="path2667"
       style="fill:#8b0065;fill-rule:evenodd"
       d="m 171.23,188.96416 c 0,15.5 -14.47,28.07 -32.29,28.07 -17.83,0 -32.29,-12.57 -32.29,-28.07 0,-15.49 14.46,-28.06 32.29,-28.06 17.82,0 32.29,12.57 32.29,28.06 z"
       inkscape:connector-curvature="0" />
    <path
       id="path4314"
       style="fill:#4b0136;fill-rule:evenodd"
       d="m 138.98,159.80416 c -18.52,0 -33.57,13.1 -33.57,29.2 0,16.11 15.05,29.18 33.57,29.18 18.53,0 33.58,-13.07 33.58,-29.18 0,-16.1 -15.05,-29.2 -33.58,-29.2 z m 0,2.25 c 17.13,0 30.98,12.07 30.98,26.95 0,14.89 -13.85,26.93 -30.98,26.93 -17.12,0 -30.98,-12.04 -30.98,-26.93 0,-14.88 13.86,-26.95 30.98,-26.95 z"
       inkscape:connector-curvature="0" />
    <path
       id="path2671"
       style="fill:#8b0065;fill-rule:evenodd"
       d="m 273.46,140.89416 c 0,14.86 -13.94,26.92 -31.13,26.92 -17.19,0 -31.14,-12.06 -31.14,-26.92 0,-14.86 13.95,-26.91 31.14,-26.91 17.19,0 31.13,12.05 31.13,26.91 z"
       inkscape:connector-curvature="0" />
    <path
       id="path4272"
       style="fill:#4b0136;fill-rule:evenodd"
       d="m 242.37,112.92416 c -17.86,0 -32.37,12.57 -32.37,28.01 0,15.44 14.51,27.99 32.37,27.99 17.87,0 32.38,-12.55 32.38,-27.99 0,-15.44 -14.51,-28.01 -32.38,-28.01 z m 0,2.16 c 16.52,0 29.88,11.58 29.88,25.85 0,14.27 -13.36,25.82 -29.88,25.82 -16.51,0 -29.87,-11.55 -29.87,-25.82 0,-14.27 13.36,-25.85 29.87,-25.85 z"
       inkscape:connector-curvature="0" />
    <path
       id="path2673"
       style="fill:#8b0065;fill-rule:evenodd"
       d="m 221.71,164.99416 c 0,14.86 -13.95,26.92 -31.14,26.92 -17.18,0 -31.13,-12.06 -31.13,-26.92 0,-14.86 13.95,-26.91 31.13,-26.91 17.19,0 31.14,12.05 31.14,26.91 z"
       inkscape:connector-curvature="0" />
    <path
       id="path4275"
       style="fill:#4b0136;fill-rule:evenodd"
       d="m 190.62,137.02416 c -17.86,0 -32.38,12.57 -32.38,28.01 0,15.44 14.52,27.99 32.38,27.99 17.86,0 32.37,-12.55 32.37,-27.99 0,-15.44 -14.51,-28.01 -32.37,-28.01 z m 0,2.16 c 16.51,0 29.87,11.58 29.87,25.85 0,14.27 -13.36,25.83 -29.87,25.83 -16.51,0 -29.88,-11.56 -29.88,-25.83 0,-14.27 13.37,-25.85 29.88,-25.85 z"
       inkscape:connector-curvature="0" />
    <path
       id="path2677"
       style="fill:#8b0065;fill-rule:evenodd"
       d="m 235.65,120.56416 c 0,14.85 -13.95,26.91 -31.14,26.91 -17.19,0 -31.14,-12.06 -31.14,-26.91 0,-14.86 13.95,-26.918998 31.14,-26.918998 17.19,0 31.14,12.058998 31.14,26.918998 z"
       inkscape:connector-curvature="0" />
    <path
       id="path7375"
       style="fill:#4b0136;fill-rule:evenodd"
       d="m 204.56,92.588162 c -17.87,0 -32.38,12.565998 -32.38,28.015998 0,15.44 14.51,27.98 32.38,27.98 17.86,0 32.37,-12.54 32.37,-27.98 0,-15.45 -14.51,-28.015998 -32.37,-28.015998 z m 0,2.161 c 16.51,0 29.87,11.574998 29.87,25.854998 0,14.27 -13.36,25.82 -29.87,25.82 -16.52,0 -29.88,-11.55 -29.88,-25.82 0,-14.28 13.36,-25.854998 29.88,-25.854998 z"
       inkscape:connector-curvature="0" />
    <path
       id="path14"
       sodipodi:nodetypes="cccccccccccccc"
       style="fill:#6c3620"
       d="m 95.719997,143.62416 v 1 H 139.72 v -1 c -3.45,-1.94 -7.94,-3.04 -10.57,-6.14 -4.33,-5.12 -5.31,-16.79 -7.57,-23.26 -2.74,-7.82 -6.22,-14.768998 -10.89,-21.596998 -5.6495,-8.082191 -8.96062,-14.822694 -15.970003,-20 -16.734,-16.016 -43.136,-31.399 -67,-31.986 -5.949,-0.146 -31.6400002,0.725 -26.8280002,12.881 3.2955,8.323 22.3810002,9.614 29.8280002,10.858 26.993,4.507 50.55,7.016 67.56,31.247 C 104.4,104.34416 115.28,126.64416 108.54,137.34416 c -2.24,3.56 -9.089003,4.76 -12.820003,6.28 z"
       inkscape:connector-curvature="0" />
    <path
       id="path5525"
       sodipodi:nodetypes="cccccccccccccc"
       style="fill:url(#linearGradient3786)"
       d="m 95.719997,143.62416 v 1 H 139.72 v -1 c -3.45,-1.94 -7.94,-3.04 -10.57,-6.14 -4.33,-5.12 -5.31,-16.79 -7.57,-23.26 -2.74,-7.82 -6.22,-14.768998 -10.89,-21.596998 -6.31893,-7.831155 -9.54637,-14.236943 -15.970003,-20 -16.734,-16.016 -43.136,-31.399 -67,-31.986 -5.949,-0.146 -31.6400002,0.725 -26.8280002,12.881 3.2955,8.323 22.3810002,9.614 29.8280002,10.858 26.993,4.507 50.55,7.016 67.56,31.247 C 104.4,104.34416 115.28,126.64416 108.54,137.34416 c -2.24,3.56 -9.089003,4.76 -12.820003,6.28 z"
       inkscape:connector-curvature="0" />
    <path
       id="path2679"
       style="fill:#8b0065;fill-rule:evenodd"
       d="m 132.22,163.59416 c 0,14.86 -13.95,26.91 -31.14,26.91 -17.183003,0 -31.132003,-12.05 -31.132003,-26.91 0,-14.86 13.949,-26.92 31.132003,-26.92 17.19,0 31.14,12.06 31.14,26.92 z"
       inkscape:connector-curvature="0" />
    <path
       id="path4281"
       style="fill:#4b0136;fill-rule:evenodd"
       d="m 101.13,135.61416 c -17.863003,0 -32.374003,12.58 -32.374003,28.02 0,15.44 14.511,27.98 32.374003,27.98 17.87,0 32.38,-12.54 32.38,-27.98 0,-15.44 -14.51,-28.02 -32.38,-28.02 z m 0,2.17 c 16.51,0 29.88,11.57 29.88,25.85 0,14.27 -13.37,25.82 -29.88,25.82 -16.510003,0 -29.874003,-11.55 -29.874003,-25.82 0,-14.28 13.364,-25.85 29.874003,-25.85 z"
       inkscape:connector-curvature="0" />
    <path
       id="path2681"
       style="fill:#8b0065;fill-rule:evenodd"
       d="m 181.67,136.45416 c 0,14.86 -13.95,26.91 -31.14,26.91 -17.19,0 -31.14,-12.05 -31.14,-26.91 0,-14.86 13.95,-26.92 31.14,-26.92 17.19,0 31.14,12.06 31.14,26.92 z"
       inkscape:connector-curvature="0" />
    <path
       id="path4278"
       style="fill:#4b0136;fill-rule:evenodd"
       d="m 150.58,108.48416 c -17.87,0 -32.38,12.57 -32.38,28.01 0,15.44 14.51,27.98 32.38,27.98 17.86,0 32.37,-12.54 32.37,-27.98 0,-15.44 -14.51,-28.01 -32.37,-28.01 z m 0,2.16 c 16.51,0 29.87,11.58 29.87,25.85 0,14.27 -13.36,25.82 -29.87,25.82 -16.51,0 -29.88,-11.55 -29.88,-25.82 0,-14.27 13.37,-25.85 29.88,-25.85 z"
       inkscape:connector-curvature="0" />
    <g
       transform="translate(-3.2009e-6,0.034162)"
       id="g3591">
      <path
         id="path2330"
         style="fill:#b33283;fill-rule:evenodd"
         transform="matrix(0.22066,-0.14638,0.26346,0.26803,153.65,238.36)"
         d="m 172.45,111.87 c 0,17.18 -13.95,31.13 -31.14,31.13 -17.18,0 -31.13,-13.95 -31.13,-31.13 0,-17.193 13.95,-31.142 31.13,-31.142 17.19,0 31.14,13.949 31.14,31.142 z"
         inkscape:connector-curvature="0" />
      <path
         id="path2325"
         style="fill:#b33283;fill-rule:evenodd"
         transform="matrix(0.24161,-0.10836,0.21614,0.30747,202.09,201.27)"
         d="m 172.45,111.87 c 0,17.18 -13.95,31.13 -31.14,31.13 -17.18,0 -31.13,-13.95 -31.13,-31.13 0,-17.193 13.95,-31.142 31.13,-31.142 17.19,0 31.14,13.949 31.14,31.142 z"
         inkscape:connector-curvature="0" />
      <path
         id="path2324"
         style="fill:#b33283;fill-rule:evenodd"
         transform="matrix(0.25989,-0.050757,0.14079,0.34847,202.68,147.85)"
         d="m 172.45,111.87 c 0,17.18 -13.95,31.13 -31.14,31.13 -17.18,0 -31.13,-13.95 -31.13,-31.13 0,-17.193 13.95,-31.142 31.13,-31.142 17.19,0 31.14,13.949 31.14,31.142 z"
         inkscape:connector-curvature="0" />
      <path
         id="path2321"
         style="fill:#b33283;fill-rule:evenodd"
         transform="matrix(0.18908,-0.18538,0.3093,0.21351,139.02,160.3)"
         d="m 172.45,111.87 c 0,17.18 -13.95,31.13 -31.14,31.13 -17.18,0 -31.13,-13.95 -31.13,-31.13 0,-17.193 13.95,-31.142 31.13,-31.142 17.19,0 31.14,13.949 31.14,31.142 z"
         inkscape:connector-curvature="0" />
      <path
         id="path1077"
         style="fill:#b33283;fill-rule:evenodd"
         transform="matrix(0.18908,-0.18538,0.3093,0.21351,153.93,109.71)"
         d="m 172.45,111.87 c 0,17.18 -13.95,31.13 -31.14,31.13 -17.18,0 -31.13,-13.95 -31.13,-31.13 0,-17.193 13.95,-31.142 31.13,-31.142 17.19,0 31.14,13.949 31.14,31.142 z"
         inkscape:connector-curvature="0" />
      <path
         id="path2320"
         style="fill:#b33283;fill-rule:evenodd"
         transform="matrix(0.22386,-0.14143,0.25743,0.27383,194.35,118.88)"
         d="m 172.45,111.87 c 0,17.18 -13.95,31.13 -31.14,31.13 -17.18,0 -31.13,-13.95 -31.13,-31.13 0,-17.193 13.95,-31.142 31.13,-31.142 17.19,0 31.14,13.949 31.14,31.142 z"
         inkscape:connector-curvature="0" />
      <path
         id="path2322"
         style="fill:#b33283;fill-rule:evenodd"
         transform="matrix(0.22652,-0.084555,0.24015,0.26099,227.91,149.22)"
         d="m 172.45,111.87 c 0,17.18 -13.95,31.13 -31.14,31.13 -17.18,0 -31.13,-13.95 -31.13,-31.13 0,-17.193 13.95,-31.142 31.13,-31.142 17.19,0 31.14,13.949 31.14,31.142 z"
         inkscape:connector-curvature="0" />
      <path
         id="path2323"
         style="fill:#b33283;fill-rule:evenodd"
         transform="matrix(0.18908,-0.18538,0.3093,0.21351,98.393,125.25)"
         d="m 172.45,111.87 c 0,17.18 -13.95,31.13 -31.14,31.13 -17.18,0 -31.13,-13.95 -31.13,-31.13 0,-17.193 13.95,-31.142 31.13,-31.142 17.19,0 31.14,13.949 31.14,31.142 z"
         inkscape:connector-curvature="0" />
      <path
         id="path2326"
         style="fill:#b33283;fill-rule:evenodd"
         transform="matrix(0.2449,-0.1007,0.20634,0.31413,238.73,191.67)"
         d="m 172.45,111.87 c 0,17.18 -13.95,31.13 -31.14,31.13 -17.18,0 -31.13,-13.95 -31.13,-31.13 0,-17.193 13.95,-31.142 31.13,-31.142 17.19,0 31.14,13.949 31.14,31.142 z"
         inkscape:connector-curvature="0" />
      <path
         id="path2327"
         style="fill:#b33283;fill-rule:evenodd"
         transform="matrix(0.22066,-0.14638,0.26346,0.26803,219.07,252)"
         d="m 172.45,111.87 c 0,17.18 -13.95,31.13 -31.14,31.13 -17.18,0 -31.13,-13.95 -31.13,-31.13 0,-17.193 13.95,-31.142 31.13,-31.142 17.19,0 31.14,13.949 31.14,31.142 z"
         inkscape:connector-curvature="0" />
      <path
         id="path2328"
         style="fill:#b33283;fill-rule:evenodd"
         transform="matrix(0.24651,-0.096688,0.20119,0.31745,252.04,236.63)"
         d="m 172.45,111.87 c 0,17.18 -13.95,31.13 -31.14,31.13 -17.18,0 -31.13,-13.95 -31.13,-31.13 0,-17.193 13.95,-31.142 31.13,-31.142 17.19,0 31.14,13.949 31.14,31.142 z"
         inkscape:connector-curvature="0" />
      <path
         id="path2329"
         style="fill:#b33283;fill-rule:evenodd"
         transform="matrix(0.22066,-0.14638,0.26346,0.26803,142.83,194.11)"
         d="m 172.45,111.87 c 0,17.18 -13.95,31.13 -31.14,31.13 -17.18,0 -31.13,-13.95 -31.13,-31.13 0,-17.193 13.95,-31.142 31.13,-31.142 17.19,0 31.14,13.949 31.14,31.142 z"
         inkscape:connector-curvature="0" />
      <path
         id="path2331"
         style="fill:#b33283;fill-rule:evenodd"
         transform="matrix(0.24171,-0.10813,0.21585,0.30768,258.13,284.52)"
         d="m 172.45,111.87 c 0,17.18 -13.95,31.13 -31.14,31.13 -17.18,0 -31.13,-13.95 -31.13,-31.13 0,-17.193 13.95,-31.142 31.13,-31.142 17.19,0 31.14,13.949 31.14,31.142 z"
         inkscape:connector-curvature="0" />
      <path
         id="path2332"
         style="fill:#b33283;fill-rule:evenodd"
         transform="matrix(0.18908,-0.18538,0.3093,0.21351,84.744,177.96)"
         d="m 172.45,111.87 c 0,17.18 -13.95,31.13 -31.14,31.13 -17.18,0 -31.13,-13.95 -31.13,-31.13 0,-17.193 13.95,-31.142 31.13,-31.142 17.19,0 31.14,13.949 31.14,31.142 z"
         inkscape:connector-curvature="0" />
      <path
         id="path2333"
         style="fill:#b33283;fill-rule:evenodd"
         transform="matrix(0.22066,-0.14638,0.26346,0.26803,219.05,300.95)"
         d="m 172.45,111.87 c 0,17.18 -13.95,31.13 -31.14,31.13 -17.18,0 -31.13,-13.95 -31.13,-31.13 0,-17.193 13.95,-31.142 31.13,-31.142 17.19,0 31.14,13.949 31.14,31.142 z"
         inkscape:connector-curvature="0" />
      <path
         id="path2334"
         style="fill:#b33283;fill-rule:evenodd"
         transform="matrix(0.24953,-0.088601,0.19074,0.32384,262.17,326.57)"
         d="m 172.45,111.87 c 0,17.18 -13.95,31.13 -31.14,31.13 -17.18,0 -31.13,-13.95 -31.13,-31.13 0,-17.193 13.95,-31.142 31.13,-31.142 17.19,0 31.14,13.949 31.14,31.142 z"
         inkscape:connector-curvature="0" />
      <path
         id="path2335"
         style="fill:#b33283;fill-rule:evenodd"
         transform="matrix(0.18908,-0.18538,0.3093,0.21351,44.072,153.33)"
         d="m 172.45,111.87 c 0,17.18 -13.95,31.13 -31.14,31.13 -17.18,0 -31.13,-13.95 -31.13,-31.13 0,-17.193 13.95,-31.142 31.13,-31.142 17.19,0 31.14,13.949 31.14,31.142 z"
         inkscape:connector-curvature="0" />
      <path
         id="path2337"
         style="fill:#b33283;fill-rule:evenodd"
         transform="matrix(0.22066,-0.14638,0.26346,0.26803,171.68,283.34)"
         d="m 172.45,111.87 c 0,17.18 -13.95,31.13 -31.14,31.13 -17.18,0 -31.13,-13.95 -31.13,-31.13 0,-17.193 13.95,-31.142 31.13,-31.142 17.19,0 31.14,13.949 31.14,31.142 z"
         inkscape:connector-curvature="0" />
      <path
         id="path2338"
         style="fill:#b33283;fill-rule:evenodd"
         transform="matrix(0.22066,-0.14638,0.26346,0.26803,105.52,217.29)"
         d="m 172.45,111.87 c 0,17.18 -13.95,31.13 -31.14,31.13 -17.18,0 -31.13,-13.95 -31.13,-31.13 0,-17.193 13.95,-31.142 31.13,-31.142 17.19,0 31.14,13.949 31.14,31.142 z"
         inkscape:connector-curvature="0" />
    </g>
  </g>
  <metadata
     id="metadata109">
    <rdf:RDF>
      <cc:Work>
        <dc:format>image/svg+xml</dc:format>
        <dc:type
           rdf:resource="http://purl.org/dc/dcmitype/StillImage" />
        <cc:license
           rdf:resource="http://creativecommons.org/publicdomain/zero/1.0/" />
        <dc:publisher>
          <cc:Agent
             rdf:about="http://openclipart.org/">
            <dc:title>OpenClipart</dc:title>
          </cc:Agent>
        </dc:publisher>
        <dc:title>grape</dc:title>
        <dc:date>2008-05-26T11:53:24</dc:date>
        <dc:description />
        <dc:source>https://openclipart.org/detail/17012</dc:source>
        <dc:creator>
          <cc:Agent>
            <dc:title>Jean Victor Balin</dc:title>
          </cc:Agent>
        </dc:creator>
        <dc:subject>
          <rdf:Bag>
            <rdf:li>fruit</rdf:li>
            <rdf:li>grape</rdf:li>
            <rdf:li>wine</rdf:li>
          </rdf:Bag>
        </dc:subject>
      </cc:Work>
      <cc:License
         rdf:about="http://creativecommons.org/publicdomain/zero/1.0/">
        <cc:permits
           rdf:resource="http://creativecommons.org/ns#Reproduction" />
        <cc:permits
           rdf:resource="http://creativecommons.org/ns#Distribution" />
        <cc:permits
           rdf:resource="http://creativecommons.org/ns#DerivativeWorks" />
      </cc:License>
    </rdf:RDF>
  </metadata>
</svg>