<?xml version="1.0" encoding="utf-8"?>
<!-- Uploaded to: SVG Repo, www.svgrepo.com, Generator: SVG Repo Mixer Tools -->
<svg width="800px" height="800px" viewBox="0 0 1024 1024" class="icon"  version="1.1" xmlns="http://www.w3.org/2000/svg"><path d="M389.451165 572.581247l155.727839 372.526341h-0.704433l155.257875-372.526341z" fill="#F9AC82" /><path d="M540.245924 835.182236c-5.637513 0-10.805062-3.28872-12.918361-8.690739l-85.028556-204.349081c-3.053226-7.281872 0.469963-15.502648 7.516342-18.32038 7.281872-3.053226 15.502648 0.469963 18.321404 7.516342l85.028556 204.349081c3.053226 7.281872-0.469963 15.502648-7.516342 18.321404-1.87883 0.937879-3.758683 1.173373-5.403043 1.173373z" fill="#F8BC95" /><path d="M746.709329 443.395588c-5.637513 0-10.805062 1.174396-15.737118 3.288719 12.448398-26.542179 19.260307-55.902091 19.260307-87.141856 0-113.684035-92.074936-205.758971-205.758971-205.758971S338.714576 245.858416 338.714576 359.542451c0 31.239765 7.046379 60.83517 19.260307 87.141856-4.933079-2.114323-10.099605-3.28872-15.737118-3.288719-21.844593 0-39.69501 17.851441-39.69501 39.69501s17.851441 39.69501 39.69501 39.69501c7.750812 0 15.032684-2.348793 21.139137-6.107476-3.993153 6.107476-6.107476 13.388325-6.107476 21.139136 0 21.844593 17.851441 39.69501 39.69501 39.695011 13.388325 0 25.367783-6.811909 32.648631-16.911514-0.23447 1.408866-0.23447 3.053226-0.234469 4.463116 0 21.844593 17.851441 39.69501 39.69501 39.69501 15.972611 0 29.595405-9.395172 35.937351-22.783496-0.23447 1.408866-0.23447 2.818756-0.23447 4.227622 0 21.844593 17.851441 39.69501 39.69501 39.69501s39.69501-17.851441 39.69501-39.69501c0-1.408866 0-2.818756-0.234469-4.227622 6.341946 13.388325 19.96474 22.783496 35.937351 22.783496 21.844593 0 39.69501-17.851441 39.69501-39.69501 0-1.408866 0-3.053226-0.23447-4.463116 7.281872 10.335098 19.025837 16.911514 32.648631 16.911514 21.844593 0 39.69501-17.851441 39.695011-39.695011 0-7.750812-2.348793-15.032684-6.107476-21.139136 6.107476 3.757659 13.388325 6.107476 21.139136 6.107476 21.844593 0 39.69501-17.851441 39.69501-39.69501s-17.846321-39.69501-39.690914-39.69501z" fill="#0083BF" /><path d="M384.988049 397.593102c-6.811909 0-12.683891-4.933079-13.858288-11.743965-7.516342-45.802486 3.28872-91.604972 30.535333-129.186683 27.012143-37.581711 67.177116-62.47953 112.744108-69.760379 7.750812-1.174396 15.032684 3.993153 16.207081 11.743965 1.174396 7.750812-3.993153 15.032684-11.743965 16.20708-38.286144 6.341946-71.874702 27.012143-94.423728 58.486378s-31.709729 69.995872-25.367783 108.282016c1.174396 7.750812-3.993153 15.032684-11.743965 16.207081-0.939927-0.470987-1.64436-0.235494-2.348793-0.235493z" fill="#0095DA" /><path d="M622.690195 181.029069m-70.464812 0a70.464812 70.464812 0 1 0 140.929624 0 70.464812 70.464812 0 1 0-140.929624 0Z" fill="#EE3544" /><path d="M652.991057 193.948454c-0.704433 0-1.174396 0-1.87883-0.23447-7.750812-0.939927-13.153855-7.986306-12.213928-15.737117 1.174396-8.690739-7.986306-11.979458-10.805061-12.683892-7.516342-2.114323-11.979458-9.630665-9.865136-17.147007 1.87883-7.516342 9.865135-11.979458 17.381478-10.099605 1.408866 0.469963 9.160702 2.583263 16.44155 8.456269 11.274001 8.690739 16.677044 21.37463 14.798215 35.232918-0.705457 7.045355-6.811909 12.212904-13.858288 12.212904z" fill="#F15C5C" /><path d="M752.816805 429.5373c7.516342-22.549027 11.509495-46.036956 11.509494-70.230342 0-58.956341-23.487929-112.744109-61.305133-152.204649 2.583263-8.220775 4.227623-16.911514 4.227622-26.072216 0-27.951045-13.858288-52.848865-34.762954-68.351513 5.167549-7.750812 14.562721-17.851441 31.004271-22.079063 7.516342-1.87883 11.979458-9.630665 10.099605-17.147008-1.87883-7.516342-9.630665-11.979458-17.147008-10.099605-26.776649 7.046379-41.574864 24.193386-49.091205 36.877278-7.750812-2.348793-15.971587-3.523189-24.427856-3.523189-31.474235 0-59.190811 17.381477-73.519062 43.218199h-4.463116c-121.200378 0-219.851729 98.651351-219.851729 219.851729 0 24.193386 3.758683 47.681316 11.509495 70.230342-26.776649 3.053226-47.446846 25.837746-47.446846 53.553298 0 29.595405 24.193386 53.788792 53.788792 53.788792h0.939926v0.939927c0 24.193386 15.972611 44.62809 37.816181 51.439998l149.385893 357.493657c0.23447 2.114323 0.939927 4.227623 2.348793 6.107476 2.583263 3.993153 7.046379 6.341946 11.743964 6.341946h0.704433c4.697586 0 9.160702-2.348793 11.743965-6.341946 1.174396-1.87883 2.114323-3.993153 2.348793-6.107476L708.890076 589.729278c21.844593-6.811909 37.816181-27.246612 37.816181-51.439998v-0.939927h0.939927c29.595405 0 53.788792-24.193386 53.788791-53.788792-0.936855-27.951045-21.841522-50.735566-48.61817-54.023261zM622.690195 124.892508c7.986306 0 15.502648 1.64436 22.313533 4.697586 1.408866 1.174396 2.818756 1.87883 4.697585 2.583263 0.23447 0 0.469963 0 0.704434 0.234469 17.147008 9.630665 28.655479 27.951045 28.655478 49.091206 0 31.004272-25.367783 56.372054-56.372054 56.372054-31.004272 0-56.372054-25.367783-56.372055-56.372054s25.368807-56.606524 56.373079-56.606524z m-77.981154 782.868863L411.764698 589.728254c2.818756-0.704433 5.402019-1.87883 7.986306-3.053226 8.220775 19.025837 27.246612 32.179692 49.325675 32.179692 9.865135 0 19.4958-2.818756 27.716576-7.750812 8.925208 17.147008 27.012143 28.890972 47.681316 28.890973s38.756107-11.743965 47.681316-28.890973c8.220775 4.933079 17.851441 7.750812 27.716575 7.750812 22.079063 0 40.869407-13.153855 49.325676-32.179692 2.583263 1.174396 5.167549 2.114323 7.986305 3.053226L544.709041 907.761371z m202.000288-399.068521c-4.697586 0-9.395172-1.408866-13.622795-3.993152-5.637513-3.523189-12.918361-2.583263-17.381477 1.878829-4.697586 4.697586-5.402019 11.979458-1.87883 17.381477 2.583263 4.227623 3.993153 8.925208 3.993153 13.622795 0 14.092758-11.509495 25.602253-25.602252 25.602252-8.220775 0-16.207081-3.993153-20.904667-11.039531-3.757659-5.167549-10.569568-7.281872-16.441551-5.16755s-9.630665 8.456269-8.925208 14.798215c0.23447 1.174396 0.23447 2.114323 0.23447 2.818756 0 14.092758-11.509495 25.602253-25.602253 25.602253-9.865135 0-19.025837-5.871982-23.253459-14.798215-2.818756-6.107476-9.865135-9.395172-16.441551-7.516342s-11.039532 8.220775-10.099605 15.032684c0 0.939927 0.23447 1.87883 0.23447 2.583263 0 14.092758-11.509495 25.602253-25.602253 25.602253s-25.602253-11.509495-25.602252-25.602253c0-0.939927 0-1.87883 0.23447-2.818756 0.704433-6.811909-3.523189-13.153855-10.335099-15.032684-1.174396-0.469963-2.583263-0.469963-3.757659-0.469964-5.402019 0-10.335098 3.053226-12.683891 7.986306-4.227623 8.925208-13.388325 14.798215-23.25346 14.798214-14.092758 0-25.602253-11.509495-25.602253-25.602252 0-0.939927 0-1.87883 0.23447-2.818757 0.704433-6.341946-3.053226-12.448398-8.925208-14.798214-6.107476-2.348793-12.918361-0.23447-16.441551 5.167549-4.697586 6.811909-12.683891 11.039532-20.904666 11.039532-14.092758 0-25.602253-11.509495-25.602253-25.602253 0-4.697586 1.408866-9.630665 3.993153-13.622794 3.523189-5.637513 2.818756-12.918361-1.87883-17.381477-4.697586-4.697586-11.979458-5.402019-17.381477-1.87883-3.993153 2.583263-8.690739 3.993153-13.622794 3.993153-14.092758 0-25.602253-11.509495-25.602253-25.602253s11.509495-25.602253 25.602253-25.602252c3.523189 0 6.811909 0.704433 10.099605 2.114323 5.402019 2.348793 11.509495 1.174396 15.737117-3.053226 3.993153-4.227623 5.167549-10.569568 2.583263-15.737118-11.979458-25.602253-18.08591-52.848865-18.085911-81.269873 0-103.8189 83.148703-188.611963 186.263171-191.43072-0.704433 4.227623-0.939927 8.690739-0.939927 13.153855 0 46.506919 37.816181 84.558593 84.558594 84.558593 26.776649 0 50.734542-12.448398 66.237189-31.944198 29.360936 33.588558 47.446846 77.746684 47.446846 125.897963 0 28.421009-6.107476 55.667621-18.08591 81.269874-2.583263 5.402019-1.408866 11.509495 2.583262 15.737117s10.335098 5.402019 15.737118 3.053227c3.28872-1.408866 6.576415-2.114323 10.099605-2.114324 14.092758 0 25.602253 11.509495 25.602252 25.602253-1.410914 14.092758-12.919385 25.602253-27.013166 25.602252z" fill="#1A3F6F" /></svg>