<?xml version="1.0" encoding="iso-8859-1"?>
<!-- Uploaded to: SVG Repo, www.svgrepo.com, Generator: SVG Repo Mixer Tools -->
<svg height="800px" width="800px" version="1.1" id="Layer_1" xmlns="http://www.w3.org/2000/svg" xmlns:xlink="http://www.w3.org/1999/xlink" 
	 viewBox="0 0 511.999 511.999" xml:space="preserve">
<g>
	<path style="fill:#FC4C59;" d="M308.436,511.999c-2.486,0-4.952-1.06-6.673-3.114c-6.084-7.269-9.967-15.242-11.542-23.699
		c-1.274-6.833-0.662-11.901-0.17-15.974c0.401-3.322,0.582-5.146,0.001-7.095c-1.954-6.542-11.677-11.105-19.492-13.781
		c-4.544-1.556-6.966-6.5-5.41-11.044s6.506-6.966,11.044-5.409c16.986,5.817,27.256,14.316,30.522,25.261
		c1.643,5.506,1.089,10.098,0.602,14.151c-0.404,3.339-0.784,6.494,0.001,10.705c1.023,5.484,3.641,10.774,7.781,15.722
		c3.083,3.684,2.596,9.168-1.088,12.25C312.386,511.334,310.406,511.999,308.436,511.999z"/>
	<path style="fill:#FC4C59;" d="M202.479,496.675c-2.346,0-4.684-0.943-6.399-2.805c-3.253-3.532-3.027-9.033,0.506-12.288
		c3.818-3.518,6.574-7.47,8.192-11.75c1.543-4.084,1.68-7.44,1.825-10.995c0.194-4.761,0.414-10.158,4.18-15.61
		c5.209-7.54,14.81-11.515,28.537-11.813c4.818-0.122,8.778,3.702,8.884,8.504c0.106,4.801-3.702,8.779-8.504,8.884
		c-7.503,0.163-12.827,1.736-14.607,4.312c-0.824,1.194-0.96,2.712-1.112,6.432c-0.167,4.102-0.395,9.721-2.932,16.434
		c-2.583,6.836-6.849,13.025-12.679,18.396C206.698,495.914,204.585,496.675,202.479,496.675z"/>
</g>
<path style="fill:#FFDB6C;" d="M354.481,183.637c13.213,19.269,20.945,42.593,20.945,67.722
	c0,66.215-53.677,119.891-119.891,119.891s-119.891-53.676-119.891-119.89c0-24.83,8.012-48.58,20.939-67.715"/>
<path style="fill:#FFB966;" d="M354.481,183.637l-197.899,0.007c-4.774,7.066-8.871,14.765-12.149,22.911l161.734-0.006
	c17.757-0.001,33.672,11.138,39.57,27.886c4.389,12.463,6.776,25.87,6.776,39.835c0,27.266-9.108,52.4-24.438,72.542
	c28.772-21.9,47.35-56.504,47.35-95.453C375.425,226.23,367.694,202.906,354.481,183.637z"/>
<path style="fill:#FFDB6C;" d="M273.043,494.003v-56.561h-35.089v56.561c0,8.84,7.165,16.005,16.005,16.005h3.078
	C265.878,510.009,273.043,502.843,273.043,494.003z"/>
<path style="fill:#FC4C59;" d="M255.806,336.468h-0.541c-20.257,0-36.68-16.421-36.68-36.68l0,0h73.901l0,0
	C292.484,320.045,276.063,336.468,255.806,336.468z"/>
<path style="fill:#E83A64;" d="M218.584,299.788L218.584,299.788c0,4.197,0.714,8.225,2.013,11.981h69.876
	c1.297-3.756,2.013-7.784,2.013-11.981l0,0H218.584z"/>
<path style="fill:#FFB966;" d="M237.956,459.151c5.525,1.848,11.431,2.865,17.579,2.865c6.122,0,12.004-1.008,17.509-2.842v-21.733
	h-35.088V459.151z"/>
<circle style="fill:#FD4DD7;" cx="255.534" cy="406.624" r="35.371"/>
<path style="fill:#E846AA;" d="M255.499,383.811c17.39,0,31.838,12.554,34.804,29.09c0.365-2.039,0.567-4.136,0.567-6.281
	c0-19.535-15.836-35.371-35.371-35.371c-19.535,0-35.371,15.836-35.371,35.371c0,2.145,0.202,4.241,0.567,6.281
	C223.662,396.365,238.11,383.811,255.499,383.811z"/>
<g>
	<circle style="fill:#F2F2F2;" cx="206.779" cy="237.817" r="22.076"/>
	<circle style="fill:#F2F2F2;" cx="303.965" cy="237.817" r="22.076"/>
</g>
<g>
	<circle style="fill:#7C54B8;" cx="206.941" cy="237.817" r="8.696"/>
	<circle style="fill:#7C54B8;" cx="304.127" cy="237.817" r="8.696"/>
</g>
<path id="SVGCleanerId_0" style="fill:#FD4DD7;" d="M355.831,132.627H154.916c-6.2,0-11.226,5.026-11.226,11.226v29.724
	c0,6.2,5.026,11.226,11.226,11.226h200.916c6.2,0,11.226-5.026,11.226-11.226v-29.724
	C367.057,137.653,362.031,132.627,355.831,132.627z"/>
<g>
	<path id="SVGCleanerId_0_1_" style="fill:#FD4DD7;" d="M355.831,132.627H154.916c-6.2,0-11.226,5.026-11.226,11.226v29.724
		c0,6.2,5.026,11.226,11.226,11.226h200.916c6.2,0,11.226-5.026,11.226-11.226v-29.724
		C367.057,137.653,362.031,132.627,355.831,132.627z"/>
</g>
<path style="fill:#E846AA;" d="M356.107,132.627h-34.959c6.2,0,11.226,5.026,11.226,11.226v29.724c0,6.2-5.026,11.226-11.226,11.226
	h34.959c6.2,0,11.226-5.026,11.226-11.226v-29.724C367.333,137.653,362.307,132.627,356.107,132.627z"/>
<path style="fill:#674799;" d="M162.848,132.627h92.801v-21.051c0-60.742-48.571-111.054-109.311-111.572
	c-43.675-0.372-81.541,24.65-99.73,61.19c-3.685,7.403,4.895,15.036,11.805,10.492c11.48-7.549,25.22-11.942,39.986-11.942
	C138.652,59.743,162.848,92.374,162.848,132.627z"/>
<path style="fill:#7C54B8;" d="M162.848,132.627h46.586c-6.663-54.411-23.702-87.178-80.1-97.84
	c-31.716-5.996-61.369,13.329-81.704,35.191c2.459,2.958,6.887,4.269,10.784,1.707C69.892,64.135,83.632,59.742,98.4,59.742
	C138.652,59.743,162.848,92.374,162.848,132.627z"/>
<path style="fill:#3CC247;" d="M347.976,132.627h-92.557v-21.051c0-60.742,48.571-111.054,109.311-111.572
	c43.675-0.372,81.541,24.65,99.73,61.19c3.685,7.403-4.895,15.036-11.805,10.492c-11.48-7.549-25.22-11.942-39.986-11.942
	C372.416,59.743,347.976,92.374,347.976,132.627z"/>
<path style="fill:#2DA85F;" d="M375.559,31.31c-54.41,13.367-75.611,45.27-80.712,101.319h53.128
	c0-40.253,24.44-72.884,64.693-72.884c14.767,0,28.507,4.393,39.986,11.942c3.097,2.037,6.528,1.623,9.04-0.116
	C441.285,46.761,409.261,23.029,375.559,31.31z"/>
<g>
	<circle style="fill:#FFDB6C;" cx="36.729" cy="83.701" r="17.392"/>
	<circle style="fill:#FFDB6C;" cx="475.264" cy="82.774" r="17.392"/>
</g>
<g>
	<path style="fill:#FFB966;" d="M36.729,66.314c-0.892,0-1.761,0.088-2.618,0.218c6.066,2.715,10.3,8.793,10.3,15.87
		c0,8.713-6.414,15.909-14.774,17.174c2.168,0.97,4.564,1.522,7.092,1.522c9.605,0,17.392-7.787,17.392-17.392
		C54.121,74.1,46.334,66.314,36.729,66.314z"/>
	<path style="fill:#FFB966;" d="M475.27,65.387c-0.892,0-1.761,0.088-2.618,0.218c6.066,2.715,10.299,8.793,10.299,15.87
		c0,8.713-6.414,15.909-14.774,17.174c2.168,0.97,4.564,1.522,7.092,1.522c9.605,0,17.392-7.787,17.392-17.392
		S484.875,65.387,475.27,65.387z"/>
</g>
<g>
	<circle style="fill:#FFDB6C;" cx="185.734" cy="158.719" r="8.696"/>
	<circle style="fill:#FFDB6C;" cx="220.692" cy="158.719" r="8.696"/>
	<circle style="fill:#FFDB6C;" cx="255.65" cy="158.719" r="8.696"/>
	<circle style="fill:#FFDB6C;" cx="290.608" cy="158.719" r="8.696"/>
	<circle style="fill:#FFDB6C;" cx="325.566" cy="158.719" r="8.696"/>
</g>
</svg>