<?xml version="1.0" encoding="UTF-8" standalone="no"?>
<!-- Created with Inkscape (http://www.inkscape.org/) -->

<svg
   xmlns:dc="http://purl.org/dc/elements/1.1/"
   xmlns:cc="http://creativecommons.org/ns#"
   xmlns:rdf="http://www.w3.org/1999/02/22-rdf-syntax-ns#"
   xmlns:svg="http://www.w3.org/2000/svg"
   xmlns="http://www.w3.org/2000/svg"
   xmlns:sodipodi="http://sodipodi.sourceforge.net/DTD/sodipodi-0.dtd"
   xmlns:inkscape="http://www.inkscape.org/namespaces/inkscape"
   width="400"
   height="400"
   id="svg2"
   version="1.1"
   inkscape:version="0.48.5 r10040"
   sodipodi:docname="Shivaji.svg">
  <title
     id="title3816">Shivaji</title>
  <defs
     id="defs4">
    <inkscape:path-effect
       effect="skeletal"
       id="path-effect3812"
       is_visible="true"
       pattern="m 750,686.42858 c 0,-2.76 2.24,-5 5,-5 2.76,0 5,2.24 5,5 0,2.76 -2.24,5 -5,5 -2.76,0 -5,-2.24 -5,-5 z"
       copytype="single_stretched"
       prop_scale="1"
       scale_y_rel="false"
       spacing="0"
       normal_offset="0"
       tang_offset="0"
       prop_units="false"
       vertical_pattern="false"
       fuse_tolerance="0" />
  </defs>
  <sodipodi:namedview
     id="base"
     pagecolor="#ffffff"
     bordercolor="#666666"
     borderopacity="1.0"
     inkscape:pageopacity="0.0"
     inkscape:pageshadow="2"
     inkscape:zoom="0.7"
     inkscape:cx="486.2095"
     inkscape:cy="107.36088"
     inkscape:document-units="px"
     inkscape:current-layer="layer1"
     showgrid="false"
     inkscape:window-width="1366"
     inkscape:window-height="706"
     inkscape:window-x="-8"
     inkscape:window-y="-8"
     inkscape:window-maximized="1" />
  <metadata
     id="metadata7">
    <rdf:RDF>
      <cc:Work
         rdf:about="">
        <dc:format>image/svg+xml</dc:format>
        <dc:type
           rdf:resource="http://purl.org/dc/dcmitype/StillImage" />
        <dc:title>Shivaji</dc:title>
        <dc:subject>
          <rdf:Bag>
            <rdf:li>Shivaji Bhonsle</rdf:li>
            <rdf:li>Chatrapati Shivaji Maharaj</rdf:li>
            <rdf:li>Indian warrior king</rdf:li>
            <rdf:li>Maratha</rdf:li>
            <rdf:li>Maharashtra</rdf:li>
            <rdf:li>marathi</rdf:li>
            <rdf:li>19 February</rdf:li>
            <rdf:li>India</rdf:li>
            <rdf:li>Bharat</rdf:li>
            <rdf:li>Indian Leaders</rdf:li>
            <rdf:li>Maharaja</rdf:li>
          </rdf:Bag>
        </dc:subject>
        <dc:description>Chhatrapati Shivaji Maharaj (February 19, 1627 – April 3, 1680)

One of the most respected leader and King from India, an able administrator and founder of maratha empire  he ruled the Deccan region, parts of central India and parts of modern day Pakistan with a firm hand. The Mughal empire started facing a decline during his rule.</dc:description>
        <dc:date>2015-02-19</dc:date>
        <dc:creator>
          <cc:Agent>
            <dc:title>Srinivasbala</dc:title>
          </cc:Agent>
        </dc:creator>
        <cc:license
           rdf:resource="http://creativecommons.org/licenses/publicdomain/" />
      </cc:Work>
      <cc:License
         rdf:about="http://creativecommons.org/licenses/publicdomain/">
        <cc:permits
           rdf:resource="http://creativecommons.org/ns#Reproduction" />
        <cc:permits
           rdf:resource="http://creativecommons.org/ns#Distribution" />
        <cc:permits
           rdf:resource="http://creativecommons.org/ns#DerivativeWorks" />
      </cc:License>
    </rdf:RDF>
  </metadata>
  <g
     inkscape:label="Layer 1"
     inkscape:groupmode="layer"
     id="layer1"
     transform="translate(0,-652.36218)">
    <path
       style="fill:#000000"
       d="m 185.45002,968.95823 c 0,-8.15463 -48.48956,-53.16316 -60.42938,-56.0912 -12.01078,-2.94545 -13.41487,-7.25597 -4.27102,-13.1119 15.88969,-10.17615 43.10748,-29.05465 46.1728,-32.02586 1.79267,-1.73766 3.91707,-6.56912 4.72086,-10.73661 1.21972,-6.32398 0.36004,-8.09759 -5.19777,-10.72348 -7.31951,-3.45823 -11.99244,-13.14098 -10.4222,-21.59585 0.58009,-3.12346 -1.64407,-8.70371 -5.2309,-13.12395 -3.43207,-4.22948 -6.24011,-9.07912 -6.24011,-10.77696 0,-1.69786 -1.27348,-2.27088 -2.82994,-1.27337 -1.90438,1.22045 -2.26605,-0.0288 -1.10582,-3.81941 0.9483,-3.09817 0.62109,-5.63304 -0.72709,-5.63304 -1.3482,0 -3.18479,-3.03068 -4.08135,-6.73481 -0.89655,-3.70415 -2.66714,-6.0702 -3.93465,-5.25789 -1.2675,0.81232 -3.02704,0.26472 -3.91007,-1.21687 -0.88304,-1.4816 -3.83815,-2.6938 -6.56688,-2.6938 -2.72876,0 -4.96137,-1.62648 -4.96137,-3.61439 0,-1.98793 -3.10902,-6.8383 -6.90893,-10.77863 -5.74094,-5.95308 -6.3881,-7.91855 -3.82805,-11.62631 1.69447,-2.45415 4.23283,-7.23561 5.64079,-10.62548 3.41448,-8.22081 7.87785,-12.59156 15.37972,-15.06055 9.11767,-3.00075 22.87771,-12.7667 22.91422,-16.26295 0.04,-3.83756 -7.2095,-6.83395 -10.86551,-4.49093 -1.52211,0.97548 -7.4571,2.78222 -13.18889,4.01497 -5.73177,1.23278 -13.29703,2.86508 -16.81168,3.62737 -25.292401,5.48566 -50.844237,18.05954 -62.053907,30.53632 -4.988373,5.55223 -6.864622,6.09032 -10.795133,3.09593 -8.135971,-6.19827 -11.577373,-25.02898 -6.405529,-35.04976 5.954293,-11.53682 71.462159,-25.78403 84.626559,-18.4053 3.37177,1.88989 8.71402,3.73382 11.87165,4.09762 3.15764,0.3638 8.03411,1.41611 10.83663,2.33846 2.90784,0.95702 7.50135,-0.0705 10.69934,-2.39314 4.13326,-3.00203 6.48807,-3.30921 8.9732,-1.17053 2.53753,2.18379 3.36934,1.90309 3.36934,-1.13697 0,-3.00362 2.26925,-3.8179 8.86765,-3.18199 11.02648,1.06268 14.14813,2.99211 14.09816,8.71384 -0.034,3.89736 -0.39894,3.9634 -2.79723,0.50621 -2.29383,-3.30661 -2.50237,-3.15858 -1.2389,0.87943 0.83554,2.67039 1.51917,6.08259 1.51917,7.58267 0,1.50008 2.19506,-0.0836 4.87791,-3.51914 l 4.87792,-6.24658 -1.46113,7.92582 c -0.80361,4.3592 -3.5695,11.51084 -6.14641,15.89252 -5.86653,9.97525 -5.8479,10.8066 0.24214,10.8066 3.62526,0 7.03616,-4.76058 12.76951,-17.82244 4.30263,-9.80235 8.69061,-18.31196 9.75107,-18.91028 5.4148,-3.05503 44.48732,3.2957 53.85082,8.75273 9.54609,5.56345 9.8892,6.18458 6.01071,10.88169 -2.26231,2.7398 -7.08852,4.98145 -10.72496,4.98145 -5.97161,0 -19.78348,7.66719 -14.17254,7.86739 1.29948,0.0463 -0.25886,2.97787 -3.46291,6.51448 -10.28025,11.34716 -3.3802,11.78446 16.39546,1.0391 10.56674,-5.74159 19.21227,-9.62497 19.21227,-8.62973 0,0.99525 1.71044,0.33754 3.80095,-1.46155 2.34093,-2.01458 6.51385,-2.56062 10.86346,-1.42153 6.48279,1.69775 5.74167,2.29959 -9.02903,7.33238 -8.85031,3.01554 -15.16783,6.44062 -14.03889,7.61125 1.12892,1.17065 10.38305,2.34644 20.5647,2.61289 11.57398,0.3029 18.51257,1.58665 18.51336,3.42532 9e-4,2.00181 -7.23851,2.64919 -22.67179,2.0274 -20.31513,-0.81847 -23.62548,-0.26716 -31.83101,5.30112 -13.33298,9.04779 -15.18192,22.69919 -3.92076,28.94866 3.76557,2.08975 6.64419,1.40419 12.61456,-3.00419 6.45321,-4.76487 9.7262,-5.4023 19.7424,-3.84493 18.53897,2.88255 20.80197,4.86447 18.36222,16.08166 -2.61237,12.01095 -4.70314,14.20001 -8.48156,8.88024 -1.64237,-2.31235 -4.31854,-3.73847 -5.94703,-3.16911 -1.6285,0.56936 -3.70929,-0.22053 -4.62405,-1.75528 -3.03995,-5.10051 -6.86419,-2.94095 -5.08512,2.87156 1.56853,5.12467 1.03903,5.4867 -5.57898,3.81451 -4.02163,-1.01615 -11.72755,-4.84379 -17.1243,-8.50589 -5.6885,-3.86006 -11.56678,-5.96023 -13.98698,-4.9972 -2.70575,1.07667 -3.19685,2.31046 -1.39569,3.5065 1.52846,1.01492 3.64136,4.82721 4.69535,8.47173 1.05401,3.64452 4.25348,9.27511 7.10997,12.51244 4.26875,4.83792 4.62033,6.6023 1.97443,9.90823 -2.63629,3.29392 -2.4728,4.31917 0.9029,5.66242 2.26711,0.90212 4.12202,3.7705 4.12202,6.37417 0,2.60367 1.79827,5.44952 3.99617,6.3241 2.24347,0.89271 3.18926,2.944 2.15641,4.67694 -1.26634,2.12473 -0.12061,2.62066 3.67569,1.59119 3.03348,-0.82258 8.44582,-7.36487 7.65797,-6.04301 -0.78785,1.32185 -3.21417,9.35413 -1.0224,9.35413 2.19176,0 4.43189,0.79669 4.43189,-0.49501 0,-3.18066 15.77633,-12.81012 26.00239,-14.53091 5.75675,-0.96871 9.33255,-0.0999 11.68466,2.83892 2.95146,3.6877 2.19313,4.75307 -5.86982,8.24648 -10.00102,4.3331 -12.29508,9.24165 -4.31918,9.24165 2.84701,0 5.69731,2.47432 6.72749,5.84013 0.98316,3.21207 3.36116,7.4719 5.28448,9.46628 4.46456,4.62954 4.52663,17.61561 0.10223,21.42309 -4.08391,3.51459 -36.42079,8.5943 -41.59748,6.53443 -2.01619,-0.80228 -7.17713,0.0495 -11.46874,1.89281 -6.41133,2.7538 -7.53409,4.4621 -6.29565,9.57882 2.08638,8.61993 -0.67247,7.79956 -10.25588,-3.04967 -12.93548,-14.64411 -25.01881,-11.40421 -14.66042,3.93091 2.39092,3.53965 4.543,8.27786 4.7824,10.52938 0.23951,2.25149 1.37419,6.47913 2.52172,9.39475 1.9199,4.87793 1.7094,4.98372 -2.63693,1.32528 -4.465,-3.75833 -4.52745,-3.64959 -1.14178,1.98791 1.96988,3.28007 5.67333,5.96376 8.22981,5.96376 2.55653,0 3.97298,1.13291 3.14773,2.51758 -0.8253,1.38464 1.06479,3.9412 4.20014,5.68119 4.23475,2.35014 5.95118,2.38433 6.67486,0.13305 1.41484,-4.40131 4.86108,-3.71271 6.73284,1.34529 2.21821,5.99416 -7.03106,14.6895 -13.07722,12.29395 -5.10201,-2.02151 -45.20265,-31.14739 -53.01875,-38.50869 -5.53807,-5.21582 -9.10342,-6.00549 -9.10342,-2.01628 0,5.19838 -3.92407,2.44103 -9.71435,-6.82603 -4.2841,-6.85648 -7.4063,-9.18582 -11.50249,-8.58151 -3.09225,0.4562 -7.63521,-1.25786 -10.09547,-3.80902 -2.46024,-2.55117 -5.6639,-4.63848 -7.11924,-4.63848 -4.66622,0 11.04559,4.83893 18.23069,8.53844 1.10372,0.56829 4.86533,10.30848 14.0162,20.98505 139.58924,162.86267 6.18468,44.36309 6.18468,43.3658 z m 33.22939,-47.38443 c 0,-0.55041 -2.01294,-2.63772 -4.47319,-4.63848 -4.05414,-3.29695 -4.14454,-3.2032 -0.96507,1.00074 3.33921,4.41517 5.43826,5.81925 5.43826,3.63774 z m 78.72809,-49.89 c 5.07003,-5.25738 3.51549,-9.23649 -5.04497,-12.91337 -7.66596,-3.29269 -24.11136,-4.38627 -26.63338,-1.77107 -2.47138,2.5627 2.43508,10.24962 8.84866,13.86317 8.303,4.67809 18.74795,5.05384 22.82969,0.82127 z m -20.57666,-89.5527 c 3.16317,-0.0198 5.75125,-1.22893 5.75125,-2.68675 0,-4.17941 -13.83776,-3.08937 -19.3213,1.522 -4.78886,4.02718 -4.73906,4.1208 1.42855,2.68676 3.51463,-0.81721 8.97831,-1.5021 12.1415,-1.52201 z m -40.25868,-55.85436 c 0,-1.54384 -1.15025,-2.06981 -2.55611,-1.16885 -1.40587,0.90098 -2.55612,2.16413 -2.55612,2.80699 0,0.64287 1.15025,1.16885 2.55612,1.16885 1.40586,0 2.55611,-1.26315 2.55611,-2.80699 z m 2.55086,-9.695 c 0.70004,-0.64993 -2.17557,-0.40711 -6.39027,0.53961 -6.9257,1.55568 -7.23263,1.35699 -3.18989,-2.06468 6.35747,-5.38078 5.54589,-7.01643 -2.38954,-4.81575 -7.6069,2.10957 -11.21736,8.24057 -4.85276,8.24057 2.22593,0 4.04716,1.23472 4.04716,2.74382 0,2.4252 8.48239,-0.65799 12.7753,-4.64357 z M 49.976343,939.70993 c 0,-0.7802 1.896181,-4.41943 4.213743,-8.08716 7.987073,-12.64025 65.670034,-31.24657 65.670034,-21.19308 0,3.79327 -39.10595,17.08895 -47.130456,18.20502 -6.571006,0.91393 -11.86552,3.51409 -14.203527,6.97541 -3.410972,5.04979 -8.549794,7.51396 -8.549794,4.09981 z M 276.0867,917.09707 c -2.75106,-4.61579 0.38219,-5.59331 3.888,-1.21298 2.01612,2.51904 83.1025,28.94222 81.40754,28.94222 -1.49501,0 -84.36884,-26.17444 -85.29554,-27.72924 z m 19.75073,-90.08824 c -3.39538,-1.41207 -5.16493,-3.71943 -4.15367,-5.41609 1.182,-1.98318 2.29733,-2.05741 3.38914,-0.22554 0.89505,1.50174 5.51726,2.52364 10.27156,2.2709 4.96631,-0.26402 9.12262,0.95016 9.76863,2.85368 1.33388,3.93045 -10.31658,4.24296 -19.27566,0.51705 z m 8.48401,-40.4536 c -1.1352,-2.77649 -0.76093,-6.0697 0.88358,-7.77497 3.93746,-4.08297 4.99326,-1.89121 2.87356,5.9652 -1.58129,5.86079 -2.01539,6.06989 -3.75714,1.80977 z m -121.42753,-61.2909 c 0,-0.64288 1.15026,-1.90602 2.55611,-2.80699 1.40586,-0.90099 2.5561,-0.375 2.5561,1.16884 0,1.54384 -1.15024,2.80699 -2.5561,2.80699 -1.40585,0 -2.55611,-0.52599 -2.55611,-1.16884 z"
       id="path3024"
       inkscape:connector-curvature="0"
       sodipodi:nodetypes="ssssssssssssssssssssssssssssssssssssssscssssssssssssssssscsssssssscsssssssssssssssssssssscssssscsssscssscsssssssssssssssssssssssssssssssssssssssssssssssssssssssssssss" />
    <path
       style="fill:#000000;stroke:#000000;stroke-width:0;stroke-linecap:butt;stroke-linejoin:miter;stroke-miterlimit:4;stroke-opacity:1;stroke-dasharray:none"
       d="m 293.35442,770.56399 c 1.09044,0.37934 -1.10677,-0.3269 0,0 1.48262,0.43794 6.29459,4.82751 8.09996,-1.09771 -0.51602,9.83035 -7.04029,3.26415 -8.09996,1.09771 z"
       id="path3032"
       inkscape:connector-curvature="0"
       sodipodi:nodetypes="cscc" />
    <path
       style="fill:#ffffff;fill-opacity:1;stroke:#312626;stroke-width:0;stroke-miterlimit:4;stroke-opacity:1;stroke-dasharray:none;stroke-dashoffset:0"
       d="m 206.53421,833.8539 c -0.36029,-0.22763 -0.72818,-0.39861 -1.10646,-0.56471 2.47702,2.24488 2.93741,6.40883 0.92796,9.82865 -0.48948,0.83306 -1.08543,1.55411 -1.74957,2.14617 -1.99754,-0.47122 -3.99984,0.20266 -4.97729,1.86619 -0.0144,0.0213 -0.0266,0.0429 -0.0378,0.0652 -1.04524,-0.0299 -2.07648,-0.30988 -3.00226,-0.89464 -2.97635,-1.88049 -3.8476,-6.09652 -2.13138,-9.72044 -0.19208,0.26585 -0.37496,0.54584 -0.54532,0.83582 -2.72592,4.63915 -1.49476,10.56958 2.74509,13.24836 0.98632,0.62324 2.04992,1.00149 3.13408,1.1784 0.4648,0.79476 1.13693,1.52012 1.99177,2.0602 2.47325,1.56264 5.51392,1.05429 6.79175,-1.12068 0.80374,-1.36786 0.71816,-3.07711 -0.0712,-4.54367 0.27401,-0.35209 0.5325,-0.72151 0.76626,-1.11933 2.72593,-4.63917 1.5043,-10.58584 -2.73553,-13.26462 z"
       id="path3802"
       inkscape:connector-curvature="0" />
    <path
       style="fill:#000000;fill-rule:evenodd;stroke:none"
       d="m 270.59369,916.57106 c -0.0656,-0.45106 0.41048,-0.97119 1.38715,-1.51857 0.97667,-0.54738 2.45477,-1.12136 4.38884,-1.63086 3.86815,-1.01901 9.5968,-1.80447 16.54248,-1.19952 2.93785,0.26405 6.05465,0.78579 9.25687,1.59833 3.20222,0.81253 6.48927,1.91603 9.76187,3.30342 1.40514,0.5987 2.80425,1.24127 4.19461,1.9214 5.74166,2.80868 10.79652,5.96518 15.25841,8.87578 4.46189,2.9106 8.3432,5.57379 11.62437,7.78006 1.53927,1.01441 3.17563,1.97717 4.59162,2.96167 1.41599,0.98451 2.61477,1.98275 3.48674,2.91318 0.87198,0.93043 1.42323,1.78484 1.68168,2.45077 0.25845,0.66594 0.2314,1.13788 -0.0182,1.37863 -0.24965,0.24075 -0.70412,0.24339 -1.32912,0.10937 -0.62499,-0.13402 -1.42376,-0.39613 -2.44399,-0.69717 -1.02023,-0.30105 -2.26808,-0.63289 -3.8002,-1.04696 -1.53211,-0.41407 -3.3553,-0.90509 -5.4359,-1.76749 -3.88235,-1.50785 -8.31534,-3.64051 -13.03281,-6.12199 -4.71746,-2.48148 -9.71328,-5.30085 -14.9662,-7.8643 -1.272,-0.62074 -2.53161,-1.21136 -3.77992,-1.76662 -5.75771,-2.57565 -11.33102,-4.41102 -16.34162,-5.53968 -5.9325,-1.35497 -11.15165,-1.82738 -14.88769,-2.29386 -1.86802,-0.23323 -3.36899,-0.45984 -4.42009,-0.74993 -1.0511,-0.29009 -1.65327,-0.6446 -1.71885,-1.09566 z"
       id="path3810" />
    <path
       style="opacity:0;fill:#ffffff;fill-opacity:1;stroke:#312626;stroke-width:0;stroke-miterlimit:4;stroke-dashoffset:0;stroke-opacity:1"
       d="m 21.54874,694.1828 365.67523,0 0,338.4011 -365.67523,0 z"
       id="rect3814" />
    <path
       style="fill:#170707;fill-opacity:0;stroke:#070000;stroke-width:1.12282729;stroke-miterlimit:4;stroke-opacity:1;stroke-dasharray:none;stroke-dashoffset:0"
       d="m 291.50104,760.55526 c 5.36741,1.4004 9.00712,1.75788 10.49932,0.81897 0.31975,-0.20119 0.68072,0.30546 0.68072,0.68486 0,0.37943 -0.31419,0.59561 -0.68072,0.68489 -3.09318,0.75339 -6.63127,0.61157 -10.49932,-0.1942 -0.53772,-0.11198 -0.55513,-0.73729 -0.55513,-1.28976 0,-0.55248 0.0233,-0.84353 0.55513,-0.70476 z"
       id="rect3818"
       inkscape:connector-curvature="0"
       sodipodi:nodetypes="sssssss" />
    <path
       style="fill:#170707;fill-opacity:0;stroke:#070000;stroke-width:1.3325057;stroke-miterlimit:4;stroke-opacity:1;stroke-dasharray:none;stroke-dashoffset:0"
       d="m 291.82268,765.51403 c 3.7015,0.64542 7.44902,1.42986 10.39857,-0.19423 0.33083,-0.18215 0.68074,0.30546 0.68074,0.68488 0,0.37943 -0.38013,0.45578 -0.68074,0.68487 -2.42323,1.84696 -6.47564,1.23525 -10.39857,0.81899 -0.54608,-0.0579 -0.70047,-0.59101 -0.70047,-1.1435 0,-0.55248 0.15942,-0.94536 0.70047,-0.85101 z"
       id="rect3820"
       inkscape:connector-curvature="0"
       sodipodi:nodetypes="sssssss" />
    <path
       transform="matrix(5.3979275,0,0,2.0127059,-1102.394,467.30353)"
       style="fill:#ffffff;fill-opacity:1;stroke:#070000;stroke-width:0;stroke-miterlimit:4;stroke-dashoffset:0;stroke-opacity:1"
       d="m 256.25001,160.71428 c 0,0.49311 -0.3198,0.89286 -0.71429,0.89286 -0.39449,0 -0.71428,-0.39975 -0.71428,-0.89286 0,-0.49311 0.31979,-0.89286 0.71428,-0.89286 0.39449,0 0.71429,0.39975 0.71429,0.89286 z"
       id="path3824" />
  </g>
</svg>
