<?xml version="1.0" encoding="iso-8859-1"?>
<!-- Uploaded to: SVG Repo, www.svgrepo.com, Generator: SVG Repo Mixer Tools -->
<svg height="800px" width="800px" version="1.1" id="Layer_1" xmlns="http://www.w3.org/2000/svg" xmlns:xlink="http://www.w3.org/1999/xlink" 
	 viewBox="0 0 494.4 494.4" xml:space="preserve">
<path style="fill:#DBAB56;" d="M247.2,494.4c-132,0-240-108-240-240s108-240,240-240s240,108,240,240S379.2,494.4,247.2,494.4z"/>
<circle style="fill:#EFB30C;" cx="247.2" cy="240" r="224.8"/>
<g>
	<path style="fill:#E5A300;" d="M48.8,267.2c0-124,100.8-224.8,224.8-224.8c55.2,0,105.6,20,144.8,52.8
		c-40.8-48.8-102.4-80-171.2-80C123.2,15.2,22.4,116,22.4,240c0,68.8,31.2,130.4,80,172C68.8,372.8,48.8,322.4,48.8,267.2z"/>
	<path style="fill:#E5A300;" d="M406.4,81.6c88,88,88,230.4,0,318.4S176,488,88,400"/>
</g>
<path style="fill:#F7D27F;" d="M247.2,480c-132,0-240-108-240-240s108-240,240-240s240,108,240,240S379.2,480,247.2,480z
	 M247.2,30.4c-116,0-209.6,94.4-209.6,209.6c0,116,94.4,209.6,209.6,209.6S456.8,355.2,456.8,240S363.2,30.4,247.2,30.4z"/>
<path style="fill:#EFC273;" d="M487.2,240c0-60.8-22.4-116-59.2-157.6c-42.4-36.8-97.6-59.2-158.4-59.2c-40.8,0-78.4,10.4-112,28
	c27.2-13.6,57.6-20.8,89.6-20.8c63.2,0,120.8,28.8,159.2,73.6c44.8,38.4,72.8,95.2,72.8,159.2c0,32-7.2,62.4-20,89.6
	C476.8,319.2,487.2,280.8,487.2,240z"/>
<path style="fill:#EAC06C;" d="M29.6,263.2c0,60.8,22.4,116,59.2,157.6c42.4,36.8,97.6,59.2,157.6,59.2c40.8,0,78.4-10.4,112-28
	c-27.2,12.8-57.6,20-89.6,20c-63.2,0-120.8-28.8-159.2-73.6C64.8,360,36,303.2,36,239.2c0-32,7.2-62.4,20-89.6
	C40,184,29.6,222.4,29.6,263.2z"/>
<path style="fill:#E5A300;" d="M260.8,88.8c0,7.2-6.4,19.2-13.6,19.2s-13.6-12-13.6-19.2s6.4-13.6,13.6-13.6S260.8,81.6,260.8,88.8z
	"/>
<circle style="fill:#F7D27F;" cx="247.2" cy="88.8" r="13.6"/>
<path style="fill:#EFC273;" d="M256.8,79.2c5.6,5.6,5.6,13.6,0,19.2s-13.6,5.6-19.2,0"/>
<g>
	<path style="fill:#FFE0A1;" d="M248.8,22.4c0,0.8-0.8,1.6-1.6,1.6l0,0c-0.8,0-1.6-0.8-1.6-1.6V7.2c0-0.8,0.8-1.6,1.6-1.6l0,0
		c0.8,0,1.6,0.8,1.6,1.6V22.4z"/>
	<path style="fill:#FFE0A1;" d="M248.8,473.6c0,0.8-0.8,1.6-1.6,1.6l0,0c-0.8,0-1.6-0.8-1.6-1.6v-15.2c0-0.8,0.8-1.6,1.6-1.6l0,0
		c0.8,0,1.6,0.8,1.6,1.6V473.6z"/>
	<path style="fill:#FFE0A1;" d="M402.4,88c-0.8,0.8-1.6,0.8-2.4,0l0,0c-0.8-0.8-0.8-1.6,0-2.4l11.2-11.2c0.8-0.8,1.6-0.8,2.4,0l0,0
		c0.8,0.8,0.8,1.6,0,2.4L402.4,88z"/>
	<path style="fill:#FFE0A1;" d="M84,406.4c-0.8,0.8-1.6,0.8-2.4,0l0,0c-0.8-0.8-0.8-1.6,0-2.4l11.2-11.2c0.8-0.8,1.6-0.8,2.4,0l0,0
		c0.8,0.8,0.8,1.6,0,2.4L84,406.4z"/>
	<path style="fill:#FFE0A1;" d="M464.8,242.4c-0.8,0-1.6-0.8-1.6-1.6l0,0c0-0.8,0.8-1.6,1.6-1.6H480c0.8,0,1.6,0.8,1.6,1.6l0,0
		c0,0.8-0.8,1.6-1.6,1.6H464.8z"/>
	<path style="fill:#FFE0A1;" d="M14.4,242.4c-0.8,0-1.6-0.8-1.6-1.6l0,0c0-0.8,0.8-1.6,1.6-1.6h15.2c0.8-0.8,1.6,0,1.6,0.8l0,0
		c0,0.8-0.8,1.6-1.6,1.6H14.4V242.4z"/>
	<path style="fill:#FFE0A1;" d="M400,396c-0.8-0.8-0.8-1.6,0-2.4l0,0c0.8-0.8,1.6-0.8,2.4,0l11.2,11.2c0.8,0.8,0.8,1.6,0,2.4l0,0
		c-0.8,0.8-1.6,0.8-2.4,0L400,396z"/>
	<path style="fill:#FFE0A1;" d="M80.8,76.8c-0.8-0.8-0.8-1.6,0-2.4l0,0c0.8-0.8,1.6-0.8,2.4,0l11.2,11.2c0.8,0.8,0.8,1.6,0,2.4l0,0
		c-0.8,0.8-1.6,0.8-2.4,0L80.8,76.8z"/>
	<path style="fill:#FFE0A1;" d="M140,51.2c0.8,0.8,0,2.4-0.8,2.4l0,0c-0.8,0.8-2.4,0-2.4-0.8l-8-13.6c-0.8-0.8,0-2.4,0.8-2.4l0,0
		c0.8-0.8,2.4,0,2.4,0.8L140,51.2z"/>
	<path style="fill:#FFE0A1;" d="M365.6,441.6c0.8,0.8,0,2.4-0.8,2.4l0,0c-0.8,0.8-2.4,0-2.4-0.8l-8-13.6c-0.8-0.8,0-2.4,0.8-2.4l0,0
		c0.8-0.8,2.4,0,2.4,0.8L365.6,441.6z"/>
	<path style="fill:#FFE0A1;" d="M305.6,30.4c0,0.8-1.6,1.6-2.4,1.6l0,0c-0.8,0-1.6-1.6-1.6-2.4l4-15.2c0-0.8,1.6-1.6,2.4-1.6l0,0
		c0.8,0,1.6,1.6,1.6,2.4L305.6,30.4z"/>
	<path style="fill:#FFE0A1;" d="M188.8,465.6c0,0.8-1.6,1.6-2.4,1.6l0,0c-0.8,0-1.6-1.6-1.6-2.4l4-15.2c0-0.8,1.6-1.6,2.4-1.6l0,0
		c0.8,0,1.6,1.6,1.6,2.4L188.8,465.6z"/>
	<path style="fill:#FFE0A1;" d="M436.8,132.8c-0.8,0.8-2.4,0-2.4-0.8l0,0c-0.8-0.8,0-2.4,0.8-2.4l13.6-8c0.8-0.8,2.4,0,2.4,0.8l0,0
		c0.8,0.8,0,2.4-0.8,2.4L436.8,132.8z"/>
	<path style="fill:#FFE0A1;" d="M46.4,358.4c-0.8,0.8-2.4,0-2.4-0.8l0,0c-0.8-0.8,0-2.4,0.8-2.4l13.6-8c0.8-0.8,2.4,0,2.4,0.8l0,0
		c0.8,0.8,0,2.4-0.8,2.4L46.4,358.4z"/>
	<path style="fill:#FFE0A1;" d="M456.8,298.4c-0.8,0-1.6-1.6-1.6-2.4l0,0c0-0.8,1.6-1.6,2.4-1.6l15.2,4c0.8,0,1.6,1.6,1.6,2.4l0,0
		c0,0.8-1.6,1.6-2.4,1.6L456.8,298.4z"/>
	<path style="fill:#FFE0A1;" d="M21.6,181.6c-0.8,0-1.6-1.6-1.6-2.4l0,0c0-0.8,1.6-1.6,2.4-1.6l15.2,4c0.8,0,1.6,1.6,1.6,2.4l0,0
		c0,0.8-1.6,1.6-2.4,1.6L21.6,181.6z"/>
	<path style="fill:#FFE0A1;" d="M60,129.6c0.8,0.8,1.6,1.6,0.8,2.4l0,0c-0.8,0.8-1.6,1.6-2.4,0.8l-13.6-8c-0.8-0.8-1.6-1.6-0.8-2.4
		l0,0c0.8-0.8,1.6-1.6,2.4-0.8L60,129.6z"/>
	<path style="fill:#FFE0A1;" d="M450.4,355.2c0.8,0.8,1.6,1.6,0.8,2.4l0,0c-0.8,0.8-1.6,1.6-2.4,0.8l-13.6-8
		c-0.8-0.8-1.6-1.6-0.8-2.4l0,0c0.8-0.8,1.6-1.6,2.4-0.8L450.4,355.2z"/>
	<path style="fill:#FFE0A1;" d="M192.8,29.6c0,0.8,0,2.4-1.6,2.4l0,0c-0.8,0-2.4,0-2.4-1.6l-4-15.2c0-0.8,0-2.4,1.6-2.4l0,0
		c0.8,0,2.4,0,2.4,1.6L192.8,29.6z"/>
	<path style="fill:#FFE0A1;" d="M309.6,464.8c0,0.8,0,2.4-1.6,2.4l0,0c-0.8,0-2.4,0-2.4-1.6l-4-15.2c0-0.8,0-2.4,1.6-2.4l0,0
		c0.8,0,2.4,0,2.4,1.6L309.6,464.8z"/>
	<path style="fill:#FFE0A1;" d="M357.6,52.8c-0.8,0.8-1.6,1.6-2.4,0.8l0,0c-0.8-0.8-1.6-1.6-0.8-2.4l8-13.6c0.8-0.8,1.6-1.6,2.4-0.8
		l0,0c0.8,0.8,1.6,1.6,0.8,2.4L357.6,52.8z"/>
	<path style="fill:#FFE0A1;" d="M132,443.2c-0.8,0.8-1.6,1.6-2.4,0.8l0,0c-0.8-0.8-1.6-1.6-0.8-2.4l8-13.6c0.8-0.8,1.6-1.6,2.4-0.8
		l0,0c0.8,0.8,1.6,1.6,0.8,2.4L132,443.2z"/>
	<path style="fill:#FFE0A1;" d="M457.6,185.6c-0.8,0-2.4,0-2.4-1.6l0,0c0-0.8,0-2.4,1.6-2.4l15.2-4c0.8,0,2.4,0,2.4,1.6l0,0
		c0,0.8,0,2.4-1.6,2.4L457.6,185.6z"/>
	<path style="fill:#FFE0A1;" d="M22.4,302.4c-0.8,0-2.4,0-2.4-1.6l0,0c0-0.8,0-2.4,1.6-2.4l15.2-4c0.8,0,2.4,0,2.4,1.6l0,0
		c0,0.8,0,2.4-1.6,2.4L22.4,302.4z"/>
</g>
<path style="fill:#F7D27F;" d="M129.6,326.4c-0.8,0-1.6,0-2.4-0.8c-35.2-15.2-52-56-36.8-92c1.6-3.2,4.8-4.8,8-3.2s4.8,4.8,3.2,8
	c-6.4,14.4-6.4,30.4,0,44c5.6,14.4,16.8,25.6,31.2,32c3.2,1.6,4.8,4.8,3.2,8C134.4,324.8,132,326.4,129.6,326.4z"/>
<path style="fill:#EFC273;" d="M100.8,283.2c-4.8-12-5.6-24.8-1.6-37.6c0-4,0.8-8,2.4-12c-0.8-1.6-1.6-2.4-3.2-3.2
	c-3.2-1.6-6.4,0-8,3.2s-2.4,6.4-3.2,9.6c-3.2,29.6,13.6,59.2,42.4,72c0.8,0,1.6,0.8,2.4,0.8c0.8,0,0.8,0,1.6,0l-0.8-0.8
	C117.6,308.8,106.4,297.6,100.8,283.2z"/>
<path style="fill:#F7D27F;" d="M121.6,185.6c-8.8,0-18.4,7.2-24,19.2C92,216,96,220,100.8,226.4L121.6,185.6z"/>
<path style="fill:#EFC273;" d="M121.6,185.6c4.8,7.2,4.8,19.2-0.8,30.4c-5.6,12-11.2,10.4-20,10.4L121.6,185.6z"/>
<path style="fill:#F7D27F;" d="M69.6,203.2c5.6-0.8,12,4,16,10.4c4,7.2,1.6,9.6-0.8,14.4L69.6,203.2z"/>
<path style="fill:#EFC273;" d="M69.6,203.2c-3.2,4-2.4,12,1.6,19.2s8,5.6,12.8,5.6L69.6,203.2z"/>
<path style="fill:#F7D27F;" d="M140.8,232c-4.8-4.8-13.6-5.6-22.4-3.2c-8.8,3.2-8.8,7.2-9.6,12.8L140.8,232z"/>
<path style="fill:#EFC273;" d="M140.8,232c-0.8,6.4-7.2,12.8-16.8,15.2c-8.8,3.2-11.2-0.8-15.2-4.8L140.8,232z"/>
<path style="fill:#F7D27F;" d="M132.8,260c-3.2-3.2-10.4-4.8-18.4-2.4c-7.2,2.4-7.2,5.6-8,10.4L132.8,260z"/>
<path style="fill:#EFC273;" d="M132.8,260c-0.8,4.8-5.6,10.4-13.6,12.8s-8.8-0.8-12.8-4L132.8,260z"/>
<path style="fill:#F7D27F;" d="M56.8,236.8c4-2.4,11.2-1.6,18.4,2.4c6.4,4,5.6,7.2,4.8,12L56.8,236.8z"/>
<path style="fill:#EFC273;" d="M56.8,236c-0.8,4.8,3.2,11.2,9.6,15.2s8.8,1.6,12.8-0.8L56.8,236z"/>
<path style="fill:#F7D27F;" d="M57.6,264.8c3.2-3.2,8.8-4.8,15.2-3.2c6.4,1.6,6.4,4.8,7.2,8.8L57.6,264.8z"/>
<path style="fill:#EFC273;" d="M57.6,264.8c0.8,4,5.6,8,12,9.6s8-0.8,10.4-4L57.6,264.8z"/>
<path style="fill:#F7D27F;" d="M62.4,289.6c2.4-4,8-5.6,15.2-4.8c6.4,0.8,7.2,4,8,8L62.4,289.6z"/>
<path style="fill:#EFC273;" d="M62.4,289.6c1.6,4,6.4,7.2,13.6,8c6.4,0.8,7.2-1.6,9.6-5.6L62.4,289.6z"/>
<path style="fill:#F7D27F;" d="M79.2,313.6c1.6-3.2,5.6-6.4,11.2-6.4c5.6-0.8,6.4,1.6,8,4.8L79.2,313.6z"/>
<path style="fill:#EFC273;" d="M79.2,312.8c1.6,3.2,7.2,4.8,12.8,4.8c5.6-0.8,5.6-3.2,7.2-6.4L79.2,312.8z"/>
<path style="fill:#F7D27F;" d="M101.6,330.4c0-3.2,2.4-6.4,6.4-8.8s5.6-0.8,8,0.8L101.6,330.4z"/>
<path style="fill:#EFC273;" d="M101.6,330.4c2.4,1.6,7.2,1.6,11.2-0.8s4-4,3.2-7.2L101.6,330.4z"/>
<path style="fill:#F7D27F;" d="M135.2,278.4c-4-2.4-9.6-1.6-16,1.6c-5.6,3.2-4.8,6.4-4.8,10.4L135.2,278.4z"/>
<path style="fill:#EFC273;" d="M135.2,278.4c0,4-3.2,9.6-8.8,12.8c-5.6,3.2-8,1.6-11.2-0.8L135.2,278.4z"/>
<path style="fill:#F7D27F;" d="M140.8,294.4c-3.2-1.6-8,0-12,4s-2.4,5.6-1.6,8.8L140.8,294.4z"/>
<path style="fill:#EFC273;" d="M140.8,294.4c0.8,3.2-0.8,8-4.8,12s-5.6,2.4-8.8,0.8L140.8,294.4z"/>
<path style="fill:#F7D27F;" d="M364.8,326.4c0.8,0,1.6,0,2.4-0.8c35.2-15.2,52-56,36.8-92c-1.6-3.2-4.8-4.8-8-3.2s-4.8,4.8-3.2,8
	c6.4,14.4,6.4,30.4,0,44c-5.6,14.4-16.8,25.6-31.2,32c-3.2,1.6-4.8,4.8-3.2,8C360,324.8,362.4,326.4,364.8,326.4z"/>
<path style="fill:#EFC273;" d="M393.6,283.2c4.8-12,5.6-24.8,2.4-37.6c0-4-0.8-8-2.4-12c0.8-1.6,1.6-2.4,3.2-3.2
	c3.2-1.6,6.4,0,8,3.2s2.4,6.4,3.2,9.6c3.2,29.6-13.6,59.2-42.4,72c-0.8,0-1.6,0.8-2.4,0.8s-0.8,0-1.6,0l0.8-0.8
	C376.8,308.8,388,297.6,393.6,283.2z"/>
<path style="fill:#F7D27F;" d="M372.8,185.6c8.8,0,18.4,7.2,24,19.2c5.6,11.2,1.6,15.2-3.2,21.6L372.8,185.6z"/>
<path style="fill:#EFC273;" d="M372.8,185.6c-4.8,7.2-4.8,19.2,0.8,30.4c5.6,12,11.2,10.4,20,10.4L372.8,185.6z"/>
<path style="fill:#F7D27F;" d="M424.8,203.2c-5.6-0.8-12,4-16,10.4c-4,7.2-1.6,9.6,0.8,14.4L424.8,203.2z"/>
<path style="fill:#EFC273;" d="M424.8,203.2c2.4,4.8,2.4,12-2.4,19.2c-4,7.2-8,5.6-12.8,5.6L424.8,203.2z"/>
<path style="fill:#F7D27F;" d="M353.6,232c4.8-4.8,13.6-5.6,22.4-3.2c8.8,3.2,8.8,7.2,9.6,12.8L353.6,232z"/>
<path style="fill:#EFC273;" d="M353.6,232c0.8,6.4,7.2,12.8,16.8,15.2c8.8,3.2,11.2-0.8,15.2-4.8L353.6,232z"/>
<path style="fill:#F7D27F;" d="M361.6,260c3.2-3.2,10.4-4.8,18.4-2.4c7.2,2.4,7.2,5.6,8,10.4L361.6,260z"/>
<path style="fill:#EFC273;" d="M361.6,260c0.8,4.8,5.6,10.4,13.6,12.8c7.2,2.4,8.8-0.8,12.8-4L361.6,260z"/>
<path style="fill:#F7D27F;" d="M437.6,236.8c-4-2.4-11.2-1.6-18.4,2.4c-6.4,4-5.6,7.2-4.8,12L437.6,236.8z"/>
<path style="fill:#EFC273;" d="M437.6,236c0.8,4.8-3.2,11.2-9.6,15.2s-8.8,1.6-12.8-0.8L437.6,236z"/>
<path style="fill:#F7D27F;" d="M436.8,264.8c-3.2-3.2-8.8-4.8-15.2-3.2c-6.4,1.6-6.4,4.8-7.2,8.8L436.8,264.8z"/>
<path style="fill:#EFC273;" d="M436.8,264.8c-0.8,4-5.6,8-12,9.6s-8-0.8-10.4-4L436.8,264.8z"/>
<path style="fill:#F7D27F;" d="M432,289.6c-2.4-4-8-5.6-15.2-4.8c-6.4,0.8-7.2,4-8,8L432,289.6z"/>
<path style="fill:#EFC273;" d="M432,289.6c-1.6,4-6.4,7.2-13.6,8c-6.4,0.8-7.2-1.6-9.6-5.6L432,289.6z"/>
<path style="fill:#F7D27F;" d="M415.2,313.6c-1.6-3.2-5.6-6.4-11.2-6.4c-5.6-0.8-6.4,1.6-8,4.8L415.2,313.6z"/>
<path style="fill:#EFC273;" d="M415.2,312.8c-1.6,3.2-7.2,4.8-12.8,4.8c-5.6-0.8-5.6-3.2-7.2-6.4L415.2,312.8z"/>
<path style="fill:#F7D27F;" d="M392.8,330.4c0-3.2-2.4-6.4-6.4-8.8s-5.6-0.8-8,0.8L392.8,330.4z"/>
<path style="fill:#EFC273;" d="M392.8,330.4c-2.4,1.6-7.2,1.6-11.2-0.8s-4-4-3.2-7.2L392.8,330.4z"/>
<path style="fill:#F7D27F;" d="M359.2,278.4c4-2.4,9.6-1.6,16,1.6c5.6,3.2,4.8,6.4,4.8,10.4L359.2,278.4z"/>
<path style="fill:#EFC273;" d="M359.2,278.4c0,4,3.2,9.6,8.8,12.8c5.6,3.2,8,1.6,11.2-0.8L359.2,278.4z"/>
<path style="fill:#F7D27F;" d="M353.6,294.4c3.2-1.6,8,0,12,4s2.4,5.6,1.6,8.8L353.6,294.4z"/>
<path style="fill:#EFC273;" d="M353.6,294.4c-0.8,3.2,0.8,8,4.8,12s5.6,2.4,8.8,0.8L353.6,294.4z"/>
<path style="fill:#F9E310;" d="M322.4,203.2h-13.6c-0.8-15.2-6.4-29.6-16-40.8h29.6c6.4,0,11.2-4.8,11.2-11.2s-4.8-11.2-11.2-11.2
	h-80h-45.6H172c-6.4,0-11.2,4.8-11.2,11.2s4.8,11.2,11.2,11.2h24.8h45.6c23.2,0,41.6,18.4,43.2,40.8H172c-6.4,0-11.2,4.8-11.2,11.2
	s4.8,11.2,11.2,11.2h113.6c-3.2,20.8-20.8,36-42.4,36h-45.6c-4,0-8,2.4-10.4,6.4s-1.6,8,0.8,12l76.8,115.2c2.4,3.2,5.6,4.8,9.6,4.8
	c2.4,0,4.8-0.8,6.4-1.6c5.6-3.2,6.4-10.4,3.2-16l-64.8-97.6h24c34.4,0,62.4-26.4,66.4-59.2h13.6c6.4,0,11.2-4.8,11.2-11.2
	S328.8,203.2,322.4,203.2z"/>
<g>
	<path style="fill:#F7C011;" d="M322.4,203.2h-13.6c0-7.2-1.6-14.4-4-20.8l-19.2,19.2c0,0.8,0,0.8,0,1.6H284l-23.2,23.2h24
		c-3.2,20.8-20.8,36-42.4,36h-17.6L195.2,292L264,396c2.4,3.2,5.6,4.8,9.6,4.8c2.4,0,4.8-0.8,6.4-1.6c5.6-3.2,6.4-10.4,3.2-16
		l-64.8-97.6h24c34.4,0,62.4-26.4,66.4-59.2h13.6c6.4,0,11.2-4.8,11.2-11.2S328.8,203.2,322.4,203.2z"/>
	<path style="fill:#F7C011;" d="M333.6,153.6l-8.8,8.8C329.6,160.8,332.8,157.6,333.6,153.6z"/>
</g>
</svg>