<?xml version="1.0" encoding="iso-8859-1"?>
<!-- Uploaded to: SVG Repo, www.svgrepo.com, Generator: SVG Repo Mixer Tools -->
<svg height="800px" width="800px" version="1.1" id="Layer_1" xmlns="http://www.w3.org/2000/svg" xmlns:xlink="http://www.w3.org/1999/xlink" 
	 viewBox="0 0 504.014 504.014" xml:space="preserve">
<g transform="translate(1 1)">
	<path style="fill:#AE938D;" d="M411.48,204.074c-9.387-83.627-25.6-99.84-49.493-123.733c0,0-10.24-11.947-24.747-15.36
		l-0.853-0.853c-9.387,7.68-26.453,12.8-49.493,14.507c23.893-1.707,40.107-6.827,49.493-14.507
		c5.973-5.12,8.533-11.093,8.533-17.92c0-25.6-26.453-42.667-93.867-42.667c-56.32,0-68.267,8.533-68.267,25.6
		c0,0.853,0,0.853,0,1.707l-5.12,0.853c0,0-11.093,3.413-18.773,16.213h-2.56c0,5.12-0.853,9.387-3.413,13.653l0,0
		c-1.707,5.12-5.12,10.24-9.387,14.507c-8.533,8.533-19.627,12.8-29.867,12.8l9.387,5.973c-9.387,12.8-17.92,28.16-17.92,28.16
		s-6.827,14.507-14.507,81.067c-0.853,6.827-1.707,13.653-2.56,21.333c-0.853,10.24-7.68,50.347-8.533,58.027l-0.853,1.707
		c25.6,10.24,40.96,34.133,26.453,85.333c-12.8,46.08,69.973,56.32,116.907,58.88c1.707,0,2.56,0,4.267,0s3.413,0,5.12,0
		c2.56,0,4.267,0,6.827,0h0.853c2.56,0,4.267,0,5.973,0c3.413,0,5.973,0,5.973,0c32.427,0,62.293-5.12,85.333-12.8l0,0l0,0
		c16.213-5.12,28.16-11.093,35.84-17.92c-7.68,6.827-20.48,12.8-35.84,17.92l75.947,11.947l0,0c12.8,0,23.893,2.56,34.133,7.68
		l0.853-1.707c0,0-26.453-74.24-26.453-116.907c0-51.2-5.973-59.733-8.533-93.867C412.333,217.727,411.48,210.9,411.48,204.074
		L411.48,204.074z M387.587,206.634L387.587,206.634c-0.853-4.267-3.413-15.36-17.067-15.36c-25.6-34.133-25.6-68.267-25.6-68.267
		s-17.067-8.533-34.133-8.533c-17.067,0-34.133,8.533-59.733,8.533s-25.6-8.533-51.2-8.533s-42.667,8.533-42.667,8.533
		s0,34.133-25.6,68.267c-13.653,0-16.213,11.093-17.067,15.36c0,0.853,0,1.707,0,1.707c0,34.133,8.533,68.267,8.533,68.267
		s7.68,17.067,17.067,17.067l25.6,51.2c8.533,17.067,25.6,51.2,85.333,51.2c52.053,0,71.68-26.453,81.92-44.373l2.56,0.853
		l-2.56-0.853c1.707-2.56,2.56-5.12,3.413-6.827l25.6-51.2c9.387,0,17.067-17.067,17.067-17.067s8.533-34.133,8.533-68.267
		C387.587,208.34,387.587,207.487,387.587,206.634z M251.053,80.34c-12.8,0-24.747-0.853-34.987-1.707
		C226.307,79.487,238.253,80.34,251.053,80.34L251.053,80.34z"/>
	<path style="fill:#ECF4F7;" d="M3.587,498.474c6.827-19.627,23.04-48.64,59.733-61.44c0,0,29.013-9.387,48.64-14.507l0.853-4.267
		c37.547,7.68,81.92,10.24,110.08,11.093c1.707,0,2.56,0,4.267,0s3.413,0,5.12,0c2.56,0,4.267,0,6.827,0h0.853
		c2.56,0,4.267,0,5.973,0c3.413,0,5.973,0,5.973,0c32.427,0,62.293-5.12,85.333-12.8c-8.533,42.667-59.733,81.067-59.733,81.067
		H3.587V498.474z M498.52,498.474H387.587c0-42.667,25.6-68.267,25.6-68.267c12.8,0,23.893,2.56,34.133,7.68
		C476.333,451.54,492.547,480.554,498.52,498.474z"/>
	<g>
		<path style="fill:#FFE079;" d="M127.32,58.154c19.627-20.48,17.067-41.813,17.067-41.813c8.533,8.533,12.8,20.48,11.947,32.427
			c0,5.12-0.853,9.387-2.56,13.653c-1.707,5.12-5.12,10.24-9.387,14.507c-8.533,8.533-19.627,12.8-29.867,12.8
			s-22.187-4.267-29.867-12.8C84.653,76.074,107.693,77.78,127.32,58.154"/>
		<path style="fill:#FFE079;" d="M222.893,429.354c-28.16-0.853-72.533-4.267-110.08-11.947c-30.72-6.827-58.027-16.213-66.56-30.72
			c-29.867-49.493,8.533-107.52,8.533-107.52v-0.853c8.533,1.707,17.067,3.413,24.747,6.827c25.6,10.24,40.96,34.133,26.453,85.333
			C93.187,416.554,175.96,426.794,222.893,429.354"/>
	</g>
	<path style="fill:#FFD0A1;" d="M387.587,206.634c0,0.853,0,1.707,0,1.707c0,34.133-8.533,68.267-8.533,68.267
		s-7.68,17.067-17.067,17.067l-25.6,51.2c-0.853,2.56-2.56,4.267-3.413,6.827c-10.24,17.92-29.013,44.373-81.92,44.373
		c-59.733,0-76.8-34.133-85.333-51.2l-25.6-51.2c-9.387,0-17.067-17.067-17.067-17.067s-8.533-34.133-8.533-68.267
		c0,0,0-0.853,0-1.707c0.853-4.267,3.413-15.36,17.067-15.36c25.6-34.133,25.6-68.267,25.6-68.267s17.067-8.533,42.667-8.533
		s25.6,8.533,51.2,8.533s42.667-8.533,59.733-8.533c17.067,0,34.133,8.533,34.133,8.533s0,34.133,25.6,68.267
		C384.173,191.274,386.733,202.367,387.587,206.634"/>
	<path style="fill:#F2EDDA;" d="M336.387,417.407L336.387,417.407L336.387,417.407l76.8,11.947l0,0c0,0-25.6,25.6-25.6,68.267
		H276.653C276.653,498.474,327.853,460.074,336.387,417.407"/>
</g>
<path style="fill:#51565F;" d="M499.52,503.74c-1.707,0-3.413-0.853-4.267-2.56c-2.56-6.827-23.04-64-79.36-65.707
	c-5.12,5.973-23.04,29.013-23.04,64c0,2.56-1.707,4.267-4.267,4.267s-4.267-1.707-4.267-4.267c0-43.52,25.6-69.973,26.453-71.68
	c0.853-0.853,1.707-0.853,3.413-0.853c48.64,0,78.507,38.4,89.6,70.827c0.853,2.56-0.853,4.267-2.56,5.12
	C500.373,503.74,500.373,503.74,499.52,503.74z M4.587,503.74c-0.853,0-0.853,0-1.707,0c-2.56-0.853-3.413-3.413-2.56-5.12
	c5.973-17.92,22.187-50.347,62.293-64c2.56-0.853,4.267,0,5.12,2.56c0.853,2.56,0,4.267-2.56,5.12
	C28.48,455.1,13.973,484.967,8,501.18C8,502.887,6.293,503.74,4.587,503.74z M277.653,503.74c-1.707,0-2.56-0.853-3.413-1.707
	c-1.707-1.707-0.853-4.267,0.853-5.973c0.853,0,44.373-33.28,56.32-70.827c-22.187,5.973-48.64,10.24-79.36,10.24
	c-5.12,0-11.093,0-18.773,0c-46.933-1.707-168.107-8.533-190.293-44.373c-25.6-43.52-2.56-92.16,5.973-107.52
	c-9.387-0.853-18.773-0.853-28.16-0.853c-2.56,0-4.267-1.707-4.267-4.267s1.707-4.267,4.267-4.267
	c32.427,0,67.413,3.413,84.48,26.453c12.8,16.213,14.507,40.107,5.12,73.387c-2.56,8.533-0.853,16.213,3.413,22.187
	c22.187,29.867,110.933,31.573,137.387,31.573c31.573,0,61.44-5.12,83.627-11.947c0.853,0,0.853-0.853,1.707-0.853
	c17.92-5.973,31.573-12.8,37.547-20.48c4.267-4.267,5.973-9.387,5.12-13.653c-1.707-8.533-11.947-13.653-11.947-14.507
	c-1.707-0.853-2.56-3.413-1.707-5.973c0.853-1.707,3.413-2.56,5.973-1.707c0.853,0,14.507,7.68,16.213,20.48
	c1.707,6.827-0.853,13.653-6.827,20.48c-6.827,7.68-20.48,16.213-40.107,22.187c-10.24,42.667-58.88,79.36-60.587,81.067
	C279.36,503.74,278.507,503.74,277.653,503.74z M58.347,284.434c-5.12,8.533-33.28,59.733-7.68,102.4
	c9.387,15.36,43.52,25.6,81.92,31.573c-10.24-4.267-19.627-10.24-24.747-17.92c-6.827-8.533-8.533-18.773-5.12-29.867
	c8.533-29.013,6.827-51.2-3.413-65.707C90.773,292.967,75.413,286.994,58.347,284.434z M439.787,418.407
	c-1.707,0-3.413-0.853-4.267-2.56c-0.853-1.707-17.067-52.053-17.067-95.573c0-32.427-2.56-47.787-5.12-63.147
	c-1.707-8.533-2.56-17.92-3.413-29.867c-8.533-100.693-24.747-117.76-50.347-142.507c-1.707-1.707-1.707-4.267,0-5.973
	s4.267-1.707,5.973,0C392,105.234,409.067,122.3,417.6,226.407c0.853,11.947,2.56,20.48,3.413,29.867
	c2.56,16.213,5.12,31.573,5.12,64.853c0,41.813,17.067,92.16,17.067,92.16c0.853,2.56-0.853,4.267-2.56,5.12
	C440.64,418.407,440.64,418.407,439.787,418.407z M252.053,401.34c-62.293,0-80.213-35.84-88.747-53.76l-24.747-49.493
	c-10.24-2.56-17.067-17.067-17.92-19.627c-0.853-1.707-8.533-35.84-8.533-69.973c0-6.827,4.267-20.48,18.773-21.333
	c23.04-32.427,23.893-64,23.893-64c0-1.707,0.853-3.413,2.56-3.413c0.853,0,17.92-9.387,44.373-9.387
	c13.653,0,20.48,2.56,27.307,4.267c5.973,1.707,11.947,4.267,23.893,4.267c13.653,0,24.747-2.56,34.987-5.12
	c8.533-1.707,16.213-3.413,24.747-3.413c17.92,0,34.987,8.533,35.84,9.387c1.707,0.853,2.56,2.56,2.56,3.413c0,0,0,32.427,23.893,64
	c15.36,0.853,18.773,14.507,18.773,21.333c0,34.133-8.533,68.267-8.533,69.12c-0.853,2.56-7.68,17.92-18.773,19.627l-24.747,49.493
	C332.267,365.5,314.347,401.34,252.053,401.34z M162.453,126.567c-0.853,9.387-4.267,38.4-26.453,68.267
	c-0.853,0.853-1.707,1.707-3.413,1.707c-11.947,0-12.8,11.093-12.8,12.8c0,33.28,8.533,66.56,8.533,67.413
	c2.56,5.12,8.533,13.653,12.8,13.653c1.707,0,3.413,0.853,3.413,2.56l25.6,51.2c8.533,17.067,24.747,48.64,81.92,48.64
	c57.173,0,73.387-31.573,81.92-48.64l25.6-51.2c0.853-1.707,2.56-2.56,3.413-2.56c4.267,0,10.24-8.533,12.8-14.507l0,0
	c0,0,8.533-33.28,8.533-66.56c0-1.707-0.853-12.8-12.8-12.8c-1.707,0-2.56-0.853-3.413-1.707
	c-22.187-29.867-25.6-58.88-26.453-68.267c-5.12-2.56-17.92-6.827-29.867-6.827c-6.827,0-14.507,1.707-23.04,3.413
	c-10.24,2.56-22.187,5.12-36.693,5.12c-13.653,0-20.48-2.56-27.307-4.267c-5.973-1.707-11.947-4.267-23.893-4.267
	C182.08,119.74,167.573,124.86,162.453,126.567z M269.12,324.54h-34.133c-2.56,0-4.267-1.707-4.267-4.267s1.707-4.267,4.267-4.267
	h34.133c2.56,0,4.267,1.707,4.267,4.267S271.68,324.54,269.12,324.54z M86.507,256.274L86.507,256.274
	c-3.413,0-4.267-2.56-4.267-5.12c0.853-7.68,2.56-15.36,3.413-25.6c0-0.853,0.853-1.707,0.853-2.56l16.213-99.84
	c0-2.56,2.56-4.267,5.12-3.413c2.56,0,4.267,2.56,3.413,5.12l-20.48,128C90.773,254.567,89.067,256.274,86.507,256.274z
	 M303.253,233.234c-2.56,0-4.267-1.707-4.267-4.267v-5.12l-12.8,0.853c-2.56,0-4.267-1.707-4.267-4.267l0,0
	c0-2.56,1.707-4.267,4.267-4.267l17.067-0.853l0,0l17.067-0.853c2.56,0,4.267,1.707,4.267,4.267l0,0c0,2.56-1.707,4.267-4.267,4.267
	l-12.8,0.853v5.973C307.52,230.674,305.813,233.234,303.253,233.234z M200.853,233.234c-2.56,0-4.267-1.707-4.267-4.267v-5.973
	l-12.8-0.853c-2.56,0-4.267-1.707-4.267-4.267l0,0c0-2.56,2.56-4.267,4.267-4.267l17.067,0.853l0,0l17.067,0.853
	c2.56,0,4.267,1.707,4.267,4.267l0,0c0,2.56-2.56,4.267-4.267,4.267l-12.8-0.853v5.12
	C205.12,230.674,203.413,233.234,200.853,233.234z M252.053,179.474c-2.56,0-4.267-1.707-4.267-4.267V158.14
	c0-2.56,1.707-4.267,4.267-4.267s4.267,1.707,4.267,4.267v17.067C256.32,177.767,254.613,179.474,252.053,179.474z M115.52,94.14
	c-11.947,0-23.893-4.267-33.28-13.653c-1.707-1.707-1.707-4.267,0-5.973c1.707-1.707,4.267-1.707,5.973,0
	c15.36,15.36,39.253,15.36,54.613,0c15.36-15.36,15.36-39.253,0-54.613c-1.707-1.707-1.707-4.267,0-5.973s4.267-1.707,5.973,0
	c12.8,12.8,16.213,30.72,11.947,46.933c4.267,1.707,36.693,16.213,91.307,16.213c62.293,0,89.6-9.387,89.6-29.867
	c0-25.6-29.867-38.4-89.6-38.4c-58.88,0-64,9.387-64,21.333c0,12.8,46.08,12.8,64,12.8c2.56,0,4.267,1.707,4.267,4.267
	c0,2.56-1.707,4.267-4.267,4.267c-29.013,0-72.533,0-72.533-21.333c0-22.187,17.92-29.867,72.533-29.867
	c64.853,0,98.133,16.213,98.133,46.933c0,34.133-49.493,38.4-98.133,38.4c-55.467,0-88.747-14.507-94.72-17.067
	c-2.56,4.267-5.12,8.533-8.533,11.947C139.413,89.874,127.467,94.14,115.52,94.14z"/>
</svg>