<?xml version="1.0" encoding="utf-8"?>

<!DOCTYPE svg PUBLIC "-//W3C//DTD SVG 1.0//EN" "http://www.w3.org/TR/2001/REC-SVG-20010904/DTD/svg10.dtd">
<!-- Uploaded to: SVG Repo, www.svgrepo.com, Generator: SVG Repo Mixer Tools -->
<svg version="1.0" id="Layer_1" xmlns="http://www.w3.org/2000/svg" xmlns:xlink="http://www.w3.org/1999/xlink" 
	 width="800px" height="800px" viewBox="0 0 64 64" enable-background="new 0 0 64 64" xml:space="preserve">
<g>
	<path fill="#231F20" d="M42,53c-1.657,0-3,1.344-3,3c0,1.104-0.896,2-2,2s-2-0.896-2-2V33.461c2.766,0.871,5.012,2.91,6.162,5.539
		c0,0,0.262,0.465,0.838,0.76V36c0-11.664-3.711-22.455-10-31.285C25.711,13.545,22,24.336,22,36v3.76
		c0.576-0.295,0.838-0.76,0.838-0.76c1.15-2.629,3.396-4.668,6.162-5.539V56c0,4.418,3.582,8,8,8s8-3.582,8-8
		C45,54.344,43.657,53,42,53z M37,62c-3.313,0-6-2.687-6-6V33.056C31.329,33.023,31.662,33,32,33s0.671,0.023,1,0.056V56
		c0,2.209,1.791,4,4,4s4-1.791,4-4c0-0.553,0.447-1,1-1s1,0.447,1,1C43,59.313,40.313,62,37,62z"/>
	<path fill="#231F20" d="M0,36c0,0,0,1,1,1s1.867-1,1.867-1c1.813-1.85,4.337-3,7.133-3c4.1,0,7.618,2.47,9.162,6
		c0,0,0.262,0.465,0.838,0.76V36c0-11.875,3.713-22.873,10.018-31.933C13.269,5.092,0,18.992,0,36z"/>
	<path fill="#231F20" d="M33.982,4.067C40.287,13.127,44,24.125,44,36v3.76c0.576-0.295,0.838-0.76,0.838-0.76
		c1.544-3.53,5.062-6,9.162-6c2.796,0,5.319,1.15,7.133,3c0,0,0.867,1,1.867,1s1-1,1-1C64,18.992,50.731,5.092,33.982,4.067z"/>
	<path fill="#231F20" d="M32,0c-1.657,0-3,1.344-3,3h6C35,1.344,33.657,0,32,0z"/>
</g>
</svg>