<?xml version="1.0" encoding="iso-8859-1"?>
<!-- Uploaded to: SVG Repo, www.svgrepo.com, Generator: SVG Repo Mixer Tools -->
<svg height="800px" width="800px" version="1.1" id="Layer_1" xmlns="http://www.w3.org/2000/svg" xmlns:xlink="http://www.w3.org/1999/xlink" 
	 viewBox="0 0 504.32 504.32" xml:space="preserve">
<g transform="translate(1 11)">
	<path style="fill:#7EE1E6;" d="M352.28,331.613l0.853,0.853c9.387-13.653,24.747-22.187,42.667-22.187
		c28.16,0,51.2,23.04,51.2,51.2h34.133c10.24,0,17.067-6.827,17.067-17.067v-68.267V207.88h-76.8h-93.867l23.893,123.733H352.28
		l-0.853-0.853l-23.893-123.733V36.36h-256c-38.4,0-68.267,29.867-68.267,68.267v170.667v68.267c0,9.387,7.68,17.067,17.067,17.067
		h33.28h0.853c0-28.16,23.04-51.2,51.2-51.2s51.2,23.04,51.2,51.2H344.6c0-10.24,3.413-20.48,8.533-29.013H352.28z"/>
	<path style="fill:#FFE079;" d="M139.8,113.16v34.133c0,4.267-4.267,8.533-8.533,8.533h-51.2c-4.267,0-8.533-4.267-8.533-8.533
		V113.16c0-4.267,4.267-8.533,8.533-8.533h51.2C135.533,104.627,139.8,108.893,139.8,113.16"/>
	<path style="fill:#AAB1BA;" d="M105.667,309.427c28.16,0,51.2,23.04,51.2,51.2c0,28.16-23.04,51.2-51.2,51.2s-51.2-23.04-51.2-51.2
		C54.467,332.467,77.507,309.427,105.667,309.427z M395.8,309.427c28.16,0,51.2,23.04,51.2,51.2c0,28.16-23.04,51.2-51.2,51.2
		s-51.2-23.04-51.2-51.2c0-10.24,3.413-20.48,8.533-29.013C362.52,317.96,377.88,309.427,395.8,309.427z"/>
	<path style="fill:#FFE079;" d="M105.667,343.56c9.387,0,17.067,7.68,17.067,17.067s-7.68,17.067-17.067,17.067
		S88.6,370.013,88.6,360.627S96.28,343.56,105.667,343.56z M395.8,343.56c9.387,0,17.067,7.68,17.067,17.067
		s-7.68,17.067-17.067,17.067s-17.067-7.68-17.067-17.067S386.413,343.56,395.8,343.56z"/>
	<path style="fill:#ECF4F7;" d="M421.4,207.027h-93.867V36.36H395.8c25.6,0,34.133,17.067,34.133,17.067l59.733,110.933
		c8.533,17.067,8.533,25.6,8.533,42.667H421.4z"/>
</g>
<path style="fill:#51565F;" d="M499.2,461.227H362.667c-2.56,0-4.267-1.707-4.267-4.267s1.707-4.267,4.267-4.267H499.2
	c2.56,0,4.267,1.707,4.267,4.267S501.76,461.227,499.2,461.227z M328.533,461.227h-17.067c-2.56,0-4.267-1.707-4.267-4.267
	s1.707-4.267,4.267-4.267h17.067c2.56,0,4.267,1.707,4.267,4.267S331.093,461.227,328.533,461.227z M260.267,461.227h-85.333
	c-2.56,0-4.267-1.707-4.267-4.267s1.707-4.267,4.267-4.267h85.333c2.56,0,4.267,1.707,4.267,4.267S262.827,461.227,260.267,461.227z
	 M123.733,461.227H4.267c-2.56,0-4.267-1.707-4.267-4.267s1.707-4.267,4.267-4.267h119.467c2.56,0,4.267,1.707,4.267,4.267
	S126.293,461.227,123.733,461.227z M396.8,427.093c-30.72,0-55.467-24.747-55.467-55.467S366.08,316.16,396.8,316.16
	c29.013,0,52.907,22.187,55.467,51.2h29.867c7.68,0,12.8-5.12,12.8-12.8v-64H473.6c-2.56,0-4.267-1.707-4.267-4.267
	c0-2.56,1.707-4.267,4.267-4.267h21.333v-64c0-17.067,0-24.747-7.68-40.96L427.52,66.133c0-0.853-7.68-14.507-30.72-14.507h-64
	V213.76h87.04l16.213-31.573c0.853-1.707,3.413-2.56,5.973-1.707c1.707,0.853,2.56,2.56,2.56,3.413c0,0.853,0,1.707-0.853,1.707
	l-13.653,28.16h35.84c2.56,0,4.267,1.707,4.267,4.267s-1.707,4.267-4.267,4.267h-42.667l0,0h-88.747l16.213,80.213
	c0.853,2.56-0.853,4.267-3.413,5.12c-2.56,0.853-4.267-0.853-5.12-3.413L325.12,218.88v-0.853v-0.853V47.36
	c0-2.56,1.707-4.267,4.267-4.267h68.267c28.16,0,37.547,18.773,37.547,19.627l59.733,110.933c9.387,17.92,9.387,27.307,9.387,44.373
	V354.56c0,11.947-9.387,21.333-21.333,21.333H453.12C449.707,404.907,425.813,427.093,396.8,427.093z M396.8,324.693
	c-25.6,0-46.933,21.333-46.933,46.933S371.2,418.56,396.8,418.56s46.933-21.333,46.933-46.933S422.4,324.693,396.8,324.693z
	 M106.667,427.093c-30.72,0-55.467-24.747-55.467-55.467s24.747-55.467,55.467-55.467c29.013,0,52.907,22.187,55.467,51.2h149.333
	c2.56,0,4.267,1.707,4.267,4.267s-1.707,4.267-4.267,4.267H162.133C159.573,404.907,135.68,427.093,106.667,427.093z
	 M106.667,324.693c-25.6,0-46.933,21.333-46.933,46.933s21.333,46.933,46.933,46.933s46.933-21.333,46.933-46.933
	S132.267,324.693,106.667,324.693z M396.8,392.96c-11.947,0-21.333-9.387-21.333-21.333s9.387-21.333,21.333-21.333
	s21.333,9.387,21.333,21.333S408.747,392.96,396.8,392.96z M396.8,358.827c-6.827,0-12.8,5.973-12.8,12.8s5.973,12.8,12.8,12.8
	s12.8-5.973,12.8-12.8S403.627,358.827,396.8,358.827z M106.667,392.96c-11.947,0-21.333-9.387-21.333-21.333
	s9.387-21.333,21.333-21.333S128,359.68,128,371.627S118.613,392.96,106.667,392.96z M106.667,358.827
	c-6.827,0-12.8,5.973-12.8,12.8s5.973,12.8,12.8,12.8s12.8-5.973,12.8-12.8S113.493,358.827,106.667,358.827z M25.6,375.893h-4.267
	C9.387,375.893,0,366.507,0,354.56V115.627c0-40.96,31.573-72.533,72.533-72.533H294.4c2.56,0,4.267,1.707,4.267,4.267
	c0,2.56-1.707,4.267-4.267,4.267H72.533c-35.84,0-64,28.16-64,64v166.4h12.8c2.56,0,4.267,1.707,4.267,4.267
	c0,2.56-1.707,4.267-4.267,4.267h-12.8v64c0,6.827,5.973,12.8,12.8,12.8H25.6c2.56,0,4.267,1.707,4.267,4.267
	S28.16,375.893,25.6,375.893z M132.267,171.093h-51.2c-6.827,0-12.8-5.973-12.8-12.8V124.16c0-6.827,5.973-12.8,12.8-12.8h51.2
	c6.827,0,12.8,5.973,12.8,12.8v34.133C145.067,165.12,139.093,171.093,132.267,171.093z M81.067,119.893
	c-2.56,0-4.267,1.707-4.267,4.267v34.133c0,2.56,1.707,4.267,4.267,4.267h51.2c2.56,0,4.267-1.707,4.267-4.267V124.16
	c0-2.56-1.707-4.267-4.267-4.267H81.067z"/>
</svg>