<?xml version="1.0" encoding="iso-8859-1"?>
<!-- Uploaded to: SVG Repo, www.svgrepo.com, Generator: SVG Repo Mixer Tools -->
<svg version="1.1" id="Layer_1" xmlns="http://www.w3.org/2000/svg" xmlns:xlink="http://www.w3.org/1999/xlink" 
	 viewBox="0 0 512 512" xml:space="preserve">
<rect x="69.817" y="23.273" style="fill:#C0FCFF;" width="372.366" height="372.366"/>
<rect x="256.002" y="23.273" style="fill:#89D2E8;" width="186.183" height="372.366"/>
<path style="fill:#B66D38;" d="M473.213,372.363h-7.758V46.546h7.758c12.853,0,23.273-10.42,23.273-23.273S486.066,0,473.213,0
	h-31.03H69.817h-31.03C25.934,0,15.514,10.42,15.514,23.273s10.42,23.273,23.273,23.273h7.758v325.817h-7.758
	c-12.853,0-23.273,10.42-23.273,23.273v93.091c0,12.853,10.42,23.273,23.273,23.273h434.427c12.853,0,23.273-10.42,23.273-23.273
	v-93.091C496.486,382.783,486.066,372.363,473.213,372.363z M279.273,372.363V232.726H418.91v139.637H279.273z M418.91,186.18
	H279.273V46.546H418.91V186.18z M232.727,46.546V186.18H93.09V46.546H232.727z M93.09,232.726h139.637v139.637H93.09L93.09,232.726
	L93.09,232.726z"/>
<path style="fill:#AF2E08;" d="M473.213,372.363h-7.758V46.546h7.758c12.853,0,23.273-10.42,23.273-23.273S486.066,0,473.213,0
	h-31.03H256v512h217.213c12.853,0,23.273-10.42,23.273-23.273v-93.091C496.486,382.783,486.066,372.363,473.213,372.363z
	 M418.91,372.363H279.273V232.726H418.91V372.363z M418.91,186.18H279.273V46.546H418.91V186.18z"/>
</svg>