<?xml version="1.0" encoding="iso-8859-1"?>
<!-- Uploaded to: SVG Repo, www.svgrepo.com, Generator: SVG Repo Mixer Tools -->
<!DOCTYPE svg PUBLIC "-//W3C//DTD SVG 1.1//EN" "http://www.w3.org/Graphics/SVG/1.1/DTD/svg11.dtd">
<svg height="800px" width="800px" version="1.1" id="Capa_1" xmlns="http://www.w3.org/2000/svg" xmlns:xlink="http://www.w3.org/1999/xlink" 
	 viewBox="0 0 256.989 256.989" xml:space="preserve">
<path style="fill:#000002;" d="M239.489,65.788H66V50.982c0-1.691-0.254-3.322-0.704-4.87l154.606-23.704
	c4.094-0.628,6.904-4.456,6.277-8.55c-0.628-4.094-4.451-6.903-8.55-6.277L48.645,33.49c-0.049,0-0.096-0.007-0.145-0.007h-31
	c-9.649,0-17.5,7.85-17.5,17.5v22.306v17.374v72.581c0,9.649,7.851,17.5,17.5,17.5h36.432v58.252c0,5.79,4.711,10.5,10.5,10.5
	h128.125c5.79,0,10.5-4.71,10.5-10.5v-58.252h36.432c9.649,0,17.5-7.851,17.5-17.5V83.288
	C256.989,73.639,249.139,65.788,239.489,65.788z M15,50.982c0-1.355,1.145-2.5,2.5-2.5h31c1.355,0,2.5,1.145,2.5,2.5v20.287
	c0,0.343,0.031,0.678,0.076,1.009C51.031,72.61,51,72.945,51,73.288c0,4.142,3.358,7.5,7.5,7.5h180.989c1.355,0,2.5,1.145,2.5,2.5
	v44.968h-49.432H64.432H15V90.662V73.288V50.982z M17.5,165.743c-1.355,0-2.5-1.145-2.5-2.5v-19.987h38.932v22.487H17.5z
	 M188.057,234.495H68.932v-91.239h119.125V234.495z M239.489,165.743h-36.432v-22.487h38.932v19.987
	C241.989,164.598,240.844,165.743,239.489,165.743z"/>
</svg>