<?xml version="1.0" encoding="utf-8"?><!-- Uploaded to: SVG Repo, www.svgrepo.com, Generator: SVG Repo Mixer Tools -->
<svg width="800px" height="800px" viewBox="0 0 128 128" xmlns="http://www.w3.org/2000/svg" xmlns:xlink="http://www.w3.org/1999/xlink" aria-hidden="true" role="img" class="iconify iconify--noto" preserveAspectRatio="xMidYMid meet"><path d="M19.7 45.67c-.04 0-.08 0-.12-.01c-.06-.01-1.56-.18-4.11-.64c-2.78-.51-4.61-.72-4.63-.72c-.6-.07-1.04-.61-.97-1.22c.07-.6.62-1.04 1.22-.97c.08.01 1.92.22 4.78.74c2.47.45 3.95.62 3.96.62c.6.07 1.04.61.97 1.22c-.07.56-.55.98-1.1.98z" fill="#888071"></path><path d="M10.78 50.08c-.55 0-1.03-.41-1.09-.97a1.1 1.1 0 0 1 .97-1.22c.03 0 2.81-.33 4.22-.56c1.46-.23 4.74-.75 4.74-.75l.34 2.17l-4.73.75c-1.46.24-4.2.56-4.32.57c-.05 0-.09.01-.13.01z" fill="#888071"></path><path d="M12.51 54.68c-.48 0-.92-.31-1.06-.8c-.17-.58.17-1.19.76-1.36l7.88-2.25a1.102 1.102 0 0 1 .6 2.12l-7.88 2.25c-.09.02-.2.04-.3.04z" fill="#888071"></path><path d="M53.29 84.41l-10.84 8.31s.42 17.32.14 18.02c-.28.7-4.08 5.07-3.66 7.6c.33 1.97 1.83 2.67 5.91 2.82s12.39-1.69 12.39-1.69l-3.94-35.06z" fill="#b85c3e"></path><path d="M85.11 91.02l-8.02 4.5s1.13 3.38 1.13 8.17s-.42 7.79-.7 8.78c-.28.99-2.63 2.86-2.39 5.58c.11 1.26 1.69 2.25 4.5 2.11s6.9-.42 6.9-.42l4.08-26.61l-5.5-2.11z" fill="#b85c3e"></path><path d="M33.26 27.81s-1.31-4.6-.19-11.92c1.13-7.32 3-11.17 4.79-11.36c1.78-.19 5.16 3.19 7.79 7.23c2.63 4.04 4.79 11.17 4.79 11.17l-17.18 4.88z" fill="#fb8b02"></path><path d="M63.85 97.26s.09 8.45.28 12.2c.19 3.75.01 12.08-.75 13c-1.17 1.41-2.35 1.45-4.88 1.55c-1.51.06.47-9.29.47-9.67s.09-22.81.09-22.81l4.79 5.73z" fill="#fb8b02"></path><path d="M38.79 68.08s-2.25 7.13-1.69 12.48c.56 5.35 3.66 12.11 6.76 14.83s5.91 4.13 6.19 4.79c.28.66 1.41 9.95 1.03 11.92s-3.1 7.04-2.63 9.01c.47 1.97 2.33 3.21 7.13 3.1c6.24-.14 5.91-1.08 6.38-4.97c.32-2.62-.09-20.74-.09-20.74s3.85.38 9.29 0c5.44-.38 12.2-2.82 12.2-2.82s3.85 12.01 2.53 15.67c-1.31 3.66-3.47 5.73-3.1 8.26c.38 2.53 3.66 3.66 7.7 3.28c4.04-.38 7.13-3 7.32-6.48c.19-3.47.09-22.71.66-24.21c.56-1.5 2.63-6.66 2.44-11.83s-.56-7.23-.56-7.23s4.85-1.85 9.34-5.25c3.42-2.59 5.99-6 7.36-11.08c2.25-8.35-.84-16.61-7.04-19.43c-5.96-2.71-11.83-1.69-12.01 2.63s3.66 3.38 6.57 4.5c2.91 1.13 6.19 6.29 2.72 11.36c-3.47 5.07-9.57 6.66-11.45 6.85c-1.88.19-5.35-2.72-12.58-2.91c-7.23-.19-17.64 5.07-17.93 4.41c-.28-.66 10.32-7.51 11.07-16.42c.7-8.26-1.03-12.11-1.03-12.11s-1.31-13.98-3.19-20.55S67.7 3.69 66.01 3.79c-1.69.09-7.13 6.01-9.1 8.92s-4.13 7.6-4.13 7.6s-8.4-.31-12.11 1.03c-3.38 1.22-7.23 3.28-9.67 7.13s-3.19 6.1-4.32 6.66c-1.13.56-6.48 1.69-6.95 2.35c-.47.66-1.69 9.39-1.41 10.7s.5 4.37 2.06 6.1c1.78 1.97 6.71 5.3 10.61 7.79c3.77 2.4 7.43 4.32 7.8 6.01z" fill="#ffb800"></path><path d="M73.38 77.27c3.47-.05 3.38-4.22 3.43-9.39c.04-4.52-.14-7.18-.14-7.18s-1.99.27-3.75.94c-1.74.66-3.24 1.27-3.24 1.27v7.27c-.01 2.49.27 7.14 3.7 7.09z" fill="#ff9b31"></path><path d="M79.48 60.05s0 4.36.05 8.07c.05 3.99-.33 8.31 3.66 8.26c3.43-.04 3.43-4.41 3.47-9.34c.02-2.58.09-6.99.09-6.99s-1.69-.33-3.71-.28c-1.59.04-3.56.28-3.56.28z" fill="#ff9b31"></path><path d="M44.81 41.02c-.73 1.77-2.3 4.3-4.89 3.64c-1.66-.42-1.78-3.99-.81-6.11c1.15-2.5 2.68-3.63 4.47-3.42c1.97.24 2.16 3.62 1.23 5.89z" fill="#2c312c"></path><path d="M27.67 40.48c-.05-1.13-2.96-1.92-5.21-2.77c-1.91-.71-2.96-.75-3.47-.28s-1.13 1.69-1.41 3.57s-.18 5.06.28 7.04c.47 2.02 1.22 4.55 4.55 5.87c2.86 1.13 4.55-.42 5.77-1.27c1.55-1.07.88-3.61-1.31-2.3c-1.64.99-2.77 1.27-4.04.33c-1.74-1.29-2.16-5.11-2.02-5.44c.61-1.43 3.05-1.78 4.04-2.16c.99-.38 2.87-1.6 2.82-2.59z" fill="#2c312c"></path><path d="M47.34 50.45h-.08c-.03 0-3.19-.23-5.16-.28l-5.63-.14s-1.18.1-1.18-1.06c0-1.23 1.23-1.04 1.23-1.04l5.63.14c2.02.05 5.13.27 5.26.28c.58.04 1.01.55.97 1.12c-.04.56-.5.98-1.04.98z" fill="#888071"></path><path d="M45.55 57.3c-.15 0-.31-.03-.45-.1c-.02-.01-2.51-1.2-4.76-1.97c-2.34-.79-4.96-1.64-4.96-1.64c-.55-.18-.86-.77-.68-1.32c.18-.55.77-.86 1.32-.68c0 0 2.64.85 4.99 1.65c2.38.81 4.89 2.01 5 2.07c.52.25.74.88.49 1.4c-.18.37-.56.59-.95.59z" fill="#888071"></path><path d="M40.44 61.2c-.2 0-.41-.06-.59-.18c-.02-.01-1.78-1.21-2.96-1.94c-1.23-.75-3.44-2.17-3.44-2.17s-.99-.58-.35-1.5s1.48-.28 1.48-.28s2.2 1.4 3.41 2.15c1.23.75 2.97 1.95 3.05 2c.48.33.6.98.27 1.46c-.21.3-.54.46-.87.46z" fill="#888071"></path><path d="M64.35 12.33c-.48-.17-3.59 3.45-5.14 7.04c-1.55 3.59-2.11 5.56-1.97 6.19c.06.28 1.85 1.83 4.5 3.94c2.75 2.18 4.5 3.52 5.28 3.45c.77-.07.99-6.05.35-11.47s-2.25-8.87-3.02-9.15z" fill="#fed0ab"></path></svg>