<?xml version="1.0" encoding="iso-8859-1"?>
<!-- Uploaded to: SVG Repo, www.svgrepo.com, Generator: SVG Repo Mixer Tools -->
<svg version="1.1" id="Layer_1" xmlns="http://www.w3.org/2000/svg" xmlns:xlink="http://www.w3.org/1999/xlink" 
	 viewBox="0 0 407.018 407.018" xml:space="preserve">
<g>
	<g>
		<rect x="103.233" y="252.273" style="fill:#DB8689;" width="59.272" height="79.465"/>
		<polygon style="fill:#283038;" points="103.233,331.738 103.233,348.824 145.975,348.824 152.169,342.629 158.364,348.824 
			162.506,348.824 162.506,331.738 		"/>
	</g>
	<g>
		<rect x="237.722" y="252.273" style="fill:#DB8689;" width="59.271" height="79.465"/>
		<polygon style="fill:#283038;" points="237.722,331.738 237.722,348.824 280.462,348.824 286.657,342.629 292.853,348.824 
			296.993,348.824 296.993,331.738 		"/>
	</g>
	<g>
		<path style="fill:#FF9C9F;" d="M40.081,173.089H22.496C10.092,173.089,0,162.996,0,150.591s10.092-22.497,22.496-22.497
			c3.465,0,6.274,2.809,6.274,6.274s-2.81,6.274-6.274,6.274c-5.486,0-9.948,4.463-9.948,9.949s4.462,9.949,9.948,9.949h17.585
			c3.465,0,6.274,2.809,6.274,6.274C46.355,170.279,43.546,173.089,40.081,173.089z"/>
		<path style="fill:#DB8689;" d="M40.081,173.089c-12.404,0-22.496-10.092-22.496-22.497s10.092-22.497,22.496-22.497
			s22.498,10.092,22.498,22.497S52.485,173.089,40.081,173.089z M40.081,140.642c-5.486,0-9.948,4.463-9.948,9.949
			c0,5.486,4.462,9.949,9.948,9.949s9.95-4.463,9.95-9.949C50.031,145.106,45.567,140.642,40.081,140.642z"/>
	</g>
	<g>
		<path style="fill:#FF9C9F;" d="M305.202,88.371c12.858-20.644,46.157-37.577,67.082-25.004l-28.834,47.986L305.202,88.371z"/>
		<path style="fill:#FFB6B6;" d="M375.985,122.319c8.003-18.688,8.927-46.177-3.701-58.951c-17.207-5.154-41.046,8.569-53.79,24.406
			c-0.007,0.015-0.199,0.307-0.284,0.445c-1.943,3.233-0.895,7.429,2.336,9.37l45.811,27.527c3.232,1.941,7.426,0.896,9.37-2.337
			C375.81,122.64,375.978,122.333,375.985,122.319z"/>
	</g>
	<polygon style="fill:#333E48;" points="62.016,331.738 62.016,348.824 104.757,348.824 110.951,342.629 117.146,348.824 
		121.288,348.824 121.288,331.738 	"/>
	<path style="fill:#FF9C9F;" d="M299.813,75.01c-32.706,0-61.548,16.548-78.611,41.728h-90.793c-52.037,0-94.22,42.184-94.22,94.22
		c0,25.105,9.819,47.915,25.827,64.802v55.978h59.273v-27.001c3.001,0.288,6.042,0.441,9.12,0.441h66.093v26.56h59.273v-31.825
		c18.874-6.602,35.006-19.038,46.234-35.149c51.392-1.168,92.693-43.191,92.693-94.863C394.702,117.494,352.219,75.01,299.813,75.01
		z"/>
	<g>
		<path style="fill:#DB8689;" d="M379.712,200.138h-45.011c-15.079,0-27.305-12.226-27.305-27.306
			c0-15.081,12.226-27.306,27.305-27.306h45.011L379.712,200.138L379.712,200.138z"/>
		<path style="fill:#FFB6B6;" d="M379.712,145.526c15.08,0,27.306,12.225,27.306,27.306s-12.226,27.306-27.306,27.306h-27.314
			c-15.081,0-27.307-12.226-27.307-27.306c0-15.081,12.226-27.306,27.307-27.306H379.712z"/>
		<path style="fill:#DB8689;" d="M347.6,165.229c0-3.752,3.043-6.795,6.796-6.795c3.752,0,6.795,3.043,6.795,6.795v15.206
			c0,3.753-3.043,6.795-6.795,6.795c-3.753,0-6.796-3.042-6.796-6.795V165.229z"/>
		<path style="fill:#DB8689;" d="M391.267,165.229c0-3.752-3.043-6.795-6.796-6.795s-6.794,3.043-6.794,6.795v15.206
			c0,3.753,3.041,6.795,6.794,6.795s6.796-3.042,6.796-6.795V165.229z"/>
	</g>
	<circle style="fill:#333E48;" cx="311.256" cy="128.136" r="7.58"/>
	<circle style="fill:#333E48;" cx="369.916" cy="128.136" r="7.579"/>
	<polygon style="fill:#333E48;" points="196.501,331.738 196.501,348.824 239.243,348.824 245.438,342.629 251.632,348.824 
		255.774,348.824 255.774,331.738 	"/>
	<circle style="fill:#DB8689;" cx="78.775" cy="182.019" r="12.875"/>
	<circle style="fill:#DB8689;" cx="121.287" cy="158.434" r="12.875"/>
	<circle style="fill:#DB8689;" cx="113.525" cy="193.928" r="7.664"/>
	<g>
		<path style="fill:#FF9C9F;" d="M225.735,129.635c-11.449-21.458-9.464-58.762,11.887-70.598l27.141,48.964L225.735,129.635z"/>
		<path style="fill:#FFB6B6;" d="M290.527,85.308c-12.184-16.272-35.528-30.818-52.904-26.269
			c-13.068,12.326-13.102,39.83-5.759,58.786c0.01,0.015,0.166,0.328,0.243,0.47c1.828,3.299,5.985,4.49,9.282,2.663l46.746-25.911
			c3.297-1.828,4.488-5.984,2.661-9.284C290.718,85.62,290.535,85.322,290.527,85.308z"/>
	</g>
</g>
</svg>