<?xml version="1.0" encoding="utf-8"?><!-- Uploaded to: SVG Repo, www.svgrepo.com, Generator: SVG Repo Mixer Tools -->
<svg width="800px" height="800px" viewBox="0 0 64 64" xmlns="http://www.w3.org/2000/svg" xmlns:xlink="http://www.w3.org/1999/xlink" aria-hidden="true" role="img" class="iconify iconify--emojione-monotone" preserveAspectRatio="xMidYMid meet"><path d="M54.879 7.253c-1.311-.958-4.641-1.26-6.04-2.127c-4.161-2.573-9.978-6.045-10.3 1.223c-.313 7.099-1.196 12.383-2.002 15.915A37.189 37.189 0 0 0 32.002 22c-1.998 0-3.803.148-5.457.403c-.43-2.784-.848-6.67-1.084-12.015c-.322-7.268-6.139-3.796-10.3-1.223c-1.399.867-4.73 1.17-6.04 2.127c-4.2 3.068-9.624 13.826-5.849 12.722c2.363-.69 6.468-3.967 8.178-5.39c2.27 2.724 4.159 5.366 5.604 7.855l.012.021c-2.295 2.195-3.39 5.068-3.39 8.348c0 6.254-9.524 15.44-1.036 21.566C16.738 59.369 23.813 62 32.002 62c8.187 0 15.26-2.631 19.359-5.586c8.486-6.126-1.037-15.312-1.037-21.566c0-3.91-1.57-7.236-4.865-9.528c.813-1.823 2.799-5.582 7.092-10.734c1.71 1.423 5.814 4.7 8.176 5.39c3.775 1.103-1.649-9.655-5.848-12.723M12.238 17.958l.001-.001l6.87-5.572c1.401 1.889 2.947 6.782 4.046 10.774c-2.137.647-3.9 1.547-5.295 2.663c-1.189-2.033-2.977-4.691-5.622-7.864M45.6 34.301c.865.897 1.582 2.074 1.87 3.307c.313 1.254.255 2.629-.017 3.95c-.131.662-.32 1.324-.563 1.936l-.093.216a.125.125 0 0 1-.014.024c0-.001 0-.005.002-.006l-.045.056a2.29 2.29 0 0 1-.302.277c-.23.181-.491.342-.769.475c-1.116.529-2.409.705-3.691.668c-1.295-.005-2.588-.275-3.881-.583a14.035 14.035 0 0 0 3.832 1.235c1.335.195 2.746.176 4.094-.352c.301-.117.594-.268.881-.449c2.39.242 4.306.938 4.896 2.331c2.117 4.986-7.834 13.405-19.799 13.405c-11.969 0-21.921-8.419-19.803-13.405c.592-1.394 2.508-2.089 4.896-2.332c.288.183.583.333.882.45c1.347.527 2.759.547 4.094.352a14.08 14.08 0 0 0 3.832-1.235c-1.293.308-2.586.578-3.881.583c-1.282.037-2.576-.139-3.691-.668a4.167 4.167 0 0 1-.769-.475a2.522 2.522 0 0 1-.303-.277l-.044-.056c.001.001.003.005.001.005l-.014-.023l-.092-.216a11.211 11.211 0 0 1-.563-1.936c-.272-1.321-.33-2.697-.017-3.95c.288-1.232 1.004-2.409 1.871-3.307c.87-.91 1.999-1.461 3.184-1.425c.29.013.602.05.878.124c.31.081.596.178.877.309a4.78 4.78 0 0 1 1.527 1.108c.917.939 1.513 2.258 1.842 3.646a7.66 7.66 0 0 0-.542-2.466c1.354-2.834 2.947-5.348 4.178-6.968c1.156-1.525 2.155-1.525 3.311 0c1.23 1.62 2.823 4.134 4.177 6.968a7.64 7.64 0 0 0-.542 2.466c.33-1.389.926-2.706 1.842-3.646a4.755 4.755 0 0 1 1.527-1.108c.281-.131.568-.228.877-.309c.275-.074.588-.111.879-.124c1.187-.036 2.314.515 3.185 1.425m-1.012-9.553c-1.33-.781-2.907-1.409-4.729-1.869c.957-3.854 3.126-11.966 5.031-14.535l6.869 5.572l.006.004c-4.244 5.094-6.286 8.866-7.177 10.828" fill="#000000"></path><ellipse cx="41.805" cy="39.542" rx="3.268" ry="4.008" fill="#000000"></ellipse><ellipse cx="22.198" cy="39.542" rx="3.268" ry="4.008" fill="#000000"></ellipse><path d="M32.926 49.144l-.277-1.269c.682-.094 1.453-.348 2.252-.866c1.688-1.097 2.178-2.367 1.543-2.88c-.891-.719-3.626-.774-4.443-.774c-.816 0-3.553.056-4.443.774c-.634.513-.144 1.783 1.545 2.88c.799.521 1.572.772 2.253.866l-.281 1.269c-.211.947-.925 1.81-1.903 2.41c-.953.625-2.231.95-3.443 1.026c-1.338.047-2.595-.177-3.752-.736c-1.145-.542-2.096-1.424-2.581-2.547c.066 1.201.88 2.37 2.046 3.178c.491.343 1.068.61 1.672.826c1.184 1.727 4.2 4.866 8.889 4.866c4.69 0 7.707-3.143 8.889-4.868c.601-.216 1.172-.483 1.67-.826c1.165-.807 1.979-1.976 2.049-3.176c-.483 1.124-1.437 2.006-2.582 2.548c-1.137.56-2.453.787-3.725.738c-1.282-.076-2.498-.403-3.473-1.028c-.977-.602-1.696-1.463-1.905-2.411m2.402 5.96h-6.654V53.4a8.62 8.62 0 0 0 1.532-.632A6.202 6.202 0 0 0 32 51.251a6.182 6.182 0 0 0 1.795 1.515a8.22 8.22 0 0 0 1.533.632v1.706" fill="#000000"></path></svg>