<?xml version="1.0" encoding="UTF-8"?>
<svg version="1.1" xmlns="http://www.w3.org/2000/svg" width="214" height="235">
<path d="M0 0 C70.62 0 141.24 0 214 0 C214 77.55 214 155.1 214 235 C143.38 235 72.76 235 0 235 C0 157.45 0 79.9 0 0 Z " fill="#FDFEFE" transform="translate(0,0)"/>
<path d="M0 0 C1.97023371 3.94046743 1.67778201 8.81987316 0.38671875 12.97265625 C-2.05936387 17.87559718 -5.97151714 20.9269287 -11 23 C-13.324363 23.39101434 -15.6579852 23.73443982 -18 24 C-17.80821462 36.87326728 -17.80821462 36.87326728 -14 49 C-13.7525 49.7425 -13.505 50.485 -13.25 51.25 C-10.63386008 54.91259589 -6.16941543 56.61019486 -2 58 C6.77750901 58.88455517 12.91082161 56.12739318 20 51 C22.61292989 48.31533752 22.61292989 48.31533752 25 45.3125 C25.65379639 44.51477173 25.65379639 44.51477173 26.32080078 43.70092773 C28.69902698 40.75934427 30.86932323 37.76683566 32.875 34.5625 C38.50462937 25.81418391 46.41280961 16.39335327 56 12 C57.10408203 11.41992188 57.10408203 11.41992188 58.23046875 10.828125 C69.37087301 5.78471718 83.36805995 6.52749837 94.9375 9.8125 C104.07127596 13.29631181 113.54155971 20.08311943 118 29 C118 29.66 118 30.32 118 31 C118.66 31 119.32 31 120 31 C120.63381508 32.32916561 121.25648484 33.66364609 121.875 35 C122.39707031 36.11375 122.39707031 36.11375 122.9296875 37.25 C127.65836528 49.39959547 128.00623581 64.87526278 123 77 C119.25111542 83.76123334 114.88660867 89.95433542 109 95 C108.34 95 107.68 95 107 95 C107 95.66 107 96.32 107 97 C101.90436283 101.1593642 95.75517244 103.51213805 89.625 105.6875 C88.78864014 105.98930176 87.95228027 106.29110352 87.09057617 106.60205078 C81.45632942 108.59254379 75.93968052 110.22476339 70 111 C68.14375 111.309375 68.14375 111.309375 66.25 111.625 C41.15136236 114.38585014 19.45272661 107.98428225 -1.48828125 94.26171875 C-1.98714844 93.84535156 -2.48601563 93.42898437 -3 93 C-3 92.34 -3 91.68 -3 91 C-3.598125 90.71125 -4.19625 90.4225 -4.8125 90.125 C-7 89 -7 89 -10 87 C-10 86.34 -10 85.68 -10 85 C-10.66 85 -11.32 85 -12 85 C-13.56399094 82.90461446 -14.98390885 80.83187018 -16.375 78.625 C-16.98444458 77.65989502 -16.98444458 77.65989502 -17.60620117 76.67529297 C-25.72188087 63.55464397 -30.27752116 46.98152361 -30.0625 31.5 C-30.05347656 30.6440625 -30.04445313 29.788125 -30.03515625 28.90625 C-30.02355469 28.2771875 -30.01195313 27.648125 -30 27 C-30.99 27.04125 -31.98 27.0825 -33 27.125 C-37.23835866 27.1423348 -40.93193985 26.14191162 -45 25 C-45 24.34 -45 23.68 -45 23 C-45.86625 22.690625 -45.86625 22.690625 -46.75 22.375 C-49.9301561 20.43157127 -51.24341266 18.26223364 -53 15 C-53.109375 11.796875 -53.109375 11.796875 -53 9 C-49.79197767 8.88301742 -46.58450975 8.81249393 -43.375 8.75 C-42.01955078 8.69972656 -42.01955078 8.69972656 -40.63671875 8.6484375 C-34.89249233 8.56458018 -31.50871331 9.06200989 -27 13 C-25.125 15.75 -25.125 15.75 -24 18 C-23.76925781 17.32453125 -23.53851563 16.6490625 -23.30078125 15.953125 C-22.97464844 15.06109375 -22.64851563 14.1690625 -22.3125 13.25 C-21.99925781 12.36828125 -21.68601562 11.4865625 -21.36328125 10.578125 C-19.09453753 6.28766409 -16.20671193 4.46823313 -11.73828125 2.734375 C-10.04251953 2.24710937 -10.04251953 2.24710937 -8.3125 1.75 C-7.17425781 1.41484375 -6.03601562 1.0796875 -4.86328125 0.734375 C-2 0 -2 0 0 0 Z " fill="#027DFB" transform="translate(61,115)"/>
<path d="M0 0 C0 0.66 0 1.32 0 2 C2.64 2.33 5.28 2.66 8 3 C8 3.99 8 4.98 8 6 C8.928125 6.2165625 8.928125 6.2165625 9.875 6.4375 C12 7 12 7 14 8 C14 8.66 14 9.32 14 10 C14.66 10 15.32 10 16 10 C17.02611949 11.65071396 18.02308143 13.31970006 19 15 C19.47566406 15.45375 19.95132813 15.9075 20.44140625 16.375 C27.32951457 23.55658662 30.1139219 35.35091919 31.47265625 44.875 C31.98351322 47.90230055 32.72349575 50.82312229 33.48510742 53.79492188 C37.01012284 68.89114722 39.81001647 87.72920819 36 103 C36.66 102.67 37.32 102.34 38 102 C38.66765492 99.80015464 38.66765492 99.80015464 39.1875 97.0625 C42.18366314 84.38176915 47.28966194 72.15931677 54 61 C54.66 61 55.32 61 56 61 C56.4640625 60.071875 56.4640625 60.071875 56.9375 59.125 C58.86266833 55.27466334 60.26952999 54.23828201 64 52 C64.495 51.01 64.495 51.01 65 50 C62.76593696 50.34463219 60.53768837 50.7270732 58.3125 51.125 C57.07113281 51.33382812 55.82976562 51.54265625 54.55078125 51.7578125 C50.295703 53.24638773 48.19317522 55.17437889 46 59 C44.66687676 62.06374209 43.65346824 65.17889401 42.6875 68.375 C42.42388672 69.20644531 42.16027344 70.03789063 41.88867188 70.89453125 C41.24661126 72.92577755 40.62153806 74.96238036 40 77 C39.67 77 39.34 77 39 77 C38.16023929 29.94325492 38.16023929 29.94325492 48 17 C52.64916045 12.86533416 57.30994977 12.64758803 63.33203125 12.71875 C69.0612386 13.32270744 73.54443205 15.47165366 77.5 19.625 C80.5304734 24.42324955 80.36779681 28.4060672 80 34 C79 37.625 79 37.625 78 40 C77.34 40 76.68 40 76 40 C76 42.31 76 44.62 76 47 C76.79664063 46.98839844 77.59328125 46.97679687 78.4140625 46.96484375 C90.66910153 46.8604821 90.66910153 46.8604821 94 48 C95.1875 50.5 95.1875 50.5 96 53 C96.99 53.33 97.98 53.66 99 54 C102.9446057 59.40557078 102.79472778 65.5919844 102 72 C100.94314503 74.99213486 99.67555634 77.27722095 98 80 C97.34 80 96.68 80 96 80 C95.87044922 80.93392578 95.87044922 80.93392578 95.73828125 81.88671875 C95 84 95 84 93.35546875 85.08203125 C87.77482994 86.9623546 83.3662907 87.02206387 77.55078125 86.328125 C73.10622367 85.91740681 68.71039309 85.9116769 64.25 85.9375 C63.03292358 85.94366333 63.03292358 85.94366333 61.79125977 85.94995117 C59.8608091 85.96258474 57.93039549 85.98069605 56 86 C56 86.66 56 87.32 56 88 C53.34771188 89.07525194 50.71631546 90.09456151 48 91 C47.835 91.66 47.67 92.32 47.5 93 C47.335 93.66 47.17 94.32 47 95 C45.515 95.495 45.515 95.495 44 96 C44 97.65 44 99.3 44 101 C42.515 101.495 42.515 101.495 41 102 C40.690625 102.99 40.38125 103.98 40.0625 105 C39.711875 105.99 39.36125 106.98 39 108 C36.93359375 108.6875 36.93359375 108.6875 35 109 C33.33518254 104.0366657 31.69649534 99.06702627 30.09765625 94.08203125 C29.41939507 91.99214718 28.7410078 89.90230402 28.0625 87.8125 C27.72798828 86.75869141 27.39347656 85.70488281 27.04882812 84.61914062 C24.25968384 76.09048555 21.49048039 70.39314588 14 65 C9.46766823 63.09769737 6.11426087 62.87976982 1.25 63.375 C-22.35102183 65.43265211 -22.35102183 65.43265211 -32 59 C-38.33303183 52.97318069 -43.69087869 45.39773365 -44.203125 36.453125 C-44.22435179 35.05215701 -44.23977305 33.65109147 -44.25 32.25 C-44.270625 31.5590625 -44.29125 30.868125 -44.3125 30.15625 C-44.35511771 24.48809396 -43.40988517 19.61970104 -39.4296875 15.29296875 C-38.91664062 14.92816406 -38.40359375 14.56335937 -37.875 14.1875 C-34.97267846 12.31286794 -34.97267846 12.31286794 -34 10 C-33.34 10 -32.68 10 -32 10 C-31.95875 9.236875 -31.9175 8.47375 -31.875 7.6875 C-31 5 -31 5 -28.5 3.3125 C-18.96819205 -0.26192798 -10.056417 -0.22210492 0 0 Z " fill="#A9FCFC" transform="translate(104,8)"/>
<path d="M0 0 C1.16796875 1.578125 1.16796875 1.578125 1.16796875 3.578125 C1.91046875 3.805 2.65296875 4.031875 3.41796875 4.265625 C6.82915878 5.89369297 8.11049428 7.41178008 10.16796875 10.578125 C10.6640625 13.953125 10.6640625 13.953125 10.60546875 17.578125 C10.60417969 18.774375 10.60289062 19.970625 10.6015625 21.203125 C10.14266674 24.77507037 9.36223002 26.74543563 7.16796875 29.578125 C6.50796875 29.578125 5.84796875 29.578125 5.16796875 29.578125 C5.08160156 30.20074219 4.99523437 30.82335937 4.90625 31.46484375 C4.16796875 33.578125 4.16796875 33.578125 2.5234375 34.66015625 C-3.05720131 36.5404796 -7.46574055 36.60018887 -13.28125 35.90625 C-17.72580758 35.49553181 -22.12163816 35.4898019 -26.58203125 35.515625 C-27.79910767 35.52178833 -27.79910767 35.52178833 -29.04077148 35.52807617 C-30.97122215 35.54070974 -32.90163576 35.55882105 -34.83203125 35.578125 C-34.83203125 36.238125 -34.83203125 36.898125 -34.83203125 37.578125 C-36.11078125 37.701875 -37.38953125 37.825625 -38.70703125 37.953125 C-42.17994061 38.26854899 -42.17994061 38.26854899 -44.83203125 40.578125 C-45.62496668 32.05406916 -42.76554508 22.54460909 -37.83203125 15.578125 C-37.17203125 15.578125 -36.51203125 15.578125 -35.83203125 15.578125 C-35.60515625 14.835625 -35.37828125 14.093125 -35.14453125 13.328125 C-33.5632724 10.01501121 -31.76363364 8.74192677 -28.83203125 6.578125 C-28.19265625 5.876875 -27.55328125 5.175625 -26.89453125 4.453125 C-24.38498642 2.17172061 -22.07405412 1.46231306 -18.83203125 0.578125 C-18.83203125 -0.081875 -18.83203125 -0.741875 -18.83203125 -1.421875 C-13.29348873 -2.76908805 -4.75769817 -3.69254186 0 0 Z " fill="#AAFDFC" transform="translate(194.83203125,58.421875)"/>
<path d="M0 0 C4.61834539 4.84926266 5.21494438 7.96267513 5.16796875 14.4453125 C4.96461007 17.53825614 4.20021201 20.14949648 3 23 C2.34 23 1.68 23 1 23 C0.7525 23.598125 0.505 24.19625 0.25 24.8125 C-1.25478088 27.44586654 -2.40094252 28.42093388 -5 30 C-7.42087275 30.52171602 -9.86264029 30.95056093 -12.3125 31.3125 C-18.58851908 32.41285568 -23.08331292 33.76978981 -27 39 C-31.22691799 45.25469621 -32.94386744 52.82540977 -35 60 C-35.33 60 -35.66 60 -36 60 C-36.83976071 12.94325492 -36.83976071 12.94325492 -27 0 C-19.43254921 -6.73000654 -8.05830723 -5.11455826 0 0 Z " fill="#037DFB" transform="translate(179,25)"/>
<path d="M0 0 C1.97023371 3.94046743 1.67778201 8.81987316 0.38671875 12.97265625 C-2.05936387 17.87559718 -5.97151714 20.9269287 -11 23 C-13.324363 23.39101434 -15.6579852 23.73443982 -18 24 C-17.80821462 36.87326728 -17.80821462 36.87326728 -14 49 C-13.7525 49.7425 -13.505 50.485 -13.25 51.25 C-10.63386008 54.91259589 -6.16941543 56.61019486 -2 58 C6.77093867 58.88389304 12.92186627 56.13563838 20 51 C22.7138529 48.17894469 22.7138529 48.17894469 25.1875 45.0625 C25.61224609 44.55009766 26.03699219 44.03769531 26.47460938 43.50976562 C28.94629253 40.48454845 31.07809985 37.39932177 33 34 C33.6640625 35.75390625 33.6640625 35.75390625 34 38 C32.9609375 39.96484375 32.9609375 39.96484375 31.375 41.9375 C30.81554687 42.63488281 30.25609375 43.33226562 29.6796875 44.05078125 C27.56692324 46.50257048 25.34646939 48.77085408 23 51 C22.48050781 51.54011719 21.96101563 52.08023438 21.42578125 52.63671875 C19.98899606 54.12916632 18.49778676 55.56878154 17 57 C16.34 57 15.68 57 15 57 C15 57.66 15 58.32 15 59 C5.9219363 61.01734749 -2.67714667 60.49460778 -11.52734375 57.8515625 C-16.37026952 54.22510624 -18.55248804 48.81889872 -19.48657227 42.93505859 C-19.70935514 39.74011046 -19.79498975 36.57743018 -19.8125 33.375 C-19.83763672 32.27542969 -19.86277344 31.17585938 -19.88867188 30.04296875 C-19.94696211 27.36161815 -19.98366661 24.68187806 -20 22 C-21.98 21.67 -23.96 21.34 -26 21 C-26 30.9 -26 40.8 -26 51 C-25.34 51 -24.68 51 -24 51 C-24 52.98 -24 54.96 -24 57 C-23.34 57 -22.68 57 -22 57 C-21.67 60.3 -21.34 63.6 -21 67 C-25.82356953 60.56857396 -27.45733872 53.97748743 -28.6875 46.125 C-28.81487549 45.34141113 -28.94225098 44.55782227 -29.07348633 43.75048828 C-29.94361129 38.10955742 -30.2764367 32.71302513 -30 27 C-30.99 27.04125 -31.98 27.0825 -33 27.125 C-37.23835866 27.1423348 -40.93193985 26.14191162 -45 25 C-45 24.34 -45 23.68 -45 23 C-45.86625 22.690625 -45.86625 22.690625 -46.75 22.375 C-49.9301561 20.43157127 -51.24341266 18.26223364 -53 15 C-53.109375 11.796875 -53.109375 11.796875 -53 9 C-49.79197767 8.88301742 -46.58450975 8.81249393 -43.375 8.75 C-42.01955078 8.69972656 -42.01955078 8.69972656 -40.63671875 8.6484375 C-34.89249233 8.56458018 -31.50871331 9.06200989 -27 13 C-25.125 15.75 -25.125 15.75 -24 18 C-23.76925781 17.32453125 -23.53851563 16.6490625 -23.30078125 15.953125 C-22.97464844 15.06109375 -22.64851563 14.1690625 -22.3125 13.25 C-21.99925781 12.36828125 -21.68601562 11.4865625 -21.36328125 10.578125 C-19.09453753 6.28766409 -16.20671193 4.46823313 -11.73828125 2.734375 C-10.04251953 2.24710937 -10.04251953 2.24710937 -8.3125 1.75 C-7.17425781 1.41484375 -6.03601562 1.0796875 -4.86328125 0.734375 C-2 0 -2 0 0 0 Z " fill="#1063C9" transform="translate(61,115)"/>
<path d="M0 0 C0.66 0 1.32 0 2 0 C1.855625 0.73476563 1.71125 1.46953125 1.5625 2.2265625 C-0.77829092 16.36884098 -0.18023653 30.71278901 0 45 C0.19408447 44.25741943 0.38816895 43.51483887 0.58813477 42.74975586 C0.84908936 41.76885986 1.11004395 40.78796387 1.37890625 39.77734375 C1.63486572 38.80788818 1.8908252 37.83843262 2.15454102 36.83959961 C3.80613657 31.29247058 6.14548153 25.41128325 11 22 C15.5784235 20.5025457 20.17308283 19.68858599 25 20 C24.25 21.9375 24.25 21.9375 23 24 C21.66666667 24.33333333 20.33333333 24.66666667 19 25 C17.75825204 26.9001177 17.75825204 26.9001177 17 29 C16.67 29.66 16.34 30.32 16 31 C15.34 31 14.68 31 14 31 C13.83564453 31.84498047 13.83564453 31.84498047 13.66796875 32.70703125 C12.89956137 35.34478056 11.72287479 37.3294718 10.3125 39.6875 C5.37215921 48.55630454 1.74120911 58.52171981 -0.1875 68.5 C-0.5896875 70.2325 -0.5896875 70.2325 -1 72 C-2.485 72.495 -2.485 72.495 -4 73 C-3.98952637 72.31599121 -3.97905273 71.63198242 -3.96826172 70.92724609 C-3.6895989 53.77768695 -3.6895989 53.77768695 -5.5546875 36.76953125 C-6.1412595 33.12146506 -6.14738639 29.68465969 -6 26 C-5.01 26.99 -4.02 27.98 -3 29 C-2.98018066 28.40574219 -2.96036133 27.81148437 -2.93994141 27.19921875 C-2.84376007 24.46575581 -2.73446443 21.73296197 -2.625 19 C-2.5940625 18.06542969 -2.563125 17.13085938 -2.53125 16.16796875 C-2.2934434 10.50024472 -1.58129952 5.45098372 0 0 Z " fill="#F5FDFD" transform="translate(144,38)"/>
<path d="M0 0 C4.61834539 4.84926266 5.21494438 7.96267513 5.16796875 14.4453125 C4.96461007 17.53825614 4.20021201 20.14949648 3 23 C2.34 23 1.68 23 1 23 C0.7525 23.598125 0.505 24.19625 0.25 24.8125 C-1.25478088 27.44586654 -2.40094252 28.42093388 -5 30 C-7.42087275 30.52171602 -9.86264029 30.95056093 -12.3125 31.3125 C-18.58851908 32.41285568 -23.08331292 33.76978981 -27 39 C-31.22691799 45.25469621 -32.94386744 52.82540977 -35 60 C-35.33 60 -35.66 60 -36 60 C-36.83976071 12.94325492 -36.83976071 12.94325492 -27 0 C-19.43254921 -6.73000654 -8.05830723 -5.11455826 0 0 Z M-20 -2 C-20.33 -1.34 -20.66 -0.68 -21 0 C-21.928125 0.1546875 -21.928125 0.1546875 -22.875 0.3125 C-25.9893987 1.32009958 -26.51402876 3.1572724 -28 6 C-28.50015625 6.75539063 -29.0003125 7.51078125 -29.515625 8.2890625 C-35.01187401 18.32694886 -33.21322614 32.88854895 -33 44 C-30.09514973 40.75817539 -30.09514973 40.75817539 -28.5625 36.8125 C-28.376875 36.214375 -28.19125 35.61625 -28 35 C-25.4375 33.75 -25.4375 33.75 -23 33 C-23 32.34 -23 31.68 -23 31 C-21.87980469 30.89042969 -20.75960937 30.78085937 -19.60546875 30.66796875 C-18.13273778 30.50850107 -16.66008535 30.34830683 -15.1875 30.1875 C-14.44951172 30.11724609 -13.71152344 30.04699219 -12.95117188 29.97460938 C-8.76747386 29.55294576 -8.76747386 29.55294576 -5.17578125 27.55078125 C-4.78777344 27.03902344 -4.39976562 26.52726562 -4 26 C-3.01 25.34 -2.02 24.68 -1 24 C-1 23.34 -1 22.68 -1 22 C-0.34 22 0.32 22 1 22 C3.30761691 17.56937552 4.68503677 14.18531372 3.765625 9.05859375 C2.20880247 4.87264747 -0.60145644 1.82423699 -4 -1 C-9.37521802 -3.26324969 -14.43200829 -3.85599724 -20 -2 Z " fill="#1F7BD8" transform="translate(179,25)"/>
<path d="M0 0 C0 1.65 0 3.3 0 5 C0.79664063 4.98839844 1.59328125 4.97679687 2.4140625 4.96484375 C14.66910153 4.8604821 14.66910153 4.8604821 18 6 C19.1875 8.5 19.1875 8.5 20 11 C20.99 11.33 21.98 11.66 23 12 C27.01573441 17.50304345 26.28367867 23.50691051 26 30 C25.67 30 25.34 30 25 30 C24.97421875 29.26394531 24.9484375 28.52789062 24.921875 27.76953125 C24.59276402 21.566012 24.59276402 21.566012 22.1875 15.9375 C20.16525571 14.14636934 18.44311688 13.09519033 16 12 C15.505 11.01 15.505 11.01 15 10 C11.91729704 7.94486469 10.74782842 7.67032678 7.1875 7.375 C6.30707031 7.30152344 5.42664063 7.22804688 4.51953125 7.15234375 C1.67375295 6.98027343 -1.14987291 6.92499666 -4 7 C-4 7.66 -4 8.32 -4 9 C-10.75 13 -10.75 13 -13 13 C-13.2475 13.61875 -13.495 14.2375 -13.75 14.875 C-15 17 -15 17 -17 17.9375 C-19.74986668 19.39836667 -20.08833304 21.11305462 -21 24 C-21.66 24 -22.32 24 -23 24 C-23.18175781 24.54527344 -23.36351562 25.09054688 -23.55078125 25.65234375 C-23.80214844 26.40644531 -24.05351562 27.16054687 -24.3125 27.9375 C-24.58191406 28.75476563 -24.85132813 29.57203125 -25.12890625 30.4140625 C-25.69813967 32.10389443 -26.28849237 33.78679738 -26.90234375 35.4609375 C-27.18207031 36.23695312 -27.46179688 37.01296875 -27.75 37.8125 C-28.01296875 38.52019531 -28.2759375 39.22789063 -28.546875 39.95703125 C-29.06907237 42.31142113 -28.75342762 43.73462643 -28 46 C-26.68 46.33 -25.36 46.66 -24 47 C-24.639375 47.2475 -25.27875 47.495 -25.9375 47.75 C-28.19895007 48.79688294 -28.19895007 48.79688294 -28.5625 51.0625 C-28.706875 51.701875 -28.85125 52.34125 -29 53 C-30.485 53.495 -30.485 53.495 -32 54 C-32 55.65 -32 57.3 -32 59 C-33.485 59.495 -33.485 59.495 -35 60 C-35.33 60.66 -35.66 61.32 -36 62 C-35.78888622 60.17034721 -35.57070678 58.34137209 -35.328125 56.515625 C-35.10435428 54.80004952 -34.90753563 53.08079533 -34.734375 51.359375 C-33.25488897 39.58781227 -27.94841942 29.1280357 -22 19 C-21.34 19 -20.68 19 -20 19 C-19.5359375 18.071875 -19.5359375 18.071875 -19.0625 17.125 C-17.13733167 13.27466334 -15.73047001 12.23828201 -12 10 C-11.67 9.34 -11.34 8.68 -11 8 C-14.96 8.66 -18.92 9.32 -23 10 C-21 7 -21 7 -17.69921875 6.19140625 C-15.69398466 5.8581982 -13.68561959 5.56222824 -11.67382812 5.27148438 C-7.65636816 4.59992084 -3.11872094 0 0 0 Z " fill="#B1F1F3" transform="translate(180,50)"/>
<path d="M0 0 C1.74020928 3.48041856 1.45464552 7.19467932 1 11 C-0.55665758 15.21830008 -2.93350129 18.90513703 -7 21 C-9.75 21.1875 -9.75 21.1875 -12 21 C-12.33 20.01 -12.66 19.02 -13 18 C-12.34 18 -11.68 18 -11 18 C-11 16.68 -11 15.36 -11 14 C-11.99 14 -12.98 14 -14 14 C-14 13.34 -14 12.68 -14 12 C-16.97 11.505 -16.97 11.505 -20 11 C-20 12.32 -20 13.64 -20 15 C-19.01 15.33 -18.02 15.66 -17 16 C-18.3125 17.5 -18.3125 17.5 -20 19 C-20.99 19 -21.98 19 -23 19 C-22.3773741 12.64921586 -21.3399389 8.94994908 -16.375 4.8125 C-12.85267413 2.92088055 -9.85071345 2.10378629 -5.953125 1.39453125 C-3.730839 0.94562948 -2.28905778 0 0 0 Z " fill="#1A62BA" transform="translate(61,115)"/>
<path d="M0 0 C3.20802233 -0.11698258 6.41549025 -0.18750607 9.625 -0.25 C10.98044922 -0.30027344 10.98044922 -0.30027344 12.36328125 -0.3515625 C18.09439218 -0.43522835 21.52450354 0.03437022 26 4 C27.875 7.25 27.875 7.25 29 10 C28.01 10 27.02 10 26 10 C26 9.01 26 8.02 26 7 C25.34 7 24.68 7 24 7 C24 6.01 24 5.02 24 4 C22.02 3.34 20.04 2.68 18 2 C17.67 2.99 17.34 3.98 17 5 C14.61435923 4.42415568 12.33317216 3.77772405 10 3 C11.25541557 5.51083114 12.50063488 5.87125446 15 7 C14.125 10.875 14.125 10.875 13 12 C13.66 12.33 14.32 12.66 15 13 C15 13.99 15 14.98 15 16 C12.69 16 10.38 16 8 16 C8 15.34 8 14.68 8 14 C7.4225 13.79375 6.845 13.5875 6.25 13.375 C3.0698439 11.43157127 1.75658734 9.26223364 0 6 C-0.109375 2.796875 -0.109375 2.796875 0 0 Z " fill="#1453A8" transform="translate(8,124)"/>
<path d="M0 0 C1.32 0 2.64 0 4 0 C4.6708712 1.6232687 5.33657029 3.24867578 6 4.875 C6.556875 6.23238281 6.556875 6.23238281 7.125 7.6171875 C8 10 8 10 8 12 C8.99 12.33 9.98 12.66 11 13 C11 13.66 11 14.32 11 15 C12.423125 15.2165625 12.423125 15.2165625 13.875 15.4375 C17 16 17 16 19 17 C21.88912732 16.91061582 24.74393255 16.765952 27.625 16.5625 C28.42679688 16.51029297 29.22859375 16.45808594 30.0546875 16.40429688 C32.03679103 16.27451629 34.01844499 16.13790265 36 16 C37.65 12.04 39.3 8.08 41 4 C42.19196311 8.76785243 41.27694648 10.89683364 39 15 C35.32432293 20.92552475 31.64530858 25.8692864 26 30 C26 29.01 26 28.02 26 27 C26.66 27 27.32 27 28 27 C28.33 25.68 28.66 24.36 29 23 C28.09378906 23.05800781 27.18757813 23.11601562 26.25390625 23.17578125 C18.17847577 23.47487127 12.43030233 23.14140913 6 18 C2.10249401 14.29736931 1.41618776 11.3063939 1 6 C2.74095991 8.26324789 4.23795963 10.4301578 5.625 12.9375 C8.84147372 17.08505822 12.01272487 19.33278411 17 21 C22.72804646 21.59024366 28.44055189 21.64225828 34 20 C34 19.34 34 18.68 34 18 C33.47019531 18.15984375 32.94039062 18.3196875 32.39453125 18.484375 C24.88725032 20.10095099 16.61726791 20.08299509 10 16 C6.23874694 12.13426769 3 7.51328614 3 2 C2.34 2 1.68 2 1 2 C0.67 2.66 0.34 3.32 0 4 C0 2.68 0 1.36 0 0 Z " fill="#1882D3" transform="translate(143,180)"/>
<path d="M0 0 C2.64 0.33 5.28 0.66 8 1 C5.23776722 3.76223278 2.79293383 3.57856291 -1 4 C-0.80821462 16.87326728 -0.80821462 16.87326728 3 29 C3.2475 29.7425 3.495 30.485 3.75 31.25 C6.36613992 34.91259589 10.83058457 36.61019486 15 38 C23.77093867 38.88389304 29.92186627 36.13563838 37 31 C39.7138529 28.17894469 39.7138529 28.17894469 42.1875 25.0625 C42.61224609 24.55009766 43.03699219 24.03769531 43.47460938 23.50976562 C45.94629253 20.48454845 48.07809985 17.39932177 50 14 C50.6640625 15.75390625 50.6640625 15.75390625 51 18 C49.9609375 19.96484375 49.9609375 19.96484375 48.375 21.9375 C47.81554687 22.63488281 47.25609375 23.33226562 46.6796875 24.05078125 C44.56692324 26.50257048 42.34646939 28.77085408 40 31 C39.48050781 31.54011719 38.96101563 32.08023438 38.42578125 32.63671875 C36.98899606 34.12916632 35.49778676 35.56878154 34 37 C33.34 37 32.68 37 32 37 C32 37.66 32 38.32 32 39 C22.9219363 41.01734749 14.32285333 40.49460778 5.47265625 37.8515625 C0.69416956 34.2733592 -1.57670229 28.91080997 -2.42504883 23.07714844 C-2.56046906 20.05581658 -2.53688224 17.08488943 -2.4375 14.0625 C-2.43169922 13.03576172 -2.42589844 12.00902344 -2.41992188 10.95117188 C-2.296875 3.4453125 -2.296875 3.4453125 0 0 Z " fill="#2979C8" transform="translate(44,135)"/>
<path d="M0 0 C0.66 0 1.32 0 2 0 C1.8570752 0.88051025 1.71415039 1.76102051 1.56689453 2.66821289 C0.07455853 12.65643731 -0.24327063 22.3521395 -0.125 32.4375 C-0.11493151 33.95897836 -0.10581262 35.48046331 -0.09765625 37.00195312 C-0.07599182 40.6681096 -0.04168449 44.33400983 0 48 C-0.66 48 -1.32 48 -2 48 C-1.85879984 50.58366245 -1.71221667 53.16682885 -1.5625 55.75 C-1.50352539 56.84441406 -1.50352539 56.84441406 -1.44335938 57.9609375 C-1.22486312 62.06001672 -1.22486312 62.06001672 -0.42163086 66.07128906 C0.17994544 68.82314358 -0.82571932 70.51328796 -2 73 C-2.66 73 -3.32 73 -4 73 C-3.98952637 72.31599121 -3.97905273 71.63198242 -3.96826172 70.92724609 C-3.6895989 53.77768695 -3.6895989 53.77768695 -5.5546875 36.76953125 C-6.1412595 33.12146506 -6.14738639 29.68465969 -6 26 C-5.01 26.99 -4.02 27.98 -3 29 C-2.98018066 28.40574219 -2.96036133 27.81148437 -2.93994141 27.19921875 C-2.84376007 24.46575581 -2.73446443 21.73296197 -2.625 19 C-2.5940625 18.06542969 -2.563125 17.13085938 -2.53125 16.16796875 C-2.2934434 10.50024472 -1.58129952 5.45098372 0 0 Z " fill="#DCF8FD" transform="translate(144,38)"/>
<path d="M0 0 C0 1.65 0 3.3 0 5 C0.79664063 4.98839844 1.59328125 4.97679687 2.4140625 4.96484375 C14.66910153 4.8604821 14.66910153 4.8604821 18 6 C19.1875 8.5 19.1875 8.5 20 11 C20.99 11.33 21.98 11.66 23 12 C27.01573441 17.50304345 26.28367867 23.50691051 26 30 C25.67 30 25.34 30 25 30 C24.97421875 29.26394531 24.9484375 28.52789062 24.921875 27.76953125 C24.59276402 21.566012 24.59276402 21.566012 22.1875 15.9375 C20.16525571 14.14636934 18.44311688 13.09519033 16 12 C15.505 11.01 15.505 11.01 15 10 C9.24636998 6.16424665 2.62162647 6.7075027 -4 7.875 C-6.55911849 8.39118583 -8.66747327 8.83373663 -11 10 C-11 9.34 -11 8.68 -11 8 C-14.96 8.66 -18.92 9.32 -23 10 C-21 7 -21 7 -17.69921875 6.19140625 C-15.69398466 5.8581982 -13.68561959 5.56222824 -11.67382812 5.27148438 C-7.65636816 4.59992084 -3.11872094 0 0 0 Z " fill="#C1F7F4" transform="translate(180,50)"/>
<path d="M0 0 C4.61834539 4.84926266 5.21494438 7.96267513 5.16796875 14.4453125 C4.96461007 17.53825614 4.20021201 20.14949648 3 23 C2.34 23 1.68 23 1 23 C2 17 2 17 2.75 14.0625 C3.15546221 9.09558787 1.19962238 5.58521529 -1.75 1.6875 C-7.2317625 -2.42382187 -13.45583632 -2.26710872 -20 -2 C-20.33 -1.01 -20.66 -0.02 -21 1 C-22.32 1 -23.64 1 -25 1 C-25.1134375 1.58007812 -25.226875 2.16015625 -25.34375 2.7578125 C-26.05623093 5.19212234 -27.06313994 6.79489445 -28.5 8.875 C-30.68525703 12.23790275 -31.69525068 14.93667569 -32 19 C-32.66 19 -33.32 19 -34 19 C-33.72348553 11.67236662 -31.15760945 6.02707319 -27 0 C-19.49829391 -6.78009909 -8.00842749 -5.0828999 0 0 Z " fill="#2677C3" transform="translate(179,25)"/>
<path d="M0 0 C-3.52090684 1.14237655 -6.52308176 0.95528861 -10.1875 0.625 C-11.25355469 0.53476563 -12.31960937 0.44453125 -13.41796875 0.3515625 C-16 0 -16 0 -17 -1 C-18.64340867 -1.09854655 -20.2911461 -1.12972411 -21.9375 -1.125 C-22.83339844 -1.12757812 -23.72929687 -1.13015625 -24.65234375 -1.1328125 C-27.02155555 -1.15421413 -27.02155555 -1.15421413 -29 0 C-30.5998634 0.2038764 -32.20535297 0.36506712 -33.8125 0.5 C-37.26870476 0.81510984 -40.61359217 1.20983817 -44 2 C-44 2.66 -44 3.32 -44 4 C-45.8125 5.0625 -45.8125 5.0625 -48 6 C-48.99 5.67 -49.98 5.34 -51 5 C-35.76686385 -5.65010092 -17.10425202 -7.78730173 0 0 Z " fill="#247ACC" transform="translate(160,127)"/>
<path d="M0 0 C2.97 0.495 2.97 0.495 6 1 C6 1.66 6 2.32 6 3 C6.99 3 7.98 3 9 3 C9 4.32 9 5.64 9 7 C8.34 7 7.68 7 7 7 C7 7.99 7 8.98 7 10 C2.38748128 11.27241896 -1.31503575 10.83288253 -6 10 C-6.33 13.3 -6.66 16.6 -7 20 C-7.33 20 -7.66 20 -8 20 C-8 17.03 -8 14.06 -8 11 C-8.99 11 -9.98 11 -11 11 C-11 9.68 -11 8.36 -11 7 C-10.34 7 -9.68 7 -9 7 C-9 6.34 -9 5.68 -9 5 C-8.34 5 -7.68 5 -7 5 C-7 5.99 -7 6.98 -7 8 C-4.69 8 -2.38 8 0 8 C0 6.68 0 5.36 0 4 C0 2.68 0 1.36 0 0 Z " fill="#0F7AE8" transform="translate(41,126)"/>
<path d="M0 0 C1.17673198 2.35346396 1.16623866 3.8806033 1.1875 6.5 C1.20167969 7.2940625 1.21585938 8.088125 1.23046875 8.90625 C1 11 1 11 -1 13 C-2.32 12.34 -3.64 11.68 -5 11 C-5 10.34 -5 9.68 -5 9 C-5.9075 9.0825 -6.815 9.165 -7.75 9.25 C-11 9 -11 9 -13.375 7 C-13.91125 6.34 -14.4475 5.68 -15 5 C-12.69989124 2.69989124 -11.62478923 2.54115246 -8.5 1.9375 C-5.62688421 1.37313797 -2.84351918 0 0 0 Z " fill="#1458B2" transform="translate(61,115)"/>
<path d="M0 0 C0.89203125 0.20367187 1.7840625 0.40734375 2.703125 0.6171875 C3.37859375 0.78476563 4.0540625 0.95234375 4.75 1.125 C5.47413373 4.43643006 5.91354255 7.60344221 6.06640625 10.98828125 C6.12924805 12.31762695 6.12924805 12.31762695 6.19335938 13.67382812 C6.23267578 14.58583984 6.27199219 15.49785156 6.3125 16.4375 C6.35568359 17.36884766 6.39886719 18.30019531 6.44335938 19.25976562 C6.54897225 21.54804454 6.65107752 23.83642372 6.75 26.125 C7.41 26.125 8.07 26.125 8.75 26.125 C8.75 28.105 8.75 30.085 8.75 32.125 C9.41 32.125 10.07 32.125 10.75 32.125 C11.08 35.425 11.41 38.725 11.75 42.125 C6.92643047 35.69357396 5.29266128 29.10248743 4.0625 21.25 C3.93512451 20.46641113 3.80774902 19.68282227 3.67651367 18.87548828 C2.80638871 13.23455742 2.4735633 7.83802513 2.75 2.125 C1.1721875 2.1559375 1.1721875 2.1559375 -0.4375 2.1875 C-3.57704904 2.13603198 -6.21883396 1.85982813 -9.25 1.125 C-5.82794357 -1.03377391 -3.8855015 -0.92025036 0 0 Z " fill="#3283D2" transform="translate(28.25,139.875)"/>
<path d="M0 0 C0.66 0 1.32 0 2 0 C2.38671875 0.83144531 2.7734375 1.66289062 3.171875 2.51953125 C3.69265625 3.60621094 4.2134375 4.69289062 4.75 5.8125 C5.26046875 6.89144531 5.7709375 7.97039062 6.296875 9.08203125 C8.30407308 12.52096925 10.02938538 14.40243889 13.87109375 15.56738281 C16.01748004 16.00355214 17.92215214 16.11422612 20.109375 16.09765625 C21.24052734 16.09282227 21.24052734 16.09282227 22.39453125 16.08789062 C23.17183594 16.07951172 23.94914062 16.07113281 24.75 16.0625 C25.93916016 16.05573242 25.93916016 16.05573242 27.15234375 16.04882812 C29.10159508 16.03708565 31.05080738 16.01915146 33 16 C33 16.66 33 17.32 33 18 C27.75913447 21.15974701 21.90683385 20.67783339 16 20 C8.90014774 17.52425901 4.93273034 13.3822781 1.25 6.9375 C0 4 0 4 0 0 Z " fill="#8AE8FD" transform="translate(144,182)"/>
<path d="M0 0 C2.66072535 0.20467118 4.50940676 0.71241086 6.8125 2.0625 C8.78799956 5.28568349 8.24022409 8.27652662 8 12 C7 13 7 13 4.6875 13.375 C2 13 2 13 -0.3125 10.875 C-2.25763453 7.5610671 -2.50391748 5.77938109 -2 2 C-1.34 1.34 -0.68 0.68 0 0 Z " fill="#92F2FC" transform="translate(142,153)"/>
<path d="M0 0 C0.66 0.33 1.32 0.66 2 1 C2.0814222 3.22855574 2.13938079 5.45797655 2.1875 7.6875 C2.23970703 9.54955078 2.23970703 9.54955078 2.29296875 11.44921875 C1.98350575 15.19991035 1.31596695 17.06718955 -1 20 C-1.66 20 -2.32 20 -3 20 C-3.08636719 20.62261719 -3.17273438 21.24523437 -3.26171875 21.88671875 C-4 24 -4 24 -5.64453125 25.08203125 C-12.403702 27.35944554 -18.00494715 26.82342697 -25 26 C-27.74817063 25.78205089 -30.49854424 25.60828451 -33.25 25.4375 C-34.53390625 25.35371094 -35.8178125 25.26992187 -37.140625 25.18359375 C-38.08421875 25.12300781 -39.0278125 25.06242187 -40 25 C-36.74004414 22.82669609 -35.77020034 22.75078541 -32 22.8125 C-31.13375 22.81894531 -30.2675 22.82539062 -29.375 22.83203125 C-27 23 -27 23 -24 24 C-21.26134713 24.07051114 -18.54972412 24.09357765 -15.8125 24.0625 C-15.06291016 24.05798828 -14.31332031 24.05347656 -13.54101562 24.04882812 C-11.69397617 24.03706354 -9.84697787 24.01912865 -8 24 C-8 23.34 -8 22.68 -8 22 C-6.33333333 20.33333333 -4.66666667 18.66666667 -3 17 C-0.16261972 13.10529406 0.34529918 10.4740751 0.1875 5.6875 C0.16042969 4.61886719 0.13335937 3.55023438 0.10546875 2.44921875 C0.05326172 1.23685547 0.05326172 1.23685547 0 0 Z " fill="#AEE2E4" transform="translate(203,68)"/>
<path d="M0 0 C3.72295584 3.72295584 3.41703272 9.82067214 4.125 14.875 C4.30313232 16.13320557 4.48126465 17.39141113 4.66479492 18.68774414 C6.22306043 30.39669855 7.8471829 43.35664229 5 55 C6.485 54.505 6.485 54.505 8 54 C7.01 56.475 7.01 56.475 6 59 C5.34 58.67 4.68 58.34 4 58 C4.01571045 57.04130005 4.01571045 57.04130005 4.03173828 56.06323242 C4.07388495 53.10469665 4.09950945 50.14622439 4.125 47.1875 C4.14175781 46.18267578 4.15851563 45.17785156 4.17578125 44.14257812 C4.21527215 38.00174317 3.70272163 32.34301547 2.39648438 26.33789062 C1.89416736 23.37595236 2.21951547 20.88779276 3 18 C2.34 18 1.68 18 1 18 C0.67 12.06 0.34 6.12 0 0 Z " fill="#BEF6F5" transform="translate(135,56)"/>
<path d="M0 0 C3 1 3 1 4.38671875 3.07421875 C8.69379336 11.72717045 8.69379336 11.72717045 8 17 C8.66 17 9.32 17 10 17 C11.09315246 21.5838914 11.32282625 26.12511007 11.5625 30.8125 C11.60568359 31.60076172 11.64886719 32.38902344 11.69335938 33.20117188 C11.79878321 35.13394215 11.89983094 37.06695026 12 39 C11.34 39 10.68 39 10 39 C9.67 41.31 9.34 43.62 9 46 C8.34 46 7.68 46 7 46 C7.15855469 44.84886719 7.31710938 43.69773438 7.48046875 42.51171875 C8.99714396 30.25709079 8.306253 19.6735774 4 8 C3.6454654 6.67214681 3.30252413 5.34065955 3 4 C2.34 4 1.68 4 1 4 C0.67 2.68 0.34 1.36 0 0 Z " fill="#CDEEFC" transform="translate(178,142)"/>
<path d="M0 0 C0 0.66 0 1.32 0 2 C2.64 2.33 5.28 2.66 8 3 C8 3.66 8 4.32 8 5 C0.125 4.125 0.125 4.125 -1 3 C-10.9562351 2.19771421 -18.67718391 3.35575949 -28 7 C-29.32696158 7.35785731 -30.65843318 7.70152495 -32 8 C-31 5 -31 5 -28.5 3.4375 C-19.0764067 -0.43290439 -10.02716293 -0.22145881 0 0 Z " fill="#CDF9F8" transform="translate(104,8)"/>
<path d="M0 0 C2.00993705 2.00993705 2.89940919 3.59211232 4.125 6.125 C4.47820312 6.84945312 4.83140625 7.57390625 5.1953125 8.3203125 C5.46085938 8.87460938 5.72640625 9.42890625 6 10 C6.33 7.69 6.66 5.38 7 3 C7.33 3 7.66 3 8 3 C8 9.27 8 15.54 8 22 C10.7592052 19.2407948 10.78203023 16.80836138 11.5 13 C12.77777778 6.22222222 12.77777778 6.22222222 15 4 C14.34034961 10.86036401 12.7637236 17.34443923 11 24 C9.68 24.33 8.36 24.66 7 25 C5.21232242 19.72635115 3.48393727 14.43672059 1.8125 9.125 C1.46832031 8.03445312 1.12414062 6.94390625 0.76953125 5.8203125 C0 3 0 3 0 0 Z " fill="#A2C8CC" transform="translate(132,92)"/>
<path d="M0 0 C2.16874252 0.50603992 3.99967627 0.99983813 6 2 C6 2.66 6 3.32 6 4 C6.66 4 7.32 4 8 4 C9.02611949 5.65071396 10.02308143 7.31970006 11 9 C11.47566406 9.45375 11.95132813 9.9075 12.44140625 10.375 C15.5515623 13.61766896 17.1342922 17.95965227 19 22 C19.31453125 22.66386719 19.6290625 23.32773437 19.953125 24.01171875 C22.43395891 29.81249216 22.69804499 35.75265494 23 42 C21.03723564 39.05585347 20.28266038 36.94101364 19.375 33.5625 C19.11460937 32.61503906 18.85421875 31.66757812 18.5859375 30.69140625 C18 28 18 28 18 24 C17.34 24 16.68 24 16 24 C15.87625 23.195625 15.7525 22.39125 15.625 21.5625 C15.41875 20.716875 15.2125 19.87125 15 19 C14.34 18.67 13.68 18.34 13 18 C10 12.57692308 10 12.57692308 10 10 C9.34 10 8.68 10 8 10 C5 5.61538462 5 5.61538462 5 3 C3.35 2.67 1.7 2.34 0 2 C0 1.34 0 0.68 0 0 Z " fill="#C3F7F5" transform="translate(112,14)"/>
<path d="M0 0 C-18.0648581 7.73671677 -36.9873633 6.76547443 -56 4 C-56 3.67 -56 3.34 -56 3 C-54.99735107 3.01047363 -53.99470215 3.02094727 -52.96166992 3.03173828 C-49.19136214 3.06832576 -45.42106957 3.09103934 -41.65063477 3.10986328 C-40.02821196 3.11983357 -38.40580671 3.13341469 -36.78344727 3.15087891 C-26.14962706 3.26236515 -16.26151764 2.93488235 -6 -0.1875 C-3 -1 -3 -1 0 0 Z " fill="#307FC7" transform="translate(149,221)"/>
<path d="M0 0 C0.66 0 1.32 0 2 0 C2.63381508 1.32916561 3.25648484 2.66364609 3.875 4 C4.22304687 4.7425 4.57109375 5.485 4.9296875 6.25 C7.48656405 12.81949303 8.3243909 18.76965385 8.25 25.75 C8.25773438 26.49121094 8.26546875 27.23242188 8.2734375 27.99609375 C8.25934741 31.92018367 7.90302126 34.59270374 6 38 C5.95101562 36.73285156 5.90203125 35.46570313 5.8515625 34.16015625 C5.77645809 32.46091904 5.70091368 30.76170124 5.625 29.0625 C5.5940625 28.23169922 5.563125 27.40089844 5.53125 26.54492188 C5.17640369 18.94529666 3.93200096 12.0368023 1 5 C0.63128912 3.34080104 0.28718326 1.6752357 0 0 Z " fill="#2279CB" transform="translate(179,146)"/>
<path d="M0 0 C0.99708984 -0.01611328 1.99417969 -0.03222656 3.02148438 -0.04882812 C3.97732422 -0.04947266 4.93316406 -0.05011719 5.91796875 -0.05078125 C6.78574951 -0.05376221 7.65353027 -0.05674316 8.54760742 -0.05981445 C11.24712825 0.38394638 12.12050125 1.21920937 13.8125 3.3125 C13.12736328 3.29678955 12.44222656 3.2810791 11.73632812 3.26489258 C8.59513797 3.20205817 5.45408061 3.16335651 2.3125 3.125 C1.23484375 3.09986328 0.1571875 3.07472656 -0.953125 3.04882812 C-7.50865909 2.98886897 -12.18884084 3.69152621 -18.1875 6.3125 C-19.1775 6.3125 -20.1675 6.3125 -21.1875 6.3125 C-21.1875 5.6525 -21.1875 4.9925 -21.1875 4.3125 C-19.8675 4.3125 -18.5475 4.3125 -17.1875 4.3125 C-17.1875 3.6525 -17.1875 2.9925 -17.1875 2.3125 C-11.49243038 -0.11443119 -6.07955181 -0.01988081 0 0 Z " fill="#C7E9F9" transform="translate(138.1875,120.6875)"/>
<path d="M0 0 C0.598125 0.309375 1.19625 0.61875 1.8125 0.9375 C4.08956772 2.10209704 4.08956772 2.10209704 7 3 C7 3.66 7 4.32 7 5 C7.99 5 8.98 5 10 5 C10 5.66 10 6.32 10 7 C13.43248946 8.3940616 16.88578325 9.69277941 20.375 10.9375 C32.71087944 15.42175888 32.71087944 15.42175888 34 18 C22.16604474 16.88621598 8.99849658 9.65725726 0 2 C0 1.34 0 0.68 0 0 Z " fill="#2C7ECC" transform="translate(58,206)"/>
<path d="M0 0 C1.32 0 2.64 0 4 0 C4.6708712 1.6232687 5.33657029 3.24867578 6 4.875 C6.556875 6.23238281 6.556875 6.23238281 7.125 7.6171875 C8 10 8 10 8 12 C8.99 12.33 9.98 12.66 11 13 C11 13.66 11 14.32 11 15 C12.423125 15.2165625 12.423125 15.2165625 13.875 15.4375 C17 16 17 16 19 17 C21.71760108 17.07181821 24.40859388 17.09299506 27.125 17.0625 C28.25615234 17.05573242 28.25615234 17.05573242 29.41015625 17.04882812 C31.27347127 17.03703499 33.13674555 17.01909942 35 17 C34.67 17.66 34.34 18.32 34 19 C31.3118751 19.08164159 28.626277 19.14079668 25.9375 19.1875 C25.18533203 19.21263672 24.43316406 19.23777344 23.65820312 19.26367188 C18.32606233 19.33292046 14.72882914 18.50526056 10 16 C6.23874694 12.13426769 3 7.51328614 3 2 C2.34 2 1.68 2 1 2 C0.67 2.66 0.34 3.32 0 4 C0 2.68 0 1.36 0 0 Z " fill="#1F89D5" transform="translate(143,180)"/>
<path d="M0 0 C5.875 0.875 5.875 0.875 7 2 C7.08669432 3.4887186 7.10703494 4.981445 7.09765625 6.47265625 C7.09443359 7.37177734 7.09121094 8.27089844 7.08789062 9.19726562 C7.07951172 10.14279297 7.07113281 11.08832031 7.0625 12.0625 C7.05798828 13.01189453 7.05347656 13.96128906 7.04882812 14.93945312 C7.0370011 17.29303065 7.02052025 19.64648477 7 22 C4.93489444 18.24136497 4.78883075 15.55846226 4.875 11.25 C4.89304687 10.07953125 4.91109375 8.9090625 4.9296875 7.703125 C4.95289063 6.81109375 4.97609375 5.9190625 5 5 C4.34 5 3.68 5 3 5 C2.67 6.32 2.34 7.64 2 9 C0.4375 7.3125 0.4375 7.3125 -1 5 C-0.6875 2.25 -0.6875 2.25 0 0 Z " fill="#0B7CF0" transform="translate(35,135)"/>
<path d="M0 0 C1.16402344 0.10828125 1.16402344 0.10828125 2.3515625 0.21875 C14.66100101 1.27636286 26.70807369 1.26071039 39 0 C29.57403261 6.28397826 15.19405253 4.9180636 4.5625 3 C3.03868023 2.68059673 1.51636962 2.35308399 0 2 C0 1.34 0 0.68 0 0 Z " fill="#D2F2FC" transform="translate(96,225)"/>
<path d="M0 0 C0.66 0.33 1.32 0.66 2 1 C-0.11905463 3.17277714 -2.24472878 5.33826908 -4.375 7.5 C-4.97828125 8.12003906 -5.5815625 8.74007813 -6.203125 9.37890625 C-6.78320312 9.96542969 -7.36328125 10.55195313 -7.9609375 11.15625 C-8.49509277 11.70087891 -9.02924805 12.24550781 -9.57958984 12.80664062 C-11 14 -11 14 -13 14 C-13.98142381 18.24733832 -14.30920379 22.47324533 -14.5625 26.8125 C-14.60568359 27.50537109 -14.64886719 28.19824219 -14.69335938 28.91210938 C-14.79861453 30.60788686 -14.89972863 32.30392052 -15 34 C-15.33 34 -15.66 34 -16 34 C-16.08172936 31.4784979 -16.14083373 28.95970083 -16.1875 26.4375 C-16.22520508 25.38079102 -16.22520508 25.38079102 -16.26367188 24.30273438 C-16.34315836 18.55321209 -15.4760298 13.69160453 -11.4296875 9.29296875 C-10.91664062 8.92816406 -10.40359375 8.56335937 -9.875 8.1875 C-6.97267846 6.31286794 -6.97267846 6.31286794 -6 4 C-5.34 4 -4.68 4 -4 4 C-4 3.34 -4 2.68 -4 2 C-2.125 0.9375 -2.125 0.9375 0 0 Z " fill="#ACE6E7" transform="translate(76,14)"/>
<path d="M0 0 C0.33 1.98 0.66 3.96 1 6 C-0.65 6 -2.3 6 -4 6 C-4 6.66 -4 7.32 -4 8 C-6.31 8.66 -8.62 9.32 -11 10 C-11 9.34 -11 8.68 -11 8 C-14.96 8.66 -18.92 9.32 -23 10 C-21 7 -21 7 -17.69921875 6.19140625 C-15.69398466 5.8581982 -13.68561959 5.56222824 -11.67382812 5.27148438 C-7.65636816 4.59992084 -3.11872094 0 0 0 Z " fill="#CFF0FC" transform="translate(180,50)"/>
<path d="M0 0 C2.64 0.33 5.28 0.66 8 1 C5.23776722 3.76223278 2.79293383 3.57856291 -1 4 C-0.75350535 16.85337233 -0.75350535 16.85337233 3 29 C3.35822898 30.32686129 3.69754818 31.65932413 4 33 C1 32 1 32 -0.66796875 29.66796875 C-2.5421238 24.5071723 -2.39741687 19.7573696 -2.3125 14.3125 C-2.31572266 13.26771484 -2.31894531 12.22292969 -2.32226562 11.14648438 C-2.26740461 3.40110692 -2.26740461 3.40110692 0 0 Z " fill="#3F89CD" transform="translate(44,135)"/>
<path d="M0 0 C0.33 0 0.66 0 1 0 C0.67 9.24 0.34 18.48 0 28 C0.99 28 1.98 28 3 28 C2.71788123 29.6266848 2.42397625 31.25132896 2.125 32.875 C1.88136719 34.23238281 1.88136719 34.23238281 1.6328125 35.6171875 C1 38 1 38 -1 40 C-1.02490464 35.58919646 -1.04295604 31.17843129 -1.05493164 26.76757812 C-1.05992943 25.27017503 -1.0667299 23.77277673 -1.07543945 22.27539062 C-1.08770623 20.11066495 -1.09327397 17.94600435 -1.09765625 15.78125 C-1.10289307 14.48251953 -1.10812988 13.18378906 -1.11352539 11.84570312 C-0.9946608 7.81913327 -0.56026769 3.98584904 0 0 Z " fill="#3B80B9" transform="translate(144,45)"/>
<path d="M0 0 C2.33814138 0.90508699 4.6365777 1.81047127 6.86132812 2.97070312 C13.1132842 6.11696091 18.63040193 6.64906939 25.5625 6.75 C26.57119141 6.77964844 27.57988281 6.80929688 28.61914062 6.83984375 C31.0795037 6.90980668 33.53896011 6.96286189 36 7 C36 7.33 36 7.66 36 8 C25.04441552 9.90531904 12.71178659 10.15869393 3 4 C1.125 1.8125 1.125 1.8125 0 0 Z " fill="#9ECBD2" transform="translate(69,63)"/>
<path d="M0 0 C1.2065625 0.0309375 1.2065625 0.0309375 2.4375 0.0625 C0.50310818 2.42675667 -0.63193712 3.08375626 -3.625 4 C-6.66690386 4.73882078 -6.66690386 4.73882078 -7.6875 7.0625 C-8.120625 8.0525 -8.120625 8.0525 -8.5625 9.0625 C-9.2225 9.371875 -9.8825 9.68125 -10.5625 10 C-12.83014624 10.92595966 -12.83014624 10.92595966 -13.5625 13.625 C-13.8925 14.429375 -14.2225 15.23375 -14.5625 16.0625 C-16.6875 16.875 -16.6875 16.875 -18.5625 17.0625 C-17.5725 15.0825 -16.5825 13.1025 -15.5625 11.0625 C-14.9025 11.0625 -14.2425 11.0625 -13.5625 11.0625 C-13.253125 10.44375 -12.94375 9.825 -12.625 9.1875 C-11.00481604 5.94713208 -10.26372215 4.72524882 -7.0625 3 C-1.61029801 0.03927556 -1.61029801 0.03927556 0 0 Z " fill="#C7F8F7" transform="translate(173.5625,57.9375)"/>
<path d="M0 0 C1.11513401 3.57772163 0.76467803 5.50486025 -0.85546875 8.9375 C-4.59050704 15.66821746 -8.76821687 21.44015869 -15 26 C-15 25.01 -15 24.02 -15 23 C-14.34 23 -13.68 23 -13 23 C-13 22.34 -13 21.68 -13 21 C-12.34 21 -11.68 21 -11 21 C-11 19.68 -11 18.36 -11 17 C-10.4225 16.814375 -9.845 16.62875 -9.25 16.4375 C-3.89953276 13.01914593 -2.01160719 5.7330805 0 0 Z " fill="#2C7BBF" transform="translate(184,184)"/>
<path d="M0 0 C0.66 0.33 1.32 0.66 2 1 C2 1.99 2 2.98 2 4 C0.68 4 -0.64 4 -2 4 C-2.1134375 4.58007812 -2.226875 5.16015625 -2.34375 5.7578125 C-3.05623093 8.19212234 -4.06313994 9.79489445 -5.5 11.875 C-7.68525703 15.23790275 -8.69525068 17.93667569 -9 22 C-9.66 22 -10.32 22 -11 22 C-10.72348553 14.67236662 -8.15760945 9.02707319 -4 3 C-1.80078125 1.17578125 -1.80078125 1.17578125 0 0 Z " fill="#3985D2" transform="translate(156,22)"/>
<path d="M0 0 C5.16686374 -0.26983621 7.97735022 0.80056894 11.83203125 4.20703125 C13.70703125 7.45703125 13.70703125 7.45703125 14.83203125 10.20703125 C13.84203125 10.20703125 12.85203125 10.20703125 11.83203125 10.20703125 C11.83203125 9.21703125 11.83203125 8.22703125 11.83203125 7.20703125 C11.17203125 7.20703125 10.51203125 7.20703125 9.83203125 7.20703125 C9.83203125 6.21703125 9.83203125 5.22703125 9.83203125 4.20703125 C7.85203125 3.54703125 5.87203125 2.88703125 3.83203125 2.20703125 C3.50203125 2.86703125 3.17203125 3.52703125 2.83203125 4.20703125 C2.83203125 3.54703125 2.83203125 2.88703125 2.83203125 2.20703125 C-1.78796875 2.20703125 -6.40796875 2.20703125 -11.16796875 2.20703125 C-11.16796875 1.87703125 -11.16796875 1.54703125 -11.16796875 1.20703125 C-7.45195292 0.72532549 -3.72977438 0.35617665 0 0 Z " fill="#377CC2" transform="translate(22.16796875,123.79296875)"/>
<path d="M0 0 C1.32 0.33 2.64 0.66 4 1 C4.33 2.98 4.66 4.96 5 7 C5.66 7 6.32 7 7 7 C7 7.66 7 8.32 7 9 C7.99 9.33 8.98 9.66 10 10 C10 10.99 10 11.98 10 13 C10.99 13.33 11.98 13.66 13 14 C14.6875 16.5625 14.6875 16.5625 16 19 C13.50638429 17.79618552 11.31856917 16.54571278 9 15 C9 14.34 9 13.68 9 13 C8.34 13 7.68 13 7 13 C5.2734375 10.6640625 5.2734375 10.6640625 3.375 7.625 C2.74335937 6.62726563 2.11171875 5.62953125 1.4609375 4.6015625 C0 2 0 2 0 0 Z " fill="#3587D3" transform="translate(42,187)"/>
<path d="M0 0 C2.475 0.99 2.475 0.99 5 2 C5.02687279 3.81242052 5.04633715 5.62495233 5.0625 7.4375 C5.07410156 8.44683594 5.08570313 9.45617187 5.09765625 10.49609375 C5 13 5 13 4 14 C2.00390625 14.203125 2.00390625 14.203125 -0.4375 14.25 C-1.24058594 14.27578125 -2.04367188 14.3015625 -2.87109375 14.328125 C-3.57363281 14.21984375 -4.27617187 14.1115625 -5 14 C-7.67927341 9.98108988 -7.15601248 7.75838077 -7 3 C-6.67 3 -6.34 3 -6 3 C-5.71125 4.11375 -5.4225 5.2275 -5.125 6.375 C-4.30758671 10.00291092 -4.30758671 10.00291092 -2 12 C0.58354218 12.16687448 0.58354218 12.16687448 3 12 C3.43933257 6.46930887 3.43933257 6.46930887 1.5 1.5 C1.005 1.005 0.51 0.51 0 0 Z " fill="#2490E0" transform="translate(146,153)"/>
<path d="M0 0 C0.12375 0.639375 0.2475 1.27875 0.375 1.9375 C0.684375 2.9584375 0.684375 2.9584375 1 4 C1.66 4.33 2.32 4.66 3 5 C2.34 5 1.68 5 1 5 C0.67 5.66 0.34 6.32 0 7 C-0.99 6.67 -1.98 6.34 -3 6 C-3 7.32 -3 8.64 -3 10 C-2.01 10.33 -1.02 10.66 0 11 C-1.3125 12.5 -1.3125 12.5 -3 14 C-3.99 14 -4.98 14 -6 14 C-5.41903453 8.07415223 -4.23938937 4.23938937 0 0 Z " fill="#3578C1" transform="translate(44,120)"/>
<path d="M0 0 C0.86286621 0.43481689 0.86286621 0.43481689 1.74316406 0.87841797 C3.85389856 1.92739182 5.97602353 2.94328378 8.109375 3.9453125 C8.86347656 4.29980469 9.61757812 4.65429688 10.39453125 5.01953125 C11.17183594 5.38433594 11.94914062 5.74914062 12.75 6.125 C13.54277344 6.49753906 14.33554688 6.87007812 15.15234375 7.25390625 C17.10135725 8.16970777 19.05065109 9.08491263 21 10 C21 10.33 21 10.66 21 11 C16.10532595 11.34961957 13.24544725 10.41218594 9 8 C8.34 7.67 7.68 7.34 7 7 C7 6.34 7 5.68 7 5 C6.21625 4.9175 5.4325 4.835 4.625 4.75 C2 4 2 4 0.6875 1.9375 C0.460625 1.298125 0.23375 0.65875 0 0 Z " fill="#E0F7FE" transform="translate(64,212)"/>
<path d="M0 0 C2.00993705 2.00993705 2.89940919 3.59211232 4.125 6.125 C4.47820312 6.84945312 4.83140625 7.57390625 5.1953125 8.3203125 C5.46085938 8.87460938 5.72640625 9.42890625 6 10 C6.33 7.69 6.66 5.38 7 3 C7.33 3 7.66 3 8 3 C8.10251672 8.12583611 8.03590199 12.94997778 7 18 C5 15 5 15 5 12 C4.34 12 3.68 12 3 12 C2.49440092 10.56445975 1.9957251 9.1264798 1.5 7.6875 C1.2215625 6.88699219 0.943125 6.08648437 0.65625 5.26171875 C0 3 0 3 0 0 Z " fill="#A1DADE" transform="translate(132,92)"/>
<path d="M0 0 C3 3.75 3 3.75 3 6 C3.66 6 4.32 6 5 6 C5.66 6.66 6.32 7.32 7 8 C7.99 8.66 8.98 9.32 10 10 C9.34 11.65 8.68 13.3 8 15 C4.10873653 11.66463131 1.82900259 7.73789501 0 3 C0 2.01 0 1.02 0 0 Z " fill="#8DCCD2" transform="translate(61,48)"/>
<path d="M0 0 C0 0.66 0 1.32 0 2 C-4.44316138 5.49682571 -9.67642892 8.1572254 -15 10 C-17.203125 9.5703125 -17.203125 9.5703125 -19 9 C-17.73308493 8.32591692 -16.46129251 7.66099503 -15.1875 7 C-14.47980469 6.62875 -13.77210938 6.2575 -13.04296875 5.875 C-11 5 -11 5 -8 5 C-8 4.34 -8 3.68 -8 3 C-2.25 0 -2.25 0 0 0 Z " fill="#2F80CE" transform="translate(168,210)"/>
<path d="M0 0 C0.33 1.32 0.66 2.64 1 4 C0.0925 4.53625 -0.815 5.0725 -1.75 5.625 C-5.12857797 7.84566158 -6.79816303 10.62384999 -9 14 C-11.25 15.375 -11.25 15.375 -13 16 C-10.73373703 11.88157527 -8.00485839 8.62861358 -4.8125 5.1875 C-4.34908203 4.68541016 -3.88566406 4.18332031 -3.40820312 3.66601562 C-2.27599703 2.44043171 -1.13853521 1.21970658 0 0 Z " fill="#3D89D1" transform="translate(108,133)"/>
<path d="M0 0 C1.18851563 0.00902344 2.37703125 0.01804687 3.6015625 0.02734375 C4.51679688 0.03894531 5.43203125 0.05054687 6.375 0.0625 C6.375 0.7225 6.375 1.3825 6.375 2.0625 C7.695 2.7225 9.015 3.3825 10.375 4.0625 C9.52679688 3.89878906 8.67859375 3.73507813 7.8046875 3.56640625 C4.3104469 3.05301555 1.02872426 2.96399261 -2.5 3 C-3.65242187 3.00902344 -4.80484375 3.01804687 -5.9921875 3.02734375 C-6.86101562 3.03894531 -7.72984375 3.05054688 -8.625 3.0625 C-8.625 2.4025 -8.625 1.7425 -8.625 1.0625 C-5.74084117 -0.37957941 -3.20778472 -0.03144887 0 0 Z " fill="#C7E9FA" transform="translate(165.625,18.9375)"/>
<path d="M0 0 C1.32 0.66 2.64 1.32 4 2 C3.21625 2.37125 2.4325 2.7425 1.625 3.125 C-1.60628829 5.43306306 -2.07506212 7.21616321 -3 11 C-3.99 10.67 -4.98 10.34 -6 10 C-5.34 9.34 -4.68 8.68 -4 8 C-4 7.01 -4 6.02 -4 5 C-5.32 4.34 -6.64 3.68 -8 3 C-8 2.34 -8 1.68 -8 1 C-5.69 1.33 -3.38 1.66 -1 2 C-0.67 1.34 -0.34 0.68 0 0 Z " fill="#1A7BE6" transform="translate(26,126)"/>
<path d="M0 0 C0.99 0.33 1.98 0.66 3 1 C3.33 1.99 3.66 2.98 4 4 C4.99 4.33 5.98 4.66 7 5 C7 6.32 7 7.64 7 9 C5.35 9 3.7 9 2 9 C2 8.34 2 7.68 2 7 C1.34 7 0.68 7 0 7 C0 4.69 0 2.38 0 0 Z " fill="#0B57BD" transform="translate(45,120)"/>
<path d="M0 0 C7.16234344 -0.37696544 11.80309435 0.84556359 17.875 4.9375 C20.12922482 7.12542409 20.41820822 8.03533764 21 11 C20.5875 10.60167969 20.175 10.20335938 19.75 9.79296875 C13.78248797 4.31830928 8.03655035 2.00456879 0 1 C0 0.67 0 0.34 0 0 Z " fill="#86B9C0" transform="translate(106,69)"/>
<path d="M0 0 C0 0.66 0 1.32 0 2 C-3.59462331 4.25998595 -6.56595675 4.20868087 -10.75 4.125 C-11.92046875 4.10695312 -13.0909375 4.08890625 -14.296875 4.0703125 C-15.63492188 4.03550781 -15.63492188 4.03550781 -17 4 C-15 1 -15 1 -12.5390625 0.48828125 C-11.57742187 0.43027344 -10.61578125 0.37226563 -9.625 0.3125 C-8.19027344 0.21388672 -8.19027344 0.21388672 -6.7265625 0.11328125 C-4.48599004 0.02019156 -2.24250544 0 0 0 Z " fill="#81D7F7" transform="translate(177,198)"/>
<path d="M0 0 C2.97 0.33 5.94 0.66 9 1 C9.33 6.94 9.66 12.88 10 19 C9.67 19 9.34 19 9 19 C8.01 13.72 7.02 8.44 6 3 C4.02 2.34 2.04 1.68 0 1 C0 0.67 0 0.34 0 0 Z " fill="#D9F7FE" transform="translate(22,141)"/>
<path d="M0 0 C3.38982628 3.88175357 3.37831051 6.53353145 3.23828125 11.515625 C2.94689652 14.55366908 2.18263198 17.19124905 1 20 C0.34 20 -0.32 20 -1 20 C0 14 0 14 0.625 11.125 C1.09639933 7.19667222 0.60602826 3.90551545 0 0 Z " fill="#3582C9" transform="translate(181,28)"/>
<path d="M0 0 C2.375 -0.1875 2.375 -0.1875 5 0 C5.66 0.99 6.32 1.98 7 3 C6.67 3.99 6.34 4.98 6 6 C3.03 5.505 3.03 5.505 0 5 C0 3.35 0 1.7 0 0 Z " fill="#A7FBF9" transform="translate(142,158)"/>
<path d="M0 0 C1.32 0 2.64 0 4 0 C3 2 2 4 1 6 C-4.44927536 7.27536232 -4.44927536 7.27536232 -7 6 C-7 5.34 -7 4.68 -7 4 C-4.69 3.34 -2.38 2.68 0 2 C0 1.34 0 0.68 0 0 Z " fill="#0A7BEC" transform="translate(116,129)"/>
<path d="M0 0 C0.66 0 1.32 0 2 0 C2 0.66 2 1.32 2 2 C2.99 2 3.98 2 5 2 C5 3.32 5 4.64 5 6 C4.34 6 3.68 6 3 6 C3 6.99 3 7.98 3 9 C2.01 9 1.02 9 0 9 C0 6.03 0 3.06 0 0 Z " fill="#117BEC" transform="translate(45,127)"/>
<path d="M0 0 C0 0.99 0 1.98 0 3 C-0.99 3.33 -1.98 3.66 -3 4 C-3 5.65 -3 7.3 -3 9 C-3.99 9.33 -4.98 9.66 -6 10 C-6.33 10.66 -6.66 11.32 -7 12 C-6.8238342 6.71502591 -6.8238342 6.71502591 -6 4 C-2.9375 1.5 -2.9375 1.5 0 0 Z " fill="#C4F5F7" transform="translate(151,100)"/>
<path d="M0 0 C0.75 1.625 0.75 1.625 1 4 C-0.8125 7.25 -0.8125 7.25 -3 10 C-3.66 10 -4.32 10 -5 10 C-5.66 11.32 -6.32 12.64 -7 14 C-7.66 13.67 -8.32 13.34 -9 13 C-8.51789063 12.31292969 -8.03578125 11.62585938 -7.5390625 10.91796875 C-6.90742188 10.01691406 -6.27578125 9.11585938 -5.625 8.1875 C-4.99851563 7.29417969 -4.37203125 6.40085938 -3.7265625 5.48046875 C-2.46449761 3.66732122 -1.22541192 1.83811789 0 0 Z " fill="#D0EEFA" transform="translate(183,192)"/>
<path d="M0 0 C0.67578125 1.7421875 0.67578125 1.7421875 1 4 C-0.14453125 6.0703125 -0.14453125 6.0703125 -1.8125 8.125 C-2.35519531 8.80820313 -2.89789063 9.49140625 -3.45703125 10.1953125 C-5 12 -5 12 -7 14 C-7.66 13.34 -8.32 12.68 -9 12 C-8.27683594 11.07767578 -8.27683594 11.07767578 -7.5390625 10.13671875 C-6.90742187 9.32847656 -6.27578125 8.52023438 -5.625 7.6875 C-4.99851562 6.88699219 -4.37203125 6.08648437 -3.7265625 5.26171875 C-2.42243282 3.55336788 -1.19218183 1.78827274 0 0 Z " fill="#3D89D5" transform="translate(94,149)"/>
<path d="M0 0 C2.47441166 3.71161749 2.67548653 6.69573701 2 11 C0.88710151 13.57418259 -0.43353721 15.65030581 -2 18 C-2.66 18 -3.32 18 -4 18 C-4 17.34 -4 16.68 -4 16 C-3.34 16 -2.68 16 -2 16 C-1.34 10.72 -0.68 5.44 0 0 Z " fill="#D9F6FD" transform="translate(184,32)"/>
<path d="M0 0 C-0.33 2.31 -0.66 4.62 -1 7 C-1.99 7 -2.98 7 -4 7 C-4.66 5.02 -5.32 3.04 -6 1 C-3.92446352 0.4465236 -2.15634036 0 0 0 Z " fill="#2978CC" transform="translate(14,127)"/>
<path d="M0 0 C-0.33 0.66 -0.66 1.32 -1 2 C-4.0625 2.625 -4.0625 2.625 -7 3 C-7.33 3.99 -7.66 4.98 -8 6 C-8 5.34 -8 4.68 -8 4 C-9.65 3.67 -11.3 3.34 -13 3 C-10.72299943 0.72299943 -9.58686902 0.47898308 -6.5 -0.1875 C-5.7059375 -0.36667969 -4.911875 -0.54585938 -4.09375 -0.73046875 C-2 -1 -2 -1 0 0 Z " fill="#4381C4" transform="translate(59,117)"/>
<path d="M0 0 C1.32 0.33 2.64 0.66 4 1 C4 3.64 4 6.28 4 9 C2.68 8.67 1.36 8.34 0 8 C0 5.33333333 0 2.66666667 0 0 Z " fill="#0751B3" transform="translate(41,126)"/>
<path d="M0 0 C0.74886475 0.00523682 1.49772949 0.01047363 2.26928711 0.01586914 C3.07817383 0.0190918 3.88706055 0.02231445 4.72045898 0.02563477 C5.5705957 0.03401367 6.42073242 0.04239258 7.29663086 0.05102539 C8.15063477 0.05553711 9.00463867 0.06004883 9.88452148 0.06469727 C12.00108749 0.07652166 14.11761771 0.0944577 16.23413086 0.11352539 C16.23413086 0.44352539 16.23413086 0.77352539 16.23413086 1.11352539 C15.24670898 1.17411133 14.25928711 1.23469727 13.24194336 1.29711914 C11.96061523 1.3809082 10.67928711 1.46469727 9.35913086 1.55102539 C8.08295898 1.63223633 6.80678711 1.71344727 5.49194336 1.79711914 C2.35112934 1.90558566 2.35112934 1.90558566 0.23413086 3.11352539 C-2.09885574 3.1537493 -4.4329358 3.15672786 -6.76586914 3.11352539 C-6.12649414 2.80415039 -5.48711914 2.49477539 -4.82836914 2.17602539 C-0.69049001 0.04439069 -0.69049001 0.04439069 0 0 Z " fill="#0E7AE5" transform="translate(130.765869140625,123.886474609375)"/>
<path d="M0 0 C0.33 0.99 0.66 1.98 1 3 C-0.109375 4.82421875 -0.109375 4.82421875 -1.75 6.6875 C-2.28109375 7.31011719 -2.8121875 7.93273437 -3.359375 8.57421875 C-5 10 -5 10 -8 10 C-8 9.34 -8 8.68 -8 8 C-7.01 7.34 -6.02 6.68 -5 6 C-4.67 5.01 -4.34 4.02 -4 3 C-1.9375 1.3125 -1.9375 1.3125 0 0 Z " fill="#E9FDFD" transform="translate(156,96)"/>
<path d="M0 0 C-2.39476769 2.85801784 -4.30490883 3.57264465 -7.9375 4.25 C-8.79214844 4.42015625 -9.64679688 4.5903125 -10.52734375 4.765625 C-12.99533017 4.99955736 -14.66014099 4.76004701 -17 4 C-14.54453034 3.13670227 -12.08621957 2.28410564 -9.625 1.4375 C-8.57699219 1.0672168 -8.57699219 1.0672168 -7.5078125 0.68945312 C-2.2265625 -1.11328125 -2.2265625 -1.11328125 0 0 Z " fill="#B9DEF5" transform="translate(155,220)"/>
<path d="M0 0 C3.24312562 1.25540347 6.4390569 2.60712439 9.625 4 C10.38039063 4.33 11.13578125 4.66 11.9140625 5 C14 6 14 6 17 8 C10.76591718 7.46257907 5.43159095 6.83685611 1.125 1.8125 C0.75375 1.214375 0.3825 0.61625 0 0 Z " fill="#81B2BA" transform="translate(69,63)"/>
<path d="M0 0 C2.9375 0.3125 2.9375 0.3125 4.9375 1.3125 C4.6075 1.9725 4.2775 2.6325 3.9375 3.3125 C2.98875 3.27125 2.04 3.23 1.0625 3.1875 C-2.16494856 2.96276182 -2.16494856 2.96276182 -4.0625 5.3125 C-4.46014263 7.30071313 -4.80025349 9.30194339 -5.0625 11.3125 C-5.3925 11.3125 -5.7225 11.3125 -6.0625 11.3125 C-6.42147436 5.09027778 -6.42147436 5.09027778 -4.9375 1.875 C-3.0625 0.3125 -3.0625 0.3125 0 0 Z " fill="#0A7DDF" transform="translate(144.0625,150.6875)"/>
<path d="M0 0 C2.64 0.33 5.28 0.66 8 1 C8 1.66 8 2.32 8 3 C9.32 3.33 10.64 3.66 12 4 C11.67 4.99 11.34 5.98 11 7 C8.525 6.01 8.525 6.01 6 5 C6 4.34 6 3.68 6 3 C4.02 2.34 2.04 1.68 0 1 C0 0.67 0 0.34 0 0 Z " fill="#167CE3" transform="translate(48,123)"/>
<path d="M0 0 C3.96 0 7.92 0 12 0 C11.67 1.32 11.34 2.64 11 4 C10.34 4 9.68 4 9 4 C9 4.99 9 5.98 9 7 C8.34 7 7.68 7 7 7 C7 5.68 7 4.36 7 3 C7.66 3 8.32 3 9 3 C9 2.34 9 1.68 9 1 C6.03 1 3.06 1 0 1 C0 0.67 0 0.34 0 0 Z " fill="#0E7EE8" transform="translate(160,203)"/>
<path d="M0 0 C0.33 0.66 0.66 1.32 1 2 C1.99 2 2.98 2 4 2 C6.69059325 4.06968711 7.27108262 5.77193731 8 9 C8.66 9.66 9.32 10.32 10 11 C9.01 11.33 8.02 11.66 7 12 C6.67 10.02 6.34 8.04 6 6 C4.02 5.34 2.04 4.68 0 4 C0 2.68 0 1.36 0 0 Z " fill="#1980E4" transform="translate(40,182)"/>
<path d="M0 0 C0.66 0 1.32 0 2 0 C2.69937202 1.4317616 3.38412718 2.87067032 4.0625 4.3125 C4.63677734 5.51326172 4.63677734 5.51326172 5.22265625 6.73828125 C6 9 6 9 5 12 C1.63430605 8.63430605 0.7884223 4.59913007 0 0 Z " fill="#3485CE" transform="translate(179,146)"/>
<path d="M0 0 C1.32 0 2.64 0 4 0 C4 2.31 4 4.62 4 7 C2.68 6.67 1.36 6.34 0 6 C0 4.02 0 2.04 0 0 Z " fill="#1877DE" transform="translate(15,131)"/>
<path d="M0 0 C0.33 0 0.66 0 1 0 C1.05399736 1.45792884 1.09279177 2.91642712 1.125 4.375 C1.14820313 5.18710938 1.17140625 5.99921875 1.1953125 6.8359375 C1 9 1 9 -1 11 C-1.33 10.34 -1.66 9.68 -2 9 C-1.67 8.01 -1.34 7.02 -1 6 C-1.99 6 -2.98 6 -4 6 C-4 5.01 -4 4.02 -4 3 C-2.68 3 -1.36 3 0 3 C0 2.01 0 1.02 0 0 Z " fill="#2F74BC" transform="translate(61,117)"/>
<path d="M0 0 C0.33 0 0.66 0 1 0 C1 4.95 1 9.9 1 15 C1.66 15 2.32 15 3 15 C3 16.32 3 17.64 3 19 C2.01 19 1.02 19 0 19 C0 12.73 0 6.46 0 0 Z " fill="#167AD9" transform="translate(144,54)"/>
<path d="M0 0 C0.86625 0.07863281 1.7325 0.15726563 2.625 0.23828125 C5 0.6875 5 0.6875 8 2.6875 C3.05 2.6875 -1.9 2.6875 -7 2.6875 C-7.33 2.0275 -7.66 1.3675 -8 0.6875 C-4.88016769 -0.3524441 -3.22213621 -0.32125465 0 0 Z " fill="#0F7DEB" transform="translate(167,22.3125)"/>
<path d="M0 0 C2.49361571 1.20381448 4.68143083 2.45428722 7 4 C7 4.66 7 5.32 7 6 C7.99 6.33 8.98 6.66 10 7 C9.01 7.33 8.02 7.66 7 8 C6.01 7.34 5.02 6.68 4 6 C4 5.34 4 4.68 4 4 C2.68 3.67 1.36 3.34 0 3 C0 2.01 0 1.02 0 0 Z " fill="#CFEEFD" transform="translate(51,202)"/>
<path d="M0 0 C0.66 0.33 1.32 0.66 2 1 C1.25130208 2.72526042 0.50260417 4.45052083 -0.24609375 6.17578125 C-0.89961942 7.75711021 -1.45891802 9.37675406 -2 11 C-2.66 11 -3.32 11 -4 11 C-4.33 11.66 -4.66 12.32 -5 13 C-4.48474397 7.71862571 -2.74522883 4.42778844 0 0 Z " fill="#B5E5E9" transform="translate(155,75)"/>
<path d="M0 0 C0.66 0.33 1.32 0.66 2 1 C0.71034824 2.37562854 -0.62689293 3.70766393 -2 5 C-2.66 5 -3.32 5 -4 5 C-4.2475 5.804375 -4.495 6.60875 -4.75 7.4375 C-6 10 -6 10 -8.125 10.8125 C-8.74375 10.874375 -9.3625 10.93625 -10 11 C-7.91864928 5.91225379 -5.71607256 3.76812954 -1 1 C-0.67 0.67 -0.34 0.34 0 0 Z " fill="#BFF2F3" transform="translate(165,64)"/>
<path d="M0 0 C0.33 0.66 0.66 1.32 1 2 C-3 8.57142857 -3 8.57142857 -7 10 C-5.76075855 5.04303419 -4.21422242 2.88341534 0 0 Z " fill="#0F7CEC" transform="translate(100,145)"/>
<path d="M0 0 C5.78898419 -0.20674944 10.42932723 0.40837921 16 2 C16 2.66 16 3.32 16 4 C8.125 3.125 8.125 3.125 7 2 C4.67182036 1.63239269 2.3381615 1.29758419 0 1 C0 0.67 0 0.34 0 0 Z " fill="#C2F7F5" transform="translate(96,9)"/>
<path d="M0 0 C7.38461538 -0.49230769 7.38461538 -0.49230769 10.5 2 C10.995 2.66 11.49 3.32 12 4 C10.3733152 3.71788123 8.74867104 3.42397625 7.125 3.125 C5.76761719 2.88136719 5.76761719 2.88136719 4.3828125 2.6328125 C2 2 2 2 0 0 Z " fill="#4390D8" transform="translate(80,220)"/>
<path d="M0 0 C0.66 0.99 1.32 1.98 2 3 C-0.31 5.31 -2.62 7.62 -5 10 C-5.33 9.01 -5.66 8.02 -6 7 C-5.34 7 -4.68 7 -4 7 C-4 6.34 -4 5.68 -4 5 C-3.34 5 -2.68 5 -2 5 C-2 3.68 -2 2.36 -2 1 C-1.34 0.67 -0.68 0.34 0 0 Z " fill="#3082C7" transform="translate(175,200)"/>
<path d="M0 0 C0.99 0.33 1.98 0.66 3 1 C2.67 1.33 2.34 1.66 2 2 C2.66 2.33 3.32 2.66 4 3 C4 3.99 4 4.98 4 6 C1.69 6 -0.62 6 -3 6 C-3 5.34 -3 4.68 -3 4 C-2.01 4 -1.02 4 0 4 C0 2.68 0 1.36 0 0 Z " fill="#1A5FAD" transform="translate(19,134)"/>
<path d="M0 0 C2.64 0 5.28 0 8 0 C8 0.66 8 1.32 8 2 C10.475 2.99 10.475 2.99 13 4 C12.67 4.66 12.34 5.32 12 6 C8.04 4.35 4.08 2.7 0 1 C0 0.67 0 0.34 0 0 Z " fill="#C8E8F9" transform="translate(152,124)"/>
<path d="M0 0 C0.33 0.66 0.66 1.32 1 2 C0.0625 4.125 0.0625 4.125 -1 6 C-1.66 6 -2.32 6 -3 6 C-2.67 7.32 -2.34 8.64 -2 10 C-2.99 10.33 -3.98 10.66 -5 11 C-5.33 11.99 -5.66 12.98 -6 14 C-5.21998106 8.85187497 -3.73783993 3.73783993 0 0 Z " fill="#C3E8FB" transform="translate(153,62)"/>
<path d="M0 0 C-0.8353125 0.37125 -0.8353125 0.37125 -1.6875 0.75 C-4.16076749 1.98256472 -4.16076749 1.98256472 -6.5625 4.1875 C-7.7690625 5.0846875 -7.7690625 5.0846875 -9 6 C-9.99 5.67 -10.98 5.34 -12 5 C-8.12259529 0.85518807 -5.65610938 -0.15286782 0 0 Z " fill="#E0FDFC" transform="translate(84,10)"/>
<path d="M0 0 C2.69082872 0.17635452 5.32851446 0.61835921 8 1 C5.23776722 3.76223278 2.79293383 3.57856291 -1 4 C-1.33 4.99 -1.66 5.98 -2 7 C-1.125 1.125 -1.125 1.125 0 0 Z " fill="#3081CF" transform="translate(44,135)"/>
<path d="M0 0 C1.10844919 3.32534757 0.84454356 5.62182575 0 9 C0.99 8.67 1.98 8.34 3 8 C2.34 9.65 1.68 11.3 1 13 C0.34 12.67 -0.32 12.34 -1 12 C-1.02698189 10.37509046 -1.04638757 8.75005367 -1.0625 7.125 C-1.07410156 6.22007813 -1.08570313 5.31515625 -1.09765625 4.3828125 C-1 2 -1 2 0 0 Z " fill="#D3F8FA" transform="translate(140,102)"/>
<path d="M0 0 C0.33 0.99 0.66 1.98 1 3 C0.360625 3.268125 -0.27875 3.53625 -0.9375 3.8125 C-3.33131686 4.88667752 -3.33131686 4.88667752 -4 8 C-5.65 8 -7.3 8 -9 8 C-6.31158141 5.74754119 -4.35358125 4.11786042 -1 3 C-0.67 2.01 -0.34 1.02 0 0 Z " fill="#CEE7F7" transform="translate(59,130)"/>
<path d="M0 0 C3.39192363 0.59283621 5.2107757 1.76743189 7.75 4.0625 C8.67039063 4.88427734 8.67039063 4.88427734 9.609375 5.72265625 C10.29773438 6.35494141 10.29773438 6.35494141 11 7 C7.42188369 7 6.73324619 6.13534858 4 4 C3.01 3.67 2.02 3.34 1 3 C0.67 2.01 0.34 1.02 0 0 Z " fill="#2B7CCB" transform="translate(160,128)"/>
<path d="M0 0 C0.33 0.66 0.66 1.32 1 2 C-2.32307692 6.8 -2.32307692 6.8 -5.75 7.8125 C-6.4925 7.874375 -7.235 7.93625 -8 8 C-7.67 7.34 -7.34 6.68 -7 6 C-6.34 6 -5.68 6 -5 6 C-5 5.34 -5 4.68 -5 4 C-3.37373596 2.61767557 -1.7074998 1.28062485 0 0 Z " fill="#D2EFFC" transform="translate(173,206)"/>
<path d="M0 0 C2.5625 0.25 2.5625 0.25 5 1 C5.33 1.66 5.66 2.32 6 3 C4.02 3 2.04 3 0 3 C-0.33 4.65 -0.66 6.3 -1 8 C-1.33 8 -1.66 8 -2 8 C-2.125 5.125 -2.125 5.125 -2 2 C-1.34 1.34 -0.68 0.68 0 0 Z " fill="#76DDFD" transform="translate(142,153)"/>
<path d="M0 0 C1.32 0 2.64 0 4 0 C4.268125 0.804375 4.53625 1.60875 4.8125 2.4375 C5.204375 3.283125 5.59625 4.12875 6 5 C6.99 5.33 7.98 5.66 9 6 C8.67 6.66 8.34 7.32 8 8 C6.2925002 6.71937515 4.62626404 5.38232443 3 4 C3 3.34 3 2.68 3 2 C2.01 1.67 1.02 1.34 0 1 C0 0.67 0 0.34 0 0 Z " fill="#D9FAF8" transform="translate(194,56)"/>
<path d="M0 0 C0.33 0 0.66 0 1 0 C1.33 1.98 1.66 3.96 2 6 C0.02 6 -1.96 6 -4 6 C-1.125 1.125 -1.125 1.125 0 0 Z " fill="#DAF4FC" transform="translate(179,50)"/>
<path d="M0 0 C3.33333333 1.66666667 6.66666667 3.33333333 10 5 C7 6 7 6 4.4375 5.3125 C1.70124563 3.83913226 1.05041579 2.86477034 0 0 Z " fill="#C8E9FC" transform="translate(64,212)"/>
<path d="M0 0 C3.39417765 3.12621626 5.6062718 5.56541027 7 10 C5.62437146 8.71034824 4.29233607 7.37310707 3 6 C3 5.34 3 4.68 3 4 C2.01 3.67 1.02 3.34 0 3 C0 2.01 0 1.02 0 0 Z " fill="#307DCC" transform="translate(172,136)"/>
<path d="M0 0 C2.97 0.495 2.97 0.495 6 1 C4.6875 3 4.6875 3 3 5 C2.01 5 1.02 5 0 5 C0 3.35 0 1.7 0 0 Z " fill="#2B81D8" transform="translate(38,129)"/>
<path d="M0 0 C2.4375 0.375 2.4375 0.375 5 1 C5.33 1.66 5.66 2.32 6 3 C4.02 3.66 2.04 4.32 0 5 C0 3.35 0 1.7 0 0 Z " fill="#087AF1" transform="translate(161,131)"/>
<path d="M0 0 C1.32 0.33 2.64 0.66 4 1 C4.33 3.31 4.66 5.62 5 8 C2.74754119 5.31158141 1.11786042 3.35358125 0 0 Z " fill="#2A7ECC" transform="translate(42,187)"/>
<path d="M0 0 C3.45925163 1.2491742 6.14693203 2.67527795 9 5 C5.97580475 4.41196203 2.98241547 3.77321882 0 3 C0 2.01 0 1.02 0 0 Z " fill="#287DD4" transform="translate(47,168)"/>
<path d="M0 0 C0.99 0.33 1.98 0.66 3 1 C1.47793991 3.62901288 0.15634036 5.84365964 -2 8 C-2.125 5.125 -2.125 5.125 -2 2 C-1.34 1.34 -0.68 0.68 0 0 Z " fill="#DDF2FC" transform="translate(40,121)"/>
<path d="M0 0 C0.33 0.66 0.66 1.32 1 2 C-1.17508418 6.69360269 -1.17508418 6.69360269 -4.1875 7.8125 C-4.785625 7.874375 -5.38375 7.93625 -6 8 C-4.625 5.5 -4.625 5.5 -3 3 C-2.34 3 -1.68 3 -1 3 C-0.67 2.01 -0.34 1.02 0 0 Z " fill="#E7FDFD" transform="translate(203,85)"/>
</svg>
