<?xml version="1.0" encoding="iso-8859-1"?>
<!-- Uploaded to: SVG Repo, www.svgrepo.com, Generator: SVG Repo Mixer Tools -->
<svg height="800px" width="800px" version="1.1" id="Layer_1" xmlns="http://www.w3.org/2000/svg" xmlns:xlink="http://www.w3.org/1999/xlink" 
	 viewBox="0 0 512 512" xml:space="preserve">
<path style="fill:#F7B239;" d="M359.183,361.274L256.004,464.452L152.813,361.274c-68.786-68.786-68.786-180.315,0-249.1
	L256.004,8.982l103.179,103.191C427.969,180.959,427.969,292.488,359.183,361.274z"/>
<path style="fill:#E09B2D;" d="M256.004,8.983v455.47L152.813,361.275c-68.786-68.786-68.786-180.315,0-249.1L256.004,8.983z"/>
<path style="fill:#FFFFFF;" d="M380.741,243.507c-4.9,0-8.908-3.935-8.981-8.85c-0.535-35.907-14.777-69.629-40.102-94.954
	l-42.462-42.462c-3.509-3.509-3.509-9.197,0-12.705c3.509-3.509,9.198-3.509,12.705,0l42.462,42.462
	c28.649,28.648,44.759,66.787,45.364,107.392c0.074,4.962-3.889,9.043-8.849,9.118C380.832,243.506,380.787,243.507,380.741,243.507
	z"/>
<path style="fill:#333333;" d="M365.541,105.819L262.353,2.632C260.668,0.946,258.383,0,255.999,0s-4.668,0.946-6.353,2.632
	L146.459,105.819c-72.18,72.18-72.18,189.624,0,261.803l100.555,100.555v34.837c0,4.962,4.023,8.985,8.985,8.985
	c4.962,0,8.985-4.023,8.985-8.985v-34.837l100.557-100.555C437.72,295.443,437.72,177.999,365.541,105.819z M264.984,442.767
	v-73.943l46.134-22.44c4.462-2.171,6.319-7.547,4.15-12.009c-2.172-4.462-7.547-6.32-12.009-4.15l-38.273,18.616v-49.569
	l90.416-37.91c4.576-1.919,6.73-7.184,4.812-11.759c-1.918-4.575-7.182-6.732-11.759-4.812l-83.468,34.997v-51.38l63.008-26.418
	c4.576-1.919,6.73-7.184,4.812-11.759c-1.918-4.575-7.182-6.732-11.759-4.812l-56.06,23.505v-52.338l31.033-13.011
	c4.576-1.919,6.73-7.184,4.812-11.759c-1.918-4.576-7.184-6.728-11.759-4.812l-24.085,10.099V102.73
	c0-4.962-4.023-8.985-8.985-8.985c-4.962,0-8.985,4.023-8.985,8.985v34.371l-24.083-10.099c-4.574-1.918-9.841,0.236-11.759,4.812
	c-1.918,4.576,0.235,9.841,4.812,11.759l31.032,13.011v52.338l-56.059-23.505c-4.573-1.919-9.841,0.235-11.759,4.812
	c-1.919,4.576,0.235,9.841,4.812,11.759l63.007,26.418v51.38l-83.467-34.997c-4.571-1.918-9.841,0.235-11.759,4.812
	c-1.919,4.576,0.235,9.841,4.812,11.759l90.415,37.91v49.57l-38.273-18.616c-4.46-2.169-9.838-0.313-12.009,4.15
	c-2.171,4.462-0.313,9.839,4.15,12.009l46.133,22.44v73.943l-87.85-87.85C94,289.744,94,183.699,159.173,118.526l96.835-96.835
	l96.835,96.835c65.173,65.173,65.173,171.219,0,236.391L264.984,442.767z"/>
</svg>