<?xml version="1.0" encoding="utf-8"?><!-- Uploaded to: SVG Repo, www.svgrepo.com, Generator: SVG Repo Mixer Tools -->
<svg fill="#000000" width="800px" height="800px" viewBox="0 0 24 24" id="winter" data-name="Line Color" xmlns="http://www.w3.org/2000/svg" class="icon line-color"><path id="primary" d="M12,9V5M9.88,9.88,7.05,7.05m2,5H5m4.88,2.12L7.05,17M12,19V15M17,17l-2.83-2.83M19,12H15M17,7.05,14.12,9.88M12,9a3,3,0,1,0,3,3A3,3,0,0,0,12,9Z" style="fill: none; stroke: rgb(0, 0, 0); stroke-linecap: round; stroke-linejoin: round; stroke-width: 2;"></path><polyline id="secondary" points="14 3 12 5 10 3" style="fill: none; stroke: rgb(44, 169, 188); stroke-linecap: round; stroke-linejoin: round; stroke-width: 2;"></polyline><polyline id="secondary-2" data-name="secondary" points="4.22 7.05 7.05 7.05 7.05 4.22" style="fill: none; stroke: rgb(44, 169, 188); stroke-linecap: round; stroke-linejoin: round; stroke-width: 2;"></polyline><polyline id="secondary-3" data-name="secondary" points="3 14 5 12 3 10" style="fill: none; stroke: rgb(44, 169, 188); stroke-linecap: round; stroke-linejoin: round; stroke-width: 2;"></polyline><polyline id="secondary-4" data-name="secondary" points="7.05 19.78 7.05 16.95 4.22 16.95" style="fill: none; stroke: rgb(44, 169, 188); stroke-linecap: round; stroke-linejoin: round; stroke-width: 2;"></polyline><polyline id="secondary-5" data-name="secondary" points="14 21 12 19 10 21" style="fill: none; stroke: rgb(44, 169, 188); stroke-linecap: round; stroke-linejoin: round; stroke-width: 2;"></polyline><polyline id="secondary-6" data-name="secondary" points="19.78 16.95 16.95 16.95 16.95 19.78" style="fill: none; stroke: rgb(44, 169, 188); stroke-linecap: round; stroke-linejoin: round; stroke-width: 2;"></polyline><polyline id="secondary-7" data-name="secondary" points="21 10 19 12 21 14" style="fill: none; stroke: rgb(44, 169, 188); stroke-linecap: round; stroke-linejoin: round; stroke-width: 2;"></polyline><polyline id="secondary-8" data-name="secondary" points="16.95 4.22 16.95 7.05 19.78 7.05" style="fill: none; stroke: rgb(44, 169, 188); stroke-linecap: round; stroke-linejoin: round; stroke-width: 2;"></polyline></svg>