<?xml version="1.0" encoding="UTF-8"?>
<svg version="1.1" viewBox="0 0 1384 1600" width="1280" height="1280" xmlns="http://www.w3.org/2000/svg">
<path transform="translate(0)" d="m0 0h1384v1600h-1384v-1600z" fill="#FDFDFD"/>
<path transform="translate(427 268)" d="m0 0c16.8 5.07 32.6 5.15 49.7 1.08 8.33-1.98 17.4-3.12 25.5 0.562 6.04 5.28 10.5 13.3 11.3 21.3 0.315 7.8 0.0527 13-5.42 19-5.25 4.73-5.25 4.73-7.92 4.73 0.433 1.88 0.433 1.88 0.875 3.8 0.777 3.49 1.45 6.97 2.06 10.5 3.18 17.9 8.18 35.6 15.2 52.4 1.28 3.35 1.33 5.77 0.889 9.33-2.14 3.03-4.31 5.41-7.12 7.81-5.73 6.68-6.48 17.9-8.31 26.4-7.51 34.6-7.51 34.6-17.6 41.8-4.18 2.11-7.66 2.21-12.3 2.12-1.25-0.018-2.51-0.0361-3.8-0.0547-0.953-0.0232-1.91-0.0464-2.89-0.0703-0.0856 0.605-0.171 1.21-0.26 1.83-0.392 2.76-0.785 5.53-1.18 8.29-0.202 1.43-0.202 1.43-0.408 2.88-0.132 0.928-0.264 1.86-0.4 2.81-0.124 0.907-0.247 1.81-0.375 2.75-0.379 2.43-0.379 2.43-1.23 5.61-0.399 7.38 6.16 14.5 10.1 20.3 6.46 9.78 11.7 19.8 16.5 30.4 0.59 1.28 1.18 2.57 1.77 3.85 0.281 0.614 0.562 1.23 0.852 1.86 2.42 5.21 5.21 10.1 8.2 15 1.38 2.39 1.38 2.39 2.38 5.39 1.31 0.712 2.65 1.37 4 2 1.31 0.997 2.58 2.04 3.81 3.12 0.625 0.539 1.25 1.08 1.89 1.63 1.85 1.8 3.48 3.6 5.14 5.57 5.88 6.8 12.4 13 18.8 19.4 1.32 1.32 2.65 2.64 3.97 3.96 2.43 2.42 4.86 4.84 7.29 7.25 7.95 7.91 7.95 7.91 9.5 9.73 3.22 2.75 7.61 1.67 11.6 1.38 5.54-0.568 11.1-1.3 16.6-2.05 1.62-0.215 3.24-0.43 4.86-0.644 4.26-0.565 8.52-1.14 12.8-1.71 4.23-0.569 8.46-1.13 12.7-1.69 16.4-2.17 32.7-4.39 49.1-6.66 25.4-3.53 25.4-3.53 35 0.757 0.392-1.24 0.784-2.48 1.19-3.75 1.17-3.51 2.48-6.91 3.93-10.3 3.4-8.1 6.58-16.3 9.77-24.5 1.05-2.69 2.1-5.38 3.15-8.06 3.63-9.32 7.21-18.6 10.6-28 3.78-9.61 3.78-9.61 8.88-12.4 0.889-0.495 1.78-0.99 2.7-1.5 1.36-0.743 1.36-0.743 2.74-1.5 1.65-0.993 3.3-1.99 4.94-3 3.33-2 6.7-3.91 10.1-5.75 6.1-3.31 12.1-6.8 18.1-10.3 11.4-6.71 11.4-6.71 17-9.87 0.705-0.401 1.41-0.803 2.14-1.22 1.75-0.85 1.75-0.85 3.75-0.85v-2c5.33-2.67 10.7-5.33 16-8 2.37 2.37 2.36 3.25 2.75 6.51 0.173 1.36 0.173 1.36 0.35 2.74 0.225 1.89 0.449 3.79 0.672 5.68 0.55 4.3 1.14 8.18 2.83 12.2 2.72 6.58 1.41 14.1 0.703 21.1-0.113 1.16-0.113 1.16-0.227 2.34-0.164 1.68-0.329 3.35-0.496 5.03-0.467 4.68-0.919 9.36-1.37 14-0.0975 0.998-0.195 2-0.295 3.03-0.729 7.48-1.43 15-2.11 22.5-0.151 1.65-0.151 1.65-0.305 3.34-0.152 1.67-0.152 1.67-0.307 3.36-5.32 58.2-11.4 116-18.4 174-1.62 13.4-3.15 26.8-4.65 40.2-1.06 9.4-2.13 18.8-3.33 28.2-0.0949 0.745-0.19 1.49-0.287 2.26-0.439 3.43-0.885 6.87-1.34 10.3-0.232 1.79-0.232 1.79-0.469 3.61-0.204 1.53-0.204 1.53-0.411 3.09-0.339 3.7-0.288 7.43-0.288 11.1 39.6 0.495 39.6 0.495 80 1-1.38-6.87-2.76-13.7-4.19-20.8-5.31-26.8-9.91-53.9-11.8-81.2-0.0869-1.15-0.174-2.31-0.263-3.49-0.821-11.6-0.89-23.3-0.867-34.9 0.00533-3.23 3.52e-5 -6.46-0.00635-9.69-0.016-42.5 3.5-83.9 16.2-125 1.03-3.39 1.99-6.79 2.95-10.2 3.93-14 8.16-27.9 12.8-41.7 0.554-1.65 1.1-3.31 1.65-4.97 3.92-11.9 8.68-21.5 16.6-31.3 2.45-3.6 4.73-7.29 7-11 0.419-0.625 0.838-1.25 1.27-1.89 4.12-6.83 4.06-15.3 4.73-23.1 1.84-0.594 1.84-0.594 4-1 2.16 1.24 4.02 2.51 6 4 11.8 8.43 23.4 16.3 37.2 20.9 7.98 2.74 15.7 5.88 23.5 9.24 5.24 2.24 10.5 4.26 15.9 6.01 18.7 6.16 18.7 6.16 22.4 11.1 1.79 3.56 2.93 6.88 3.94 10.7 0.863 2.38 1.74 4.75 2.62 7.12 0.514 1.55 0.514 1.55 1.04 3.13 1.51 4.22 3.23 8.33 4.97 12.5 2.35 5.63 4.58 11.3 6.81 17 0.241 0.614 0.483 1.23 0.731 1.86 3.01 7.67 5.95 15.4 8.63 23.2 2.09 6.06 4.37 12.1 6.64 18.1 4.78 12.6 9.26 25.4 13.1 38.4 0.877 2.96 1.82 5.85 2.96 8.72 2.14 5.55 3.57 11.3 5.1 17.1 0.304 1.12 0.607 2.24 0.92 3.39 7.17 26.8 5.97 51.8 0.518 78.7-0.21 1.04-0.419 2.09-0.635 3.17-5.49 26.8-14.3 52.5-24.4 77.8-0.445 1.13-0.445 1.13-0.898 2.29-6.09 15.4-12.7 30.8-20.7 45.3-0.405 0.745-0.81 1.49-1.23 2.26-2.83 4.99-2.83 4.99-6.21 6.12-9.6-1.58-18.1-4.21-26-10l-2.36-1.7c-4.88-3.65-9.76-7.58-13.6-12.3v-2c-6.23 2.08-10.2 10.6-13.2 16.3-2.4 4.85-4.63 9.77-6.8 14.7 6.35 0.458 6.35 0.458 11.8-2.31l1.64-1.3c1.57-1.41 3.07-2.88 4.54-4.39 2 1 2 1 3.31 4.25 2.97 7.17 8.94 10.5 15.7 13.8 1.47 0.54 2.95 1.06 4.44 1.56 3.56 1.44 3.56 1.44 5.06 3.19 0.725 3.26 0.82 5.91 0.5 9.25-2.13 2.55-2.13 2.55-5.12 4.88-0.538 0.421-1.08 0.841-1.63 1.27-12.3 9.47-27.5 19.9-42.2 24.9-0.0673 0.862-0.0673 0.862-0.136 1.74-2.83 36.1-5.87 72.2-9.05 108-0.176 2-0.351 3.99-0.527 5.99-0.424 4.82-0.849 9.63-1.27 14.4-0.157 1.77-0.313 3.54-0.47 5.32-0.906 10.3-1.85 20.5-2.83 30.8-0.672 7.02-1.3 14-1.9 21.1-0.159 1.85-0.159 1.85-0.321 3.74-0.29 3.39-0.579 6.78-0.868 10.2-0.249 2.93-0.499 5.85-0.749 8.78-0.712 8.34-1.42 16.7-2.13 25-0.615 7.22-1.23 14.4-1.85 21.7-0.995 11.7-1.99 23.3-2.98 35-0.392 4.61-0.785 9.21-1.18 13.8-0.561 6.58-1.12 13.2-1.68 19.7-0.0892 1.05-0.178 2.1-0.27 3.18-0.926 10.9-1.83 21.8-2.68 32.7-0.0697 0.895-0.139 1.79-0.211 2.71-0.323 4.16-0.641 8.32-0.953 12.5-0.111 1.45-0.222 2.9-0.333 4.35-0.093 1.24-0.186 2.48-0.282 3.76-0.278 2.82-0.733 5.48-1.32 8.25-0.154 1.99-0.27 3.99-0.359 5.98-0.0612 1.22-0.122 2.44-0.186 3.7-0.0492 0.988-0.0492 0.988-0.0994 2-0.899 17.6-2.67 35.1-4.53 52.6-1.28 12.2-2.47 24.3-3.19 36.5-0.55 8.57-0.55 8.57-2.63 12.2-13.2 9.05-30.7 7.98-45.8 5.63-3.83-0.764-6.73-1.8-10.2-3.63-1.36-0.65-1.36-0.65-2.75-1.31-3.4-2.55-4.93-5.61-5.58-9.84-0.191-2.51-0.289-5.02-0.355-7.54l-0.104-2.47c-0.214-5.81-0.216-11.6-0.201-17.4 0.0257-11-0.166-21.9-0.38-32.9-0.065-3.37-0.125-6.73-0.184-10.1-0.209-11.2-0.512-22.5-1.12-33.7-0.239-4.48-0.368-8.92-0.327-13.4 0.0461-6.19-0.155-12.3-0.402-18.5-0.044-1.12-0.088-2.24-0.133-3.4-0.382-9.59-0.798-19.2-1.22-28.8-0.0491-1.12-0.0491-1.12-0.0993-2.27-0.305-6.96-0.61-13.9-0.92-20.9-0.172-3.86-0.342-7.72-0.509-11.6-0.0632-1.44-0.127-2.89-0.193-4.33-0.36-7.97-0.589-15.9-0.525-23.9 5.53e-4 -3.09-0.204-6.13-0.5-9.21-0.416-5.32-0.544-10.6-0.5-15.9 0.0702-9.67-0.131-19.3-0.372-29-0.0434-1.75-0.0851-3.5-0.125-5.25-0.0572-2.48-0.121-4.96-0.186-7.45-0.0167-0.757-0.0334-1.51-0.0506-2.3-0.0448-3.88-0.0448-3.88-1.27-7.51-1.99 6.02-2.63 11.9-3.18 18.2-0.101 1.08-0.202 2.17-0.306 3.29-0.322 3.47-0.636 6.94-0.948 10.4-1.48 16.3-3.16 32.6-5.17 48.9-0.709 5.83-1.38 11.7-2.05 17.5-0.139 1.21-0.279 2.43-0.422 3.68-0.435 3.8-0.87 7.6-1.3 11.4-0.154 1.35-0.308 2.69-0.462 4.04-0.623 5.44-1.25 10.9-1.87 16.3-0.767 6.71-1.54 13.4-2.31 20.1-2.59 22.5-5.07 44.9-7.5 67.4-0.235 2.17-0.471 4.35-0.707 6.52-0.445 4.1-0.886 8.2-1.33 12.3-0.132 1.21-0.264 2.43-0.4 3.68-0.73 6.82-1.33 13.6-1.78 20.5-0.593 6.08-2.06 10.1-6.77 14.2-10.7 7.08-28.1 6.11-40.4 3.94-10.1-2.91-19.8-6.88-25.1-16.3-0.968-2.9-1.1-4.65-1.06-7.66 0.00846-0.946 0.0169-1.89 0.0256-2.87 0.0122-1.02 0.0243-2.04 0.0369-3.1 0.0543-8.99-0.0793-18-0.438-26.9l-0.119-3.15c-0.168-3.94-0.36-7.76-0.979-11.7-0.732-5.72-0.527-11.4-0.465-17.2 0.0256-2.4 0.0466-4.79 0.0625-7.19 0.0174-1.58 0.0174-1.58 0.0352-3.2-0.0994-3.1-0.58-5.99-1.1-9.05-0.0443-1.69-0.0409-3.37 0.00781-5.06 0.304-16.1-0.477-32-1.59-48-1.28-18.6-2.12-37.2-2.77-55.8-0.0368-1.02-0.0737-2.04-0.112-3.09-0.068-1.89-0.133-3.79-0.194-5.68-0.185-5.17-0.654-10.2-1.34-15.3-0.0401-1.92-0.0433-3.83 0-5.75 0.0394-3.96-0.099-7.81-0.5-11.8-0.617-6.46-0.557-12.9-0.463-19.4 0.0495-4.83-0.344-9.32-1.04-14.1-0.0142-1.35-0.00582-2.7 0.0195-4.05 0.0561-5.06-0.448-10-0.934-15-2.22-23-3.07-46-3.99-69.1-0.119-2.99-0.24-5.97-0.361-8.96-0.0825-2.07-0.161-4.15-0.239-6.22-0.235-5.9-0.562-11.7-1.28-17.6-0.373-3.58-0.38-7.15-0.367-10.8 0.00173-0.811 0.00346-1.62 0.00525-2.46 0.0843-9.76 0.865-19.5 1.65-29.2 0.216-2.75 0.43-5.49 0.642-8.24 0.131-1.69 0.264-3.37 0.401-5.06 0.167-2.11 0.315-4.22 0.457-6.33 0.0754-0.957 0.151-1.91 0.229-2.9-0.0754-0.693-0.151-1.39-0.229-2.1l-3-2.38c-2.37-2.21-2.96-3.27-3.34-6.54 0.0344-1.75 0.0344-1.75 0.0696-3.53 0.0114-0.655 0.0227-1.31 0.0345-1.99 0.189-8.09 0.783-16.2 1.35-24.2 2.05-29.6 3.21-59.3 4.41-88.9 0.309-7.59 0.659-15.2 1.06-22.8 0.358-6.81 0.549-13.6 0.48-20.4-0.00677-1.37-0.00677-1.37-0.0137-2.76-0.0114-2.16-0.0293-4.33-0.0488-6.49-6.85 2.19-13.4 4.76-20.1 7.56-2.12 0.892-4.25 1.78-6.38 2.68-1.08 0.456-2.17 0.912-3.28 1.38-28.4 11.9-28.4 11.9-42.3 17.4-1.55 0.636-1.55 0.636-3.14 1.29-6.05 2.39-9.67 3.24-15.9 0.965-13.1-8.43-26.2-28.9-30.4-43.9-0.623-3.24-0.565-4.37 0.5-7.62 2.08-2.95 4.36-5.22 6.94-7.75 2.17-2.14 4.33-4.29 6.5-6.44 0.556-0.547 1.11-1.09 1.68-1.66 2.63-2.61 5.14-5.23 7.48-8.1 1.95-2.34 3.81-4.24 6.14-6.18 7.52-6.04 7.52-6.04 13.2-13.6h2v-2c-7.84 3.2-15.6 6.56-23.4 9.94-1.02 0.441-2.03 0.881-3.08 1.34-4.07 1.77-8.13 3.54-12.2 5.39-23.7 10.8-50.5 18.1-76.4 21.3v10c1.4 0.66 2.81 1.32 4.25 2 3.95 2.26 6.43 4.09 8.17 8.34 3.73 17-0.205 39-4.42 55.7-0.66 0.99-1.32 1.98-2 3-6.13 0.437-6.13 0.437-9-1 0.0228 0.718 0.0457 1.44 0.0692 2.18 2.43 76.6 2.43 76.6 2.89 110 0.0297 2.12 0.061 4.24 0.0936 6.35 0.104 6.78 0.185 13.6 0.234 20.3 0.0181 2.15 0.0428 4.3 0.0743 6.44 0.0414 2.95 0.0573 5.91 0.0663 8.86 0.0175 0.879 0.0349 1.76 0.0529 2.66-0.0211 5.91-0.0211 5.91-2.27 8.37-0.728 0.341-1.46 0.682-2.21 1.03-0.608 0.294-1.22 0.588-1.84 0.891-2.03 0.774-4.06 1.54-6.09 2.3-0.703 0.273-1.41 0.545-2.13 0.826-0.688 0.257-1.38 0.514-2.08 0.779-0.619 0.232-1.24 0.465-1.87 0.704-2.37 0.605-4.53 0.585-6.97 0.503-0.249 1.52-0.249 1.52-0.503 3.07-0.629 3.83-1.26 7.66-1.9 11.5-0.271 1.64-0.542 3.29-0.812 4.93-1.55 9.42-3.2 18.8-5.11 28.2-0.964 4.79-1.8 9.6-2.61 14.4-1.1 6.43-2.22 12.8-3.41 19.3-2.52 13.6-4.75 27.2-7 40.8-1.99 12-4.03 24-6.14 36.1-0.186 1.07-0.373 2.13-0.565 3.23-0.16 0.906-0.319 1.81-0.484 2.74-0.348 2.19-0.64 4.38-0.905 6.58-0.497 4.08-1.18 8.11-1.89 12.2-2.52 14.5-4.41 29.1-6.17 43.7-0.308 2.53-0.617 5.05-0.926 7.58-1.61 13.2-3.09 26.5-4.35 39.7-3.11 32.5-8.56 64.6-14.6 96.6-0.953 5.15-1.83 10.3-2.71 15.5-1.89 11-4.07 21.9-6.3 32.9-1.03 5.08-2.05 10.2-3.07 15.3-0.303 1.5-0.303 1.5-0.613 3.04-1.07 5.31-2.11 10.6-3.1 16-0.526 2.83-1.06 5.66-1.59 8.48-0.256 1.37-0.509 2.75-0.759 4.12-0.35 1.93-0.712 3.86-1.07 5.78-0.204 1.11-0.408 2.22-0.618 3.36-1.53 5.92-3.69 9.75-8.81 13.1-8.95 4.56-18.4 5.37-28.3 5.31-1.01-0.00274-2.01-0.00548-3.05-0.0083-9.51-0.133-17.8-1.64-26.6-5.3v-2c-0.954-0.293-0.954-0.293-1.93-0.592-2.07-1.41-2.07-1.41-2.85-4.21-0.189-1.85-0.189-1.85-0.383-3.73-0.0733-0.697-0.147-1.39-0.222-2.11-1.07-10.9-1.51-21.9-2.06-32.9-0.754-15.1-1.66-30.2-2.83-45.2-1.64-21.2-2.9-42.4-3.92-63.6-0.0648-1.32-0.0648-1.32-0.131-2.67-1.2-24.5-2.05-49-1.99-73.6 0.00255-1.19 0.0051-2.38 0.00772-3.61 0.041-11 0.242-21.9 0.945-32.8 0.686-11.4 0.604-22.9 0.61-34.4 0.00101-1.24 0.00201-2.49 0.00305-3.77-0.00922-16.8-0.18-33.4-2.82-50.1-0.43-2.74-0.789-5.48-1.14-8.23-1.96-14.1-6.07-27.5-10.2-41-3.28-10.7-6.26-21.5-8.63-32.5-0.306-1.41-0.62-2.82-0.943-4.23-1.34-5.88-2.42-11.8-3.44-17.7-0.178-0.994-0.355-1.99-0.538-3.01-0.862-4.89-1.63-9.75-2.13-14.7-0.498-8.46-0.498-8.46-4.51-15.4-2.35-1.05-4.35-1.6-6.88-1.97-0.66-0.33-1.32-0.66-2-1 0.551-16.5 1.28-33 2.24-49.5 1.2-20.8 2.16-41.7 2.87-62.5 0.534-15.5 1.32-30.9 2.31-46.3 0.521-8.29 0.989-16.6 1.43-24.9 0.0951-1.78 0.192-3.56 0.291-5.33 1.27-23.1-1.81-43.2-8.06-65.5-2.95-10.6-5.01-21.3-7.02-32.1-0.129-0.692-0.258-1.38-0.39-2.1-10.1-54.3-19.4-120 13.8-169 13.2-18.1 13.2-18.1 20.6-21.7 2.5-1.27 4.04-3.03 6.01-5.02 1.51-1.02 3.06-2 4.62-2.94 6.25-3.88 12.2-8.18 18.1-12.5 8.15-5.96 8.15-5.96 11.3-7.53 0.66 0.33 1.32 0.66 2 1 0.264-0.585 0.529-1.17 0.801-1.77 1.24-2.31 2.6-3.94 4.39-5.85 9.09-10.3 15.5-21.7 17.8-35.4h-2c-1.7-1.63-3.36-3.31-5-5-1.93-1.74-3.87-3.46-5.81-5.19-12.4-11.3-21.4-25-27.2-40.8-0.326-0.855-0.652-1.71-0.988-2.59-4.6-15.5-5.99-30.8-2.59-46.6 0.667-3.27 1.2-6.56 1.73-9.86 0.407-2.49 0.814-4.97 1.22-7.46 0.184-1.16 0.369-2.31 0.558-3.51 2.2-12.7 6.13-23.4 16.1-32 15.5-9.99 33.3-5.71 49.9-0.641z" fill="#7B4F50"/>
<path transform="translate(427 268)" d="m0 0c16.8 5.07 32.6 5.15 49.7 1.08 8.33-1.98 17.4-3.12 25.5 0.562 6.04 5.28 10.5 13.3 11.3 21.3 0.315 7.8 0.0527 13-5.42 19-5.25 4.73-5.25 4.73-7.92 4.73 0.433 1.88 0.433 1.88 0.875 3.8 0.777 3.49 1.45 6.97 2.06 10.5 3.18 17.9 8.18 35.6 15.2 52.4 1.28 3.35 1.33 5.77 0.889 9.33-2.14 3.03-4.31 5.41-7.12 7.81-5.73 6.68-6.48 17.9-8.31 26.4-7.51 34.6-7.51 34.6-17.6 41.8-4.18 2.11-7.66 2.21-12.3 2.12-1.25-0.018-2.51-0.0361-3.8-0.0547-0.953-0.0232-1.91-0.0464-2.89-0.0703-0.0856 0.605-0.171 1.21-0.26 1.83-0.392 2.76-0.785 5.53-1.18 8.29-0.202 1.43-0.202 1.43-0.408 2.88-0.132 0.928-0.264 1.86-0.4 2.81-0.124 0.907-0.247 1.81-0.375 2.75-0.379 2.43-0.379 2.43-1.23 5.61-0.399 7.38 6.16 14.5 10.1 20.3 6.46 9.78 11.7 19.8 16.5 30.4 0.59 1.28 1.18 2.57 1.77 3.85 0.281 0.614 0.562 1.23 0.852 1.86 2.42 5.21 5.21 10.1 8.2 15 1.38 2.39 1.38 2.39 2.38 5.39 1.31 0.712 2.65 1.37 4 2 1.31 0.997 2.58 2.04 3.81 3.12 0.625 0.539 1.25 1.08 1.89 1.63 1.85 1.8 3.48 3.6 5.14 5.57 5.88 6.8 12.4 13 18.8 19.4 1.32 1.32 2.65 2.64 3.97 3.96 2.43 2.42 4.86 4.84 7.29 7.25 7.95 7.91 7.95 7.91 9.5 9.73 3.22 2.75 7.61 1.67 11.6 1.38 5.54-0.568 11.1-1.3 16.6-2.05 1.62-0.215 3.24-0.43 4.86-0.644 4.26-0.565 8.52-1.14 12.8-1.71 4.23-0.569 8.46-1.13 12.7-1.69 16.4-2.17 32.7-4.39 49.1-6.66 25.8-3.58 25.8-3.58 32-0.243v2c0.66 0.33 1.32 0.66 2 1-1.55 6.76-3.35 13.4-5.5 20-0.402 1.24-0.804 2.48-1.22 3.75-1.16 2.95-2.35 4.8-4.28 7.25-0.654 1.52-1.26 3.07-1.81 4.62-2.1 5.45-4.69 10.7-8.19 15.4h-2c-0.33 0.99-0.66 1.98-1 3h-2c-0.259 0.582-0.518 1.16-0.784 1.76-2.2 4.05-5.66 7.05-8.9 10.3-0.695 0.72-1.39 1.44-2.11 2.18-4.15 4.17-7.56 6.79-13.2 8.76-1.58 0.62-3.16 1.25-4.73 1.88-1.28 0.509-1.28 0.509-2.58 1.03-4.68 1.9-9.3 3.94-13.9 5.96-1.02 0.443-2.04 0.885-3.09 1.34-4.11 1.79-8.21 3.58-12.3 5.45-23.7 10.8-50.5 18.1-76.4 21.3v10c1.4 0.66 2.81 1.32 4.25 2 3.95 2.26 6.43 4.09 8.17 8.34 3.73 17-0.205 39-4.42 55.7-0.66 0.99-1.32 1.98-2 3-6.13 0.437-6.13 0.437-9-1 0.0228 0.718 0.0457 1.44 0.0692 2.18 2.43 76.6 2.43 76.6 2.89 110 0.0297 2.12 0.061 4.24 0.0936 6.35 0.104 6.78 0.185 13.6 0.234 20.3 0.0181 2.15 0.0428 4.3 0.0743 6.44 0.0414 2.95 0.0573 5.91 0.0663 8.86 0.0175 0.879 0.0349 1.76 0.0529 2.66-0.0211 5.91-0.0211 5.91-2.27 8.37-0.728 0.341-1.46 0.682-2.21 1.03-0.608 0.294-1.22 0.588-1.84 0.891-2.03 0.774-4.06 1.54-6.09 2.3-0.703 0.273-1.41 0.545-2.13 0.826-0.688 0.257-1.38 0.514-2.08 0.779-0.619 0.232-1.24 0.465-1.87 0.704-2.37 0.605-4.53 0.585-6.97 0.503-0.249 1.52-0.249 1.52-0.503 3.07-0.629 3.83-1.26 7.66-1.9 11.5-0.271 1.64-0.542 3.29-0.812 4.93-1.55 9.42-3.2 18.8-5.11 28.2-0.964 4.79-1.8 9.6-2.61 14.4-1.1 6.43-2.22 12.8-3.41 19.3-2.52 13.6-4.75 27.2-7 40.8-1.99 12-4.03 24-6.14 36.1-0.186 1.07-0.373 2.13-0.565 3.23-0.16 0.906-0.319 1.81-0.484 2.74-0.348 2.19-0.64 4.38-0.905 6.58-0.497 4.08-1.18 8.11-1.89 12.2-2.52 14.5-4.41 29.1-6.17 43.7-0.308 2.53-0.617 5.05-0.926 7.58-1.61 13.2-3.09 26.5-4.35 39.7-3.11 32.5-8.56 64.6-14.6 96.6-0.953 5.15-1.83 10.3-2.71 15.5-1.89 11-4.07 21.9-6.3 32.9-1.03 5.08-2.05 10.2-3.07 15.3-0.303 1.5-0.303 1.5-0.613 3.04-1.07 5.31-2.11 10.6-3.1 16-0.526 2.83-1.06 5.66-1.59 8.48-0.256 1.37-0.509 2.75-0.759 4.12-0.35 1.93-0.712 3.86-1.07 5.78-0.204 1.11-0.408 2.22-0.618 3.36-1.53 5.92-3.69 9.75-8.81 13.1-8.95 4.56-18.4 5.37-28.3 5.31-1.01-0.00274-2.01-0.00548-3.05-0.0083-9.51-0.133-17.8-1.64-26.6-5.3v-2c-0.954-0.293-0.954-0.293-1.93-0.592-2.07-1.41-2.07-1.41-2.85-4.21-0.189-1.85-0.189-1.85-0.383-3.73-0.0733-0.697-0.147-1.39-0.222-2.11-1.07-10.9-1.51-21.9-2.06-32.9-0.754-15.1-1.66-30.2-2.83-45.2-1.64-21.2-2.9-42.4-3.92-63.6-0.0648-1.32-0.0648-1.32-0.131-2.67-1.2-24.5-2.05-49-1.99-73.6 0.00255-1.19 0.0051-2.38 0.00772-3.61 0.041-11 0.242-21.9 0.945-32.8 0.686-11.4 0.604-22.9 0.61-34.4 0.00101-1.24 0.00201-2.49 0.00305-3.77-0.00922-16.8-0.18-33.4-2.82-50.1-0.43-2.74-0.789-5.48-1.14-8.23-1.96-14.1-6.07-27.5-10.2-41-3.28-10.7-6.26-21.5-8.63-32.5-0.306-1.41-0.62-2.82-0.943-4.23-1.34-5.88-2.42-11.8-3.44-17.7-0.178-0.994-0.355-1.99-0.538-3.01-0.862-4.89-1.63-9.75-2.13-14.7-0.498-8.46-0.498-8.46-4.51-15.4-2.35-1.05-4.35-1.6-6.88-1.97-0.66-0.33-1.32-0.66-2-1 0.551-16.5 1.28-33 2.24-49.5 1.2-20.8 2.16-41.7 2.87-62.5 0.534-15.5 1.32-30.9 2.31-46.3 0.521-8.29 0.989-16.6 1.43-24.9 0.0951-1.78 0.192-3.56 0.291-5.33 1.27-23.1-1.81-43.2-8.06-65.5-2.95-10.6-5.01-21.3-7.02-32.1-0.129-0.692-0.258-1.38-0.39-2.1-10.1-54.3-19.4-120 13.8-169 13.2-18.1 13.2-18.1 20.6-21.7 2.5-1.27 4.04-3.03 6.01-5.02 1.51-1.02 3.06-2 4.62-2.94 6.25-3.88 12.2-8.18 18.1-12.5 8.15-5.96 8.15-5.96 11.3-7.53 0.66 0.33 1.32 0.66 2 1 0.264-0.585 0.529-1.17 0.801-1.77 1.24-2.31 2.6-3.94 4.39-5.85 9.09-10.3 15.5-21.7 17.8-35.4h-2c-1.7-1.63-3.36-3.31-5-5-1.93-1.74-3.87-3.46-5.81-5.19-12.4-11.3-21.4-25-27.2-40.8-0.326-0.855-0.652-1.71-0.988-2.59-4.6-15.5-5.99-30.8-2.59-46.6 0.667-3.27 1.2-6.56 1.73-9.86 0.407-2.49 0.814-4.97 1.22-7.46 0.184-1.16 0.369-2.31 0.558-3.51 2.2-12.7 6.13-23.4 16.1-32 15.5-9.99 33.3-5.71 49.9-0.641z" fill="#F85118"/>
<path transform="translate(915,457)" d="m0 0c4.78 0.331 7.93 2.83 11.6 5.62 1.24 0.914 2.49 1.82 3.73 2.73 0.614 0.449 1.23 0.898 1.86 1.36 9.1 6.54 18.4 11.7 29 15.2 7.98 2.74 15.7 5.88 23.5 9.24 5.24 2.24 10.5 4.26 15.9 6.01 18.7 6.16 18.7 6.16 22.4 11.1 1.79 3.56 2.93 6.88 3.94 10.7 0.863 2.38 1.74 4.75 2.62 7.12 0.514 1.55 0.514 1.55 1.04 3.13 1.51 4.22 3.23 8.33 4.97 12.5 2.35 5.63 4.58 11.3 6.81 17 0.241 0.614 0.483 1.23 0.731 1.86 3.01 7.67 5.95 15.4 8.63 23.2 2.09 6.06 4.37 12.1 6.64 18.1 4.78 12.6 9.26 25.4 13.1 38.4 0.877 2.96 1.82 5.85 2.96 8.72 2.14 5.55 3.57 11.3 5.1 17.1 0.304 1.12 0.607 2.24 0.92 3.39 7.17 26.8 5.97 51.8 0.518 78.7-0.21 1.04-0.419 2.09-0.635 3.17-5.49 26.8-14.3 52.5-24.4 77.8-0.445 1.13-0.445 1.13-0.898 2.29-6.09 15.4-12.7 30.8-20.7 45.3-0.405 0.745-0.81 1.49-1.23 2.26-2.83 4.99-2.83 4.99-6.21 6.12-9.6-1.58-18.1-4.21-26-10-1.17-0.839-1.17-0.839-2.36-1.7-4.88-3.65-9.76-7.58-13.6-12.3v-2c-6.23 2.08-10.2 10.6-13.2 16.3-2.4 4.85-4.63 9.77-6.8 14.7 6.35 0.458 6.35 0.458 11.8-2.31 0.814-0.644 0.814-0.644 1.64-1.3 1.57-1.41 3.07-2.88 4.54-4.39 2 1 2 1 3.31 4.25 2.97 7.17 8.94 10.5 15.7 13.8 1.47 0.54 2.95 1.06 4.44 1.56 3.56 1.44 3.56 1.44 5.06 3.19 0.725 3.26 0.82 5.91 0.5 9.25-2.13 2.55-2.13 2.55-5.12 4.88-0.538 0.421-1.08 0.841-1.63 1.27-11.2 8.6-23.7 16.2-36.4 22.4-2.8 1.33-2.8 1.33-4.87 3.04-2.45 1.77-4.69 2.42-7.6 3.24-4.02 1.17-7.99 2.38-11.9 3.74-0.785 0.27-1.57 0.539-2.38 0.817-1.54 0.531-3.07 1.07-4.6 1.61-4.84 1.66-9.35 2.54-14.4 3.02v2c-2.73 0.7-5.46 1.39-8.19 2.06-0.769 0.199-1.54 0.398-2.33 0.604-7.66 1.87-7.66 1.87-11.5 0.334-1.88-3.5-3-6.01-3-10h-2c-0.196-0.709-0.392-1.42-0.594-2.15-1.96-6.98-4.04-13.9-6.2-20.8-10.4-33.3-10.4-33.3-13.2-48-0.99-0.33-1.98-0.66-3-1-0.103-1.26-0.206-2.52-0.312-3.81-0.518-4.8-1.71-9.28-3.07-13.9-0.621-2.29-0.621-2.29-0.621-4.29-0.66-0.66-1.32-1.32-2-2-0.355-2.06-0.355-2.06-0.521-4.56-0.406-4.93-1.18-9.68-2.15-14.5-0.336-1.74-0.672-3.47-1.01-5.21-0.262-1.35-0.262-1.35-0.53-2.73-7.56-39.1-11.9-77.6-12-117-0.00118-1.05-0.00236-2.11-0.00357-3.19 0.0055-43.4 3.29-85.6 16.2-127 1.03-3.39 1.99-6.79 2.95-10.2 3.93-14 8.16-27.9 12.8-41.7 0.554-1.65 1.1-3.31 1.65-4.97 3.92-11.9 8.68-21.5 16.6-31.3 2.45-3.6 4.73-7.29 7-11 0.419-0.625 0.838-1.25 1.27-1.89 3.59-5.95 3.72-12.8 4.34-19.6 0.395-3.54 0.395-3.54 1.39-4.54z" fill="#3188FA"/>
<path transform="translate(319,975)" d="m0 0c8.19 0.526 16.1 1.88 24.2 3.41 13.5 2.56 27.1 4.49 40.8 5.9 0.773 0.0809 1.55 0.162 2.34 0.245 15.5 1.6 31.1 2.64 46.7 2.63 1.13-8.06e-4 2.26-0.00161 3.42-0.00244 8.2-0.058 16.3-0.44 24.5-1.06 1.03-0.0784 2.07-0.157 3.13-0.238 7.05-0.595 14-1.63 20.9-2.89 1.02-0.182 2.03-0.364 3.08-0.552 6.12-1.1 6.12-1.1 12.2-2.21 0.98-0.175 1.96-0.349 2.97-0.529 1.32-0.24 1.32-0.24 2.67-0.485 0.671-0.0732 1.34-0.146 2.03-0.222 0.33 0.33 0.66 0.66 1 1-0.16 8.2-1.83 16.3-3.31 24.4-0.333 1.84-0.333 1.84-0.673 3.71-1.5 8.23-3.05 16.5-4.63 24.7-1.27 6.63-2.47 13.3-3.62 19.9-0.702 4.03-1.42 8.06-2.14 12.1-1.58 8.93-3.07 17.9-4.55 26.8-3.74 22.6-3.74 22.6-5.6 33.3-0.116 0.671-0.233 1.34-0.352 2.03-0.532 3.06-1.07 6.12-1.61 9.19-0.186 1.07-0.373 2.13-0.565 3.23-0.16 0.906-0.319 1.81-0.484 2.74-0.348 2.19-0.64 4.38-0.905 6.58-0.497 4.08-1.18 8.11-1.89 12.2-2.52 14.5-4.41 29.1-6.17 43.7-0.308 2.53-0.617 5.05-0.926 7.58-1.61 13.2-3.09 26.5-4.35 39.7-3.11 32.5-8.56 64.6-14.6 96.6-0.953 5.15-1.83 10.3-2.71 15.5-1.89 11-4.07 21.9-6.3 32.9-1.03 5.08-2.05 10.2-3.07 15.3-0.202 1-0.404 2-0.613 3.04-1.07 5.31-2.11 10.6-3.1 16-0.526 2.83-1.06 5.66-1.59 8.48-0.256 1.37-0.509 2.75-0.759 4.12-0.35 1.93-0.712 3.86-1.07 5.78-0.204 1.11-0.408 2.22-0.618 3.36-1.53 5.92-3.69 9.75-8.81 13.1-8.95 4.56-18.4 5.37-28.3 5.31-1.01-0.00274-2.01-0.00548-3.05-0.0083-9.51-0.133-17.8-1.64-26.6-5.3v-2c-0.636-0.195-1.27-0.391-1.93-0.592-2.07-1.41-2.07-1.41-2.85-4.21-0.126-1.23-0.252-2.46-0.383-3.73-0.11-1.05-0.11-1.05-0.222-2.11-1.07-10.9-1.51-21.9-2.06-32.9-0.754-15.1-1.66-30.2-2.83-45.2-1.64-21.2-2.9-42.4-3.92-63.6-0.0432-0.882-0.0864-1.76-0.131-2.67-1.2-24.5-2.05-49-1.99-73.6 0.00255-1.19 0.0051-2.38 0.00772-3.61 0.041-11 0.242-21.9 0.945-32.8 0.686-11.4 0.604-22.9 0.61-34.4 0.00101-1.24 0.00201-2.49 0.00305-3.77-0.00922-16.8-0.18-33.4-2.82-50.1-0.43-2.74-0.789-5.48-1.14-8.23-1.96-14.1-6.07-27.5-10.2-41-3.28-10.7-6.26-21.5-8.63-32.5-0.306-1.41-0.62-2.82-0.943-4.23-1.34-5.85-2.43-11.7-3.44-17.7-0.171-0.988-0.342-1.98-0.519-2.99-1.66-9.71-3.13-19.4-4.54-29.2z" fill="#1E1F22"/>
<path transform="translate(814,481)" d="m0 0c3 2 3 2 3.57 4.03 0.136 1.23 0.136 1.23 0.275 2.48 0.168 1.36 0.168 1.36 0.34 2.74 0.104 0.949 0.209 1.9 0.316 2.88 0.814 7.67 0.814 7.67 3.09 15 2.73 6.58 1.42 14.1 0.707 21.1-0.0751 0.772-0.15 1.54-0.227 2.34-0.164 1.68-0.329 3.35-0.496 5.03-0.467 4.68-0.919 9.36-1.37 14-0.0975 0.998-0.195 2-0.295 3.03-0.729 7.48-1.43 15-2.11 22.5-0.151 1.65-0.151 1.65-0.305 3.34-0.101 1.11-0.203 2.22-0.307 3.36-5.32 58.2-11.4 116-18.4 174-1.62 13.4-3.15 26.8-4.65 40.2-1.04 9.32-2.11 18.6-3.33 27.9-0.0949 0.729-0.19 1.46-0.287 2.21-0.434 3.33-0.878 6.66-1.34 9.98-0.996 7.52-1.27 14.7-1.03 22.3-0.134 3.14-0.625 4.51-2.14 7.17-0.269 2.59-0.461 5.1-0.562 7.69-0.316 7.19-0.316 7.19-1.44 8.31-0.299 1.68-0.54 3.37-0.756 5.07-0.14 1.08-0.28 2.16-0.424 3.28-0.148 1.18-0.296 2.36-0.448 3.57-0.154 1.21-0.308 2.41-0.467 3.65-0.326 2.56-0.649 5.12-0.971 7.67-0.492 3.91-0.993 7.82-1.49 11.7-0.315 2.48-0.629 4.96-0.943 7.45-0.15 1.17-0.3 2.34-0.454 3.54-0.137 1.1-0.274 2.19-0.415 3.33-0.121 0.961-0.243 1.92-0.368 2.91-0.312 2.87-0.312 2.87-0.236 6.01-0.0242 2.9-0.523 4.35-2.02 6.79-7.13 0.307-13.1-0.734-20-2.62-1-0.271-2-0.541-3.03-0.82-6.22-1.72-12.4-3.52-18.5-5.55-0.671-0.212-1.34-0.424-2.03-0.643-4.84-1.7-9.05-3.68-11.4-8.36-0.696-5.03-0.343-9.96 0-15 0.0866-1.53 0.172-3.06 0.256-4.59 0.254-4.36 0.551-8.71 0.855-13.1 2.05-29.6 3.21-59.3 4.41-88.9 0.309-7.59 0.659-15.2 1.06-22.8 0.358-6.81 0.549-13.6 0.48-20.4-0.00451-0.911-0.00902-1.82-0.0137-2.76-0.0114-2.16-0.0293-4.33-0.0488-6.49-6.85 2.19-13.4 4.76-20.1 7.56-2.12 0.892-4.25 1.78-6.38 2.68-1.08 0.456-2.17 0.912-3.28 1.38-28.4 11.9-28.4 11.9-42.3 17.4-1.04 0.424-2.07 0.848-3.14 1.29-6.05 2.39-9.67 3.24-15.9 0.965-13.1-8.43-26.2-28.9-30.4-43.9-0.623-3.24-0.565-4.37 0.5-7.62 2.08-2.95 4.36-5.22 6.94-7.75 2.17-2.14 4.33-4.29 6.5-6.44l1.68-1.66c2.63-2.61 5.14-5.23 7.48-8.1 1.95-2.34 3.81-4.24 6.14-6.18 7.52-6.04 7.52-6.04 13.2-13.6h2v-2c1.03-0.743 2.06-1.48 3.12-2.25 4.45-3.21 8.26-6.93 12.1-10.8 0.602-0.602 1.2-1.2 1.82-1.82 2.57-2.6 4.96-5.16 7.22-8.05 0.562-0.682 1.12-1.36 1.7-2.07h2c0.269-0.714 0.539-1.43 0.816-2.16 1.2-2.87 2.6-5.5 4.12-8.21 5.24-9.5 8.8-19.6 12.3-29.9 0.281-0.789 0.562-1.58 0.852-2.39 0.26-0.763 0.521-1.53 0.789-2.31 0.238-0.682 0.475-1.36 0.72-2.07 0.453-2.3 0.11-3.77-0.61-5.98h3c0.392-1.24 0.784-2.48 1.19-3.75 1.17-3.51 2.48-6.91 3.93-10.3 3.4-8.1 6.58-16.3 9.77-24.5 1.05-2.69 2.1-5.38 3.15-8.06 3.63-9.32 7.21-18.6 10.6-28 3.78-9.61 3.78-9.61 8.88-12.4 0.889-0.495 1.78-0.99 2.7-1.5 0.905-0.495 1.81-0.99 2.74-1.5 1.65-0.993 3.3-1.99 4.94-3 3.33-2 6.7-3.91 10.1-5.75 6.1-3.31 12.1-6.8 18.1-10.3 11.4-6.71 11.4-6.71 17-9.87 0.705-0.401 1.41-0.803 2.14-1.22 1.75-0.85 1.75-0.85 3.75-0.85v-2c1.76-0.866 1.76-0.866 3.56-1.75 3.9-1.95 7.67-4.05 11.4-6.25z" fill="#3188FA"/>
<path transform="translate(427 268)" d="m0 0c16.8 5.07 32.6 5.15 49.7 1.08 8.33-1.98 17.4-3.12 25.5 0.562 6.04 5.28 10.5 13.3 11.3 21.3 0.315 7.8 0.0527 13-5.42 19-5.25 4.73-5.25 4.73-7.92 4.73 0.433 1.88 0.433 1.88 0.875 3.8 0.777 3.49 1.45 6.97 2.06 10.5 3.18 17.9 8.18 35.6 15.2 52.4 1.28 3.35 1.33 5.77 0.889 9.33-2.14 3.03-4.31 5.41-7.12 7.81-5.73 6.68-6.48 17.9-8.31 26.4-7.51 34.6-7.51 34.6-17.6 41.8-4.18 2.11-7.66 2.21-12.3 2.12-1.25-0.018-2.51-0.0361-3.8-0.0547-0.953-0.0232-1.91-0.0464-2.89-0.0703-0.0856 0.605-0.171 1.21-0.26 1.83-0.392 2.76-0.785 5.53-1.18 8.29-0.202 1.43-0.202 1.43-0.408 2.88-0.665 4.67-1.37 9.34-2.15 14-0.134 1.09-0.268 2.18-0.406 3.31-0.703 4.37-1.85 8.51-3.09 12.8-1.44 4.96-2.78 9.8-3.5 14.9 0.94 0.597 0.94 0.597 1.9 1.21 0.817 0.53 1.63 1.06 2.48 1.61 0.812 0.522 1.62 1.04 2.46 1.58 2.74 2.03 4.01 3.69 4.58 7.09 0.104 1.34 0.104 1.34 0.211 2.71 0.112 1.35 0.112 1.35 0.227 2.73 0.049 0.687 0.098 1.37 0.148 2.08-4.15-3.91-8.02-8.11-11-13v-3c-1.05-0.323-1.05-0.323-2.12-0.652-3.63-1.7-6.17-4.15-9.01-6.91-4.92-4.67-9.97-9.04-15.3-13.3-2.61-2.14-5.12-4.37-7.61-6.64-8.63-7.85-17.8-15-27.1-22-2.17-1.66-4.34-3.32-6.51-4.98-4.13-3.16-8.26-6.32-12.4-9.48 2.66-4.8 5.04-8.13 9-12 7.74-9.09 13.1-20.2 15-32h-2c-1.7-1.63-3.36-3.31-5-5-1.93-1.74-3.87-3.46-5.81-5.19-12.4-11.3-21.4-25-27.2-40.8-0.489-1.28-0.489-1.28-0.988-2.59-4.6-15.5-5.99-30.8-2.59-46.6 0.667-3.27 1.2-6.56 1.73-9.86 0.407-2.49 0.814-4.97 1.22-7.46 0.184-1.16 0.369-2.31 0.558-3.51 2.2-12.7 6.13-23.4 16.1-32 15.5-9.99 33.3-5.71 49.9-0.641z" fill="#F7CBB0"/>
<path transform="translate(831,252)" d="m0 0c2.11 0.784 4.19 1.66 6.25 2.56 16.6 6.84 33 10.1 50.8 11.4 11.5 0.873 22.3 1.79 31 10 0.655 0.603 1.31 1.21 1.98 1.83 13.9 14.1 19.3 34.6 19.3 53.7-0.0781 7.18-0.741 13.7-3.25 20.4-0.278 0.757-0.557 1.51-0.844 2.29-4.98 12.1-12.7 22.5-20.7 32.8-14.3 17.3-14.3 17.3-20.4 38 0.626 3.74 1.56 7.08 3 10.6 2.01 5.17 1.18 10.1-0.906 15.2-7.6 14.6-21.8 27.9-37.2 34.2h-3v2h-3c0.447 0.594 0.895 1.19 1.36 1.8 6.1 8.37 10.7 17 12.6 27.2 0.186 0.866 0.371 1.73 0.562 2.62-0.827 3.49-3.13 4.85-5.93 6.95-3.23 2.84-3.05 7.19-3.57 11.2-0.23 1.8-0.23 1.8-0.465 3.64-0.0889 0.699-0.178 1.4-0.269 2.12-0.238 1.76-0.497 3.51-0.768 5.26-1.71 11.2-2.65 22.5-3.62 33.8-0.175 2-0.35 4.01-0.525 6.01-1.52 17.3-1.52 17.3-2.88 34.7-0.656 8.62-1.59 17.2-2.52 25.8-0.661 6.38-1.17 12.6-0.97 19-0.0471 1.86-0.0471 1.86-1.05 3.86-0.0454 2-0.0385 4 0 6 0.111 5.78 0.111 5.78-1 8-0.0709 3.25 0.0032 6.49 0.0625 9.74-0.0561 2.93-0.472 5.41-1.06 8.26-0.0433 1.79-0.0401 3.58 0 5.38 0.0726 8.39-0.274 16.8-1.54 25.1-0.467 3.49-0.528 6.77-0.465 10.3 0.0493 16.8-1.85 31.9-6 48.2-1.14 4.48-2.24 8.96-3.12 13.5-0.251 1.28-0.251 1.28-0.508 2.59-0.121 0.629-0.242 1.26-0.367 1.91-1.32-0.33-2.64-0.66-4-1-0.461-1.65-0.919-3.29-1.38-4.94-0.383-1.37-0.383-1.37-0.773-2.78-0.648-2.5-1.22-4.98-1.76-7.51-1.33-6.08-3.16-12-4.97-18-3.17-10.8-3.26-20.8-2.94-31.9 0.0201-0.742 0.0401-1.48 0.0608-2.25 0.458-16.1 1.58-32.2 2.75-48.3 0.134-1.87 0.134-1.87 0.271-3.77 0.258-3.55 0.523-7.1 0.791-10.6 0.0792-1.08 0.158-2.16 0.24-3.27 0.0768-0.986 0.154-1.97 0.233-2.99 0.0987-1.3 0.0987-1.3 0.199-2.62 0.265-2.09 0.265-2.09 1.27-4.09v-3.5c0-3.5 0-3.5 1-5.5 0.0412-1.43 0.0281-2.87-0.0129-4.31-0.0597-6.32 0.566-12.5 1.22-18.8 0.189-1.86 0.189-1.86 0.382-3.77 0.335-3.29 0.676-6.59 1.02-9.88 0.338-3.28 0.667-6.55 0.997-9.83 1.27-12.4 2.61-24.8 4.4-37.2 0.867-6 1.48-12 1.99-18 0.638-7.3 1.59-14.4 3.12-21.6 1.14-5.64 0.364-10.3-0.811-15.8-0.744-8.93 1.81-17.3 6.69-24.8 2.81-2.62 2.81-2.62 5-4-0.722-0.557-1.44-1.11-2.19-1.69-6.74-5.54-13.3-11.8-15.8-20.3-0.672-8.7 3.39-16.3 7-24h-2v-2c-0.606 0.0232-1.21 0.0464-1.84 0.0703-7.32 0.158-14.9 0.0894-21.2-4.07-1.13-3.38-1.16-6.04-1.21-9.61-0.0284-1.31-0.0567-2.62-0.0859-3.98-0.0411-2.08-0.078-4.16-0.104-6.23-0.0278-2.01-0.0748-4.03-0.122-6.04-0.0198-1.2-0.0396-2.4-0.0601-3.64-0.852-7.16-4.78-13.1-8.31-19.2-2.99-8.77 1.59-17.4 4.83-25.6 5-13 6.39-25.2 5.87-39.1-0.262-10.5 0.298-19.3 4.78-28.9 1.27-3.34 1.64-5.45 1.86-8.95 0.421-6.17 2.26-11.4 4.49-17.1 0.36-0.958 0.721-1.92 1.09-2.9 0.975-2.58 1.96-5.15 2.97-7.72 0.328-0.906 0.656-1.81 0.994-2.74 1.01-2.26 1.01-2.26 3.01-3.26z" fill="#F7CAAF"/>
<path transform="translate(504,570)" d="m0 0c5.13 3.46 9.3 7.27 13.4 11.9 6.62 7.27 13.5 14.2 20.5 21.1 1.2 1.2 2.41 2.4 3.61 3.6 2.2 2.19 4.4 4.38 6.6 6.56 7.67 7.63 7.67 7.63 9.24 9.46 3.22 2.74 7.61 1.67 11.6 1.37 5.54-0.568 11.1-1.3 16.6-2.05 1.62-0.215 3.24-0.43 4.86-0.644 4.26-0.565 8.52-1.14 12.8-1.71 4.23-0.569 8.46-1.13 12.7-1.69 16.4-2.17 32.7-4.39 49.1-6.66 25.8-3.58 25.8-3.58 32-0.243v2c0.66 0.33 1.32 0.66 2 1-1.55 6.76-3.35 13.4-5.5 20-0.402 1.24-0.804 2.48-1.22 3.75-1.16 2.95-2.35 4.8-4.28 7.25-0.654 1.52-1.26 3.07-1.81 4.62-2.1 5.45-4.69 10.7-8.19 15.4h-2c-0.33 0.99-0.66 1.98-1 3h-2c-0.259 0.582-0.518 1.16-0.784 1.76-2.2 4.05-5.66 7.05-8.9 10.3-0.695 0.72-1.39 1.44-2.11 2.18-4.15 4.17-7.56 6.79-13.2 8.76-1.58 0.62-3.16 1.25-4.73 1.88-0.853 0.339-1.71 0.679-2.58 1.03-4.68 1.9-9.3 3.94-13.9 5.96-1.53 0.664-1.53 0.664-3.09 1.34-4.11 1.79-8.21 3.58-12.3 5.45-22.6 10.3-52.2 21.3-77.4 20.3-2.03-2.03-1.27-6.28-1.37-9.08-0.515-11.6-2.04-23.1-3.69-34.6-0.153-1.08-0.305-2.16-0.463-3.27-4.85-34.1-10.1-69.9-23.4-102-1.02-2.94-1.3-5-1.07-8.07z" fill="#F85118"/>
<path transform="translate(427 268)" d="m0 0c16.8 5.07 32.6 5.15 49.7 1.08 8.33-1.98 17.4-3.12 25.5 0.562 6.04 5.28 10.5 13.3 11.3 21.3 0.474 11.7 0.474 11.7-3.34 16.9-1.98 2.08-1.98 2.08-4 3.88-0.544 0.499-1.09 0.998-1.65 1.51-12.4 9.34-32.3 8.29-46.9 8.74-2.09 0.0766-4.18 0.155-6.27 0.234-5.05 0.189-10.1 0.358-15.2 0.516 0.137 1.3 0.274 2.61 0.416 3.95 0.968 9.34 1.89 18.7 2.21 28 0.0569 1.52 0.0569 1.52 0.115 3.07 0.424 12.6 0.352 25.3 0.26 37.9-4.45-1.61-6.66-3.66-10-7-4.45-2.65-8.76-4.7-14-3.56-6.02 1.96-8.44 4.99-11.7 10.4-3.28 7.96-2.42 16.7-2.31 25.2-5.17-1.52-8.43-4.76-12.2-8.38-0.663-0.625-1.33-1.25-2.01-1.89-5.67-5.45-10.4-11.2-14.7-17.7-0.561-0.84-1.12-1.68-1.7-2.55-3.89-6.15-6.74-12.7-9.3-19.5-0.329-0.859-0.657-1.72-0.996-2.6-4.58-15.5-5.99-30.8-2.58-46.6 0.667-3.27 1.2-6.56 1.73-9.86 0.407-2.49 0.814-4.97 1.22-7.46 0.184-1.16 0.369-2.31 0.558-3.51 2.2-12.7 6.13-23.4 16.1-32 15.5-9.99 33.3-5.71 49.9-0.641z" fill="#7C4F50"/>
<path transform="translate(831,252)" d="m0 0c2.11 0.784 4.19 1.66 6.25 2.56 16.6 6.84 33 10.1 50.8 11.4 11.5 0.873 22.3 1.79 31 10 0.655 0.603 1.31 1.21 1.98 1.83 13.9 14.1 19.3 34.6 19.3 53.7-0.0781 7.18-0.741 13.7-3.25 20.4-0.278 0.757-0.557 1.51-0.844 2.29-4.98 12.1-12.7 22.5-20.7 32.8-8.13 10.6-15.6 21-19.5 33.9-1.89-0.273-1.89-0.273-4-1-1.05-1.6-1.05-1.6-1.75-3.62-0.242-0.652-0.485-1.3-0.734-1.98-1.06-4.94-1.17-8.24 1.35-12.7 0.8-1.09 1.62-2.18 2.45-3.25 6.14-8.18 11-16.9 9.69-27.4-2.1-4.58-4.15-8.14-9-10-4.01 0.308-6.73 1.71-10 4-2.08 2.68-2.08 2.68-3.81 5.69-0.907 1.49-0.907 1.49-1.83 3.01-0.447 0.759-0.895 1.52-1.36 2.3-2.83-9.05-1.1-20.1 0-29.4 2.74-16.7 2.74-16.7-1.38-32.3-3.99-4.13-8.78-7.28-13.6-10.3-0.849-0.553-1.7-1.11-2.57-1.68-6.45-4-13.2-7.32-20.1-10.5-0.879-0.436-1.76-0.871-2.66-1.32-4.95-2.23-4.95-2.23-10.2-1.87-2.26 0.995-4.32 2.09-6.42 3.38-0.99 0.495-0.99 0.495-2 1-0.38-12.6 4.44-23.5 9-35 0.328-0.904 0.656-1.81 0.994-2.74 1.01-2.26 1.01-2.26 3.01-3.26z" fill="#7C4F51"/>
<path transform="translate(853 488)" d="m0 0c8.22 6.85 12.6 17.9 14.6 28.2 0.186 0.866 0.371 1.73 0.562 2.62-0.827 3.49-3.13 4.85-5.93 6.95-3.23 2.84-3.05 7.19-3.57 11.2-0.153 1.2-0.307 2.41-0.465 3.64-0.0889 0.699-0.178 1.4-0.269 2.12-0.238 1.76-0.497 3.51-0.768 5.26-1.71 11.2-2.65 22.5-3.62 33.8-0.175 2-0.35 4.01-0.525 6.01-1.52 17.3-1.52 17.3-2.88 34.7-0.656 8.62-1.59 17.2-2.52 25.8-0.661 6.38-1.17 12.6-0.97 19-0.0471 1.86-0.0471 1.86-1.05 3.86-0.0454 2-0.0385 4 0 6 0.111 5.78 0.111 5.78-1 8-0.0709 3.25 0.0032 6.49 0.0625 9.74-0.0561 2.93-0.472 5.41-1.06 8.26-0.0433 1.79-0.0401 3.58 0 5.38 0.0726 8.39-0.274 16.8-1.54 25.1-0.467 3.49-0.528 6.77-0.465 10.3 0.0493 16.8-1.85 31.9-6 48.2-1.14 4.48-2.24 8.96-3.12 13.5-0.168 0.856-0.335 1.71-0.508 2.59-0.121 0.629-0.242 1.26-0.367 1.91-1.32-0.33-2.64-0.66-4-1-0.461-1.65-0.919-3.29-1.38-4.94-0.255-0.917-0.51-1.83-0.773-2.78-0.648-2.5-1.22-4.98-1.76-7.51-1.33-6.08-3.16-12-4.97-18-3.17-10.8-3.26-20.8-2.94-31.9 0.0301-1.11 0.0301-1.11 0.0608-2.25 0.458-16.1 1.58-32.2 2.75-48.3 0.0895-1.24 0.179-2.49 0.271-3.77 0.258-3.55 0.523-7.1 0.791-10.6 0.0792-1.08 0.158-2.16 0.24-3.27 0.0768-0.986 0.154-1.97 0.233-2.99 0.0987-1.3 0.0987-1.3 0.199-2.62 0.265-2.09 0.265-2.09 1.27-4.09v-3.5c0-3.5 0-3.5 1-5.5 0.0412-1.43 0.0281-2.87-0.0129-4.31-0.0597-6.32 0.566-12.5 1.22-18.8 0.126-1.24 0.252-2.49 0.382-3.77 0.335-3.29 0.676-6.59 1.02-9.88 0.338-3.28 0.667-6.55 0.997-9.83 1.27-12.4 2.61-24.8 4.4-37.2 0.867-6 1.48-12 1.99-18 0.638-7.3 1.59-14.4 3.12-21.6 1.14-5.64 0.364-10.3-0.811-15.8-0.746-8.95 1.82-17.2 6.69-24.8 2.56-2.5 2.56-2.5 5-4 0.99-0.712 0.99-0.712 2-1.44 2-0.562 2-0.562 4.38 0.25z" fill="#F75018"/>
<path transform="translate(650,690)" d="m0 0v2h-2c-0.403 0.89-0.403 0.89-0.814 1.8-1.19 2.21-2.39 3.67-4.15 5.44-0.571 0.574-1.14 1.15-1.73 1.74-0.594 0.587-1.19 1.17-1.8 1.78-0.594 0.602-1.19 1.2-1.8 1.82-0.571 0.568-1.14 1.14-1.73 1.72-0.782 0.779-0.782 0.779-1.58 1.57-1.39 1.13-1.39 1.13-3.39 1.13-0.66 1.32-1.32 2.64-2 4h-2c-0.403 0.893-0.403 0.893-0.814 1.8-1.19 2.2-2.37 3.59-4.15 5.32-0.571 0.56-1.14 1.12-1.73 1.7-0.594 0.573-1.19 1.15-1.8 1.74-1.18 1.14-2.36 2.29-3.53 3.44-0.521 0.503-1.04 1.01-1.58 1.53-1.61 1.63-1.61 1.63-3.39 4.47h-2c-2.51 7.17-1.83 11.1 1.38 17.9 4.75 9.14 9.96 17.2 16.6 25.1 0.487 0.598 0.975 1.2 1.48 1.81 2.36 2.9 4.83 5.6 7.52 8.19-3.82 4.79-7.67 8.47-12.6 12.1-2.59 2.04-4.87 4.27-7.22 6.58-5.25 4.78-10.4 6.69-17.2 8.31-0.908 0.235-1.82 0.469-2.75 0.711-11.9 2.67-21.6 0.49-32.6-4.12-5.47-2.26-10.6-3.61-16.5-4.3-2.09-0.289-2.09-0.289-3.09-1.29 0.145-5.85 1.07-11.7 2-17.4 1.46-9.28 2.11-18.5 2.31-27.9 0.0298-0.753 0.0596-1.51 0.0903-2.28 0.0583-5.6-1.11-8.84-4.4-13.4-2.01-1.58-2.01-1.58-4.19-2.38-0.695-0.296-1.39-0.593-2.11-0.898-0.563-0.24-1.13-0.48-1.71-0.727-1-1-1-1-1.1-3.29 0.0116-0.917 0.0232-1.83 0.0352-2.78 0.00902-0.919 0.018-1.84 0.0273-2.79 0.0116-0.71 0.0232-1.42 0.0352-2.15 3.78-1.39 7.36-2.27 11.4-2.78 32.4-4.33 66.2-17.7 95.2-32.5 3.25-1.62 5.79-2.7 9.42-2.7z" fill="#F7CBB0"/>
<path transform="translate(748,1423)" d="m0 0c13.6-0.982 23.6 3.07 34.4 11 4.85 3.58 9.5 6.85 15.7 7.1 3.73-1.43 5.28-3.48 7.64-6.63 0.428-0.494 0.856-0.987 1.3-1.5h2c0.33-0.66 0.66-1.32 1-2 0.0856 1.21 0.171 2.41 0.26 3.65 0.32 4.49 0.643 8.99 0.967 13.5 0.14 1.94 0.278 3.88 0.416 5.82 0.199 2.8 0.401 5.6 0.603 8.39 0.0605 0.861 0.121 1.72 0.183 2.61 0.345 4.72 0.869 9.36 1.57 14 0.158 2.37 0.263 4.75 0.312 7.12 0.0561 1.77 0.0561 1.77 0.113 3.57-0.514 3.99-1.59 5.5-4.43 8.3-21.7 15.1-60.9 14.3-86.1 10.4-6.04-1.14-12.9-3.56-16.9-8.37-0.747-5.7 0.0988-9.97 3-15 1.94-2.31 4.1-4.33 6.31-6.38 5.05-4.87 9.21-9.49 12.7-15.6 0.367-0.625 0.734-1.25 1.11-1.89 5.28-9.01 9.96-18 13.6-27.8 1.32-3.5 2.76-6.91 4.25-10.3z" fill="#3188FA"/>
<path transform="translate(859,1464)" d="m0 0c16 0.878 25.9 4.93 38.9 14.5 4.1 2.86 7.04 4.19 12.1 3.48 2.2-1.5 4.02-3.2 6-5h2v-2h2c1.21 3.96 1.41 8.02 1.72 12.1 0.0942 1.18 0.0942 1.18 0.19 2.38 0.268 3.35 0.528 6.69 0.789 10 0.192 2.45 0.388 4.89 0.583 7.34 0.0573 0.754 0.115 1.51 0.174 2.29 0.271 3.38 0.65 6.57 1.55 9.84 0.196 2.66 0.322 5.27 0.375 7.94 0.0561 1.05 0.0561 1.05 0.113 2.13 0.0628 3.72-0.292 5.66-2.51 8.69-21.6 16.3-58.7 15.5-84.1 12.8-6.51-0.916-13.2-2.42-18.4-6.56-2.61-3.46-2.88-6.43-2.57-10.7 2.07-6.26 6.95-10.4 11.6-14.8 14.6-14.3 23.2-35.3 29.5-54.5z" fill="#3188FA"/>
<path transform="translate(368,1484)" d="m0 0c4.99 2.36 9.79 4.75 14.3 7.94 8.98 6.1 18.6 10.8 29.7 10.1 3.36-0.866 4.64-1.49 6.66-4.35 0.463-0.896 0.926-1.79 1.4-2.71 2.41-4.66 2.41-4.66 4.77-5.92 3.15-0.0284 5.05 1.21 7.79 2.73 4.56 2.4 8.85 4.21 13.8 5.51 2.73 0.792 5.36 1.8 8.01 2.81 3.14 1.15 6.31 2.19 9.48 3.23 1.92 0.639 3.85 1.28 5.77 1.92 1.32 0.435 2.63 0.865 3.95 1.29 1.93 0.624 3.85 1.27 5.78 1.91 1.14 0.374 2.28 0.747 3.45 1.13 5.53 2.56 8.86 6.77 11.4 12.2 1.79 5.5 1.61 10.4-0.895 15.6-6.94 7.67-15 8.17-24.9 8.88-3.66 0.166-7.31 0.282-11 0.373-1.32 0.0372-2.63 0.0744-3.99 0.113-23.7 0.645-47.6 0.769-71.2-1.68-0.723-0.0746-1.45-0.149-2.19-0.226-7.79-0.898-14.9-1.84-21.1-6.84-5.03-10.1-1.71-32.5 0.867-43.1 1.79-4.5 4.48-7.72 8.13-10.9z" fill="#4282F8"/>
<path transform="translate(463,499)" d="m0 0c11.3 13.4 19.5 29.1 26.8 44.9 0.59 1.28 1.18 2.57 1.77 3.85 0.282 0.616 0.565 1.23 0.856 1.87 2.37 5.09 5.09 9.9 8 14.7 2.84 4.82 4.82 9.22 6.07 14.7 0.65 2.59 1.57 5.06 2.51 7.55 4.36 11.6 7.28 23.4 10 35.5 0.275 1.22 0.549 2.44 0.832 3.69 4.19 19 7.32 38.1 10 57.3 0.151 1.05 0.303 2.11 0.458 3.2 1.62 11.4 2.99 22.6 3.38 34.1 0.0509 3.98 0.0509 3.98 1.28 7.71-0.0865 1.55-0.24 3.09-0.438 4.62-0.102 0.817-0.204 1.63-0.309 2.48-0.0838 0.626-0.168 1.25-0.254 1.9-6.88-1.88-6.88-1.88-8-3-0.298-1.54-0.541-3.1-0.762-4.65-0.146-0.991-0.292-1.98-0.443-3-0.159-1.08-0.319-2.17-0.483-3.28-2.74-17.8-7.02-35.2-11.5-52.7-0.238-0.93-0.475-1.86-0.72-2.82-1.21-4.62-2.6-9.07-4.34-13.5-1.14-3.09-2.03-6.24-2.95-9.4-4.51-15.5-10.1-30.6-15.8-45.6-0.298-0.788-0.595-1.58-0.902-2.39-2.37-6.24-4.97-12.3-7.73-18.4-4.99-11-9.59-21.8-12.5-33.5-1.84-7.44-3.35-11-9.59-15.3-0.623-0.437-1.25-0.874-1.89-1.32-0.471-0.326-0.941-0.652-1.43-0.988 5.05-22.5 5.05-22.5 8-28z" fill="#1E1F22"/>
<path transform="translate(831,252)" d="m0 0c2.19 0.802 4.36 1.7 6.5 2.62 8.61 3.63 17.5 6.04 26.5 8.38-0.33 0.99-0.66 1.98-1 3h-2c-0.33 0.66-0.66 1.32-1 2h4c1.53 1.72 1.53 1.72 2.94 4.06 0.766 1.22 0.766 1.22 1.55 2.47 0.5 0.813 1 1.63 1.52 2.46 3.07 5.08 3.07 5.08 8 8 0.33-0.33 0.66-0.66 1-1 0.99 0.33 1.98 0.66 3 1v3l-2 1c0.33 0.33 0.66 0.66 1 1 0.284 2.22 0.448 4.44 0.621 6.68 0.399 2.44 1.17 4.18 2.38 6.32 0.743-0.206 1.49-0.413 2.25-0.625 2.75-0.375 2.75-0.375 4.94 0.188 2.63 2.08 3.08 4.23 3.81 7.44l-1 2h2c0.0619 0.577 0.124 1.15 0.188 1.75 0.653 2.49 0.653 2.49 3.25 3.94 3.66 3.3 4.28 6.47 4.56 11.3-0.845 8.85-0.845 8.85-4 12-1.54 5.41-1.21 10.8-0.375 16.3 0.124 1.22 0.247 2.43 0.375 3.69-0.66 0.66-1.32 1.32-2 2-0.557-0.351-1.11-0.701-1.69-1.06-2.96-1.2-4.29-0.896-7.31 0.0625-4.37 2.16-6.32 4.54-8.81 8.69-0.907 1.49-0.907 1.49-1.83 3.01-0.447 0.759-0.895 1.52-1.36 2.3-2.83-9.05-1.1-20.1 0-29.4 2.74-16.7 2.74-16.7-1.38-32.3-3.99-4.13-8.78-7.28-13.6-10.3-0.849-0.553-1.7-1.11-2.57-1.68-6.45-4-13.2-7.32-20.1-10.5-0.879-0.436-1.76-0.871-2.66-1.32-4.95-2.23-4.95-2.23-10.2-1.87-2.26 0.995-4.32 2.09-6.42 3.38-0.99 0.495-0.99 0.495-2 1-0.38-12.6 4.44-23.5 9-35 0.328-0.904 0.656-1.81 0.994-2.74 1.01-2.26 1.01-2.26 3.01-3.26z" fill="#7F4F51"/>
<path transform="translate(392,446)" d="m0 0h2c0.33 0.66 0.66 1.32 1 2 1.98 0.727 3.98 1.4 6 2v2c0.703 0.104 1.41 0.209 2.13 0.316 8.62 2.05 16.5 7.93 23.7 13 0.925 0.649 0.925 0.649 1.87 1.31 1.48 1.07 2.91 2.22 4.32 3.38v2c0.545 0.237 1.09 0.474 1.65 0.719 2.95 1.61 5.33 3.62 7.91 5.78 2.77 2.31 5.44 4.5 8.44 6.5v2h2v2c0.959 0.186 0.959 0.186 1.94 0.375 0.681 0.206 1.36 0.413 2.06 0.625 0.33 0.66 0.66 1.32 1 2 0.99 0.34 0.99 0.34 2 0.688 2 1.31 2 1.31 2.94 4.38 0.0643 4.05-0.579 6.47-1.96 10.2-1.24 3.5-2.25 7.04-3.22 10.6-0.187 0.655-0.374 1.31-0.567 1.98-0.888 3.27-1.28 4.85-0.183 8.14 1.79 1.34 1.79 1.34 3.94 2.5 3.03 1.72 4.06 2.49 6.06 5.5 0.414 2.48 0.414 2.48 0.625 5.19 0.112 1.35 0.112 1.35 0.227 2.73 0.049 0.687 0.098 1.37 0.148 2.08-4.15-3.91-8.02-8.11-11-13v-3c-1.05-0.323-1.05-0.323-2.12-0.652-3.63-1.7-6.17-4.15-9.01-6.91-4.92-4.67-9.97-9.04-15.3-13.3-2.61-2.14-5.12-4.37-7.61-6.64-8.63-7.85-17.8-15-27.1-22-2.17-1.66-4.34-3.32-6.51-4.98-4.13-3.16-8.26-6.32-12.4-9.48 2.66-4.8 5.04-8.13 9-12 1.6-2.11 3.15-4.25 4.67-6.43 0.44-0.519 0.879-1.04 1.33-1.57z" fill="#F6C366"/>
<path transform="translate(650,690)" d="m0 0v2h-2c-0.403 0.89-0.403 0.89-0.814 1.8-1.19 2.21-2.39 3.67-4.15 5.44-0.571 0.574-1.14 1.15-1.73 1.74-0.594 0.587-1.19 1.17-1.8 1.78-0.594 0.602-1.19 1.2-1.8 1.82-0.571 0.568-1.14 1.14-1.73 1.72-0.782 0.779-0.782 0.779-1.58 1.57-1.39 1.13-1.39 1.13-3.39 1.13-0.66 1.32-1.32 2.64-2 4h-2c-0.403 0.893-0.403 0.893-0.814 1.8-1.19 2.2-2.37 3.59-4.15 5.32-0.571 0.56-1.14 1.12-1.73 1.7-0.594 0.573-1.19 1.15-1.8 1.74-1.18 1.14-2.36 2.29-3.53 3.44-0.521 0.503-1.04 1.01-1.58 1.53-1.61 1.63-1.61 1.63-3.39 4.47h-2c-0.133 0.615-0.266 1.23-0.402 1.86-0.177 0.808-0.353 1.62-0.535 2.45-0.174 0.801-0.348 1.6-0.527 2.43-0.535 2.26-0.535 2.26-1.54 5.26l-1-1c-1.71-0.0996-3.42-0.131-5.14-0.133-1.58-0.00193-1.58-0.00193-3.19-0.00391-1.11 0.00387-2.22 0.00773-3.36 0.0117-1.63-0.0058-1.63-0.0058-3.3-0.0117-1.06 0.00129-2.12 0.00258-3.21 0.00391-1.45 0.00169-1.45 0.00169-2.93 0.00342-4.77 0.215-9.38 1.21-14.1 2.14-0.946 0.182-1.89 0.364-2.87 0.551-1.97 0.378-3.93 0.763-5.89 1.16-9.37 1.77-9.37 1.77-14.1 0.285-0.454-0.763-0.908-1.53-1.38-2.31-2.08-3.45-4.29-4.28-7.88-5.89-1.74-0.797-1.74-0.797-2.74-1.8-0.0721-1.69-0.0839-3.38-0.0625-5.06 0.00902-0.919 0.018-1.84 0.0273-2.79 0.0116-0.71 0.0232-1.42 0.0352-2.15 3.78-1.39 7.36-2.27 11.4-2.78 32.4-4.33 66.2-17.7 95.2-32.5 3.25-1.62 5.79-2.7 9.42-2.7z" fill="#FDFDFE"/>
<path transform="translate(967,704)" d="m0 0c0.33 0.66 0.66 1.32 1 2 0.701-0.392 1.4-0.784 2.12-1.19 3.93-1.11 5.32 0.34 8.88 2.19 3.75 0.251 3.75 0.251 7 0-0.309 1.42-0.309 1.42-0.625 2.88-0.124 1.03-0.247 2.06-0.375 3.12l2 2c0.638 2.44 0.638 2.44 1.18 5.5 0.204 1.13 0.408 2.25 0.618 3.41 0.21 1.2 0.42 2.41 0.636 3.65l0.665 3.7c0.64 3.58 1.27 7.15 1.9 10.7 0.307 1.74 0.614 3.48 0.922 5.22 0.376 2.13 0.75 4.25 1.12 6.38 0.642 3.69 1.36 7.36 2.15 11 1.49 7.49 0.72 13.4-2.19 20.4-0.33 0.33-0.66 0.66-1 1 0.186 0.969 0.371 1.94 0.562 2.94 0.811 4.87-0.411 9.33-1.56 14.1-3.1 0.878-4.91 0.994-8 0-0.0928-1.11-0.0928-1.11-0.188-2.25-1.06-3.59-2.84-4.57-5.81-6.75-2-3-2-3-2.94-5.88-1.37-4.03-3.05-7.11-6.06-10.1-0.771-1.96-1.47-3.94-2.12-5.94-0.353-1.06-0.706-2.12-1.07-3.21-0.805-2.85-0.805-2.85-0.805-5.85-0.66-0.33-1.32-0.66-2-1-3.49-10.3-4.24-22.6-0.828-32.8 1.34-5.15 1.67-10.4 2.09-15.7 0.103-1.19 0.103-1.19 0.208-2.4 0.0542-0.71 0.108-1.42 0.164-2.15 0.363-1.91 0.363-1.91 2.36-4.91z" fill="#4182F8"/>
<path transform="translate(814,1479)" d="m0 0c0.109 2.23 0.186 4.46 0.25 6.69 0.0464 1.24 0.0928 2.48 0.141 3.76-0.46 4.18-1.41 5.65-4.39 8.55-21.7 15.1-60.9 14.3-86.1 10.4-6.04-1.14-12.9-3.56-16.9-8.37-0.594-5.26 0.0178-9.04 2-14 1 0.287 1 0.287 2.02 0.579 15.8 4.42 31.4 6.78 47.8 6.8 1.15 0.00153 2.3 0.00306 3.48 0.00464 18.3-0.238 35.8-14.4 51.7-14.4z" fill="#1E1F22"/>
<path transform="translate(925,1519)" d="m0 0c0.136 2.56 0.234 5.12 0.312 7.69 0.0419 0.721 0.0838 1.44 0.127 2.19 0.0895 3.92-0.0851 5.64-2.46 8.9-21.9 16.4-60.6 16.1-86.2 12.5-6.39-1.14-13.8-2.72-17.7-8.23-0.949-4.15-1.08-7.87 0-12 2.05-1.86 2.05-1.86 4-3 0.99 0.66 1.98 1.32 3 2 22.8 7.69 51 9.27 74 2 0.967-0.266 1.93-0.531 2.93-0.805 7.14-2.1 12.7-5.28 18.8-9.59 2.3-1.61 2.3-1.61 3.3-1.61z" fill="#1E1F22"/>
<path transform="translate(368,1466)" d="m0 0c0.72 0.307 1.44 0.614 2.18 0.931 8.09 3.07 16.7 3.43 25.3 3.38 1-0.00201 2.01-0.00403 3.04-0.0061 7.31-0.0991 13.6-1.03 20.5-3.31 1.66-0.354 3.33-0.694 5-1 3.76 6.61 2.32 15.7 1 23-1.51 3.6-3.36 6.16-6 9-0.499 0.715-0.998 1.43-1.51 2.17-1.49 1.83-1.49 1.83-4.43 2.71-15.7 1.18-29.7-8.05-42.1-16.9-0.99-0.66-1.98-1.32-3-2-0.341-1.88-0.341-1.88-0.293-4.13 0.00967-0.806 0.0193-1.61 0.0293-2.44 0.0251-0.842 0.0503-1.68 0.0762-2.55 0.0135-0.849 0.0271-1.7 0.041-2.57 0.0354-2.1 0.0892-4.2 0.146-6.3z" fill="#F7CBB0"/>
<path transform="translate(787,856)" d="m0 0c10.4 0.0843 20.8 0.179 31.1 0.288 4.82 0.05 9.64 0.0963 14.5 0.134 4.65 0.0368 9.3 0.0832 13.9 0.136 1.78 0.0186 3.55 0.0337 5.33 0.0453 2.48 0.0168 4.97 0.0459 7.45 0.0778 0.737 0.00216 1.47 0.00432 2.23 0.00655 3.69 0.0609 5.29 0.208 8.45 2.31 0.59 2.74 0.59 2.74 1 6 0.755 3.08 1.56 6.13 2.38 9.2 0.621 2.8 0.621 2.8 0.621 6.8-10.4 0.495-10.4 0.495-21 1 0.0625-8.94 0.0625-8.94 0.0901-11.8 0.0025-0.728 5e-3 -1.46 0.00757-2.21 0.00786-1.12 0.00786-1.12 0.0159-2.27 0.0799-1.79 0.0799-1.79-1.11-2.77-2.88-0.16-5.74-0.26-8.63-0.316-0.864-0.0208-1.73-0.0416-2.62-0.063-2.77-0.0656-5.54-0.124-8.31-0.183-1.87-0.0432-3.75-0.0868-5.62-0.131-4.6-0.107-9.21-0.209-13.8-0.307-1.4 2.8-1.03 5.24-0.938 8.32-0.0834 3.58-0.619 7.13-1.06 10.7h-27c0.751-13.5 0.751-13.5 2.04-16 1.43-2.95 1.02-5.75 0.961-8.98z" fill="#1E1F22"/>
<path transform="translate(982,859)" d="m0 0c3 0 3 0 4.47 1.47 0.525 0.67 1.05 1.34 1.59 2.03 9.68 11.5 21.7 18.2 36.4 20.8 0.831 0.244 1.66 0.487 2.52 0.738 1 3 1 3 0.109 4.94-0.673 1.02-0.673 1.02-1.36 2.06-0.438 0.681-0.877 1.36-1.33 2.06-1.36 1.86-2.68 3.44-4.42 4.94h-2c-0.33 0.99-0.66 1.98-1 3-1.94 1.88-1.94 1.88-5 3-8-0.995-17.4-5.23-23-11-2.42-3.16-4.32-6.39-6.04-9.97h-2c-0.33 0.99-0.66 1.98-1 3-3.12 3.05-5.96 4.88-10.3 5.38-2.69-0.375-2.69-0.375-4.69-1.38 0.609-4.52 2.42-8.17 4.56-12.1 0.353-0.654 0.706-1.31 1.07-1.98 3.26-5.91 6.74-12 11.4-16.9z" fill="#F6CAB0"/>
<path transform="translate(107 126)" d="m0 0c0.844 0.00322 1.69 0.00645 2.56 0.00977 1.31 0.0126 1.31 0.0126 2.64 0.0254 1.33 0.00677 1.33 0.00677 2.69 0.0137 2.19 0.0118 4.37 0.0282 6.56 0.0488-0.33 0.99-0.66 1.98-1 3 0.66 0.33 1.32 0.66 2 1-16 12.8-16 12.8-24 12 1.64 1.99 2.5 2.92 5.08 3.34 0.78-0.0157 1.56-0.0314 2.36-0.0476 0.848-0.00967 1.7-0.0193 2.57-0.0293 0.881-0.0251 1.76-0.0503 2.67-0.0762 0.893-0.0135 1.79-0.0271 2.71-0.041 2.2-0.0353 4.4-0.0847 6.61-0.146-0.33 0.66-0.66 1.32-1 2h-2c-0.289 0.619-0.578 1.24-0.875 1.88-1.12 2.12-1.12 2.12-3.12 4.12 0.66 0.99 1.32 1.98 2 3l-2 2h3c0 3 0 3-1.91 4.94-5.22 4.15-9.69 7.16-16.1 9.06-1.12-4.75-1.12-4.75 0-7-1.99 0.0651-3.97 0.13-5.96 0.195-2.04-0.195-2.04-0.195-5.04-2.2-0.221-2.63-0.282-5.01-0.188-7.62 0.0135-0.706 0.0271-1.41 0.041-2.14 0.0354-1.75 0.0892-3.49 0.146-5.23-3.09-1.76-4.23-2-8-2-0.99-0.33-1.98-0.66-3-1 0.75-6.62 0.75-6.62 3-10h2v-2c5.39-3.06 11-4.5 17-6 0.929-0.265 0.929-0.265 1.88-0.534 2.29-0.502 4.33-0.579 6.67-0.563z" fill="#E6EBF4"/>
<path transform="translate(105 701)" d="m0 0c1.89 0.0135 1.89 0.0135 3.83 0.0273 0.964 0.0116 1.93 0.0232 2.92 0.0352 0.495 2.48 0.495 2.48 1 5-10.3 9.85-22.3 13.3-36 16 3.26 4.21 8.01 4.17 13 5.06 3.39 1.05 4.37 1.86 6.03 4.94v2c-0.645-0.00524-1.29-0.0105-1.96-0.0159-2.93-0.0208-5.86-0.0338-8.79-0.0466-1.02-0.00838-2.03-0.0168-3.08-0.0254-0.98-0.00322-1.96-0.00645-2.97-0.00977-0.901-0.00524-1.8-0.0105-2.73-0.0159-2.31 0.106-4.26 0.462-6.47 1.11-0.303-0.543-0.606-1.09-0.918-1.64-0.419-0.715-0.838-1.43-1.27-2.17-0.406-0.708-0.812-1.42-1.23-2.14-4.16-5.38-9.96-5.89-16.3-6.98-10.3-1.94-20.7-4.13-28.3-12.1v-3c0.509 0.277 1.02 0.554 1.54 0.84 3.17 1.5 6.45 2.61 9.77 3.72 0.639 0.221 1.28 0.442 1.94 0.67 4.24 1.42 8.33 2.18 12.8 2.77 0.33 0.33 0.66 0.66 1 1 2.25 0.179 4.5 0.268 6.75 0.312 1.23 0.0374 2.46 0.0748 3.73 0.113 4.13-0.5 5.51-1.66 8.52-4.43 8-4.95 17-7.43 26-10 0.668-0.21 1.34-0.42 2.02-0.637 3.08-0.566 6.1-0.455 9.23-0.426z" fill="#F6C367"/>
<path transform="translate(858,1451)" d="m0 0c2.81 0.915 5.58 1.82 8.29 3 8.63 3.19 18.6 3.44 27.7 3 0.865-0.0412 1.73-0.0825 2.62-0.125 5.59-0.409 10.3-1.65 15.4-3.88 0.99-0.392 1.98-0.784 3-1.19 0.66-0.268 1.32-0.536 2-0.812 2.52 2.52 2.29 3.51 2.41 7.01 0.058 1.48 0.058 1.48 0.117 2.99 0.0309 1.03 0.0619 2.07 0.0938 3.13 0.058 1.56 0.058 1.56 0.117 3.15 0.0945 2.57 0.18 5.15 0.258 7.72h-2v2c-3.19 3.12-6.54 5.62-10.9 6.75-6.65-1.6-12.2-6.09-17.8-9.88-1.46-0.962-2.91-1.92-4.38-2.88-0.575-0.394-1.15-0.789-1.74-1.2-6.04-3.62-12.9-3.78-19.7-4.41-3.54-0.395-3.54-0.395-4.54-1.39-0.0723-2.82 0.00376-5.62 0.0625-8.43 0.12-2.56 0.12-2.56-1.06-4.57z" fill="#F7CBB0"/>
<path transform="translate(748,1407)" d="m0 0c1.49 0.723 1.49 0.723 3 1.46 1.33 0.638 2.67 1.28 4 1.91 0.648 0.317 1.3 0.634 1.96 0.961 8.08 3.84 15.2 5.01 24.2 4.91 1.37-0.0058 1.37-0.0058 2.77-0.0117 7.5-0.0949 14.7-0.849 22.1-2.24 0.51 2.18 1 4.37 1.47 6.56 0.438 2.03 0.915 4.05 1.4 6.07 0.203 5.48-2.47 8.59-5.75 12.8-2.94 2.25-4.38 2.69-8.12 2.62-5.44-1.89-10.1-4.99-14.7-8.37-9.99-7.28-20-10.1-32.3-10.6-1.16-3.55-0.924-6.56-0.562-10.2 0.102-1.08 0.204-2.16 0.309-3.27 0.0838-0.82 0.168-1.64 0.254-2.48z" fill="#F7CBB0"/>
<path transform="translate(817 861)" d="m0 0c1.63 0.0288 3.25 0.0697 4.88 0.12 0.858 0.0203 1.72 0.0406 2.6 0.0615 1.82 0.0456 3.63 0.0964 5.45 0.152 2.78 0.0832 5.57 0.145 8.35 0.205 1.76 0.0469 3.52 0.095 5.29 0.145 1.25 0.0267 1.25 0.0267 2.53 0.054 5.89 0.2 5.89 0.2 8.12 2.43 0.227 1.97 0.227 1.97 0.195 4.35-0.00645 0.851-0.0129 1.7-0.0195 2.58-0.0168 0.889-0.0335 1.78-0.0508 2.7-0.00902 0.897-0.018 1.79-0.0273 2.72-0.0236 2.22-0.0565 4.44-0.0977 6.66-3.13 1.56-6.46 1.16-9.89 1.17-1.18 0.00499-1.18 0.00499-2.38 0.0101-1.66 0.00507-3.32 0.00741-4.99 0.00725-2.53 0.00218-5.07 0.0203-7.6 0.0393-1.62 0.00294-3.23 0.00492-4.85 0.00586-0.755 0.00719-1.51 0.0144-2.29 0.0218-4.11-0.0177-7.3-0.412-11-2.25-0.0579-3.12-0.0936-6.25-0.125-9.38-0.0168-0.889-0.0335-1.78-0.0508-2.7-0.00645-0.851-0.0129-1.7-0.0195-2.58-0.0105-0.786-0.0209-1.57-0.0317-2.38 0.461-4 2.27-3.97 6-4.14z" fill="#F6C366"/>
<path transform="translate(75,91)" d="m0 0c0.495 0.99 0.495 0.99 1 2 1.24-0.165 2.47-0.33 3.75-0.5 5.75-0.651 11.5-0.588 17.2-0.5v1c-0.957 0.0735-0.957 0.0735-1.93 0.148-0.826 0.0748-1.65 0.15-2.5 0.227-0.824 0.0696-1.65 0.139-2.5 0.211-0.682 0.137-1.36 0.273-2.07 0.414-0.33 0.66-0.66 1.32-1 2-1.85 0.852-1.85 0.852-4.06 1.62-1.1 0.391-1.1 0.391-2.22 0.789-0.566 0.193-1.13 0.387-1.71 0.586 0.495 0.495 0.495 0.495 1 1 0.0406 1.67 0.0427 3.33 0 5 0.248-0.639 0.495-1.28 0.75-1.94 1.25-2.06 1.25-2.06 3.19-2.94 2.06-0.125 2.06-0.125 5.06 1.88-1 2-1 2-3.31 3.12-2.69 0.875-2.69 0.875-6.69 0.875v-2h-2c0.495 1.98 0.495 1.98 1 4-4.75 1.12-4.75 1.12-7 0v2c-6.75 2.12-6.75 2.12-9 1-0.33 0.66-0.66 1.32-1 2-3.99 0.997-7.03 1.05-11 0-0.33 0.99-0.66 1.98-1 3-0.664-0.0116-1.33-0.0232-2.01-0.0352-4.5-0.046-8.57 0.0695-13 1.04-0.66-0.33-1.32-0.66-2-1v-6h2c0.267-0.598 0.534-1.2 0.809-1.81 3.51-6.44 10.5-9.91 17.2-12.2 5.34-1.42 10.5-2.29 16-2-1.98 0.99-1.98 0.99-4 2 3.3-0.33 6.6-0.66 10-1 0.33-1.32 0.66-2.64 1-4z" fill="#DDE9F9"/>
<path transform="translate(1356,351)" d="m0 0c3.66 2.54 6.53 4.56 7.94 8.88 0.0206 0.701 0.0412 1.4 0.0625 2.12h2c0.847 1.87 1.68 3.75 2.5 5.62 0.464 1.04 0.928 2.09 1.41 3.16 1.09 3.21 1.09 3.21 1.09 9.21-6.27 0.33-12.5 0.66-19 1-0.743-1.86-1.48-3.71-2.25-5.62-1.88-4.55-3.91-8.38-6.75-12.4v-2h-2v-2c-0.681-0.268-1.36-0.536-2.06-0.812-3.33-1.35-6.63-2.76-9.94-4.19 6.61-7.67 18.7-7.42 27-3z" fill="#F9FCFE"/>
<path transform="translate(509,282)" d="m0 0c3.14 2.87 3.89 4.97 4.34 9.26 0.474 11.7 0.474 11.7-3.34 16.9-8.01 8.47-17.3 11.3-28.9 12.1-2.03 0.00642-4.07-0.0747-6.1-0.18 1.38-1.5 1.38-1.5 3-3h2v-2h-6v-3c3.15-1.2 5.6-2.01 9-1.94 3.81-0.0794 5.86-0.92 9-3.06 1.2-2.84 1.2-2.84 2-6 1.33-2 2.67-4 4-6 0.289-1.01 0.577-2.02 0.875-3.06 1.56-4.07 3.59-5.44 7.12-7.94h2c0.33-0.66 0.66-1.32 1-2z" fill="#7F4F51"/>
<path transform="translate(366,379)" d="m0 0c3 1 3 1 4.5 3.69 0.495 1.09 0.99 2.19 1.5 3.31 0.557 1.11 1.11 2.23 1.69 3.38 0.65 1.3 0.65 1.3 1.31 2.62 1.67 0.0427 3.33 0.0406 5 0l1-1c2.75-0.0318 5.49 0.0684 8.24 0.16 2.87-0.166 4.27-0.831 6.76-2.16 2.33-0.0777 4.67-0.0897 7 0-1.98-0.66-3.96-1.32-6-2v-1h14c-1.39 1.55-1.39 1.55-2.81 3.12-8.22 9.67-7.34 19.8-7.19 31.9-5.17-1.52-8.43-4.76-12.2-8.38-0.663-0.625-1.33-1.25-2.01-1.89-8.23-7.92-15.9-17.3-20.7-27.7v-4z" fill="#7F4F51"/>
<path transform="translate(1116,274)" d="m0 0c2.33 0.227 2.33 0.227 5 1 4.74 5.95 6.06 13.6 7 21 0.99 0.33 1.98 0.66 3 1 0.0374-0.568 0.0748-1.14 0.113-1.72 0.704-8.27 3.15-14.3 8.89-20.3 0.99-0.33 1.98-0.66 3-1 0 3.92-0.103 4.46-1.88 7.56-6.48 14.1-4.65 33.3-5.12 48.4-4.75 1.12-4.75 1.12-7 0-0.621-2.15-1.13-4.34-1.59-6.54-0.142-0.666-0.284-1.33-0.43-2.02-0.303-1.43-0.603-2.86-0.899-4.29-0.763-3.68-1.55-7.35-2.34-11-0.152-0.716-0.305-1.43-0.462-2.17-1.12-5.24-2.29-10.5-3.6-15.7-0.285-1.14-0.57-2.28-0.863-3.45-0.771-2.87-0.771-2.87-1.93-5.57-0.895-2.29-0.895-2.29-0.895-5.29z" fill="#7F4F52"/>
<path transform="translate(495,64)" d="m0 0c0 2.19 0 2.19-1 5-5.65 5.07-12.6 6.82-20.1 7.12-0.639-0.0413-1.28-0.0825-1.94-0.125v2c0.918 0.17 1.84 0.34 2.78 0.516 7 1.38 13.1 2.73 19.2 6.48 2 3 2 3 1.62 5.19-0.206 0.598-0.413 1.2-0.625 1.81-1.11-0.619-2.22-1.24-3.37-1.88-4.78-2.38-9.46-3.28-14.7-4.12-6.51-1.14-12.9-2.39-19.2-4.19-3.79-1.07-7.39-2.01-11.3-2.38-3.53-0.458-5.51-1.38-8.38-3.44 0.375-1.94 0.375-1.94 1-4 2.69-1.35 4.74-1.08 7.75-1.03 1.75 0.0184 1.75 0.0184 3.54 0.0371 2.45 0.0347 4.89 0.0737 7.34 0.117 7.09 0.066 13.5-0.448 20.4-2.13 1.58-0.317 3.17-0.631 4.75-0.938 4.19-0.927 8.12-4.06 12.2-4.06z" fill="#F55019"/>
<path transform="translate(866,977)" d="m0 0c0.99 0.33 1.98 0.66 3 1 1.33 9.41 1.33 9.41 0 14 0.66-0.33 1.32-0.66 2-1 0.255 3.06 0.219 4.63-1.38 7.31-0.536 0.557-1.07 1.11-1.62 1.69h-2v2c-6.46 4.5-12.2 6.52-20 6-0.99-0.33-1.98-0.66-3-1v-7h-2c1.21-3.46 2.38-5.49 5-8 0.454-0.784 0.908-1.57 1.38-2.38 2.29-3.69 4.61-7.15 9-8.19 0.866-0.144 1.73-0.289 2.62-0.438 1.23-0.676 2.43-1.39 3.62-2.12 1.11-0.619 2.23-1.24 3.38-1.88z" fill="#7F4F51"/>
<path transform="translate(854,619)" d="m0 0h1c0.218 12.2-0.0491 24.2-1.14 36.4-0.934 10.7-1.46 21.5-1.98 32.2-0.0443 0.914-0.0886 1.83-0.134 2.77-0.252 5.22-0.499 10.4-0.741 15.7h-1c-0.66 7.92-1.32 15.8-2 24h-1c-0.66-4.95-1.32-9.9-2-15h-1c-0.196-2.37-0.382-4.75-0.562-7.12-0.0561-0.665-0.112-1.33-0.17-2.02-0.305-4.15-0.0393-7.78 0.732-11.9 0.04-1.48 0.0434-2.96 0-4.44-0.0529-3.95 0.421-7.65 1-11.6v-3.62c0-3.38 0-3.38 0.473-5.51 0.741-4.03 0.812-8.03 0.965-12.1 0.398-9.32 1.33-18.5 2.56-27.8l2 2c1.74-1.74 1.66-4.21 2.06-6.56 0.177-1.01 0.353-2.02 0.535-3.07 0.133-0.782 0.266-1.56 0.402-2.37z" fill="#FAFDFE"/>
<path transform="translate(1188,574)" d="m0 0c5.07 7.74 7.73 14.6 7 24-1.89 6.93-6.19 10.1-12 14-2.69 0.125-2.69 0.125-5 0-1.1-3.3-0.85-3.82 0-7 0.775-8.32 0.775-8.32-2.06-15.9-1.94-3.06-1.94-3.06-1.9-5.52 1.33-3.52 3.2-4.45 6.4-6.36 0.989-0.605 1.98-1.21 3-1.83 2.57-1.36 2.57-1.36 4.57-1.36z" fill="#F6C366"/>
<path transform="translate(88,515)" d="m0 0c3 1 3 1 4.35 3.07 4.34 8.91 4.34 8.91 4.65 13.9 0.0967 0.834 0.193 1.67 0.293 2.53 0.395 5.44 0.125 8.73-3.48 13-2.7 2.64-5.26 5.1-8.81 6.5-2.81-0.312-2.81-0.312-5-1 1-6 1-6 1.68-8.79 0.391-3.96-0.523-6.24-2.06-9.89-0.461-1.12-0.923-2.24-1.4-3.39-0.405-0.966-0.81-1.93-1.23-2.93-0.33-0.99-0.66-1.98-1-3 3.7-3.92 7.42-7.12 12-10z" fill="#804F52"/>
<path transform="translate(189 408)" d="m0 0c0.697 0.00902 1.39 0.018 2.11 0.0273 1.71 0.0235 3.42 0.0593 5.14 0.0977 0.33 0.99 0.66 1.98 1 3-0.615 0.568-1.23 1.14-1.86 1.72-6.15 5.87-9.72 9.99-10.7 18.6-0.438 3.69-0.438 3.69-2.44 5.69-3.19 0.266-3.19 0.266-7 0.25-1.26 0.00516-2.52 0.0103-3.81 0.0156-3.19-0.266-3.19-0.266-5.19-2.27-0.697-8.3 3.58-16.2 8.56-22.5 4.44-4.55 7.99-4.78 14.2-4.62z" fill="#F6C366"/>
<path transform="translate(716,424)" d="m0 0c3 1 3 1 4.35 3.55 0.42 1.06 0.84 2.11 1.27 3.2 0.425 1.05 0.851 2.09 1.29 3.17 2.22 6.3 3.54 13.4 1.02 19.8-3.58 4.27-7.72 8.19-12.9 10.3h-4c0.576-2.39 1.22-4.67 2-7 0.861-7.39-0.14-12.5-4-18.8-0.996-2.19-0.996-2.19-0.82-4.35 1.36-3.03 4.05-4.13 6.82-5.84 0.887-0.763 1.77-1.53 2.69-2.31 1.14-0.835 1.14-0.835 2.31-1.69z" fill="#FAFDFF"/>
<path transform="translate(1201 165)" d="m0 0c1.32 0.0103 1.32 0.0103 2.67 0.0208 6.6 0.163 11.5 1.35 17.4 4.42 2.08 0.821 4.16 1.63 6.25 2.44 4.72 1.99 8.26 3.79 11.8 7.56 0.645 2.66 0.645 2.66 1 5-1.03-0.543-2.05-1.09-3.11-1.64-10.4-5.43-20.1-9.24-31.9-10.4-0.33 0.99-0.66 1.98-1 3-4.64 4.14-8.32 5.86-14.6 6.2-4.09-0.34-6.22-1.67-9.44-4.2-1.12-1.94-1.12-1.94-1-4 0.875-2.56 0.875-2.56 3-5 6.11-2.94 12.3-3.52 18.9-3.44z" fill="#F6C367"/>
<path transform="translate(696,85)" d="m0 0c1.11 0.866 1.11 0.866 2.25 1.75 3.02 2.05 6.01 3.02 9.5 4.06 6.13 1.93 11.6 4.72 16.2 9.19v3h2c-0.33 0.66-0.66 1.32-1 2-1.05-0.543-2.1-1.09-3.18-1.64-14.6-8.22-14.6-8.22-30.8-9.36-2.75 2.25-2.75 2.25-5 5-3.93 2.34-7.4 3.91-12 4-4.28-1.36-7.31-2.74-9.5-6.75-0.5-2.25-0.5-2.25 0.938-4.56 4.27-4.48 8.84-5.51 14.9-5.9 8.72-0.0875 8.72-0.0875 12.6 1.21 0.99-0.66 1.98-1.32 3-2z" fill="#F6C366"/>
<path transform="translate(49,679)" d="m0 0c3.88 1.88 3.88 1.88 5 3 3.43 0.239 6.86 0.395 10.3 0.518 12.6 0.584 12.6 0.584 16.7 4.29 1.25 2.74 1.6 4.21 1 7.19-2.69 3.12-4.5 3.91-8.56 4.62-6.03-0.255-11.3-3.74-16.4-6.62v-2c-13.4 0.715-23.8 4.51-35 12 0.497-3.4 1.44-5.48 3.97-7.82 7.33-5.38 15.1-8.55 24-10.2-0.33-1.65-0.66-3.3-1-5z" fill="#F6C366"/>
<path transform="translate(788,860)" d="m0 0c0.33 0.99 0.66 1.98 1 3 1.36-0.0174 1.36-0.0174 2.75-0.0352 6.85-0.0507 13.5 0.0991 20.3 1.04 0.0278 1.33 0.0467 2.67 0.0625 4 0.0116 0.742 0.0232 1.49 0.0352 2.25-0.128 3.6-0.651 7.18-1.1 10.8h-27c0.714-15 0.714-15 4-21z" fill="#1E1F22"/>
<path transform="translate(984,714)" d="m0 0c0.99 0.33 1.98 0.66 3 1 5.11 27.4 5.11 27.4 7.04 38.6 0.643 3.69 1.36 7.36 2.15 11 1.51 7.6 0.534 13.2-2.19 20.4-0.99-0.33-1.98-0.66-3-1-2.17-9.76-3.65-19.5-4.87-29.4-0.728-5.81-1.64-11.5-2.82-17.3-3.26-16.6-3.26-16.6 0.688-23.3z" fill="#FAFDFE"/>
<path transform="translate(955,51)" d="m0 0c2.12 2.38 2.12 2.38 4 5 0.557 0.742 1.11 1.48 1.69 2.25 1.8 3.78 2.28 7.57 2.31 11.8-1 1-1 1-3.94 1.1-1.19-0.0116-2.39-0.0232-3.62-0.0352-1.8-0.0135-1.8-0.0135-3.63-0.0273-0.927-0.0116-1.85-0.0232-2.81-0.0352-0.413-1.01-0.825-2.02-1.25-3.06-3.05-7.42-3.05-7.42-8.75-12.8-2.34-0.878-4.55-1.65-7-2.12 0.5-1.88 0.5-1.88 2-4 7.31-2.65 14.5-3.02 21 2z" fill="#F9FBFD"/>
<path transform="translate(1293,13)" d="m0 0c4.98 0.253 7.94 3.08 11.5 6.25 0.833 0.717 0.833 0.717 1.68 1.45 9.08 7.89 9.08 7.89 10.8 11.2 0.00611 3.25-1.42 5.49-2.93 8.33-0.566 1.08-1.13 2.16-1.71 3.27-0.445 0.82-0.889 1.64-1.35 2.48-2.81-0.593-4.55-1.38-6.27-3.72-1.31-2.27-2.54-4.57-3.73-6.9-0.831-1.58-1.66-3.15-2.5-4.73-0.405-0.775-0.81-1.55-1.23-2.35-1.64-2.96-3.51-5.73-5.45-8.49-0.82-1.81-0.82-1.81-0.516-3.98 0.695-1.83 0.695-1.83 1.7-2.83z" fill="#F6C366"/>
<path transform="translate(116,127)" d="m0 0v1c-5.94 0.495-5.94 0.495-12 1 4.45 0.99 4.45 0.99 9 2-0.33 1.65-0.66 3.3-1 5-3.63 0.66-7.26 1.32-11 2v2c-2.35 0.509-4.71 1.01-7.06 1.5-0.657 0.143-1.31 0.286-1.99 0.434-4.38 0.906-8.45 1.21-12.9 1.07v2h-3c0.75-6.62 0.75-6.62 3-10h2v-2c11.2-6.37 22.5-6.37 35-6z" fill="#FAFDFE"/>
<path transform="translate(220,57)" d="m0 0c-1.31 3.57-2.88 6.51-5.06 9.62-1.78 2.55-2.95 4.41-3.94 7.38h-2c-0.206 0.804-0.412 1.61-0.625 2.44-1.78 4.62-4.24 8.72-7.38 12.6h-2c-0.87-2.06-1.72-4.12-2.56-6.19-0.476-1.15-0.951-2.3-1.44-3.48-1.03-3.43-1.13-4.99 0.00391-8.33 2.55-3.82 5.07-5.74 9-8 0.681-0.681 1.36-1.36 2.06-2.06 4.38-4.38 7.99-4.14 13.9-3.94z" fill="#F9FBFC"/>
<path transform="translate(75,91)" d="m0 0 1 2c1.24-0.165 2.47-0.33 3.75-0.5 5.75-0.651 11.5-0.588 17.2-0.5v1c-0.957 0.0735-0.957 0.0735-1.93 0.148-0.826 0.0748-1.65 0.15-2.5 0.227-0.824 0.0696-1.65 0.139-2.5 0.211-0.682 0.137-1.36 0.273-2.07 0.414-0.33 0.66-0.66 1.32-1 2-1.85 0.852-1.85 0.852-4.06 1.62-1.1 0.391-1.1 0.391-2.22 0.789-0.566 0.193-1.13 0.387-1.71 0.586l1 1c0.0406 1.67 0.0427 3.33 0 5 0.248-0.639 0.495-1.28 0.75-1.94 1.25-2.06 1.25-2.06 3.19-2.94 2.06-0.125 2.06-0.125 5.06 1.88-1 2-1 2-3.31 3.12-2.69 0.875-2.69 0.875-6.69 0.875v-2c-3.63 0.33-7.26 0.66-11 1v2c-2.44 0.671-4.87 1.34-7.31 2-0.69 0.191-1.38 0.382-2.09 0.578-2.95 0.799-5.52 1.42-8.6 1.42-0.33-0.99-0.66-1.98-1-3 0.804-0.371 1.61-0.743 2.44-1.12 2.87-1.69 2.87-1.69 3.38-5.06 0.0619-0.928 0.124-1.86 0.188-2.81 0.99-0.33 1.98-0.66 3-1-0.33-0.99-0.66-1.98-1-3 3.73-0.879 7.17-1.09 11-1-1.98 0.99-1.98 0.99-4 2 3.3-0.33 6.6-0.66 10-1 0.33-1.32 0.66-2.64 1-4z" fill="#D6E7FD"/>
<path transform="translate(1156,272)" d="m0 0c5.29 2.42 7.6 5.89 10 11 2.75 7.46 4.83 15 6.52 22.8 2.82 12.9 7.91 19.1 17.5 28.2-5.95 0-11.4-4.16-15.8-8-7.62-8.27-9.07-20.3-11.3-31-1.46-6.64-3.43-12-6.92-17.9-1.04-2.14-1.04-2.14-0.0391-5.14z" fill="#804F52"/>
<path transform="translate(438,21)" d="m0 0c0.33 0.66 0.66 1.32 1 2h3v2c0.579 0.28 1.16 0.559 1.75 0.848 2.25 1.15 2.25 1.15 4.15 2.34 6.4 3.94 12.8 5.36 20.1 6.82 22.6 4.74 22.6 4.74 27 11 0.695 1.99 1.36 3.99 2 6-0.739-0.41-1.48-0.82-2.24-1.24-6.05-3.21-11.4-5.46-18.2-6.34-3-0.493-5.69-1.43-8.57-2.42-2.27-0.609-4.54-1.21-6.81-1.81-10.9-3.14-17.1-7.31-24.2-16.2 0.33-0.99 0.66-1.98 1-3z" fill="#874F4E"/>
<path transform="translate(600 249)" d="m0 0c4.8 0.125 9.49 0.772 14.2 1.52 1.25 0.177 1.25 0.177 2.54 0.357 4.29 0.667 7.49 1.17 10.7 4.33-1.45 5.33-5.08 8.36-9 12-5-1.81-9.59-4.34-14.2-6.88-0.828-0.434-1.66-0.869-2.51-1.32-0.786-0.429-1.57-0.859-2.38-1.3-0.717-0.385-1.43-0.771-2.17-1.17-1.69-1.34-1.69-1.34-2.55-3.37-0.0442-0.65-0.0883-1.3-0.134-1.97 2-2 2-2 5.52-2.21z" fill="#F6C366"/>
<path transform="translate(1069,429)" d="m0 0c10.1-0.388 20.3-0.329 30 3 1.92 2.11 1.92 2.11 3 4-1.62 2.04-3.29 4.04-5 6h-2c-0.66 1.32-1.32 2.64-2 4-5.02-0.571-8.83-2.9-13.1-5.38-0.715-0.4-1.43-0.799-2.17-1.21-6.6-3.75-6.6-3.75-8.71-6.41v-4z" fill="#F6CAAA"/>
<path transform="translate(787,856)" d="m0 0c39.6 0.495 39.6 0.495 80 1v1c-4.95 0.33-9.9 0.66-15 1v2c-9.97 1.03-19.8 1.05-29.8 0.873-1.16-0.011-2.32-0.0219-3.51-0.0332-1.04-0.0168-2.09-0.0337-3.16-0.051-2.69-0.0468-2.69-0.0468-4.52 2.21-2.25 0.135-2.25 0.135-5.01-0.0234-0.986-0.0516-1.97-0.103-2.99-0.156-1.55-0.0967-1.55-0.0967-3.13-0.195-1.56-0.0851-1.56-0.0851-3.15-0.172-2.57-0.142-5.15-0.293-7.72-0.453-1.46-2.65-2-3.89-2-7z" fill="#784D4E"/>
<path transform="translate(894,946)" d="m0 0c2 3 2 3 2 7h2c0.961 2.88 1.11 4.7 1.06 7.69-0.00902 0.808-0.018 1.62-0.0273 2.45-0.0116 0.615-0.0232 1.23-0.0352 1.86-0.66 0.33-1.32 0.66-2 1-0.656 2.53-0.656 2.53-1 5h-8v-3c-1.65-0.33-3.3-0.66-5-1v-2c-1.65-0.33-3.3-0.66-5-1-0.676-1.77-0.676-1.77-1-4 1.14-1.92 1.14-1.92 2.81-3.75 0.543-0.614 1.09-1.23 1.64-1.86 1.54-1.39 1.54-1.39 3.54-1.39v-2c3.13-1.86 5.37-2.2 9-2v-3z" fill="#7F4F51"/>
<path transform="translate(94,145)" d="m0 0h26c-0.33 0.66-0.66 1.32-1 2h-2c-0.433 0.928-0.433 0.928-0.875 1.88-1.12 2.12-1.12 2.12-3.12 4.12 0.99 1.49 0.99 1.49 2 3l-2 2h3c0 3 0 3-1.91 4.94-5.22 4.15-9.69 7.16-16.1 9.06-1.12-4.75-1.12-4.75 0-7-0.99-0.33-1.98-0.66-3-1 1.36-0.779 1.36-0.779 2.74-1.57 1.19-0.704 2.38-1.41 3.57-2.11 0.892-0.51 0.892-0.51 1.8-1.03 3.8-2.27 5.95-4.3 7.88-8.28h-3v-2c-1.73 0.142-3.46 0.289-5.19 0.438-0.963 0.0812-1.93 0.162-2.92 0.246-2.68 0.293-5.26 0.743-7.89 1.32 0.66-1.98 1.32-3.96 2-6z" fill="#FAFCFE"/>
<path transform="translate(763,1077)" d="m0 0c3.06 1 3.06 1 5 2 0.68 3.03 1.12 5.89 1 9-2.66 4.15-5.97 7.17-10 10h-2c-0.66-0.99-1.32-1.98-2-3-2.05-1.19-2.05-1.19-4-2-0.0808-2.29-0.139-4.58-0.188-6.88-0.0348-1.28-0.0696-2.55-0.105-3.87 0.0967-1.08 0.193-2.15 0.293-3.26 4.05-2.7 7.25-2.43 12-2z" fill="#804F52"/>
<path transform="translate(321,126)" d="m0 0c1.19 2.06 1.19 2.06 2 4-2.12 2.12-3.08 2.43-5.88 3.25-4.36 1.53-5.73 3.81-8.12 7.75-3.12 1.26-5.41 0.91-8.62 0.125-0.776-0.183-1.55-0.366-2.35-0.555-2.02-0.57-2.02-0.57-4.02-1.57 1.35-4.13 3.04-6.35 6.31-9.19 0.759-0.674 1.52-1.35 2.3-2.04 6.21-4.61 11.2-4.16 18.4-1.77z" fill="#F6C366"/>
<path transform="translate(846,714)" d="m0 0c1.02 8.58 1.41 17.2 1.69 25.8 0.0244 0.723 0.0488 1.45 0.0739 2.19 0.387 12.1-0.103 24-1.76 36h2c0.124-1.3 0.247-2.6 0.375-3.94 0.211-2.21 0.211-2.21 0.625-4.06 0.99-0.495 0.99-0.495 2-1v9h2v-2h2c0.33 4.29 0.66 8.58 1 13-0.66-0.33-1.32-0.66-2-1-0.495 0.99-0.495 0.99-1 2h-3c-0.33-0.66-0.66-1.32-1-2-0.495 0.99-0.495 0.99-1 2h-4c-0.107-11.3 0.0227-22.6 0.562-33.9 0.363-7.8 0.448-15.3-0.309-23.1-0.335-3.89-0.286-7.74-0.191-11.6-0.0612-2.26-0.426-4.15-1.06-6.3 2-1 2-1 3-1z" fill="#FEFEFE"/>
<path transform="translate(40.5 201)" d="m0 0c3.91 2.62 5.11 5.32 6.5 9.75-2.92-1.03-5.2-2.14-7.75-3.94-7.62-4.84-15.3-6.11-24.2-5.06-4.11 1.07-8.04 2.46-12 4-0.99 0.33-1.98 0.66-3 1v-7c14.3-4.27 26.7-6.39 40.5 1.25z" fill="#F6C366"/>
<path transform="translate(834 253)" d="m0 0c1.38 0.529 2.75 1.07 4.12 1.61 1.05 0.386 1.05 0.386 2.12 0.779 5.09 2.01 5.09 2.01 6.29 4.74 0.0116 0.592 0.0232 1.18 0.0352 1.79-0.99 0.495-0.99 0.495-2 1-0.461 2.06-0.461 2.06-0.75 4.44-0.488 2.45-0.488 2.45-1.25 4.56-2.94 1.69-2.94 1.69-6 2-0.99-0.66-1.98-1.32-3-2h6v-4c-3.07 0.776-3.07 0.776-5 3v-3c-2.31 0.33-4.62 0.66-7 1 2.65-1.46 3.89-2 7-2v-3h-2v2c-1.32-0.33-2.64-0.66-4-1v-4h-2c0.523-2.76 1.11-5.33 2-8 2-1 2-1 5.44 0.0742z" fill="#7C4F51"/>
<path transform="translate(844,1132)" d="m0 0c1.8 3.1 2.26 5.36 2.27 8.94 0.00395 0.968 0.0079 1.94 0.012 2.93-0.0091 1.03-0.0182 2.07-0.0276 3.13-0.00689 1.6-0.00689 1.6-0.0139 3.22-0.113 10-0.989 19.9-2.24 29.8-0.0956 0.771-0.191 1.54-0.29 2.34-0.235 1.89-0.472 3.78-0.71 5.66h-1c-0.0251-0.686-0.0501-1.37-0.0759-2.08-0.116-3.1-0.239-6.2-0.362-9.3-0.0393-1.08-0.0786-2.16-0.119-3.27-0.0419-1.03-0.0838-2.06-0.127-3.12-0.0367-0.953-0.0733-1.91-0.111-2.89-0.063-2.36-0.063-2.36-1.21-4.34-0.801-9.9-0.124-21.9 4-31z" fill="#FAFDFE"/>
<path transform="translate(102,126)" d="m0 0h19c-0.33 0.99-0.66 1.98-1 3 0.66 0.33 1.32 0.66 2 1-16 12.8-16 12.8-24 12 0.33 0.66 0.66 1.32 1 2-5.77 1.81-10.2 2.73-16 1-0.33 0.66-0.66 1.32-1 2-0.99-0.33-1.98-0.66-3-1v-3c2.54-0.507 5.08-1.01 7.62-1.5 0.713-0.143 1.43-0.286 2.16-0.434 4.14-0.797 7.98-1.23 12.2-1.07v-2c1.05-0.255 1.05-0.255 2.12-0.516 1.37-0.364 1.37-0.364 2.76-0.734 0.905-0.232 1.81-0.464 2.74-0.703 2.53-0.846 2.53-0.846 3.7-3.16 0.224-0.624 0.449-1.25 0.68-1.89-0.626-0.0258-1.25-0.0516-1.9-0.0781-1.23-0.0851-1.23-0.0851-2.48-0.172-0.812-0.0464-1.62-0.0928-2.46-0.141-0.714-0.201-1.43-0.402-2.16-0.609-0.66-1.32-1.32-2.64-2-4z" fill="#F5CBB2"/>
<path transform="translate(1372,328)" d="m0 0h10c-0.33 6.93-0.66 13.9-1 21-0.66 0.33-1.32 0.66-2 1v-7h-2c-0.33 3.63-0.66 7.26-1 11h-2v-6h-2v-20z" fill="#FCFDFF"/>
<path transform="translate(495,64)" d="m0 0c0 2.19 0 2.19-1 5-5.65 5.07-12.6 6.82-20.1 7.12-0.639-0.0413-1.28-0.0825-1.94-0.125 0.33 1.32 0.66 2.64 1 4-2.97-0.495-2.97-0.495-6-1-0.188-3.38-0.188-3.38 0-7 4.2-2.8 8.68-3.05 13.6-3.77 4.89-0.777 9.83-4.23 14.4-4.23z" fill="#815052"/>
<path transform="translate(823,647)" d="m0 0h2c0.66 1.65 1.32 3.3 2 5 0.33-0.99 0.66-1.98 1-3 0.33 0.66 0.66 1.32 1 2h2c-0.66 1.32-1.32 2.64-2 4h4v8h-2c-0.33 1.65-0.66 3.3-1 5-0.66-1.32-1.32-2.64-2-4-0.433 1.24-0.866 2.48-1.31 3.75-1.18 3.17-2.44 5.68-4.69 8.25-1.12-7.75-1.12-7.75 0-10v-3.5c0-3.5 0-3.5 1-5.5 0.07-1.71 0.0844-3.42 0.0625-5.12-0.00902-0.91-0.018-1.82-0.0273-2.76-0.0116-0.699-0.0232-1.4-0.0352-2.12z" fill="#844F4F"/>
<path transform="translate(111,85)" d="m0 0c0.99 0.66 1.98 1.32 3 2v2c1.05 0.206 2.1 0.412 3.19 0.625 4.46 1.23 6.17 3.69 8.81 7.38-0.33 0.66-0.66 1.32-1 2-0.703-0.461-1.41-0.923-2.13-1.4-2.96-1.65-5.51-2.46-8.81-3.23-1.5-0.36-1.5-0.36-3.03-0.727-3-0.641-6-1.17-9.04-1.65v4c-3.3 2.57-4.73 3-9 3 0.33-0.99 0.66-1.98 1-3 1.98-0.33 3.96-0.66 6-1v-2c-4.95-0.33-9.9-0.66-15-1v-1c2.64-0.33 5.28-0.66 8-1-1.32-0.66-2.64-1.32-4-2h12v3c1.98-0.33 3.96-0.66 6-1l-2-2c0.804-0.124 1.61-0.248 2.44-0.375 0.846-0.206 1.69-0.412 2.56-0.625l1-2z" fill="#F7CBB0"/>
<path transform="translate(824,857)" d="m0 0h43v1c-4.95 0.33-9.9 0.66-15 1v2c-8.61 0.87-17.1 1.13-25.8 1.06-1.19-0.00451-2.37-0.00902-3.59-0.0137-2.89-0.0116-5.77-0.028-8.66-0.0488v-2c0.638-0.049 1.28-0.098 1.93-0.148 0.826-0.0748 1.65-0.15 2.5-0.227 0.824-0.0696 1.65-0.139 2.5-0.211 0.682-0.137 1.36-0.273 2.07-0.414 0.33-0.66 0.66-1.32 1-2z" fill="#7C4F50"/>
<path transform="translate(438,21)" d="m0 0c0.33 0.66 0.66 1.32 1 2h3v2c0.571 0.278 1.14 0.557 1.73 0.844 2.25 1.14 4.4 2.39 6.58 3.66 2.88 1.63 5.47 2.84 8.69 3.62 0.99 0.289 1.98 0.578 3 0.875 0.33 0.99 0.66 1.98 1 3 0.99 0.66 1.98 1.32 3 2-8.39 0.982-14.2-1.01-21-6-2.91-2.83-5.51-5.8-8-9 0.33-0.99 0.66-1.98 1-3z" fill="#814F51"/>
<path transform="translate(102,707)" d="m0 0c-3.06 5.22-7.98 6.3-13.4 8.19-5.21 1.19-10.4 1.53-15.6-0.188v-2c0.926-0.273 0.926-0.273 1.87-0.551 5.08-1.51 10.1-3.08 15.1-4.8 4.48-1.45 7.31-1.61 12-0.648z" fill="#F9FCFE"/>
<path transform="translate(834,792)" d="m0 0c0.233 6.28-0.595 11.9-2 18-1.32-0.33-2.64-0.66-4-1-1.86-6.11-3.43-11.6-3-18 3.2-1.6 5.72-0.0317 9 1z" fill="#804F52"/>
<path transform="translate(94,145)" d="m0 0h26c-0.33 0.66-0.66 1.32-1 2h-2c-0.248 0.577-0.495 1.16-0.75 1.75-1.42 2.55-3.13 4.27-5.25 6.25-0.66-0.33-1.32-0.66-2-1 0.66-0.99 1.32-1.98 2-3h-3v-2c-1.73 0.142-3.46 0.289-5.19 0.438-0.963 0.0812-1.93 0.162-2.92 0.246-2.68 0.293-5.26 0.743-7.89 1.32 0.66-1.98 1.32-3.96 2-6z" fill="#F7CBB0"/>
<path transform="translate(828,858)" d="m0 0h42c-0.33 1.65-0.66 3.3-1 5-9.73 0.104-19.3 0.0452-29-1v-1h12v-2h-24v-1z" fill="#463335"/>
<path transform="translate(743,1088)" d="m0 0c0.66 0.33 1.32 0.66 2 1 0.414 3.16 0.414 3.16 0.625 7.06 0.0748 1.29 0.15 2.58 0.227 3.91 0.049 0.999 0.098 2 0.148 3.03v-12h2c0.33-0.99 0.66-1.98 1-3 2.12 2.12 1.42 6.62 1.56 9.56 0.0432 0.806 0.0864 1.61 0.131 2.44 0.106 2 0.207 4 0.307 5.99h-3v2h-2v-2h-3v2h-2c0.142-2.21 0.289-4.42 0.438-6.62 0.0812-1.23 0.162-2.46 0.246-3.73 0.283-3.26 0.727-6.43 1.32-9.65z" fill="#7F4F51"/>
<path transform="translate(155,290)" d="m0 0c1.2 5.27 1.2 5.27 0.426 8.11-2.17 2.87-4.38 2.82-7.86 3.32-1.73 0.277-1.73 0.277-3.5 0.559-3.07 0.00391-3.07 0.00391-4.98-1.46-0.539-0.76-0.539-0.76-1.09-1.54 3.05-2.41 6.21-4.33 9.62-6.19 0.962-0.53 1.92-1.06 2.91-1.61 2.46-1.21 2.46-1.21 4.46-1.21z" fill="#8E4F4B"/>
<path transform="translate(77,104)" d="m0 0c0.495 1.98 0.495 1.98 1 4-4.75 1.12-4.75 1.12-7 0v2c-6.75 2.12-6.75 2.12-9 1-0.33 0.66-0.66 1.32-1 2-3.99 0.997-7.03 1.05-11 0-0.33 0.99-0.66 1.98-1 3-3-2-3-2-4-4 3.27-0.839 6.54-1.67 9.81-2.5 0.929-0.238 1.86-0.477 2.81-0.723l2.71-0.684c0.822-0.209 1.64-0.419 2.49-0.635 2.18-0.459 2.18-0.459 5.18-0.459v-2c3.15-0.701 5.73-1 9-1z" fill="#D7C2BF"/>
<path transform="translate(90.8 92.8)" d="m0 0c1.09 0.0232 2.18 0.0464 3.3 0.0703 1.1 0.018 2.19 0.0361 3.32 0.0547 0.843 0.0232 1.69 0.0464 2.55 0.0703v2c-1.64 0.557-1.64 0.557-3.31 1.12-3.23 1.35-3.67 1.85-5.62 5.06-0.351 0.928-0.701 1.86-1.06 2.81-3.88-1.88-3.88-1.88-5-3-0.99 0.33-1.98 0.66-3 1v3h-2v-5c-1.32-0.33-2.64-0.66-4-1 0.699-0.266 1.4-0.531 2.12-0.805 0.91-0.353 1.82-0.706 2.76-1.07 0.905-0.348 1.81-0.696 2.74-1.05 3.08-1.38 3.73-3.03 7.2-3.27z" fill="#FAF6F4"/>
<path transform="translate(835,166)" d="m0 0c2.21 1.75 2.94 2.61 3.38 5.44-0.443 3.02-1.52 4.19-3.38 6.56-0.714 2.65-0.714 2.65-1 5-1.98-0.66-3.96-1.32-6-2-0.875-2.5-0.875-2.5-1-6 1.98-3.54 4.31-7.15 8-9z" fill="#804F52"/>
<path transform="translate(87,44)" d="m0 0c9.1 1.55 16.7 6.3 23 13-0.33 0.99-0.66 1.98-1 3-5.43-2.92-10.8-5.98-16.1-9.12-1.13-0.663-2.25-1.33-3.41-2.01-0.834-0.616-1.67-1.23-2.53-1.87v-3z" fill="#F7CCB1"/>
<path transform="translate(817,883)" d="m0 0h27c0.33 0.99 0.66 1.98 1 3-7.92 0.495-7.92 0.495-16 1v1c-4.47 0.213-7.82-0.409-12-2v-3z" fill="#7F4F51"/>
<path transform="translate(167,690)" d="m0 0h5c2.26 5.36 3.36 9.2 3 15-3.03-0.605-4.65-1.53-6.52-4-2.7-4.52-2.7-4.52-3.48-7 0.871-2.29 0.871-2.29 2-4z" fill="#F7CBB0"/>
<path transform="translate(899,402)" d="m0 0c2 1 2 1 4 3-0.338 0.652-0.675 1.3-1.02 1.98-2.35 4.6-4.53 9.04-5.98 14-1.32-0.33-2.64-0.66-4-1-0.33-2.31-0.66-4.62-1-7 0.99 1.49 0.99 1.49 2 3v-4h3c-0.33-0.33-0.66-0.66-1-1-0.66-0.66-1.32-1.32-2-2 0.375-2.62 0.375-2.62 1-5 0.99 1.49 0.99 1.49 2 3v-3h3v-2z" fill="#7F4F51"/>
<path transform="translate(808 1027)" d="m0 0c2.25 0.27 4.45 0.622 6.66 1.11 0.222 2.74 0.348 4.44-1.12 6.81-2.69 1.7-4.76 1.45-7.88 1.19-0.66-0.33-1.32-0.66-2-1v-2c-0.99-0.33-1.98-0.66-3-1 3.74-4.94 3.74-4.94 7.34-5.11z" fill="#804F52"/>
<path transform="translate(822,1032)" d="m0 0h6c0.33 1.32 0.66 2.64 1 4h2c-0.33 1.98-0.66 3.96-1 6-5.62 0.25-5.62 0.25-9-2-0.257-3.08-0.394-5.21 1-8z" fill="#804F52"/>
<path transform="translate(56.1 95.2)" d="m0 0c0.639 0.248 1.28 0.495 1.94 0.75 0.33 0.99 0.66 1.98 1 3-0.99 0.495-0.99 0.495-2 1-0.99-0.33-1.98-0.66-3-1v2c-2.1 0.866-4.2 1.72-6.31 2.56-1.76 0.713-1.76 0.713-3.55 1.44-3.14 0.996-3.14 0.996-6.14-0.00391 4.06-4.71 8.28-6.71 14-9 2-1 2-1 4.06-0.75z" fill="#F4CBB2"/>
<path transform="translate(103,137)" d="m0 0c0.99 0.33 1.98 0.66 3 1v2c-2.91 1.26-4.8 2-8 2 0.33 0.66 0.66 1.32 1 2-5.77 1.81-10.2 2.73-16 1-0.33 0.66-0.66 1.32-1 2-0.99-0.33-1.98-0.66-3-1v-3c2.54-0.507 5.08-1.01 7.62-1.5 0.713-0.143 1.43-0.286 2.16-0.434 4.14-0.797 7.98-1.23 12.2-1.07v-2c0.66-0.33 1.32-0.66 2-1z" fill="#EAC7B7"/>
<path transform="translate(40,699)" d="m0 0c2-0.0425 4-0.0408 6 0 1 1 1 1 1.06 3.94-0.0206 1.01-0.0412 2.02-0.0625 3.06v2 3h-6c-0.982-4.05-1.08-7.84-1-12z" fill="#FCFDFF"/>
<path transform="translate(468 35.4)" d="m0 0c1.1 0.102 2.19 0.204 3.32 0.309 0.843 0.0838 1.69 0.168 2.55 0.254 0.33 0.99 0.66 1.98 1 3h-2v2c1.32 0.33 2.64 0.66 4 1-3.77 1.38-6.45 0.596-10.2-0.438-1.08-0.287-2.16-0.575-3.27-0.871-1.23-0.342-1.23-0.342-2.48-0.691 0.66-0.66 1.32-1.32 2-2-0.99-0.66-1.98-1.32-3-2 2.84-1.42 4.99-0.863 8.12-0.562z" fill="#F2501B"/>
<path transform="translate(116,127)" d="m0 0v1c-5.94 0.495-5.94 0.495-12 1 1.32 0.66 2.64 1.32 4 2-1.09 0.0909-1.09 0.0909-2.2 0.184-4.98 0.431-9.89 0.887-14.8 1.82v-2c-0.66-0.33-1.32-0.66-2-1 8.82-3.92 17.5-3.28 27-3z" fill="#4E94F2"/>
<path transform="translate(109,139)" d="m0 0 1 2h3v2h-2v2c-11.5 1.33-11.5 1.33-17 0 1.32-0.66 2.64-1.32 4-2-0.66-0.66-1.32-1.32-2-2 0.603 0.0232 1.21 0.0464 1.83 0.0703 0.799 0.018 1.6 0.0361 2.42 0.0547 1.18 0.0348 1.18 0.0348 2.39 0.0703 2.57-0.212 4.15-0.909 6.36-2.2z" fill="#D2E5FD"/>
<path transform="translate(62,688)" d="m0 0c10.6-0.369 10.6-0.369 15 2-0.33 1.32-0.66 2.64-1 4-3.63-0.33-7.26-0.66-11-1-0.33-0.99-0.66-1.98-1-3-0.66-0.66-1.32-1.32-2-2z" fill="#F6CAAE"/>
<path transform="translate(833,288)" d="m0 0c8.67-0.441 8.67-0.441 13 3 0.99 1.49 0.99 1.49 2 3 2.56 0.73 2.56 0.73 5 1v2c1.65 0.66 3.3 1.32 5 2-3 1-3 1-6.58-0.547-1.42-0.724-2.83-1.46-4.23-2.2-1.05-0.541-1.05-0.541-2.12-1.09-1.38-0.71-2.75-1.42-4.12-2.14-2.63-1.37-5.29-2.69-7.95-4.01v-1z" fill="#7C4F51"/>
<path transform="translate(796,1061)" d="m0 0v5h6v-5h2v7c-4.18 1.59-7.53 2.21-12 2-0.368-5.52-0.368-5.52 1.44-7.88 1.56-1.12 1.56-1.12 2.56-1.12z" fill="#804F52"/>
<path transform="translate(1075,429)" d="m0 0c8.29-0.436 16 1.22 24 3-0.33 0.99-0.66 1.98-1 3-0.834-0.133-1.67-0.266-2.53-0.402-6.48-1.02-12.9-1.93-19.5-2.6-0.33-0.99-0.66-1.98-1-3z" fill="#F6C36D"/>
<path transform="translate(859,274)" d="m0 0c2.48 0.495 2.48 0.495 5 1v3h5c1.26 2.91 2 4.8 2 8h-2v-3h-5v-3c-1.65-0.33-3.3-0.66-5-1v-5z" fill="#7C5051"/>
<path transform="translate(849,273)" d="m0 0c0.33 0.66 0.66 1.32 1 2 2.02 0.652 2.02 0.652 4 1-0.639 0.309-1.28 0.619-1.94 0.938-2 0.897-2 0.897-3.06 2.06-2.19 0.0726-4.38 0.0837-6.56 0.0625-1.8-0.0135-1.8-0.0135-3.63-0.0273-0.927-0.0116-1.85-0.0232-2.81-0.0352 0.33-0.99 0.66-1.98 1-3 1.74-0.766 1.74-0.766 3.88-1.25 1.05-0.255 1.05-0.255 2.12-0.516 2.01-0.234 2.01-0.234 5.01 0.766 0.33-0.66 0.66-1.32 1-2z" fill="#7C5051"/>
<path transform="translate(488 82.1)" d="m0 0c3.54 1.26 5.31 3.01 7.62 5.94-0.33 1.32-0.66 2.64-1 4-2.64-1.32-5.28-2.64-8-4v-2c-1.32-0.66-2.64-1.32-4-2 3-2 3-2 5.38-1.94z" fill="#804F52"/>
<path transform="translate(488,77)" d="m0 0c-0.33 0.66-0.66 1.32-1 2-5.2 1.19-10.2 1.71-15-1v-2c6.78-1.89 9.43-1.66 16 1z" fill="#F9F4F0"/>
<path transform="translate(1129,283)" d="m0 0c0.66 0.33 1.32 0.66 2 1 0.449 2.14 0.449 2.14 0.688 4.81 0.0864 0.873 0.173 1.75 0.262 2.64 0.0482 2.41-0.238 4.25-0.949 6.54-1.95-0.68-1.95-0.68-4-2-0.609-2.38-0.609-2.38-0.75-5.12-0.0567-0.91-0.113-1.82-0.172-2.76-0.0258-0.699-0.0516-1.4-0.0781-2.12 0.99 1.49 0.99 1.49 2 3 0.33-1.98 0.66-3.96 1-6z" fill="#F9F3EF"/>
<path transform="translate(740,1332)" d="m0 0c0.99 0.33 1.98 0.66 3 1v15h-3c-0.846-5.08-1.18-9.85-1-15 0.33-0.33 0.66-0.66 1-1z" fill="#7F4F51"/>
<path transform="translate(87,720)" d="m0 0v3c0.99 0.33 1.98 0.66 3 1-3.4 2.09-6.04 2.58-10 2-2.38-2.5-2.38-2.5-4-5 3.72-0.693 7.21-1.11 11-1z" fill="#FCFEFE"/>
<path transform="translate(866 881)" d="m0 0c0.672-0.0122 1.34-0.0245 2.04-0.0371 3.7-0.011 5.24 0.118 8.4 2.22-5.04 0.832-9.81 1.11-14.9 1.06-0.684-0.00451-1.37-0.00902-2.07-0.0137-1.66-0.0116-3.33-0.0296-4.99-0.0488v-2c3.83-1.23 7.56-1.17 11.6-1.19z" fill="#7F4F51"/>
<path transform="translate(650,690)" d="m0 0v2h-2c-0.268 0.598-0.536 1.2-0.812 1.81-1.2 2.21-2.23 3.62-4.19 5.19h-3v-2c-0.99-0.33-1.98-0.66-3-1 1.08-0.82 2.16-1.63 3.25-2.44 0.603-0.452 1.21-0.905 1.83-1.37 2.61-1.62 4.87-2.19 7.92-2.19z" fill="#F6F9FD"/>
<path transform="translate(60,108)" d="m0 0c0.66 0.99 1.32 1.98 2 3-0.33 0.66-0.66 1.32-1 2-3.99 0.997-7.03 1.05-11 0-0.33 0.99-0.66 1.98-1 3-3-2-3-2-4-4 4.95-1.32 9.9-2.64 15-4z" fill="#F7CFB6"/>
<path transform="translate(655,687)" d="m0 0c0.33 0.66 0.66 1.32 1 2-1.19 2.56-1.19 2.56-3 5-1.33 0.362-2.66 0.697-4 1-1.28 1.98-1.28 1.98-2 4h-2c0.613-2.96 1.25-4.38 3-7h2v-2c2.5-1.62 2.5-1.62 5-3z" fill="#3C84F8"/>
<path transform="translate(889,267)" d="m0 0c1.6-0.0271 3.21-0.0464 4.81-0.0625 0.893-0.0116 1.79-0.0232 2.71-0.0352 2.48 0.0977 2.48 0.0977 5.48 1.1v2c-1.58 0.196-3.17 0.382-4.75 0.562-0.882 0.104-1.76 0.209-2.67 0.316-2.46 0.116-4.24-0.143-6.58-0.879 0.33-0.99 0.66-1.98 1-3z" fill="#7F4F51"/>
<path transform="translate(991,744)" d="m0 0 2 1c0.905 3.22 1.27 6.57 1.75 9.88 0.151 0.924 0.302 1.85 0.457 2.8 0.133 0.888 0.266 1.78 0.402 2.69 0.123 0.816 0.247 1.63 0.374 2.47 0.0166 2.16 0.0166 2.16-1.98 5.16-0.509-2.5-1.01-5-1.5-7.5-0.143-0.696-0.286-1.39-0.434-2.11-0.949-4.88-1.2-9.42-1.07-14.4z" fill="#FEFEFE"/>
<path transform="translate(682,92)" d="m0 0c-0.188 1.88-0.188 1.88-1 4-2.89 1.52-4.72 2-8 2v-2h-2v-3c3.73-0.879 7.17-1.09 11-1z" fill="#F9F8F7"/>
<path transform="translate(742,1373)" d="m0 0h3v16l-2-4c-0.66-0.99-1.32-1.98-2-3 0.0234-2.26 0.0234-2.26 0.375-4.69 0.111-0.808 0.222-1.62 0.336-2.45 0.0954-0.615 0.191-1.23 0.289-1.86z" fill="#7F4F51"/>
<path transform="translate(26,698)" d="m0 0c1.55 3.09 0.593 5.68 0 9-0.33 0.66-0.66 1.32-1 2-2.48-0.99-2.48-0.99-5-2 0.33-2.31 0.66-4.62 1-7h3c0.66-0.66 1.32-1.32 2-2z" fill="#FAF8F6"/>
<path transform="translate(98,89)" d="m0 0v1c-10.4 1.48-10.4 1.48-21 3 0.33-0.99 0.66-1.98 1-3 6.98-1.8 12.9-2.12 20-1z" fill="#3189FB"/>
<path transform="translate(54,99)" d="m0 0c0.66 0.33 1.32 0.66 2 1-0.33 1.65-0.66 3.3-1 5h-7c-0.33-0.66-0.66-1.32-1-2 2.65-1.46 3.89-2 7-2v-2zm-11 5h4c-0.33 0.99-0.66 1.98-1 3-0.99-0.99-1.98-1.98-3-3zm-2 1h2v2h-2v-2z" fill="#FBFDFE"/>
<path transform="translate(1331,536)" d="m0 0c0.33 1.32 0.66 2.64 1 4-3.23 2.15-4.28 2.2-8 2v-3c4.22-3 4.22-3 7-3z" fill="#804F52"/>
<path transform="translate(113,160)" d="m0 0c0 3 0 3-1.57 4.79-0.697 0.606-1.39 1.21-2.11 1.84-0.684 0.611-1.37 1.22-2.07 1.85-2.45 1.67-4.32 2.15-7.24 2.52 0.125-1.88 0.125-1.88 1-4 2.94-1.12 2.94-1.12 6-2l2-2c1.32-1.01 2.66-2.01 4-3z" fill="#F7CBB0"/>
<path transform="translate(89.2 130)" d="m0 0c0.583 0.223 1.17 0.446 1.77 0.676v3c-3.63 1.32-7.26 2.64-11 4 0-2 0-2 1.39-3.54 0.92-0.814 0.92-0.814 1.86-1.64 0.603-0.55 1.21-1.1 1.83-1.67 1.92-1.14 1.92-1.14 4.16-0.82z" fill="#F1CDB9"/>
<path transform="translate(839,1163)" d="m0 0h2c1.2 2.41 1.1 3.95 1.06 6.62-0.00902 0.817-0.018 1.63-0.0273 2.48-0.0116 0.626-0.0232 1.25-0.0352 1.9-0.99 0.33-1.98 0.66-3 1v-12z" fill="#FEFEFE"/>
<path transform="translate(726,991)" d="m0 0h1c1.32 4.96 1.09 9.91 1 15-0.99 0.495-0.99 0.495-2 1-1.25-10-1.25-10-1-15l1-1z" fill="#804F52"/>
<path transform="translate(1196,171)" d="m0 0c-0.66 1.32-1.32 2.64-2 4-2.31-0.33-4.62-0.66-7-1v-3c3.33-1.11 5.62-0.845 9 0z" fill="#F9F1ED"/>
<path transform="translate(850,616)" d="m0 0h1c0.33 2.31 0.66 4.62 1 7h1c0.125 3.38 0.125 3.38 0 7l-2 2c-2.13-2.13-1.84-6.09-2-9 0.184-2.39 0.557-4.64 1-7z" fill="#FEFEFE"/>
<path transform="translate(87.2 101)" d="m0 0c0.578 0.371 1.16 0.743 1.75 1.12-1 2-1 2-3.31 3.12-2.69 0.875-2.69 0.875-6.69 0.875v-2c-0.66-0.33-1.32-0.66-2-1h3c0.33-0.33 0.66-0.66 1-1 3.41-2.23 3.41-2.23 6.25-1.12z" fill="#3E8DF6"/>
<path transform="translate(110,59)" d="m0 0c1.75 0.125 1.75 0.125 4 1 2.25 3.06 2.25 3.06 4 6-0.99 0.495-0.99 0.495-2 1-4.69-3.61-4.69-3.61-6-5v-3z" fill="#F9F7F6"/>
<path transform="translate(844,1132)" d="m0 0c2.03 3.31 2.13 5.43 1.62 9.25-0.111 0.892-0.222 1.78-0.336 2.7-0.0954 0.675-0.191 1.35-0.289 2.05h-1c-2.28-8.04-2.28-8.04-1.12-12.1 0.371-0.639 0.742-1.28 1.12-1.94z" fill="#F7CCB3"/>
<path transform="translate(76,721)" d="m0 0c6.52-0.369 6.52-0.369 8.94 1.5 0.351 0.495 0.701 0.99 1.06 1.5-1.98 0.66-3.96 1.32-6 2-1.32-1.65-2.64-3.3-4-5z" fill="#FAFDFE"/>
<path transform="translate(823,647)" d="m0 0h2c1.2 2.41 1.1 3.95 1.06 6.62-0.00902 0.817-0.018 1.63-0.0273 2.48-0.0116 0.626-0.0232 1.25-0.0352 1.9h-3v-11z" fill="#AE4F3B"/>
</svg>
