<?xml version="1.0" encoding="UTF-8"?>
<svg version="1.1" viewBox="0 0 792 1600" width="1280" height="1280" xmlns="http://www.w3.org/2000/svg">
<path transform="translate(0)" d="m0 0h792v1600h-792v-1600z" fill="#FBFEFE"/>
<path transform="translate(528,741)" d="m0 0c2.38 3.57 2.67 6.64 3.15 10.8 0.0973 0.797 0.195 1.59 0.295 2.42 0.32 2.66 0.627 5.32 0.932 7.98 0.108 0.92 0.215 1.84 0.326 2.79 2.68 23 4.57 46 6.3 69 0.0854 1.13 0.0854 1.13 0.173 2.29 2.09 27.8 3.34 55.7 4.59 83.5 0.0496 1.11 0.0496 1.11 0.1 2.24 0.335 7.5 0.667 15 0.994 22.5 0.124 2.85 0.25 5.7 0.375 8.54 0.0854 1.95 0.169 3.9 0.253 5.85 0.286 6.48 0.627 12.9 1.04 19.4 0.352 5.45 0.629 10.9 0.756 16.4 0.0184 0.729 0.0368 1.46 0.0558 2.21 0.0571 2.27 0.111 4.54 0.163 6.81 0.195 8.37 0.396 16.7 0.874 25.1 0.645 11.5 0.769 22.9 0.756 34.4 0.00136 2.04 0.00314 4.07 0.00531 6.11 0.00451 5.46 0.00281 10.9-3.79e-4 16.4-0.00255 5.74-1.78e-4 11.5 0.00139 17.2 0.00181 9.61-5.58e-4 19.2-0.00534 28.8-0.00547 11.1-0.00366 22.2 0.00183 33.3 0.00453 9.56 0.00518 19.1 0.00256 28.7-0.00156 5.7-0.00177 11.4 0.00154 17.1 0.00288 5.35 8.96e-4 10.7-0.00489 16-0.00132 1.96-9.39e-4 3.92 0.00126 5.89 0.00272 2.67-6.84e-4 5.35-0.00568 8.02 0.00223 0.78 0.00446 1.56 0.00676 2.36-0.0125 3.44-0.137 6.54-1.13 9.84-0.0644 1.84-0.0728 3.69-0.0449 5.54 0.0111 1.13 0.0222 2.26 0.0336 3.43 0.0211 1.86 0.0211 1.86 0.0426 3.77 0.0677 12.2-0.201 24.4-0.688 36.7-0.0331 0.838-0.0663 1.68-0.1 2.54-0.172 4.33-0.348 8.66-0.526 13-1.51 36.4-1.51 36.4-1.97 72.8 0.00105 0.832 0.00209 1.66 0.00317 2.52 0.0192 7.02 0.211 13.8 1.25 20.8 0.1 1.6 0.174 3.21 0.211 4.81 0.0284 0.848 0.0567 1.7 0.0859 2.57 0.0521 1.74 0.0964 3.49 0.133 5.23 0.202 5.55 1.06 9.43 3.57 14.4 3.57 7.14 6.12 14.3 8.31 21.9 0.4 1.39 0.4 1.39 0.808 2.8 1.11 3.97 1.88 7.1 1.88 11.3-0.546 0.18-1.09 0.359-1.65 0.544-12.4 4.14-24 9-35.5 15.3-14.9 8.16-29.4 9.2-46.2 9.25-0.823 0.00459-1.65 0.00918-2.49 0.0139-4.05-0.0102-8.08-0.135-12.1-0.459-1.07-0.0853-1.07-0.0853-2.16-0.172-2.43-0.642-3.39-1.53-4.92-3.51-0.405-2.51-0.607-4.78-0.688-7.31-0.0385-0.797-0.077-1.59-0.117-2.42-0.191-4.7-0.184-9.36-0.00439-14.1 0.807-25.6-3.04-50.8-6.3-76.2-0.874-6.83-1.7-13.7-2.51-20.5-1.01-8.51-2.11-17-3.33-25.5-2.79-19.9-5.04-39.8-7.25-59.8-0.102-0.919-0.203-1.84-0.308-2.78-0.528-4.77-1.05-9.55-1.58-14.3-1.01-9.19-2.05-18.4-3.22-27.6-5.45-43.2-10.8-87.8-8.06-131 0.791-13.3-0.486-23.3-5.56-35.6-2.1-5.28-3.82-10.7-5.6-16.1-0.565-1.69-0.565-1.69-1.14-3.41-3.77-11.3-7.12-22.8-10.4-34.3h-3c-0.131 0.623-0.261 1.25-0.396 1.89-4.32 20.5-4.32 20.5-6.54 27.9-1.88 6.27-3.39 12.6-4.86 19-0.394 1.71-0.394 1.71-0.796 3.46-2.57 11.3-4.87 22.6-7.11 33.9-0.701 3.56-1.41 7.11-2.12 10.7-1.98 9.95-3.95 19.9-5.9 29.9-0.842 4.28-1.69 8.57-2.54 12.8-0.16 0.81-0.321 1.62-0.486 2.45-2.35 11.8-4.95 23.5-7.75 35.2-2.41 10.1-4.49 20.3-6.47 30.5-1.52 7.8-3.21 15.5-5.04 23.3-2.77 12-5.25 24-7.7 36-1.66 8.11-3.33 16.2-5.11 24.3-0.228 1.04-0.228 1.04-0.461 2.1-0.313 1.43-0.627 2.85-0.94 4.28-3.96 18-7.61 36.1-11.2 54.2-0.135 0.676-0.27 1.35-0.409 2.05-0.906 4.53-1.81 9.07-2.71 13.6-0.232 1.16-0.464 2.33-0.703 3.53-0.215 1.08-0.429 2.17-0.65 3.28-0.28 1.41-0.28 1.41-0.566 2.85-0.911 4.8-1.65 9.31-1.55 14.2 0.0202 1.53 0.0202 1.53 0.0408 3.1 0.0162 1.08 0.0324 2.15 0.0491 3.26 0.0842 8.99-0.319 17.6-1.72 26.5-0.819 8.97 1.68 16.5 4.66 24.8 4.43 12.6 4.43 12.6 5 18.9-1.27 0.268-2.54 0.536-3.86 0.812-14.5 3.19-28.2 7.78-41.8 13.8-6.56 2.72-12.3 3.74-19.3 3.7-0.825-0.00346-1.65-0.00693-2.5-0.0105-10.2-0.178-24.9-0.673-32.6-8.3-0.427-4.38-0.372-8.77-0.371-13.2-0.00431-2.17-0.0404-4.34-0.0786-6.5-0.0503-6.43 0.0962-12.2 2.49-18.2 3.02-7.92 2.14-15.8 1.71-24.2-0.0688-1.65-0.135-3.31-0.199-4.96-0.0944-2.44-0.19-4.88-0.294-7.32-0.29-6.87-0.335-13.7-0.219-20.6 0.105-3.65 0.105-3.65-1.04-7.05-0.0984-1.47-0.135-2.94-0.14-4.41-0.00571-0.93-0.0114-1.86-0.0173-2.82-0.00112-1.03-0.00224-2.05-0.00339-3.11-0.00496-1.08-0.00993-2.16-0.015-3.27-0.0147-3.61-0.0215-7.22-0.0269-10.8-0.00424-1.88-0.00424-1.88-0.00857-3.79-0.0135-5.99-0.0234-12-0.0272-18-0.00395-6.11-0.0162-12.2-0.0424-18.3-0.248-59.1 2.25-117 11.7-176 0.187-1.16 0.374-2.31 0.567-3.5 2.12-13 4.39-25.9 7.27-38.7 3.53-16.1 4.1-32 4.32-48.4 0.0373-2.4 0.0749-4.79 0.113-7.19 0.53-35.5 0.615-70.9 0.757-106 0.144-36 0.446-72 1.51-108 0.0214-0.731 0.0429-1.46 0.0649-2.22 0.504-17.1 1.12-34.2 1.96-51.3h2c5.68 8.39 10.1 17.7 14 27 4.16-1.55 6-4.29 8.56-7.81 0.764-1.04 1.53-2.08 2.32-3.14 1.84-2.64 3.5-5.27 5.12-8.04 0.854-1.4 1.71-2.8 2.57-4.2 5.26-8.63 10.4-17.3 15.1-26.2 0.413-0.786 0.826-1.57 1.25-2.38 4.39-7.69 4.39-7.69 5.12-16.2-2.4-2.81-2.4-2.81-5-5 5.94-1.15 11.2-0.755 17.2-0.125 15.9 1.48 31.7 1.8 47.7 2.09 2.05 0.0377 4.1 0.0819 6.16 0.127 15.8 0.322 31-0.472 46.7-2.36 5.37-0.643 10.7-1.06 16.1-1.29 6.88-0.3 13.6-1.05 20.4-1.97 3.76-0.46 7.49-0.742 11.3-0.969 3.88-0.241 7.49-0.608 11.2-1.56 3.28-0.828 6.18-1.01 9.56-0.938 6.39 0.134 12.5-0.951 18.8-2 13.3-1.91 13.3-1.91 19-1z" fill="#11274D"/>
<path transform="translate(470,79)" d="m0 0c15.3 12.9 28.6 27.7 37 46 0.188 2.88 0.188 2.88 0 5-1.65 0.33-3.3 0.66-5 1 0.0209 0.908 0.0419 1.82 0.0635 2.75 0.367 18.5-0.156 36.1-3.04 54.4-1.38 8.8-2 17.6-2.62 26.5-0.73 10.2-2.58 19.5-5.39 29.3l-0.977 3.47c-4.04 13.8-9.65 29.1-22 37.5-3.6 1.67-6.56 2.28-10.5 2.41-1.02 0.0387-2.04 0.0773-3.1 0.117-1.58 0.0464-1.58 0.0464-3.2 0.0938-1.07 0.0387-2.15 0.0773-3.26 0.117-2.64 0.094-5.29 0.18-7.93 0.258-0.934 4.53-0.934 4.53 0 9 1.86 0.904 1.86 0.904 4.2 1.45 1.36 0.372 1.36 0.372 2.75 0.752 1.01 0.262 2.02 0.525 3.05 0.795 2.21 0.598 4.41 1.2 6.62 1.8 1.17 0.315 2.35 0.631 3.56 0.955 45.8 12.4 45.8 12.4 62.4 28.9 1.35 1.33 2.72 2.63 4.1 3.94 14.7 14.1 24 32.1 32.4 50.5 1.4 3.01 2.91 5.96 4.42 8.92 3.04 6.03 5.81 12.2 8.53 18.3 2.02 4.58 4.08 9.13 6.22 13.7 4.98 10.6 9.73 21.3 14.4 32.1 1.29 2.95 1.29 2.95 2.71 5.5 2.15 4.05 3.06 6.51 1.69 11-0.637 1.52-1.32 3.02-2.05 4.5-0.359 0.742-0.718 1.48-1.09 2.25-1.16 2.29-2.4 4.52-3.66 6.75-0.44 0.782-0.879 1.56-1.33 2.37-6.47 11.3-6.47 11.3-10.9 15.6h-2c-0.33 0.99-0.66 1.98-1 3-1.83 1.69-1.83 1.69-4.25 3.56-0.904 0.701-1.81 1.4-2.74 2.12-0.994 0.763-1.99 1.53-3.01 2.31-1.06 0.832-2.11 1.67-3.17 2.5-9.29 7.31-18.3 14.3-29.8 17.5v2h-6c-1.03 74.7-1.03 74.7 1.75 149 0.0786 1.17 0.157 2.35 0.238 3.56 0.877 12.6 2.46 24.8 5.22 37.1 0.651 3.05 1.13 5.86 0.796 9-2.08 2.23-3.34 2.94-6.38 3.22-0.905-0.0529-1.81-0.106-2.74-0.16-5.53-0.15-10.8 0.244-16.3 0.875-1.15 0.131-1.15 0.131-2.33 0.264-3.03 0.358-5.99 0.748-8.97 1.37-3.13 0.595-6.1 0.403-9.27 0.27-2.66 0.142-4.94 0.537-7.53 1.1-6.02 1.27-12 1.7-18.1 2.12-2.17 0.156-4.34 0.313-6.51 0.473-0.947 0.0658-1.89 0.132-2.87 0.199-2.09 0.19-4.18 0.447-6.26 0.75-4.06 0.571-8.11 0.923-12.2 1.23-0.795 0.0628-1.59 0.126-2.41 0.19-3.37 0.266-6.74 0.527-10.1 0.789-2.47 0.193-4.95 0.388-7.42 0.583-1.13 0.086-1.13 0.086-2.28 0.174-3.32 0.263-6.58 0.593-9.88 1.08-3.36 0.461-6.55 0.593-9.94 0.596-1.88 0.00314-1.88 0.00314-3.81 0.00635-1.36-0.00409-2.71-0.00882-4.07-0.0142-1.05-0.00233-1.05-0.00233-2.11-0.0047-22-0.0568-44.1-0.596-66-2.55-1.04-0.0885-2.07-0.177-3.14-0.268-0.901-0.0827-1.8-0.165-2.73-0.25-2.56-0.157-2.56-0.157-5.08 0.519-2.94 0.509-4.37 0.0417-7.12-1.05-0.871-0.339-1.74-0.677-2.64-1.03l-2.76-1.12c-0.936-0.37-1.87-0.741-2.84-1.12-1.86-0.738-3.72-1.48-5.57-2.23-2.14-0.862-4.28-1.7-6.44-2.53-1.56-0.615-1.56-0.615-3.16-1.24-1.32-0.518-1.32-0.518-2.66-1.05-6.84-3.61-8.29-9.8-10.6-16.7l-1.13-3.11c-3.97-11.8-1.89-21.5 1.63-33.1 0.637-2.19 1.27-4.38 1.9-6.57l0.968-3.35c1.5-5.29 2.86-10.6 4.19-16 0.35-1.38 0.35-1.38 0.708-2.79 3.33-13.4 5.57-26.5 6.67-40.3 0.126-1.51 0.252-3.03 0.378-4.54 0.898-10.9 1.73-21.8 2-32.8 0.0272-1 0.0545-2 0.0825-3.03 0.363-15.4-0.234-30.5-1.46-45.8-0.0631-0.795-0.126-1.59-0.191-2.41-0.656-8.11-1.42-16.2-2.41-24.3l-0.448-3.69c-0.19-0.905-0.38-1.81-0.576-2.74-0.66-0.33-1.32-0.66-2-1-3.13 2.8-5.34 6.24-7.69 9.69-0.416 0.607-0.831 1.21-1.26 1.84-1.02 1.49-2.04 2.98-3.05 4.47-9.55-0.573-18.9-3.91-27-9-1.66-0.903-3.33-1.8-5-2.69-11.8-6.44-22.5-13.7-33.1-21.9-1.91-1.44-3.87-2.79-5.84-4.14l-3.02-2.26v-2c-0.553-0.231-1.11-0.461-1.68-0.699-2.97-1.66-5.09-3.73-7.51-6.11l-2.67-2.58c-2.31-2.81-2.84-4.05-3.14-7.61 0.893-2.24 0.893-2.24 2.32-4.51 0.776-1.26 0.776-1.26 1.57-2.55 0.83-1.3 0.83-1.3 1.68-2.63l1.6-2.57c1.07-1.72 2.14-3.44 3.22-5.15 2.12-3.39 4.16-6.81 6.21-10.2 2.04-3.39 4.12-6.75 6.22-10.1 0.427-0.683 0.855-1.37 1.3-2.07 3.85-6.13 7.75-12.2 11.7-18.3 1.31-2.03 2.62-4.07 3.93-6.1 30.8-47.7 54-81 112-93.5 2.94-0.631 5.88-1.26 8.82-1.88 2.9-0.611 5.79-1.24 8.68-1.88 0.871-0.177 1.74-0.354 2.64-0.537 5.73-1.27 10.6-3.19 15.2-6.96 1.56-2.7 1.56-2.7 2-6l0.45-2.17c2.2-10.6 2.2-10.6 0.14-20.9-1.39-1.7-2.82-3.35-4.3-4.97-4.43-5.68-6.21-12.8-8.48-19.5-0.76-2.24-1.56-4.45-2.37-6.67-5.69-15.5-9.96-31.3-13.7-47.3-0.369-1.59-0.369-1.59-0.746-3.2-2.27-9.97-4.4-19.9-4.32-30.2 0.00564-0.767 0.0113-1.53 0.0171-2.32 0.373-17.7 8.21-35.8 20.3-48.7 2.59-2.43 5.27-4.72 8-7 0.764-0.664 1.53-1.33 2.32-2.01 9.95-8.39 20-12.4 32.5-15.1 3.74-0.806 7.35-1.87 11-3.06 24.1-7.62 49-3.36 69.2 12.1z" fill="#727EDC"/>
<path transform="translate(470,79)" d="m0 0c15.3 12.9 28.6 27.7 37 46 0.188 2.87 0.188 2.87 0 5-2.48 0.495-2.48 0.495-5 1 0.0209 0.908 0.0419 1.82 0.0635 2.75 0.367 18.5-0.156 36.1-3.04 54.4-1.38 8.8-2 17.6-2.62 26.5-0.73 10.2-2.58 19.5-5.39 29.3l-0.977 3.47c-4.04 13.8-9.65 29.1-22 37.5-3.6 1.67-6.56 2.28-10.5 2.41-1.02 0.0387-2.04 0.0773-3.1 0.117-1.58 0.0464-1.58 0.0464-3.2 0.0938-1.07 0.0387-2.15 0.0773-3.26 0.117-2.64 0.094-5.29 0.18-7.93 0.258-0.934 4.53-0.934 4.53 0 9 0.66 0.33 1.32 0.66 2 1-0.33 0.66-0.66 1.32-1 2-0.102 1.44-0.182 2.87-0.25 4.31-0.37 3.6-0.668 4.58-3 7.56-9.25 7.15-18.5 6.79-29.8 6.12-15.3-1.98-31.1-8.41-44-17v-2c-0.742-0.144-1.49-0.289-2.25-0.438-4.19-2.38-5.13-6.18-6.75-10.6 0.623-0.445 1.25-0.889 1.89-1.35 3.18-3.99 3.33-8.12 3.93-13.1 0.133-0.942 0.267-1.88 0.404-2.85 0.594-4.5 1.08-8.29-0.217-12.7-0.887-0.949-1.77-1.9-2.69-2.88-4.4-4.88-6.3-10.9-8.52-17-0.8-2.17-1.64-4.32-2.48-6.47-10.2-26.3-20.9-58.1-20.6-86.6 0.00564-0.767 0.0113-1.53 0.0171-2.32 0.373-17.7 8.21-35.8 20.3-48.7 2.59-2.43 5.27-4.72 8-7 0.764-0.664 1.53-1.33 2.32-2.01 9.95-8.39 20-12.4 32.5-15.1 3.74-0.806 7.35-1.87 11-3.06 24.1-7.62 49-3.36 69.2 12.1z" fill="#F3B9A8"/>
<path transform="translate(174,462)" d="m0 0c0.447 0.387 0.895 0.773 1.36 1.17 2.75 2.36 5.49 4.71 8.33 6.95 2.31 1.88 2.31 1.88 3.99 3.63 3.05 2.95 6.36 5.45 9.76 7.99 0.71 0.531 1.42 1.06 2.15 1.61 6.25 4.62 12.7 8.74 19.4 12.6 0.58 0.34 1.16 0.68 1.76 1.03 4.05 2.37 8.14 4.69 12.2 6.97 0.828 0.474 1.66 0.949 2.51 1.44 7.7 4.18 16.1 6.27 24.5 8.56 0.271-0.741 0.541-1.48 0.82-2.25 2.44-5.69 6.65-10.6 11.2-14.8 3 2 3 2 3.58 4.08 0.0972 0.859 0.194 1.72 0.295 2.6 0.116 0.977 0.231 1.95 0.35 2.96 0.11 1.07 0.22 2.14 0.333 3.24 0.183 1.67 0.183 1.67 0.37 3.38 3.58 33.8 3.55 66.9 1.07 101-0.0694 1.03-0.139 2.06-0.21 3.13-1.51 22.2-7.31 43.3-12.9 64.7-0.315 1.21-0.63 2.41-0.954 3.66-0.588 2.24-1.18 4.49-1.79 6.73-3.21 12.2-3.45 20.1 0.812 32.1 0.367 1.16 0.733 2.32 1.11 3.52 2.31 7.09 2.31 7.09 7.79 11.7 1.37 0.504 2.76 0.971 4.16 1.39 1.28 0.504 2.55 1.01 3.82 1.53 1.29 0.474 2.57 0.944 3.86 1.41 1.4 0.517 2.79 1.03 4.19 1.55 2.62 0.964 5.25 1.92 7.88 2.87 1.13 0.419 2.27 0.838 3.44 1.27 1 0.364 2.01 0.727 3.04 1.1 3.18 1.46 5.4 2.66 7.77 5.27 0.0584 5.45-2.06 9.78-4.56 14.5-0.534 1.03-0.534 1.03-1.08 2.09-1.11 2.14-2.23 4.28-3.36 6.41-0.688 1.33-1.38 2.66-2.06 3.99-5.85 11.2-12.6 21.7-19.9 32-0.539 0.77-1.08 1.54-1.63 2.33-0.513 0.715-1.03 1.43-1.55 2.17-0.447 0.629-0.895 1.26-1.36 1.91-1.65 1.81-3.22 2.64-5.46 3.59-2.31-2.75-3.7-5.5-5.05-8.81-1.21-2.8-2.54-5.52-3.88-8.25-0.483-0.981-0.967-1.96-1.46-2.97-1.55-3.03-1.55-3.03-3.66-5.82-2.33-3.79-3.09-7.15-3.93-11.5-2.99-13.7-9.23-25.3-18.5-35.9-10.6-12.5-17.5-28-24.8-42.5-1.92-3.76-3.9-7.48-5.9-11.2-9.44-17.7-17.5-36-25.7-54.3-2.14-4.78-4.31-9.56-6.53-14.3-0.281-0.601-0.561-1.2-0.851-1.82-1.52-3.25-3.06-6.48-4.63-9.71-6.3-13.1-12.1-26.4-17.8-39.7-1.49-3.47-3-6.93-4.55-10.4-0.325-0.726-0.649-1.45-0.984-2.2-0.805-1.79-1.62-3.58-2.43-5.37-5.63-14.3-2.5-26.9 3.26-40.6 4.7-10.7 10.4-20.9 16.1-31.1 1.64-2.98 3.22-5.99 4.79-9.01 3.25-6.25 6.59-12.5 11.6-17.5z" fill="#F2BBAA"/>
<path transform="translate(344,847)" d="m0 0 1 2 2 1c-0.66 1.32-1.32 2.64-2 4l3-3c1.07 0.681 2.14 1.36 3.25 2.06 2.88 1.7 2.88 1.7 6.19 1.69 0.516-0.247 1.03-0.495 1.56-0.75 0.33-2.31 0.66-4.62 1-7h5v6h2v8h8v6h-2v6h2v14h-4c-0.217 1.08-0.217 1.08-0.438 2.19-0.521 2.6-1.04 5.21-1.56 7.81h2v10h-2c-0.144 1.13-0.289 2.27-0.438 3.44-0.562 3.56-0.562 3.56-1.56 4.56-1.69 0.0721-3.38 0.0839-5.06 0.0625-1.38-0.0135-1.38-0.0135-2.79-0.0273-1.07-0.0174-1.07-0.0174-2.15-0.0352v-2h-2v4h4v6h-6v-4c-2.47 1.4-4.67 2.67-6.69 4.69-0.433 0.433-0.866 0.866-1.31 1.31h-2c-0.99 1.98-0.99 1.98-2 4h-6v2h-6v-4h-2c-0.217 1.21-0.217 1.21-0.438 2.44-0.562 2.56-0.562 2.56-1.56 3.56-2 0.0408-4 0.0425-6 0v-2c-4.95 0.495-4.95 0.495-10 1v5h-2v6h-4v8h-2v2h-2v2h-4v14h4v10h2c0.0271 1.6 0.0464 3.21 0.0625 4.81 0.0116 0.893 0.0232 1.79 0.0352 2.71-0.0977 2.48-0.0977 2.48-1.1 5.48 0.324 1.67 0.659 3.33 1 5 0.067 2.44 0.0853 4.88 0.0625 7.31-0.00902 1.25-0.018 2.51-0.0273 3.8-0.0116 0.953-0.0232 1.91-0.0352 2.89h-2c0.0412 1.2 0.0825 2.39 0.125 3.62 0.0135 3.8-0.705 6.82-2.12 10.4h-2v2h-2v2h2v8h4v2h2v2h4v-4h6v6h-4v4h-6v-2h-2v8h4v6h-6v-4h-2v14h4c0.222 1.46 0.427 2.92 0.625 4.38 0.116 0.812 0.232 1.62 0.352 2.46 0.0116 1.07 0.0116 1.07 0.0234 2.16-0.66 0.66-1.32 1.32-2 2-0.648 2.57-0.648 2.57-1 5h-2c0.0232 0.82 0.0464 1.64 0.0703 2.48 0.018 1.08 0.0361 2.16 0.0547 3.27 0.0232 1.07 0.0464 2.13 0.0703 3.23-0.19 2.94-0.669 4.54-2.2 7.02h-2c-0.33 0.99-0.66 1.98-1 3-1.98-0.33-3.96-0.66-6-1v9c1.32 0.33 2.64 0.66 4 1-0.99-1.98-0.99-1.98-2-4 1.65 0.33 3.3 0.66 5 1v10h-5c-0.33 0.99-0.66 1.98-1 3 0.99-0.33 1.98-0.66 3-1v2h-6c-0.33-1.32-0.66-2.64-1-4-1.32-0.33-2.64-0.66-4-1v-4h-4v-6h5v-2h-5c-0.143-7.43-0.143-7.43 1-11-1.65-0.33-3.3-0.66-5-1-0.125-5.75-0.125-5.75 1-8h-2v12c-0.99 0.33-1.98 0.66-3 1-1.06-6.03-1.45-9.83 2-15h-2v2h-2c0.0116 0.895 0.0232 1.79 0.0352 2.71 0.0469 6.28-0.0679 12.4-0.816 18.6-0.377 4.58-0.236 9.16-0.156 13.8-0.0625 2.91-0.0625 2.91-1.06 4.91h-2c-1.94 3.28-2.25 5.84-2.38 9.62-0.343 5.31-1.62 9.29-3.77 14.1-1.25 3.3-1.22 5.77-0.859 9.26 0.33 0.66 0.66 1.32 1 2h4c0.495 3.47 0.495 3.47 1 7 1.45-0.0309 1.45-0.0309 2.94-0.0625 3.06 0.0625 3.06 0.0625 4.06 1.06 0.0408 2 0.0425 4 0 6h-6v2h4v2h2c0.0494 4.81 0.0857 9.61 0.11 14.4 0.0101 1.64 0.0237 3.27 0.041 4.91 0.0242 2.35 0.0356 4.7 0.0444 7.04 0.0103 0.733 0.0206 1.47 0.0313 2.22 4.01e-4 1.81-0.104 3.61-0.227 5.41-0.66 0.66-1.32 1.32-2 2h-6v14h2v6c-1.32 0.33-2.64 0.66-4 1-0.66 3.3-1.32 6.6-2 10h-2v8h-4c-0.0856 0.837-0.171 1.67-0.26 2.54-0.322 3.14-0.644 6.28-0.967 9.42-0.139 1.35-0.278 2.7-0.416 4.06-2.06 20.1-2.06 20.1-3.36 24 0.99 0.33 1.98 0.66 3 1-0.33 0.66-0.66 1.32-1 2h2c-0.309 1.18-0.619 2.35-0.938 3.56-0.956 3.8-1.58 7.55-2.06 11.4h1c0.0996 4.68-0.178 9.15-0.781 13.8-0.237 2.39-0.219 4.81-0.219 7.21h10c0.99-1.98 0.99-1.98 2-4v2h2c0.33 1.98 0.66 3.96 1 6 0.99 0.33 1.98 0.66 3 1-1.17 2.88-2.32 4.31-4.62 6.5-2.83 2.41-2.83 2.41-2.38 6.5-0.298 1.34-0.622 2.68-1 4h4c0.0977 6.15 0.0977 6.15 0 8-1 1-1 1-3.56 1.06-0.804-0.0206-1.61-0.0412-2.44-0.0625 0.33-2.97 0.66-5.94 1-9-2.97-0.33-5.94-0.66-9-1v3h-2v11h2v4h4v6c-0.99 0.33-1.98 0.66-3 1 0.99 0.33 1.98 0.66 3 1v6h-3v2h3v6h-2c0.33 5.28 0.66 10.6 1 16-0.99 0.33-1.98 0.66-3 1-0.923 2.99-0.923 2.99-1.5 6.5-0.656 3.59-0.656 3.59-1.5 6.5-0.99 0.33-1.98 0.66-3 1 0.0232 0.871 0.0464 1.74 0.0703 2.64 0.122 8.02-0.458 15.5-2.07 23.4 3.63-0.396 3.63-0.396 6.25-2.62 2.04-6.45 1.82-12.9 1.54-19.6-0.0934-4.44 0.263-7.37 3.21-10.8 2.8-0.669 5.09-0.239 8 0-0.186-1.3-0.371-2.6-0.562-3.94-0.477-4.16-0.201-7.85 0.371-12 0.258-2.81-0.176-5.35-0.809-8.09h-2v-6h4v-4h3v-11c2.64-0.33 5.28-0.66 8-1v-2h4v-4c2.31-0.66 4.62-1.32 7-2v2h-2v3h2l1 6c-1.45 0.928-1.45 0.928-2.94 1.88-3.09 1.78-3.09 1.78-4.06 4.12h-2c-0.143 0.572-0.286 1.14-0.434 1.73-0.362 1.45-0.729 2.9-1.1 4.34-1.24 5.11-1.83 9.66-1.46 14.9 0.66 0.66 1.32 1.32 2 2 0.217 0.959 0.217 0.959 0.438 1.94 0.666 2.44 1.68 3.42 3.56 5.06-0.99 0.33-1.98 0.66-3 1v2h2v2h3c-0.495-4.45-0.495-4.45-1-9h-2v-4c0.639-0.268 1.28-0.536 1.94-0.812 2.39-1.07 2.39-1.07 3.06-4.19h2c0.33-0.66 0.66-1.32 1-2h-4v-2c1.32-0.33 2.64-0.66 4-1 0.495-2.47 0.495-2.47 1-5h1v6c0.99-0.33 1.98-0.66 3-1 0.495-2.47 0.495-2.47 1-5h1v6h6c1.38 7.17 1.38 7.17-1 11-0.368 1.32-0.712 2.66-1 4-1.32 0.33-2.64 0.66-4 1 1.32 0.66 2.64 1.32 4 2-0.66 0.66-1.32 1.32-2 2h-4v7c-0.495-1.49-0.495-1.49-1-3h-4c-0.33 0.99-0.66 1.98-1 3-0.33-0.33-0.66-0.66-1-1-0.33 0.66-0.66 1.32-1 2 0.99 0.33 1.98 0.66 3 1-0.99 0.33-1.98 0.66-3 1 1.49 1.49 1.49 1.49 3 3-0.99 2.47-0.99 2.47-2 5 0.66 0.33 1.32 0.66 2 1-2.22 3.33-3.35 3.75-7 5 0.99 0.66 1.98 1.32 3 2-0.33 0.33-0.66 0.66-1 1-0.0715 1.35-0.084 2.71-0.0625 4.06 0.0206 1.3 0.0412 2.6 0.0625 3.94h-5v3h-2c0.557 3.34 1.35 6.03 3 9h-3c0.165 0.66 0.33 1.32 0.5 2 0.7 4.2 1.45 9.1-0.5 13h2c0.433 0.825 0.866 1.65 1.31 2.5 0.557 0.825 1.11 1.65 1.69 2.5 2.63 0.418 2.63 0.418 5 0 0.495 1.49 0.495 1.49 1 3h4v-2h2v-2c0.99 0.33 1.98 0.66 3 1v3h2c0.33 1.65 0.66 3.3 1 5 0.99 0.33 1.98 0.66 3 1v3c-0.849 0.255-0.849 0.255-1.71 0.516-0.733 0.242-1.47 0.485-2.22 0.734-1.1 0.348-1.1 0.348-2.21 0.703-2.05 0.898-2.05 0.898-2.6 3.16-0.0812 0.624-0.162 1.25-0.246 1.89 5.03-0.525 10-1.11 15-2v-6h3c0.495 2.97 0.495 2.97 1 6-6.4 3.02-12.8 5.74-19.5 8.09-2.13 0.772-4.18 1.61-6.25 2.53-6.49 2.74-12.2 3.74-19.2 3.69-0.825-0.00346-1.65-0.00693-2.5-0.0105-10.2-0.178-24.9-0.673-32.6-8.3-0.427-4.38-0.372-8.77-0.371-13.2-0.00431-2.17-0.0404-4.34-0.0786-6.5-0.0503-6.43 0.0962-12.2 2.49-18.2 3.02-7.92 2.14-15.8 1.71-24.2-0.0688-1.65-0.135-3.31-0.199-4.96-0.0944-2.44-0.19-4.88-0.294-7.32-0.29-6.87-0.335-13.7-0.219-20.6 0.105-3.65 0.105-3.65-1.04-7.05-0.0984-1.47-0.135-2.94-0.14-4.41-0.00571-0.93-0.0114-1.86-0.0173-2.82-0.00112-1.03-0.00224-2.05-0.00339-3.11-0.00496-1.08-0.00993-2.16-0.015-3.27-0.0147-3.61-0.0215-7.22-0.0269-10.8-0.00424-1.88-0.00424-1.88-0.00857-3.79-0.0135-5.99-0.0234-12-0.0272-18-0.00395-6.11-0.0162-12.2-0.0424-18.3-0.248-59.1 2.25-117 11.7-176 0.187-1.16 0.374-2.31 0.567-3.5 2.12-13 4.39-25.9 7.27-38.7 3.56-16.3 4.1-32.3 4.32-48.8 0.037-2.41 0.0744-4.81 0.112-7.22 0.479-31.9 0.633-63.8 0.82-95.7 0.047-8.01 0.096-16 0.151-24 0.0234-3.4 0.045-6.81 0.0621-10.2 0.0195-3.75 0.0446-7.5 0.0709-11.2 0.00418-1.09 0.00837-2.18 0.0127-3.3 0.0544-6.72 0.459-13.3 1.18-20h1c0.0606 0.927 0.121 1.85 0.184 2.81 0.126 1.8 0.126 1.8 0.254 3.63 0.0812 1.19 0.162 2.39 0.246 3.62-0.00703 2.83-0.00703 2.83 1.32 3.94 0.232 1.51 0.412 3.04 0.562 4.56 0.126 1.24 0.126 1.24 0.254 2.5 0.0606 0.638 0.121 1.28 0.184 1.93 0.144-1.26 0.289-2.52 0.438-3.81 0.3-2.61 0.721-4.66 1.56-7.19 0.0814-1.63 0.108-3.26 0.0977-4.89-0.00322-0.938-0.00645-1.88-0.00977-2.84-0.00838-0.976-0.0168-1.95-0.0254-2.96-0.00451-0.988-0.00902-1.98-0.0137-2.99-0.0118-2.44-0.0282-4.88-0.0488-7.32 0.66-0.33 1.32-0.66 2-1v9c1.65-0.66 3.3-1.32 5-2v2c1.97-0.0312 1.97-0.0312 4-1 1.25-2.92 1.25-2.92 2-6 0.495-0.99 0.495-0.99 1-2h2v-3c3.4-2.09 6.05-2.18 10-2v-2h2v-2h2c0.33 0.66 0.66 1.32 1 2h5v5c0.66-1.32 1.32-2.64 2-4l1 4h2v2c0.66 0.66 1.32 1.32 2 2h-2v2h-2v2c0.99-0.33 1.98-0.66 3-1l1-2 4 1c-0.33 3.63-0.66 7.26-1 11h4v4c1.65-0.99 3.3-1.98 5-3-0.33-0.33-0.66-0.66-1-1-0.0408-2-0.0425-4 0-6h2v-6c1.32-0.33 2.64-0.66 4-1v-11h2v-6h6c-0.0825-1.24-0.165-2.48-0.25-3.75-0.00573-3.23 0.0899-4.03 2.06-6.75 2.19-1.5 2.19-1.5 5.19-1.5v2h2v-2c0.99-0.66 1.98-1.32 3-2 0.25-3.08 0.25-3.08 0-6h2v-6c1.65-0.66 3.3-1.32 5-2z" fill="#14274E"/>
<path transform="translate(676,220)" d="m0 0c2.87 3.2 3.35 5.12 3.14 9.38-0.0446 1.06-0.0891 2.12-0.135 3.21-0.065 1.13-0.13 2.26-0.197 3.42-0.0553 1.16-0.111 2.33-0.168 3.53-0.405 7.85-1.1 15.6-1.98 23.4-0.867 8.02-0.854 16-0.666 24 1.65 0.66 3.3 1.32 5 2 1.72-5.67 3.39-11.3 5.02-17 0.556-1.92 1.11-3.84 1.67-5.76 0.557-1.93 1.1-3.86 1.65-5.79 6.66-22.7 6.66-22.7 13.7-27.4 2.69 0.375 2.69 0.375 5 1 1.17 4.94 0.676 8.85-0.562 13.7-0.179 0.73-0.358 1.46-0.543 2.21-2.06 8.13-4.64 16.1-7.24 24.1-2.37 7.29-4.29 14.5-5.66 22 2.31 0.409 2.31 0.409 5 0 5.65-5.17 9.67-11.9 13.5-18.5 7.52-12.3 7.52-12.3 14.5-14.5 0.66 0.66 1.32 1.32 2 2-0.102 7.02-2.7 11.8-6.19 17.8-1.01 1.78-2.02 3.56-3.03 5.34-0.727 1.26-0.727 1.26-1.47 2.55-2.04 3.55-3.98 7.15-5.93 10.8-1.01 1.84-2.04 3.67-3.09 5.49-3.32 5.86-5.98 11.6-8.14 17.9-0.523 1.51-1.05 3.02-1.57 4.54-0.263 0.764-0.526 1.53-0.796 2.32-0.746 2.15-1.51 4.3-2.28 6.44-6.49 18-11.7 35.8-15.1 54.6-0.267 1.49-0.534 2.98-0.801 4.46-0.131 0.729-0.262 1.46-0.397 2.21-3.6 19.6-9.43 38.8-15.4 57.8-1.15 3.68-2.26 7.38-3.37 11.1-3.69 12.2-7.56 24.4-11.5 36.5-1.44 4.45-2.88 8.9-4.31 13.4-23.1 71.8-23.1 71.8-38.8 80.1-1.28 0.578-2.58 1.14-3.88 1.69-0.908 0.412-1.82 0.825-2.75 1.25-10.4 2.41-19 0.594-28-4.95-11.1-7.6-18.1-17.2-24.9-28.5-1.87-3.09-3.86-6.07-5.97-9.01-4.11-5.74-7.73-11.8-11.4-17.8 0.66-0.33 1.32-0.66 2-1v-2c0.883-0.412 1.77-0.825 2.68-1.25 11.1-5.31 20.4-12.1 30-19.9 2.08-1.65 4.21-3.16 6.4-4.67 8.32-6.29 13.7-15 18.9-23.9 0.473-0.796 0.946-1.59 1.43-2.41 2.82-4.93 4.46-9.34 5.63-14.9 1-2 1-2 2.8-4.14 2.6-3.38 4.5-6.89 6.45-10.7 0.393-0.753 0.786-1.51 1.19-2.28 1.19-2.3 2.38-4.6 3.56-6.91 0.33-0.644 0.66-1.29 1-1.95 5.03-9.85 9.79-19.8 14.6-29.8 2.89-6.05 5.84-12.1 8.88-18 6.71-12.5 6.71-12.5 8.56-26.2-1.02-3.12-1.02-3.12-2.56-6.14-0.818-1.71-0.818-1.71-1.65-3.46-0.291-0.595-0.582-1.19-0.882-1.8-1.23-2.51-2.42-5.03-3.62-7.56-0.598-1.26-1.2-2.53-1.8-3.79-5.82-12.2-10.8-24.7-15.3-37.4-0.674-1.9-1.36-3.79-2.04-5.69-2.29-6.6-4.01-12.1-3.15-19.1 1.53-1.74 1.53-1.74 3-3 4.43 1.55 6.67 5.08 9.38 8.69 0.974 1.27 1.95 2.54 2.93 3.8 0.465 0.607 0.93 1.21 1.41 1.84 4.01 5.57 4.01 5.57 9.29 9.67-0.48-10-1.13-20-2-29.9-0.887-10.3-1.63-20.7-2-31.1-0.0287-0.748-0.0574-1.5-0.0869-2.27-0.0748-2.18-0.124-4.36-0.163-6.54-0.0258-1.24-0.0516-2.49-0.0781-3.77 0.366-3.82 1.27-6.2 3.33-9.42 0.99-0.33 1.98-0.66 3-1 2.41 5.15 3.76 9.92 4.72 15.5 0.144 0.8 0.288 1.6 0.436 2.43 0.456 2.54 0.901 5.09 1.34 7.63 1.01 5.73 2.04 11.5 3.09 17.2 0.269 1.48 0.533 2.96 0.792 4.44 0.346 1.97 0.717 3.94 1.09 5.91 0.2 1.1 0.401 2.2 0.607 3.34 0.683 2.72 0.683 2.72 3.02 3.94 0.628 0.208 1.26 0.416 1.9 0.631 2.09-9.26 4.13-18.5 6-27.8 0.333-1.64 0.666-3.28 1-4.92 0.506-2.49 1.01-4.98 1.5-7.48 0.489-2.47 0.993-4.94 1.5-7.41 0.142-0.739 0.284-1.48 0.43-2.24 1.05-5.03 2.74-8.82 5.57-13.1 0.66-0.33 1.32-0.66 2-1z" fill="#F3BBA9"/>
<path transform="translate(470,79)" d="m0 0c15.3 12.9 28.6 27.7 37 46 0.188 2.87 0.188 2.87 0 5-2.48 0.495-2.48 0.495-5 1 0.00524 1.02 0.0105 2.04 0.0159 3.09 0.0182 3.81 0.0296 7.62 0.0391 11.4 5e-3 1.64 0.0118 3.29 0.0205 4.93 0.0122 2.37 0.0178 4.75 0.0222 7.12 0.00516 0.724 0.0103 1.45 0.0156 2.19 5.21e-4 4.83-0.433 9.46-1.11 14.2-0.33-0.99-0.66-1.98-1-3-2.6-0.0275-5.21-0.0486-7.81-0.0625-0.772-0.00475-1.54-0.00951-2.34-0.0144-5.32-0.00277-10.5 0.344-15.7 1.15-2.1-0.0742-2.1-0.0742-3.89-1.55-0.4-0.501-0.799-1-1.21-1.52 1.02-2.48 1.02-2.48 3-5 2.76-0.416 4.88-0.522 7.62-0.375 1.01 0.0213 1.01 0.0213 2.04 0.043 5.14 0.146 10.2 0.706 15.3 1.33-0.403-4.54-0.812-9.08-1.23-13.6-0.14-1.55-0.279-3.09-0.416-4.64-0.197-2.22-0.399-4.43-0.603-6.65-0.0605-0.695-0.121-1.39-0.183-2.11-0.0604-3.28-0.0604-3.28-1.57-5.99-2.14-0.0992-4.29-0.13-6.44-0.125-1.17-0.00258-2.35-0.00516-3.56-0.00781-2.93-0.0748-2.93-0.0748-5 1.13-6.15 0.513-11.2-1.04-17-3-3.65-1.22-4.84-0.604-8.5 0.438-7.4 1.67-14.6 1.94-22.2 2-1.14 0.0218-2.28 0.0437-3.45 0.0662-10.6-0.0237-19-2.96-27.9-8.5 0.0116 0.626 0.0232 1.25 0.0352 1.9 0.00902 0.817 0.018 1.63 0.0273 2.48 0.0116 0.812 0.0232 1.62 0.0352 2.46-0.0977 2.16-0.0977 2.16-1.1 4.16-0.133 2.23-0.231 4.46-0.312 6.69-0.702 12.5-3.6 25.3-11.7 35.3-2.07 0.961-2.07 0.961-4 1-1.71-1.62-3.37-3.3-5-5-3.54-2.31-5.31-3.04-9.56-2.81-4.39 0.986-4.39 0.986-8.44 2.81-1.32 2.4-1.32 2.4-2 5-0.33 0.99-0.66 1.98-1 3-1.12 10.9 1.74 19.9 8.54 28.4 1.54 1.79 1.54 1.79 3.77 3.83 2.18 2.34 2.33 3.63 2.69 6.81-0.307 2.63-0.687 5.15-1.18 7.75-0.198 1.1-0.198 1.1-0.401 2.23-0.423 2.34-0.859 4.68-1.29 7.02-0.286 1.57-0.571 3.15-0.855 4.72-1.05 5.77-2.1 11.5-3.27 17.3-5.47-2.35-8.5-6.89-11-12.2-0.891-2.24-1.69-4.49-2.46-6.78-0.291-0.828-0.581-1.66-0.881-2.51-0.596-1.7-1.19-3.4-1.77-5.11-0.78-2.25-1.59-4.49-2.41-6.73-5.68-15.5-9.96-31.3-13.7-47.3-0.246-1.06-0.492-2.12-0.746-3.2-2.27-9.97-4.4-19.9-4.32-30.2 0.00564-0.767 0.0113-1.53 0.0171-2.32 0.373-17.7 8.21-35.8 20.3-48.7 2.59-2.43 5.27-4.72 8-7 0.764-0.664 1.53-1.33 2.32-2.01 9.95-8.39 20-12.4 32.5-15.1 3.74-0.806 7.35-1.87 11-3.06 24.1-7.62 49-3.36 69.2 12.1z" fill="#132344"/>
<path transform="translate(531,752)" d="m0 0c3.09 26.6 5.92 53.2 7.85 80 0.142 1.97 0.287 3.95 0.432 5.92 1.98 27.3 3.25 54.6 4.47 82 0.0331 0.741 0.0661 1.48 0.1 2.24 0.335 7.5 0.667 15 0.994 22.5 0.124 2.85 0.25 5.7 0.375 8.54 0.0854 1.95 0.169 3.9 0.253 5.85 0.286 6.48 0.627 12.9 1.04 19.4 0.352 5.45 0.629 10.9 0.756 16.4 0.0276 1.09 0.0276 1.09 0.0558 2.21 0.0571 2.27 0.111 4.54 0.163 6.81 0.195 8.37 0.396 16.7 0.874 25.1 0.645 11.5 0.769 22.9 0.756 34.4 0.00136 2.04 0.00314 4.07 0.00531 6.11 0.00451 5.46 0.00281 10.9-3.79e-4 16.4-0.00255 5.74-1.78e-4 11.5 0.00139 17.2 0.00181 9.61-5.58e-4 19.2-0.00534 28.8-0.00547 11.1-0.00366 22.2 0.00183 33.3 0.00453 9.56 0.00518 19.1 0.00256 28.7-0.00156 5.7-0.00177 11.4 0.00154 17.1 0.00288 5.35 8.96e-4 10.7-0.00489 16-0.00132 1.96-9.39e-4 3.92 0.00126 5.89 0.00272 2.67-6.84e-4 5.35-0.00568 8.02 0.00223 0.78 0.00446 1.56 0.00676 2.36-0.0125 3.44-0.137 6.54-1.13 9.84-0.0644 1.84-0.0728 3.69-0.0449 5.54 0.0111 1.13 0.0222 2.26 0.0336 3.43 0.0141 1.24 0.0281 2.49 0.0426 3.77 0.0677 12.2-0.201 24.4-0.688 36.7-0.0331 0.838-0.0663 1.68-0.1 2.54-0.172 4.33-0.348 8.66-0.526 13-1.51 36.4-1.51 36.4-1.97 72.8 0.00105 0.832 0.00209 1.66 0.00317 2.52 0.0192 7.02 0.211 13.8 1.25 20.8 0.1 1.6 0.174 3.21 0.211 4.81 0.0284 0.848 0.0567 1.7 0.0859 2.57 0.0521 1.74 0.0964 3.49 0.133 5.23 0.202 5.55 1.06 9.43 3.57 14.4 3.57 7.14 6.12 14.3 8.31 21.9 0.267 0.924 0.533 1.85 0.808 2.8 1.11 3.97 1.88 7.1 1.88 11.3-0.598 0.206-1.2 0.411-1.81 0.623-10.8 3.72-21.1 7.36-30.9 13.2-0.748 0.38-1.5 0.761-2.27 1.15-0.66-0.33-1.32-0.66-2-1 0.33-0.66 0.66-1.32 1-2h2v-2c-1.65 0.99-3.3 1.98-5 3 0.33-2.64 0.66-5.28 1-8 1.18-0.155 1.18-0.155 2.38-0.312 2.96-0.463 2.96-0.463 4.62-3.69h2c-0.99-1.49-0.99-1.49-2-3-0.414-2.26-0.414-2.26-0.625-4.69-0.0748-0.808-0.15-1.62-0.227-2.45-0.0735-0.922-0.0735-0.922-0.148-1.86-0.99-0.33-1.98-0.66-3-1 0.107-1.22 0.214-2.44 0.324-3.7 0.673-8.75 0.875-16.3-1.49-24.8-4.04-16.9-4.09-35.1-0.908-52.1 1-5.43 1.31-10.6 1.08-16.1-0.00781-2.29-0.00781-2.29 0.992-5.29h2c0.0909-0.922 0.0909-0.922 0.184-1.86 0.0838-0.808 0.168-1.62 0.254-2.45 0.122-1.2 0.122-1.2 0.246-2.43 0.316-2.26 0.316-2.26 1.32-5.26 0.0697-1.54 0.0845-3.09 0.0625-4.63-0.00773-0.888-0.0155-1.78-0.0234-2.69-0.0129-0.924-0.0258-1.85-0.0391-2.8-0.0254-1.84-0.0465-3.67-0.0625-5.51-0.0116-0.814-0.0232-1.63-0.0352-2.47 0.0977-1.9 0.0977-1.9 1.1-2.9 0.345-2.33 0.678-4.67 1-7 0.33-0.99 0.66-1.98 1-3h2c0.0234-7.94 0.041-15.9 0.0518-23.8 0.00517-3.69 0.0122-7.38 0.0236-11.1 0.011-3.57 0.0169-7.15 0.0194-10.7 0.00269-2 0.0105-3.99 0.0184-5.99 4.5e-4 -7.51-0.252-14.9-0.85-22.4-0.125-1.66-0.199-3.33-0.263-5 0.33-0.33 0.66-0.66 1-1 0.368-2.33 0.702-4.66 1-7h2c-0.144-2.1-0.291-4.21-0.438-6.31-0.0889-1.28-0.178-2.55-0.27-3.87-0.311-4.05-0.727-8.09-1.21-12.1-0.0918-2.88 0.277-5.58 0.669-8.43 0.461-4.27 0.388-8.54 0.37-12.8 0.00387-0.907 0.00773-1.81 0.0117-2.75-0.00541-3.73-0.0734-7.28-0.641-11-0.783-5.87-0.599-11.7-0.559-17.7 0.00451-1.26 0.00902-2.51 0.0137-3.81 0.0117-3.09 0.0281-6.17 0.0488-9.26h2c-0.141-1.79-0.288-3.58-0.438-5.38-0.0812-0.998-0.162-2-0.246-3.02-0.166-2.58-0.166-2.58-1.32-4.6-1.3-10.6-1.41-21.2 0.453-31.8 0.907-5.38 1.2-10.8 1.55-16.2-0.66-0.33-1.32-0.66-2-1 0.99-1.98 0.99-1.98 2-4-0.66-0.33-1.32-0.66-2-1 0.33-0.66 0.66-1.32 1-2-0.409-2.05-0.409-2.05-1-4v-1c-0.33 2.97-0.66 5.94-1 9h-2c-0.361-1.31-0.714-2.62-1.06-3.94-0.296-1.1-0.296-1.1-0.598-2.21-0.112-0.61-0.224-1.22-0.34-1.85 0.33-0.33 0.66-0.66 1-1 0.16-4.16-0.0175-7.95-1-12h2v-5c1.32-0.33 2.64-0.66 4-1-0.428-4.5-0.891-8.76-2.06-13.1-1.64-6.93-1.86-15.4-0.438-22.3 0.692-3.53 0.691-7.03 0.688-10.6-8.06e-5 -0.746-1.61e-4 -1.49-2.44e-4 -2.26 0.375-10.6 0.375-10.6-3.19-19.7v-6c-0.33-0.33-0.66-0.66-1-1v3h-2v-5h2c1-6.38 0.985-12.4 0.625-18.8-0.0438-0.94-0.0877-1.88-0.133-2.85-0.254-5.25-0.254-5.25-1.49-10.3h-3c-0.199-0.957-0.199-0.957-0.402-1.93-0.177-0.826-0.353-1.65-0.535-2.5-0.174-0.824-0.348-1.65-0.527-2.5-0.343-2.04-0.343-2.04-1.54-3.07-0.164-1.68-0.28-3.37-0.375-5.06-0.674-8.94-2.17-17.9-4.65-26.5-0.945-3.33-1.58-6.57-2.1-9.99-0.168-1.07-0.335-2.15-0.508-3.25-0.367-3.18-0.367-3.18-0.359-6.52 0.305-2.58 0.305-2.58-1.01-3.66-0.23-2.29-0.396-4.58-0.535-6.88-0.043-0.687-0.086-1.37-0.13-2.08-0.137-2.2-0.267-4.4-0.397-6.6-0.0914-1.49-0.183-2.98-0.275-4.47-0.226-3.66-0.445-7.31-0.662-11 1.49-0.99 1.49-0.99 3-2 0.66 2.97 1.32 5.94 2 9 0.33-3.63 0.66-7.26 1-11h2c-0.0838-0.892-0.168-1.78-0.254-2.7-0.153-1.76-0.153-1.76-0.309-3.55-0.104-1.16-0.209-2.32-0.316-3.52-0.103-2.75 0.0168-4.65 0.879-7.23h-2c-0.33-2.64-0.66-5.28-1-8h-2v-2c0.99-0.495 0.99-0.495 2-1v-2h-2v-2h2c-0.289-0.619-0.577-1.24-0.875-1.88-3.31-9.19-3.41-18.3-3.31-27.9 6.45e-4 -1.3 0.00129-2.59 0.00195-3.93 0.0483-10.4 0.0483-10.4 1.19-15.3h2v-5h2v-3h3v3h2c0.196 1.44 0.381 2.87 0.562 4.31 0.104 0.801 0.209 1.6 0.316 2.43 0.121 2.26 0.121 2.26-0.879 5.26-0.0938 1.79-0.131 3.58-0.133 5.37-0.00129 1.05-0.00258 2.1-0.00391 3.18 0.00387 1.1 0.00773 2.19 0.0117 3.32-0.00387 1.09-0.00773 2.18-0.0117 3.3 0.00193 1.58 0.00193 1.58 0.00391 3.19 0.00113 0.96 0.00226 1.92 0.00342 2.91 0.127 2.67 0.533 5.12 1.13 7.72h2v-3h-2c-0.098-10.7-0.152-21.4 0.25-32.1 0.0141-0.738 0.0282-1.48 0.0427-2.24 0.165-3.5 0.479-5.35 2.69-8.13 2.02-1.51 2.02-1.51 3.02-1.51z" fill="#12264C"/>
<path transform="translate(456,1069)" d="m0 0c1.12 3.75 1.12 3.75 0 6 0.99 0.33 1.98 0.66 3 1-0.33 0.66-0.66 1.32-1 2h10c0.495 1.48 0.495 1.48 1 3 0.66 0.66 1.32 1.32 2 2h-2c0.495 2.47 0.495 2.47 1 5h-3v4c0.66 0.33 1.32 0.66 2 1h-2c0.602 2.02 1.27 4.02 2 6 0.66 0.33 1.32 0.66 2 1-0.99 0.33-1.98 0.66-3 1v2c0.99 0.495 0.99 0.495 2 1-0.99 1.32-1.98 2.64-3 4 0.66 0.66 1.32 1.32 2 2-0.99 0.99-1.98 1.98-3 3 0.495 0.928 0.495 0.928 1 1.88 2.27 7.1 0.938 14.9 0 22.1h12c0.33 1.65 0.66 3.3 1 5h-5v5h6v2h2v6h-2c0.66 1.65 1.32 3.3 2 5h-2v2h-6c0.66-0.33 1.32-0.66 2-1-0.773-0.557-0.773-0.557-1.56-1.12-1.44-1.88-1.44-1.88-1.12-5.06 0.227-0.928 0.454-1.86 0.688-2.81h-8c-0.144 0.598-0.289 1.2-0.438 1.81-0.45 1.75-0.991 3.47-1.56 5.19-1.32-0.66-2.64-1.32-4-2-1.88 1.88-1.39 5.04-1.56 7.56-0.0838 1.2-0.168 2.4-0.254 3.63-0.0909 1.39-0.0909 1.39-0.184 2.81 0.99 0.495 0.99 0.495 2 1-0.495 1.98-0.495 1.98-1 4 0.619-0.186 1.24-0.371 1.88-0.562 2.12-0.438 2.12-0.438 4.12 0.562 0.379 2.8 0.379 2.8 0.562 6.31 0.182 4.37 0.182 4.37 0.947 8.64 0.813 3.38 0.593 6.83 0.553 10.3-0.00451 0.745-0.00902 1.49-0.0137 2.26-0.0117 1.83-0.0297 3.66-0.0488 5.49h3c0.838 2.51 1.03 3.88 0.438 6.5-0.521 2.98 0.144 3.93 1.56 6.5-0.33 0.66-0.66 1.32-1 2 0.99 0.33 1.98 0.66 3 1v3c-0.99 0.33-1.98 0.66-3 1 1.65 0.66 3.3 1.32 5 2 0.0811 1.77 0.139 3.54 0.188 5.31 0.0348 0.986 0.0696 1.97 0.105 2.99-0.347 3.2-1.1 3.54-3.29 5.7-0.401 2.57-0.401 2.57-0.25 5.38 0.0155 0.936 0.0309 1.87 0.0469 2.84 0.143 2.77 0.143 2.77 0.723 5.37 0.468 2.36 0.519 4.34 0.418 6.73-0.0686 4.54 0.796 8.34 2.06 12.7h2c0.494 7.41 0.494 7.41-2 10.4-0.99 0.804-0.99 0.804-2 1.62v2c0.66 0.33 1.32 0.66 2 1-0.33 0.66-0.66 1.32-1 2 1.65-0.33 3.3-0.66 5-1v4h-11c-0.33 0.66-0.66 1.32-1 2h5v3h-4c-0.33 0.66-0.66 1.32-1 2 0.722 0.103 1.44 0.206 2.19 0.312 3.06 0.748 5.17 2 7.81 3.69h1v11c-0.99 0.33-1.98 0.66-3 1-0.125-7.75-0.125-7.75 1-10h-2c-0.33 1.32-0.66 2.64-1 4h-2v6c1.32 0.66 2.64 1.32 4 2h-2v3h5v2h-4c-0.33 0.99-0.66 1.98-1 3h4v2h-5v-2h-3v12h-4v2h-2v2h-2c-0.33 0.99-0.66 1.98-1 3h-1c-0.99-7.26-1.98-14.5-3-22-0.289 6.21-0.289 6.21-0.568 12.4-0.0381 0.769-0.0762 1.54-0.115 2.33-0.0367 0.791-0.0733 1.58-0.111 2.4-0.205 1.86-0.205 1.86-1.21 2.86-0.237 2.86-0.422 5.7-0.562 8.56-0.0432 0.806-0.0864 1.61-0.131 2.44-0.106 2-0.207 4-0.307 5.99h-3c-0.33 0.99-0.66 1.98-1 3v-5h-2c0.164 0.552 0.327 1.1 0.496 1.67 0.562 2.59 0.601 4.93 0.566 7.58-0.00902 0.892-0.018 1.78-0.0273 2.7-0.0116 0.675-0.0232 1.35-0.0352 2.05-1.93-0.682-1.93-0.682-4-2-0.751-2.24-0.751-2.24-1.11-5.08-0.144-1.07-0.288-2.14-0.436-3.25-0.138-1.17-0.277-2.35-0.42-3.56-0.158-1.22-0.317-2.45-0.48-3.71-0.427-3.33-0.837-6.67-1.24-10-0.339-2.79-0.692-5.58-1.04-8.37-2.39-18.9-4.55-37.9-6.48-56.8-1.01-9.87-2.08-19.7-3.29-29.6-5.96-48.4-11.5-97.6-8.74-146 0.323-6.22 0.142-11.3-1.77-17.2 0.99-0.33 1.98-0.66 3-1 0.33-0.99 0.66-1.98 1-3 0.66 0.33 1.32 0.66 2 1v-5c-0.99 1.48-0.99 1.48-2 3v-9h2v-2h3v-2h-5c0.66-0.33 1.32-0.66 2-1v-2c5.57 0.48 10.7 1.3 16 3v-2h3v2h2c0.33-0.99 0.66-1.98 1-3 2.46-1.23 4.28-1.07 7-1z" fill="#14274E"/>
<path transform="translate(563 1478)" d="m0 0c0.855 0.199 1.71 0.397 2.59 0.602 0.919 0.235 1.84 0.469 2.79 0.711 1.52 0.383 1.52 0.383 3.07 0.773 2.06 0.521 4.12 1.04 6.18 1.57 3.23 0.769 6.47 1.2 9.76 1.66 3.39 0.893 6.69 1.89 10 3.06 3.05 1.04 3.05 1.04 6.56 1.44 3.44 0.5 3.44 0.5 5.8 1.45 2.76 1.1 5.43 1.77 8.33 2.43 11.2 2.78 19.5 5.94 25.8 16.1 3.79 7.17 7.55 16.3 5.46 24.5-7.28 10.6-30 12.5-41.8 14.6-4.19 0.679-8.39 0.986-12.6 1.18-2.48 0.0883-2.48 0.0883-4.48 0.683-2.13 0.502-3.92 0.593-6.1 0.555-0.759-0.00773-1.52-0.0155-2.3-0.0234-1.57-0.0257-3.13-0.0518-4.7-0.0781-0.765-0.00773-1.53-0.0155-2.32-0.0234-1.02-0.0174-1.02-0.0174-2.07-0.0352-2.26 0.0847-4.42 0.311-6.66 0.594-4.91 0.554-9.76 0.659-14.7 0.665-0.93 0.00496-1.86 0.00993-2.82 0.015-3.04 0.0145-6.09 0.0214-9.13 0.0269-1.04 0.00283-2.09 0.00565-3.17 0.00857-5.52 0.0149-11 0.0242-16.6 0.0285-5.7 0.00551-11.4 0.0296-17.1 0.058-4.39 0.0186-8.77 0.0238-13.2 0.0254-2.1 0.00303-4.2 0.0111-6.3 0.0242-2.93 0.017-5.86 0.0152-8.8 0.00869-0.866 0.00921-1.73 0.0184-2.62 0.0279-4.65-0.0323-7.91-0.246-11.6-3.38-0.751-3.04-0.751-3.04-0.926-6.77-0.0373-0.67-0.0746-1.34-0.113-2.03-0.114-2.15-0.194-4.3-0.274-6.45-0.0715-1.4-0.145-2.8-0.221-4.2-0.467-9.18-0.549-18.4-0.467-27.5 0.91 0.0769 1.82 0.154 2.76 0.233 22.8 1.87 44.3 1.92 64.7-9.25 5.82-3.17 11.7-5.94 17.8-8.48 0.782-0.326 1.56-0.651 2.37-0.987 2.1-0.86 4.2-1.69 6.32-2.51 1.07-0.416 2.15-0.833 3.25-1.26 2.92-0.785 4.46-0.755 7.37-0.0508z" fill="#F8DDE0"/>
<path transform="translate(323,1494)" d="m0 0 1 2c1.73 0.577 1.73 0.577 4 1 7.7 1.93 15.2 3.9 22.5 7 2.9 1.15 5.83 2.04 8.82 2.93 5.58 1.68 11 3.63 16.4 5.77 2.26 0.888 4.53 1.75 6.81 2.58 1.14 0.42 2.29 0.84 3.47 1.27 1.03 0.373 2.06 0.745 3.12 1.13 4.51 2.05 7.82 4.8 10.6 8.87 0.611 0.868 0.611 0.868 1.23 1.75 2.18 3.61 2.24 6.94 2.33 11.1 0.0561 1.68 0.0561 1.68 0.113 3.4-0.511 3.87-1.68 5.5-4.43 8.23h-2c-0.33 0.99-0.66 1.98-1 3-10.1 7.97-24.3 10.4-36.7 11.6-3.27 0.244-3.27 0.244-6.27 1.36-2.3 0.0666-4.6 0.0685-6.9 0.0376-1.05-0.012-1.05-0.012-2.11-0.0242-2.31-0.0279-4.61-0.0634-6.92-0.0993-1.6-0.0218-3.21-0.0432-4.81-0.0644-3.36-0.0455-6.72-0.0947-10.1-0.147-4.31-0.0662-8.62-0.124-12.9-0.178-3.31-0.0428-6.62-0.0903-9.93-0.139-1.59-0.0229-3.18-0.0444-4.77-0.0645-2.22-0.0288-4.44-0.0637-6.66-0.1-1.9-0.0278-1.9-0.0278-3.83-0.0562-3.07-0.165-3.07-0.165-6.07-1.16-2.75-0.0616-5.48-0.0674-8.23-0.0273-1.69 0.0127-3.38 0.025-5.07 0.0371-2.64 0.0245-5.28 0.0521-7.92 0.0862-9.18 0.111-18.3 0.0719-27.4-0.85-0.715-0.0615-1.43-0.123-2.17-0.186-4.75-0.56-4.75-0.56-6.63-2.73-0.716-3-0.796-5.73-0.785-8.82 0.00193-1.28 0.00387-2.56 0.00586-3.88 0.0062-0.668 0.0124-1.34 0.0188-2.02 0.018-1.99 0.0193-3.99 0.0203-5.98 0.114-25.4 0.114-25.4 4.19-31.6 4.63-1.75 7.49-0.586 12 1 16 3.91 33 3.74 47.7-3.92 4.65-2.36 9.45-4.02 14.4-5.64 0.914-0.303 1.83-0.606 2.77-0.918 7.29-2.36 14.6-4.19 22.1-5.52z" fill="#F8DDE0"/>
<path transform="translate(272,497)" d="m0 0c3 2 3 2 3.58 4.08 0.146 1.29 0.146 1.29 0.295 2.6 0.173 1.47 0.173 1.47 0.35 2.96 0.11 1.07 0.22 2.14 0.333 3.24 0.183 1.67 0.183 1.67 0.37 3.38 3.58 33.8 3.55 66.9 1.07 101-0.0694 1.03-0.139 2.06-0.21 3.13-1.59 23.4-7.92 45.8-13.9 68.4-1.13 4.39-2.18 8.8-3.19 13.2-0.715 2.3-0.715 2.3-2.72 4.3v-4c-0.99-0.33-1.98-0.66-3-1-0.975-2.41-1.74-4.71-2.45-7.2-0.221-0.738-0.442-1.48-0.669-2.24-0.72-2.41-1.42-4.83-2.13-7.25-0.495-1.67-0.99-3.34-1.49-5-0.742-2.49-1.48-4.98-2.22-7.46-1.81-6.13-3.74-12.2-5.73-18.3-5.14-15.9-9.71-32.1-13.4-48.4-3.7-16.4-8.81-32.4-14.4-48.3-3.53-10.2-3.53-10.2-2.49-14.9 2.37-3.17 5.16-5.77 8.06-8.44 1.51-1.43 3.03-2.87 4.54-4.31 0.74-0.701 1.48-1.4 2.24-2.12 3.77-3.72 7.17-7.75 10.6-11.8 1.41-1.45 1.41-1.45 4.6-3.33 3.52 0.0612 6.65 0.975 10 2 0.946 0.271 1.89 0.541 2.87 0.82 2.39 0.697 4.76 1.42 7.13 2.18 0.206-0.66 0.413-1.32 0.625-2 2.63-5.75 6.74-10.7 11.4-15z" fill="#FBFEFE"/>
<path transform="translate(301,493)" d="m0 0 1 6h3v6c-0.99 0.33-1.98 0.66-3 1 0.66 0.33 1.32 0.66 2 1-0.584 7.24-1.71 14.4-5 21h-2c0.186 0.701 0.371 1.4 0.562 2.12 0.49 3.22-0.0188 5.68-0.562 8.88 0.338 2.02 0.338 2.02 1 4 0.877 4.43 1.13 8.62 1.13 13.1 0.00175 0.687 0.0035 1.37 0.00531 2.08 0.00438 2.26 0.00149 4.51-0.00189 6.77 6.75e-4 1.58 0.00165 3.16 0.0029 4.75 0.00147 3.31-6.59e-4 6.62-0.00534 9.94-0.00568 4.22-0.00243 8.44 0.00357 12.7 0.00364 3.27 0.00245 6.53-1.28e-4 9.8-6.62e-4 1.55 1.33e-4 3.11 0.00248 4.66 0.0086 7.31-0.0555 14.5-0.907 21.8-0.473 5.01-0.392 10.1-0.397 15.1-0.00333 1.18-0.00666 2.37-0.0101 3.58-0.00504 2.49-0.00741 4.98-0.00725 7.46-0.00219 3.79-0.0204 7.57-0.0393 11.4-0.00293 2.43-0.00492 4.86-0.00586 7.29-0.00719 1.12-0.0144 2.24-0.0218 3.39-0.466 10.8-0.466 10.8 3.25 20.3 0.186 1.86 0.186 1.86 0.375 3.75 0.423 3.78 1.52 6.05 3.62 9.25 1.04 2.69 1.89 5.25 2.32 8.1 0.953 5.9 3.02 9.03 7.22 13.3 1.46 1.63 1.46 1.63 1.46 3.63 1.32 0.33 2.64 0.66 4 1v2c1.32 0.33 2.64 0.66 4 1 0.33 1.32 0.66 2.64 1 4 0.639 0.144 1.28 0.289 1.94 0.438 2.06 0.562 2.06 0.562 3.06 1.56 0.0408 2 0.0425 4 0 6 0.99 0.33 1.98 0.66 3 1-1.1-0.0533-1.1-0.0533-2.22-0.108-3.32-0.158-6.65-0.306-9.97-0.455-1.15-0.0561-2.3-0.112-3.49-0.17-1.67-0.0725-1.67-0.0725-3.37-0.146-1.53-0.0707-1.53-0.0707-3.09-0.143-2.84-0.0803-2.84-0.0803-5.44 0.606-2.91 0.499-4.36 0.0195-7.08-1.06-0.871-0.339-1.74-0.677-2.64-1.03-0.912-0.37-1.82-0.741-2.76-1.12-0.936-0.37-1.87-0.741-2.84-1.12-1.86-0.738-3.72-1.48-5.57-2.23-2.14-0.862-4.28-1.7-6.44-2.53-1.04-0.41-2.08-0.82-3.16-1.24-0.878-0.345-1.76-0.691-2.66-1.05-6.84-3.61-8.29-9.8-10.6-16.7-0.372-1.03-0.744-2.05-1.13-3.11-3.97-11.8-1.89-21.5 1.63-33.1 0.637-2.19 1.27-4.38 1.9-6.57 0.32-1.11 0.639-2.21 0.968-3.35 1.5-5.29 2.86-10.6 4.19-16 0.234-0.921 0.467-1.84 0.708-2.79 3.33-13.4 5.57-26.5 6.67-40.3 0.126-1.51 0.252-3.03 0.378-4.54 0.898-10.9 1.73-21.8 2-32.8 0.0272-1 0.0545-2 0.0825-3.03 0.444-18.8-0.71-37.3-2.33-56-0.0605-0.703-0.121-1.41-0.183-2.13-0.387-4.31-0.948-8.57-1.57-12.8-0.108-2.68-0.0471-5.32 0-8 3-1 3-1 6-1-2.48-0.495-2.48-0.495-5-1 6.03-6.03 17.1-4.19 25-4z" fill="#6F78D7"/>
<path transform="translate(353 944)" d="m0 0c1.45 0.0309 1.45 0.0309 2.94 0.0625 0.495 2.48 0.495 2.48 1 5h2v4h4v2h2v2h2v4h4v4h4v6h-2v2h2v6h-8v18h7c-0.33 1.65-0.66 3.3-1 5h2v2h4v-4c1-2.25 1-2.25 2-4h3v-3h3c-0.115 1.75-0.242 3.5-0.375 5.25-0.0696 0.975-0.139 1.95-0.211 2.95-0.399 2.69-1.05 4.47-2.41 6.8h2c0.66-3.3 1.32-6.6 2-10h4c-0.114 1.77-0.242 3.54-0.375 5.31-0.0696 0.986-0.139 1.97-0.211 2.99-0.414 2.7-0.414 2.7-2.41 5.7 0.66 0.33 1.32 0.66 2 1 0.33-0.66 0.66-1.32 1-2 1.49 0.495 1.49 0.495 3 1 0.914 2.14 0.914 2.14 1.62 4.81 0.24 0.873 0.48 1.75 0.727 2.64 0.556 2.18 1.11 4.36 1.65 6.54l-4 2c-0.33-0.66-0.66-1.32-1-2l-3 6h-4v2h-3v-2h-2v-3h-3v-4h-2c-0.33 1.65-0.66 3.3-1 5-0.639 0.124-1.28 0.247-1.94 0.375-0.681 0.206-1.36 0.412-2.06 0.625-0.33 0.66-0.66 1.32-1 2-0.99-0.33-1.98-0.66-3-1-0.495 1.48-0.495 1.48-1 3h-10v6h-6v4 6h-3c-0.495 1.98-0.495 1.98-1 4h-12v2h4v2h2v10h-6v-2h-18v-2c-2.64-0.66-5.28-1.32-8-2-0.904-6.33-0.904-11.7 0-18h6c0.66-3.3 1.32-6.6 2-10h-4v-6h4v-4h2c0.66-1.32 1.32-2.64 2-4h4v-10h-4v-6h3v-2h-3v-2c-1.65-0.33-3.3-0.66-5-1-0.054-1.62-0.0928-3.25-0.125-4.88-0.0232-0.905-0.0464-1.81-0.0703-2.74 0.195-2.38 0.195-2.38 2.2-4.38-1.65-0.33-3.3-0.66-5-1v-6h2v-2h-2c-0.312-2.69-0.312-2.69 0-6 2.31-2.88 2.31-2.88 5-5h3v-3h6v4h4v2h2c0.217-0.541 0.433-1.08 0.656-1.64 1.81-3.18 4.26-5.57 6.84-8.11 0.499-0.507 0.998-1.01 1.51-1.54 3.73-3.71 3.73-3.71 5.99-3.71 0.0909-1.17 0.0909-1.17 0.184-2.37 0.0838-1.01 0.168-2.02 0.254-3.07 0.0812-1.01 0.162-2.02 0.246-3.06 0.463-3.67 0.591-3.49 4.38-3.57z" fill="#14274F"/>
<path transform="translate(447,867)" d="m0 0h4v2h4v8h2v14h2v2h2v12h-2v2h8v12h-4v9h5v5h3v6h-3v7h2c1.25 3.76 1.11 7.27 1.06 11.2-0.00451 0.75-0.00902 1.5-0.0137 2.27-0.0118 1.85-0.0297 3.69-0.0488 5.54h4v-2h-2v-6h4c-0.33 2.64-0.66 5.28-1 8h4v-2h-2v-6c1.98-0.495 1.98-0.495 4-1-0.33 1.65-0.66 3.3-1 5 0.99 0.66 1.98 1.32 3 2-0.99 0.495-0.99 0.495-2 1 0.491 0.398 0.982 0.797 1.49 1.21 1.94 2.31 1.83 3.51 1.7 6.48-0.0406 1.21-0.0406 1.21-0.082 2.45-0.0348 0.615-0.0696 1.23-0.105 1.86h-2v-4c-2.64-0.33-5.28-0.66-8-1v2h4v6h-6c-0.382 1.66-0.714 3.32-1 5 1.13 1.36 1.13 1.36 4.06 1.06 0.969-0.0206 1.94-0.0412 2.94-0.0625 0.495 3.47 0.495 3.47 1 7 1.65 0.66 3.3 1.32 5 2-3.75 2-3.75 2-6 2v6h-2c0.516 1.11 1.03 2.23 1.56 3.38 0.474 1.2 0.949 2.39 1.44 3.62-0.33 0.66-0.66 1.32-1 2h-4v4h-2c-0.66 1.32-1.32 2.64-2 4h-2v6h-5v2c-1.21 0.402-1.21 0.402-2.44 0.812-1.27 0.588-1.27 0.588-2.56 1.19-0.33 0.99-0.66 1.98-1 3-3.7 0.95-6.3 0.95-10 0v2h-2v-2h-3c-0.33 0.66-0.66 1.32-1 2v-3c0.99-0.33 1.98-0.66 3-1 0.33-0.99 0.66-1.98 1-3h-3v2h-4v6h-2v2h-8c-0.66 1.98-1.32 3.96-2 6h-3l-1 4h-2c-0.0833-1.48-0.14-2.96-0.188-4.44-0.0348-0.824-0.0696-1.65-0.105-2.5 0.265-2.77 0.792-4.73 1.71-7.33 1.64-4.66 2.47-9.23 3.15-14.1 0.248-1.67 0.496-3.34 0.746-5.01 0.117-0.795 0.234-1.59 0.355-2.41 0.429-2.81 0.934-5.6 1.46-8.39 0.919-4.93 1.62-9.85 2.05-14.8 0.63-6.81 2.21-13.3 3.82-20 0.724-3 1.4-5.98 2-9-0.33-0.33-0.66-0.66-1-1-0.0979-1.5-0.13-3-0.125-4.5-0.00258-0.815-0.00516-1.63-0.00781-2.47 0.133-2.03 0.133-2.03 1.13-3.03 0.0475-2.02 0.0371-4.04 0-6.06-0.0393-5.1 0.13-9.91 1-14.9 0.33-0.33 0.66-0.66 1-1 0.232-1.51 0.412-3.04 0.562-4.56 0.0838-0.826 0.168-1.65 0.254-2.5 0.0909-0.957 0.0909-0.957 0.184-1.93h2c-0.0116-1.06-0.0232-2.12-0.0352-3.22-0.0228-2.92-0.0331-5.83-0.0234-8.75 0.00201-0.674 0.00403-1.35 0.0061-2.04 0.0895-3.4 0.519-6.63 1.05-9.99 0.336-2.56 0.669-5.12 1-7.69 0.834-6.38 1.88-12.2 4-18.3z" fill="#14274E"/>
<path transform="translate(477 783)" d="m0 0c1.16 0.304 1.16 0.304 2.34 0.613-1.9 5.38-3.61 9.92-7.56 14.2-3.47 4.46-5.86 9.84-8.44 14.8h-2c-0.66 2.31-1.32 4.62-2 7h-2c-0.0825 0.701-0.165 1.4-0.25 2.12-0.922 3.53-2.72 5.85-4.75 8.88-0.727 1.98-1.4 3.98-2 6-0.327 0.733-0.653 1.47-0.99 2.22-1.24 3.4-1.63 6.59-2.05 10.2-0.0834 0.714-0.167 1.43-0.253 2.16-0.266 2.31-0.521 4.62-0.775 6.93-0.0884 0.785-0.177 1.57-0.268 2.38-1.23 11-2.18 21.9-2.49 32.9-0.139 4.45-0.642 8.83-1.18 13.2-0.191 1.85-0.38 3.71-0.562 5.56-0.0838 0.847-0.168 1.69-0.254 2.57-0.0909 0.926-0.0909 0.926-0.184 1.87h-2c0.0116 0.638 0.0232 1.28 0.0352 1.93 0.00902 0.826 0.018 1.65 0.0273 2.5 0.0116 0.824 0.0232 1.65 0.0352 2.5-0.0977 2.07-0.0977 2.07-1.1 3.07-0.75 5.7-1.06 11.4-1 17.2v3.81c-0.33 0.33-0.66 0.66-1 1-0.232 1.51-0.412 3.04-0.562 4.56-0.0838 0.826-0.168 1.65-0.254 2.5-0.0909 0.957-0.0909 0.957-0.184 1.93 0.66 0.33 1.32 0.66 2 1-0.182 0.646-0.364 1.29-0.551 1.96-2.9 10.9-4.6 22-5.95 33.1-1.39 11.1-3.46 22.1-5.62 33-0.171 0.875-0.341 1.75-0.517 2.65-1.24 6.17-1.24 6.17-2.36 7.29-0.455 2.51-0.835 5.03-1.21 7.55-0.978 3.02-2.26 3.65-4.79 5.45-2.11 7.64 0.0317 14.4 1.99 21.8 1.04 4.04 1.57 8.03 2.01 12.2h-2c-5.44-16-10.8-32-15.6-48.2-0.33-1.12-0.66-2.23-1-3.38-3.67-12.6-3.67-12.6-3-18.6 0.0902-0.871 0.18-1.74 0.273-2.64 0.352-2.11 0.352-2.11 1.35-3.11 0.353-1.3 0.657-2.62 0.938-3.94 0.175-0.819 0.351-1.64 0.531-2.48 0.674-3.28 1.32-6.56 1.96-9.84 0.653-3.14 1.39-6.25 2.13-9.37 0.86-3.65 1.61-7.21 2-10.9 0.438-3.44 0.438-3.44 1.4-5.27 1.32-2.76 1.66-5.34 2.1-8.36 0.836-5.71 0.836-5.71 1.94-6.81 0.208-1.47 0.367-2.95 0.5-4.44 0.39-4.34 0.39-4.34 1.5-6.56 0.225-1.54 0.408-3.08 0.562-4.62 0.0838-0.817 0.168-1.63 0.254-2.48 0.0606-0.626 0.121-1.25 0.184-1.9h2c0.124-1.09 0.248-2.19 0.375-3.31 0.784-6.27 1.62-12.7 3.62-18.7 0.176-1.73 0.318-3.46 0.438-5.19 0.337-3.97 0.904-7.67 1.96-11.5 2.11-7.95 3.7-15.9 4.36-24.1 0.359-3.17 1.33-6.12 2.25-9.17 0.165-1.2 0.33-2.39 0.5-3.62 0.468-3.16 1.32-5.44 2.5-8.38 1.91-7.57 2.53-15.4 3.21-23.2 0.455-4.83 1.43-9.14 2.79-13.8 0.0679-1.85 0.131-3.71 0.188-5.56 0.469-2.85 0.469-2.85 1.81-5.44 4.19-2.47 8.43-3.86 13.1-5.29 3.22-1.18 6.01-2.95 8.94-4.71 0.866-0.33 1.73-0.66 2.62-1 2.56-0.932 2.56-0.932 4.88-3.19 2.5-1.81 2.5-1.81 5.16-1.43z" fill="#122344"/>
<path transform="translate(324,1309)" d="m0 0h4v3h-3c-1.19 5.78-1.19 5.78 1 11l1 2c-0.938 2.12-0.938 2.12-2 4h1v6h-3c-0.182 0.944-0.182 0.944-0.367 1.91-1.06 5.41-2.25 10.8-3.63 16.1h2c0.33-1.98 0.66-3.96 1-6 6.68 10.7 0.521 29.3-1.94 40.6-0.378 1.8-0.755 3.61-1.13 5.41-0.528 2.53-1.06 5.07-1.6 7.6-1.28 5.97-2.48 11.7-2.36 17.8 0.0135 1.02 0.0269 2.04 0.0408 3.1 0.0162 1.08 0.0324 2.15 0.0491 3.26 0.0842 8.99-0.319 17.6-1.72 26.5-0.819 8.97 1.68 16.5 4.66 24.8 4.43 12.6 4.43 12.6 5 18.9-2.75 0.699-5.5 1.38-8.25 2.06-0.777 0.199-1.55 0.398-2.36 0.604-0.754 0.184-1.51 0.367-2.29 0.557-1.04 0.259-1.04 0.259-2.09 0.524-2.27 0.285-3.85-0.0656-6.01-0.746v-5c-2.14 2.14-2.43 3.13-3 6-1.73 0.508-3.46 1.01-5.19 1.5-1.44 0.418-1.44 0.418-2.92 0.844-2.75 0.623-5.09 0.779-7.89 0.656l1-6c4.45-0.99 4.45-0.99 9-2-0.734-2.98-0.734-2.98-2.56-4.5-1.44-1.5-1.44-1.5-1.44-4.5h-2c-0.33-0.99-0.66-1.98-1-3-0.66-0.33-1.32-0.66-2-1v2h-2v2h-4c-0.66-0.66-1.32-1.32-2-2-0.825-0.165-1.65-0.33-2.5-0.5-2.5-0.5-2.5-0.5-4.5-2.5v-3h-2v-15c0.66-0.33 1.32-0.66 2-1-0.959-2.33-0.959-2.33-4-4h2v-4h2v-3h5c-0.33-0.66-0.66-1.32-1-2-0.125-3.06-0.125-3.06 0-6 0.33-0.33 0.66-0.66 1-1-0.99-0.66-1.98-1.32-3-2 0.99-0.99 0.99-0.99 2-2h4v-4c0.613-1.69 1.27-3.36 2-5-0.99-0.33-1.98-0.66-3-1v-2c0.99-0.495 0.99-0.495 2-1-0.66-0.33-1.32-0.66-2-1 0.66-1.32 1.32-2.64 2-4h5c0.0412-0.619 0.0825-1.24 0.125-1.88 0.289-0.701 0.577-1.4 0.875-2.12 3.06-1.25 3.06-1.25 6-2v2h2l1 2v-2c0.48-2.2 0.992-3.98 2-6h2c-1.15-1.3-1.15-1.3-4-2 0.33-0.66 0.66-1.32 1-2h4c-0.33-0.66-0.66-1.32-1-2-1.49-0.495-1.49-0.495-3-1 0.33-1.65 0.66-3.3 1-5h4c0.495-1.48 0.495-1.48 1-3 0.33 0.99 0.66 1.98 1 3 0.99 0.495 0.99 0.495 2 1v-5c-2.64-0.33-5.28-0.66-8-1v-2c1.49-0.495 1.49-0.495 3-1 0.802-1.87 0.802-1.87 1.19-4.06 0.159-0.733 0.317-1.47 0.48-2.22 0.11-0.566 0.219-1.13 0.332-1.71h2c0.17-0.58 0.34-1.16 0.516-1.76 1.56-5.02 3.4-8.93 6.48-13.2 0.33-0.99 0.66-1.98 1-3h2v-2h3c-0.495-1.36-0.495-1.36-1-2.75-1.75-6.04-1.99-13.3 0-19.2h2c-0.0619-0.887-0.124-1.77-0.188-2.69-0.0366-5.91 1.75-11.6 3.19-17.3h-2v-7h6c0.33-0.99 0.66-1.98 1-3z" fill="#12274D"/>
<path transform="translate(456,1069)" d="m0 0c1.12 3.75 1.12 3.75 0 6 0.99 0.33 1.98 0.66 3 1-0.33 0.66-0.66 1.32-1 2h10c0.495 1.48 0.495 1.48 1 3 0.66 0.66 1.32 1.32 2 2h-2c0.495 2.47 0.495 2.47 1 5h-3v4c0.66 0.33 1.32 0.66 2 1h-2c0.602 2.02 1.27 4.02 2 6 0.66 0.33 1.32 0.66 2 1-0.99 0.33-1.98 0.66-3 1v2c0.99 0.495 0.99 0.495 2 1-0.99 1.32-1.98 2.64-3 4 0.66 0.66 1.32 1.32 2 2-0.99 0.99-1.98 1.98-3 3 0.495 0.928 0.495 0.928 1 1.88 2.27 7.1 0.938 14.9 0 22.1-1.13 0.124-2.27 0.247-3.44 0.375-1.76 0.309-1.76 0.309-3.56 0.625-0.33 0.66-0.66 1.32-1 2h-2c0.33 1.65 0.66 3.3 1 5h-4c-0.155-0.959-0.155-0.959-0.312-1.94-0.227-0.681-0.454-1.36-0.688-2.06-1.49-0.495-1.49-0.495-3-1 0.248 1.36 0.248 1.36 0.5 2.75 0.891 6.21 1.5 13.3-0.5 19.2-1.49 0.495-1.49 0.495-3 1-0.34 2.81-0.672 5.62-1 8.44-0.0954 0.783-0.191 1.57-0.289 2.37-1.1 9.58-0.612 18 1.31 27.4 1.03 5.54 0.814 10.2-0.0215 15.8h-2v2h-9v-2h-2v-5h-3c-0.193-1.22-0.387-2.43-0.586-3.68-0.263-1.58-0.526-3.17-0.789-4.75-0.126-0.802-0.253-1.6-0.383-2.43-0.347-2.06-0.788-4.1-1.24-6.13-0.66-0.33-1.32-0.66-2-1-0.462-2.77-0.801-5.46-1.06-8.25-0.117-1.12-0.117-1.12-0.236-2.26-0.254-2.5-0.482-4.99-0.701-7.49-0.128-1.45-0.128-1.45-0.259-2.93-0.733-8.85-1.1-17.7-1.37-26.6-0.0235-0.752-0.0469-1.5-0.0711-2.28-0.363-12-0.23-24 0.465-36 0.321-6.22 0.142-11.3-1.77-17.2 0.99-0.33 1.98-0.66 3-1 0.33-0.99 0.66-1.98 1-3 0.66 0.33 1.32 0.66 2 1v-5c-0.99 1.48-0.99 1.48-2 3v-9h2v-2h3v-2h-5c0.66-0.33 1.32-0.66 2-1v-2c5.57 0.48 10.7 1.3 16 3v-2h3v2h2c0.33-0.99 0.66-1.98 1-3 2.46-1.23 4.28-1.07 7-1z" fill="#132A50"/>
<path transform="translate(643,487)" d="m0 0 2 1v8h2c-0.495-3.96-0.495-3.96-1-8 1.32 0.33 2.64 0.66 4 1 0.203 5.17 0.251 9.23-2 14-0.35 1.66-0.682 3.33-1 5-0.33 1.09-0.66 2.19-1 3.31-1.09 3.61-1.09 3.61-1.32 7.14-0.698 5.89-2.72 11.4-4.62 17-0.36 1.1-0.721 2.2-1.09 3.33-0.35 1.04-0.7 2.09-1.06 3.16-0.318 0.949-0.637 1.9-0.965 2.88-0.946 2.19-0.946 2.19-2.95 3.19-0.727 1.98-1.4 3.98-2 6-0.33-0.99-0.66-1.98-1-3l1-2h-2c0.0412 1.13 0.0825 2.27 0.125 3.44-0.0126 7.13-1.61 13.3-5.12 19.6h-6v4c-0.99-0.33-1.98-0.66-3-1v-2c-0.66-0.33-1.32-0.66-2-1v4c-0.959 0.186-0.959 0.186-1.94 0.375-1.02 0.309-1.02 0.309-2.06 0.625-0.33 0.66-0.66 1.32-1 2-1.49 0.99-1.49 0.99-3 2-0.33 0.99-0.66 1.98-1 3-7.09 1.72-13.7 2.25-21 2v-2h2v-2h2c0.33-1.32 0.66-2.64 1-4 1.32 0.99 2.64 1.98 4 3v-4c-1.65-0.33-3.3-0.66-5-1v-3h-2v-9c1.49-0.495 1.49-0.495 3-1 1.04-3.13 0.934-3.99 0-7h5v-2h2v-6h2c-0.0812-1.13-0.162-2.27-0.246-3.44-0.684-13.7-0.684-13.7 3.62-18.6 3.12-2.94 3.12-2.94 5.62-2.94v-1c-1.65-0.33-3.3-0.66-5-1 0.66-1.32 1.32-2.64 2-4-0.66-0.33-1.32-0.66-2-1v-7l4-2v-9c-0.99-0.33-1.98-0.66-3-1 0.66-0.66 1.32-1.32 2-2 0.643-2.07 0.643-2.07 1-4h2v5h14v-5c5.61 0.33 11.2 0.66 17 1 0.33-1.32 0.66-2.64 1-4 0.144 1.13 0.289 2.27 0.438 3.44 0.174 3.37 0.174 3.37 1.56 4.56-0.0206-1.11-0.0412-2.23-0.0625-3.38 0.0625-3.62 0.0625-3.62 1.06-5.62z" fill="#F3B9A8"/>
<path transform="translate(262,740)" d="m0 0c1.32 0.66 2.64 1.32 4 2 0.66-0.66 1.32-1.32 2-2 0.784 0.495 1.57 0.99 2.38 1.5 2.41 1.67 2.41 1.67 4.62 1.5-0.66-0.33-1.32-0.66-2-1 0.33-0.66 0.66-1.32 1-2 4.02 1.48 8.04 2.98 12.1 4.48 1.36 0.509 2.73 1.02 4.1 1.52 1.97 0.728 3.94 1.47 5.91 2.2 1.18 0.44 2.37 0.88 3.59 1.33 3.75 1.64 7.42 3.54 10.3 6.46-0.379 5.46-2.03 9.72-4.56 14.5-0.356 0.689-0.711 1.38-1.08 2.09-1.11 2.14-2.23 4.28-3.36 6.41-0.688 1.33-1.38 2.66-2.06 3.99-5.85 11.2-12.6 21.7-19.9 32-0.539 0.77-1.08 1.54-1.63 2.33-0.513 0.715-1.03 1.43-1.55 2.17-0.447 0.629-0.895 1.26-1.36 1.91-1.65 1.81-3.22 2.64-5.46 3.59-2.31-2.75-3.7-5.5-5.05-8.81-1.21-2.8-2.54-5.52-3.88-8.25-0.483-0.981-0.967-1.96-1.46-2.97-1.55-3.03-1.55-3.03-3.66-5.82-2.33-3.79-3.09-7.15-3.93-11.5-1.92-8.9-4.66-16.3-10-23.7 0.33-0.66 0.66-1.32 1-2 2.29-0.414 2.29-0.414 5.06-0.625 0.919-0.0748 1.84-0.15 2.79-0.227 1.07-0.0735 1.07-0.0735 2.15-0.148-4.46-0.99-4.46-0.99-9-2v-2c3.67-1.18 7.17-1.07 11-1 0.33-2.64 0.66-5.28 1-8h3v-4h4v-4z" fill="#F3B9A8"/>
<path transform="translate(260,1440)" d="m0 0c0.625 3.06 0.625 3.06 1 6h5v-4c4.43-2.09 4.43-2.09 7.31-1.62 0.557 0.206 1.11 0.412 1.69 0.625-0.33 0.33-0.66 0.66-1 1-0.0715 1.35-0.084 2.71-0.0625 4.06 0.0206 1.3 0.0412 2.6 0.0625 3.94h-5v3h-2c0.557 3.34 1.35 6.03 3 9h-3c0.248 0.99 0.248 0.99 0.5 2 0.7 4.2 1.45 9.1-0.5 13h2c0.433 0.825 0.866 1.65 1.31 2.5 0.557 0.825 1.11 1.65 1.69 2.5 2.63 0.418 2.63 0.418 5 0 0.33 0.99 0.66 1.98 1 3h4v-2h2v-2c0.99 0.33 1.98 0.66 3 1v3h2c0.495 2.47 0.495 2.47 1 5 1.49 0.495 1.49 0.495 3 1v3c-0.566 0.17-1.13 0.34-1.71 0.516-0.733 0.242-1.47 0.485-2.22 0.734-1.1 0.348-1.1 0.348-2.21 0.703-2.05 0.898-2.05 0.898-2.6 3.16-0.0812 0.624-0.162 1.25-0.246 1.89 5.03-0.525 10-1.11 15-2v-6h3l1 6c-6.4 3.02-12.8 5.74-19.5 8.09-2.13 0.772-4.18 1.61-6.25 2.53-6.49 2.74-12.2 3.74-19.2 3.69-1.24-0.0052-1.24-0.0052-2.5-0.0105-10.2-0.178-24.9-0.673-32.6-8.3-0.528-5.02-0.435-10.1-0.438-15.1-0.00306-0.727-0.00612-1.45-0.00928-2.2-0.0121-10.9 0.819-20.6 5.45-30.7 0.99 0.66 1.98 1.32 3 2h2v8c4.04-0.776 6.4-1.33 9.19-4.44 2.4-4.71 4.14-9.56 5.81-14.6h2c-0.33-2.64-0.66-5.28-1-8 4.58-1.73 6.54-2.23 11 0z" fill="#11274D"/>
<path transform="translate(594,463)" d="m0 0c0.767 1.12 1.49 2.27 2.19 3.44 0.406 0.638 0.812 1.28 1.23 1.93 1.55 7-3.82 14.7-7.17 20.6-0.44 0.782-0.879 1.56-1.33 2.37-6.47 11.3-6.47 11.3-10.9 15.6h-2c-0.33 0.99-0.66 1.98-1 3-1.83 1.69-1.83 1.69-4.25 3.56-0.904 0.701-1.81 1.4-2.74 2.12-0.994 0.763-1.99 1.53-3.01 2.31-1.06 0.832-2.11 1.67-3.17 2.5-20 15.7-20 15.7-29.8 18.5-0.99-0.33-1.98-0.66-3-1-0.652-1.8-0.652-1.8-1-4-0.104-0.654-0.209-1.31-0.316-1.98-0.929-8.33-0.771-16.7-0.684-25 0.66 0.33 1.32 0.66 2 1 0.495-2.97 0.495-2.97 1-6h2v-3l4-1v-2h17c-0.833-2.17-0.833-2.17-3-3v-2c-0.318-1.67-0.65-3.34-1-5 6.62-1 6.62-1 10-1v-2c0.763-0.454 1.53-0.908 2.31-1.38 2.75-1.41 2.75-1.41 4.12-3.69 2.13-2.64 4.35-3.08 7.56-3.94v-2c3-1 3-1 6-1 1.69-0.61 3.35-1.29 5-2 0.62-0.264 1.24-0.529 1.88-0.801 1.71-0.728 3.42-1.46 5.12-2.2-2.48-0.495-2.48-0.495-5-1 3.23-2.15 4.28-2.2 8-2z" fill="#6F78D7"/>
<path transform="translate(539,863)" d="m0 0c0.66 0.33 1.32 0.66 2 1 1.01 18.6 1.94 37.3 2.77 55.9 0.0328 0.737 0.0657 1.47 0.0995 2.23 0.332 7.46 0.662 14.9 0.987 22.4 0.124 2.85 0.25 5.7 0.376 8.55 0.0855 1.95 0.169 3.9 0.253 5.85 0.286 6.48 0.627 12.9 1.04 19.4 0.352 5.45 0.629 10.9 0.756 16.4 0.0276 1.09 0.0276 1.09 0.0558 2.21 0.0571 2.27 0.111 4.54 0.163 6.81 0.288 12.4 0.288 12.4 0.874 24.8 0.772 13.4 0.772 26.7 0.759 40.1 6.76e-4 2.53 0.00165 5.05 0.0029 7.58 0.00165 5.93-0.0018 11.9-0.00715 17.8-0.00376 4.69-0.00242 9.38 0.00181 14.1 0.00584 6.54 0.00668 13.1 0.00344 19.6-6.6e-4 2.47 1.25e-4 4.93 0.00248 7.4 0.0104 14-0.209 27.9-1.14 41.9-4 0-4 0-7-1 0.00333-1.34 0.00333-1.34 0.00673-2.72 0.269-94.5 0.269-94.5-2.01-189-0.0418-1.1-0.0836-2.2-0.127-3.33-0.119-3.05-0.244-6.1-0.373-9.15-0.0354-0.866-0.0708-1.73-0.107-2.62-0.182-4.05-0.461-8.05-0.916-12.1-0.638-6.09-0.621-12.2-0.61-18.3-9.57e-4 -1.22-0.00191-2.44-0.0029-3.69-6.77e-4 -2.56 0.00114-5.12 0.00534-7.68 0.00538-3.92 2.38e-5 -7.85-0.00635-11.8 6.6e-4 -2.49 0.00194-4.99 0.00391-7.48-0.00202-1.17-0.00405-2.35-0.00613-3.55 0.00315-1.09 0.0063-2.18 0.00955-3.3 7.96e-4 -0.956 0.00159-1.91 0.00241-2.9 0.117-2.34 0.504-4.29 1.13-6.54 0.144-1.8 0.246-3.61 0.316-5.42 0.0419-1.02 0.0838-2.05 0.127-3.11 0.059-1.6 0.059-1.6 0.119-3.22 0.0432-1.08 0.0864-2.16 0.131-3.27 0.106-2.66 0.208-5.32 0.307-7.98h-2c0.66-1.98 1.32-3.96 2-6z" fill="#132344"/>
<path transform="translate(421,281)" d="m0 0c2.34 0.936 4.61 1.96 6.89 3.06 2.03 0.9 3.95 1.47 6.11 1.94 0.417 1.43 0.808 2.87 1.19 4.31 0.22 0.801 0.441 1.6 0.668 2.43 0.0715 1.12 0.0715 1.12 0.145 2.26-1.43 1.57-1.43 1.57-3 3-0.396 5.74 0.28 11.3 1 17-5.77 2.46-10.4 3.49-16.6 3.38-0.783-0.00943-1.57-0.0189-2.37-0.0286-16.8-0.43-33.7-6.61-48-15.3-0.33-0.99-0.66-1.98-1-3 1.32-0.33 2.64-0.66 4-1-0.99-0.66-1.98-1.32-3-2v-2c8.4-2.21 16.4-2.21 25-2 0.33 1.32 0.66 2.64 1 4h4c0.33-1.32 0.66-2.64 1-4h3v-2h8v-2c-2.64-0.33-5.28-0.66-8-1v-2c3.3-0.66 6.6-1.32 10-2 0.33-0.99 0.66-1.98 1-3 3.05-1.53 5.81-0.801 9 0z" fill="#F3BBA9"/>
<path transform="translate(326,752)" d="m0 0c13.4 0.495 13.4 0.495 27 1 2 4 2 4 2 6h-2v5c-0.66 0.33-1.32 0.66-2 1v-2c-10.7-2.72-10.7-2.72-21 0h-3v8c1.98 0.33 3.96 0.66 6 1v3c1.09 0.0606 2.17 0.121 3.29 0.184 1.45 0.0845 2.89 0.169 4.34 0.254 0.713 0.0393 1.43 0.0786 2.16 0.119 4.13 0.246 8.14 0.678 12.2 1.44-1.37 3.16-1.99 3.99-5 6-1.66 0.385-3.32 0.728-5 1v10c1.65-0.66 3.3-1.32 5-2-0.488 6.47-0.488 6.47-2.88 8.94-2.12 1.06-2.12 1.06-5.12 1.06v2c-1.94 0.562-1.94 0.562-4 1-1-1-1-1-1.06-3.56 0.0206-0.804 0.0412-1.61 0.0625-2.44h-2v4c-0.99 0.495-0.99 0.495-2 1-0.33 0.66-0.66 1.32-1 2-1 2-1 2-3 3-0.656 2.53-0.656 2.53-1 5h-3v-3h-4v-2h-2v-2h-2v-3h-5c0.165-0.66 0.33-1.32 0.5-2 0.622-3.73 0.564-7.22 0.5-11-1.32 0.99-2.64 1.98-4 3-0.435-8.04-0.522-13.3 4-20 0.874-3.22 0.874-3.22 1-6-0.33-0.33-0.66-0.66-1-1-0.33 0.99-0.66 1.98-1 3-0.32-4.08-0.374-6.37 1.75-9.94 2.25-2.06 2.25-2.06 6.25-2.06-0.523 2.76-1.11 5.33-2 8h2c1.78-4.97 1.78-4.97 1-10h2v-2h3v-2z" fill="#14274E"/>
<path transform="translate(231,1473)" d="m0 0h4v4h4c0.33 0.99 0.66 1.98 1 3 2.98 1.98 5.73 2.35 9.25 2.62 0.892 0.0748 1.78 0.15 2.7 0.227 1.01 0.0735 1.01 0.0735 2.05 0.148-0.33 0.99-0.66 1.98-1 3-3.3-0.33-6.6-0.66-10-1v-2h-4c1.34 2.68 2.17 2.96 5 4 2.91 0.38 5.82 0.508 8.75 0.625 1.19 0.058 1.19 0.058 2.4 0.117 1.95 0.0939 3.9 0.177 5.85 0.258v2h2v2h5v2c1.65 0.33 3.3 0.66 5 1v2h2c0.0269 1.96 0.0464 3.92 0.0625 5.88 0.0116 1.09 0.0232 2.18 0.0352 3.3-0.0977 2.82-0.0977 2.82-1.1 4.82-5.36 1.97-10.3 2.35-15.9 2.31-1.24-0.0052-1.24-0.0052-2.5-0.0105-10.2-0.178-24.9-0.673-32.6-8.3-1.04-8.96 0.647-18.2 2-27 5.75-1.12 5.75-1.12 8 0v-4c-0.66-0.33-1.32-0.66-2-1z" fill="#14274E"/>
<path transform="translate(251,900)" d="m0 0h1c0.0606 0.927 0.121 1.85 0.184 2.81 0.0838 1.2 0.168 2.4 0.254 3.63 0.0812 1.19 0.162 2.39 0.246 3.62-0.00703 2.83-0.00703 2.83 1.32 3.94 0.232 1.51 0.412 3.04 0.562 4.56 0.0838 0.826 0.168 1.65 0.254 2.5 0.0909 0.957 0.0909 0.957 0.184 1.93 0.33-2.64 0.66-5.28 1-8h1c0.0231 9.76 0.0409 19.5 0.0518 29.3 0.00523 4.53 0.0123 9.06 0.0236 13.6 0.0108 4.37 0.0168 8.74 0.0194 13.1 0.00185 1.67 0.00547 3.34 0.0109 5.01 0.00721 2.33 0.00826 4.66 0.0078 7 0.0036 0.698 0.00719 1.4 0.0109 2.11-0.0104 4.77-0.0104 4.77-1.12 5.88-0.101 2.56-0.14 5.09-0.133 7.65-0.00144 1.15-0.00144 1.15-0.0029 2.33-6.82e-4 1.63 0.00117 3.26 0.00534 4.89 0.00533 2.49 6.29e-5 4.99-0.00635 7.48 6.61e-4 1.58 0.00194 3.16 0.00391 4.74-0.00202 0.747-0.00405 1.49-0.00613 2.26 0.0143 3.15 0.134 5.64 1.14 8.65 0.0607 1.92 0.0585 3.84 0.0217 5.76-0.0201 1.18-0.0402 2.36-0.0609 3.58-0.027 1.28-0.0541 2.55-0.0819 3.86-0.0236 1.31-0.0472 2.61-0.0715 3.96-0.0628 3.47-0.132 6.93-0.202 10.4-0.0707 3.54-0.136 7.08-0.201 10.6-0.129 6.94-0.265 13.9-0.404 20.8h-1c-0.33-2.64-0.66-5.28-1-8-0.495 1.98-0.495 1.98-1 4h-2v8h-1c-1.27-8.78-1.13-17.5-1.09-26.4 0.00408-1.82 0.0079-3.65 0.0115-5.47 0.0157-6.38 0.0459-12.8 0.0784-19.2 0.00613-1.22 0.0123-2.43 0.0186-3.68 0.0898-17.4 0.206-34.8 0.337-52.2 0.00544-0.724 0.0109-1.45 0.0165-2.19 0.00545-0.725 0.0109-1.45 0.0165-2.2 0.0445-5.96 0.0842-11.9 0.123-17.9 0.0384-5.84 0.0803-11.7 0.125-17.5 0.0263-3.45 0.0511-6.9 0.0722-10.3 0.0242-3.81 0.0542-7.63 0.0856-11.4 0.00576-1.11 0.0115-2.22 0.0174-3.36 0.0632-6.76 0.464-13.4 1.19-20.2z" fill="#132344"/>
<path transform="translate(253,797)" d="m0 0h2c4.24 6.27 7.8 13.1 11 20 0.299 0.639 0.598 1.28 0.906 1.94 1.29 2.87 2.09 4.88 2.09 8.06 1.32 0.66 2.64 1.32 4 2-1.21 0.928-1.21 0.928-2.44 1.88-2.6 1.87-2.6 1.87-3.56 4.12h-2c-0.66 3.3-1.32 6.6-2 10h-4c0.66 1.65 1.32 3.3 2 5h-2c0.33 2.64 0.66 5.28 1 8-1.49 0.495-1.49 0.495-3 1 0.882 2.88 0.882 2.88 2 5 0.0467 2.33 0.0376 4.67 0 7-0.0695 5.46 0.162 10.7 0.977 16.1 0.00773 0.612 0.0155 1.22 0.0234 1.86-0.99 0.99-0.99 0.99-2 2-0.278 2.52-0.278 2.52-0.195 5.45 0.00645 1.08 0.0129 2.15 0.0195 3.26 0.0168 1.13 0.0335 2.26 0.0508 3.42 0.0135 1.7 0.0135 1.7 0.0273 3.44 0.0236 2.81 0.0566 5.62 0.0977 8.43h-2v23h-1c-0.0449-0.711-0.0898-1.42-0.136-2.16-0.211-3.22-0.444-6.44-0.677-9.66-0.0703-1.12-0.141-2.24-0.213-3.39-0.0806-1.07-0.161-2.15-0.244-3.25-0.0681-0.99-0.136-1.98-0.206-3-0.278-2.59-0.278-2.59-2.04-3.96-2.67-2.84-1.82-6.89-1.73-10.6 0.0119-0.955 0.0238-1.91 0.036-2.89 0.0501-3.37 0.128-6.74 0.21-10.1 0.0291-1.29 0.0581-2.57 0.0881-3.9 0.219-9.59 0.494-19.2 0.781-28.8 0.0914-3.09 0.179-6.18 0.267-9.28 0.475-16.7 1.02-33.4 1.86-50z" fill="#12264C"/>
<path transform="translate(254,1069)" d="m0 0h1v19h2c0.199 1.07 0.199 1.07 0.402 2.15 0.177 0.919 0.353 1.84 0.535 2.79 0.174 0.917 0.348 1.83 0.527 2.78 0.312 2.24 0.312 2.24 1.54 3.29 0.631 8.2 1.15 16.1-4 23-0.743 0.743-1.49 1.48-2.25 2.25-2.88 4.53-2.05 9.53-1.75 14.8h-2c-0.124 0.578-0.248 1.15-0.375 1.75-0.95 3.42-2.11 5.73-4.62 8.25-0.524 2.27-0.524 2.27-0.781 4.91-0.18 1.49-0.18 1.49-0.363 3-0.117 1.04-0.235 2.08-0.355 3.15-2.28 19.7-2.28 19.7-4.5 21.9 0.00755 3.8 0.079 7.59 0.215 11.4 0.0142 0.798 0.0284 1.6 0.043 2.42 0.0331 1.1 0.0331 1.1 0.0669 2.22-0.416 2.53-1.5 3.25-3.32 4.98-0.507 3.13-0.507 3.13-0.562 6.56-0.229 6.23-0.229 6.23-2.44 8.44v-3h-2c-0.617-14.1 1.27-27.5 3.56-41.4 0.363-2.26 0.726-4.53 1.09-6.79 2.36-14.6 4.99-29.1 8.09-43.6 2.83-13.3 4.38-26.7 5.26-40.3 1.32 0.33 2.64 0.66 4 1 0.33-4.95 0.66-9.9 1-15z" fill="#12274D"/>
<path transform="translate(448 1263)" d="m0 0c0.928 0.0825 1.86 0.165 2.81 0.25v6h2c1.32 3.62 2 6.1 2 10h2v6h-2c-0.144 1.01-0.289 2.02-0.438 3.06l-1.56 10.9h-2c-0.33 6.93-0.66 13.9-1 21h-2c0.165 0.928 0.33 1.86 0.5 2.81 0.624 4.19 0.491 8.31 0.34 12.5 0.176 2.91 0.946 5.01 2.16 7.65-1.65-0.33-3.3-0.66-5-1-0.495-2.47-0.495-2.47-1-5h-2c0.0928-1.64 0.0928-1.64 0.188-3.31 0.232-3.6 0.232-3.6-1.65-5.13-2-2.02-2.07-3.31-2.38-6.11-0.11-0.931-0.221-1.86-0.335-2.82-0.106-1.01-0.212-2.02-0.322-3.06-0.12-1.04-0.239-2.08-0.363-3.16-0.394-3.47-0.767-6.94-1.14-10.4-0.285-2.61-0.57-5.21-0.855-7.82-0.731-6.73-1.44-13.5-2.14-20.2 3.05-1.89 5.54-3.14 9-4 0.33-0.66 0.66-1.32 1-2-0.66-0.66-1.32-1.32-2-2 1.82-3.24 2.36-3.95 6.19-4.25z" fill="#142A50"/>
<path transform="translate(404 883)" d="m0 0c1.21 0.0406 1.21 0.0406 2.45 0.082 0.615 0.0348 1.23 0.0696 1.86 0.105 1.58 2.89 2.46 5.53 3.12 8.75 0.168 0.799 0.335 1.6 0.508 2.42 0.121 0.603 0.242 1.21 0.367 1.83h-2c0.33 0.99 0.66 1.98 1 3-0.0508 2.23-0.0508 2.23-0.312 4.62-0.118 1.19-0.118 1.19-0.238 2.41-0.148 0.647-0.296 1.29-0.449 1.96-0.66 0.33-1.32 0.66-2 1-0.687 2.12-0.687 2.12-1.12 4.56-0.289 1.46-0.577 2.93-0.875 4.44 0.99-2.97 1.98-5.94 3-9h2c0.305 6.98 0.323 11.8-3 18-0.551 3.66-0.81 7.31-1 11h-6c0.33-0.99 0.66-1.98 1-3 0.99-0.495 0.99-0.495 2-1-3.46-0.495-3.46-0.495-7-1 0.174 0.705 0.348 1.41 0.527 2.14 0.506 3.06 0.369 5.59 0.0352 8.68-0.102 0.976-0.204 1.95-0.309 2.96-0.0838 0.736-0.168 1.47-0.254 2.23h-1v-9h-10c-0.33-0.66-0.66-1.32-1-2h2v-4c-0.66-0.33-1.32-0.66-2-1 4.95-0.495 4.95-0.495 10-1-0.33-1.32-0.66-2.64-1-4v-2h-2c-0.33-3.63-0.66-7.26-1-11h2v-2.88-11.1h2v-2h-2v-6h3c-0.0619-1.09-0.124-2.19-0.188-3.31 0.188-3.69 0.188-3.69 1.41-5.41 2.3-1.66 3.66-1.59 6.47-1.47z" fill="#14274E"/>
<path transform="translate(436 784)" d="m0 0c0.799 0.111 1.6 0.222 2.42 0.336 0.603 0.0954 1.21 0.191 1.83 0.289 1 3 1 3 0.0625 5.19-0.351 0.598-0.701 1.2-1.06 1.81h-2c0.33 2.31 0.66 4.62 1 7 1.32-0.66 2.64-1.32 4-2v5c-0.99 0.495-0.99 0.495-2 1-0.606 2.8-0.959 5.6-1.34 8.43-0.66 2.57-0.66 2.57-3.66 4.57-0.733 3.07-0.733 3.07-1 6-2.31 0.66-4.62 1.32-7 2v-2c-0.66-0.33-1.32-0.66-2-1l2-4c-0.804 0.495-0.804 0.495-1.62 1-2.91 1.23-5.24 1.14-8.38 1-0.495-1.49-0.495-1.49-1-3-2.31-0.33-4.62-0.66-7-1v-5c-0.99-0.33-1.98-0.66-3-1 0.501-4.38 1.93-6.84 5-10h3c0.0825-0.722 0.165-1.44 0.25-2.19 0.945-3.54 2.08-5.29 4.75-7.81 3.69-0.688 3.69-0.688 7-1l1-2c3.1-2.02 5.14-2.16 8.75-1.62z" fill="#132A50"/>
<path transform="translate(458,1482)" d="m0 0c0.33 0.99 0.66 1.98 1 3h2v2c1.02-0.108 1.02-0.108 2.05-0.219 5.56-0.555 11-0.858 16.6-0.621 2.52-0.0595 2.52-0.0595 5.25-1.19 3.63-1.12 6.25-0.981 10-0.598 1.15 0.111 2.3 0.222 3.49 0.336 0.869 0.0954 1.74 0.191 2.63 0.289v-2h6v4h6v2c-1.98 0.33-3.96 0.66-6 1v2h11v4c-1.73 0.65-3.46 1.3-5.19 1.94-0.963 0.36-1.93 0.719-2.92 1.09-10.3 3.45-21.7 3.07-32.4 3.16-0.848 0.013-1.7 0.0259-2.57 0.0393-4.67 0.00696-8.59-0.251-12.9-2.23-0.875-2.12-0.875-2.12-1-4h-2c-0.953-4.76-1.08-9.17-1-14z" fill="#14274F"/>
<path transform="translate(220,1549)" d="m0 0c0.99 0.495 0.99 0.495 2 1 2.43 0.381 4.84 0.709 7.28 0.992 0.748 0.0872 1.5 0.174 2.27 0.264 9.65 1.06 19.3 1.45 29 1.87 1.9 0.0867 3.8 0.174 5.69 0.262 4.58 0.211 9.16 0.414 13.7 0.613v2c8.41 1.48 8.41 1.48 17 3-0.66 0.66-1.32 1.32-2 2 1.32 0.33 2.64 0.66 4 1v2c-12.7 0.863-25.4 1.13-38.2 1.18-1.69 0.00674-3.37 0.0169-5.06 0.0308-8.81 0.0666-17.6-0.0939-26.3-0.97-0.72-0.061-1.44-0.122-2.18-0.185-2-0.232-2-0.232-5.24-1.05-2.26-2.98-2.22-5.58-2.12-9.25 0.0271-1.34 0.0271-1.34 0.0547-2.7 0.0232-0.675 0.0464-1.35 0.0703-2.05z" fill="#F3BCAB"/>
<path transform="translate(161,509)" d="m0 0c2.1 2.42 3 3.78 3 7h3v2h2v2h2v2h2c0.33 4.29 0.66 8.58 1 13 2.31 0.33 4.62 0.66 7 1v11h-11v-4h-5v4h-2v-4h-3v4h-2v-11c-3.3-0.33-6.6-0.66-10-1v-11h3v2h4c0.309-0.639 0.619-1.28 0.938-1.94 1.06-2.06 1.06-2.06 2.06-3.06-2.97-0.33-5.94-0.66-9-1-1.44-6.23-1.44-6.23 0.375-9.44 3.8-2.26 7.31-2.53 11.6-1.56z" fill="#F3B9A8"/>
<path transform="translate(450,1382)" d="m0 0c2.02 0.602 4.02 1.27 6 2 0.33 0.66 0.66 1.32 1 2 0.99 0.33 1.98 0.66 3 1v5h2v2h3v2h2c0.0269 2.29 0.0464 4.58 0.0625 6.88 0.0116 1.28 0.0232 2.55 0.0352 3.87-0.0977 3.26-0.0977 3.26-1.1 5.26 0.99 0.33 1.98 0.66 3 1-0.66 0.33-1.32 0.66-2 1 0.186 0.619 0.371 1.24 0.562 1.88 0.438 2.12 0.438 2.12-0.562 4.12-0.233 2.88-0.42 5.74-0.562 8.62-0.0432 0.802-0.0864 1.6-0.131 2.43-0.106 1.98-0.207 3.96-0.307 5.95h-1v-5h-3c-0.495 2.47-0.495 2.47-1 5h-1v-5h-3c-0.33 0.99-0.66 1.98-1 3-0.99-0.33-1.98-0.66-3-1-0.717-6-1.43-12-2.14-18-0.241-2.04-0.484-4.08-0.728-6.11-0.351-2.94-0.697-5.87-1.04-8.81-0.109-0.904-0.219-1.81-0.331-2.74-0.56-4.81-1.07-9.51-0.762-14.3 0.66-0.66 1.32-1.32 2-2z" fill="#142A50"/>
<path transform="translate(384,993)" d="m0 0h3c-0.115 1.75-0.242 3.5-0.375 5.25-0.0696 0.975-0.139 1.95-0.211 2.95-0.399 2.69-1.05 4.47-2.41 6.8h2c0.66-3.3 1.32-6.6 2-10h4c-0.114 1.77-0.242 3.54-0.375 5.31-0.0696 0.986-0.139 1.97-0.211 2.99-0.414 2.7-0.414 2.7-2.41 5.7 0.66 0.33 1.32 0.66 2 1l1-2c0.99 0.33 1.98 0.66 3 1 0.914 2.14 0.914 2.14 1.62 4.81 0.24 0.873 0.48 1.75 0.727 2.64 0.556 2.18 1.11 4.36 1.65 6.54-1.32 0.66-2.64 1.32-4 2-0.33-0.66-0.66-1.32-1-2-0.99 1.98-1.98 3.96-3 6h-4v2h-3v-2h-2v-3h-3v-4h-2c-0.495 2.47-0.495 2.47-1 5-0.639 0.124-1.28 0.247-1.94 0.375-0.681 0.206-1.36 0.412-2.06 0.625-0.33 0.66-0.66 1.32-1 2-1.58-1.58-1.35-3.38-1.56-5.56-0.0838-0.826-0.168-1.65-0.254-2.5-0.0909-0.957-0.0909-0.957-0.184-1.93 1.65-0.33 3.3-0.66 5-1v-4c-0.66-0.33-1.32-0.66-2-1h2v-4h-2v-2h-6v-1c0.949-0.206 1.9-0.413 2.88-0.625 3.42-1.08 3.42-1.08 4.5-4.5 0.206-0.949 0.413-1.9 0.625-2.88l1 2h4v-4c1-2.25 1-2.25 2-4h3v-3z" fill="#142B51"/>
<path transform="translate(463,1371)" d="m0 0c3.88 4.75 3.88 4.75 5 7h2c-0.0116 0.759-0.0232 1.52-0.0352 2.3-0.00902 0.994-0.018 1.99-0.0273 3.01-0.0116 0.986-0.0232 1.97-0.0352 2.99-0.0256 2.8-0.0256 2.8 1.1 5.7h2c0.33 3.3 0.66 6.6 1 10h2c-0.33-1.65-0.66-3.3-1-5h3v6h2c0.386 8.1-1.17 14-4.5 21.3-1.76 4.33-2.75 8.65-3.75 13.2-0.246 0.817-0.492 1.63-0.746 2.48-0.99 0.495-0.99 0.495-2 1 0.33-2.64 0.66-5.28 1-8h-2v3h-2v-18h2c-0.338-0.817-0.675-1.63-1.02-2.48-1.17-4.21-0.991-7.59-0.602-11.9 0.0567-0.736 0.113-1.47 0.172-2.23 0.14-1.8 0.295-3.6 0.453-5.39h-2c-0.0606-1.05-0.121-2.1-0.184-3.18-0.0844-1.38-0.169-2.76-0.254-4.14-0.0393-0.69-0.0786-1.38-0.119-2.09-0.193-3.07-0.467-5.67-1.44-8.6-0.0395-2.33-0.044-4.67 0-7z" fill="#14274E"/>
<path transform="translate(435,985)" d="m0 0h3v2h-2v3c0.577-0.186 1.15-0.371 1.75-0.562 2.47-0.481 3.86-0.115 6.25 0.562 0.625 5.02 1.13 9.93 1 15-1.65 0.33-3.3 0.66-5 1 0.0619 0.825 0.124 1.65 0.188 2.5-0.23 4.3-1.57 7.56-3.19 11.5-1.3 3.47-2.14 6.64-2.56 10.3-0.438 3.69-0.438 3.69-1.44 4.69-2 0.0408-4 0.0425-6 0v-8h-2c-0.234-8.75 1.44-17.4 4.69-25.6 1.24-3.24 1.41-5.07 1.31-8.44 1-2.31 1-2.31 2-4h2v-4z" fill="#142A50"/>
<path transform="translate(549,1200)" d="m0 0c0.0512 6.72 0.086 13.4 0.11 20.2 0.00998 2.28 0.0236 4.56 0.041 6.84 0.181 24.3 0.181 24.3-2.15 36-0.99-0.99-1.98-1.98-3-3-0.66 0.66-1.32 1.32-2 2-2-2-2-2-2.2-4.18 0.0222-0.902 0.0444-1.8 0.0673-2.73 0.0202-1.02 0.0403-2.04 0.0611-3.09 0.0322-1.11 0.0644-2.21 0.0976-3.35 0.025-1.13 0.0501-2.26 0.0758-3.42 0.0824-3.62 0.179-7.23 0.276-10.9 0.0582-2.45 0.116-4.9 0.172-7.34 0.14-6.01 0.292-12 0.453-18h1c0.33-2.31 0.66-4.62 1-7 4.88-2 4.88-2 6-2z" fill="#132344"/>
<path transform="translate(227,1378)" d="m0 0c2.69 4.24 2.41 8.71 2.57 13.6 0.166 3.64 0.361 5.29 2.43 8.4 0.0791 2.33 0.088 4.67 0 7 0.66 0.33 1.32 0.66 2 1 1.06 3.73 1.12 7.32 1.1 11.2-0.00322 1.16-0.00645 2.31-0.00977 3.51-0.00838 1.2-0.0168 2.4-0.0254 3.63-0.00451 1.22-0.00902 2.44-0.0137 3.69-0.0118 3-0.0282 6-0.0488 9h-2c-0.0816-4.16 0.0175-7.95 1-12h-2v5h-2c-0.33 0.99-0.66 1.98-1 3-3.76-6.26-3.11-13.8-3-20.8 0.0255-1.69 0.0465-3.39 0.0625-5.08 0.0174-1.11 0.0174-1.11 0.0352-2.25 0.0216-1.95 0.0216-1.95-1.1-3.86-0.0847-1.81-0.107-3.63-0.0977-5.45 0.00322-1.08 0.00645-2.15 0.00977-3.26 0.00838-1.13 0.0168-2.26 0.0254-3.42 0.00451-1.14 0.00902-2.27 0.0137-3.44 0.0118-2.81 0.0283-5.62 0.0488-8.43 0.66-0.33 1.32-0.66 2-1z" fill="#142A50"/>
<path transform="translate(348,870)" d="m0 0c2.64 0.33 5.28 0.66 8 1-0.33 0.66-0.66 1.32-1 2 1.32 0.33 2.64 0.66 4 1v2c0.66 0.33 1.32 0.66 2 1h-2c0.186 0.742 0.371 1.49 0.562 2.25 0.44 2.76 0.576 4.21-0.562 6.75-1.88 1.06-1.88 1.06-4 2-1.71 1.54-1.71 1.54-3 3 0.33 0.99 0.66 1.98 1 3-0.33 0.33-0.66 0.66-1 1-0.206 1.33-0.366 2.66-0.5 4-0.389 3.89-0.389 3.89-1.5 5-1.67 0.0406-3.33 0.0427-5 0-1.25-2.49-0.777-3.41 0-6h-2v4c-2.87-0.573-3.86-0.861-6-3 3.09-1.76 4.23-2 8-2-0.342-2.97-0.342-2.97-1-6-0.66-0.33-1.32-0.66-2-1 0.66-0.99 1.32-1.98 2-3 0.33-0.99 0.66-1.98 1-3l1 2h4v-3c-1.32-0.66-2.64-1.32-4-2h3c-0.351-0.619-0.701-1.24-1.06-1.88-0.309-0.701-0.619-1.4-0.938-2.12 0.33-0.66 0.66-1.32 1-2-0.66-0.33-1.32-0.66-2-1h2v-4z" fill="#142A50"/>
<path transform="translate(408,851)" d="m0 0h5c-0.107 1.05-0.214 2.1-0.324 3.18-0.122 1.38-0.243 2.76-0.363 4.14-0.0728 0.69-0.146 1.38-0.221 2.09-0.435 3.99-0.435 3.99 1.38 7.38 0.505 0.402 1.01 0.804 1.53 1.22 0.188 3.19 0.188 3.19 0 6h-2l1 2h2v-9c1.32 0.33 2.64 0.66 4 1v11h-2v6c-1.32-0.33-2.64-0.66-4-1h2c-0.348-1.98-0.348-1.98-1-4-0.66-0.33-1.32-0.66-2-1v6h-2c-0.66-5.28-1.32-10.6-2-16h-2c-0.33 2.64-0.66 5.28-1 8h-1c-0.0619-1.07-0.124-2.14-0.188-3.25-0.961-4.44-2.19-5.24-5.81-7.75v-2c-0.66-0.33-1.32-0.66-2-1 0.33-1.98 0.66-3.96 1-6h10v-2c0.66-0.33 1.32-0.66 2-1v-2h-2v-2z" fill="#14274E"/>
<path transform="translate(303,770)" d="m0 0c0.894 2.45 1.14 3.63 0.215 6.12-0.422 0.747-0.843 1.49-1.28 2.26-0.464 0.834-0.927 1.67-1.41 2.53-0.506 0.877-1.01 1.75-1.53 2.66-0.508 0.9-1.02 1.8-1.54 2.73-5.65 9.93-11.8 19.4-18.5 28.7-0.539 0.77-1.08 1.54-1.63 2.33-0.513 0.715-1.03 1.43-1.55 2.17-0.447 0.629-0.895 1.26-1.36 1.91-1.65 1.81-3.22 2.64-5.46 3.59-1.56-1.69-1.56-1.69-3-4 0.282-2.89 1.08-5.24 2-8h8c0.268-0.763 0.536-1.53 0.812-2.31 1.19-2.69 1.19-2.69 2.75-4.06 1.92-2.17 1.75-3.46 1.62-6.31-0.0271-0.808-0.0541-1.62-0.082-2.45-0.0348-0.615-0.0696-1.23-0.105-1.86 1.65-0.66 3.3-1.32 5-2-0.66-0.66-1.32-1.32-2-2 1.99-0.381 3.99-0.713 6-1 0.33 0.33 0.66 0.66 1 1 0.838-1.62 1.67-3.25 2.5-4.88 0.696-1.36 0.696-1.36 1.41-2.74 1.23-2.25 1.23-2.25 1.09-4.38 0.454-0.433 0.908-0.866 1.38-1.31 1.97-2.04 2.69-4.03 3.62-6.69h2v-2z" fill="#F3BBA9"/>
<path transform="translate(321,819)" d="m0 0h2v5h-2c-0.33 1.98-0.66 3.96-1 6-0.624 0.0709-1.25 0.142-1.89 0.215-2.3 0.585-2.3 0.585-3.16 2.85-0.348 1.24-0.348 1.24-0.703 2.5-0.242 0.826-0.485 1.65-0.734 2.5-0.17 0.638-0.34 1.28-0.516 1.93-2.64-0.33-5.28-0.66-8-1v-6h-2v-6h2v-6h6v2h2v-2h8v-2z" fill="#15274F"/>
<path transform="translate(499,1466)" d="m0 0c0.66 0.33 1.32 0.66 2 1-0.33 0.66-0.66 1.32-1 2h-2v3h2v2h-2v4c-5.28 0.66-10.6 1.32-16 2v2c-8.4 1.22-15 0.797-23-2v-5c0.969 0.144 1.94 0.289 2.94 0.438 0.636 0.0864 1.27 0.173 1.93 0.262 1.48 0.208 2.96 0.442 4.43 0.695 0.77 0.117 1.54 0.235 2.33 0.355 0.714 0.119 1.43 0.237 2.16 0.359 2.36 0.061 2.36 0.061 4.56-1.55 3.27-1.92 5.7-2.06 9.46-2.25 1.16-0.0657 2.32-0.131 3.52-0.199 0.88-0.0374 1.76-0.0748 2.67-0.113 0.115-0.623 0.229-1.25 0.348-1.89 0.652-2.11 0.652-2.11 3.09-3.93 0.846-0.392 1.69-0.784 2.56-1.19z" fill="#13274D"/>
<path transform="translate(236,1165)" d="m0 0c0.99 0.33 1.98 0.66 3 1 0.0742 4.79 0.129 9.57 0.165 14.4 0.0151 1.63 0.0356 3.26 0.0615 4.89 0.0364 2.34 0.0534 4.68 0.0667 7.02 0.0155 0.728 0.031 1.46 0.0469 2.21 0.0017 5.11 0.0017 5.11-1.83 7.32-0.498 0.399-0.996 0.798-1.51 1.21-0.507 3.13-0.507 3.13-0.562 6.56-0.229 6.23-0.229 6.23-2.44 8.44v-3h-2c-1.16-16.9 2.24-33.4 5-50z" fill="#12264B"/>
<path transform="translate(536,1132)" d="m0 0c2 2 2 2 2.23 4.43-0.0142 0.953-0.0284 1.91-0.043 2.89-0.00645 0.945-0.0129 1.89-0.0195 2.86-0.16 2.7-0.569 5.19-1.17 7.82h-1c-0.733 8.79-1.09 17.2-0.262 26 0.734 8.39 0.125 16.7-0.378 25.1-1.12 12.1-1.12 12.1 0.64 23.9 0.169 4.48-0.142 8.6-1 13h-2c-0.0821-4.19 0.181-7.91 1-12-0.33-0.66-0.66-1.32-1-2-1.3-10.6-0.938-21.1-0.231-31.7 0.331-5.69 0.0347-9.94-1.77-15.3 0.197-1.84 0.406-3.69 0.711-5.52 0.379-3.26 0.323-6.45 0.289-9.73-0.0244-4.87 0.0143-9.7 0.312-14.6 0.058-0.955 0.116-1.91 0.176-2.89 0.512-2.29 0.512-2.29 3.51-4.29 0.363-1.98 0.363-1.98 0.188-4.12-0.0619-1.28-0.124-2.56-0.188-3.88z" fill="#13274D"/>
<path transform="translate(286,860)" d="m0 0h2v2c0.99 0.33 1.98 0.66 3 1-1.32 0.99-2.64 1.98-4 3 0.66 0.33 1.32 0.66 2 1l1-2c-0.33 1.32-0.66 2.64-1 4h-11l-2 4h-2v4c-0.763 0.124-1.53 0.247-2.31 0.375-3.88 2.35-4.12 5.26-5.21 9.51-0.159 0.699-0.317 1.4-0.48 2.12-0.66-0.33-1.32-0.66-2-1-1.09-4.57-1.5-9.5 0-14 0.66-0.66 1.32-1.32 2-2h3c0.144-0.577 0.289-1.15 0.438-1.75 0.36-1.44 0.734-2.88 1.12-4.31 0.548-2.09 0.548-2.09 0.438-4.94 0.557 0.186 1.11 0.371 1.69 0.562 2.71 0.513 4.66 0.102 7.31-0.562v2h-3v3h4c0.33-0.99 0.66-1.98 1-3 1.32 0.33 2.64 0.66 4 1v-4z" fill="#14274E"/>
<path transform="translate(449,164)" d="m0 0c1 1 1 1 1 8-17.3 0.495-17.3 0.495-35 1 1-4 1-4 2.61-4.98 10.1-3.07 20.8-4.89 31.4-4.02z" fill="#132344"/>
<path transform="translate(726,263)" d="m0 0c0.99 0.66 1.98 1.32 3 2-0.153 7.96-3.79 13.4-8 20-0.99-0.33-1.98-0.66-3-1-0.33 0.66-0.66 1.32-1 2-1.98-0.33-3.96-0.66-6-1 0.99-1.49 0.99-1.49 2-3-0.22-0.585-0.441-1.17-0.668-1.77-0.332-2.23-0.332-2.23 1.62-5.39 0.9-1.16 1.81-2.32 2.74-3.46 0.448-0.585 0.896-1.17 1.36-1.77 2.35-2.99 4.32-5.29 7.96-6.6z" fill="#F3B9A8"/>
<path transform="translate(457,1432)" d="m0 0h3c0.33 0.66 0.66 1.32 1 2 0.33-0.66 0.66-1.32 1-2h3c1.83 4.59 2.13 7.97 1.62 12.9-0.166 1.73-0.166 1.73-0.336 3.49-0.143 1.3-0.143 1.3-0.289 2.63-0.99 0.33-1.98 0.66-3 1-1.37 1.29-2.71 2.62-4 4l-3-6h-1c-0.33-5.28-0.66-10.6-1-16h2c0.33-0.66 0.66-1.32 1-2z" fill="#14274E"/>
<path transform="translate(281,901)" d="m0 0h5v4c1.65 0.33 3.3 0.66 5 1l1-2 3 3c-0.99 0.33-1.98 0.66-3 1v2h3c-0.114 1.77-0.242 3.54-0.375 5.31-0.0696 0.986-0.139 1.97-0.211 2.99-0.414 2.7-0.414 2.7-2.41 5.7-0.66-0.33-1.32-0.66-2-1l1-2h-6c-0.66-1.65-1.32-3.3-2-5h2c-1.31-3.12-1.31-3.12-4-5v-10z" fill="#142A50"/>
<path transform="translate(358 1558)" d="m0 0c0.909-0.0206 1.82-0.0412 2.75-0.0625 6.56-0.0373 12.1 1.1 18.2 3.31-3.5 2.33-6.7 2.86-10.8 3.56-1.04 0.189-1.04 0.189-2.09 0.381-2.05 0.368-4.1 0.716-6.16 1.06-1.21 0.204-2.43 0.407-3.68 0.617-3.09 0.356-5.69 0.324-8.76-0.0547-1.3-0.153-1.3-0.153-2.62-0.309-0.641-0.0838-1.28-0.168-1.94-0.254 3.75-3 3.75-3 6-3v-3c-0.99-0.33-1.98-0.66-3-1 3.66-1.83 7.97-1.23 12-1.25z" fill="#F3BCAA"/>
<path transform="translate(237,1200)" d="m0 0h1c-0.144 1.26-0.289 2.52-0.438 3.82-0.391 3.51-0.742 7.03-1.06 10.5-0.0825 0.905-0.165 1.81-0.25 2.74-0.169 1.87-0.335 3.73-0.5 5.6-0.0825 0.897-0.165 1.79-0.25 2.72-0.0722 0.807-0.144 1.61-0.219 2.44-0.281 2.13-0.281 2.13-1.28 5.13h-2c-0.66 3.96-1.32 7.92-2 12h-1c-1.07-13-0.745-25.1 1-38h1v8c0.99 0.33 1.98 0.66 3 1 0.049-0.904 0.098-1.81 0.148-2.74 0.112-1.77 0.112-1.77 0.227-3.57 0.0696-1.17 0.139-2.34 0.211-3.55 0.414-3.14 0.414-3.14 2.41-6.14z" fill="#11274D"/>
<path transform="translate(497,133)" d="m0 0h3c2.89 10.8 2.19 21.9 2 33-0.99 0.495-0.99 0.495-2 1-2.41-1.78-2.98-2.93-3.69-5.88-0.967-9.36-0.358-18.8 0.688-28.1z" fill="#182E55"/>
<path transform="translate(498,1452)" d="m0 0c5.01 0.615 10 1.27 15 2v5h-11c-0.99 0.33-1.98 0.66-3 1-0.33 0.99-0.66 1.98-1 3h-3l-1 4h-5v-5c1.32-0.33 2.64-0.66 4-1l1-4h2c0.66-1.65 1.32-3.3 2-5z" fill="#13274D"/>
<path transform="translate(390,962)" d="m0 0h4c0.33 2.31 0.66 4.62 1 7 0.66-0.99 1.32-1.98 2-3h2c0.33 4.62 0.66 9.24 1 14h-4c-0.33 1.32-0.66 2.64-1 4v-4c-0.66-0.33-1.32-0.66-2-1h2v-4h-4v4h-2c-0.194-1.65-0.38-3.29-0.562-4.94-0.104-0.917-0.209-1.83-0.316-2.78-0.04-0.754-0.0799-1.51-0.121-2.29 0.33-0.33 0.66-0.66 1-1-0.99-0.66-1.98-1.32-3-2h2v-2h2v-2z" fill="#142B51"/>
<path transform="translate(439 181)" d="m0 0c2.31 1.75 2.31 1.75 3.31 3.75 0.12 1.5 0.175 3 0.188 4.5 0.0142 0.794 0.0284 1.59 0.043 2.41-0.23 2.09-0.23 2.09-2.23 4.09-3.99-0.0725-6.19-0.191-9.06-3.06-1.3-4.08-0.697-7.07 1.06-10.9 2.65-2.47 3.41-2.28 6.69-0.75z" fill="#132344"/>
<path transform="translate(227,1253)" d="m0 0c0.66 0.99 1.32 1.98 2 3 0.33-0.66 0.66-1.32 1-2 2.17 0.506 4 1 6 2 0.855 4.66 1.3 8.38 0 13h-4c-0.33 1.65-0.66 3.3-1 5h-3c-2.12-3.17-2.23-3.67-1.98-7.23 0.0516-0.802 0.103-1.6 0.156-2.43 0.0645-0.833 0.129-1.67 0.195-2.53 0.0567-0.845 0.113-1.69 0.172-2.56 0.141-2.08 0.296-4.17 0.453-6.25z" fill="#142B51"/>
<path transform="translate(534,1251)" d="m0 0h1c0.841 7.77 1.15 15.4 1.13 23.2 9.57e-4 1.12 0.00191 2.25 0.0029 3.41 6.76e-4 2.36-0.00114 4.71-0.00534 7.07-0.00538 3.6-2.16e-5 7.21 0.00635 10.8-6.6e-4 2.3-0.00194 4.6-0.00391 6.9 0.00202 1.07 0.00405 2.14 0.00613 3.25-0.0153 4.89-0.102 9.53-1.14 14.3-0.66-0.33-1.32-0.66-2-1-0.0255-7.76-0.0429-15.5-0.0549-23.3-5e-3 -2.63-0.0118-5.27-0.0205-7.9-0.0122-3.8-0.0178-7.61-0.0222-11.4-0.00516-1.16-0.0103-2.33-0.0156-3.52-4.95e-4 -7.35 0.382-14.6 1.11-21.9z" fill="#11284E"/>
<path transform="translate(273,981)" d="m0 0c0.433 0.959 0.433 0.959 0.875 1.94 0.953 2.21 0.953 2.21 3.12 3.06 0.786 2.16 1.48 4.35 2.12 6.56 0.53 1.8 0.53 1.8 1.07 3.63 0.266 0.927 0.531 1.85 0.805 2.81h-2v3h-2v2h-5c-0.223-2.71-0.429-5.42-0.625-8.12-0.0645-0.761-0.129-1.52-0.195-2.3-0.323-4.68-0.0311-8.15 1.82-12.6z" fill="#142B51"/>
<path transform="translate(264,751)" d="m0 0c0.66 0.33 1.32 0.66 2 1v5h2v2c1.67-0.0309 1.67-0.0309 3.38-0.0625 3.62 0.0625 3.62 0.0625 5.62 1.06v5c-0.99 0.495-0.99 0.495-2 1-0.429 0.512-0.859 1.02-1.3 1.55-2.34 1.99-3.86 1.75-6.89 1.64-1.35-0.0406-1.35-0.0406-2.73-0.082-0.687-0.0348-1.37-0.0696-2.08-0.105l-1-2c0.66-0.99 1.32-1.98 2-3 0.46-3.2 0.46-3.2 0.625-6.69 0.0748-1.18 0.15-2.36 0.227-3.57 0.049-0.904 0.098-1.81 0.148-2.74z" fill="#F3BBA9"/>
<path transform="translate(479,179)" d="m0 0c2.38 0.312 2.38 0.312 5 1 2.09 3.13 2.27 3.97 2.25 7.56 0.00516 0.785 0.0103 1.57 0.0156 2.38-0.266 2.06-0.266 2.06-2.27 4.06-3.5-0.188-3.5-0.188-7-1-2-3-2-3-1.81-5.88 0.827-3.18 1.98-5.42 3.81-8.12z" fill="#132344"/>
<path transform="translate(355 933)" d="m0 0c1.37 0.0174 1.37 0.0174 2.78 0.0352 0.919 0.00902 1.84 0.018 2.79 0.0273 0.71 0.0116 1.42 0.0232 2.15 0.0352v8h4v6h-6v-4h-4v-2c-1.65-0.33-3.3-0.66-5-1-0.0425-2-0.0408-4 0-6 1-1 1-1 3.29-1.1z" fill="#15274F"/>
<path transform="translate(460,766)" d="m0 0c2.14 3.2 2.23 4.02 2.12 7.69-0.018 0.808-0.0361 1.62-0.0547 2.45-0.0348 0.922-0.0348 0.922-0.0703 1.86-3.09 1.76-4.23 2-8 2v2h-3c-0.381-1.99-0.713-3.99-1-6 0.33-0.33 0.66-0.66 1-1 0.694-2.33 1.36-4.66 2-7h7v-2z" fill="#132A50"/>
<path transform="translate(236,1165)" d="m0 0c0.99 0.33 1.98 0.66 3 1 0.499 22.3 0.499 22.3-4.12 29.1-0.619 0.619-1.24 1.24-1.88 1.88-0.921-4.38-0.943-7.87-0.223-12.3 0.184-1.15 0.367-2.31 0.557-3.5 0.199-1.19 0.398-2.38 0.604-3.61 0.195-1.21 0.391-2.43 0.592-3.68 0.482-2.98 0.972-5.97 1.47-8.95z" fill="#132344"/>
<path transform="translate(645,1534)" d="m0 0c-3.46 4.27-7.08 5.27-12.2 6.62-1.14 0.317-1.14 0.317-2.31 0.641-14.9 4.1-14.9 4.1-20.5 3.73 0.99-0.66 1.98-1.32 3-2-1.32-0.66-2.64-1.32-4-2 5.31-2.14 10.2-2.42 15.9-2.62 1.32-0.058 1.32-0.058 2.66-0.117 2.15-0.0936 4.31-0.177 6.46-0.258-0.33-0.66-0.66-1.32-1-2 4.12-2 7.45-2.18 12-2z" fill="#F3BCAA"/>
<path transform="translate(231,1359)" d="m0 0h4v2h2v2c0.99 0.33 1.98 0.66 3 1-0.165 0.804-0.33 1.61-0.5 2.44-0.592 4.22-0.585 8.31-0.5 12.6-2-3-2-3-2-6-0.598-0.144-1.2-0.289-1.81-0.438-1.75-0.45-3.47-0.991-5.19-1.56-1.19-2.56-1.19-2.56-2-5h2c0.33-2.31 0.66-4.62 1-7z" fill="#11284E"/>
<path transform="translate(226,1282)" d="m0 0c0.99 0.33 1.98 0.66 3 1 0.191 19.3 0.191 19.3-1 29-0.99-0.33-1.98-0.66-3-1-0.0247-3.97-0.0428-7.94-0.0549-11.9-0.00504-1.35-0.0119-2.7-0.0205-4.05-0.0121-1.94-0.0173-3.88-0.0222-5.82-0.00524-1.17-0.0105-2.34-0.0159-3.54 0.114-2.68 0.114-2.68 1.11-3.68z" fill="#142A50"/>
<path transform="translate(226,1320)" d="m0 0h3v17h-2v22h-2c-0.0294-4.44-0.0469-8.87-0.0625-13.3-0.00838-1.24-0.0168-2.49-0.0254-3.77-0.0193-7.37 0.249-14.6 1.09-21.9z" fill="#11274E"/>
<path transform="translate(479,1427)" d="m0 0h5c0.33 0.66 0.66 1.32 1 2 2.02 1.13 2.02 1.13 4 2-0.66 1.32-1.32 2.64-2 4 0.66 0.33 1.32 0.66 2 1-0.66 0.66-1.32 1.32-2 2-0.714 1.98-1.39 3.98-2 6h-5c-0.68-5.27 1.75-9.39 4-14-1.65-0.33-3.3-0.66-5-1v-2z" fill="#13274D"/>
<path transform="translate(535,1085)" d="m0 0h1c0.173 13 0.173 13-0.5 19.5-0.917 9.46-0.582 19-0.5 28.5h-2c-0.0506-6.51-0.0857-13-0.11-19.5-0.0101-2.22-0.0237-4.43-0.041-6.65-0.0242-3.18-0.0356-6.36-0.0444-9.55-0.0103-0.996-0.0206-1.99-0.0313-3.02-1.51e-4 -0.921-3.02e-4 -1.84-4.58e-4 -2.79-0.00444-0.813-0.00888-1.63-0.0135-2.46 0.241-1.99 0.241-1.99 2.24-3.99z" fill="#13274D"/>
<path transform="translate(247,1219)" d="m0 0h2v8h4v8h2v2h-4v-2h-6v-6h2v-10z" fill="#11284E"/>
<path transform="translate(396,1014)" d="m0 0 3 12c-1.98 0.99-1.98 0.99-4 2-0.33-0.66-0.66-1.32-1-2l-3 6c-0.66-0.66-1.32-1.32-2-2 0.33-0.66 0.66-1.32 1-2h-2v-2h2c0.33-1.98 0.66-3.96 1-6 0.99-0.33 1.98-0.66 3-1l1-2h-4v-2c3-1 3-1 5-1z" fill="#162A52"/>
<path transform="translate(257,989)" d="m0 0c1.89 2.39 3.02 4.07 4 7h2v3h2v5h-6c-0.33 1.98-0.66 3.96-1 6h-1c-0.794-7.22-1.08-13.8 0-21z" fill="#142B51"/>
<path transform="translate(391,1014)" d="m0 0v3h4c-0.33 0.99-0.66 1.98-1 3h-4c-0.33 1.32-0.66 2.64-1 4h-3v6c-0.33-0.66-0.66-1.32-1-2-0.66-0.33-1.32-0.66-2-1 0.66-1.32 1.32-2.64 2-4h-2v-2h2c0.33-1.98 0.66-3.96 1-6 3-1 3-1 5-1z" fill="#14284F"/>
<path transform="translate(447,1377)" d="m0 0c2.31 0.66 4.62 1.32 7 2v3c0.66-0.33 1.32-0.66 2-1-0.33-1.32-0.66-2.64-1-4h2v2h2v8c-0.99-0.33-1.98-0.66-3-1-0.33-0.66-0.66-1.32-1-2-2.02-0.652-2.02-0.652-4-1-0.33 2.31-0.66 4.62-1 7h-1v-6h-2v-7z" fill="#14274F"/>
<path transform="translate(377,965)" d="m0 0h9v2c1.32 0.33 2.64 0.66 4 1l-2 1v3c-1.26 0.0206-2.52 0.0412-3.81 0.0625-0.708 0.0116-1.42 0.0232-2.14 0.0352-2.04-0.0977-2.04-0.0977-5.04-1.1v-6z" fill="#15274F"/>
<path transform="translate(428,1222)" d="m0 0h2c4.78 7.16 4.25 15.7 4 24-0.103-0.639-0.206-1.28-0.312-1.94-0.34-1.02-0.34-1.02-0.688-2.06-0.99-0.33-1.98-0.66-3-1-0.66-6.27-1.32-12.5-2-19z" fill="#12274D"/>
<path transform="translate(363,1177)" d="m0 0c1.27 2.54 0.84 3.46 0.188 6.19-0.189 0.797-0.379 1.59-0.574 2.41-0.807 3.15-1.68 6.28-2.61 9.4-2.34-2.34-3.3-4.56-4.09-7.76 0.158-3.95 2.82-6.09 5.49-8.77 0.529-0.485 1.06-0.969 1.6-1.47z" fill="#12264C"/>
<path transform="translate(528,944)" d="m0 0h2v2c0.66 0.33 1.32 0.66 2 1 0.226 3.58 0.428 7.17 0.625 10.8 0.0645 1.02 0.129 2.03 0.195 3.08 0.0516 0.98 0.103 1.96 0.156 2.97 0.0524 0.901 0.105 1.8 0.159 2.73-0.146 2.66-0.778 4.2-2.14 6.47-2.11-20-2.11-20-3-29z" fill="#11284E"/>
<path transform="translate(389,972)" d="m0 0c0.228 2.05 0.456 4.1 0.684 6.15 0.135 1.86 0.135 1.86 1.32 2.85 0.0408 2 0.0425 4 0 6h-5v-14c2-1 2-1 3-1z" fill="#14284F"/>
<path transform="translate(194,644)" d="m0 0c3 3 3 3 3.19 5.69-0.0928 1.14-0.0928 1.14-0.188 2.31 0.66 0.33 1.32 0.66 2 1v-7h-2v-2c1.32 0.33 2.64 0.66 4 1v7h4v2h-11v-10z" fill="#F4B9A8"/>
<path transform="translate(457,820)" d="m0 0c0.99 0.33 1.98 0.66 3 1-0.33 2.31-0.66 4.62-1 7h-2c-0.33 1.32-0.66 2.64-1 4-0.639 0.124-1.28 0.247-1.94 0.375-0.681 0.206-1.36 0.413-2.06 0.625l-1 2c0.461-4.95 1.84-7.24 5-11 0.778-2.18 0.778-2.18 1-4z" fill="#13274D"/>
<path transform="translate(489,746)" d="m0 0c-0.99 1.49-0.99 1.49-2 3-2.32 0.414-4.66 0.749-7 1l-2 1c-2 0.04-4 0.0435-6 0 1.32-0.66 2.64-1.32 4-2v-3c1.41-0.392 2.83-0.763 4.25-1.12 0.789-0.209 1.58-0.418 2.39-0.633 2.78-0.285 4.02 0.308 6.36 1.76z" fill="#15274F"/>
<path transform="translate(239,1241)" d="m0 0h2c2.33 8.67 2.2 17.1 2 26h-1c-1.23-5.67-1.09-11.2-1-17h-2v-9z" fill="#11284E"/>
<path transform="translate(290,1377)" d="m0 0h3v2h2v2h2v6c-0.99 0.495-0.99 0.495-2 1v-2c-0.804-0.247-1.61-0.495-2.44-0.75-2.56-1.25-2.56-1.25-3.38-3.38-0.0619-0.619-0.124-1.24-0.188-1.88h2c-0.33-0.99-0.66-1.98-1-3z" fill="#13274D"/>
<path transform="translate(237,1159)" d="m0 0h2c2 2 2 2 2.23 4.79-0.0737 5.82-0.164 11.5-1.23 17.2h-1c-0.0606-1.07-0.121-2.14-0.184-3.25-0.0844-1.4-0.169-2.79-0.254-4.19-0.059-1.06-0.059-1.06-0.119-2.14 0.0804-3.51 0.0804-3.51-1.44-6.42-0.0408-2-0.0425-4 0-6z" fill="#13264C"/>
<path transform="translate(588,1545)" d="m0 0h22v1c-2.89 0.364-5.79 0.716-8.69 1.06-1.22 0.156-1.22 0.156-2.47 0.314-4.18 0.491-7.73 0.821-11.8-0.377 0.33-0.66 0.66-1.32 1-2z" fill="#F3BCAA"/>
<path transform="translate(485,1497)" d="m0 0h4v2c3.88 0.0747 7.26-0.00198 11-1 1.67-0.0379 3.33-0.0463 5 0-1.06 1.48-1.06 1.48-3 3-3.25 0.363-3.25 0.363-7 0.312-1.24-0.00387-2.48-0.00773-3.75-0.0117-3.25-0.301-3.25-0.301-6.25-2.3v-2z" fill="#11274E"/>
<path transform="translate(543,1183)" d="m0 0c2.48 0.99 2.48 0.99 5 2v8c-0.99 0.33-1.98 0.66-3 1-0.66-0.33-1.32-0.66-2-1v-10z" fill="#132344"/>
<path transform="translate(399,1024)" d="m0 0c2 3 2.28 3.63 2.25 7 0.00516 0.681 0.0103 1.36 0.0156 2.06-0.266 1.94-0.266 1.94-2.27 4.94-2.39-4.79-3.66-7.64-2-13 0.66-0.33 1.32-0.66 2-1z" fill="#FBF4F7"/>
<path transform="translate(490,1421)" d="m0 0c2.64 0.33 5.28 0.66 8 1v5c-2.97-0.33-5.94-0.66-9-1 0.33-1.65 0.66-3.3 1-5z" fill="#13274D"/>
<path transform="translate(257,973)" d="m0 0c3 3 3 3 3.29 5.92-0.0348 1.08-0.0696 2.16-0.105 3.27-0.0406 1.63-0.0406 1.63-0.082 3.29-0.0348 0.831-0.0696 1.66-0.105 2.52h-3v-4c-0.66-0.33-1.32-0.66-2-1h2v-10z" fill="#142A50"/>
<path transform="translate(527,877)" d="m0 0h1c0.17 1.87 0.336 3.75 0.5 5.62 0.0928 1.04 0.186 2.09 0.281 3.16 0.21 3.08 0.256 6.12 0.219 9.21-0.99-0.33-1.98-0.66-3-1-0.0269-2.46-0.0468-4.92-0.0625-7.38-0.00838-0.699-0.0168-1.4-0.0254-2.12-0.0254-5.28-0.0254-5.28 1.09-7.51z" fill="#11284E"/>
<path transform="translate(179,646)" d="m0 0c1.83 2.74 3.1 5.31 4.44 8.31 1.4 3.13 2.82 6.2 4.38 9.25 1.19 2.44 1.19 2.44 1.19 4.44h-2c-1.53-3.29-3.05-6.58-4.56-9.88-0.438-0.937-0.875-1.87-1.33-2.84-0.409-0.896-0.819-1.79-1.24-2.71-0.382-0.827-0.765-1.65-1.16-2.51-0.235-0.681-0.47-1.36-0.713-2.06 0.33-0.66 0.66-1.32 1-2z" fill="#F3B9A8"/>
<path transform="translate(318,1481)" d="m0 0c2 1 2 1 2.89 3.18 0.264 0.889 0.529 1.78 0.801 2.7 0.272 0.884 0.544 1.77 0.824 2.68 0.488 2.45 0.488 2.45-0.512 5.45v-2c-1.32 0.33-2.64 0.66-4 1v-13z" fill="#122344"/>
<path transform="translate(419,1073)" d="m0 0c2.36 3.54 2.59 5.99 3.12 10.2 0.168 1.27 0.335 2.54 0.508 3.86 0.121 0.976 0.242 1.95 0.367 2.96-0.66 0.33-1.32 0.66-2 1-1.99-3.36-2.4-6.25-2.69-10.1-0.0864-1.05-0.173-2.11-0.262-3.2-0.0508-2.68-0.0508-2.68 0.949-4.68z" fill="#11274D"/>
<path transform="translate(512,915)" d="m0 0c2.31 0.66 4.62 1.32 7 2v5c-5.75-0.875-5.75-0.875-8-2 0.33-1.65 0.66-3.3 1-5z" fill="#13274D"/>
<path transform="translate(518,839)" d="m0 0h1v18c-2.35-2.35-2.96-3.96-3.1-7.26 0.0116-0.801 0.0232-1.6 0.0352-2.43 0.00902-0.808 0.018-1.62 0.0273-2.45 0.0116-0.615 0.0232-1.23 0.0352-1.86h2v-4z" fill="#11284E"/>
<path transform="translate(360,286)" d="m0 0c1.61 3.21 1.06 6.44 1 10h-3c-0.99-2.64-1.98-5.28-3-8 3-2 3-2 5-2z" fill="#F3BBA9"/>
<path transform="translate(346,1252)" d="m0 0h1c0.25 7.62 0.25 7.62-2 11h-2c-0.75-2.69-0.75-2.69-1-6 1.88-2.88 1.88-2.88 4-5z" fill="#12264C"/>
<path transform="translate(240,1192)" d="m0 0h5c0.33 2.31 0.66 4.62 1 7h-6c-0.934-3.01-1.04-3.87 0-7z" fill="#11274E"/>
<path transform="translate(252,819)" d="m0 0h2v5h10c-3 2-3 2-5.19 1.62-0.598-0.206-1.2-0.413-1.81-0.625v2h-2c-0.33 0.66-0.66 1.32-1 2h-2v-10z" fill="#11274D"/>
<path transform="translate(354,765)" d="m0 0h5v10c-1.32 0.33-2.64 0.66-4 1 0.33-2.97 0.66-5.94 1-9h-2v-2z" fill="#15274F"/>
<path transform="translate(530,752)" d="m0 0h1c0.33 5.28 0.66 10.6 1 16-0.99-0.33-1.98-0.66-3-1-0.221-2.12-0.427-4.25-0.625-6.38-0.116-1.18-0.232-2.37-0.352-3.59-0.00773-1-0.0155-2.01-0.0234-3.04l2-2z" fill="#132344"/>
<path transform="translate(523,813)" d="m0 0c3.8 5.7 3.58 11.5 2.5 18.1-0.165 0.639-0.33 1.28-0.5 1.94h-1c-1.15-13.6-1.15-13.6-1-20z" fill="#11284E"/>
<path transform="translate(526,756)" d="m0 0c0.99 0.33 1.98 0.66 3 1 1.17 5.86 1.17 5.86 1 8-1.32 1.32-2.64 2.64-4 4v-13z" fill="#132549"/>
<path transform="translate(404,126)" d="m0 0c3.46 1.48 3.46 1.48 7 3v2c0.66 0.66 1.32 1.32 2 2-2.25 0.75-2.25 0.75-5 1-2.31-1.69-2.31-1.69-4-4v-4z" fill="#F3BBA9"/>
<path transform="translate(513,1464)" d="m0 0h6c0.33 1.98 0.66 3.96 1 6-2.31-0.33-4.62-0.66-7-1v-5z" fill="#13274D"/>
<path transform="translate(231,1376)" d="m0 0c1.98 0.66 3.96 1.32 6 2 0.33 1.65 0.66 3.3 1 5-0.99 0.33-1.98 0.66-3 1-0.33-0.66-0.66-1.32-1-2-1.32 0.33-2.64 0.66-4 1 0.33-2.31 0.66-4.62 1-7z" fill="#11284E"/>
<path transform="translate(460,1352)" d="m0 0h1c0.0606 0.82 0.121 1.64 0.184 2.48 0.0838 1.08 0.168 2.16 0.254 3.27 0.122 1.6 0.122 1.6 0.246 3.23 0.257 2.45 0.635 4.65 1.32 7.02-1.65-0.33-3.3-0.66-5-1 0.66-4.95 1.32-9.9 2-15z" fill="#15274F"/>
<path transform="translate(532,1021)" d="m0 0h1v18h-2c-0.33 0.99-0.66 1.98-1 3 0.138-3.31 0.287-6.63 0.438-9.94 0.0393-0.946 0.0786-1.89 0.119-2.87 0.0419-0.899 0.0838-1.8 0.127-2.72 0.0367-0.833 0.0733-1.67 0.111-2.52 0.205-1.95 0.205-1.95 1.21-2.95z" fill="#13274D"/>
<path transform="translate(533,995)" d="m0 0h1v22c-0.99 0.33-1.98 0.66-3 1v-6h2v-17z" fill="#13274D"/>
<path transform="translate(253,802)" d="m0 0h2c1.56 2.81 1.56 2.81 3 6-0.33 0.99-0.66 1.98-1 3h-2c-0.33 0.66-0.66 1.32-1 2-1.28-3.85-1.07-6.95-1-11z" fill="#132344"/>
<path transform="translate(625,549)" d="m0 0c0.99 0.33 1.98 0.66 3 1-0.66 3.96-1.32 7.92-2 12-0.66-0.33-1.32-0.66-2-1-0.0271-1.44-0.0465-2.87-0.0625-4.31-0.0116-0.801-0.0232-1.6-0.0352-2.43 0.0977-2.26 0.0977-2.26 1.1-5.26z" fill="#F3BCAA"/>
<path transform="translate(484,1497)" d="m0 0c-0.33 0.99-0.66 1.98-1 3-6.44 0.495-6.44 0.495-13 1-0.33-0.66-0.66-1.32-1-2 1.75-0.338 3.5-0.67 5.25-1 0.975-0.186 1.95-0.371 2.95-0.562 2.8-0.438 2.8-0.438 6.8-0.438z" fill="#11274E"/>
<path transform="translate(257,691)" d="m0 0c0.66 0.33 1.32 0.66 2 1 0.484 2 0.484 2 0.75 4.44 0.098 0.803 0.196 1.61 0.297 2.43-0.0469 2.13-0.0469 2.13-2.05 4.13v-4c-0.99-0.33-1.98-0.66-3-1 0.576-2.39 1.22-4.67 2-7z" fill="#FBFBFD"/>
<path transform="translate(484,1492)" d="m0 0c0.33 0.99 0.66 1.98 1 3h-15c4.45-2.97 8.73-3 14-3z" fill="#11284E"/>
<path transform="translate(468,802)" d="m0 0h2c-0.607 4.13-2.04 7.33-4 11-0.99-0.33-1.98-0.66-3-1 1.65-3.3 3.3-6.6 5-10z" fill="#13274D"/>
<path transform="translate(569,592)" d="m0 0c2.48 0.495 2.48 0.495 5 1v2c1.32-0.66 2.64-1.32 4-2 0.33 1.65 0.66 3.3 1 5-3.79-1-6.72-1.81-10-4v-2z" fill="#F3B9A8"/>
<path transform="translate(174,462)" d="m0 0c1.65 1.65 3.3 3.3 5 5-1 1-1 1-4.56 1.06-1.13-0.0206-2.27-0.0412-3.44-0.0625 0.573-2.87 0.861-3.86 3-6z" fill="#F3B9A8"/>
<path transform="translate(535,817)" d="m0 0h2c0.917 5.38 1.11 10.5 1 16h-2v-8h-2v-3h2c-0.33-1.65-0.66-3.3-1-5z" fill="#11284E"/>
<path transform="translate(339,854)" d="m0 0v3c1.32 0.33 2.64 0.66 4 1 0.33 1.32 0.66 2.64 1 4-1.32 0.33-2.64 0.66-4 1v-3c-0.99-0.33-1.98-0.66-3-1v-4c0.66-0.33 1.32-0.66 2-1z" fill="#142B51"/>
<path transform="translate(461,1138)" d="m0 0c0.928 0.278 0.928 0.278 1.88 0.562 2.17 0.674 2.17 0.674 4.12-0.562v5c-1.32-0.33-2.64-0.66-4-1v3h-2v-7z" fill="#142B51"/>
<path transform="translate(386,1015)" d="m0 0c1.1 3.41 0.942 6.21 0.562 9.75-0.153 1.48-0.153 1.48-0.309 2.98-0.126 1.12-0.126 1.12-0.254 2.27-0.33-0.66-0.66-1.32-1-2-0.66-0.33-1.32-0.66-2-1 0.66-1.32 1.32-2.64 2-4h-2v-2h2c0.33-1.98 0.66-3.96 1-6z" fill="#12274E"/>
<path transform="translate(510,923)" d="m0 0c2.48 0.495 2.48 0.495 5 1v2h2v3c-1.65-0.33-3.3-0.66-5-1v-2h-2v-3z" fill="#13274D"/>
<path transform="translate(344 373)" d="m0 0c0.866 0.371 0.866 0.371 1.75 0.75v2h-3c-0.33 1.32-0.66 2.64-1 4-0.33-0.66-0.66-1.32-1-2h-2c-0.33 0.66-0.66 1.32-1 2 0-3 0-3 1.75-5.25 2.25-1.75 2.25-1.75 4.5-1.5z" fill="#737FDE"/>
<path transform="translate(253,797)" d="m0 0h2c2.84 3.72 3.32 6.37 3 11-3-3.75-3-3.75-3-6h-2v-5z" fill="#132A50"/>
</svg>
