<svg version="1.1" id="Layer_1" xmlns="http://www.w3.org/2000/svg" xmlns:xlink="http://www.w3.org/1999/xlink" x="0px" y="0px"
	 width="100%" viewBox="0 0 1024 1024" enable-background="new 0 0 1024 1024" xml:space="preserve">
<path fill="#000000" opacity="1.000000" stroke="none" 
	d="
M551.419922,244.416031 
	C558.435120,250.079498 566.494446,252.754440 574.377686,255.896759 
	C583.432556,259.506104 591.543335,264.805542 598.501831,271.661560 
	C601.068054,274.189972 603.109741,274.460327 605.604309,271.828949 
	C610.281311,266.895447 615.330872,262.267578 615.856934,254.771622 
	C616.008789,252.606873 617.208679,250.290787 619.577942,250.009857 
	C621.782349,249.748444 623.324890,251.826767 623.801636,253.679306 
	C624.796814,257.545959 627.336426,257.943542 630.613953,257.749603 
	C633.101257,257.602417 635.625305,257.652924 638.105225,257.897644 
	C642.697937,258.350769 645.290833,261.338196 645.324585,265.889923 
	C645.354309,269.903900 643.670654,272.231689 639.361450,272.079620 
	C637.769287,272.023407 636.173523,272.070526 633.987976,272.070526 
	C636.749390,273.727753 639.223877,274.439026 641.877258,274.682861 
	C643.592163,274.840485 645.622620,275.205322 645.501709,277.288727 
	C645.344971,279.990112 642.849548,279.474396 641.212280,279.210114 
	C637.474854,278.606781 633.795593,277.643127 629.958252,276.796204 
	C627.259094,282.033875 628.037415,287.709778 627.651550,293.062744 
	C627.029297,301.695068 626.702698,310.366486 625.218933,318.883728 
	C623.923645,326.319061 625.762268,333.443054 626.492859,340.652893 
	C628.358032,359.060455 626.307922,377.230103 623.853149,395.393982 
	C622.225952,407.434540 619.673157,419.311615 617.088867,431.175079 
	C616.632385,433.270752 616.447205,434.971039 618.383179,436.521576 
	C620.243896,438.011871 621.840698,437.117004 623.500793,436.444183 
	C642.916870,428.575043 663.117981,425.214874 684.025757,425.690460 
	C687.890564,425.778381 691.668701,426.308258 695.395813,427.138245 
	C702.909668,428.811493 703.792786,430.162750 702.910217,438.105774 
	C708.263489,439.497162 713.753296,440.672974 719.085449,442.349792 
	C760.211609,455.282867 789.768921,482.083130 810.234436,519.372681 
	C823.243713,543.076599 830.177612,568.605591 831.433411,595.674500 
	C833.833191,647.403198 818.283997,692.243958 779.790527,727.789795 
	C757.374207,748.489746 730.477905,759.804016 699.875427,761.296509 
	C652.077881,763.627625 614.034485,743.863403 583.155090,708.623291 
	C568.129395,691.475769 557.519226,671.741211 550.468445,650.110474 
	C549.196777,646.208984 547.743286,643.755798 542.977783,644.037354 
	C537.621216,644.353760 535.556458,640.533386 534.675964,635.823669 
	C530.385681,612.875305 530.218262,589.939514 533.407349,566.774963 
	C537.552368,536.667297 548.728333,509.713104 567.075500,485.605164 
	C574.269958,476.151703 582.319946,467.515320 591.417175,459.878296 
	C593.588440,458.055573 595.239258,456.180939 594.594971,453.100494 
	C593.116638,446.032196 592.894043,438.909515 593.695435,431.740112 
	C593.779175,430.990417 594.103638,430.084106 593.097046,429.491974 
	C591.470886,430.299805 591.110657,432.039001 590.416260,433.452179 
	C566.497070,482.133362 535.247253,525.741516 498.911011,565.837158 
	C492.423553,572.995850 486.030731,580.242676 479.422089,587.287354 
	C477.646454,589.180115 477.394897,590.698853 478.428925,593.015076 
	C480.961426,598.687927 482.311707,604.645508 482.479523,610.918396 
	C482.671631,618.100525 482.160858,618.731384 475.029663,618.002319 
	C474.378906,617.935730 473.721985,617.929382 473.198730,617.901917 
	C471.645599,619.045715 471.747955,620.681335 471.602081,622.105408 
	C470.847046,629.477905 468.057434,636.030396 463.196564,641.510498 
	C460.288483,644.789062 459.778717,647.693115 462.383392,651.219604 
	C463.367371,652.551758 464.216919,654.024292 464.885834,655.539612 
	C466.342926,658.840576 468.138489,659.033997 471.065063,657.019775 
	C475.379395,654.050781 480.775360,655.709778 483.062988,660.294678 
	C483.743835,661.659302 483.616150,662.887024 482.599731,663.975220 
	C481.352509,665.310486 480.206512,666.825195 478.729187,667.846313 
	C471.055511,673.150208 463.279053,678.305054 455.563416,683.548645 
	C453.090607,685.229126 450.640228,686.033081 448.631531,683.102539 
	C446.647888,680.208496 444.481873,677.170898 447.672150,673.683472 
	C448.008667,673.315552 448.419556,673.013367 448.740295,672.633728 
	C450.509094,670.539917 454.884857,669.956604 454.305206,666.880920 
	C453.516571,662.696228 450.285645,659.322571 447.871796,655.744202 
	C447.261108,654.838928 446.195160,654.655212 445.164642,654.992065 
	C434.549622,658.461365 424.807495,654.242737 414.926422,651.502197 
	C407.107269,649.333496 407.184723,649.250610 403.341888,656.498901 
	C390.927185,679.915344 373.845093,698.734131 349.814941,710.689575 
	C348.501068,711.343262 346.694916,711.813354 346.596649,713.531311 
	C346.290741,718.879211 342.384796,719.697693 338.334473,720.510620 
	C320.943359,724.001038 303.287231,724.487488 285.652893,724.967896 
	C272.330505,725.330811 258.994293,725.207214 245.664078,725.241516 
	C243.678131,725.246582 241.650482,725.126526 239.712723,724.724304 
	C234.177078,723.575378 232.972839,721.520569 233.562408,715.914246 
	C234.221878,709.643311 237.771988,704.400818 239.402603,698.470093 
	C240.260895,695.348450 239.914780,693.353210 237.531326,691.014160 
	C213.909042,667.832458 201.118927,639.373657 196.550247,606.833862 
	C194.873306,594.889954 194.722397,582.946228 194.918015,570.952881 
	C194.947372,569.152832 195.339630,567.313965 194.543777,565.628601 
	C185.060715,564.493103 185.307541,564.549622 187.487579,555.028870 
	C190.975220,539.797485 193.196442,524.282715 198.818802,509.556549 
	C208.087708,485.279327 222.387924,464.847656 243.727997,449.697083 
	C246.325119,447.853271 247.249573,445.957367 246.049423,442.966614 
	C245.496857,441.589630 245.122299,440.087921 244.974930,438.612000 
	C244.584076,434.697357 242.543137,432.722534 238.623718,432.258240 
	C235.907516,431.936462 232.862335,430.970551 233.154556,427.622681 
	C233.437347,424.382751 236.543610,423.777740 239.288605,423.732239 
	C264.235748,423.318726 289.133881,421.139496 314.136047,422.416656 
	C332.427277,423.350922 350.767273,423.370331 369.087708,423.661865 
	C373.123016,423.726074 377.034668,424.323059 380.957214,425.099945 
	C385.289520,425.957977 387.704742,428.112640 387.386932,432.973206 
	C387.210938,435.664886 386.726440,438.662506 389.037750,441.294159 
	C391.469971,440.338135 394.530396,439.561432 395.105286,436.899353 
	C395.658173,434.339111 394.130951,432.045288 391.320374,430.590546 
	C389.222137,429.504547 388.107513,426.830994 388.875702,424.488281 
	C390.936340,418.203918 386.884644,413.277100 385.574219,407.764709 
	C384.938873,405.092194 382.832764,406.054749 381.081604,406.615326 
	C370.536713,409.991150 359.507904,411.815063 349.379730,416.536377 
	C347.597382,417.367279 346.251709,416.433136 344.934021,415.214905 
	C340.233795,410.869476 339.119446,405.259766 339.925201,399.365448 
	C340.371521,396.100800 339.009033,394.962738 336.566101,393.732513 
	C329.928619,390.389832 325.595795,385.099823 324.207031,377.721527 
	C322.886841,370.707611 327.162109,365.460663 333.805725,366.901062 
	C355.366058,371.575531 376.146759,367.661011 396.926941,362.344360 
	C402.555298,360.904297 408.323944,359.931702 414.078308,359.085388 
	C421.103088,358.052216 427.685913,359.354340 433.399170,363.878876 
	C435.276276,365.365479 436.668304,367.213623 437.362885,369.512970 
	C438.202148,372.291412 437.411621,374.125092 434.259155,374.373657 
	C425.353943,375.075867 418.041077,378.738953 412.253448,385.651276 
	C409.142670,389.366608 405.161194,392.212494 401.180237,394.956055 
	C398.786743,396.605530 397.919128,398.442627 399.003693,401.305603 
	C401.338226,407.468323 401.880402,414.304993 406.073120,419.781281 
	C406.645844,420.529358 407.065491,421.686829 406.981232,422.601837 
	C405.705170,436.460480 412.788971,448.292297 416.499237,460.869598 
	C422.855774,482.417297 430.197937,503.674225 437.120575,525.055054 
	C437.786621,527.112183 438.384827,529.194885 440.109924,531.396301 
	C446.289062,527.237793 451.643097,522.102966 456.982056,517.013245 
	C473.815796,500.965149 488.453491,483.019196 501.577332,463.875427 
	C523.542419,431.834808 544.278259,399.031250 561.667786,364.222717 
	C563.081787,361.392303 564.335632,358.482208 565.681274,355.617279 
	C566.740662,353.361542 567.931824,351.289917 565.708313,348.825043 
	C564.379639,347.352173 565.377991,345.153137 565.895203,343.527618 
	C567.196045,339.438751 566.518005,335.705872 564.941589,331.910736 
	C562.220886,325.360687 561.011108,318.331207 556.950867,312.150574 
	C552.404968,305.230743 554.676208,299.371429 562.136902,295.860687 
	C566.356262,293.875214 569.023376,290.331146 572.727905,286.646576 
	C562.976685,282.127869 558.942017,273.328735 553.809814,265.427795 
	C552.640076,263.627045 551.204529,261.953247 549.672852,260.442444 
	C546.145569,256.963165 542.785583,255.605194 536.997925,256.731598 
	C522.584351,259.536774 508.240143,263.643799 493.183533,262.327637 
	C483.609222,261.490723 474.188080,262.291962 466.370544,269.210144 
	C464.029510,271.281830 462.259613,269.715088 461.800232,267.090820 
	C461.153320,263.395203 463.452545,261.120544 466.296661,259.439972 
	C471.016724,256.650879 476.305756,255.939392 481.667480,255.710999 
	C490.152985,255.349579 498.642059,255.070755 507.128052,254.719620 
	C511.542511,254.536957 515.488953,253.130249 519.383789,249.993896 
	C515.936707,247.650864 512.141785,247.237762 509.657654,248.891296 
	C505.710785,251.518478 501.702759,251.229767 497.666382,250.959045 
	C481.353546,249.864929 465.028748,250.031036 448.701202,250.043961 
	C442.229645,250.049072 441.638123,249.402176 441.639008,242.820190 
	C441.639252,240.987991 441.656311,239.149155 441.806824,237.324997 
	C442.117706,233.556885 443.984497,231.340805 447.901276,230.562805 
	C455.535126,229.046509 463.191498,229.777191 470.825104,230.035583 
	C481.136627,230.384613 491.434814,231.130814 501.738373,231.712997 
	C504.761688,231.883804 507.535553,232.145554 509.478882,235.234726 
	C511.064331,237.755035 513.860901,236.595810 516.307373,236.223404 
	C525.988098,234.749817 535.518066,234.004440 543.942688,240.765610 
	C545.957764,242.382843 548.692017,243.103989 551.419922,244.416031 
M477.821045,553.323120 
	C485.396240,545.816101 492.510590,537.884399 499.488617,529.826416 
	C530.592590,493.908875 556.508789,454.484436 579.030457,412.722870 
	C583.419800,404.583801 584.986206,396.792999 580.821960,388.115509 
	C578.893921,384.097748 578.020691,379.585602 576.440979,375.383392 
	C575.728271,373.487579 575.417664,371.217255 572.979004,369.614288 
	C569.967468,375.043152 567.070435,380.229797 564.206238,385.434601 
	C548.873474,413.297729 533.657471,441.234528 515.230896,467.240662 
	C495.527740,495.048645 473.639343,520.926025 447.733002,543.236450 
	C446.309967,544.461975 444.032959,545.595764 444.916168,548.037903 
	C447.509827,555.209900 448.156433,563.470459 456.691803,567.247742 
	C459.238831,568.374939 460.763519,568.688965 462.804657,566.808105 
	C467.578705,562.408875 472.470215,558.137085 477.821045,553.323120 
M619.685425,318.771729 
	C617.496338,311.256592 615.278015,303.760681 611.800049,296.696075 
	C607.183167,287.318024 607.233398,287.300629 596.794495,289.030701 
	C595.646851,289.220886 594.477905,289.285889 593.317566,289.395233 
	C592.084900,289.511383 590.804199,289.877411 590.619812,291.192505 
	C590.063721,295.159210 586.752258,296.368103 583.981079,298.086792 
	C579.451965,300.895660 574.896240,303.667297 570.268311,306.308533 
	C567.928162,307.644073 567.509827,309.300934 568.429688,311.706055 
	C570.451416,316.992004 572.336670,322.329926 574.306396,327.635956 
	C575.993103,332.179504 577.639343,336.724548 582.346252,339.229950 
	C583.959290,340.088531 584.730225,341.800476 584.083313,343.516663 
	C583.092102,346.146576 584.072937,348.398529 584.851807,350.753418 
	C587.202393,357.860046 589.501221,364.984131 591.896118,372.075775 
	C594.791565,380.650146 597.764709,389.198303 601.047546,398.757599 
	C602.192200,396.291382 602.937073,394.996155 603.415283,393.608978 
	C609.333069,376.444092 614.484497,359.054138 617.743591,341.176422 
	C619.039062,334.070129 622.077393,327.062042 619.685425,318.771729 
M707.525574,590.917908 
	C705.608398,591.594299 703.061340,590.649902 701.634216,593.362915 
	C704.369324,596.371887 707.873474,598.328857 711.676025,599.239807 
	C738.540894,605.675476 765.460876,611.881287 792.335327,618.277527 
	C795.780151,619.097412 796.897278,617.673462 797.240112,614.663452 
	C797.958984,608.351562 797.836304,602.047180 797.328674,595.726074 
	C797.038574,592.113647 795.203857,591.179688 791.726013,591.183289 
	C782.407532,591.192932 773.087524,590.991455 763.765381,590.689514 
	C745.304565,590.091675 726.821350,589.540771 707.525574,590.917908 
M767.194641,667.288147 
	C770.712585,670.027771 774.230591,672.767395 778.254822,675.901306 
	C782.281799,669.951111 784.912598,663.918213 787.555420,657.866150 
	C788.765442,655.095215 788.285767,653.541626 785.686523,651.727478 
	C770.636780,641.223206 755.176453,631.588135 737.800903,625.232056 
	C728.200134,621.720154 718.890137,617.413635 709.449036,613.465332 
	C712.223755,619.776550 714.886169,625.628357 720.155884,629.787659 
	C735.710388,642.064453 751.166138,654.466370 767.194641,667.288147 
M701.540466,585.611145 
	C702.766846,587.307556 704.580322,586.549194 706.149292,586.652100 
	C715.267151,587.249512 723.916992,584.462891 732.735596,582.891846 
	C751.253235,579.592773 769.527344,575.239258 787.704590,570.425781 
	C792.029358,569.280579 793.555481,567.381592 791.807617,562.978333 
	C789.969971,558.348877 788.382080,553.601135 787.007935,548.812317 
	C785.730408,544.360291 783.720520,544.073792 779.758850,546.096802 
	C760.785767,555.785217 741.671875,565.198303 722.596680,574.686340 
	C715.618958,578.157104 708.257263,580.850952 701.540466,585.611145 
M728.240906,712.323181 
	C728.485657,712.942566 728.736267,713.559631 728.974243,714.181580 
	C731.388000,720.490356 731.642395,720.625244 737.300720,717.382812 
	C743.525513,713.815796 749.261719,709.600586 754.803772,705.003235 
	C758.849731,701.647034 758.536011,699.480164 755.110901,695.965088 
	C741.048157,681.533020 727.224731,666.867920 713.306519,652.294983 
	C710.670410,649.534851 708.003723,646.803833 705.351135,644.059387 
	C711.920166,667.171448 719.654602,689.488220 728.240906,712.323181 
M737.590088,564.006897 
	C751.553833,556.981445 765.521484,549.963623 779.476624,542.921204 
	C781.270813,542.015747 783.438049,541.018433 782.354675,538.484680 
	C779.624084,532.098511 776.097717,526.161926 772.179138,520.653931 
	C771.194275,521.009460 770.815308,521.042603 770.583862,521.244629 
	C750.648926,538.646240 729.721313,554.792786 708.577698,570.683777 
	C705.076355,573.315247 702.538086,577.228027 699.554749,580.548706 
	C712.974243,576.535095 724.866516,570.258240 737.590088,564.006897 
M542.295227,506.830139 
	C563.993774,476.881775 589.995728,430.894318 588.852783,424.047546 
	C587.990112,425.338287 587.188110,426.377716 586.553833,427.511017 
	C574.575806,448.912109 560.781067,469.144226 547.057373,489.438354 
	C525.879517,520.755493 501.735870,549.547607 474.619385,575.858154 
	C469.770660,580.562805 469.713654,581.280334 476.131836,585.658813 
	C499.180298,560.615295 521.976868,535.249084 542.295227,506.830139 
M702.331421,529.893250 
	C708.162598,513.600952 713.924866,497.283447 719.879578,481.036438 
	C721.162842,477.535126 720.688049,475.523468 717.020142,474.067596 
	C712.215820,472.160645 707.393188,470.380737 702.387878,469.096283 
	C696.688293,467.633698 696.276794,468.073761 696.049194,474.112885 
	C695.297424,494.058533 695.015686,514.024048 693.424500,533.935730 
	C692.896790,540.539673 692.752441,547.174194 692.364258,555.215027 
	C695.950439,546.083923 698.989868,538.344971 702.331421,529.893250 
M685.257629,706.395996 
	C686.029236,710.645935 686.742249,714.907593 687.583557,719.143677 
	C689.971497,731.166138 690.824890,731.709106 702.952393,729.151733 
	C704.227234,728.882874 705.477783,728.498779 707.474915,727.975525 
	C700.232605,699.774475 693.047791,671.796997 685.862915,643.819519 
	C683.598999,649.885071 682.315918,655.870544 681.060852,661.862000 
	C680.280640,665.586487 678.813904,669.253052 679.474609,673.140076 
	C681.312012,683.950012 683.257202,694.741699 685.257629,706.395996 
M703.696838,559.131836 
	C701.351501,564.200073 699.006165,569.268372 696.660828,574.336609 
	C699.950500,572.892578 703.022522,571.326355 705.144958,568.921997 
	C722.858826,548.854980 740.579956,528.789062 757.306763,507.876129 
	C758.698425,506.136139 759.415894,504.460236 757.657776,502.577026 
	C755.074280,499.809784 752.547913,496.975830 748.763977,494.497345 
	C732.644470,515.120667 714.788757,534.260681 703.696838,559.131836 
M742.172668,619.279785 
	C757.110352,630.438477 773.875610,637.762024 791.918579,643.392273 
	C794.603699,636.654236 795.700500,630.040405 796.162598,622.540649 
	C771.530151,617.074219 747.388367,609.879578 722.175354,606.203064 
	C728.637634,610.433167 735.099915,614.663269 742.172668,619.279785 
M690.601318,532.124268 
	C691.301025,512.998291 692.088440,493.874969 692.659363,474.745178 
	C692.904541,466.527679 692.373657,466.336670 683.992554,466.078186 
	C680.524780,465.971222 679.172058,467.065765 679.319275,470.609772 
	C679.719727,480.251282 680.049988,489.900604 680.135742,499.549255 
	C680.326599,521.028564 682.645020,542.387268 683.684082,563.818176 
	C683.824890,566.721375 683.254517,569.963684 685.211548,573.385193 
	C687.195618,569.145081 688.580688,565.568359 688.760559,561.442627 
	C689.173401,551.973694 689.910889,542.518921 690.601318,532.124268 
M589.291626,667.582153 
	C591.332275,670.917053 592.996704,674.529419 596.432312,677.728027 
	C616.591187,653.492981 642.254822,634.489990 657.421021,605.612976 
	C653.629150,606.320557 651.392761,608.063843 649.160217,609.789001 
	C628.178101,626.001770 609.544373,644.794373 590.541931,663.181274 
	C589.486145,664.202820 588.138489,665.153992 589.291626,667.582153 
M640.959717,653.513550 
	C645.943359,642.922852 650.927063,632.332092 655.910767,621.741333 
	C655.569031,621.491394 655.227295,621.241455 654.885620,620.991516 
	C653.603027,622.168518 652.325989,623.351685 651.036865,624.521423 
	C645.938538,629.147522 642.194397,634.853577 638.328552,640.460754 
	C627.951538,655.511841 617.048828,670.202515 607.292419,685.678223 
	C606.283813,687.278015 604.638184,688.852844 606.508728,691.002441 
	C609.868286,694.863220 613.156982,698.783081 618.218201,701.598877 
	C625.773743,685.632324 633.211304,669.915161 640.959717,653.513550 
M584.929077,576.754517 
	C581.313721,576.245850 577.697998,575.739929 574.083130,575.227600 
	C571.012085,574.792358 569.313782,575.906067 569.281799,579.218445 
	C569.244995,583.040161 569.098145,586.862122 568.931030,590.681030 
	C568.762390,594.536621 570.006470,595.851624 574.260925,595.208008 
	C589.538086,592.897034 604.949890,591.746643 620.362427,590.656067 
	C630.593872,589.932007 640.806702,588.943481 651.027832,588.073425 
	C629.519775,582.413879 607.647461,579.745422 584.929077,576.754517 
M670.784424,638.608154 
	C670.596497,638.089050 671.057007,637.292053 670.060791,637.045593 
	C669.859375,637.489807 669.566101,637.905334 669.479858,638.360107 
	C664.315857,665.601990 659.114929,692.837097 654.061340,720.099548 
	C652.922546,726.242981 658.675720,725.055603 661.668274,726.213379 
	C665.178284,727.571411 665.093872,724.009216 665.528015,721.973145 
	C667.882507,710.931519 670.256531,699.888977 672.283875,688.784668 
	C673.588196,681.640625 676.654724,674.682739 675.565430,667.245056 
	C674.195190,657.889282 672.431458,648.591125 670.784424,638.608154 
M723.627686,480.342743 
	C715.184265,506.610474 704.583069,532.112732 695.733948,558.281372 
	C697.176147,557.188721 698.140991,555.864746 699.180298,554.602051 
	C713.678223,536.987488 722.770569,516.120117 733.975281,496.535400 
	C740.037659,485.938995 738.920410,483.784851 727.357300,479.095978 
	C725.996704,478.544250 724.845032,478.144104 723.627686,480.342743 
M671.230286,537.163208 
	C670.252930,532.269897 669.339233,527.362854 668.286438,522.485779 
	C664.742249,506.067505 661.034302,489.683411 657.650513,473.232452 
	C656.753967,468.873474 654.950378,467.519928 650.879089,469.347443 
	C650.124512,469.686157 649.319641,469.983307 648.508118,470.112854 
	C644.121338,470.813385 643.396912,473.070190 644.635742,477.198425 
	C649.561462,493.612854 654.472778,510.026062 660.149963,526.202637 
	C664.029175,537.256042 669.179199,547.729797 674.737488,558.112244 
	C673.635437,551.409607 672.533386,544.706970 671.230286,537.163208 
M775.327576,678.231079 
	C758.560242,664.239563 741.816711,650.218201 724.214905,637.240417 
	C725.955933,642.281799 729.039429,646.391602 731.849792,650.642822 
	C741.016052,664.508240 750.250610,678.328918 759.558960,692.099304 
	C760.705627,693.795715 762.051392,697.253357 764.739929,694.546387 
	C769.237732,690.017822 773.994446,685.480652 775.327576,678.231079 
M586.588440,620.999573 
	C602.170898,614.683777 617.753296,608.367920 633.335754,602.052124 
	C631.434021,601.062012 629.795349,601.061340 628.156738,601.062073 
	C612.189453,601.069336 596.287170,602.523010 580.350037,603.184265 
	C568.503845,603.675781 568.382263,603.532532 570.648315,615.292542 
	C573.118286,628.110168 571.534607,627.199585 583.568848,622.228943 
	C584.337158,621.911621 585.113098,621.612793 586.588440,620.999573 
M583.941284,625.524658 
	C581.619995,626.435181 579.299194,627.347168 576.977112,628.255676 
	C575.289062,628.916138 573.917969,629.939453 574.444580,631.953064 
	C575.390564,635.570679 575.882629,639.409363 578.889526,642.821594 
	C603.548523,628.336670 629.040955,615.587646 653.937805,601.710449 
	C649.871765,599.562439 646.399780,600.447083 642.968384,601.826172 
	C623.534302,609.637207 604.100830,617.449768 583.941284,625.524658 
M622.800354,371.487335 
	C623.566589,361.046600 624.649658,350.600677 622.312805,338.837769 
	C618.047302,360.207275 612.631104,379.882782 605.241455,398.943756 
	C602.423645,406.212067 603.974365,412.070404 608.832886,417.553497 
	C609.660278,418.487244 610.254944,419.412994 609.790955,420.675934 
	C608.454468,424.313782 610.686829,426.911530 612.640747,429.798492 
	C618.295288,411.036560 621.288391,391.871124 622.800354,371.487335 
M650.165283,641.575500 
	C641.409058,660.459106 632.611145,679.323547 623.918213,698.236206 
	C620.659851,705.325195 622.235718,708.196777 630.609009,710.334290 
	C643.198669,677.372559 655.986023,644.430908 667.316650,610.966309 
	C666.556885,610.650330 665.797058,610.334412 665.037292,610.018433 
	C660.172241,620.303345 655.307129,630.588196 650.165283,641.575500 
M672.011475,524.684570 
	C674.522705,538.063965 677.033997,551.443359 679.652588,565.394775 
	C679.750427,564.323059 679.851868,563.832336 679.831421,563.346741 
	C678.529602,532.423157 677.186218,501.501312 675.951477,470.575134 
	C675.814392,467.142761 674.474915,465.687805 671.062744,466.079834 
	C669.576721,466.250610 668.067749,466.209259 666.573914,466.324951 
	C660.171753,466.820831 659.533081,467.695740 660.940613,474.157990 
	C664.550049,490.729126 668.178223,507.296143 672.011475,524.684570 
M709.109497,706.561218 
	C709.803894,710.486938 710.567017,714.401978 711.178894,718.340515 
	C712.651184,727.817383 712.627625,727.824829 721.695190,724.567505 
	C728.309875,722.191345 728.325867,722.080200 725.921143,715.289246 
	C718.986755,695.706909 712.087341,676.112122 705.177185,656.521179 
	C703.363647,651.379639 701.560974,646.234253 699.753235,641.090637 
	C701.333923,662.922668 704.846802,684.363464 709.109497,706.561218 
M660.664429,639.070129 
	C660.056030,640.796875 659.469666,642.531799 658.835754,644.249146 
	C650.825195,665.951233 642.800537,687.648071 634.805481,709.355896 
	C634.151245,711.132202 632.678284,713.108215 635.203491,714.619751 
	C637.729065,716.131592 640.061157,718.120605 643.036255,718.334473 
	C644.695862,717.351074 644.891907,715.757751 645.276672,714.356567 
	C652.324280,688.690613 659.488342,663.054565 666.210754,637.303284 
	C667.532471,632.240051 669.484070,626.952576 667.291992,621.217285 
	C665.179810,626.926453 663.067627,632.635681 660.664429,639.070129 
M604.955139,542.510620 
	C612.546082,547.366394 619.846497,552.706299 627.392639,556.708374 
	C621.777527,537.649597 611.105042,522.052734 594.322449,510.525482 
	C590.771912,514.233398 588.505432,518.852417 585.814392,523.203796 
	C583.836670,526.401794 584.122925,528.502197 587.416748,530.594543 
	C593.176514,534.253296 598.724243,538.245911 604.955139,542.510620 
M576.125854,572.455444 
	C598.240784,574.763611 620.182617,578.367188 642.599976,581.678162 
	C640.915405,578.901306 638.508972,578.236328 636.205566,577.394348 
	C618.881714,571.061157 601.575867,564.678589 584.233337,558.396912 
	C573.842346,554.633057 573.731018,551.553955 570.884583,565.749512 
	C570.025757,570.032471 570.843079,572.105042 576.125854,572.455444 
M719.041138,653.459778 
	C729.581604,664.605774 740.122070,675.751770 750.662476,686.897766 
	C739.050720,667.535706 727.165710,648.492859 714.483643,629.996582 
	C710.177124,623.715698 702.921448,620.014160 696.597717,615.471252 
	C697.367859,624.565613 699.060852,633.060059 705.655701,639.721558 
	C709.987976,644.097656 714.251343,648.541809 719.041138,653.459778 
M219.642761,557.224243 
	C216.997269,563.657715 217.439224,570.429077 217.529572,577.147888 
	C217.551010,578.743225 218.661194,579.445923 220.262497,579.304810 
	C232.725998,578.206543 245.166763,580.028076 257.624542,579.593628 
	C259.071655,579.543152 260.827728,579.861511 261.296295,577.876160 
	C261.745087,575.974670 260.258148,575.199524 258.895081,574.581482 
	C246.039459,568.752380 233.166214,562.962219 219.642761,557.224243 
M595.777649,637.361084 
	C591.231995,639.804810 586.673706,642.225525 582.148865,644.707092 
	C580.881165,645.402283 579.049683,646.041626 579.790222,647.961609 
	C581.610229,652.680664 583.340576,657.483093 586.776428,662.125732 
	C602.873962,646.636902 618.524475,631.704407 634.136719,616.587158 
	C621.570435,623.400635 609.004150,630.214111 595.777649,637.361084 
M406.397705,495.166779 
	C411.033325,502.495636 414.911987,510.221191 418.579590,518.070129 
	C422.137207,525.683716 424.729706,533.699646 428.778015,541.138916 
	C419.914734,513.070618 411.051453,485.002319 401.734344,455.496826 
	C398.328033,461.449066 395.958191,465.982330 393.199280,470.264923 
	C391.529694,472.856567 392.052460,474.632507 393.751678,476.933624 
	C398.000244,482.687042 401.953613,488.658447 406.397705,495.166779 
M294.676605,658.287109 
	C295.221344,653.502808 295.603058,648.692932 296.347412,643.939880 
	C297.591736,635.994324 296.971252,627.809875 294.278168,622.540649 
	C289.697021,641.929138 285.613159,661.092773 282.261139,680.401978 
	C280.900085,688.242432 282.946381,690.371948 291.354675,690.835205 
	C292.446838,680.295715 293.540283,669.744019 294.676605,658.287109 
M301.669861,641.945129 
	C305.128296,658.187378 308.778168,674.392517 311.940674,690.692200 
	C313.039429,696.355164 316.451447,694.082703 319.441742,693.816162 
	C323.453796,693.458557 322.596802,690.952393 321.819977,688.382141 
	C316.818726,671.835571 311.880493,655.269897 306.872437,638.725403 
	C305.635071,634.637634 304.890198,630.353271 302.430481,626.318176 
	C299.863892,631.376221 300.552063,636.242615 301.669861,641.945129 
M795.709106,586.890381 
	C796.510071,583.887024 795.705994,580.969543 795.154968,578.062073 
	C794.016296,572.053772 793.964294,572.029663 787.872681,573.698914 
	C777.136230,576.641052 766.370422,579.447754 755.447205,581.635925 
	C748.681091,582.991272 741.954834,584.545837 735.210754,586.010986 
	C740.172241,586.964783 744.990662,586.884949 749.805603,586.979614 
	C764.913025,587.276672 780.011353,588.465576 795.709106,586.890381 
M340.928040,667.695496 
	C342.863159,672.926147 344.186310,678.408875 346.877106,683.326111 
	C354.225922,680.335510 354.552063,679.710632 352.406952,672.955933 
	C349.990021,665.345276 346.924927,657.876648 345.261749,650.106506 
	C343.124176,640.119690 335.634155,634.710144 328.285706,628.651428 
	C332.404510,641.421387 336.523315,654.191406 340.928040,667.695496 
M366.321381,526.858643 
	C359.092224,530.853943 354.920349,536.860657 353.824829,545.451233 
	C355.086182,545.316467 355.895203,545.295105 356.676361,545.136414 
	C364.778961,543.490662 371.727081,539.110474 378.943695,535.460999 
	C389.683289,530.029968 389.305756,532.582031 384.457031,519.560120 
	C384.399323,519.405090 384.317719,519.259094 384.253143,519.106506 
	C383.104950,516.392822 381.494965,515.574036 378.898834,517.555298 
	C374.944061,520.573425 370.897797,523.471741 366.321381,526.858643 
M681.876099,706.382629 
	C680.540527,698.233948 679.204895,690.085266 677.869324,681.936646 
	C674.597534,693.388184 672.210144,704.882324 669.965576,716.404297 
	C667.532715,728.893250 668.643433,730.022339 681.642395,729.856750 
	C685.071838,729.813110 686.107605,728.542786 685.464294,725.325256 
	C684.261230,719.308167 683.158264,713.271118 681.876099,706.382629 
M637.154175,510.262268 
	C633.057800,500.738220 629.808960,490.831970 624.943359,481.744141 
	C619.551575,483.277008 617.692078,485.911530 619.293152,491.156586 
	C620.996643,496.737366 622.664795,502.156219 626.014832,507.090881 
	C631.898560,515.757507 637.318970,524.737549 643.005249,533.539917 
	C646.508728,538.963074 650.145447,544.300110 653.722290,549.675842 
	C647.913025,536.849060 642.619019,523.937500 637.154175,510.262268 
M292.294617,518.764343 
	C292.036377,521.578186 291.718811,524.388123 291.532074,527.206665 
	C291.125610,533.341736 289.632111,539.432251 290.454620,545.608093 
	C290.710541,547.529419 290.432983,550.476929 293.588989,550.369568 
	C296.158783,550.282166 296.343628,547.923462 296.683411,545.918762 
	C298.350311,536.083923 299.827850,526.210510 301.782501,516.432678 
	C303.970947,505.485474 298.791260,495.914948 296.310974,485.725525 
	C294.987885,496.433136 293.664825,507.140717 292.294617,518.764343 
M264.315338,509.130249 
	C261.161835,503.176758 258.008362,497.223236 254.803818,491.173340 
	C250.133072,493.569733 248.504028,496.078217 250.803513,500.963715 
	C255.753632,511.480591 259.783813,522.436035 264.869263,532.881531 
	C267.694916,538.685364 271.886383,543.824341 275.462311,549.262939 
	C275.983612,548.982788 276.504913,548.702637 277.026245,548.422424 
	C273.088593,535.492798 270.203857,522.246582 264.315338,509.130249 
M264.737823,540.707214 
	C258.293854,528.222229 249.833252,517.060791 242.080048,504.444824 
	C239.586731,508.395660 234.944000,510.204803 238.174881,514.965637 
	C246.471237,527.190613 254.776367,539.409790 263.123016,551.600464 
	C264.833038,554.098083 267.048462,555.895142 270.946899,555.934875 
	C269.752960,550.409729 266.855743,546.106018 264.737823,540.707214 
M720.174500,556.959045 
	C720.142029,557.103088 720.050964,557.271118 720.096924,557.382812 
	C720.129272,557.461609 720.405396,557.541016 720.474976,557.489136 
	C736.323425,545.675781 751.985107,533.628357 766.358765,520.014771 
	C769.657349,516.890625 768.987061,514.213318 764.152283,509.830017 
	C760.611755,506.620178 759.556946,510.434570 758.165283,512.178833 
	C746.042969,527.372009 733.158081,541.913086 720.174500,556.959045 
M254.291138,607.732117 
	C257.596771,605.826111 260.906555,603.927124 264.206573,602.011414 
	C266.161011,600.876770 267.422699,599.314331 267.899628,596.988647 
	C268.606995,593.539001 267.601685,591.768433 264.111328,593.409851 
	C252.110962,599.053162 239.817780,604.187195 228.684631,611.476929 
	C222.534103,615.504211 222.733337,615.808472 226.558563,623.538208 
	C235.600021,618.368958 244.616241,613.214172 254.291138,607.732117 
M353.953949,648.545898 
	C359.016113,653.535828 364.078278,658.525757 369.131439,663.506836 
	C372.279663,661.338562 373.264404,658.389587 374.984772,655.998352 
	C376.442322,653.972473 376.101135,652.515625 374.112610,650.957214 
	C365.329620,644.074097 356.655121,637.052612 347.903320,630.129333 
	C346.135193,628.730652 344.201752,627.541382 341.902466,628.079956 
	C342.170166,637.098877 347.631165,642.680176 353.953949,648.545898 
M286.129395,514.507080 
	C286.464569,517.553101 286.523682,520.656555 288.234833,524.569458 
	C289.015869,518.354492 289.621826,513.180481 290.323944,508.019531 
	C291.753204,497.514008 293.407104,487.034576 294.571045,476.500519 
	C294.857208,473.910706 295.314941,469.851349 290.856750,469.806091 
	C284.496124,469.741547 280.895721,472.692535 281.425385,477.129211 
	C282.878937,489.305725 284.479309,501.464752 286.129395,514.507080 
M334.118103,657.276245 
	C331.085907,647.446350 327.577393,637.731201 325.173492,627.749939 
	C323.278137,619.880371 317.802979,617.614075 309.931335,615.584290 
	C316.462189,636.748169 328.503906,654.006958 337.393707,672.806580 
	C337.903198,672.583008 338.412720,672.359497 338.922211,672.135986 
	C337.411865,667.430908 335.901550,662.725891 334.118103,657.276245 
M282.656372,622.388977 
	C282.587830,621.908630 282.365295,621.837036 282.010162,622.195435 
	C281.895386,622.311279 281.791565,622.455688 281.732544,622.606506 
	C275.787811,637.789551 270.433838,653.181213 265.400543,668.688171 
	C262.933167,676.289856 265.786316,680.770142 274.339417,682.027283 
	C276.417023,662.218018 279.532654,642.561035 282.656372,622.388977 
M595.784851,549.766846 
	C590.245728,546.265076 584.706604,542.763367 579.413574,539.417114 
	C577.188721,541.329895 576.938110,543.229187 576.338745,544.915039 
	C574.099854,551.211670 574.150635,551.188293 580.232727,553.451355 
	C588.634644,556.577698 596.977783,559.865479 605.414124,562.894775 
	C611.682983,565.145752 617.731812,568.135864 624.744446,568.514587 
	C615.293030,562.397400 605.841675,556.280212 595.784851,549.766846 
M273.674438,500.932526 
	C277.456787,512.629822 281.239136,524.327148 285.021484,536.024414 
	C285.214172,535.965149 285.406860,535.905823 285.599548,535.846497 
	C283.074829,515.550171 280.550110,495.253845 278.063812,475.266205 
	C275.573334,474.839294 274.449402,475.631042 273.260437,476.194427 
	C266.958679,479.180298 266.894836,479.339142 268.961426,485.905090 
	C270.458008,490.660126 271.933929,495.421692 273.674438,500.932526 
M340.017822,433.264862 
	C338.559082,433.490387 336.895752,432.793518 335.088257,434.285645 
	C347.604584,438.977417 358.940247,444.757538 369.228485,452.487457 
	C372.024323,454.588043 373.641022,453.497101 373.604584,450.211029 
	C373.560547,446.235901 373.113953,442.266571 373.008087,438.290283 
	C372.930878,435.390717 371.587067,434.415161 368.744598,434.058716 
	C359.471130,432.895691 350.173279,433.508606 340.017822,433.264862 
M295.998535,692.297852 
	C299.948364,694.363098 304.138428,694.166870 309.126862,694.272034 
	C305.948151,678.325378 302.924896,663.158752 299.729279,647.127258 
	C297.893036,651.544922 298.020905,655.288513 297.735992,658.873108 
	C296.869537,669.775024 294.738770,680.602234 295.998535,692.297852 
M345.964264,606.652039 
	C343.596863,605.949829 341.229431,605.247559 338.862000,604.545349 
	C347.934540,611.626099 357.282440,617.987854 366.781403,624.115540 
	C371.518799,627.171692 375.933960,630.812927 381.352478,632.740662 
	C383.537323,633.518005 385.462402,634.041260 386.624847,631.111145 
	C387.663727,628.492493 387.958008,626.612366 384.921204,624.938721 
	C372.554382,618.123169 360.717621,610.223206 345.964264,606.652039 
M595.825012,595.412476 
	C587.416260,596.465881 579.007568,597.519348 569.818176,598.670532 
	C571.861511,600.339050 573.231995,599.956055 574.502197,599.910950 
	C586.636292,599.480164 598.770264,599.039978 610.901245,598.529175 
	C622.199707,598.053467 633.498474,597.559937 644.789001,596.929077 
	C649.553162,596.662903 653.897766,594.996216 657.767761,591.942017 
	C637.286926,591.916748 617.003357,593.462646 595.825012,595.412476 
M256.678619,552.816650 
	C247.804611,547.954407 238.955551,543.045654 230.041306,538.258362 
	C227.380142,536.829163 224.531235,534.445496 222.669418,539.578613 
	C220.306564,546.093140 220.666122,547.918701 226.135284,549.420959 
	C234.125778,551.615662 242.179504,553.581177 250.212860,555.618408 
	C254.281403,556.650146 258.364410,557.624756 263.391418,558.858521 
	C261.625336,555.508911 259.424255,554.380615 256.678619,552.816650 
M696.532898,644.909851 
	C696.255005,642.766541 695.839417,640.630371 695.726868,638.478394 
	C695.466980,633.509460 693.317932,629.722961 688.969910,626.758972 
	C686.840698,630.725037 686.758118,634.568359 687.756531,638.526611 
	C689.299805,644.644836 690.848511,650.761780 692.417786,656.873413 
	C696.289185,671.950562 700.173462,687.024292 704.052612,702.099426 
	C701.487183,683.309082 698.880859,664.577698 696.532898,644.909851 
M229.331558,523.811829 
	C225.415939,531.655823 225.420151,531.648254 233.033646,535.878723 
	C236.957367,538.059021 240.826492,540.340454 244.788177,542.448547 
	C248.069061,544.194397 251.071579,546.588318 256.378082,547.738403 
	C248.803680,536.466492 241.992752,526.330688 234.641403,515.390686 
	C232.500656,518.753235 231.093033,520.964172 229.331558,523.811829 
M601.178223,549.280273 
	C614.793579,558.212463 628.408936,567.144592 642.024231,576.076721 
	C642.290588,575.705505 642.556885,575.334229 642.823181,574.963013 
	C639.468323,571.353088 636.795593,567.040894 632.592407,564.299255 
	C616.870667,554.044006 600.827881,544.277405 585.639038,533.213867 
	C584.273315,532.219055 582.622742,530.565308 581.103943,533.180359 
	C579.770691,535.475952 581.424988,536.523621 582.988770,537.537781 
	C588.841858,541.333801 594.715393,545.098328 601.178223,549.280273 
M284.040771,608.773499 
	C284.424774,607.433777 285.505829,606.044495 283.206909,604.340576 
	C280.082336,608.587891 276.113464,612.111084 274.484436,617.358093 
	C269.307739,634.031799 264.133331,650.706238 258.986847,667.389221 
	C258.484131,669.018921 257.362854,670.838318 260.428406,672.575317 
	C267.923584,651.274292 275.544708,630.249207 284.040771,608.773499 
M332.556641,479.186188 
	C335.398529,472.509338 333.123352,470.327484 322.731262,470.225159 
	C320.059448,484.341095 318.815186,498.694336 318.076752,513.197693 
	C322.804565,502.090210 327.532410,490.982758 332.556641,479.186188 
M622.687012,308.705139 
	C623.526001,297.052765 624.364929,285.400391 625.205322,273.728577 
	C621.449097,273.751190 610.202209,282.258698 609.885010,285.137360 
	C609.835388,285.587219 610.019958,286.129181 610.257019,286.534485 
	C615.013916,294.666290 618.529419,303.355927 621.418823,312.420166 
	C622.864380,311.489349 622.478210,310.384003 622.687012,308.705139 
M659.748962,566.559448 
	C660.337524,565.582825 659.404541,565.079956 659.020447,564.479919 
	C651.673462,553.000854 644.305115,541.535278 636.911316,530.086243 
	C633.726868,525.155334 630.474854,520.268066 627.253540,515.360962 
	C630.207275,530.436096 633.707581,545.088745 646.793762,555.052185 
	C651.272278,558.461975 655.183228,562.617126 659.748962,566.559448 
M347.720520,508.263855 
	C351.255463,501.675323 355.211487,495.280853 357.229034,487.963959 
	C342.945343,502.445709 330.211487,517.746582 329.198669,539.595703 
	C335.255737,529.366211 341.312805,519.136719 347.720520,508.263855 
M248.442444,592.938721 
	C250.559113,591.414978 252.675781,589.891174 254.792450,588.367432 
	C243.345840,589.458435 232.604874,592.848145 221.705612,595.540894 
	C220.280884,595.892883 219.187820,596.978394 219.567535,598.463928 
	C220.493713,602.087219 220.286774,606.076904 222.967072,609.681824 
	C232.669662,606.267761 239.548950,598.676636 248.442444,592.938721 
M317.237976,482.936401 
	C317.721893,479.645508 318.247467,476.359955 318.672516,473.061462 
	C318.891876,471.358948 319.897400,469.212952 317.053406,468.677734 
	C314.336487,468.166443 314.111298,470.432098 313.752106,472.114380 
	C312.189026,479.435455 311.272247,486.934875 309.171967,494.091064 
	C306.355438,503.687683 309.011414,512.269348 312.534760,522.345032 
	C314.151154,508.555786 315.601929,496.179230 317.237976,482.936401 
M678.499512,658.793884 
	C679.827820,652.304260 681.136719,645.810669 682.489075,639.326050 
	C684.376099,630.277893 680.226624,622.419922 677.748596,614.093079 
	C675.042908,619.881836 671.726685,625.292908 673.000305,631.924622 
	C674.747925,641.024231 674.937866,650.419128 678.499512,658.793884 
M250.085556,643.610657 
	C254.958710,636.841553 260.633057,630.459595 260.864990,620.993042 
	C252.901062,628.206970 245.175476,635.195862 237.464127,642.200439 
	C236.345062,643.216919 235.121414,644.320190 236.169418,646.016602 
	C237.860474,648.753906 238.898590,652.058655 242.282761,653.627625 
	C245.563477,650.977539 247.130890,647.194336 250.085556,643.610657 
M243.123703,564.310669 
	C246.902328,566.017700 250.656876,567.780701 254.464798,569.419739 
	C261.488495,572.442810 261.507538,572.414917 264.381653,565.397095 
	C264.618713,564.818298 264.698914,564.175232 264.996887,562.981689 
	C250.422424,559.326904 236.222824,555.002930 221.641449,552.276062 
	C221.474899,552.761536 221.308350,553.247009 221.141800,553.732483 
	C228.243759,557.148254 235.345718,560.564026 243.123703,564.310669 
M292.815338,613.913574 
	C293.092621,611.306580 293.986664,607.622864 290.767151,607.160706 
	C287.197205,606.648193 288.262970,610.774292 287.903473,612.833374 
	C285.248016,628.044006 282.716461,643.279724 280.431244,658.550232 
	C279.156769,667.066711 278.428589,675.664917 277.454254,684.226318 
	C282.381897,660.963928 287.694244,637.856812 292.815338,613.913574 
M240.330460,587.715820 
	C245.198517,586.076538 250.493027,585.807983 255.104965,582.918030 
	C243.657761,582.357544 232.245605,582.020630 220.870178,582.520142 
	C216.192429,582.725586 218.601105,587.206421 218.456146,589.778564 
	C218.297882,592.586853 220.431274,592.805664 222.658356,592.231995 
	C228.281616,590.783752 233.903900,589.331726 240.330460,587.715820 
M336.012024,534.782715 
	C335.746429,535.354187 335.215912,535.897278 336.167206,536.948486 
	C341.913605,529.370972 347.665253,521.911499 353.274353,514.346252 
	C357.033661,509.275848 361.264038,504.554169 364.345825,498.973175 
	C366.492371,495.085907 365.933777,492.412842 361.255493,490.613068 
	C352.926941,505.192200 344.623993,519.726501 336.012024,534.782715 
M325.936890,668.692871 
	C327.912598,674.506470 329.941467,680.302734 331.843262,686.140442 
	C332.911682,689.419983 334.733521,690.179138 337.882965,688.718872 
	C340.941895,687.300598 340.414642,685.566711 339.142578,683.147095 
	C334.661682,674.623840 330.385895,665.992981 325.966125,657.437195 
	C324.085419,653.796631 322.041107,650.240540 320.071167,646.646118 
	C320.935089,654.164612 323.423462,661.021912 325.936890,668.692871 
M385.558197,542.341675 
	C374.222382,545.531921 361.967529,545.617798 350.845947,552.342529 
	C354.415588,553.833496 357.257721,553.796814 360.241791,553.279968 
	C369.220734,551.724731 378.211517,550.229980 387.218750,548.849182 
	C392.959290,547.969177 393.190765,547.656982 390.711151,541.948181 
	C389.198639,541.210022 387.803741,542.226196 385.558197,542.341675 
M572.034851,258.667694 
	C570.346313,258.222473 568.867371,256.898956 567.268188,257.266937 
	C570.748779,269.570587 581.078430,273.733521 591.638184,277.475067 
	C593.473206,278.125244 595.519775,277.319580 597.254761,275.288818 
	C590.366943,267.780701 581.907166,262.831665 572.034851,258.667694 
M342.082245,478.439575 
	C342.630463,476.118500 340.948730,475.481384 339.320007,475.135834 
	C337.265747,474.700043 336.955261,476.602875 336.415436,477.885864 
	C332.364929,487.512238 328.354492,497.155731 324.384674,506.815704 
	C323.231079,509.622894 322.250000,512.500977 321.189850,515.346558 
	C329.344330,503.856354 339.985657,493.889984 342.082245,478.439575 
M363.801208,671.273254 
	C367.221466,668.623596 367.362915,666.038513 363.876740,663.228943 
	C362.073334,661.775574 360.613220,659.904846 358.902039,658.326660 
	C355.604065,655.284912 353.159149,651.248596 347.895050,648.680115 
	C351.265350,658.490173 353.385559,667.601074 357.314178,676.170166 
	C358.345703,675.800110 358.901550,675.747314 359.248749,675.450378 
	C360.637360,674.262756 361.961212,672.999329 363.801208,671.273254 
M738.926270,621.729858 
	C727.012451,612.796753 715.155090,603.760254 700.287964,600.157532 
	C702.007263,604.000122 703.370789,607.798035 707.533203,609.444763 
	C717.892090,613.543030 728.198608,617.773804 738.926270,621.729858 
M243.420471,623.907166 
	C247.980560,619.760193 253.025055,616.094666 256.451569,610.702637 
	C248.152817,614.864868 240.145233,619.424622 232.156052,624.016357 
	C226.229889,627.422424 226.049377,628.866455 231.195221,634.861694 
	C235.095886,631.375061 239.001480,627.884033 243.420471,623.907166 
M353.404205,603.042847 
	C363.920319,610.184021 375.833618,613.596558 388.996033,616.645081 
	C371.549347,604.893616 356.116486,598.460083 345.273712,598.307373 
	C347.910034,599.864563 350.330139,601.294067 353.404205,603.042847 
M266.582550,711.780029 
	C260.330109,709.613708 255.328079,705.182434 249.774689,701.861511 
	C247.445786,704.416077 248.364868,707.427063 247.117783,709.762634 
	C245.833572,712.167847 247.043304,713.687500 249.181351,714.389771 
	C256.055725,716.647583 262.893585,716.080322 271.002075,714.205994 
	C268.893951,713.053040 268.036255,712.583923 266.582550,711.780029 
M605.169434,672.665894 
	C603.819336,674.137573 602.551270,675.696167 601.102966,677.063843 
	C597.545166,680.423462 598.632629,683.007263 602.772339,685.765198 
	C610.680542,674.347595 618.500244,663.057678 626.320007,651.767822 
	C618.393677,657.660767 612.417114,665.287476 605.169434,672.665894 
M301.469910,478.091766 
	C303.029816,483.019348 303.243896,488.337311 305.970337,494.193848 
	C307.662018,485.932892 309.147614,478.802795 310.567078,471.659546 
	C310.925812,469.854462 310.506073,468.320068 308.425232,467.794189 
	C305.881409,467.151337 303.255157,467.437531 301.198792,468.783447 
	C299.225159,470.075226 300.387177,472.423523 300.707520,474.338959 
	C300.871643,475.320160 301.120789,476.287170 301.469910,478.091766 
M344.481964,620.981995 
	C350.393494,622.967102 356.304993,624.952209 362.216522,626.937317 
	C362.394318,626.550903 362.572113,626.164490 362.749908,625.778076 
	C353.619141,619.516296 344.488373,613.254578 335.357605,606.992859 
	C336.875916,612.685608 336.438202,619.340271 344.481964,620.981995 
M368.866211,510.405609 
	C366.666748,515.066284 363.902618,519.494385 362.163300,525.877747 
	C368.189026,521.481689 373.133270,517.905457 378.038147,514.276062 
	C379.360840,513.297241 380.086365,511.946747 379.001678,510.406097 
	C377.351318,508.061951 376.278595,505.141663 373.361176,503.913574 
	C371.242737,505.593506 370.399170,507.800323 368.866211,510.405609 
M597.695007,505.943420 
	C600.677795,513.244873 607.537415,516.712585 612.924072,521.682800 
	C611.366455,513.704529 608.543030,506.492767 602.801086,500.737823 
	C600.385193,501.780151 599.209595,503.587738 597.695007,505.943420 
M380.965118,644.567200 
	C382.170410,642.380493 381.226746,641.125061 379.132019,640.408081 
	C372.303284,638.070862 365.469818,635.747375 358.638184,633.418518 
	C358.453278,633.753906 358.268402,634.089294 358.083527,634.424622 
	C364.644928,639.512268 371.206360,644.599854 378.053009,649.908630 
	C379.235840,647.782410 379.953857,646.491760 380.965118,644.567200 
M304.108978,546.539978 
	C310.703430,538.133789 307.290161,529.580383 304.585785,519.856445 
	C302.569794,530.386963 300.662750,539.739014 299.875275,549.197937 
	C302.478424,549.986877 302.995758,548.372253 304.108978,546.539978 
M260.366333,617.026062 
	C261.410980,615.748474 263.418884,614.941772 262.401672,611.677246 
	C251.687988,620.676392 241.666290,629.490173 232.981735,639.774841 
	C243.120636,633.718079 250.967194,624.975159 260.366333,617.026062 
M731.082642,512.161072 
	C736.206055,505.673767 741.329529,499.186401 746.354675,492.823486 
	C745.083679,490.678925 743.721985,489.588928 741.355225,488.966431 
	C737.024231,497.066895 732.673523,505.204224 728.322815,513.341553 
	C728.636780,513.529358 728.950684,513.717163 729.264587,513.904968 
	C729.742493,513.478027 730.220459,513.051086 731.082642,512.161072 
M263.440552,432.603485 
	C260.228363,432.972412 256.855408,432.355194 253.615585,434.045654 
	C253.885513,436.797516 254.183853,439.332062 256.306519,441.575317 
	C261.919617,439.146179 267.382904,436.781891 272.846191,434.417572 
	C272.752899,434.100800 272.659637,433.783997 272.566345,433.467194 
	C269.803375,433.209778 267.040436,432.952332 263.440552,432.603485 
M657.366516,569.144043 
	C655.022766,567.105469 652.679016,565.066956 650.335266,563.028381 
	C655.852112,573.680786 664.876099,582.178162 670.642578,582.829529 
	C667.762878,576.829712 661.845703,574.142822 657.366516,569.144043 
M331.574310,608.553833 
	C328.988525,601.314087 324.954407,598.275146 318.741333,598.959045 
	C318.682037,599.414856 318.397644,600.025330 318.591827,600.345520 
	C321.413086,604.997681 326.036621,607.736450 330.209747,610.899719 
	C331.382874,611.789001 331.651672,610.218933 331.574310,608.553833 
M651.392334,703.966309 
	C647.720886,719.578003 647.720886,719.578003 650.083252,722.038818 
	C652.440002,709.992981 654.669434,698.597656 656.898926,687.202271 
	C656.654114,687.148438 656.409302,687.094543 656.164551,687.040649 
	C654.647827,692.436096 653.131104,697.831482 651.392334,703.966309 
M680.801025,608.705383 
	C681.655762,612.052002 682.809570,615.184509 686.280518,616.826233 
	C688.001465,614.474426 687.979797,611.892090 688.402466,609.512817 
	C688.845398,607.019043 684.931396,603.111328 682.493408,603.384705 
	C679.282593,603.744873 680.551575,606.157104 680.801025,608.705383 
M245.583099,659.242126 
	C246.661972,660.363647 247.205154,662.244629 249.709137,661.889465 
	C251.535522,656.256775 253.409714,650.538452 254.022324,644.389465 
	C250.803940,649.016663 245.838013,652.493469 245.583099,659.242126 
M320.762329,548.653198 
	C322.474945,543.003662 324.187561,537.354187 325.900208,531.704651 
	C321.854980,534.677917 319.805023,538.652893 317.992981,542.633484 
	C316.962677,544.896851 317.001465,547.816528 320.762329,548.653198 
M343.690002,532.262695 
	C341.220917,536.216187 337.570343,539.420105 335.541351,544.575256 
	C343.411102,541.303772 346.238922,535.221802 348.466248,528.189270 
	C346.048096,528.668579 345.333679,530.497375 343.690002,532.262695 
M387.996918,552.187622 
	C384.484283,552.633606 380.971649,553.079529 377.459015,553.525513 
	C381.290710,555.348633 385.170715,555.862366 389.103027,555.625183 
	C390.674896,555.530334 393.422668,556.618469 393.325714,553.700378 
	C393.208801,550.182007 390.483795,552.171570 387.996918,552.187622 
M344.534149,602.972717 
	C345.147400,603.111572 345.760620,603.250488 346.373840,603.389404 
	C341.848450,599.859253 337.387543,596.315247 331.718262,594.539978 
	C330.990143,597.891846 332.446930,599.063538 334.506134,599.759155 
	C337.628754,600.813965 340.772644,601.805847 344.534149,602.972717 
M670.598450,575.838196 
	C672.144592,577.649536 673.619507,579.572510 677.367432,580.038025 
	C673.699463,572.660522 667.084351,569.143738 662.866882,563.593750 
	C665.308655,567.483521 667.750427,571.373230 670.598450,575.838196 
M642.984680,488.582092 
	C644.403259,491.819550 644.745667,495.539276 647.807129,499.092133 
	C645.140076,490.276764 642.747498,482.368591 640.354919,474.460419 
	C639.897522,474.594025 639.440125,474.727661 638.982666,474.861267 
	C639.234558,479.427338 641.701599,483.463623 642.984680,488.582092 
M387.801147,607.666382 
	C384.762177,606.964294 381.757446,606.002930 377.444519,606.152832 
	C382.656677,608.444702 386.098114,611.809814 390.896881,612.534302 
	C392.721039,609.416992 390.764954,608.595093 387.801147,607.666382 
M312.024445,604.507568 
	C313.750977,605.953918 314.581940,608.620239 317.513092,608.888367 
	C316.643097,602.481323 313.020142,598.756042 308.768158,599.645691 
	C308.639618,601.777405 310.606049,602.579590 312.024445,604.507568 
M251.374863,513.042297 
	C251.648407,513.191833 251.915344,513.358215 252.203308,513.470947 
	C252.242264,513.486206 252.498077,513.185730 252.466263,513.109497 
	C250.586868,508.604553 249.305313,503.815948 246.586349,499.415314 
	C243.601257,501.266144 244.750900,503.042725 245.814041,504.701904 
	C247.518738,507.362244 249.322983,509.958740 251.374863,513.042297 
M702.895447,611.584106 
	C701.009155,609.942749 698.830933,609.053284 695.083191,608.540649 
	C698.881042,613.361694 702.968872,615.935913 707.287781,618.320374 
	C705.974731,616.254822 704.661743,614.189331 702.895447,611.584106 
M257.594666,593.120422 
	C259.624817,591.770935 262.651093,591.643982 263.567627,588.521240 
	C259.583923,588.537476 253.531265,592.159241 248.836502,597.155762 
	C251.567078,595.909790 254.255524,594.683044 257.594666,593.120422 
M385.503418,538.964417 
	C386.991638,538.506531 388.998016,538.903442 389.492401,536.784424 
	C389.612488,536.269836 389.305756,535.345703 388.890106,535.070129 
	C387.144714,533.912964 385.799011,535.405701 384.417206,536.076233 
	C382.094849,537.203003 379.881714,538.554810 377.622620,539.811951 
	C377.757874,540.035889 377.893127,540.259827 378.028381,540.483826 
	C380.270447,540.043396 382.512512,539.603027 385.503418,538.964417 
M333.618774,627.958008 
	C335.023163,629.896179 336.427521,631.834290 337.831909,633.772400 
	C338.294678,633.292297 338.757446,632.812134 339.220245,632.331970 
	C338.346771,627.825928 336.968475,623.813416 330.630341,624.064697 
	C331.625702,625.407471 332.395599,626.446106 333.618774,627.958008 
M781.327820,643.280212 
	C780.770508,643.091003 780.213135,642.901855 779.655823,642.712646 
	C783.044006,645.125671 785.538391,649.113892 790.996094,649.487183 
	C788.968567,644.646667 784.958130,644.832886 781.327820,643.280212 
M690.150330,622.204773 
	C691.077942,623.196167 691.605652,624.765198 693.694580,624.525513 
	C693.370850,621.517761 693.034363,618.663086 690.498840,615.657349 
	C690.303650,618.208069 688.903687,619.729431 690.150330,622.204773 
M380.699890,436.521637 
	C380.577118,436.409485 380.469116,436.237427 380.327332,436.202454 
	C380.191681,436.169006 379.901611,436.249420 379.882660,436.328522 
	C378.968048,440.140167 379.351868,443.809784 380.839539,447.362701 
	C382.282593,443.866577 381.171448,440.473175 380.699890,436.521637 
M697.013123,564.347534 
	C694.058472,567.014282 691.415466,569.820618 692.022034,574.084534 
	C694.789246,571.446777 695.987000,568.060547 697.013123,564.347534 
M298.144043,621.576294 
	C298.249573,621.671692 298.355103,621.767151 298.460602,621.862610 
	C298.541412,621.721436 298.673401,621.587830 298.695496,621.437988 
	C299.210236,617.949402 300.793488,614.340210 297.220673,610.755432 
	C295.694733,614.626160 297.730988,617.821716 298.144043,621.576294 
M325.599915,596.462097 
	C327.467407,594.747131 327.490753,593.473755 325.398285,592.737244 
	C323.563385,592.091309 321.538177,591.986145 319.597015,591.642151 
	C319.519867,591.919128 319.442749,592.196045 319.365601,592.473022 
	C321.246277,593.720398 323.126953,594.967712 325.599915,596.462097 
M354.468842,401.718231 
	C353.105408,404.304535 354.940582,405.391022 357.025238,407.032990 
	C357.918274,403.936951 357.301849,401.485840 356.604858,399.040192 
	C354.805450,399.108337 355.149872,400.430786 354.468842,401.718231 
M373.234711,400.807373 
	C374.743195,399.957245 376.427979,399.335815 377.777954,397.094360 
	C375.222137,397.968536 371.166382,395.457764 373.234711,400.807373 
z"/>
<path fill="#000000" opacity="1.000000" stroke="none" 
	d="
M818.543640,716.713013 
	C819.719727,715.146912 820.209045,713.382324 822.971497,712.724792 
	C820.514038,718.110535 818.184326,722.924988 816.108948,727.846680 
	C814.063354,732.697693 812.329285,737.672058 812.264221,743.281250 
	C817.443481,739.944031 815.561218,732.289307 821.059570,728.722839 
	C820.792542,732.728577 818.640564,736.146606 819.104126,739.951111 
	C819.281067,741.403259 818.899658,743.134460 820.935059,743.538513 
	C822.557556,743.860596 823.274231,742.641418 823.982605,741.467468 
	C825.147339,739.537231 826.217957,737.492981 829.969971,735.877258 
	C824.883789,742.752625 830.528137,747.302307 831.187866,752.580688 
	C832.132812,760.141479 831.061157,764.163940 823.548889,766.030884 
	C817.086182,767.636963 810.524597,768.412476 803.760620,767.346497 
	C793.101257,765.666687 782.159058,765.661377 771.889832,761.749451 
	C770.490784,761.216492 768.986572,760.893494 767.681580,760.192932 
	C764.364136,758.411865 763.978027,754.988464 767.185364,753.138062 
	C771.382385,750.716797 775.630737,748.577271 778.499634,744.413757 
	C779.485840,742.982544 781.452637,742.993530 783.123596,742.949158 
	C786.619629,742.856201 790.117737,742.812988 793.615051,742.802368 
	C800.181458,742.782349 800.190552,742.777100 798.841431,736.444275 
	C798.750854,736.019226 798.973083,735.527527 799.109558,734.708069 
	C801.837952,735.823914 802.093872,738.307251 802.929016,740.324219 
	C803.496582,741.695007 803.647583,743.441772 805.604370,743.437622 
	C807.466980,743.433594 807.994629,741.793335 808.507935,740.414551 
	C810.423340,735.271057 812.120972,730.042419 814.172913,724.955566 
	C815.286743,722.194458 816.950439,719.655090 818.543640,716.713013 
z"/>
<path fill="#000000" opacity="1.000000" stroke="none" 
	d="
M183.189835,716.317627 
	C180.818512,718.258606 178.071930,718.502075 175.555222,719.277405 
	C171.918594,720.397888 168.597824,721.635803 168.786270,726.233459 
	C166.179276,726.625488 165.006897,725.370056 164.387039,723.475281 
	C163.974884,722.215393 164.563873,721.052856 165.605927,720.450317 
	C170.644577,717.536865 176.010361,715.487305 181.845123,714.899902 
	C182.499649,714.833984 183.681625,714.692017 183.189835,716.317627 
z"/>
<path fill="#000000" opacity="1.000000" stroke="none" 
	d="
M189.970108,701.393311 
	C190.928574,697.185364 190.803329,693.131897 193.236435,689.367432 
	C192.548630,713.331299 192.311737,714.639771 187.345993,716.565125 
	C190.788788,711.556702 189.351410,706.597290 189.970108,701.393311 
z"/>
</svg>