<svg xmlns="http://www.w3.org/2000/svg" width="350" height="272" viewBox="0 0 350 272">
<g>
<path d="M 110.64,99.51 L 114.14,99.94 L 116.19,100.38 L 117.06,100.68 L 118.72,101.32 L 119.40,101.72 L 120.66,102.56 L 121.14,103.05 L 121.99,104.08 L 122.27,104.66 L 122.72,105.87 L 122.79,106.55 L 122.83,107.94 L 122.69,108.70 L 122.31,110.26 L 121.96,111.10 L 120.15,114.41 L 118.54,116.66 L 117.62,117.71 L 115.71,119.74 L 114.74,120.57 L 112.80,122.09 L 111.90,122.55 L 110.05,123.41 L 109.17,123.63 L 107.42,123.94 L 106.52,123.89 L 104.67,123.65 L 103.64,123.32 L 101.50,122.51 L 100.25,121.90 L 97.57,120.37 L 96.00,119.26 L 95.33,118.67 L 94.06,117.47 L 93.54,116.84 L 92.58,115.56 L 92.22,114.90 L 91.59,113.58 L 91.40,112.90 L 91.11,111.55 L 91.09,110.87 L 91.15,109.52 L 91.31,108.85 L 91.73,107.51 L 92.08,106.86 L 92.97,105.85 L 93.97,105.03 L 94.62,104.59 L 97.54,102.77 L 99.21,101.98 L 102.45,100.57 L 104.28,99.94 L 105.13,99.75 L 106.81,99.47 L 107.70,99.43 L 109.55,99.43 M 108.74,101.38 L 107.84,101.72 L 106.98,102.10 L 106.61,102.35 L 105.93,102.90 L 105.69,103.22 L 105.28,103.89 L 105.21,104.26 L 105.18,105.03 L 105.34,105.43 L 105.91,106.29 L 106.41,106.54 L 107.56,106.93 L 108.25,106.95 L 109.69,106.86 L 110.43,106.64 L 111.88,106.07 L 112.52,105.61 L 113.47,104.82 L 113.81,104.38 L 113.85,104.17 L 113.83,103.73 L 113.70,103.46 L 113.34,102.91 L 113.04,102.54 L 111.98,101.72 L 111.13,101.41 L 110.67,101.35 M 75.82,80.52 L 77.31,80.72 L 78.01,80.98 L 79.38,81.60 L 79.98,82.05 L 81.11,83.04 L 81.56,83.67 L 82.36,85.01 L 82.60,85.79 L 82.98,87.44 L 82.97,88.36 L 82.68,90.77 L 82.22,92.17 L 81.84,92.78 L 80.98,93.93 L 80.40,94.44 L 79.12,95.41 L 78.32,95.84 L 77.21,96.44 L 76.84,96.61 L 76.16,96.86 L 75.82,96.85 L 75.09,96.72 L 74.55,96.50 L 73.31,95.97 L 72.33,95.54 L 70.42,94.50 L 69.36,93.70 L 68.93,93.25 L 68.15,92.32 L 67.87,91.81 L 67.39,90.79 L 67.26,90.24 L 67.07,89.14 L 67.09,88.58 L 67.20,87.43 L 67.38,86.84 L 67.81,85.68 L 68.14,85.09 L 68.88,83.93 L 69.37,83.35 L 71.35,81.65 L 72.80,80.91 L 73.55,80.72 L 75.07,80.47 M 76.04,82.29 L 75.23,82.76 L 74.98,83.13 L 74.61,83.93 L 74.64,84.39 L 74.85,85.32 L 75.22,85.76 L 75.97,86.42 L 76.46,86.61 L 77.47,86.86 L 77.91,86.78 L 79.13,85.94 L 79.50,85.00 L 79.47,84.48 L 79.26,83.43 L 78.95,83.01 L 78.19,82.28 L 77.62,82.17 M 122.05,68.50 L 123.68,69.33 L 124.27,70.01 L 125.28,71.54 L 125.57,72.58 L 126.00,74.83 L 126.00,76.24 L 125.88,78.26 L 125.64,79.28 L 125.41,79.70 L 124.85,80.48 L 124.42,80.85 L 123.44,81.59 L 122.75,82.01 L 120.93,83.04 L 120.16,83.39 L 119.43,83.71 L 119.14,83.80 L 118.64,83.94 L 118.50,83.93 L 115.40,83.04 L 113.47,81.83 L 112.67,81.01 L 111.20,79.26 L 110.74,78.27 L 110.00,76.25 L 110.00,75.23 L 110.74,72.51 L 111.89,70.87 L 112.71,70.20 L 114.50,68.98 L 115.55,68.60 L 117.74,68.00 L 118.90,68.00 M 120.13,69.17 L 119.18,69.42 L 118.80,69.80 L 118.23,71.03 L 118.19,72.06 L 118.36,72.51 L 118.91,73.38 L 119.33,73.59 L 120.24,73.85 L 120.72,73.77 L 121.67,73.46 L 122.04,73.12 L 122.70,72.31 L 122.81,71.74 L 122.57,70.35 L 121.96,69.63 L 121.53,69.42 L 120.60,69.12 Z" fill="rgba(0,0,0,1)"/>
<path d="M 187.76,234.94 L 187.74,236.33 L 187.68,238.83 L 187.66,240.03 L 187.60,242.19 L 187.57,243.23 L 187.49,245.08 L 187.45,245.96 L 187.35,247.53 L 187.29,248.28 L 187.16,249.59 L 187.02,250.84 L 186.61,252.71 L 186.37,253.56 L 185.73,254.78 L 185.38,255.33 L 184.44,256.13 L 183.93,256.50 L 182.65,257.11 L 180.25,258.06 L 179.14,258.48 L 176.88,259.14 L 175.72,259.44 L 173.07,259.89 L 171.67,260.10 L 168.29,260.40 L 167.38,260.47 L 165.36,260.59 L 162.00,260.74 L 160.28,260.81 L 157.11,260.89 L 156.51,260.90 L 158.18,260.78 L 159.24,260.61 L 160.21,260.43 L 160.52,260.33 L 161.00,260.12 L 161.00,260.00 L 161.30,259.61 L 161.76,259.38 L 162.10,259.29 L 163.72,258.99 L 164.75,258.98 L 171.87,258.18 L 174.18,257.63 L 175.28,257.29 L 177.42,256.57 L 178.39,256.16 L 180.26,255.30 L 181.07,254.84 L 182.57,253.89 L 183.15,253.40 L 184.20,252.41 L 184.51,251.90 L 185.00,250.90 L 185.00,250.41 L 185.32,249.43 L 185.78,248.91 L 186.07,248.81 L 186.32,248.49 L 186.48,248.04 L 186.56,247.70 L 186.72,246.96 L 186.79,246.48 L 186.94,245.46 L 187.01,244.85 L 187.29,242.17 L 187.41,240.48 L 187.63,236.89 L 187.72,234.81 L 187.80,232.96 M 144.00,259.69 L 147.30,260.15 L 148.12,260.32 L 148.40,260.39 L 148.86,260.53 L 148.92,260.59 L 149.30,260.79 L 149.16,260.77 L 149.00,260.70 L 148.93,260.63 L 148.41,260.46 L 148.10,260.37 L 147.18,260.17 L 143.77,259.66 M 320.98,230.75 L 320.97,232.45 L 320.92,235.64 L 320.90,237.19 L 320.83,240.04 L 320.80,241.42 L 320.71,243.91 L 320.66,245.10 L 320.55,247.17 L 320.50,248.15 L 320.37,249.78 L 320.30,250.53 L 320.16,251.66 L 319.93,252.77 L 319.60,253.72 L 318.34,255.27 L 317.97,255.64 L 317.03,256.30 L 316.53,256.62 L 315.31,257.20 L 314.67,257.49 L 313.14,258.00 L 312.33,258.26 L 310.47,258.72 L 309.49,258.95 L 307.25,259.38 L 303.43,259.99 L 302.51,260.13 L 300.30,260.34 L 299.14,260.44 L 296.57,260.58 L 293.92,260.69 L 288.03,260.71 L 285.07,260.69 L 279.30,260.42 L 277.91,260.34 L 275.32,260.12 L 271.84,259.71 L 270.42,259.50 L 267.75,258.74 L 266.46,258.31 L 264.17,257.17 L 263.09,256.56 L 261.35,255.12 L 259.52,252.74 L 259.05,251.80 L 258.46,250.34 L 258.22,249.66 L 258.10,248.48 L 258.09,247.90 L 258.44,246.66 L 259.47,244.39 L 259.88,243.61 L 260.29,242.16 L 260.36,241.83 L 260.37,241.31 L 260.19,240.79 L 260.08,240.68 L 259.47,240.41 L 259.10,240.27 L 258.07,239.95 L 254.03,239.01 L 252.09,238.64 L 248.80,237.74 L 247.26,237.26 L 244.77,236.15 L 243.63,235.58 L 241.95,234.29 L 241.22,233.62 L 240.36,232.17 L 240.03,231.43 L 239.99,229.84 L 240.06,229.24 L 240.11,229.30 L 240.31,229.20 L 240.80,228.89 L 241.16,228.60 L 241.94,227.93 L 242.41,227.48 L 243.40,226.51 L 243.94,225.94 L 245.67,224.26 L 246.70,223.40 L 247.15,223.11 L 247.98,222.62 L 248.31,222.53 L 248.90,222.44 L 249.09,222.56 L 249.80,222.82 L 249.86,222.58 L 249.66,222.26 L 249.68,221.33 L 250.20,220.75 L 250.65,220.58 L 251.63,219.96 L 251.86,219.52 L 251.70,219.36 L 250.77,219.25 L 249.82,219.57 L 249.24,219.88 L 248.43,220.37 L 248.71,220.15 L 249.55,219.47 L 249.92,219.15 L 250.40,218.68 L 250.63,218.29 L 250.58,218.25 L 249.75,218.30 L 249.23,218.34 L 247.63,218.56 L 246.74,218.68 L 244.57,219.03 L 240.89,219.67 L 239.16,219.98 L 235.36,220.47 L 233.37,220.69 L 228.73,221.01 L 227.51,221.08 L 224.82,221.19 L 223.44,221.25 L 221.05,221.31 L 221.16,221.28 L 221.58,220.93 L 222.42,220.49 L 223.16,220.29 L 223.59,220.23 L 225.48,220.14 L 226.51,220.31 L 227.95,220.47 L 228.75,220.48 L 229.05,220.44 L 229.59,220.32 L 229.75,220.22 L 230.00,219.99 L 230.00,219.83 L 230.26,219.44 L 230.68,219.25 L 230.99,219.19 L 232.47,219.07 L 233.48,219.19 L 236.02,219.31 L 236.65,219.26 L 236.86,219.22 L 237.20,219.10 L 237.23,219.03 L 237.98,218.62 L 239.02,218.26 L 239.73,218.05 L 241.27,217.62 L 242.15,217.39 L 243.98,216.93 L 244.92,216.71 L 246.80,216.29 L 247.69,216.10 L 249.41,215.75 L 250.14,215.63 L 251.48,215.41 L 251.93,215.37 L 252.68,215.34 L 252.75,215.41 L 252.64,215.64 L 252.30,215.83 L 252.01,215.94 L 250.59,216.36 L 249.60,216.55 L 247.06,217.28 L 246.47,217.56 L 246.28,217.70 L 246.00,217.97 L 246.00,218.09 L 246.21,218.34 L 246.54,218.41 L 246.78,218.40 L 247.93,218.22 L 248.67,217.94 L 249.93,217.53 L 250.61,217.41 L 250.89,217.42 L 251.80,217.67 L 252.06,218.09 L 252.95,218.75 L 253.64,218.70 L 253.94,218.49 L 254.51,217.95 L 254.67,217.56 L 254.89,216.69 L 254.80,216.19 L 255.00,215.31 L 255.54,214.72 L 256.04,214.42 L 257.22,213.79 L 258.07,213.44 L 259.97,212.71 L 261.23,212.29 L 264.25,211.21 L 266.41,210.39 L 267.49,209.96 L 269.60,209.10 L 270.55,208.70 L 272.36,207.90 L 273.06,207.56 L 275.20,206.59 L 276.23,206.19 L 276.55,206.11 L 277.06,206.04 L 277.11,206.13 L 277.09,206.39 L 276.88,206.64 L 276.30,207.42 L 276.15,207.75 L 276.20,207.84 L 276.38,207.96 L 276.60,207.96 L 277.14,207.91 L 277.55,207.84 L 278.52,207.81 L 278.98,207.97 L 279.14,208.18 L 279.41,208.66 L 279.49,209.04 L 279.63,209.90 L 279.66,210.50 L 279.70,211.68 L 279.69,212.14 L 279.66,212.20 L 279.59,212.21 L 279.54,212.05 L 279.42,211.63 L 279.34,211.25 L 278.70,209.62 L 278.34,209.33 L 278.09,209.26 L 277.52,209.18 L 277.14,209.22 L 276.29,209.37 L 275.74,209.52 L 274.54,209.89 L 273.78,210.17 L 272.15,210.77 L 271.15,211.17 L 269.02,212.02 L 267.74,212.54 L 260.89,215.58 L 258.92,216.56 L 258.04,217.03 L 256.35,217.97 L 255.61,218.43 L 254.21,219.32 L 253.62,219.75 L 252.51,220.60 L 252.07,220.99 L 251.28,221.77 L 251.01,222.14 L 250.55,222.85 L 250.45,223.17 L 249.50,224.75 L 248.55,225.71 L 248.05,225.97 L 247.30,226.61 L 246.85,227.23 L 246.65,227.59 L 245.95,229.20 L 245.77,230.00 L 245.54,231.56 L 245.66,232.06 L 245.83,232.49 L 245.98,232.59 L 246.33,232.70 L 246.58,232.61 L 247.63,232.69 L 248.24,233.18 L 248.39,233.58 L 249.61,235.04 L 250.90,235.81 L 251.66,236.05 L 253.22,236.43 L 253.97,236.44 L 255.41,236.31 L 255.97,236.02 L 256.87,235.63 L 257.34,235.55 L 257.53,235.59 L 257.89,235.75 L 258.03,235.92 L 258.29,236.32 L 258.41,236.62 L 259.36,237.60 L 259.87,237.73 L 260.20,237.73 L 260.90,237.68 L 261.34,237.59 L 262.26,237.37 L 262.82,237.19 L 264.00,236.79 L 264.69,236.52 L 266.15,235.93 L 267.00,235.57 L 268.77,234.78 L 269.78,234.32 L 274.19,232.52 L 275.38,232.13 L 275.82,232.02 L 276.59,231.86 L 276.77,231.89 L 277.58,231.65 L 277.84,231.15 L 277.77,230.80 L 277.95,229.96 L 278.42,229.69 L 278.77,229.76 L 279.31,229.71 L 279.55,229.50 L 279.61,229.29 L 279.69,228.82 L 279.67,228.48 L 279.59,227.74 L 279.50,227.26 L 279.21,225.74 L 279.14,225.22 L 279.17,225.20 L 279.28,225.31 L 279.42,225.60 L 279.75,226.32 L 280.00,226.91 L 280.28,229.16 L 279.76,230.64 L 279.15,231.37 L 277.69,232.82 L 276.61,233.52 L 274.23,234.92 L 272.70,235.59 L 269.14,237.57 L 268.04,238.32 L 267.59,238.69 L 266.75,239.41 L 266.47,239.72 L 264.60,241.35 L 263.37,242.06 L 262.97,242.08 L 262.12,242.26 L 262.32,242.49 L 262.79,242.68 L 263.38,243.00 L 263.58,243.24 L 263.58,243.39 L 263.52,243.73 L 263.39,243.95 L 263.06,244.43 L 262.80,244.74 L 262.21,245.52 L 262.08,245.83 L 262.16,245.89 L 262.41,245.94 L 262.70,245.87 L 263.39,245.69 L 263.91,245.53 L 265.13,245.20 L 265.63,245.15 L 265.75,245.23 L 265.89,245.46 L 265.85,245.69 L 265.69,246.23 L 265.52,246.63 L 264.56,249.39 L 264.24,250.96 L 264.23,251.63 L 264.32,252.90 L 264.52,253.44 L 265.03,254.48 L 265.44,254.93 L 267.27,256.34 L 268.71,257.01 L 269.42,257.18 L 270.78,257.40 L 271.31,257.31 L 272.23,257.00 L 272.39,256.60 L 273.00,256.17 L 273.55,256.52 L 273.88,257.00 L 275.00,257.74 L 276.35,258.13 L 277.41,258.29 L 278.55,258.44 L 279.23,258.50 L 280.67,258.63 L 281.52,258.69 L 283.30,258.80 L 284.33,258.85 L 286.48,258.95 L 287.71,259.00 L 292.70,259.13 L 295.65,259.16 L 296.84,259.13 L 299.01,259.07 L 299.69,259.00 L 300.31,258.93 L 300.51,258.89 L 300.81,258.80 L 300.83,258.75 L 301.58,258.22 L 302.42,258.00 L 302.90,258.00 L 304.42,257.86 L 305.62,257.64 L 306.29,257.48 L 309.11,256.70 L 310.55,256.19 L 313.37,255.10 L 314.52,254.54 L 315.61,253.98 L 316.04,253.71 L 316.82,253.18 L 317.06,252.94 L 318.43,250.69 L 319.00,248.82 L 319.00,248.00 L 319.29,245.88 L 319.49,245.39 L 319.61,245.24 L 319.86,245.00 L 320.00,245.00 L 320.23,244.63 L 320.36,244.02 L 320.42,243.54 L 320.54,242.46 L 320.60,241.76 L 320.70,240.22 L 320.74,239.29 L 320.82,237.33 L 320.85,236.18 L 320.91,233.79 L 320.93,232.44 L 320.97,229.65 L 320.98,228.10 L 321.00,224.91 L 321.00,227.28 M 151.25,194.25 L 151.49,194.58 L 151.64,195.04 L 151.71,195.37 L 151.96,196.97 L 152.06,198.11 L 152.23,200.58 L 152.28,202.04 L 152.37,205.09 L 152.39,206.73 L 152.36,213.55 L 152.21,216.74 L 152.04,219.85 L 151.92,221.21 L 151.66,223.78 L 151.50,224.76 L 150.71,227.71 L 149.80,229.29 L 149.01,230.04 L 148.14,230.80 L 147.59,231.19 L 146.41,232.00 L 145.68,232.44 L 144.12,233.36 L 143.18,233.88 L 141.18,234.97 L 140.00,235.59 L 134.85,238.77 L 132.08,240.97 L 131.06,242.08 L 130.11,243.19 L 129.73,243.73 L 129.04,244.82 L 128.80,245.36 L 128.38,246.42 L 128.28,246.94 L 128.15,247.95 L 128.20,248.44 L 128.98,250.97 L 129.98,252.15 L 130.71,252.47 L 131.71,253.04 L 132.17,253.46 L 132.30,253.71 L 132.51,254.23 L 132.52,254.55 L 132.49,255.20 L 132.39,255.60 L 132.49,257.05 L 132.81,257.44 L 133.06,257.61 L 133.66,257.93 L 134.08,258.08 L 135.00,258.37 L 135.27,258.43 L 133.90,258.19 L 133.27,258.07 L 131.29,257.88 L 130.21,257.80 L 127.59,257.71 L 118.86,257.78 L 116.18,257.90 L 114.05,257.86 L 114.85,257.83 L 116.60,257.73 L 117.15,257.63 L 117.64,257.52 L 117.78,257.45 L 118.00,257.30 L 118.00,257.22 L 118.26,256.77 L 118.66,256.48 L 118.95,256.35 L 120.36,255.90 L 121.25,255.81 L 124.50,255.50 L 124.17,249.91 L 124.07,246.78 L 124.18,245.28 L 124.37,244.69 L 124.86,243.57 L 125.30,243.01 L 126.30,241.86 L 127.04,241.12 L 128.65,239.69 L 129.95,238.66 L 130.66,238.16 L 133.60,236.20 L 134.87,235.55 L 137.77,234.04 L 139.35,233.15 L 139.98,232.72 L 141.14,231.88 L 141.59,231.45 L 142.41,230.56 L 142.71,230.06 L 143.24,229.01 L 143.41,228.40 L 143.71,227.10 L 143.80,226.32 L 143.94,224.66 L 143.97,223.65 L 144.00,221.53 L 144.00,220.26 L 144.06,216.97 L 144.19,219.52 L 144.65,224.88 L 144.72,225.63 L 144.86,226.86 L 144.93,227.44 L 145.05,228.35 L 145.12,228.76 L 145.25,229.38 L 145.32,229.66 L 145.49,230.03 L 145.67,230.33 L 146.19,230.33 L 147.40,229.67 L 147.68,229.48 L 148.31,228.86 L 148.62,228.53 L 149.23,227.70 L 149.83,226.83 L 150.69,224.89 L 151.03,223.93 L 151.50,221.70 L 151.70,220.57 L 151.88,218.32 L 151.94,217.22 L 151.80,215.37 L 151.23,213.48 L 150.97,213.12 L 149.86,212.34 L 149.25,211.96 L 147.80,211.30 L 147.08,211.00 L 145.79,210.66 L 145.51,210.60 L 145.05,210.59 L 145.02,210.60 L 145.19,210.26 L 145.46,210.04 L 146.76,209.36 L 147.60,209.26 L 147.87,209.42 L 149.33,209.78 L 150.27,209.52 L 150.66,209.18 L 151.39,208.38 L 151.63,207.82 L 152.00,206.61 L 152.00,205.89 L 151.71,203.85 L 151.51,203.38 L 151.39,203.23 L 151.14,203.00 L 151.00,203.00 L 150.61,202.64 L 150.38,202.07 L 150.29,201.65 L 150.13,200.74 L 150.08,200.20 L 150.00,199.05 L 150.00,198.42 L 150.07,196.36 L 150.19,195.35 L 150.30,195.02 L 150.53,194.45 L 150.68,194.33 L 151.03,194.18 M 107.39,257.68 L 108.45,257.73 L 107.23,257.69 L 106.53,257.63 M 101.78,257.25 L 101.31,257.21 L 99.88,257.07 L 99.34,257.00 M 91.50,255.74 L 93.99,256.25 L 93.51,256.17 L 92.38,255.96 L 90.46,255.51 L 89.89,255.33 M 102.65,227.93 L 102.03,228.41 L 100.66,229.29 L 99.79,229.70 L 97.91,230.54 L 96.75,231.08 L 94.77,232.00 L 93.64,232.55 L 93.15,232.80 L 91.40,233.74 L 90.69,234.20 L 89.35,235.15 L 88.68,235.73 L 87.31,236.99 L 86.47,237.83 L 84.19,241.13 L 83.31,243.51 L 83.22,244.54 L 83.18,245.54 L 83.25,245.95 L 83.45,246.71 L 83.65,246.97 L 84.10,247.41 L 84.43,247.48 L 85.14,247.50 L 85.59,247.33 L 86.34,247.20 L 86.67,247.37 L 86.76,247.61 L 86.89,248.21 L 86.90,248.71 L 86.87,249.82 L 86.81,250.60 L 86.52,254.23 L 85.92,254.07 L 84.24,253.89 L 84.03,253.92 L 83.62,253.78 L 83.42,253.68 L 83.02,253.29 L 82.64,252.84 L 81.99,251.32 L 81.69,250.48 L 81.27,248.37 L 81.00,244.80 L 81.00,243.96 L 81.14,242.61 L 81.25,241.98 L 81.68,240.87 L 81.94,240.32 L 82.76,239.23 L 84.57,237.37 L 85.55,236.44 L 87.88,234.80 L 88.44,234.44 L 89.50,233.87 L 90.82,233.36 L 91.76,233.13 L 94.24,232.18 L 95.53,231.65 L 98.20,230.34 L 99.51,229.67 L 101.74,228.33 L 102.24,228.00 L 103.02,227.43 M 108.48,240.29 L 108.67,240.72 L 108.50,241.00 L 108.07,241.52 L 107.79,241.71 L 107.20,242.00 L 106.94,242.00 L 106.28,241.71 L 106.00,241.27 L 106.00,241.00 L 106.46,240.29 L 107.13,240.00 L 107.56,240.00 M 242.60,225.12 L 241.62,226.28 L 241.11,226.93 L 241.39,226.44 L 243.04,224.63 L 244.19,223.68 M 142.31,16.08 L 143.58,16.15 L 146.13,16.60 L 147.40,16.88 L 149.92,17.78 L 153.59,19.65 L 154.76,20.36 L 156.77,21.95 L 157.72,22.78 L 159.30,24.57 L 160.03,25.49 L 161.17,27.45 L 161.69,28.46 L 162.38,30.58 L 162.68,31.66 L 162.92,33.91 L 162.99,35.05 L 162.78,37.42 L 162.62,38.61 L 161.94,41.06 L 160.41,44.81 L 157.82,50.01 L 161.21,54.75 L 161.68,55.41 L 162.71,56.96 L 163.23,57.77 L 164.27,59.47 L 164.78,60.32 L 165.71,61.97 L 166.84,64.15 L 167.42,65.34 L 168.87,67.27 L 169.62,68.14 L 171.21,69.28 L 171.60,69.51 L 172.36,69.80 L 172.73,69.91 L 173.41,69.94 L 173.74,69.92 L 174.32,69.68 L 175.02,68.97 L 175.12,68.81 L 175.66,68.52 L 175.98,68.38 L 176.89,68.14 L 180.40,67.75 L 181.69,67.73 L 183.82,67.51 L 184.28,67.45 L 184.95,67.29 L 185.48,67.04 L 185.50,66.99 L 185.78,66.90 L 185.96,66.86 L 186.51,66.77 L 187.12,66.68 L 189.03,66.51 L 190.07,66.43 L 192.65,66.29 L 197.00,66.15 L 198.53,66.12 L 201.51,65.98 L 202.97,65.90 L 205.59,65.70 L 206.82,65.59 L 208.77,65.34 L 209.21,65.28 L 209.89,65.15 L 210.63,64.95 L 211.04,64.79 L 212.36,64.54 L 213.08,64.42 L 214.86,64.25 L 216.73,64.09 L 221.01,64.03 L 222.06,64.03 L 224.06,64.09 L 225.02,64.13 L 226.69,64.28 L 227.46,64.36 L 228.60,64.58 L 229.50,65.00 L 229.58,65.14 L 230.24,65.39 L 230.64,65.51 L 231.80,65.71 L 232.43,65.80 L 233.95,65.92 L 236.46,66.00 L 237.45,66.00 L 239.92,66.14 L 241.23,66.24 L 244.20,66.55 L 245.74,66.73 L 249.08,67.19 L 249.47,67.24 L 245.23,66.80 L 242.88,66.63 L 238.09,66.31 L 235.48,66.21 L 230.13,66.02 L 227.20,65.97 L 221.14,65.89 L 217.80,65.89 L 212.60,65.91 L 209.31,65.94 L 207.77,65.96 L 204.77,66.01 L 203.40,66.04 L 200.75,66.12 L 199.57,66.16 L 197.32,66.25 L 196.36,66.30 L 194.56,66.41 L 193.85,66.47 L 192.56,66.59 L 192.12,66.65 L 191.39,66.79 L 191.26,66.86 L 189.89,67.37 L 188.45,67.78 L 187.53,68.02 L 185.58,68.49 L 184.49,68.73 L 182.27,69.20 L 181.12,69.42 L 177.81,70.06 L 176.00,70.43 L 175.29,70.60 L 173.97,70.93 L 173.46,71.09 L 172.56,71.41 L 172.25,71.58 L 171.70,71.93 L 171.53,72.13 L 171.27,72.55 L 171.23,72.79 L 171.25,73.87 L 171.45,74.64 L 171.81,76.86 L 171.97,78.75 L 172.02,79.85 L 172.09,82.14 L 172.09,83.39 L 172.07,85.93 L 172.03,87.25 L 171.77,92.57 L 171.53,95.02 L 171.26,97.41 L 171.10,98.48 L 170.76,100.52 L 170.57,101.35 L 168.60,108.22 L 166.91,112.90 L 165.92,115.20 L 163.85,119.74 L 162.70,121.87 L 160.37,125.99 L 159.14,127.80 L 157.32,130.26 L 155.92,131.99 L 155.15,132.88 L 151.89,136.45 L 150.17,138.12 L 146.72,141.35 L 145.12,142.64 L 143.56,143.86 L 142.85,144.35 L 141.49,145.25 L 140.91,145.55 L 139.52,146.31 L 138.43,146.95 L 137.85,147.30 L 135.47,148.78 L 134.49,149.44 L 132.65,150.54 L 131.17,151.29 L 130.32,151.67 L 126.68,153.20 L 124.60,153.93 L 120.32,155.34 L 118.12,155.94 L 113.70,157.04 L 111.63,157.42 L 105.76,158.50 L 105.62,191.66 L 105.60,198.25 L 105.58,202.21 L 105.57,203.98 L 105.55,207.39 L 105.54,208.90 L 105.50,211.81 L 105.47,213.09 L 105.41,215.54 L 105.36,216.61 L 105.26,218.66 L 105.19,219.54 L 105.04,221.22 L 104.94,221.94 L 104.73,223.30 L 104.60,223.88 L 104.57,223.99 L 104.69,222.88 L 104.75,222.16 L 104.86,220.36 L 104.91,219.40 L 104.99,217.10 L 105.03,215.88 L 105.08,213.04 L 105.11,211.55 L 105.14,208.13 L 105.17,202.32 L 105.17,199.98 L 105.17,195.73 L 105.18,193.67 L 105.18,189.95 L 105.18,188.15 L 105.18,184.91 L 105.18,183.35 L 105.17,180.57 L 105.17,179.24 L 105.16,176.88 L 105.15,175.75 L 105.13,173.78 L 105.12,172.84 L 105.10,171.22 L 105.08,170.45 L 105.05,169.15 L 105.03,168.54 L 104.98,167.52 L 104.96,167.05 L 104.90,166.28 L 104.84,165.56 L 104.68,164.74 L 104.60,164.40 L 104.38,164.11 L 103.98,164.00 L 103.82,164.00 L 103.56,163.79 L 103.44,163.65 L 103.27,163.21 L 103.18,161.25 L 103.26,160.56 L 103.24,159.65 L 103.16,159.25 L 102.46,158.75 L 102.22,158.65 L 101.53,158.47 L 101.14,158.39 L 100.12,158.24 L 99.56,158.17 L 98.14,158.02 L 95.50,157.78 L 94.40,157.68 L 92.24,157.43 L 91.18,157.29 L 89.26,157.00 L 88.36,156.85 L 86.91,156.55 L 85.50,156.14 L 85.22,156.01 L 84.37,155.69 L 83.90,155.52 L 82.77,155.13 L 79.76,154.23 L 79.91,154.27 L 82.01,154.73 L 83.22,154.92 L 85.75,155.27 L 87.13,155.40 L 92.95,155.79 L 96.04,155.81 L 102.26,155.73 L 105.19,155.51 L 108.07,155.25 L 109.40,155.08 L 111.99,154.71 L 113.13,154.47 L 120.26,152.64 L 124.89,151.06 L 127.12,150.10 L 131.54,148.09 L 133.66,146.92 L 137.82,144.49 L 139.80,143.13 L 143.68,140.32 L 145.49,138.78 L 149.04,135.60 L 150.68,133.89 L 153.85,130.39 L 155.29,128.53 L 158.05,124.72 L 159.27,122.72 L 162.36,116.91 L 164.19,112.76 L 164.97,110.59 L 166.46,106.21 L 167.07,103.97 L 168.19,99.49 L 168.60,97.25 L 169.33,92.80 L 169.54,90.64 L 169.86,86.36 L 169.85,84.33 L 169.73,80.35 L 169.49,78.53 L 168.90,74.99 L 168.42,73.44 L 167.12,68.95 L 166.81,67.78 L 166.71,67.36 L 166.55,66.64 L 166.55,66.50 L 165.93,65.29 L 165.05,64.26 L 164.50,63.78 L 163.33,62.56 L 163.17,62.27 L 163.17,62.18 L 163.22,62.04 L 163.34,62.03 L 163.28,61.48 L 162.86,60.63 L 162.49,60.03 L 161.68,58.70 L 161.16,57.91 L 160.07,56.28 L 159.45,55.40 L 156.88,51.78 L 155.62,50.16 L 154.39,48.59 L 153.84,47.93 L 152.80,46.72 L 152.39,46.31 L 150.65,44.97 L 150.15,44.74 L 149.96,44.72 L 149.62,44.72 L 149.52,44.81 L 149.13,44.98 L 149.07,44.71 L 149.17,44.41 L 148.80,43.09 L 147.92,41.99 L 147.20,41.36 L 145.60,40.06 L 144.58,39.37 L 142.41,37.95 L 141.17,37.23 L 138.58,35.79 L 137.19,35.08 L 134.34,33.69 L 132.86,33.05 L 129.89,31.80 L 128.42,31.27 L 125.48,30.25 L 124.07,29.86 L 121.77,29.17 L 120.67,28.79 L 120.37,28.66 L 119.93,28.42 L 119.97,28.36 L 120.26,28.29 L 120.70,28.33 L 122.82,28.33 L 123.25,28.23 L 123.36,28.16 L 123.49,27.99 L 123.43,27.89 L 123.40,27.17 L 123.70,26.68 L 123.98,26.51 L 124.69,25.72 L 124.98,25.02 L 124.97,24.69 L 124.64,24.39 L 124.17,24.82 L 123.88,25.32 L 123.18,26.21 L 122.61,26.58 L 122.23,26.66 L 121.39,26.76 L 121.08,26.74 L 121.29,26.74 L 122.20,26.41 L 122.65,26.18 L 123.66,25.29 L 125.58,23.17 L 126.43,22.18 L 128.35,20.50 L 129.33,19.71 L 131.48,18.45 L 132.58,17.86 L 134.91,17.02 L 136.09,16.65 L 138.54,16.23 L 139.78,16.07 M 199.77,220.44 L 202.35,220.49 L 203.67,220.54 L 209.01,220.76 L 211.34,220.93 L 213.57,221.10 L 214.50,221.20 L 216.15,221.39 L 215.41,221.40 L 209.75,221.44 L 188.28,221.50 L 188.29,221.17 L 191.40,220.66 L 193.34,220.49 L 195.14,220.43 L 196.23,220.42 L 198.52,220.42 M 187.64,197.48 L 187.93,197.96 L 188.08,198.42 L 188.36,199.47 L 188.50,200.22 L 188.69,201.55 L 188.75,202.43 L 188.85,204.30 L 188.88,205.36 L 188.88,209.86 L 188.79,212.04 L 188.68,214.18 L 188.61,215.12 L 188.45,216.89 L 188.35,217.57 L 188.16,218.76 L 188.04,219.06 L 187.81,219.44 L 187.69,219.25 L 187.30,218.07 L 187.33,217.27 L 187.50,217.00 L 187.63,216.29 L 187.35,216.00 L 187.06,216.00 L 186.61,215.39 L 186.37,214.41 L 186.28,213.64 L 186.12,211.93 L 186.07,210.83 L 186.00,208.47 L 186.00,207.06 L 186.06,203.92 L 186.16,202.10 L 186.24,201.33 L 186.40,199.89 L 186.50,199.33 L 186.71,198.32 L 186.84,197.99 L 187.09,197.44 L 187.22,197.36 L 187.50,197.31 M 326.19,187.51 L 324.58,191.93 L 323.31,195.21 L 324.92,190.93 L 326.55,186.44 M 326.29,109.11 L 327.96,111.94 L 330.64,117.96 L 333.65,127.50 L 333.90,128.57 L 334.35,131.09 L 334.56,132.40 L 334.94,135.24 L 335.28,138.12 L 335.69,143.95 L 335.77,145.34 L 335.83,147.87 L 335.85,149.07 L 335.78,151.06 L 335.73,151.97 L 335.53,153.21 L 335.07,154.00 L 334.92,154.00 L 334.65,154.26 L 334.52,154.42 L 334.31,154.95 L 333.99,157.25 L 333.99,157.83 L 333.76,159.63 L 333.61,160.61 L 333.11,163.09 L 332.83,164.40 L 332.27,166.78 L 333.36,160.85 L 333.67,157.58 L 334.12,151.04 L 334.09,147.64 L 334.00,142.96 L 333.91,140.16 L 333.85,139.00 L 333.72,136.88 L 333.65,136.17 L 333.58,135.53 L 333.54,135.31 L 333.47,134.95 L 333.43,134.89 L 333.32,134.26 L 333.56,134.00 L 333.82,134.00 L 334.25,133.40 L 334.30,132.46 L 334.23,131.76 L 334.01,130.23 L 333.82,129.30 L 333.38,127.33 L 333.08,126.23 L 331.72,121.59 L 330.85,119.19 L 329.01,114.42 L 328.02,112.40 L 324.79,106.76 M 117.39,138.08 L 118.05,138.21 L 118.28,138.32 L 118.66,138.55 L 118.74,138.71 L 118.82,139.05 L 118.76,139.25 L 118.33,139.92 L 117.92,140.18 L 116.99,140.63 L 116.46,140.75 L 115.37,140.91 L 114.88,140.85 L 113.98,140.64 L 113.71,140.38 L 113.04,139.38 L 113.02,138.83 L 113.22,138.63 L 113.77,138.27 L 114.25,138.16 L 115.34,138.00 L 116.08,138.00 M 37.17,122.15 L 40.34,127.08 L 42.21,129.42 L 46.12,134.02 L 48.32,136.16 L 52.31,139.81 L 50.52,138.32 L 49.15,137.12 L 46.61,134.64 L 43.16,130.81 L 41.98,129.37 L 39.89,126.53 L 38.89,125.12 L 37.13,122.29 L 36.30,120.87 L 35.69,119.66 M 135.86,117.34 L 136.15,117.77 L 136.68,118.87 L 136.82,119.80 L 136.88,121.07 L 136.78,121.70 L 136.50,122.91 L 136.28,123.39 L 135.79,124.24 L 135.51,124.43 L 134.95,124.62 L 134.69,124.36 L 134.42,123.82 L 134.27,123.24 L 134.20,122.87 L 134.00,121.19 L 134.00,120.25 L 134.36,118.06 L 134.89,117.26 L 135.20,117.21 M 35.69,119.66 L 34.86,118.01 L 34.18,116.57 L 33.50,114.79 M 33.31,114.30 L 33.05,113.63 L 32.52,112.14 L 31.68,109.07 L 31.47,108.20 M 322.74,103.55 L 323.43,104.63 L 322.16,102.84 M 56.60,42.14 L 56.26,42.48 L 55.46,43.29 L 54.88,43.84 L 53.61,45.05 L 52.82,45.78 L 47.62,51.27 L 44.31,55.45 L 42.78,57.72 L 39.82,62.36 L 38.53,64.77 L 36.08,69.64 L 35.11,72.07 L 33.75,76.00 L 32.94,78.86 L 32.59,80.38 L 31.33,86.64 L 30.95,89.83 L 30.62,93.01 L 30.52,94.55 L 30.38,97.61 L 30.38,99.05 L 30.43,101.87 L 30.50,102.80 L 30.48,102.63 L 30.17,99.18 L 29.97,93.70 L 29.94,85.50 L 25.62,82.88 L 24.42,82.15 L 22.31,80.56 L 21.31,79.74 L 19.62,77.98 L 18.82,77.08 L 17.55,75.19 L 16.97,74.23 L 16.12,72.22 L 15.75,71.21 L 15.35,69.11 L 15.20,68.05 L 15.24,65.89 L 15.31,64.81 L 15.80,62.61 L 17.06,59.28 L 17.70,57.97 L 18.65,55.72 L 18.85,55.23 L 19.10,54.49 L 19.23,53.87 L 19.17,53.62 L 19.66,52.87 L 19.99,52.45 L 21.19,51.43 L 21.87,50.89 L 23.69,49.68 L 27.00,47.74 L 27.88,47.26 L 29.45,46.56 L 30.23,46.25 L 31.76,45.84 L 32.55,45.67 L 34.26,45.50 L 37.26,45.49 L 38.84,45.54 L 41.52,45.82 L 42.10,45.90 L 42.97,46.07 L 43.68,46.34 L 44.07,46.74 L 45.16,47.00 L 45.75,47.04 L 47.26,46.59 L 48.07,46.28 L 50.02,45.12 L 53.47,42.57 L 53.57,42.48 L 52.59,43.29 L 51.99,43.83 L 50.86,44.85 L 50.41,45.30 L 49.62,46.13 L 49.37,46.46 L 49.00,47.04 L 49.00,47.21 L 49.22,47.47 L 49.56,47.43 L 49.81,47.31 L 50.35,47.01 L 50.68,46.77 L 51.37,46.25 L 51.75,45.91 L 54.28,43.73 L 55.96,42.38 L 56.52,41.97 L 56.85,41.82 M 308.55,89.05 L 308.74,89.22 L 307.92,88.60 M 299.67,83.02 L 300.62,83.65 L 300.31,83.46 L 296.93,81.54 M 37.63,46.62 L 34.63,46.96 L 33.12,47.34 L 30.11,48.25 L 28.76,48.90 L 25.69,50.75 L 23.84,52.21 L 23.02,53.05 L 21.47,54.77 L 20.81,55.71 L 19.57,57.64 L 19.09,58.65 L 18.20,60.72 L 17.90,61.78 L 17.39,63.93 L 17.29,65.01 L 17.18,67.18 L 17.30,68.25 L 17.63,70.37 L 17.97,71.40 L 18.78,73.11 L 19.61,74.41 L 20.13,75.10 L 22.44,77.86 L 23.74,79.00 L 25.00,80.07 L 25.58,80.52 L 26.71,81.34 L 27.18,81.64 L 28.06,82.15 L 28.37,82.26 L 28.90,82.38 L 28.99,82.28 L 29.38,81.50 L 29.75,80.58 L 29.97,79.97 L 30.94,77.15 L 31.44,75.50 L 33.42,69.89 L 35.04,66.10 L 35.90,64.34 L 37.66,60.95 L 38.52,59.57 L 39.36,58.25 L 39.76,57.70 L 40.55,56.67 L 40.91,56.29 L 42.39,54.52 L 42.73,54.02 L 42.84,53.82 L 43.00,53.47 L 43.00,53.37 L 43.45,52.37 L 44.11,51.44 L 44.53,50.97 L 45.29,50.03 L 45.54,49.55 L 45.53,49.33 L 45.42,48.92 L 45.22,48.69 L 44.75,48.21 L 44.37,47.89 L 43.19,47.22 L 42.20,46.89 L 41.62,46.79 L 39.09,46.53 M 289.64,77.85 L 291.67,78.87 L 287.70,77.06 M 278.53,73.58 L 281.54,74.71 L 277.73,73.35 L 274.54,72.43 M 48.06,48.00 L 47.31,48.29 L 47.00,48.72 L 47.00,49.00 L 47.05,49.52 L 47.13,49.71 L 47.32,50.00 L 47.44,50.00 L 47.93,49.71 L 48.33,49.27 L 48.50,49.00 L 48.63,48.29 L 48.35,48.00 M 138.58,17.88 L 136.67,18.35 L 135.17,18.88 L 134.06,19.41 L 133.48,19.74 L 131.08,21.24 L 129.98,22.10 L 127.88,23.85 L 127.16,24.65 L 126.51,25.42 L 126.31,25.76 L 126.00,26.39 L 126.00,26.63 L 126.51,27.16 L 127.32,27.65 L 127.91,27.94 L 129.20,28.55 L 129.97,28.87 L 131.60,29.53 L 132.50,29.85 L 135.06,30.83 L 136.61,31.47 L 137.25,31.76 L 138.43,32.33 L 138.83,32.56 L 139.48,32.98 L 139.56,33.10 L 140.08,33.61 L 140.66,34.06 L 141.05,34.32 L 142.81,35.43 L 143.82,35.96 L 145.60,37.06 L 147.00,38.05 L 147.74,38.63 L 150.76,41.11 L 152.00,42.33 L 153.23,43.51 L 153.82,44.02 L 154.95,44.96 L 155.43,45.32 L 156.34,45.95 L 156.67,46.11 L 157.24,46.33 L 157.36,46.26 L 157.84,45.73 L 158.27,45.10 L 158.51,44.68 L 159.56,42.73 L 160.06,41.59 L 160.93,39.12 L 161.28,37.48 L 161.36,36.66 L 161.38,33.43 L 161.02,31.88 L 160.05,28.85 L 159.25,27.46 L 157.45,24.79 L 156.29,23.63 L 153.79,21.44 L 152.33,20.58 L 149.28,19.03 L 147.60,18.55 L 144.14,17.77 L 142.31,17.73 M 55.42,40.98 L 56.09,40.43 L 56.89,39.90 M 78.07,29.42 L 75.68,30.23 L 71.18,31.84 L 73.22,30.94 L 79.63,28.86 L 82.02,28.32 M 90.96,26.35 L 90.00,26.52 L 89.44,26.64 L 90.00,26.51 L 90.94,26.35 L 91.83,26.25 M 113.10,25.79 L 114.30,25.87 L 116.41,26.09 L 118.56,26.43 L 115.64,26.04 L 113.37,25.82 L 112.15,25.75 L 107.70,25.55 L 107.96,25.55 Z" fill="rgba(64,40,18,1)"/>
<path d="M 266.15,235.93 L 264.69,236.52 L 264.00,236.79 L 262.82,237.19 L 262.60,237.26 L 262.88,237.16 L 264.07,236.73 L 264.80,236.46 L 266.32,235.86 M 258.16,235.97 L 258.37,236.52 L 258.42,236.64 L 258.41,236.62 L 258.29,236.32 L 258.03,235.92 L 257.98,235.86 M 279.22,231.40 L 278.77,231.87 L 277.81,232.77 L 277.22,233.19 L 275.97,234.00 L 275.22,234.39 L 274.61,234.69 L 276.61,233.52 L 277.69,232.82 L 279.15,231.37 L 279.57,230.87 M 279.50,227.26 L 279.59,227.74 L 279.67,228.48 L 279.69,228.82 L 279.61,229.29 L 279.55,229.50 L 279.31,229.71 L 278.77,229.76 L 278.42,229.69 L 277.95,229.96 L 277.77,230.80 L 277.84,231.15 L 277.58,231.65 L 276.77,231.89 L 276.59,231.86 L 275.82,232.02 L 275.38,232.13 L 274.19,232.52 L 271.98,233.42 L 272.29,233.28 L 273.06,232.86 L 274.52,232.03 L 275.13,231.61 L 276.26,230.75 L 276.72,230.31 L 277.57,229.39 L 277.90,228.89 L 278.51,227.87 L 278.74,227.31 L 279.16,226.13 L 279.23,225.82 M 246.33,232.70 L 246.33,232.70 L 246.58,232.61 M 142.41,230.56 L 142.33,230.64 L 142.59,230.26 M 264.76,185.64 L 264.97,185.83 L 265.41,186.29 L 265.68,186.61 L 266.26,187.34 L 266.60,187.81 L 267.31,188.83 L 267.73,189.46 L 268.62,190.79 L 269.12,191.59 L 270.19,193.27 L 270.80,194.24 L 274.14,198.66 L 275.36,200.00 L 275.93,200.55 L 277.05,201.55 L 277.52,201.88 L 280.02,204.14 L 280.61,205.03 L 280.84,205.55 L 281.27,206.65 L 281.42,207.29 L 281.70,208.67 L 281.79,209.48 L 281.93,211.21 L 281.96,212.23 L 281.99,214.39 L 281.97,215.66 L 281.91,218.32 L 281.85,219.87 L 281.65,223.35 L 281.45,225.33 L 281.30,226.18 L 280.98,227.79 L 280.75,228.47 L 280.25,229.77 L 279.93,230.33 L 279.81,230.52 L 280.28,229.16 L 280.00,226.91 L 279.75,226.32 L 279.42,225.60 L 279.32,225.39 L 279.57,224.11 L 279.66,223.35 L 279.89,218.40 L 279.74,215.16 L 279.55,213.77 L 279.34,212.43 L 279.21,211.85 L 278.93,210.76 L 278.76,210.34 L 278.43,209.58 L 278.24,209.35 L 278.16,209.28 L 278.34,209.33 L 278.70,209.62 L 279.34,211.25 L 279.42,211.63 L 279.54,212.05 L 279.59,212.21 L 279.66,212.20 L 279.69,212.14 L 279.70,211.68 L 279.66,210.50 L 279.63,209.90 L 279.49,209.04 L 279.41,208.66 L 279.14,208.18 L 278.98,207.97 L 278.52,207.81 L 277.55,207.84 L 277.14,207.91 L 276.60,207.96 L 276.38,207.96 L 276.20,207.84 L 276.15,207.75 L 276.30,207.42 L 276.88,206.64 L 277.09,206.39 L 277.11,206.13 L 277.06,206.04 L 276.75,206.08 L 277.26,205.86 L 274.23,202.68 L 272.55,200.75 L 271.35,199.20 L 270.73,198.35 L 268.24,194.76 L 267.14,192.97 L 266.08,191.22 L 265.62,190.41 L 264.78,188.85 L 264.47,188.20 L 263.92,186.98 L 263.79,186.54 L 263.63,185.79 L 263.72,185.65 L 264.42,185.44 M 142.71,230.06 L 142.65,230.16 L 142.72,230.02 M 247.41,226.56 L 246.93,227.18 L 246.72,227.56 L 245.97,229.18 L 245.77,230.00 L 245.75,230.12 L 245.77,230.00 L 245.95,229.20 L 246.65,227.59 L 246.85,227.23 L 247.30,226.61 L 248.05,225.97 L 248.20,225.90 M 251.70,219.36 L 251.86,219.52 L 251.63,219.96 L 250.65,220.58 L 250.20,220.75 L 249.68,221.33 L 249.66,222.26 L 249.81,222.50 L 249.47,222.50 L 249.45,222.69 L 249.09,222.56 L 248.90,222.44 L 248.31,222.53 L 247.98,222.62 L 247.15,223.11 L 246.70,223.40 L 245.67,224.26 L 243.94,225.94 L 243.40,226.51 L 242.41,227.48 L 241.94,227.93 L 241.16,228.60 L 240.80,228.89 L 240.31,229.20 L 240.11,229.30 L 240.00,229.18 L 240.00,228.84 L 240.44,227.91 L 240.72,227.42 L 241.62,226.28 L 242.60,225.12 L 245.29,222.69 L 245.97,222.11 L 247.34,221.09 L 248.01,220.62 L 249.24,219.88 L 249.82,219.57 L 250.77,219.25 M 248.77,225.59 L 248.55,225.71 L 249.15,225.10 M 251.00,222.24 L 250.71,222.68 L 250.66,222.68 L 251.00,222.15 M 141.57,206.33 L 141.98,206.47 L 143.84,207.23 L 144.91,207.83 L 148.13,209.19 L 149.08,209.43 L 149.47,209.47 L 150.18,209.48 L 150.40,209.40 L 150.49,209.33 L 150.27,209.52 L 149.33,209.78 L 147.87,209.42 L 147.60,209.26 L 146.76,209.36 L 145.46,210.04 L 145.19,210.26 L 144.77,211.07 L 144.59,211.55 L 144.32,212.98 L 144.21,213.79 L 144.08,215.97 L 144.00,220.26 L 144.00,221.53 L 143.99,222.38 L 143.99,221.88 L 143.88,218.62 L 143.71,216.65 L 143.59,215.80 L 143.31,214.19 L 143.13,213.55 L 142.75,212.39 L 142.52,212.00 L 141.04,209.36 L 140.42,208.15 L 140.27,207.75 L 140.07,207.06 L 140.09,206.83 L 140.23,206.44 L 140.39,206.28 L 140.94,206.20 M 262.70,214.81 L 259.67,216.35 L 258.29,217.10 L 255.64,218.59 L 254.56,219.26 L 252.59,220.54 L 252.42,220.68 L 252.51,220.60 L 253.62,219.75 L 254.21,219.32 L 255.61,218.43 L 256.35,217.97 L 258.04,217.03 L 258.92,216.56 L 260.89,215.58 L 263.39,214.47 M 237.27,219.01 L 237.49,218.87 L 237.64,218.81 M 269.60,209.10 L 267.49,209.96 L 266.41,210.39 L 264.25,211.21 L 261.23,212.29 L 259.97,212.71 L 258.07,213.44 L 257.22,213.79 L 256.04,214.42 L 255.54,214.72 L 255.00,215.31 L 254.80,216.19 L 254.89,216.69 L 254.67,217.56 L 254.51,217.95 L 253.94,218.49 L 253.64,218.70 L 252.95,218.75 L 252.06,218.09 L 251.80,217.67 L 250.89,217.42 L 250.61,217.41 L 249.93,217.53 L 248.67,217.94 L 247.93,218.22 L 246.78,218.40 L 246.54,218.41 L 246.21,218.34 L 246.00,218.09 L 246.00,217.97 L 246.28,217.70 L 246.47,217.56 L 247.06,217.28 L 249.60,216.55 L 250.59,216.36 L 252.01,215.94 L 252.30,215.83 L 252.64,215.64 L 252.75,215.41 L 252.68,215.34 L 251.93,215.37 L 251.48,215.41 L 250.14,215.63 L 249.41,215.75 L 247.69,216.10 L 246.80,216.29 L 245.67,216.54 L 246.12,216.43 L 247.50,216.10 L 254.22,214.38 L 258.45,213.14 L 260.53,212.46 L 264.68,211.03 L 266.80,210.21 L 269.71,209.06 M 152.00,205.89 L 152.00,206.61 L 151.63,207.82 L 151.39,208.38 L 151.30,208.48 L 151.33,208.43 L 151.47,208.12 L 151.92,206.71 L 151.99,205.95 L 151.99,205.83 M 66.31,149.06 L 70.55,151.10 L 68.47,150.24 L 65.16,148.46 M 59.80,145.27 L 63.80,147.73 L 63.04,147.32 L 60.37,145.78 L 58.17,144.21 M 53.65,140.83 L 57.03,143.40 L 55.32,142.18 L 52.86,140.31 L 51.93,139.46 M 48.58,136.39 L 48.32,136.16 L 48.27,136.11 M 37.41,122.52 L 37.17,122.15 L 35.69,119.66 L 35.39,119.00 M 30.84,105.57 L 31.14,107.11 L 31.01,106.69 L 30.80,105.63 L 30.65,104.30 M 36.43,69.02 L 35.10,72.31 L 34.52,74.00 L 33.43,77.43 L 32.97,79.20 L 32.12,82.77 L 31.79,84.60 L 31.19,88.30 L 30.99,90.19 L 30.59,94.64 L 30.44,97.36 L 30.42,98.61 L 30.51,102.91 L 30.43,101.87 L 30.38,99.05 L 30.38,97.61 L 30.52,94.55 L 30.62,93.01 L 30.95,89.83 L 31.33,86.64 L 32.59,80.38 L 32.94,78.86 L 33.75,76.00 L 35.11,72.07 L 36.08,69.64 L 36.64,68.53 M 47.47,51.47 L 47.46,51.48 L 47.62,51.27 L 47.86,51.02 M 48.63,48.29 L 48.50,49.00 L 48.33,49.27 L 47.93,49.71 L 47.44,50.00 L 47.32,50.00 L 47.13,49.71 L 47.05,49.52 L 47.00,49.00 L 47.00,48.72 L 47.31,48.29 L 48.06,48.00 L 48.35,48.00 M 124.97,24.69 L 124.98,25.02 L 124.69,25.72 L 123.98,26.51 L 123.70,26.68 L 123.40,27.17 L 123.43,27.89 L 123.49,27.99 L 123.36,28.16 L 123.25,28.23 L 122.82,28.33 L 120.70,28.33 L 120.26,28.29 L 119.97,28.36 L 119.93,28.42 L 120.37,28.66 L 120.67,28.79 L 121.77,29.17 L 124.07,29.86 L 125.48,30.25 L 128.42,31.27 L 129.89,31.80 L 132.86,33.05 L 134.34,33.69 L 137.19,35.08 L 138.58,35.79 L 141.17,37.23 L 142.41,37.95 L 143.46,38.64 L 141.82,37.61 L 140.47,36.86 L 137.66,35.37 L 136.15,34.64 L 133.06,33.22 L 131.47,32.57 L 128.26,31.31 L 126.67,30.77 L 123.51,29.76 L 122.00,29.38 L 117.88,28.54 L 114.90,28.11 L 113.32,27.96 L 106.82,27.54 L 103.43,27.58 L 96.61,27.84 L 93.32,28.22 L 90.06,28.64 L 88.50,28.92 L 85.43,29.51 L 84.00,29.87 L 78.50,31.45 L 74.95,32.67 L 73.25,33.37 L 69.87,34.82 L 68.25,35.62 L 65.05,37.28 L 63.52,38.19 L 60.51,40.06 L 59.07,41.07 L 56.25,43.14 L 54.91,44.25 L 52.28,46.52 L 51.04,47.72 L 49.91,48.86 L 52.82,45.78 L 53.61,45.05 L 54.88,43.84 L 55.46,43.29 L 56.26,42.48 L 56.60,42.14 L 56.85,41.82 L 56.52,41.97 L 55.96,42.38 L 54.28,43.73 L 51.75,45.91 L 51.37,46.25 L 50.68,46.77 L 50.35,47.01 L 49.81,47.31 L 49.56,47.43 L 49.22,47.47 L 49.00,47.21 L 49.00,47.04 L 49.37,46.46 L 49.62,46.13 L 50.41,45.30 L 50.86,44.85 L 51.99,43.83 L 52.59,43.29 L 53.98,42.15 L 55.41,40.99 L 58.68,38.59 L 63.50,35.45 L 64.24,35.01 L 65.98,34.12 L 66.89,33.68 L 68.91,32.79 L 70.99,31.90 L 75.68,30.23 L 78.07,29.42 L 82.98,28.05 L 90.00,26.52 L 90.96,26.35 L 93.12,26.09 L 94.24,25.97 L 96.67,25.78 L 99.13,25.62 L 104.43,25.53 L 107.07,25.52 L 112.15,25.75 L 113.37,25.82 L 115.64,26.04 L 118.69,26.45 L 119.54,26.59 L 120.81,26.73 L 121.39,26.76 L 122.23,26.66 L 122.61,26.58 L 123.18,26.21 L 123.88,25.32 L 124.17,24.82 L 124.64,24.39 M 148.80,43.09 L 149.17,44.41 L 148.79,43.07 M 257.33,235.54 L 257.52,235.58 L 257.56,235.60 L 257.53,235.59 L 257.34,235.55 L 256.87,235.63 L 255.97,236.02 L 256.86,235.63 M 139.24,233.19 L 139.86,232.78 L 141.02,231.96 L 141.47,231.54 L 142.07,230.93 L 141.59,231.45 L 141.14,231.88 L 139.98,232.72 L 139.35,233.15 L 137.77,234.04 L 134.87,235.55 L 137.69,234.07 M 74.05,152.44 L 77.62,153.70 L 79.91,154.27 L 77.00,153.54 Z" fill="rgba(37,18,7,1)"/>
<path d="M 153.08,192.21 L 153.92,192.53 L 154.36,192.77 L 156.15,193.94 L 157.00,194.73 L 158.63,196.40 L 159.24,197.30 L 160.30,199.10 L 160.48,199.93 L 160.60,200.94 L 160.61,201.80 L 160.58,202.32 L 160.41,204.58 L 160.22,205.95 L 159.78,208.84 L 159.48,210.42 L 158.85,213.66 L 158.47,215.32 L 157.70,218.64 L 157.28,220.23 L 156.42,223.36 L 155.99,224.76 L 155.11,227.43 L 154.69,228.49 L 153.87,230.42 L 153.49,231.01 L 152.20,232.75 L 151.14,233.97 L 150.55,234.56 L 149.35,235.71 L 148.74,236.21 L 147.54,237.16 L 147.00,237.50 L 144.25,239.65 L 143.65,240.30 L 143.47,240.58 L 143.22,241.09 L 143.25,241.26 L 142.90,242.06 L 142.16,242.27 L 141.61,242.17 L 140.78,242.11 L 140.40,242.18 L 140.30,242.28 L 140.15,242.53 L 140.16,242.71 L 140.22,243.14 L 140.33,243.42 L 140.48,244.54 L 140.23,245.00 L 139.97,245.00 L 139.28,244.69 L 139.00,244.23 L 139.00,243.94 L 138.71,243.37 L 138.28,243.33 L 138.00,243.50 L 137.29,244.23 L 137.00,244.84 L 137.00,245.12 L 137.30,245.64 L 137.73,245.67 L 138.01,245.50 L 138.92,245.58 L 139.51,246.16 L 139.69,246.65 L 140.84,248.40 L 142.06,249.81 L 142.75,250.48 L 144.16,251.77 L 144.77,252.22 L 145.36,252.63 L 145.61,252.76 L 146.06,252.96 L 146.22,252.97 L 146.64,252.62 L 146.72,252.09 L 146.63,251.75 L 146.54,251.09 L 146.63,251.05 L 146.75,251.26 L 147.31,251.63 L 147.83,251.61 L 148.07,251.45 L 148.52,251.57 L 148.50,252.15 L 148.31,252.62 L 148.09,253.40 L 148.07,253.74 L 148.14,253.83 L 148.33,253.96 L 148.50,253.95 L 148.89,253.87 L 149.17,253.77 L 150.65,253.62 L 151.70,253.83 L 152.09,254.08 L 153.09,254.61 L 153.72,254.74 L 155.12,254.90 L 156.11,254.83 L 157.17,254.73 L 157.80,254.64 L 159.13,254.44 L 159.92,254.30 L 161.58,253.98 L 162.56,253.78 L 164.60,253.35 L 165.79,253.10 L 169.84,252.11 L 172.01,251.44 L 172.89,251.08 L 174.52,250.33 L 175.19,249.91 L 176.45,249.03 L 176.99,248.51 L 179.09,245.76 L 179.60,244.57 L 179.80,243.81 L 180.18,242.18 L 180.33,241.14 L 180.61,238.89 L 180.73,237.47 L 180.93,234.42 L 181.02,232.54 L 181.10,230.59 L 181.13,229.52 L 181.21,227.30 L 181.24,226.08 L 181.31,223.57 L 181.34,222.20 L 181.41,219.38 L 181.45,217.84 L 181.61,211.75 L 181.74,208.33 L 181.83,206.90 L 182.01,204.24 L 182.13,203.16 L 182.38,201.15 L 182.53,200.36 L 182.87,198.92 L 183.08,198.37 L 183.53,197.39 L 183.80,197.04 L 184.37,196.42 L 184.71,196.21 L 185.43,195.86 L 185.86,195.75 L 186.84,195.65 L 187.34,195.82 L 187.52,196.05 L 187.86,196.62 L 188.00,197.08 L 188.26,198.13 L 188.38,198.87 L 188.61,200.73 L 188.67,201.42 L 188.50,200.22 L 188.36,199.47 L 188.08,198.42 L 187.93,197.96 L 187.64,197.48 L 187.50,197.31 L 187.22,197.36 L 187.09,197.44 L 186.84,197.99 L 186.71,198.32 L 186.50,199.33 L 186.40,199.89 L 186.24,201.33 L 186.16,202.10 L 186.06,203.92 L 186.00,207.06 L 186.00,208.47 L 186.07,210.83 L 186.12,211.93 L 186.28,213.64 L 186.37,214.41 L 186.61,215.39 L 187.06,216.00 L 187.35,216.00 L 187.63,216.29 L 187.50,217.00 L 187.33,217.27 L 187.30,218.07 L 187.69,219.25 L 187.81,219.44 L 188.04,219.06 L 188.16,218.76 L 188.35,217.57 L 188.45,216.89 L 188.61,215.12 L 188.68,214.18 L 188.79,212.04 L 188.88,209.86 L 188.88,205.36 L 188.85,204.30 L 188.75,202.43 L 188.72,201.90 L 188.75,202.26 L 188.80,203.11 L 188.99,206.63 L 188.99,208.19 L 189.07,210.45 L 189.19,211.81 L 189.28,212.38 L 189.47,213.43 L 189.58,213.79 L 189.82,214.39 L 189.95,214.47 L 190.61,214.66 L 191.36,214.77 L 191.88,214.82 L 193.00,214.91 L 193.68,214.94 L 195.11,215.01 L 195.93,215.04 L 199.46,215.12 L 201.50,215.13 L 205.75,215.14 L 208.01,215.12 L 212.58,215.05 L 214.86,214.99 L 219.36,214.85 L 221.45,214.76 L 225.49,214.56 L 227.20,214.44 L 228.84,214.31 L 229.57,214.24 L 230.94,214.10 L 231.50,214.02 L 238.69,212.86 L 243.33,211.89 L 245.73,211.27 L 250.63,209.93 L 253.35,209.07 L 256.11,208.19 L 257.59,207.69 L 260.62,206.66 L 262.25,206.08 L 265.75,204.89 L 267.91,204.19 L 268.83,203.91 L 270.54,203.40 L 271.15,203.24 L 272.19,203.00 L 272.38,203.00 L 272.58,202.43 L 272.29,201.52 L 271.95,200.81 L 271.13,199.25 L 270.54,198.25 L 269.65,196.79 L 270.73,198.35 L 271.35,199.20 L 272.55,200.75 L 274.23,202.68 L 277.26,205.86 L 273.38,207.53 L 271.10,208.51 L 266.80,210.21 L 264.68,211.03 L 260.53,212.46 L 258.45,213.14 L 254.22,214.38 L 247.50,216.10 L 246.12,216.43 L 243.60,217.06 L 242.39,217.38 L 240.36,217.94 L 239.43,218.20 L 238.13,218.62 L 237.86,218.72 L 237.49,218.87 L 237.23,219.03 L 237.20,219.11 L 236.86,219.22 L 236.65,219.26 L 236.02,219.31 L 233.48,219.19 L 232.47,219.07 L 230.99,219.19 L 230.68,219.25 L 230.26,219.44 L 230.00,219.83 L 230.00,219.99 L 229.75,220.22 L 229.59,220.32 L 229.05,220.44 L 228.75,220.48 L 227.95,220.47 L 226.51,220.31 L 225.48,220.14 L 223.59,220.23 L 223.16,220.29 L 222.42,220.49 L 221.58,220.93 L 221.16,221.28 L 219.63,221.62 L 216.83,221.51 L 216.23,221.40 L 214.50,221.20 L 213.57,221.10 L 211.34,220.93 L 209.01,220.76 L 203.67,220.54 L 202.35,220.49 L 199.77,220.44 L 198.52,220.42 L 196.23,220.42 L 195.14,220.43 L 193.34,220.49 L 191.40,220.66 L 188.29,221.17 L 187.72,234.81 L 187.63,236.89 L 187.41,240.48 L 187.29,242.17 L 187.01,244.85 L 186.94,245.46 L 186.79,246.48 L 186.72,246.96 L 186.56,247.70 L 186.48,248.04 L 186.32,248.49 L 186.07,248.81 L 185.78,248.91 L 185.32,249.43 L 185.00,250.41 L 185.00,250.90 L 184.51,251.90 L 184.20,252.41 L 183.15,253.40 L 182.57,253.89 L 181.07,254.84 L 180.26,255.30 L 178.39,256.16 L 177.42,256.57 L 175.28,257.29 L 174.18,257.63 L 171.87,258.18 L 164.75,258.98 L 163.72,258.99 L 162.10,259.29 L 161.76,259.38 L 161.30,259.61 L 161.00,260.00 L 161.00,260.12 L 160.52,260.33 L 160.21,260.43 L 159.24,260.61 L 158.18,260.78 L 155.30,260.98 L 153.84,261.05 L 151.19,261.01 L 150.60,260.98 L 149.70,260.86 L 149.30,260.79 L 148.92,260.59 L 148.86,260.53 L 148.40,260.39 L 148.12,260.32 L 147.30,260.15 L 144.00,259.69 L 142.70,259.54 L 140.49,259.28 L 139.45,259.15 L 137.72,258.89 L 136.91,258.76 L 135.60,258.50 L 135.00,258.37 L 134.08,258.08 L 133.66,257.93 L 133.06,257.61 L 132.81,257.44 L 132.49,257.05 L 132.39,255.60 L 132.49,255.20 L 132.52,254.55 L 132.51,254.23 L 132.30,253.71 L 132.17,253.46 L 131.71,253.04 L 130.71,252.47 L 129.98,252.15 L 128.98,250.97 L 128.20,248.44 L 128.15,247.95 L 128.28,246.94 L 128.38,246.42 L 128.80,245.36 L 129.04,244.82 L 129.73,243.73 L 130.11,243.19 L 131.06,242.08 L 132.08,240.97 L 134.85,238.77 L 140.00,235.59 L 141.18,234.97 L 143.18,233.88 L 144.12,233.36 L 145.68,232.44 L 146.41,232.00 L 147.59,231.19 L 148.14,230.80 L 149.01,230.04 L 149.80,229.29 L 150.71,227.71 L 151.50,224.76 L 151.66,223.78 L 151.92,221.21 L 152.04,219.85 L 152.21,216.74 L 152.36,213.55 L 152.39,206.73 L 152.37,205.09 L 152.28,202.04 L 152.23,200.58 L 152.06,198.11 L 151.96,196.97 L 151.71,195.37 L 151.64,195.04 L 151.49,194.58 L 151.25,194.25 L 151.03,194.18 L 150.68,194.33 L 150.53,194.45 L 150.30,195.02 L 150.19,195.35 L 150.07,196.36 L 150.00,198.41 L 150.01,196.53 L 150.04,195.47 L 150.06,195.03 L 150.19,193.54 L 150.32,193.09 L 150.65,192.37 L 150.91,192.21 L 151.50,192.00 L 151.92,192.00 M 221.14,65.89 L 227.20,65.97 L 230.13,66.02 L 235.48,66.21 L 238.09,66.31 L 242.88,66.63 L 245.23,66.80 L 249.62,67.26 L 253.95,67.76 L 262.04,69.26 L 264.06,69.69 L 268.16,70.69 L 274.54,72.43 L 277.73,73.35 L 283.81,75.52 L 286.79,76.65 L 292.41,79.20 L 295.16,80.53 L 300.31,83.46 L 302.82,84.98 L 307.47,88.27 L 309.73,89.96 L 313.86,93.59 L 315.86,95.45 L 319.44,99.41 L 321.16,101.42 L 324.17,105.68 L 328.02,112.40 L 329.01,114.42 L 330.85,119.19 L 331.72,121.59 L 333.08,126.23 L 333.38,127.33 L 333.82,129.30 L 334.01,130.23 L 334.23,131.76 L 334.30,132.46 L 334.25,133.40 L 333.82,134.00 L 333.56,134.00 L 333.32,134.26 L 333.43,134.89 L 333.47,134.95 L 333.54,135.31 L 333.58,135.53 L 333.65,136.17 L 333.72,136.88 L 333.85,139.00 L 333.91,140.16 L 334.00,142.96 L 334.09,147.64 L 334.12,151.04 L 333.67,157.58 L 333.36,160.85 L 332.12,167.55 L 331.76,169.26 L 330.87,172.81 L 330.40,174.61 L 329.27,178.39 L 328.67,180.31 L 327.29,184.39 L 324.92,190.93 L 321.00,201.36 L 321.00,224.91 L 320.98,228.10 L 320.97,229.65 L 320.93,232.44 L 320.91,233.79 L 320.85,236.18 L 320.82,237.33 L 320.74,239.29 L 320.70,240.22 L 320.60,241.76 L 320.54,242.46 L 320.42,243.54 L 320.36,244.02 L 320.23,244.63 L 320.00,245.00 L 319.86,245.00 L 319.61,245.24 L 319.49,245.39 L 319.29,245.88 L 319.00,248.00 L 319.00,248.82 L 318.43,250.69 L 317.06,252.94 L 316.82,253.18 L 316.04,253.71 L 315.61,253.98 L 314.52,254.54 L 313.37,255.10 L 310.55,256.19 L 309.11,256.70 L 306.29,257.48 L 305.62,257.64 L 304.42,257.86 L 302.90,258.00 L 302.42,258.00 L 301.58,258.22 L 300.83,258.75 L 300.81,258.80 L 300.51,258.89 L 300.31,258.93 L 299.69,259.00 L 299.01,259.07 L 296.84,259.13 L 295.65,259.16 L 292.70,259.13 L 287.71,259.00 L 286.48,258.95 L 284.33,258.85 L 283.30,258.80 L 281.52,258.69 L 280.67,258.63 L 279.23,258.50 L 278.55,258.44 L 277.41,258.29 L 276.35,258.13 L 275.00,257.74 L 273.88,257.00 L 273.55,256.52 L 273.00,256.17 L 272.39,256.60 L 272.23,257.00 L 271.31,257.31 L 270.78,257.40 L 269.42,257.18 L 268.71,257.01 L 267.27,256.34 L 265.44,254.93 L 265.03,254.48 L 264.52,253.44 L 264.32,252.90 L 264.23,251.63 L 264.24,250.96 L 264.56,249.39 L 265.52,246.63 L 265.69,246.23 L 265.85,245.69 L 265.89,245.46 L 265.75,245.23 L 265.63,245.15 L 265.13,245.20 L 263.91,245.53 L 263.39,245.69 L 262.70,245.87 L 262.41,245.94 L 262.16,245.89 L 262.08,245.83 L 262.21,245.52 L 262.80,244.74 L 263.06,244.43 L 263.39,243.95 L 263.52,243.73 L 263.58,243.39 L 263.58,243.24 L 263.38,243.00 L 262.79,242.68 L 262.32,242.49 L 262.12,242.26 L 262.97,242.08 L 263.37,242.06 L 264.60,241.35 L 266.47,239.72 L 266.75,239.41 L 267.59,238.69 L 268.04,238.32 L 269.14,237.57 L 272.70,235.59 L 273.63,235.18 L 275.22,234.39 L 275.97,234.00 L 277.22,233.19 L 277.81,232.77 L 278.77,231.87 L 279.22,231.40 L 279.93,230.33 L 280.25,229.77 L 280.75,228.47 L 280.98,227.79 L 281.30,226.18 L 281.45,225.33 L 281.65,223.35 L 281.85,219.87 L 281.91,218.32 L 281.97,215.66 L 281.99,214.39 L 281.96,212.23 L 281.93,211.21 L 281.79,209.48 L 281.70,208.67 L 281.42,207.29 L 281.27,206.65 L 280.84,205.55 L 280.61,205.03 L 280.02,204.14 L 277.52,201.88 L 277.07,201.56 L 277.53,201.88 L 280.09,203.66 L 281.47,204.66 L 282.03,205.12 L 283.04,206.00 L 283.43,206.44 L 284.14,207.32 L 284.40,207.79 L 284.87,208.77 L 285.03,209.34 L 285.32,210.55 L 285.41,211.27 L 285.58,212.80 L 285.64,213.74 L 285.75,215.72 L 285.81,216.92 L 285.90,220.79 L 285.86,223.22 L 285.79,224.31 L 285.63,226.38 L 285.51,227.24 L 285.23,228.80 L 285.06,229.33 L 284.32,230.84 L 283.55,232.08 L 283.05,232.78 L 280.86,235.72 L 279.67,237.11 L 278.49,238.46 L 277.94,239.04 L 276.88,240.13 L 276.44,240.52 L 275.63,241.18 L 275.36,241.31 L 274.93,241.41 L 274.90,241.20 L 274.80,241.13 L 274.69,241.28 L 274.61,241.44 L 274.26,242.31 L 274.06,243.00 L 273.75,245.36 L 274.00,246.53 L 274.30,246.86 L 275.01,247.34 L 275.50,247.27 L 276.55,246.91 L 277.15,246.36 L 278.66,245.37 L 279.49,245.15 L 279.67,245.33 L 279.75,245.73 L 279.63,246.12 L 279.49,246.35 L 278.75,247.35 L 278.16,247.86 L 276.85,249.29 L 276.24,250.24 L 276.09,250.65 L 275.92,251.40 L 276.02,251.61 L 276.36,251.92 L 276.75,251.84 L 277.26,251.87 L 277.78,251.98 L 278.11,252.07 L 279.54,252.52 L 280.32,252.84 L 281.99,253.29 L 283.55,253.55 L 284.48,253.66 L 288.50,254.00 L 290.53,254.00 L 295.14,253.79 L 298.00,253.46 L 299.33,253.19 L 301.90,252.59 L 303.06,252.20 L 305.32,251.36 L 306.32,250.84 L 308.24,249.76 L 309.07,249.13 L 310.63,247.82 L 311.27,247.09 L 312.46,245.56 L 312.90,244.72 L 313.69,242.99 L 313.93,242.05 L 314.12,240.92 L 314.25,239.79 L 314.32,239.05 L 314.46,237.48 L 314.52,236.55 L 314.65,234.61 L 314.72,233.52 L 314.97,228.87 L 315.08,226.24 L 315.28,220.82 L 315.35,218.00 L 315.87,197.50 L 320.50,184.00 L 323.59,174.50 L 325.30,168.69 L 325.98,166.02 L 327.22,160.80 L 327.67,158.38 L 328.46,153.66 L 328.69,151.44 L 329.04,147.08 L 329.05,145.01 L 328.97,140.91 L 328.78,138.92 L 328.28,134.98 L 327.88,133.03 L 326.98,129.12 L 326.38,127.14 L 324.57,121.64 L 323.31,118.30 L 322.64,116.77 L 321.27,113.80 L 320.53,112.43 L 318.99,109.74 L 318.14,108.49 L 316.38,106.02 L 315.40,104.84 L 313.37,102.50 L 312.23,101.36 L 309.88,99.08 L 308.56,97.94 L 305.83,95.64 L 304.31,94.46 L 299.16,90.77 L 295.53,88.47 L 293.62,87.40 L 289.73,85.30 L 287.68,84.33 L 283.51,82.44 L 281.33,81.57 L 276.88,79.87 L 274.55,79.10 L 269.81,77.60 L 267.32,76.93 L 262.28,75.62 L 259.65,75.04 L 254.30,73.92 L 251.50,73.43 L 248.52,72.98 L 246.28,72.71 L 245.06,72.59 L 239.88,72.14 L 236.99,71.98 L 231.02,71.69 L 227.86,71.61 L 221.48,71.48 L 218.26,71.47 L 211.84,71.49 L 208.75,71.57 L 202.68,71.75 L 199.91,71.90 L 197.18,72.06 L 195.91,72.16 L 193.43,72.36 L 192.30,72.47 L 190.11,72.71 L 189.14,72.85 L 187.28,73.13 L 186.50,73.28 L 181.55,74.27 L 178.91,74.82 L 177.88,75.08 L 176.00,75.61 L 175.30,75.91 L 174.06,76.52 L 173.63,76.90 L 172.88,77.71 L 172.66,78.23 L 172.29,79.35 L 172.20,80.06 L 172.09,81.60 L 172.09,81.95 L 172.02,79.85 L 171.97,78.75 L 171.81,76.86 L 171.45,74.64 L 171.25,73.87 L 171.23,72.79 L 171.27,72.55 L 171.53,72.13 L 171.70,71.93 L 172.25,71.58 L 172.56,71.41 L 173.46,71.09 L 173.97,70.93 L 175.29,70.60 L 176.00,70.43 L 177.81,70.06 L 181.12,69.42 L 182.27,69.20 L 184.49,68.73 L 185.58,68.49 L 187.53,68.02 L 188.45,67.78 L 189.89,67.37 L 191.26,66.86 L 191.39,66.79 L 192.12,66.65 L 192.56,66.59 L 193.85,66.47 L 194.56,66.41 L 196.36,66.30 L 197.32,66.25 L 199.57,66.16 L 200.75,66.12 L 203.40,66.04 L 204.77,66.01 L 207.77,65.96 L 209.31,65.94 L 212.60,65.91 L 217.80,65.89 M 117.02,156.46 L 114.72,157.35 L 113.79,157.77 L 112.09,158.57 L 111.53,158.90 L 110.63,159.52 L 110.55,159.73 L 110.46,160.41 L 110.42,161.20 L 110.41,161.76 L 110.41,162.96 L 110.42,163.70 L 110.44,165.27 L 110.47,166.16 L 110.59,170.04 L 110.70,172.30 L 110.93,177.00 L 111.08,179.51 L 111.47,187.96 L 111.62,193.44 L 111.63,196.07 L 111.61,201.25 L 111.55,203.68 L 111.38,208.44 L 111.25,210.63 L 110.94,214.87 L 110.74,216.75 L 110.30,220.34 L 110.03,221.86 L 109.46,224.70 L 109.13,225.81 L 108.44,227.79 L 108.05,228.41 L 107.04,229.85 L 106.18,230.92 L 105.69,231.48 L 103.60,233.77 L 102.52,234.80 L 101.46,235.80 L 100.97,236.23 L 100.02,237.05 L 99.61,237.35 L 98.85,237.88 L 98.58,238.02 L 98.10,238.19 L 98.00,238.11 L 97.65,238.10 L 97.37,238.29 L 97.23,238.47 L 96.62,239.40 L 96.34,240.06 L 95.80,241.47 L 95.63,242.19 L 95.36,243.62 L 95.39,244.19 L 95.99,245.79 L 96.81,246.50 L 97.35,246.58 L 99.07,247.35 L 100.20,248.27 L 100.58,248.81 L 102.52,250.41 L 104.41,251.16 L 105.65,251.38 L 108.34,251.70 L 109.98,251.70 L 113.48,251.60 L 115.53,251.39 L 117.52,251.17 L 118.64,251.02 L 119.10,250.94 L 120.72,250.62 L 121.25,250.39 L 122.16,249.88 L 122.46,249.51 L 122.98,248.68 L 123.21,248.10 L 124.06,246.04 L 124.14,245.87 L 124.07,246.78 L 124.17,249.91 L 124.50,255.50 L 121.25,255.81 L 120.36,255.90 L 118.95,256.35 L 118.66,256.48 L 118.26,256.77 L 118.00,257.22 L 118.00,257.30 L 117.78,257.45 L 117.64,257.52 L 117.15,257.63 L 116.60,257.73 L 114.85,257.83 L 113.88,257.87 L 111.47,257.84 L 110.20,257.82 L 107.39,257.68 L 104.51,257.52 L 98.61,256.93 L 97.20,256.76 L 94.66,256.38 L 91.50,255.74 L 86.50,254.47 L 86.81,250.60 L 86.87,249.82 L 86.90,248.71 L 86.89,248.21 L 86.76,247.61 L 86.67,247.37 L 86.34,247.20 L 85.59,247.33 L 85.14,247.50 L 84.43,247.48 L 84.10,247.41 L 83.65,246.97 L 83.45,246.71 L 83.25,245.95 L 83.18,245.54 L 83.22,244.54 L 83.31,243.51 L 84.19,241.13 L 86.47,237.83 L 87.31,236.99 L 88.68,235.73 L 89.35,235.15 L 90.69,234.20 L 91.40,233.74 L 93.15,232.80 L 93.64,232.55 L 94.77,232.00 L 96.75,231.08 L 97.91,230.54 L 99.79,229.70 L 100.66,229.29 L 102.03,228.41 L 102.65,227.93 L 103.59,226.65 L 104.01,225.93 L 104.60,223.88 L 104.73,223.30 L 104.94,221.94 L 105.04,221.22 L 105.19,219.54 L 105.26,218.66 L 105.36,216.61 L 105.41,215.54 L 105.47,213.09 L 105.50,211.81 L 105.54,208.90 L 105.55,207.39 L 105.57,203.98 L 105.58,202.21 L 105.60,198.25 L 105.62,191.66 L 105.76,158.50 L 111.63,157.42 L 113.70,157.04 L 118.12,155.94 L 120.19,155.37 M 97.21,247.45 L 97.24,248.26 L 97.65,249.07 L 98.00,249.50 L 98.73,250.26 L 99.05,250.45 L 99.65,250.69 L 99.79,250.55 L 99.76,249.74 L 99.35,248.93 L 99.00,248.50 L 97.95,247.55 L 97.35,247.31 M 150.13,200.74 L 150.29,201.65 L 150.38,202.07 L 150.61,202.64 L 151.00,203.00 L 151.21,203.00 L 151.53,203.25 L 151.67,203.41 L 151.86,203.91 L 152.02,204.45 L 151.99,205.95 L 151.92,206.71 L 151.47,208.12 L 151.33,208.43 L 151.00,208.93 L 150.40,209.40 L 150.18,209.48 L 149.47,209.47 L 149.08,209.43 L 148.13,209.19 L 144.91,207.83 L 143.84,207.23 L 141.98,206.47 L 141.57,206.33 L 140.94,206.20 L 140.39,206.28 L 140.23,206.44 L 140.09,206.83 L 140.07,207.06 L 140.27,207.75 L 140.42,208.15 L 141.04,209.36 L 142.52,212.00 L 142.75,212.39 L 143.13,213.55 L 143.31,214.19 L 143.59,215.80 L 143.71,216.65 L 143.88,218.62 L 143.99,221.88 L 143.99,222.93 L 143.94,224.69 L 143.91,225.53 L 143.76,226.94 L 143.66,227.60 L 143.34,228.74 L 143.15,229.29 L 142.60,230.24 L 142.30,230.70 L 141.47,231.54 L 141.02,231.96 L 139.86,232.78 L 139.24,233.19 L 137.69,234.07 L 134.87,235.55 L 133.60,236.20 L 130.66,238.16 L 129.95,238.66 L 128.65,239.69 L 127.04,241.12 L 126.80,241.35 L 127.67,240.37 L 128.50,239.70 L 130.30,238.34 L 131.53,237.53 L 136.69,234.10 L 137.35,224.11 L 137.68,220.03 L 137.95,217.45 L 138.09,216.32 L 138.39,214.18 L 138.54,213.37 L 138.83,211.95 L 138.96,211.60 L 139.42,209.57 L 139.27,208.67 L 138.96,208.48 L 138.00,207.54 L 137.97,206.99 L 138.23,206.77 L 138.93,206.39 L 139.52,206.28 L 140.86,206.12 L 141.75,206.16 L 144.23,206.20 L 145.60,206.16 L 146.17,206.09 L 147.21,205.90 L 147.62,205.74 L 148.37,205.38 L 148.65,205.11 L 149.16,204.52 L 149.34,204.13 L 149.66,203.27 L 149.75,202.73 L 149.91,201.56 L 149.95,200.85 L 150.00,199.34 L 150.00,199.05 L 150.08,200.20 M 278.24,209.35 L 278.43,209.58 L 278.76,210.34 L 278.93,210.76 L 279.21,211.85 L 279.34,212.43 L 279.55,213.77 L 279.74,215.16 L 279.89,218.40 L 279.66,223.35 L 279.57,224.11 L 279.30,225.48 L 279.16,226.13 L 278.74,227.31 L 278.51,227.87 L 278.46,227.96 L 278.61,227.52 L 278.71,226.81 L 278.87,225.28 L 278.90,224.34 L 278.93,222.33 L 278.92,221.13 L 278.85,218.27 L 278.76,216.71 L 278.71,216.14 L 278.59,215.16 L 278.52,214.94 L 278.37,214.68 L 278.30,214.86 L 277.73,215.55 L 277.30,215.56 L 277.13,215.30 L 276.57,214.99 L 275.94,214.88 L 275.53,214.87 L 273.59,214.98 L 272.38,215.22 L 270.11,215.94 L 268.57,216.64 L 267.82,217.09 L 264.88,219.09 L 263.66,220.29 L 262.48,221.50 L 261.98,222.13 L 261.07,223.38 L 260.73,223.99 L 260.15,225.20 L 260.01,225.77 L 259.83,226.87 L 259.92,227.36 L 259.71,228.34 L 259.29,229.15 L 258.99,229.51 L 258.45,230.62 L 258.74,231.11 L 259.21,231.29 L 259.77,231.42 L 260.31,231.47 L 261.55,231.56 L 262.35,231.59 L 264.08,231.64 L 265.05,231.65 L 267.06,231.65 L 268.11,231.63 L 271.51,231.52 L 273.37,231.38 L 274.12,231.26 L 275.51,230.98 L 276.05,230.76 L 276.47,230.55 L 276.26,230.75 L 275.13,231.61 L 274.52,232.03 L 273.06,232.86 L 272.29,233.28 L 270.45,234.14 L 267.24,235.49 L 266.33,235.86 L 264.80,236.46 L 264.07,236.73 L 262.88,237.16 L 262.33,237.36 L 261.43,237.62 L 261.01,237.74 L 260.36,237.85 L 259.75,237.92 L 259.05,237.61 L 258.75,237.38 L 258.37,236.52 L 258.16,235.97 L 257.52,235.58 L 257.33,235.54 L 256.86,235.63 L 255.97,236.02 L 255.41,236.31 L 253.97,236.44 L 253.22,236.43 L 251.66,236.05 L 250.90,235.81 L 249.61,235.04 L 248.39,233.58 L 248.24,233.18 L 247.63,232.69 L 246.58,232.61 L 246.32,232.71 L 245.96,232.60 L 245.80,232.50 L 245.64,232.07 L 245.52,231.57 L 245.77,230.00 L 245.97,229.18 L 246.72,227.56 L 246.93,227.18 L 247.41,226.56 L 248.20,225.90 L 248.77,225.59 L 249.45,224.73 L 249.59,223.37 L 249.43,222.96 L 249.47,222.50 L 250.01,222.51 L 250.28,222.68 L 250.71,222.68 L 251.00,222.24 L 251.00,222.10 L 251.25,221.73 L 251.42,221.53 L 251.97,221.05 L 252.59,220.54 L 254.56,219.26 L 255.64,218.59 L 258.29,217.10 L 259.67,216.35 L 262.70,214.81 L 264.23,214.05 L 267.32,212.62 L 268.84,211.93 L 271.66,210.77 L 273.01,210.23 L 275.26,209.48 L 275.78,209.33 L 276.64,209.13 L 277.65,209.00 L 277.86,209.00 M 264.94,185.80 L 265.38,186.24 L 265.65,186.56 L 266.22,187.28 L 266.56,187.75 L 267.27,188.76 L 267.70,189.39 L 268.58,190.74 L 269.10,191.55 L 270.18,193.25 L 270.80,194.24 L 274.14,198.67 L 275.36,200.00 L 275.94,200.55 L 277.06,201.56 L 277.05,201.55 L 275.93,200.55 L 275.36,200.00 L 274.14,198.66 L 270.80,194.24 L 270.19,193.27 L 269.12,191.59 L 268.62,190.79 L 267.73,189.46 L 267.31,188.83 L 266.60,187.81 L 266.26,187.34 L 265.68,186.61 L 265.41,186.29 L 264.97,185.83 L 264.87,185.74 M 263.63,185.79 L 263.74,186.33 L 263.60,185.84 L 263.69,185.70 M 264.73,185.62 L 264.75,185.63 L 264.64,185.57 M 264.41,185.44 L 264.27,185.48 L 264.40,185.43 M 113.32,27.96 L 114.90,28.11 L 117.88,28.54 L 122.00,29.38 L 123.51,29.76 L 126.67,30.77 L 128.26,31.31 L 131.47,32.57 L 133.06,33.22 L 136.15,34.64 L 137.66,35.37 L 140.47,36.86 L 141.82,37.61 L 144.17,39.08 L 145.28,39.81 L 147.02,41.17 L 147.80,41.83 L 148.77,42.99 L 149.17,44.41 L 149.07,44.71 L 149.13,44.98 L 149.52,44.81 L 149.62,44.72 L 149.96,44.72 L 150.15,44.74 L 150.65,44.97 L 152.39,46.31 L 152.80,46.72 L 153.84,47.93 L 154.39,48.59 L 155.62,50.16 L 156.88,51.78 L 159.45,55.40 L 160.07,56.28 L 161.16,57.91 L 161.68,58.70 L 162.49,60.03 L 162.86,60.63 L 163.28,61.48 L 163.34,62.03 L 163.22,62.04 L 163.17,62.18 L 163.17,62.27 L 163.33,62.56 L 164.50,63.78 L 165.05,64.26 L 165.93,65.29 L 166.55,66.50 L 166.55,66.64 L 166.71,67.36 L 166.81,67.78 L 167.12,68.95 L 168.42,73.44 L 168.90,74.99 L 169.49,78.53 L 169.73,80.35 L 169.85,84.33 L 169.86,86.36 L 169.54,90.64 L 169.33,92.80 L 168.60,97.25 L 168.19,99.49 L 167.07,103.97 L 166.46,106.21 L 164.97,110.59 L 164.19,112.76 L 162.36,116.91 L 159.27,122.72 L 158.05,124.72 L 155.29,128.53 L 153.85,130.39 L 150.68,133.89 L 149.04,135.60 L 145.49,138.78 L 143.68,140.32 L 139.80,143.13 L 137.82,144.49 L 133.66,146.92 L 131.54,148.09 L 127.12,150.10 L 124.89,151.06 L 120.26,152.64 L 113.13,154.47 L 111.99,154.71 L 109.40,155.08 L 108.07,155.25 L 105.19,155.51 L 102.26,155.73 L 96.04,155.81 L 92.95,155.79 L 87.13,155.40 L 85.75,155.27 L 83.22,154.92 L 82.01,154.73 L 79.91,154.27 L 77.62,153.70 L 73.06,152.09 L 70.78,151.22 L 66.31,149.06 L 64.10,147.92 L 59.80,145.27 L 57.68,143.90 L 53.65,140.83 L 51.67,139.26 L 47.98,135.84 L 46.18,134.10 L 42.92,130.40 L 41.35,128.52 L 38.60,124.60 L 35.14,118.55 L 33.99,116.21 L 32.37,111.93 L 31.66,109.82 L 30.84,105.57 L 30.52,103.40 L 30.42,98.61 L 30.44,97.36 L 30.59,94.64 L 30.99,90.19 L 31.19,88.30 L 31.79,84.60 L 32.12,82.77 L 32.97,79.20 L 33.43,77.43 L 34.52,74.00 L 35.10,72.31 L 36.43,69.02 L 37.12,67.40 L 38.69,64.27 L 39.50,62.72 L 41.29,59.75 L 42.21,58.29 L 44.22,55.48 L 45.25,54.10 L 47.47,51.47 L 48.61,50.17 L 51.04,47.72 L 52.28,46.52 L 54.91,44.25 L 56.25,43.14 L 59.07,41.07 L 60.51,40.06 L 63.52,38.19 L 65.05,37.28 L 68.25,35.62 L 69.87,34.82 L 73.25,33.37 L 74.95,32.67 L 78.50,31.45 L 84.00,29.87 L 85.43,29.51 L 88.50,28.92 L 90.06,28.64 L 93.32,28.22 L 96.61,27.84 L 103.43,27.58 L 106.82,27.54 M 123.59,154.28 L 122.38,154.66 L 123.83,154.18 M 103.13,32.90 L 97.35,33.15 L 93.55,33.55 L 91.69,33.86 L 87.98,34.56 L 86.16,35.02 L 82.55,36.00 L 80.80,36.60 L 77.31,37.86 L 75.62,38.59 L 72.27,40.11 L 70.65,40.97 L 67.45,42.75 L 65.91,43.73 L 62.87,45.74 L 61.42,46.84 L 58.57,49.09 L 57.22,50.29 L 54.56,52.75 L 53.31,54.06 L 50.87,56.73 L 49.73,58.14 L 47.52,61.00 L 46.50,62.50 L 44.53,65.54 L 43.64,67.13 L 41.93,70.35 L 41.17,72.01 L 39.74,75.39 L 39.12,77.13 L 37.98,80.65 L 37.52,82.46 L 36.39,88.54 L 36.05,92.61 L 36.08,94.64 L 36.28,98.71 L 36.57,100.72 L 37.29,104.74 L 37.84,106.72 L 39.08,110.66 L 39.88,112.59 L 41.62,116.40 L 42.68,118.26 L 44.91,121.92 L 46.21,123.68 L 48.93,127.16 L 50.47,128.81 L 54.02,132.43 L 56.37,134.61 L 57.55,135.59 L 59.94,137.49 L 61.18,138.36 L 63.70,140.04 L 65.03,140.81 L 67.75,142.30 L 69.21,143.00 L 72.21,144.36 L 73.85,145.01 L 77.22,146.29 L 79.08,146.91 L 82.89,148.15 L 85.00,148.77 L 85.56,148.91 L 85.95,148.97 L 86.81,149.11 L 87.33,149.17 L 89.65,149.42 L 91.08,149.52 L 94.09,149.71 L 95.74,149.78 L 99.09,149.88 L 100.78,149.90 L 104.51,149.91 L 106.62,149.90 L 107.53,149.88 L 109.24,149.82 L 109.99,149.77 L 111.40,149.65 L 112.03,149.57 L 114.38,149.16 L 115.49,148.82 L 117.72,148.04 L 119.07,147.47 L 121.78,146.22 L 123.75,145.21 L 124.73,144.67 L 126.67,143.56 L 127.56,143.02 L 129.24,141.95 L 129.91,141.47 L 133.67,139.02 L 134.70,138.45 L 135.09,138.27 L 135.77,138.00 L 135.93,138.00 L 136.99,137.67 L 137.93,137.14 L 138.50,136.75 L 139.69,135.88 L 140.35,135.33 L 141.71,134.18 L 142.44,133.52 L 145.42,130.67 L 146.90,129.07 L 149.81,125.81 L 151.04,124.19 L 154.14,119.65 L 156.07,116.34 L 156.95,114.58 L 158.66,111.00 L 159.41,109.16 L 160.86,105.44 L 161.47,103.57 L 162.62,99.83 L 163.07,97.99 L 163.88,94.35 L 164.14,92.61 L 164.57,89.19 L 164.63,87.61 L 164.64,84.53 L 164.48,83.17 L 163.38,77.52 L 162.24,73.68 L 161.48,71.75 L 159.85,67.89 L 158.88,65.99 L 156.82,62.22 L 155.66,60.40 L 153.24,56.81 L 151.92,55.12 L 149.20,51.81 L 147.75,50.29 L 144.80,47.35 L 143.25,46.06 L 140.12,43.60 L 138.51,42.58 L 134.34,40.10 L 131.62,38.66 L 130.28,38.03 L 124.90,35.80 L 122.12,35.04 L 119.30,34.33 L 117.84,34.06 L 114.87,33.56 L 113.31,33.39 L 110.13,33.09 L 108.44,33.01 L 104.98,32.90 M 138.40,146.96 L 137.81,147.33 L 135.38,148.84 L 134.37,149.53 L 134.12,149.66 L 134.49,149.44 L 135.47,148.78 L 137.85,147.30 L 138.43,146.95 L 139.52,146.31 L 140.91,145.55 L 139.51,146.32 M 156.07,131.88 L 154.48,133.70 L 151.22,137.25 L 149.46,138.86 L 148.62,139.57 L 150.17,138.12 L 151.89,136.45 L 155.15,132.88 L 155.92,131.99 L 156.61,131.14 M 169.44,105.62 L 168.69,108.00 L 167.07,112.72 L 166.10,115.01 L 164.03,119.53 L 162.84,121.69 L 161.74,123.57 L 162.70,121.87 L 163.85,119.74 L 165.92,115.20 L 166.91,112.90 L 168.60,108.22 L 169.85,103.87 M 171.73,93.36 L 171.57,94.57 L 171.76,92.68 M 172.09,84.64 L 172.09,85.91 L 172.03,87.22 L 172.07,85.93 L 172.09,84.16 Z" fill="rgba(97,63,30,1)"/>
<path d="M 102.45,100.57 L 99.21,101.98 L 97.54,102.77 L 94.62,104.59 L 93.97,105.03 L 92.97,105.85 L 92.08,106.86 L 91.73,107.51 L 91.31,108.85 L 91.15,109.52 L 91.09,110.87 L 91.11,111.55 L 91.40,112.90 L 91.59,113.58 L 92.22,114.90 L 92.58,115.56 L 93.54,116.84 L 94.06,117.47 L 95.33,118.67 L 96.00,119.26 L 97.57,120.37 L 100.25,121.90 L 101.50,122.51 L 103.64,123.32 L 104.67,123.65 L 106.52,123.89 L 107.42,123.94 L 109.17,123.63 L 110.05,123.41 L 111.90,122.55 L 112.80,122.09 L 114.74,120.57 L 115.71,119.74 L 117.62,117.71 L 118.54,116.66 L 120.15,114.41 L 121.96,111.10 L 122.31,110.26 L 122.69,108.70 L 122.83,107.94 L 122.79,106.55 L 122.72,105.87 L 122.27,104.66 L 121.99,104.08 L 121.14,103.05 L 120.66,102.56 L 119.40,101.72 L 118.88,101.42 L 119.66,101.81 L 120.36,102.30 L 121.66,103.36 L 122.15,103.98 L 123.93,105.91 L 124.42,106.31 L 124.60,106.41 L 124.92,106.55 L 125.00,106.50 L 125.44,106.61 L 125.87,106.96 L 126.12,107.24 L 127.25,108.62 L 127.86,109.53 L 129.06,111.46 L 129.54,112.40 L 130.39,114.21 L 130.53,114.85 L 131.48,119.18 L 131.50,121.09 L 131.17,122.29 L 130.88,122.65 L 130.46,123.42 L 130.21,124.15 L 130.12,124.57 L 129.80,126.44 L 129.80,127.38 L 129.70,129.02 L 129.53,129.85 L 129.38,130.16 L 129.03,130.72 L 128.79,130.90 L 128.25,131.22 L 127.90,131.32 L 126.58,132.06 L 126.06,132.79 L 126.08,133.16 L 126.25,133.93 L 126.47,133.72 L 126.66,133.25 L 127.30,132.37 L 127.86,132.00 L 128.12,132.00 L 128.65,132.17 L 128.79,132.42 L 128.75,132.61 L 128.38,133.50 L 127.90,134.05 L 126.79,135.19 L 126.08,135.72 L 124.57,136.72 L 123.79,137.03 L 121.02,138.32 L 120.18,138.79 L 119.83,139.01 L 119.19,139.43 L 118.98,139.61 L 118.12,140.10 L 117.96,140.15 L 118.33,139.92 L 118.76,139.25 L 118.82,139.05 L 118.74,138.71 L 118.66,138.55 L 118.28,138.32 L 118.05,138.21 L 117.39,138.08 L 116.08,138.00 L 115.34,138.00 L 114.25,138.16 L 113.77,138.27 L 113.22,138.63 L 113.02,138.83 L 113.04,139.38 L 113.71,140.38 L 113.98,140.64 L 114.55,140.77 L 113.98,140.75 L 111.87,140.75 L 110.79,140.84 L 108.69,141.08 L 108.00,141.26 L 106.73,141.40 L 105.65,141.38 L 105.04,141.32 L 102.41,140.96 L 101.04,140.65 L 98.33,139.94 L 97.22,139.52 L 96.18,139.09 L 95.77,138.87 L 95.03,138.43 L 94.82,138.22 L 93.69,137.61 L 92.81,137.52 L 92.45,137.66 L 91.20,137.38 L 90.32,136.59 L 90.00,136.00 L 88.79,134.63 L 87.87,134.22 L 87.50,134.36 L 86.18,134.32 L 85.34,133.87 L 85.03,133.54 L 84.51,132.82 L 84.46,132.47 L 84.54,131.78 L 84.90,131.56 L 85.24,131.07 L 85.39,130.53 L 85.43,130.18 L 85.46,128.61 L 85.29,127.72 L 85.06,126.15 L 84.92,124.92 L 84.87,124.27 L 84.70,121.59 L 84.71,120.48 L 85.34,116.45 L 86.25,113.60 L 86.84,112.36 L 87.44,111.16 L 87.75,110.65 L 88.37,109.71 L 88.67,109.37 L 89.27,108.78 L 89.54,108.64 L 90.07,108.50 L 90.29,108.63 L 90.92,108.87 L 90.95,108.71 L 90.74,108.48 L 90.66,107.91 L 90.84,107.36 L 91.03,107.03 L 91.99,105.60 L 92.65,104.88 L 94.03,103.49 L 94.66,103.05 L 95.27,102.67 L 95.52,102.58 L 95.98,102.49 L 96.12,102.58 L 96.67,102.65 L 97.22,102.58 L 97.56,102.49 L 99.05,101.99 L 99.85,101.58 L 102.73,100.40 L 103.69,100.14 M 88.95,136.55 L 89.65,137.07 L 90.00,137.50 L 90.62,138.37 L 90.76,138.74 L 90.92,139.41 L 90.79,139.55 L 90.05,139.45 L 89.35,138.93 L 89.00,138.50 L 88.24,137.26 L 88.08,136.59 L 88.21,136.45 M 134.69,124.36 L 134.92,124.58 L 134.68,124.35 L 134.57,124.12 M 135.70,124.36 L 135.44,124.49 L 135.22,124.53 L 135.51,124.43 L 135.77,124.26 M 136.48,118.01 L 136.68,118.48 L 136.99,119.57 L 136.98,120.31 L 136.89,121.61 L 136.75,122.19 L 136.41,123.27 L 136.18,123.67 L 135.83,124.17 L 136.28,123.39 L 136.50,122.91 L 136.78,121.70 L 136.88,121.07 L 136.82,119.80 L 136.68,118.87 L 136.15,117.77 L 136.10,117.70 M 134.36,118.06 L 134.00,120.25 L 134.00,121.19 L 134.20,122.87 L 134.27,123.24 L 134.41,123.78 L 134.20,123.33 L 134.00,122.34 L 134.00,121.83 L 133.64,120.54 L 133.12,120.00 L 132.79,120.00 L 132.37,119.89 L 132.27,119.72 L 132.30,119.58 L 132.67,118.91 L 133.19,118.38 L 134.62,117.43 L 134.79,117.41 M 111.13,101.41 L 111.98,101.72 L 113.04,102.54 L 113.34,102.91 L 113.70,103.46 L 113.83,103.73 L 113.85,104.17 L 113.81,104.38 L 113.47,104.82 L 112.52,105.61 L 111.88,106.07 L 110.43,106.64 L 109.69,106.86 L 108.25,106.95 L 107.56,106.93 L 106.41,106.54 L 105.91,106.29 L 105.34,105.43 L 105.18,105.03 L 105.21,104.26 L 105.28,103.89 L 105.69,103.22 L 105.93,102.90 L 106.61,102.35 L 106.98,102.10 L 107.84,101.72 L 108.74,101.38 L 110.67,101.35 M 111.19,99.41 L 112.24,99.52 L 114.30,99.81 L 115.27,100.06 L 117.17,100.62 L 118.02,100.99 L 118.59,101.27 L 117.06,100.68 L 116.19,100.38 L 114.14,99.94 L 110.64,99.51 L 109.55,99.43 L 107.81,99.43 L 107.98,99.41 L 109.05,99.39 M 78.19,82.28 L 78.95,83.01 L 79.26,83.43 L 79.47,84.48 L 79.50,85.00 L 79.13,85.94 L 77.91,86.78 L 77.47,86.86 L 76.46,86.61 L 75.97,86.42 L 75.22,85.76 L 74.85,85.32 L 74.64,84.39 L 74.61,83.93 L 74.98,83.13 L 75.23,82.76 L 76.04,82.29 L 77.62,82.17 M 25.01,80.08 L 25.00,80.07 L 24.99,80.07 M 24.03,79.25 L 23.74,79.00 L 23.69,78.96 M 42.39,54.52 L 40.91,56.29 L 40.55,56.67 L 39.76,57.70 L 39.36,58.25 L 38.52,59.57 L 37.66,60.95 L 35.90,64.34 L 35.04,66.10 L 33.42,69.89 L 31.44,75.50 L 30.94,77.15 L 30.30,79.00 L 30.38,77.85 L 30.23,76.90 L 30.04,76.41 L 29.59,75.41 L 29.24,74.86 L 28.44,73.72 L 27.90,73.06 L 26.02,70.32 L 25.28,68.61 L 25.16,67.73 L 25.09,65.95 L 25.29,64.96 L 25.86,62.89 L 26.36,61.67 L 28.13,58.71 L 29.67,57.17 L 30.62,56.63 L 32.66,55.67 L 33.88,55.40 L 36.46,55.00 L 37.96,55.00 L 40.09,54.92 L 41.24,54.79 L 41.68,54.69 L 42.42,54.47 M 22.74,78.12 L 22.44,77.86 L 21.61,76.86 M 17.27,67.63 L 17.60,69.66 L 17.93,70.65 L 18.68,72.61 L 19.22,73.56 L 20.33,75.34 L 20.13,75.10 L 19.61,74.41 L 18.78,73.11 L 17.97,71.40 L 17.63,70.37 L 17.30,68.25 L 17.18,67.18 L 17.19,66.96 M 121.53,69.42 L 121.96,69.63 L 122.57,70.35 L 122.81,71.74 L 122.70,72.31 L 122.04,73.12 L 121.67,73.46 L 120.72,73.77 L 120.24,73.85 L 119.33,73.59 L 118.91,73.38 L 118.36,72.51 L 118.19,72.06 L 118.23,71.03 L 118.80,69.80 L 119.18,69.42 L 120.13,69.17 L 120.60,69.12 M 32.88,47.44 L 30.58,48.25 L 29.46,48.78 L 27.25,49.90 L 26.22,50.56 L 24.22,51.96 L 23.35,52.74 L 22.91,53.17 L 23.02,53.05 L 23.84,52.21 L 25.69,50.75 L 28.76,48.90 L 30.11,48.25 L 33.12,47.34 L 33.62,47.21 M 43.19,47.22 L 44.37,47.89 L 42.84,47.11 M 34.55,46.98 L 34.63,46.96 L 34.68,46.95 M 158.27,45.10 L 157.84,45.73 L 157.36,46.26 L 157.24,46.33 L 157.16,46.30 L 157.24,46.32 L 157.36,46.25 L 157.84,45.72 L 158.27,45.09 L 158.51,44.67 L 159.56,42.73 L 158.51,44.68 M 141.42,25.15 L 142.38,25.38 L 144.44,25.99 L 145.73,26.51 L 147.63,27.44 L 148.65,28.16 L 149.07,28.60 L 149.87,29.55 L 150.23,30.15 L 150.91,31.45 L 151.25,32.27 L 152.42,35.50 L 152.87,37.23 L 152.92,37.90 L 152.91,39.12 L 152.73,39.56 L 152.28,40.33 L 151.88,40.57 L 151.59,41.05 L 151.65,41.50 L 151.79,41.79 L 152.17,42.41 L 152.48,42.78 L 152.52,42.83 L 152.00,42.33 L 150.76,41.11 L 147.74,38.63 L 147.00,38.05 L 145.60,37.06 L 143.82,35.96 L 142.81,35.43 L 141.05,34.32 L 140.66,34.06 L 140.08,33.61 L 139.56,33.10 L 139.48,32.98 L 138.83,32.56 L 138.43,32.33 L 137.25,31.76 L 136.61,31.47 L 135.06,30.83 L 132.50,29.85 L 131.60,29.53 L 129.97,28.87 L 129.81,28.81 L 131.15,29.14 L 132.11,29.21 L 132.54,29.12 L 133.38,28.84 L 133.84,28.55 L 134.78,27.86 L 135.38,27.35 L 137.62,25.77 L 139.04,25.19 L 139.82,25.13 M 127.86,23.88 L 127.15,24.68 L 126.51,25.47 L 126.31,25.81 L 126.00,26.45 L 126.00,26.39 L 126.31,25.76 L 126.51,25.42 L 127.16,24.65 L 127.88,23.85 L 129.84,22.21 M 129.97,22.10 L 129.98,22.10 L 130.02,22.07 Z" fill="rgba(136,93,59,1)"/>
<path d="M 112.12,94.49 L 115.45,95.22 L 117.14,95.85 L 120.54,97.28 L 122.17,98.23 L 125.37,100.27 L 126.81,101.48 L 128.30,102.93 L 129.33,104.11 L 129.85,104.77 L 131.90,107.57 L 132.77,109.01 L 133.61,110.44 L 133.96,111.12 L 134.61,112.43 L 134.85,113.01 L 135.25,114.10 L 135.34,114.53 L 135.44,115.31 L 135.35,115.54 L 135.32,116.62 L 135.64,117.28 L 135.93,117.46 L 136.11,117.72 L 135.84,117.49 L 135.48,117.31 L 134.62,117.43 L 133.19,118.38 L 132.67,118.91 L 132.30,119.58 L 132.27,119.72 L 132.37,119.89 L 132.79,120.00 L 133.12,120.00 L 133.64,120.54 L 134.00,121.83 L 134.00,122.34 L 134.20,123.33 L 134.68,124.35 L 134.92,124.58 L 135.44,124.49 L 135.45,124.48 L 134.39,126.61 L 133.50,128.14 L 132.14,130.50 L 131.35,131.93 L 131.03,132.52 L 130.45,133.62 L 130.28,133.99 L 130.00,134.60 L 130.00,134.68 L 129.57,135.65 L 128.90,136.49 L 128.41,136.97 L 127.34,137.99 L 126.69,138.53 L 125.32,139.64 L 124.57,140.19 L 121.43,142.41 L 119.86,143.32 L 118.32,144.18 L 117.61,144.52 L 116.25,145.13 L 115.67,145.32 L 112.70,146.18 L 111.40,146.43 L 108.91,146.81 L 107.81,146.83 L 105.71,146.74 L 104.77,146.52 L 102.96,145.96 L 102.13,145.50 L 100.90,144.78 L 100.47,144.45 L 100.43,144.33 L 100.48,144.10 L 100.69,144.01 L 101.20,143.82 L 101.63,143.71 L 102.14,143.51 L 102.18,143.39 L 102.06,143.33 L 101.71,143.24 L 101.40,143.20 L 100.69,143.13 L 100.21,143.12 L 98.62,142.91 L 97.39,142.64 L 96.74,142.45 L 94.09,141.56 L 93.02,141.01 L 90.82,139.52 L 90.92,139.41 L 90.76,138.74 L 90.62,138.37 L 90.00,137.50 L 89.65,137.07 L 88.95,136.55 L 88.21,136.45 L 88.08,136.59 L 88.24,137.26 L 88.44,137.59 L 87.97,137.18 L 87.08,136.21 L 85.42,134.27 L 84.88,133.40 L 84.64,133.01 L 85.03,133.54 L 85.34,133.87 L 86.18,134.32 L 87.50,134.36 L 87.87,134.22 L 88.79,134.63 L 90.00,136.00 L 90.32,136.59 L 91.20,137.38 L 92.45,137.66 L 92.81,137.52 L 93.69,137.61 L 94.82,138.22 L 95.03,138.43 L 95.77,138.87 L 96.18,139.09 L 97.22,139.52 L 98.33,139.94 L 101.04,140.65 L 102.41,140.96 L 105.04,141.32 L 105.65,141.38 L 106.73,141.40 L 108.00,141.26 L 108.69,141.08 L 110.79,140.84 L 111.87,140.75 L 113.98,140.75 L 114.94,140.79 L 116.89,140.47 L 117.34,140.37 L 118.12,140.10 L 118.98,139.61 L 119.19,139.43 L 119.83,139.01 L 120.18,138.79 L 121.02,138.32 L 123.79,137.03 L 124.57,136.72 L 126.08,135.72 L 126.79,135.19 L 127.90,134.05 L 128.38,133.50 L 128.75,132.61 L 128.79,132.42 L 128.65,132.17 L 128.12,132.00 L 127.86,132.00 L 127.30,132.37 L 126.66,133.25 L 126.47,133.72 L 126.25,133.93 L 126.08,133.16 L 126.06,132.79 L 126.58,132.06 L 127.90,131.32 L 128.25,131.22 L 128.79,130.90 L 129.03,130.72 L 129.38,130.16 L 129.53,129.85 L 129.70,129.02 L 129.80,127.38 L 129.80,126.44 L 130.12,124.57 L 130.21,124.15 L 130.46,123.42 L 130.88,122.65 L 131.17,122.29 L 131.50,121.09 L 131.48,119.18 L 130.53,114.85 L 130.39,114.21 L 129.54,112.40 L 129.06,111.46 L 127.86,109.53 L 127.25,108.62 L 126.12,107.24 L 125.87,106.96 L 125.44,106.61 L 125.00,106.50 L 124.92,106.55 L 124.60,106.41 L 124.42,106.31 L 123.93,105.91 L 122.15,103.98 L 121.66,103.36 L 120.36,102.30 L 119.66,101.81 L 118.02,100.99 L 117.17,100.62 L 115.27,100.06 L 114.30,99.81 L 112.24,99.52 L 111.19,99.41 L 109.05,99.39 L 107.98,99.41 L 105.84,99.68 L 104.78,99.85 L 102.73,100.40 L 99.85,101.58 L 99.05,101.99 L 97.56,102.49 L 97.22,102.58 L 96.67,102.65 L 96.12,102.58 L 95.98,102.49 L 95.52,102.58 L 95.27,102.67 L 94.66,103.05 L 94.03,103.49 L 92.65,104.88 L 91.99,105.60 L 91.03,107.03 L 90.84,107.36 L 90.66,107.91 L 90.74,108.48 L 90.95,108.71 L 90.92,108.87 L 90.29,108.63 L 90.07,108.50 L 89.54,108.64 L 89.27,108.78 L 88.67,109.37 L 88.37,109.71 L 87.75,110.65 L 87.44,111.16 L 86.84,112.36 L 86.25,113.60 L 85.34,116.45 L 84.71,120.48 L 84.70,121.59 L 84.87,124.27 L 84.92,124.92 L 85.06,126.15 L 85.29,127.72 L 85.46,128.61 L 85.43,130.18 L 85.39,130.53 L 85.24,131.07 L 84.90,131.56 L 84.54,131.78 L 84.46,132.47 L 84.50,132.76 L 84.38,132.56 L 84.23,132.19 L 84.00,131.50 L 84.00,131.23 L 83.51,129.97 L 82.78,128.93 L 82.32,128.47 L 81.42,127.18 L 80.93,126.08 L 80.75,125.44 L 80.17,122.63 L 80.13,121.04 L 80.21,117.79 L 80.50,116.20 L 81.24,113.10 L 81.87,111.81 L 84.23,107.91 L 86.21,105.30 L 87.26,104.13 L 89.39,101.92 L 90.38,101.11 L 91.35,100.36 L 91.79,100.09 L 92.64,99.62 L 93.00,99.50 L 94.41,98.78 L 95.00,98.19 L 95.00,97.93 L 95.22,97.32 L 95.54,97.12 L 95.75,97.16 L 96.28,97.13 L 96.82,97.01 L 97.16,96.91 L 98.67,96.42 L 99.50,96.08 L 101.06,95.55 L 102.36,95.20 L 103.09,95.04 L 106.12,94.45 L 107.50,94.31 M 136.86,118.77 L 136.90,119.26 L 136.69,118.53 M 26.51,81.21 L 27.96,82.10 L 28.48,82.24 L 29.13,82.30 L 29.00,82.50 L 28.90,82.56 L 28.35,82.36 L 28.03,82.22 L 27.13,81.65 L 26.65,81.33 L 26.30,81.07 M 37.72,49.23 L 40.28,49.54 L 41.50,50.00 L 43.73,50.50 L 44.84,50.41 L 45.13,50.20 L 45.34,49.93 L 45.29,50.03 L 44.53,50.97 L 44.11,51.44 L 43.45,52.51 L 43.00,53.83 L 43.00,54.01 L 42.66,54.32 L 42.44,54.47 L 41.68,54.69 L 41.24,54.79 L 40.09,54.92 L 37.96,55.00 L 36.46,55.00 L 33.88,55.40 L 32.66,55.67 L 30.62,56.63 L 29.67,57.17 L 28.13,58.71 L 26.36,61.67 L 25.86,62.89 L 25.29,64.96 L 25.09,65.95 L 25.16,67.73 L 25.28,68.61 L 26.02,70.32 L 27.90,73.06 L 28.44,73.72 L 29.24,74.86 L 29.59,75.41 L 30.04,76.41 L 30.23,76.90 L 30.38,77.85 L 30.28,79.31 L 30.14,80.06 L 29.96,80.57 L 29.77,80.10 L 29.41,79.68 L 29.14,79.47 L 27.88,78.64 L 27.08,78.34 L 24.74,76.71 L 23.22,74.99 L 22.55,73.92 L 21.28,71.69 L 20.83,70.51 L 20.05,68.12 L 19.92,66.99 L 20.11,63.10 L 20.82,60.58 L 21.42,59.40 L 22.78,57.08 L 23.65,56.03 L 25.52,54.03 L 26.60,53.18 L 28.85,51.59 L 30.07,50.98 L 32.55,49.92 L 33.84,49.62 L 36.43,49.18 M 24.94,80.02 L 23.69,78.96 L 25.16,80.20 M 45.22,48.69 L 45.42,48.92 L 45.53,49.33 L 45.54,49.55 L 45.53,49.57 L 45.44,49.27 L 45.05,48.51 M 40.46,46.41 L 42.22,46.79 L 44.37,47.89 L 44.39,47.91 L 42.23,46.80 L 40.47,46.42 L 39.47,46.39 L 37.39,46.45 L 36.29,46.63 L 35.27,46.83 L 36.28,46.63 L 37.39,46.45 L 39.46,46.39 M 157.84,45.72 L 157.36,46.25 L 157.24,46.32 L 156.97,46.26 L 157.34,46.06 L 158.00,45.49 M 156.81,46.23 L 156.80,46.23 L 156.55,46.15 L 156.54,46.14 M 143.02,20.27 L 145.83,20.65 L 146.48,20.84 L 146.68,20.94 L 146.99,21.15 L 146.99,21.25 L 147.53,21.78 L 148.31,22.00 L 148.81,22.00 L 150.63,22.69 L 152.10,23.75 L 152.88,24.49 L 154.42,26.07 L 155.11,26.96 L 156.41,28.78 L 156.88,29.68 L 157.31,30.93 L 157.57,32.05 L 157.67,32.70 L 158.00,35.52 L 158.00,36.90 L 157.91,39.36 L 157.75,40.61 L 157.61,41.07 L 157.28,41.90 L 157.04,42.20 L 156.51,42.73 L 156.15,42.92 L 154.58,43.41 L 153.65,43.40 L 153.40,43.20 L 153.21,43.10 L 153.25,43.20 L 153.35,43.33 L 153.95,44.04 L 154.50,44.62 L 155.33,45.45 L 155.24,45.39 L 153.63,44.01 L 153.17,43.56 L 152.48,42.78 L 152.17,42.41 L 151.79,41.79 L 151.65,41.50 L 151.59,41.05 L 151.88,40.57 L 152.28,40.33 L 152.73,39.56 L 152.91,39.12 L 152.92,37.90 L 152.87,37.23 L 152.42,35.50 L 151.25,32.27 L 150.91,31.45 L 150.23,30.15 L 149.87,29.55 L 149.07,28.60 L 148.65,28.16 L 147.63,27.44 L 145.73,26.51 L 144.44,25.99 L 142.38,25.38 L 141.42,25.15 L 139.82,25.13 L 139.04,25.19 L 137.62,25.77 L 135.38,27.35 L 134.78,27.86 L 133.84,28.55 L 133.38,28.84 L 132.54,29.12 L 132.11,29.21 L 131.15,29.14 L 129.32,28.68 L 128.41,28.40 L 127.27,27.83 L 127.72,27.61 L 128.06,27.28 L 128.74,26.49 L 129.04,25.93 L 129.87,24.87 L 130.68,24.16 L 131.18,23.82 L 133.44,22.49 L 134.79,21.94 L 137.60,20.94 L 139.02,20.65 L 141.82,20.21 M 159.44,42.95 L 159.77,42.25 L 159.56,42.73 M 127.83,23.95 L 127.13,24.77 L 126.50,25.58 L 126.30,25.93 L 126.00,26.60 L 126.00,26.45 L 126.31,25.81 L 126.51,25.47 L 127.15,24.68 L 127.86,23.88 L 129.81,22.24 M 129.94,22.13 L 129.95,22.12 L 129.99,22.08 Z" fill="rgba(125,82,42,1)"/>
<path d="M 152.09,254.08 L 151.70,253.83 L 150.65,253.62 L 149.17,253.77 L 148.89,253.87 L 148.50,253.95 L 148.33,253.96 L 148.14,253.83 L 148.07,253.74 L 148.09,253.40 L 148.31,252.62 L 148.50,252.15 L 148.52,251.57 L 148.07,251.45 L 147.83,251.61 L 147.31,251.63 L 146.75,251.26 L 146.63,251.05 L 146.54,251.09 L 146.63,251.75 L 146.72,252.09 L 146.64,252.62 L 146.22,252.97 L 146.06,252.96 L 145.61,252.76 L 145.36,252.63 L 144.77,252.22 L 144.16,251.77 L 142.75,250.48 L 142.06,249.81 L 140.84,248.40 L 139.69,246.65 L 139.51,246.16 L 138.92,245.58 L 138.01,245.50 L 137.73,245.67 L 137.30,245.64 L 137.00,245.12 L 137.00,244.84 L 137.29,244.23 L 138.00,243.50 L 138.28,243.33 L 138.71,243.37 L 139.00,243.94 L 139.00,244.23 L 139.28,244.69 L 139.97,245.00 L 140.23,245.00 L 140.48,244.54 L 140.33,243.42 L 140.22,243.14 L 140.16,242.71 L 140.15,242.53 L 140.30,242.28 L 140.40,242.18 L 140.78,242.11 L 141.61,242.17 L 142.16,242.27 L 142.90,242.06 L 143.25,241.26 L 143.22,241.09 L 143.47,240.58 L 143.65,240.30 L 144.25,239.65 L 147.00,237.50 L 147.54,237.16 L 148.74,236.21 L 149.35,235.71 L 150.55,234.56 L 151.14,233.97 L 152.20,232.75 L 153.49,231.01 L 153.87,230.42 L 154.69,228.49 L 155.11,227.43 L 155.99,224.76 L 156.42,223.36 L 157.28,220.23 L 157.70,218.64 L 158.47,215.32 L 158.85,213.66 L 159.48,210.42 L 159.78,208.84 L 160.22,205.95 L 160.41,204.58 L 160.58,202.32 L 160.61,201.80 L 160.60,200.94 L 160.48,199.93 L 160.30,199.10 L 159.24,197.30 L 158.63,196.40 L 157.00,194.73 L 156.15,193.94 L 154.36,192.77 L 153.92,192.53 L 153.08,192.21 L 151.92,192.00 L 151.50,192.00 L 150.91,192.21 L 150.65,192.37 L 150.32,193.09 L 150.19,193.54 L 150.06,195.03 L 150.04,195.47 L 150.01,196.53 L 150.00,198.43 L 150.00,199.34 L 149.95,200.85 L 149.91,201.56 L 149.75,202.73 L 149.66,203.27 L 149.34,204.13 L 149.16,204.52 L 148.65,205.11 L 148.37,205.38 L 147.62,205.74 L 147.21,205.90 L 146.17,206.09 L 145.60,206.16 L 144.23,206.20 L 141.75,206.16 L 140.86,206.12 L 139.52,206.28 L 138.93,206.39 L 138.23,206.77 L 137.97,206.99 L 138.00,207.54 L 138.96,208.48 L 139.27,208.67 L 139.42,209.57 L 138.96,211.60 L 138.83,211.95 L 138.54,213.37 L 138.39,214.18 L 138.09,216.32 L 137.95,217.45 L 137.68,220.03 L 137.35,224.11 L 136.69,234.10 L 131.53,237.53 L 130.30,238.34 L 128.50,239.70 L 127.67,240.37 L 126.43,241.77 L 125.85,242.51 L 124.84,244.35 L 124.58,244.87 L 124.06,246.04 L 123.21,248.10 L 122.98,248.68 L 122.46,249.51 L 122.16,249.88 L 121.25,250.39 L 120.72,250.62 L 119.10,250.94 L 118.64,251.02 L 117.52,251.17 L 115.53,251.39 L 113.48,251.60 L 109.98,251.70 L 108.34,251.70 L 105.65,251.38 L 104.41,251.16 L 102.52,250.41 L 100.58,248.81 L 100.20,248.27 L 99.07,247.35 L 97.35,246.58 L 96.81,246.50 L 95.99,245.79 L 95.39,244.19 L 95.36,243.62 L 95.63,242.19 L 95.80,241.47 L 96.34,240.06 L 96.62,239.40 L 97.23,238.47 L 97.37,238.29 L 97.65,238.10 L 98.00,238.11 L 98.10,238.19 L 98.58,238.02 L 98.85,237.88 L 99.61,237.35 L 100.02,237.05 L 100.97,236.23 L 101.46,235.80 L 102.52,234.80 L 103.60,233.77 L 105.69,231.48 L 106.18,230.92 L 107.04,229.85 L 108.05,228.41 L 108.44,227.79 L 109.13,225.81 L 109.46,224.70 L 110.03,221.86 L 110.30,220.34 L 110.74,216.75 L 110.94,214.87 L 111.25,210.63 L 111.38,208.44 L 111.55,203.68 L 111.61,201.25 L 111.63,196.07 L 111.62,193.44 L 111.47,187.96 L 111.08,179.51 L 110.93,177.00 L 110.70,172.30 L 110.59,170.04 L 110.47,166.16 L 110.44,165.27 L 110.42,163.70 L 110.41,162.96 L 110.41,161.76 L 110.42,161.20 L 110.46,160.41 L 110.55,159.73 L 110.63,159.52 L 111.53,158.90 L 112.09,158.57 L 113.79,157.77 L 114.72,157.35 L 117.02,156.46 L 120.90,155.13 L 123.59,154.28 L 128.89,152.20 L 130.11,151.70 L 132.16,150.74 L 134.37,149.53 L 135.38,148.84 L 137.81,147.33 L 138.40,146.96 L 139.51,146.32 L 140.91,145.55 L 141.30,145.35 L 142.46,144.56 L 143.09,144.12 L 144.60,142.98 L 149.46,138.86 L 151.22,137.25 L 154.48,133.70 L 156.07,131.88 L 158.96,127.95 L 160.35,125.94 L 162.84,121.69 L 164.03,119.53 L 166.10,115.01 L 167.07,112.72 L 168.69,108.00 L 169.44,105.62 L 170.58,100.76 L 171.09,98.31 L 171.73,93.36 L 172.09,85.91 L 172.09,84.64 L 172.08,82.57 L 172.09,81.60 L 172.20,80.06 L 172.29,79.35 L 172.66,78.23 L 172.88,77.71 L 173.63,76.90 L 174.06,76.52 L 175.30,75.91 L 176.00,75.61 L 177.88,75.08 L 178.91,74.82 L 181.55,74.27 L 186.50,73.28 L 187.28,73.13 L 189.14,72.85 L 190.11,72.71 L 192.30,72.47 L 193.43,72.36 L 195.91,72.16 L 197.18,72.06 L 199.91,71.90 L 202.68,71.75 L 208.75,71.57 L 211.84,71.49 L 218.26,71.47 L 221.48,71.48 L 227.86,71.61 L 231.02,71.69 L 236.99,71.98 L 239.88,72.14 L 245.06,72.59 L 246.28,72.71 L 248.52,72.98 L 251.50,73.43 L 254.30,73.92 L 259.65,75.04 L 262.28,75.62 L 267.32,76.93 L 269.81,77.60 L 274.55,79.10 L 276.88,79.87 L 281.33,81.57 L 283.51,82.44 L 287.68,84.33 L 289.73,85.30 L 293.62,87.40 L 295.53,88.47 L 299.16,90.77 L 304.31,94.46 L 305.83,95.64 L 308.56,97.94 L 309.88,99.08 L 312.23,101.36 L 313.37,102.50 L 315.40,104.84 L 316.38,106.02 L 318.14,108.49 L 318.99,109.74 L 320.53,112.43 L 321.27,113.80 L 322.64,116.77 L 323.31,118.30 L 324.57,121.64 L 326.38,127.14 L 326.98,129.12 L 327.88,133.03 L 328.28,134.98 L 328.78,138.92 L 328.97,140.91 L 329.05,145.01 L 329.04,147.08 L 328.69,151.44 L 328.46,153.66 L 327.67,158.38 L 327.22,160.80 L 325.98,166.02 L 325.30,168.69 L 323.59,174.50 L 320.50,184.00 L 315.87,197.50 L 315.35,218.00 L 315.28,220.82 L 315.08,226.24 L 314.97,228.87 L 314.72,233.52 L 314.65,234.61 L 314.52,236.55 L 314.46,237.48 L 314.32,239.05 L 314.25,239.79 L 314.12,240.92 L 313.93,242.05 L 313.69,242.99 L 312.90,244.72 L 312.46,245.56 L 311.27,247.09 L 310.63,247.82 L 309.07,249.13 L 308.24,249.76 L 306.32,250.84 L 305.32,251.36 L 303.06,252.20 L 301.90,252.59 L 299.33,253.19 L 298.00,253.46 L 295.14,253.79 L 290.53,254.00 L 288.50,254.00 L 284.48,253.66 L 283.55,253.55 L 281.99,253.29 L 280.32,252.84 L 279.54,252.52 L 278.11,252.07 L 277.78,251.98 L 277.26,251.87 L 276.75,251.84 L 276.36,251.92 L 276.02,251.61 L 275.92,251.40 L 276.09,250.65 L 276.24,250.24 L 276.85,249.29 L 278.16,247.86 L 278.75,247.35 L 279.49,246.35 L 279.63,246.12 L 279.75,245.73 L 279.67,245.33 L 279.49,245.15 L 278.66,245.37 L 277.15,246.36 L 276.55,246.91 L 275.50,247.27 L 275.01,247.34 L 274.30,246.86 L 274.00,246.53 L 273.75,245.36 L 274.06,243.00 L 274.26,242.31 L 274.61,241.44 L 274.69,241.28 L 274.80,241.13 L 274.90,241.20 L 274.93,241.41 L 275.36,241.31 L 275.63,241.18 L 276.44,240.52 L 276.88,240.13 L 277.94,239.04 L 278.49,238.46 L 279.67,237.11 L 280.86,235.72 L 283.05,232.78 L 283.55,232.08 L 284.32,230.84 L 285.06,229.33 L 285.23,228.80 L 285.51,227.24 L 285.63,226.38 L 285.79,224.31 L 285.86,223.22 L 285.90,220.79 L 285.81,216.92 L 285.75,215.72 L 285.64,213.74 L 285.58,212.80 L 285.41,211.27 L 285.32,210.55 L 285.03,209.34 L 284.87,208.77 L 284.40,207.79 L 284.14,207.32 L 283.43,206.44 L 283.04,206.01 L 282.03,205.12 L 281.47,204.66 L 280.09,203.66 L 277.53,201.88 L 277.06,201.56 L 275.94,200.55 L 275.36,200.00 L 274.14,198.67 L 270.80,194.24 L 270.18,193.25 L 269.10,191.55 L 268.58,190.74 L 267.70,189.39 L 267.27,188.76 L 266.56,187.75 L 266.22,187.28 L 265.65,186.56 L 265.38,186.24 L 264.94,185.80 L 264.73,185.62 L 264.40,185.43 L 263.69,185.70 L 263.60,185.84 L 263.86,186.74 L 264.06,187.27 L 264.81,188.81 L 265.24,189.64 L 266.38,191.62 L 268.41,194.86 L 269.23,196.12 L 270.54,198.25 L 271.13,199.25 L 271.95,200.81 L 272.29,201.52 L 272.58,202.43 L 272.38,203.00 L 272.19,203.00 L 271.15,203.24 L 270.54,203.40 L 268.83,203.91 L 267.91,204.19 L 265.75,204.89 L 262.25,206.08 L 260.62,206.66 L 257.59,207.69 L 256.11,208.19 L 253.35,209.07 L 250.63,209.93 L 245.73,211.27 L 243.33,211.89 L 238.69,212.86 L 231.50,214.02 L 230.94,214.10 L 229.57,214.24 L 228.84,214.31 L 227.20,214.44 L 225.49,214.56 L 221.45,214.76 L 219.36,214.85 L 214.86,214.99 L 212.58,215.05 L 208.01,215.12 L 205.75,215.14 L 201.50,215.13 L 199.46,215.12 L 195.93,215.04 L 195.11,215.01 L 193.68,214.94 L 193.00,214.91 L 191.88,214.82 L 191.36,214.77 L 190.61,214.66 L 189.95,214.47 L 189.82,214.39 L 189.58,213.79 L 189.47,213.43 L 189.28,212.38 L 189.19,211.81 L 189.07,210.45 L 188.99,208.19 L 188.99,206.63 L 188.80,203.11 L 188.75,202.26 L 188.61,200.73 L 188.38,198.87 L 188.26,198.13 L 188.00,197.08 L 187.86,196.62 L 187.52,196.05 L 187.34,195.82 L 186.84,195.65 L 185.86,195.75 L 185.43,195.86 L 184.71,196.21 L 184.37,196.42 L 183.80,197.04 L 183.53,197.39 L 183.08,198.37 L 182.87,198.92 L 182.53,200.36 L 182.38,201.15 L 182.13,203.16 L 182.01,204.24 L 181.83,206.90 L 181.74,208.33 L 181.61,211.75 L 181.45,217.84 L 181.41,219.38 L 181.34,222.20 L 181.31,223.57 L 181.24,226.08 L 181.21,227.30 L 181.13,229.52 L 181.10,230.59 L 181.02,232.54 L 180.93,234.42 L 180.73,237.47 L 180.61,238.89 L 180.33,241.14 L 180.18,242.18 L 179.80,243.81 L 179.60,244.57 L 179.09,245.76 L 176.99,248.51 L 176.45,249.03 L 175.19,249.91 L 174.52,250.33 L 172.89,251.08 L 172.01,251.44 L 169.84,252.11 L 165.79,253.10 L 164.60,253.35 L 162.56,253.78 L 161.58,253.98 L 159.92,254.30 L 159.13,254.44 L 157.80,254.64 L 157.17,254.73 L 156.11,254.83 L 155.12,254.90 L 153.72,254.74 L 153.09,254.61 M 108.50,241.00 L 108.67,240.72 L 108.48,240.29 L 107.56,240.00 L 107.13,240.00 L 106.46,240.29 L 106.00,241.00 L 106.00,241.27 L 106.28,241.71 L 106.94,242.00 L 107.20,242.00 L 107.79,241.71 L 108.07,241.52 M 98.00,249.50 L 97.65,249.07 L 97.24,248.26 L 97.21,247.45 L 97.35,247.31 L 97.95,247.55 L 99.00,248.50 L 99.35,248.93 L 99.76,249.74 L 99.79,250.55 L 99.65,250.69 L 99.05,250.45 L 98.73,250.26 M 259.21,231.29 L 258.74,231.11 L 258.45,230.62 L 258.99,229.51 L 259.29,229.15 L 259.71,228.34 L 259.92,227.36 L 259.83,226.87 L 260.01,225.77 L 260.15,225.20 L 260.73,223.99 L 261.07,223.38 L 261.98,222.13 L 262.48,221.50 L 263.66,220.29 L 264.88,219.09 L 267.82,217.09 L 268.57,216.64 L 270.11,215.94 L 272.38,215.22 L 273.59,214.98 L 275.53,214.87 L 275.94,214.88 L 276.57,214.99 L 277.13,215.30 L 277.30,215.56 L 277.73,215.55 L 278.30,214.86 L 278.37,214.68 L 278.52,214.94 L 278.59,215.16 L 278.71,216.14 L 278.76,216.71 L 278.85,218.27 L 278.92,221.13 L 278.93,222.33 L 278.90,224.34 L 278.87,225.28 L 278.71,226.81 L 278.61,227.52 L 278.24,228.63 L 278.02,229.15 L 277.38,229.92 L 277.02,230.27 L 276.05,230.76 L 275.51,230.98 L 274.12,231.26 L 273.37,231.38 L 271.51,231.52 L 268.11,231.63 L 267.06,231.65 L 265.05,231.65 L 264.08,231.64 L 262.35,231.59 L 261.55,231.56 L 260.31,231.47 L 259.77,231.42 M 85.00,148.77 L 82.89,148.15 L 79.08,146.91 L 77.22,146.29 L 73.85,145.01 L 72.21,144.36 L 69.21,143.00 L 67.75,142.30 L 65.03,140.81 L 63.70,140.04 L 61.18,138.36 L 59.94,137.49 L 57.55,135.59 L 56.37,134.61 L 54.02,132.43 L 50.47,128.81 L 48.93,127.16 L 46.21,123.68 L 44.91,121.92 L 42.68,118.26 L 41.62,116.40 L 39.88,112.59 L 39.08,110.66 L 37.84,106.72 L 37.29,104.74 L 36.57,100.72 L 36.28,98.71 L 36.08,94.64 L 36.05,92.61 L 36.39,88.54 L 37.52,82.46 L 37.98,80.65 L 39.12,77.13 L 39.74,75.39 L 41.17,72.01 L 41.93,70.35 L 43.64,67.13 L 44.53,65.54 L 46.50,62.50 L 47.52,61.00 L 49.73,58.14 L 50.87,56.73 L 53.31,54.06 L 54.56,52.75 L 57.22,50.29 L 58.57,49.09 L 61.42,46.84 L 62.87,45.74 L 65.91,43.73 L 67.45,42.75 L 70.65,40.97 L 72.27,40.11 L 75.62,38.59 L 77.31,37.86 L 80.80,36.60 L 82.55,36.00 L 86.16,35.02 L 87.98,34.56 L 91.69,33.86 L 93.55,33.55 L 97.35,33.15 L 103.13,32.90 L 104.98,32.90 L 108.44,33.01 L 110.13,33.09 L 113.31,33.39 L 114.87,33.56 L 117.84,34.06 L 119.30,34.33 L 122.12,35.04 L 124.90,35.80 L 130.28,38.03 L 131.62,38.66 L 134.34,40.10 L 138.51,42.58 L 140.12,43.60 L 143.25,46.06 L 144.80,47.35 L 147.75,50.29 L 149.20,51.81 L 151.92,55.12 L 153.24,56.81 L 155.66,60.40 L 156.82,62.22 L 158.88,65.99 L 159.85,67.89 L 161.48,71.75 L 162.24,73.68 L 163.38,77.52 L 164.48,83.17 L 164.64,84.53 L 164.63,87.61 L 164.57,89.19 L 164.14,92.61 L 163.88,94.35 L 163.07,97.99 L 162.62,99.83 L 161.47,103.57 L 160.86,105.44 L 159.41,109.16 L 158.66,111.00 L 156.95,114.58 L 156.07,116.34 L 154.14,119.65 L 151.04,124.19 L 149.81,125.81 L 146.90,129.07 L 145.42,130.67 L 142.44,133.52 L 141.71,134.18 L 140.35,135.33 L 139.69,135.88 L 138.50,136.75 L 137.93,137.14 L 136.99,137.67 L 135.93,138.00 L 135.77,138.00 L 135.09,138.27 L 134.70,138.45 L 133.67,139.02 L 129.91,141.47 L 129.24,141.95 L 127.56,143.02 L 126.67,143.56 L 124.73,144.67 L 123.75,145.21 L 121.78,146.22 L 119.07,147.47 L 117.72,148.04 L 115.49,148.82 L 114.38,149.16 L 112.03,149.57 L 111.40,149.65 L 109.99,149.77 L 109.24,149.82 L 107.53,149.88 L 106.62,149.90 L 104.51,149.91 L 100.78,149.90 L 99.09,149.88 L 95.74,149.78 L 94.09,149.71 L 91.08,149.52 L 89.65,149.42 L 87.33,149.17 L 86.81,149.11 L 85.95,148.97 L 85.56,148.91 M 115.67,145.32 L 116.25,145.13 L 117.61,144.52 L 118.32,144.18 L 119.86,143.32 L 121.43,142.41 L 124.57,140.19 L 125.32,139.64 L 126.69,138.53 L 127.34,137.99 L 128.41,136.97 L 128.90,136.49 L 129.57,135.65 L 130.00,134.68 L 130.00,134.60 L 130.28,133.99 L 130.45,133.62 L 131.03,132.52 L 131.35,131.93 L 132.14,130.50 L 133.50,128.14 L 134.39,126.61 L 135.65,124.07 L 136.20,122.87 L 136.77,120.96 L 136.97,120.08 L 136.86,118.77 L 135.93,117.46 L 135.64,117.28 L 135.32,116.62 L 135.35,115.54 L 135.44,115.31 L 135.34,114.53 L 135.25,114.10 L 134.85,113.01 L 134.61,112.43 L 133.96,111.12 L 133.61,110.44 L 132.77,109.01 L 131.90,107.57 L 129.85,104.77 L 129.33,104.11 L 128.30,102.93 L 126.81,101.48 L 125.37,100.27 L 122.17,98.23 L 120.54,97.28 L 117.14,95.85 L 115.45,95.22 L 112.12,94.49 L 107.50,94.31 L 106.12,94.45 L 103.09,95.04 L 102.36,95.20 L 101.06,95.55 L 99.50,96.08 L 98.67,96.42 L 97.16,96.91 L 96.82,97.01 L 96.28,97.13 L 95.75,97.16 L 95.54,97.12 L 95.22,97.32 L 95.00,97.93 L 95.00,98.19 L 94.41,98.78 L 93.00,99.50 L 92.64,99.62 L 91.79,100.09 L 91.35,100.36 L 90.38,101.11 L 89.39,101.92 L 87.26,104.13 L 86.21,105.30 L 84.23,107.91 L 81.87,111.81 L 81.24,113.10 L 80.50,116.20 L 80.21,117.79 L 80.13,121.04 L 80.17,122.63 L 80.75,125.44 L 80.93,126.08 L 81.42,127.18 L 82.32,128.47 L 82.78,128.93 L 83.51,129.97 L 84.00,131.23 L 84.00,131.50 L 84.23,132.19 L 84.38,132.56 L 84.88,133.40 L 85.42,134.27 L 87.08,136.21 L 87.97,137.18 L 90.01,138.97 L 93.02,141.01 L 94.09,141.56 L 96.74,142.45 L 97.39,142.64 L 98.62,142.91 L 100.21,143.12 L 100.69,143.13 L 101.40,143.20 L 101.71,143.24 L 102.06,143.33 L 102.18,143.39 L 102.14,143.51 L 101.63,143.71 L 101.20,143.82 L 100.69,144.01 L 100.48,144.10 L 100.43,144.33 L 100.47,144.45 L 100.90,144.78 L 102.13,145.50 L 102.96,145.96 L 104.77,146.52 L 105.71,146.74 L 107.81,146.83 L 108.91,146.81 L 111.40,146.43 L 112.70,146.18 M 78.32,95.84 L 79.12,95.41 L 80.40,94.44 L 80.98,93.93 L 81.84,92.78 L 82.22,92.17 L 82.68,90.77 L 82.97,88.36 L 82.98,87.44 L 82.60,85.79 L 82.36,85.01 L 81.56,83.67 L 81.11,83.04 L 79.98,82.05 L 79.38,81.60 L 78.01,80.98 L 77.31,80.72 L 75.82,80.52 L 75.07,80.47 L 73.55,80.72 L 72.80,80.91 L 71.35,81.65 L 69.37,83.35 L 68.88,83.93 L 68.14,85.09 L 67.81,85.68 L 67.38,86.84 L 67.20,87.43 L 67.09,88.58 L 67.07,89.14 L 67.26,90.24 L 67.39,90.79 L 67.87,91.81 L 68.15,92.32 L 68.93,93.25 L 69.36,93.70 L 70.42,94.50 L 72.33,95.54 L 73.31,95.97 L 74.55,96.50 L 75.09,96.72 L 75.82,96.85 L 76.16,96.86 L 76.84,96.61 L 77.21,96.44 M 122.75,82.01 L 123.44,81.59 L 124.42,80.85 L 124.85,80.48 L 125.41,79.70 L 125.64,79.28 L 125.88,78.26 L 126.00,76.24 L 126.00,74.83 L 125.57,72.58 L 125.28,71.54 L 124.27,70.01 L 123.68,69.33 L 122.05,68.50 L 118.90,68.00 L 117.74,68.00 L 115.55,68.60 L 114.50,68.98 L 112.71,70.20 L 111.89,70.87 L 110.74,72.51 L 110.00,75.23 L 110.00,76.25 L 110.74,78.27 L 111.20,79.26 L 112.67,81.01 L 113.47,81.83 L 115.40,83.04 L 118.50,83.93 L 118.64,83.94 L 119.14,83.80 L 119.43,83.71 L 120.16,83.39 L 120.93,83.04 M 23.69,78.96 L 22.74,78.12 L 21.14,76.35 L 20.40,75.45 L 19.22,73.56 L 18.68,72.61 L 17.93,70.65 L 17.60,69.66 L 17.27,67.63 L 17.16,66.61 L 17.25,64.55 L 17.35,63.52 L 17.87,61.44 L 18.18,60.40 L 19.13,58.32 L 21.05,55.25 L 21.70,54.36 L 23.35,52.74 L 24.23,51.95 L 26.22,50.56 L 27.25,49.89 L 29.47,48.77 L 30.59,48.25 L 32.89,47.44 L 34.04,47.08 L 36.29,46.63 L 37.39,46.45 L 39.47,46.39 L 40.47,46.42 L 42.23,46.80 L 44.39,47.91 L 45.00,48.41 L 45.44,49.27 L 45.55,49.66 L 45.14,50.20 L 44.84,50.41 L 43.73,50.50 L 41.50,50.00 L 40.28,49.54 L 37.72,49.23 L 36.43,49.18 L 33.84,49.62 L 32.55,49.92 L 30.07,50.98 L 28.85,51.59 L 26.60,53.18 L 25.52,54.03 L 23.65,56.03 L 22.78,57.08 L 21.42,59.40 L 20.82,60.58 L 20.11,63.10 L 19.92,66.99 L 20.05,68.12 L 20.83,70.51 L 21.28,71.69 L 22.55,73.92 L 23.22,74.99 L 24.74,76.71 L 27.08,78.34 L 27.88,78.64 L 29.14,79.47 L 29.41,79.68 L 29.77,80.10 L 30.00,80.66 L 30.00,81.32 L 29.63,82.05 L 29.37,82.32 L 28.48,82.24 L 27.96,82.10 L 26.51,81.21 L 25.72,80.67 M 154.50,44.62 L 153.95,44.04 L 153.35,43.33 L 153.25,43.20 L 153.21,43.10 L 153.40,43.20 L 153.65,43.40 L 154.58,43.41 L 156.15,42.92 L 156.51,42.73 L 157.04,42.20 L 157.28,41.90 L 157.61,41.07 L 157.75,40.61 L 157.91,39.36 L 158.00,36.90 L 158.00,35.52 L 157.67,32.70 L 157.57,32.05 L 157.31,30.93 L 156.88,29.68 L 156.41,28.78 L 155.11,26.96 L 154.42,26.07 L 152.88,24.49 L 152.10,23.75 L 150.63,22.69 L 148.81,22.00 L 148.31,22.00 L 147.53,21.78 L 146.99,21.25 L 146.99,21.15 L 146.68,20.94 L 146.48,20.84 L 145.83,20.65 L 143.02,20.27 L 141.82,20.21 L 139.02,20.65 L 137.60,20.94 L 134.79,21.94 L 133.44,22.49 L 131.18,23.82 L 130.68,24.16 L 129.87,24.87 L 129.04,25.93 L 128.74,26.49 L 128.06,27.28 L 127.72,27.61 L 127.07,27.93 L 126.77,28.02 L 126.31,27.82 L 126.00,26.87 L 126.00,26.60 L 126.30,25.93 L 126.50,25.58 L 127.13,24.77 L 127.83,23.95 L 129.90,22.16 L 130.99,21.29 L 133.38,19.78 L 133.98,19.44 L 135.11,18.89 L 136.67,18.35 L 138.58,17.88 L 142.31,17.73 L 144.14,17.77 L 147.60,18.55 L 149.28,19.03 L 152.33,20.58 L 153.79,21.44 L 156.29,23.63 L 157.45,24.79 L 159.25,27.46 L 160.05,28.85 L 161.02,31.88 L 161.38,33.43 L 161.36,36.66 L 161.28,37.48 L 160.93,39.12 L 160.06,41.59 L 159.77,42.25 L 159.26,43.34 L 159.01,43.84 L 158.56,44.64 L 158.13,45.38 L 157.34,46.06 L 156.95,46.27 L 156.09,45.99 L 155.63,45.74 Z" fill="rgba(115,75,40,1)"/>
</g>
</svg>