<svg xmlns="http://www.w3.org/2000/svg" width="239" height="211" viewBox="0 0 239 211">
<g>
<path d="M 107.16,75.51 L 107.50,75.61 L 109.06,76.18 L 109.97,76.63 L 114.05,78.17 L 116.81,78.73 L 118.20,78.78 L 120.96,78.71 L 122.33,78.44 L 125.04,77.75 L 126.36,77.17 L 128.78,76.14 L 129.80,75.77 L 130.06,75.75 L 130.43,75.80 L 130.43,75.98 L 130.30,76.43 L 130.10,76.80 L 128.78,78.62 L 127.55,79.95 L 126.82,80.61 L 125.32,81.90 L 124.55,82.46 L 123.02,83.51 L 122.32,83.88 L 120.92,84.55 L 120.30,84.72 L 119.11,84.94 L 118.47,84.87 L 117.12,84.60 L 116.27,84.27 L 114.42,83.47 L 113.18,82.86 L 110.25,81.02 L 108.47,79.56 L 107.78,78.83 L 106.56,77.39 L 106.27,76.80 L 106.04,76.24 L 106.02,76.02 L 106.07,75.60 L 106.20,75.46 L 106.65,75.41 M 101.07,48.04 L 102.68,48.25 L 103.38,48.50 L 104.67,49.11 L 105.04,49.55 L 105.71,50.25 L 106.07,50.51 L 106.23,50.52 L 106.54,50.49 L 106.68,50.37 L 106.98,50.06 L 107.15,49.80 L 107.52,49.32 L 107.71,49.21 L 107.78,49.27 L 107.90,49.46 L 107.93,49.67 L 107.98,50.17 L 107.98,50.53 L 107.54,52.61 L 106.87,54.17 L 106.44,54.78 L 105.83,55.54 L 105.45,55.84 L 104.68,56.38 L 104.24,56.57 L 102.41,57.12 L 101.42,57.08 L 99.44,56.80 L 98.52,56.34 L 96.75,55.23 L 96.07,54.37 L 94.68,52.24 L 94.14,51.01 L 94.07,50.55 L 94.08,49.76 L 94.30,49.59 L 94.88,49.40 L 95.40,49.60 L 96.58,49.66 L 97.28,49.36 L 97.46,49.07 L 98.86,48.22 L 100.28,47.99 M 143.74,45.33 L 144.16,45.85 L 144.31,46.22 L 144.79,48.01 L 144.80,49.13 L 144.68,51.47 L 144.40,52.57 L 144.07,53.66 L 143.85,54.14 L 143.38,55.05 L 143.08,55.40 L 141.80,56.50 L 140.95,56.77 L 139.14,57.11 L 138.17,57.01 L 136.23,56.63 L 135.35,56.19 L 133.68,55.13 L 133.07,54.37 L 131.61,52.03 L 131.28,51.28 L 131.17,50.95 L 131.01,50.34 L 131.02,50.12 L 131.06,49.43 L 131.14,49.18 L 131.21,49.15 L 131.35,49.15 L 131.45,49.25 L 131.68,49.52 L 131.82,49.75 L 132.30,50.29 L 132.65,50.46 L 132.85,50.44 L 133.30,50.34 L 133.58,50.19 L 134.18,49.82 L 134.56,49.53 L 136.72,48.38 L 138.15,48.06 L 138.83,48.12 L 140.16,48.40 L 140.75,48.75 L 141.88,49.61 L 142.33,50.25 L 143.15,51.37 L 143.52,51.77 L 143.63,51.80 L 143.82,51.75 L 143.87,51.56 L 143.94,51.08 L 143.95,50.68 L 143.68,48.83 L 143.25,47.47 L 142.96,46.93 L 142.44,45.48 L 142.60,45.00 L 142.95,45.00 Z" fill="rgba(0,0,0,1)"/>
<path d="M 79.54,210.90 L 79.53,210.90 L 79.56,210.90 M 76.89,210.70 L 77.89,210.83 L 77.47,210.81 L 76.45,210.69 L 74.50,210.05 L 76.04,210.56 M 108.66,122.04 L 111.17,122.21 L 112.28,122.53 L 114.37,123.33 L 115.14,123.97 L 116.00,124.77 L 116.38,125.22 L 116.47,125.39 L 116.58,125.71 L 116.53,125.81 L 116.36,125.96 L 116.16,125.97 L 115.74,126.17 L 115.69,126.48 L 115.79,126.73 L 116.05,127.29 L 116.30,127.65 L 116.87,128.43 L 117.27,128.91 L 118.23,130.28 L 118.85,131.39 L 119.15,132.01 L 120.28,134.65 L 120.71,136.00 L 121.45,138.66 L 121.59,139.74 L 121.69,140.76 L 121.67,141.16 L 121.57,141.88 L 121.44,142.10 L 121.39,142.84 L 121.35,142.71 L 120.55,139.55 L 120.45,139.00 L 120.12,137.71 L 119.93,137.05 L 119.47,135.64 L 117.90,131.80 L 117.46,130.94 L 116.74,129.76 L 116.39,129.25 L 115.64,128.62 L 115.24,128.36 L 114.21,128.11 L 112.06,128.00 L 111.34,128.00 L 109.98,128.20 L 109.31,128.33 L 108.05,128.79 L 106.81,129.32 L 104.62,131.10 L 103.59,132.10 L 101.83,134.79 L 101.00,136.24 L 99.70,139.75 L 99.10,141.61 L 98.27,145.87 L 97.91,148.09 L 97.58,153.02 L 97.48,155.56 L 97.67,161.07 L 98.58,169.93 L 98.82,171.56 L 99.18,174.54 L 99.35,175.99 L 99.57,178.65 L 99.66,179.94 L 99.73,182.31 L 99.74,183.47 L 99.66,185.61 L 99.54,187.71 L 98.82,191.42 L 97.03,196.67 L 96.45,197.98 L 95.05,200.38 L 94.31,201.54 L 92.63,203.61 L 91.77,204.61 L 89.89,206.33 L 88.93,207.14 L 86.90,208.46 L 85.88,209.07 L 83.77,209.96 L 82.72,210.34 L 81.24,210.63 L 81.47,210.52 L 81.54,210.41 L 81.61,210.17 L 81.52,210.03 L 80.97,209.56 L 80.33,209.21 L 79.91,209.02 L 77.99,208.27 L 76.88,207.97 L 74.89,207.36 L 74.05,207.00 L 73.84,206.82 L 73.56,206.44 L 73.60,206.21 L 73.80,205.74 L 74.05,205.44 L 75.41,204.42 L 76.52,204.00 L 77.00,204.00 L 78.89,203.77 L 80.24,203.39 L 80.94,203.11 L 83.78,201.72 L 85.16,200.74 L 87.85,198.62 L 88.99,197.38 L 91.10,194.83 L 91.78,193.50 L 93.09,189.56 L 93.36,187.95 L 93.45,187.04 L 93.60,185.15 L 93.63,184.10 L 93.65,181.91 L 93.62,180.69 L 93.51,178.16 L 93.42,176.75 L 93.19,173.86 L 93.03,172.26 L 92.68,168.96 L 92.45,167.16 L 91.90,162.55 L 91.61,159.96 L 91.50,158.86 L 91.31,156.78 L 91.26,155.87 L 91.17,154.14 L 91.16,153.36 L 91.24,150.41 L 91.42,148.89 L 91.63,147.35 L 91.77,146.49 L 92.08,144.71 L 92.27,143.68 L 93.06,139.85 L 93.63,137.50 L 93.94,136.42 L 94.58,134.32 L 94.93,133.37 L 95.64,131.54 L 96.01,130.71 L 97.60,127.69 L 98.49,126.55 L 100.35,124.54 L 101.39,123.91 L 104.85,122.50 L 107.39,122.03 M 213.24,172.66 L 214.14,172.88 L 215.81,173.72 L 216.62,174.20 L 217.97,175.52 L 218.59,176.24 L 219.45,178.00 L 220.00,181.10 L 220.00,182.09 L 219.55,184.00 L 219.25,184.94 L 218.25,186.69 L 217.69,187.55 L 216.20,189.12 L 215.40,189.87 L 213.47,191.22 L 212.46,191.86 L 210.15,192.95 L 208.96,193.46 L 206.33,194.26 L 204.98,194.62 L 202.08,195.08 L 197.50,195.37 L 196.16,195.37 L 193.69,195.19 L 192.49,195.06 L 190.28,194.61 L 189.21,194.35 L 187.22,193.61 L 186.26,193.21 L 184.47,192.16 L 183.60,191.60 L 181.97,190.22 L 181.18,189.49 L 179.69,187.78 L 178.96,186.87 L 177.57,184.78 L 175.58,181.22 L 175.12,180.32 L 174.57,178.64 L 174.47,178.27 L 174.38,177.66 L 174.44,177.21 L 174.55,177.94 L 175.04,178.76 L 175.45,179.26 L 176.37,180.33 L 176.96,180.92 L 178.20,182.14 L 178.90,182.77 L 181.90,185.31 L 183.44,186.42 L 184.97,187.47 L 185.68,187.91 L 187.08,188.71 L 187.69,188.98 L 191.91,190.50 L 194.85,191.24 L 196.29,191.47 L 199.13,191.82 L 200.43,191.83 L 202.91,191.74 L 203.93,191.51 L 207.15,190.32 L 209.11,189.14 L 209.97,188.41 L 211.58,186.88 L 212.24,186.05 L 213.43,184.36 L 213.83,183.51 L 214.51,181.84 L 214.63,181.07 L 214.71,179.59 L 214.50,178.99 L 213.89,177.89 L 213.30,177.54 L 212.66,177.23 L 212.26,177.14 L 211.42,177.00 L 210.91,177.00 L 209.49,177.13 L 208.70,177.35 L 208.38,177.54 L 207.78,177.98 L 207.53,178.28 L 207.07,178.96 L 206.87,179.39 L 205.52,181.23 L 204.27,182.32 L 203.60,182.71 L 202.29,183.38 L 201.75,183.47 L 201.24,183.51 L 201.04,183.46 L 200.68,183.30 L 200.58,183.13 L 199.41,182.69 L 198.46,182.65 L 198.51,182.64 L 199.06,182.48 L 200.11,181.94 L 200.62,181.63 L 201.58,180.78 L 202.05,180.32 L 202.88,179.17 L 203.95,177.13 L 204.37,176.10 L 205.61,174.58 L 206.28,173.90 L 207.89,173.03 L 208.72,172.67 L 210.52,172.41 L 211.42,172.35 M 191.98,180.48 L 192.48,181.01 L 193.53,181.79 L 194.06,182.14 L 195.17,182.58 L 195.72,182.75 L 195.95,182.77 L 195.62,182.78 L 194.60,182.58 L 194.13,182.38 L 193.22,181.89 L 192.81,181.53 L 192.01,180.75 L 191.66,180.25 L 190.98,179.18 L 190.96,179.12 M 174.59,176.85 L 174.53,176.95 L 174.59,176.85 M 122.83,147.53 L 122.89,148.69 L 122.93,149.92 L 122.94,150.65 L 122.95,152.16 L 122.93,153.03 L 122.90,154.85 L 122.87,155.88 L 122.84,156.66 L 122.91,153.62 L 122.93,151.94 L 122.87,149.22 L 122.83,147.98 L 122.71,146.70 M 228.69,105.36 L 229.77,105.60 L 231.71,106.41 L 232.64,106.86 L 234.25,108.06 L 235.01,108.70 L 236.27,110.24 L 236.85,111.05 L 237.71,112.89 L 238.09,113.84 L 238.52,115.92 L 238.68,116.99 L 238.65,119.27 L 238.04,122.85 L 237.71,124.07 L 236.77,126.30 L 236.25,127.39 L 234.95,129.36 L 234.25,130.31 L 232.60,132.00 L 231.73,132.81 L 229.75,134.20 L 228.72,134.86 L 226.44,135.95 L 225.27,136.45 L 222.71,137.22 L 221.39,137.56 L 218.57,138.00 L 214.06,138.26 L 213.02,138.26 L 211.18,138.20 L 210.30,138.17 L 208.69,138.02 L 207.12,137.83 L 204.24,137.02 L 203.50,136.77 L 201.96,136.10 L 201.17,135.74 L 199.45,134.84 L 198.56,134.35 L 196.54,133.17 L 193.09,131.04 L 190.94,129.69 L 186.80,127.48 L 184.75,126.45 L 180.76,124.86 L 178.77,124.13 L 174.85,123.13 L 168.97,122.26 L 167.39,122.14 L 164.86,122.19 L 164.09,122.23 L 164.89,122.09 L 166.74,121.81 L 167.88,121.69 L 170.31,121.46 L 171.75,121.36 L 175.73,121.17 L 178.18,121.17 L 179.32,121.24 L 183.71,121.70 L 185.76,122.25 L 189.82,123.58 L 191.93,124.63 L 194.06,125.74 L 195.19,126.40 L 197.48,127.80 L 198.71,128.60 L 203.37,131.39 L 206.29,132.86 L 207.66,133.39 L 210.36,134.33 L 211.63,134.61 L 214.12,135.03 L 215.29,135.04 L 217.59,134.94 L 218.67,134.70 L 220.79,134.07 L 221.80,133.57 L 223.76,132.42 L 224.69,131.65 L 226.52,129.99 L 227.38,128.96 L 228.99,126.55 L 229.72,124.88 L 229.91,124.04 L 230.18,122.34 L 230.14,121.49 L 229.97,119.80 L 229.72,118.97 L 229.11,117.33 L 228.65,116.54 L 227.62,114.98 L 226.95,114.25 L 225.52,112.83 L 224.66,112.18 L 222.83,110.93 L 221.77,110.38 L 220.30,109.67 L 219.66,109.44 L 219.46,109.45 L 219.16,109.55 L 219.09,109.73 L 219.00,110.16 L 219.00,110.51 L 219.44,111.77 L 220.08,112.48 L 220.49,112.64 L 221.39,113.30 L 221.59,113.86 L 221.44,114.10 L 221.55,114.49 L 221.50,114.47 L 220.72,114.21 L 219.58,113.46 L 219.08,113.06 L 218.46,112.11 L 218.22,111.62 L 218.09,110.55 L 218.08,110.02 L 218.39,108.95 L 218.60,108.42 L 219.32,107.45 L 219.73,106.98 L 220.81,106.19 L 221.40,105.82 L 222.81,105.32 L 225.25,105.00 L 226.46,105.00 M 104.81,128.00 L 103.70,128.36 L 102.84,128.93 L 102.38,129.36 L 101.44,130.30 L 100.98,130.88 L 100.05,132.10 L 99.63,132.79 L 99.33,133.32 L 99.26,133.50 L 99.18,133.82 L 99.21,133.91 L 99.52,134.06 L 99.89,133.88 L 100.78,133.35 L 101.37,132.86 L 102.63,131.74 L 103.34,131.00 L 104.41,129.77 L 104.90,129.08 L 105.02,128.82 L 105.20,128.35 L 105.17,128.21 L 105.01,128.00 M 163.19,131.19 L 163.00,130.94 L 162.35,130.07 L 162.18,129.82 M 161.85,129.32 L 161.65,129.02 L 161.51,128.76 L 161.45,128.62 M 222.86,115.00 L 224.27,115.32 L 224.93,115.82 L 225.13,116.18 L 225.44,116.95 L 225.47,117.40 L 225.46,118.34 L 225.34,118.83 L 225.02,119.83 L 224.77,120.31 L 224.51,120.73 L 224.84,120.03 L 225.13,119.20 L 225.36,117.95 L 225.40,117.38 L 225.07,116.50 L 224.83,116.10 L 223.84,115.43 L 222.80,115.00 M 156.53,25.73 L 157.00,25.86 L 157.27,26.04 L 157.86,26.45 L 158.19,26.76 L 158.88,27.45 L 159.27,27.91 L 160.42,29.10 L 161.08,29.62 L 161.34,29.75 L 161.84,29.91 L 162.03,29.87 L 162.35,29.71 L 162.44,29.51 L 162.58,29.06 L 162.58,28.72 L 162.53,28.19 L 163.20,30.15 L 163.59,31.39 L 164.18,33.96 L 164.44,35.25 L 164.78,37.92 L 164.91,39.27 L 164.99,42.03 L 165.00,43.42 L 164.81,46.26 L 164.69,47.69 L 164.23,50.61 L 163.24,55.05 L 162.96,56.08 L 162.33,58.69 L 162.00,60.07 L 161.33,63.10 L 160.99,64.64 L 160.36,67.72 L 159.54,72.00 L 159.30,73.31 L 158.83,75.81 L 158.60,77.02 L 158.18,79.15 L 157.98,80.15 L 157.70,81.43 L 157.70,81.34 L 157.62,79.48 L 157.44,78.52 L 157.24,77.07 L 157.20,76.27 L 157.23,75.96 L 157.32,75.41 L 157.42,75.25 L 157.63,75.00 L 157.78,75.00 L 158.76,74.22 L 159.27,73.08 L 159.41,72.36 L 159.62,70.85 L 159.58,70.13 L 159.40,68.75 L 159.13,68.26 L 158.50,67.57 L 158.30,67.64 L 158.19,67.79 L 157.96,68.18 L 157.83,68.52 L 157.55,69.30 L 157.38,69.86 L 157.02,71.10 L 156.80,71.91 L 156.33,73.66 L 156.05,74.75 L 155.46,77.09 L 155.10,78.50 L 154.79,80.22 L 154.60,81.77 L 154.51,82.67 L 154.20,86.58 L 154.14,88.50 L 154.10,91.75 L 154.15,93.24 L 154.22,93.66 L 154.39,94.32 L 154.53,94.36 L 154.83,94.28 L 155.04,94.00 L 155.56,93.41 L 155.78,93.33 L 155.84,93.46 L 155.91,93.84 L 155.89,94.21 L 155.83,95.07 L 155.75,95.70 L 155.65,97.31 L 155.74,97.79 L 155.85,98.21 L 155.93,98.31 L 156.12,98.42 L 156.24,98.35 L 156.57,97.60 L 156.74,96.64 L 156.80,95.98 L 156.91,94.55 L 156.92,93.72 L 156.93,92.59 L 156.94,92.87 L 156.98,94.33 L 157.00,95.03 L 157.08,96.18 L 157.16,97.27 L 157.49,98.78 L 157.70,99.46 L 158.41,100.55 L 160.05,102.25 L 160.87,103.01 L 162.72,104.19 L 163.17,104.44 L 163.97,104.78 L 164.96,105.00 L 165.49,105.00 L 166.51,105.32 L 167.47,106.03 L 165.83,105.27 L 164.20,104.87 L 163.40,104.82 L 160.84,104.26 L 159.23,103.57 L 158.75,103.17 L 157.46,102.37 L 157.00,102.47 L 157.00,102.83 L 157.33,103.49 L 157.85,104.09 L 158.23,104.45 L 160.04,105.98 L 161.19,106.74 L 162.53,107.62 L 163.24,108.10 L 163.50,108.30 L 164.35,108.96 L 164.45,109.16 L 164.45,109.48 L 164.17,109.58 L 163.42,109.73 L 162.80,109.81 L 159.72,109.60 L 157.51,108.97 L 156.44,108.47 L 154.36,107.34 L 153.48,106.64 L 151.86,105.18 L 151.33,104.37 L 150.40,102.46 L 149.97,100.86 L 149.84,99.74 L 149.71,98.56 L 149.67,97.86 L 149.58,96.38 L 149.56,95.50 L 149.51,93.67 L 149.49,92.59 L 149.47,90.34 L 149.47,89.04 L 149.51,84.09 L 149.58,81.12 L 149.64,79.89 L 149.76,77.63 L 149.83,76.88 L 149.91,76.19 L 149.95,75.96 L 150.04,75.57 L 150.08,75.50 L 150.54,74.64 L 150.70,74.20 L 150.79,73.86 L 151.00,73.10 L 151.13,72.55 L 151.42,71.32 L 151.61,70.49 L 152.02,68.65 L 152.29,67.46 L 152.85,64.87 L 153.21,63.24 L 153.96,59.76 L 154.42,57.62 L 156.05,48.86 L 156.72,43.62 L 156.85,41.32 L 156.98,36.91 L 156.84,35.03 L 156.42,31.48 L 156.01,30.03 L 155.63,28.43 L 155.51,27.54 L 155.51,27.19 L 155.56,26.54 L 155.63,26.31 L 155.83,25.92 L 155.98,25.82 L 156.31,25.69 M 178.63,107.25 L 181.51,108.02 L 185.45,109.43 L 181.52,108.03 L 178.62,107.25 L 178.43,107.21 M 112.15,105.35 L 115.33,105.36 L 117.24,105.37 L 120.81,105.40 L 122.99,105.43 L 123.98,105.46 L 125.87,105.51 L 126.70,105.54 L 128.28,105.61 L 128.94,105.65 L 130.19,105.74 L 130.68,105.79 L 131.56,105.89 L 131.86,105.94 L 132.35,106.05 L 132.45,106.11 L 132.54,106.24 L 132.42,106.30 L 131.45,106.67 L 130.60,106.83 L 128.70,107.11 L 127.50,107.22 L 124.95,107.42 L 123.52,107.48 L 120.58,107.59 L 119.06,107.61 L 116.01,107.62 L 114.53,107.59 L 111.62,107.51 L 110.32,107.43 L 107.84,107.25 L 106.84,107.12 L 105.05,106.83 L 104.50,106.64 L 103.37,106.23 L 102.89,106.01 L 102.80,105.92 L 102.74,105.75 L 102.90,105.68 L 103.34,105.56 L 103.77,105.52 L 104.78,105.44 L 105.53,105.42 L 107.19,105.38 L 108.29,105.37 L 110.67,105.35 M 169.09,106.67 L 169.03,106.65 L 170.53,106.57 M 170.84,106.55 L 170.58,106.57 L 170.90,106.49 L 171.08,106.47 M 157.06,84.73 L 156.98,86.26 L 156.94,87.08 L 156.91,88.97 L 156.92,91.41 L 156.91,91.06 L 156.88,88.35 L 156.92,86.67 L 156.96,85.96 L 157.06,84.63 L 157.08,84.53 M 136.23,56.63 L 138.14,57.00 L 137.97,56.98 L 136.11,56.62 L 135.28,56.19 L 133.68,55.14 L 133.68,55.13 L 135.35,56.19 M 144.87,48.35 L 145.01,50.10 L 144.92,50.99 L 144.62,52.76 L 144.33,53.52 L 143.65,54.92 L 143.17,55.35 L 143.04,55.44 L 143.08,55.40 L 143.38,55.05 L 143.85,54.14 L 144.07,53.66 L 144.40,52.57 L 144.68,51.47 L 144.80,49.13 L 144.79,48.11 M 106.81,54.26 L 106.44,54.78 L 106.81,54.26 M 131.61,52.03 L 133.07,54.37 L 131.65,52.16 L 131.50,51.77 M 107.32,53.16 L 107.14,53.54 L 107.47,52.77 M 94.59,52.04 L 94.54,51.96 L 94.50,51.84 M 138.52,42.66 L 139.76,43.03 L 140.52,43.42 L 142.73,44.83 L 142.93,45.00 L 142.60,45.00 L 142.44,45.48 L 142.96,46.93 L 143.25,47.47 L 143.68,48.83 L 143.95,50.68 L 143.94,51.08 L 143.87,51.56 L 143.82,51.75 L 143.63,51.80 L 143.52,51.77 L 143.15,51.37 L 142.33,50.25 L 141.88,49.61 L 140.75,48.75 L 140.16,48.40 L 138.83,48.12 L 138.15,48.06 L 136.72,48.38 L 134.56,49.53 L 134.18,49.82 L 133.58,50.19 L 133.30,50.34 L 132.85,50.44 L 132.65,50.46 L 132.30,50.29 L 131.82,49.75 L 131.68,49.52 L 131.45,49.25 L 131.35,49.15 L 131.22,49.15 L 131.23,49.00 L 131.50,48.38 L 132.20,47.13 L 132.77,46.46 L 135.02,44.03 L 136.25,43.04 L 136.81,42.81 L 137.93,42.55 M 101.16,42.35 L 102.16,42.65 L 102.83,42.93 L 104.47,43.84 L 105.42,44.59 L 105.81,45.03 L 107.18,46.94 L 107.51,48.04 L 107.74,49.23 L 107.71,49.21 L 107.52,49.32 L 107.15,49.80 L 106.98,50.06 L 106.68,50.37 L 106.54,50.49 L 106.23,50.52 L 106.07,50.51 L 105.71,50.25 L 105.04,49.55 L 104.67,49.11 L 103.38,48.50 L 102.68,48.25 L 101.07,48.04 L 100.28,47.99 L 98.86,48.22 L 97.46,49.07 L 97.28,49.36 L 96.58,49.66 L 95.40,49.60 L 94.88,49.40 L 94.30,49.59 L 94.20,49.67 L 94.49,48.44 L 94.95,47.66 L 96.09,46.02 L 96.96,45.04 L 98.66,43.25 L 99.52,42.55 L 99.92,42.41 L 100.70,42.26 M 138.80,5.34 L 140.18,5.87 L 142.80,7.08 L 144.08,7.70 L 146.50,9.10 L 147.68,9.83 L 149.88,11.41 L 150.96,12.22 L 152.95,13.97 L 153.92,14.86 L 154.51,15.50 L 153.69,14.74 L 151.53,12.85 L 150.36,11.96 L 147.97,10.22 L 146.71,9.43 L 144.14,7.89 L 142.81,7.21 L 140.10,5.90 L 138.71,5.35 L 135.92,4.31 L 134.50,3.90 L 135.98,4.33 M 122.80,158.03 L 122.75,159.24 L 122.80,158.03 M 221.49,123.23 L 221.41,123.27 L 220.82,123.39 L 221.36,123.28 Z" fill="rgba(45,21,102,1)"/>
<path d="M 119.65,0.03 L 122.69,0.27 L 123.39,0.34 L 124.55,0.55 L 125.76,0.94 L 126.00,1.07 L 126.99,1.46 L 127.55,1.68 L 129.05,2.20 L 134.50,3.90 L 135.92,4.31 L 138.71,5.35 L 140.10,5.90 L 142.81,7.21 L 144.14,7.89 L 146.71,9.43 L 147.97,10.22 L 150.36,11.96 L 151.53,12.85 L 153.69,14.74 L 154.74,15.71 L 156.63,17.74 L 157.54,18.77 L 159.11,20.89 L 161.08,24.15 L 161.42,24.82 L 161.92,26.00 L 162.14,26.57 L 162.41,27.54 L 162.52,28.00 L 162.58,28.72 L 162.58,29.06 L 162.44,29.51 L 162.35,29.71 L 162.03,29.87 L 161.84,29.91 L 161.34,29.75 L 161.08,29.62 L 160.42,29.10 L 159.27,27.91 L 158.88,27.45 L 158.19,26.76 L 157.86,26.45 L 157.27,26.04 L 157.00,25.86 L 156.53,25.73 L 156.31,25.69 L 155.98,25.82 L 155.83,25.92 L 155.63,26.31 L 155.56,26.54 L 155.51,27.19 L 155.51,27.54 L 155.63,28.43 L 156.01,30.03 L 156.42,31.48 L 156.84,35.03 L 156.98,36.91 L 156.85,41.32 L 156.72,43.62 L 156.05,48.86 L 154.42,57.62 L 153.96,59.76 L 153.21,63.24 L 152.85,64.87 L 152.29,67.46 L 152.02,68.65 L 151.61,70.49 L 151.42,71.32 L 151.13,72.55 L 151.00,73.10 L 150.79,73.86 L 150.70,74.20 L 150.54,74.64 L 150.08,75.50 L 150.04,75.57 L 149.95,75.96 L 149.91,76.19 L 149.83,76.88 L 149.76,77.63 L 149.64,79.89 L 149.58,81.12 L 149.51,84.09 L 149.47,89.04 L 149.47,90.34 L 149.49,92.59 L 149.51,93.67 L 149.56,95.50 L 149.58,96.38 L 149.67,97.86 L 149.71,98.56 L 149.84,99.74 L 149.97,100.86 L 150.40,102.46 L 151.33,104.37 L 151.86,105.18 L 153.48,106.64 L 154.36,107.34 L 156.44,108.47 L 157.51,108.97 L 159.72,109.60 L 162.80,109.81 L 163.42,109.73 L 164.17,109.58 L 164.45,109.48 L 164.45,109.16 L 164.35,108.96 L 163.50,108.30 L 163.24,108.10 L 162.53,107.62 L 161.19,106.74 L 160.04,105.98 L 158.23,104.45 L 157.85,104.09 L 157.33,103.49 L 157.00,102.83 L 157.00,102.47 L 157.46,102.37 L 158.75,103.17 L 159.23,103.57 L 160.84,104.26 L 163.40,104.82 L 164.20,104.87 L 165.83,105.27 L 167.60,106.08 L 167.96,106.38 L 169.09,106.67 L 170.84,106.55 L 171.11,106.47 L 171.90,106.40 L 172.33,106.38 L 173.38,106.43 L 174.49,106.51 L 177.22,106.97 L 178.62,107.25 L 181.52,108.03 L 185.45,109.43 L 186.29,109.80 L 188.60,110.75 L 191.88,112.06 L 192.35,112.24 L 193.57,112.85 L 194.21,113.20 L 195.65,114.06 L 199.95,117.06 L 201.02,117.90 L 202.95,119.32 L 203.89,120.00 L 205.64,121.11 L 206.49,121.62 L 208.12,122.44 L 208.92,122.81 L 210.49,123.35 L 212.05,123.83 L 215.29,124.03 L 216.13,124.03 L 217.91,123.86 L 220.82,123.39 L 221.41,123.27 L 222.46,122.75 L 222.96,122.46 L 223.79,121.67 L 224.18,121.26 L 224.77,120.31 L 225.02,119.83 L 225.34,118.83 L 225.46,118.34 L 225.47,117.40 L 225.44,116.95 L 225.13,116.18 L 224.93,115.82 L 224.27,115.32 L 222.86,115.00 L 222.31,115.00 L 221.62,114.74 L 221.44,114.10 L 221.59,113.86 L 221.39,113.30 L 220.49,112.64 L 220.08,112.48 L 219.44,111.77 L 219.00,110.51 L 219.00,110.16 L 219.09,109.73 L 219.16,109.55 L 219.46,109.45 L 219.66,109.44 L 220.30,109.67 L 221.77,110.38 L 222.83,110.93 L 224.66,112.18 L 225.52,112.83 L 226.95,114.25 L 227.62,114.98 L 228.65,116.54 L 229.11,117.33 L 229.72,118.97 L 229.97,119.80 L 230.14,121.49 L 230.18,122.34 L 229.91,124.04 L 229.72,124.88 L 228.99,126.55 L 227.38,128.96 L 226.52,129.99 L 224.69,131.65 L 223.76,132.42 L 221.80,133.57 L 220.79,134.07 L 218.67,134.70 L 217.59,134.94 L 215.29,135.04 L 214.12,135.03 L 211.63,134.61 L 210.36,134.33 L 207.66,133.39 L 206.29,132.86 L 203.37,131.39 L 198.71,128.60 L 197.48,127.80 L 195.19,126.40 L 194.06,125.74 L 191.93,124.63 L 189.82,123.58 L 185.76,122.25 L 183.71,121.70 L 179.32,121.24 L 178.18,121.17 L 175.73,121.17 L 171.75,121.36 L 170.31,121.46 L 167.88,121.69 L 166.74,121.81 L 164.89,122.09 L 164.03,122.25 L 162.70,122.62 L 162.09,122.82 L 161.24,123.32 L 160.87,123.59 L 160.46,124.24 L 160.31,124.59 L 160.29,125.42 L 160.33,125.86 L 160.66,126.91 L 161.51,128.76 L 161.65,129.02 L 162.10,129.70 L 162.35,130.07 L 163.00,130.94 L 163.71,131.86 L 165.61,134.13 L 166.62,135.31 L 168.96,137.89 L 172.69,141.79 L 174.08,143.18 L 176.52,145.80 L 177.69,147.08 L 179.73,149.51 L 180.70,150.71 L 182.37,153.02 L 183.16,154.17 L 184.49,156.42 L 185.12,157.55 L 186.15,159.81 L 186.63,160.94 L 187.39,163.27 L 187.75,164.44 L 188.28,166.89 L 188.85,170.78 L 188.96,171.86 L 189.28,173.80 L 189.46,174.73 L 189.90,176.38 L 190.13,177.17 L 190.69,178.53 L 190.98,179.18 L 191.66,180.25 L 192.01,180.75 L 192.81,181.53 L 193.22,181.89 L 194.13,182.38 L 194.60,182.58 L 195.62,182.78 L 197.29,182.74 L 198.06,182.63 L 199.41,182.69 L 200.58,183.13 L 200.68,183.30 L 201.04,183.46 L 201.24,183.51 L 201.75,183.47 L 202.29,183.38 L 203.60,182.71 L 204.27,182.32 L 205.52,181.23 L 206.87,179.39 L 207.07,178.96 L 207.53,178.28 L 207.78,177.98 L 208.38,177.54 L 208.70,177.35 L 209.49,177.13 L 210.91,177.00 L 211.42,177.00 L 212.26,177.14 L 212.66,177.23 L 213.30,177.54 L 213.89,177.89 L 214.50,178.99 L 214.71,179.59 L 214.63,181.07 L 214.51,181.84 L 213.83,183.51 L 213.43,184.36 L 212.24,186.05 L 211.58,186.88 L 209.97,188.41 L 209.11,189.14 L 207.15,190.32 L 203.93,191.51 L 202.91,191.74 L 200.43,191.83 L 199.13,191.82 L 196.29,191.47 L 194.85,191.24 L 191.91,190.50 L 187.69,188.98 L 187.08,188.71 L 185.68,187.91 L 184.97,187.47 L 183.44,186.42 L 181.90,185.31 L 178.90,182.77 L 178.20,182.14 L 176.96,180.92 L 176.37,180.33 L 175.45,179.26 L 175.04,178.76 L 174.55,177.94 L 174.43,177.11 L 174.59,176.85 L 174.55,176.35 L 174.02,175.84 L 173.89,175.79 L 173.62,175.41 L 173.49,175.18 L 173.25,174.50 L 172.77,171.75 L 172.69,170.72 L 172.38,169.10 L 172.30,168.76 L 172.11,168.30 L 171.83,168.00 L 171.74,168.00 L 171.53,167.75 L 171.42,167.60 L 171.19,167.10 L 170.96,166.55 L 170.53,165.06 L 170.33,164.31 L 170.10,162.92 L 170.06,162.61 L 170.06,162.13 L 170.17,161.70 L 170.26,161.60 L 169.89,160.94 L 168.74,159.60 L 168.26,159.11 L 167.67,158.09 L 167.55,156.92 L 167.71,156.67 L 167.62,156.27 L 167.00,156.00 L 166.69,156.00 L 166.37,155.74 L 166.44,155.10 L 166.59,154.86 L 166.35,154.29 L 165.35,153.58 L 164.90,153.41 L 164.37,152.96 L 164.31,152.36 L 164.47,152.19 L 164.38,151.54 L 163.70,150.42 L 163.07,149.71 L 162.11,148.58 L 161.67,148.05 L 161.02,147.16 L 159.73,144.75 L 159.55,144.27 L 158.96,143.51 L 158.03,143.00 L 157.75,143.00 L 157.30,142.62 L 157.00,141.69 L 157.00,141.51 L 156.49,140.72 L 156.16,140.26 L 155.10,139.04 L 154.52,138.39 L 153.05,136.89 L 150.54,134.50 L 148.77,132.88 L 145.50,130.32 L 144.71,129.74 L 143.24,128.75 L 142.51,128.29 L 141.18,127.56 L 140.54,127.23 L 139.38,126.75 L 138.82,126.55 L 137.85,126.35 L 137.39,126.29 L 136.64,126.37 L 135.77,126.83 L 135.67,126.93 L 135.48,127.54 L 135.40,127.91 L 135.24,128.99 L 135.17,129.59 L 135.04,131.09 L 134.98,131.89 L 134.87,133.74 L 134.78,135.67 L 134.67,140.31 L 134.62,142.72 L 134.62,147.93 L 134.63,150.55 L 134.72,155.82 L 134.78,158.42 L 134.98,163.23 L 135.03,164.38 L 135.16,166.51 L 135.23,167.54 L 135.38,169.38 L 135.46,170.26 L 135.64,171.74 L 135.93,173.50 L 136.34,175.36 L 137.46,179.09 L 138.06,180.92 L 139.44,184.30 L 140.15,185.91 L 141.62,188.57 L 141.99,189.17 L 142.71,190.16 L 143.75,191.31 L 144.10,191.62 L 145.05,192.14 L 145.57,192.38 L 146.90,192.77 L 147.61,192.95 L 149.34,193.21 L 152.45,193.48 L 153.36,193.53 L 154.95,193.67 L 155.71,193.75 L 157.01,193.95 L 157.63,194.06 L 158.67,194.34 L 159.16,194.49 L 159.96,194.85 L 160.69,195.24 L 161.53,196.31 L 162.00,198.47 L 162.00,198.97 L 161.67,199.99 L 161.46,200.50 L 160.75,201.50 L 160.35,202.00 L 159.32,202.94 L 158.77,203.40 L 157.49,204.25 L 156.15,205.06 L 155.11,205.45 L 155.49,205.27 L 157.04,204.41 L 157.66,203.90 L 158.78,202.83 L 159.14,202.22 L 159.73,200.95 L 159.78,200.25 L 159.44,197.63 L 158.69,196.12 L 158.09,195.58 L 156.03,194.41 L 154.56,194.12 L 153.87,194.21 L 152.57,194.55 L 152.09,194.93 L 151.27,195.84 L 151.15,196.50 L 150.51,198.57 L 149.86,199.60 L 149.41,199.96 L 148.41,200.58 L 147.77,200.75 L 146.38,201.00 L 145.51,201.00 L 143.46,200.72 L 142.05,200.27 L 141.34,199.92 L 139.91,199.14 L 139.20,198.63 L 137.79,197.55 L 137.10,196.91 L 134.39,194.07 L 133.18,192.32 L 130.87,188.61 L 129.95,186.50 L 127.84,181.79 L 127.09,180.18 L 126.74,179.45 L 126.08,178.05 L 125.81,177.50 L 123.85,173.50 L 124.29,180.02 L 124.85,184.01 L 125.50,186.67 L 125.96,187.98 L 126.94,190.57 L 127.54,191.81 L 128.80,194.27 L 129.53,195.42 L 130.81,197.32 L 130.72,197.22 L 129.82,196.03 L 128.27,193.43 L 127.53,192.10 L 126.27,189.18 L 125.68,187.68 L 124.72,184.41 L 124.28,182.73 L 123.61,179.07 L 123.31,177.20 L 122.92,173.13 L 122.75,171.04 L 122.63,166.53 L 122.75,159.24 L 122.80,158.03 L 122.87,155.88 L 122.90,154.85 L 122.93,153.03 L 122.95,152.16 L 122.94,150.65 L 122.93,149.92 L 122.89,148.69 L 122.83,147.53 L 122.60,145.96 L 122.06,144.57 L 121.72,144.16 L 121.37,143.23 L 121.44,142.10 L 121.57,141.88 L 121.67,141.16 L 121.69,140.76 L 121.59,139.74 L 121.45,138.66 L 120.71,136.00 L 120.28,134.65 L 119.15,132.01 L 118.85,131.39 L 118.23,130.28 L 117.27,128.91 L 116.87,128.43 L 116.30,127.65 L 116.05,127.29 L 115.79,126.73 L 115.69,126.48 L 115.74,126.17 L 116.16,125.97 L 116.36,125.96 L 116.53,125.81 L 116.58,125.71 L 116.47,125.39 L 116.38,125.22 L 116.00,124.77 L 115.14,123.97 L 114.37,123.33 L 112.28,122.53 L 111.17,122.21 L 108.66,122.04 L 107.39,122.03 L 104.85,122.50 L 101.39,123.91 L 100.35,124.54 L 98.49,126.55 L 97.60,127.69 L 96.01,130.71 L 95.64,131.54 L 94.93,133.37 L 94.58,134.32 L 93.94,136.42 L 93.63,137.50 L 93.06,139.85 L 92.27,143.68 L 92.08,144.71 L 91.77,146.49 L 91.63,147.35 L 91.42,148.89 L 91.24,150.41 L 91.16,153.36 L 91.17,154.14 L 91.26,155.87 L 91.31,156.78 L 91.50,158.86 L 91.61,159.96 L 91.90,162.55 L 92.45,167.16 L 92.68,168.96 L 93.03,172.26 L 93.19,173.86 L 93.42,176.75 L 93.51,178.16 L 93.62,180.69 L 93.65,181.91 L 93.63,184.10 L 93.60,185.15 L 93.45,187.04 L 93.36,187.95 L 93.09,189.56 L 91.78,193.50 L 91.10,194.83 L 88.99,197.38 L 87.85,198.62 L 85.16,200.74 L 83.78,201.72 L 80.94,203.11 L 80.24,203.39 L 78.89,203.77 L 77.00,204.00 L 76.52,204.00 L 75.41,204.42 L 74.05,205.44 L 73.80,205.74 L 73.60,206.21 L 73.56,206.44 L 73.84,206.82 L 74.05,207.00 L 74.89,207.36 L 76.88,207.97 L 77.99,208.27 L 79.91,209.02 L 80.33,209.21 L 80.97,209.56 L 81.52,210.03 L 81.61,210.17 L 81.54,210.41 L 81.47,210.52 L 81.12,210.69 L 80.72,210.84 L 79.34,210.91 L 78.59,210.92 L 76.89,210.70 L 76.04,210.56 L 74.50,210.05 L 73.95,209.82 L 72.49,208.77 L 70.46,206.85 L 69.91,206.20 L 69.25,204.68 L 69.00,203.89 L 68.95,202.14 L 69.00,201.23 L 69.56,199.30 L 71.07,196.25 L 71.46,195.62 L 73.01,194.54 L 73.85,194.05 L 75.78,193.39 L 76.73,193.13 L 78.38,193.07 L 78.74,193.10 L 79.29,193.30 L 79.78,193.85 L 79.89,194.17 L 80.32,194.66 L 81.08,195.00 L 81.46,195.00 L 82.43,194.43 L 82.93,194.08 L 83.89,193.07 L 84.34,192.55 L 84.97,191.48 L 85.23,190.19 L 85.12,189.86 L 85.20,189.35 L 85.67,189.00 L 85.79,189.00 L 86.02,188.55 L 86.14,188.25 L 86.35,187.31 L 86.45,186.79 L 86.62,185.48 L 86.80,183.25 L 86.88,181.67 L 87.15,178.70 L 87.22,178.03 L 87.37,176.93 L 87.58,175.83 L 87.72,175.38 L 87.63,174.47 L 87.04,173.53 L 86.97,173.48 L 86.83,173.13 L 86.76,172.91 L 86.64,172.26 L 86.52,171.54 L 86.33,169.38 L 86.24,168.22 L 86.11,165.44 L 86.06,164.01 L 86.00,160.99 L 85.99,159.48 L 86.01,156.57 L 86.03,155.16 L 86.13,152.73 L 86.19,151.61 L 86.37,150.02 L 86.43,149.70 L 86.54,149.27 L 86.75,149.00 L 86.85,149.00 L 87.00,148.33 L 87.07,147.90 L 87.18,146.54 L 87.22,145.80 L 87.27,143.97 L 87.29,143.02 L 87.29,140.95 L 87.28,138.85 L 87.11,134.87 L 87.06,133.96 L 86.91,132.48 L 86.65,130.97 L 86.52,130.57 L 86.16,129.41 L 85.62,127.73 L 85.36,126.94 L 84.56,125.99 L 84.10,125.62 L 82.79,125.51 L 82.43,125.54 L 81.58,125.75 L 81.13,125.88 L 80.11,126.30 L 79.57,126.54 L 78.35,127.18 L 76.30,128.38 L 75.42,128.92 L 73.25,130.02 L 72.11,130.57 L 69.54,131.63 L 61.19,134.36 L 59.52,134.79 L 56.63,135.68 L 55.26,136.14 L 52.93,137.14 L 51.83,137.66 L 49.98,138.84 L 49.11,139.46 L 47.68,140.91 L 47.01,141.68 L 45.93,143.47 L 45.42,144.41 L 44.62,146.63 L 44.24,147.80 L 43.64,150.51 L 42.91,155.23 L 42.66,157.18 L 41.89,160.62 L 41.46,162.27 L 40.26,165.20 L 39.61,166.62 L 37.94,169.16 L 34.84,172.68 L 33.74,173.72 L 31.16,175.42 L 29.81,176.21 L 26.85,177.39 L 25.34,177.91 L 22.19,178.57 L 20.61,178.84 L 17.45,178.98 L 15.89,178.99 L 12.90,178.61 L 11.45,178.36 L 8.81,177.46 L 7.56,176.95 L 5.45,175.53 L 3.10,172.82 L 2.66,172.05 L 1.75,170.84 L 1.54,170.58 L 1.17,170.23 L 0.75,170.01 L 0.60,170.01 L 0.36,169.79 L 0.26,169.65 L 0.12,169.20 L 0.00,168.71 L 0.03,167.31 L 0.09,166.59 L 0.43,165.12 L 1.25,163.39 L 1.74,162.79 L 2.59,161.78 L 3.00,161.30 L 3.73,160.52 L 4.43,159.79 L 5.65,158.90 L 6.26,158.52 L 7.57,158.17 L 10.04,158.00 L 10.91,158.00 L 12.27,158.15 L 12.92,158.26 L 14.06,158.76 L 14.63,159.06 L 15.84,160.05 L 18.03,162.25 L 18.57,162.83 L 19.56,163.80 L 20.03,164.25 L 20.82,164.88 L 21.18,165.16 L 21.67,165.40 L 21.99,165.25 L 21.99,164.91 L 22.27,164.37 L 22.92,164.00 L 23.05,164.00 L 23.59,163.69 L 23.90,163.49 L 24.74,162.84 L 27.82,160.06 L 28.82,159.07 L 30.74,156.33 L 31.65,154.90 L 33.15,151.83 L 33.48,151.08 L 34.01,149.64 L 34.25,148.94 L 34.56,147.67 L 34.69,147.07 L 34.74,146.07 L 34.49,144.98 L 34.31,144.69 L 34.30,143.87 L 34.78,142.71 L 34.88,142.58 L 35.13,142.04 L 35.25,141.74 L 35.53,140.92 L 35.81,140.05 L 36.36,137.90 L 36.62,136.84 L 36.98,134.93 L 37.04,134.50 L 37.11,133.84 L 37.07,133.23 L 37.06,133.19 L 37.19,132.95 L 37.28,132.81 L 37.59,132.40 L 38.98,130.79 L 39.53,130.20 L 40.41,128.87 L 41.00,127.31 L 41.00,126.95 L 41.22,126.38 L 41.75,125.98 L 41.85,125.98 L 42.44,125.62 L 42.78,125.39 L 43.75,124.66 L 44.27,124.25 L 45.50,123.23 L 47.49,121.48 L 48.71,120.39 L 51.69,118.36 L 53.21,117.40 L 56.30,115.87 L 57.05,115.53 L 58.47,114.99 L 59.16,114.75 L 60.39,114.43 L 60.97,114.30 L 61.93,114.25 L 62.98,114.49 L 63.26,114.66 L 63.70,114.65 L 64.00,114.17 L 64.00,114.04 L 64.27,113.75 L 64.45,113.60 L 65.02,113.31 L 67.46,112.57 L 67.90,112.49 L 69.00,112.05 L 69.57,111.79 L 70.83,111.08 L 72.12,110.31 L 74.70,108.34 L 75.31,107.84 L 76.38,106.86 L 76.89,106.38 L 77.67,105.50 L 78.01,105.08 L 78.38,104.39 L 78.35,103.68 L 78.16,103.49 L 78.23,103.20 L 78.89,103.00 L 79.23,103.00 L 79.58,102.71 L 79.50,102.00 L 79.33,101.72 L 79.41,101.29 L 80.05,101.00 L 80.37,101.00 L 80.71,100.57 L 80.65,99.53 L 80.50,99.13 L 80.49,98.35 L 80.88,97.57 L 81.03,97.48 L 81.23,96.85 L 81.32,96.48 L 81.39,95.37 L 81.41,94.77 L 81.37,93.31 L 81.33,92.55 L 81.19,90.85 L 81.01,89.11 L 80.40,85.41 L 79.19,80.50 L 78.73,79.12 L 77.97,76.67 L 77.81,76.13 L 77.57,75.28 L 77.38,74.50 L 76.99,72.75 L 76.61,71.25 L 76.57,71.04 L 76.29,70.38 L 75.73,69.34 L 75.53,69.02 L 75.39,68.05 L 75.60,66.59 L 75.78,66.13 L 75.70,65.45 L 75.00,65.00 L 74.78,65.00 L 74.49,64.80 L 74.36,64.66 L 74.22,64.18 L 74.18,63.90 L 74.20,63.11 L 74.42,61.58 L 74.61,60.59 L 74.59,58.94 L 74.55,58.58 L 74.40,58.03 L 74.03,57.52 L 73.86,57.41 L 73.58,56.92 L 73.45,56.63 L 73.26,55.86 L 73.10,55.04 L 73.03,52.98 L 73.04,51.95 L 73.31,50.10 L 73.40,49.68 L 73.65,49.04 L 74.11,48.43 L 74.27,48.33 L 74.52,47.91 L 74.63,47.66 L 74.76,47.00 L 74.68,44.39 L 74.53,43.47 L 74.58,41.84 L 74.62,41.48 L 74.78,40.93 L 75.12,40.43 L 75.39,40.26 L 75.70,39.66 L 75.71,38.66 L 75.66,38.50 L 75.66,37.96 L 75.68,37.67 L 75.82,36.92 L 76.62,34.38 L 76.98,33.52 L 77.37,32.00 L 77.43,31.67 L 77.46,31.15 L 77.34,30.67 L 77.18,30.52 L 77.41,29.79 L 78.38,28.48 L 78.83,28.03 L 79.52,26.79 L 80.00,25.01 L 80.00,24.50 L 80.22,23.61 L 80.75,22.83 L 80.87,22.78 L 81.24,22.45 L 81.43,22.26 L 81.91,21.70 L 82.41,21.10 L 83.57,19.47 L 84.15,18.63 L 85.20,16.92 L 86.26,14.82 L 86.35,14.59 L 86.96,13.87 L 87.33,13.48 L 88.41,12.54 L 88.99,12.05 L 90.39,11.00 L 92.69,9.43 L 93.49,8.93 L 94.99,7.94 L 95.71,7.46 L 96.94,6.62 L 97.51,6.22 L 98.35,5.60 L 99.00,5.04 L 99.07,4.94 L 99.69,4.66 L 100.06,4.51 L 101.19,4.16 L 101.80,3.98 L 103.28,3.59 L 105.75,3.03 L 106.61,2.85 L 108.18,2.46 L 108.92,2.26 L 110.16,1.86 L 110.73,1.66 L 111.51,1.30 L 112.00,0.86 L 112.00,0.72 L 112.50,0.48 L 112.82,0.38 L 113.84,0.22 L 114.40,0.15 L 115.78,0.06 L 116.50,0.03 L 118.06,0.02 M 146.61,206.93 L 148.40,206.94 L 148.02,207.00 L 146.65,207.00 L 146.05,206.91 M 152.99,206.23 L 152.76,206.27 L 152.81,206.26 L 153.71,205.97 M 51.97,120.14 L 51.12,120.53 L 50.57,120.88 L 49.39,121.67 L 48.69,122.23 L 47.22,123.44 L 46.39,124.21 L 42.64,128.17 L 40.70,130.87 L 39.94,132.38 L 38.56,135.52 L 38.01,137.39 L 37.49,139.31 L 37.25,140.37 L 36.79,142.55 L 36.58,143.76 L 35.26,149.77 L 34.22,153.35 L 33.63,154.91 L 32.39,157.88 L 31.70,159.13 L 30.27,161.47 L 29.49,162.41 L 27.90,164.11 L 27.04,164.72 L 25.29,165.76 L 24.36,166.03 L 22.48,166.39 L 21.49,166.31 L 19.48,165.97 L 18.43,165.53 L 15.47,163.62 L 14.56,162.78 L 14.17,162.34 L 13.46,161.47 L 13.23,161.05 L 11.80,159.10 L 10.80,158.32 L 10.26,158.18 L 9.16,158.06 L 8.56,158.25 L 7.30,158.79 L 6.60,159.31 L 5.74,160.09 L 5.57,160.56 L 5.73,160.83 L 6.21,161.41 L 6.73,161.81 L 7.97,162.70 L 8.91,163.32 L 11.80,165.52 L 12.47,166.16 L 12.68,166.42 L 13.00,166.88 L 13.00,167.01 L 13.17,167.56 L 13.43,168.05 L 13.62,168.33 L 14.53,169.53 L 15.12,170.12 L 16.33,171.08 L 17.07,171.37 L 18.65,171.83 L 19.54,171.88 L 21.37,171.89 L 22.34,171.73 L 24.30,171.32 L 25.28,170.97 L 27.25,170.19 L 28.20,169.67 L 30.05,168.55 L 30.90,167.89 L 32.51,166.49 L 33.20,165.69 L 34.46,164.05 L 34.92,163.15 L 35.70,161.35 L 36.32,159.75 L 36.65,158.80 L 38.03,154.70 L 38.70,152.47 L 40.01,148.00 L 40.50,146.07 L 40.96,144.22 L 41.12,143.45 L 41.40,142.03 L 41.46,141.54 L 41.80,140.11 L 42.21,138.92 L 42.50,138.22 L 43.84,135.25 L 44.70,133.63 L 46.51,130.38 L 47.45,128.91 L 48.39,127.49 L 48.84,126.86 L 49.72,125.68 L 50.13,125.22 L 51.85,123.08 L 52.63,121.93 L 52.84,121.49 L 53.16,120.71 L 53.16,120.46 L 53.06,120.06 L 52.86,120.01 L 52.36,120.00 M 105.17,128.21 L 105.20,128.35 L 105.02,128.82 L 104.90,129.08 L 104.41,129.77 L 103.34,131.00 L 102.63,131.74 L 101.37,132.86 L 100.78,133.35 L 99.89,133.88 L 99.52,134.06 L 99.21,133.91 L 99.18,133.82 L 99.26,133.50 L 99.33,133.32 L 99.63,132.79 L 100.05,132.10 L 100.98,130.88 L 101.44,130.30 L 102.38,129.36 L 102.84,128.93 L 103.70,128.36 L 104.81,128.00 L 105.01,128.00 M 108.29,105.37 L 107.19,105.38 L 105.53,105.42 L 104.78,105.44 L 103.77,105.52 L 103.34,105.56 L 102.90,105.68 L 102.74,105.75 L 102.80,105.92 L 102.89,106.01 L 103.37,106.23 L 104.50,106.64 L 105.05,106.83 L 106.84,107.12 L 107.84,107.25 L 110.32,107.43 L 111.62,107.51 L 114.53,107.59 L 116.01,107.62 L 119.06,107.61 L 120.58,107.59 L 123.52,107.48 L 124.95,107.42 L 127.50,107.22 L 128.70,107.11 L 130.60,106.83 L 131.45,106.67 L 132.42,106.30 L 132.54,106.24 L 132.45,106.11 L 132.35,106.05 L 131.86,105.94 L 131.56,105.89 L 130.68,105.79 L 130.19,105.74 L 128.94,105.65 L 128.28,105.61 L 126.70,105.54 L 125.87,105.51 L 123.98,105.46 L 122.99,105.43 L 120.81,105.40 L 117.24,105.37 L 115.33,105.36 L 112.15,105.35 L 110.67,105.35 M 106.66,87.25 L 104.96,87.64 L 104.15,88.10 L 102.14,89.53 L 101.40,90.43 L 101.34,90.84 L 101.42,91.64 L 101.77,92.00 L 102.66,92.68 L 103.42,92.97 L 105.04,93.80 L 105.72,94.40 L 105.86,94.71 L 106.00,95.34 L 105.86,95.64 L 105.43,96.23 L 105.00,96.50 L 104.53,97.59 L 104.77,98.62 L 105.11,99.18 L 105.92,100.32 L 106.47,100.82 L 107.65,101.75 L 108.32,102.03 L 109.74,102.44 L 110.59,102.50 L 112.31,102.51 L 113.00,102.35 L 116.15,101.87 L 118.56,101.71 L 119.81,101.72 L 122.31,101.79 L 123.47,101.90 L 125.69,102.19 L 126.59,102.41 L 128.26,102.70 L 129.20,102.68 L 129.64,102.55 L 130.52,102.20 L 131.00,101.89 L 131.99,101.17 L 132.59,100.66 L 134.05,99.28 L 134.64,98.55 L 134.76,98.23 L 134.90,97.61 L 134.82,97.28 L 134.57,96.60 L 134.32,96.19 L 133.80,95.15 L 133.70,94.62 L 133.79,94.40 L 134.06,93.99 L 134.36,93.79 L 135.05,93.39 L 135.57,93.15 L 137.38,91.93 L 137.93,91.04 L 137.88,90.58 L 137.58,89.67 L 137.11,89.24 L 135.95,88.39 L 135.06,88.02 L 132.09,87.42 L 129.96,87.55 L 128.89,87.86 L 126.76,88.64 L 125.76,89.26 L 123.81,90.64 L 122.97,91.53 L 121.12,93.28 L 120.12,93.84 L 119.61,93.81 L 118.55,93.53 L 117.88,93.06 L 117.17,92.55 L 116.75,92.20 L 115.88,91.47 L 115.36,91.01 L 112.25,88.70 L 110.28,87.69 L 109.35,87.45 L 107.53,87.14 M 159.13,68.26 L 159.40,68.75 L 159.58,70.13 L 159.62,70.85 L 159.41,72.36 L 159.27,73.08 L 158.76,74.22 L 157.78,75.00 L 157.63,75.00 L 157.42,75.25 L 157.32,75.41 L 157.23,75.96 L 157.20,76.27 L 157.24,77.07 L 157.44,78.52 L 157.62,79.48 L 157.70,81.34 L 157.69,81.76 L 157.61,82.45 L 157.39,83.17 L 157.30,83.33 L 157.14,84.15 L 157.06,84.63 L 156.96,85.96 L 156.92,86.67 L 156.88,88.35 L 156.91,91.06 L 156.94,91.98 L 156.92,93.72 L 156.91,94.55 L 156.80,95.98 L 156.74,96.64 L 156.57,97.60 L 156.24,98.35 L 156.12,98.42 L 155.93,98.31 L 155.85,98.21 L 155.74,97.79 L 155.65,97.31 L 155.75,95.70 L 155.83,95.07 L 155.89,94.21 L 155.91,93.84 L 155.84,93.46 L 155.78,93.33 L 155.56,93.41 L 155.04,94.00 L 154.83,94.28 L 154.53,94.36 L 154.39,94.32 L 154.22,93.66 L 154.15,93.24 L 154.10,91.75 L 154.14,88.50 L 154.20,86.58 L 154.51,82.67 L 154.60,81.77 L 154.79,80.22 L 155.10,78.50 L 155.46,77.09 L 156.05,74.75 L 156.33,73.66 L 156.80,71.91 L 157.02,71.10 L 157.38,69.86 L 157.55,69.30 L 157.83,68.52 L 157.96,68.18 L 158.19,67.79 L 158.30,67.64 L 158.50,67.57 M 106.20,75.46 L 106.07,75.60 L 106.02,76.02 L 106.04,76.24 L 106.27,76.80 L 106.56,77.39 L 107.78,78.83 L 108.47,79.56 L 110.25,81.02 L 113.18,82.86 L 114.42,83.47 L 116.27,84.27 L 117.12,84.60 L 118.47,84.87 L 119.11,84.94 L 120.30,84.72 L 120.92,84.55 L 122.32,83.88 L 123.02,83.51 L 124.55,82.46 L 125.32,81.90 L 126.82,80.61 L 127.55,79.95 L 128.78,78.62 L 130.10,76.80 L 130.30,76.43 L 130.43,75.98 L 130.43,75.80 L 130.06,75.75 L 129.80,75.77 L 128.78,76.14 L 126.36,77.17 L 125.04,77.75 L 122.33,78.44 L 120.96,78.71 L 118.20,78.78 L 116.81,78.73 L 114.05,78.17 L 109.97,76.63 L 109.06,76.18 L 107.50,75.61 L 107.16,75.51 L 106.65,75.41 M 143.23,67.18 L 141.69,67.71 L 141.20,68.20 L 140.18,70.09 L 139.95,71.63 L 140.05,72.42 L 140.38,74.01 L 140.75,74.71 L 141.61,76.01 L 142.22,76.44 L 143.58,77.31 L 144.19,77.56 L 145.36,77.92 L 145.91,77.92 L 146.99,77.77 L 147.52,77.51 L 148.60,76.86 L 149.17,76.35 L 150.38,74.81 L 150.85,73.66 L 150.92,73.03 L 150.94,71.73 L 150.78,71.05 L 150.35,69.66 L 149.96,68.93 L 148.37,67.61 L 146.77,67.08 L 145.87,67.00 L 144.05,66.98 M 94.46,66.93 L 92.54,67.16 L 91.68,67.55 L 90.07,68.49 L 89.56,69.22 L 88.45,70.93 L 88.11,71.78 L 88.14,72.17 L 88.35,72.97 L 88.67,73.47 L 89.45,74.58 L 90.07,75.37 L 91.33,76.75 L 91.97,77.17 L 93.28,77.83 L 93.94,77.88 L 95.28,77.81 L 95.96,77.49 L 97.32,76.68 L 98.00,76.00 L 99.31,74.36 L 99.82,73.27 L 99.90,72.71 L 99.93,71.56 L 99.78,70.94 L 99.35,69.65 L 98.96,68.93 L 98.21,68.02 L 97.54,67.55 L 97.15,67.38 L 95.42,66.90 M 117.50,3.60 L 113.93,3.64 L 111.96,3.69 L 111.14,3.73 L 109.59,3.82 L 108.94,3.89 L 107.69,4.05 L 107.14,4.17 L 105.07,4.75 L 104.01,5.26 L 102.92,5.80 L 102.30,6.14 L 101.01,6.86 L 100.25,7.30 L 97.82,8.66 L 96.40,9.43 L 95.84,9.72 L 94.81,10.24 L 94.49,10.37 L 94.00,10.56 L 94.00,10.51 L 93.62,10.77 L 93.02,11.32 L 92.58,11.76 L 91.63,12.72 L 91.05,13.33 L 89.84,14.60 L 89.18,15.31 L 85.75,19.24 L 83.79,21.79 L 82.96,23.06 L 81.40,25.60 L 80.76,26.92 L 79.56,29.57 L 79.08,30.98 L 78.20,33.85 L 77.87,35.41 L 77.28,38.61 L 77.08,40.36 L 76.74,43.99 L 76.65,46.01 L 76.52,50.18 L 76.52,52.50 L 76.55,56.31 L 76.59,58.51 L 76.62,59.46 L 76.70,61.28 L 76.75,62.08 L 76.88,63.61 L 76.96,64.30 L 77.36,66.86 L 77.68,68.05 L 78.39,70.41 L 78.90,71.75 L 79.75,73.96 L 80.12,74.80 L 80.84,76.33 L 81.15,76.82 L 81.74,77.64 L 81.99,77.78 L 82.47,77.88 L 82.67,77.66 L 83.06,77.02 L 83.23,76.42 L 83.54,75.02 L 83.67,74.04 L 83.92,71.87 L 84.02,70.49 L 84.23,67.53 L 84.32,65.75 L 84.60,61.07 L 84.81,58.29 L 84.94,57.06 L 85.20,54.73 L 85.34,53.71 L 85.65,51.79 L 85.82,50.98 L 86.17,49.46 L 86.37,48.84 L 86.78,47.69 L 87.01,47.25 L 87.48,46.46 L 87.74,46.18 L 88.28,45.72 L 88.57,45.61 L 89.55,45.48 L 89.63,45.85 L 89.39,46.26 L 89.32,46.55 L 89.49,46.53 L 89.67,46.43 L 90.08,46.15 L 90.36,45.92 L 90.97,45.41 L 91.33,45.08 L 92.53,44.08 L 93.20,43.60 L 93.47,43.46 L 93.96,43.23 L 94.13,43.20 L 94.42,43.21 L 94.49,43.29 L 94.57,43.50 L 94.53,43.68 L 94.39,44.10 L 94.23,44.37 L 93.86,44.97 L 93.58,45.33 L 92.96,46.10 L 92.56,46.53 L 91.15,48.54 L 90.48,50.04 L 90.28,50.83 L 89.96,52.45 L 89.92,53.28 L 89.93,54.93 L 90.06,55.74 L 90.39,57.34 L 90.67,58.08 L 91.30,59.53 L 91.73,60.17 L 92.66,61.39 L 93.23,61.88 L 94.43,62.76 L 95.13,63.05 L 97.16,64.15 L 97.63,64.52 L 97.77,64.69 L 98.00,65.00 L 98.00,65.12 L 98.49,65.78 L 99.26,65.98 L 99.84,65.96 L 101.12,65.83 L 101.90,65.65 L 103.56,65.20 L 104.50,64.86 L 107.34,63.16 L 109.08,61.48 L 109.80,60.46 L 111.14,58.30 L 111.59,57.14 L 112.34,54.78 L 112.43,53.62 L 112.43,51.78 L 112.25,50.67 L 112.05,50.14 L 111.59,49.08 L 111.25,48.53 L 110.47,47.41 L 109.95,46.79 L 108.83,45.54 L 108.19,44.90 L 107.92,44.68 L 107.42,44.32 L 107.22,44.23 L 106.86,44.13 L 106.74,44.18 L 106.54,44.34 L 106.50,44.51 L 106.46,44.94 L 106.50,45.24 L 106.62,45.92 L 106.74,46.33 L 105.81,45.03 L 105.42,44.59 L 104.47,43.84 L 102.83,42.93 L 102.16,42.65 L 101.16,42.35 L 100.70,42.26 L 99.92,42.41 L 99.52,42.55 L 98.75,43.18 L 99.09,42.80 L 99.85,41.80 L 100.10,41.37 L 100.52,40.54 L 100.60,40.20 L 100.68,39.55 L 100.60,39.29 L 100.34,38.81 L 100.08,38.64 L 99.48,38.34 L 99.06,38.25 L 98.12,38.12 L 97.52,38.12 L 96.25,38.16 L 95.48,38.25 L 93.83,38.42 L 92.95,38.48 L 92.61,38.48 L 91.99,38.45 L 91.77,38.40 L 91.40,38.27 L 91.31,38.16 L 91.17,37.90 L 91.19,37.72 L 91.27,37.33 L 91.39,37.07 L 91.67,36.51 L 91.89,36.16 L 92.35,35.42 L 92.65,34.97 L 96.19,30.33 L 98.76,27.58 L 100.16,26.38 L 103.05,24.09 L 104.63,23.11 L 107.87,21.25 L 109.64,20.49 L 113.27,19.05 L 115.25,18.49 L 119.31,17.46 L 121.52,17.09 L 126.05,16.45 L 128.50,16.27 L 133.53,16.00 L 136.25,16.00 L 139.76,15.99 L 141.75,15.96 L 142.59,15.94 L 144.17,15.89 L 144.81,15.85 L 146.02,15.77 L 146.49,15.72 L 147.36,15.61 L 147.68,15.54 L 148.26,15.38 L 148.46,15.29 L 149.00,14.87 L 149.00,14.59 L 148.74,13.59 L 148.31,12.87 L 147.98,12.49 L 147.25,11.73 L 146.78,11.34 L 145.78,10.56 L 145.18,10.17 L 142.58,8.60 L 140.99,7.86 L 137.64,6.44 L 135.79,5.84 L 131.68,4.67 L 129.13,4.14 L 127.78,3.97 L 124.98,3.70 L 123.31,3.65 L 121.59,3.60 L 120.62,3.60 L 118.62,3.59 M 136.81,42.81 L 136.25,43.04 L 135.02,44.03 L 132.77,46.46 L 132.20,47.13 L 131.86,47.74 L 132.08,47.28 L 132.62,46.46 L 133.45,45.12 L 133.73,44.55 L 133.73,44.38 L 133.63,44.12 L 133.45,44.07 L 132.98,44.00 L 132.60,44.00 L 131.53,44.27 L 130.84,44.69 L 130.50,45.01 L 129.22,46.54 L 128.71,47.58 L 127.79,49.83 L 127.54,51.07 L 127.20,53.58 L 127.33,54.79 L 127.97,57.91 L 128.70,59.71 L 129.24,60.49 L 130.43,61.98 L 131.21,62.63 L 132.89,63.87 L 133.94,64.43 L 135.62,65.25 L 136.37,65.48 L 137.82,65.82 L 138.51,65.81 L 139.87,65.67 L 140.57,65.42 L 141.99,64.80 L 142.79,64.30 L 146.03,62.00 L 147.55,60.54 L 148.05,59.76 L 148.88,58.15 L 149.10,57.20 L 149.41,55.17 L 149.43,53.92 L 149.35,51.37 L 149.14,50.03 L 148.94,49.46 L 148.44,48.36 L 148.05,47.81 L 147.17,46.71 L 146.56,46.07 L 143.88,43.92 L 142.99,43.44 L 142.60,43.29 L 141.85,43.07 L 141.56,43.08 L 140.73,43.15 L 140.40,43.22 L 140.36,43.27 L 140.35,43.34 L 139.76,43.03 L 138.52,42.66 L 137.93,42.55 M 141.02,56.67 L 139.17,57.09 L 138.91,57.07 L 140.73,56.72 L 141.17,56.58 M 138.73,57.06 L 138.20,57.02 L 138.08,56.99 M 137.49,56.89 L 136.26,56.68 L 136.19,56.64 M 98.52,56.34 L 99.36,56.76 L 98.95,56.70 L 98.52,56.52 L 97.71,56.09 L 97.32,55.75 L 96.90,55.32 M 133.70,55.16 L 133.68,55.14 L 134.28,55.53 M 96.54,54.96 L 96.54,54.96 L 96.11,54.42 L 96.11,54.42 M 145.07,51.04 L 144.83,52.16 L 144.53,53.26 L 144.28,53.77 L 143.73,54.74 L 144.33,53.52 L 144.62,52.76 L 144.92,50.99 L 144.99,50.29 M 107.85,51.19 L 107.53,53.15 L 107.05,53.95 L 106.82,54.23 L 107.32,53.16 L 107.54,52.60 L 107.77,51.46 L 107.83,51.09 M 94.10,50.44 L 94.09,50.38 L 94.14,49.99 M 131.13,50.18 L 131.19,49.27 L 131.21,49.21 M 94.18,49.76 L 94.19,49.64 L 94.24,49.47 M 94.60,48.24 L 94.63,48.14 L 94.90,47.75 M 95.13,47.40 L 95.19,47.31 L 95.22,47.28 M 138.30,37.16 L 137.38,37.46 L 136.99,37.68 L 136.27,38.18 L 136.00,38.50 L 135.44,39.25 L 135.28,39.60 L 135.31,39.71 L 135.44,39.89 L 135.61,39.94 L 136.05,40.00 L 136.38,40.00 L 137.52,40.25 L 138.00,40.62 L 138.00,40.86 L 138.66,41.35 L 139.63,41.43 L 140.25,41.31 L 141.42,41.33 L 142.34,41.53 L 142.85,41.71 L 144.96,42.66 L 146.00,43.40 L 147.91,44.72 L 148.66,45.18 L 149.36,45.60 L 149.61,45.73 L 150.05,45.94 L 150.14,45.95 L 150.59,45.82 L 150.76,45.57 L 150.78,45.38 L 150.71,44.46 L 150.47,43.83 L 149.87,42.50 L 149.40,41.79 L 148.38,40.37 L 147.76,39.75 L 144.90,37.86 L 142.65,37.09 L 141.51,36.97 L 139.26,36.91 M 141.00,43.69 L 142.38,44.46 L 143.17,45.18 L 143.22,45.24 L 142.73,44.83 L 140.86,43.65 M 131.15,51.03 L 131.11,50.44 L 131.12,50.24 L 131.15,50.85 L 131.65,52.16 L 133.07,54.37 L 131.65,52.25 Z" fill="rgba(61,33,122,1)"/>
<path d="M 125.81,177.50 L 126.08,178.05 L 126.74,179.45 L 127.09,180.18 L 127.84,181.79 L 129.95,186.50 L 130.87,188.61 L 133.18,192.32 L 134.39,194.07 L 137.10,196.91 L 137.79,197.55 L 139.20,198.63 L 139.91,199.14 L 141.34,199.92 L 142.05,200.27 L 143.46,200.72 L 145.51,201.00 L 146.38,201.00 L 147.77,200.75 L 148.41,200.58 L 149.41,199.96 L 149.86,199.60 L 150.51,198.57 L 151.15,196.50 L 151.27,195.84 L 152.09,194.93 L 152.57,194.55 L 153.87,194.21 L 154.56,194.12 L 156.03,194.41 L 158.09,195.58 L 158.69,196.12 L 159.44,197.63 L 159.78,200.25 L 159.73,200.95 L 159.14,202.22 L 158.78,202.83 L 157.66,203.90 L 157.04,204.41 L 155.49,205.27 L 154.67,205.66 L 152.81,206.26 L 151.85,206.52 L 149.80,206.83 L 148.75,206.94 L 146.61,206.93 L 145.53,206.89 L 143.42,206.53 L 142.37,206.30 L 140.39,205.57 L 139.36,205.12 L 137.37,203.88 L 136.39,203.20 L 134.51,201.56 L 133.59,200.69 L 131.88,198.71 L 131.04,197.68 L 129.53,195.42 L 128.80,194.27 L 127.54,191.81 L 126.94,190.57 L 125.96,187.98 L 125.50,186.67 L 124.85,184.01 L 124.29,180.02 L 123.85,173.50 M 52.86,120.01 L 53.06,120.06 L 53.16,120.46 L 53.16,120.71 L 52.84,121.49 L 52.63,121.93 L 51.85,123.08 L 50.13,125.22 L 49.72,125.68 L 48.84,126.86 L 48.39,127.49 L 47.45,128.91 L 46.51,130.38 L 44.70,133.63 L 43.84,135.25 L 42.50,138.22 L 42.21,138.92 L 41.80,140.11 L 41.46,141.54 L 41.40,142.03 L 41.12,143.45 L 40.96,144.22 L 40.50,146.07 L 40.01,148.00 L 38.70,152.47 L 38.03,154.70 L 36.65,158.80 L 36.32,159.75 L 35.70,161.35 L 34.92,163.15 L 34.46,164.05 L 33.20,165.69 L 32.51,166.49 L 30.90,167.89 L 30.05,168.55 L 28.20,169.67 L 27.25,170.19 L 25.28,170.97 L 24.30,171.32 L 22.34,171.73 L 21.37,171.89 L 19.54,171.88 L 18.65,171.83 L 17.07,171.37 L 16.33,171.08 L 15.12,170.12 L 14.53,169.53 L 13.62,168.33 L 13.43,168.05 L 13.17,167.56 L 13.00,167.01 L 13.00,166.88 L 12.68,166.42 L 12.47,166.16 L 11.80,165.52 L 8.91,163.32 L 7.97,162.70 L 6.73,161.81 L 6.21,161.41 L 5.73,160.83 L 5.57,160.56 L 5.74,160.09 L 6.60,159.31 L 7.30,158.79 L 8.56,158.25 L 9.16,158.06 L 10.26,158.18 L 10.80,158.32 L 11.80,159.10 L 13.23,161.05 L 13.46,161.47 L 14.17,162.34 L 14.56,162.78 L 15.47,163.62 L 18.43,165.53 L 19.48,165.97 L 21.49,166.31 L 22.48,166.39 L 24.36,166.03 L 25.29,165.76 L 27.04,164.72 L 27.90,164.11 L 29.49,162.41 L 30.27,161.47 L 31.70,159.13 L 32.39,157.88 L 33.63,154.91 L 34.22,153.35 L 35.26,149.77 L 36.58,143.76 L 36.79,142.55 L 37.25,140.37 L 37.49,139.31 L 38.01,137.39 L 38.56,135.52 L 39.94,132.38 L 40.70,130.87 L 42.64,128.17 L 46.39,124.21 L 47.22,123.44 L 48.69,122.23 L 49.39,121.67 L 50.57,120.88 L 51.12,120.53 L 51.97,120.14 L 52.36,120.00 M 120.62,3.60 L 121.59,3.60 L 123.31,3.65 L 124.98,3.70 L 127.78,3.97 L 129.13,4.14 L 131.68,4.67 L 135.79,5.84 L 137.64,6.44 L 140.99,7.86 L 142.58,8.60 L 145.18,10.17 L 145.78,10.56 L 146.78,11.34 L 147.25,11.73 L 147.98,12.49 L 148.31,12.87 L 148.74,13.59 L 149.00,14.59 L 149.00,14.87 L 148.46,15.29 L 148.26,15.38 L 147.68,15.54 L 147.36,15.61 L 146.49,15.72 L 146.02,15.77 L 144.81,15.85 L 144.17,15.89 L 142.59,15.94 L 141.75,15.96 L 139.76,15.99 L 136.25,16.00 L 133.53,16.00 L 128.50,16.27 L 126.05,16.45 L 121.52,17.09 L 119.31,17.46 L 115.25,18.49 L 113.27,19.05 L 109.64,20.49 L 107.87,21.25 L 104.63,23.11 L 103.05,24.09 L 100.16,26.38 L 98.76,27.58 L 96.19,30.33 L 92.65,34.97 L 92.35,35.42 L 91.89,36.16 L 91.67,36.51 L 91.39,37.07 L 91.27,37.33 L 91.19,37.72 L 91.17,37.90 L 91.31,38.16 L 91.40,38.27 L 91.77,38.40 L 91.99,38.45 L 92.61,38.48 L 92.95,38.48 L 93.83,38.42 L 95.48,38.25 L 96.25,38.16 L 97.52,38.12 L 98.12,38.12 L 99.06,38.25 L 99.48,38.34 L 100.08,38.64 L 100.34,38.81 L 100.60,39.29 L 100.68,39.55 L 100.60,40.20 L 100.52,40.54 L 100.10,41.37 L 99.85,41.80 L 99.09,42.80 L 97.57,44.49 L 96.54,45.55 L 95.19,47.31 L 94.76,47.96 L 95.08,47.28 L 95.62,46.46 L 96.24,45.37 L 96.47,44.80 L 96.50,44.59 L 96.49,44.24 L 96.42,44.14 L 96.22,44.00 L 96.05,44.01 L 95.21,44.26 L 94.59,44.70 L 93.24,45.79 L 92.77,46.30 L 92.96,46.10 L 93.58,45.33 L 93.86,44.97 L 94.23,44.37 L 94.39,44.10 L 94.53,43.68 L 94.57,43.50 L 94.49,43.29 L 94.42,43.21 L 94.13,43.20 L 93.96,43.23 L 93.47,43.46 L 93.20,43.60 L 92.53,44.08 L 91.33,45.08 L 90.97,45.41 L 90.36,45.92 L 90.08,46.15 L 89.67,46.43 L 89.49,46.53 L 89.32,46.55 L 89.39,46.26 L 89.63,45.85 L 89.55,45.48 L 88.57,45.61 L 88.28,45.72 L 87.74,46.18 L 87.48,46.46 L 87.01,47.25 L 86.78,47.69 L 86.37,48.84 L 86.17,49.46 L 85.82,50.98 L 85.65,51.79 L 85.34,53.71 L 85.20,54.73 L 84.94,57.06 L 84.81,58.29 L 84.60,61.07 L 84.32,65.75 L 84.23,67.53 L 84.02,70.49 L 83.92,71.87 L 83.67,74.04 L 83.54,75.02 L 83.23,76.42 L 83.06,77.02 L 82.67,77.66 L 82.47,77.88 L 81.99,77.78 L 81.74,77.64 L 81.15,76.82 L 80.84,76.33 L 80.12,74.80 L 79.75,73.96 L 78.90,71.75 L 78.39,70.41 L 77.68,68.05 L 77.36,66.86 L 76.96,64.30 L 76.88,63.61 L 76.75,62.08 L 76.70,61.28 L 76.62,59.46 L 76.59,58.51 L 76.55,56.31 L 76.52,52.50 L 76.52,50.18 L 76.65,46.01 L 76.74,43.99 L 77.08,40.36 L 77.28,38.61 L 77.87,35.41 L 78.20,33.85 L 79.08,30.98 L 79.56,29.57 L 80.76,26.92 L 81.40,25.60 L 82.96,23.06 L 83.79,21.79 L 85.75,19.24 L 89.18,15.31 L 89.84,14.60 L 91.05,13.33 L 91.63,12.72 L 92.58,11.76 L 93.02,11.32 L 93.62,10.77 L 94.00,10.51 L 94.00,10.56 L 94.49,10.37 L 94.81,10.24 L 95.84,9.72 L 96.40,9.43 L 97.82,8.66 L 100.25,7.30 L 101.01,6.86 L 102.30,6.14 L 102.92,5.80 L 104.01,5.26 L 105.07,4.75 L 107.14,4.17 L 107.69,4.05 L 108.94,3.89 L 109.59,3.82 L 111.14,3.73 L 111.96,3.69 L 113.93,3.64 L 117.50,3.60 L 118.62,3.59 M 89.94,54.96 L 90.07,55.77 L 90.41,57.36 L 90.69,58.10 L 91.33,59.55 L 91.76,60.19 L 92.68,61.40 L 93.25,61.88 L 94.44,62.77 L 94.43,62.76 L 93.23,61.88 L 92.66,61.39 L 91.73,60.17 L 91.30,59.53 L 90.67,58.08 L 90.39,57.34 L 90.06,55.74 L 89.93,54.93 L 89.93,54.13 M 94.52,51.88 L 96.11,54.42 L 94.67,52.27 L 94.15,51.04 L 94.12,50.49 M 94.19,49.64 L 94.14,50.00 L 94.19,49.27 L 94.44,48.63 L 94.58,48.33 M 141.51,36.97 L 142.65,37.09 L 144.90,37.86 L 147.76,39.75 L 148.38,40.37 L 149.40,41.79 L 149.87,42.50 L 150.47,43.83 L 150.71,44.46 L 150.78,45.38 L 150.76,45.57 L 150.59,45.82 L 150.14,45.95 L 150.05,45.94 L 149.61,45.73 L 149.36,45.60 L 148.66,45.18 L 147.91,44.72 L 146.00,43.40 L 144.96,42.66 L 142.85,41.71 L 142.34,41.53 L 141.42,41.33 L 140.25,41.31 L 139.63,41.43 L 138.66,41.35 L 138.00,40.86 L 138.00,40.62 L 137.52,40.25 L 136.38,40.00 L 136.05,40.00 L 135.61,39.94 L 135.44,39.89 L 135.31,39.71 L 135.28,39.60 L 135.44,39.25 L 136.00,38.50 L 136.27,38.18 L 136.99,37.68 L 137.38,37.46 L 138.30,37.16 L 139.26,36.91 Z" fill="rgba(74,47,144,1)"/>
<path d="M 109.35,87.45 L 110.28,87.69 L 112.25,88.70 L 115.36,91.01 L 115.88,91.47 L 116.75,92.20 L 117.17,92.55 L 117.88,93.06 L 118.55,93.53 L 119.61,93.81 L 120.12,93.84 L 121.12,93.28 L 122.97,91.53 L 123.81,90.64 L 125.76,89.26 L 126.76,88.64 L 128.89,87.86 L 129.96,87.55 L 132.09,87.42 L 135.06,88.02 L 135.95,88.39 L 137.11,89.24 L 137.58,89.67 L 137.88,90.58 L 137.93,91.04 L 137.38,91.93 L 135.57,93.15 L 135.05,93.39 L 134.36,93.79 L 134.06,93.99 L 133.79,94.40 L 133.70,94.62 L 133.80,95.15 L 134.32,96.19 L 134.57,96.60 L 134.82,97.28 L 134.90,97.61 L 134.76,98.23 L 134.64,98.55 L 134.05,99.28 L 132.59,100.66 L 131.99,101.17 L 131.00,101.89 L 130.52,102.20 L 129.64,102.55 L 129.20,102.68 L 128.26,102.70 L 126.59,102.41 L 125.69,102.19 L 123.47,101.90 L 122.31,101.79 L 119.81,101.72 L 118.56,101.71 L 116.15,101.87 L 113.00,102.35 L 112.31,102.51 L 110.59,102.50 L 109.74,102.44 L 108.32,102.03 L 107.65,101.75 L 106.47,100.82 L 105.92,100.32 L 105.11,99.18 L 104.77,98.62 L 104.53,97.59 L 105.00,96.50 L 105.43,96.23 L 105.86,95.64 L 106.00,95.34 L 105.86,94.71 L 105.72,94.40 L 105.04,93.80 L 103.42,92.97 L 102.66,92.68 L 101.77,92.00 L 101.42,91.64 L 101.34,90.84 L 101.40,90.43 L 102.14,89.53 L 104.15,88.10 L 104.96,87.64 L 106.66,87.25 L 107.53,87.14 Z" fill="rgba(198,91,189,1)"/>
<path d="M 145.87,67.00 L 146.77,67.08 L 148.37,67.61 L 149.96,68.93 L 150.35,69.66 L 150.78,71.05 L 150.94,71.73 L 150.92,73.03 L 150.85,73.66 L 150.38,74.81 L 149.17,76.35 L 148.60,76.86 L 147.52,77.51 L 146.99,77.77 L 145.91,77.92 L 145.36,77.92 L 144.19,77.56 L 143.58,77.31 L 142.22,76.44 L 141.61,76.01 L 140.75,74.71 L 140.38,74.01 L 140.05,72.42 L 139.95,71.63 L 140.18,70.09 L 141.20,68.20 L 141.69,67.71 L 143.23,67.18 L 144.05,66.98 M 97.15,67.38 L 97.54,67.55 L 98.21,68.02 L 98.96,68.93 L 99.35,69.65 L 99.78,70.94 L 99.93,71.56 L 99.90,72.71 L 99.82,73.27 L 99.31,74.36 L 98.00,76.00 L 97.32,76.68 L 95.96,77.49 L 95.28,77.81 L 93.94,77.88 L 93.28,77.83 L 91.97,77.17 L 91.33,76.75 L 90.07,75.37 L 89.45,74.58 L 88.67,73.47 L 88.35,72.97 L 88.14,72.17 L 88.11,71.78 L 88.45,70.93 L 89.56,69.22 L 90.07,68.49 L 91.68,67.55 L 92.54,67.16 L 94.46,66.93 L 95.42,66.90 Z" fill="rgba(228,176,233,1)"/>
<path d="M 98.00,65.12 L 98.00,65.00 L 97.77,64.69 L 97.63,64.52 L 97.16,64.15 L 95.13,63.05 L 94.44,62.77 L 93.25,61.88 L 92.68,61.40 L 91.76,60.19 L 91.33,59.55 L 90.69,58.10 L 90.41,57.36 L 90.07,55.77 L 89.94,54.96 L 89.91,53.31 L 89.94,52.49 L 90.24,50.88 L 90.44,50.09 L 91.08,48.62 L 92.45,46.65 L 93.24,45.79 L 94.59,44.70 L 95.21,44.26 L 96.05,44.01 L 96.22,44.00 L 96.42,44.14 L 96.49,44.24 L 96.50,44.59 L 96.47,44.80 L 96.24,45.37 L 95.62,46.46 L 95.08,47.28 L 94.44,48.63 L 94.19,49.27 L 94.11,50.45 L 94.15,51.04 L 94.67,52.27 L 96.11,54.42 L 96.54,54.96 L 97.32,55.75 L 97.71,56.09 L 98.52,56.52 L 98.95,56.70 L 99.95,56.84 L 101.83,56.80 L 102.45,56.75 L 103.54,56.49 L 104.07,56.34 L 105.00,55.90 L 105.87,55.41 L 107.05,53.95 L 107.53,53.15 L 107.85,51.19 L 107.25,47.85 L 107.04,47.29 L 106.75,46.36 L 106.62,45.92 L 106.50,45.24 L 106.46,44.94 L 106.50,44.51 L 106.54,44.34 L 106.74,44.18 L 106.86,44.13 L 107.22,44.23 L 107.42,44.32 L 107.92,44.68 L 108.19,44.90 L 108.83,45.54 L 109.95,46.79 L 110.47,47.41 L 111.25,48.53 L 111.59,49.08 L 112.05,50.14 L 112.25,50.67 L 112.43,51.78 L 112.43,53.62 L 112.34,54.78 L 111.59,57.14 L 111.14,58.30 L 109.80,60.46 L 109.08,61.48 L 107.34,63.16 L 104.50,64.86 L 103.56,65.20 L 101.90,65.65 L 101.12,65.83 L 99.84,65.96 L 99.26,65.98 L 98.49,65.78 L 98.17,65.64 M 133.94,64.43 L 132.89,63.87 L 131.21,62.63 L 130.43,61.98 L 129.24,60.49 L 128.70,59.71 L 127.97,57.91 L 127.33,54.79 L 127.20,53.58 L 127.54,51.07 L 127.79,49.83 L 128.71,47.58 L 129.22,46.54 L 130.50,45.01 L 130.84,44.69 L 131.53,44.27 L 132.60,44.00 L 132.98,44.00 L 133.45,44.07 L 133.63,44.12 L 133.73,44.38 L 133.73,44.55 L 133.45,45.12 L 132.62,46.46 L 132.08,47.28 L 131.44,48.62 L 131.19,49.27 L 131.11,50.44 L 131.15,51.03 L 131.65,52.25 L 133.07,54.37 L 133.70,55.16 L 135.38,56.23 L 136.26,56.68 L 138.20,57.02 L 139.17,57.09 L 141.02,56.67 L 143.35,55.17 L 143.73,54.75 L 144.28,53.77 L 144.53,53.26 L 144.83,52.16 L 145.07,51.04 L 144.83,48.71 L 144.59,47.58 L 143.49,45.62 L 143.17,45.18 L 142.38,44.46 L 141.00,43.69 L 140.74,43.60 L 140.45,43.45 L 140.34,43.38 L 140.36,43.27 L 140.40,43.22 L 140.73,43.15 L 141.56,43.08 L 141.85,43.07 L 142.60,43.29 L 142.99,43.44 L 143.88,43.92 L 146.56,46.07 L 147.17,46.71 L 148.05,47.81 L 148.44,48.36 L 148.94,49.46 L 149.14,50.03 L 149.35,51.37 L 149.43,53.92 L 149.41,55.17 L 149.10,57.20 L 148.88,58.15 L 148.05,59.76 L 147.55,60.54 L 146.03,62.00 L 142.79,64.30 L 141.99,64.80 L 140.57,65.42 L 139.87,65.67 L 138.51,65.81 L 137.82,65.82 L 136.37,65.48 L 135.62,65.25 Z" fill="rgba(253,250,252,1)"/>
</g>
</svg>