<svg xmlns="http://www.w3.org/2000/svg" width="420" height="594" viewBox="0 0 420 594">
<g>
<path d="M 15.79,100.84 L 14.40,103.93 L 13.78,105.50 L 13.03,108.84 L 12.60,114.25 L 12.60,115.29 L 12.53,117.06 L 12.48,117.89 L 12.32,119.19 L 12.23,119.77 L 11.98,120.53 L 11.53,121.00 L 11.27,121.00 L 10.56,120.72 L 10.17,120.54 L 9.26,119.95 L 8.32,119.30 L 6.19,117.40 L 5.13,116.40 L 3.25,114.24 L 2.82,113.71 L 2.12,112.71 L 1.38,111.36 L 0.93,110.28 L 0.52,108.53 L 1.09,109.00 L 1.50,109.00 L 2.55,108.49 L 2.99,107.73 L 2.98,107.25 L 2.94,106.46 L 2.86,106.17 L 2.79,106.14 L 2.64,106.16 L 2.53,106.28 L 2.27,106.60 L 2.11,106.86 L 1.64,107.51 L 1.40,107.73 L 1.30,107.73 L 1.11,107.65 L 1.01,107.51 L 0.81,107.15 L 0.70,106.86 L 0.45,106.35 L 0.32,106.21 L 0.27,106.24 L 0.18,106.37 L 0.15,106.52 L 0.07,104.23 L 0.08,103.01 L 0.17,102.41 L 0.26,102.83 L 0.49,102.68 L 0.66,102.24 L 1.29,101.52 L 1.83,101.40 L 2.09,101.55 L 2.73,101.63 L 3.00,101.32 L 3.00,101.02 L 3.46,100.43 L 4.25,100.60 L 4.93,100.96 L 7.04,101.70 L 8.69,102.00 L 9.39,102.00 L 11.71,101.69 L 13.41,101.22 L 14.20,100.92 L 15.68,100.28 L 16.19,99.96 L 16.51,99.73 M 17.07,98.90 L 17.35,98.31 L 17.68,97.87 L 17.94,97.56 L 18.52,96.86 L 18.57,96.80 M 34.72,79.98 L 33.60,80.79 L 33.01,81.26 L 31.58,82.62 L 30.80,83.38 L 29.68,84.56 L 30.73,83.43 L 31.76,82.36 L 32.20,81.93 L 33.82,80.47 L 34.57,80.05 L 34.77,79.96 M 39.87,78.82 L 40.61,78.76 L 39.87,78.82 M 41.91,47.12 L 42.62,47.29 L 43.05,47.61 L 43.97,48.42 L 44.55,49.06 L 45.39,50.13 L 45.73,50.75 L 45.79,51.04 L 45.85,51.61 L 45.77,51.90 L 45.55,52.48 L 45.35,52.81 L 44.66,53.72 L 44.28,54.01 L 43.49,54.49 L 43.09,54.58 L 42.28,54.66 L 41.90,54.57 L 41.15,54.32 L 40.82,54.09 L 40.21,53.56 L 39.98,53.21 L 39.58,52.46 L 39.49,52.01 L 39.38,51.09 L 39.45,50.58 L 39.71,49.54 L 40.00,49.00 L 40.95,47.58 L 41.57,47.11 Z" fill="rgba(0,0,0,1)"/>
<path d="M 246.95,392.35 L 247.42,393.15 L 248.47,395.07 L 250.14,398.28 L 251.27,400.52 L 253.88,404.82 L 254.51,405.80 L 255.67,407.42 L 257.11,409.11 L 257.62,409.58 L 258.44,410.61 L 258.81,411.14 L 259.39,412.27 L 259.90,413.41 L 260.18,415.80 L 260.19,416.98 L 259.47,419.21 L 259.23,419.74 L 258.56,420.71 L 257.28,422.00 L 256.53,422.59 L 254.60,423.66 L 251.97,424.66 L 251.80,424.69 L 251.00,425.05 L 250.53,425.27 L 249.20,425.98 L 248.48,426.37 L 246.69,427.37 L 245.74,427.91 L 243.56,429.19 L 242.42,429.85 L 239.92,431.35 L 238.63,432.13 L 235.86,433.81 L 226.95,439.36 L 204.50,453.54 L 204.00,510.52 L 203.50,567.50 L 200.60,572.43 L 199.66,574.04 L 197.28,577.20 L 196.02,578.76 L 193.09,581.75 L 191.57,583.21 L 188.22,585.91 L 182.84,589.51 L 181.94,590.04 L 180.41,590.91 L 179.69,591.31 L 178.51,591.93 L 177.96,592.20 L 177.09,592.56 L 176.69,592.71 L 176.10,592.82 L 175.83,592.85 L 175.48,592.72 L 175.33,592.62 L 175.20,592.25 L 175.15,592.04 L 175.19,591.43 L 175.22,591.09 L 175.40,590.25 L 175.68,589.06 L 176.12,587.14 L 176.32,586.24 L 176.56,584.85 L 176.65,584.21 L 176.64,583.29 L 176.63,583.22 L 176.69,583.35 L 176.72,583.74 L 176.71,584.60 L 176.62,585.16 L 176.49,587.24 L 176.61,588.28 L 176.76,588.43 L 177.29,588.79 L 177.66,588.89 L 178.46,589.01 L 178.93,588.99 L 180.98,588.73 L 182.03,588.38 L 184.07,587.55 L 184.80,587.01 L 185.46,586.47 L 185.67,586.18 L 186.00,585.60 L 186.00,585.31 L 186.24,584.74 L 186.62,584.35 L 186.90,584.17 L 188.21,583.51 L 189.05,583.34 L 190.54,582.86 L 191.44,582.36 L 191.85,582.02 L 192.64,581.27 L 193.01,580.79 L 193.73,579.75 L 194.08,579.12 L 195.08,577.36 L 195.89,575.98 L 196.33,575.24 L 198.16,572.24 L 198.96,571.00 L 201.02,566.93 L 201.51,565.58 L 201.66,564.99 L 201.91,563.87 L 201.92,563.45 L 202.29,560.98 L 202.77,559.63 L 203.06,559.34 L 203.17,558.95 L 203.24,558.42 L 203.27,558.04 L 203.33,557.18 L 203.36,556.63 L 203.41,555.46 L 203.44,554.77 L 203.53,551.71 L 203.57,549.81 L 203.64,545.76 L 203.67,543.43 L 203.72,538.58 L 203.73,535.92 L 203.76,530.45 L 203.76,527.54 L 203.77,521.63 L 203.76,518.58 L 203.74,512.41 L 203.73,509.30 L 203.65,496.81 L 203.58,490.90 L 203.50,485.07 L 203.46,482.33 L 203.37,476.98 L 203.32,474.55 L 203.22,469.86 L 203.16,467.83 L 203.04,463.99 L 202.97,462.45 L 202.91,460.98 L 202.87,460.35 L 202.80,459.16 L 202.77,458.69 L 202.69,457.81 L 202.66,457.49 L 202.58,456.95 L 202.54,456.81 L 202.28,455.39 L 202.31,454.57 L 202.43,454.20 L 202.76,453.45 L 203.05,453.06 L 203.73,452.27 L 204.21,451.81 L 206.72,449.75 L 208.72,448.38 L 209.83,447.73 L 212.11,446.46 L 213.31,445.89 L 215.71,444.81 L 216.91,444.37 L 219.94,442.76 L 221.84,441.32 L 222.41,440.63 L 223.79,439.27 L 225.05,438.21 L 225.80,437.64 L 229.09,435.27 L 230.86,434.13 L 232.62,433.03 L 233.47,432.53 L 235.11,431.59 L 235.84,431.22 L 237.23,430.54 L 237.77,430.33 L 238.75,430.00 L 239.03,430.00 L 240.63,429.54 L 241.70,428.86 L 242.05,428.43 L 243.97,426.74 L 245.56,425.73 L 246.38,425.35 L 248.00,424.69 L 248.68,424.55 L 249.93,424.42 L 250.28,424.62 L 250.92,424.87 L 250.95,424.72 L 250.74,424.49 L 250.74,424.00 L 251.02,423.55 L 251.28,423.29 L 252.64,422.15 L 253.65,421.58 L 256.74,419.55 L 258.06,418.32 L 258.37,417.71 L 258.77,416.51 L 258.65,415.88 L 258.19,414.58 L 257.66,413.85 L 254.65,409.66 L 252.95,407.24 L 252.24,406.21 L 250.91,404.24 L 250.38,403.39 L 249.38,401.79 L 248.99,401.10 L 248.29,399.79 L 248.03,399.22 L 247.57,398.13 L 247.41,397.64 L 247.00,395.81 L 247.00,394.93 L 246.56,391.96 L 246.35,391.35 M 167.00,572.93 L 167.00,573.04 L 166.72,574.62 L 166.27,575.62 L 165.92,576.10 L 165.14,577.01 L 164.64,577.42 L 163.56,578.21 L 162.91,578.54 L 161.73,579.27 L 161.14,579.77 L 160.95,580.02 L 160.63,580.52 L 160.58,580.77 L 160.55,581.27 L 160.64,581.51 L 161.12,582.13 L 161.63,582.45 L 161.95,582.57 L 163.44,582.93 L 164.32,582.94 L 166.14,582.84 L 167.01,582.61 L 168.69,582.04 L 169.30,581.57 L 171.34,580.72 L 172.09,580.75 L 172.54,580.85 L 173.49,581.11 L 174.07,581.33 L 175.57,582.01 L 175.73,582.12 L 175.33,582.05 L 174.92,582.01 L 173.77,582.17 L 173.13,582.29 L 171.47,582.69 L 168.34,583.50 L 166.77,583.91 L 163.40,584.48 L 161.74,584.73 L 158.70,584.95 L 157.99,584.98 L 156.76,584.97 L 156.18,584.96 L 155.27,584.85 L 154.87,584.78 L 154.37,584.58 L 154.17,584.14 L 154.21,584.02 L 154.80,583.39 L 155.17,583.01 L 156.29,581.97 L 156.90,581.41 L 158.41,580.09 L 160.93,577.95 L 167.00,572.93 M 191.19,557.05 L 190.49,557.58 L 190.18,557.74 L 189.62,558.00 L 189.41,558.00 L 187.72,558.42 L 186.32,559.04 L 185.71,559.43 L 184.49,559.99 L 183.41,560.31 L 182.78,560.44 L 180.12,560.85 L 178.84,560.85 L 174.86,561.28 L 173.64,561.58 L 173.12,561.76 L 172.16,562.14 L 171.84,562.34 L 170.44,563.03 L 169.14,563.53 L 168.36,563.78 L 164.99,564.77 L 163.28,565.12 L 160.83,565.72 L 159.35,566.17 L 158.74,566.41 L 157.62,566.88 L 157.24,567.11 L 156.62,567.54 L 156.55,567.73 L 156.80,568.78 L 157.58,569.49 L 158.25,569.83 L 159.77,570.51 L 160.78,570.83 L 162.95,571.44 L 164.25,571.70 L 166.19,572.32 L 166.23,572.34 L 161.93,571.26 L 160.79,570.98 L 158.86,570.48 L 157.95,570.25 L 156.45,569.85 L 155.74,569.65 L 154.62,569.32 L 154.10,569.17 L 153.31,568.89 L 152.60,568.62 L 151.94,568.17 L 151.74,567.48 L 151.76,567.41 L 152.06,567.21 L 152.25,567.11 L 152.88,566.85 L 153.23,566.71 L 154.15,566.39 L 154.64,566.22 L 155.81,565.85 L 157.03,565.48 L 160.08,564.63 L 165.24,563.32 L 168.89,562.45 L 176.81,560.38 L 178.69,559.88 L 182.04,558.95 L 182.83,558.73 L 184.22,558.32 L 186.00,557.78 L 192.41,555.76 M 193.63,460.34 L 194.83,460.94 L 195.26,461.50 L 195.34,461.83 L 195.38,462.28 L 195.41,462.61 L 195.46,463.34 L 195.48,463.81 L 195.52,464.80 L 195.55,465.40 L 195.63,468.03 L 195.67,469.68 L 195.74,473.22 L 195.77,475.28 L 195.82,479.59 L 195.85,481.99 L 195.89,486.96 L 195.90,489.64 L 195.92,495.14 L 195.93,498.04 L 195.93,503.94 L 195.92,507.00 L 195.83,551.50 L 193.50,554.56 L 193.76,508.21 L 193.78,504.96 L 193.80,498.72 L 193.81,495.66 L 193.81,489.88 L 193.81,487.06 L 193.79,481.86 L 193.78,479.35 L 193.74,474.87 L 193.72,472.73 L 193.67,469.09 L 193.65,467.39 L 193.58,464.72 L 193.57,464.13 L 193.53,463.13 L 193.51,462.67 L 193.47,461.96 L 193.45,461.65 L 193.41,461.24 L 193.34,461.00 L 193.29,461.00 L 192.89,461.20 L 192.64,461.32 L 191.87,461.75 L 191.45,462.00 L 190.35,462.64 L 189.76,462.98 L 188.38,463.81 L 186.94,464.68 L 183.39,466.85 L 177.42,470.57 L 166.73,477.28 L 168.19,476.31 L 169.62,475.26 L 170.35,474.68 L 171.78,473.49 L 172.44,472.89 L 173.71,471.71 L 174.23,471.16 L 177.67,468.18 L 178.83,467.40 L 179.35,467.12 L 180.34,466.64 L 180.73,466.55 L 182.05,466.04 L 183.07,465.51 L 183.61,465.18 L 185.77,463.68 L 186.63,462.85 L 189.06,461.06 L 190.70,460.33 L 191.48,460.21 L 192.99,460.13 M 142.17,517.10 L 142.04,517.43 L 141.76,518.50 L 141.62,519.09 L 141.32,520.55 L 140.53,525.47 L 140.45,526.14 L 140.31,527.25 L 140.23,527.77 L 140.10,528.61 L 139.97,529.37 L 139.70,530.16 L 139.55,530.45 L 139.19,530.40 L 138.45,529.60 L 138.26,529.34 L 137.78,528.53 L 137.53,528.09 L 136.96,527.00 L 135.30,523.38 L 134.80,522.17 L 133.82,520.29 L 133.60,519.89 L 133.28,519.44 L 133.51,519.62 L 134.38,520.38 L 134.98,520.98 L 136.70,522.14 L 137.83,522.43 L 138.32,522.34 L 139.23,522.00 L 139.53,521.62 L 140.00,520.71 L 140.00,520.05 L 140.59,518.29 L 141.45,517.00 L 142.00,516.50 L 142.65,516.06 M 126.37,516.35 L 127.96,519.56 L 129.22,521.16 L 129.82,521.60 L 130.40,521.97 L 130.66,522.05 L 131.16,522.14 L 131.36,522.06 L 131.63,521.87 L 131.26,523.25 L 130.39,527.50 L 129.02,525.00 L 128.48,524.00 L 127.59,521.86 L 127.17,520.77 L 126.55,518.47 L 126.28,517.30 L 125.98,515.21 M 161.05,486.63 L 160.90,487.52 L 160.33,489.91 L 160.02,491.18 L 159.22,494.06 L 158.80,495.53 L 157.85,498.54 L 156.40,502.81 L 155.37,505.63 L 153.70,511.68 L 153.34,513.14 L 152.78,515.84 L 152.29,519.28 L 152.20,520.35 L 151.97,522.12 L 151.85,522.94 L 151.57,524.18 L 151.42,524.73 L 151.11,525.40 L 150.60,525.72 L 150.45,525.67 L 149.92,525.16 L 149.63,524.85 L 148.88,523.90 L 148.49,523.39 L 147.62,522.13 L 146.28,520.03 L 145.90,519.39 L 145.26,518.34 L 144.95,517.86 L 144.46,517.09 L 144.23,516.75 L 143.85,516.25 L 143.68,516.04 L 143.39,515.79 L 143.23,515.67 L 143.43,515.54 L 143.75,515.48 L 143.85,515.53 L 144.00,515.68 L 144.00,515.85 L 144.42,516.66 L 145.04,517.00 L 145.43,517.00 L 146.63,517.59 L 147.33,518.45 L 147.50,519.00 L 148.54,520.43 L 149.60,521.00 L 150.20,521.00 L 151.30,520.87 L 151.74,520.57 L 151.83,520.23 L 151.95,519.42 L 151.90,518.75 L 151.75,517.20 L 151.60,516.07 L 151.41,513.99 L 151.37,512.80 L 151.41,512.31 L 151.50,511.43 L 151.60,511.12 L 151.82,510.61 L 151.98,510.52 L 152.70,509.42 L 153.00,508.29 L 153.01,507.69 L 153.49,505.26 L 154.19,503.32 L 154.64,502.50 L 155.69,500.23 L 156.34,498.45 L 156.66,497.36 L 157.30,495.05 L 157.63,493.63 L 158.30,490.61 L 158.67,488.78 L 159.47,486.52 L 160.23,485.23 L 160.61,484.91 L 161.58,483.56 M 132.60,519.10 L 132.63,519.12 L 132.47,519.34 L 132.35,519.55 L 132.07,520.25 L 132.00,520.50 L 132.13,519.40 L 132.38,519.07 M 193.54,446.35 L 192.60,447.75 L 190.20,450.75 L 189.47,451.45 L 189.17,451.66 L 188.62,452.00 L 188.44,452.00 L 187.72,452.18 L 187.08,452.47 L 186.70,452.68 L 185.10,453.69 L 184.33,454.33 L 182.87,455.43 L 181.67,456.26 L 181.01,456.68 L 178.24,458.41 L 177.00,459.07 L 174.96,460.26 L 173.47,461.21 L 172.72,461.72 L 171.24,462.76 L 170.56,463.28 L 169.26,464.29 L 168.75,464.73 L 165.37,467.04 L 164.27,467.58 L 163.78,467.74 L 162.87,468.00 L 162.53,468.00 L 160.49,468.55 L 159.34,469.36 L 159.06,469.89 L 158.41,470.72 L 157.79,471.29 L 157.41,471.56 L 155.74,472.59 L 154.86,472.90 L 152.21,474.27 L 150.67,475.45 L 150.29,476.00 L 148.90,477.41 L 147.92,478.00 L 147.55,478.00 L 146.30,478.54 L 145.10,479.38 L 144.36,479.98 L 142.81,481.29 L 141.97,482.06 L 140.26,483.67 L 139.40,484.53 L 137.70,486.27 L 136.91,487.12 L 135.39,488.81 L 134.76,489.58 L 133.59,491.05 L 133.20,491.65 L 132.55,492.73 L 132.49,493.06 L 131.72,495.11 L 130.93,496.30 L 130.51,496.61 L 129.44,497.81 L 129.00,498.76 L 129.00,499.15 L 128.84,500.01 L 128.59,500.82 L 128.41,501.31 L 127.55,503.42 L 127.00,504.50 L 125.94,506.92 L 126.02,506.15 L 126.48,503.66 L 126.74,502.42 L 127.47,499.99 L 128.87,496.46 L 129.46,495.19 L 130.81,492.78 L 131.52,491.59 L 133.17,489.29 L 134.04,488.15 L 136.07,485.87 L 137.14,484.73 L 139.65,482.39 L 140.97,481.21 L 144.05,478.74 L 145.66,477.48 L 149.40,474.79 L 151.35,473.42 L 155.84,470.43 L 163.50,465.53 L 166.11,463.89 L 171.33,460.60 L 173.89,458.98 L 178.61,455.99 L 179.73,455.28 L 181.78,453.96 L 182.78,453.33 L 184.52,452.21 L 185.34,451.68 L 186.71,450.79 L 188.25,449.77 L 193.61,446.19 M 165.46,478.07 L 165.61,477.97 L 165.90,477.79 M 194.24,350.43 L 194.50,351.30 L 194.96,353.23 L 195.14,354.52 L 195.46,357.33 L 195.57,359.12 L 195.68,360.98 L 195.72,362.02 L 195.81,364.18 L 195.84,365.37 L 195.89,367.85 L 195.92,369.21 L 195.95,372.02 L 195.97,373.57 L 195.99,376.75 L 195.99,378.48 L 196.00,382.04 L 196.00,383.98 L 196.00,388.60 L 195.99,391.41 L 195.99,392.70 L 195.98,395.19 L 195.97,396.33 L 195.96,398.52 L 195.95,399.51 L 195.89,403.23 L 195.85,404.74 L 195.75,407.56 L 195.68,408.70 L 195.52,410.83 L 195.41,411.71 L 195.18,413.36 L 195.03,414.09 L 194.35,416.76 L 193.85,418.21 L 191.70,424.42 L 193.77,428.01 L 194.77,430.19 L 195.26,431.77 L 195.43,432.60 L 195.87,436.04 L 195.77,437.82 L 195.34,441.38 L 194.81,443.07 L 194.00,445.17 L 194.00,436.83 L 193.92,434.55 L 193.86,433.49 L 193.63,431.88 L 193.50,431.14 L 193.10,430.04 L 192.27,428.75 L 191.71,428.13 L 191.00,426.25 L 190.72,425.25 L 190.58,423.00 L 190.58,421.87 L 191.00,419.75 L 192.27,417.25 L 192.47,417.04 L 192.80,416.48 L 192.95,416.16 L 193.20,415.25 L 193.32,414.74 L 193.51,413.28 L 193.59,412.47 L 193.72,410.26 L 193.78,409.05 L 193.87,405.90 L 193.88,405.05 L 193.91,403.12 L 193.93,402.12 L 193.95,399.90 L 193.96,398.74 L 193.97,396.19 L 193.98,394.86 L 193.99,391.95 L 193.99,390.45 L 194.00,387.16 L 194.00,381.77 L 194.00,349.96 M 227.76,377.85 L 228.42,378.51 L 230.31,380.79 L 231.29,382.34 L 231.46,382.88 L 232.33,384.61 L 233.14,385.70 L 233.54,386.03 L 234.57,387.57 L 235.00,388.93 L 235.00,389.56 L 235.30,391.39 L 235.74,392.34 L 236.02,392.51 L 236.68,393.21 L 237.25,394.00 L 237.56,394.51 L 238.90,396.82 L 239.52,398.08 L 240.13,399.33 L 240.39,399.91 L 240.88,401.03 L 241.05,401.49 L 241.33,402.33 L 241.37,402.59 L 241.39,403.01 L 241.27,403.02 L 241.16,403.30 L 241.57,403.71 L 241.97,403.96 L 242.64,404.70 L 242.96,405.45 L 243.06,405.98 L 243.22,407.13 L 243.25,407.89 L 243.27,409.52 L 243.23,410.53 L 243.13,412.77 L 243.05,414.00 L 242.99,414.50 L 242.70,416.23 L 242.40,416.81 L 241.66,417.82 L 241.03,418.24 L 239.56,419.06 L 238.47,419.58 L 236.21,421.05 L 235.78,421.53 L 235.68,421.74 L 235.58,422.13 L 235.67,422.28 L 235.71,422.89 L 235.18,422.90 L 234.66,422.70 L 233.09,422.75 L 232.15,423.46 L 231.74,424.15 L 230.79,425.19 L 229.76,426.03 L 229.10,426.48 L 226.15,428.35 L 224.50,429.15 L 222.22,430.26 L 220.89,430.93 L 220.30,431.23 L 218.10,432.38 L 217.16,432.91 L 215.36,433.98 L 214.45,434.57 L 212.58,435.81 L 211.48,436.59 L 210.34,437.38 L 209.86,437.71 L 208.96,438.31 L 208.59,438.54 L 207.29,439.28 L 206.83,439.41 L 206.02,439.49 L 205.67,439.32 L 205.06,438.90 L 205.32,438.77 L 205.61,438.62 L 206.52,438.10 L 207.02,437.82 L 208.31,437.05 L 209.00,436.65 L 210.62,435.67 L 211.47,435.15 L 213.37,433.98 L 214.35,433.38 L 216.49,432.06 L 218.67,430.70 L 223.51,427.65 L 225.42,426.44 L 228.67,424.35 L 230.21,423.36 L 232.79,421.68 L 233.99,420.88 L 235.97,419.52 L 236.89,418.88 L 238.34,417.79 L 239.01,417.27 L 240.03,416.39 L 240.50,415.96 L 241.16,415.22 L 242.22,413.22 L 242.39,412.56 L 242.34,411.00 L 242.28,410.56 L 242.01,409.51 L 241.86,408.94 L 241.37,407.56 L 241.10,406.82 L 240.35,405.02 L 239.94,404.06 L 238.90,401.75 L 238.34,400.52 L 236.97,397.60 L 234.51,392.43 L 233.34,389.99 L 231.21,385.45 L 230.70,384.36 L 229.76,382.32 L 229.31,381.33 L 228.50,379.54 L 228.11,378.68 L 227.73,377.81 M 204.66,413.86 L 204.95,414.83 L 206.23,416.74 L 206.98,417.55 L 207.91,419.48 L 208.45,423.00 L 208.45,424.32 L 207.91,426.52 L 206.23,429.26 L 205.96,429.55 L 205.47,430.34 L 205.23,430.76 L 204.83,431.75 L 204.45,432.78 L 204.01,434.99 L 203.85,436.07 L 203.93,437.54 L 203.06,436.35 L 202.48,434.84 L 202.39,434.04 L 202.37,432.41 L 202.58,431.57 L 203.13,429.90 L 203.62,429.06 L 205.11,426.90 L 205.55,426.40 L 205.73,426.24 L 206.06,426.00 L 206.16,426.00 L 206.56,425.63 L 206.61,424.97 L 206.53,424.38 L 206.29,423.02 L 206.05,422.03 L 205.49,419.83 L 205.09,418.37 L 204.86,416.82 L 204.72,415.15 L 204.65,414.03 L 204.64,413.71 M 245.17,389.60 L 245.20,389.64 L 245.16,389.60 M 244.00,387.85 L 244.00,387.73 L 244.14,388.14 M 204.30,353.69 L 204.27,354.92 L 204.20,357.83 L 204.17,359.36 L 204.12,362.81 L 204.09,364.59 L 204.05,368.48 L 204.04,370.47 L 204.01,374.71 L 204.00,379.25 L 204.00,373.06 L 204.02,369.11 L 204.06,365.23 L 204.08,363.42 L 204.13,359.91 L 204.17,358.33 L 204.24,355.31 L 204.29,354.02 L 204.31,353.33 M 229.45,354.00 L 229.54,354.49 L 229.88,355.66 L 230.09,356.29 L 230.72,357.86 L 231.07,358.71 L 232.03,360.82 L 232.55,361.96 L 233.88,364.75 L 236.34,369.86 L 237.39,372.04 L 239.31,376.14 L 240.17,377.99 L 239.96,377.61 L 239.39,376.60 L 239.14,376.21 L 238.66,375.52 L 238.48,375.34 L 237.43,374.63 L 236.82,374.51 L 236.67,374.67 L 236.40,374.66 L 236.19,374.43 L 236.09,374.23 L 235.66,373.16 L 235.49,372.37 L 234.78,369.90 L 234.20,368.41 L 233.94,368.00 L 232.97,366.21 L 232.26,364.69 L 231.98,364.00 L 230.93,361.60 L 230.16,359.94 L 229.86,359.34 L 229.26,356.72 L 229.27,354.50 L 229.42,353.74 M 224.95,371.79 L 224.95,371.79 L 224.94,371.77 M 213.13,353.00 L 214.75,353.53 L 215.83,354.32 L 216.19,354.82 L 217.63,356.29 L 218.77,357.10 L 219.25,357.28 L 220.51,358.45 L 221.00,359.68 L 221.00,360.40 L 221.48,362.61 L 222.17,364.03 L 222.62,364.48 L 223.80,366.49 L 224.32,368.24 L 224.36,369.05 L 224.67,371.13 L 224.84,371.62 L 224.93,371.76 L 224.38,370.99 L 224.05,370.50 L 223.15,368.95 L 222.68,368.11 L 221.58,366.02 L 219.83,362.50 L 219.07,360.92 L 217.76,358.41 L 217.13,357.26 L 216.05,355.55 L 215.54,354.80 L 214.65,353.83 L 213.50,353.15 L 213.22,353.11 L 212.97,353.00 M 230.87,341.79 L 230.64,345.69 L 230.56,346.62 L 230.32,348.28 L 229.89,350.21 L 229.97,349.35 L 230.05,348.28 L 230.33,343.70 L 230.36,341.50 L 230.50,333.50 L 230.79,340.00 M 207.75,349.22 L 207.95,349.42 L 207.66,349.15 M 205.40,347.63 L 205.95,347.87 L 206.28,348.10 L 207.40,348.95 L 206.07,348.02 L 205.73,347.82 L 205.19,347.61 L 204.77,347.64 L 204.85,347.59 M 184.83,341.86 L 184.27,341.24 L 184.22,341.18 M 183.88,340.73 L 182.24,338.57 L 179.75,334.56 L 182.19,338.50 M 243.85,386.68 L 244.00,387.29 L 244.00,387.50 Z" fill="rgba(163,126,132,1)"/>
<path d="M 198.01,347.68 L 200.46,347.75 L 201.85,347.82 L 202.44,347.86 L 204.54,348.07 L 204.69,348.11 L 204.63,348.47 L 204.56,348.99 L 204.44,350.67 L 204.38,351.61 L 204.29,354.02 L 204.24,355.31 L 204.17,358.33 L 204.13,359.91 L 204.08,363.42 L 204.06,365.23 L 204.02,369.11 L 204.00,373.06 L 204.01,381.54 L 204.02,385.79 L 204.11,394.15 L 204.14,396.18 L 204.20,400.06 L 204.24,401.96 L 204.33,405.47 L 204.37,407.16 L 204.48,410.19 L 204.53,411.62 L 204.65,414.03 L 204.72,415.15 L 204.86,416.82 L 205.09,418.37 L 205.49,419.83 L 206.05,422.03 L 206.29,423.02 L 206.53,424.38 L 206.61,424.97 L 206.56,425.63 L 206.16,426.00 L 206.06,426.00 L 205.73,426.24 L 205.55,426.40 L 205.11,426.90 L 203.62,429.06 L 203.13,429.90 L 202.58,431.57 L 202.37,432.41 L 202.39,434.04 L 202.48,434.84 L 203.06,436.35 L 204.58,438.44 L 204.99,438.85 L 205.67,439.32 L 206.02,439.49 L 206.83,439.41 L 207.29,439.28 L 208.59,438.54 L 208.96,438.31 L 209.86,437.71 L 210.34,437.38 L 211.48,436.59 L 212.58,435.81 L 214.45,434.57 L 215.36,433.98 L 217.16,432.91 L 218.10,432.38 L 220.30,431.23 L 220.89,430.93 L 222.22,430.26 L 224.50,429.15 L 226.15,428.35 L 229.10,426.48 L 229.76,426.03 L 230.79,425.19 L 231.74,424.15 L 232.15,423.46 L 233.09,422.75 L 234.66,422.70 L 235.18,422.90 L 235.71,422.89 L 235.67,422.28 L 235.58,422.13 L 235.68,421.74 L 235.78,421.53 L 236.21,421.05 L 238.47,419.58 L 239.56,419.06 L 241.03,418.24 L 241.66,417.82 L 242.40,416.81 L 242.70,416.23 L 242.99,414.50 L 243.05,414.00 L 243.13,412.77 L 243.23,410.53 L 243.27,409.52 L 243.25,407.89 L 243.22,407.13 L 243.06,405.98 L 242.96,405.45 L 242.64,404.70 L 241.97,403.96 L 241.57,403.71 L 241.16,403.30 L 241.27,403.02 L 241.39,403.01 L 241.37,402.59 L 241.33,402.33 L 241.05,401.49 L 240.88,401.03 L 240.39,399.91 L 240.13,399.33 L 239.52,398.08 L 238.90,396.82 L 237.56,394.51 L 237.25,394.00 L 236.68,393.21 L 236.02,392.51 L 235.74,392.34 L 235.30,391.39 L 235.00,389.56 L 235.00,388.93 L 234.57,387.57 L 233.54,386.03 L 233.14,385.70 L 232.33,384.61 L 231.46,382.88 L 231.29,382.34 L 230.31,380.79 L 228.42,378.51 L 227.76,377.85 L 226.71,376.20 L 226.49,375.80 L 226.19,375.03 L 226.00,374.05 L 226.00,373.48 L 225.78,372.60 L 225.24,372.00 L 225.13,372.00 L 224.93,371.77 L 224.84,371.62 L 224.67,371.13 L 224.36,369.05 L 224.32,368.24 L 223.80,366.49 L 222.62,364.48 L 222.17,364.03 L 221.48,362.61 L 221.00,360.40 L 221.00,359.68 L 220.51,358.45 L 219.25,357.28 L 218.77,357.10 L 217.63,356.29 L 216.19,354.82 L 215.83,354.32 L 214.75,353.53 L 214.70,353.52 L 215.20,353.61 L 216.23,353.71 L 218.38,353.86 L 219.52,353.87 L 221.80,353.84 L 222.87,353.76 L 224.95,353.56 L 225.80,353.39 L 228.34,352.26 L 228.98,351.64 L 229.25,351.25 L 229.75,350.41 L 229.91,350.00 L 229.79,351.22 L 229.49,353.34 L 229.27,354.50 L 229.26,356.72 L 229.86,359.34 L 230.16,359.94 L 230.93,361.60 L 231.98,364.00 L 232.26,364.69 L 232.97,366.21 L 233.94,368.00 L 234.20,368.41 L 234.78,369.90 L 235.49,372.37 L 235.66,373.16 L 236.09,374.23 L 236.19,374.43 L 236.40,374.66 L 236.67,374.67 L 236.82,374.51 L 237.43,374.63 L 238.48,375.34 L 238.66,375.52 L 239.14,376.21 L 239.39,376.60 L 239.96,377.61 L 240.55,378.68 L 241.79,381.31 L 242.39,382.62 L 243.35,385.06 L 243.55,385.61 L 243.82,386.53 L 244.00,387.50 L 244.00,387.85 L 244.44,388.75 L 245.50,390.00 L 245.71,390.17 L 246.09,390.77 L 246.27,391.11 L 246.56,391.96 L 247.00,394.93 L 247.00,395.81 L 247.41,397.64 L 247.57,398.13 L 248.03,399.22 L 248.29,399.79 L 248.99,401.10 L 249.38,401.79 L 250.38,403.39 L 250.91,404.24 L 252.24,406.21 L 252.95,407.24 L 254.65,409.66 L 257.66,413.85 L 258.19,414.58 L 258.65,415.88 L 258.77,416.51 L 258.37,417.71 L 258.06,418.32 L 256.74,419.55 L 253.65,421.58 L 252.64,422.15 L 251.28,423.29 L 251.02,423.55 L 250.74,424.00 L 250.74,424.49 L 250.95,424.72 L 250.92,424.87 L 250.28,424.62 L 249.93,424.42 L 248.68,424.55 L 248.00,424.69 L 246.38,425.35 L 245.56,425.73 L 243.97,426.74 L 242.05,428.43 L 241.70,428.86 L 240.63,429.54 L 239.03,430.00 L 238.75,430.00 L 237.77,430.33 L 237.23,430.54 L 235.84,431.22 L 235.11,431.59 L 233.47,432.53 L 232.62,433.03 L 230.86,434.13 L 229.09,435.27 L 225.80,437.64 L 225.05,438.21 L 223.79,439.27 L 222.41,440.63 L 221.84,441.32 L 219.94,442.76 L 216.91,444.37 L 215.71,444.81 L 213.31,445.89 L 212.11,446.46 L 209.83,447.73 L 208.72,448.38 L 206.72,449.75 L 204.21,451.81 L 203.73,452.27 L 203.05,453.06 L 202.76,453.45 L 202.43,454.20 L 202.31,454.57 L 202.28,455.39 L 202.54,456.81 L 202.58,456.95 L 202.66,457.49 L 202.69,457.81 L 202.77,458.69 L 202.80,459.16 L 202.87,460.35 L 202.91,460.98 L 202.97,462.45 L 203.04,463.99 L 203.16,467.83 L 203.22,469.86 L 203.32,474.55 L 203.37,476.98 L 203.46,482.33 L 203.50,485.07 L 203.58,490.90 L 203.65,496.81 L 203.73,509.30 L 203.74,512.41 L 203.76,518.58 L 203.77,521.63 L 203.76,527.54 L 203.76,530.45 L 203.73,535.92 L 203.72,538.58 L 203.67,543.43 L 203.64,545.76 L 203.57,549.81 L 203.53,551.71 L 203.44,554.77 L 203.41,555.46 L 203.36,556.63 L 203.33,557.18 L 203.27,558.04 L 203.24,558.42 L 203.17,558.95 L 203.06,559.34 L 202.77,559.63 L 202.29,560.98 L 201.92,563.45 L 201.91,563.87 L 201.66,564.99 L 201.51,565.58 L 201.02,566.93 L 198.96,571.00 L 198.16,572.24 L 196.33,575.24 L 195.89,575.98 L 195.08,577.36 L 194.08,579.12 L 193.73,579.75 L 193.01,580.79 L 192.64,581.27 L 191.85,582.02 L 191.44,582.36 L 190.54,582.86 L 189.05,583.34 L 188.21,583.51 L 186.90,584.17 L 186.62,584.35 L 186.24,584.74 L 186.00,585.31 L 186.00,585.60 L 185.67,586.18 L 185.46,586.47 L 184.80,587.01 L 184.07,587.55 L 182.03,588.38 L 180.98,588.73 L 178.93,588.99 L 178.46,589.01 L 177.66,588.89 L 177.29,588.79 L 176.76,588.43 L 176.61,588.28 L 176.49,587.24 L 176.62,585.16 L 176.71,584.60 L 176.72,583.74 L 176.69,583.35 L 176.41,582.75 L 176.23,582.47 L 175.57,582.01 L 174.07,581.33 L 173.49,581.11 L 172.54,580.85 L 172.09,580.75 L 171.34,580.72 L 169.30,581.57 L 168.69,582.04 L 167.01,582.61 L 166.14,582.84 L 164.32,582.94 L 163.44,582.93 L 161.95,582.57 L 161.63,582.45 L 161.12,582.13 L 160.64,581.51 L 160.55,581.27 L 160.58,580.77 L 160.63,580.52 L 160.95,580.02 L 161.14,579.77 L 161.73,579.27 L 162.91,578.54 L 163.56,578.21 L 164.64,577.42 L 165.14,577.01 L 165.92,576.10 L 166.27,575.62 L 166.72,574.62 L 167.00,573.04 L 167.00,572.93 L 166.78,572.69 L 166.64,572.57 L 166.19,572.32 L 164.25,571.70 L 162.95,571.44 L 160.78,570.83 L 159.77,570.51 L 158.25,569.83 L 157.58,569.49 L 156.80,568.78 L 156.55,567.73 L 156.62,567.54 L 157.24,567.11 L 157.62,566.88 L 158.74,566.41 L 159.35,566.17 L 160.83,565.72 L 163.28,565.12 L 164.99,564.77 L 168.36,563.78 L 169.14,563.53 L 170.44,563.03 L 171.84,562.34 L 172.16,562.14 L 173.12,561.76 L 173.64,561.58 L 174.86,561.28 L 178.84,560.85 L 180.12,560.85 L 182.78,560.44 L 183.41,560.31 L 184.49,559.99 L 185.71,559.43 L 186.32,559.04 L 187.72,558.42 L 189.41,558.00 L 189.62,558.00 L 190.18,557.74 L 190.49,557.58 L 191.19,557.05 L 193.36,554.75 L 195.83,551.50 L 195.92,507.00 L 195.93,503.94 L 195.93,498.04 L 195.92,495.14 L 195.90,489.64 L 195.89,486.96 L 195.85,481.99 L 195.82,479.59 L 195.77,475.28 L 195.74,473.22 L 195.67,469.68 L 195.63,468.03 L 195.55,465.40 L 195.52,464.80 L 195.48,463.81 L 195.46,463.34 L 195.41,462.61 L 195.38,462.28 L 195.34,461.83 L 195.26,461.50 L 194.83,460.94 L 193.63,460.34 L 192.99,460.13 L 191.48,460.21 L 190.70,460.33 L 189.06,461.06 L 186.63,462.85 L 185.77,463.68 L 183.61,465.18 L 183.07,465.51 L 182.05,466.04 L 180.73,466.55 L 180.34,466.64 L 179.35,467.12 L 178.83,467.40 L 177.67,468.18 L 174.23,471.16 L 173.71,471.71 L 172.44,472.89 L 171.78,473.49 L 170.35,474.68 L 169.62,475.26 L 168.19,476.31 L 166.25,477.59 L 165.61,477.97 L 164.51,478.74 L 163.99,479.13 L 163.17,479.90 L 162.80,480.28 L 162.31,480.99 L 162.00,481.92 L 162.00,482.42 L 161.59,483.56 L 160.61,484.91 L 160.23,485.23 L 159.47,486.52 L 158.67,488.78 L 158.30,490.61 L 157.63,493.63 L 157.30,495.05 L 156.66,497.36 L 156.34,498.45 L 155.69,500.23 L 154.64,502.50 L 154.19,503.32 L 153.49,505.26 L 153.01,507.69 L 153.00,508.29 L 152.70,509.42 L 151.98,510.52 L 151.82,510.61 L 151.60,511.12 L 151.50,511.43 L 151.41,512.31 L 151.37,512.80 L 151.41,513.99 L 151.60,516.07 L 151.75,517.20 L 151.90,518.75 L 151.95,519.42 L 151.83,520.23 L 151.74,520.57 L 151.30,520.87 L 150.20,521.00 L 149.60,521.00 L 148.54,520.43 L 147.50,519.00 L 147.33,518.45 L 146.63,517.59 L 145.43,517.00 L 145.04,517.00 L 144.42,516.66 L 144.00,515.85 L 144.00,515.68 L 143.85,515.53 L 143.75,515.48 L 143.43,515.54 L 142.00,516.50 L 141.45,517.00 L 140.59,518.29 L 140.00,520.05 L 140.00,520.71 L 139.53,521.62 L 139.23,522.00 L 138.32,522.34 L 137.83,522.43 L 136.70,522.14 L 134.98,520.98 L 134.38,520.38 L 133.51,519.62 L 133.12,519.31 L 132.60,519.10 L 132.38,519.07 L 132.13,519.40 L 132.00,520.50 L 132.00,520.95 L 131.83,521.56 L 131.72,521.81 L 131.36,522.06 L 131.16,522.14 L 130.66,522.05 L 130.40,521.97 L 129.82,521.60 L 129.22,521.16 L 127.96,519.56 L 126.37,516.35 L 125.92,515.04 L 125.37,512.94 L 125.16,511.94 L 125.12,510.19 L 125.17,509.32 L 125.66,507.55 L 127.00,504.50 L 127.55,503.42 L 128.41,501.31 L 128.59,500.82 L 128.84,500.01 L 129.00,499.15 L 129.00,498.76 L 129.44,497.81 L 130.51,496.61 L 130.93,496.30 L 131.72,495.11 L 132.49,493.06 L 132.55,492.73 L 133.20,491.65 L 133.59,491.05 L 134.76,489.58 L 135.39,488.81 L 136.91,487.12 L 137.70,486.27 L 139.40,484.53 L 140.26,483.67 L 141.97,482.06 L 142.81,481.29 L 144.36,479.98 L 145.10,479.38 L 146.30,478.54 L 147.55,478.00 L 147.92,478.00 L 148.90,477.41 L 150.29,476.00 L 150.67,475.45 L 152.21,474.27 L 154.86,472.90 L 155.74,472.59 L 157.41,471.56 L 157.79,471.29 L 158.41,470.72 L 159.06,469.89 L 159.34,469.36 L 160.49,468.55 L 162.53,468.00 L 162.87,468.00 L 163.78,467.74 L 164.27,467.58 L 165.37,467.04 L 168.75,464.73 L 169.26,464.29 L 170.56,463.28 L 171.24,462.76 L 172.72,461.72 L 173.47,461.21 L 174.96,460.26 L 177.00,459.07 L 178.24,458.41 L 181.01,456.68 L 181.67,456.26 L 182.87,455.43 L 184.33,454.33 L 185.10,453.69 L 186.70,452.68 L 187.08,452.47 L 187.72,452.18 L 188.44,452.00 L 188.62,452.00 L 189.17,451.66 L 189.47,451.45 L 190.20,450.75 L 192.60,447.75 L 193.54,446.35 L 194.81,443.07 L 195.34,441.38 L 195.77,437.82 L 195.87,436.04 L 195.43,432.60 L 195.26,431.77 L 194.77,430.19 L 193.77,428.01 L 191.70,424.42 L 193.85,418.21 L 194.35,416.76 L 195.03,414.09 L 195.18,413.36 L 195.41,411.71 L 195.52,410.83 L 195.68,408.70 L 195.75,407.56 L 195.85,404.74 L 195.89,403.23 L 195.95,399.51 L 195.96,398.52 L 195.97,396.33 L 195.98,395.19 L 195.99,392.70 L 195.99,391.41 L 196.00,388.60 L 196.00,383.98 L 196.00,382.04 L 195.99,378.48 L 195.99,376.75 L 195.97,373.57 L 195.95,372.02 L 195.92,369.21 L 195.89,367.85 L 195.84,365.37 L 195.81,364.18 L 195.72,362.02 L 195.68,360.98 L 195.57,359.12 L 195.46,357.33 L 195.14,354.52 L 194.96,353.23 L 194.50,351.30 L 194.24,350.43 L 193.60,349.18 L 193.26,348.63 L 192.42,347.88 L 191.75,347.54 M 211.32,352.22 L 212.14,352.72 L 212.26,352.78 L 212.22,352.77 L 211.87,352.62 L 211.06,352.13 L 209.17,350.56 M 208.72,350.19 L 208.53,350.04 L 208.33,349.82 M 182.45,338.82 L 184.34,341.32 L 184.21,341.16 L 182.19,338.50 L 182.06,338.28 M 179.62,334.26 L 179.86,334.73 L 179.75,334.56 L 179.55,334.16 M 178.40,332.60 L 178.83,333.12 L 179.00,333.37 L 178.66,332.93 L 178.28,332.52 M 142.38,319.16 L 148.02,322.02 L 150.94,323.28 L 156.85,325.68 L 159.90,326.70 L 166.06,328.62 L 169.22,329.40 L 172.03,330.10 L 173.59,330.51 L 174.23,330.70 L 175.42,331.07 L 175.90,331.25 L 176.80,331.61 L 177.16,331.80 L 177.93,332.29 L 176.97,331.73 L 176.60,331.55 L 175.70,331.20 L 175.21,331.03 L 174.04,330.66 L 173.41,330.48 L 171.90,330.07 L 169.21,329.40 L 166.05,328.62 L 159.89,326.70 L 156.84,325.68 L 150.94,323.28 L 148.02,322.02 L 142.38,319.16 L 140.52,318.16 M 139.60,317.67 L 139.60,317.67 L 137.60,316.43 M 3.00,101.02 L 3.46,100.43 L 3.00,101.02 L 3.00,101.32 L 2.73,101.63 L 3.00,101.32 Z" fill="rgba(170,126,133,1)"/>
<path d="M 224.65,175.18 L 229.45,175.42 L 234.18,175.69 L 236.40,175.87 L 240.72,176.26 L 242.67,176.50 L 252.80,178.07 L 259.71,179.44 L 263.19,180.26 L 270.15,182.01 L 273.60,183.00 L 280.45,185.07 L 283.78,186.20 L 290.36,188.54 L 293.50,189.79 L 299.66,192.33 L 302.52,193.67 L 308.09,196.38 L 310.60,197.77 L 315.42,200.58 L 317.50,202.01 L 320.11,203.96 L 322.02,205.53 L 323.01,206.39 L 327.02,210.02 L 328.80,211.80 L 330.52,213.55 L 331.25,214.34 L 332.62,215.86 L 333.12,216.48 L 333.98,217.63 L 334.18,218.01 L 334.40,218.63 L 334.22,218.70 L 333.74,218.74 L 333.22,218.71 L 332.88,218.67 L 331.25,218.43 L 330.17,218.22 L 327.83,217.75 L 326.48,217.44 L 323.69,216.78 L 322.22,216.39 L 319.08,215.60 L 317.17,215.16 L 316.28,214.97 L 312.86,214.32 L 311.17,214.12 L 307.74,213.78 L 305.77,213.70 L 303.75,213.63 L 302.63,213.61 L 300.30,213.58 L 299.00,213.58 L 295.71,213.60 L 293.77,213.63 L 292.92,213.65 L 291.27,213.71 L 290.55,213.75 L 289.18,213.85 L 288.58,213.91 L 286.42,214.19 L 285.62,214.39 L 284.17,214.83 L 283.62,215.13 L 282.73,215.63 L 282.31,215.91 L 282.21,216.02 L 282.08,216.23 L 282.14,216.32 L 282.36,216.49 L 282.62,216.56 L 283.24,216.69 L 283.72,216.75 L 284.80,216.86 L 285.53,216.92 L 287.12,217.03 L 288.13,217.09 L 290.30,217.22 L 291.62,217.29 L 296.04,217.60 L 298.75,217.87 L 300.01,218.04 L 304.82,218.82 L 307.04,219.39 L 311.38,220.69 L 313.57,221.59 L 318.03,223.56 L 320.50,224.85 L 323.46,226.60 L 325.63,228.05 L 326.75,228.87 L 331.30,232.36 L 333.34,234.13 L 335.31,235.88 L 336.15,236.69 L 337.73,238.26 L 338.32,238.93 L 339.34,240.18 L 339.59,240.64 L 339.91,241.42 L 339.74,241.59 L 339.03,241.76 L 338.20,241.73 L 337.66,241.65 L 336.50,241.46 L 335.83,241.30 L 334.46,240.96 L 333.74,240.73 L 327.14,238.94 L 322.67,237.95 L 320.43,237.57 L 315.96,236.87 L 313.77,236.63 L 309.42,236.23 L 307.33,236.14 L 303.20,236.04 L 301.26,236.10 L 297.47,236.31 L 295.74,236.52 L 292.40,237.03 L 290.93,237.40 L 288.15,238.22 L 287.00,238.75 L 282.50,240.83 L 294.50,240.92 L 302.30,241.26 L 307.29,241.76 L 309.68,242.15 L 314.40,243.03 L 316.66,243.61 L 321.10,244.86 L 323.23,245.62 L 327.42,247.25 L 329.42,248.21 L 333.36,250.22 L 335.23,251.36 L 338.93,253.76 L 340.68,255.09 L 344.13,257.87 L 345.77,259.40 L 350.51,264.20 L 353.35,267.43 L 354.48,268.89 L 355.55,270.32 L 355.99,270.96 L 356.81,272.20 L 357.10,272.73 L 357.61,273.72 L 357.74,274.10 L 357.89,274.77 L 357.82,274.97 L 357.56,275.08 L 357.21,275.06 L 356.95,275.01 L 355.69,274.73 L 354.80,274.45 L 352.87,273.81 L 351.71,273.38 L 349.31,272.46 L 348.00,271.91 L 342.31,269.63 L 338.70,268.29 L 336.98,267.71 L 333.58,266.59 L 331.94,266.12 L 328.70,265.22 L 327.12,264.85 L 320.89,263.58 L 317.82,263.22 L 311.68,262.68 L 308.50,262.66 L 305.27,262.65 L 303.42,262.67 L 302.61,262.70 L 299.68,262.84 L 298.53,263.00 L 296.37,263.39 L 295.38,263.70 L 293.40,264.40 L 292.28,264.90 L 288.22,266.99 L 287.11,267.68 L 286.69,267.98 L 285.96,268.56 L 285.78,268.77 L 285.27,269.57 L 285.33,269.87 L 285.62,269.91 L 286.39,269.93 L 287.11,269.85 L 287.88,269.75 L 288.36,269.67 L 289.39,269.51 L 290.00,269.41 L 292.96,269.06 L 295.52,268.85 L 296.97,268.77 L 303.11,268.50 L 306.00,268.50 L 309.36,268.51 L 311.23,268.54 L 312.02,268.57 L 313.51,268.65 L 314.15,268.72 L 315.36,268.87 L 315.91,268.98 L 317.98,269.53 L 319.05,270.00 L 320.15,270.52 L 320.77,270.83 L 322.06,271.51 L 322.81,271.92 L 326.90,274.42 L 329.22,276.13 L 330.13,276.96 L 331.75,278.57 L 332.24,279.30 L 332.68,280.01 L 332.80,280.33 L 333.00,280.95 L 333.00,281.23 L 332.65,281.57 L 332.10,281.71 L 331.68,281.74 L 330.76,281.76 L 330.18,281.73 L 328.95,281.63 L 328.25,281.53 L 324.34,281.21 L 321.71,281.23 L 320.35,281.36 L 317.61,281.70 L 316.16,282.01 L 313.20,282.71 L 311.61,283.21 L 308.35,284.30 L 306.57,285.01 L 302.92,286.52 L 300.91,287.44 L 296.77,289.40 L 294.49,290.55 L 289.78,292.98 L 287.17,294.39 L 283.06,296.43 L 280.05,297.78 L 278.43,298.44 L 275.10,299.74 L 273.34,300.38 L 269.74,301.63 L 267.85,302.23 L 260.09,304.57 L 255.97,305.61 L 247.60,307.58 L 243.30,308.39 L 241.03,308.78 L 239.65,308.96 L 236.74,309.31 L 235.13,309.48 L 228.33,310.08 L 224.85,310.28 L 221.38,310.46 L 219.73,310.53 L 216.52,310.63 L 215.09,310.64 L 212.35,310.65 L 211.23,310.62 L 209.19,310.51 L 208.50,310.42 L 206.59,310.17 L 204.72,309.95 L 203.59,309.81 L 198.61,309.23 L 196.00,308.94 L 185.79,307.46 L 179.11,306.15 L 175.86,305.34 L 169.43,303.63 L 166.34,302.64 L 160.23,300.56 L 157.33,299.40 L 151.64,296.98 L 148.97,295.66 L 143.76,292.95 L 141.37,291.49 L 136.73,288.50 L 134.65,286.92 L 130.66,283.69 L 128.93,282.00 L 125.05,277.82 L 122.77,274.94 L 121.79,273.45 L 119.91,270.43 L 119.12,268.85 L 117.64,265.66 L 117.04,263.99 L 115.94,260.60 L 115.53,258.82 L 114.80,255.21 L 114.57,253.31 L 114.21,249.45 L 114.16,247.41 L 114.15,243.27 L 114.27,241.09 L 115.25,232.38 L 116.37,227.05 L 117.20,224.54 L 119.04,219.60 L 120.25,217.20 L 122.87,212.42 L 124.50,210.02 L 129.39,203.80 L 133.14,199.93 L 135.25,198.13 L 139.62,194.62 L 142.03,193.01 L 147.01,189.88 L 149.71,188.47 L 155.25,185.74 L 158.23,184.53 L 164.32,182.21 L 167.57,181.21 L 174.18,179.31 L 177.67,178.53 L 184.77,177.07 L 188.50,176.51 L 193.89,175.88 L 197.98,175.54 L 200.21,175.42 L 204.79,175.21 L 207.20,175.15 L 212.08,175.06 L 214.58,175.06 Z" fill="rgba(230,112,162,1)"/>
<path d="M 0.77,99.45 L 0.56,100.50 L 0.43,101.27 L 0.39,101.57 L 0.33,102.09 L 0.33,102.25 L 0.35,102.49 L 0.40,102.49 L 0.50,102.42 L 0.58,102.24 L 1.27,101.52 L 1.83,101.40 L 1.29,101.52 L 0.66,102.24 L 0.49,102.68 L 0.26,102.83 L 0.09,102.00 L 0.08,101.79 L 0.17,101.19 L 0.24,100.87 L 0.47,100.10 L 0.83,99.26 M 9.87,101.93 L 9.39,102.00 L 8.69,102.00 L 7.04,101.70 L 4.93,100.96 L 8.36,101.94 M 13.41,101.22 L 13.04,101.32 L 13.74,101.09 M 17.00,99.06 L 17.00,99.19 L 16.78,99.49 L 16.64,99.64 L 16.19,99.96 L 15.68,100.28 L 14.68,100.71 L 15.43,100.23 L 16.40,99.55 L 16.81,99.15 L 17.12,98.80 M 14.43,60.49 L 14.85,62.28 L 15.14,63.07 L 15.32,63.29 L 15.70,63.62 L 15.94,63.64 L 16.47,63.58 L 16.81,63.43 L 21.41,62.21 L 24.45,62.15 L 25.90,62.48 L 28.75,63.39 L 30.05,64.20 L 32.55,66.05 L 33.61,67.31 L 34.93,69.06 L 35.48,70.07 L 35.61,70.61 L 35.79,71.71 L 35.77,72.39 L 35.65,73.86 L 35.50,74.83 L 34.83,79.29 L 38.84,78.93 L 38.62,78.95 L 38.03,79.02 L 37.03,79.18 L 36.08,79.37 L 34.57,80.05 L 33.82,80.47 L 32.20,81.93 L 31.76,82.36 L 30.73,83.43 L 28.91,85.40 L 27.56,86.86 L 25.31,89.32 L 24.25,90.48 L 22.52,92.39 L 21.71,93.28 L 20.42,94.70 L 19.83,95.36 L 18.93,96.39 L 18.52,96.86 L 18.24,97.19 L 18.47,96.80 L 18.64,96.36 L 18.60,96.26 L 18.44,96.12 L 18.23,96.15 L 17.71,96.25 L 17.31,96.37 L 13.90,97.27 L 12.03,97.62 L 11.21,97.68 L 9.63,97.71 L 8.85,97.61 L 7.27,97.34 L 6.40,97.10 L 3.76,96.53 L 2.56,96.53 L 2.15,96.77 L 1.78,97.11 L 1.92,96.85 L 2.56,95.23 L 2.70,94.86 L 2.88,94.20 L 3.00,93.48 L 3.00,93.39 L 3.10,92.99 L 3.16,92.76 L 3.38,92.12 L 3.63,91.41 L 4.42,89.38 L 4.86,88.28 L 5.96,85.65 L 7.84,81.34 L 8.51,79.85 L 9.79,76.97 L 10.41,75.58 L 11.51,73.10 L 12.03,71.93 L 12.82,70.13 L 12.99,69.74 L 13.26,69.12 L 13.53,68.50 L 13.64,68.22 L 13.86,66.97 L 13.96,66.25 L 14.14,64.29 L 14.22,63.25 L 14.34,60.84 L 14.36,60.10 M 56.84,72.89 L 55.74,73.63 L 56.87,72.86 M 70.78,54.00 L 68.51,58.19 L 67.37,60.19 L 65.11,63.68 L 63.97,65.35 L 61.66,68.21 L 60.49,69.56 L 58.07,71.83 L 57.40,72.41 L 58.10,71.79 L 60.52,69.52 L 61.69,68.17 L 63.99,65.31 L 65.13,63.65 L 67.39,60.16 L 68.52,58.16 L 70.78,53.99 M 18.46,39.60 L 16.23,44.24 L 15.50,46.59 L 14.87,48.79 L 15.01,47.94 L 15.23,46.84 L 15.99,44.70 L 16.21,44.15 L 16.76,42.93 L 17.74,40.88 L 18.51,39.32 L 19.34,37.95 M 22.80,32.90 L 20.00,36.85 L 20.33,36.31 L 21.29,34.82 L 23.48,31.96 L 24.16,31.12 M 28.34,26.71 L 24.55,30.64 L 24.61,30.56 L 27.12,27.89 L 28.41,26.58 L 29.15,25.93 M 31.41,23.96 L 32.61,22.95 L 34.38,21.67 M 39.26,18.47 L 40.37,17.83 L 41.99,16.92 L 45.34,15.37 L 50.50,13.45 L 42.37,16.75 Z" fill="rgba(234,195,215,1)"/>
<path d="M 2.86,106.17 L 2.94,106.46 L 2.98,107.25 L 2.99,107.73 L 2.55,108.49 L 1.50,109.00 L 1.09,109.00 L 0.46,108.49 L 0.21,108.17 L 0.08,107.25 L 0.09,106.94 L 0.15,106.54 L 0.18,106.37 L 0.27,106.24 L 0.32,106.21 L 0.45,106.35 L 0.70,106.86 L 0.81,107.15 L 1.01,107.51 L 1.11,107.65 L 1.30,107.73 L 1.40,107.73 L 1.64,107.51 L 2.11,106.86 L 2.27,106.60 L 2.53,106.28 L 2.64,106.16 L 2.79,106.14 M 18.60,96.26 L 18.64,96.36 L 18.47,96.80 L 17.87,97.84 L 17.57,98.31 L 16.81,99.15 L 16.40,99.55 L 15.43,100.23 L 14.43,100.87 L 12.06,101.64 L 10.85,101.93 L 8.36,101.94 L 4.93,100.96 L 4.25,100.60 L 3.46,100.43 L 3.00,101.02 L 3.00,101.32 L 2.73,101.63 L 2.09,101.55 L 1.83,101.40 L 1.27,101.52 L 0.58,102.24 L 0.50,102.42 L 0.40,102.49 L 0.35,102.49 L 0.33,102.25 L 0.33,102.09 L 0.39,101.57 L 0.43,101.27 L 0.56,100.50 L 0.77,99.45 L 1.21,98.02 L 1.45,97.41 L 2.15,96.77 L 2.56,96.53 L 3.76,96.53 L 6.40,97.10 L 7.27,97.34 L 8.85,97.61 L 9.63,97.71 L 11.21,97.68 L 12.03,97.62 L 13.90,97.27 L 17.31,96.37 L 17.71,96.25 L 18.23,96.15 L 18.44,96.12 M 45.72,44.43 L 47.19,45.12 L 47.77,45.61 L 48.84,46.69 L 49.22,47.33 L 49.86,48.69 L 50.01,49.42 L 50.21,50.91 L 50.12,51.67 L 49.84,53.19 L 49.51,53.90 L 48.71,55.31 L 48.12,55.92 L 46.80,57.09 L 45.93,57.54 L 44.50,58.30 L 44.03,58.51 L 43.21,58.83 L 42.86,58.82 L 42.15,58.70 L 41.67,58.46 L 40.57,57.87 L 39.70,57.40 L 37.48,55.72 L 36.42,54.40 L 36.09,53.68 L 35.58,52.22 L 35.52,51.47 L 35.52,49.97 L 35.70,49.26 L 36.18,47.85 L 36.59,47.22 L 37.53,46.03 L 38.15,45.55 L 39.51,44.69 L 40.34,44.42 L 42.09,44.00 L 43.10,44.00 M 40.95,47.58 L 40.00,49.00 L 39.71,49.54 L 39.45,50.58 L 39.38,51.09 L 39.49,52.01 L 39.58,52.46 L 39.98,53.21 L 40.21,53.56 L 40.82,54.09 L 41.15,54.32 L 41.90,54.57 L 42.28,54.66 L 43.09,54.58 L 43.49,54.49 L 44.28,54.01 L 44.66,53.72 L 45.35,52.81 L 45.55,52.48 L 45.77,51.90 L 45.85,51.61 L 45.79,51.04 L 45.73,50.75 L 45.39,50.13 L 44.55,49.06 L 43.97,48.42 L 43.05,47.61 L 42.62,47.29 L 41.91,47.12 L 41.57,47.11 Z" fill="rgba(5,1,4,1)"/>
<path d="M 213.50,353.29 L 213.22,353.22 L 212.52,352.91 L 212.14,352.72 L 211.32,352.22 L 208.88,350.34 L 208.30,349.79 L 207.22,349.03 L 206.66,348.69 L 205.30,348.26 L 204.54,348.07 L 202.44,347.86 L 201.85,347.82 L 200.46,347.75 L 198.01,347.68 L 189.77,347.50 L 185.78,343.01 L 184.69,341.77 L 182.45,338.82 L 181.93,338.10 L 181.03,336.76 L 180.03,335.07 L 179.62,334.26 L 178.83,333.12 L 178.40,332.60 L 177.16,331.80 L 176.80,331.61 L 175.90,331.25 L 175.42,331.07 L 174.23,330.70 L 173.59,330.51 L 172.03,330.10 L 169.22,329.40 L 166.06,328.62 L 159.90,326.70 L 156.85,325.68 L 150.94,323.28 L 148.02,322.02 L 142.38,319.16 L 139.60,317.67 L 134.25,314.35 L 131.62,312.63 L 126.58,308.88 L 124.11,306.95 L 119.40,302.76 L 117.09,300.62 L 112.74,296.02 L 106.62,288.67 L 105.05,286.61 L 102.28,282.64 L 100.96,280.66 L 98.66,276.80 L 97.57,274.87 L 95.72,271.04 L 94.85,269.12 L 93.41,265.23 L 92.74,263.28 L 91.70,259.25 L 91.22,257.21 L 90.53,252.97 L 90.23,250.81 L 89.87,246.26 L 89.67,239.00 L 89.68,236.01 L 90.02,230.28 L 90.26,227.44 L 91.11,221.89 L 91.61,219.12 L 93.05,213.56 L 93.85,210.75 L 95.94,204.98 L 97.08,202.04 L 99.91,195.87 L 100.67,194.29 L 102.33,191.03 L 103.19,189.38 L 105.06,185.95 L 106.03,184.21 L 108.12,180.59 L 109.19,178.75 L 111.51,174.92 L 112.70,172.97 L 115.25,168.90 L 119.36,162.50 L 121.85,158.67 L 126.36,151.25 L 128.53,147.59 L 132.41,140.50 L 134.26,136.99 L 137.51,130.22 L 139.05,126.87 L 141.67,120.41 L 142.90,117.21 L 144.89,111.05 L 145.81,108.00 L 147.18,102.13 L 147.79,99.23 L 148.54,93.64 L 148.98,85.57 L 148.98,82.82 L 148.44,77.38 L 148.08,74.69 L 146.89,69.42 L 146.22,66.81 L 144.43,61.81 L 143.46,59.34 L 141.13,54.70 L 139.89,52.43 L 137.06,48.24 L 135.59,46.21 L 132.31,42.57 L 130.62,40.83 L 126.96,37.84 L 121.08,34.20 L 119.22,33.27 L 115.43,31.80 L 113.53,31.13 L 109.72,30.19 L 107.82,29.78 L 104.06,29.35 L 102.20,29.19 L 98.58,29.27 L 96.79,29.37 L 93.39,29.96 L 91.72,30.31 L 88.60,31.40 L 87.09,32.00 L 84.35,33.58 L 80.73,36.51 L 80.54,36.70 L 80.05,37.32 L 79.79,37.67 L 79.18,38.57 L 78.54,39.53 L 77.00,42.11 L 76.21,43.48 L 74.49,46.63 L 71.93,51.64 L 70.78,53.99 L 68.52,58.16 L 67.39,60.16 L 65.13,63.65 L 63.99,65.31 L 61.69,68.17 L 60.52,69.52 L 58.10,71.79 L 56.88,72.86 L 54.31,74.59 L 52.99,75.39 L 50.21,76.64 L 48.78,77.20 L 45.73,78.00 L 40.78,78.75 L 34.83,79.29 L 35.50,74.83 L 35.65,73.86 L 35.77,72.39 L 35.79,71.71 L 35.61,70.61 L 35.48,70.07 L 34.93,69.06 L 33.61,67.31 L 32.55,66.05 L 30.05,64.20 L 28.75,63.39 L 25.90,62.48 L 24.45,62.15 L 21.41,62.21 L 16.81,63.43 L 16.47,63.58 L 15.94,63.64 L 15.70,63.62 L 15.32,63.29 L 15.14,63.07 L 14.85,62.28 L 14.43,60.49 L 14.22,59.38 L 14.04,57.10 L 13.98,55.95 L 14.10,53.63 L 14.19,52.46 L 14.59,50.12 L 14.83,48.94 L 15.50,46.59 L 16.23,44.24 L 18.46,39.60 L 19.68,37.31 L 22.80,32.90 L 24.45,30.74 L 28.34,26.71 L 30.38,24.75 L 34.93,21.25 L 37.28,19.58 L 42.37,16.75 L 50.50,13.45 L 51.60,13.11 L 54.10,12.24 L 55.37,11.79 L 57.98,10.79 L 59.28,10.29 L 61.69,9.29 L 64.74,7.91 L 65.89,7.36 L 68.44,6.29 L 69.74,5.77 L 72.54,4.80 L 75.39,3.85 L 81.50,2.30 L 84.57,1.59 L 90.64,0.63 L 92.13,0.43 L 94.98,0.18 L 99.00,0.02 L 100.19,0.02 L 102.78,0.17 L 104.11,0.26 L 106.90,0.58 L 109.73,0.94 L 115.68,2.11 L 118.65,2.77 L 124.41,4.42 L 125.81,4.86 L 128.47,5.80 L 132.17,7.30 L 134.32,8.25 L 138.46,10.50 L 140.50,11.67 L 144.42,14.33 L 146.36,15.72 L 150.03,18.77 L 151.83,20.35 L 155.23,23.76 L 156.90,25.51 L 159.99,29.26 L 161.49,31.17 L 164.25,35.22 L 165.59,37.28 L 167.99,41.59 L 171.14,48.34 L 171.90,50.19 L 173.30,54.17 L 173.98,56.20 L 175.19,60.47 L 176.36,64.79 L 178.07,73.85 L 178.44,76.12 L 179.01,80.63 L 179.26,82.88 L 179.57,87.27 L 179.70,89.44 L 179.75,93.61 L 179.50,99.50 L 179.30,101.94 L 178.59,107.24 L 178.19,109.94 L 177.12,115.62 L 176.55,118.48 L 175.18,124.34 L 174.47,127.27 L 172.86,133.10 L 172.03,135.99 L 170.23,141.60 L 169.32,144.36 L 167.39,149.55 L 166.42,152.08 L 164.42,156.66 L 161.41,162.61 L 160.84,163.60 L 159.90,165.28 L 159.45,166.08 L 158.74,167.41 L 158.41,168.04 L 157.90,169.06 L 157.68,169.53 L 157.38,170.27 L 157.25,170.61 L 157.13,171.11 L 157.09,171.34 L 157.15,171.64 L 157.87,172.00 L 157.99,172.00 L 158.91,171.69 L 159.47,171.49 L 161.10,170.84 L 161.98,170.49 L 164.11,169.59 L 167.62,168.06 L 170.42,166.83 L 176.29,164.58 L 179.27,163.50 L 185.43,161.60 L 188.53,160.70 L 194.87,159.17 L 204.46,157.33 L 206.15,157.07 L 210.00,156.66 L 211.99,156.49 L 216.33,156.26 L 218.54,156.17 L 223.18,156.11 L 225.53,156.10 L 230.31,156.21 L 235.10,156.35 L 244.38,157.11 L 246.62,157.34 L 250.81,157.91 L 256.50,158.92 L 259.89,159.64 L 266.85,161.48 L 270.34,162.47 L 277.43,164.79 L 280.98,166.00 L 288.08,168.75 L 291.62,170.17 L 298.63,173.29 L 302.11,174.90 L 308.92,178.35 L 312.28,180.11 L 318.77,183.83 L 321.96,185.72 L 328.02,189.66 L 336.50,195.77 L 337.78,196.76 L 339.83,198.19 L 340.80,198.83 L 342.56,199.71 L 343.44,200.10 L 345.33,200.61 L 348.81,201.17 L 352.22,201.59 L 359.14,203.03 L 362.58,203.84 L 369.26,205.97 L 372.53,207.12 L 378.58,209.80 L 380.03,210.50 L 382.75,211.98 L 386.50,214.31 L 387.10,214.71 L 388.46,215.74 L 389.16,216.29 L 390.64,217.51 L 392.13,218.77 L 395.05,221.49 L 395.75,222.15 L 397.00,223.41 L 397.59,224.01 L 398.57,225.09 L 399.01,225.60 L 399.62,226.41 L 400.00,227.21 L 400.00,227.50 L 399.65,227.81 L 399.48,227.86 L 398.86,227.86 L 398.49,227.84 L 397.35,227.69 L 396.70,227.59 L 394.89,227.27 L 393.89,227.09 L 391.25,226.57 L 390.53,226.43 L 388.92,226.11 L 388.08,225.94 L 386.20,225.56 L 385.23,225.36 L 383.07,224.92 L 379.50,224.19 L 377.86,223.85 L 374.86,223.25 L 373.41,222.96 L 370.78,222.44 L 369.51,222.19 L 367.24,221.76 L 366.14,221.55 L 364.22,221.20 L 363.31,221.04 L 361.73,220.78 L 360.99,220.67 L 359.76,220.50 L 359.19,220.42 L 358.29,220.34 L 357.88,220.31 L 357.32,220.31 L 357.08,220.33 L 356.83,220.42 L 356.75,220.48 L 356.83,220.67 L 356.90,220.77 L 357.29,221.04 L 357.52,221.19 L 358.21,221.55 L 358.59,221.75 L 359.59,222.20 L 360.12,222.44 L 361.40,222.98 L 362.08,223.26 L 363.65,223.90 L 366.33,224.95 L 368.69,225.87 L 373.54,228.10 L 375.99,229.27 L 380.92,231.96 L 383.39,233.36 L 388.29,236.45 L 395.50,241.47 L 396.56,242.26 L 398.93,244.14 L 400.14,245.12 L 402.69,247.27 L 405.25,249.47 L 410.19,253.98 L 411.35,255.06 L 413.41,257.07 L 414.38,258.03 L 415.94,259.66 L 416.64,260.42 L 417.53,261.52 L 417.70,261.76 L 417.89,262.10 L 417.91,262.41 L 417.83,262.49 L 417.12,262.41 L 416.69,262.34 L 415.41,261.98 L 414.71,261.77 L 413.03,261.18 L 410.23,260.09 L 409.34,259.73 L 407.21,258.92 L 406.08,258.50 L 403.53,257.60 L 402.20,257.14 L 399.30,256.17 L 397.81,255.68 L 394.64,254.66 L 391.42,253.63 L 384.50,251.53 L 381.01,250.49 L 374.02,248.49 L 370.58,247.52 L 364.14,245.78 L 362.59,245.38 L 359.71,244.64 L 358.31,244.29 L 355.78,243.68 L 354.57,243.40 L 352.46,242.94 L 351.47,242.73 L 349.87,242.44 L 349.14,242.32 L 348.12,242.23 L 347.34,242.33 L 347.28,242.38 L 347.84,242.74 L 348.21,242.95 L 349.49,243.57 L 350.21,243.90 L 352.04,244.70 L 355.22,246.00 L 360.20,247.98 L 369.89,252.47 L 374.66,254.78 L 383.62,259.78 L 385.80,261.05 L 389.94,263.64 L 391.97,264.94 L 395.78,267.57 L 397.64,268.89 L 401.07,271.53 L 405.73,275.47 L 407.35,276.95 L 410.15,279.73 L 411.46,281.08 L 413.48,283.43 L 413.93,283.98 L 414.65,284.95 L 414.97,285.41 L 415.43,286.19 L 415.62,286.55 L 415.78,287.11 L 415.68,287.65 L 415.64,287.69 L 415.15,287.62 L 414.83,287.56 L 413.83,287.31 L 413.27,287.17 L 411.81,286.76 L 411.03,286.53 L 409.18,285.98 L 408.22,285.69 L 406.03,285.01 L 404.91,284.66 L 402.45,283.88 L 394.32,281.21 L 391.85,280.38 L 387.09,278.83 L 384.75,278.08 L 380.34,276.71 L 378.19,276.05 L 374.21,274.87 L 372.28,274.31 L 368.83,273.36 L 367.17,272.91 L 364.32,272.20 L 362.98,271.88 L 360.83,271.44 L 359.85,271.25 L 358.49,271.11 L 357.42,271.24 L 357.36,271.31 L 357.75,271.72 L 358.02,271.97 L 358.98,272.68 L 359.52,273.06 L 360.93,273.97 L 363.39,275.47 L 364.27,275.99 L 366.34,277.31 L 367.40,278.00 L 369.62,279.52 L 370.72,280.29 L 372.82,281.83 L 375.56,283.97 L 377.33,285.43 L 380.99,288.98 L 382.78,290.78 L 385.94,294.38 L 386.66,295.25 L 387.89,296.84 L 388.46,297.60 L 389.33,298.92 L 389.70,299.53 L 390.10,300.46 L 390.10,301.30 L 390.03,301.37 L 389.69,301.42 L 389.49,301.43 L 388.89,301.39 L 388.22,301.32 L 386.23,300.92 L 385.13,300.69 L 382.44,299.99 L 377.86,298.65 L 374.08,297.48 L 366.96,295.36 L 365.23,294.86 L 361.95,293.92 L 360.35,293.46 L 357.34,292.63 L 355.88,292.24 L 353.20,291.53 L 351.91,291.20 L 349.61,290.63 L 348.51,290.37 L 346.63,289.96 L 344.36,289.52 L 340.21,288.86 L 329.86,299.19 L 328.49,300.55 L 325.88,303.02 L 324.59,304.22 L 322.07,306.40 L 319.57,308.52 L 314.55,312.09 L 311.99,313.79 L 306.41,316.82 L 304.95,317.56 L 301.83,319.01 L 296.77,321.18 L 294.95,321.92 L 291.03,323.33 L 289.03,324.03 L 284.80,325.32 L 282.65,325.96 L 278.15,327.13 L 275.88,327.70 L 271.17,328.73 L 266.42,329.73 L 256.52,331.26 L 241.50,332.79 L 230.50,333.50 L 230.79,340.45 L 230.83,341.55 L 230.84,343.49 L 230.83,344.42 L 230.73,346.05 L 230.66,346.83 L 230.44,348.18 L 230.31,348.82 L 229.95,349.90 L 229.75,350.41 L 229.25,351.25 L 228.98,351.64 L 228.34,352.26 L 225.80,353.39 L 224.95,353.56 L 222.87,353.76 L 221.80,353.84 L 219.52,353.87 L 218.38,353.86 L 216.23,353.71 L 215.20,353.61 M 243.30,308.39 L 247.60,307.58 L 255.97,305.61 L 260.09,304.57 L 267.85,302.23 L 269.74,301.63 L 273.34,300.38 L 275.10,299.74 L 278.43,298.44 L 280.05,297.78 L 283.06,296.43 L 287.17,294.39 L 289.78,292.98 L 294.49,290.55 L 296.77,289.40 L 300.91,287.44 L 302.92,286.52 L 306.57,285.01 L 308.35,284.30 L 311.61,283.21 L 313.20,282.71 L 316.16,282.01 L 317.61,281.70 L 320.35,281.36 L 321.71,281.23 L 324.34,281.21 L 328.25,281.53 L 328.95,281.63 L 330.18,281.73 L 330.76,281.76 L 331.68,281.74 L 332.10,281.71 L 332.65,281.57 L 333.00,281.23 L 333.00,280.95 L 332.80,280.33 L 332.68,280.01 L 332.24,279.30 L 331.75,278.57 L 330.13,276.96 L 329.22,276.13 L 326.90,274.42 L 322.81,271.92 L 322.06,271.51 L 320.77,270.83 L 320.15,270.52 L 319.05,270.00 L 317.98,269.53 L 315.91,268.98 L 315.36,268.87 L 314.15,268.72 L 313.51,268.65 L 312.02,268.57 L 311.23,268.54 L 309.36,268.51 L 306.00,268.50 L 303.11,268.50 L 296.97,268.77 L 295.52,268.85 L 292.96,269.06 L 290.00,269.41 L 289.39,269.51 L 288.36,269.67 L 287.88,269.75 L 287.11,269.85 L 286.39,269.93 L 285.62,269.91 L 285.33,269.87 L 285.27,269.57 L 285.78,268.77 L 285.96,268.56 L 286.69,267.98 L 287.11,267.68 L 288.22,266.99 L 292.28,264.90 L 293.40,264.40 L 295.38,263.70 L 296.37,263.39 L 298.53,263.00 L 299.68,262.84 L 302.61,262.70 L 303.42,262.67 L 305.27,262.65 L 308.50,262.66 L 311.68,262.68 L 317.82,263.22 L 320.89,263.58 L 327.12,264.85 L 328.70,265.22 L 331.94,266.12 L 333.58,266.59 L 336.98,267.71 L 338.70,268.29 L 342.31,269.63 L 348.00,271.91 L 349.31,272.46 L 351.71,273.38 L 352.87,273.81 L 354.80,274.45 L 355.69,274.73 L 356.95,275.01 L 357.21,275.06 L 357.56,275.08 L 357.82,274.97 L 357.89,274.77 L 357.74,274.10 L 357.61,273.72 L 357.10,272.73 L 356.81,272.20 L 355.99,270.96 L 355.55,270.32 L 354.48,268.89 L 353.35,267.43 L 350.51,264.20 L 345.77,259.40 L 344.13,257.87 L 340.68,255.09 L 338.93,253.76 L 335.23,251.36 L 333.36,250.22 L 329.42,248.21 L 327.42,247.25 L 323.23,245.62 L 321.10,244.86 L 316.66,243.61 L 314.40,243.03 L 309.68,242.15 L 307.29,241.76 L 302.30,241.26 L 294.50,240.92 L 282.50,240.83 L 287.00,238.75 L 288.15,238.22 L 290.93,237.40 L 292.40,237.03 L 295.74,236.52 L 297.47,236.31 L 301.26,236.10 L 303.20,236.04 L 307.33,236.14 L 309.42,236.23 L 313.77,236.63 L 315.96,236.87 L 320.43,237.57 L 322.67,237.95 L 327.14,238.94 L 333.74,240.73 L 334.46,240.96 L 335.83,241.30 L 336.50,241.46 L 337.66,241.65 L 338.20,241.73 L 339.03,241.76 L 339.74,241.59 L 339.91,241.42 L 339.59,240.64 L 339.34,240.18 L 338.32,238.93 L 337.73,238.26 L 336.15,236.69 L 335.31,235.88 L 333.34,234.13 L 331.30,232.36 L 326.75,228.87 L 325.63,228.05 L 323.46,226.60 L 320.50,224.85 L 318.03,223.56 L 313.57,221.59 L 311.38,220.69 L 307.04,219.39 L 304.82,218.82 L 300.01,218.04 L 298.75,217.87 L 296.04,217.60 L 291.62,217.29 L 290.30,217.22 L 288.13,217.09 L 287.12,217.03 L 285.53,216.92 L 284.80,216.86 L 283.72,216.75 L 283.24,216.69 L 282.62,216.56 L 282.36,216.49 L 282.14,216.32 L 282.08,216.23 L 282.21,216.02 L 282.31,215.91 L 282.73,215.63 L 283.62,215.13 L 284.17,214.83 L 285.62,214.39 L 286.42,214.19 L 288.58,213.91 L 289.18,213.85 L 290.55,213.75 L 291.27,213.71 L 292.92,213.65 L 293.77,213.63 L 295.71,213.60 L 299.00,213.58 L 300.30,213.58 L 302.63,213.61 L 303.75,213.63 L 305.77,213.70 L 307.74,213.78 L 311.17,214.12 L 312.86,214.32 L 316.28,214.97 L 317.17,215.16 L 319.08,215.60 L 322.22,216.39 L 323.69,216.78 L 326.48,217.44 L 327.83,217.75 L 330.17,218.22 L 331.25,218.43 L 332.88,218.67 L 333.22,218.71 L 333.74,218.74 L 334.22,218.70 L 334.40,218.63 L 334.18,218.01 L 333.98,217.63 L 333.12,216.48 L 332.62,215.86 L 331.25,214.34 L 330.52,213.55 L 328.80,211.80 L 327.02,210.02 L 323.01,206.39 L 322.02,205.53 L 320.11,203.96 L 317.50,202.01 L 315.42,200.58 L 310.60,197.77 L 308.09,196.38 L 302.52,193.67 L 299.66,192.33 L 293.50,189.79 L 290.36,188.54 L 283.78,186.20 L 280.45,185.07 L 273.60,183.00 L 270.15,182.01 L 263.19,180.26 L 259.71,179.44 L 252.80,178.07 L 242.67,176.50 L 240.72,176.26 L 236.40,175.87 L 234.18,175.69 L 229.45,175.42 L 224.65,175.18 L 214.58,175.06 L 212.08,175.06 L 207.20,175.15 L 204.79,175.21 L 200.21,175.42 L 197.98,175.54 L 193.89,175.88 L 188.50,176.51 L 184.77,177.07 L 177.67,178.53 L 174.18,179.31 L 167.57,181.21 L 164.32,182.21 L 158.23,184.53 L 155.25,185.74 L 149.71,188.47 L 147.01,189.88 L 142.03,193.01 L 139.62,194.62 L 135.25,198.13 L 133.14,199.93 L 129.39,203.80 L 124.50,210.02 L 122.87,212.42 L 120.25,217.20 L 119.04,219.60 L 117.20,224.54 L 116.37,227.05 L 115.25,232.38 L 114.27,241.09 L 114.15,243.27 L 114.16,247.41 L 114.21,249.45 L 114.57,253.31 L 114.80,255.21 L 115.53,258.82 L 115.94,260.60 L 117.04,263.99 L 117.64,265.66 L 119.12,268.85 L 119.91,270.43 L 121.79,273.45 L 122.77,274.94 L 125.05,277.82 L 128.93,282.00 L 130.66,283.69 L 134.65,286.92 L 136.73,288.50 L 141.37,291.49 L 143.76,292.95 L 148.97,295.66 L 151.64,296.98 L 157.33,299.40 L 160.23,300.56 L 166.34,302.64 L 169.43,303.63 L 175.86,305.34 L 179.11,306.15 L 185.79,307.46 L 196.00,308.94 L 198.61,309.23 L 203.59,309.81 L 204.72,309.95 L 206.59,310.17 L 208.50,310.42 L 209.19,310.51 L 211.23,310.62 L 212.35,310.65 L 215.09,310.64 L 216.52,310.63 L 219.73,310.53 L 221.38,310.46 L 224.85,310.28 L 228.33,310.08 L 235.13,309.48 L 236.74,309.31 L 239.65,308.96 L 241.03,308.78 M 45.93,57.54 L 46.80,57.09 L 48.12,55.92 L 48.71,55.31 L 49.51,53.90 L 49.84,53.19 L 50.12,51.67 L 50.21,50.91 L 50.01,49.42 L 49.86,48.69 L 49.22,47.33 L 48.84,46.69 L 47.77,45.61 L 47.19,45.12 L 45.72,44.43 L 43.10,44.00 L 42.09,44.00 L 40.34,44.42 L 39.51,44.69 L 38.15,45.55 L 37.53,46.03 L 36.59,47.22 L 36.18,47.85 L 35.70,49.26 L 35.52,49.97 L 35.52,51.47 L 35.58,52.22 L 36.09,53.68 L 36.42,54.40 L 37.48,55.72 L 39.70,57.40 L 40.57,57.87 L 41.67,58.46 L 42.15,58.70 L 42.86,58.82 L 43.21,58.83 L 44.03,58.51 L 44.50,58.30 Z" fill="rgba(241,137,183,1)"/>
</g>
</svg>