<svg xmlns="http://www.w3.org/2000/svg" width="329" height="153" viewBox="0 0 329 153">
<g>
<path d="M 261.59,85.14 L 264.87,85.20 L 266.53,85.27 L 269.84,85.44 L 271.42,85.56 L 274.52,85.83 L 275.89,85.99 L 278.51,86.35 L 279.55,86.56 L 281.44,86.99 L 282.02,87.23 L 284.26,88.44 L 285.79,89.51 L 286.56,90.16 L 289.64,93.05 L 291.07,94.79 L 293.80,98.43 L 294.90,100.36 L 295.94,102.29 L 296.37,103.25 L 297.15,105.16 L 297.43,106.09 L 298.53,109.40 L 299.25,111.25 L 299.63,112.00 L 300.39,113.39 L 300.79,113.92 L 301.62,114.88 L 302.07,115.21 L 302.83,115.67 L 302.44,115.55 L 301.02,114.52 L 300.64,114.07 L 299.27,113.53 L 296.64,113.38 L 296.03,113.45 L 295.11,113.66 L 294.69,113.78 L 294.09,114.14 L 293.83,114.35 L 293.50,114.93 L 293.21,116.11 L 293.00,117.91 L 292.06,121.37 L 291.52,123.06 L 289.98,126.25 L 289.14,127.80 L 287.07,130.65 L 285.98,132.02 L 283.45,134.47 L 282.14,135.64 L 279.23,137.61 L 277.74,138.54 L 274.52,139.98 L 272.88,140.63 L 269.44,141.48 L 264.09,142.00 L 262.88,142.00 L 260.55,141.82 L 259.40,141.69 L 257.18,141.26 L 256.09,141.02 L 253.98,140.34 L 252.95,139.97 L 250.95,139.05 L 249.97,138.56 L 248.09,137.38 L 247.16,136.77 L 245.38,135.35 L 244.51,134.60 L 242.84,132.93 L 240.44,130.14 L 235.79,124.14 L 231.69,127.11 L 227.60,130.07 L 112.00,129.85 L 109.46,132.87 L 109.11,133.28 L 107.99,134.28 L 107.38,134.79 L 105.87,135.90 L 100.80,138.94 L 99.70,139.49 L 97.51,140.39 L 96.42,140.80 L 94.26,141.41 L 93.18,141.68 L 91.03,142.01 L 89.96,142.14 L 87.81,142.20 L 86.74,142.19 L 84.60,141.96 L 83.53,141.81 L 81.37,141.30 L 80.29,141.01 L 78.12,140.22 L 77.03,139.79 L 74.84,138.72 L 73.72,138.15 L 71.77,136.96 L 70.83,136.36 L 69.17,135.08 L 68.37,134.43 L 66.95,133.01 L 65.00,130.65 L 64.57,130.06 L 63.86,129.10 L 63.52,128.65 L 62.93,127.94 L 62.37,127.28 L 61.40,126.57 L 60.91,126.30 L 59.74,126.18 L 57.29,126.40 L 56.50,126.50 L 55.26,126.58 L 54.69,126.60 L 53.82,126.50 L 53.42,126.42 L 52.85,126.13 L 52.23,125.45 L 52.16,125.33 L 51.81,125.08 L 51.61,124.95 L 51.00,124.69 L 50.33,124.43 L 48.33,123.90 L 47.24,123.64 L 44.56,123.13 L 43.16,122.88 L 40.27,122.46 L 44.53,123.03 L 47.00,123.31 L 48.00,123.35 L 49.85,123.35 L 50.62,123.20 L 52.05,122.81 L 52.67,122.42 L 53.86,121.51 L 54.42,120.83 L 55.55,119.30 L 56.15,118.27 L 57.40,116.00 L 58.13,114.56 L 59.69,111.44 L 60.64,109.53 L 62.97,105.03 L 64.54,102.19 L 65.27,100.95 L 66.67,98.61 L 67.26,97.73 L 67.82,96.91 L 68.06,96.59 L 68.51,96.01 L 68.68,95.82 L 71.33,93.64 L 73.50,92.33 L 74.74,91.75 L 77.31,90.66 L 78.71,90.21 L 81.57,89.36 L 83.06,89.04 L 86.07,88.47 L 87.59,88.30 L 90.64,88.03 L 92.13,88.01 L 95.08,88.07 L 96.48,88.23 L 99.21,88.64 L 100.45,88.99 L 103.92,90.33 L 106.13,91.55 L 107.17,92.32 L 109.21,93.96 L 110.16,94.93 L 112.03,96.97 L 112.88,98.13 L 114.55,100.55 L 115.31,101.89 L 116.76,104.66 L 117.40,106.17 L 118.63,109.27 L 119.15,110.93 L 120.14,114.34 L 120.53,116.15 L 121.19,119.11 L 121.60,120.93 L 121.78,121.71 L 122.12,123.16 L 122.25,123.69 L 122.48,124.58 L 122.53,124.75 L 122.78,124.98 L 123.20,125.08 L 124.24,125.28 L 125.10,125.36 L 127.07,125.51 L 128.45,125.58 L 129.90,125.64 L 130.74,125.66 L 132.48,125.72 L 133.46,125.74 L 135.51,125.79 L 136.65,125.81 L 139.03,125.85 L 140.34,125.86 L 143.06,125.89 L 144.55,125.91 L 147.63,125.93 L 149.30,125.94 L 152.76,125.96 L 154.63,125.97 L 158.48,125.98 L 160.56,125.99 L 164.82,125.99 L 167.12,126.00 L 171.81,126.00 L 225.71,126.00 L 228.29,123.61 L 229.84,121.83 L 230.60,120.45 L 230.89,119.47 L 231.17,118.44 L 231.30,117.81 L 231.55,116.49 L 231.67,115.70 L 231.91,114.03 L 232.04,113.04 L 232.29,110.95 L 232.43,109.72 L 233.19,105.62 L 233.99,102.95 L 234.51,101.67 L 235.63,99.14 L 236.31,97.95 L 237.73,95.63 L 238.53,94.56 L 240.20,92.49 L 241.11,91.57 L 242.99,89.82 L 243.99,89.08 L 246.04,87.69 L 247.11,87.15 L 249.27,86.18 L 250.39,85.88 L 253.14,85.43 L 255.57,85.23 L 257.00,85.19 L 259.98,85.12 M 88.98,96.09 L 87.53,96.18 L 83.98,96.63 L 81.82,97.13 L 80.85,97.49 L 78.98,98.27 L 78.16,98.77 L 76.58,99.82 L 75.90,100.46 L 74.61,101.79 L 74.07,102.56 L 73.08,104.16 L 72.69,105.07 L 71.98,106.95 L 71.74,107.99 L 71.32,110.14 L 71.22,111.32 L 71.33,116.32 L 71.98,119.25 L 72.60,120.54 L 74.05,123.01 L 75.09,124.10 L 77.39,126.20 L 78.87,127.13 L 81.31,128.49 L 82.57,128.94 L 85.13,129.68 L 86.42,129.84 L 89.00,130.00 L 90.28,129.87 L 92.80,129.48 L 94.01,129.09 L 96.38,128.18 L 97.48,127.54 L 99.60,126.13 L 100.54,125.26 L 102.34,123.39 L 103.08,122.29 L 104.44,119.99 L 104.94,118.68 L 105.68,115.96 L 105.91,114.09 L 105.91,113.15 L 105.82,111.25 L 105.66,110.31 L 105.27,108.44 L 104.96,107.53 L 104.28,105.74 L 103.83,104.88 L 102.87,103.21 L 102.29,102.43 L 101.07,100.93 L 100.37,100.27 L 98.92,98.99 L 98.10,98.45 L 95.74,97.04 L 94.37,96.44 L 93.63,96.28 L 92.10,96.05 L 91.11,96.04 M 264.28,96.00 L 260.53,96.31 L 258.22,96.81 L 257.16,97.21 L 255.12,98.09 L 254.21,98.66 L 252.46,99.89 L 251.71,100.63 L 250.29,102.20 L 249.70,103.09 L 248.63,104.96 L 248.23,106.00 L 247.52,108.14 L 247.31,109.31 L 247.00,111.71 L 247.00,113.00 L 247.50,117.73 L 248.34,120.48 L 249.04,121.68 L 250.61,123.97 L 251.69,124.97 L 254.04,126.88 L 255.53,127.72 L 258.04,128.90 L 259.46,129.27 L 262.39,129.87 L 263.89,129.94 L 266.86,129.94 L 268.23,129.71 L 270.87,129.09 L 271.93,128.54 L 274.24,127.07 L 275.66,125.88 L 276.31,125.20 L 277.56,123.79 L 278.11,123.02 L 279.15,121.43 L 279.59,120.60 L 280.40,118.90 L 280.71,118.03 L 281.27,116.26 L 281.44,115.38 L 281.70,113.61 L 281.72,112.74 L 281.67,111.01 L 281.52,110.18 L 280.67,106.95 L 279.91,104.99 L 279.43,104.11 L 278.41,102.42 L 277.80,101.68 L 276.52,100.27 L 275.79,99.67 L 274.27,98.54 L 273.42,98.08 L 271.67,97.24 L 270.70,96.93 L 268.72,96.39 L 267.65,96.23 L 265.46,96.00 M 308.40,115.17 L 308.24,115.22 L 308.50,115.12 M 164.01,65.01 L 165.04,65.03 L 165.45,65.05 L 166.83,65.18 L 167.21,65.33 L 167.78,65.69 L 167.85,66.00 L 167.89,66.72 L 167.82,67.25 L 167.65,68.14 L 167.47,68.45 L 167.01,69.00 L 166.59,69.17 L 165.59,69.47 L 164.80,69.57 L 163.01,69.73 L 161.74,69.80 L 158.95,69.87 L 157.57,69.81 L 157.08,69.72 L 156.23,69.49 L 155.96,69.30 L 155.51,68.89 L 155.40,68.60 L 155.15,66.89 L 155.56,66.06 L 156.09,65.78 L 157.36,65.31 L 158.36,65.18 L 159.42,65.07 L 160.05,65.04 L 161.37,65.00 L 162.13,65.00 Z" fill="rgba(1,0,0,1)"/>
<path d="M 264.17,102.22 L 266.66,102.72 L 268.20,103.18 L 271.18,104.59 L 272.74,105.93 L 273.31,106.79 L 274.30,108.65 L 274.58,109.79 L 275.00,112.18 L 275.00,113.58 L 274.84,115.54 L 274.55,116.67 L 274.28,117.20 L 273.65,118.25 L 273.18,118.81 L 272.14,119.96 L 271.43,120.63 L 269.51,122.23 L 268.51,122.77 L 266.51,123.67 L 265.51,123.87 L 263.52,124.12 L 262.57,124.02 L 260.68,123.65 L 259.81,123.25 L 258.12,122.32 L 257.38,121.65 L 255.97,120.18 L 255.41,119.27 L 254.38,117.31 L 254.04,116.16 L 253.47,113.76 L 253.39,112.41 L 253.38,110.03 L 253.54,108.79 L 253.74,108.26 L 254.22,107.23 L 254.61,106.71 L 255.51,105.64 L 256.15,105.00 L 258.55,103.07 L 260.18,102.30 L 261.09,102.16 L 263.01,102.05 M 91.85,102.40 L 92.30,102.55 L 93.00,102.92 L 93.00,103.21 L 93.41,103.77 L 94.00,104.00 L 94.38,104.00 L 96.06,104.77 L 97.08,105.97 L 97.49,106.82 L 98.24,108.66 L 98.48,109.73 L 98.83,111.94 L 98.82,113.09 L 98.65,115.40 L 98.38,116.67 L 98.13,117.23 L 97.55,118.34 L 97.12,118.90 L 96.15,120.05 L 95.48,120.72 L 93.63,122.32 L 92.64,122.84 L 90.64,123.71 L 89.62,123.89 L 87.58,124.09 L 86.59,123.95 L 84.64,123.54 L 83.74,123.13 L 82.00,122.16 L 81.26,121.49 L 79.86,120.03 L 79.33,119.13 L 78.40,117.23 L 78.15,116.13 L 77.81,113.85 L 77.90,112.58 L 78.11,110.33 L 78.29,109.05 L 78.41,108.50 L 78.97,106.56 L 79.43,105.87 L 80.48,104.68 L 81.25,104.26 L 82.98,103.53 L 84.17,103.24 L 87.59,102.56 L 89.60,102.33 L 90.40,102.33 M 262.92,106.17 L 262.29,106.28 L 261.09,106.72 L 260.51,106.97 L 259.47,107.66 L 258.98,108.04 L 258.18,108.95 L 257.81,109.43 L 257.31,110.53 L 257.00,112.37 L 257.00,113.02 L 257.55,114.74 L 258.88,117.12 L 259.43,117.82 L 260.97,118.75 L 261.79,119.14 L 263.63,119.41 L 264.56,119.46 L 266.40,119.05 L 267.29,118.76 L 268.83,117.65 L 269.45,117.09 L 270.19,115.37 L 270.48,114.46 L 270.57,112.40 L 270.54,111.37 L 270.01,109.48 L 269.84,109.04 L 269.38,108.29 L 268.52,107.39 L 267.97,106.99 L 266.75,106.46 L 266.13,106.24 L 264.85,106.07 L 264.20,106.03 M 87.55,106.44 L 86.25,106.66 L 85.65,106.89 L 84.49,107.42 L 83.99,107.79 L 83.06,108.59 L 82.69,109.07 L 82.04,110.08 L 81.85,110.65 L 81.56,111.82 L 81.57,112.45 L 81.71,113.73 L 81.96,114.39 L 83.04,116.66 L 83.86,118.01 L 84.20,118.37 L 85.07,119.04 L 85.63,119.19 L 86.81,119.37 L 87.47,119.31 L 88.83,119.08 L 89.52,118.84 L 90.90,118.28 L 91.55,117.91 L 92.80,117.12 L 93.34,116.66 L 94.33,115.70 L 94.67,115.19 L 95.25,114.17 L 95.33,113.65 L 95.34,112.63 L 95.08,112.16 L 94.47,110.69 L 94.23,109.77 L 94.24,109.50 L 94.05,109.01 L 93.74,108.62 L 93.51,108.42 L 92.40,107.57 L 91.69,107.22 L 89.60,106.52 L 88.22,106.38 M 310.85,113.86 L 309.30,114.75 L 308.50,115.12 L 307.07,115.63 L 306.38,115.85 L 306.38,115.85 L 307.07,115.63 L 308.49,115.12 L 309.29,114.75 L 310.77,113.91 L 311.11,113.54 M 299.25,111.25 L 299.63,112.00 L 300.39,113.39 L 300.79,113.92 L 301.62,114.89 L 302.07,115.21 L 302.17,115.27 L 302.07,115.21 L 301.62,114.88 L 300.79,113.92 L 300.39,113.39 L 299.63,112.00 L 299.25,111.25 L 298.53,109.40 L 297.43,106.09 L 298.53,109.40 M 311.48,113.09 L 311.42,113.17 L 311.57,112.77 M 311.66,112.41 L 311.64,112.49 L 311.67,112.39 M 309.44,76.24 L 309.62,76.83 L 309.98,78.18 L 310.53,80.50 L 311.04,82.70 L 311.79,87.03 L 311.95,88.03 L 312.15,89.70 L 312.26,91.50 L 312.25,91.91 L 312.21,93.41 L 312.20,94.26 L 312.17,96.41 L 312.08,104.00 L 312.07,105.16 L 312.05,107.09 L 312.04,107.99 L 311.99,109.44 L 311.96,110.11 L 311.93,110.48 L 311.97,109.80 L 311.98,109.23 L 311.99,108.03 L 311.99,107.31 L 311.92,104.86 L 311.81,103.38 L 311.72,102.77 L 311.54,101.64 L 311.43,101.25 L 311.19,100.62 L 311.07,100.54 L 310.54,99.88 L 310.14,99.10 L 309.93,98.57 L 309.49,97.41 L 309.27,96.73 L 308.82,95.29 L 308.60,94.49 L 307.73,91.09 L 307.36,89.28 L 306.69,85.64 L 306.48,83.95 L 306.23,81.15 L 306.20,79.76 L 306.27,79.24 L 306.47,78.32 L 306.65,77.97 L 307.09,77.34 L 307.41,77.08 L 308.53,75.63 L 308.92,74.69 M 296.05,61.77 L 298.29,62.78 L 299.34,63.34 L 301.26,64.87 L 301.76,65.30 L 302.82,66.33 L 303.92,67.47 L 303.35,66.97 L 300.12,64.30 L 298.54,63.26 L 296.99,62.29 L 296.29,61.94 L 295.64,61.64 M 264.43,58.08 L 266.40,58.10 L 269.86,58.16 L 271.52,58.20 L 274.42,58.29 L 275.81,58.34 L 278.25,58.47 L 279.42,58.54 L 280.29,58.61 L 279.59,58.58 L 277.32,58.46 L 276.05,58.41 L 273.43,58.31 L 272.02,58.27 L 269.13,58.19 L 267.60,58.15 L 262.14,58.06 M 233.28,56.71 L 233.28,56.71 L 233.32,56.73 Z" fill="rgba(86,85,85,1)"/>
<path d="M 181.25,22.80 L 191.93,22.95 L 195.18,23.01 L 196.68,23.05 L 199.58,23.11 L 200.87,23.14 L 203.34,23.21 L 204.39,23.24 L 206.36,23.31 L 207.13,23.34 L 208.51,23.41 L 208.96,23.44 L 209.68,23.50 L 209.77,23.53 L 210.49,24.19 L 211.14,25.07 L 211.51,25.67 L 212.29,26.99 L 212.70,27.76 L 213.52,29.36 L 213.91,30.23 L 215.65,34.02 L 216.69,36.32 L 217.16,37.35 L 218.07,39.36 L 218.47,40.26 L 219.24,42.00 L 219.58,42.77 L 220.82,45.65 L 221.26,46.78 L 222.05,48.85 L 222.29,49.65 L 222.68,51.10 L 222.75,51.67 L 222.81,52.70 L 222.73,53.13 L 222.15,54.64 L 221.59,55.51 L 219.95,58.00 L 187.64,58.00 L 181.14,57.99 L 176.99,57.96 L 175.05,57.95 L 171.24,57.91 L 169.50,57.89 L 166.12,57.83 L 164.63,57.80 L 161.78,57.74 L 160.58,57.71 L 158.34,57.63 L 157.48,57.59 L 155.94,57.51 L 155.46,57.47 L 154.71,57.38 L 154.67,57.33 L 154.53,56.85 L 154.45,56.20 L 154.41,55.73 L 154.33,54.68 L 154.29,54.03 L 154.23,52.65 L 154.20,51.84 L 154.09,48.34 L 154.05,46.27 L 154.00,41.93 L 154.00,39.58 L 154.00,22.50 M 147.00,58.00 L 120.15,58.00 L 115.66,58.00 L 112.93,58.00 L 111.69,57.99 L 109.29,57.98 L 108.21,57.98 L 106.12,57.96 L 105.18,57.95 L 101.72,57.91 L 100.36,57.87 L 97.87,57.78 L 96.93,57.72 L 95.24,57.57 L 94.62,57.47 L 93.52,57.26 L 93.13,57.12 L 91.95,56.50 L 91.53,56.03 L 89.93,53.28 L 89.14,50.83 L 88.89,49.33 L 88.50,46.18 L 88.45,44.40 L 88.48,40.71 L 88.66,38.72 L 89.74,32.89 L 90.31,31.20 L 90.66,30.43 L 91.39,28.95 L 91.82,28.29 L 92.71,27.02 L 93.21,26.47 L 94.25,25.42 L 94.83,24.98 L 96.02,24.16 L 96.67,23.84 L 98.00,23.26 L 98.72,23.06 L 99.93,22.85 L 101.14,22.71 L 101.92,22.65 L 103.60,22.53 L 104.60,22.47 L 106.68,22.36 L 107.85,22.31 L 110.28,22.22 L 111.59,22.19 L 114.29,22.12 L 115.72,22.09 L 121.63,22.01 L 124.75,22.01 L 147.00,22.00 Z" fill="rgba(132,132,132,1)"/>
<path d="M 20.92,107.50 L 21.08,109.66 L 21.10,111.34 L 21.05,112.04 L 21.23,114.59 L 21.60,116.45 L 21.87,117.15 L 22.91,118.91 L 23.46,119.35 L 23.86,119.55 L 24.75,119.93 L 25.36,120.10 L 26.70,120.45 L 27.58,120.62 L 29.49,120.97 L 30.71,121.16 L 33.32,121.55 L 34.94,121.77 L 37.50,122.12 L 34.91,121.85 L 33.16,121.68 L 29.66,121.43 L 27.94,121.31 L 24.82,121.19 L 21.00,121.19 L 19.52,121.25 L 20.07,113.50 L 20.31,110.55 L 20.47,108.98 L 20.55,108.44 L 20.70,107.52 L 20.77,107.35 L 20.88,107.22 M 153.42,17.24 L 215.43,17.50 L 223.61,36.36 L 224.73,38.95 L 226.89,43.79 L 227.41,44.95 L 228.41,47.12 L 228.89,48.17 L 229.78,50.08 L 230.22,50.99 L 230.99,52.58 L 231.35,53.34 L 231.97,54.56 L 232.26,55.12 L 232.71,55.92 L 233.15,56.58 L 233.28,56.71 L 233.77,56.94 L 234.05,57.05 L 234.90,57.24 L 235.37,57.33 L 236.64,57.48 L 237.34,57.56 L 239.10,57.68 L 240.05,57.73 L 242.37,57.82 L 243.61,57.86 L 246.56,57.92 L 248.12,57.95 L 251.77,57.99 L 258.10,58.03 L 261.34,58.05 L 267.60,58.15 L 269.13,58.19 L 272.02,58.27 L 273.43,58.31 L 276.05,58.41 L 277.32,58.46 L 279.59,58.58 L 280.10,58.60 L 279.51,58.58 L 277.25,58.48 L 275.97,58.45 L 273.33,58.38 L 271.88,58.35 L 268.91,58.31 L 267.31,58.29 L 260.65,58.27 L 257.02,58.30 L 232.50,58.50 L 232.22,71.86 L 232.12,76.25 L 232.05,78.64 L 232.01,79.60 L 231.92,81.38 L 231.85,82.08 L 231.70,83.38 L 231.60,83.89 L 231.38,84.84 L 231.23,85.22 L 230.91,85.93 L 230.70,86.24 L 229.73,87.42 L 229.00,88.16 L 227.30,90.07 L 226.91,90.72 L 226.76,91.11 L 226.49,91.93 L 226.39,92.45 L 226.21,93.58 L 226.14,94.30 L 226.03,95.86 L 225.99,96.84 L 225.91,98.96 L 225.88,100.28 L 225.81,103.09 L 225.78,104.80 L 225.50,118.50 L 222.00,120.27 L 220.75,120.80 L 219.79,121.10 L 219.17,121.21 L 217.84,121.43 L 216.96,121.51 L 215.06,121.66 L 213.82,121.71 L 211.13,121.80 L 209.43,121.82 L 207.67,121.85 L 206.68,121.85 L 204.64,121.86 L 203.50,121.86 L 201.16,121.86 L 199.86,121.86 L 197.19,121.85 L 195.72,121.84 L 192.69,121.82 L 191.04,121.81 L 187.64,121.78 L 185.78,121.77 L 180.50,121.72 L 177.27,121.69 L 175.80,121.68 L 172.95,121.65 L 171.66,121.63 L 169.16,121.59 L 168.03,121.57 L 165.86,121.53 L 164.89,121.51 L 163.01,121.47 L 162.18,121.44 L 159.13,121.33 L 157.95,121.26 L 155.83,121.11 L 155.05,121.02 L 153.65,120.81 L 153.16,120.69 L 152.31,120.42 L 152.01,120.26 L 151.49,119.92 L 151.28,119.72 L 150.74,119.00 L 150.44,118.35 L 150.31,117.89 L 150.07,116.84 L 149.97,116.12 L 149.79,114.51 L 149.71,113.43 L 149.56,111.08 L 149.50,109.57 L 149.43,108.00 L 149.41,107.12 L 149.35,105.30 L 149.32,104.28 L 149.27,102.18 L 149.24,101.02 L 149.19,98.62 L 149.16,97.30 L 149.11,94.59 L 149.08,93.10 L 149.03,90.04 L 149.00,88.38 L 148.89,81.15 L 148.85,76.86 L 148.84,74.97 L 148.82,71.36 L 148.83,69.81 L 148.85,66.86 L 148.88,65.62 L 148.93,63.31 L 148.98,62.38 L 149.07,60.67 L 149.13,60.04 L 149.26,58.91 L 149.33,58.56 L 149.50,58.00 L 149.59,57.92 L 150.56,57.48 L 151.16,57.49 L 151.34,57.68 L 151.47,58.41 L 151.56,59.46 L 151.60,60.24 L 151.67,61.97 L 151.71,63.06 L 151.78,65.39 L 151.81,66.75 L 151.86,69.58 L 151.89,71.17 L 151.93,74.44 L 151.95,76.20 L 151.98,79.82 L 151.99,81.73 L 152.00,85.62 L 152.00,87.63 L 152.00,92.64 L 152.00,95.68 L 152.01,97.05 L 152.01,99.71 L 152.02,100.90 L 152.03,103.20 L 152.04,104.22 L 152.06,106.19 L 152.07,107.06 L 152.10,108.73 L 152.12,109.46 L 152.21,112.11 L 152.28,113.09 L 152.42,114.83 L 152.52,115.43 L 152.74,116.48 L 152.88,116.82 L 153.19,117.39 L 153.38,117.57 L 153.78,117.88 L 154.03,118.02 L 155.30,118.31 L 156.78,118.48 L 157.80,118.55 L 160.01,118.68 L 161.34,118.73 L 164.16,118.82 L 165.76,118.86 L 169.07,118.92 L 170.87,118.93 L 174.55,118.96 L 176.49,118.96 L 184.48,118.94 L 188.59,118.89 L 196.78,118.75 L 200.63,118.65 L 204.42,118.54 L 206.20,118.47 L 209.65,118.34 L 211.22,118.26 L 214.22,118.11 L 215.52,118.02 L 217.96,117.85 L 218.93,117.75 L 220.68,117.56 L 221.26,117.45 L 222.21,117.24 L 222.35,117.13 L 223.19,115.93 L 223.57,114.66 L 223.69,113.64 L 223.81,112.54 L 223.85,111.87 L 223.92,110.44 L 223.95,109.58 L 223.99,107.77 L 224.01,106.70 L 224.02,104.44 L 224.03,103.13 L 224.04,99.00 L 224.07,96.75 L 224.10,95.84 L 224.16,94.13 L 224.22,93.44 L 224.35,92.16 L 224.44,91.64 L 224.91,89.80 L 225.33,89.04 L 226.30,87.54 L 227.03,86.57 L 228.71,84.12 L 229.41,82.61 L 229.60,81.62 L 229.77,80.58 L 229.82,79.94 L 229.92,78.58 L 229.94,77.74 L 229.98,75.95 L 229.99,74.86 L 230.00,72.54 L 230.00,71.14 L 229.98,67.84 L 229.95,65.94 L 229.92,65.11 L 229.85,63.54 L 229.80,62.85 L 229.69,61.55 L 229.61,60.97 L 229.25,58.86 L 228.97,57.96 L 228.35,56.22 L 227.91,55.32 L 226.48,52.77 L 225.59,51.58 L 225.22,51.27 L 224.55,50.86 L 224.34,50.98 L 224.15,51.15 L 224.09,51.33 L 224.00,51.74 L 224.00,52.04 L 223.82,52.64 L 223.53,53.19 L 223.33,53.51 L 222.34,54.88 L 221.71,55.56 L 221.18,56.13 L 221.59,55.51 L 222.15,54.64 L 222.73,53.13 L 222.81,52.70 L 222.75,51.67 L 222.68,51.10 L 222.29,49.65 L 222.05,48.85 L 221.26,46.78 L 220.82,45.65 L 219.58,42.77 L 219.24,42.00 L 218.47,40.26 L 218.07,39.36 L 217.16,37.35 L 216.69,36.32 L 215.65,34.02 L 213.91,30.23 L 213.52,29.36 L 212.70,27.76 L 212.29,26.99 L 211.51,25.67 L 211.14,25.07 L 210.49,24.19 L 209.77,23.53 L 209.68,23.50 L 208.96,23.44 L 208.51,23.41 L 207.13,23.34 L 206.36,23.31 L 204.39,23.24 L 203.34,23.21 L 200.87,23.14 L 199.58,23.11 L 196.68,23.05 L 195.18,23.01 L 191.93,22.95 L 181.25,22.80 L 154.00,22.50 L 154.00,28.72 L 153.95,27.39 L 153.90,26.52 L 153.79,24.97 L 153.72,24.41 L 153.56,23.44 L 153.46,23.14 L 153.24,22.63 L 153.10,22.51 L 152.45,22.36 L 151.98,22.51 L 150.49,22.64 L 150.02,22.28 L 150.05,21.93 L 150.27,21.12 L 150.64,20.61 L 151.55,19.53 L 152.25,18.94 L 152.90,18.33 L 153.07,18.00 L 152.96,17.87 L 152.59,17.63 L 152.12,17.54 L 150.98,17.37 L 150.05,17.31 L 149.05,17.25 L 148.45,17.23 L 148.31,17.22 M 53.86,121.51 L 53.41,121.85 L 53.88,121.49 M 59.69,111.44 L 58.13,114.56 L 57.40,116.00 L 56.15,118.27 L 55.55,119.30 L 54.42,120.83 L 54.07,121.26 L 54.44,120.80 L 55.56,119.27 L 56.16,118.24 L 57.41,115.98 L 58.14,114.54 L 59.69,111.43 M 284.02,88.18 L 284.84,88.61 L 286.44,89.55 L 287.21,90.12 L 288.72,91.31 L 289.47,92.01 L 290.98,93.49 L 291.77,94.35 L 294.13,96.77 L 295.40,97.85 L 295.98,98.18 L 297.14,98.72 L 297.78,98.84 L 299.12,99.00 L 299.97,99.00 L 303.83,98.67 L 305.92,98.14 L 306.68,97.75 L 307.99,96.88 L 308.31,96.34 L 308.57,95.79 L 308.61,95.49 L 308.62,94.88 L 308.52,94.56 L 308.20,93.22 L 307.92,91.91 L 307.87,91.63 L 308.60,94.49 L 308.82,95.29 L 309.27,96.73 L 309.49,97.41 L 309.93,98.57 L 310.14,99.10 L 310.54,99.88 L 311.07,100.54 L 311.19,100.62 L 311.43,101.25 L 311.54,101.64 L 311.72,102.77 L 311.81,103.38 L 311.92,104.86 L 311.99,107.31 L 311.99,108.03 L 311.98,109.23 L 311.97,109.80 L 311.92,110.73 L 311.86,111.61 L 311.58,112.75 L 311.39,113.25 L 310.77,113.91 L 309.29,114.75 L 308.49,115.12 L 307.07,115.63 L 306.38,115.85 L 305.15,116.03 L 304.56,116.08 L 303.50,115.90 L 302.99,115.77 L 302.68,115.58 L 303.84,115.94 L 304.54,115.93 L 305.93,115.75 L 306.59,115.45 L 307.87,114.70 L 308.40,114.11 L 309.18,112.97 L 309.54,112.07 L 309.66,111.53 L 309.83,110.39 L 309.86,109.70 L 309.86,108.23 L 309.81,107.36 L 309.50,102.50 L 304.63,102.19 L 302.23,102.06 L 300.92,102.03 L 300.41,102.06 L 299.46,102.14 L 299.11,102.23 L 298.48,102.46 L 298.27,102.64 L 297.91,103.05 L 297.82,103.34 L 297.69,103.97 L 297.70,104.37 L 297.77,105.25 L 297.86,105.80 L 298.07,106.97 L 298.22,107.68 L 299.31,111.35 L 299.25,111.25 L 298.53,109.40 L 297.43,106.09 L 297.15,105.16 L 296.37,103.25 L 295.94,102.29 L 294.90,100.36 L 293.80,98.43 L 291.07,94.79 L 289.64,93.05 L 286.56,90.16 L 285.79,89.51 L 284.26,88.44 L 283.04,87.78 M 271.57,85.55 L 274.46,85.80 L 275.60,85.96 L 274.52,85.83 L 271.42,85.56 L 270.62,85.50 M 253.71,85.38 L 255.24,85.25 L 255.48,85.24 M 264.73,85.19 L 266.60,85.27 L 267.20,85.30 L 266.53,85.27 L 264.87,85.20 L 262.07,85.15 M 256.45,85.20 L 256.65,85.20 L 256.76,85.19 M 259.93,85.12 L 257.46,85.18 L 259.60,85.12 M 261.27,85.13 L 261.47,85.14 L 260.67,85.13 M 306.22,80.87 L 306.19,80.42 L 306.21,80.08 M 306.37,78.80 L 306.38,78.73 L 306.38,78.71 M 309.00,74.50 L 308.53,75.63 L 307.46,77.01 L 308.52,75.42 L 309.00,74.24 M 294.94,61.32 L 296.29,61.94 L 296.99,62.29 L 298.54,63.26 L 300.12,64.30 L 302.77,66.49 L 300.04,64.27 L 298.47,63.24 L 296.93,62.27 L 296.24,61.92 L 294.92,61.32 M 219.42,58.03 L 215.95,58.00 L 219.44,58.00 M 154.53,56.85 L 154.67,57.33 L 154.71,57.38 L 155.46,57.47 L 155.94,57.51 L 155.96,57.51 L 154.50,57.50 L 154.48,56.48 M 89.95,18.13 L 89.97,18.12 L 90.05,18.10 M 253.09,85.44 L 250.39,85.88 L 252.94,85.45 Z" fill="rgba(180,13,14,1)"/>
<path d="M 92.10,96.05 L 93.63,96.28 L 94.37,96.44 L 95.74,97.04 L 98.10,98.45 L 98.92,98.99 L 100.37,100.27 L 101.07,100.93 L 102.29,102.43 L 102.87,103.21 L 103.83,104.88 L 104.28,105.74 L 104.96,107.53 L 105.27,108.44 L 105.66,110.31 L 105.82,111.25 L 105.91,113.15 L 105.91,114.09 L 105.68,115.96 L 104.94,118.68 L 104.44,119.99 L 103.08,122.29 L 102.34,123.39 L 100.54,125.26 L 99.60,126.13 L 97.48,127.54 L 96.38,128.18 L 94.01,129.09 L 92.80,129.48 L 90.28,129.87 L 89.00,130.00 L 86.42,129.84 L 85.13,129.68 L 82.57,128.94 L 81.31,128.49 L 78.87,127.13 L 77.39,126.20 L 75.09,124.10 L 74.05,123.01 L 72.60,120.54 L 71.98,119.25 L 71.33,116.32 L 71.22,111.32 L 71.32,110.14 L 71.74,107.99 L 71.98,106.95 L 72.69,105.07 L 73.08,104.16 L 74.07,102.56 L 74.61,101.79 L 75.90,100.46 L 76.58,99.82 L 78.16,98.77 L 78.98,98.27 L 80.85,97.49 L 81.82,97.13 L 83.98,96.63 L 87.53,96.18 L 88.98,96.09 L 91.11,96.04 M 267.65,96.23 L 268.72,96.39 L 270.70,96.93 L 271.67,97.24 L 273.42,98.08 L 274.27,98.54 L 275.79,99.67 L 276.52,100.27 L 277.80,101.68 L 278.41,102.42 L 279.43,104.11 L 279.91,104.99 L 280.67,106.95 L 281.52,110.18 L 281.67,111.01 L 281.72,112.74 L 281.70,113.61 L 281.44,115.38 L 281.27,116.26 L 280.71,118.03 L 280.40,118.90 L 279.59,120.60 L 279.15,121.43 L 278.11,123.02 L 277.56,123.79 L 276.31,125.20 L 275.66,125.88 L 274.24,127.07 L 271.93,128.54 L 270.87,129.09 L 268.23,129.71 L 266.86,129.94 L 263.89,129.94 L 262.39,129.87 L 259.46,129.27 L 258.04,128.90 L 255.53,127.72 L 254.04,126.88 L 251.69,124.97 L 250.61,123.97 L 249.04,121.68 L 248.34,120.48 L 247.50,117.73 L 247.00,113.00 L 247.00,111.71 L 247.31,109.31 L 247.52,108.14 L 248.23,106.00 L 248.63,104.96 L 249.70,103.09 L 250.29,102.20 L 251.71,100.63 L 252.46,99.89 L 254.21,98.66 L 255.12,98.09 L 257.16,97.21 L 258.22,96.81 L 260.53,96.31 L 264.28,96.00 L 265.46,96.00 M 261.09,102.16 L 260.18,102.30 L 258.55,103.07 L 256.15,105.00 L 255.51,105.64 L 254.61,106.71 L 254.22,107.23 L 253.74,108.26 L 253.54,108.79 L 253.38,110.03 L 253.39,112.41 L 253.47,113.76 L 254.04,116.16 L 254.38,117.31 L 255.41,119.27 L 255.97,120.18 L 257.38,121.65 L 258.12,122.32 L 259.81,123.25 L 260.68,123.65 L 262.57,124.02 L 263.52,124.12 L 265.51,123.87 L 266.51,123.67 L 268.51,122.77 L 269.51,122.23 L 271.43,120.63 L 272.14,119.96 L 273.18,118.81 L 273.65,118.25 L 274.28,117.20 L 274.55,116.67 L 274.84,115.54 L 275.00,113.58 L 275.00,112.18 L 274.58,109.79 L 274.30,108.65 L 273.31,106.79 L 272.74,105.93 L 271.18,104.59 L 268.20,103.18 L 266.66,102.72 L 264.17,102.22 L 263.01,102.05 M 89.60,102.33 L 87.59,102.56 L 84.17,103.24 L 82.98,103.53 L 81.25,104.26 L 80.48,104.68 L 79.43,105.87 L 78.97,106.56 L 78.41,108.50 L 78.29,109.05 L 78.11,110.33 L 77.90,112.58 L 77.81,113.85 L 78.15,116.13 L 78.40,117.23 L 79.33,119.13 L 79.86,120.03 L 81.26,121.49 L 82.00,122.16 L 83.74,123.13 L 84.64,123.54 L 86.59,123.95 L 87.58,124.09 L 89.62,123.89 L 90.64,123.71 L 92.64,122.84 L 93.63,122.32 L 95.48,120.72 L 96.15,120.05 L 97.12,118.90 L 97.55,118.34 L 98.13,117.23 L 98.38,116.67 L 98.65,115.40 L 98.82,113.09 L 98.83,111.94 L 98.48,109.73 L 98.24,108.66 L 97.49,106.82 L 97.08,105.97 L 96.06,104.77 L 94.38,104.00 L 94.00,104.00 L 93.41,103.77 L 93.00,103.21 L 93.00,102.92 L 92.30,102.55 L 91.85,102.40 L 90.40,102.33 M 39.24,122.35 L 40.45,122.51 L 38.38,122.24 L 37.57,122.13 M 22.81,118.69 L 23.42,119.07 L 24.79,119.76 L 25.74,120.05 L 27.84,120.61 L 29.21,120.87 L 32.18,121.37 L 34.04,121.64 L 35.69,121.87 L 34.94,121.77 L 33.32,121.55 L 30.71,121.16 L 29.49,120.97 L 27.58,120.62 L 26.70,120.45 L 25.36,120.10 L 24.75,119.93 L 23.86,119.55 L 23.46,119.35 L 22.91,118.91 L 22.73,118.60 M 21.88,79.56 L 21.57,80.46 L 20.99,82.31 L 20.76,83.33 L 20.36,85.44 L 20.21,86.62 L 19.95,89.07 L 19.87,90.46 L 19.73,93.34 L 19.69,94.96 L 19.67,99.35 L 19.73,101.89 L 19.80,102.91 L 19.94,104.75 L 20.05,105.33 L 20.15,105.85 L 20.21,106.02 L 20.33,106.28 L 20.40,106.30 L 20.75,106.75 L 20.95,107.34 L 21.02,107.74 L 21.23,109.62 L 21.18,110.77 L 21.13,113.13 L 21.05,112.04 L 21.10,111.34 L 21.08,109.66 L 20.92,107.50 L 20.88,107.22 L 20.77,107.35 L 20.70,107.52 L 20.55,108.44 L 20.47,108.98 L 20.31,110.55 L 20.07,113.50 L 19.50,121.50 L 13.50,121.50 L 13.21,113.73 L 13.18,112.95 L 13.14,111.60 L 13.13,110.95 L 13.13,109.86 L 13.14,108.82 L 13.28,107.39 L 13.37,106.76 L 13.70,106.00 L 14.46,105.38 L 14.88,105.22 L 15.55,104.30 L 16.00,102.55 L 16.00,102.24 L 16.16,101.22 L 16.26,100.66 L 16.59,99.26 L 18.00,94.50 L 18.55,92.90 L 19.42,89.63 L 19.60,88.87 L 19.86,87.56 L 20.02,86.09 L 20.03,85.18 L 20.42,83.23 L 20.67,82.24 L 21.51,80.19 L 21.99,79.15 L 22.43,78.41 M 153.65,120.81 L 153.65,120.81 L 153.42,120.75 M 150.07,116.84 L 150.31,117.89 L 150.44,118.35 L 150.74,119.00 L 151.27,119.69 L 150.74,119.01 L 150.44,118.37 L 150.32,117.92 L 150.08,116.90 L 150.07,116.82 M 89.60,106.52 L 91.69,107.22 L 92.40,107.57 L 93.51,108.42 L 93.74,108.62 L 94.05,109.01 L 94.24,109.50 L 94.23,109.77 L 94.47,110.69 L 95.08,112.16 L 95.34,112.63 L 95.33,113.65 L 95.25,114.17 L 94.67,115.19 L 94.33,115.70 L 93.34,116.66 L 92.80,117.12 L 91.55,117.91 L 90.90,118.28 L 89.52,118.84 L 88.83,119.08 L 87.47,119.31 L 86.81,119.37 L 85.63,119.19 L 85.07,119.04 L 84.20,118.37 L 83.86,118.01 L 83.04,116.66 L 81.96,114.39 L 81.71,113.73 L 81.57,112.45 L 81.56,111.82 L 81.85,110.65 L 82.04,110.08 L 82.69,109.07 L 83.06,108.59 L 83.99,107.79 L 84.49,107.42 L 85.65,106.89 L 86.25,106.66 L 87.55,106.44 L 88.22,106.38 M 223.19,115.93 L 222.35,117.13 L 222.21,117.24 L 221.26,117.45 L 220.68,117.56 L 218.93,117.75 L 217.96,117.85 L 215.52,118.02 L 214.22,118.11 L 211.22,118.26 L 209.65,118.34 L 206.20,118.47 L 204.42,118.54 L 200.63,118.65 L 196.78,118.75 L 188.59,118.89 L 184.48,118.94 L 176.49,118.96 L 174.55,118.96 L 170.87,118.93 L 169.07,118.92 L 165.76,118.86 L 164.16,118.82 L 161.34,118.73 L 160.01,118.68 L 157.80,118.55 L 156.78,118.48 L 155.30,118.31 L 155.02,118.24 L 156.42,118.40 L 157.42,118.47 L 159.62,118.60 L 160.95,118.65 L 163.77,118.75 L 165.37,118.78 L 168.68,118.84 L 170.49,118.86 L 174.19,118.89 L 176.14,118.89 L 184.19,118.88 L 188.32,118.83 L 196.58,118.70 L 200.46,118.60 L 204.28,118.50 L 206.07,118.44 L 209.56,118.31 L 211.14,118.23 L 214.17,118.08 L 215.48,118.00 L 217.94,117.83 L 218.91,117.74 L 220.68,117.55 L 221.26,117.44 L 222.22,117.24 L 222.35,117.13 L 223.19,115.93 L 223.39,115.25 M 152.00,92.73 L 152.01,95.58 L 152.01,96.88 L 152.02,99.40 L 152.02,100.54 L 152.04,102.74 L 152.05,103.73 L 152.07,105.64 L 152.08,106.50 L 152.11,108.14 L 152.13,108.87 L 152.21,111.53 L 152.27,112.54 L 152.41,114.37 L 152.49,115.03 L 152.68,116.19 L 152.80,116.59 L 152.91,116.87 L 152.88,116.82 L 152.74,116.48 L 152.52,115.43 L 152.42,114.83 L 152.28,113.09 L 152.21,112.11 L 152.12,109.46 L 152.10,108.73 L 152.07,107.06 L 152.06,106.19 L 152.04,104.22 L 152.03,103.20 L 152.02,100.90 L 152.01,99.71 L 152.01,97.05 L 152.00,95.68 L 152.00,92.64 L 152.00,88.54 M 150.64,20.61 L 150.27,21.12 L 150.05,21.93 L 150.02,22.28 L 150.49,22.64 L 151.98,22.51 L 152.45,22.36 L 153.10,22.51 L 153.24,22.63 L 153.46,23.14 L 153.56,23.44 L 153.72,24.41 L 153.79,24.97 L 153.90,26.52 L 153.95,27.39 L 154.03,29.65 L 154.07,30.89 L 154.13,33.98 L 154.23,39.69 L 154.50,57.50 L 186.96,57.76 L 215.95,58.00 L 187.40,58.00 L 180.89,58.01 L 176.73,58.03 L 174.76,58.05 L 170.91,58.08 L 169.14,58.10 L 165.70,58.15 L 164.17,58.18 L 161.24,58.24 L 159.99,58.27 L 157.65,58.34 L 156.74,58.37 L 155.09,58.45 L 154.56,58.49 L 153.69,58.57 L 153.58,58.61 L 153.11,58.98 L 152.85,59.46 L 152.75,59.87 L 152.55,60.79 L 152.47,61.47 L 152.32,62.98 L 152.27,64.02 L 152.17,66.27 L 152.13,67.73 L 152.07,70.87 L 152.05,72.82 L 152.03,74.85 L 152.03,75.96 L 152.01,78.26 L 152.01,79.53 L 152.00,82.13 L 152.00,83.55 L 152.00,86.47 L 152.00,85.62 L 151.99,81.73 L 151.98,79.82 L 151.95,76.20 L 151.93,74.44 L 151.89,71.17 L 151.86,69.58 L 151.81,66.75 L 151.78,65.39 L 151.71,63.06 L 151.67,61.97 L 151.60,60.24 L 151.56,59.46 L 151.47,58.41 L 151.34,57.68 L 151.16,57.49 L 150.56,57.48 L 149.59,57.92 L 149.50,58.00 L 149.33,58.56 L 149.26,58.91 L 149.13,60.04 L 149.07,60.67 L 148.98,62.38 L 148.93,63.31 L 148.88,65.62 L 148.85,66.86 L 148.83,69.76 L 148.74,67.32 L 148.68,66.15 L 148.55,63.99 L 148.48,63.15 L 148.32,61.60 L 148.23,61.03 L 148.05,60.03 L 147.95,59.71 L 147.73,59.19 L 147.61,59.09 L 146.87,58.85 L 145.94,58.70 L 145.27,58.63 L 143.79,58.49 L 142.86,58.42 L 140.84,58.30 L 139.64,58.24 L 137.12,58.13 L 135.68,58.08 L 132.97,58.00 L 147.00,58.00 L 147.00,22.00 L 149.09,22.00 L 150.84,20.38 M 36.72,64.55 L 33.46,66.53 L 32.00,67.59 L 30.95,68.40 L 31.17,68.21 L 32.24,67.34 L 34.49,65.79 L 38.00,63.80 L 38.20,63.70 M 51.73,59.78 L 50.63,59.91 L 48.82,60.13 L 49.09,60.08 L 50.92,59.85 L 51.89,59.73 L 54.17,59.51 L 58.23,59.13 L 54.26,59.51 M 222.42,54.80 L 221.82,55.49 L 219.64,58.00 L 219.44,58.00 L 221.71,55.56 L 222.34,54.88 L 222.92,54.07 M 93.13,57.12 L 93.52,57.26 L 94.62,57.47 L 94.93,57.52 L 92.71,57.50 L 91.98,56.51 M 88.89,49.33 L 89.14,50.83 L 89.93,53.28 L 91.20,55.48 L 90.63,54.70 L 89.55,52.91 L 89.07,51.59 L 88.93,50.71 L 88.70,48.77 L 88.66,47.52 M 225.22,51.27 L 225.59,51.58 L 226.48,52.77 L 227.91,55.32 L 226.48,52.78 L 225.60,51.59 L 225.23,51.28 L 225.15,51.22 M 90.66,30.43 L 90.31,31.20 L 89.74,32.89 L 88.71,38.43 L 88.73,37.74 L 88.77,37.04 L 88.86,35.72 L 88.92,35.17 L 89.07,34.11 L 89.17,33.65 L 89.66,31.97 L 90.06,31.19 L 90.98,29.63 L 91.23,29.28 M 177.27,121.69 L 175.80,121.68 L 172.95,121.65 L 171.66,121.63 L 169.16,121.59 L 168.03,121.57 L 165.86,121.53 L 164.88,121.51 L 163.01,121.47 L 162.18,121.44 L 159.12,121.33 L 157.95,121.26 L 155.83,121.11 L 155.05,121.02 L 154.05,120.87 L 155.05,121.02 L 155.83,121.11 L 157.95,121.26 L 159.13,121.33 L 162.18,121.44 L 163.01,121.47 L 164.89,121.51 L 165.86,121.53 L 168.03,121.57 L 169.16,121.59 L 171.66,121.63 L 172.95,121.65 L 175.80,121.68 L 177.27,121.69 L 180.50,121.72 L 185.78,121.77 L 180.50,121.72 M 90.59,17.93 L 90.98,17.83 L 91.44,17.76 L 90.98,17.83 L 90.59,17.93 L 89.95,18.13 L 89.80,18.25 L 89.95,18.13 Z" fill="rgba(244,244,243,1)"/>
<path d="M 122.53,124.75 L 122.48,124.58 L 122.25,123.69 L 122.12,123.16 L 121.78,121.71 L 121.60,120.93 L 121.19,119.11 L 120.53,116.15 L 120.14,114.34 L 119.15,110.93 L 118.63,109.27 L 117.40,106.17 L 116.76,104.66 L 115.31,101.89 L 114.55,100.55 L 112.88,98.13 L 112.03,96.97 L 110.16,94.93 L 109.21,93.96 L 107.17,92.32 L 106.13,91.55 L 103.92,90.33 L 100.45,88.99 L 99.21,88.64 L 96.48,88.23 L 95.08,88.07 L 92.13,88.01 L 90.64,88.03 L 87.59,88.30 L 86.07,88.47 L 83.06,89.04 L 81.57,89.36 L 78.71,90.21 L 77.31,90.66 L 74.74,91.75 L 73.50,92.33 L 71.33,93.64 L 68.68,95.82 L 68.51,96.01 L 68.06,96.59 L 67.82,96.91 L 67.26,97.73 L 66.67,98.61 L 65.27,100.95 L 64.54,102.19 L 62.97,105.03 L 60.64,109.53 L 59.69,111.43 L 58.14,114.54 L 57.41,115.98 L 56.16,118.24 L 55.56,119.27 L 54.44,120.80 L 53.88,121.49 L 52.71,122.40 L 52.11,122.79 L 50.71,123.20 L 49.97,123.35 L 48.18,123.37 L 47.22,123.34 L 44.85,123.08 L 40.45,122.51 L 39.24,122.35 L 37.03,122.05 L 35.97,121.91 L 34.04,121.64 L 32.18,121.37 L 29.21,120.87 L 27.84,120.61 L 25.74,120.05 L 24.79,119.76 L 23.42,119.07 L 22.81,118.69 L 22.01,117.78 L 21.67,117.28 L 21.32,116.05 L 21.18,115.39 L 21.11,113.76 L 21.18,110.77 L 21.23,109.62 L 21.02,107.74 L 20.95,107.34 L 20.75,106.75 L 20.40,106.30 L 20.33,106.28 L 20.21,106.02 L 20.15,105.85 L 20.05,105.33 L 19.94,104.75 L 19.80,102.91 L 19.73,101.89 L 19.67,99.35 L 19.69,94.96 L 19.73,93.34 L 19.87,90.46 L 19.95,89.07 L 20.21,86.62 L 20.36,85.44 L 20.76,83.33 L 20.99,82.31 L 21.57,80.46 L 21.88,79.56 L 22.67,77.89 L 23.09,77.07 L 24.11,75.51 L 24.65,74.73 L 25.93,73.18 L 28.17,70.79 L 29.22,69.74 L 32.00,67.59 L 33.46,66.53 L 36.72,64.55 L 38.37,63.61 L 41.63,62.07 L 42.42,61.72 L 43.93,61.17 L 46.00,60.56 L 46.34,60.48 L 47.74,60.27 L 48.53,60.16 L 50.63,59.91 L 51.73,59.78 L 54.26,59.51 L 58.23,59.13 L 59.20,59.05 L 60.90,58.88 L 61.71,58.79 L 63.15,58.61 L 64.54,58.42 L 66.69,57.97 L 67.69,57.73 L 69.30,57.11 L 71.43,55.91 L 72.43,55.22 L 73.83,54.08 L 74.16,53.75 L 74.78,52.92 L 75.10,52.47 L 75.76,51.26 L 76.10,50.59 L 76.90,48.82 L 77.32,47.85 L 78.33,45.34 L 78.87,43.97 L 80.19,40.54 L 80.55,39.62 L 81.33,37.57 L 82.63,34.17 L 83.40,32.15 L 84.92,28.38 L 85.67,26.56 L 87.04,23.44 L 87.37,22.72 L 87.96,21.46 L 88.25,20.87 L 88.75,19.89 L 88.98,19.45 L 89.37,18.80 L 89.80,18.25 L 89.95,18.13 L 90.59,17.93 L 90.98,17.83 L 92.14,17.66 L 92.80,17.58 L 94.55,17.44 L 95.51,17.38 L 97.91,17.27 L 99.21,17.22 L 102.33,17.15 L 103.99,17.11 L 107.91,17.06 L 109.97,17.04 L 114.74,17.02 L 122.93,17.00 L 154.48,17.00 L 151.78,19.50 L 149.09,22.00 L 125.29,22.06 L 123.33,22.06 L 119.71,22.09 L 117.95,22.11 L 114.74,22.16 L 113.18,22.19 L 110.38,22.26 L 109.03,22.30 L 106.64,22.40 L 105.50,22.45 L 103.53,22.57 L 102.60,22.64 L 101.05,22.78 L 100.34,22.86 L 99.22,23.03 L 98.04,23.31 L 97.51,23.49 L 96.40,24.09 L 95.84,24.43 L 94.73,25.30 L 91.66,28.67 L 90.98,29.63 L 90.06,31.19 L 89.66,31.97 L 89.17,33.65 L 89.07,34.11 L 88.92,35.17 L 88.86,35.72 L 88.77,37.04 L 88.73,37.74 L 88.68,39.40 L 88.64,42.37 L 88.63,43.39 L 88.63,45.16 L 88.63,45.99 L 88.66,47.42 L 88.70,48.77 L 88.93,50.71 L 89.07,51.59 L 89.55,52.91 L 90.63,54.70 L 92.71,57.50 L 119.52,57.77 L 121.65,57.79 L 125.58,57.84 L 127.49,57.88 L 130.98,57.95 L 132.66,57.99 L 135.68,58.08 L 137.12,58.13 L 139.64,58.24 L 140.84,58.30 L 142.86,58.42 L 143.79,58.49 L 145.27,58.63 L 145.94,58.70 L 146.87,58.85 L 147.61,59.09 L 147.73,59.19 L 147.95,59.71 L 148.05,60.03 L 148.23,61.03 L 148.32,61.60 L 148.48,63.15 L 148.55,63.99 L 148.68,66.15 L 148.74,67.32 L 148.85,70.15 L 148.90,71.66 L 148.99,75.23 L 149.03,77.12 L 149.10,81.50 L 149.19,89.04 L 149.21,90.68 L 149.25,93.68 L 149.26,95.14 L 149.30,97.80 L 149.31,99.09 L 149.35,101.44 L 149.37,102.58 L 149.41,104.64 L 149.45,106.63 L 149.55,109.81 L 149.60,111.29 L 149.74,113.58 L 149.81,114.63 L 149.99,116.20 L 150.08,116.90 L 150.32,117.92 L 150.44,118.37 L 150.74,119.01 L 151.28,119.72 L 151.49,119.92 L 152.01,120.26 L 152.31,120.42 L 153.16,120.69 L 153.65,120.81 L 155.05,121.02 L 155.83,121.11 L 157.95,121.26 L 159.12,121.33 L 162.18,121.44 L 163.01,121.47 L 164.88,121.51 L 165.86,121.53 L 168.03,121.57 L 169.16,121.59 L 171.66,121.63 L 172.95,121.65 L 175.80,121.68 L 177.27,121.69 L 180.50,121.72 L 185.78,121.77 L 187.64,121.78 L 191.04,121.81 L 192.69,121.82 L 195.72,121.84 L 197.19,121.85 L 199.86,121.86 L 201.16,121.86 L 203.50,121.86 L 204.64,121.86 L 206.68,121.85 L 207.67,121.85 L 209.43,121.82 L 211.13,121.80 L 213.82,121.71 L 215.06,121.66 L 216.96,121.51 L 217.84,121.43 L 219.17,121.21 L 219.79,121.10 L 220.75,120.80 L 222.00,120.27 L 225.50,118.50 L 225.78,104.80 L 225.81,103.09 L 225.88,100.28 L 225.91,98.96 L 225.99,96.84 L 226.03,95.86 L 226.14,94.30 L 226.21,93.58 L 226.39,92.45 L 226.49,91.93 L 226.76,91.11 L 226.91,90.72 L 227.30,90.07 L 229.00,88.16 L 229.73,87.42 L 230.70,86.24 L 230.91,85.93 L 231.23,85.22 L 231.38,84.84 L 231.60,83.89 L 231.70,83.38 L 231.85,82.08 L 231.92,81.38 L 232.01,79.60 L 232.05,78.64 L 232.12,76.25 L 232.22,71.86 L 232.50,58.50 L 257.02,58.30 L 260.65,58.27 L 267.31,58.29 L 268.91,58.31 L 271.88,58.35 L 273.33,58.38 L 275.97,58.45 L 277.25,58.48 L 279.51,58.58 L 280.59,58.63 L 282.41,58.74 L 283.27,58.80 L 284.61,58.93 L 286.02,59.16 L 287.25,59.45 L 290.33,60.19 L 291.09,60.37 L 292.53,60.72 L 294.39,61.18 L 294.92,61.32 L 296.24,61.92 L 296.93,62.27 L 298.47,63.24 L 300.04,64.27 L 303.29,66.92 L 304.07,67.59 L 305.50,68.95 L 306.18,69.62 L 307.32,70.89 L 307.83,71.50 L 308.55,72.57 L 309.00,73.82 L 309.00,74.24 L 308.52,75.42 L 307.37,77.14 L 307.02,77.53 L 306.57,78.31 L 306.38,78.73 L 306.22,79.81 L 306.19,80.42 L 306.32,82.12 L 306.37,82.60 L 306.53,83.73 L 306.83,85.72 L 307.12,87.58 L 307.77,91.11 L 307.92,91.91 L 308.20,93.22 L 308.52,94.56 L 308.62,94.88 L 308.61,95.49 L 308.57,95.79 L 308.31,96.34 L 307.99,96.88 L 306.68,97.75 L 305.92,98.14 L 303.83,98.67 L 299.97,99.00 L 299.12,99.00 L 297.78,98.84 L 297.14,98.72 L 295.98,98.18 L 295.40,97.85 L 294.13,96.77 L 291.77,94.35 L 290.98,93.49 L 289.47,92.01 L 288.72,91.31 L 287.21,90.12 L 286.44,89.55 L 284.84,88.61 L 284.02,88.18 L 282.23,87.46 L 281.31,87.12 L 279.24,86.60 L 278.17,86.35 L 275.73,85.98 L 274.46,85.80 L 271.57,85.55 L 266.60,85.27 L 264.73,85.19 L 261.27,85.13 L 259.60,85.12 L 256.65,85.20 L 255.24,85.25 L 252.94,85.45 L 250.39,85.88 L 249.27,86.18 L 247.11,87.15 L 246.04,87.69 L 243.99,89.08 L 242.99,89.82 L 241.11,91.57 L 240.20,92.49 L 238.53,94.56 L 237.73,95.63 L 236.31,97.95 L 235.63,99.14 L 234.51,101.67 L 233.99,102.95 L 233.19,105.62 L 232.43,109.72 L 232.29,110.95 L 232.04,113.04 L 231.91,114.03 L 231.67,115.70 L 231.55,116.49 L 231.30,117.81 L 231.17,118.44 L 230.89,119.47 L 230.60,120.45 L 229.84,121.83 L 228.29,123.61 L 225.71,126.00 L 174.32,126.00 L 171.81,126.00 L 167.12,126.00 L 164.82,125.99 L 160.56,125.99 L 158.48,125.98 L 154.63,125.97 L 152.76,125.96 L 149.30,125.94 L 147.63,125.93 L 144.55,125.91 L 143.06,125.89 L 140.34,125.86 L 139.03,125.85 L 136.65,125.81 L 135.51,125.79 L 133.46,125.74 L 132.48,125.72 L 130.74,125.66 L 129.90,125.64 L 128.45,125.58 L 127.07,125.51 L 125.10,125.36 L 124.24,125.28 L 123.20,125.08 L 122.78,124.98 M 153.75,117.95 L 153.55,117.83 L 153.21,117.47 L 153.06,117.26 L 152.80,116.59 L 152.68,116.19 L 152.49,115.03 L 152.41,114.37 L 152.27,112.54 L 152.21,111.53 L 152.13,108.87 L 152.11,108.14 L 152.08,106.50 L 152.07,105.64 L 152.05,103.73 L 152.04,102.74 L 152.02,100.54 L 152.02,99.40 L 152.01,96.88 L 152.01,95.58 L 152.00,92.73 L 152.00,88.06 L 152.00,86.47 L 152.00,83.55 L 152.00,82.13 L 152.01,79.53 L 152.01,78.26 L 152.03,75.96 L 152.03,74.85 L 152.05,72.82 L 152.07,70.87 L 152.13,67.73 L 152.17,66.27 L 152.27,64.02 L 152.32,62.98 L 152.47,61.47 L 152.55,60.79 L 152.75,59.87 L 152.85,59.46 L 153.11,58.98 L 153.58,58.61 L 153.69,58.57 L 154.56,58.49 L 155.09,58.45 L 156.74,58.37 L 157.65,58.34 L 159.99,58.27 L 161.24,58.24 L 164.17,58.18 L 165.70,58.15 L 169.14,58.10 L 170.91,58.08 L 174.76,58.05 L 176.73,58.03 L 180.89,58.01 L 187.40,58.00 L 219.64,58.00 L 221.82,55.49 L 222.42,54.80 L 223.36,53.43 L 223.56,53.11 L 223.83,52.58 L 224.00,51.99 L 224.00,51.70 L 224.09,51.30 L 224.15,51.13 L 224.34,50.96 L 224.56,50.85 L 225.23,51.28 L 225.60,51.59 L 226.48,52.78 L 227.91,55.32 L 228.35,56.22 L 228.97,57.96 L 229.25,58.86 L 229.61,60.97 L 229.69,61.55 L 229.80,62.85 L 229.85,63.54 L 229.92,65.11 L 229.95,65.94 L 229.98,67.84 L 230.00,71.14 L 230.00,72.54 L 229.99,74.86 L 229.98,75.95 L 229.94,77.74 L 229.92,78.58 L 229.82,79.94 L 229.77,80.58 L 229.60,81.62 L 229.41,82.61 L 228.71,84.12 L 227.03,86.57 L 226.30,87.54 L 225.33,89.04 L 224.91,89.80 L 224.44,91.64 L 224.35,92.16 L 224.22,93.44 L 224.16,94.13 L 224.10,95.84 L 224.07,96.75 L 224.04,99.00 L 224.03,103.13 L 224.02,104.44 L 224.01,106.70 L 223.99,107.77 L 223.95,109.58 L 223.92,110.44 L 223.85,111.87 L 223.81,112.54 L 223.69,113.64 L 223.57,114.66 L 223.19,115.93 L 222.35,117.13 L 222.22,117.24 L 221.26,117.44 L 220.68,117.55 L 218.91,117.74 L 217.94,117.83 L 215.48,118.00 L 214.17,118.08 L 211.14,118.23 L 209.56,118.31 L 206.07,118.44 L 204.28,118.50 L 200.46,118.60 L 196.58,118.70 L 188.32,118.83 L 184.19,118.88 L 176.14,118.89 L 174.19,118.89 L 170.49,118.86 L 168.68,118.84 L 165.37,118.78 L 163.77,118.75 L 160.95,118.65 L 159.62,118.60 L 157.42,118.47 L 156.42,118.40 L 154.96,118.24 L 154.34,118.15 M 167.82,67.25 L 167.89,66.72 L 167.85,66.00 L 167.78,65.69 L 167.21,65.33 L 166.83,65.18 L 165.45,65.05 L 165.04,65.03 L 164.01,65.01 L 162.13,65.00 L 161.37,65.00 L 160.05,65.04 L 159.42,65.07 L 158.36,65.18 L 157.36,65.31 L 156.09,65.78 L 155.56,66.06 L 155.15,66.89 L 155.40,68.60 L 155.51,68.89 L 155.96,69.30 L 156.23,69.49 L 157.08,69.72 L 157.57,69.81 L 158.95,69.87 L 161.74,69.80 L 163.01,69.73 L 164.80,69.57 L 165.59,69.47 L 166.59,69.17 L 167.01,69.00 L 167.47,68.45 L 167.65,68.14 M 300.77,114.25 L 300.55,114.01 L 300.09,113.19 L 299.85,112.74 L 299.38,111.60 L 298.22,107.68 L 298.07,106.97 L 297.86,105.80 L 297.77,105.25 L 297.70,104.37 L 297.69,103.97 L 297.82,103.34 L 297.91,103.05 L 298.27,102.64 L 298.48,102.46 L 299.11,102.23 L 299.46,102.14 L 300.41,102.06 L 300.92,102.03 L 302.23,102.06 L 304.63,102.19 L 309.50,102.50 L 309.81,107.36 L 309.86,108.23 L 309.86,109.70 L 309.83,110.39 L 309.66,111.53 L 309.54,112.07 L 309.18,112.97 L 308.40,114.11 L 307.87,114.70 L 306.59,115.45 L 305.93,115.75 L 304.54,115.93 L 303.84,115.94 L 302.51,115.53 L 301.87,115.25 Z" fill="rgba(249,1,1,1)"/>
</g>
</svg>