<svg xmlns="http://www.w3.org/2000/svg" width="219" height="230" viewBox="0 0 219 230">
<g>
<path d="M 75.36,91.30 L 76.47,92.93 L 78.89,96.17 L 80.38,97.77 L 78.88,96.17 L 76.46,92.92 L 75.35,91.29 L 73.74,87.94 M 107.71,95.29 L 108.00,95.72 L 108.00,96.00 L 107.89,96.52 L 107.71,96.71 L 107.27,97.00 L 107.00,97.00 L 106.29,96.71 L 106.00,96.27 L 106.00,96.00 L 106.29,95.29 L 106.72,95.00 L 107.00,95.00 M 104.56,93.28 L 105.00,93.68 L 105.00,93.94 L 104.90,94.55 L 104.74,94.80 L 104.36,95.25 L 104.12,95.40 L 103.60,95.62 L 103.35,95.61 L 102.84,95.51 L 102.64,95.31 L 102.08,94.47 L 101.99,93.95 L 102.07,93.73 L 102.31,93.33 L 102.55,93.20 L 103.11,93.00 L 103.50,93.00 M 100.56,91.44 L 101.00,92.09 L 101.00,92.50 L 100.93,93.21 L 100.80,93.45 L 100.48,93.86 L 100.26,93.93 L 99.79,94.01 L 99.52,93.91 L 98.95,93.62 L 98.67,93.33 L 98.09,92.48 L 97.99,91.95 L 98.07,91.74 L 98.31,91.33 L 98.55,91.20 L 99.11,91.00 L 99.50,91.00 M 149.98,83.20 L 149.30,86.08 L 148.92,87.45 L 147.91,89.94 L 145.90,93.66 L 145.86,93.73 L 148.02,89.48 L 149.19,86.35 L 149.63,84.68 L 150.02,82.97 M 73.72,87.89 L 73.71,87.88 L 73.43,87.21 M 72.98,86.13 L 72.98,86.13 L 72.71,85.05 M 72.01,82.29 L 72.01,82.29 L 72.00,82.17 M 151.00,73.98 L 151.07,71.23 L 151.21,69.74 L 151.33,69.21 L 151.39,68.99 M 76.80,45.58 L 77.16,46.15 L 77.95,47.19 L 78.44,47.51 L 79.46,48.00 L 80.04,48.00 L 81.53,48.40 L 81.98,49.00 L 81.93,49.39 L 81.66,50.22 L 81.26,50.63 L 80.30,51.45 L 79.57,51.79 L 78.45,52.46 L 77.61,53.09 L 77.19,53.47 L 75.50,55.11 L 74.88,55.95 L 72.96,58.10 L 72.36,58.60 L 72.11,58.76 L 71.65,59.00 L 71.50,59.00 L 70.87,59.22 L 70.30,59.57 L 69.96,59.82 L 68.52,61.01 L 67.79,61.73 L 66.36,63.20 L 65.84,63.86 L 65.38,64.48 L 65.23,64.74 L 65.00,65.21 L 65.00,65.36 L 65.23,65.73 L 65.58,66.02 L 65.84,66.18 L 67.08,66.83 L 67.87,67.11 L 68.80,67.52 L 66.62,66.97 L 64.97,66.55 L 62.06,65.76 L 60.68,65.37 L 58.28,64.63 L 57.15,64.26 L 55.23,63.54 L 54.33,63.19 L 52.85,62.48 L 52.16,62.13 L 51.09,61.41 L 50.60,61.05 L 49.89,60.31 L 49.58,59.93 L 49.21,59.15 L 49.00,57.90 L 49.00,57.41 L 49.66,56.17 L 51.25,54.53 L 51.63,54.26 L 52.70,53.69 L 53.28,53.40 L 54.68,52.80 L 56.16,52.20 L 59.79,51.03 L 61.67,50.46 L 65.63,49.50 L 71.25,48.49 L 76.93,47.78 L 76.62,45.03 M 140.74,46.50 L 150.62,48.20 L 152.27,48.48 L 155.29,49.06 L 156.75,49.34 L 159.39,49.93 L 160.67,50.22 L 162.94,50.82 L 164.02,51.12 L 165.93,51.73 L 166.84,52.04 L 168.39,52.67 L 169.13,52.98 L 170.34,53.64 L 170.90,53.96 L 171.77,54.64 L 172.72,55.69 L 173.03,56.17 L 173.43,56.92 L 173.59,57.27 L 173.70,57.86 L 173.72,58.15 L 173.53,58.69 L 172.94,59.57 L 172.44,60.18 L 170.96,61.31 L 170.14,61.87 L 167.99,62.92 L 166.82,63.43 L 163.93,64.42 L 158.69,65.87 L 153.62,67.12 L 154.24,66.92 L 155.16,66.63 L 155.51,66.51 L 156.14,66.28 L 156.35,66.18 L 156.71,66.00 L 156.80,65.91 L 156.92,65.56 L 156.69,65.33 L 156.04,64.84 L 155.50,64.46 L 153.76,63.20 L 152.68,62.37 L 152.37,62.11 L 151.22,61.70 L 150.40,61.95 L 150.00,62.33 L 149.47,62.77 L 149.29,62.82 L 149.29,62.72 L 149.36,62.43 L 149.49,62.14 L 149.79,61.48 L 150.04,61.00 L 150.67,59.72 L 150.87,59.23 L 150.85,59.14 L 150.74,59.06 L 150.57,59.17 L 150.16,59.47 L 149.83,59.74 L 148.99,60.27 L 148.48,60.38 L 148.21,60.30 L 147.66,60.07 L 147.34,59.81 L 146.65,59.20 L 146.22,58.74 L 145.02,57.39 L 144.50,56.69 L 144.35,56.37 L 144.11,55.73 L 144.06,55.35 L 144.00,54.54 L 144.00,54.00 L 143.63,53.29 L 143.09,52.98 L 142.75,52.98 L 141.16,52.42 L 139.74,51.61 L 139.08,51.09 L 136.66,49.23 L 138.83,47.88 L 139.84,47.05 L 140.34,46.40 L 140.51,46.00 L 140.80,45.15 L 140.87,44.74 M 119.78,62.39 L 120.25,62.77 L 121.69,63.59 L 122.88,64.04 L 123.41,64.14 L 124.15,64.29 L 124.37,64.37 L 124.71,64.54 L 124.74,64.65 L 124.69,64.91 L 124.53,65.09 L 124.11,65.50 L 123.76,65.78 L 122.92,66.37 L 122.43,66.54 L 122.20,66.52 L 121.74,66.40 L 121.48,66.22 L 120.94,65.79 L 120.61,65.46 L 119.47,64.01 L 119.04,63.13 L 118.99,62.82 L 119.03,62.30 L 119.24,62.27 M 95.93,10.99 L 100.50,11.00 L 108.12,11.00 L 147.23,11.00 L 146.58,13.25 L 145.78,16.01 L 144.47,20.89 L 143.87,23.25 L 142.93,27.47 L 142.51,29.51 L 141.90,33.24 L 141.32,38.50 L 141.00,42.92 L 141.00,42.87 L 140.91,40.86 L 140.70,39.97 L 140.47,39.68 L 139.90,39.19 L 139.42,39.02 L 138.32,38.72 L 137.51,38.57 L 135.83,38.14 L 134.89,37.76 L 134.51,37.49 L 133.79,36.90 L 133.51,36.51 L 133.00,35.64 L 132.81,35.08 L 132.47,33.86 L 132.36,33.09 L 132.18,31.44 L 132.13,30.43 L 132.07,28.28 L 132.07,26.99 L 132.11,24.26 L 132.16,22.66 L 132.48,11.50 L 81.50,11.50 L 81.22,25.25 L 80.94,39.00 L 78.47,39.00 L 77.25,39.11 L 76.68,39.32 L 76.49,39.51 L 76.18,39.96 L 76.11,40.29 L 76.08,40.49 L 75.37,35.98 L 74.95,33.54 L 73.98,28.81 L 73.48,26.53 L 72.43,22.56 L 72.17,21.64 L 71.66,20.06 L 70.93,18.12 L 70.50,17.16 L 69.77,15.61 L 69.45,14.89 L 69.20,13.77 L 69.16,13.26 L 69.74,12.49 L 69.96,12.32 L 70.60,12.04 L 70.97,11.90 L 71.95,11.68 L 72.48,11.58 L 73.84,11.42 L 74.57,11.34 L 76.35,11.23 L 77.29,11.18 L 79.54,11.10 L 80.73,11.07 L 83.48,11.03 L 84.93,11.02 L 88.25,11.00 L 89.98,10.99 L 93.89,10.99 Z" fill="rgba(0,0,0,1)"/>
<path d="M 122.21,57.06 L 122.40,57.19 L 122.81,57.50 L 123.07,57.75 L 123.68,58.38 L 123.86,58.67 L 123.84,58.76 L 123.72,58.91 L 123.55,58.95 L 123.12,59.00 L 122.78,59.00 L 121.89,59.13 L 121.52,59.35 L 120.88,59.87 L 120.77,60.20 L 120.29,60.60 L 119.90,60.19 L 119.69,59.65 L 119.49,58.57 L 119.68,58.30 L 119.93,58.45 L 120.70,58.48 L 121.16,58.10 L 121.29,57.76 L 121.92,57.00 M 132.81,35.08 L 133.00,35.64 L 133.51,36.51 L 133.79,36.90 L 134.51,37.49 L 134.89,37.76 L 135.83,38.14 L 137.51,38.57 L 135.83,38.14 L 134.89,37.76 L 134.51,37.49 L 133.79,36.90 L 133.51,36.51 L 133.00,35.64 L 132.81,35.08 L 132.47,33.86 L 132.47,33.86 M 119.60,11.63 L 119.00,11.97 L 118.86,12.20 L 118.69,12.68 L 118.58,13.19 L 118.53,13.54 L 118.34,15.16 L 118.27,16.24 L 118.13,18.56 L 118.09,19.90 L 118.02,22.66 L 118.02,24.12 L 118.00,34.75 L 114.87,35.38 L 112.96,35.62 L 111.15,35.76 L 110.07,35.82 L 105.34,36.00 L 94.06,36.00 L 93.78,23.75 L 93.50,11.50 L 119.91,11.50 Z" fill="rgba(108,101,110,1)"/>
<path d="M 87.02,139.07 L 87.89,139.56 L 89.06,140.04 L 89.88,140.34 L 91.66,140.97 L 92.69,141.32 L 94.86,142.03 L 96.02,142.40 L 100.78,143.85 L 102.96,144.45 L 105.07,145.02 L 105.96,145.24 L 107.64,145.63 L 108.25,145.74 L 109.79,146.12 L 110.41,146.50 L 110.54,146.86 L 110.71,147.74 L 110.67,148.49 L 110.62,149.28 L 110.56,149.78 L 110.45,150.84 L 110.37,151.48 L 109.75,156.74 L 114.76,157.94 L 117.23,158.62 L 118.35,159.04 L 118.69,159.26 L 119.23,159.72 L 119.32,159.99 L 119.40,160.57 L 119.31,160.92 L 119.47,162.66 L 120.04,163.90 L 120.49,164.35 L 121.35,165.25 L 121.61,165.64 L 121.59,165.75 L 121.44,165.92 L 121.20,165.96 L 120.60,166.00 L 120.14,166.00 L 118.53,166.58 L 117.68,167.44 L 117.50,168.00 L 116.98,169.07 L 116.53,169.38 L 115.49,169.85 L 114.77,169.86 L 113.20,169.73 L 112.21,169.45 L 110.11,168.72 L 108.86,168.13 L 106.92,167.16 L 106.16,166.64 L 106.00,166.40 L 105.84,165.90 L 105.95,165.60 L 106.29,164.96 L 106.61,164.52 L 107.67,162.24 L 108.01,160.55 L 108.00,159.78 L 107.84,158.31 L 107.59,157.81 L 107.30,157.35 L 107.11,157.22 L 106.71,157.00 L 106.46,157.00 L 105.89,156.94 L 105.28,156.83 L 104.86,156.75 L 102.93,156.36 L 101.64,156.08 L 98.87,155.46 L 97.27,155.08 L 93.96,154.29 L 92.21,153.86 L 87.19,152.64 L 84.15,151.92 L 82.90,151.64 L 80.58,151.12 L 79.80,150.95 L 79.09,150.81 L 78.84,150.76 L 78.43,150.70 L 78.35,150.69 L 78.27,150.19 L 78.59,149.42 L 78.91,148.85 L 79.64,147.62 L 80.14,146.87 L 81.21,145.32 L 81.85,144.46 L 83.70,142.12 L 84.82,140.81 L 85.29,140.32 L 86.15,139.46 L 86.45,139.24 L 86.95,138.96 M 119.57,135.10 L 120.25,135.28 L 120.46,135.46 L 120.81,135.89 L 120.89,136.23 L 121.00,136.98 L 121.00,137.50 L 121.25,139.27 L 121.62,140.00 L 121.86,140.00 L 122.33,140.73 L 122.38,141.81 L 122.24,142.50 L 122.03,143.48 L 121.85,143.82 L 121.45,144.40 L 121.12,144.58 L 120.35,144.86 L 119.76,144.92 L 118.43,145.00 L 117.49,145.00 L 114.69,144.77 L 113.41,144.33 L 113.01,143.90 L 112.36,142.87 L 112.21,142.08 L 112.00,140.28 L 112.00,139.03 L 112.30,137.11 L 112.84,136.18 L 113.31,135.86 L 114.39,135.34 L 115.18,135.20 L 116.93,135.00 L 118.08,135.00 M 90.11,107.62 L 90.38,108.15 L 90.87,109.35 L 91.02,110.07 L 91.24,111.57 L 91.18,112.32 L 91.18,113.99 L 91.32,114.84 L 91.48,115.17 L 91.85,115.78 L 92.14,116.02 L 92.79,116.48 L 93.23,116.68 L 100.06,119.10 L 102.29,119.62 L 103.32,119.77 L 105.33,120.00 L 106.21,120.00 L 108.18,120.12 L 109.11,120.37 L 109.47,120.64 L 110.12,121.31 L 110.42,121.86 L 111.03,123.11 L 111.39,124.02 L 112.54,127.53 L 112.93,129.52 L 112.93,130.33 L 112.81,131.80 L 112.55,132.32 L 111.92,133.20 L 111.42,133.39 L 110.60,133.71 L 110.18,133.78 L 109.28,133.87 L 108.53,133.79 L 107.71,133.70 L 107.18,133.62 L 106.02,133.44 L 105.28,133.31 L 103.68,133.03 L 102.69,132.84 L 100.55,132.45 L 99.25,132.21 L 96.59,131.71 L 95.15,131.43 L 94.58,131.30 L 93.52,131.04 L 93.12,130.91 L 92.39,130.66 L 92.12,130.52 L 91.31,129.92 L 91.16,129.50 L 91.00,128.57 L 91.00,127.88 L 90.86,126.37 L 90.57,125.64 L 90.28,125.37 L 89.56,124.88 L 88.99,124.66 L 87.68,124.24 L 86.75,124.00 L 83.97,123.30 L 82.51,122.90 L 81.96,122.71 L 80.98,122.32 L 80.67,122.11 L 80.15,121.65 L 80.05,121.37 L 79.96,120.76 L 80.07,120.37 L 80.38,119.52 L 80.68,118.98 L 81.37,117.82 L 81.84,117.08 L 82.87,115.51 L 83.51,114.55 L 85.32,111.81 L 86.41,110.17 L 86.87,109.50 L 87.72,108.26 L 88.00,107.85 L 88.49,107.18 L 88.55,107.11 L 89.48,107.02 M 128.09,117.38 L 128.80,120.07 L 129.19,121.59 L 129.34,122.23 L 129.61,123.43 L 129.71,123.93 L 129.87,124.85 L 129.92,125.22 L 129.98,126.46 L 129.87,126.80 L 129.55,127.34 L 129.25,127.46 L 128.75,127.60 L 128.37,127.67 L 127.53,127.79 L 127.02,127.84 L 124.80,128.00 L 119.45,128.00 L 116.72,120.12 L 115.58,116.74 L 114.98,114.88 L 114.76,114.12 L 114.39,112.72 L 114.28,112.16 L 114.12,111.15 L 114.13,110.77 L 114.20,110.09 L 114.31,109.86 L 114.60,109.44 L 114.83,109.32 L 115.34,109.11 L 115.68,109.06 L 116.42,109.00 L 116.88,109.00 L 119.75,108.83 L 121.84,108.58 L 122.63,108.42 L 125.50,107.85 M 145.86,98.89 L 146.16,99.12 L 146.78,99.81 L 147.09,100.19 L 147.69,101.11 L 149.03,104.14 L 149.37,105.36 L 150.74,107.52 L 151.15,108.05 L 152.15,109.04 L 153.94,110.46 L 155.01,111.20 L 156.86,112.79 L 157.26,113.16 L 157.87,113.82 L 158.39,114.58 L 158.52,114.92 L 159.27,115.38 L 159.71,115.59 L 160.95,115.82 L 161.61,115.91 L 163.15,115.93 L 163.93,115.92 L 165.58,115.76 L 165.92,115.71 L 165.89,115.72 L 163.63,116.00 L 162.51,116.00 L 159.22,116.31 L 158.37,116.51 L 158.07,116.64 L 157.56,116.90 L 157.47,117.04 L 156.90,117.66 L 156.27,118.19 L 155.87,118.50 L 154.03,119.82 L 152.99,120.49 L 150.92,121.78 L 150.06,122.24 L 149.25,122.65 L 148.95,122.78 L 148.41,122.97 L 148.27,122.97 L 147.85,122.70 L 147.48,122.29 L 147.27,122.00 L 146.38,120.60 L 145.95,119.72 L 145.06,117.95 L 144.26,116.40 L 143.79,115.51 L 141.75,111.73 L 140.74,109.92 L 137.08,103.35 L 140.94,100.92 L 143.52,98.99 L 144.06,98.44 L 144.20,98.22 L 144.39,97.84 L 144.33,97.74 M 166.99,115.54 L 166.75,115.58 L 167.14,115.50 M 171.57,113.63 L 172.00,112.85 L 171.78,113.42 M 145.86,93.73 L 145.73,93.94 L 145.86,93.73 M 149.19,86.35 L 149.18,86.36 L 149.19,86.35 M 150.99,75.99 L 150.64,79.52 L 150.40,81.28 L 149.90,83.46 L 150.41,81.24 L 150.64,79.49 L 150.99,75.97 Z" fill="rgba(107,132,49,1)"/>
<path d="M 45.71,154.31 L 45.43,156.37 L 45.19,158.37 L 45.12,159.29 L 45.01,161.06 L 45.01,161.05 L 45.12,159.28 L 45.19,158.36 L 45.44,156.34 L 45.71,154.29 L 46.27,151.39 M 122.09,140.20 L 122.50,140.36 L 123.56,141.36 L 124.00,142.41 L 124.00,142.97 L 123.96,143.77 L 123.83,144.04 L 123.46,144.51 L 123.09,144.66 L 122.18,144.88 L 121.46,144.93 L 119.80,145.00 L 118.61,145.00 L 118.48,145.00 L 119.76,144.92 L 120.35,144.86 L 121.12,144.58 L 121.45,144.40 L 121.85,143.82 L 122.03,143.48 L 122.24,142.50 L 122.38,141.81 L 122.33,140.73 L 121.86,140.00 L 121.62,140.00 L 121.25,139.27 L 121.00,137.50 L 121.00,137.39 L 121.44,139.25 M 117.10,144.97 L 116.65,144.96 L 115.56,144.88 L 115.13,144.81 M 112.21,142.08 L 112.36,142.87 L 112.79,143.54 L 112.38,142.99 L 112.21,142.18 L 112.08,141.32 L 112.05,140.79 L 112.04,140.60 M 50.56,137.00 L 50.07,138.12 L 50.07,138.12 L 50.56,137.00 M 48.62,117.83 L 48.52,119.10 L 48.52,119.65 L 48.81,120.38 L 49.02,120.70 L 49.87,121.16 L 51.98,121.88 L 52.75,122.11 L 53.99,122.50 L 54.57,122.67 L 55.58,122.85 L 56.07,122.91 L 57.03,122.78 L 57.53,122.66 L 58.64,122.11 L 59.24,121.77 L 60.70,120.67 L 61.50,120.05 L 62.63,119.07 L 59.03,122.58 L 56.62,125.33 L 55.58,126.69 L 54.57,128.03 L 54.14,128.66 L 53.32,129.89 L 53.01,130.43 L 52.44,131.47 L 52.27,131.89 L 52.00,132.67 L 52.00,132.93 L 51.84,133.60 L 51.60,134.34 L 51.42,134.82 L 50.68,136.69 L 51.31,134.52 L 51.54,133.44 L 51.47,131.62 L 51.35,130.76 L 50.55,129.30 L 48.52,127.42 L 47.95,127.05 L 47.10,126.59 L 46.70,126.41 L 46.01,126.36 L 45.66,126.39 L 44.85,126.77 L 43.22,127.84 L 42.05,128.68 L 39.97,129.78 L 38.95,130.24 L 38.47,130.33 L 39.70,129.81 L 40.73,129.25 L 42.13,128.25 L 43.08,127.35 L 43.55,126.80 L 45.42,124.41 L 46.22,123.04 L 47.73,120.22 L 48.22,118.86 L 48.66,117.53 M 120.80,135.87 L 120.80,135.89 L 120.55,135.58 M 21.45,124.91 L 26.86,126.88 L 28.55,127.61 L 29.28,127.96 L 30.48,128.56 L 29.34,127.99 L 28.58,127.63 L 26.82,126.88 L 21.38,124.89 L 20.64,124.66 M 10.59,118.40 L 12.47,120.22 L 13.58,121.03 L 15.91,122.58 L 17.22,123.23 L 19.95,124.45 L 19.88,124.43 L 17.17,123.21 L 15.86,122.56 L 13.55,121.01 L 12.45,120.20 L 10.58,118.39 L 10.12,117.91 M 147.27,122.00 L 147.48,122.29 L 147.85,122.70 L 148.27,122.97 L 148.33,122.97 L 148.17,123.00 L 147.83,123.03 L 147.78,122.95 L 147.53,122.50 L 147.23,121.96 L 147.14,121.79 M 152.33,120.92 L 151.87,121.19 L 152.64,120.71 M 183.85,120.34 L 183.63,120.41 L 182.92,120.38 L 182.54,120.35 L 181.61,120.13 L 181.25,119.98 L 181.54,120.06 L 182.54,120.31 L 182.94,120.35 L 183.67,120.39 L 183.89,120.32 L 185.98,119.61 M 191.00,117.13 L 190.54,117.58 L 190.23,117.81 L 189.17,118.36 L 188.57,118.65 L 189.16,118.36 L 190.22,117.82 L 190.53,117.58 L 191.00,117.13 M 68.25,114.04 L 67.46,114.77 L 64.15,117.76 L 63.26,118.52 L 63.51,118.31 L 64.05,117.83 L 65.28,116.72 L 65.91,116.15 L 67.34,114.84 L 68.08,114.17 L 69.31,113.04 M 9.70,117.46 L 9.70,117.46 L 9.47,117.14 M 141.75,111.73 L 143.79,115.51 L 144.26,116.40 L 144.60,117.06 L 143.82,115.61 L 143.34,114.74 L 141.35,111.10 L 140.43,109.42 L 137.08,103.35 L 140.74,109.92 M 157.49,117.01 L 157.56,116.90 L 157.69,116.83 M 48.23,111.70 L 48.29,111.92 L 48.08,111.43 M 42.99,106.50 L 44.09,107.07 L 45.84,108.44 L 46.63,109.16 L 47.27,110.11 L 46.22,108.80 L 45.47,108.16 L 43.88,106.96 L 42.94,106.47 L 41.55,105.48 M 77.25,106.52 L 77.32,106.47 L 77.50,106.37 M 79.99,105.01 L 77.86,106.15 L 78.78,105.59 L 80.75,104.58 L 83.56,103.33 M 41.53,105.46 L 41.50,105.44 L 40.90,104.85 M 40.51,104.46 L 40.51,104.46 L 40.50,104.45 M 170.59,102.03 L 170.19,103.02 L 170.19,103.01 L 170.51,102.08 L 170.83,101.52 M 80.41,97.80 L 84.97,102.67 L 80.43,97.82 L 78.89,96.17 M 172.06,99.71 L 171.05,101.13 L 171.37,100.55 L 171.85,99.83 L 172.42,99.26 M 178.85,93.29 L 178.37,93.99 L 177.43,95.29 L 177.03,95.71 L 176.27,96.42 L 176.13,96.46 L 176.85,95.83 L 177.30,95.38 L 178.29,94.08 L 178.80,93.37 L 179.78,91.71 M 75.36,91.30 L 76.47,92.93 L 76.75,93.31 L 76.47,92.93 L 75.36,91.30 L 73.77,88.00 M 187.07,80.09 L 186.56,80.61 L 185.50,81.76 L 184.95,82.51 L 183.82,84.15 L 183.24,85.15 L 182.07,87.25 L 181.48,88.47 L 179.90,91.52 L 179.87,91.56 L 181.54,88.36 L 182.12,87.15 L 183.28,85.07 L 183.85,84.09 L 184.97,82.47 L 185.53,81.72 L 186.57,80.58 L 187.08,80.08 L 187.82,79.58 M 150.64,79.49 L 150.41,81.24 L 149.64,84.63 L 149.21,86.30 L 148.06,89.41 L 148.05,89.42 L 149.18,86.32 L 149.62,84.63 L 150.40,81.14 L 150.64,79.27 L 150.96,76.27 M 73.72,87.89 L 73.72,87.89 L 73.44,87.24 M 72.99,86.14 L 72.98,86.14 L 72.73,85.14 M 72.02,82.31 L 72.02,82.31 L 72.01,82.30 M 126.08,11.20 L 132.49,11.50 L 132.16,22.66 L 132.11,24.26 L 132.07,26.99 L 132.07,28.28 L 132.13,30.43 L 132.18,31.44 L 132.36,33.09 L 132.47,33.86 L 132.81,35.08 L 133.00,35.64 L 133.51,36.51 L 133.79,36.90 L 134.51,37.49 L 134.89,37.76 L 135.83,38.14 L 137.51,38.57 L 138.32,38.72 L 139.42,39.02 L 139.90,39.19 L 140.47,39.68 L 140.70,39.97 L 140.91,40.86 L 141.00,42.87 L 141.00,43.54 L 140.88,44.64 L 140.80,45.15 L 140.51,46.00 L 140.34,46.40 L 139.84,47.05 L 138.83,47.88 L 136.66,49.23 L 139.08,51.09 L 139.74,51.61 L 141.16,52.42 L 142.75,52.98 L 143.09,52.98 L 143.63,53.29 L 144.00,54.00 L 144.00,54.54 L 144.06,55.35 L 144.11,55.73 L 144.35,56.37 L 144.50,56.69 L 145.02,57.39 L 146.22,58.74 L 146.65,59.20 L 147.34,59.81 L 147.66,60.07 L 148.21,60.30 L 148.48,60.38 L 148.99,60.27 L 149.83,59.74 L 150.16,59.47 L 150.57,59.17 L 150.74,59.06 L 150.85,59.14 L 150.87,59.23 L 150.67,59.72 L 150.04,61.00 L 149.79,61.48 L 149.49,62.14 L 149.36,62.43 L 149.29,62.72 L 149.29,62.82 L 149.47,62.77 L 150.00,62.33 L 150.40,61.95 L 151.22,61.70 L 152.37,62.11 L 152.68,62.37 L 153.76,63.20 L 155.50,64.46 L 156.04,64.84 L 156.69,65.33 L 156.92,65.56 L 156.80,65.91 L 156.71,66.00 L 156.35,66.18 L 156.14,66.28 L 155.51,66.51 L 155.16,66.63 L 154.24,66.92 L 152.50,67.47 L 152.22,67.56 L 151.79,68.01 L 151.60,68.29 L 151.33,69.21 L 151.21,69.74 L 151.13,70.56 L 151.13,70.00 L 151.11,69.46 L 150.97,67.50 L 150.78,66.70 L 150.32,65.19 L 149.93,64.43 L 149.03,62.88 L 148.38,61.91 L 146.80,59.81 L 145.68,58.64 L 145.04,58.16 L 143.68,57.26 L 142.85,56.90 L 141.08,56.22 L 139.98,55.95 L 137.64,55.47 L 136.20,55.28 L 133.13,54.94 L 131.26,54.81 L 127.29,54.58 L 124.91,54.49 L 122.46,54.41 L 121.13,54.37 L 118.39,54.29 L 116.91,54.26 L 111.58,54.16 L 108.26,54.13 L 106.71,54.14 L 103.67,54.16 L 102.26,54.19 L 99.50,54.26 L 98.21,54.32 L 93.33,54.62 L 91.25,54.86 L 87.30,55.41 L 85.63,55.79 L 82.48,56.62 L 81.17,57.15 L 78.72,58.28 L 77.71,58.98 L 75.81,60.45 L 75.04,61.32 L 73.59,63.16 L 73.00,64.22 L 71.85,66.56 L 71.36,68.03 L 71.23,68.86 L 71.05,70.61 L 71.05,71.74 L 71.07,72.92 L 71.09,73.61 L 71.16,75.03 L 71.15,74.88 L 71.05,73.34 L 71.00,72.62 L 70.89,71.45 L 70.83,70.91 L 70.69,70.05 L 70.61,69.65 L 70.41,69.04 L 70.20,68.47 L 69.50,67.83 L 67.87,67.11 L 67.08,66.83 L 65.84,66.18 L 65.58,66.02 L 65.23,65.73 L 65.00,65.36 L 65.00,65.21 L 65.23,64.74 L 65.38,64.48 L 65.84,63.86 L 66.36,63.20 L 67.79,61.73 L 68.52,61.01 L 69.96,59.82 L 70.30,59.57 L 70.87,59.22 L 71.50,59.00 L 71.65,59.00 L 72.11,58.76 L 72.36,58.60 L 72.96,58.10 L 74.88,55.95 L 75.50,55.11 L 77.19,53.47 L 77.61,53.09 L 78.45,52.46 L 79.57,51.79 L 80.30,51.45 L 81.26,50.63 L 81.66,50.22 L 81.93,49.39 L 81.98,49.00 L 81.53,48.40 L 80.04,48.00 L 79.46,48.00 L 78.44,47.51 L 77.95,47.19 L 77.48,46.57 L 77.56,46.63 L 77.85,46.70 L 78.50,46.81 L 78.92,46.79 L 79.83,46.71 L 80.39,46.60 L 81.58,46.47 L 82.90,46.37 L 83.79,46.32 L 85.72,46.21 L 86.88,46.16 L 89.34,46.05 L 90.74,45.99 L 93.64,45.88 L 95.23,45.82 L 98.49,45.71 L 100.23,45.66 L 107.43,45.45 L 111.25,45.36 L 116.28,45.24 L 119.33,45.16 L 120.71,45.12 L 123.38,45.04 L 124.58,45.00 L 126.89,44.91 L 127.92,44.87 L 129.89,44.78 L 130.75,44.73 L 132.40,44.62 L 133.12,44.57 L 134.47,44.45 L 135.04,44.39 L 136.11,44.25 L 136.55,44.18 L 138.04,43.86 L 138.45,43.66 L 139.04,43.23 L 139.06,42.97 L 138.92,42.40 L 138.63,42.06 L 137.91,41.34 L 137.38,40.90 L 135.28,39.45 L 133.66,38.60 L 132.73,38.24 L 130.80,37.55 L 129.71,37.27 L 127.44,36.73 L 126.17,36.52 L 123.54,36.14 L 122.07,36.00 L 119.05,35.77 L 117.39,35.70 L 113.95,35.61 L 113.03,35.61 L 114.87,35.38 L 118.00,34.75 L 118.02,24.12 L 118.02,22.66 L 118.09,19.90 L 118.13,18.56 L 118.27,16.24 L 118.34,15.16 L 118.53,13.54 L 118.58,13.19 L 118.69,12.68 L 118.86,12.20 L 119.00,11.97 L 119.60,11.63 L 119.96,11.48 L 121.02,11.28 L 121.61,11.20 L 123.16,11.14 M 123.98,65.72 L 123.55,66.00 L 123.27,66.13 L 123.76,65.78 L 124.11,65.50 L 124.12,65.49 M 103.85,60.15 L 104.07,60.28 L 104.19,60.47 L 104.42,60.93 L 104.56,61.29 L 104.67,62.95 L 104.33,64.10 L 103.99,64.51 L 103.27,65.29 L 102.92,65.56 L 102.26,66.00 L 102.08,66.00 L 101.03,65.59 L 100.34,64.97 L 100.04,64.55 L 99.48,63.64 L 99.29,63.15 L 99.00,62.15 L 99.00,61.68 L 99.06,60.73 L 99.17,60.38 L 99.28,60.34 L 99.55,60.34 L 99.76,60.46 L 100.24,60.78 L 100.58,61.06 L 101.41,61.67 L 101.84,61.86 L 102.02,61.86 L 102.36,61.77 L 102.52,61.62 L 102.84,61.26 L 103.02,60.96 L 103.49,60.32 L 103.74,60.13 M 121.10,65.96 L 120.94,65.79 L 121.18,65.99 M 119.69,59.65 L 119.90,60.19 L 120.29,60.60 L 120.77,60.20 L 120.88,59.87 L 121.00,59.77 L 121.00,60.00 L 121.11,60.52 L 121.29,60.71 L 121.72,61.00 L 122.00,61.00 L 122.71,60.71 L 123.00,60.27 L 123.00,60.00 L 122.71,59.29 L 122.37,59.06 L 122.78,59.00 L 123.12,59.00 L 123.55,58.95 L 123.72,58.91 L 123.80,58.81 L 124.38,59.64 L 124.62,60.32 L 125.00,61.77 L 125.00,62.57 L 124.85,64.11 L 124.67,64.52 L 124.37,64.37 L 124.15,64.29 L 123.41,64.14 L 122.88,64.04 L 121.69,63.59 L 120.25,62.77 L 119.78,62.39 L 119.24,62.27 L 119.13,62.29 L 119.01,61.81 L 119.03,61.01 L 119.19,59.45 L 119.47,58.84 L 119.52,58.76 M 121.46,57.55 L 121.29,57.76 L 121.16,58.10 L 120.70,58.48 L 119.93,58.45 L 119.78,58.36 L 120.17,57.76 L 120.72,57.55 M 93.78,23.75 L 94.06,36.00 L 101.39,36.00 L 99.27,36.12 L 95.07,36.54 L 93.17,36.82 L 89.51,37.43 L 87.89,37.79 L 84.81,38.56 L 83.50,39.00 L 81.06,39.92 L 80.10,40.42 L 78.36,41.46 L 77.78,42.02 L 76.79,43.17 L 76.61,43.77 L 76.49,44.66 L 76.31,44.11 L 76.00,41.57 L 76.00,41.05 L 76.11,40.29 L 76.18,39.96 L 76.49,39.51 L 76.68,39.32 L 77.25,39.11 L 78.47,39.00 L 80.94,39.00 L 81.22,25.25 L 81.50,11.50 L 93.50,11.50 M 120.89,136.23 L 120.82,135.94 L 120.88,136.18 L 121.00,136.90 L 121.00,136.98 M 167.69,127.39 L 167.29,126.59 L 166.57,125.10 L 166.35,124.57 L 166.00,123.68 L 166.00,123.57 L 166.35,124.50 L 166.57,125.04 L 167.29,126.55 L 167.69,127.36 L 168.68,129.27 L 170.38,132.35 L 168.68,129.28 M 165.72,122.82 L 165.29,122.14 L 164.98,121.73 L 163.47,119.94 L 162.51,119.01 L 159.68,116.26 L 162.51,116.00 L 163.63,116.00 L 165.89,115.72 L 166.99,115.54 L 168.94,114.98 L 169.84,114.68 L 171.15,113.97 L 171.42,113.79 L 171.78,113.42 L 172.00,112.85 L 172.00,112.74 L 171.91,112.19 L 171.85,111.86 L 171.65,110.97 L 170.97,108.20 L 171.45,109.80 L 172.00,111.27 L 173.18,114.06 L 173.96,115.46 L 174.41,116.01 L 175.36,117.01 L 175.97,117.45 L 177.23,118.25 L 175.39,117.66 L 174.89,117.54 L 174.01,117.43 L 173.01,117.50 L 172.32,117.72 L 170.76,118.58 L 169.97,119.07 L 168.48,120.24 L 167.77,120.83 L 166.71,122.00 L 166.00,123.40 L 166.00,123.53 Z" fill="rgba(41,26,23,1)"/>
<path d="M 122.46,181.34 L 123.41,181.78 L 124.62,182.48 L 125.22,183.02 L 125.42,183.34 L 125.77,184.02 L 125.87,184.43 L 126.00,185.32 L 126.00,185.86 L 125.63,188.19 L 125.09,189.46 L 124.75,189.72 L 123.70,190.44 L 123.17,190.69 L 122.09,191.12 L 121.56,191.22 L 120.51,191.36 L 120.01,191.33 L 119.02,191.21 L 118.58,191.05 L 117.71,190.68 L 117.34,190.40 L 116.64,189.80 L 116.36,189.42 L 115.88,188.59 L 115.73,188.11 L 115.50,187.09 L 115.50,186.51 L 116.20,183.84 L 117.28,182.45 L 118.03,182.00 L 119.65,181.28 L 120.57,181.22 M 80.14,146.87 L 79.64,147.62 L 78.91,148.85 L 78.59,149.42 L 78.27,150.19 L 78.35,150.69 L 78.43,150.70 L 78.84,150.76 L 79.09,150.81 L 79.80,150.95 L 80.58,151.12 L 82.90,151.64 L 84.15,151.92 L 87.19,152.64 L 92.21,153.86 L 93.96,154.29 L 97.27,155.08 L 98.87,155.46 L 101.64,156.08 L 102.93,156.36 L 104.86,156.75 L 105.28,156.83 L 105.89,156.94 L 106.46,157.00 L 106.71,157.00 L 107.11,157.22 L 107.30,157.35 L 107.59,157.81 L 107.84,158.31 L 108.00,159.78 L 108.01,160.55 L 107.67,162.24 L 106.61,164.52 L 106.29,164.96 L 105.95,165.60 L 105.84,165.90 L 106.00,166.40 L 106.16,166.64 L 106.92,167.16 L 107.54,167.47 L 106.75,167.21 L 106.42,167.17 L 105.85,167.15 L 105.66,167.24 L 105.35,167.48 L 105.27,167.70 L 104.16,169.81 L 103.07,171.23 L 102.45,171.85 L 101.19,173.01 L 100.59,173.39 L 99.43,174.00 L 98.99,174.00 L 97.75,173.65 L 96.51,173.09 L 95.75,172.68 L 94.14,171.79 L 93.27,171.26 L 91.48,170.13 L 90.57,169.51 L 87.19,167.38 L 85.01,166.20 L 83.92,165.71 L 81.72,164.79 L 80.58,164.41 L 78.26,163.72 L 77.01,163.43 L 74.29,162.76 L 72.70,162.30 L 72.06,162.09 L 70.91,161.68 L 70.55,161.51 L 70.00,161.19 L 70.00,161.09 L 70.18,160.71 L 70.46,160.23 L 70.68,159.90 L 71.16,159.17 L 71.47,158.72 L 72.13,157.76 L 72.52,157.21 L 74.23,154.82 L 75.25,153.42 L 77.40,150.49 L 78.59,148.92 L 80.56,146.27 M 116.54,169.48 L 115.57,169.91 L 114.90,169.92 L 113.44,169.78 L 113.31,169.74 L 114.77,169.86 L 115.49,169.85 L 116.53,169.38 L 116.68,169.27 M 117.43,168.21 L 117.33,168.36 L 117.50,168.00 M 118.79,166.66 L 118.14,167.17 L 117.91,167.43 L 117.51,167.96 L 117.68,167.44 L 118.53,166.58 L 120.14,166.00 M 91.00,128.57 L 91.16,129.50 L 91.31,129.92 L 92.12,130.52 L 92.39,130.66 L 93.12,130.91 L 93.52,131.04 L 94.58,131.30 L 95.15,131.43 L 96.59,131.71 L 99.25,132.21 L 100.55,132.45 L 102.69,132.84 L 103.68,133.03 L 105.28,133.31 L 106.02,133.44 L 107.18,133.62 L 107.71,133.70 L 108.53,133.79 L 109.28,133.87 L 110.18,133.78 L 110.60,133.71 L 111.42,133.39 L 111.92,133.20 L 112.55,132.32 L 112.81,131.80 L 112.93,130.33 L 112.93,129.52 L 112.54,127.53 L 111.39,124.02 L 111.03,123.11 L 110.42,121.86 L 110.12,121.31 L 109.47,120.64 L 109.11,120.37 L 108.18,120.12 L 106.21,120.00 L 105.33,120.00 L 103.45,119.78 L 103.92,119.74 L 104.31,119.55 L 105.05,119.10 L 105.41,118.73 L 106.48,117.01 L 107.02,115.51 L 107.17,114.74 L 107.39,113.23 L 107.35,112.63 L 107.15,111.59 L 106.87,111.42 L 105.93,110.46 L 106.07,109.94 L 106.50,109.75 L 107.59,109.41 L 108.47,109.31 L 110.45,109.17 L 111.75,109.19 L 115.41,109.10 L 115.34,109.11 L 114.83,109.32 L 114.60,109.44 L 114.31,109.86 L 114.20,110.09 L 114.13,110.77 L 114.12,111.15 L 114.28,112.16 L 114.39,112.72 L 114.76,114.12 L 114.98,114.88 L 115.58,116.74 L 116.72,120.12 L 119.45,128.00 L 123.12,128.00 L 123.06,128.01 L 122.03,128.14 L 121.62,128.22 L 120.86,128.36 L 120.57,128.45 L 119.67,128.80 L 119.51,129.02 L 119.37,129.52 L 119.49,129.85 L 119.77,130.79 L 119.98,131.67 L 120.09,132.20 L 120.52,134.48 L 120.68,135.65 L 120.70,135.76 L 120.45,135.46 L 120.23,135.28 L 119.56,135.10 L 118.08,135.00 L 116.93,135.00 L 115.18,135.20 L 114.39,135.34 L 113.31,135.86 L 112.84,136.18 L 112.30,137.11 L 112.00,139.03 L 112.00,139.68 L 112.05,140.79 L 112.08,141.32 L 112.21,142.18 L 112.38,142.99 L 113.12,143.99 L 113.35,144.20 L 113.96,144.50 L 114.29,144.63 L 115.12,144.81 L 115.56,144.88 L 116.65,144.96 L 118.61,145.00 L 119.80,145.00 L 121.46,144.93 L 122.18,144.88 L 123.09,144.66 L 123.46,144.51 L 123.83,144.04 L 123.87,143.95 L 123.76,144.28 L 123.34,145.26 L 122.97,145.63 L 122.52,146.41 L 122.21,147.23 L 122.07,147.75 L 121.51,150.10 L 121.35,151.40 L 121.14,153.91 L 121.16,155.16 L 121.28,155.65 L 121.58,156.55 L 121.85,156.95 L 122.48,157.73 L 122.94,158.16 L 124.55,160.35 L 124.92,161.79 L 124.77,162.44 L 124.24,163.71 L 123.65,164.22 L 122.26,165.16 L 121.45,165.40 L 121.35,165.25 L 120.49,164.35 L 120.04,163.90 L 119.47,162.66 L 119.31,160.92 L 119.40,160.57 L 119.32,159.99 L 119.23,159.72 L 118.69,159.26 L 118.35,159.04 L 117.23,158.62 L 114.76,157.94 L 109.75,156.74 L 110.37,151.48 L 110.45,150.84 L 110.56,149.78 L 110.62,149.28 L 110.67,148.49 L 110.71,147.74 L 110.54,146.86 L 110.41,146.50 L 109.79,146.12 L 108.25,145.74 L 107.64,145.63 L 105.96,145.24 L 105.07,145.02 L 102.96,144.45 L 100.78,143.85 L 96.02,142.40 L 94.86,142.03 L 92.69,141.32 L 91.66,140.97 L 89.88,140.34 L 89.06,140.04 L 87.89,139.56 L 87.02,139.07 L 86.95,138.96 L 86.45,139.24 L 86.15,139.46 L 85.29,140.32 L 84.82,140.81 L 83.70,142.12 L 82.39,143.78 L 83.75,141.91 L 84.55,140.75 L 86.07,138.54 L 86.71,137.57 L 87.89,135.70 L 88.37,134.88 L 89.25,133.31 L 89.59,132.61 L 90.19,131.29 L 90.40,130.69 L 91.00,128.51 M 122.63,140.41 L 123.57,141.28 L 123.92,142.18 L 123.93,142.24 L 123.56,141.36 L 122.50,140.36 M 121.49,138.79 L 121.86,139.59 L 122.05,139.87 L 122.44,140.34 L 122.09,140.20 L 121.44,139.25 L 121.00,137.39 L 121.00,136.90 M 30.29,90.45 L 30.95,90.71 L 32.37,91.95 L 33.10,92.70 L 34.65,94.89 L 37.11,99.23 L 37.57,100.13 L 38.53,101.75 L 39.02,102.52 L 40.02,103.84 L 40.51,104.46 L 41.50,105.44 L 42.94,106.47 L 43.88,106.96 L 45.47,108.16 L 46.22,108.80 L 47.38,110.25 L 47.90,111.00 L 48.58,112.63 L 49.00,115.17 L 49.00,115.69 L 48.79,116.90 L 48.66,117.52 L 48.22,118.86 L 47.73,120.22 L 46.22,123.04 L 45.42,124.41 L 43.55,126.80 L 43.08,127.35 L 42.13,128.25 L 40.73,129.25 L 39.70,129.81 L 38.08,130.50 L 37.30,130.77 L 35.93,130.88 L 35.24,130.85 L 33.77,130.35 L 33.00,130.03 L 31.09,128.91 L 30.62,128.63 L 29.28,127.96 L 28.55,127.61 L 26.86,126.88 L 21.45,124.91 L 19.95,124.45 L 17.22,123.23 L 15.91,122.58 L 13.58,121.03 L 12.47,120.22 L 10.59,118.40 L 9.71,117.47 L 8.31,115.46 L 7.68,114.44 L 6.81,112.30 L 6.44,111.22 L 6.14,109.02 L 6.09,108.26 L 6.56,110.57 L 7.41,112.68 L 8.01,113.76 L 9.30,115.89 L 10.04,116.83 L 11.57,118.61 L 12.34,119.23 L 13.70,120.27 L 14.14,120.54 L 14.86,120.94 L 14.95,120.90 L 14.95,120.68 L 14.65,120.35 L 13.84,119.55 L 13.11,118.94 L 11.61,117.35 L 11.34,116.90 L 11.29,116.72 L 11.26,116.40 L 11.35,116.32 L 11.53,115.55 L 11.34,114.89 L 11.09,114.59 L 10.72,113.85 L 10.47,113.11 L 10.36,112.65 L 9.94,110.60 L 9.85,109.50 L 9.73,107.39 L 9.78,106.49 L 9.90,106.23 L 10.19,105.84 L 10.45,105.78 L 11.06,105.76 L 11.50,105.83 L 14.14,106.26 L 15.58,106.48 L 16.17,106.55 L 17.26,106.66 L 17.71,106.67 L 18.54,106.66 L 18.89,106.60 L 20.16,106.24 L 20.75,105.83 L 21.97,104.84 L 22.81,104.06 L 24.03,102.87 L 24.69,102.17 L 24.91,101.89 L 25.29,101.39 L 25.37,101.23 L 25.42,100.99 L 25.31,100.98 L 25.13,100.73 L 25.46,100.36 L 25.82,100.13 L 26.40,99.64 L 26.56,99.30 L 26.53,99.11 L 26.39,98.69 L 26.20,98.43 L 25.74,97.88 L 25.38,97.53 L 24.28,96.68 L 24.11,96.61 L 27.60,96.64 L 27.31,94.68 L 27.41,94.72 L 27.53,94.61 L 27.80,94.29 L 28.00,94.00 L 28.93,93.16 L 29.51,93.19 L 29.75,93.50 L 30.85,94.30 L 31.90,94.74 L 32.43,94.83 L 33.45,94.96 L 33.81,94.90 L 33.84,94.77 L 33.79,94.43 L 33.61,94.11 L 33.17,93.38 L 32.81,92.83 L 31.14,91.09 L 29.99,90.52 L 29.47,90.54 L 28.47,90.77 L 28.10,91.18 L 27.46,92.20 L 27.35,93.00 L 27.24,93.86 L 27.23,94.09 L 27.19,93.83 L 27.12,93.34 L 27.10,92.53 L 27.11,92.15 L 27.27,91.54 L 28.43,90.39 L 29.01,90.17 M 53.21,130.09 L 53.32,129.89 L 53.64,129.42 M 58.01,123.75 L 56.39,125.67 L 55.68,126.60 L 54.35,128.35 L 54.57,128.03 L 55.58,126.69 L 56.62,125.33 L 58.24,123.48 M 137.08,103.35 L 140.43,109.42 L 141.35,111.10 L 143.34,114.74 L 143.82,115.61 L 144.66,117.16 L 145.64,119.00 L 146.15,119.96 L 147.04,121.60 L 147.23,121.96 L 147.53,122.50 L 147.78,122.95 L 147.83,123.03 L 148.14,123.00 L 147.16,123.49 L 144.72,124.31 L 142.23,125.10 L 140.90,125.45 L 138.18,126.10 L 136.74,126.37 L 133.79,126.88 L 132.23,127.09 L 129.33,127.43 L 129.55,127.34 L 129.87,126.80 L 129.98,126.46 L 129.92,125.22 L 129.87,124.85 L 129.71,123.93 L 129.61,123.43 L 129.34,122.23 L 129.19,121.59 L 128.80,120.07 L 128.09,117.38 L 125.50,107.85 L 126.55,107.59 L 129.55,106.75 L 131.00,106.23 L 133.06,105.37 L 134.56,104.65 L 135.33,104.24 L 138.23,102.63 M 90.86,126.37 L 90.89,126.64 L 90.85,126.34 M 90.57,125.64 L 90.71,125.98 L 90.53,125.60 M 87.68,124.24 L 88.99,124.66 L 89.56,124.88 L 90.28,125.37 L 90.50,125.58 L 90.22,125.34 L 89.49,124.86 L 88.92,124.65 L 87.66,124.23 M 83.80,101.33 L 84.18,101.59 L 84.85,102.00 L 85.06,102.00 L 86.43,102.30 L 87.85,102.75 L 88.60,103.04 L 89.83,103.58 L 90.35,103.93 L 90.48,104.10 L 90.64,104.44 L 90.58,104.62 L 90.40,105.00 L 90.19,105.21 L 89.56,106.41 L 89.78,107.24 L 90.05,107.56 L 89.48,107.02 L 88.55,107.11 L 88.49,107.18 L 88.00,107.85 L 87.72,108.26 L 86.87,109.50 L 86.41,110.17 L 85.32,111.81 L 83.51,114.55 L 82.87,115.51 L 81.84,117.08 L 81.37,117.82 L 80.68,118.98 L 80.38,119.52 L 80.07,120.37 L 79.96,120.76 L 80.05,121.37 L 80.15,121.65 L 80.56,122.02 L 79.22,121.50 L 77.97,120.89 L 75.58,119.62 L 74.57,118.93 L 72.65,117.50 L 71.88,116.73 L 70.55,115.53 L 69.75,114.96 L 69.39,114.79 L 68.72,114.53 L 68.42,114.51 L 67.86,114.56 L 67.63,114.69 L 67.23,114.98 L 67.46,114.77 L 68.25,114.04 L 69.71,112.66 L 71.49,110.92 L 71.97,110.43 L 73.25,109.34 L 73.92,108.80 L 75.44,107.70 L 76.21,107.17 L 77.78,106.19 L 79.99,105.01 L 84.97,102.67 L 83.15,100.73 M 185.53,81.88 L 185.44,82.30 L 185.38,83.07 L 185.56,83.27 L 185.79,83.43 L 185.96,83.45 L 186.34,83.42 L 186.59,83.33 L 187.42,82.69 L 187.59,82.15 L 187.44,81.91 L 187.53,81.46 L 188.06,81.47 L 188.51,81.64 L 189.50,82.45 L 189.76,83.17 L 189.63,83.52 L 189.63,84.69 L 190.04,85.72 L 190.50,86.42 L 191.59,87.97 L 192.44,89.01 L 193.34,90.09 L 193.87,90.72 L 195.00,92.01 L 195.65,92.75 L 197.53,94.74 L 198.54,95.54 L 199.08,95.73 L 200.22,95.98 L 201.01,95.96 L 201.84,95.92 L 202.34,95.87 L 203.39,95.76 L 204.02,95.68 L 209.25,95.06 L 208.67,98.78 L 208.31,100.99 L 208.09,102.22 L 207.99,102.73 L 207.59,104.53 L 207.34,105.18 L 206.81,106.36 L 206.42,106.91 L 205.56,108.00 L 204.94,108.70 L 204.40,109.32 L 204.20,109.56 L 203.86,109.98 L 203.77,110.12 L 203.65,110.34 L 203.67,110.38 L 203.76,110.40 L 203.89,110.33 L 204.21,110.15 L 204.46,109.98 L 205.01,109.58 L 205.38,109.30 L 206.17,108.70 L 206.65,108.31 L 207.68,107.49 L 208.29,107.00 L 209.71,105.34 L 209.20,106.05 L 208.19,107.31 L 205.64,109.61 L 204.30,110.71 L 201.29,112.55 L 196.54,114.53 L 195.78,114.75 L 194.39,115.22 L 193.73,115.45 L 192.63,115.91 L 192.13,116.13 L 191.44,116.51 L 191.00,116.95 L 191.00,117.13 L 190.53,117.58 L 190.22,117.82 L 189.16,118.36 L 188.56,118.65 L 186.93,119.29 L 183.89,120.32 L 183.67,120.39 L 182.94,120.35 L 182.54,120.31 L 181.54,120.06 L 180.50,119.77 L 178.14,118.72 L 177.29,118.29 L 175.97,117.45 L 175.36,117.01 L 174.41,116.01 L 173.96,115.46 L 173.18,114.06 L 172.00,111.27 L 171.45,109.80 L 170.59,106.96 L 170.41,106.31 L 170.16,105.23 L 170.00,104.10 L 170.00,103.51 L 170.59,102.03 L 170.95,101.26 L 172.06,99.71 L 172.65,98.96 L 174.00,97.69 L 175.98,96.51 L 176.27,96.42 L 177.03,95.71 L 177.43,95.29 L 178.37,93.99 L 178.85,93.29 L 179.90,91.52 L 181.48,88.47 L 182.07,87.25 L 183.24,85.15 L 183.82,84.15 L 184.95,82.51 L 185.50,81.76 L 185.81,81.42 M 92.19,115.98 L 92.75,116.41 L 93.12,116.62 L 93.28,116.70 L 93.23,116.68 L 92.79,116.48 L 92.14,116.02 L 91.85,115.78 L 91.72,115.57 M 91.27,114.50 L 91.66,115.47 L 91.48,115.17 L 91.32,114.84 L 91.18,113.99 L 91.18,112.54 M 90.66,108.57 L 90.90,109.29 L 90.99,109.72 L 91.24,111.52 L 91.19,112.30 L 91.24,111.57 L 91.02,110.07 L 90.87,109.35 L 90.38,108.15 L 90.13,107.65 L 90.22,107.77 M 119.75,108.83 L 119.49,108.85 L 119.96,108.81 M 122.63,108.42 L 121.84,108.58 L 120.60,108.73 L 121.89,108.53 L 123.72,108.21 M 211.56,102.21 L 211.02,103.50 L 210.21,104.63 L 211.05,103.23 L 211.49,102.21 L 211.74,101.59 M 8.17,101.42 L 7.67,102.35 L 7.48,102.73 L 7.57,102.50 L 8.19,101.34 L 8.60,100.84 M 140.94,100.92 L 139.82,101.63 L 139.88,101.59 L 141.24,100.69 L 141.38,100.59 M 9.83,99.39 L 10.38,98.83 L 10.55,98.73 M 144.06,98.44 L 143.52,98.99 L 143.10,99.30 L 143.32,99.11 L 144.04,98.45 L 144.20,98.23 M 145.37,94.52 L 144.61,96.20 L 144.46,96.57 L 144.31,97.17 L 144.32,97.56 L 144.28,97.18 L 144.42,96.62 L 144.56,96.26 L 145.32,94.61 L 145.73,93.94 M 75.60,91.48 L 76.12,92.23 L 78.34,95.32 L 79.52,96.77 L 80.16,97.53 L 78.88,96.16 L 76.47,92.93 L 75.36,91.30 L 74.87,90.27 M 148.05,89.43 L 145.95,93.59 L 145.90,93.66 L 148.03,89.46 L 149.15,86.43 M 212.46,92.77 L 212.49,92.98 L 212.38,92.60 M 202.24,85.33 L 204.71,85.89 L 205.90,86.23 L 207.91,87.25 L 208.86,87.82 L 210.38,89.26 L 211.07,90.02 L 211.36,90.56 L 211.02,90.00 L 210.47,89.39 L 209.30,88.24 L 208.59,87.76 L 207.09,86.86 L 206.23,86.50 L 204.44,85.86 L 203.43,85.64 L 201.50,85.29 M 149.62,84.63 L 149.18,86.32 L 149.18,86.35 L 149.61,84.65 L 149.90,83.38 M 73.01,86.21 L 72.99,86.15 L 72.97,86.07 M 189.59,79.10 L 190.17,79.55 L 190.44,79.84 L 190.78,80.86 L 191.00,83.07 L 191.00,84.86 L 190.79,84.72 L 190.68,84.35 L 190.56,83.49 L 190.55,82.83 L 190.34,80.75 L 190.03,79.82 L 189.77,79.58 L 189.20,79.23 L 188.81,79.27 L 187.95,79.49 L 187.95,79.49 L 188.00,79.45 L 188.45,79.20 L 189.23,79.09 M 72.02,82.33 L 71.21,75.85 L 72.08,82.59 M 117.39,35.70 L 119.05,35.77 L 122.07,36.00 L 123.54,36.14 L 126.17,36.52 L 127.44,36.73 L 129.71,37.27 L 130.80,37.55 L 132.73,38.24 L 133.66,38.60 L 135.28,39.45 L 137.38,40.90 L 137.91,41.34 L 138.63,42.06 L 138.92,42.40 L 139.06,42.97 L 139.04,43.23 L 138.45,43.66 L 138.04,43.86 L 136.55,44.18 L 136.11,44.25 L 135.04,44.39 L 134.47,44.45 L 133.12,44.57 L 132.40,44.62 L 130.75,44.73 L 129.89,44.78 L 127.92,44.87 L 126.89,44.91 L 124.58,45.00 L 123.38,45.04 L 120.71,45.12 L 119.33,45.16 L 116.28,45.24 L 111.25,45.36 L 107.43,45.45 L 100.23,45.66 L 98.49,45.71 L 95.23,45.82 L 93.64,45.88 L 90.74,45.99 L 89.34,46.05 L 86.88,46.16 L 85.72,46.21 L 83.79,46.32 L 82.90,46.37 L 81.58,46.47 L 80.39,46.60 L 79.83,46.71 L 78.92,46.79 L 78.50,46.81 L 77.85,46.70 L 77.56,46.63 L 77.13,46.33 L 76.94,46.15 L 76.69,45.64 L 76.45,45.00 L 76.61,43.77 L 76.79,43.17 L 77.78,42.02 L 78.36,41.46 L 80.10,40.42 L 81.06,39.92 L 83.50,39.00 L 84.81,38.56 L 87.89,37.79 L 89.51,37.43 L 93.17,36.82 L 95.07,36.54 L 99.27,36.12 L 106.08,35.72 L 108.19,35.65 L 112.07,35.61 L 113.95,35.61 M 105.09,36.00 L 102.11,36.06 L 100.45,36.17 L 99.78,36.27 L 98.53,36.49 L 98.06,36.65 L 97.20,37.01 L 96.90,37.24 L 96.40,37.76 L 96.27,38.08 L 96.10,38.77 L 96.13,39.19 L 96.26,40.09 L 96.43,40.62 L 96.83,41.74 L 97.13,42.39 L 97.65,43.45 L 97.94,43.81 L 98.60,44.42 L 99.10,44.60 L 100.24,44.87 L 101.12,44.93 L 102.06,44.98 L 102.63,44.99 L 103.83,45.00 L 104.55,45.00 L 107.35,44.89 L 109.00,44.72 L 109.71,44.58 L 111.07,44.26 L 111.63,44.05 L 112.69,43.61 L 113.10,43.34 L 113.85,42.76 L 114.10,42.43 L 114.54,41.73 L 114.63,41.33 L 114.75,40.51 L 114.68,40.06 L 114.47,39.13 L 114.24,38.62 L 113.40,37.15 L 112.68,36.54 L 112.09,36.37 L 111.44,36.22 L 111.03,36.17 L 110.13,36.08 L 109.57,36.06 L 108.36,36.02 L 107.62,36.01 L 106.04,36.00 Z" fill="rgba(150,19,20,1)"/>
<path d="M 22.92,96.23 L 23.45,96.32 L 24.28,96.68 L 25.38,97.53 L 25.74,97.88 L 26.20,98.43 L 26.39,98.69 L 26.53,99.11 L 26.56,99.30 L 26.40,99.64 L 25.82,100.13 L 25.46,100.36 L 25.13,100.73 L 25.31,100.98 L 25.42,100.99 L 25.37,101.23 L 25.29,101.39 L 24.91,101.89 L 24.69,102.17 L 24.03,102.87 L 22.81,104.06 L 21.97,104.84 L 20.75,105.83 L 20.16,106.24 L 18.89,106.60 L 18.54,106.66 L 17.71,106.67 L 17.26,106.66 L 16.17,106.55 L 15.58,106.48 L 14.14,106.26 L 11.50,105.83 L 11.06,105.76 L 10.45,105.78 L 10.19,105.84 L 9.90,106.23 L 9.78,106.49 L 9.73,107.39 L 9.85,109.50 L 9.94,110.60 L 10.36,112.65 L 10.47,113.11 L 10.72,113.85 L 11.09,114.59 L 11.34,114.89 L 11.53,115.55 L 11.35,116.32 L 11.26,116.40 L 11.29,116.72 L 11.34,116.90 L 11.61,117.35 L 13.11,118.94 L 13.84,119.55 L 14.65,120.35 L 14.95,120.68 L 14.95,120.90 L 14.86,120.94 L 14.14,120.54 L 13.70,120.27 L 12.34,119.23 L 11.57,118.61 L 10.04,116.83 L 9.30,115.89 L 8.01,113.76 L 7.41,112.68 L 6.56,110.57 L 6.00,107.83 L 6.00,107.03 L 6.46,105.18 L 6.75,104.24 L 7.67,102.35 L 8.17,101.42 L 9.38,99.81 L 11.33,98.03 L 11.59,97.86 L 12.48,97.52 L 12.97,97.35 L 14.20,97.03 L 18.43,96.29 L 19.46,96.19 L 21.06,96.11 L 21.79,96.10 M 80.70,98.08 L 82.73,99.67 L 84.45,100.78 L 85.46,101.33 L 87.56,102.45 L 88.72,103.00 L 91.09,104.08 L 92.34,104.59 L 97.47,106.56 L 100.01,107.32 L 102.52,108.03 L 103.72,108.30 L 106.06,108.79 L 107.12,108.94 L 109.56,109.23 L 108.47,109.31 L 107.59,109.41 L 106.50,109.75 L 106.07,109.94 L 105.93,110.46 L 106.87,111.42 L 107.15,111.59 L 107.35,112.63 L 107.39,113.23 L 107.17,114.74 L 107.02,115.51 L 106.48,117.01 L 105.41,118.73 L 105.05,119.10 L 104.31,119.55 L 103.92,119.74 L 102.98,119.83 L 102.47,119.83 L 101.14,119.57 L 100.41,119.39 L 98.50,118.76 L 97.65,118.47 L 96.21,117.95 L 95.54,117.71 L 94.44,117.26 L 93.93,117.04 L 93.12,116.62 L 92.75,116.41 L 92.19,115.98 L 91.69,115.54 L 91.27,114.50 L 91.18,112.41 L 91.24,111.52 L 90.99,109.72 L 90.90,109.29 L 90.66,108.57 L 90.22,107.77 L 89.78,107.24 L 89.56,106.41 L 90.19,105.21 L 90.40,105.00 L 90.58,104.62 L 90.64,104.44 L 90.48,104.10 L 90.35,103.93 L 89.83,103.58 L 88.60,103.04 L 87.85,102.75 L 86.43,102.30 L 85.06,102.00 L 84.85,102.00 L 84.18,101.59 L 83.80,101.33 L 82.87,100.47 L 82.37,100.00 L 81.27,98.81 L 80.70,98.18 L 80.32,97.72 M 189.77,79.58 L 190.03,79.82 L 190.34,80.75 L 190.55,82.83 L 190.56,83.49 L 190.68,84.35 L 190.79,84.72 L 191.38,85.11 L 191.76,85.26 L 193.18,85.31 L 193.60,85.31 L 194.67,85.27 L 196.63,85.17 L 197.89,85.10 L 200.22,85.18 L 201.36,85.26 L 203.43,85.64 L 204.44,85.86 L 206.23,86.50 L 207.09,86.86 L 208.59,87.76 L 209.30,88.24 L 210.47,89.39 L 211.02,90.00 L 211.86,91.38 L 212.23,92.10 L 212.71,93.70 L 213.00,96.33 L 213.00,97.15 L 212.58,99.13 L 212.32,100.14 L 211.49,102.21 L 211.05,103.23 L 209.98,105.02 L 208.29,107.00 L 207.68,107.49 L 206.65,108.31 L 206.17,108.70 L 205.38,109.30 L 205.01,109.58 L 204.46,109.98 L 204.21,110.15 L 203.89,110.33 L 203.76,110.40 L 203.67,110.38 L 203.65,110.34 L 203.77,110.12 L 203.86,109.98 L 204.20,109.56 L 204.40,109.32 L 204.94,108.70 L 205.56,108.00 L 206.42,106.91 L 206.81,106.36 L 207.34,105.18 L 207.59,104.53 L 207.99,102.73 L 208.09,102.22 L 208.31,100.99 L 208.67,98.78 L 209.25,95.06 L 204.02,95.68 L 203.39,95.76 L 202.34,95.87 L 201.84,95.92 L 201.01,95.96 L 200.22,95.98 L 199.08,95.73 L 198.54,95.54 L 197.53,94.74 L 195.65,92.75 L 195.00,92.01 L 193.87,90.72 L 193.34,90.09 L 192.44,89.01 L 191.59,87.97 L 190.50,86.42 L 190.04,85.72 L 189.63,84.69 L 189.63,83.52 L 189.76,83.17 L 189.50,82.45 L 188.51,81.64 L 188.06,81.47 L 187.53,81.46 L 187.44,81.91 L 187.59,82.15 L 187.42,82.69 L 186.59,83.33 L 186.34,83.42 L 185.96,83.45 L 185.79,83.43 L 185.56,83.27 L 185.38,83.07 L 185.44,82.30 L 185.53,81.88 L 186.09,80.96 L 187.40,79.80 L 187.95,79.49 L 188.81,79.27 L 189.20,79.23 M 129.55,106.75 L 126.55,107.59 L 125.03,107.97 L 121.89,108.53 L 120.29,108.78 L 117.11,109.05 L 117.38,109.02 L 120.12,108.66 L 121.50,108.50 L 123.80,108.13 L 125.49,107.79 L 126.35,107.58 L 128.07,107.16 L 128.86,106.93 L 130.06,106.56 M 144.44,97.77 L 144.22,98.21 L 144.04,98.45 L 143.32,99.11 L 142.92,99.46 L 141.82,100.27 L 141.24,100.69 L 140.22,101.37 L 141.25,100.69 L 141.83,100.27 L 142.92,99.46 L 143.32,99.11 L 144.04,98.45 L 144.21,98.21 L 144.44,97.77 M 31.14,91.09 L 32.81,92.83 L 33.17,93.38 L 33.61,94.11 L 33.79,94.43 L 33.84,94.77 L 33.81,94.90 L 33.45,94.96 L 32.43,94.83 L 31.90,94.74 L 30.85,94.30 L 29.75,93.50 L 29.51,93.19 L 28.93,93.16 L 28.00,94.00 L 27.80,94.29 L 27.53,94.61 L 27.41,94.72 L 27.28,94.67 L 27.23,94.59 L 27.22,94.14 L 27.24,93.86 L 27.35,93.00 L 27.46,92.20 L 28.10,91.18 L 28.47,90.77 L 29.47,90.54 L 29.99,90.52 M 72.10,82.58 L 73.19,86.62 L 73.98,88.46 L 74.89,90.32 L 74.73,90.06 L 73.74,88.18 L 73.42,87.46 L 72.84,85.70 L 72.57,84.78 L 72.10,82.70 L 71.69,79.59 M 114.88,67.99 L 116.71,68.07 L 117.79,68.16 L 120.04,68.37 L 121.35,68.53 L 124.09,68.87 L 125.65,69.08 L 128.54,69.52 L 130.23,69.82 L 130.97,69.97 L 132.37,70.28 L 132.97,70.44 L 134.08,70.76 L 134.54,70.93 L 135.37,71.27 L 135.69,71.44 L 136.26,71.80 L 136.44,71.99 L 136.91,72.76 L 136.77,73.18 L 135.94,73.85 L 134.75,74.50 L 133.91,74.90 L 132.09,75.74 L 131.01,76.19 L 128.74,77.11 L 127.52,77.58 L 125.05,78.49 L 123.86,78.92 L 121.52,79.74 L 120.48,80.09 L 118.51,80.74 L 117.75,80.97 L 116.41,81.37 L 116.06,81.44 L 113.83,81.50 L 112.40,81.19 L 111.73,80.89 L 110.44,80.20 L 109.86,79.74 L 108.77,78.74 L 108.33,78.16 L 107.51,76.96 L 107.23,76.31 L 106.75,74.98 L 106.66,74.30 L 106.58,72.93 L 106.72,72.26 L 107.12,70.94 L 107.52,70.33 L 109.34,68.74 L 110.21,68.40 L 110.74,68.28 L 111.87,68.08 L 112.56,68.03 L 114.01,67.97 M 71.05,70.63 L 71.05,70.61 L 71.17,69.43 M 71.23,68.86 L 71.23,68.86 L 71.26,68.71 M 71.36,68.04 L 71.36,68.03 L 71.70,67.00 M 71.85,66.56 L 73.00,64.22 L 71.85,66.56 M 107.62,36.01 L 108.36,36.02 L 109.57,36.06 L 110.13,36.08 L 111.03,36.17 L 111.44,36.22 L 112.09,36.37 L 112.68,36.54 L 113.40,37.15 L 114.24,38.62 L 114.47,39.13 L 114.68,40.06 L 114.75,40.51 L 114.63,41.33 L 114.54,41.73 L 114.10,42.43 L 113.85,42.76 L 113.10,43.34 L 112.69,43.61 L 111.63,44.05 L 111.07,44.26 L 109.71,44.58 L 109.00,44.72 L 107.35,44.89 L 104.55,45.00 L 103.83,45.00 L 102.63,44.99 L 102.06,44.98 L 101.12,44.93 L 100.24,44.87 L 99.10,44.60 L 98.60,44.42 L 97.94,43.81 L 97.65,43.45 L 97.13,42.39 L 96.83,41.74 L 96.43,40.62 L 96.26,40.09 L 96.13,39.19 L 96.10,38.77 L 96.27,38.08 L 96.40,37.76 L 96.90,37.24 L 97.20,37.01 L 98.06,36.65 L 98.53,36.49 L 99.78,36.27 L 100.45,36.17 L 102.11,36.06 L 105.09,36.00 L 106.04,36.00 Z" fill="rgba(203,65,49,1)"/>
<path d="M 83.21,217.14 L 81.93,216.69 L 79.39,215.58 L 78.13,214.99 L 75.66,213.62 L 73.21,212.19 L 68.57,208.64 L 66.30,206.76 L 62.10,202.44 L 60.07,200.20 L 56.42,195.28 L 54.68,192.76 L 51.71,187.39 L 50.32,184.67 L 48.12,179.03 L 47.14,176.18 L 45.84,170.42 L 45.02,161.82 L 45.01,161.06 L 45.12,159.29 L 45.19,158.37 L 45.43,156.37 L 45.71,154.31 L 46.56,149.88 L 47.03,147.66 L 48.17,143.46 L 48.46,142.46 L 49.08,140.63 L 50.02,138.23 L 50.56,137.00 L 51.42,134.80 L 51.60,134.31 L 51.84,133.55 L 52.00,132.85 L 52.00,132.50 L 52.47,131.37 L 52.78,130.76 L 53.76,129.21 L 54.31,128.40 L 55.68,126.60 L 56.39,125.67 L 58.01,123.75 L 59.66,121.83 L 63.16,118.30 L 64.00,117.50 L 65.58,116.15 L 67.63,114.69 L 67.86,114.56 L 68.42,114.51 L 68.72,114.53 L 69.39,114.79 L 69.75,114.96 L 70.55,115.53 L 71.88,116.73 L 72.65,117.50 L 74.57,118.93 L 75.58,119.62 L 77.97,120.89 L 79.22,121.50 L 82.04,122.58 L 86.75,124.00 L 87.65,124.23 L 88.92,124.65 L 89.49,124.86 L 90.22,125.34 L 90.53,125.60 L 90.84,126.26 L 91.00,127.58 L 91.00,128.51 L 90.40,130.69 L 90.19,131.29 L 89.59,132.61 L 89.25,133.31 L 88.37,134.88 L 87.89,135.70 L 86.71,137.57 L 86.07,138.54 L 84.55,140.75 L 83.75,141.91 L 81.86,144.51 L 78.59,148.92 L 77.40,150.49 L 75.25,153.42 L 74.23,154.82 L 72.52,157.21 L 72.13,157.76 L 71.47,158.72 L 71.16,159.17 L 70.68,159.90 L 70.46,160.23 L 70.18,160.71 L 70.00,161.09 L 70.00,161.19 L 70.55,161.51 L 70.91,161.68 L 72.06,162.09 L 72.70,162.30 L 74.29,162.76 L 77.01,163.43 L 78.26,163.72 L 80.58,164.41 L 81.72,164.79 L 83.92,165.71 L 85.01,166.20 L 87.19,167.38 L 90.57,169.51 L 91.48,170.13 L 93.27,171.26 L 94.14,171.79 L 95.75,172.68 L 96.51,173.09 L 97.75,173.65 L 98.99,174.00 L 99.43,174.00 L 100.59,173.39 L 101.19,173.01 L 102.45,171.85 L 103.07,171.23 L 104.16,169.81 L 105.27,167.70 L 105.35,167.48 L 105.66,167.24 L 105.85,167.15 L 106.42,167.17 L 106.75,167.21 L 107.63,167.50 L 109.37,168.25 L 110.55,168.81 L 112.52,169.50 L 113.44,169.78 L 114.90,169.92 L 115.57,169.91 L 116.54,169.48 L 117.43,168.21 L 117.51,167.96 L 117.91,167.43 L 118.14,167.17 L 118.79,166.66 L 121.25,165.46 L 122.26,165.16 L 123.65,164.22 L 124.24,163.71 L 124.77,162.44 L 124.92,161.79 L 124.55,160.35 L 122.94,158.16 L 122.48,157.73 L 121.85,156.95 L 121.58,156.55 L 121.28,155.65 L 121.16,155.16 L 121.14,153.91 L 121.35,151.40 L 121.51,150.10 L 122.07,147.75 L 122.21,147.23 L 122.52,146.41 L 122.97,145.63 L 123.34,145.26 L 123.76,144.28 L 123.93,143.77 L 123.96,142.70 L 123.92,142.18 L 123.57,141.28 L 122.63,140.41 L 122.44,140.34 L 122.05,139.87 L 121.86,139.59 L 121.49,138.79 L 120.68,135.65 L 120.52,134.48 L 120.09,132.20 L 119.98,131.67 L 119.77,130.79 L 119.49,129.85 L 119.37,129.52 L 119.51,129.02 L 119.67,128.80 L 120.57,128.45 L 120.86,128.36 L 121.62,128.22 L 122.03,128.14 L 123.06,128.01 L 123.62,127.94 L 124.96,127.81 L 127.36,127.60 L 129.04,127.46 L 132.23,127.09 L 133.79,126.88 L 136.74,126.37 L 138.18,126.10 L 140.90,125.45 L 142.23,125.10 L 144.72,124.31 L 147.16,123.49 L 151.38,121.41 L 156.76,117.63 L 159.02,115.63 L 162.51,119.01 L 163.47,119.94 L 164.98,121.73 L 165.29,122.14 L 165.72,122.82 L 166.00,123.53 L 166.00,123.68 L 166.35,124.57 L 166.57,125.10 L 167.29,126.59 L 167.69,127.39 L 168.68,129.28 L 170.38,132.35 L 171.60,134.48 L 173.59,138.82 L 174.52,141.00 L 175.95,145.43 L 176.59,147.65 L 177.45,152.16 L 177.80,154.42 L 178.09,158.98 L 178.16,161.26 L 177.87,165.86 L 177.66,168.16 L 176.80,172.77 L 176.29,175.08 L 174.86,179.70 L 172.06,186.61 L 171.40,188.01 L 169.80,190.85 L 168.96,192.27 L 167.03,195.08 L 166.03,196.47 L 163.84,199.20 L 162.71,200.54 L 160.31,203.12 L 159.08,204.38 L 156.53,206.76 L 155.23,207.91 L 152.58,210.03 L 151.24,211.04 L 148.55,212.83 L 144.53,215.09 L 137.55,218.50 L 113.03,218.75 L 111.67,218.76 L 109.16,218.79 L 107.94,218.80 L 105.69,218.81 L 103.51,218.82 L 99.85,218.82 L 98.13,218.82 L 95.27,218.77 L 93.93,218.74 L 91.72,218.65 L 90.69,218.59 L 88.97,218.43 L 88.16,218.35 L 86.79,218.12 L 85.48,217.87 M 124.75,189.72 L 125.09,189.46 L 125.63,188.19 L 126.00,185.86 L 126.00,185.32 L 125.87,184.43 L 125.77,184.02 L 125.42,183.34 L 125.22,183.02 L 124.62,182.48 L 123.41,181.78 L 122.46,181.34 L 120.57,181.22 L 119.65,181.28 L 118.03,182.00 L 117.28,182.45 L 116.20,183.84 L 115.50,186.51 L 115.50,187.09 L 115.73,188.11 L 115.88,188.59 L 116.36,189.42 L 116.64,189.80 L 117.34,190.40 L 117.71,190.68 L 118.58,191.05 L 119.02,191.21 L 120.01,191.33 L 120.51,191.36 L 121.56,191.22 L 122.09,191.12 L 123.17,190.69 L 123.70,190.44 M 107.12,108.94 L 106.06,108.79 L 103.72,108.30 L 102.52,108.03 L 100.01,107.32 L 97.47,106.56 L 92.34,104.59 L 91.09,104.08 L 88.72,103.00 L 87.56,102.45 L 85.46,101.33 L 84.45,100.78 L 82.73,99.67 L 80.70,98.08 L 79.25,96.72 L 76.85,93.63 L 75.73,92.02 L 73.98,88.46 L 73.19,86.62 L 72.10,82.58 L 71.21,75.99 L 71.16,75.15 L 71.09,73.70 L 71.06,73.00 L 71.05,71.80 L 71.05,70.65 L 71.23,68.88 L 71.36,68.04 L 71.85,66.57 L 73.00,64.22 L 73.59,63.16 L 75.04,61.32 L 75.81,60.45 L 77.71,58.98 L 78.72,58.28 L 81.17,57.15 L 82.48,56.62 L 85.63,55.79 L 87.30,55.41 L 91.25,54.86 L 93.33,54.62 L 98.21,54.32 L 99.50,54.26 L 102.26,54.19 L 103.67,54.16 L 106.71,54.14 L 108.26,54.13 L 111.58,54.16 L 116.91,54.26 L 118.39,54.29 L 121.13,54.37 L 122.46,54.41 L 124.91,54.49 L 127.29,54.58 L 131.26,54.81 L 133.13,54.94 L 136.20,55.28 L 137.64,55.47 L 139.98,55.95 L 141.08,56.22 L 142.85,56.90 L 143.68,57.26 L 145.04,58.16 L 145.68,58.64 L 146.80,59.81 L 148.38,61.91 L 149.03,62.88 L 149.93,64.43 L 150.32,65.19 L 150.78,66.70 L 150.97,67.50 L 151.11,69.46 L 151.13,70.00 L 151.13,71.25 L 151.09,73.45 L 151.04,75.47 L 150.64,79.29 L 150.39,81.16 L 149.61,84.65 L 149.18,86.35 L 148.03,89.46 L 145.90,93.66 L 145.32,94.61 L 144.56,96.26 L 144.42,96.62 L 144.28,97.18 L 144.33,97.67 L 144.44,97.77 L 144.21,98.21 L 144.04,98.45 L 143.32,99.11 L 142.92,99.46 L 141.83,100.27 L 141.25,100.69 L 139.89,101.59 L 138.48,102.49 L 135.34,104.25 L 134.56,104.66 L 133.06,105.38 L 131.00,106.24 L 130.38,106.47 L 128.86,106.93 L 128.07,107.16 L 126.35,107.58 L 125.49,107.79 L 123.80,108.13 L 121.50,108.50 L 120.12,108.66 L 117.38,109.02 L 116.75,109.10 L 115.67,109.24 L 114.50,109.40 L 114.22,109.45 L 113.30,109.46 L 112.79,109.46 L 111.51,109.39 L 110.17,109.31 M 108.00,96.00 L 108.00,95.72 L 107.71,95.29 L 107.00,95.00 L 106.72,95.00 L 106.29,95.29 L 106.00,96.00 L 106.00,96.27 L 106.29,96.71 L 107.00,97.00 L 107.27,97.00 L 107.71,96.71 L 107.89,96.52 M 105.00,93.94 L 105.00,93.68 L 104.56,93.28 L 103.50,93.00 L 103.11,93.00 L 102.55,93.20 L 102.31,93.33 L 102.07,93.73 L 101.99,93.95 L 102.08,94.47 L 102.64,95.31 L 102.84,95.51 L 103.35,95.61 L 103.60,95.62 L 104.12,95.40 L 104.36,95.25 L 104.74,94.80 L 104.90,94.55 M 101.00,92.50 L 101.00,92.09 L 100.56,91.44 L 99.50,91.00 L 99.11,91.00 L 98.55,91.20 L 98.31,91.33 L 98.07,91.74 L 97.99,91.95 L 98.09,92.48 L 98.67,93.33 L 98.95,93.62 L 99.52,93.91 L 99.79,94.01 L 100.26,93.93 L 100.48,93.86 L 100.80,93.45 L 100.93,93.21 M 127.52,77.58 L 128.74,77.11 L 131.01,76.19 L 132.09,75.74 L 133.91,74.90 L 134.75,74.50 L 135.94,73.85 L 136.77,73.18 L 136.91,72.76 L 136.44,71.99 L 136.26,71.80 L 135.69,71.44 L 135.37,71.27 L 134.54,70.93 L 134.08,70.76 L 132.97,70.44 L 132.37,70.28 L 130.97,69.97 L 130.23,69.82 L 128.54,69.52 L 125.65,69.08 L 124.09,68.87 L 121.35,68.53 L 120.04,68.37 L 117.79,68.16 L 116.71,68.07 L 114.88,67.99 L 114.01,67.97 L 112.56,68.03 L 111.87,68.08 L 110.74,68.28 L 110.21,68.40 L 109.34,68.74 L 107.52,70.33 L 107.12,70.94 L 106.72,72.26 L 106.58,72.93 L 106.66,74.30 L 106.75,74.98 L 107.23,76.31 L 107.51,76.96 L 108.33,78.16 L 108.77,78.74 L 109.86,79.74 L 110.44,80.20 L 111.73,80.89 L 112.40,81.19 L 113.83,81.50 L 116.06,81.44 L 116.41,81.37 L 117.75,80.97 L 118.51,80.74 L 120.48,80.09 L 121.52,79.74 L 123.86,78.92 L 125.05,78.49 M 125.00,62.57 L 125.00,61.77 L 124.62,60.32 L 124.38,59.64 L 123.63,58.57 L 123.23,58.09 L 122.26,57.55 L 120.72,57.55 L 120.17,57.76 L 119.47,58.84 L 119.19,59.45 L 119.03,61.01 L 119.01,61.81 L 119.40,63.43 L 120.61,65.46 L 121.10,65.96 L 122.13,66.32 L 122.64,66.40 L 123.55,66.00 L 123.98,65.72 L 124.59,64.70 L 124.85,64.11 M 103.99,64.51 L 104.33,64.10 L 104.67,62.95 L 104.56,61.29 L 104.42,60.93 L 104.19,60.47 L 104.07,60.28 L 103.85,60.15 L 103.74,60.13 L 103.49,60.32 L 103.02,60.96 L 102.84,61.26 L 102.52,61.62 L 102.36,61.77 L 102.02,61.86 L 101.84,61.86 L 101.41,61.67 L 100.58,61.06 L 100.24,60.78 L 99.76,60.46 L 99.55,60.34 L 99.28,60.34 L 99.17,60.38 L 99.06,60.73 L 99.00,61.68 L 99.00,62.15 L 99.29,63.15 L 99.48,63.64 L 100.04,64.55 L 100.34,64.97 L 101.03,65.59 L 102.08,66.00 L 102.26,66.00 L 102.92,65.56 L 103.27,65.29 M 121.00,60.00 L 121.00,59.72 L 121.29,59.29 L 122.00,59.00 L 122.27,59.00 L 122.71,59.29 L 123.00,60.00 L 123.00,60.27 L 122.71,60.71 L 122.00,61.00 L 121.72,61.00 L 121.29,60.71 L 121.11,60.52 Z" fill="rgba(217,222,228,1)"/>
</g>
</svg>