<svg xmlns="http://www.w3.org/2000/svg" width="224" height="225" viewBox="0 0 224 225">
<g>
<path d="M 111.88,4.44 L 112.06,4.80 L 112.57,6.00 L 112.85,6.67 L 113.54,8.46 L 113.91,9.42 L 114.75,11.73 L 115.18,12.95 L 116.15,15.70 L 116.65,17.12 L 117.71,20.25 L 118.26,21.85 L 119.39,25.27 L 121.15,30.66 L 129.80,57.50 L 134.15,59.69 L 135.35,60.29 L 137.55,61.26 L 138.05,61.46 L 138.84,61.75 L 139.62,61.94 L 139.70,61.95 L 140.28,61.77 L 140.64,61.65 L 141.74,61.25 L 142.34,61.03 L 143.89,60.43 L 144.72,60.11 L 146.66,59.34 L 147.68,58.93 L 149.96,58.01 L 151.13,57.53 L 153.67,56.48 L 162.03,52.99 L 164.95,51.75 L 170.32,49.52 L 171.61,48.99 L 173.98,48.03 L 175.12,47.56 L 177.18,46.74 L 178.16,46.35 L 179.84,45.70 L 180.63,45.40 L 181.88,44.94 L 182.45,44.73 L 183.20,44.49 L 183.72,44.39 L 183.75,44.41 L 183.57,44.86 L 183.45,45.14 L 183.00,46.04 L 182.75,46.55 L 182.05,47.87 L 181.67,48.58 L 180.76,50.26 L 180.27,51.14 L 179.17,53.12 L 178.59,54.15 L 177.33,56.39 L 173.06,63.80 L 171.54,66.42 L 168.77,71.26 L 168.11,72.42 L 166.89,74.58 L 166.30,75.62 L 165.25,77.51 L 164.75,78.42 L 163.90,79.98 L 163.50,80.72 L 162.87,81.90 L 162.59,82.44 L 162.23,83.20 L 162.00,83.78 L 162.00,83.91 L 162.15,84.50 L 162.25,84.84 L 162.58,85.76 L 163.96,89.18 L 165.92,93.61 L 192.71,101.96 L 196.39,103.10 L 203.23,105.26 L 204.86,105.78 L 207.91,106.74 L 209.39,107.22 L 212.06,108.07 L 213.34,108.49 L 215.55,109.21 L 216.59,109.55 L 218.27,110.10 L 219.04,110.36 L 220.11,110.73 L 220.95,111.05 L 221.06,111.11 L 220.96,111.32 L 220.86,111.44 L 220.33,111.75 L 220.02,111.93 L 219.09,112.35 L 218.58,112.58 L 217.25,113.11 L 216.55,113.38 L 214.85,114.00 L 213.95,114.33 L 211.90,115.04 L 210.82,115.40 L 208.42,116.20 L 204.45,117.47 L 201.86,118.29 L 197.21,119.76 L 194.96,120.47 L 190.95,121.73 L 189.02,122.34 L 185.61,123.42 L 183.97,123.94 L 181.10,124.86 L 179.73,125.30 L 177.35,126.08 L 176.22,126.45 L 174.29,127.11 L 173.37,127.43 L 171.84,127.98 L 171.11,128.25 L 169.92,128.73 L 169.36,128.96 L 168.47,129.38 L 168.05,129.58 L 167.40,129.96 L 166.79,130.33 L 166.11,131.06 L 165.82,131.43 L 165.47,132.26 L 164.86,133.83 L 164.35,135.02 L 163.55,137.16 L 163.38,137.63 L 163.15,138.38 L 163.00,139.07 L 163.00,139.13 L 163.22,139.66 L 163.36,139.99 L 163.83,141.01 L 164.10,141.57 L 164.81,143.02 L 165.19,143.79 L 166.10,145.62 L 166.58,146.57 L 167.67,148.71 L 168.23,149.81 L 169.47,152.20 L 173.57,160.08 L 175.02,162.85 L 177.65,167.92 L 178.27,169.13 L 179.41,171.36 L 179.96,172.45 L 180.94,174.38 L 181.40,175.31 L 182.18,176.89 L 182.55,177.64 L 183.10,178.81 L 183.35,179.34 L 183.66,180.05 L 183.81,180.52 L 183.79,180.55 L 183.31,180.40 L 183.00,180.29 L 181.99,179.91 L 181.43,179.68 L 179.95,179.09 L 179.16,178.76 L 177.28,177.98 L 176.30,177.57 L 174.07,176.62 L 172.91,176.13 L 170.40,175.05 L 162.05,171.41 L 140.62,161.96 L 136.32,163.98 L 135.14,164.54 L 132.99,165.41 L 132.51,165.59 L 131.74,165.84 L 131.01,166.00 L 130.73,166.00 L 130.30,166.13 L 130.00,166.44 L 130.00,166.49 L 129.80,167.20 L 129.67,167.65 L 129.22,169.09 L 128.98,169.90 L 128.33,171.96 L 127.99,173.06 L 127.18,175.64 L 126.75,176.99 L 125.81,179.97 L 125.32,181.50 L 124.28,184.79 L 123.22,188.12 L 120.95,195.21 L 119.81,198.76 L 117.60,205.62 L 117.06,207.28 L 116.05,210.41 L 115.55,211.94 L 114.65,214.71 L 114.22,216.04 L 113.46,218.35 L 113.10,219.43 L 112.52,221.17 L 112.26,221.95 L 111.90,223.01 L 111.64,223.70 L 111.59,223.74 L 111.42,223.48 L 111.31,223.31 L 111.05,222.67 L 110.77,221.96 L 110.08,219.76 L 109.99,219.46 L 109.67,218.40 L 109.48,217.80 L 108.97,216.17 L 108.70,215.29 L 108.03,213.17 L 107.68,212.06 L 106.88,209.54 L 106.47,208.24 L 105.56,205.38 L 105.09,203.92 L 104.10,200.82 L 100.93,190.96 L 93.02,166.41 L 88.49,164.21 L 87.24,163.60 L 84.92,162.65 L 84.40,162.46 L 83.56,162.19 L 82.72,162.02 L 82.64,162.02 L 82.06,162.21 L 81.71,162.33 L 80.63,162.73 L 80.04,162.96 L 78.53,163.56 L 77.72,163.89 L 75.84,164.66 L 74.85,165.06 L 72.65,165.98 L 71.52,166.45 L 69.06,167.49 L 61.00,170.96 L 58.18,172.18 L 53.02,174.35 L 51.78,174.86 L 49.51,175.79 L 48.41,176.23 L 46.43,177.01 L 45.49,177.37 L 43.88,177.98 L 43.13,178.25 L 41.94,178.66 L 41.40,178.84 L 40.68,179.03 L 40.20,179.04 L 40.18,178.99 L 40.37,178.49 L 40.50,178.19 L 40.96,177.24 L 41.22,176.72 L 41.93,175.37 L 42.31,174.65 L 43.24,172.96 L 43.73,172.07 L 44.84,170.08 L 45.42,169.06 L 46.69,166.83 L 50.95,159.49 L 52.47,156.91 L 55.24,152.13 L 55.90,150.98 L 57.11,148.84 L 57.69,147.81 L 58.74,145.93 L 59.24,145.03 L 60.08,143.47 L 60.48,142.74 L 61.09,141.55 L 61.37,141.01 L 61.73,140.24 L 61.94,139.63 L 61.93,139.48 L 61.75,138.84 L 61.63,138.48 L 61.26,137.53 L 59.69,134.07 L 57.50,129.65 L 30.25,121.07 L 28.38,120.48 L 24.78,119.34 L 23.01,118.77 L 19.67,117.69 L 18.05,117.16 L 15.05,116.17 L 13.60,115.69 L 11.01,114.82 L 9.78,114.40 L 7.68,113.67 L 6.69,113.33 L 5.16,112.77 L 4.46,112.51 L 3.56,112.14 L 3.00,111.83 L 3.00,111.78 L 3.30,111.60 L 3.50,111.49 L 4.17,111.20 L 4.54,111.04 L 5.53,110.66 L 6.06,110.45 L 7.33,109.99 L 8.67,109.51 L 12.02,108.36 L 17.75,106.50 L 19.78,105.86 L 24.49,104.37 L 26.90,103.61 L 31.93,102.02 L 34.42,101.24 L 39.16,99.74 L 40.30,99.38 L 42.42,98.71 L 45.29,97.80 L 58.09,93.76 L 60.54,88.91 L 61.22,87.58 L 62.28,85.07 L 62.50,84.50 L 62.81,83.57 L 63.00,82.64 L 63.00,82.54 L 62.79,81.97 L 62.64,81.62 L 62.17,80.60 L 61.90,80.04 L 61.20,78.62 L 60.82,77.87 L 59.91,76.12 L 59.43,75.20 L 58.35,73.16 L 57.79,72.11 L 56.57,69.85 L 52.49,62.45 L 51.04,59.87 L 48.44,55.13 L 47.82,54.00 L 46.70,51.90 L 46.15,50.89 L 45.20,49.07 L 44.74,48.20 L 43.98,46.70 L 43.63,46.00 L 43.09,44.89 L 42.85,44.39 L 42.56,43.71 L 42.44,43.23 L 42.47,43.20 L 42.95,43.33 L 43.26,43.43 L 44.24,43.82 L 44.79,44.04 L 46.23,44.64 L 46.99,44.96 L 48.81,45.76 L 49.77,46.18 L 51.92,47.15 L 53.03,47.65 L 55.46,48.76 L 63.48,52.50 L 84.06,62.25 L 88.51,60.55 L 92.95,58.85 L 100.53,35.18 L 101.58,31.92 L 103.57,25.69 L 104.06,24.18 L 104.97,21.32 L 105.42,19.92 L 106.24,17.35 L 106.64,16.11 L 107.35,13.90 L 107.68,12.85 L 108.25,11.07 L 108.51,10.25 L 108.92,8.99 L 109.31,7.75 L 109.64,6.72 L 110.44,5.08 L 110.64,4.73 L 111.02,4.24 L 111.50,3.91 L 111.57,3.91 M 111.82,9.00 L 111.29,9.34 L 110.85,9.87 L 110.60,10.26 L 109.54,12.08 L 109.01,13.21 L 107.99,15.55 L 107.63,16.62 L 107.30,17.67 L 107.19,18.12 L 107.03,18.96 L 107.02,19.26 L 106.73,21.02 L 106.31,22.29 L 106.05,22.76 L 105.51,24.03 L 105.02,25.36 L 104.74,26.19 L 103.53,29.94 L 102.94,32.00 L 100.87,38.77 L 100.15,40.99 L 99.82,41.97 L 99.18,43.81 L 98.92,44.50 L 97.25,49.40 L 96.70,51.15 L 96.46,51.96 L 96.01,53.52 L 95.84,54.16 L 95.07,56.65 L 94.49,57.89 L 94.10,58.37 L 93.25,59.26 L 92.66,59.67 L 91.35,60.47 L 90.46,60.91 L 87.10,62.38 L 86.14,62.72 L 85.76,62.83 L 85.08,62.99 L 84.89,62.98 L 82.70,62.59 L 80.76,62.01 L 79.69,61.62 L 77.55,60.78 L 76.55,60.32 L 74.65,59.38 L 73.96,58.94 L 71.19,57.43 L 68.96,56.39 L 68.00,56.02 L 66.11,55.24 L 64.49,54.52 L 63.57,54.11 L 59.66,52.31 L 57.82,51.42 L 52.97,49.05 L 51.65,48.43 L 51.08,48.18 L 50.00,47.73 L 49.55,47.57 L 48.72,47.32 L 48.39,47.28 L 47.81,47.27 L 47.62,47.36 L 47.30,47.60 L 47.24,47.84 L 47.18,48.38 L 47.26,48.77 L 47.47,49.64 L 47.68,50.21 L 48.18,51.44 L 48.53,52.20 L 49.30,53.82 L 49.80,54.78 L 50.86,56.82 L 51.50,58.01 L 52.86,60.49 L 53.65,61.92 L 55.31,64.89 L 56.26,66.57 L 58.22,70.05 L 59.32,72.00 L 61.60,76.03 L 62.85,78.26 L 64.97,82.01 L 62.10,88.26 L 61.16,90.24 L 60.62,91.34 L 60.36,91.79 L 59.36,93.38 L 58.79,93.93 L 57.55,94.92 L 56.68,95.35 L 55.76,95.79 L 55.20,96.01 L 54.02,96.48 L 53.32,96.75 L 48.79,98.34 L 47.58,98.71 L 47.14,98.82 L 46.36,99.00 L 46.20,99.00 L 45.64,99.10 L 44.98,99.27 L 44.52,99.39 L 43.52,99.68 L 42.91,99.86 L 41.62,100.24 L 40.88,100.47 L 37.66,101.46 L 35.79,102.06 L 31.89,103.31 L 29.80,104.00 L 23.82,105.94 L 20.23,107.08 L 18.75,107.53 L 17.33,107.96 L 16.72,108.14 L 15.58,108.48 L 15.12,108.61 L 14.29,108.83 L 14.02,108.90 L 13.55,109.00 L 13.47,109.00 L 12.16,109.55 L 11.09,110.35 L 10.62,110.87 L 9.98,111.59 L 9.70,111.99 L 9.67,112.18 L 9.69,112.54 L 9.86,112.72 L 10.32,113.10 L 10.76,113.32 L 11.78,113.78 L 12.54,114.05 L 14.23,114.65 L 15.38,115.02 L 17.88,115.82 L 19.47,116.31 L 21.12,116.82 L 22.04,117.11 L 23.95,117.69 L 25.00,118.02 L 34.03,120.82 L 36.85,121.69 L 38.04,122.06 L 40.24,122.76 L 41.00,122.99 L 46.21,124.58 L 48.00,125.11 L 48.82,125.35 L 50.38,125.79 L 51.00,125.96 L 54.62,127.05 L 55.65,127.40 L 56.06,127.55 L 56.79,127.84 L 57.00,127.94 L 57.76,128.58 L 58.35,129.27 L 58.67,129.72 L 59.98,131.78 L 60.61,132.99 L 61.81,135.46 L 62.23,136.60 L 62.61,137.70 L 62.73,138.17 L 62.93,139.07 L 62.94,139.41 L 62.79,140.32 L 62.51,141.17 L 62.27,141.73 L 61.72,142.96 L 61.34,143.73 L 60.50,145.37 L 59.97,146.36 L 58.82,148.47 L 58.12,149.72 L 56.63,152.33 L 55.75,153.85 L 53.90,157.02 L 52.83,158.83 L 50.60,162.61 L 49.32,164.73 L 47.65,167.66 L 46.66,169.49 L 46.27,170.29 L 45.56,171.77 L 45.34,172.32 L 45.00,173.27 L 45.00,173.48 L 45.52,174.62 L 46.37,174.96 L 47.03,174.91 L 48.51,174.69 L 49.47,174.37 L 51.53,173.60 L 52.76,173.00 L 56.08,171.59 L 57.03,171.26 L 57.40,171.16 L 58.07,171.00 L 58.25,171.00 L 59.48,170.73 L 60.29,170.33 L 60.55,170.08 L 61.89,169.22 L 63.41,168.44 L 64.40,167.98 L 66.51,167.01 L 67.70,166.49 L 70.15,165.45 L 71.41,164.93 L 73.93,163.91 L 75.14,163.45 L 77.50,162.56 L 78.53,162.19 L 80.46,161.53 L 81.18,161.33 L 82.44,161.00 L 82.72,161.00 L 83.94,161.17 L 84.99,161.44 L 85.60,161.63 L 88.16,162.56 L 89.38,163.16 L 92.43,165.09 L 93.26,165.95 L 93.65,166.50 L 94.42,167.72 L 94.81,168.51 L 95.59,170.24 L 96.01,171.35 L 96.88,173.74 L 97.37,175.23 L 98.41,178.43 L 99.01,180.38 L 99.62,182.40 L 99.96,183.50 L 100.64,185.78 L 101.02,187.03 L 103.85,196.22 L 104.78,199.14 L 105.23,200.53 L 106.12,203.24 L 106.54,204.48 L 107.35,206.90 L 107.73,207.97 L 108.45,210.00 L 108.76,210.85 L 109.36,212.43 L 109.60,213.02 L 110.04,214.07 L 110.20,214.36 L 110.84,215.30 L 111.17,215.46 L 111.83,215.57 L 112.11,215.29 L 112.36,214.85 L 112.61,214.30 L 112.78,213.91 L 113.13,213.04 L 113.34,212.51 L 113.77,211.36 L 114.02,210.70 L 115.09,207.82 L 115.70,206.10 L 116.98,202.49 L 117.67,200.52 L 120.51,192.25 L 121.87,188.14 L 123.20,184.09 L 123.80,182.20 L 124.95,178.56 L 125.42,177.00 L 126.48,173.58 L 127.09,171.70 L 127.37,170.93 L 127.93,169.49 L 128.20,168.90 L 128.76,167.81 L 129.05,167.36 L 130.32,165.83 L 131.18,165.24 L 132.10,164.66 L 132.64,164.37 L 133.79,163.79 L 134.48,163.47 L 138.37,161.72 L 139.36,161.32 L 139.71,161.19 L 140.30,161.00 L 140.40,161.00 L 140.90,161.15 L 141.57,161.40 L 142.05,161.59 L 143.11,162.00 L 143.76,162.26 L 145.14,162.82 L 145.94,163.14 L 149.37,164.55 L 151.35,165.37 L 155.45,167.08 L 157.58,167.97 L 161.85,169.78 L 163.89,170.64 L 167.87,172.34 L 169.58,173.08 L 171.24,173.80 L 171.97,174.12 L 173.36,174.73 L 173.94,174.99 L 175.00,175.47 L 175.39,175.65 L 176.06,175.97 L 176.24,176.06 L 177.59,176.74 L 178.19,176.94 L 178.40,176.91 L 178.76,176.74 L 178.91,176.51 L 179.19,175.95 L 179.35,175.52 L 179.22,174.35 L 178.80,173.07 L 178.45,172.25 L 177.65,170.51 L 177.15,169.54 L 176.08,167.53 L 175.46,166.49 L 173.73,163.49 L 172.71,161.67 L 172.31,160.91 L 171.58,159.50 L 171.35,159.01 L 171.00,158.20 L 171.00,158.09 L 170.65,157.13 L 170.09,155.96 L 169.68,155.17 L 168.79,153.47 L 168.25,152.49 L 167.13,150.45 L 166.51,149.37 L 164.76,146.11 L 163.74,144.00 L 163.33,143.05 L 162.59,141.24 L 162.36,140.53 L 162.01,139.26 L 162.01,138.91 L 162.72,135.24 L 163.80,132.67 L 164.54,131.50 L 166.12,129.26 L 166.99,128.45 L 167.86,127.70 L 168.29,127.44 L 169.15,126.98 L 169.57,126.89 L 171.49,126.38 L 173.40,125.83 L 174.58,125.48 L 177.04,124.74 L 178.39,124.33 L 181.12,123.48 L 182.50,123.04 L 187.05,121.61 L 190.38,120.58 L 192.06,120.07 L 195.39,119.06 L 196.91,118.61 L 199.83,117.74 L 201.00,117.40 L 204.82,116.28 L 207.00,115.62 L 207.92,115.32 L 209.65,114.76 L 210.36,114.51 L 211.68,114.02 L 212.21,113.81 L 213.17,113.38 L 213.53,113.19 L 214.17,112.80 L 214.39,112.62 L 215.00,111.92 L 215.00,111.56 L 214.78,111.25 L 214.42,110.98 L 214.15,110.83 L 212.82,110.14 L 211.84,109.73 L 209.71,108.87 L 208.42,108.42 L 205.73,107.49 L 204.25,107.03 L 199.25,105.47 L 195.50,104.30 L 193.58,103.70 L 189.73,102.48 L 187.93,101.92 L 184.45,100.81 L 183.01,100.35 L 178.81,99.05 L 176.22,98.29 L 175.12,97.98 L 173.08,97.43 L 172.35,97.26 L 171.68,97.11 L 171.43,97.07 L 171.00,97.00 L 170.89,97.00 L 169.30,96.65 L 168.19,96.10 L 167.63,95.69 L 166.52,94.79 L 165.98,94.24 L 164.91,93.07 L 164.42,92.41 L 162.58,89.60 L 161.97,88.10 L 161.43,86.60 L 161.26,85.87 L 161.00,84.41 L 161.00,83.73 L 161.13,83.19 L 161.33,82.64 L 161.49,82.27 L 162.25,80.59 L 162.81,79.47 L 164.04,77.08 L 164.77,75.70 L 166.33,72.84 L 167.18,71.31 L 170.75,65.02 L 172.50,62.10 L 174.23,59.25 L 175.03,57.99 L 176.55,55.62 L 177.19,54.70 L 178.54,52.16 L 178.88,50.74 L 178.77,50.21 L 178.37,49.29 L 177.90,49.05 L 176.79,48.73 L 175.98,48.85 L 173.93,49.32 L 172.78,49.75 L 172.50,49.96 L 171.46,50.51 L 170.20,51.08 L 169.36,51.43 L 167.55,52.19 L 166.50,52.61 L 164.34,53.46 L 163.20,53.90 L 159.50,55.36 L 156.85,56.45 L 155.54,57.00 L 152.96,58.11 L 151.81,58.63 L 149.62,59.62 L 148.77,60.03 L 143.54,62.10 L 141.93,62.58 L 141.25,62.72 L 140.00,62.93 L 139.57,62.92 L 135.84,62.20 L 133.34,61.17 L 132.21,60.47 L 130.08,58.96 L 129.28,58.11 L 128.54,57.25 L 128.27,56.82 L 127.78,55.94 L 127.66,55.50 L 126.77,52.87 L 126.13,51.24 L 125.88,50.76 L 125.26,48.82 L 125.00,47.25 L 125.00,46.57 L 124.71,44.66 L 124.27,43.67 L 124.00,43.50 L 123.29,42.49 L 123.00,41.46 L 123.00,40.93 L 122.73,39.04 L 122.33,37.71 L 122.08,37.24 L 121.81,36.62 L 121.55,35.96 L 121.39,35.52 L 120.66,33.48 L 120.19,32.12 L 119.21,29.20 L 118.66,27.53 L 117.53,24.07 L 116.95,22.25 L 115.24,17.11 L 114.17,14.09 L 113.71,12.89 L 113.25,11.75 L 113.05,11.27 L 112.67,10.38 L 112.51,10.05 L 112.21,9.45 L 112.09,9.27 L 111.88,9.00 Z" fill="rgba(236,152,16,1)"/>
<path d="M 112.09,9.27 L 112.21,9.45 L 112.51,10.05 L 112.67,10.38 L 113.05,11.27 L 113.25,11.75 L 113.71,12.89 L 114.17,14.09 L 115.24,17.11 L 116.95,22.25 L 117.53,24.07 L 118.66,27.53 L 119.21,29.20 L 120.19,32.12 L 120.66,33.48 L 121.39,35.52 L 121.55,35.96 L 121.81,36.62 L 122.08,37.24 L 122.33,37.71 L 122.73,39.04 L 123.00,40.93 L 123.00,41.46 L 123.29,42.49 L 124.00,43.50 L 124.27,43.67 L 124.71,44.66 L 125.00,46.57 L 125.00,47.25 L 125.26,48.82 L 125.88,50.76 L 126.13,51.24 L 126.77,52.87 L 127.66,55.50 L 127.78,55.94 L 128.27,56.82 L 128.54,57.25 L 129.28,58.11 L 130.08,58.96 L 132.21,60.47 L 133.34,61.17 L 135.84,62.20 L 139.57,62.92 L 140.00,62.93 L 141.25,62.72 L 141.93,62.58 L 143.54,62.10 L 148.77,60.03 L 149.62,59.62 L 151.81,58.63 L 152.96,58.11 L 155.54,57.00 L 156.85,56.45 L 159.50,55.36 L 163.20,53.90 L 164.34,53.46 L 166.50,52.61 L 167.55,52.19 L 169.36,51.43 L 170.20,51.08 L 171.46,50.51 L 172.50,49.96 L 172.78,49.75 L 173.93,49.32 L 175.98,48.85 L 176.79,48.73 L 177.90,49.05 L 178.37,49.29 L 178.77,50.21 L 178.88,50.74 L 178.54,52.16 L 177.19,54.70 L 176.55,55.62 L 175.03,57.99 L 174.23,59.25 L 172.50,62.10 L 170.75,65.02 L 167.18,71.31 L 166.33,72.84 L 164.77,75.70 L 164.04,77.08 L 162.81,79.47 L 162.25,80.59 L 161.49,82.27 L 161.33,82.64 L 161.13,83.19 L 161.00,83.73 L 161.00,84.41 L 161.26,85.87 L 161.43,86.60 L 161.97,88.10 L 162.58,89.60 L 164.42,92.41 L 164.91,93.07 L 165.98,94.24 L 166.52,94.79 L 167.63,95.69 L 168.19,96.10 L 169.30,96.65 L 170.89,97.00 L 171.00,97.00 L 171.43,97.07 L 171.68,97.11 L 172.35,97.26 L 173.08,97.43 L 175.12,97.98 L 176.22,98.29 L 178.81,99.05 L 183.01,100.35 L 184.45,100.81 L 187.93,101.92 L 189.73,102.48 L 193.58,103.70 L 195.50,104.30 L 199.25,105.47 L 204.25,107.03 L 205.73,107.49 L 208.42,108.42 L 209.71,108.87 L 211.84,109.73 L 212.82,110.14 L 214.15,110.83 L 214.42,110.98 L 214.78,111.25 L 215.00,111.56 L 215.00,111.92 L 214.39,112.62 L 214.17,112.80 L 213.53,113.19 L 213.17,113.38 L 212.21,113.81 L 211.68,114.02 L 210.36,114.51 L 209.65,114.76 L 207.92,115.32 L 207.00,115.62 L 204.82,116.28 L 201.00,117.40 L 199.83,117.74 L 196.91,118.61 L 195.39,119.06 L 192.06,120.07 L 190.38,120.58 L 187.05,121.61 L 182.50,123.04 L 181.12,123.48 L 178.39,124.33 L 177.04,124.74 L 174.58,125.48 L 173.40,125.83 L 171.49,126.38 L 169.57,126.89 L 169.15,126.98 L 168.29,127.44 L 167.86,127.70 L 166.99,128.45 L 166.12,129.26 L 164.54,131.50 L 163.80,132.67 L 162.72,135.24 L 162.01,138.91 L 162.01,139.26 L 162.36,140.53 L 162.59,141.24 L 163.33,143.05 L 163.74,144.00 L 164.76,146.11 L 166.51,149.37 L 167.13,150.45 L 168.25,152.49 L 168.79,153.47 L 169.68,155.17 L 170.09,155.96 L 170.65,157.13 L 171.00,158.09 L 171.00,158.20 L 171.35,159.01 L 171.58,159.50 L 172.31,160.91 L 172.71,161.67 L 173.73,163.49 L 175.46,166.49 L 176.08,167.53 L 177.15,169.54 L 177.65,170.51 L 178.45,172.25 L 178.80,173.07 L 179.22,174.35 L 179.35,175.52 L 179.19,175.95 L 178.91,176.51 L 178.76,176.74 L 178.40,176.91 L 178.19,176.94 L 177.59,176.74 L 176.24,176.06 L 176.06,175.97 L 175.39,175.65 L 175.00,175.47 L 173.94,174.99 L 173.36,174.73 L 171.97,174.12 L 171.24,173.80 L 169.58,173.08 L 167.87,172.34 L 163.89,170.64 L 161.85,169.78 L 157.58,167.97 L 155.45,167.08 L 151.35,165.37 L 149.37,164.55 L 145.94,163.14 L 145.14,162.82 L 143.76,162.26 L 143.11,162.00 L 142.05,161.59 L 141.57,161.40 L 140.90,161.15 L 140.40,161.00 L 140.30,161.00 L 139.71,161.19 L 139.36,161.32 L 138.37,161.72 L 134.48,163.47 L 133.79,163.79 L 132.64,164.37 L 132.10,164.66 L 131.18,165.24 L 130.32,165.83 L 129.05,167.36 L 128.76,167.81 L 128.20,168.90 L 127.93,169.49 L 127.37,170.93 L 127.09,171.70 L 126.48,173.58 L 125.42,177.00 L 124.95,178.56 L 123.80,182.20 L 123.20,184.09 L 121.87,188.14 L 120.51,192.25 L 117.67,200.52 L 116.98,202.49 L 115.70,206.10 L 115.09,207.82 L 114.02,210.70 L 113.77,211.36 L 113.34,212.51 L 113.13,213.04 L 112.78,213.91 L 112.61,214.30 L 112.36,214.85 L 112.11,215.29 L 111.83,215.57 L 111.17,215.46 L 110.84,215.30 L 110.20,214.36 L 110.04,214.07 L 109.60,213.02 L 109.36,212.43 L 108.76,210.85 L 108.45,210.00 L 107.73,207.97 L 107.35,206.90 L 106.54,204.48 L 106.12,203.24 L 105.23,200.53 L 104.78,199.14 L 103.85,196.22 L 101.02,187.03 L 100.64,185.78 L 99.96,183.50 L 99.62,182.40 L 99.01,180.38 L 98.41,178.43 L 97.37,175.23 L 96.88,173.74 L 96.01,171.35 L 95.59,170.24 L 94.81,168.51 L 94.42,167.72 L 93.65,166.50 L 93.26,165.95 L 92.43,165.09 L 89.38,163.16 L 88.16,162.56 L 85.60,161.63 L 84.99,161.44 L 83.94,161.17 L 82.72,161.00 L 82.44,161.00 L 81.18,161.33 L 80.46,161.53 L 78.53,162.19 L 77.50,162.56 L 75.14,163.45 L 73.93,163.91 L 71.41,164.93 L 70.15,165.45 L 67.70,166.49 L 66.51,167.01 L 64.40,167.98 L 63.41,168.44 L 61.89,169.22 L 60.55,170.08 L 60.29,170.33 L 59.48,170.73 L 58.25,171.00 L 58.07,171.00 L 57.40,171.16 L 57.03,171.26 L 56.08,171.59 L 52.76,173.00 L 51.53,173.60 L 49.47,174.37 L 48.51,174.69 L 47.03,174.91 L 46.37,174.96 L 45.52,174.62 L 45.00,173.48 L 45.00,173.27 L 45.34,172.32 L 45.56,171.77 L 46.27,170.29 L 46.66,169.49 L 47.65,167.66 L 49.32,164.73 L 50.60,162.61 L 52.83,158.83 L 53.90,157.02 L 55.75,153.85 L 56.63,152.33 L 58.12,149.72 L 58.82,148.47 L 59.97,146.36 L 60.50,145.37 L 61.34,143.73 L 61.72,142.96 L 62.27,141.73 L 62.51,141.17 L 62.79,140.32 L 62.94,139.41 L 62.93,139.07 L 62.73,138.17 L 62.61,137.70 L 62.23,136.60 L 61.81,135.46 L 60.61,132.99 L 59.98,131.78 L 58.67,129.72 L 58.35,129.27 L 57.76,128.58 L 57.00,127.94 L 56.79,127.84 L 56.06,127.55 L 55.65,127.40 L 54.62,127.05 L 51.00,125.96 L 50.38,125.79 L 48.82,125.35 L 48.00,125.11 L 46.21,124.58 L 41.00,122.99 L 40.24,122.76 L 38.04,122.06 L 36.85,121.69 L 34.03,120.82 L 25.00,118.02 L 23.95,117.69 L 22.04,117.11 L 21.12,116.82 L 19.47,116.31 L 17.88,115.82 L 15.38,115.02 L 14.23,114.65 L 12.54,114.05 L 11.78,113.78 L 10.76,113.32 L 10.32,113.10 L 9.86,112.72 L 9.69,112.54 L 9.67,112.18 L 9.70,111.99 L 9.98,111.59 L 10.62,110.87 L 11.09,110.35 L 12.16,109.55 L 13.47,109.00 L 13.55,109.00 L 14.02,108.90 L 14.29,108.83 L 15.12,108.61 L 15.58,108.48 L 16.72,108.14 L 17.33,107.96 L 18.75,107.53 L 20.23,107.08 L 23.82,105.94 L 29.80,104.00 L 31.89,103.31 L 35.79,102.06 L 37.66,101.46 L 40.88,100.47 L 41.62,100.24 L 42.91,99.86 L 43.52,99.68 L 44.52,99.39 L 44.98,99.27 L 45.64,99.10 L 46.20,99.00 L 46.36,99.00 L 47.14,98.82 L 47.58,98.71 L 48.79,98.34 L 53.32,96.75 L 54.02,96.48 L 55.20,96.01 L 55.76,95.79 L 56.68,95.35 L 57.55,94.92 L 58.79,93.93 L 59.36,93.38 L 60.36,91.79 L 60.62,91.34 L 61.16,90.24 L 62.10,88.26 L 64.97,82.01 L 62.85,78.26 L 61.60,76.03 L 59.32,72.00 L 58.22,70.05 L 56.26,66.57 L 55.31,64.89 L 53.65,61.92 L 52.86,60.49 L 51.50,58.01 L 50.86,56.82 L 49.80,54.78 L 49.30,53.82 L 48.53,52.20 L 48.18,51.44 L 47.68,50.21 L 47.47,49.64 L 47.26,48.77 L 47.18,48.38 L 47.24,47.84 L 47.30,47.60 L 47.62,47.36 L 47.81,47.27 L 48.39,47.28 L 48.72,47.32 L 49.55,47.57 L 50.00,47.73 L 51.08,48.18 L 51.65,48.43 L 52.97,49.05 L 57.82,51.42 L 59.66,52.31 L 63.57,54.11 L 64.49,54.52 L 66.11,55.24 L 68.00,56.02 L 68.96,56.39 L 71.19,57.43 L 73.96,58.94 L 74.65,59.38 L 76.55,60.32 L 77.55,60.78 L 79.69,61.62 L 80.76,62.01 L 82.70,62.59 L 84.89,62.98 L 85.08,62.99 L 85.76,62.83 L 86.14,62.72 L 87.10,62.38 L 90.46,60.91 L 91.35,60.47 L 92.66,59.67 L 93.25,59.26 L 94.10,58.37 L 94.49,57.89 L 95.07,56.65 L 95.84,54.16 L 96.01,53.52 L 96.46,51.96 L 96.70,51.15 L 97.25,49.40 L 98.92,44.50 L 99.18,43.81 L 99.82,41.97 L 100.15,40.99 L 100.87,38.77 L 102.94,32.00 L 103.53,29.94 L 104.74,26.19 L 105.02,25.36 L 105.51,24.03 L 106.05,22.76 L 106.31,22.29 L 106.73,21.02 L 107.02,19.26 L 107.03,18.96 L 107.19,18.12 L 107.30,17.67 L 107.63,16.62 L 107.99,15.55 L 109.01,13.21 L 109.54,12.08 L 110.60,10.26 L 110.85,9.87 L 111.29,9.34 L 111.82,9.00 L 111.88,9.00 M 106.91,169.54 L 103.96,169.58 L 102.72,169.64 L 100.44,169.77 L 99.68,169.87 L 98.99,169.97 L 98.77,170.03 L 98.40,170.16 L 98.36,170.23 L 98.32,170.99 L 98.46,171.88 L 98.59,172.47 L 98.90,173.74 L 99.11,174.46 L 99.57,175.97 L 99.84,176.76 L 100.32,178.19 L 100.71,179.38 L 100.94,180.07 L 101.91,183.09 L 102.48,184.85 L 103.65,188.52 L 104.26,190.46 L 105.48,194.36 L 106.07,196.25 L 107.26,199.97 L 107.83,201.61 L 108.95,204.74 L 109.44,205.98 L 109.92,207.16 L 110.14,207.66 L 110.55,208.58 L 110.73,208.92 L 111.07,209.54 L 111.21,209.72 L 111.45,210.00 L 111.53,210.00 L 112.00,209.77 L 112.35,209.41 L 112.55,209.12 L 113.38,207.75 L 113.83,206.75 L 114.75,204.56 L 115.21,203.25 L 116.11,200.50 L 116.51,199.00 L 116.72,198.24 L 116.94,197.51 L 117.08,197.05 L 117.72,194.94 L 118.14,193.59 L 119.03,190.71 L 119.53,189.10 L 120.57,185.79 L 121.12,184.08 L 122.62,179.18 L 123.47,176.23 L 123.80,175.01 L 124.38,172.78 L 124.54,172.02 L 124.67,171.34 L 124.70,171.11 L 124.74,170.72 L 124.72,170.65 L 124.36,170.44 L 123.87,170.31 L 123.50,170.24 L 121.75,170.01 L 120.53,169.92 L 117.90,169.75 L 116.39,169.69 L 113.27,169.58 L 111.66,169.56 L 108.43,169.52 M 160.82,145.50 L 159.76,146.05 L 158.66,146.90 L 157.98,147.51 L 156.53,148.83 L 155.73,149.61 L 154.11,151.21 L 153.30,152.06 L 151.69,153.77 L 150.95,154.59 L 149.52,156.21 L 148.93,156.92 L 147.86,158.27 L 147.53,158.78 L 147.00,159.67 L 147.00,159.88 L 147.51,160.51 L 148.32,161.11 L 148.93,161.49 L 150.29,162.31 L 151.14,162.78 L 152.95,163.75 L 153.99,164.28 L 156.16,165.37 L 157.34,165.93 L 159.77,167.08 L 161.05,167.67 L 166.33,170.00 L 169.00,171.09 L 171.44,172.05 L 172.38,172.39 L 173.26,172.69 L 173.57,172.79 L 174.10,172.95 L 174.19,172.95 L 175.13,172.64 L 175.40,172.05 L 175.37,171.58 L 175.19,170.51 L 174.93,169.81 L 174.29,168.31 L 173.81,167.41 L 172.61,165.18 L 171.53,163.17 L 170.91,162.00 L 168.23,156.97 L 166.91,154.50 L 164.95,151.01 L 163.70,148.96 L 163.15,148.14 L 162.10,146.67 L 161.70,146.21 L 161.00,145.50 M 64.00,146.00 L 63.45,146.26 L 62.97,146.68 L 62.68,147.00 L 62.07,147.70 L 61.72,148.15 L 61.01,149.10 L 60.62,149.65 L 58.99,152.03 L 58.12,153.42 L 56.34,156.30 L 55.47,157.81 L 53.76,160.83 L 52.99,162.28 L 51.53,165.10 L 50.97,166.32 L 50.44,167.50 L 50.23,168.02 L 49.84,169.00 L 49.71,169.41 L 49.50,170.16 L 49.46,170.44 L 49.45,170.91 L 49.52,171.03 L 49.87,171.54 L 50.05,171.71 L 50.38,172.00 L 50.48,172.00 L 50.98,171.87 L 51.56,171.67 L 51.95,171.51 L 53.77,170.76 L 54.98,170.23 L 57.57,169.06 L 59.04,168.39 L 62.05,166.99 L 63.59,166.26 L 66.67,164.78 L 68.11,164.08 L 70.90,162.70 L 72.06,162.11 L 74.20,161.00 L 74.90,160.61 L 75.54,160.24 L 75.74,160.11 L 76.08,159.88 L 76.11,159.82 L 75.93,158.82 L 75.35,157.74 L 74.89,157.06 L 73.86,155.62 L 73.23,154.82 L 71.90,153.20 L 71.18,152.38 L 69.72,150.75 L 69.00,150.00 L 67.56,148.55 L 66.91,147.96 L 65.66,146.88 L 65.17,146.54 L 64.27,146.00 M 112.00,58.73 L 106.85,58.96 L 103.54,59.32 L 101.94,59.60 L 98.77,60.23 L 97.24,60.65 L 94.20,61.57 L 92.73,62.14 L 89.82,63.34 L 88.41,64.05 L 85.60,65.54 L 84.24,66.40 L 81.53,68.19 L 80.21,69.20 L 77.59,71.30 L 76.31,72.46 L 72.14,76.60 L 69.65,79.46 L 68.54,80.94 L 66.43,83.95 L 65.51,85.51 L 63.78,88.67 L 63.05,90.30 L 61.69,93.62 L 61.15,95.34 L 60.16,98.82 L 59.80,100.63 L 59.18,104.28 L 59.01,106.18 L 58.75,110.01 L 58.76,112.00 L 59.44,120.89 L 60.52,126.56 L 61.37,129.24 L 63.25,134.51 L 64.48,136.98 L 67.14,141.80 L 68.74,144.03 L 72.12,148.35 L 74.07,150.30 L 78.15,154.07 L 80.43,155.73 L 85.16,158.89 L 87.76,160.23 L 93.11,162.73 L 96.00,163.72 L 98.31,164.44 L 99.57,164.73 L 102.15,165.26 L 103.51,165.46 L 109.11,166.05 L 112.00,166.07 L 117.78,165.91 L 120.51,165.55 L 123.21,165.15 L 124.48,164.87 L 126.95,164.27 L 128.08,163.91 L 133.01,162.04 L 136.15,160.58 L 137.65,159.76 L 140.60,158.04 L 142.00,157.09 L 144.75,155.12 L 146.04,154.06 L 148.58,151.87 L 149.76,150.70 L 152.07,148.31 L 153.13,147.04 L 155.21,144.46 L 156.15,143.11 L 157.98,140.36 L 158.79,138.93 L 160.36,136.04 L 161.04,134.54 L 162.34,131.52 L 162.89,129.96 L 163.91,126.83 L 164.31,125.23 L 165.03,122.00 L 165.29,120.36 L 165.71,117.06 L 165.81,115.40 L 165.92,112.04 L 165.86,110.36 L 165.65,106.97 L 165.42,105.27 L 164.88,101.87 L 164.48,100.18 L 162.44,93.40 L 160.70,89.21 L 159.61,87.22 L 157.28,83.30 L 155.87,81.40 L 152.87,77.62 L 151.09,75.73 L 146.93,71.68 L 144.06,69.26 L 142.58,68.19 L 139.59,66.15 L 138.04,65.26 L 134.91,63.58 L 133.29,62.87 L 130.02,61.56 L 128.33,61.03 L 124.90,60.08 L 123.13,59.73 L 119.55,59.13 L 117.69,58.97 L 113.94,58.72 M 53.59,99.28 L 52.82,99.41 L 52.27,99.53 L 51.08,99.80 L 50.35,99.99 L 48.79,100.39 L 47.89,100.63 L 46.03,101.15 L 45.00,101.44 L 42.87,102.06 L 41.74,102.40 L 37.00,103.83 L 34.45,104.63 L 29.86,106.11 L 27.16,107.00 L 25.99,107.40 L 23.76,108.17 L 22.81,108.51 L 21.03,109.17 L 20.30,109.47 L 18.94,110.02 L 18.41,110.27 L 17.46,110.73 L 17.13,110.93 L 16.56,111.31 L 16.41,111.47 L 16.20,111.78 L 16.23,111.90 L 17.09,112.70 L 18.35,113.41 L 19.26,113.82 L 21.26,114.67 L 22.48,115.13 L 25.06,116.05 L 26.50,116.52 L 31.01,117.97 L 34.28,119.02 L 35.91,119.55 L 39.14,120.59 L 40.60,121.06 L 43.40,121.96 L 44.50,122.31 L 46.69,123.00 L 47.72,123.30 L 49.71,123.86 L 50.56,124.08 L 52.16,124.46 L 52.73,124.57 L 53.72,124.72 L 53.91,124.70 L 54.26,124.37 L 54.47,123.90 L 54.57,123.56 L 54.92,121.88 L 55.06,120.71 L 55.31,118.18 L 55.38,116.72 L 55.51,113.71 L 55.53,112.15 L 55.54,109.03 L 55.50,107.56 L 55.38,104.71 L 55.27,103.51 L 55.03,101.29 L 54.85,100.55 L 54.67,99.88 L 54.57,99.66 L 54.35,99.30 L 54.23,99.26 M 170.08,99.05 L 169.29,99.19 L 169.13,99.39 L 168.85,100.25 L 168.74,101.19 L 168.73,101.79 L 168.79,104.49 L 168.99,106.00 L 169.24,108.60 L 169.34,110.57 L 169.37,111.60 L 169.39,113.67 L 169.36,114.64 L 169.29,116.55 L 169.22,117.35 L 169.06,120.00 L 169.07,121.42 L 169.13,121.96 L 169.28,122.94 L 169.41,123.27 L 169.71,123.82 L 169.92,123.95 L 170.20,124.02 L 170.49,124.00 L 171.16,123.94 L 171.63,123.86 L 172.66,123.67 L 173.29,123.53 L 174.63,123.23 L 175.39,123.04 L 178.70,122.18 L 180.64,121.63 L 184.67,120.45 L 186.82,119.77 L 192.71,117.90 L 196.10,116.81 L 197.54,116.33 L 200.26,115.41 L 201.40,115.01 L 203.51,114.26 L 204.36,113.93 L 205.92,113.31 L 206.52,113.04 L 207.59,112.54 L 207.95,112.32 L 208.58,111.90 L 208.75,111.73 L 209.00,111.38 L 209.00,111.23 L 208.23,110.69 L 207.02,110.15 L 206.14,109.81 L 204.20,109.11 L 203.04,108.72 L 200.59,107.93 L 199.25,107.53 L 194.70,106.15 L 191.27,105.09 L 189.50,104.54 L 185.97,103.43 L 184.31,102.91 L 181.10,101.88 L 179.76,101.45 L 175.25,100.05 L 172.93,99.43 L 172.07,99.27 L 170.56,99.03 M 174.10,52.00 L 173.18,52.24 L 172.06,52.62 L 171.31,52.90 L 169.70,53.50 L 168.78,53.87 L 166.86,54.63 L 165.85,55.05 L 159.14,57.79 L 156.91,58.68 L 155.92,59.08 L 154.05,59.82 L 153.34,60.09 L 150.53,61.22 L 149.04,61.90 L 148.50,62.23 L 147.53,62.87 L 147.24,63.21 L 146.78,63.89 L 146.73,64.28 L 146.77,65.07 L 146.97,65.54 L 147.50,66.51 L 147.95,67.10 L 148.96,68.33 L 149.65,69.07 L 151.13,70.63 L 152.05,71.55 L 153.81,73.29 L 154.63,74.06 L 156.24,75.52 L 156.93,76.11 L 158.23,77.16 L 158.71,77.49 L 159.53,78.00 L 159.70,78.00 L 160.61,77.78 L 160.95,77.51 L 161.16,77.26 L 161.62,76.68 L 161.92,76.24 L 162.58,75.25 L 163.01,74.56 L 163.94,73.04 L 164.53,72.05 L 165.81,69.89 L 166.61,68.54 L 168.31,65.64 L 169.35,63.87 L 171.22,60.64 L 172.27,58.79 L 172.69,58.01 L 173.47,56.55 L 173.77,55.95 L 174.30,54.82 L 174.48,54.38 L 174.78,53.56 L 174.84,53.25 L 174.92,52.71 L 174.89,52.52 L 174.77,52.20 L 174.63,52.12 L 174.32,52.00 M 51.91,51.56 L 51.67,51.90 L 51.64,52.29 L 51.69,52.58 L 51.86,53.22 L 52.02,53.67 L 52.40,54.64 L 52.69,55.27 L 53.33,56.63 L 53.75,57.49 L 54.67,59.30 L 55.24,60.41 L 56.47,62.74 L 57.21,64.13 L 58.78,67.05 L 59.70,68.75 L 60.93,70.97 L 61.52,71.95 L 62.68,73.83 L 63.19,74.57 L 64.16,75.92 L 64.52,76.34 L 65.17,76.99 L 65.33,76.99 L 66.44,76.46 L 67.55,75.65 L 68.24,75.07 L 69.67,73.82 L 70.44,73.10 L 72.01,71.59 L 72.79,70.80 L 74.33,69.21 L 75.03,68.45 L 76.36,66.96 L 76.88,66.32 L 77.82,65.11 L 78.08,64.67 L 78.45,63.92 L 78.37,63.78 L 77.92,63.38 L 77.38,63.02 L 77.00,62.79 L 75.20,61.77 L 73.97,61.14 L 71.34,59.80 L 69.84,59.07 L 66.75,57.59 L 65.16,56.86 L 61.98,55.40 L 60.47,54.74 L 57.56,53.49 L 56.34,52.99 L 55.15,52.51 L 54.64,52.32 L 53.68,51.97 L 53.30,51.84 L 52.60,51.62 L 52.36,51.57 L 51.97,51.52 M 111.06,15.46 L 110.80,15.84 L 110.56,16.34 L 110.40,16.71 L 110.06,17.52 L 109.87,18.03 L 109.45,19.10 L 109.22,19.73 L 108.25,22.44 L 107.70,24.05 L 106.58,27.42 L 106.00,29.24 L 102.45,40.31 L 101.38,43.64 L 100.94,45.00 L 100.51,46.31 L 100.33,46.86 L 99.99,47.90 L 99.86,48.30 L 99.15,50.61 L 98.77,52.02 L 98.64,52.61 L 98.42,53.71 L 98.37,54.09 L 98.34,54.73 L 98.40,54.83 L 98.55,54.93 L 98.75,54.98 L 99.23,55.07 L 99.59,55.11 L 101.28,55.25 L 102.48,55.30 L 105.10,55.39 L 106.66,55.40 L 109.91,55.42 L 111.68,55.40 L 124.50,55.22 L 124.28,52.35 L 124.13,51.51 L 123.94,50.67 L 123.80,50.12 L 123.49,48.96 L 123.29,48.27 L 122.88,46.83 L 122.65,46.03 L 121.63,42.60 L 121.03,40.68 L 119.80,36.72 L 119.15,34.69 L 117.83,30.62 L 117.19,28.69 L 115.92,24.91 L 115.35,23.28 L 114.80,21.70 L 114.55,20.99 L 114.06,19.65 L 113.84,19.09 L 113.44,18.04 L 113.27,17.64 L 112.97,16.94 L 112.86,16.73 L 111.93,15.62 L 111.29,15.32 Z" fill="rgba(249,166,6,1)"/>
<path d="M 111.66,169.56 L 113.27,169.58 L 116.39,169.69 L 117.90,169.75 L 120.53,169.92 L 121.75,170.01 L 123.50,170.24 L 123.87,170.31 L 124.36,170.44 L 124.72,170.65 L 124.74,170.72 L 124.70,171.11 L 124.67,171.34 L 124.54,172.02 L 124.38,172.78 L 123.80,175.01 L 123.47,176.23 L 122.62,179.18 L 121.12,184.08 L 120.57,185.79 L 119.53,189.10 L 119.03,190.71 L 118.14,193.59 L 117.72,194.94 L 117.08,197.05 L 116.94,197.51 L 116.72,198.24 L 116.51,199.00 L 116.11,200.50 L 115.21,203.25 L 114.75,204.56 L 113.83,206.75 L 113.38,207.75 L 112.55,209.12 L 112.35,209.41 L 112.00,209.77 L 111.53,210.00 L 111.45,210.00 L 111.21,209.72 L 111.07,209.54 L 110.73,208.92 L 110.55,208.58 L 110.14,207.66 L 109.92,207.16 L 109.44,205.98 L 108.95,204.74 L 107.83,201.61 L 107.26,199.97 L 106.07,196.25 L 105.48,194.36 L 104.26,190.46 L 103.65,188.52 L 102.48,184.85 L 101.91,183.09 L 100.94,180.07 L 100.71,179.38 L 100.32,178.19 L 99.84,176.76 L 99.57,175.97 L 99.11,174.46 L 98.90,173.74 L 98.59,172.47 L 98.46,171.88 L 98.32,170.99 L 98.36,170.23 L 98.40,170.16 L 98.77,170.03 L 98.99,169.97 L 99.68,169.87 L 100.44,169.77 L 102.72,169.64 L 103.96,169.58 L 106.91,169.54 L 108.43,169.52 M 161.70,146.21 L 162.10,146.67 L 163.15,148.14 L 163.70,148.96 L 164.95,151.01 L 166.91,154.50 L 168.23,156.97 L 170.91,162.00 L 171.53,163.17 L 172.61,165.18 L 173.81,167.41 L 174.29,168.31 L 174.93,169.81 L 175.19,170.51 L 175.37,171.58 L 175.40,172.05 L 175.13,172.64 L 174.19,172.95 L 174.10,172.95 L 173.57,172.79 L 173.26,172.69 L 172.38,172.39 L 171.44,172.05 L 169.00,171.09 L 166.33,170.00 L 161.05,167.67 L 159.77,167.08 L 157.34,165.93 L 156.16,165.37 L 153.99,164.28 L 152.95,163.75 L 151.14,162.78 L 150.29,162.31 L 148.93,161.49 L 148.32,161.11 L 147.51,160.51 L 147.00,159.88 L 147.00,159.67 L 147.53,158.78 L 147.86,158.27 L 148.93,156.92 L 149.52,156.21 L 150.95,154.59 L 151.69,153.77 L 153.30,152.06 L 154.11,151.21 L 155.73,149.61 L 156.53,148.83 L 157.98,147.51 L 158.66,146.90 L 159.76,146.05 L 160.82,145.50 L 161.00,145.50 M 65.17,146.54 L 65.66,146.88 L 66.91,147.96 L 67.56,148.55 L 69.00,150.00 L 69.72,150.75 L 71.18,152.38 L 71.90,153.20 L 73.23,154.82 L 73.86,155.62 L 74.89,157.06 L 75.35,157.74 L 75.93,158.82 L 76.11,159.82 L 76.08,159.88 L 75.74,160.11 L 75.54,160.24 L 74.90,160.61 L 74.20,161.00 L 72.06,162.11 L 70.90,162.70 L 68.11,164.08 L 66.67,164.78 L 63.59,166.26 L 62.05,166.99 L 59.04,168.39 L 57.57,169.06 L 54.98,170.23 L 53.77,170.76 L 51.95,171.51 L 51.56,171.67 L 50.98,171.87 L 50.48,172.00 L 50.38,172.00 L 50.05,171.71 L 49.87,171.54 L 49.52,171.03 L 49.45,170.91 L 49.46,170.44 L 49.50,170.16 L 49.71,169.41 L 49.84,169.00 L 50.23,168.02 L 50.44,167.50 L 50.97,166.32 L 51.53,165.10 L 52.99,162.28 L 53.76,160.83 L 55.47,157.81 L 56.34,156.30 L 58.12,153.42 L 58.99,152.03 L 60.62,149.65 L 61.01,149.10 L 61.72,148.15 L 62.07,147.70 L 62.68,147.00 L 62.97,146.68 L 63.45,146.26 L 64.00,146.00 L 64.27,146.00 M 117.69,58.97 L 119.55,59.13 L 123.13,59.73 L 124.90,60.08 L 128.33,61.03 L 130.02,61.56 L 133.29,62.87 L 134.91,63.58 L 138.04,65.26 L 139.59,66.15 L 142.58,68.19 L 144.06,69.26 L 146.93,71.68 L 151.09,75.73 L 152.87,77.62 L 155.87,81.40 L 157.28,83.30 L 159.61,87.22 L 160.70,89.21 L 162.44,93.40 L 164.48,100.18 L 164.88,101.87 L 165.42,105.27 L 165.65,106.97 L 165.86,110.36 L 165.92,112.04 L 165.81,115.40 L 165.71,117.06 L 165.29,120.36 L 165.03,122.00 L 164.31,125.23 L 163.91,126.83 L 162.89,129.96 L 162.34,131.52 L 161.04,134.54 L 160.36,136.04 L 158.79,138.93 L 157.98,140.36 L 156.15,143.11 L 155.21,144.46 L 153.13,147.04 L 152.07,148.31 L 149.76,150.70 L 148.58,151.87 L 146.04,154.06 L 144.75,155.12 L 142.00,157.09 L 140.60,158.04 L 137.65,159.76 L 136.15,160.58 L 133.01,162.04 L 128.08,163.91 L 126.95,164.27 L 124.48,164.87 L 123.21,165.15 L 120.51,165.55 L 117.78,165.91 L 112.00,166.07 L 109.11,166.05 L 103.51,165.46 L 102.15,165.26 L 99.57,164.73 L 98.31,164.44 L 96.00,163.72 L 93.11,162.73 L 87.76,160.23 L 85.16,158.89 L 80.43,155.73 L 78.15,154.07 L 74.07,150.30 L 72.12,148.35 L 68.74,144.03 L 67.14,141.80 L 64.48,136.98 L 63.25,134.51 L 61.37,129.24 L 60.52,126.56 L 59.44,120.89 L 58.76,112.00 L 58.75,110.01 L 59.01,106.18 L 59.18,104.28 L 59.80,100.63 L 60.16,98.82 L 61.15,95.34 L 61.69,93.62 L 63.05,90.30 L 63.78,88.67 L 65.51,85.51 L 66.43,83.95 L 68.54,80.94 L 69.65,79.46 L 72.14,76.60 L 76.31,72.46 L 77.59,71.30 L 80.21,69.20 L 81.53,68.19 L 84.24,66.40 L 85.60,65.54 L 88.41,64.05 L 89.82,63.34 L 92.73,62.14 L 94.20,61.57 L 97.24,60.65 L 98.77,60.23 L 101.94,59.60 L 103.54,59.32 L 106.85,58.96 L 112.00,58.73 L 113.94,58.72 M 112.43,62.00 L 105.65,62.40 L 101.29,63.07 L 99.20,63.60 L 95.07,64.78 L 93.11,65.57 L 89.23,67.26 L 87.40,68.29 L 83.80,70.48 L 82.12,71.75 L 78.82,74.42 L 77.29,75.93 L 74.31,79.07 L 72.95,80.81 L 70.32,84.40 L 69.14,86.37 L 66.04,92.05 L 64.55,95.52 L 64.02,97.28 L 63.12,100.86 L 62.83,102.87 L 62.57,104.94 L 62.48,106.06 L 62.30,108.37 L 62.23,109.65 L 62.09,114.55 L 62.16,117.24 L 62.29,118.45 L 62.62,120.83 L 62.90,122.08 L 63.55,124.63 L 64.01,126.15 L 66.34,132.51 L 68.21,136.49 L 69.30,138.35 L 71.57,141.98 L 72.84,143.65 L 75.49,146.90 L 76.96,148.38 L 79.97,151.24 L 81.61,152.51 L 84.96,154.95 L 86.76,156.01 L 90.45,158.02 L 92.41,158.85 L 96.40,160.41 L 98.50,161.01 L 103.54,162.26 L 106.02,162.58 L 110.96,163.02 L 113.40,162.94 L 118.28,162.57 L 120.70,162.08 L 125.54,160.91 L 127.96,160.01 L 133.21,157.91 L 136.19,156.52 L 137.48,155.80 L 139.94,154.34 L 141.03,153.55 L 143.12,151.92 L 144.09,151.01 L 145.78,149.44 L 147.08,148.26 L 147.60,147.78 L 151.68,143.49 L 154.11,140.30 L 155.18,138.58 L 157.19,135.04 L 158.04,133.16 L 159.62,129.35 L 160.24,127.37 L 161.36,123.36 L 161.74,121.31 L 162.37,117.19 L 162.50,115.12 L 162.62,110.96 L 162.48,108.89 L 162.07,104.78 L 161.65,102.76 L 160.43,97.87 L 159.45,94.79 L 158.87,93.32 L 157.64,90.45 L 156.92,89.08 L 155.43,86.39 L 154.57,85.10 L 152.79,82.56 L 151.79,81.34 L 149.72,78.94 L 148.56,77.77 L 146.16,75.47 L 144.84,74.35 L 142.11,72.12 L 140.61,71.03 L 134.08,66.91 L 129.71,64.83 L 127.44,64.11 L 122.83,62.85 L 120.35,62.51 L 115.25,62.00 M 54.35,99.30 L 54.57,99.66 L 54.67,99.88 L 54.85,100.55 L 55.03,101.29 L 55.27,103.51 L 55.38,104.71 L 55.50,107.56 L 55.54,109.03 L 55.53,112.15 L 55.51,113.71 L 55.38,116.72 L 55.31,118.18 L 55.06,120.71 L 54.92,121.88 L 54.57,123.56 L 54.47,123.90 L 54.26,124.37 L 53.91,124.70 L 53.72,124.72 L 52.73,124.57 L 52.16,124.46 L 50.56,124.08 L 49.71,123.86 L 47.72,123.30 L 46.69,123.00 L 44.50,122.31 L 43.40,121.96 L 40.60,121.06 L 39.14,120.59 L 35.91,119.55 L 34.28,119.02 L 31.01,117.97 L 26.50,116.52 L 25.06,116.05 L 22.48,115.13 L 21.26,114.67 L 19.26,113.82 L 18.35,113.41 L 17.09,112.70 L 16.23,111.90 L 16.20,111.78 L 16.41,111.47 L 16.56,111.31 L 17.13,110.93 L 17.46,110.73 L 18.41,110.27 L 18.94,110.02 L 20.30,109.47 L 21.03,109.17 L 22.81,108.51 L 23.76,108.17 L 25.99,107.40 L 27.16,107.00 L 29.86,106.11 L 34.45,104.63 L 37.00,103.83 L 41.74,102.40 L 42.87,102.06 L 45.00,101.44 L 46.03,101.15 L 47.89,100.63 L 48.79,100.39 L 50.35,99.99 L 51.08,99.80 L 52.27,99.53 L 52.82,99.41 L 53.59,99.28 L 54.23,99.26 M 172.07,99.27 L 172.93,99.43 L 175.25,100.05 L 179.76,101.45 L 181.10,101.88 L 184.31,102.91 L 185.97,103.43 L 189.50,104.54 L 191.27,105.09 L 194.70,106.15 L 199.25,107.53 L 200.59,107.93 L 203.04,108.72 L 204.20,109.11 L 206.14,109.81 L 207.02,110.15 L 208.23,110.69 L 209.00,111.23 L 209.00,111.38 L 208.75,111.73 L 208.58,111.90 L 207.95,112.32 L 207.59,112.54 L 206.52,113.04 L 205.92,113.31 L 204.36,113.93 L 203.51,114.26 L 201.40,115.01 L 200.26,115.41 L 197.54,116.33 L 196.10,116.81 L 192.71,117.90 L 186.82,119.77 L 184.67,120.45 L 180.64,121.63 L 178.70,122.18 L 175.39,123.04 L 174.63,123.23 L 173.29,123.53 L 172.66,123.67 L 171.63,123.86 L 171.16,123.94 L 170.49,124.00 L 170.20,124.02 L 169.92,123.95 L 169.71,123.82 L 169.41,123.27 L 169.28,122.94 L 169.13,121.96 L 169.07,121.42 L 169.06,120.00 L 169.22,117.35 L 169.29,116.55 L 169.36,114.64 L 169.39,113.67 L 169.37,111.60 L 169.34,110.57 L 169.24,108.60 L 168.99,106.00 L 168.79,104.49 L 168.73,101.79 L 168.74,101.19 L 168.85,100.25 L 169.13,99.39 L 169.29,99.19 L 170.08,99.05 L 170.56,99.03 M 174.63,52.12 L 174.77,52.20 L 174.89,52.52 L 174.92,52.71 L 174.84,53.25 L 174.78,53.56 L 174.48,54.38 L 174.30,54.82 L 173.77,55.95 L 173.47,56.55 L 172.69,58.01 L 172.27,58.79 L 171.22,60.64 L 169.35,63.87 L 168.31,65.64 L 166.61,68.54 L 165.81,69.89 L 164.53,72.05 L 163.94,73.04 L 163.01,74.56 L 162.58,75.25 L 161.92,76.24 L 161.62,76.68 L 161.16,77.26 L 160.95,77.51 L 160.61,77.78 L 159.70,78.00 L 159.53,78.00 L 158.71,77.49 L 158.23,77.16 L 156.93,76.11 L 156.24,75.52 L 154.63,74.06 L 153.81,73.29 L 152.05,71.55 L 151.13,70.63 L 149.65,69.07 L 148.96,68.33 L 147.95,67.10 L 147.50,66.51 L 146.97,65.54 L 146.77,65.07 L 146.73,64.28 L 146.78,63.89 L 147.24,63.21 L 147.53,62.87 L 148.50,62.23 L 149.04,61.90 L 150.53,61.22 L 153.34,60.09 L 154.05,59.82 L 155.92,59.08 L 156.91,58.68 L 159.14,57.79 L 165.85,55.05 L 166.86,54.63 L 168.78,53.87 L 169.70,53.50 L 171.31,52.90 L 172.06,52.62 L 173.18,52.24 L 174.10,52.00 L 174.32,52.00 M 52.36,51.57 L 52.60,51.62 L 53.30,51.84 L 53.68,51.97 L 54.64,52.32 L 55.15,52.51 L 56.34,52.99 L 57.56,53.49 L 60.47,54.74 L 61.98,55.40 L 65.16,56.86 L 66.75,57.59 L 69.84,59.07 L 71.34,59.80 L 73.97,61.14 L 75.20,61.77 L 77.00,62.79 L 77.38,63.02 L 77.92,63.38 L 78.37,63.78 L 78.45,63.92 L 78.08,64.67 L 77.82,65.11 L 76.88,66.32 L 76.36,66.96 L 75.03,68.45 L 74.33,69.21 L 72.79,70.80 L 72.01,71.59 L 70.44,73.10 L 69.67,73.82 L 68.24,75.07 L 67.55,75.65 L 66.44,76.46 L 65.33,76.99 L 65.17,76.99 L 64.52,76.34 L 64.16,75.92 L 63.19,74.57 L 62.68,73.83 L 61.52,71.95 L 60.93,70.97 L 59.70,68.75 L 58.78,67.05 L 57.21,64.13 L 56.47,62.74 L 55.24,60.41 L 54.67,59.30 L 53.75,57.49 L 53.33,56.63 L 52.69,55.27 L 52.40,54.64 L 52.02,53.67 L 51.86,53.22 L 51.69,52.58 L 51.64,52.29 L 51.67,51.90 L 51.91,51.56 L 51.97,51.52 M 111.93,15.62 L 112.86,16.73 L 112.97,16.94 L 113.27,17.64 L 113.44,18.04 L 113.84,19.09 L 114.06,19.65 L 114.55,20.99 L 114.80,21.70 L 115.35,23.28 L 115.92,24.91 L 117.19,28.69 L 117.83,30.62 L 119.15,34.69 L 119.80,36.72 L 121.03,40.68 L 121.63,42.60 L 122.65,46.03 L 122.88,46.83 L 123.29,48.27 L 123.49,48.96 L 123.80,50.12 L 123.94,50.67 L 124.13,51.51 L 124.28,52.35 L 124.50,55.22 L 111.68,55.40 L 109.91,55.42 L 106.66,55.40 L 105.10,55.39 L 102.48,55.30 L 101.28,55.25 L 99.59,55.11 L 99.23,55.07 L 98.75,54.98 L 98.55,54.93 L 98.40,54.83 L 98.34,54.73 L 98.37,54.09 L 98.42,53.71 L 98.64,52.61 L 98.77,52.02 L 99.15,50.61 L 99.86,48.30 L 99.99,47.90 L 100.33,46.86 L 100.51,46.31 L 100.94,45.00 L 101.38,43.64 L 102.45,40.31 L 106.00,29.24 L 106.58,27.42 L 107.70,24.05 L 108.25,22.44 L 109.22,19.73 L 109.45,19.10 L 109.87,18.03 L 110.06,17.52 L 110.40,16.71 L 110.56,16.34 L 110.80,15.84 L 111.06,15.46 L 111.29,15.32 Z" fill="rgba(253,186,2,1)"/>
<path d="M 120.35,62.51 L 122.83,62.85 L 127.44,64.11 L 129.71,64.83 L 134.08,66.91 L 140.61,71.03 L 142.11,72.12 L 144.84,74.35 L 146.16,75.47 L 148.56,77.77 L 149.72,78.94 L 151.79,81.34 L 152.79,82.56 L 154.57,85.10 L 155.43,86.39 L 156.92,89.08 L 157.64,90.45 L 158.87,93.32 L 159.45,94.79 L 160.43,97.87 L 161.65,102.76 L 162.07,104.78 L 162.48,108.89 L 162.62,110.96 L 162.50,115.12 L 162.37,117.19 L 161.74,121.31 L 161.36,123.36 L 160.24,127.37 L 159.62,129.35 L 158.04,133.16 L 157.19,135.04 L 155.18,138.58 L 154.11,140.30 L 151.68,143.49 L 147.60,147.78 L 147.08,148.26 L 145.78,149.44 L 144.09,151.01 L 143.12,151.92 L 141.03,153.55 L 139.94,154.34 L 137.48,155.80 L 136.19,156.52 L 133.21,157.91 L 127.96,160.01 L 125.54,160.91 L 120.70,162.08 L 118.28,162.57 L 113.40,162.94 L 110.96,163.02 L 106.02,162.58 L 103.54,162.26 L 98.50,161.01 L 96.40,160.41 L 92.41,158.85 L 90.45,158.02 L 86.76,156.01 L 84.96,154.95 L 81.61,152.51 L 79.97,151.24 L 76.96,148.38 L 75.49,146.90 L 72.84,143.65 L 71.57,141.98 L 69.30,138.35 L 68.21,136.49 L 66.34,132.51 L 64.01,126.15 L 63.55,124.63 L 62.90,122.08 L 62.62,120.83 L 62.29,118.45 L 62.16,117.24 L 62.09,114.55 L 62.23,109.65 L 62.30,108.37 L 62.48,106.06 L 62.57,104.94 L 62.83,102.87 L 63.12,100.86 L 64.02,97.28 L 64.55,95.52 L 66.04,92.05 L 69.14,86.37 L 70.32,84.40 L 72.95,80.81 L 74.31,79.07 L 77.29,75.93 L 78.82,74.42 L 82.12,71.75 L 83.80,70.48 L 87.40,68.29 L 89.23,67.26 L 93.11,65.57 L 95.07,64.78 L 99.20,63.60 L 101.29,63.07 L 105.65,62.40 L 112.43,62.00 L 115.25,62.00 M 109.55,80.98 L 106.80,81.33 L 105.45,81.64 L 102.79,82.34 L 101.50,82.81 L 98.96,83.84 L 97.75,84.47 L 95.36,85.80 L 94.24,86.58 L 92.05,88.21 L 91.03,89.13 L 89.07,91.03 L 88.18,92.08 L 86.47,94.23 L 85.73,95.40 L 84.32,97.80 L 83.74,99.08 L 82.66,101.69 L 82.25,103.07 L 81.53,105.89 L 81.33,107.37 L 81.01,110.37 L 81.01,111.93 L 81.44,117.85 L 82.14,121.60 L 82.68,123.35 L 83.88,126.73 L 84.66,128.24 L 86.32,131.13 L 87.32,132.35 L 90.80,136.03 L 93.37,138.27 L 94.69,139.21 L 97.35,140.98 L 98.62,141.63 L 101.12,142.76 L 102.23,143.02 L 105.27,143.58 L 107.04,143.72 L 110.70,143.89 L 112.59,143.84 L 116.37,143.64 L 118.13,143.40 L 121.52,142.85 L 122.90,142.44 L 125.56,141.34 L 127.46,140.28 L 128.44,139.62 L 130.41,138.22 L 131.40,137.42 L 133.35,135.77 L 134.28,134.89 L 136.10,133.10 L 136.93,132.17 L 138.52,130.33 L 139.19,129.41 L 140.45,127.61 L 140.93,126.75 L 141.76,125.09 L 141.97,124.34 L 143.22,118.64 L 143.63,114.87 L 143.63,113.02 L 143.51,109.36 L 143.26,107.59 L 142.62,104.10 L 142.11,102.43 L 140.97,99.16 L 140.22,97.63 L 138.60,94.64 L 137.62,93.28 L 135.54,90.64 L 134.33,89.47 L 131.80,87.23 L 130.38,86.29 L 126.34,83.99 L 123.58,82.78 L 122.19,82.33 L 119.38,81.54 L 117.97,81.30 L 115.14,80.91 L 113.74,80.86 L 110.93,80.85 Z" fill="rgba(254,206,0,1)"/>
<path d="M 102.23,143.02 L 101.12,142.76 L 98.62,141.63 L 97.35,140.98 L 94.69,139.21 L 93.37,138.27 L 90.80,136.03 L 87.32,132.35 L 86.32,131.13 L 84.66,128.24 L 83.88,126.73 L 82.68,123.35 L 82.14,121.60 L 81.44,117.85 L 81.01,111.93 L 81.01,110.37 L 81.33,107.37 L 81.53,105.89 L 82.25,103.07 L 82.66,101.69 L 83.74,99.08 L 84.32,97.80 L 85.73,95.40 L 86.47,94.23 L 88.18,92.08 L 89.07,91.03 L 91.03,89.13 L 92.05,88.21 L 94.24,86.58 L 95.36,85.80 L 97.75,84.47 L 98.96,83.84 L 101.50,82.81 L 102.79,82.34 L 105.45,81.64 L 106.80,81.33 L 109.55,80.98 L 110.93,80.85 L 113.74,80.86 L 115.14,80.91 L 117.97,81.30 L 119.38,81.54 L 122.19,82.33 L 123.58,82.78 L 126.34,83.99 L 130.38,86.29 L 131.80,87.23 L 134.33,89.47 L 135.54,90.64 L 137.62,93.28 L 138.60,94.64 L 140.22,97.63 L 140.97,99.16 L 142.11,102.43 L 142.62,104.10 L 143.26,107.59 L 143.51,109.36 L 143.63,113.02 L 143.63,114.87 L 143.22,118.64 L 141.97,124.34 L 141.76,125.09 L 140.93,126.75 L 140.45,127.61 L 139.19,129.41 L 138.52,130.33 L 136.93,132.17 L 136.10,133.10 L 134.28,134.89 L 133.35,135.77 L 131.40,137.42 L 130.41,138.22 L 128.44,139.62 L 127.46,140.28 L 125.56,141.34 L 122.90,142.44 L 121.52,142.85 L 118.13,143.40 L 116.37,143.64 L 112.59,143.84 L 110.70,143.89 L 107.04,143.72 L 105.27,143.58 Z" fill="rgba(254,230,0,1)"/>
</g>
</svg>