<?xml version="1.0" encoding="iso-8859-1"?>
<!-- Uploaded to: SVG Repo, www.svgrepo.com, Generator: SVG Repo Mixer Tools -->
<svg height="800px" width="800px" version="1.1" id="Layer_1" xmlns="http://www.w3.org/2000/svg" xmlns:xlink="http://www.w3.org/1999/xlink" 
	 viewBox="0 0 512.002 512.002" xml:space="preserve">
<g>
	<g>
		<path style="fill:#F0EDE0;" d="M256,167.725c8.686,0,17.055,1.307,24.973,3.637C318.658,108.739,296.324,40.325,256,0.001
			c-56.196,56.196-52.551,122.73-24.399,171.22C239.36,168.987,247.526,167.725,256,167.725"/>
		<path style="fill:#F0EDE0;" d="M213.667,178.534c-17.664-70.877-81.682-103.556-138.69-103.556
			c0,79.466,49.62,123.895,103.804,138.284C186.884,198.644,199.005,186.568,213.667,178.534"/>
		<path style="fill:#F0EDE0;" d="M167.724,256.001c0-8.686,1.306-17.055,3.637-24.973C108.738,193.343,40.324,215.676,0,256.001
			c56.196,56.196,122.73,52.551,171.22,24.399C168.986,272.641,167.724,264.475,167.724,256.001"/>
		<path style="fill:#F0EDE0;" d="M178.534,298.334c-70.877,17.664-103.556,81.682-103.556,138.69
			c79.466,0,123.895-49.62,138.284-103.804C198.644,325.116,186.568,312.996,178.534,298.334"/>
		<path style="fill:#F0EDE0;" d="M256,344.277c-8.686,0-17.055-1.306-24.973-3.637C193.342,403.263,215.676,471.676,256,512.001
			c56.196-56.196,52.551-122.73,24.399-171.22C272.64,343.014,264.474,344.277,256,344.277"/>
	</g>
	<g>
		<path style="fill:#B49377;" d="M167.724,264.828h-44.253c-4.873,0-8.828-3.955-8.828-8.828c0-4.873,3.955-8.828,8.828-8.828
			h44.253c4.882,0,8.828,3.955,8.828,8.828C176.552,260.874,172.606,264.828,167.724,264.828"/>
		<path style="fill:#B49377;" d="M256,176.553c-4.882,0-8.828-3.955-8.828-8.828v-44.244c0-4.873,3.946-8.828,8.828-8.828
			s8.828,3.955,8.828,8.828v44.244C264.828,172.598,260.882,176.553,256,176.553"/>
		<path style="fill:#B49377;" d="M256,397.35c-4.882,0-8.828-3.955-8.828-8.828v-44.244c0-4.873,3.946-8.828,8.828-8.828
			s8.828,3.955,8.828,8.828v44.244C264.828,393.395,260.882,397.35,256,397.35"/>
		<path style="fill:#B49377;" d="M193.577,202.406c-2.26,0-4.52-0.865-6.241-2.586l-34.684-34.684
			c-3.443-3.443-3.443-9.031,0-12.482c3.452-3.443,9.039-3.443,12.482,0l34.684,34.684c3.452,3.452,3.452,9.031,0,12.482
			C198.097,201.541,195.837,202.406,193.577,202.406"/>
		<path style="fill:#B49377;" d="M158.897,361.932c-2.26,0-4.52-0.865-6.241-2.586c-3.452-3.452-3.452-9.031,0-12.482l34.684-34.684
			c3.443-3.443,9.031-3.443,12.482,0c3.443,3.452,3.443,9.039,0,12.482l-34.684,34.684
			C163.416,361.067,161.156,361.932,158.897,361.932"/>
	</g>
	<g>
		<path style="fill:#F0EDE0;" d="M298.74,178.781c14.618,8.104,26.695,20.224,34.728,34.887
			c70.877-17.664,103.556-81.682,103.556-138.69C357.549,74.977,313.129,124.597,298.74,178.781"/>
		<path style="fill:#F0EDE0;" d="M340.782,231.6c2.233,7.759,3.496,15.925,3.496,24.399c0,8.686-1.306,17.055-3.646,24.982
			c62.623,37.676,131.046,15.342,171.37-24.982C455.797,199.803,389.272,203.449,340.782,231.6"/>
		<path style="fill:#F0EDE0;" d="M333.22,298.741c-8.104,14.618-20.224,26.695-34.887,34.728
			c17.664,70.877,81.682,103.556,138.69,103.556C437.024,357.55,387.404,313.129,333.22,298.741"/>
	</g>
	<g>
		<path style="fill:#B49377;" d="M388.526,264.828h-44.253c-4.873,0-8.828-3.955-8.828-8.828c0-4.873,3.955-8.828,8.828-8.828
			h44.253c4.882,0,8.828,3.955,8.828,8.828C397.353,260.874,393.408,264.828,388.526,264.828"/>
		<path style="fill:#B49377;" d="M353.103,361.932c-2.26,0-4.52-0.865-6.241-2.586l-34.684-34.684
			c-3.443-3.443-3.443-9.031,0-12.482c3.452-3.443,9.039-3.443,12.482,0l34.684,34.684c3.452,3.452,3.452,9.031,0,12.482
			C357.623,361.067,355.363,361.932,353.103,361.932"/>
		<path style="fill:#B49377;" d="M318.423,202.406c-2.26,0-4.52-0.865-6.241-2.586c-3.452-3.452-3.452-9.031,0-12.482l34.684-34.684
			c3.443-3.443,9.031-3.443,12.482,0c3.443,3.452,3.443,9.039,0,12.482l-34.684,34.684
			C322.942,201.541,320.682,202.406,318.423,202.406"/>
	</g>
	<path style="fill:#F9D70B;" d="M344.276,256.001c0-48.755-39.521-88.276-88.276-88.276s-88.276,39.521-88.276,88.276
		s39.521,88.276,88.276,88.276S344.276,304.756,344.276,256.001"/>
	<path style="fill:#F9EA7F;" d="M203.034,264.828c-4.882,0-8.828-3.955-8.828-8.828c0-34.074,27.727-61.793,61.793-61.793
		c4.882,0,8.828,3.955,8.828,8.828c0,4.873-3.946,8.828-8.828,8.828c-24.338,0-44.138,19.8-44.138,44.138
		C211.862,260.874,207.916,264.828,203.034,264.828"/>
</g>
</svg>