<?xml version="1.0" encoding="utf-8"?>

<!DOCTYPE svg PUBLIC "-//W3C//DTD SVG 1.1//EN" "http://www.w3.org/Graphics/SVG/1.1/DTD/svg11.dtd">
<!-- Uploaded to: SVG Repo, www.svgrepo.com, Generator: SVG Repo Mixer Tools -->
<svg height="800px" width="800px" version="1.1" id="_x32_" xmlns="http://www.w3.org/2000/svg" xmlns:xlink="http://www.w3.org/1999/xlink" 
	 viewBox="0 0 512 512"  xml:space="preserve">
<style type="text/css">
	.st0{fill:#000000;}
</style>
<g>
	<path class="st0" d="M137.542,212.252c-8.77,12.118-14.043,26.836-14.043,42.895c0,40.566,32.858,73.449,73.432,73.449
		c24.335,0,45.692-11.913,59.06-30.127c13.386,18.214,34.75,30.127,59.052,30.127c40.608,0,73.441-32.883,73.441-73.449
		c0-16.058-5.274-30.776-14.027-42.895c29.279-9.658,50.513-36.881,50.513-69.385c0-40.566-32.85-73.433-73.433-73.433
		c-7.774,0-15.137,1.522-22.114,3.718C329.235,32.718,296.493,0,255.991,0c-40.475,0-73.259,32.718-73.416,73.153
		c-6.976-2.196-14.339-3.718-22.105-3.718c-40.592,0-73.441,32.866-73.441,73.433C87.029,175.371,108.263,202.594,137.542,212.252z
		 M255.991,141.624c21.119,0,38.239,17.104,38.239,38.214c0,21.101-17.12,38.205-38.239,38.205
		c-21.101,0-38.238-17.104-38.238-38.205C217.754,158.728,234.891,141.624,255.991,141.624z"/>
	<path class="st0" d="M373.479,356.452c-48.053,0.33-90.602,23.389-117.61,58.904c-27.469-35.154-70.331-57.637-118.392-57.325
		c-10.589,0.074-20.905,1.259-30.859,3.439c0,0.856-0.05,1.704-0.041,2.576c0.551,82.251,67.674,148.502,149.942,147.951
		c82.269-0.552,148.511-67.682,147.96-149.942c-0.009-0.864-0.066-1.72-0.09-2.574C394.417,357.439,384.067,356.386,373.479,356.452
		z"/>
</g>
</svg>