<?xml version="1.0" encoding="iso-8859-1"?>
<!-- Uploaded to: SVG Repo, www.svgrepo.com, Generator: SVG Repo Mixer Tools -->
<svg height="800px" width="800px" version="1.1" id="Layer_1" xmlns="http://www.w3.org/2000/svg" xmlns:xlink="http://www.w3.org/1999/xlink" 
	 viewBox="0 0 512 512" xml:space="preserve">
<path style="fill:#FFF7EB;" d="M256,0c-41.306,0-69.133,82.849-76.97,135.073c-0.298,1.961,0.077,3.961,1.06,5.685l68.242,119.616
	c1.612,2.824,4.577,4.452,7.672,4.452c1.065,0,2.151-0.194,3.194-0.599c3.116-1.212,76.25-30.453,76.25-99.776
	C335.448,115.638,304.617,0,256,0z"/>
<path style="fill:#FFF2DC;" d="M216.444,141.422c-23.608-13.63-62.659-26.297-97.176-31.518
	c-31.258-4.724-71.388-5.422-84.97,18.095c-20.522,35.539,36.893,100.884,77.906,133.728c1.543,1.237,3.462,1.918,5.444,1.935
	l138.28,1.164c0.025,0,0.047,0,0.073,0c4.353,0,8.061-3.177,8.724-7.482C265.233,254.044,276.479,176.082,216.444,141.422z"/>
<path style="fill:#FFEBD7;" d="M261.526,249.117c-2.612-2.099-64.5-50.819-124.53-16.151
	c-23.608,13.633-54.103,41.121-75.884,68.401C41.384,326.082,20.715,360.479,34.297,384c8.746,15.147,29.099,20.789,53.401,20.789
	c33.276,0,73.956-10.573,102.418-21.806c1.845-0.728,3.392-2.056,4.388-3.772l69.126-118.772
	C265.827,256.664,264.931,251.849,261.526,249.117z"/>
<path style="fill:#FFF2DC;" d="M331.875,371.487l-68.203-119.853c-2.164-3.801-6.793-5.44-10.871-3.862
	c-3.116,1.212-76.249,30.453-76.249,99.776C176.552,396.362,207.383,512,256,512c41.219,0,69.065-82.702,76.931-134.828
	C333.228,375.211,332.853,373.212,331.875,371.487z"/>
<path style="fill:#FFF7EB;" d="M399.875,250.336c-1.547-1.237-3.462-1.922-5.444-1.94l-138.354-1.224
	c-4.474,0.207-8.134,3.15-8.802,7.482c-0.509,3.302-11.754,81.263,48.28,115.923c23.608,13.63,62.659,26.297,97.176,31.518
	c10.13,1.53,21.181,2.643,31.97,2.643c22.505,0,43.819-4.836,52.995-20.737C498.207,348.491,440.845,283.168,399.875,250.336z"/>
<g>
	<path style="fill:#FFF2DC;" d="M248.595,260.717c-0.064-0.1-0.153-0.175-0.214-0.279
		C248.438,260.538,248.531,260.619,248.595,260.717z"/>
	<path style="fill:#FFF2DC;" d="M477.703,128c-19.486-33.749-96.198-20.428-146.411-2.509c2.722,14.865,4.157,28.463,4.157,38.962
		c0,69.323-73.133,98.564-76.25,99.776c-1.043,0.405-2.13,0.599-3.194,0.599c-2.124,0-4.154-0.815-5.761-2.209
		c0.09,0.079,0.136,0.19,0.231,0.266c1.927,1.547,36.233,28.561,78.241,28.561c14.831,0,30.625-3.367,46.289-12.409
		c23.608-13.633,54.103-41.121,75.884-68.401C470.616,185.918,491.285,151.521,477.703,128z"/>
</g>
<polygon style="fill:#D7F091;" points="352.151,210.681 343.324,195.388 264.828,240.708 264.828,150.069 247.172,150.069 
	247.172,240.708 168.676,195.388 159.849,210.681 238.343,256 159.849,301.319 168.676,316.612 247.172,271.292 247.172,361.931 
	264.828,361.931 264.828,271.292 343.324,316.612 352.151,301.319 273.657,256 "/>
<g>
	<path style="fill:#91323C;" d="M256,114.759L256,114.759c-7.313,0-13.241,5.929-13.241,13.241v26.483
		c0,7.313,5.929,13.241,13.241,13.241l0,0c7.313,0,13.241-5.929,13.241-13.241V128C269.241,120.687,263.313,114.759,256,114.759z"/>
	<path style="fill:#91323C;" d="M256,344.276L256,344.276c-7.313,0-13.241,5.929-13.241,13.241V384
		c0,7.313,5.929,13.241,13.241,13.241l0,0c7.313,0,13.241-5.929,13.241-13.241v-26.483C269.241,350.205,263.313,344.276,256,344.276
		z"/>
</g>
<circle style="fill:#B4D787;" cx="256" cy="256" r="26.483"/>
<g>
	<path style="fill:#91323C;" d="M133.682,185.379L133.682,185.379c-3.657,6.334-1.486,14.432,4.846,18.088l22.935,13.241
		c6.334,3.657,14.432,1.486,18.088-4.846l0,0c3.657-6.334,1.486-14.432-4.846-18.088l-22.935-13.241
		C145.437,176.876,137.337,179.046,133.682,185.379z"/>
	<path style="fill:#91323C;" d="M332.449,300.138L332.449,300.138c-3.657,6.334-1.486,14.432,4.846,18.088l22.935,13.241
		c6.334,3.657,14.432,1.486,18.088-4.846l0,0c3.657-6.334,1.486-14.432-4.846-18.088l-22.935-13.241
		C344.204,291.635,336.106,293.804,332.449,300.138z"/>
	<path style="fill:#91323C;" d="M378.318,185.379L378.318,185.379c3.657,6.334,1.486,14.432-4.846,18.088l-22.935,13.241
		c-6.334,3.657-14.432,1.486-18.088-4.846l0,0c-3.657-6.334-1.486-14.432,4.846-18.088l22.935-13.241
		C366.563,176.876,374.661,179.046,378.318,185.379z"/>
	<path style="fill:#91323C;" d="M179.551,300.138L179.551,300.138c3.657,6.334,1.486,14.432-4.846,18.088l-22.935,13.241
		c-6.334,3.657-14.432,1.486-18.088-4.846l0,0c-3.657-6.334-1.486-14.432,4.846-18.088l22.935-13.241
		C167.796,291.635,175.894,293.804,179.551,300.138z"/>
</g>
</svg>