<svg xmlns="http://www.w3.org/2000/svg" width="171" height="295" viewBox="0 0 171 295">
<g>
<path d="M 74.30,102.67 L 74.51,103.01 L 75.18,103.59 L 75.69,103.69 L 75.90,103.56 L 76.46,103.58 L 76.72,103.96 L 76.74,104.29 L 76.90,105.24 L 77.12,106.26 L 77.28,106.91 L 78.01,109.85 L 78.47,111.50 L 79.26,114.74 L 79.88,117.53 L 80.21,119.12 L 81.54,125.84 L 82.08,129.00 L 82.87,133.58 L 83.38,136.38 L 83.60,137.56 L 84.01,139.75 L 84.16,140.51 L 84.31,141.21 L 84.36,141.46 L 84.46,141.90 L 84.49,142.00 L 84.79,143.20 L 85.02,144.34 L 85.15,145.06 L 85.42,146.62 L 85.57,147.53 L 85.88,149.46 L 86.05,150.55 L 86.39,152.81 L 86.57,154.05 L 86.93,156.60 L 87.12,157.98 L 87.91,163.70 L 88.32,166.85 L 89.14,173.30 L 89.56,176.68 L 90.39,183.52 L 90.79,186.97 L 91.58,193.88 L 91.95,197.24 L 92.66,203.89 L 92.97,207.00 L 94.01,215.32 L 94.42,217.97 L 94.62,219.11 L 95.02,221.24 L 95.19,222.00 L 96.48,227.50 L 96.81,223.50 L 96.84,222.33 L 96.82,221.28 L 96.79,220.62 L 96.71,219.22 L 96.65,218.40 L 96.52,216.66 L 96.44,215.68 L 96.26,213.64 L 96.15,212.51 L 95.92,210.18 L 95.78,208.92 L 95.57,206.89 L 95.66,207.62 L 95.84,209.00 L 96.56,214.50 L 99.87,206.50 L 101.01,203.75 L 103.66,198.05 L 105.04,195.19 L 108.10,189.39 L 109.67,186.49 L 113.05,180.78 L 118.34,172.50 L 119.72,170.46 L 123.02,166.18 L 124.75,164.03 L 128.60,159.63 L 130.59,157.43 L 134.81,153.09 L 136.96,150.94 L 141.38,146.81 L 143.59,144.79 L 148.02,141.05 L 150.21,139.24 L 154.45,136.06 L 156.54,134.55 L 160.41,132.08 L 161.35,131.52 L 163.13,130.56 L 165.62,129.38 L 169.00,127.97 L 169.00,136.01 L 168.68,139.32 L 168.66,139.43 L 168.39,138.96 L 167.38,138.67 L 166.59,138.72 L 164.84,138.95 L 163.69,139.26 L 161.23,140.01 L 159.75,140.59 L 157.09,141.81 L 155.23,142.86 L 154.26,143.49 L 152.28,144.83 L 151.26,145.61 L 149.19,147.23 L 148.13,148.14 L 143.80,152.05 L 141.55,154.38 L 137.01,159.27 L 134.71,162.05 L 132.57,164.70 L 131.39,166.26 L 130.93,166.95 L 130.07,168.27 L 129.75,168.85 L 129.20,169.97 L 129.03,170.47 L 128.76,171.44 L 128.73,171.88 L 128.74,172.74 L 128.84,173.15 L 129.50,174.71 L 130.18,175.49 L 131.91,178.19 L 132.51,180.09 L 132.54,181.14 L 132.42,183.31 L 132.09,184.52 L 131.25,187.06 L 130.55,188.50 L 128.77,192.77 L 128.32,194.08 L 128.16,194.63 L 127.90,195.66 L 127.86,196.00 L 127.55,197.25 L 127.17,198.25 L 126.92,198.79 L 125.76,201.04 L 125.07,202.00 L 124.23,203.26 L 123.86,203.90 L 123.77,204.11 L 123.67,204.44 L 123.73,204.46 L 123.92,204.43 L 124.13,204.26 L 125.42,203.57 L 126.16,203.49 L 126.34,203.67 L 126.21,204.54 L 125.53,205.34 L 124.98,205.73 L 123.73,207.00 L 123.38,207.81 L 123.54,208.07 L 123.42,208.75 L 122.81,209.06 L 122.31,209.08 L 121.36,209.28 L 121.39,209.52 L 121.76,209.66 L 122.21,209.99 L 122.30,210.27 L 122.24,210.44 L 122.04,210.82 L 121.84,211.05 L 121.35,211.54 L 120.99,211.84 L 119.34,213.61 L 118.72,214.45 L 118.37,214.98 L 117.65,216.10 L 117.24,216.78 L 116.39,218.23 L 115.90,219.10 L 114.88,220.94 L 114.30,222.02 L 113.08,224.30 L 112.39,225.63 L 110.94,228.40 L 110.11,230.00 L 107.23,235.99 L 105.56,239.86 L 104.93,241.53 L 104.34,243.15 L 104.10,243.86 L 103.68,245.20 L 103.54,245.74 L 103.32,246.73 L 103.30,247.07 L 103.30,247.64 L 103.40,247.73 L 103.67,247.61 L 103.91,247.24 L 104.05,246.93 L 104.66,245.41 L 104.96,244.35 L 105.90,241.67 L 106.81,239.49 L 107.36,238.28 L 109.79,233.20 L 111.10,230.73 L 112.42,228.30 L 113.04,227.22 L 114.25,225.16 L 114.78,224.34 L 115.78,222.86 L 116.16,222.41 L 116.51,222.02 L 116.65,221.91 L 116.90,221.76 L 116.98,221.77 L 117.63,221.68 L 117.71,221.33 L 117.54,221.06 L 117.57,220.43 L 117.79,219.74 L 117.97,219.30 L 118.90,217.30 L 119.50,216.22 L 120.75,214.08 L 121.31,213.30 L 121.84,212.58 L 122.06,212.36 L 122.45,212.00 L 122.58,212.00 L 122.80,212.20 L 122.84,212.51 L 122.81,212.73 L 122.59,213.80 L 122.35,214.47 L 121.79,215.86 L 121.44,216.52 L 120.71,217.77 L 120.34,218.18 L 119.02,220.16 L 118.37,221.65 L 118.28,222.24 L 117.65,224.22 L 116.97,225.52 L 116.60,225.95 L 115.53,227.60 L 114.68,229.23 L 114.22,230.24 L 113.28,232.39 L 112.79,233.60 L 111.81,236.08 L 111.33,237.38 L 109.46,242.69 L 108.75,245.13 L 108.07,247.50 L 107.83,248.53 L 107.40,250.49 L 107.29,251.25 L 107.16,252.44 L 107.15,252.91 L 107.15,253.76 L 107.20,254.06 L 107.32,254.58 L 107.42,254.71 L 107.64,254.90 L 107.78,254.88 L 108.07,254.75 L 108.24,254.56 L 108.59,254.11 L 108.77,253.76 L 109.04,253.23 L 108.83,253.87 L 107.47,259.37 L 106.87,262.09 L 106.13,267.44 L 105.64,275.50 L 105.60,278.52 L 105.76,284.52 L 105.82,285.90 L 105.98,288.23 L 106.26,290.75 L 107.02,295.00 L 94.82,295.00 L 92.66,294.99 L 91.64,294.99 L 90.00,294.95 L 89.24,294.93 L 88.05,294.86 L 87.50,294.81 L 86.68,294.68 L 86.30,294.61 L 85.77,294.41 L 85.53,294.30 L 85.20,294.01 L 84.91,293.70 L 84.63,292.75 L 84.55,292.44 L 84.39,291.52 L 84.32,291.02 L 84.20,289.84 L 84.01,286.00 L 84.01,285.09 L 83.83,282.58 L 83.72,281.23 L 83.36,277.97 L 83.16,276.27 L 82.64,272.46 L 82.37,270.51 L 81.73,266.35 L 81.06,262.15 L 79.48,253.56 L 79.08,251.46 L 78.25,247.48 L 77.01,242.00 L 76.59,240.28 L 75.75,236.79 L 75.34,235.07 L 74.57,231.86 L 74.20,230.32 L 73.58,227.75 L 73.44,227.16 L 73.21,226.18 L 72.94,225.02 L 72.65,223.79 L 71.96,221.71 L 71.82,221.33 L 71.90,221.51 L 72.11,222.07 L 72.98,224.66 L 73.38,226.21 L 75.03,230.80 L 75.68,232.14 L 76.00,232.68 L 76.64,233.64 L 76.93,233.93 L 78.40,235.76 L 79.01,236.91 L 79.02,237.25 L 79.11,237.86 L 79.27,237.82 L 79.69,237.50 L 80.03,237.00 L 80.39,235.99 L 80.52,235.05 L 80.52,234.46 L 80.49,233.21 L 80.43,232.46 L 80.26,230.91 L 80.12,230.04 L 79.45,226.28 L 78.93,224.08 L 77.79,219.49 L 77.06,216.96 L 75.51,211.77 L 74.60,209.03 L 72.71,203.48 L 71.67,200.65 L 69.51,194.98 L 68.35,192.18 L 66.00,186.63 L 64.77,183.98 L 62.08,177.94 L 61.36,176.22 L 61.09,175.54 L 60.62,174.32 L 60.52,173.98 L 59.77,171.94 L 59.23,170.78 L 59.04,170.50 L 58.81,170.07 L 58.57,169.58 L 58.42,169.24 L 57.73,167.65 L 57.28,166.56 L 56.32,164.22 L 55.77,162.85 L 54.65,160.01 L 54.06,158.50 L 52.30,153.99 L 51.17,151.12 L 50.67,149.85 L 49.71,147.45 L 49.34,146.53 L 48.99,145.67 L 48.85,145.33 L 48.59,144.71 L 48.50,144.50 L 47.50,142.19 L 46.92,140.84 L 46.67,140.25 L 45.77,138.10 L 45.46,137.30 L 44.91,135.87 L 44.74,135.35 L 44.46,134.44 L 44.40,134.10 L 43.74,132.62 L 43.01,131.61 L 42.58,131.19 L 41.73,130.43 L 41.35,130.24 L 40.66,130.01 L 40.47,130.19 L 40.36,130.93 L 40.38,131.25 L 40.31,130.74 L 40.14,127.82 L 40.18,123.58 L 40.23,122.75 L 40.38,121.32 L 40.47,120.64 L 40.70,119.53 L 40.82,119.02 L 41.10,118.25 L 41.24,117.91 L 41.56,117.50 L 41.72,117.34 L 42.05,117.31 L 42.21,117.34 L 42.54,117.71 L 42.70,117.94 L 43.00,118.72 L 43.41,120.38 L 43.55,121.10 L 44.20,123.07 L 44.59,124.14 L 45.71,126.74 L 46.33,128.12 L 47.90,131.30 L 48.74,132.96 L 50.71,136.65 L 51.75,138.55 L 54.09,142.69 L 55.30,144.81 L 57.99,149.33 L 59.36,151.63 L 62.35,156.46 L 67.12,164.00 L 68.84,166.68 L 72.26,172.06 L 73.93,174.71 L 76.97,179.60 L 77.69,180.76 L 79.01,182.90 L 79.64,183.93 L 80.74,185.76 L 81.26,186.63 L 82.11,188.06 L 83.04,189.71 L 83.51,190.56 L 84.38,192.09 L 84.81,192.81 L 85.54,193.97 L 85.89,194.50 L 86.40,195.18 L 86.82,195.51 L 86.88,195.45 L 86.90,194.60 L 86.90,194.07 L 86.79,192.36 L 86.72,191.42 L 86.48,188.97 L 86.36,187.66 L 86.02,184.58 L 85.84,182.98 L 85.40,179.38 L 85.18,177.52 L 84.66,173.52 L 82.87,160.50 L 81.92,153.93 L 79.59,140.59 L 78.99,137.32 L 77.75,131.08 L 77.13,128.03 L 75.91,122.40 L 75.30,119.69 L 74.14,114.95 L 73.86,113.84 L 73.31,111.82 L 73.05,110.84 L 72.54,109.14 L 72.29,108.33 L 71.83,106.96 L 71.61,106.33 L 71.20,105.35 L 71.00,104.91 L 70.66,104.34 L 70.21,103.99 L 67.98,103.96 L 64.19,103.89 L 62.39,103.85 L 59.35,103.74 L 57.91,103.68 L 55.49,103.52 L 55.16,103.49 L 55.75,103.53 L 56.69,103.57 L 58.67,103.64 L 59.83,103.68 L 63.99,103.72 L 66.57,103.66 L 67.68,103.60 L 69.74,103.45 L 70.49,103.35 L 71.77,103.12 L 72.02,102.99 L 73.57,102.50 M 113.14,242.11 L 112.42,243.79 L 112.92,242.53 L 113.75,240.65 L 115.52,236.79 L 115.55,236.72 M 71.53,220.68 L 71.63,220.89 L 71.52,220.67 M 69.58,216.92 L 69.86,217.60 L 70.40,218.85 L 70.61,219.27 L 70.99,219.96 L 71.10,220.03 L 71.21,220.19 L 71.09,220.02 L 70.98,219.95 L 70.60,219.27 L 70.39,218.85 L 69.86,217.60 L 69.58,216.92 L 68.96,215.26 L 68.01,212.50 L 68.96,215.26 M 129.43,200.10 L 129.43,200.50 L 129.12,200.82 L 128.31,201.54 L 127.70,201.90 L 126.51,202.60 L 126.09,202.81 L 126.06,202.78 L 126.11,202.62 L 126.31,202.40 L 126.81,201.85 L 127.23,201.42 L 128.59,200.29 L 129.30,199.97 M 162.35,158.03 L 161.09,160.51 L 160.44,161.77 L 158.99,164.44 L 158.24,165.80 L 156.59,168.69 L 155.74,170.17 L 153.88,173.29 L 152.92,174.89 L 150.83,178.28 L 149.76,180.00 L 147.45,183.67 L 146.26,185.54 L 143.70,189.51 L 139.59,195.82 L 137.99,198.25 L 136.64,200.34 L 137.55,198.93 L 139.59,195.82 L 145.21,187.16 L 148.62,181.78 L 150.17,179.29 L 153.15,174.44 L 154.48,172.20 L 157.04,167.84 L 158.17,165.84 L 160.32,161.96 L 161.25,160.19 L 162.36,158.01 M 88.71,154.00 L 89.59,159.98 L 90.02,163.01 L 90.89,169.34 L 91.32,172.56 L 91.75,175.94 L 91.28,172.36 L 90.72,168.34 L 89.58,160.19 L 88.98,156.00 L 88.27,151.17 M 40.90,134.77 L 41.26,136.57 L 41.48,137.57 L 42.50,141.84 L 42.70,142.58 L 42.29,141.13 L 41.41,137.37 L 41.02,135.56 L 40.90,134.77 M 83.53,123.72 L 83.62,124.23 L 83.58,124.03 L 82.86,120.42 M 32.19,91.80 L 35.90,95.20 L 37.82,96.65 L 39.74,98.04 L 40.69,98.65 L 42.58,99.81 L 43.50,100.29 L 43.51,100.29 L 43.50,100.29 L 42.58,99.81 L 40.69,98.65 L 39.74,98.04 L 37.82,96.65 L 35.90,95.20 L 32.19,91.80 L 31.69,91.31 M 30.40,90.04 L 30.40,90.04 L 30.02,89.60 M 10.25,33.21 L 7.85,33.31 L 10.25,33.21 L 18.00,32.92 L 18.00,30.01 L 18.00,32.92 M 67.09,209.83 L 66.39,207.89 L 66.02,206.86 L 65.15,204.48 L 64.69,203.24 L 63.68,200.51 L 62.63,197.70 L 60.24,191.37 L 56.46,181.50 L 55.60,179.25 L 53.99,175.05 L 53.20,172.99 L 51.76,169.15 L 51.05,167.27 L 49.76,163.77 L 49.38,162.75 L 51.52,168.47 L 52.73,171.67 L 55.21,178.20 L 56.49,181.50 L 60.25,191.37 L 62.64,197.70 L 63.68,200.51 L 64.70,203.24 L 65.15,204.48 L 66.02,206.86 L 66.39,207.89 L 67.09,209.83 L 67.36,210.60 L 67.85,212.02 L 67.36,210.60 Z" fill="rgba(77,127,7,1)"/>
<path d="M 168.39,138.96 L 169.00,140.00 L 169.00,140.11 L 168.84,140.81 L 168.74,141.23 L 168.41,142.42 L 168.23,143.07 L 167.77,144.61 L 167.00,147.14 L 166.64,148.29 L 165.64,150.87 L 165.10,152.21 L 163.73,155.21 L 163.00,156.76 L 161.25,160.19 L 160.32,161.96 L 158.17,165.84 L 157.04,167.84 L 154.48,172.20 L 153.15,174.44 L 150.17,179.29 L 148.62,181.78 L 145.21,187.16 L 139.59,195.82 L 137.55,198.93 L 133.77,204.83 L 131.93,207.73 L 128.56,213.22 L 126.92,215.92 L 123.95,221.00 L 122.52,223.48 L 119.95,228.16 L 118.72,230.44 L 116.55,234.71 L 115.52,236.79 L 113.75,240.65 L 112.92,242.53 L 111.55,246.00 L 109.94,250.75 L 109.74,251.41 L 109.35,252.49 L 109.15,252.99 L 108.77,253.76 L 108.59,254.11 L 108.24,254.56 L 108.07,254.75 L 107.78,254.88 L 107.64,254.90 L 107.42,254.71 L 107.32,254.58 L 107.20,254.06 L 107.15,253.76 L 107.15,252.91 L 107.16,252.44 L 107.29,251.25 L 107.40,250.49 L 107.83,248.53 L 108.07,247.50 L 108.75,245.13 L 109.46,242.69 L 111.33,237.38 L 111.81,236.08 L 112.79,233.60 L 113.28,232.39 L 114.22,230.24 L 114.68,229.23 L 115.53,227.60 L 116.60,225.95 L 116.97,225.52 L 117.65,224.22 L 118.28,222.24 L 118.37,221.65 L 119.02,220.16 L 120.34,218.18 L 120.71,217.77 L 121.44,216.52 L 121.79,215.86 L 122.35,214.47 L 122.59,213.80 L 122.81,212.73 L 122.84,212.51 L 122.80,212.20 L 122.58,212.00 L 122.45,212.00 L 122.06,212.36 L 121.84,212.58 L 121.31,213.30 L 120.75,214.08 L 119.50,216.22 L 118.90,217.30 L 117.97,219.30 L 117.79,219.74 L 117.57,220.43 L 117.54,221.06 L 117.71,221.33 L 117.63,221.68 L 116.98,221.77 L 116.90,221.76 L 116.65,221.91 L 116.51,222.02 L 116.16,222.41 L 115.78,222.86 L 114.78,224.34 L 114.25,225.16 L 113.04,227.22 L 112.42,228.30 L 111.10,230.73 L 109.79,233.20 L 107.36,238.28 L 106.81,239.49 L 105.90,241.67 L 104.96,244.35 L 104.66,245.41 L 104.05,246.93 L 103.91,247.24 L 103.67,247.61 L 103.40,247.73 L 103.30,247.64 L 103.30,247.07 L 103.32,246.73 L 103.54,245.74 L 103.68,245.20 L 104.10,243.86 L 104.34,243.15 L 104.93,241.53 L 105.56,239.86 L 107.23,235.99 L 110.11,230.00 L 110.94,228.40 L 112.39,225.63 L 113.08,224.30 L 114.30,222.02 L 114.88,220.94 L 115.90,219.10 L 116.39,218.23 L 117.24,216.78 L 117.65,216.10 L 118.37,214.98 L 118.72,214.45 L 119.34,213.61 L 120.99,211.84 L 121.35,211.54 L 121.84,211.05 L 122.04,210.82 L 122.24,210.44 L 122.30,210.27 L 122.21,209.99 L 121.76,209.66 L 121.39,209.52 L 121.36,209.28 L 122.31,209.08 L 122.81,209.06 L 123.42,208.75 L 123.54,208.07 L 123.38,207.81 L 123.73,207.00 L 124.98,205.73 L 125.53,205.34 L 126.21,204.54 L 126.34,203.67 L 126.16,203.49 L 125.42,203.57 L 124.13,204.26 L 123.92,204.43 L 123.73,204.46 L 123.67,204.44 L 123.77,204.11 L 123.86,203.90 L 124.23,203.26 L 125.07,202.00 L 125.76,201.04 L 126.92,198.79 L 127.17,198.25 L 127.55,197.25 L 127.86,196.00 L 127.90,195.66 L 128.16,194.63 L 128.32,194.08 L 128.77,192.77 L 130.55,188.50 L 131.25,187.06 L 132.09,184.52 L 132.42,183.31 L 132.54,181.14 L 132.51,180.09 L 131.91,178.19 L 130.18,175.49 L 129.50,174.71 L 128.84,173.15 L 128.74,172.74 L 128.73,171.88 L 128.76,171.44 L 129.03,170.47 L 129.20,169.97 L 129.75,168.85 L 130.07,168.27 L 130.93,166.95 L 131.39,166.26 L 132.57,164.70 L 134.71,162.05 L 137.01,159.27 L 141.55,154.38 L 143.80,152.05 L 148.13,148.14 L 149.19,147.23 L 151.26,145.61 L 152.28,144.83 L 154.26,143.49 L 155.23,142.86 L 157.09,141.81 L 159.75,140.59 L 161.23,140.01 L 163.69,139.26 L 164.84,138.95 L 166.59,138.72 L 167.38,138.67 M 41.35,130.24 L 41.73,130.43 L 42.58,131.19 L 43.01,131.61 L 43.74,132.62 L 44.40,134.10 L 44.46,134.44 L 44.74,135.35 L 44.91,135.87 L 45.46,137.30 L 45.77,138.10 L 46.67,140.25 L 46.92,140.84 L 47.50,142.19 L 48.50,144.50 L 48.59,144.71 L 48.85,145.33 L 48.99,145.67 L 49.34,146.53 L 49.71,147.45 L 50.67,149.85 L 51.17,151.12 L 52.30,153.99 L 54.06,158.50 L 54.65,160.01 L 55.77,162.85 L 56.32,164.22 L 57.28,166.56 L 57.73,167.65 L 58.42,169.24 L 58.57,169.58 L 58.81,170.07 L 59.04,170.50 L 59.23,170.78 L 59.77,171.94 L 60.52,173.98 L 60.62,174.32 L 61.09,175.54 L 61.36,176.22 L 62.08,177.94 L 64.77,183.98 L 66.00,186.63 L 68.35,192.18 L 69.51,194.98 L 71.67,200.65 L 72.71,203.48 L 74.60,209.03 L 75.51,211.77 L 77.06,216.96 L 77.79,219.49 L 78.93,224.08 L 79.45,226.28 L 80.12,230.04 L 80.26,230.91 L 80.43,232.46 L 80.49,233.21 L 80.52,234.46 L 80.52,235.05 L 80.39,235.99 L 80.03,237.00 L 79.69,237.50 L 79.27,237.82 L 79.11,237.86 L 79.02,237.25 L 79.01,236.91 L 78.40,235.76 L 76.93,233.93 L 76.64,233.64 L 76.00,232.68 L 75.68,232.14 L 75.03,230.80 L 73.38,226.21 L 72.98,224.66 L 72.11,222.07 L 71.90,221.51 L 71.53,220.68 L 71.10,220.03 L 70.99,219.96 L 70.61,219.27 L 70.40,218.85 L 69.86,217.60 L 69.58,216.92 L 68.96,215.26 L 68.01,212.50 L 67.85,212.02 L 67.36,210.60 L 67.09,209.83 L 66.39,207.89 L 66.02,206.86 L 65.15,204.48 L 64.70,203.24 L 63.68,200.51 L 62.64,197.70 L 60.25,191.37 L 56.49,181.50 L 55.21,178.20 L 52.73,171.67 L 51.52,168.47 L 49.34,162.64 L 48.83,161.26 L 47.90,158.74 L 47.46,157.53 L 46.69,155.42 L 46.33,154.42 L 45.76,152.80 L 45.15,151.00 L 44.44,148.81 L 43.12,144.15 L 42.50,141.84 L 41.48,137.57 L 41.26,136.57 L 40.90,134.77 L 40.73,133.92 L 40.51,132.51 L 40.42,131.86 L 40.36,130.93 L 40.47,130.19 L 40.66,130.01 M 93.47,92.84 L 92.58,93.63 L 90.67,95.15 L 89.71,95.88 L 87.85,97.16 L 85.36,98.61 L 84.56,99.00 L 83.26,99.66 L 82.65,99.99 L 81.72,100.63 L 81.30,100.97 L 80.72,101.76 L 80.47,102.19 L 80.22,103.30 L 80.13,103.91 L 80.17,105.49 L 80.23,106.35 L 80.55,108.57 L 80.75,109.77 L 81.33,112.78 L 82.45,118.39 L 82.86,120.42 L 83.58,124.03 L 83.93,125.77 L 84.54,128.90 L 85.12,131.95 L 86.09,137.35 L 86.56,140.05 L 87.46,145.72 L 87.69,147.22 L 88.18,150.50 L 88.98,156.00 L 89.58,160.19 L 90.72,168.34 L 91.28,172.36 L 92.30,180.04 L 92.80,183.80 L 93.69,190.86 L 94.12,194.29 L 94.86,200.56 L 95.21,203.59 L 95.78,208.92 L 95.92,210.18 L 96.15,212.51 L 96.26,213.64 L 96.44,215.68 L 96.52,216.66 L 96.65,218.40 L 96.71,219.22 L 96.79,220.62 L 96.82,221.28 L 96.84,222.33 L 96.81,223.50 L 96.48,227.50 L 95.19,222.00 L 95.02,221.24 L 94.62,219.11 L 94.42,217.97 L 94.01,215.32 L 92.97,207.00 L 92.66,203.89 L 91.95,197.24 L 91.58,193.88 L 90.79,186.97 L 90.39,183.52 L 89.56,176.68 L 89.14,173.30 L 88.32,166.85 L 87.91,163.70 L 87.12,157.98 L 86.93,156.60 L 86.57,154.05 L 86.39,152.81 L 86.05,150.55 L 85.88,149.46 L 85.57,147.53 L 85.42,146.62 L 85.15,145.06 L 85.02,144.34 L 84.79,143.20 L 84.49,142.00 L 84.46,141.90 L 84.36,141.46 L 84.31,141.21 L 84.16,140.51 L 84.01,139.75 L 83.60,137.56 L 83.38,136.38 L 82.87,133.58 L 82.08,129.00 L 81.54,125.84 L 80.21,119.12 L 79.88,117.53 L 79.26,114.74 L 78.47,111.50 L 78.01,109.85 L 77.28,106.91 L 77.12,106.26 L 76.90,105.24 L 76.74,104.29 L 76.72,103.96 L 76.46,103.58 L 75.90,103.56 L 75.69,103.69 L 75.18,103.59 L 74.51,103.01 L 74.30,102.67 L 74.20,102.65 L 74.28,102.64 L 75.00,102.51 L 77.55,101.88 L 79.35,101.29 L 80.28,100.92 L 84.04,99.23 L 85.92,98.15 L 89.64,95.85 L 91.35,94.55 L 93.79,92.55 M 128.59,200.29 L 127.23,201.42 L 126.81,201.85 L 126.31,202.40 L 126.11,202.62 L 126.06,202.78 L 126.09,202.81 L 126.51,202.60 L 127.70,201.90 L 128.31,201.54 L 129.12,200.82 L 129.43,200.50 L 129.43,200.10 L 129.30,199.97 M 72.02,102.99 L 71.77,103.12 L 70.49,103.35 L 69.74,103.45 L 67.68,103.60 L 66.57,103.66 L 63.99,103.72 L 59.83,103.68 L 58.67,103.64 L 56.69,103.57 L 55.75,103.53 L 55.70,103.52 L 56.97,103.55 L 58.14,103.55 L 60.54,103.54 L 61.79,103.51 L 66.87,103.33 L 69.19,103.16 L 71.44,102.98 L 72.38,102.87 M 46.80,101.83 L 48.25,102.39 L 47.02,101.95 L 46.57,101.74 M 35.40,94.71 L 37.87,96.67 L 39.14,97.55 L 41.70,99.23 L 42.98,99.95 L 44.58,100.80 L 43.50,100.29 L 42.58,99.81 L 40.69,98.65 L 39.74,98.04 L 37.82,96.65 L 35.90,95.20 L 35.08,94.45 M 95.20,91.25 L 95.20,91.25 L 95.91,90.50 M 25.18,83.54 L 23.52,80.81 L 25.48,83.96 M 106.90,69.74 L 106.42,71.51 L 106.90,69.73 M 104.80,39.91 L 106.10,45.44 L 106.68,48.16 L 107.39,53.33 L 107.66,55.87 L 107.76,60.68 L 107.74,63.05 L 107.23,67.53 L 106.95,69.41 L 107.23,67.52 L 107.74,63.04 L 107.76,60.67 L 107.66,55.86 L 107.38,53.32 L 106.68,48.16 L 106.10,45.44 L 104.80,39.91 M 18.00,29.61 L 18.08,28.49 L 18.00,29.61 L 18.00,32.92 L 18.00,30.01 M 53.43,2.77 L 52.75,3.14 L 50.28,4.17 L 52.75,3.14 Z" fill="rgba(109,162,15,1)"/>
<path d="M 50.50,103.10 L 49.30,102.79 L 49.30,102.79 M 47.91,102.26 L 46.80,101.83 L 46.76,101.81 M 46.67,101.78 L 45.54,101.30 L 45.52,101.29 M 42.88,99.90 L 43.95,100.46 L 42.98,99.95 L 41.70,99.23 L 41.65,99.20 M 66.70,44.13 L 67.29,44.34 L 67.62,44.54 L 68.76,45.83 L 69.12,46.54 L 69.31,47.00 L 69.69,48.01 L 69.89,48.64 L 70.30,49.99 L 70.52,50.82 L 70.97,52.58 L 71.22,53.64 L 71.74,55.86 L 72.03,57.17 L 72.64,59.91 L 72.98,61.50 L 73.58,64.26 L 74.03,66.31 L 74.27,67.35 L 74.74,69.43 L 74.96,70.39 L 75.39,72.24 L 75.57,73.00 L 76.69,77.86 L 77.30,80.63 L 77.53,81.83 L 77.94,84.08 L 78.09,85.05 L 78.32,86.89 L 78.38,87.69 L 78.44,89.21 L 78.41,89.89 L 78.30,91.20 L 78.19,91.80 L 77.58,94.14 L 77.06,95.37 L 76.51,96.61 L 76.25,97.11 L 75.75,98.05 L 75.50,98.41 L 75.02,99.06 L 74.77,99.28 L 74.27,99.65 L 74.01,99.73 L 73.48,99.83 L 73.18,99.78 L 72.59,99.61 L 72.25,99.43 L 71.56,99.01 L 71.17,98.71 L 70.37,98.04 L 69.91,97.62 L 68.27,95.93 L 67.39,94.65 L 66.91,93.64 L 66.41,92.56 L 66.13,91.87 L 65.54,90.38 L 65.18,89.44 L 64.44,87.44 L 63.99,86.21 L 63.04,83.59 L 62.47,82.00 L 58.68,72.87 L 55.65,66.62 L 54.00,63.64 L 52.34,60.71 L 51.51,59.32 L 49.83,56.60 L 49.00,55.36 L 47.35,52.95 L 46.56,51.89 L 44.99,49.88 L 44.25,49.05 L 42.61,46.94 L 42.07,45.93 L 42.07,45.67 L 42.11,45.46 L 42.20,45.42 L 42.43,45.40 L 42.61,45.47 L 43.02,45.66 L 43.30,45.84 L 43.89,46.26 L 44.25,46.57 L 45.02,47.19 L 45.38,47.44 L 45.47,47.48 L 45.59,47.50 L 45.56,47.43 L 45.42,47.22 L 45.25,47.02 L 44.34,45.68 L 44.03,44.89 L 44.03,44.63 L 44.11,44.21 L 44.31,44.22 L 44.80,44.40 L 45.20,44.80 L 46.01,45.27 L 46.81,45.54 L 47.31,45.65 L 49.52,46.00 L 50.70,46.00 L 52.45,46.08 L 53.43,46.22 L 53.81,46.32 L 54.48,46.54 L 54.69,46.68 L 55.00,46.97 L 55.00,47.14 L 55.32,48.31 L 55.81,49.56 L 56.16,50.34 L 56.93,52.00 L 57.37,52.91 L 58.30,54.77 L 58.79,55.71 L 59.77,57.57 L 60.24,58.43 L 61.17,60.09 L 61.58,60.76 L 62.34,62.00 L 62.63,62.39 L 63.13,63.00 L 63.24,63.00 L 63.53,62.35 L 63.71,61.32 L 63.78,60.58 L 63.91,58.94 L 63.95,57.95 L 64.01,55.88 L 64.02,54.75 L 64.07,51.60 L 64.15,49.80 L 64.21,49.04 L 64.36,47.62 L 64.46,47.04 L 64.69,45.98 L 64.83,45.58 L 65.13,44.86 L 65.32,44.62 L 65.71,44.23 L 65.94,44.15 L 66.42,44.06 M 39.00,97.45 L 40.20,98.25 L 39.14,97.55 L 37.87,96.67 L 37.80,96.61 M 35.22,94.56 L 36.60,95.66 L 35.40,94.71 L 34.18,93.70 L 34.07,93.60 M 31.66,91.33 L 33.15,92.74 L 31.85,91.53 L 30.72,90.42 L 30.59,90.27 M 28.42,87.84 L 29.92,89.53 L 28.62,88.09 L 27.61,86.91 L 27.46,86.72 M 27.01,86.10 L 25.81,84.49 L 25.69,84.29 M 20.29,75.44 L 20.81,76.12 L 21.13,76.61 L 21.82,77.70 L 22.20,78.36 L 22.97,79.73 L 23.36,80.49 L 25.20,83.52 L 23.52,80.81 L 22.73,79.35 L 21.23,76.88 L 20.88,76.34 L 20.32,75.54 L 20.02,75.21 M 3.35,34.18 L 3.39,34.47 L 3.76,35.78 L 4.16,36.45 L 4.46,36.71 L 5.13,37.16 L 5.59,37.33 L 6.58,37.62 L 7.22,37.72 L 8.84,38.05 L 9.63,38.29 L 9.72,38.39 L 10.07,39.19 L 10.35,40.20 L 10.51,40.88 L 10.82,42.36 L 10.99,43.23 L 11.30,45.03 L 11.45,46.00 L 12.09,49.34 L 12.70,52.07 L 13.08,53.60 L 14.75,60.06 L 15.66,63.23 L 16.57,66.34 L 17.01,67.74 L 17.85,70.42 L 18.22,71.49 L 18.65,72.69 L 18.22,71.57 L 17.87,70.62 L 17.09,68.32 L 15.89,64.47 L 15.46,63.02 L 14.63,60.40 L 14.22,59.13 L 13.42,56.82 L 12.61,54.58 L 10.98,50.87 L 10.15,49.11 L 8.33,46.09 L 5.22,41.94 L 4.68,41.32 L 3.81,40.12 L 3.41,39.54 L 2.82,38.45 L 2.56,37.93 L 2.27,36.98 L 2.18,35.76 L 2.25,35.24 L 2.56,34.52 L 2.77,34.20 L 3.55,33.84 M 107.74,63.04 L 107.71,63.23 L 107.74,62.37 M 44.11,7.81 L 43.74,8.95 L 43.51,9.50 L 43.01,10.75 L 42.52,11.95 L 42.23,12.67 L 40.94,15.85 L 40.27,17.50 L 38.14,23.26 L 36.94,27.00 L 36.47,28.74 L 35.64,32.09 L 35.39,33.51 L 35.16,34.89 L 35.10,35.50 L 35.00,36.66 L 35.00,40.20 L 31.30,38.02 L 29.51,37.14 L 28.10,36.59 L 27.36,36.35 L 25.85,35.91 L 25.11,35.75 L 23.68,35.47 L 23.05,35.41 L 19.74,34.82 L 18.93,34.55 L 18.66,34.41 L 18.21,34.13 L 18.17,33.99 L 17.46,33.61 L 16.47,33.38 L 15.78,33.29 L 14.27,33.13 L 13.50,33.09 L 18.00,32.92 L 18.00,29.61 L 18.08,28.49 L 18.14,27.89 L 18.31,26.50 L 19.06,22.17 L 19.31,20.99 L 19.73,19.40 L 19.95,18.71 L 20.51,17.85 L 20.84,17.49 L 21.80,17.07 L 23.98,16.62 L 25.35,16.40 L 28.03,16.61 L 28.71,16.72 L 30.16,17.12 L 32.50,18.00 L 33.78,18.55 L 35.91,19.41 L 36.37,19.59 L 37.04,19.84 L 37.57,20.00 L 37.62,20.00 L 37.85,19.70 L 37.98,19.51 L 38.31,18.90 L 39.54,16.25 L 39.97,15.22 L 41.13,12.87 L 41.43,12.30 L 42.00,11.27 L 42.78,10.00 L 43.24,9.31 L 43.96,7.95 L 44.30,7.03 M 79.20,2.61 L 79.57,2.75 L 80.41,3.41 L 82.04,5.05 L 82.86,5.92 L 84.13,7.54 L 84.40,7.91 L 84.77,8.51 L 85.00,9.11 L 85.00,9.53 L 85.41,9.91 L 85.68,10.02 L 86.61,9.79 L 87.14,9.60 L 88.56,8.76 L 91.21,6.83 L 92.15,6.09 L 93.48,5.12 L 94.09,4.71 L 94.99,4.35 L 95.42,4.24 L 96.22,4.41 L 97.69,5.17 L 98.27,5.52 L 99.06,6.23 L 99.41,6.64 L 99.84,7.91 L 99.93,8.28 L 100.07,9.24 L 100.14,9.76 L 100.23,11.06 L 100.28,11.76 L 100.35,13.47 L 100.46,16.58 L 100.52,18.49 L 100.75,21.86 L 100.90,23.50 L 101.36,26.62 L 101.51,27.46 L 100.94,25.20 L 100.46,22.98 L 99.60,18.75 L 99.32,16.94 L 98.87,13.51 L 98.79,12.07 L 98.56,9.47 L 98.33,8.23 L 98.16,7.82 L 97.77,7.10 L 97.50,6.88 L 96.88,6.51 L 96.46,6.41 L 94.38,6.30 L 92.84,6.57 L 92.05,6.87 L 90.45,7.55 L 89.68,8.03 L 88.17,9.07 L 87.50,9.70 L 85.59,11.24 L 84.26,12.07 L 83.79,12.25 L 82.88,12.85 L 82.10,13.53 L 81.66,13.98 L 79.81,16.02 L 78.94,17.20 L 77.65,18.85 L 76.81,19.79 L 76.43,20.15 L 75.71,20.80 L 75.43,20.98 L 74.92,21.25 L 74.78,21.21 L 74.24,21.47 L 74.20,22.07 L 74.37,22.51 L 74.53,23.50 L 74.24,23.65 L 73.92,23.45 L 73.34,22.55 L 73.28,21.72 L 73.44,21.31 L 73.49,20.50 L 73.37,19.80 L 73.23,19.40 L 72.51,17.71 L 71.94,16.92 L 70.69,14.53 L 70.49,13.82 L 70.48,13.53 L 70.49,13.01 L 70.59,12.85 L 70.82,12.20 L 70.60,12.13 L 70.33,12.30 L 69.56,12.19 L 68.73,11.80 L 68.19,11.46 L 67.45,10.97 L 70.86,7.71 L 71.86,6.76 L 74.10,4.91 L 74.64,4.49 L 75.62,3.79 L 75.64,3.78 L 75.50,4.00 L 75.41,4.52 L 75.67,4.71 L 76.37,5.00 L 76.94,5.00 L 78.40,4.71 L 79.00,4.27 L 79.00,4.00 L 78.58,3.29 L 77.96,3.00 L 77.56,3.00 L 76.45,3.27 L 76.79,3.06 L 77.30,2.80 L 78.10,2.54 L 78.49,2.46 M 25.80,17.00 L 24.50,17.43 L 24.06,18.05 L 24.05,18.46 L 24.19,19.32 L 24.47,19.75 L 25.18,20.59 L 25.75,20.92 L 26.93,21.53 L 27.44,21.70 L 28.41,21.94 L 28.79,21.92 L 29.47,21.79 L 29.68,21.58 L 30.00,21.09 L 30.00,20.70 L 29.64,19.34 L 29.08,18.50 L 28.69,18.15 L 27.84,17.52 L 27.34,17.32 L 26.33,17.00 M 56.93,2.98 L 57.73,3.32 L 59.67,4.66 L 60.20,5.05 L 61.37,6.02 L 61.58,6.20 L 60.67,5.45 L 60.07,4.99 L 58.92,4.15 L 58.42,3.83 L 57.46,3.25 L 57.03,3.05 L 55.87,2.63 M 102.31,81.96 L 103.24,80.09 L 104.96,76.28 L 105.60,74.27 L 106.75,70.18 L 107.12,68.03 L 107.48,65.28 L 107.23,67.52 L 106.90,69.72 L 105.79,73.90 L 105.16,75.95 L 103.43,79.83 L 102.49,81.73 L 100.15,85.34 L 95.95,90.46 L 100.02,85.49 Z" fill="rgba(198,18,89,1)"/>
<path d="M 52.00,3.50 L 49.51,4.56 L 48.74,4.81 L 48.42,4.88 L 47.81,5.00 L 47.61,5.00 L 46.63,5.45 L 46.41,6.20 L 46.51,6.79 L 46.85,8.11 L 47.24,8.98 L 48.14,10.87 L 48.80,12.02 L 50.41,15.51 L 51.28,18.04 L 51.46,19.00 L 51.84,20.67 L 52.20,21.96 L 52.41,22.64 L 53.34,25.39 L 53.80,26.49 L 54.47,28.04 L 54.71,28.52 L 55.13,29.29 L 55.27,29.40 L 55.52,29.45 L 55.61,29.23 L 55.76,28.62 L 55.84,28.09 L 55.89,26.84 L 55.84,25.79 L 55.77,25.20 L 55.43,22.73 L 55.14,21.60 L 54.23,17.53 L 53.66,14.60 L 53.49,13.50 L 52.87,9.50 L 56.18,14.24 L 58.20,16.80 L 59.41,18.03 L 59.94,18.42 L 60.95,19.03 L 61.37,19.12 L 62.14,19.14 L 62.42,18.94 L 62.92,18.40 L 63.05,17.93 L 63.24,16.84 L 63.21,16.11 L 63.06,14.50 L 62.85,13.51 L 62.32,11.41 L 61.91,10.19 L 60.98,7.75 L 60.33,6.36 L 59.99,5.79 L 59.30,4.72 L 58.93,4.30 L 58.56,3.92 L 58.92,4.15 L 60.07,4.99 L 60.67,5.45 L 62.05,6.58 L 64.43,8.61 L 65.10,9.20 L 66.42,10.23 L 67.05,10.71 L 68.19,11.46 L 68.73,11.80 L 69.56,12.19 L 70.33,12.30 L 70.60,12.13 L 70.82,12.20 L 70.59,12.85 L 70.49,13.01 L 70.48,13.53 L 70.49,13.82 L 70.69,14.53 L 71.94,16.92 L 72.51,17.71 L 73.23,19.40 L 73.37,19.80 L 73.49,20.50 L 73.44,21.31 L 73.28,21.72 L 73.34,22.55 L 73.92,23.45 L 74.24,23.65 L 74.53,23.50 L 74.37,22.51 L 74.20,22.07 L 74.24,21.47 L 74.78,21.21 L 74.92,21.25 L 75.43,20.98 L 75.71,20.80 L 76.43,20.15 L 76.81,19.79 L 77.65,18.85 L 78.81,17.37 L 78.62,17.66 L 77.07,20.16 L 76.35,21.55 L 74.97,24.41 L 74.37,25.90 L 73.24,28.90 L 72.80,30.37 L 72.01,33.29 L 71.77,34.64 L 71.41,37.26 L 71.42,38.38 L 71.57,40.47 L 71.88,41.25 L 72.39,42.46 L 72.64,42.90 L 73.13,43.66 L 73.38,43.87 L 73.85,44.20 L 74.08,44.19 L 74.54,44.07 L 74.75,43.85 L 75.18,43.30 L 75.38,42.86 L 75.78,41.87 L 75.97,41.22 L 76.34,39.80 L 76.51,38.94 L 76.85,37.10 L 77.00,36.02 L 78.21,31.07 L 79.59,27.85 L 80.65,26.13 L 81.78,24.39 L 82.45,23.46 L 83.88,21.57 L 84.71,20.55 L 86.47,18.46 L 87.48,17.32 L 89.60,14.97 L 90.81,13.68 L 93.25,10.99 L 94.64,9.38 L 95.17,8.71 L 96.11,7.49 L 96.37,7.08 L 96.71,6.47 L 96.88,6.51 L 97.50,6.88 L 97.77,7.10 L 98.16,7.82 L 98.33,8.23 L 98.56,9.47 L 98.79,12.07 L 98.87,13.51 L 99.32,16.94 L 99.60,18.75 L 100.43,22.87 L 100.26,22.41 L 99.98,22.00 L 99.43,21.25 L 99.14,21.00 L 99.00,21.00 L 98.73,21.08 L 98.57,21.25 L 98.23,21.67 L 98.02,22.00 L 97.52,23.26 L 97.28,24.43 L 97.20,25.16 L 97.08,26.69 L 97.07,27.57 L 97.07,29.38 L 97.11,30.36 L 97.39,34.48 L 97.69,36.64 L 98.40,40.97 L 98.91,43.00 L 100.01,47.51 L 100.65,50.22 L 100.92,51.42 L 101.43,53.74 L 101.63,54.75 L 102.02,56.70 L 102.16,57.55 L 102.42,59.15 L 102.50,59.83 L 102.64,61.12 L 102.67,61.65 L 102.70,62.63 L 102.67,63.02 L 102.58,63.73 L 102.50,63.99 L 102.06,65.11 L 101.76,65.61 L 101.60,65.73 L 101.28,65.88 L 101.10,65.82 L 100.75,65.61 L 100.55,65.37 L 100.15,64.79 L 99.94,64.36 L 99.48,63.39 L 99.24,62.76 L 98.72,61.40 L 98.44,60.56 L 97.85,58.79 L 97.53,57.75 L 96.31,53.93 L 95.55,51.66 L 95.20,50.66 L 94.51,48.76 L 94.19,47.94 L 93.57,46.40 L 93.28,45.76 L 92.72,44.58 L 92.47,44.12 L 91.98,43.29 L 91.75,43.00 L 91.32,42.52 L 91.12,42.41 L 90.75,42.27 L 90.59,42.33 L 90.13,42.95 L 89.92,43.75 L 89.86,44.31 L 89.76,45.54 L 89.75,46.28 L 89.76,47.84 L 89.81,48.71 L 90.10,52.40 L 90.39,54.36 L 91.06,58.31 L 91.53,60.11 L 92.67,65.65 L 93.01,68.83 L 92.96,70.16 L 92.73,72.65 L 92.41,73.62 L 91.61,75.39 L 91.00,76.00 L 89.47,77.32 L 88.58,77.82 L 88.12,77.89 L 87.20,77.90 L 86.67,77.73 L 85.53,77.28 L 84.81,76.90 L 83.18,76.43 L 82.31,76.63 L 82.00,76.99 L 81.44,77.87 L 81.27,78.57 L 81.02,80.13 L 81.02,81.15 L 80.82,82.78 L 80.51,84.26 L 80.29,85.12 L 79.24,88.90 L 78.58,90.88 L 77.92,92.85 L 77.91,92.87 L 78.19,91.80 L 78.30,91.20 L 78.41,89.89 L 78.44,89.21 L 78.38,87.69 L 78.32,86.89 L 78.09,85.05 L 77.94,84.08 L 77.53,81.83 L 77.30,80.63 L 76.69,77.86 L 75.57,73.00 L 75.39,72.24 L 74.96,70.39 L 74.74,69.43 L 74.27,67.35 L 74.03,66.31 L 73.58,64.26 L 72.98,61.50 L 72.64,59.91 L 72.03,57.17 L 71.74,55.86 L 71.22,53.64 L 70.97,52.58 L 70.52,50.82 L 70.30,49.99 L 69.89,48.64 L 69.69,48.01 L 69.31,47.00 L 69.12,46.54 L 68.76,45.83 L 67.62,44.54 L 67.29,44.34 L 66.70,44.13 L 66.42,44.06 L 65.94,44.15 L 65.71,44.23 L 65.32,44.62 L 65.13,44.86 L 64.83,45.58 L 64.69,45.98 L 64.46,47.04 L 64.36,47.62 L 64.21,49.04 L 64.15,49.80 L 64.07,51.60 L 64.02,54.75 L 64.01,55.88 L 63.95,57.95 L 63.91,58.94 L 63.78,60.58 L 63.71,61.32 L 63.53,62.35 L 63.24,63.00 L 63.13,63.00 L 62.63,62.39 L 62.34,62.00 L 61.58,60.76 L 61.17,60.09 L 60.24,58.43 L 59.77,57.57 L 58.79,55.71 L 58.30,54.77 L 57.37,52.91 L 56.93,52.00 L 56.16,50.34 L 55.81,49.56 L 55.32,48.31 L 55.00,47.14 L 55.00,46.97 L 54.69,46.68 L 54.48,46.54 L 53.81,46.32 L 53.43,46.22 L 52.45,46.08 L 50.70,46.00 L 49.52,46.00 L 47.31,45.65 L 46.81,45.54 L 46.01,45.27 L 45.20,44.80 L 44.80,44.40 L 44.31,44.22 L 44.11,44.21 L 44.03,44.63 L 44.03,44.89 L 44.34,45.68 L 45.25,47.02 L 45.42,47.22 L 45.56,47.43 L 45.59,47.50 L 45.47,47.48 L 45.38,47.44 L 45.02,47.19 L 44.25,46.57 L 43.89,46.26 L 43.30,45.84 L 43.02,45.66 L 42.61,45.47 L 42.43,45.40 L 42.20,45.42 L 42.11,45.46 L 42.07,45.67 L 42.07,45.93 L 42.61,46.94 L 44.25,49.05 L 44.99,49.88 L 46.56,51.89 L 47.35,52.95 L 49.00,55.36 L 49.83,56.60 L 51.51,59.32 L 52.34,60.71 L 54.00,63.64 L 55.65,66.62 L 58.68,72.87 L 62.47,82.00 L 63.04,83.59 L 63.99,86.21 L 64.44,87.44 L 65.18,89.44 L 65.54,90.38 L 66.13,91.87 L 66.41,92.56 L 66.91,93.64 L 67.39,94.65 L 68.27,95.93 L 69.91,97.62 L 70.37,98.04 L 71.17,98.71 L 71.56,99.01 L 72.25,99.43 L 72.59,99.61 L 73.18,99.78 L 73.48,99.83 L 74.01,99.73 L 74.27,99.65 L 74.77,99.28 L 75.02,99.06 L 75.50,98.41 L 75.75,98.05 L 76.25,97.11 L 76.33,96.96 L 75.98,97.76 L 75.72,98.29 L 75.21,99.19 L 75.02,99.38 L 74.26,99.77 L 73.54,99.85 L 73.07,99.80 L 72.03,99.63 L 71.37,99.45 L 69.96,99.03 L 69.09,98.73 L 65.32,97.52 L 63.44,97.11 L 62.77,97.09 L 61.59,97.18 L 61.20,97.42 L 60.55,98.01 L 60.36,98.50 L 59.88,99.13 L 59.35,99.48 L 58.99,99.61 L 57.33,100.00 L 56.20,100.00 L 54.16,99.79 L 52.94,99.39 L 52.29,98.99 L 50.96,98.05 L 50.14,97.31 L 49.30,96.52 L 48.82,96.05 L 47.83,95.06 L 47.26,94.47 L 43.04,89.49 L 40.90,86.19 L 40.12,84.43 L 38.75,80.83 L 38.29,78.80 L 37.88,76.73 L 37.72,75.62 L 37.43,73.34 L 37.33,72.11 L 36.97,68.70 L 36.64,66.65 L 36.43,65.73 L 35.99,63.94 L 35.72,63.14 L 35.14,61.60 L 34.79,60.90 L 33.25,58.33 L 32.22,57.28 L 29.97,55.31 L 28.54,54.47 L 26.51,53.38 L 25.28,52.83 L 24.74,52.64 L 23.68,52.33 L 23.21,52.26 L 22.31,52.18 L 21.91,52.24 L 21.16,52.40 L 20.83,52.57 L 20.22,52.98 L 19.96,53.27 L 19.48,53.91 L 19.28,54.33 L 18.92,55.21 L 18.78,55.75 L 17.93,58.05 L 17.63,58.58 L 17.48,58.74 L 17.20,59.00 L 17.08,59.00 L 16.00,59.62 L 15.64,60.63 L 15.64,61.43 L 15.76,63.23 L 15.98,64.33 L 15.66,63.23 L 14.75,60.06 L 13.08,53.60 L 12.70,52.07 L 12.09,49.34 L 11.45,46.00 L 11.30,45.03 L 10.99,43.23 L 10.82,42.36 L 10.51,40.88 L 10.35,40.20 L 10.07,39.19 L 9.72,38.39 L 9.63,38.29 L 8.84,38.05 L 7.22,37.72 L 6.58,37.62 L 6.05,37.46 L 6.32,37.29 L 7.33,37.01 L 8.41,36.88 L 9.09,36.85 L 12.18,36.81 L 13.95,36.90 L 17.53,37.14 L 19.10,37.34 L 20.60,37.56 L 21.23,37.69 L 22.37,37.95 L 22.76,38.10 L 23.68,38.59 L 24.42,39.09 L 24.84,39.42 L 26.64,40.95 L 27.69,41.99 L 29.89,44.23 L 31.08,45.57 L 33.50,48.36 L 34.75,49.91 L 37.31,51.89 L 39.65,52.80 L 41.09,53.04 L 43.43,53.42 L 44.28,53.58 L 45.05,53.72 L 45.30,53.77 L 45.72,53.86 L 45.75,53.87 L 45.93,53.48 L 46.00,52.80 L 46.00,52.34 L 45.62,51.36 L 45.02,50.45 L 44.57,49.89 L 43.59,48.73 L 42.98,48.08 L 41.71,46.75 L 40.99,46.05 L 37.95,43.20 L 36.33,41.86 L 33.10,39.29 L 31.65,38.35 L 29.78,37.33 L 28.34,36.71 L 27.58,36.45 L 26.35,36.06 L 27.36,36.35 L 28.10,36.59 L 29.51,37.14 L 31.30,38.02 L 35.00,40.20 L 35.00,36.66 L 35.10,35.50 L 35.16,34.89 L 35.39,33.51 L 35.64,32.09 L 36.47,28.74 L 36.94,27.00 L 38.14,23.26 L 40.27,17.50 L 40.94,15.85 L 42.23,12.67 L 42.52,11.95 L 43.01,10.75 L 43.51,9.50 L 43.74,8.95 L 44.11,7.81 L 44.41,6.54 L 44.43,6.41 L 44.68,6.12 L 44.85,5.97 L 45.36,5.68 L 47.50,4.96 L 48.32,4.79 L 50.28,4.17 L 52.48,3.25 M 19.79,75.00 L 20.29,75.44 L 20.81,76.12 L 21.13,76.61 L 21.82,77.70 L 22.20,78.36 L 22.97,79.73 L 22.20,78.36 L 21.82,77.70 L 21.13,76.61 L 20.81,76.12 L 20.29,75.44 L 19.78,75.00 L 19.72,75.00 L 19.72,75.00 M 107.70,63.66 L 107.45,65.51 L 107.71,63.25 M 105.40,41.68 L 106.53,46.85 L 107.02,49.41 L 107.58,54.31 L 107.79,56.73 L 107.78,61.37 L 107.72,63.01 L 107.75,60.83 L 107.67,56.02 L 107.40,53.47 L 106.73,48.28 L 106.17,45.54 L 104.91,39.99 M 102.22,30.29 L 102.56,31.62 L 103.34,34.47 L 104.43,38.32 L 104.05,37.00 L 102.87,32.80 L 102.18,30.23 L 101.90,29.14 L 101.40,27.12 L 101.24,26.41 L 101.22,26.30 M 3.37,34.25 L 3.81,35.81 L 4.08,36.32 L 3.76,35.78 L 3.39,34.47 L 3.35,34.18 L 3.35,34.17 M 25.85,35.91 L 25.91,35.93 L 25.57,35.85 M 23.68,35.47 L 23.68,35.47 L 23.15,35.42 L 23.15,35.42 M 7.81,33.09 L 6.18,33.24 L 5.51,33.34 L 4.29,33.58 L 3.91,33.73 L 3.46,33.99 L 3.60,33.74 L 3.80,33.55 L 4.68,33.29 L 5.21,33.18 L 6.89,33.06 L 8.49,33.04 M 46.17,13.47 L 45.68,14.04 L 45.32,14.51 L 44.76,15.78 L 44.49,16.96 L 44.40,17.69 L 44.16,20.88 L 44.22,22.67 L 44.45,26.28 L 44.74,27.90 L 45.05,29.45 L 45.24,30.12 L 45.66,31.36 L 45.90,31.82 L 46.60,32.99 L 46.90,33.29 L 47.46,33.69 L 47.68,33.62 L 48.09,33.30 L 48.24,32.89 L 48.49,31.90 L 48.56,31.17 L 48.66,29.57 L 48.64,28.55 L 48.57,26.38 L 48.47,25.10 L 48.24,22.41 L 48.05,20.89 L 47.64,17.74 L 47.37,16.01 L 47.03,14.10 L 46.82,13.39 L 46.69,13.29 L 46.39,13.26 M 27.34,17.32 L 27.84,17.52 L 28.69,18.15 L 29.08,18.50 L 29.64,19.34 L 30.00,20.70 L 30.00,21.09 L 29.68,21.58 L 29.47,21.79 L 28.79,21.92 L 28.41,21.94 L 27.44,21.70 L 26.93,21.53 L 25.75,20.92 L 25.18,20.59 L 24.47,19.75 L 24.19,19.32 L 24.05,18.46 L 24.06,18.05 L 24.50,17.43 L 25.80,17.00 L 26.33,17.00 M 83.98,12.28 L 83.45,12.58 L 81.44,14.22 L 81.66,13.98 L 82.10,13.53 L 82.88,12.85 L 83.79,12.25 L 84.26,12.07 L 84.38,12.00 M 90.17,7.76 L 89.47,8.17 L 89.68,8.03 L 90.45,7.55 L 90.99,7.32 M 92.83,6.61 L 91.13,7.26 L 92.05,6.87 L 92.84,6.57 L 93.04,6.54 M 78.58,3.29 L 79.00,4.00 L 79.00,4.27 L 78.40,4.71 L 76.94,5.00 L 76.37,5.00 L 75.67,4.71 L 75.41,4.52 L 75.50,4.00 L 75.67,3.72 L 76.36,3.29 L 77.56,3.00 L 77.96,3.00 M 55.53,2.51 L 55.16,2.53 L 54.18,2.64 L 53.66,2.81 L 52.75,3.14 L 53.44,2.77 L 54.77,2.51 L 55.46,2.48 Z" fill="rgba(230,42,118,1)"/>
<path d="M 100.99,25.00 L 100.99,25.10 L 101.06,25.52 L 101.10,25.75 L 101.24,26.41 L 101.40,27.12 L 101.90,29.14 L 102.18,30.23 L 102.87,32.80 L 104.05,37.00 L 104.90,39.95 L 106.17,45.54 L 106.73,48.28 L 107.40,53.47 L 107.67,56.02 L 107.75,60.83 L 107.72,63.20 L 107.20,67.67 L 106.87,69.86 L 105.76,74.01 L 105.12,76.05 L 103.40,79.90 L 102.46,81.79 L 100.13,85.37 L 95.95,90.46 L 94.62,91.87 L 91.35,94.55 L 89.64,95.85 L 85.92,98.15 L 84.04,99.23 L 80.28,100.92 L 79.35,101.29 L 77.55,101.88 L 75.00,102.51 L 74.28,102.64 L 72.42,102.87 L 71.44,102.98 L 69.19,103.16 L 66.87,103.33 L 61.79,103.51 L 60.54,103.54 L 58.14,103.55 L 56.97,103.55 L 54.87,103.51 L 53.87,103.47 L 52.24,103.36 L 51.50,103.29 L 50.50,103.10 L 49.28,102.79 L 46.75,101.81 L 45.48,101.27 L 42.88,99.90 L 41.59,99.17 L 39.00,97.45 L 37.72,96.56 L 35.22,94.56 L 35.18,94.52 L 36.56,95.57 L 37.58,96.10 L 39.75,97.09 L 41.21,97.56 L 42.74,98.04 L 43.65,98.30 L 45.57,98.84 L 46.70,99.14 L 49.40,99.87 L 50.54,100.17 L 52.66,100.71 L 53.56,100.92 L 55.24,101.29 L 55.97,101.42 L 57.34,101.63 L 57.96,101.68 L 60.29,101.73 L 61.51,101.56 L 62.76,101.35 L 63.46,101.20 L 64.93,100.88 L 65.80,100.68 L 71.10,99.44 L 70.09,99.07 L 71.37,99.45 L 72.03,99.63 L 73.07,99.80 L 73.54,99.85 L 74.26,99.77 L 75.02,99.38 L 75.21,99.19 L 75.72,98.29 L 75.98,97.76 L 76.60,96.33 L 76.92,95.57 L 77.58,93.78 L 77.92,92.85 L 78.58,90.88 L 79.10,89.31 L 78.28,92.74 L 80.89,91.40 L 82.15,90.60 L 83.13,89.84 L 83.64,89.39 L 85.74,87.42 L 86.60,86.42 L 88.26,84.75 L 89.69,83.54 L 90.50,82.92 L 93.92,80.50 L 95.52,79.63 L 97.95,78.24 L 99.38,77.32 L 100.00,76.85 L 102.24,74.98 L 103.05,73.94 L 104.49,71.80 L 104.97,70.55 L 105.79,67.90 L 106.04,66.31 L 106.22,64.10 L 106.22,62.35 L 106.17,61.36 L 105.85,57.15 L 105.51,54.82 L 104.72,50.06 L 104.18,47.70 L 103.03,43.05 L 102.35,41.01 L 101.36,36.66 L 101.15,35.13 L 101.10,34.42 L 101.04,33.06 L 101.06,32.51 L 101.18,28.57 L 101.13,26.46 L 101.05,25.63 L 100.89,24.52 M 61.55,97.22 L 61.18,97.46 L 60.54,98.05 L 60.55,98.01 L 61.20,97.42 L 61.59,97.18 L 62.15,97.14 M 26.23,84.97 L 26.98,85.95 L 28.50,87.89 L 29.28,88.80 L 30.70,90.39 L 30.52,90.20 L 28.42,87.84 L 27.41,86.65 L 25.62,84.20 L 25.04,83.24 M 81.88,77.32 L 81.64,78.11 L 81.53,78.66 L 81.21,80.21 L 81.02,81.08 L 81.02,80.13 L 81.27,78.57 L 81.44,77.87 L 82.00,76.99 L 82.01,76.98 M 22.98,79.76 L 23.36,80.49 L 23.36,80.49 L 22.98,79.76 M 84.81,76.90 L 85.01,77.00 L 84.78,76.93 L 84.45,76.79 M 90.91,76.09 L 90.67,76.28 L 91.00,76.00 M 92.72,72.70 L 92.71,72.70 L 92.72,72.70 M 93.02,68.89 L 92.96,70.22 L 92.87,71.15 L 92.96,70.16 L 93.01,68.83 L 92.67,65.65 L 91.53,60.11 L 92.68,65.70 M 17.08,59.00 L 16.00,59.62 L 17.08,59.00 L 17.20,59.00 L 17.48,58.74 L 17.20,59.00 M 46.00,52.34 L 46.00,52.56 L 45.84,51.92 M 34.50,49.58 L 34.77,49.91 L 37.31,51.89 L 37.31,51.89 L 34.75,49.91 L 34.07,49.07 M 45.62,51.36 L 45.67,51.48 L 45.58,51.30 M 13.20,32.99 L 14.07,33.03 L 15.60,33.17 L 16.32,33.25 L 17.37,33.50 L 18.17,33.99 L 18.21,34.13 L 18.66,34.41 L 18.94,34.55 L 19.77,34.82 L 23.15,35.42 L 23.82,35.48 L 25.29,35.78 L 26.04,35.96 L 27.58,36.45 L 28.34,36.71 L 29.78,37.33 L 31.65,38.35 L 33.10,39.29 L 36.33,41.86 L 37.95,43.20 L 40.99,46.05 L 41.34,46.39 L 41.26,46.39 L 41.04,46.48 L 41.03,46.69 L 40.63,47.42 L 40.03,47.59 L 39.60,47.53 L 38.66,47.33 L 38.10,47.11 L 36.92,46.59 L 36.28,46.24 L 33.61,44.58 L 32.33,43.51 L 29.88,41.25 L 29.03,40.06 L 27.46,38.61 L 26.26,38.00 L 25.77,38.00 L 25.14,38.24 L 25.12,38.66 L 25.33,39.03 L 25.89,39.88 L 26.40,40.50 L 27.58,41.85 L 27.89,42.19 L 27.69,41.99 L 26.64,40.95 L 24.84,39.42 L 24.42,39.09 L 23.68,38.59 L 22.76,38.10 L 22.37,37.95 L 21.23,37.69 L 20.60,37.56 L 19.10,37.34 L 17.53,37.14 L 13.95,36.90 L 12.18,36.81 L 9.09,36.85 L 8.41,36.88 L 7.33,37.01 L 6.32,37.29 L 6.02,37.48 L 5.95,37.48 L 6.01,37.43 L 6.45,36.94 L 6.58,36.52 L 6.77,35.58 L 6.72,34.98 L 6.13,33.56 L 5.77,33.30 L 6.18,33.24 L 7.81,33.09 L 8.66,33.02 L 10.49,32.97 L 11.40,32.95 M 73.37,43.87 L 73.85,44.20 L 74.08,44.19 L 74.54,44.07 L 74.75,43.85 L 74.78,43.82 L 74.75,43.85 L 74.54,44.07 L 74.08,44.19 L 73.85,44.20 L 73.38,43.87 L 73.13,43.66 L 73.13,43.66 M 71.59,40.51 L 71.57,40.47 L 71.51,39.62 M 71.41,37.44 L 71.41,37.26 L 71.61,35.81 M 4.29,36.68 L 4.26,36.64 L 4.18,36.50 M 3.91,36.00 L 3.81,35.81 L 3.76,35.64 M 3.43,34.03 L 3.43,34.49 L 3.37,34.25 L 3.34,34.06 L 3.43,34.00 M 71.95,33.62 L 72.01,33.29 L 72.36,31.99 M 73.14,29.23 L 73.24,28.90 L 73.54,28.10 M 74.90,24.59 L 74.97,24.41 L 75.12,24.11 M 100.69,23.50 L 100.75,23.81 L 100.66,23.50 L 100.27,22.45 M 90.00,7.97 L 90.37,8.50 L 90.91,8.68 L 91.25,8.64 L 92.28,8.72 L 92.86,8.93 L 93.00,9.10 L 92.76,9.92 L 92.13,10.89 L 91.63,11.51 L 90.53,12.85 L 89.86,13.60 L 88.47,15.13 L 87.72,15.91 L 86.20,17.45 L 85.46,18.17 L 83.99,19.55 L 83.33,20.12 L 82.09,21.16 L 81.61,21.48 L 80.77,22.00 L 80.55,22.00 L 79.79,21.84 L 79.41,21.59 L 79.29,21.40 L 79.00,20.46 L 79.11,19.79 L 79.50,18.34 L 79.94,17.50 L 80.98,15.74 L 81.74,14.83 L 82.65,13.65 L 83.04,13.08 L 83.11,12.92 L 83.14,12.83 L 83.45,12.58 L 83.98,12.28 L 85.56,11.17 L 87.90,9.29 L 88.52,8.74 L 90.00,7.86 M 77.06,20.19 L 77.07,20.16 L 77.09,20.13 M 62.32,11.41 L 62.85,13.51 L 63.06,14.50 L 63.21,16.11 L 63.24,16.84 L 63.05,17.93 L 62.92,18.40 L 62.66,18.68 L 62.92,18.40 L 63.05,17.92 L 63.24,16.83 L 63.20,16.08 L 63.05,14.47 L 62.83,13.47 L 62.30,11.36 L 62.14,10.87 M 80.97,14.63 L 81.03,14.56 L 81.07,14.52 M 56.53,2.68 L 56.97,2.80 L 57.78,3.26 L 58.11,3.48 L 57.91,3.52 L 57.82,3.70 L 57.68,4.17 L 57.68,4.57 L 57.71,5.47 L 57.80,6.10 L 57.80,8.13 L 57.46,8.86 L 57.15,8.92 L 56.45,8.82 L 56.01,8.45 L 55.06,7.50 L 54.54,6.70 L 53.64,5.58 L 53.01,5.08 L 52.64,4.94 L 51.85,4.72 L 51.35,4.70 L 50.28,4.72 L 49.59,4.80 L 47.36,5.33 L 46.91,5.61 L 46.77,5.80 L 46.54,6.21 L 46.51,6.47 L 46.51,6.79 L 46.51,6.79 L 46.41,6.20 L 46.63,5.45 L 47.61,5.00 L 47.81,5.00 L 48.42,4.88 L 48.74,4.81 L 49.51,4.56 L 52.00,3.50 L 52.58,3.20 L 53.66,2.81 L 54.18,2.64 L 55.16,2.53 L 55.64,2.51 M 18.78,55.75 L 17.93,58.05 L 18.78,55.75 M 48.02,10.63 L 48.40,11.32 L 48.80,12.02 L 48.14,10.87 M 95.64,6.11 L 95.30,6.13 L 93.83,6.31 L 93.36,6.43 L 93.71,6.31 L 95.22,6.06 L 95.56,6.03 L 96.10,6.08 L 96.67,6.34 L 96.16,6.15 Z" fill="rgba(224,134,143,1)"/>
<path d="M 46.70,99.14 L 45.57,98.84 L 43.65,98.30 L 42.74,98.04 L 41.21,97.56 L 39.75,97.09 L 37.58,96.10 L 36.56,95.57 L 34.73,94.19 L 34.26,93.80 L 33.26,92.89 L 31.58,91.27 L 30.85,90.55 L 29.28,88.80 L 28.50,87.89 L 26.98,85.95 L 26.23,84.97 L 24.92,83.07 L 23.38,80.52 L 22.98,79.76 L 22.21,78.38 L 21.83,77.72 L 21.14,76.62 L 20.81,76.12 L 20.29,75.44 L 19.79,75.00 L 19.69,75.00 L 19.36,74.49 L 19.17,74.16 L 18.70,73.09 L 18.45,72.50 L 17.91,71.02 L 17.07,68.50 L 16.60,66.95 L 16.00,64.41 L 15.76,63.23 L 15.64,61.43 L 15.64,60.63 L 16.00,59.62 L 17.08,59.00 L 17.20,59.00 L 17.48,58.74 L 17.63,58.58 L 17.93,58.05 L 18.78,55.75 L 18.92,55.21 L 19.28,54.33 L 19.48,53.91 L 19.96,53.27 L 20.22,52.98 L 20.83,52.57 L 21.16,52.40 L 21.91,52.24 L 22.31,52.18 L 23.21,52.26 L 23.68,52.33 L 24.74,52.64 L 25.28,52.83 L 26.51,53.38 L 28.54,54.47 L 29.97,55.31 L 32.22,57.28 L 33.25,58.33 L 34.79,60.90 L 35.14,61.60 L 35.72,63.14 L 35.99,63.94 L 36.43,65.73 L 36.64,66.65 L 36.97,68.70 L 37.33,72.11 L 37.43,73.34 L 37.72,75.62 L 37.88,76.73 L 38.29,78.80 L 38.75,80.83 L 40.12,84.43 L 40.90,86.19 L 43.04,89.49 L 47.26,94.47 L 47.83,95.06 L 48.82,96.05 L 49.30,96.52 L 50.14,97.31 L 50.96,98.05 L 52.29,98.99 L 52.94,99.39 L 54.16,99.79 L 56.20,100.00 L 57.33,100.00 L 58.99,99.61 L 59.35,99.48 L 59.88,99.13 L 60.36,98.50 L 60.54,98.05 L 61.18,97.46 L 61.55,97.22 L 62.63,97.07 L 63.22,97.05 L 64.79,97.32 L 67.73,98.22 L 71.10,99.44 L 65.80,100.68 L 64.93,100.88 L 63.46,101.20 L 62.76,101.35 L 61.51,101.56 L 60.29,101.73 L 57.96,101.68 L 57.34,101.63 L 55.97,101.42 L 55.24,101.29 L 53.56,100.92 L 52.66,100.71 L 50.54,100.17 L 49.40,99.87 M 79.63,87.12 L 80.00,85.57 L 80.74,82.32 L 80.91,81.55 L 81.21,80.21 L 81.53,78.66 L 81.64,78.11 L 81.88,77.32 L 82.01,76.98 L 82.33,76.56 L 82.50,76.40 L 82.94,76.32 L 83.79,76.52 L 84.78,76.93 L 86.29,77.42 L 86.99,77.61 L 88.08,77.66 L 88.60,77.63 L 89.51,77.23 L 90.91,76.09 L 91.54,75.46 L 92.37,73.68 L 92.72,72.70 L 92.96,70.22 L 93.02,68.89 L 92.68,65.70 L 91.53,60.11 L 91.06,58.31 L 90.39,54.36 L 90.10,52.40 L 89.81,48.71 L 89.76,47.84 L 89.75,46.28 L 89.76,45.54 L 89.86,44.31 L 89.92,43.75 L 90.13,42.95 L 90.59,42.33 L 90.75,42.27 L 91.12,42.41 L 91.32,42.52 L 91.75,43.00 L 91.98,43.29 L 92.47,44.12 L 92.72,44.58 L 93.28,45.76 L 93.57,46.40 L 94.19,47.94 L 94.51,48.76 L 95.20,50.66 L 95.55,51.66 L 96.31,53.93 L 97.53,57.75 L 97.85,58.79 L 98.44,60.56 L 98.72,61.40 L 99.24,62.76 L 99.48,63.39 L 99.94,64.36 L 100.15,64.79 L 100.55,65.37 L 100.75,65.61 L 101.10,65.82 L 101.28,65.88 L 101.60,65.73 L 101.76,65.61 L 102.06,65.11 L 102.50,63.99 L 102.58,63.73 L 102.67,63.02 L 102.70,62.63 L 102.67,61.65 L 102.64,61.12 L 102.50,59.83 L 102.42,59.15 L 102.16,57.55 L 102.02,56.70 L 101.63,54.75 L 101.43,53.74 L 100.92,51.42 L 100.65,50.22 L 100.01,47.51 L 98.91,43.00 L 98.40,40.97 L 97.69,36.64 L 97.39,34.48 L 97.11,30.36 L 97.07,29.38 L 97.07,27.57 L 97.08,26.69 L 97.20,25.16 L 97.28,24.43 L 97.52,23.26 L 98.02,22.00 L 98.23,21.67 L 98.57,21.25 L 98.73,21.08 L 99.00,21.00 L 99.14,21.00 L 99.43,21.25 L 99.98,22.00 L 100.26,22.42 L 100.66,23.50 L 100.83,24.10 L 101.05,25.63 L 101.13,26.46 L 101.18,28.57 L 101.06,32.51 L 101.04,33.06 L 101.10,34.42 L 101.15,35.13 L 101.36,36.66 L 102.35,41.01 L 103.03,43.05 L 104.18,47.70 L 104.72,50.06 L 105.51,54.82 L 105.85,57.15 L 106.17,61.36 L 106.22,62.35 L 106.22,64.10 L 106.04,66.31 L 105.79,67.90 L 104.97,70.55 L 104.49,71.80 L 103.05,73.94 L 102.24,74.98 L 100.00,76.85 L 99.38,77.32 L 97.95,78.24 L 95.52,79.63 L 93.92,80.50 L 90.50,82.92 L 89.69,83.54 L 88.26,84.75 L 86.60,86.42 L 85.74,87.42 L 83.64,89.39 L 83.13,89.84 L 82.15,90.60 L 80.89,91.40 L 78.28,92.74 L 79.63,87.12 M 41.09,53.04 L 39.65,52.80 L 37.32,51.89 L 34.77,49.91 L 34.50,49.58 L 33.67,48.60 L 33.22,48.07 L 32.11,46.81 L 28.41,42.75 L 27.58,41.85 L 26.40,40.50 L 25.89,39.88 L 25.33,39.03 L 25.12,38.66 L 25.14,38.24 L 25.77,38.00 L 26.26,38.00 L 27.46,38.61 L 29.03,40.06 L 29.88,41.25 L 32.33,43.51 L 33.61,44.58 L 36.28,46.24 L 36.92,46.59 L 38.10,47.11 L 38.66,47.33 L 39.60,47.53 L 40.03,47.59 L 40.63,47.42 L 41.03,46.69 L 41.04,46.48 L 41.26,46.39 L 41.40,46.39 L 41.83,46.65 L 42.29,46.98 L 43.53,48.33 L 44.15,49.06 L 45.23,50.66 L 45.46,51.05 L 45.79,51.73 L 46.00,52.56 L 46.00,52.95 L 45.93,53.54 L 45.75,53.87 L 45.72,53.86 L 45.30,53.77 L 45.05,53.72 L 44.28,53.58 L 43.43,53.42 M 71.87,41.25 L 71.59,40.53 L 71.42,38.58 L 71.40,37.54 L 71.69,35.10 L 71.89,33.83 L 72.58,31.09 L 72.97,29.69 L 73.99,26.83 L 74.53,25.40 L 75.79,22.61 L 76.45,21.24 L 77.90,18.71 L 78.64,17.50 L 80.20,15.41 L 82.57,13.00 L 82.84,12.79 L 83.10,12.68 L 83.19,12.67 L 83.11,12.92 L 83.04,13.08 L 82.65,13.65 L 81.74,14.83 L 80.98,15.74 L 79.94,17.50 L 79.50,18.34 L 79.11,19.79 L 79.00,20.46 L 79.29,21.40 L 79.41,21.59 L 79.79,21.84 L 80.55,22.00 L 80.77,22.00 L 81.61,21.48 L 82.09,21.16 L 83.33,20.12 L 83.99,19.55 L 85.46,18.17 L 86.20,17.45 L 87.72,15.91 L 88.47,15.13 L 89.86,13.60 L 90.53,12.85 L 91.63,11.51 L 92.13,10.89 L 92.76,9.92 L 93.00,9.10 L 92.86,8.93 L 92.28,8.72 L 91.25,8.64 L 90.91,8.68 L 90.37,8.50 L 90.00,7.97 L 90.00,7.85 L 90.26,7.59 L 90.42,7.46 L 90.93,7.20 L 91.50,6.94 L 93.05,6.51 L 93.83,6.31 L 95.30,6.13 L 95.64,6.11 L 96.16,6.15 L 96.67,6.34 L 96.74,6.41 L 96.37,7.08 L 96.11,7.49 L 95.17,8.71 L 94.64,9.38 L 93.25,10.99 L 90.81,13.68 L 89.60,14.97 L 87.48,17.32 L 86.47,18.46 L 84.71,20.55 L 83.88,21.57 L 82.45,23.46 L 81.78,24.39 L 80.65,26.13 L 79.59,27.85 L 78.21,31.07 L 77.00,36.02 L 76.85,37.10 L 76.51,38.94 L 76.34,39.80 L 75.97,41.22 L 75.78,41.87 L 75.39,42.86 L 75.18,43.30 L 74.75,43.85 L 74.54,44.07 L 74.08,44.19 L 73.85,44.20 L 73.37,43.87 L 73.13,43.66 L 72.64,42.89 L 72.39,42.46 M 4.35,36.77 L 3.99,36.20 L 3.59,35.22 L 3.44,34.76 L 3.43,34.03 L 3.48,33.70 L 3.86,33.27 L 4.88,33.00 L 5.36,33.00 L 6.13,33.56 L 6.72,34.98 L 6.77,35.58 L 6.58,36.52 L 6.45,36.94 L 6.01,37.43 L 5.77,37.61 L 5.20,37.56 L 4.91,37.46 M 45.90,31.82 L 45.66,31.36 L 45.24,30.12 L 45.05,29.45 L 44.74,27.90 L 44.45,26.28 L 44.22,22.67 L 44.16,20.88 L 44.40,17.69 L 44.49,16.96 L 44.76,15.78 L 45.32,14.51 L 45.68,14.04 L 46.17,13.47 L 46.39,13.26 L 46.69,13.29 L 46.82,13.39 L 47.03,14.10 L 47.37,16.01 L 47.64,17.74 L 48.05,20.89 L 48.24,22.41 L 48.47,25.10 L 48.57,26.38 L 48.64,28.55 L 48.66,29.57 L 48.56,31.17 L 48.49,31.90 L 48.24,32.89 L 48.09,33.30 L 47.68,33.62 L 47.46,33.69 L 46.90,33.29 L 46.60,32.99 M 53.80,26.49 L 53.34,25.39 L 52.41,22.64 L 52.20,21.96 L 51.84,20.67 L 51.46,19.00 L 51.28,18.04 L 50.41,15.51 L 48.80,12.02 L 48.40,11.32 L 47.74,10.11 L 47.44,9.54 L 47.01,8.58 L 46.81,8.13 L 46.59,7.38 L 46.51,7.03 L 46.51,6.47 L 46.54,6.21 L 46.77,5.80 L 46.91,5.61 L 47.36,5.33 L 49.59,4.80 L 50.28,4.72 L 51.35,4.70 L 51.85,4.72 L 52.64,4.94 L 53.01,5.08 L 53.64,5.58 L 54.54,6.70 L 55.06,7.50 L 56.01,8.45 L 56.45,8.82 L 57.15,8.92 L 57.46,8.86 L 57.80,8.13 L 57.80,6.10 L 57.71,5.47 L 57.68,4.57 L 57.68,4.17 L 57.82,3.70 L 57.91,3.52 L 58.20,3.47 L 58.35,3.49 L 58.75,3.81 L 58.96,4.02 L 59.44,4.69 L 59.69,5.07 L 60.23,6.07 L 60.50,6.61 L 61.06,7.90 L 61.89,10.13 L 62.30,11.36 L 62.83,13.47 L 63.05,14.47 L 63.20,16.08 L 63.24,16.83 L 63.05,17.92 L 62.92,18.40 L 62.42,18.94 L 62.14,19.15 L 61.37,19.13 L 60.96,19.04 L 59.95,18.43 L 59.42,18.04 L 58.20,16.81 L 56.18,14.24 L 52.87,9.50 L 53.49,13.50 L 53.66,14.60 L 54.23,17.53 L 55.14,21.60 L 55.43,22.73 L 55.77,25.20 L 55.84,25.79 L 55.89,26.84 L 55.84,28.09 L 55.76,28.62 L 55.61,29.23 L 55.52,29.45 L 55.27,29.40 L 55.13,29.29 L 54.71,28.52 L 54.47,28.04 Z" fill="rgba(239,77,136,1)"/>
</g>
</svg>